%TF.GenerationSoftware,KiCad,Pcbnew,7.0.7*%
%TF.CreationDate,2023-10-16T17:54:11+02:00*%
%TF.ProjectId,arduino-nano-drone,61726475-696e-46f2-9d6e-616e6f2d6472,0*%
%TF.SameCoordinates,Original*%
%TF.FileFunction,Soldermask,Bot*%
%TF.FilePolarity,Negative*%
%FSLAX46Y46*%
G04 Gerber Fmt 4.6, Leading zero omitted, Abs format (unit mm)*
G04 Created by KiCad (PCBNEW 7.0.7) date 2023-10-16 17:54:11*
%MOMM*%
%LPD*%
G01*
G04 APERTURE LIST*
%ADD10R,1.700000X1.700000*%
%ADD11O,1.700000X1.700000*%
%ADD12C,3.000000*%
%ADD13C,1.400000*%
%ADD14O,1.400000X1.400000*%
%ADD15R,1.600000X1.600000*%
%ADD16O,1.600000X1.600000*%
G04 APERTURE END LIST*
D10*
%TO.C,MPU6050*%
X98700000Y-54800000D03*
D11*
X101240000Y-54800000D03*
X103780000Y-54800000D03*
X106320000Y-54800000D03*
X108860000Y-54800000D03*
X111400000Y-54800000D03*
X113940000Y-54800000D03*
X116480000Y-54800000D03*
%TD*%
D12*
%TO.C,REF\u002A\u002A*%
X90886202Y-95411881D03*
%TD*%
D13*
%TO.C,R2*%
X97900000Y-51800000D03*
D14*
X105520000Y-51800000D03*
%TD*%
D10*
%TO.C,BT1*%
X113500000Y-42400000D03*
D11*
X110960000Y-42400000D03*
%TD*%
D12*
%TO.C,REF\u002A\u002A*%
X91300000Y-34650000D03*
%TD*%
D10*
%TO.C,M*%
X106475000Y-47370000D03*
D11*
X103935000Y-47370000D03*
X101395000Y-47370000D03*
X98855000Y-47370000D03*
%TD*%
D10*
%TO.C,PPM*%
X110435000Y-47320000D03*
%TD*%
D12*
%TO.C,REF\u002A\u002A*%
X143450000Y-34800000D03*
%TD*%
%TO.C,REF\u002A\u002A*%
X143186202Y-95361881D03*
%TD*%
D15*
%TO.C,ARDUINO*%
X120460000Y-44520000D03*
D16*
X120460000Y-47060000D03*
X120460000Y-49600000D03*
X120460000Y-52140000D03*
X120460000Y-54680000D03*
X120460000Y-57220000D03*
X120460000Y-59760000D03*
X120460000Y-62300000D03*
X120460000Y-64840000D03*
X120460000Y-67380000D03*
X120460000Y-69920000D03*
X120460000Y-72460000D03*
X120460000Y-75000000D03*
X120460000Y-77540000D03*
X120460000Y-80080000D03*
X135700000Y-80080000D03*
X135700000Y-77540000D03*
X135700000Y-75000000D03*
X135700000Y-72460000D03*
X135700000Y-69920000D03*
X135700000Y-67380000D03*
X135700000Y-64840000D03*
X135700000Y-62300000D03*
X135700000Y-59760000D03*
X135700000Y-57220000D03*
X135700000Y-54680000D03*
X135700000Y-52140000D03*
X135700000Y-49600000D03*
X135700000Y-47060000D03*
X135700000Y-44520000D03*
%TD*%
D13*
%TO.C,R1*%
X115220000Y-51800000D03*
D14*
X107600000Y-51800000D03*
%TD*%
D10*
%TO.C,MGND*%
X106520000Y-42400000D03*
D11*
X103980000Y-42400000D03*
X101440000Y-42400000D03*
X98900000Y-42400000D03*
%TD*%
M02*
