%TF.GenerationSoftware,KiCad,Pcbnew,7.0.7*%
%TF.CreationDate,2023-10-16T17:54:11+02:00*%
%TF.ProjectId,arduino-nano-drone,61726475-696e-46f2-9d6e-616e6f2d6472,0*%
%TF.SameCoordinates,Original*%
%TF.FileFunction,Copper,L2,Bot*%
%TF.FilePolarity,Positive*%
%FSLAX46Y46*%
G04 Gerber Fmt 4.6, Leading zero omitted, Abs format (unit mm)*
G04 Created by KiCad (PCBNEW 7.0.7) date 2023-10-16 17:54:11*
%MOMM*%
%LPD*%
G01*
G04 APERTURE LIST*
%TA.AperFunction,ComponentPad*%
%ADD10R,1.700000X1.700000*%
%TD*%
%TA.AperFunction,ComponentPad*%
%ADD11O,1.700000X1.700000*%
%TD*%
%TA.AperFunction,ComponentPad*%
%ADD12C,1.400000*%
%TD*%
%TA.AperFunction,ComponentPad*%
%ADD13O,1.400000X1.400000*%
%TD*%
%TA.AperFunction,ComponentPad*%
%ADD14R,1.600000X1.600000*%
%TD*%
%TA.AperFunction,ComponentPad*%
%ADD15O,1.600000X1.600000*%
%TD*%
%TA.AperFunction,ViaPad*%
%ADD16C,0.800000*%
%TD*%
%TA.AperFunction,Conductor*%
%ADD17C,0.250000*%
%TD*%
%TA.AperFunction,Conductor*%
%ADD18C,0.600000*%
%TD*%
G04 APERTURE END LIST*
D10*
%TO.P,MPU6050,1,Pin_1*%
%TO.N,VCC*%
X98700000Y-54800000D03*
D11*
%TO.P,MPU6050,2,Pin_2*%
%TO.N,GND*%
X101240000Y-54800000D03*
%TO.P,MPU6050,3,Pin_3*%
%TO.N,/SCL*%
X103780000Y-54800000D03*
%TO.P,MPU6050,4,Pin_4*%
%TO.N,/SDA*%
X106320000Y-54800000D03*
%TO.P,MPU6050,5,Pin_5*%
%TO.N,unconnected-(J5-Pin_5-Pad5)*%
X108860000Y-54800000D03*
%TO.P,MPU6050,6,Pin_6*%
%TO.N,unconnected-(J5-Pin_6-Pad6)*%
X111400000Y-54800000D03*
%TO.P,MPU6050,7,Pin_7*%
%TO.N,unconnected-(J5-Pin_7-Pad7)*%
X113940000Y-54800000D03*
%TO.P,MPU6050,8,Pin_8*%
%TO.N,unconnected-(J5-Pin_8-Pad8)*%
X116480000Y-54800000D03*
%TD*%
D12*
%TO.P,R2,1*%
%TO.N,VCC*%
X97900000Y-51800000D03*
D13*
%TO.P,R2,2*%
%TO.N,/SCL*%
X105520000Y-51800000D03*
%TD*%
D10*
%TO.P,BT1,1,+*%
%TO.N,VCC*%
X113500000Y-42400000D03*
D11*
%TO.P,BT1,2,-*%
%TO.N,GND*%
X110960000Y-42400000D03*
%TD*%
D10*
%TO.P,M,1,Pin_1*%
%TO.N,Net-(A2-D3)*%
X106475000Y-47370000D03*
D11*
%TO.P,M,2,Pin_2*%
%TO.N,Net-(A2-D9)*%
X103935000Y-47370000D03*
%TO.P,M,3,Pin_3*%
%TO.N,Net-(A2-D10)*%
X101395000Y-47370000D03*
%TO.P,M,4,Pin_4*%
%TO.N,Net-(A2-D11)*%
X98855000Y-47370000D03*
%TD*%
D10*
%TO.P,PPM,1,Pin_1*%
%TO.N,Net-(A2-D2)*%
X110435000Y-47320000D03*
%TD*%
D14*
%TO.P,ARDUINO,1,D1/TX*%
%TO.N,unconnected-(A2-D1{slash}TX-Pad1)*%
X120460000Y-44520000D03*
D15*
%TO.P,ARDUINO,2,D0/RX*%
%TO.N,unconnected-(A2-D0{slash}RX-Pad2)*%
X120460000Y-47060000D03*
%TO.P,ARDUINO,3,~{RESET}*%
%TO.N,unconnected-(A2-~{RESET}-Pad3)*%
X120460000Y-49600000D03*
%TO.P,ARDUINO,4,GND*%
%TO.N,GND*%
X120460000Y-52140000D03*
%TO.P,ARDUINO,5,D2*%
%TO.N,Net-(A2-D2)*%
X120460000Y-54680000D03*
%TO.P,ARDUINO,6,D3*%
%TO.N,Net-(A2-D3)*%
X120460000Y-57220000D03*
%TO.P,ARDUINO,7,D4*%
%TO.N,unconnected-(A2-D4-Pad7)*%
X120460000Y-59760000D03*
%TO.P,ARDUINO,8,D5*%
%TO.N,unconnected-(A2-D5-Pad8)*%
X120460000Y-62300000D03*
%TO.P,ARDUINO,9,D6*%
%TO.N,unconnected-(A2-D6-Pad9)*%
X120460000Y-64840000D03*
%TO.P,ARDUINO,10,D7*%
%TO.N,unconnected-(A2-D7-Pad10)*%
X120460000Y-67380000D03*
%TO.P,ARDUINO,11,D8*%
%TO.N,unconnected-(A2-D8-Pad11)*%
X120460000Y-69920000D03*
%TO.P,ARDUINO,12,D9*%
%TO.N,Net-(A2-D9)*%
X120460000Y-72460000D03*
%TO.P,ARDUINO,13,D10*%
%TO.N,Net-(A2-D10)*%
X120460000Y-75000000D03*
%TO.P,ARDUINO,14,D11*%
%TO.N,Net-(A2-D11)*%
X120460000Y-77540000D03*
%TO.P,ARDUINO,15,D12*%
%TO.N,unconnected-(A2-D12-Pad15)*%
X120460000Y-80080000D03*
%TO.P,ARDUINO,16,D13*%
%TO.N,unconnected-(A2-D13-Pad16)*%
X135700000Y-80080000D03*
%TO.P,ARDUINO,17,3V3*%
%TO.N,unconnected-(A2-3V3-Pad17)*%
X135700000Y-77540000D03*
%TO.P,ARDUINO,18,AREF*%
%TO.N,unconnected-(A2-AREF-Pad18)*%
X135700000Y-75000000D03*
%TO.P,ARDUINO,19,A0*%
%TO.N,unconnected-(A2-A0-Pad19)*%
X135700000Y-72460000D03*
%TO.P,ARDUINO,20,A1*%
%TO.N,unconnected-(A2-A1-Pad20)*%
X135700000Y-69920000D03*
%TO.P,ARDUINO,21,A2*%
%TO.N,unconnected-(A2-A2-Pad21)*%
X135700000Y-67380000D03*
%TO.P,ARDUINO,22,A3*%
%TO.N,unconnected-(A2-A3-Pad22)*%
X135700000Y-64840000D03*
%TO.P,ARDUINO,23,A4*%
%TO.N,/SDA*%
X135700000Y-62300000D03*
%TO.P,ARDUINO,24,A5*%
%TO.N,/SCL*%
X135700000Y-59760000D03*
%TO.P,ARDUINO,25,A6*%
%TO.N,unconnected-(A2-A6-Pad25)*%
X135700000Y-57220000D03*
%TO.P,ARDUINO,26,A7*%
%TO.N,unconnected-(A2-A7-Pad26)*%
X135700000Y-54680000D03*
%TO.P,ARDUINO,27,+5V*%
%TO.N,VCC*%
X135700000Y-52140000D03*
%TO.P,ARDUINO,28,~{RESET}*%
%TO.N,unconnected-(A2-~{RESET}-Pad28)*%
X135700000Y-49600000D03*
%TO.P,ARDUINO,29,GND*%
%TO.N,GND*%
X135700000Y-47060000D03*
%TO.P,ARDUINO,30,VIN*%
%TO.N,unconnected-(A2-VIN-Pad30)*%
X135700000Y-44520000D03*
%TD*%
D12*
%TO.P,R1,1*%
%TO.N,VCC*%
X115220000Y-51800000D03*
D13*
%TO.P,R1,2*%
%TO.N,/SDA*%
X107600000Y-51800000D03*
%TD*%
D10*
%TO.P,MGND,1,Pin_1*%
%TO.N,GND*%
X106520000Y-42400000D03*
D11*
%TO.P,MGND,2,Pin_2*%
X103980000Y-42400000D03*
%TO.P,MGND,3,Pin_3*%
X101440000Y-42400000D03*
%TO.P,MGND,4,Pin_4*%
X98900000Y-42400000D03*
%TD*%
D16*
%TO.N,GND*%
X127500000Y-41500000D03*
X115900000Y-59000000D03*
X120700000Y-39800000D03*
X102100000Y-82400000D03*
X129550000Y-67500000D03*
X133360000Y-49770000D03*
X131610000Y-43020000D03*
X112000000Y-77100000D03*
X116700000Y-81000000D03*
X95600000Y-44500000D03*
X116300000Y-48300000D03*
X106600000Y-58500000D03*
X138700000Y-50900000D03*
X136200000Y-41300000D03*
X128800000Y-50900000D03*
X122660000Y-74070000D03*
X104700000Y-65900000D03*
X133450000Y-85200000D03*
X112500000Y-59400000D03*
X101100000Y-57000000D03*
X101200000Y-51600000D03*
X123900000Y-47900000D03*
X126550000Y-82250000D03*
X138400000Y-67200000D03*
X131410000Y-62520000D03*
X116000000Y-44800000D03*
X117000000Y-63200000D03*
X104400000Y-73600000D03*
X118600000Y-75700000D03*
X133650000Y-75700000D03*
X111000000Y-85500000D03*
X131300000Y-46300000D03*
X107500000Y-39700000D03*
X104800000Y-44900000D03*
X97800000Y-71700000D03*
X101200000Y-62700000D03*
X123100000Y-52154500D03*
X132110000Y-55020000D03*
X118000000Y-73500000D03*
X118100000Y-52000000D03*
X125400000Y-63700000D03*
%TO.N,VCC*%
X113500000Y-48200000D03*
%TD*%
D17*
%TO.N,Net-(A2-D2)*%
X110435000Y-49035000D02*
X114500000Y-53100000D01*
X114500000Y-53100000D02*
X118880000Y-53100000D01*
X118880000Y-53100000D02*
X120460000Y-54680000D01*
X110435000Y-47320000D02*
X110435000Y-49035000D01*
%TO.N,Net-(A2-D3)*%
X114320000Y-57220000D02*
X120460000Y-57220000D01*
X112700000Y-53595000D02*
X112700000Y-55600000D01*
X106475000Y-47370000D02*
X112700000Y-53595000D01*
X112700000Y-55600000D02*
X114320000Y-57220000D01*
%TO.N,Net-(A2-D9)*%
X110100000Y-67027208D02*
X115532792Y-72460000D01*
X103935000Y-47370000D02*
X105665000Y-49100000D01*
X105665000Y-49100000D02*
X107568604Y-49100000D01*
X110100000Y-51631396D02*
X107568604Y-49100000D01*
X110100000Y-51631396D02*
X110100000Y-67027208D01*
X115532792Y-72460000D02*
X120460000Y-72460000D01*
%TO.N,Net-(A2-D10)*%
X102500000Y-60063604D02*
X117161396Y-74725000D01*
X101395000Y-47370000D02*
X102500000Y-48475000D01*
X102500000Y-48475000D02*
X102500000Y-60063604D01*
X120400305Y-74725000D02*
X120567652Y-74892348D01*
X117161396Y-74725000D02*
X120400305Y-74725000D01*
%TO.N,Net-(A2-D11)*%
X119340000Y-77540000D02*
X120460000Y-77540000D01*
X100000000Y-58200000D02*
X119340000Y-77540000D01*
X98855000Y-47370000D02*
X100000000Y-48515000D01*
X100000000Y-48515000D02*
X100000000Y-58200000D01*
D18*
%TO.N,VCC*%
X115220000Y-49920000D02*
X115220000Y-51800000D01*
X113500000Y-48200000D02*
X115220000Y-49920000D01*
%TD*%
%TA.AperFunction,Conductor*%
%TO.N,GND*%
G36*
X119179429Y-75370185D02*
G01*
X119225184Y-75422989D01*
X119232165Y-75442407D01*
X119233258Y-75446488D01*
X119233261Y-75446497D01*
X119329431Y-75652732D01*
X119329432Y-75652734D01*
X119459954Y-75839141D01*
X119620858Y-76000045D01*
X119620861Y-76000047D01*
X119807266Y-76130568D01*
X119865275Y-76157618D01*
X119917714Y-76203791D01*
X119936866Y-76270984D01*
X119916650Y-76337865D01*
X119865275Y-76382382D01*
X119807267Y-76409431D01*
X119807265Y-76409432D01*
X119620858Y-76539954D01*
X119510383Y-76650430D01*
X119449060Y-76683915D01*
X119379368Y-76678931D01*
X119335021Y-76650430D01*
X118246772Y-75562181D01*
X118213287Y-75500858D01*
X118218271Y-75431166D01*
X118260143Y-75375233D01*
X118325607Y-75350816D01*
X118334453Y-75350500D01*
X119112390Y-75350500D01*
X119179429Y-75370185D01*
G37*
%TD.AperFunction*%
%TA.AperFunction,Conductor*%
G36*
X119312851Y-73105185D02*
G01*
X119347387Y-73138377D01*
X119459954Y-73299141D01*
X119620858Y-73460045D01*
X119620861Y-73460047D01*
X119807266Y-73590568D01*
X119865275Y-73617618D01*
X119917714Y-73663791D01*
X119936866Y-73730984D01*
X119916650Y-73797865D01*
X119865275Y-73842382D01*
X119807267Y-73869431D01*
X119807265Y-73869432D01*
X119620862Y-73999951D01*
X119589248Y-74031566D01*
X119557631Y-74063182D01*
X119496311Y-74096666D01*
X119469952Y-74099500D01*
X117471848Y-74099500D01*
X117404809Y-74079815D01*
X117384167Y-74063181D01*
X116618167Y-73297181D01*
X116584682Y-73235858D01*
X116589666Y-73166166D01*
X116631538Y-73110233D01*
X116697002Y-73085816D01*
X116705848Y-73085500D01*
X119245812Y-73085500D01*
X119312851Y-73105185D01*
G37*
%TD.AperFunction*%
%TA.AperFunction,Conductor*%
G36*
X112208120Y-55993262D02*
G01*
X112215277Y-55999867D01*
X112215930Y-56000520D01*
X112228628Y-56015376D01*
X112240405Y-56031586D01*
X112240406Y-56031587D01*
X112276309Y-56061288D01*
X112280620Y-56065210D01*
X113435407Y-57219998D01*
X113819197Y-57603788D01*
X113829022Y-57616051D01*
X113829243Y-57615869D01*
X113834214Y-57621878D01*
X113860217Y-57646295D01*
X113884635Y-57669226D01*
X113905529Y-57690120D01*
X113911011Y-57694373D01*
X113915443Y-57698157D01*
X113949418Y-57730062D01*
X113966976Y-57739714D01*
X113983233Y-57750393D01*
X113999064Y-57762673D01*
X114018737Y-57771186D01*
X114041833Y-57781182D01*
X114047077Y-57783750D01*
X114087908Y-57806197D01*
X114100523Y-57809435D01*
X114107305Y-57811177D01*
X114125719Y-57817481D01*
X114144104Y-57825438D01*
X114190157Y-57832732D01*
X114195826Y-57833906D01*
X114240981Y-57845500D01*
X114261016Y-57845500D01*
X114280413Y-57847026D01*
X114300196Y-57850160D01*
X114346583Y-57845775D01*
X114352422Y-57845500D01*
X119245812Y-57845500D01*
X119312851Y-57865185D01*
X119347387Y-57898377D01*
X119459954Y-58059141D01*
X119620858Y-58220045D01*
X119787772Y-58336918D01*
X119807266Y-58350568D01*
X119865278Y-58377619D01*
X119917713Y-58423788D01*
X119936866Y-58490982D01*
X119916651Y-58557863D01*
X119865277Y-58602380D01*
X119807268Y-58629430D01*
X119807265Y-58629432D01*
X119620858Y-58759954D01*
X119459954Y-58920858D01*
X119329432Y-59107265D01*
X119329431Y-59107267D01*
X119233261Y-59313502D01*
X119233258Y-59313511D01*
X119174366Y-59533302D01*
X119174364Y-59533313D01*
X119154532Y-59759998D01*
X119154532Y-59760001D01*
X119174364Y-59986686D01*
X119174366Y-59986697D01*
X119233258Y-60206488D01*
X119233261Y-60206497D01*
X119329431Y-60412732D01*
X119329432Y-60412734D01*
X119459954Y-60599141D01*
X119620858Y-60760045D01*
X119620861Y-60760047D01*
X119807266Y-60890568D01*
X119865278Y-60917619D01*
X119917713Y-60963788D01*
X119936866Y-61030982D01*
X119916651Y-61097863D01*
X119865277Y-61142380D01*
X119807268Y-61169430D01*
X119807265Y-61169432D01*
X119620858Y-61299954D01*
X119459954Y-61460858D01*
X119329432Y-61647265D01*
X119329431Y-61647267D01*
X119233261Y-61853502D01*
X119233258Y-61853511D01*
X119174366Y-62073302D01*
X119174364Y-62073313D01*
X119154532Y-62299998D01*
X119154532Y-62300001D01*
X119174364Y-62526686D01*
X119174366Y-62526697D01*
X119233258Y-62746488D01*
X119233261Y-62746497D01*
X119329431Y-62952732D01*
X119329432Y-62952734D01*
X119459954Y-63139141D01*
X119620858Y-63300045D01*
X119620861Y-63300047D01*
X119807266Y-63430568D01*
X119865275Y-63457618D01*
X119917714Y-63503791D01*
X119936866Y-63570984D01*
X119916650Y-63637865D01*
X119865275Y-63682382D01*
X119807267Y-63709431D01*
X119807265Y-63709432D01*
X119620858Y-63839954D01*
X119459954Y-64000858D01*
X119329432Y-64187265D01*
X119329431Y-64187267D01*
X119233261Y-64393502D01*
X119233258Y-64393511D01*
X119174366Y-64613302D01*
X119174364Y-64613313D01*
X119154532Y-64839998D01*
X119154532Y-64840001D01*
X119174364Y-65066686D01*
X119174366Y-65066697D01*
X119233258Y-65286488D01*
X119233261Y-65286497D01*
X119329431Y-65492732D01*
X119329432Y-65492734D01*
X119459954Y-65679141D01*
X119620858Y-65840045D01*
X119620861Y-65840047D01*
X119807266Y-65970568D01*
X119865275Y-65997618D01*
X119917714Y-66043791D01*
X119936866Y-66110984D01*
X119916650Y-66177865D01*
X119865275Y-66222382D01*
X119807267Y-66249431D01*
X119807265Y-66249432D01*
X119620858Y-66379954D01*
X119459954Y-66540858D01*
X119329432Y-66727265D01*
X119329431Y-66727267D01*
X119233261Y-66933502D01*
X119233258Y-66933511D01*
X119174366Y-67153302D01*
X119174364Y-67153313D01*
X119154532Y-67379998D01*
X119154532Y-67380001D01*
X119174364Y-67606686D01*
X119174366Y-67606697D01*
X119233258Y-67826488D01*
X119233261Y-67826497D01*
X119329431Y-68032732D01*
X119329432Y-68032734D01*
X119459954Y-68219141D01*
X119620858Y-68380045D01*
X119620861Y-68380047D01*
X119807266Y-68510568D01*
X119865275Y-68537618D01*
X119917714Y-68583791D01*
X119936866Y-68650984D01*
X119916650Y-68717865D01*
X119865275Y-68762382D01*
X119807267Y-68789431D01*
X119807265Y-68789432D01*
X119620858Y-68919954D01*
X119459954Y-69080858D01*
X119329432Y-69267265D01*
X119329431Y-69267267D01*
X119233261Y-69473502D01*
X119233258Y-69473511D01*
X119174366Y-69693302D01*
X119174364Y-69693313D01*
X119154532Y-69919998D01*
X119154532Y-69920001D01*
X119174364Y-70146686D01*
X119174366Y-70146697D01*
X119233258Y-70366488D01*
X119233261Y-70366497D01*
X119329431Y-70572732D01*
X119329432Y-70572734D01*
X119459954Y-70759141D01*
X119620858Y-70920045D01*
X119620861Y-70920047D01*
X119807266Y-71050568D01*
X119865275Y-71077618D01*
X119917714Y-71123791D01*
X119936866Y-71190984D01*
X119916650Y-71257865D01*
X119865275Y-71302382D01*
X119807267Y-71329431D01*
X119807265Y-71329432D01*
X119620858Y-71459954D01*
X119459954Y-71620858D01*
X119347387Y-71781623D01*
X119292811Y-71825248D01*
X119245812Y-71834500D01*
X115843245Y-71834500D01*
X115776206Y-71814815D01*
X115755564Y-71798181D01*
X110761819Y-66804436D01*
X110728334Y-66743113D01*
X110725500Y-66716755D01*
X110725500Y-56170228D01*
X110745185Y-56103189D01*
X110797989Y-56057434D01*
X110867147Y-56047490D01*
X110901901Y-56057845D01*
X110936337Y-56073903D01*
X110936342Y-56073904D01*
X110936344Y-56073905D01*
X110947798Y-56076974D01*
X111164592Y-56135063D01*
X111341034Y-56150500D01*
X111399999Y-56155659D01*
X111400000Y-56155659D01*
X111400001Y-56155659D01*
X111458966Y-56150500D01*
X111635408Y-56135063D01*
X111863663Y-56073903D01*
X112075259Y-55975233D01*
X112144336Y-55964742D01*
X112208120Y-55993262D01*
G37*
%TD.AperFunction*%
%TA.AperFunction,Conductor*%
G36*
X107674854Y-55466546D02*
G01*
X107691574Y-55485841D01*
X107821505Y-55671401D01*
X107988599Y-55838495D01*
X108085384Y-55906264D01*
X108182165Y-55974032D01*
X108182167Y-55974033D01*
X108182170Y-55974035D01*
X108396337Y-56073903D01*
X108396343Y-56073904D01*
X108396344Y-56073905D01*
X108407798Y-56076974D01*
X108624592Y-56135063D01*
X108801034Y-56150500D01*
X108859999Y-56155659D01*
X108860000Y-56155659D01*
X108860001Y-56155659D01*
X108918966Y-56150500D01*
X109095408Y-56135063D01*
X109318408Y-56075311D01*
X109388257Y-56076974D01*
X109446119Y-56116137D01*
X109473623Y-56180365D01*
X109474500Y-56195086D01*
X109474500Y-65854151D01*
X109454815Y-65921190D01*
X109402011Y-65966945D01*
X109332853Y-65976889D01*
X109269297Y-65947864D01*
X109262819Y-65941832D01*
X103161819Y-59840832D01*
X103128334Y-59779509D01*
X103125500Y-59753151D01*
X103125500Y-56179554D01*
X103145185Y-56112515D01*
X103197989Y-56066760D01*
X103267147Y-56056816D01*
X103301901Y-56067171D01*
X103316337Y-56073903D01*
X103316341Y-56073904D01*
X103316344Y-56073905D01*
X103327798Y-56076974D01*
X103544592Y-56135063D01*
X103721034Y-56150500D01*
X103779999Y-56155659D01*
X103780000Y-56155659D01*
X103780001Y-56155659D01*
X103838966Y-56150500D01*
X104015408Y-56135063D01*
X104243663Y-56073903D01*
X104457830Y-55974035D01*
X104651401Y-55838495D01*
X104818495Y-55671401D01*
X104948426Y-55485841D01*
X105003002Y-55442217D01*
X105072500Y-55435023D01*
X105134855Y-55466546D01*
X105151575Y-55485842D01*
X105281500Y-55671395D01*
X105281505Y-55671401D01*
X105448599Y-55838495D01*
X105545384Y-55906264D01*
X105642165Y-55974032D01*
X105642167Y-55974033D01*
X105642170Y-55974035D01*
X105856337Y-56073903D01*
X105856343Y-56073904D01*
X105856344Y-56073905D01*
X105867798Y-56076974D01*
X106084592Y-56135063D01*
X106261034Y-56150500D01*
X106319999Y-56155659D01*
X106320000Y-56155659D01*
X106320001Y-56155659D01*
X106378966Y-56150500D01*
X106555408Y-56135063D01*
X106783663Y-56073903D01*
X106997830Y-55974035D01*
X107191401Y-55838495D01*
X107358495Y-55671401D01*
X107488426Y-55485840D01*
X107543001Y-55442217D01*
X107612499Y-55435023D01*
X107674854Y-55466546D01*
G37*
%TD.AperFunction*%
%TA.AperFunction,Conductor*%
G36*
X101417512Y-55299507D02*
G01*
X101470315Y-55345262D01*
X101490000Y-55412301D01*
X101490000Y-56130633D01*
X101703483Y-56073433D01*
X101708083Y-56071759D01*
X101777812Y-56067324D01*
X101838869Y-56101291D01*
X101871870Y-56162877D01*
X101874500Y-56188279D01*
X101874500Y-58890546D01*
X101854815Y-58957585D01*
X101802011Y-59003340D01*
X101732853Y-59013284D01*
X101669297Y-58984259D01*
X101662819Y-58978227D01*
X100661819Y-57977228D01*
X100628334Y-57915905D01*
X100625500Y-57889547D01*
X100625500Y-56194568D01*
X100645185Y-56127529D01*
X100697989Y-56081774D01*
X100767147Y-56071830D01*
X100781593Y-56074793D01*
X100989999Y-56130633D01*
X100989999Y-55412301D01*
X101009683Y-55345262D01*
X101062487Y-55299507D01*
X101131646Y-55289563D01*
X101138380Y-55290531D01*
X101204237Y-55300000D01*
X101204238Y-55300000D01*
X101275762Y-55300000D01*
X101275763Y-55300000D01*
X101348353Y-55289563D01*
X101417512Y-55299507D01*
G37*
%TD.AperFunction*%
%TA.AperFunction,Conductor*%
G36*
X100801900Y-48583545D02*
G01*
X100931337Y-48643903D01*
X101159592Y-48705063D01*
X101347918Y-48721539D01*
X101394999Y-48725659D01*
X101395000Y-48725659D01*
X101395001Y-48725659D01*
X101434234Y-48722226D01*
X101630408Y-48705063D01*
X101718410Y-48681483D01*
X101788256Y-48683146D01*
X101846118Y-48722308D01*
X101873623Y-48786536D01*
X101874500Y-48801258D01*
X101874500Y-53411720D01*
X101854815Y-53478759D01*
X101802011Y-53524514D01*
X101732853Y-53534458D01*
X101708094Y-53528243D01*
X101703501Y-53526571D01*
X101490000Y-53469364D01*
X101490000Y-54187698D01*
X101470315Y-54254737D01*
X101417511Y-54300492D01*
X101348355Y-54310436D01*
X101275766Y-54300000D01*
X101275763Y-54300000D01*
X101204237Y-54300000D01*
X101204233Y-54300000D01*
X101131644Y-54310436D01*
X101062486Y-54300492D01*
X101009683Y-54254736D01*
X100989999Y-54187698D01*
X100989999Y-53469363D01*
X100781593Y-53525206D01*
X100711744Y-53523543D01*
X100653881Y-53484381D01*
X100626377Y-53420152D01*
X100625500Y-53405431D01*
X100625500Y-48695929D01*
X100645185Y-48628890D01*
X100697989Y-48583135D01*
X100767147Y-48573191D01*
X100801900Y-48583545D01*
G37*
%TD.AperFunction*%
%TA.AperFunction,Conductor*%
G36*
X100893692Y-42169685D02*
G01*
X100939447Y-42222489D01*
X100949391Y-42291647D01*
X100945631Y-42308933D01*
X100940000Y-42328111D01*
X100940000Y-42471888D01*
X100945631Y-42491067D01*
X100945630Y-42560936D01*
X100907855Y-42619714D01*
X100844299Y-42648738D01*
X100826653Y-42650000D01*
X99513347Y-42650000D01*
X99446308Y-42630315D01*
X99400553Y-42577511D01*
X99390609Y-42508353D01*
X99394369Y-42491067D01*
X99400000Y-42471888D01*
X99400000Y-42328111D01*
X99394369Y-42308933D01*
X99394370Y-42239064D01*
X99432145Y-42180286D01*
X99495701Y-42151262D01*
X99513347Y-42150000D01*
X100826653Y-42150000D01*
X100893692Y-42169685D01*
G37*
%TD.AperFunction*%
%TA.AperFunction,Conductor*%
G36*
X103433692Y-42169685D02*
G01*
X103479447Y-42222489D01*
X103489391Y-42291647D01*
X103485631Y-42308933D01*
X103480000Y-42328111D01*
X103480000Y-42471888D01*
X103485631Y-42491067D01*
X103485630Y-42560936D01*
X103447855Y-42619714D01*
X103384299Y-42648738D01*
X103366653Y-42650000D01*
X102053347Y-42650000D01*
X101986308Y-42630315D01*
X101940553Y-42577511D01*
X101930609Y-42508353D01*
X101934369Y-42491067D01*
X101940000Y-42471888D01*
X101940000Y-42328111D01*
X101934369Y-42308933D01*
X101934370Y-42239064D01*
X101972145Y-42180286D01*
X102035701Y-42151262D01*
X102053347Y-42150000D01*
X103366653Y-42150000D01*
X103433692Y-42169685D01*
G37*
%TD.AperFunction*%
%TA.AperFunction,Conductor*%
G36*
X105973692Y-42169685D02*
G01*
X106019447Y-42222489D01*
X106029391Y-42291647D01*
X106025631Y-42308933D01*
X106020000Y-42328111D01*
X106020000Y-42471888D01*
X106025631Y-42491067D01*
X106025630Y-42560936D01*
X105987855Y-42619714D01*
X105924299Y-42648738D01*
X105906653Y-42650000D01*
X104593347Y-42650000D01*
X104526308Y-42630315D01*
X104480553Y-42577511D01*
X104470609Y-42508353D01*
X104474369Y-42491067D01*
X104480000Y-42471888D01*
X104480000Y-42328111D01*
X104474369Y-42308933D01*
X104474370Y-42239064D01*
X104512145Y-42180286D01*
X104575701Y-42151262D01*
X104593347Y-42150000D01*
X105906653Y-42150000D01*
X105973692Y-42169685D01*
G37*
%TD.AperFunction*%
%TA.AperFunction,Conductor*%
G36*
X91330763Y-29899526D02*
G01*
X91341337Y-29900014D01*
X91528432Y-29908664D01*
X91737580Y-29924489D01*
X91760586Y-29926230D01*
X91764474Y-29926648D01*
X91959875Y-29953905D01*
X92189981Y-29992491D01*
X92193890Y-29993277D01*
X92385259Y-30038286D01*
X92601819Y-30095146D01*
X92611516Y-30097692D01*
X92615455Y-30098867D01*
X92801128Y-30161098D01*
X93021740Y-30240974D01*
X93025624Y-30242533D01*
X93157764Y-30300879D01*
X93203915Y-30321257D01*
X93417152Y-30421127D01*
X93420983Y-30423088D01*
X93590217Y-30517350D01*
X93708681Y-30586543D01*
X93794451Y-30636640D01*
X93798220Y-30639026D01*
X93956896Y-30747721D01*
X94059288Y-30820705D01*
X94150535Y-30885746D01*
X94154158Y-30888535D01*
X94300836Y-31010335D01*
X94482383Y-31166341D01*
X94485803Y-31169512D01*
X94619171Y-31302880D01*
X94718378Y-31405130D01*
X94787223Y-31476087D01*
X94790424Y-31479653D01*
X94909209Y-31622700D01*
X94943796Y-31665499D01*
X95023197Y-31763754D01*
X95062515Y-31812407D01*
X95065438Y-31816334D01*
X95125386Y-31903847D01*
X95168511Y-31966801D01*
X95229235Y-32057680D01*
X95305928Y-32172460D01*
X95308543Y-32176737D01*
X95394992Y-32331944D01*
X95515461Y-32553290D01*
X95517723Y-32557888D01*
X95586673Y-32714047D01*
X95689328Y-32951661D01*
X95691199Y-32956549D01*
X95741976Y-33108044D01*
X95826088Y-33364281D01*
X95827535Y-33369425D01*
X95859614Y-33505820D01*
X95924587Y-33787677D01*
X95925577Y-33793041D01*
X95938585Y-33886289D01*
X95983819Y-34217004D01*
X95984327Y-34222600D01*
X96003644Y-34648602D01*
X96003708Y-34651411D01*
X96003708Y-34689713D01*
X96004951Y-34700062D01*
X96008281Y-34834072D01*
X96035567Y-35066073D01*
X96041035Y-35138617D01*
X96045683Y-35152085D01*
X96051292Y-35199776D01*
X96051293Y-35199783D01*
X96110165Y-35477193D01*
X96118400Y-35523597D01*
X96121424Y-35530247D01*
X96127735Y-35559988D01*
X96127738Y-35559998D01*
X96233198Y-35899516D01*
X96233199Y-35899518D01*
X96236974Y-35911670D01*
X96378061Y-36251784D01*
X96378062Y-36251788D01*
X96549820Y-36577500D01*
X96549833Y-36577524D01*
X96649949Y-36731231D01*
X96750804Y-36886072D01*
X96979291Y-37174847D01*
X96979294Y-37174850D01*
X96979298Y-37174855D01*
X97012209Y-37209383D01*
X97233354Y-37441398D01*
X97233367Y-37441410D01*
X97233373Y-37441415D01*
X97242678Y-37449532D01*
X97242693Y-37449545D01*
X97474376Y-37651653D01*
X97510844Y-37683466D01*
X97534905Y-37700836D01*
X97535505Y-37701269D01*
X97539048Y-37705835D01*
X97579437Y-37732984D01*
X97809409Y-37899003D01*
X97850759Y-37923410D01*
X97858450Y-37931633D01*
X97925315Y-37967418D01*
X98126509Y-38086176D01*
X98126539Y-38086192D01*
X98273789Y-38155694D01*
X98277943Y-38158592D01*
X98291507Y-38164151D01*
X98294544Y-38165492D01*
X98299185Y-38167691D01*
X98315587Y-38164847D01*
X136139203Y-38209893D01*
X136153970Y-38214249D01*
X136167762Y-38211894D01*
X136169711Y-38211746D01*
X136179264Y-38209941D01*
X136179266Y-38209942D01*
X136179267Y-38209941D01*
X136182938Y-38209248D01*
X136342683Y-38182155D01*
X136537511Y-38126475D01*
X136540515Y-38125699D01*
X136614241Y-38108613D01*
X136630348Y-38099943D01*
X136661473Y-38091049D01*
X136886705Y-37998769D01*
X136942471Y-37978577D01*
X136951817Y-37972092D01*
X136968274Y-37965350D01*
X137229073Y-37823101D01*
X137253542Y-37810761D01*
X137256587Y-37808093D01*
X137259345Y-37806590D01*
X137531138Y-37616705D01*
X137780336Y-37398011D01*
X138003903Y-37153173D01*
X138199112Y-36885179D01*
X138363581Y-36597295D01*
X138495307Y-36293033D01*
X138496227Y-36290037D01*
X138498006Y-36287342D01*
X138505416Y-36260128D01*
X138592682Y-35976102D01*
X138595998Y-35958632D01*
X138600135Y-35950550D01*
X138609131Y-35889455D01*
X138614965Y-35858724D01*
X138654520Y-35650367D01*
X138657012Y-35618108D01*
X138662201Y-35604435D01*
X138664295Y-35524892D01*
X138664455Y-35521800D01*
X138680065Y-35319799D01*
X138676212Y-35203914D01*
X138677445Y-35199132D01*
X138674649Y-35155518D01*
X138674533Y-35152744D01*
X138670426Y-34931187D01*
X141699500Y-34931187D01*
X141715297Y-35035985D01*
X141738604Y-35190615D01*
X141738605Y-35190617D01*
X141738606Y-35190623D01*
X141815938Y-35441326D01*
X141929767Y-35677696D01*
X141929768Y-35677697D01*
X141929770Y-35677700D01*
X141929772Y-35677704D01*
X141975299Y-35744479D01*
X142077567Y-35894479D01*
X142256014Y-36086801D01*
X142256018Y-36086804D01*
X142256019Y-36086805D01*
X142461143Y-36250386D01*
X142688357Y-36381568D01*
X142932584Y-36477420D01*
X143188370Y-36535802D01*
X143188376Y-36535802D01*
X143188379Y-36535803D01*
X143384500Y-36550500D01*
X143384506Y-36550500D01*
X143515500Y-36550500D01*
X143711620Y-36535803D01*
X143711622Y-36535802D01*
X143711630Y-36535802D01*
X143967416Y-36477420D01*
X144211643Y-36381568D01*
X144438857Y-36250386D01*
X144643981Y-36086805D01*
X144649059Y-36081333D01*
X144762905Y-35958635D01*
X144822433Y-35894479D01*
X144970228Y-35677704D01*
X144983389Y-35650376D01*
X145042464Y-35527704D01*
X145084063Y-35441323D01*
X145161396Y-35190615D01*
X145200500Y-34931182D01*
X145200500Y-34668818D01*
X145161396Y-34409385D01*
X145084063Y-34158677D01*
X145011825Y-34008673D01*
X144970232Y-33922303D01*
X144970231Y-33922302D01*
X144970230Y-33922301D01*
X144970228Y-33922296D01*
X144822433Y-33705521D01*
X144756234Y-33634175D01*
X144643985Y-33513198D01*
X144570780Y-33454819D01*
X144438857Y-33349614D01*
X144211643Y-33218432D01*
X143967416Y-33122580D01*
X143967411Y-33122578D01*
X143967402Y-33122576D01*
X143730180Y-33068432D01*
X143711630Y-33064198D01*
X143711629Y-33064197D01*
X143711625Y-33064197D01*
X143711620Y-33064196D01*
X143515500Y-33049500D01*
X143515494Y-33049500D01*
X143384506Y-33049500D01*
X143384500Y-33049500D01*
X143188379Y-33064196D01*
X143188374Y-33064197D01*
X142932597Y-33122576D01*
X142932578Y-33122582D01*
X142688356Y-33218432D01*
X142461143Y-33349614D01*
X142256014Y-33513198D01*
X142077567Y-33705520D01*
X141929768Y-33922302D01*
X141929767Y-33922303D01*
X141815938Y-34158673D01*
X141738606Y-34409376D01*
X141738605Y-34409381D01*
X141738604Y-34409385D01*
X141725756Y-34494626D01*
X141699500Y-34668812D01*
X141699500Y-34931187D01*
X138670426Y-34931187D01*
X138666620Y-34725917D01*
X138666768Y-34720331D01*
X138679716Y-34539735D01*
X138691018Y-34382098D01*
X138697622Y-34293237D01*
X138698254Y-34287896D01*
X138745342Y-33999211D01*
X138768034Y-33863790D01*
X138769124Y-33858651D01*
X138836886Y-33595258D01*
X138837896Y-33591430D01*
X138877159Y-33442558D01*
X138878670Y-33437669D01*
X138966095Y-33192020D01*
X138996722Y-33108044D01*
X139024075Y-33033042D01*
X139026018Y-33028329D01*
X139027269Y-33025616D01*
X139132186Y-32798066D01*
X139207598Y-32638526D01*
X139209876Y-32634169D01*
X139333935Y-32418567D01*
X139426188Y-32262340D01*
X139428786Y-32258310D01*
X139569690Y-32057672D01*
X139581108Y-32041856D01*
X139678030Y-31907589D01*
X139680929Y-31903883D01*
X139837577Y-31718794D01*
X139961050Y-31577189D01*
X139964197Y-31573843D01*
X140135402Y-31405045D01*
X140272876Y-31273897D01*
X140276257Y-31270902D01*
X140460656Y-31119266D01*
X140611008Y-31000149D01*
X140614488Y-30997590D01*
X140810690Y-30863909D01*
X140972524Y-30758306D01*
X140976182Y-30756097D01*
X141182645Y-30641158D01*
X141354536Y-30550285D01*
X141358275Y-30548470D01*
X141573427Y-30452939D01*
X141753835Y-30377838D01*
X141757617Y-30376410D01*
X141979760Y-30300877D01*
X142167112Y-30242384D01*
X142170923Y-30241328D01*
X142398356Y-30186240D01*
X142590967Y-30145029D01*
X142594793Y-30144336D01*
X142825728Y-30110018D01*
X143021909Y-30086575D01*
X143025680Y-30086241D01*
X143258341Y-30072868D01*
X143456385Y-30067503D01*
X143460043Y-30067513D01*
X143692591Y-30075120D01*
X143890783Y-30087973D01*
X143894228Y-30088297D01*
X144115094Y-30115559D01*
X144124910Y-30116771D01*
X144204070Y-30129270D01*
X144321417Y-30147798D01*
X144324827Y-30148435D01*
X144551749Y-30197496D01*
X144627969Y-30216833D01*
X144744882Y-30246493D01*
X144748116Y-30247407D01*
X144969525Y-30316634D01*
X145157614Y-30383231D01*
X145160648Y-30384397D01*
X145374804Y-30473216D01*
X145556201Y-30556879D01*
X145559025Y-30558271D01*
X145764227Y-30665953D01*
X145868774Y-30726368D01*
X145937343Y-30765992D01*
X145939934Y-30767575D01*
X146089177Y-30863948D01*
X146134582Y-30893268D01*
X146297886Y-31008828D01*
X146300257Y-31010592D01*
X146482796Y-31153284D01*
X146634903Y-31283412D01*
X146637014Y-31285303D01*
X146736130Y-31378308D01*
X146804941Y-31442877D01*
X146806972Y-31444872D01*
X146877114Y-31517024D01*
X146946503Y-31588401D01*
X147094663Y-31754933D01*
X147100506Y-31761500D01*
X147102417Y-31763754D01*
X147228127Y-31919392D01*
X147365935Y-32105658D01*
X147367694Y-32108164D01*
X147478513Y-32274545D01*
X147539478Y-32374685D01*
X147599018Y-32472486D01*
X147600597Y-32475235D01*
X147695607Y-32650926D01*
X147797861Y-32859014D01*
X147799228Y-32861993D01*
X147877634Y-33045449D01*
X147907251Y-33122576D01*
X147960793Y-33262011D01*
X147961913Y-33265186D01*
X148023085Y-33454819D01*
X148086455Y-33678118D01*
X148087314Y-33681503D01*
X148130772Y-33875660D01*
X148173831Y-34103980D01*
X148174395Y-34107532D01*
X148199815Y-34304491D01*
X148222178Y-34536037D01*
X148222424Y-34539735D01*
X148229655Y-34737713D01*
X148231093Y-34970709D01*
X148231000Y-34974522D01*
X148220072Y-35171795D01*
X148200503Y-35404400D01*
X148200051Y-35408296D01*
X148171162Y-35603146D01*
X148130646Y-35833577D01*
X148129819Y-35837520D01*
X148083362Y-36028158D01*
X148022107Y-36254628D01*
X148020894Y-36258583D01*
X147957422Y-36443362D01*
X147875777Y-36664094D01*
X147874170Y-36668022D01*
X147794416Y-36845316D01*
X147692861Y-37058598D01*
X147690854Y-37062459D01*
X147614100Y-37198221D01*
X147607790Y-37209383D01*
X147595768Y-37230645D01*
X147576792Y-37262701D01*
X147474852Y-37434902D01*
X147472444Y-37438654D01*
X147363148Y-37596235D01*
X147223567Y-37789856D01*
X147220762Y-37793459D01*
X147098603Y-37939005D01*
X146941078Y-38120531D01*
X146937884Y-38123943D01*
X146804432Y-38256144D01*
X146629716Y-38424195D01*
X146626145Y-38427374D01*
X146483282Y-38545008D01*
X146292040Y-38698347D01*
X146288108Y-38701253D01*
X146138061Y-38803247D01*
X145930855Y-38940707D01*
X145926583Y-38943300D01*
X145772174Y-39028689D01*
X145549131Y-39149272D01*
X145544545Y-39151513D01*
X145389634Y-39219453D01*
X145150013Y-39322320D01*
X145145143Y-39324173D01*
X144995510Y-39374003D01*
X144736849Y-39458401D01*
X144731726Y-39459833D01*
X144598012Y-39491088D01*
X144312976Y-39556410D01*
X144307639Y-39557389D01*
X144219042Y-39569673D01*
X143883385Y-39615321D01*
X143877820Y-39615824D01*
X143465883Y-39634397D01*
X143451374Y-39635052D01*
X143448583Y-39635115D01*
X143416814Y-39635115D01*
X143401123Y-39637128D01*
X143269759Y-39642539D01*
X143042451Y-39672727D01*
X142969764Y-39679347D01*
X142956522Y-39684139D01*
X142912158Y-39690032D01*
X142912152Y-39690033D01*
X142912147Y-39690034D01*
X142640608Y-39751533D01*
X142593756Y-39760531D01*
X142587157Y-39763638D01*
X142560339Y-39769712D01*
X142560328Y-39769715D01*
X142560326Y-39769716D01*
X142520548Y-39782607D01*
X142228043Y-39877406D01*
X142226964Y-39877727D01*
X142226849Y-39877794D01*
X142217158Y-39880934D01*
X142217150Y-39880937D01*
X141885476Y-40022774D01*
X141567989Y-40194076D01*
X141267328Y-40393422D01*
X140985963Y-40619171D01*
X140726196Y-40869478D01*
X140726175Y-40869500D01*
X140719512Y-40877201D01*
X140719431Y-40877252D01*
X140718706Y-40878134D01*
X140662646Y-40942928D01*
X140490163Y-41142282D01*
X140490153Y-41142295D01*
X140474114Y-41164640D01*
X140469567Y-41168187D01*
X140442150Y-41209172D01*
X140279800Y-41435352D01*
X140279791Y-41435366D01*
X140257109Y-41473912D01*
X140248993Y-41481522D01*
X140213143Y-41548628D01*
X140096851Y-41746255D01*
X140096839Y-41746278D01*
X140028546Y-41890965D01*
X140025833Y-41894913D01*
X140020428Y-41907988D01*
X140019205Y-41910753D01*
X140016949Y-41915534D01*
X140019786Y-41931900D01*
X139976297Y-88151065D01*
X139971957Y-88165791D01*
X139974492Y-88180731D01*
X139974448Y-88181098D01*
X139975141Y-88184552D01*
X139976257Y-88191132D01*
X139976257Y-88191133D01*
X140003983Y-88354576D01*
X140035492Y-88464819D01*
X140060027Y-88550662D01*
X140060813Y-88553702D01*
X140077772Y-88626873D01*
X140086377Y-88642858D01*
X140095097Y-88673366D01*
X140095097Y-88673368D01*
X140187989Y-88900078D01*
X140207930Y-88955145D01*
X140214331Y-88964369D01*
X140220803Y-88980163D01*
X140364066Y-89242811D01*
X140375885Y-89266245D01*
X140377731Y-89268351D01*
X140377770Y-89268328D01*
X140377911Y-89268556D01*
X140378435Y-89269154D01*
X140379572Y-89271238D01*
X140523210Y-89476827D01*
X140569463Y-89543029D01*
X140569467Y-89543034D01*
X140788160Y-89792222D01*
X140788159Y-89792222D01*
X140969566Y-89957864D01*
X141033006Y-90015791D01*
X141301005Y-90210998D01*
X141301015Y-90211003D01*
X141301020Y-90211007D01*
X141588879Y-90375459D01*
X141588888Y-90375463D01*
X141588893Y-90375466D01*
X141893159Y-90507190D01*
X141895418Y-90507884D01*
X141895896Y-90508200D01*
X141896379Y-90508378D01*
X141896337Y-90508491D01*
X141897997Y-90509587D01*
X141924051Y-90516681D01*
X142210093Y-90604564D01*
X142226864Y-90607747D01*
X142234837Y-90611830D01*
X142295118Y-90620705D01*
X142337061Y-90628667D01*
X142535820Y-90666399D01*
X142535821Y-90666399D01*
X142535831Y-90666401D01*
X142567459Y-90668845D01*
X142580977Y-90673974D01*
X142659903Y-90676067D01*
X142662998Y-90676227D01*
X142866401Y-90691946D01*
X142982801Y-90688076D01*
X142986102Y-90688927D01*
X143030675Y-90686515D01*
X143033449Y-90686428D01*
X143454731Y-90682738D01*
X143460252Y-90682938D01*
X143796329Y-90710277D01*
X143881344Y-90717414D01*
X143886670Y-90718098D01*
X144173040Y-90767578D01*
X144304457Y-90790871D01*
X144309579Y-90792007D01*
X144570258Y-90861638D01*
X144719155Y-90902379D01*
X144724093Y-90903955D01*
X144966694Y-90992773D01*
X145122008Y-91051009D01*
X145126687Y-91052985D01*
X145205493Y-91090170D01*
X145353794Y-91160146D01*
X145509741Y-91235552D01*
X145514139Y-91237901D01*
X145726429Y-91362513D01*
X145879134Y-91454474D01*
X145883195Y-91457144D01*
X146080481Y-91598205D01*
X146227129Y-91705961D01*
X146230832Y-91708907D01*
X146332058Y-91796029D01*
X146412632Y-91865377D01*
X146550877Y-91987945D01*
X146554249Y-91991168D01*
X146719779Y-92161804D01*
X146847717Y-92298096D01*
X146850712Y-92301532D01*
X146999206Y-92485053D01*
X147037446Y-92534108D01*
X147115238Y-92633902D01*
X147117828Y-92637484D01*
X147248479Y-92832463D01*
X147351171Y-92992509D01*
X147353387Y-92996244D01*
X147465470Y-93201198D01*
X147553637Y-93371039D01*
X147555456Y-93374858D01*
X147578210Y-93427136D01*
X147648319Y-93588220D01*
X147720948Y-93766348D01*
X147722379Y-93770220D01*
X147795463Y-93990328D01*
X147851729Y-94175160D01*
X147852774Y-94179042D01*
X147905654Y-94404215D01*
X147944919Y-94594160D01*
X147945590Y-94598015D01*
X147977954Y-94826469D01*
X147999739Y-95019826D01*
X148000049Y-95023620D01*
X148011745Y-95253650D01*
X148015752Y-95448715D01*
X148015717Y-95452414D01*
X148006723Y-95682172D01*
X147992824Y-95877275D01*
X147992465Y-95880849D01*
X147962915Y-96108559D01*
X147931156Y-96301948D01*
X147930494Y-96305370D01*
X147880659Y-96529304D01*
X147831257Y-96719260D01*
X147830318Y-96722504D01*
X147760623Y-96940907D01*
X147693948Y-97125804D01*
X147692758Y-97128849D01*
X147603789Y-97339972D01*
X147520369Y-97518211D01*
X147518955Y-97521040D01*
X147411432Y-97723229D01*
X147311963Y-97893229D01*
X147310356Y-97895827D01*
X147185129Y-98087516D01*
X147070429Y-98247823D01*
X147068657Y-98250179D01*
X146926729Y-98429834D01*
X146797782Y-98579034D01*
X146795876Y-98581141D01*
X146639335Y-98746325D01*
X146637334Y-98748342D01*
X146495288Y-98885100D01*
X146323493Y-99036487D01*
X146321235Y-99038383D01*
X146167329Y-99161515D01*
X145982658Y-99296843D01*
X145980150Y-99298588D01*
X145815724Y-99407050D01*
X145619583Y-99525283D01*
X145616834Y-99526846D01*
X145443358Y-99619704D01*
X145237304Y-99719888D01*
X145234327Y-99721240D01*
X145053281Y-99797745D01*
X144838936Y-99879067D01*
X144835747Y-99880179D01*
X144648710Y-99939711D01*
X144427769Y-100001500D01*
X144424388Y-100002344D01*
X144233003Y-100044438D01*
X144007183Y-100086177D01*
X144003633Y-100086727D01*
X143809589Y-100111079D01*
X143580625Y-100132397D01*
X143576934Y-100132630D01*
X143381936Y-100139104D01*
X143151629Y-100139776D01*
X143147824Y-100139670D01*
X142953565Y-100128300D01*
X142723690Y-100108248D01*
X142719804Y-100107785D01*
X142528014Y-100078774D01*
X142300363Y-100038068D01*
X142296430Y-100037233D01*
X142108808Y-99990964D01*
X142028636Y-99969047D01*
X141885092Y-99929804D01*
X141881182Y-99928594D01*
X141741405Y-99880179D01*
X141699379Y-99865622D01*
X141481370Y-99784361D01*
X141477455Y-99782747D01*
X141303110Y-99703822D01*
X141193560Y-99651347D01*
X141092438Y-99602908D01*
X141088609Y-99600907D01*
X141017918Y-99560736D01*
X140923269Y-99506951D01*
X140721557Y-99386958D01*
X140717817Y-99384547D01*
X140562977Y-99276695D01*
X140371736Y-99138261D01*
X140368159Y-99135466D01*
X140225186Y-99015026D01*
X140045898Y-98858887D01*
X140042498Y-98855694D01*
X140040721Y-98853894D01*
X139912702Y-98724247D01*
X139746682Y-98551096D01*
X139743540Y-98547554D01*
X139628112Y-98406963D01*
X139476582Y-98217436D01*
X139473732Y-98213568D01*
X139373723Y-98066048D01*
X139237864Y-97860716D01*
X139235287Y-97856459D01*
X139228394Y-97843963D01*
X139151652Y-97704851D01*
X139032424Y-97483774D01*
X139030200Y-97479212D01*
X138963676Y-97327173D01*
X138918719Y-97222209D01*
X138861981Y-97089741D01*
X138860146Y-97084904D01*
X138819487Y-96962537D01*
X138811441Y-96938321D01*
X138727953Y-96681882D01*
X138726533Y-96676791D01*
X138696157Y-96546554D01*
X138692212Y-96529304D01*
X138640221Y-96301948D01*
X138631433Y-96263519D01*
X138630459Y-96258205D01*
X138618848Y-96174287D01*
X138573429Y-95839621D01*
X138572930Y-95834076D01*
X138563515Y-95624847D01*
X138557585Y-95493068D01*
X141435702Y-95493068D01*
X141451399Y-95597206D01*
X141474806Y-95752496D01*
X141474807Y-95752498D01*
X141474808Y-95752504D01*
X141552140Y-96003207D01*
X141665969Y-96239577D01*
X141665970Y-96239578D01*
X141665972Y-96239581D01*
X141665974Y-96239585D01*
X141710826Y-96305370D01*
X141813769Y-96456360D01*
X141992216Y-96648682D01*
X141992220Y-96648685D01*
X141992221Y-96648686D01*
X142197345Y-96812267D01*
X142424559Y-96943449D01*
X142668786Y-97039301D01*
X142924572Y-97097683D01*
X142924578Y-97097683D01*
X142924581Y-97097684D01*
X143120702Y-97112381D01*
X143120708Y-97112381D01*
X143251702Y-97112381D01*
X143447822Y-97097684D01*
X143447824Y-97097683D01*
X143447832Y-97097683D01*
X143703618Y-97039301D01*
X143947845Y-96943449D01*
X144175059Y-96812267D01*
X144380183Y-96648686D01*
X144386058Y-96642355D01*
X144425888Y-96599428D01*
X144558635Y-96456360D01*
X144706430Y-96239585D01*
X144820265Y-96003204D01*
X144897598Y-95752496D01*
X144936702Y-95493063D01*
X144936702Y-95230699D01*
X144897598Y-94971266D01*
X144820265Y-94720558D01*
X144783445Y-94644100D01*
X144706434Y-94484184D01*
X144706433Y-94484183D01*
X144706432Y-94484182D01*
X144706430Y-94484177D01*
X144558635Y-94267402D01*
X144526984Y-94233290D01*
X144380187Y-94075079D01*
X144273912Y-93990328D01*
X144175059Y-93911495D01*
X143947845Y-93780313D01*
X143703618Y-93684461D01*
X143703613Y-93684459D01*
X143703604Y-93684457D01*
X143486020Y-93634795D01*
X143447832Y-93626079D01*
X143447831Y-93626078D01*
X143447827Y-93626078D01*
X143447822Y-93626077D01*
X143251702Y-93611381D01*
X143251696Y-93611381D01*
X143120708Y-93611381D01*
X143120702Y-93611381D01*
X142924581Y-93626077D01*
X142924576Y-93626078D01*
X142668799Y-93684457D01*
X142668780Y-93684463D01*
X142424558Y-93780313D01*
X142197345Y-93911495D01*
X141992216Y-94075079D01*
X141813769Y-94267401D01*
X141665970Y-94484183D01*
X141665969Y-94484184D01*
X141552140Y-94720554D01*
X141474808Y-94971257D01*
X141474807Y-94971262D01*
X141474806Y-94971266D01*
X141469129Y-95008932D01*
X141435702Y-95230693D01*
X141435702Y-95493068D01*
X138557585Y-95493068D01*
X138556308Y-95464680D01*
X138557045Y-95461679D01*
X138554053Y-95413560D01*
X138553933Y-95409711D01*
X138553933Y-95383832D01*
X138553585Y-95383195D01*
X138550993Y-95364578D01*
X138542777Y-95233036D01*
X138542421Y-95230699D01*
X138508652Y-95008932D01*
X138500439Y-94935024D01*
X138495395Y-94921871D01*
X138488836Y-94878795D01*
X138488836Y-94878796D01*
X138423404Y-94611499D01*
X138413207Y-94563116D01*
X138409929Y-94556449D01*
X138405456Y-94538177D01*
X138403638Y-94530748D01*
X138403636Y-94530741D01*
X138403635Y-94530740D01*
X138292133Y-94204170D01*
X138291058Y-94200754D01*
X138290849Y-94200410D01*
X138287857Y-94191646D01*
X138261168Y-94131555D01*
X138142411Y-93864172D01*
X138142411Y-93864173D01*
X138142409Y-93864169D01*
X137968444Y-93550909D01*
X137968438Y-93550900D01*
X137968439Y-93550900D01*
X137767339Y-93254346D01*
X137753721Y-93237672D01*
X137642420Y-93101391D01*
X137540681Y-92976817D01*
X137540679Y-92976815D01*
X137290263Y-92720519D01*
X137283226Y-92714495D01*
X137283054Y-92714231D01*
X137280223Y-92711923D01*
X137018073Y-92487488D01*
X137018072Y-92487488D01*
X137018067Y-92487484D01*
X136996516Y-92472128D01*
X136992892Y-92467517D01*
X136950361Y-92439241D01*
X136757094Y-92301532D01*
X136726245Y-92279551D01*
X136688646Y-92257514D01*
X136681036Y-92249428D01*
X136612670Y-92212985D01*
X136417107Y-92098366D01*
X136417106Y-92098366D01*
X136276142Y-92031761D01*
X136271983Y-92028759D01*
X136256596Y-92022434D01*
X136253668Y-92021140D01*
X136249099Y-92018979D01*
X136232830Y-92021803D01*
X98100129Y-92066741D01*
X98085528Y-92062472D01*
X98068510Y-92065296D01*
X98065347Y-92065584D01*
X98058540Y-92066976D01*
X97896884Y-92094393D01*
X97896863Y-92094398D01*
X97773188Y-92129740D01*
X97702306Y-92149996D01*
X97699279Y-92150778D01*
X97625813Y-92167803D01*
X97609764Y-92176441D01*
X97579723Y-92185026D01*
X97354810Y-92277165D01*
X97299264Y-92297276D01*
X97289952Y-92303736D01*
X97274509Y-92310062D01*
X97274491Y-92310071D01*
X97013952Y-92452160D01*
X96989778Y-92464350D01*
X96987770Y-92466108D01*
X96987824Y-92466195D01*
X96987302Y-92466517D01*
X96986769Y-92466985D01*
X96984914Y-92467996D01*
X96714524Y-92656875D01*
X96714506Y-92656890D01*
X96466585Y-92874425D01*
X96244141Y-93117984D01*
X96049912Y-93384568D01*
X95886246Y-93670955D01*
X95886245Y-93670958D01*
X95755156Y-93973627D01*
X95755154Y-93973632D01*
X95754532Y-93975657D01*
X95754250Y-93976083D01*
X95753968Y-93976848D01*
X95753788Y-93976781D01*
X95752774Y-93978316D01*
X95745434Y-94005254D01*
X95658230Y-94288914D01*
X95658229Y-94288917D01*
X95655113Y-94305315D01*
X95650996Y-94313350D01*
X95642033Y-94374149D01*
X95628878Y-94443378D01*
X95596654Y-94612953D01*
X95596652Y-94612972D01*
X95594240Y-94644100D01*
X95589077Y-94657695D01*
X95586965Y-94736968D01*
X95586802Y-94740107D01*
X95571175Y-94941811D01*
X95571175Y-94941818D01*
X95575024Y-95058358D01*
X95573475Y-95064357D01*
X95576615Y-95106622D01*
X95576828Y-95113782D01*
X95589254Y-95532905D01*
X95589167Y-95538505D01*
X95568692Y-95875472D01*
X95563078Y-95964041D01*
X95562496Y-95969449D01*
X95518657Y-96257536D01*
X95497539Y-96392364D01*
X95496489Y-96397590D01*
X95431707Y-96660793D01*
X95393283Y-96812909D01*
X95391792Y-96817915D01*
X95307197Y-97063554D01*
X95251168Y-97222209D01*
X95249267Y-97226958D01*
X95145802Y-97457417D01*
X95072385Y-97616851D01*
X95070108Y-97621312D01*
X94948691Y-97837206D01*
X94858418Y-97993562D01*
X94855802Y-97997705D01*
X94717432Y-98198822D01*
X94611046Y-98349214D01*
X94608129Y-98353016D01*
X94453888Y-98538779D01*
X94332346Y-98680836D01*
X94329168Y-98684278D01*
X94160270Y-98853894D01*
X94024610Y-98985706D01*
X94021212Y-98988773D01*
X93838963Y-99141405D01*
X93690418Y-99261268D01*
X93686841Y-99263948D01*
X93492646Y-99398772D01*
X93332522Y-99505264D01*
X93328807Y-99507550D01*
X93124203Y-99623760D01*
X92953929Y-99715640D01*
X92950118Y-99717531D01*
X92736691Y-99814439D01*
X92557777Y-99890666D01*
X92553910Y-99892163D01*
X92333298Y-99969183D01*
X92147335Y-100028895D01*
X92143452Y-100030004D01*
X91917413Y-100086657D01*
X91726042Y-100129178D01*
X91722180Y-100129909D01*
X91492473Y-100165859D01*
X91297378Y-100190687D01*
X91293572Y-100191053D01*
X91061992Y-100206108D01*
X90864927Y-100212913D01*
X90861212Y-100212930D01*
X90629572Y-100207045D01*
X90432259Y-100195678D01*
X90428665Y-100195366D01*
X90198784Y-100168644D01*
X90002986Y-100139132D01*
X89999541Y-100138513D01*
X89971395Y-100132630D01*
X89773218Y-100091206D01*
X89580657Y-100043744D01*
X89577387Y-100042842D01*
X89356433Y-99975369D01*
X89168778Y-99910310D01*
X89165704Y-99909152D01*
X88951876Y-99822081D01*
X88770771Y-99739944D01*
X88767912Y-99738558D01*
X88562900Y-99632600D01*
X88389970Y-99534081D01*
X88387342Y-99532496D01*
X88192747Y-99408494D01*
X88035464Y-99298588D01*
X88029472Y-99294401D01*
X88027125Y-99292676D01*
X87908790Y-99201275D01*
X87844493Y-99151613D01*
X87692341Y-99022944D01*
X87690205Y-99021052D01*
X87652111Y-98985706D01*
X87522073Y-98865047D01*
X87520043Y-98863075D01*
X87407273Y-98748342D01*
X87380386Y-98720987D01*
X87226054Y-98549389D01*
X87224140Y-98547156D01*
X87098188Y-98392892D01*
X87068365Y-98353016D01*
X86959952Y-98208057D01*
X86958228Y-98205629D01*
X86847046Y-98040522D01*
X86726041Y-97843963D01*
X86724454Y-97841230D01*
X86629016Y-97666773D01*
X86626103Y-97660916D01*
X86538008Y-97483774D01*
X86526213Y-97460056D01*
X86524828Y-97457077D01*
X86468601Y-97327185D01*
X86445928Y-97274807D01*
X86362123Y-97059492D01*
X86361012Y-97056389D01*
X86299262Y-96867820D01*
X86235176Y-96645667D01*
X86234321Y-96642355D01*
X86190251Y-96449275D01*
X86146416Y-96221989D01*
X86145841Y-96218455D01*
X86139926Y-96174021D01*
X86119767Y-96022582D01*
X86096582Y-95791977D01*
X86096324Y-95788311D01*
X86088383Y-95591288D01*
X86087907Y-95543068D01*
X89135702Y-95543068D01*
X89148029Y-95624847D01*
X89174806Y-95802496D01*
X89174807Y-95802498D01*
X89174808Y-95802504D01*
X89252140Y-96053207D01*
X89365969Y-96289577D01*
X89365970Y-96289578D01*
X89365972Y-96289581D01*
X89365974Y-96289585D01*
X89436048Y-96392364D01*
X89513769Y-96506360D01*
X89692216Y-96698682D01*
X89692220Y-96698685D01*
X89692221Y-96698686D01*
X89897345Y-96862267D01*
X90124559Y-96993449D01*
X90368786Y-97089301D01*
X90624572Y-97147683D01*
X90624578Y-97147683D01*
X90624581Y-97147684D01*
X90820702Y-97162381D01*
X90820708Y-97162381D01*
X90951702Y-97162381D01*
X91147822Y-97147684D01*
X91147824Y-97147683D01*
X91147832Y-97147683D01*
X91403618Y-97089301D01*
X91647845Y-96993449D01*
X91875059Y-96862267D01*
X92080183Y-96698686D01*
X92115343Y-96660793D01*
X92132450Y-96642355D01*
X92258635Y-96506360D01*
X92406430Y-96289585D01*
X92520265Y-96053204D01*
X92597598Y-95802496D01*
X92636702Y-95543063D01*
X92636702Y-95280699D01*
X92597598Y-95021266D01*
X92520265Y-94770558D01*
X92465913Y-94657695D01*
X92406434Y-94534184D01*
X92406433Y-94534183D01*
X92406432Y-94534182D01*
X92406430Y-94534177D01*
X92258635Y-94317402D01*
X92232202Y-94288914D01*
X92080187Y-94125079D01*
X92040735Y-94093617D01*
X91875059Y-93961495D01*
X91647845Y-93830313D01*
X91403618Y-93734461D01*
X91403613Y-93734459D01*
X91403604Y-93734457D01*
X91184538Y-93684457D01*
X91147832Y-93676079D01*
X91147831Y-93676078D01*
X91147827Y-93676078D01*
X91147822Y-93676077D01*
X90951702Y-93661381D01*
X90951696Y-93661381D01*
X90820708Y-93661381D01*
X90820702Y-93661381D01*
X90624581Y-93676077D01*
X90624576Y-93676078D01*
X90368799Y-93734457D01*
X90368780Y-93734463D01*
X90124558Y-93830313D01*
X89897345Y-93961495D01*
X89692216Y-94125079D01*
X89513769Y-94317401D01*
X89365970Y-94534183D01*
X89365969Y-94534184D01*
X89252140Y-94770554D01*
X89174808Y-95021257D01*
X89174807Y-95021262D01*
X89174806Y-95021266D01*
X89168311Y-95064357D01*
X89135702Y-95280693D01*
X89135702Y-95543068D01*
X86087907Y-95543068D01*
X86086090Y-95359165D01*
X86086169Y-95355413D01*
X86096348Y-95159002D01*
X86115035Y-94927213D01*
X86115470Y-94923346D01*
X86143574Y-94729317D01*
X86183182Y-94499641D01*
X86183986Y-94495742D01*
X86229642Y-94305809D01*
X86289968Y-94080035D01*
X86291155Y-94076120D01*
X86353793Y-93892029D01*
X86434518Y-93671853D01*
X86436078Y-93668009D01*
X86514984Y-93491329D01*
X86615631Y-93278506D01*
X86617555Y-93274781D01*
X86701849Y-93124820D01*
X86711831Y-93107064D01*
X86729280Y-93077422D01*
X86831783Y-92903304D01*
X86834139Y-92899614D01*
X86942556Y-92742543D01*
X87081207Y-92549308D01*
X87083943Y-92545777D01*
X87205244Y-92400651D01*
X87361822Y-92219482D01*
X87364990Y-92216085D01*
X87497532Y-92084303D01*
X87671341Y-91916520D01*
X87674851Y-91913385D01*
X87816849Y-91796079D01*
X88007140Y-91643006D01*
X88011021Y-91640129D01*
X88160163Y-91538445D01*
X88366454Y-91401184D01*
X88370683Y-91398610D01*
X88524193Y-91313479D01*
X88746311Y-91193062D01*
X88750873Y-91190827D01*
X88904887Y-91123102D01*
X89143567Y-91020368D01*
X89148415Y-91018519D01*
X89297111Y-90968876D01*
X89554914Y-90884548D01*
X89559985Y-90883128D01*
X89692614Y-90852051D01*
X89976915Y-90786739D01*
X89982222Y-90785763D01*
X90069778Y-90773594D01*
X90362206Y-90733730D01*
X90404631Y-90727947D01*
X90410209Y-90727442D01*
X90595330Y-90719075D01*
X90835198Y-90708235D01*
X90837970Y-90708173D01*
X90870700Y-90708173D01*
X90885300Y-90706320D01*
X91015840Y-90701365D01*
X91242217Y-90672006D01*
X91315331Y-90665585D01*
X91328708Y-90660789D01*
X91372351Y-90655130D01*
X91642811Y-90594668D01*
X91690299Y-90585691D01*
X91697020Y-90582549D01*
X91723187Y-90576700D01*
X92054155Y-90470351D01*
X92056168Y-90469759D01*
X92056373Y-90469638D01*
X92065448Y-90466723D01*
X92396304Y-90326109D01*
X92713017Y-90156021D01*
X93012970Y-89957864D01*
X93293681Y-89733278D01*
X93552829Y-89484120D01*
X93559061Y-89476928D01*
X93559218Y-89476827D01*
X93560574Y-89475183D01*
X93737323Y-89271238D01*
X93788271Y-89212451D01*
X93803910Y-89190687D01*
X93808537Y-89187080D01*
X93836338Y-89145563D01*
X93893589Y-89065895D01*
X93998061Y-88920516D01*
X94020388Y-88882595D01*
X94028574Y-88874922D01*
X94064632Y-88807452D01*
X94180462Y-88610730D01*
X94247314Y-88469141D01*
X94250429Y-88464819D01*
X94256553Y-88449794D01*
X94257962Y-88446597D01*
X94260083Y-88442129D01*
X94257278Y-88425818D01*
X94291417Y-55697870D01*
X97349500Y-55697870D01*
X97349501Y-55697876D01*
X97355908Y-55757483D01*
X97406202Y-55892328D01*
X97406206Y-55892335D01*
X97492452Y-56007544D01*
X97492455Y-56007547D01*
X97607664Y-56093793D01*
X97607671Y-56093797D01*
X97742517Y-56144091D01*
X97742516Y-56144091D01*
X97749444Y-56144835D01*
X97802127Y-56150500D01*
X99250500Y-56150499D01*
X99317539Y-56170184D01*
X99363294Y-56222987D01*
X99374500Y-56274499D01*
X99374500Y-58117255D01*
X99372775Y-58132872D01*
X99373061Y-58132899D01*
X99372326Y-58140665D01*
X99374500Y-58209814D01*
X99374500Y-58239343D01*
X99374501Y-58239360D01*
X99375368Y-58246231D01*
X99375826Y-58252050D01*
X99377290Y-58298624D01*
X99377291Y-58298627D01*
X99382880Y-58317867D01*
X99386824Y-58336911D01*
X99389336Y-58356792D01*
X99406490Y-58400119D01*
X99408382Y-58405647D01*
X99421381Y-58450388D01*
X99431580Y-58467634D01*
X99440136Y-58485100D01*
X99447514Y-58503732D01*
X99474898Y-58541423D01*
X99478106Y-58546307D01*
X99501827Y-58586416D01*
X99501833Y-58586424D01*
X99515990Y-58600580D01*
X99528628Y-58615376D01*
X99540405Y-58631586D01*
X99540406Y-58631587D01*
X99576309Y-58661288D01*
X99580620Y-58665210D01*
X114025642Y-73110233D01*
X118839197Y-77923788D01*
X118849022Y-77936051D01*
X118849243Y-77935869D01*
X118854214Y-77941878D01*
X118880217Y-77966295D01*
X118904635Y-77989226D01*
X118925529Y-78010120D01*
X118931011Y-78014373D01*
X118935443Y-78018157D01*
X118969418Y-78050062D01*
X118986976Y-78059714D01*
X119003235Y-78070395D01*
X119019064Y-78082673D01*
X119061838Y-78101182D01*
X119067056Y-78103738D01*
X119107908Y-78126197D01*
X119127316Y-78131180D01*
X119145717Y-78137480D01*
X119164104Y-78145437D01*
X119207488Y-78152308D01*
X119210119Y-78152725D01*
X119215839Y-78153909D01*
X119260981Y-78165500D01*
X119268537Y-78167440D01*
X119268199Y-78168755D01*
X119324675Y-78193383D01*
X119346671Y-78217355D01*
X119459954Y-78379141D01*
X119620858Y-78540045D01*
X119620861Y-78540047D01*
X119807266Y-78670568D01*
X119865275Y-78697618D01*
X119917714Y-78743791D01*
X119936866Y-78810984D01*
X119916650Y-78877865D01*
X119865275Y-78922382D01*
X119807267Y-78949431D01*
X119807265Y-78949432D01*
X119620858Y-79079954D01*
X119459954Y-79240858D01*
X119329432Y-79427265D01*
X119329431Y-79427267D01*
X119233261Y-79633502D01*
X119233258Y-79633511D01*
X119174366Y-79853302D01*
X119174364Y-79853313D01*
X119154532Y-80079998D01*
X119154532Y-80080001D01*
X119174364Y-80306686D01*
X119174366Y-80306697D01*
X119233258Y-80526488D01*
X119233261Y-80526497D01*
X119329431Y-80732732D01*
X119329432Y-80732734D01*
X119459954Y-80919141D01*
X119620858Y-81080045D01*
X119620861Y-81080047D01*
X119807266Y-81210568D01*
X120013504Y-81306739D01*
X120233308Y-81365635D01*
X120395230Y-81379801D01*
X120459998Y-81385468D01*
X120460000Y-81385468D01*
X120460002Y-81385468D01*
X120516673Y-81380509D01*
X120686692Y-81365635D01*
X120906496Y-81306739D01*
X121112734Y-81210568D01*
X121299139Y-81080047D01*
X121460047Y-80919139D01*
X121590568Y-80732734D01*
X121686739Y-80526496D01*
X121745635Y-80306692D01*
X121765468Y-80080001D01*
X134394532Y-80080001D01*
X134414364Y-80306686D01*
X134414366Y-80306697D01*
X134473258Y-80526488D01*
X134473261Y-80526497D01*
X134569431Y-80732732D01*
X134569432Y-80732734D01*
X134699954Y-80919141D01*
X134860858Y-81080045D01*
X134860861Y-81080047D01*
X135047266Y-81210568D01*
X135253504Y-81306739D01*
X135473308Y-81365635D01*
X135635230Y-81379801D01*
X135699998Y-81385468D01*
X135700000Y-81385468D01*
X135700002Y-81385468D01*
X135756673Y-81380509D01*
X135926692Y-81365635D01*
X136146496Y-81306739D01*
X136352734Y-81210568D01*
X136539139Y-81080047D01*
X136700047Y-80919139D01*
X136830568Y-80732734D01*
X136926739Y-80526496D01*
X136985635Y-80306692D01*
X137005468Y-80080000D01*
X136985635Y-79853308D01*
X136926739Y-79633504D01*
X136830568Y-79427266D01*
X136700047Y-79240861D01*
X136700045Y-79240858D01*
X136539141Y-79079954D01*
X136352734Y-78949432D01*
X136352728Y-78949429D01*
X136294725Y-78922382D01*
X136242285Y-78876210D01*
X136223133Y-78809017D01*
X136243348Y-78742135D01*
X136294725Y-78697618D01*
X136352734Y-78670568D01*
X136539139Y-78540047D01*
X136700047Y-78379139D01*
X136830568Y-78192734D01*
X136926739Y-77986496D01*
X136985635Y-77766692D01*
X137005468Y-77540000D01*
X136985635Y-77313308D01*
X136926739Y-77093504D01*
X136830568Y-76887266D01*
X136700047Y-76700861D01*
X136700045Y-76700858D01*
X136539141Y-76539954D01*
X136352734Y-76409432D01*
X136352728Y-76409429D01*
X136294725Y-76382382D01*
X136242285Y-76336210D01*
X136223133Y-76269017D01*
X136243348Y-76202135D01*
X136294725Y-76157618D01*
X136352734Y-76130568D01*
X136539139Y-76000047D01*
X136700047Y-75839139D01*
X136830568Y-75652734D01*
X136926739Y-75446496D01*
X136985635Y-75226692D01*
X137005468Y-75000000D01*
X136985635Y-74773308D01*
X136926739Y-74553504D01*
X136830568Y-74347266D01*
X136700047Y-74160861D01*
X136700045Y-74160858D01*
X136539141Y-73999954D01*
X136352734Y-73869432D01*
X136352728Y-73869429D01*
X136294725Y-73842382D01*
X136242285Y-73796210D01*
X136223133Y-73729017D01*
X136243348Y-73662135D01*
X136294725Y-73617618D01*
X136352734Y-73590568D01*
X136539139Y-73460047D01*
X136700047Y-73299139D01*
X136830568Y-73112734D01*
X136926739Y-72906496D01*
X136985635Y-72686692D01*
X137005468Y-72460000D01*
X136985635Y-72233308D01*
X136926739Y-72013504D01*
X136830568Y-71807266D01*
X136700047Y-71620861D01*
X136700045Y-71620858D01*
X136539141Y-71459954D01*
X136352734Y-71329432D01*
X136352728Y-71329429D01*
X136294725Y-71302382D01*
X136242285Y-71256210D01*
X136223133Y-71189017D01*
X136243348Y-71122135D01*
X136294725Y-71077618D01*
X136352734Y-71050568D01*
X136539139Y-70920047D01*
X136700047Y-70759139D01*
X136830568Y-70572734D01*
X136926739Y-70366496D01*
X136985635Y-70146692D01*
X137005468Y-69920000D01*
X136985635Y-69693308D01*
X136926739Y-69473504D01*
X136830568Y-69267266D01*
X136700047Y-69080861D01*
X136700045Y-69080858D01*
X136539141Y-68919954D01*
X136352734Y-68789432D01*
X136352728Y-68789429D01*
X136294725Y-68762382D01*
X136242285Y-68716210D01*
X136223133Y-68649017D01*
X136243348Y-68582135D01*
X136294725Y-68537618D01*
X136352734Y-68510568D01*
X136539139Y-68380047D01*
X136700047Y-68219139D01*
X136830568Y-68032734D01*
X136926739Y-67826496D01*
X136985635Y-67606692D01*
X137005468Y-67380000D01*
X136985635Y-67153308D01*
X136926739Y-66933504D01*
X136830568Y-66727266D01*
X136700047Y-66540861D01*
X136700045Y-66540858D01*
X136539141Y-66379954D01*
X136352734Y-66249432D01*
X136352728Y-66249429D01*
X136294725Y-66222382D01*
X136242285Y-66176210D01*
X136223133Y-66109017D01*
X136243348Y-66042135D01*
X136294725Y-65997618D01*
X136352734Y-65970568D01*
X136539139Y-65840047D01*
X136700047Y-65679139D01*
X136830568Y-65492734D01*
X136926739Y-65286496D01*
X136985635Y-65066692D01*
X137005468Y-64840000D01*
X136985635Y-64613308D01*
X136926739Y-64393504D01*
X136830568Y-64187266D01*
X136700047Y-64000861D01*
X136700045Y-64000858D01*
X136539141Y-63839954D01*
X136352734Y-63709432D01*
X136352728Y-63709429D01*
X136294725Y-63682382D01*
X136242285Y-63636210D01*
X136223133Y-63569017D01*
X136243348Y-63502135D01*
X136294725Y-63457618D01*
X136352734Y-63430568D01*
X136539139Y-63300047D01*
X136700047Y-63139139D01*
X136830568Y-62952734D01*
X136926739Y-62746496D01*
X136985635Y-62526692D01*
X137005468Y-62300000D01*
X136985635Y-62073308D01*
X136926739Y-61853504D01*
X136830568Y-61647266D01*
X136700047Y-61460861D01*
X136700045Y-61460858D01*
X136539141Y-61299954D01*
X136352734Y-61169432D01*
X136352728Y-61169429D01*
X136294725Y-61142382D01*
X136242285Y-61096210D01*
X136223133Y-61029017D01*
X136243348Y-60962135D01*
X136294725Y-60917618D01*
X136352734Y-60890568D01*
X136539139Y-60760047D01*
X136700047Y-60599139D01*
X136830568Y-60412734D01*
X136926739Y-60206496D01*
X136985635Y-59986692D01*
X137005468Y-59760000D01*
X136985635Y-59533308D01*
X136926739Y-59313504D01*
X136830568Y-59107266D01*
X136700047Y-58920861D01*
X136700045Y-58920858D01*
X136539141Y-58759954D01*
X136352734Y-58629432D01*
X136352728Y-58629429D01*
X136322591Y-58615376D01*
X136294724Y-58602381D01*
X136242285Y-58556210D01*
X136223133Y-58489017D01*
X136243348Y-58422135D01*
X136294725Y-58377618D01*
X136352734Y-58350568D01*
X136539139Y-58220047D01*
X136700047Y-58059139D01*
X136830568Y-57872734D01*
X136926739Y-57666496D01*
X136985635Y-57446692D01*
X137005468Y-57220000D01*
X136985635Y-56993308D01*
X136926739Y-56773504D01*
X136830568Y-56567266D01*
X136700047Y-56380861D01*
X136700045Y-56380858D01*
X136539141Y-56219954D01*
X136352734Y-56089432D01*
X136352728Y-56089429D01*
X136318424Y-56073433D01*
X136294724Y-56062381D01*
X136242285Y-56016210D01*
X136223133Y-55949017D01*
X136243348Y-55882135D01*
X136294725Y-55837618D01*
X136352734Y-55810568D01*
X136539139Y-55680047D01*
X136700047Y-55519139D01*
X136830568Y-55332734D01*
X136926739Y-55126496D01*
X136985635Y-54906692D01*
X137005468Y-54680000D01*
X136985635Y-54453308D01*
X136926739Y-54233504D01*
X136830568Y-54027266D01*
X136732839Y-53887693D01*
X136700045Y-53840858D01*
X136539141Y-53679954D01*
X136352734Y-53549432D01*
X136352728Y-53549429D01*
X136306025Y-53527651D01*
X136294724Y-53522381D01*
X136242285Y-53476210D01*
X136223133Y-53409017D01*
X136243348Y-53342135D01*
X136294725Y-53297618D01*
X136297483Y-53296332D01*
X136352734Y-53270568D01*
X136539139Y-53140047D01*
X136700047Y-52979139D01*
X136830568Y-52792734D01*
X136926739Y-52586496D01*
X136985635Y-52366692D01*
X137005468Y-52140000D01*
X136985635Y-51913308D01*
X136926739Y-51693504D01*
X136830568Y-51487266D01*
X136700047Y-51300861D01*
X136700045Y-51300858D01*
X136539141Y-51139954D01*
X136352734Y-51009432D01*
X136352728Y-51009429D01*
X136306263Y-50987762D01*
X136294724Y-50982381D01*
X136242285Y-50936210D01*
X136223133Y-50869017D01*
X136243348Y-50802135D01*
X136294725Y-50757618D01*
X136352734Y-50730568D01*
X136539139Y-50600047D01*
X136700047Y-50439139D01*
X136830568Y-50252734D01*
X136926739Y-50046496D01*
X136985635Y-49826692D01*
X137005468Y-49600000D01*
X136985635Y-49373308D01*
X136926739Y-49153504D01*
X136830568Y-48947266D01*
X136700047Y-48760861D01*
X136700045Y-48760858D01*
X136539141Y-48599954D01*
X136352734Y-48469432D01*
X136352732Y-48469431D01*
X136341275Y-48464088D01*
X136294132Y-48442105D01*
X136241694Y-48395934D01*
X136222542Y-48328740D01*
X136242758Y-48261859D01*
X136294134Y-48217341D01*
X136352484Y-48190132D01*
X136538820Y-48059657D01*
X136699657Y-47898820D01*
X136830134Y-47712482D01*
X136926265Y-47506326D01*
X136926269Y-47506317D01*
X136978872Y-47310000D01*
X136313347Y-47310000D01*
X136246308Y-47290315D01*
X136200553Y-47237511D01*
X136190609Y-47168353D01*
X136194369Y-47151067D01*
X136200000Y-47131888D01*
X136200000Y-46988111D01*
X136194369Y-46968933D01*
X136194370Y-46899064D01*
X136232145Y-46840286D01*
X136295701Y-46811262D01*
X136313347Y-46810000D01*
X136978872Y-46810000D01*
X136978872Y-46809999D01*
X136926269Y-46613682D01*
X136926265Y-46613673D01*
X136830134Y-46407517D01*
X136699657Y-46221179D01*
X136538820Y-46060342D01*
X136352482Y-45929865D01*
X136294133Y-45902657D01*
X136241694Y-45856484D01*
X136222542Y-45789291D01*
X136242758Y-45722410D01*
X136294129Y-45677895D01*
X136352734Y-45650568D01*
X136539139Y-45520047D01*
X136700047Y-45359139D01*
X136830568Y-45172734D01*
X136926739Y-44966496D01*
X136985635Y-44746692D01*
X137005468Y-44520000D01*
X136985635Y-44293308D01*
X136926739Y-44073504D01*
X136830568Y-43867266D01*
X136700047Y-43680861D01*
X136700045Y-43680858D01*
X136539141Y-43519954D01*
X136352734Y-43389432D01*
X136352732Y-43389431D01*
X136146497Y-43293261D01*
X136146488Y-43293258D01*
X135926697Y-43234366D01*
X135926693Y-43234365D01*
X135926692Y-43234365D01*
X135926691Y-43234364D01*
X135926686Y-43234364D01*
X135700002Y-43214532D01*
X135699998Y-43214532D01*
X135473313Y-43234364D01*
X135473302Y-43234366D01*
X135253511Y-43293258D01*
X135253502Y-43293261D01*
X135047267Y-43389431D01*
X135047265Y-43389432D01*
X134860858Y-43519954D01*
X134699954Y-43680858D01*
X134569432Y-43867265D01*
X134569431Y-43867267D01*
X134473261Y-44073502D01*
X134473258Y-44073511D01*
X134414366Y-44293302D01*
X134414364Y-44293313D01*
X134394532Y-44519998D01*
X134394532Y-44520001D01*
X134414364Y-44746686D01*
X134414366Y-44746697D01*
X134473258Y-44966488D01*
X134473261Y-44966497D01*
X134569431Y-45172732D01*
X134569432Y-45172734D01*
X134699954Y-45359141D01*
X134860858Y-45520045D01*
X134860861Y-45520047D01*
X135047266Y-45650568D01*
X135105865Y-45677893D01*
X135158305Y-45724065D01*
X135177457Y-45791258D01*
X135157242Y-45858139D01*
X135105867Y-45902657D01*
X135047515Y-45929867D01*
X134861179Y-46060342D01*
X134700342Y-46221179D01*
X134569865Y-46407517D01*
X134473734Y-46613673D01*
X134473730Y-46613682D01*
X134421127Y-46809999D01*
X134421128Y-46810000D01*
X135086653Y-46810000D01*
X135153692Y-46829685D01*
X135199447Y-46882489D01*
X135209391Y-46951647D01*
X135205631Y-46968933D01*
X135200000Y-46988111D01*
X135200000Y-47131888D01*
X135205631Y-47151067D01*
X135205630Y-47220936D01*
X135167855Y-47279714D01*
X135104299Y-47308738D01*
X135086653Y-47310000D01*
X134421128Y-47310000D01*
X134473730Y-47506317D01*
X134473734Y-47506326D01*
X134569865Y-47712482D01*
X134700342Y-47898820D01*
X134861179Y-48059657D01*
X135047518Y-48190134D01*
X135047520Y-48190135D01*
X135105865Y-48217342D01*
X135158305Y-48263514D01*
X135177457Y-48330707D01*
X135157242Y-48397589D01*
X135105867Y-48442105D01*
X135047268Y-48469431D01*
X135047264Y-48469433D01*
X134860858Y-48599954D01*
X134699954Y-48760858D01*
X134569432Y-48947265D01*
X134569431Y-48947267D01*
X134473261Y-49153502D01*
X134473258Y-49153511D01*
X134414366Y-49373302D01*
X134414364Y-49373313D01*
X134394532Y-49599998D01*
X134394532Y-49600001D01*
X134411075Y-49789096D01*
X134414365Y-49826692D01*
X134437032Y-49911289D01*
X134473258Y-50046488D01*
X134473261Y-50046497D01*
X134569431Y-50252732D01*
X134569432Y-50252734D01*
X134699954Y-50439141D01*
X134860858Y-50600045D01*
X134860861Y-50600047D01*
X135047266Y-50730568D01*
X135105275Y-50757618D01*
X135157714Y-50803791D01*
X135176866Y-50870984D01*
X135156650Y-50937865D01*
X135105275Y-50982382D01*
X135047267Y-51009431D01*
X135047265Y-51009432D01*
X134860858Y-51139954D01*
X134699954Y-51300858D01*
X134569432Y-51487265D01*
X134569431Y-51487267D01*
X134473261Y-51693502D01*
X134473258Y-51693511D01*
X134414366Y-51913302D01*
X134414364Y-51913313D01*
X134394532Y-52139998D01*
X134394532Y-52140001D01*
X134414364Y-52366686D01*
X134414366Y-52366697D01*
X134473258Y-52586488D01*
X134473261Y-52586497D01*
X134569431Y-52792732D01*
X134569432Y-52792734D01*
X134699954Y-52979141D01*
X134860858Y-53140045D01*
X134860861Y-53140047D01*
X135047266Y-53270568D01*
X135102517Y-53296332D01*
X135105275Y-53297618D01*
X135157714Y-53343791D01*
X135176866Y-53410984D01*
X135156650Y-53477865D01*
X135105275Y-53522381D01*
X135096291Y-53526571D01*
X135047267Y-53549431D01*
X135047265Y-53549432D01*
X134860858Y-53679954D01*
X134699954Y-53840858D01*
X134569432Y-54027265D01*
X134569431Y-54027267D01*
X134473261Y-54233502D01*
X134473258Y-54233511D01*
X134414366Y-54453302D01*
X134414364Y-54453313D01*
X134394532Y-54679998D01*
X134394532Y-54680001D01*
X134414364Y-54906686D01*
X134414366Y-54906697D01*
X134473258Y-55126488D01*
X134473261Y-55126497D01*
X134569431Y-55332732D01*
X134569432Y-55332734D01*
X134699954Y-55519141D01*
X134860858Y-55680045D01*
X134860861Y-55680047D01*
X135047266Y-55810568D01*
X135105275Y-55837618D01*
X135157714Y-55883791D01*
X135176866Y-55950984D01*
X135156650Y-56017865D01*
X135105275Y-56062381D01*
X135088272Y-56070310D01*
X135047267Y-56089431D01*
X135047265Y-56089432D01*
X134860858Y-56219954D01*
X134699954Y-56380858D01*
X134569432Y-56567265D01*
X134569431Y-56567267D01*
X134473261Y-56773502D01*
X134473258Y-56773511D01*
X134414366Y-56993302D01*
X134414364Y-56993313D01*
X134394532Y-57219998D01*
X134394532Y-57220001D01*
X134414364Y-57446686D01*
X134414366Y-57446697D01*
X134473258Y-57666488D01*
X134473261Y-57666497D01*
X134569431Y-57872732D01*
X134569432Y-57872734D01*
X134699954Y-58059141D01*
X134860858Y-58220045D01*
X134860861Y-58220047D01*
X135047266Y-58350568D01*
X135105275Y-58377618D01*
X135157714Y-58423791D01*
X135176866Y-58490984D01*
X135156650Y-58557865D01*
X135105275Y-58602382D01*
X135047267Y-58629431D01*
X135047265Y-58629432D01*
X134860858Y-58759954D01*
X134699954Y-58920858D01*
X134569432Y-59107265D01*
X134569431Y-59107267D01*
X134473261Y-59313502D01*
X134473258Y-59313511D01*
X134414366Y-59533302D01*
X134414364Y-59533313D01*
X134394532Y-59759998D01*
X134394532Y-59760001D01*
X134414364Y-59986686D01*
X134414366Y-59986697D01*
X134473258Y-60206488D01*
X134473261Y-60206497D01*
X134569431Y-60412732D01*
X134569432Y-60412734D01*
X134699954Y-60599141D01*
X134860858Y-60760045D01*
X134860861Y-60760047D01*
X135047266Y-60890568D01*
X135105275Y-60917618D01*
X135157714Y-60963791D01*
X135176866Y-61030984D01*
X135156650Y-61097865D01*
X135105275Y-61142382D01*
X135047267Y-61169431D01*
X135047265Y-61169432D01*
X134860858Y-61299954D01*
X134699954Y-61460858D01*
X134569432Y-61647265D01*
X134569431Y-61647267D01*
X134473261Y-61853502D01*
X134473258Y-61853511D01*
X134414366Y-62073302D01*
X134414364Y-62073313D01*
X134394532Y-62299998D01*
X134394532Y-62300001D01*
X134414364Y-62526686D01*
X134414366Y-62526697D01*
X134473258Y-62746488D01*
X134473261Y-62746497D01*
X134569431Y-62952732D01*
X134569432Y-62952734D01*
X134699954Y-63139141D01*
X134860858Y-63300045D01*
X134860861Y-63300047D01*
X135047266Y-63430568D01*
X135105275Y-63457618D01*
X135157714Y-63503791D01*
X135176866Y-63570984D01*
X135156650Y-63637865D01*
X135105275Y-63682382D01*
X135047267Y-63709431D01*
X135047265Y-63709432D01*
X134860858Y-63839954D01*
X134699954Y-64000858D01*
X134569432Y-64187265D01*
X134569431Y-64187267D01*
X134473261Y-64393502D01*
X134473258Y-64393511D01*
X134414366Y-64613302D01*
X134414364Y-64613313D01*
X134394532Y-64839998D01*
X134394532Y-64840001D01*
X134414364Y-65066686D01*
X134414366Y-65066697D01*
X134473258Y-65286488D01*
X134473261Y-65286497D01*
X134569431Y-65492732D01*
X134569432Y-65492734D01*
X134699954Y-65679141D01*
X134860858Y-65840045D01*
X134860861Y-65840047D01*
X135047266Y-65970568D01*
X135105275Y-65997618D01*
X135157714Y-66043791D01*
X135176866Y-66110984D01*
X135156650Y-66177865D01*
X135105275Y-66222382D01*
X135047267Y-66249431D01*
X135047265Y-66249432D01*
X134860858Y-66379954D01*
X134699954Y-66540858D01*
X134569432Y-66727265D01*
X134569431Y-66727267D01*
X134473261Y-66933502D01*
X134473258Y-66933511D01*
X134414366Y-67153302D01*
X134414364Y-67153313D01*
X134394532Y-67379998D01*
X134394532Y-67380001D01*
X134414364Y-67606686D01*
X134414366Y-67606697D01*
X134473258Y-67826488D01*
X134473261Y-67826497D01*
X134569431Y-68032732D01*
X134569432Y-68032734D01*
X134699954Y-68219141D01*
X134860858Y-68380045D01*
X134860861Y-68380047D01*
X135047266Y-68510568D01*
X135105275Y-68537618D01*
X135157714Y-68583791D01*
X135176866Y-68650984D01*
X135156650Y-68717865D01*
X135105275Y-68762382D01*
X135047267Y-68789431D01*
X135047265Y-68789432D01*
X134860858Y-68919954D01*
X134699954Y-69080858D01*
X134569432Y-69267265D01*
X134569431Y-69267267D01*
X134473261Y-69473502D01*
X134473258Y-69473511D01*
X134414366Y-69693302D01*
X134414364Y-69693313D01*
X134394532Y-69919998D01*
X134394532Y-69920001D01*
X134414364Y-70146686D01*
X134414366Y-70146697D01*
X134473258Y-70366488D01*
X134473261Y-70366497D01*
X134569431Y-70572732D01*
X134569432Y-70572734D01*
X134699954Y-70759141D01*
X134860858Y-70920045D01*
X134860861Y-70920047D01*
X135047266Y-71050568D01*
X135105278Y-71077619D01*
X135157713Y-71123788D01*
X135176866Y-71190982D01*
X135156651Y-71257863D01*
X135105277Y-71302380D01*
X135047268Y-71329430D01*
X135047265Y-71329432D01*
X134860858Y-71459954D01*
X134699954Y-71620858D01*
X134569432Y-71807265D01*
X134569431Y-71807267D01*
X134473261Y-72013502D01*
X134473258Y-72013511D01*
X134414366Y-72233302D01*
X134414364Y-72233313D01*
X134394532Y-72459998D01*
X134394532Y-72460001D01*
X134414364Y-72686686D01*
X134414366Y-72686697D01*
X134473258Y-72906488D01*
X134473261Y-72906497D01*
X134569431Y-73112732D01*
X134569432Y-73112734D01*
X134699954Y-73299141D01*
X134860858Y-73460045D01*
X134860861Y-73460047D01*
X135047266Y-73590568D01*
X135105278Y-73617619D01*
X135157713Y-73663788D01*
X135176866Y-73730982D01*
X135156651Y-73797863D01*
X135105277Y-73842380D01*
X135047268Y-73869430D01*
X135047265Y-73869432D01*
X134860858Y-73999954D01*
X134699954Y-74160858D01*
X134569432Y-74347265D01*
X134569431Y-74347267D01*
X134473261Y-74553502D01*
X134473258Y-74553511D01*
X134414366Y-74773302D01*
X134414364Y-74773313D01*
X134394532Y-74999998D01*
X134394532Y-75000001D01*
X134414364Y-75226686D01*
X134414366Y-75226697D01*
X134473258Y-75446488D01*
X134473261Y-75446497D01*
X134569431Y-75652732D01*
X134569432Y-75652734D01*
X134699954Y-75839141D01*
X134860858Y-76000045D01*
X134860861Y-76000047D01*
X135047266Y-76130568D01*
X135105278Y-76157619D01*
X135157713Y-76203788D01*
X135176866Y-76270982D01*
X135156651Y-76337863D01*
X135105277Y-76382380D01*
X135047268Y-76409430D01*
X135047265Y-76409432D01*
X134860858Y-76539954D01*
X134699954Y-76700858D01*
X134569432Y-76887265D01*
X134569431Y-76887267D01*
X134473261Y-77093502D01*
X134473258Y-77093511D01*
X134414366Y-77313302D01*
X134414364Y-77313313D01*
X134394532Y-77539998D01*
X134394532Y-77540001D01*
X134414364Y-77766686D01*
X134414366Y-77766697D01*
X134473258Y-77986488D01*
X134473261Y-77986497D01*
X134569431Y-78192732D01*
X134569432Y-78192734D01*
X134699954Y-78379141D01*
X134860858Y-78540045D01*
X134860861Y-78540047D01*
X135047266Y-78670568D01*
X135105275Y-78697618D01*
X135157714Y-78743791D01*
X135176866Y-78810984D01*
X135156650Y-78877865D01*
X135105275Y-78922382D01*
X135047267Y-78949431D01*
X135047265Y-78949432D01*
X134860858Y-79079954D01*
X134699954Y-79240858D01*
X134569432Y-79427265D01*
X134569431Y-79427267D01*
X134473261Y-79633502D01*
X134473258Y-79633511D01*
X134414366Y-79853302D01*
X134414364Y-79853313D01*
X134394532Y-80079998D01*
X134394532Y-80080001D01*
X121765468Y-80080001D01*
X121765468Y-80080000D01*
X121745635Y-79853308D01*
X121686739Y-79633504D01*
X121590568Y-79427266D01*
X121460047Y-79240861D01*
X121460045Y-79240858D01*
X121299141Y-79079954D01*
X121112734Y-78949432D01*
X121112728Y-78949429D01*
X121054725Y-78922382D01*
X121002285Y-78876210D01*
X120983133Y-78809017D01*
X121003348Y-78742135D01*
X121054725Y-78697618D01*
X121112734Y-78670568D01*
X121299139Y-78540047D01*
X121460047Y-78379139D01*
X121590568Y-78192734D01*
X121686739Y-77986496D01*
X121745635Y-77766692D01*
X121765468Y-77540000D01*
X121745635Y-77313308D01*
X121686739Y-77093504D01*
X121590568Y-76887266D01*
X121460047Y-76700861D01*
X121460045Y-76700858D01*
X121299141Y-76539954D01*
X121112734Y-76409432D01*
X121112728Y-76409429D01*
X121054725Y-76382382D01*
X121002285Y-76336210D01*
X120983133Y-76269017D01*
X121003348Y-76202135D01*
X121054725Y-76157618D01*
X121112734Y-76130568D01*
X121299139Y-76000047D01*
X121460047Y-75839139D01*
X121590568Y-75652734D01*
X121686739Y-75446496D01*
X121745635Y-75226692D01*
X121765468Y-75000000D01*
X121745635Y-74773308D01*
X121686739Y-74553504D01*
X121590568Y-74347266D01*
X121460047Y-74160861D01*
X121460045Y-74160858D01*
X121299141Y-73999954D01*
X121112734Y-73869432D01*
X121112728Y-73869429D01*
X121054725Y-73842382D01*
X121002285Y-73796210D01*
X120983133Y-73729017D01*
X121003348Y-73662135D01*
X121054725Y-73617618D01*
X121112734Y-73590568D01*
X121299139Y-73460047D01*
X121460047Y-73299139D01*
X121590568Y-73112734D01*
X121686739Y-72906496D01*
X121745635Y-72686692D01*
X121765468Y-72460000D01*
X121745635Y-72233308D01*
X121686739Y-72013504D01*
X121590568Y-71807266D01*
X121460047Y-71620861D01*
X121460045Y-71620858D01*
X121299141Y-71459954D01*
X121112734Y-71329432D01*
X121112728Y-71329429D01*
X121054725Y-71302382D01*
X121002285Y-71256210D01*
X120983133Y-71189017D01*
X121003348Y-71122135D01*
X121054725Y-71077618D01*
X121112734Y-71050568D01*
X121299139Y-70920047D01*
X121460047Y-70759139D01*
X121590568Y-70572734D01*
X121686739Y-70366496D01*
X121745635Y-70146692D01*
X121765468Y-69920000D01*
X121745635Y-69693308D01*
X121686739Y-69473504D01*
X121590568Y-69267266D01*
X121460047Y-69080861D01*
X121460045Y-69080858D01*
X121299141Y-68919954D01*
X121112734Y-68789432D01*
X121112728Y-68789429D01*
X121054725Y-68762382D01*
X121002285Y-68716210D01*
X120983133Y-68649017D01*
X121003348Y-68582135D01*
X121054725Y-68537618D01*
X121112734Y-68510568D01*
X121299139Y-68380047D01*
X121460047Y-68219139D01*
X121590568Y-68032734D01*
X121686739Y-67826496D01*
X121745635Y-67606692D01*
X121765468Y-67380000D01*
X121745635Y-67153308D01*
X121686739Y-66933504D01*
X121590568Y-66727266D01*
X121460047Y-66540861D01*
X121460045Y-66540858D01*
X121299141Y-66379954D01*
X121112734Y-66249432D01*
X121112728Y-66249429D01*
X121054725Y-66222382D01*
X121002285Y-66176210D01*
X120983133Y-66109017D01*
X121003348Y-66042135D01*
X121054725Y-65997618D01*
X121112734Y-65970568D01*
X121299139Y-65840047D01*
X121460047Y-65679139D01*
X121590568Y-65492734D01*
X121686739Y-65286496D01*
X121745635Y-65066692D01*
X121765468Y-64840000D01*
X121745635Y-64613308D01*
X121686739Y-64393504D01*
X121590568Y-64187266D01*
X121460047Y-64000861D01*
X121460045Y-64000858D01*
X121299141Y-63839954D01*
X121112734Y-63709432D01*
X121112728Y-63709429D01*
X121054725Y-63682382D01*
X121002285Y-63636210D01*
X120983133Y-63569017D01*
X121003348Y-63502135D01*
X121054725Y-63457618D01*
X121112734Y-63430568D01*
X121299139Y-63300047D01*
X121460047Y-63139139D01*
X121590568Y-62952734D01*
X121686739Y-62746496D01*
X121745635Y-62526692D01*
X121765468Y-62300000D01*
X121745635Y-62073308D01*
X121686739Y-61853504D01*
X121590568Y-61647266D01*
X121460047Y-61460861D01*
X121460045Y-61460858D01*
X121299141Y-61299954D01*
X121112735Y-61169433D01*
X121112736Y-61169433D01*
X121112734Y-61169432D01*
X121054722Y-61142380D01*
X121002284Y-61096208D01*
X120983133Y-61029014D01*
X121003349Y-60962133D01*
X121054721Y-60917619D01*
X121112734Y-60890568D01*
X121299139Y-60760047D01*
X121460047Y-60599139D01*
X121590568Y-60412734D01*
X121686739Y-60206496D01*
X121745635Y-59986692D01*
X121765468Y-59760000D01*
X121745635Y-59533308D01*
X121686739Y-59313504D01*
X121590568Y-59107266D01*
X121460047Y-58920861D01*
X121460045Y-58920858D01*
X121299141Y-58759954D01*
X121163846Y-58665221D01*
X121112734Y-58629432D01*
X121054722Y-58602380D01*
X121002284Y-58556208D01*
X120983133Y-58489014D01*
X121003349Y-58422133D01*
X121054721Y-58377619D01*
X121112734Y-58350568D01*
X121299139Y-58220047D01*
X121460047Y-58059139D01*
X121590568Y-57872734D01*
X121686739Y-57666496D01*
X121745635Y-57446692D01*
X121765468Y-57220000D01*
X121745635Y-56993308D01*
X121686739Y-56773504D01*
X121590568Y-56567266D01*
X121460047Y-56380861D01*
X121460045Y-56380858D01*
X121299141Y-56219954D01*
X121177902Y-56135063D01*
X121112734Y-56089432D01*
X121054722Y-56062380D01*
X121002284Y-56016208D01*
X120983133Y-55949014D01*
X121003349Y-55882133D01*
X121054721Y-55837619D01*
X121112734Y-55810568D01*
X121299139Y-55680047D01*
X121460047Y-55519139D01*
X121590568Y-55332734D01*
X121686739Y-55126496D01*
X121745635Y-54906692D01*
X121765468Y-54680000D01*
X121745635Y-54453308D01*
X121686739Y-54233504D01*
X121590568Y-54027266D01*
X121492839Y-53887693D01*
X121460045Y-53840858D01*
X121299141Y-53679954D01*
X121112734Y-53549432D01*
X121112732Y-53549431D01*
X121067294Y-53528243D01*
X121054132Y-53522105D01*
X121001694Y-53475934D01*
X120982542Y-53408740D01*
X121002758Y-53341859D01*
X121054134Y-53297341D01*
X121112484Y-53270132D01*
X121298820Y-53139657D01*
X121459657Y-52978820D01*
X121590134Y-52792482D01*
X121686265Y-52586326D01*
X121686269Y-52586317D01*
X121738872Y-52390000D01*
X121073347Y-52390000D01*
X121006308Y-52370315D01*
X120960553Y-52317511D01*
X120950609Y-52248353D01*
X120954369Y-52231067D01*
X120960000Y-52211888D01*
X120960000Y-52068111D01*
X120954369Y-52048933D01*
X120954370Y-51979064D01*
X120992145Y-51920286D01*
X121055701Y-51891262D01*
X121073347Y-51890000D01*
X121738872Y-51890000D01*
X121738872Y-51889999D01*
X121686269Y-51693682D01*
X121686265Y-51693673D01*
X121590134Y-51487517D01*
X121459657Y-51301179D01*
X121298820Y-51140342D01*
X121112482Y-51009865D01*
X121054133Y-50982657D01*
X121001694Y-50936484D01*
X120982542Y-50869291D01*
X121002758Y-50802410D01*
X121054129Y-50757895D01*
X121112734Y-50730568D01*
X121299139Y-50600047D01*
X121460047Y-50439139D01*
X121590568Y-50252734D01*
X121686739Y-50046496D01*
X121745635Y-49826692D01*
X121765468Y-49600000D01*
X121745635Y-49373308D01*
X121686739Y-49153504D01*
X121590568Y-48947266D01*
X121460047Y-48760861D01*
X121460045Y-48760858D01*
X121299141Y-48599954D01*
X121112734Y-48469432D01*
X121112728Y-48469429D01*
X121054725Y-48442382D01*
X121002285Y-48396210D01*
X120983133Y-48329017D01*
X121003348Y-48262135D01*
X121054725Y-48217618D01*
X121055319Y-48217341D01*
X121112734Y-48190568D01*
X121299139Y-48060047D01*
X121460047Y-47899139D01*
X121590568Y-47712734D01*
X121686739Y-47506496D01*
X121745635Y-47286692D01*
X121765468Y-47060000D01*
X121745635Y-46833308D01*
X121686739Y-46613504D01*
X121590568Y-46407266D01*
X121464814Y-46227669D01*
X121460045Y-46220858D01*
X121299143Y-46059956D01*
X121274536Y-46042726D01*
X121230912Y-45988149D01*
X121223719Y-45918650D01*
X121255241Y-45856296D01*
X121315471Y-45820882D01*
X121332404Y-45817861D01*
X121367483Y-45814091D01*
X121502331Y-45763796D01*
X121617546Y-45677546D01*
X121703796Y-45562331D01*
X121754091Y-45427483D01*
X121760500Y-45367873D01*
X121760499Y-43672128D01*
X121754091Y-43612517D01*
X121752237Y-43607547D01*
X121703797Y-43477671D01*
X121703793Y-43477664D01*
X121617547Y-43362455D01*
X121617544Y-43362452D01*
X121502335Y-43276206D01*
X121502328Y-43276202D01*
X121367482Y-43225908D01*
X121367483Y-43225908D01*
X121307883Y-43219501D01*
X121307881Y-43219500D01*
X121307873Y-43219500D01*
X121307864Y-43219500D01*
X119612129Y-43219500D01*
X119612123Y-43219501D01*
X119552516Y-43225908D01*
X119417671Y-43276202D01*
X119417664Y-43276206D01*
X119302455Y-43362452D01*
X119302452Y-43362455D01*
X119216206Y-43477664D01*
X119216202Y-43477671D01*
X119165908Y-43612517D01*
X119159501Y-43672116D01*
X119159501Y-43672123D01*
X119159500Y-43672135D01*
X119159500Y-45367870D01*
X119159501Y-45367876D01*
X119165908Y-45427483D01*
X119216202Y-45562328D01*
X119216206Y-45562335D01*
X119302452Y-45677544D01*
X119302455Y-45677547D01*
X119417664Y-45763793D01*
X119417671Y-45763797D01*
X119462618Y-45780561D01*
X119552517Y-45814091D01*
X119587596Y-45817862D01*
X119652144Y-45844599D01*
X119691993Y-45901991D01*
X119694488Y-45971816D01*
X119658836Y-46031905D01*
X119645464Y-46042725D01*
X119620858Y-46059954D01*
X119459954Y-46220858D01*
X119329432Y-46407265D01*
X119329431Y-46407267D01*
X119233261Y-46613502D01*
X119233258Y-46613511D01*
X119174366Y-46833302D01*
X119174364Y-46833313D01*
X119154532Y-47059998D01*
X119154532Y-47060001D01*
X119174364Y-47286686D01*
X119174366Y-47286697D01*
X119233258Y-47506488D01*
X119233261Y-47506497D01*
X119329431Y-47712732D01*
X119329432Y-47712734D01*
X119459954Y-47899141D01*
X119620858Y-48060045D01*
X119620861Y-48060047D01*
X119807266Y-48190568D01*
X119864681Y-48217341D01*
X119865275Y-48217618D01*
X119917714Y-48263791D01*
X119936866Y-48330984D01*
X119916650Y-48397865D01*
X119865275Y-48442382D01*
X119807267Y-48469431D01*
X119807265Y-48469432D01*
X119620858Y-48599954D01*
X119459954Y-48760858D01*
X119329432Y-48947265D01*
X119329431Y-48947267D01*
X119233261Y-49153502D01*
X119233258Y-49153511D01*
X119174366Y-49373302D01*
X119174364Y-49373313D01*
X119154532Y-49599998D01*
X119154532Y-49600001D01*
X119171075Y-49789096D01*
X119174365Y-49826692D01*
X119197032Y-49911289D01*
X119233258Y-50046488D01*
X119233261Y-50046497D01*
X119329431Y-50252732D01*
X119329432Y-50252734D01*
X119459954Y-50439141D01*
X119620858Y-50600045D01*
X119620861Y-50600047D01*
X119807266Y-50730568D01*
X119865865Y-50757893D01*
X119918305Y-50804065D01*
X119937457Y-50871258D01*
X119917242Y-50938139D01*
X119865867Y-50982657D01*
X119807515Y-51009867D01*
X119621179Y-51140342D01*
X119460342Y-51301179D01*
X119329865Y-51487517D01*
X119233734Y-51693673D01*
X119233730Y-51693682D01*
X119181127Y-51889999D01*
X119181128Y-51890000D01*
X119846653Y-51890000D01*
X119913692Y-51909685D01*
X119959447Y-51962489D01*
X119969391Y-52031647D01*
X119965631Y-52048933D01*
X119960000Y-52068111D01*
X119960000Y-52211888D01*
X119965631Y-52231067D01*
X119965630Y-52300936D01*
X119927855Y-52359714D01*
X119864299Y-52388738D01*
X119846653Y-52390000D01*
X119181128Y-52390000D01*
X119143903Y-52438513D01*
X119142907Y-52437749D01*
X119125688Y-52463188D01*
X119061459Y-52490690D01*
X119027345Y-52490039D01*
X119009874Y-52487272D01*
X119004152Y-52486087D01*
X118959021Y-52474500D01*
X118959019Y-52474500D01*
X118938984Y-52474500D01*
X118919586Y-52472973D01*
X118905853Y-52470798D01*
X118899805Y-52469840D01*
X118899804Y-52469840D01*
X118853416Y-52474225D01*
X118847578Y-52474500D01*
X116425502Y-52474500D01*
X116358463Y-52454815D01*
X116312708Y-52402011D01*
X116302764Y-52332853D01*
X116314502Y-52295228D01*
X116344224Y-52235538D01*
X116344223Y-52235538D01*
X116344229Y-52235528D01*
X116405115Y-52021536D01*
X116425643Y-51800000D01*
X116405115Y-51578464D01*
X116344229Y-51364472D01*
X116344224Y-51364461D01*
X116245061Y-51165316D01*
X116245056Y-51165308D01*
X116127672Y-51009867D01*
X116110981Y-50987764D01*
X116110978Y-50987761D01*
X116110974Y-50987756D01*
X116060961Y-50942163D01*
X116024680Y-50882451D01*
X116020500Y-50850527D01*
X116020500Y-49829805D01*
X116020499Y-49829802D01*
X116019788Y-49826686D01*
X116011203Y-49789076D01*
X116010044Y-49782251D01*
X116005368Y-49740745D01*
X115991574Y-49701324D01*
X115989652Y-49694655D01*
X115980359Y-49653939D01*
X115962245Y-49616326D01*
X115959583Y-49609898D01*
X115945789Y-49570478D01*
X115945561Y-49570115D01*
X115923563Y-49535106D01*
X115920213Y-49529044D01*
X115902091Y-49491413D01*
X115876049Y-49458757D01*
X115872038Y-49453104D01*
X115858017Y-49430790D01*
X115849818Y-49417740D01*
X115704822Y-49272744D01*
X115704819Y-49272742D01*
X114378736Y-47946658D01*
X114348486Y-47897294D01*
X114340341Y-47872227D01*
X114327179Y-47831716D01*
X114327177Y-47831712D01*
X114232534Y-47667785D01*
X114105870Y-47527111D01*
X113952734Y-47415851D01*
X113952729Y-47415848D01*
X113779807Y-47338857D01*
X113779802Y-47338855D01*
X113634001Y-47307865D01*
X113594646Y-47299500D01*
X113405354Y-47299500D01*
X113372897Y-47306398D01*
X113220197Y-47338855D01*
X113220192Y-47338857D01*
X113047270Y-47415848D01*
X113047265Y-47415851D01*
X112894129Y-47527111D01*
X112767466Y-47667785D01*
X112672821Y-47831715D01*
X112672818Y-47831722D01*
X112614327Y-48011740D01*
X112614326Y-48011744D01*
X112594540Y-48200000D01*
X112614326Y-48388256D01*
X112614327Y-48388259D01*
X112672818Y-48568277D01*
X112672821Y-48568284D01*
X112767467Y-48732216D01*
X112894129Y-48872888D01*
X113047265Y-48984148D01*
X113047270Y-48984151D01*
X113215190Y-49058915D01*
X113252435Y-49084513D01*
X114383181Y-50215259D01*
X114416666Y-50276582D01*
X114419500Y-50302940D01*
X114419500Y-50850527D01*
X114399815Y-50917566D01*
X114379039Y-50942163D01*
X114329025Y-50987756D01*
X114329021Y-50987761D01*
X114194943Y-51165308D01*
X114194938Y-51165316D01*
X114095775Y-51364461D01*
X114095770Y-51364474D01*
X114054568Y-51509284D01*
X114017289Y-51568377D01*
X113953979Y-51597934D01*
X113884739Y-51588572D01*
X113847621Y-51563030D01*
X111166771Y-48882180D01*
X111133286Y-48820857D01*
X111138270Y-48751165D01*
X111180142Y-48695232D01*
X111245606Y-48670815D01*
X111254452Y-48670499D01*
X111332871Y-48670499D01*
X111332872Y-48670499D01*
X111392483Y-48664091D01*
X111527331Y-48613796D01*
X111642546Y-48527546D01*
X111728796Y-48412331D01*
X111779091Y-48277483D01*
X111785500Y-48217873D01*
X111785499Y-46422128D01*
X111779091Y-46362517D01*
X111767524Y-46331505D01*
X111728797Y-46227671D01*
X111728793Y-46227664D01*
X111642547Y-46112455D01*
X111642544Y-46112452D01*
X111527335Y-46026206D01*
X111527328Y-46026202D01*
X111392482Y-45975908D01*
X111392483Y-45975908D01*
X111332883Y-45969501D01*
X111332881Y-45969500D01*
X111332873Y-45969500D01*
X111332864Y-45969500D01*
X109537129Y-45969500D01*
X109537123Y-45969501D01*
X109477516Y-45975908D01*
X109342671Y-46026202D01*
X109342664Y-46026206D01*
X109227455Y-46112452D01*
X109227452Y-46112455D01*
X109141206Y-46227664D01*
X109141202Y-46227671D01*
X109090908Y-46362517D01*
X109085902Y-46409083D01*
X109084501Y-46422123D01*
X109084500Y-46422135D01*
X109084500Y-48217870D01*
X109084501Y-48217876D01*
X109090908Y-48277483D01*
X109141202Y-48412328D01*
X109141206Y-48412335D01*
X109227452Y-48527544D01*
X109227455Y-48527547D01*
X109342664Y-48613793D01*
X109342671Y-48613797D01*
X109383138Y-48628890D01*
X109477517Y-48664091D01*
X109537127Y-48670500D01*
X109685500Y-48670499D01*
X109752539Y-48690183D01*
X109798294Y-48742987D01*
X109809500Y-48794499D01*
X109809500Y-48952255D01*
X109807775Y-48967872D01*
X109808061Y-48967899D01*
X109807326Y-48975665D01*
X109809500Y-49044814D01*
X109809500Y-49074343D01*
X109809501Y-49074360D01*
X109810368Y-49081231D01*
X109810826Y-49087050D01*
X109812290Y-49133624D01*
X109812291Y-49133627D01*
X109817880Y-49152867D01*
X109821824Y-49171911D01*
X109824336Y-49191791D01*
X109841490Y-49235119D01*
X109843382Y-49240647D01*
X109856381Y-49285388D01*
X109866580Y-49302634D01*
X109875138Y-49320103D01*
X109882514Y-49338732D01*
X109909898Y-49376423D01*
X109913106Y-49381307D01*
X109936827Y-49421416D01*
X109936833Y-49421424D01*
X109950990Y-49435580D01*
X109963627Y-49450375D01*
X109975406Y-49466587D01*
X110011022Y-49496051D01*
X110011309Y-49496288D01*
X110015620Y-49500210D01*
X112832920Y-52317511D01*
X113770577Y-53255168D01*
X113804062Y-53316491D01*
X113799078Y-53386183D01*
X113757206Y-53442116D01*
X113709604Y-53462727D01*
X113709821Y-53463536D01*
X113704592Y-53464936D01*
X113704592Y-53464937D01*
X113701942Y-53465647D01*
X113476337Y-53526096D01*
X113473968Y-53526959D01*
X113472854Y-53527029D01*
X113471107Y-53527498D01*
X113471012Y-53527146D01*
X113404239Y-53531392D01*
X113343182Y-53497422D01*
X113313766Y-53445371D01*
X113313536Y-53445463D01*
X113312874Y-53443792D01*
X113311449Y-53441270D01*
X113310664Y-53438215D01*
X113310664Y-53438208D01*
X113293501Y-53394859D01*
X113291614Y-53389346D01*
X113278617Y-53344610D01*
X113278616Y-53344608D01*
X113268421Y-53327369D01*
X113259860Y-53309893D01*
X113252486Y-53291269D01*
X113252486Y-53291267D01*
X113237448Y-53270570D01*
X113225083Y-53253550D01*
X113221900Y-53248705D01*
X113198170Y-53208579D01*
X113198165Y-53208573D01*
X113184005Y-53194413D01*
X113171370Y-53179620D01*
X113159593Y-53163412D01*
X113123693Y-53133713D01*
X113119381Y-53129790D01*
X107861818Y-47872227D01*
X107828333Y-47810904D01*
X107825499Y-47784546D01*
X107825499Y-46472129D01*
X107825498Y-46472123D01*
X107819091Y-46412516D01*
X107768797Y-46277671D01*
X107768793Y-46277664D01*
X107682547Y-46162455D01*
X107682544Y-46162452D01*
X107567335Y-46076206D01*
X107567328Y-46076202D01*
X107432482Y-46025908D01*
X107432483Y-46025908D01*
X107372883Y-46019501D01*
X107372881Y-46019500D01*
X107372873Y-46019500D01*
X107372864Y-46019500D01*
X105577129Y-46019500D01*
X105577123Y-46019501D01*
X105517516Y-46025908D01*
X105382671Y-46076202D01*
X105382664Y-46076206D01*
X105267455Y-46162452D01*
X105267452Y-46162455D01*
X105181206Y-46277664D01*
X105181203Y-46277669D01*
X105132189Y-46409083D01*
X105090317Y-46465016D01*
X105024853Y-46489433D01*
X104956580Y-46474581D01*
X104928326Y-46453430D01*
X104806402Y-46331506D01*
X104806395Y-46331501D01*
X104612834Y-46195967D01*
X104612830Y-46195965D01*
X104612828Y-46195964D01*
X104398663Y-46096097D01*
X104398659Y-46096096D01*
X104398655Y-46096094D01*
X104170413Y-46034938D01*
X104170403Y-46034936D01*
X103935001Y-46014341D01*
X103934999Y-46014341D01*
X103699596Y-46034936D01*
X103699586Y-46034938D01*
X103471344Y-46096094D01*
X103471335Y-46096098D01*
X103257171Y-46195964D01*
X103257169Y-46195965D01*
X103063597Y-46331505D01*
X102896505Y-46498597D01*
X102766575Y-46684158D01*
X102711998Y-46727783D01*
X102642500Y-46734977D01*
X102580145Y-46703454D01*
X102563425Y-46684158D01*
X102433494Y-46498597D01*
X102266402Y-46331506D01*
X102266395Y-46331501D01*
X102072834Y-46195967D01*
X102072830Y-46195965D01*
X102072828Y-46195964D01*
X101858663Y-46096097D01*
X101858659Y-46096096D01*
X101858655Y-46096094D01*
X101630413Y-46034938D01*
X101630403Y-46034936D01*
X101395001Y-46014341D01*
X101394999Y-46014341D01*
X101159596Y-46034936D01*
X101159586Y-46034938D01*
X100931344Y-46096094D01*
X100931335Y-46096098D01*
X100717171Y-46195964D01*
X100717169Y-46195965D01*
X100523597Y-46331505D01*
X100356505Y-46498597D01*
X100226575Y-46684158D01*
X100171998Y-46727783D01*
X100102500Y-46734977D01*
X100040145Y-46703454D01*
X100023425Y-46684158D01*
X99893494Y-46498597D01*
X99726402Y-46331506D01*
X99726395Y-46331501D01*
X99532834Y-46195967D01*
X99532830Y-46195965D01*
X99532828Y-46195964D01*
X99318663Y-46096097D01*
X99318659Y-46096096D01*
X99318655Y-46096094D01*
X99090413Y-46034938D01*
X99090403Y-46034936D01*
X98855001Y-46014341D01*
X98854999Y-46014341D01*
X98619596Y-46034936D01*
X98619586Y-46034938D01*
X98391344Y-46096094D01*
X98391335Y-46096098D01*
X98177171Y-46195964D01*
X98177169Y-46195965D01*
X97983597Y-46331505D01*
X97816505Y-46498597D01*
X97680965Y-46692169D01*
X97680964Y-46692171D01*
X97615154Y-46833302D01*
X97584489Y-46899064D01*
X97581098Y-46906335D01*
X97581094Y-46906344D01*
X97519938Y-47134586D01*
X97519936Y-47134596D01*
X97499341Y-47369999D01*
X97499341Y-47370000D01*
X97519936Y-47605403D01*
X97519938Y-47605413D01*
X97581094Y-47833655D01*
X97581096Y-47833659D01*
X97581097Y-47833663D01*
X97611629Y-47899139D01*
X97680965Y-48047830D01*
X97680967Y-48047834D01*
X97689519Y-48060047D01*
X97816505Y-48241401D01*
X97983599Y-48408495D01*
X98031995Y-48442382D01*
X98177165Y-48544032D01*
X98177167Y-48544033D01*
X98177170Y-48544035D01*
X98391337Y-48643903D01*
X98619592Y-48705063D01*
X98807918Y-48721539D01*
X98854999Y-48725659D01*
X98855000Y-48725659D01*
X98855001Y-48725659D01*
X98894234Y-48722226D01*
X99090408Y-48705063D01*
X99190873Y-48678143D01*
X99260721Y-48679806D01*
X99310645Y-48710235D01*
X99338180Y-48737769D01*
X99371666Y-48799092D01*
X99374500Y-48825452D01*
X99374500Y-53325500D01*
X99354815Y-53392539D01*
X99302011Y-53438294D01*
X99250500Y-53449500D01*
X97802129Y-53449500D01*
X97802123Y-53449501D01*
X97742516Y-53455908D01*
X97607671Y-53506202D01*
X97607664Y-53506206D01*
X97492455Y-53592452D01*
X97492452Y-53592455D01*
X97406206Y-53707664D01*
X97406202Y-53707671D01*
X97355908Y-53842517D01*
X97349501Y-53902116D01*
X97349500Y-53902135D01*
X97349500Y-55697870D01*
X94291417Y-55697870D01*
X94295483Y-51800000D01*
X96694357Y-51800000D01*
X96714884Y-52021535D01*
X96714885Y-52021537D01*
X96775769Y-52235523D01*
X96775775Y-52235538D01*
X96874938Y-52434683D01*
X96874943Y-52434691D01*
X97009020Y-52612238D01*
X97173437Y-52762123D01*
X97173439Y-52762125D01*
X97362595Y-52879245D01*
X97362596Y-52879245D01*
X97362599Y-52879247D01*
X97570060Y-52959618D01*
X97788757Y-53000500D01*
X97788759Y-53000500D01*
X98011241Y-53000500D01*
X98011243Y-53000500D01*
X98229940Y-52959618D01*
X98437401Y-52879247D01*
X98626562Y-52762124D01*
X98766282Y-52634751D01*
X98790979Y-52612238D01*
X98807820Y-52589938D01*
X98925058Y-52434689D01*
X99024229Y-52235528D01*
X99085115Y-52021536D01*
X99105643Y-51800000D01*
X99085115Y-51578464D01*
X99024229Y-51364472D01*
X99024224Y-51364461D01*
X98925061Y-51165316D01*
X98925056Y-51165308D01*
X98790979Y-50987761D01*
X98626562Y-50837876D01*
X98626560Y-50837874D01*
X98437404Y-50720754D01*
X98437398Y-50720752D01*
X98229940Y-50640382D01*
X98011243Y-50599500D01*
X97788757Y-50599500D01*
X97570060Y-50640382D01*
X97438864Y-50691207D01*
X97362601Y-50720752D01*
X97362595Y-50720754D01*
X97173439Y-50837874D01*
X97173437Y-50837876D01*
X97009020Y-50987761D01*
X96874943Y-51165308D01*
X96874938Y-51165316D01*
X96775775Y-51364461D01*
X96775769Y-51364476D01*
X96714885Y-51578462D01*
X96714884Y-51578464D01*
X96694357Y-51799999D01*
X96694357Y-51800000D01*
X94295483Y-51800000D01*
X94305027Y-42650000D01*
X97569364Y-42650000D01*
X97626567Y-42863486D01*
X97626570Y-42863492D01*
X97726399Y-43077578D01*
X97861894Y-43271082D01*
X98028917Y-43438105D01*
X98222421Y-43573600D01*
X98436507Y-43673429D01*
X98436516Y-43673433D01*
X98650000Y-43730634D01*
X98650000Y-43012301D01*
X98669685Y-42945262D01*
X98722489Y-42899507D01*
X98791647Y-42889563D01*
X98864237Y-42900000D01*
X98864238Y-42900000D01*
X98935762Y-42900000D01*
X98935763Y-42900000D01*
X99008353Y-42889563D01*
X99077512Y-42899507D01*
X99130315Y-42945262D01*
X99150000Y-43012301D01*
X99150000Y-43730633D01*
X99363483Y-43673433D01*
X99363492Y-43673429D01*
X99577578Y-43573600D01*
X99771082Y-43438105D01*
X99938105Y-43271082D01*
X100068425Y-43084968D01*
X100123002Y-43041344D01*
X100192501Y-43034151D01*
X100254855Y-43065673D01*
X100271575Y-43084968D01*
X100401894Y-43271082D01*
X100568917Y-43438105D01*
X100762421Y-43573600D01*
X100976507Y-43673429D01*
X100976516Y-43673433D01*
X101190000Y-43730634D01*
X101190000Y-43012301D01*
X101209685Y-42945262D01*
X101262489Y-42899507D01*
X101331647Y-42889563D01*
X101404237Y-42900000D01*
X101404238Y-42900000D01*
X101475762Y-42900000D01*
X101475763Y-42900000D01*
X101548353Y-42889563D01*
X101617512Y-42899507D01*
X101670315Y-42945262D01*
X101690000Y-43012301D01*
X101690000Y-43730633D01*
X101903483Y-43673433D01*
X101903492Y-43673429D01*
X102117578Y-43573600D01*
X102311082Y-43438105D01*
X102478105Y-43271082D01*
X102608425Y-43084968D01*
X102663002Y-43041344D01*
X102732501Y-43034151D01*
X102794855Y-43065673D01*
X102811575Y-43084968D01*
X102941894Y-43271082D01*
X103108917Y-43438105D01*
X103302421Y-43573600D01*
X103516507Y-43673429D01*
X103516516Y-43673433D01*
X103730000Y-43730634D01*
X103730000Y-43012301D01*
X103749685Y-42945262D01*
X103802489Y-42899507D01*
X103871647Y-42889563D01*
X103944237Y-42900000D01*
X103944238Y-42900000D01*
X104015762Y-42900000D01*
X104015763Y-42900000D01*
X104088353Y-42889563D01*
X104157512Y-42899507D01*
X104210315Y-42945262D01*
X104230000Y-43012301D01*
X104230000Y-43730633D01*
X104443483Y-43673433D01*
X104443492Y-43673429D01*
X104657578Y-43573600D01*
X104851078Y-43438108D01*
X104973521Y-43315665D01*
X105034844Y-43282180D01*
X105104536Y-43287164D01*
X105160470Y-43329035D01*
X105177385Y-43360013D01*
X105226645Y-43492086D01*
X105226649Y-43492093D01*
X105312809Y-43607187D01*
X105312812Y-43607190D01*
X105427906Y-43693350D01*
X105427913Y-43693354D01*
X105562620Y-43743596D01*
X105562627Y-43743598D01*
X105622155Y-43749999D01*
X105622172Y-43750000D01*
X106270000Y-43750000D01*
X106270000Y-43012301D01*
X106289685Y-42945262D01*
X106342489Y-42899507D01*
X106411647Y-42889563D01*
X106484237Y-42900000D01*
X106484238Y-42900000D01*
X106555762Y-42900000D01*
X106555763Y-42900000D01*
X106628353Y-42889563D01*
X106697512Y-42899507D01*
X106750315Y-42945262D01*
X106770000Y-43012301D01*
X106770000Y-43750000D01*
X107417828Y-43750000D01*
X107417844Y-43749999D01*
X107477372Y-43743598D01*
X107477379Y-43743596D01*
X107612086Y-43693354D01*
X107612093Y-43693350D01*
X107727187Y-43607190D01*
X107727190Y-43607187D01*
X107813350Y-43492093D01*
X107813354Y-43492086D01*
X107863596Y-43357379D01*
X107863598Y-43357372D01*
X107869999Y-43297844D01*
X107870000Y-43297827D01*
X107870000Y-42650000D01*
X109629364Y-42650000D01*
X109686567Y-42863486D01*
X109686570Y-42863492D01*
X109786399Y-43077578D01*
X109921894Y-43271082D01*
X110088917Y-43438105D01*
X110282421Y-43573600D01*
X110496507Y-43673429D01*
X110496516Y-43673433D01*
X110710000Y-43730634D01*
X110710000Y-43012301D01*
X110729685Y-42945262D01*
X110782489Y-42899507D01*
X110851647Y-42889563D01*
X110924237Y-42900000D01*
X110924238Y-42900000D01*
X110995762Y-42900000D01*
X110995763Y-42900000D01*
X111068353Y-42889563D01*
X111137512Y-42899507D01*
X111190315Y-42945262D01*
X111210000Y-43012301D01*
X111210000Y-43730633D01*
X111423483Y-43673433D01*
X111423492Y-43673429D01*
X111637578Y-43573600D01*
X111831078Y-43438108D01*
X111953133Y-43316053D01*
X112014456Y-43282568D01*
X112084148Y-43287552D01*
X112140082Y-43329423D01*
X112156997Y-43360401D01*
X112206202Y-43492328D01*
X112206206Y-43492335D01*
X112292452Y-43607544D01*
X112292455Y-43607547D01*
X112407664Y-43693793D01*
X112407671Y-43693797D01*
X112542517Y-43744091D01*
X112542516Y-43744091D01*
X112549444Y-43744835D01*
X112602127Y-43750500D01*
X114397872Y-43750499D01*
X114457483Y-43744091D01*
X114592331Y-43693796D01*
X114707546Y-43607546D01*
X114793796Y-43492331D01*
X114844091Y-43357483D01*
X114850500Y-43297873D01*
X114850499Y-41502128D01*
X114844091Y-41442517D01*
X114843147Y-41439987D01*
X114793797Y-41307671D01*
X114793793Y-41307664D01*
X114707547Y-41192455D01*
X114707544Y-41192452D01*
X114592335Y-41106206D01*
X114592328Y-41106202D01*
X114457482Y-41055908D01*
X114457483Y-41055908D01*
X114397883Y-41049501D01*
X114397881Y-41049500D01*
X114397873Y-41049500D01*
X114397864Y-41049500D01*
X112602129Y-41049500D01*
X112602123Y-41049501D01*
X112542516Y-41055908D01*
X112407671Y-41106202D01*
X112407664Y-41106206D01*
X112292455Y-41192452D01*
X112292452Y-41192455D01*
X112206206Y-41307664D01*
X112206202Y-41307671D01*
X112156997Y-41439598D01*
X112115126Y-41495532D01*
X112049661Y-41519949D01*
X111981388Y-41505097D01*
X111953134Y-41483946D01*
X111831082Y-41361894D01*
X111637578Y-41226399D01*
X111423492Y-41126570D01*
X111423486Y-41126567D01*
X111210000Y-41069364D01*
X111210000Y-41787698D01*
X111190315Y-41854737D01*
X111137511Y-41900492D01*
X111068355Y-41910436D01*
X110995766Y-41900000D01*
X110995763Y-41900000D01*
X110924237Y-41900000D01*
X110924233Y-41900000D01*
X110851645Y-41910436D01*
X110782487Y-41900492D01*
X110729684Y-41854736D01*
X110710000Y-41787698D01*
X110710000Y-41069364D01*
X110709999Y-41069364D01*
X110496513Y-41126567D01*
X110496507Y-41126570D01*
X110282422Y-41226399D01*
X110282420Y-41226400D01*
X110088926Y-41361886D01*
X110088920Y-41361891D01*
X109921891Y-41528920D01*
X109921886Y-41528926D01*
X109786400Y-41722420D01*
X109786399Y-41722422D01*
X109686570Y-41936507D01*
X109686567Y-41936513D01*
X109629364Y-42149999D01*
X109629364Y-42150000D01*
X110346653Y-42150000D01*
X110413692Y-42169685D01*
X110459447Y-42222489D01*
X110469391Y-42291647D01*
X110465631Y-42308933D01*
X110460000Y-42328111D01*
X110460000Y-42471888D01*
X110465631Y-42491067D01*
X110465630Y-42560936D01*
X110427855Y-42619714D01*
X110364299Y-42648738D01*
X110346653Y-42650000D01*
X109629364Y-42650000D01*
X107870000Y-42650000D01*
X107133347Y-42650000D01*
X107066308Y-42630315D01*
X107020553Y-42577511D01*
X107010609Y-42508353D01*
X107014369Y-42491067D01*
X107020000Y-42471888D01*
X107020000Y-42328111D01*
X107014369Y-42308933D01*
X107014370Y-42239064D01*
X107052145Y-42180286D01*
X107115701Y-42151262D01*
X107133347Y-42150000D01*
X107870000Y-42150000D01*
X107870000Y-41502172D01*
X107869999Y-41502155D01*
X107863598Y-41442627D01*
X107863596Y-41442620D01*
X107813354Y-41307913D01*
X107813350Y-41307906D01*
X107727190Y-41192812D01*
X107727187Y-41192809D01*
X107612093Y-41106649D01*
X107612086Y-41106645D01*
X107477379Y-41056403D01*
X107477372Y-41056401D01*
X107417844Y-41050000D01*
X106770000Y-41050000D01*
X106769999Y-41787698D01*
X106750314Y-41854738D01*
X106697510Y-41900492D01*
X106628353Y-41910436D01*
X106555764Y-41900000D01*
X106555763Y-41900000D01*
X106484237Y-41900000D01*
X106484233Y-41900000D01*
X106411645Y-41910436D01*
X106342487Y-41900492D01*
X106289684Y-41854736D01*
X106270000Y-41787698D01*
X106270000Y-41050000D01*
X105622155Y-41050000D01*
X105562627Y-41056401D01*
X105562620Y-41056403D01*
X105427913Y-41106645D01*
X105427906Y-41106649D01*
X105312812Y-41192809D01*
X105312809Y-41192812D01*
X105226649Y-41307906D01*
X105226646Y-41307911D01*
X105177385Y-41439987D01*
X105135513Y-41495920D01*
X105070049Y-41520337D01*
X105001776Y-41505485D01*
X104973522Y-41484334D01*
X104851082Y-41361894D01*
X104657578Y-41226399D01*
X104443492Y-41126570D01*
X104443486Y-41126567D01*
X104230000Y-41069364D01*
X104230000Y-41787698D01*
X104210315Y-41854737D01*
X104157511Y-41900492D01*
X104088355Y-41910436D01*
X104015766Y-41900000D01*
X104015763Y-41900000D01*
X103944237Y-41900000D01*
X103944233Y-41900000D01*
X103871645Y-41910436D01*
X103802487Y-41900492D01*
X103749684Y-41854736D01*
X103730000Y-41787698D01*
X103730000Y-41069364D01*
X103729999Y-41069364D01*
X103516513Y-41126567D01*
X103516507Y-41126570D01*
X103302422Y-41226399D01*
X103302420Y-41226400D01*
X103108926Y-41361886D01*
X103108920Y-41361891D01*
X102941891Y-41528920D01*
X102941890Y-41528922D01*
X102811575Y-41715031D01*
X102756998Y-41758655D01*
X102687499Y-41765848D01*
X102625145Y-41734326D01*
X102608425Y-41715031D01*
X102478109Y-41528922D01*
X102478108Y-41528920D01*
X102311082Y-41361894D01*
X102117578Y-41226399D01*
X101903492Y-41126570D01*
X101903486Y-41126567D01*
X101690000Y-41069364D01*
X101690000Y-41787698D01*
X101670315Y-41854737D01*
X101617511Y-41900492D01*
X101548355Y-41910436D01*
X101475766Y-41900000D01*
X101475763Y-41900000D01*
X101404237Y-41900000D01*
X101404233Y-41900000D01*
X101331645Y-41910436D01*
X101262487Y-41900492D01*
X101209684Y-41854736D01*
X101190000Y-41787698D01*
X101190000Y-41069364D01*
X101189999Y-41069364D01*
X100976513Y-41126567D01*
X100976507Y-41126570D01*
X100762422Y-41226399D01*
X100762420Y-41226400D01*
X100568926Y-41361886D01*
X100568920Y-41361891D01*
X100401891Y-41528920D01*
X100401890Y-41528922D01*
X100271575Y-41715031D01*
X100216998Y-41758655D01*
X100147499Y-41765848D01*
X100085145Y-41734326D01*
X100068425Y-41715031D01*
X99938109Y-41528922D01*
X99938108Y-41528920D01*
X99771082Y-41361894D01*
X99577578Y-41226399D01*
X99363492Y-41126570D01*
X99363486Y-41126567D01*
X99150000Y-41069364D01*
X99150000Y-41787698D01*
X99130315Y-41854737D01*
X99077511Y-41900492D01*
X99008355Y-41910436D01*
X98935766Y-41900000D01*
X98935763Y-41900000D01*
X98864237Y-41900000D01*
X98864233Y-41900000D01*
X98791645Y-41910436D01*
X98722487Y-41900492D01*
X98669684Y-41854736D01*
X98650000Y-41787698D01*
X98650000Y-41069364D01*
X98649999Y-41069364D01*
X98436513Y-41126567D01*
X98436507Y-41126570D01*
X98222422Y-41226399D01*
X98222420Y-41226400D01*
X98028926Y-41361886D01*
X98028920Y-41361891D01*
X97861891Y-41528920D01*
X97861886Y-41528926D01*
X97726400Y-41722420D01*
X97726399Y-41722422D01*
X97626570Y-41936507D01*
X97626567Y-41936513D01*
X97569364Y-42149999D01*
X97569364Y-42150000D01*
X98286653Y-42150000D01*
X98353692Y-42169685D01*
X98399447Y-42222489D01*
X98409391Y-42291647D01*
X98405631Y-42308933D01*
X98400000Y-42328111D01*
X98400000Y-42471888D01*
X98405631Y-42491067D01*
X98405630Y-42560936D01*
X98367855Y-42619714D01*
X98304299Y-42648738D01*
X98286653Y-42650000D01*
X97569364Y-42650000D01*
X94305027Y-42650000D01*
X94305768Y-41939519D01*
X94310162Y-41924610D01*
X94307765Y-41910535D01*
X94307595Y-41908282D01*
X94305730Y-41898583D01*
X94298293Y-41854738D01*
X94278081Y-41735572D01*
X94222081Y-41539631D01*
X94221297Y-41536599D01*
X94204327Y-41463375D01*
X94195711Y-41447363D01*
X94186971Y-41416784D01*
X94186970Y-41416780D01*
X94142263Y-41307664D01*
X94094151Y-41190236D01*
X94074185Y-41135103D01*
X94067774Y-41125860D01*
X94061265Y-41109975D01*
X93918132Y-40847561D01*
X93906248Y-40823999D01*
X93904325Y-40821801D01*
X93904304Y-40821815D01*
X93904224Y-40821686D01*
X93903676Y-40821060D01*
X93902499Y-40818902D01*
X93712610Y-40547111D01*
X93577729Y-40393421D01*
X93493911Y-40297914D01*
X93249069Y-40074348D01*
X92981070Y-39879141D01*
X92981063Y-39879137D01*
X92981054Y-39879131D01*
X92693195Y-39714679D01*
X92693180Y-39714672D01*
X92388908Y-39582946D01*
X92388910Y-39582946D01*
X92386545Y-39582220D01*
X92386046Y-39581890D01*
X92385695Y-39581761D01*
X92385725Y-39581678D01*
X92383950Y-39580505D01*
X92357692Y-39573355D01*
X92071979Y-39485575D01*
X92057559Y-39482838D01*
X92055105Y-39482372D01*
X92047118Y-39478283D01*
X91986723Y-39469392D01*
X91746241Y-39423742D01*
X91746238Y-39423741D01*
X91746234Y-39423741D01*
X91746221Y-39423739D01*
X91714527Y-39421290D01*
X91700991Y-39416152D01*
X91621959Y-39414059D01*
X91618824Y-39413896D01*
X91415677Y-39398199D01*
X91415672Y-39398199D01*
X91415670Y-39398199D01*
X91387644Y-39399131D01*
X91252445Y-39403626D01*
X91247574Y-39403597D01*
X90822600Y-39384327D01*
X90817004Y-39383819D01*
X90486289Y-39338585D01*
X90393041Y-39325577D01*
X90387677Y-39324587D01*
X90105820Y-39259614D01*
X89969425Y-39227535D01*
X89964281Y-39226088D01*
X89708044Y-39141976D01*
X89556549Y-39091199D01*
X89551661Y-39089328D01*
X89314047Y-38986673D01*
X89157888Y-38917723D01*
X89153290Y-38915461D01*
X88931944Y-38794992D01*
X88776737Y-38708543D01*
X88772460Y-38705928D01*
X88625147Y-38607497D01*
X88566806Y-38568514D01*
X88416334Y-38465438D01*
X88412407Y-38462515D01*
X88390269Y-38444625D01*
X88222700Y-38309209D01*
X88079653Y-38190424D01*
X88076087Y-38187223D01*
X88020531Y-38133321D01*
X87902880Y-38019171D01*
X87769512Y-37885803D01*
X87766341Y-37882383D01*
X87610335Y-37700836D01*
X87488535Y-37554158D01*
X87485746Y-37550535D01*
X87377026Y-37398009D01*
X87347727Y-37356904D01*
X87261247Y-37230659D01*
X87239026Y-37198220D01*
X87236640Y-37194451D01*
X87117366Y-36990245D01*
X87023088Y-36820983D01*
X87021127Y-36817152D01*
X86921257Y-36603915D01*
X86842533Y-36425624D01*
X86840974Y-36421740D01*
X86761098Y-36201128D01*
X86698867Y-36015455D01*
X86697692Y-36011516D01*
X86638294Y-35785290D01*
X86593277Y-35593890D01*
X86592491Y-35589981D01*
X86553905Y-35359875D01*
X86526648Y-35164474D01*
X86526230Y-35160586D01*
X86517153Y-35040623D01*
X86508664Y-34928432D01*
X86501857Y-34781187D01*
X89549500Y-34781187D01*
X89557472Y-34834072D01*
X89588604Y-35040615D01*
X89588605Y-35040617D01*
X89588606Y-35040623D01*
X89665938Y-35291326D01*
X89779767Y-35527696D01*
X89779768Y-35527697D01*
X89779770Y-35527700D01*
X89779772Y-35527704D01*
X89921463Y-35735526D01*
X89927567Y-35744479D01*
X90106014Y-35936801D01*
X90106018Y-35936804D01*
X90106019Y-35936805D01*
X90311143Y-36100386D01*
X90538357Y-36231568D01*
X90782584Y-36327420D01*
X91038370Y-36385802D01*
X91038376Y-36385802D01*
X91038379Y-36385803D01*
X91234500Y-36400500D01*
X91234506Y-36400500D01*
X91365500Y-36400500D01*
X91561620Y-36385803D01*
X91561622Y-36385802D01*
X91561630Y-36385802D01*
X91817416Y-36327420D01*
X92061643Y-36231568D01*
X92288857Y-36100386D01*
X92493981Y-35936805D01*
X92672433Y-35744479D01*
X92820228Y-35527704D01*
X92934063Y-35291323D01*
X93011396Y-35040615D01*
X93050500Y-34781182D01*
X93050500Y-34518818D01*
X93011396Y-34259385D01*
X92934063Y-34008677D01*
X92875124Y-33886289D01*
X92820232Y-33772303D01*
X92820231Y-33772302D01*
X92820230Y-33772301D01*
X92820228Y-33772296D01*
X92672433Y-33555521D01*
X92633163Y-33513198D01*
X92493985Y-33363198D01*
X92418229Y-33302785D01*
X92288857Y-33199614D01*
X92061643Y-33068432D01*
X91817416Y-32972580D01*
X91817411Y-32972578D01*
X91817402Y-32972576D01*
X91599818Y-32922914D01*
X91561630Y-32914198D01*
X91561629Y-32914197D01*
X91561625Y-32914197D01*
X91561620Y-32914196D01*
X91365500Y-32899500D01*
X91365494Y-32899500D01*
X91234506Y-32899500D01*
X91234500Y-32899500D01*
X91038379Y-32914196D01*
X91038374Y-32914197D01*
X90782597Y-32972576D01*
X90782578Y-32972582D01*
X90538356Y-33068432D01*
X90311143Y-33199614D01*
X90106014Y-33363198D01*
X89927567Y-33555520D01*
X89779768Y-33772302D01*
X89779767Y-33772303D01*
X89665938Y-34008673D01*
X89588606Y-34259376D01*
X89588605Y-34259381D01*
X89588604Y-34259385D01*
X89573853Y-34357247D01*
X89549500Y-34518812D01*
X89549500Y-34781187D01*
X86501857Y-34781187D01*
X86499526Y-34730763D01*
X86499466Y-34727000D01*
X86502977Y-34494577D01*
X86512140Y-34296409D01*
X86512420Y-34292729D01*
X86512936Y-34287870D01*
X86536911Y-34061939D01*
X86564387Y-33864980D01*
X86564957Y-33861604D01*
X86610196Y-33634170D01*
X86655809Y-33440239D01*
X86656675Y-33436970D01*
X86722244Y-33214793D01*
X86785650Y-33025616D01*
X86786767Y-33022563D01*
X86872109Y-32807392D01*
X86876220Y-32798083D01*
X86952825Y-32624589D01*
X86954150Y-32621789D01*
X87058572Y-32415309D01*
X87155889Y-32240592D01*
X87157457Y-32237938D01*
X87280083Y-32041842D01*
X87393190Y-31876728D01*
X87394902Y-31874355D01*
X87534778Y-31690151D01*
X87662724Y-31536073D01*
X87664569Y-31533955D01*
X87819646Y-31364147D01*
X87821478Y-31362230D01*
X87962230Y-31221478D01*
X87964147Y-31219646D01*
X88133955Y-31064569D01*
X88136073Y-31062724D01*
X88290151Y-30934778D01*
X88474355Y-30794902D01*
X88476728Y-30793190D01*
X88641842Y-30680083D01*
X88837938Y-30557457D01*
X88840592Y-30555889D01*
X89015309Y-30458572D01*
X89221789Y-30354150D01*
X89224589Y-30352825D01*
X89407377Y-30272115D01*
X89622563Y-30186767D01*
X89625616Y-30185650D01*
X89814793Y-30122244D01*
X90036970Y-30056675D01*
X90040239Y-30055809D01*
X90234169Y-30010197D01*
X90461604Y-29964957D01*
X90464980Y-29964387D01*
X90661939Y-29936911D01*
X90892728Y-29912420D01*
X90896409Y-29912140D01*
X90927222Y-29910715D01*
X91094577Y-29902977D01*
X91327000Y-29899466D01*
X91330763Y-29899526D01*
G37*
%TD.AperFunction*%
%TD*%
M02*
