M48
; DRILL file {KiCad 7.0.6} date Sat 30 Sep 2023 04:03:35 PM CEST
; FORMAT={-:-/ absolute / metric / decimal}
; #@! TF.CreationDate,2023-09-30T16:03:35+02:00
; #@! TF.GenerationSoftware,Kicad,Pcbnew,7.0.6
; #@! TF.FileFunction,Plated,1,2,PTH
FMAT,2
METRIC
; #@! TA.AperFunction,Plated,PTH,ViaDrill
T1C0.400
; #@! TA.AperFunction,Plated,PTH,ComponentDrill
T2C0.600
; #@! TA.AperFunction,Plated,PTH,ComponentDrill
T3C0.700
; #@! TA.AperFunction,Plated,PTH,ComponentDrill
T4C0.750
; #@! TA.AperFunction,Plated,PTH,ComponentDrill
T5C0.900
; #@! TA.AperFunction,Plated,PTH,ComponentDrill
T6C1.000
%
G90
G05
T1
X87.1Y-76.1
X87.8Y-90.4
X88.8Y-56.7
X88.8Y-81.1
X93.5Y-50.1
X93.9Y-66.1
X94.1Y-61.4
X94.4Y-71.0
X95.0Y-76.5
X97.4Y-66.1
X97.9Y-80.0
X99.4Y-59.5
X99.7Y-68.6
X100.1Y-54.9
X100.2Y-70.9
X101.4Y-62.3
X101.8Y-50.4
X102.5Y-72.4
X103.9Y-73.9
X106.4Y-80.7
X107.1Y-90.3
X107.6Y-72.0
T2
X99.444Y-76.222
X100.944Y-76.222
X104.944Y-76.122
X106.444Y-76.122
T3
X88.147Y-58.922
X88.247Y-63.822
X88.357Y-68.622
X88.387Y-78.842
X88.387Y-83.922
X88.457Y-73.722
X95.767Y-58.922
X95.867Y-63.822
X95.977Y-68.622
X96.007Y-78.842
X96.007Y-83.922
X96.077Y-73.722
T4
X104.027Y-68.722
X104.127Y-60.622
X105.297Y-67.452
X105.397Y-59.352
X106.567Y-68.722
X106.667Y-60.622
T5
X88.26Y-51.4
X90.8Y-51.4
X104.467Y-51.222
X107.007Y-51.222
T6
X103.592Y-83.222
X106.132Y-83.222
T0
M30
