%TF.GenerationSoftware,KiCad,Pcbnew,7.0.6*%
%TF.CreationDate,2023-09-30T16:03:38+02:00*%
%TF.ProjectId,bc546b-astable-multivibrator,62633534-3662-42d6-9173-7461626c652d,0*%
%TF.SameCoordinates,Original*%
%TF.FileFunction,Drillmap*%
%TF.FilePolarity,Positive*%
%FSLAX45Y45*%
G04 Gerber Fmt 4.5, Leading zero omitted, Abs format (unit mm)*
G04 Created by KiCad (PCBNEW 7.0.6) date 2023-09-30 16:03:38*
%MOMM*%
%LPD*%
G01*
G04 APERTURE LIST*
%ADD10C,0.100000*%
%ADD11C,0.200000*%
%ADD12C,0.320000*%
G04 APERTURE END LIST*
D10*
X8624498Y-5378804D02*
G75*
G03*
X8370757Y-5069534I-413738J-80726D01*
G01*
X8310016Y-8657558D02*
G75*
G03*
X8617054Y-8405349I-80746J411298D01*
G01*
X10734498Y-9308804D02*
G75*
G03*
X10480757Y-8999534I-413738J-80726D01*
G01*
X10734499Y-9308804D02*
G75*
G03*
X11283337Y-8643354I512152J136652D01*
G01*
X8822907Y-4382883D02*
G75*
G03*
X9076651Y-4692152I413743J80733D01*
G01*
X8617054Y-8405349D02*
X8624499Y-5378804D01*
X10943475Y-8419002D02*
G75*
G03*
X11283337Y-8643354I256525J19002D01*
G01*
X9076651Y-4692152D02*
X10430000Y-4690000D01*
X11246651Y-5036749D02*
G75*
G03*
X10739270Y-4436258I-1J514599D01*
G01*
X10480757Y-8999534D02*
X9123303Y-9004304D01*
X8822675Y-4382943D02*
G75*
G03*
X8370757Y-5069534I-536024J-139209D01*
G01*
X9123304Y-9004309D02*
G75*
G03*
X8814033Y-9258046I80726J-413741D01*
G01*
X10430000Y-4690001D02*
G75*
G03*
X10739270Y-4436258I-80730J413741D01*
G01*
X11246652Y-5036758D02*
G75*
G03*
X10928445Y-5289856I67378J-411292D01*
G01*
X10928445Y-5289856D02*
X10943475Y-8419002D01*
X8310016Y-8657558D02*
G75*
G03*
X8814033Y-9258046I-3366J-514592D01*
G01*
D11*
D12*
X8126651Y-4382152D02*
X8446651Y-4702152D01*
X8446651Y-4382152D02*
X8126651Y-4702152D01*
X8156651Y-9022152D02*
X8476651Y-9342152D01*
X8476651Y-9022152D02*
X8156651Y-9342152D01*
X11086651Y-4372152D02*
X11406651Y-4692152D01*
X11406651Y-4372152D02*
X11086651Y-4692152D01*
X11086651Y-9012152D02*
X11406651Y-9332152D01*
X11406651Y-9012152D02*
X11086651Y-9332152D01*
D11*
X7988622Y-10018705D02*
X7988622Y-9818705D01*
X7988622Y-9818705D02*
X8036241Y-9818705D01*
X8036241Y-9818705D02*
X8064813Y-9828229D01*
X8064813Y-9828229D02*
X8083860Y-9847277D01*
X8083860Y-9847277D02*
X8093384Y-9866324D01*
X8093384Y-9866324D02*
X8102908Y-9904419D01*
X8102908Y-9904419D02*
X8102908Y-9932991D01*
X8102908Y-9932991D02*
X8093384Y-9971086D01*
X8093384Y-9971086D02*
X8083860Y-9990134D01*
X8083860Y-9990134D02*
X8064813Y-10009181D01*
X8064813Y-10009181D02*
X8036241Y-10018705D01*
X8036241Y-10018705D02*
X7988622Y-10018705D01*
X8188622Y-10018705D02*
X8188622Y-9885372D01*
X8188622Y-9923467D02*
X8198146Y-9904419D01*
X8198146Y-9904419D02*
X8207670Y-9894896D01*
X8207670Y-9894896D02*
X8226717Y-9885372D01*
X8226717Y-9885372D02*
X8245765Y-9885372D01*
X8312432Y-10018705D02*
X8312432Y-9885372D01*
X8312432Y-9818705D02*
X8302908Y-9828229D01*
X8302908Y-9828229D02*
X8312432Y-9837753D01*
X8312432Y-9837753D02*
X8321955Y-9828229D01*
X8321955Y-9828229D02*
X8312432Y-9818705D01*
X8312432Y-9818705D02*
X8312432Y-9837753D01*
X8436241Y-10018705D02*
X8417194Y-10009181D01*
X8417194Y-10009181D02*
X8407670Y-9990134D01*
X8407670Y-9990134D02*
X8407670Y-9818705D01*
X8541003Y-10018705D02*
X8521955Y-10009181D01*
X8521955Y-10009181D02*
X8512432Y-9990134D01*
X8512432Y-9990134D02*
X8512432Y-9818705D01*
X8769575Y-10018705D02*
X8769575Y-9818705D01*
X8769575Y-9818705D02*
X8836241Y-9961562D01*
X8836241Y-9961562D02*
X8902908Y-9818705D01*
X8902908Y-9818705D02*
X8902908Y-10018705D01*
X9083860Y-10018705D02*
X9083860Y-9913943D01*
X9083860Y-9913943D02*
X9074336Y-9894896D01*
X9074336Y-9894896D02*
X9055289Y-9885372D01*
X9055289Y-9885372D02*
X9017194Y-9885372D01*
X9017194Y-9885372D02*
X8998146Y-9894896D01*
X9083860Y-10009181D02*
X9064813Y-10018705D01*
X9064813Y-10018705D02*
X9017194Y-10018705D01*
X9017194Y-10018705D02*
X8998146Y-10009181D01*
X8998146Y-10009181D02*
X8988622Y-9990134D01*
X8988622Y-9990134D02*
X8988622Y-9971086D01*
X8988622Y-9971086D02*
X8998146Y-9952038D01*
X8998146Y-9952038D02*
X9017194Y-9942515D01*
X9017194Y-9942515D02*
X9064813Y-9942515D01*
X9064813Y-9942515D02*
X9083860Y-9932991D01*
X9179098Y-9885372D02*
X9179098Y-10085372D01*
X9179098Y-9894896D02*
X9198146Y-9885372D01*
X9198146Y-9885372D02*
X9236241Y-9885372D01*
X9236241Y-9885372D02*
X9255289Y-9894896D01*
X9255289Y-9894896D02*
X9264813Y-9904419D01*
X9264813Y-9904419D02*
X9274336Y-9923467D01*
X9274336Y-9923467D02*
X9274336Y-9980610D01*
X9274336Y-9980610D02*
X9264813Y-9999657D01*
X9264813Y-9999657D02*
X9255289Y-10009181D01*
X9255289Y-10009181D02*
X9236241Y-10018705D01*
X9236241Y-10018705D02*
X9198146Y-10018705D01*
X9198146Y-10018705D02*
X9179098Y-10009181D01*
X9360051Y-9999657D02*
X9369575Y-10009181D01*
X9369575Y-10009181D02*
X9360051Y-10018705D01*
X9360051Y-10018705D02*
X9350527Y-10009181D01*
X9350527Y-10009181D02*
X9360051Y-9999657D01*
X9360051Y-9999657D02*
X9360051Y-10018705D01*
X9360051Y-9894896D02*
X9369575Y-9904419D01*
X9369575Y-9904419D02*
X9360051Y-9913943D01*
X9360051Y-9913943D02*
X9350527Y-9904419D01*
X9350527Y-9904419D02*
X9360051Y-9894896D01*
X9360051Y-9894896D02*
X9360051Y-9913943D01*
X7527845Y-10247221D02*
X7727845Y-10447221D01*
X7727845Y-10247221D02*
X7527845Y-10447221D01*
X7969574Y-10238705D02*
X8093384Y-10238705D01*
X8093384Y-10238705D02*
X8026717Y-10314896D01*
X8026717Y-10314896D02*
X8055289Y-10314896D01*
X8055289Y-10314896D02*
X8074336Y-10324419D01*
X8074336Y-10324419D02*
X8083860Y-10333943D01*
X8083860Y-10333943D02*
X8093384Y-10352991D01*
X8093384Y-10352991D02*
X8093384Y-10400610D01*
X8093384Y-10400610D02*
X8083860Y-10419657D01*
X8083860Y-10419657D02*
X8074336Y-10429181D01*
X8074336Y-10429181D02*
X8055289Y-10438705D01*
X8055289Y-10438705D02*
X7998146Y-10438705D01*
X7998146Y-10438705D02*
X7979098Y-10429181D01*
X7979098Y-10429181D02*
X7969574Y-10419657D01*
X8179098Y-10419657D02*
X8188622Y-10429181D01*
X8188622Y-10429181D02*
X8179098Y-10438705D01*
X8179098Y-10438705D02*
X8169574Y-10429181D01*
X8169574Y-10429181D02*
X8179098Y-10419657D01*
X8179098Y-10419657D02*
X8179098Y-10438705D01*
X8264813Y-10257753D02*
X8274336Y-10248229D01*
X8274336Y-10248229D02*
X8293384Y-10238705D01*
X8293384Y-10238705D02*
X8341003Y-10238705D01*
X8341003Y-10238705D02*
X8360051Y-10248229D01*
X8360051Y-10248229D02*
X8369574Y-10257753D01*
X8369574Y-10257753D02*
X8379098Y-10276800D01*
X8379098Y-10276800D02*
X8379098Y-10295848D01*
X8379098Y-10295848D02*
X8369574Y-10324419D01*
X8369574Y-10324419D02*
X8255289Y-10438705D01*
X8255289Y-10438705D02*
X8379098Y-10438705D01*
X8502908Y-10238705D02*
X8521956Y-10238705D01*
X8521956Y-10238705D02*
X8541003Y-10248229D01*
X8541003Y-10248229D02*
X8550527Y-10257753D01*
X8550527Y-10257753D02*
X8560051Y-10276800D01*
X8560051Y-10276800D02*
X8569575Y-10314896D01*
X8569575Y-10314896D02*
X8569575Y-10362515D01*
X8569575Y-10362515D02*
X8560051Y-10400610D01*
X8560051Y-10400610D02*
X8550527Y-10419657D01*
X8550527Y-10419657D02*
X8541003Y-10429181D01*
X8541003Y-10429181D02*
X8521956Y-10438705D01*
X8521956Y-10438705D02*
X8502908Y-10438705D01*
X8502908Y-10438705D02*
X8483860Y-10429181D01*
X8483860Y-10429181D02*
X8474336Y-10419657D01*
X8474336Y-10419657D02*
X8464813Y-10400610D01*
X8464813Y-10400610D02*
X8455289Y-10362515D01*
X8455289Y-10362515D02*
X8455289Y-10314896D01*
X8455289Y-10314896D02*
X8464813Y-10276800D01*
X8464813Y-10276800D02*
X8474336Y-10257753D01*
X8474336Y-10257753D02*
X8483860Y-10248229D01*
X8483860Y-10248229D02*
X8502908Y-10238705D01*
X8693384Y-10238705D02*
X8712432Y-10238705D01*
X8712432Y-10238705D02*
X8731479Y-10248229D01*
X8731479Y-10248229D02*
X8741003Y-10257753D01*
X8741003Y-10257753D02*
X8750527Y-10276800D01*
X8750527Y-10276800D02*
X8760051Y-10314896D01*
X8760051Y-10314896D02*
X8760051Y-10362515D01*
X8760051Y-10362515D02*
X8750527Y-10400610D01*
X8750527Y-10400610D02*
X8741003Y-10419657D01*
X8741003Y-10419657D02*
X8731479Y-10429181D01*
X8731479Y-10429181D02*
X8712432Y-10438705D01*
X8712432Y-10438705D02*
X8693384Y-10438705D01*
X8693384Y-10438705D02*
X8674336Y-10429181D01*
X8674336Y-10429181D02*
X8664813Y-10419657D01*
X8664813Y-10419657D02*
X8655289Y-10400610D01*
X8655289Y-10400610D02*
X8645765Y-10362515D01*
X8645765Y-10362515D02*
X8645765Y-10314896D01*
X8645765Y-10314896D02*
X8655289Y-10276800D01*
X8655289Y-10276800D02*
X8664813Y-10257753D01*
X8664813Y-10257753D02*
X8674336Y-10248229D01*
X8674336Y-10248229D02*
X8693384Y-10238705D01*
X8845765Y-10438705D02*
X8845765Y-10305372D01*
X8845765Y-10324419D02*
X8855289Y-10314896D01*
X8855289Y-10314896D02*
X8874336Y-10305372D01*
X8874336Y-10305372D02*
X8902908Y-10305372D01*
X8902908Y-10305372D02*
X8921956Y-10314896D01*
X8921956Y-10314896D02*
X8931479Y-10333943D01*
X8931479Y-10333943D02*
X8931479Y-10438705D01*
X8931479Y-10333943D02*
X8941003Y-10314896D01*
X8941003Y-10314896D02*
X8960051Y-10305372D01*
X8960051Y-10305372D02*
X8988622Y-10305372D01*
X8988622Y-10305372D02*
X9007670Y-10314896D01*
X9007670Y-10314896D02*
X9017194Y-10333943D01*
X9017194Y-10333943D02*
X9017194Y-10438705D01*
X9112432Y-10438705D02*
X9112432Y-10305372D01*
X9112432Y-10324419D02*
X9121956Y-10314896D01*
X9121956Y-10314896D02*
X9141003Y-10305372D01*
X9141003Y-10305372D02*
X9169575Y-10305372D01*
X9169575Y-10305372D02*
X9188622Y-10314896D01*
X9188622Y-10314896D02*
X9198146Y-10333943D01*
X9198146Y-10333943D02*
X9198146Y-10438705D01*
X9198146Y-10333943D02*
X9207670Y-10314896D01*
X9207670Y-10314896D02*
X9226717Y-10305372D01*
X9226717Y-10305372D02*
X9255289Y-10305372D01*
X9255289Y-10305372D02*
X9274337Y-10314896D01*
X9274337Y-10314896D02*
X9283860Y-10333943D01*
X9283860Y-10333943D02*
X9283860Y-10438705D01*
X9674337Y-10229181D02*
X9502908Y-10486324D01*
X9931479Y-10238705D02*
X9950527Y-10238705D01*
X9950527Y-10238705D02*
X9969575Y-10248229D01*
X9969575Y-10248229D02*
X9979099Y-10257753D01*
X9979099Y-10257753D02*
X9988622Y-10276800D01*
X9988622Y-10276800D02*
X9998146Y-10314896D01*
X9998146Y-10314896D02*
X9998146Y-10362515D01*
X9998146Y-10362515D02*
X9988622Y-10400610D01*
X9988622Y-10400610D02*
X9979099Y-10419657D01*
X9979099Y-10419657D02*
X9969575Y-10429181D01*
X9969575Y-10429181D02*
X9950527Y-10438705D01*
X9950527Y-10438705D02*
X9931479Y-10438705D01*
X9931479Y-10438705D02*
X9912432Y-10429181D01*
X9912432Y-10429181D02*
X9902908Y-10419657D01*
X9902908Y-10419657D02*
X9893384Y-10400610D01*
X9893384Y-10400610D02*
X9883860Y-10362515D01*
X9883860Y-10362515D02*
X9883860Y-10314896D01*
X9883860Y-10314896D02*
X9893384Y-10276800D01*
X9893384Y-10276800D02*
X9902908Y-10257753D01*
X9902908Y-10257753D02*
X9912432Y-10248229D01*
X9912432Y-10248229D02*
X9931479Y-10238705D01*
X10083860Y-10419657D02*
X10093384Y-10429181D01*
X10093384Y-10429181D02*
X10083860Y-10438705D01*
X10083860Y-10438705D02*
X10074337Y-10429181D01*
X10074337Y-10429181D02*
X10083860Y-10419657D01*
X10083860Y-10419657D02*
X10083860Y-10438705D01*
X10283860Y-10438705D02*
X10169575Y-10438705D01*
X10226718Y-10438705D02*
X10226718Y-10238705D01*
X10226718Y-10238705D02*
X10207670Y-10267277D01*
X10207670Y-10267277D02*
X10188622Y-10286324D01*
X10188622Y-10286324D02*
X10169575Y-10295848D01*
X10360051Y-10257753D02*
X10369575Y-10248229D01*
X10369575Y-10248229D02*
X10388622Y-10238705D01*
X10388622Y-10238705D02*
X10436241Y-10238705D01*
X10436241Y-10238705D02*
X10455289Y-10248229D01*
X10455289Y-10248229D02*
X10464813Y-10257753D01*
X10464813Y-10257753D02*
X10474337Y-10276800D01*
X10474337Y-10276800D02*
X10474337Y-10295848D01*
X10474337Y-10295848D02*
X10464813Y-10324419D01*
X10464813Y-10324419D02*
X10350527Y-10438705D01*
X10350527Y-10438705D02*
X10474337Y-10438705D01*
X10645765Y-10238705D02*
X10607670Y-10238705D01*
X10607670Y-10238705D02*
X10588622Y-10248229D01*
X10588622Y-10248229D02*
X10579099Y-10257753D01*
X10579099Y-10257753D02*
X10560051Y-10286324D01*
X10560051Y-10286324D02*
X10550527Y-10324419D01*
X10550527Y-10324419D02*
X10550527Y-10400610D01*
X10550527Y-10400610D02*
X10560051Y-10419657D01*
X10560051Y-10419657D02*
X10569575Y-10429181D01*
X10569575Y-10429181D02*
X10588622Y-10438705D01*
X10588622Y-10438705D02*
X10626718Y-10438705D01*
X10626718Y-10438705D02*
X10645765Y-10429181D01*
X10645765Y-10429181D02*
X10655289Y-10419657D01*
X10655289Y-10419657D02*
X10664813Y-10400610D01*
X10664813Y-10400610D02*
X10664813Y-10352991D01*
X10664813Y-10352991D02*
X10655289Y-10333943D01*
X10655289Y-10333943D02*
X10645765Y-10324419D01*
X10645765Y-10324419D02*
X10626718Y-10314896D01*
X10626718Y-10314896D02*
X10588622Y-10314896D01*
X10588622Y-10314896D02*
X10569575Y-10324419D01*
X10569575Y-10324419D02*
X10560051Y-10333943D01*
X10560051Y-10333943D02*
X10550527Y-10352991D01*
X10788622Y-10238705D02*
X10807670Y-10238705D01*
X10807670Y-10238705D02*
X10826718Y-10248229D01*
X10826718Y-10248229D02*
X10836241Y-10257753D01*
X10836241Y-10257753D02*
X10845765Y-10276800D01*
X10845765Y-10276800D02*
X10855289Y-10314896D01*
X10855289Y-10314896D02*
X10855289Y-10362515D01*
X10855289Y-10362515D02*
X10845765Y-10400610D01*
X10845765Y-10400610D02*
X10836241Y-10419657D01*
X10836241Y-10419657D02*
X10826718Y-10429181D01*
X10826718Y-10429181D02*
X10807670Y-10438705D01*
X10807670Y-10438705D02*
X10788622Y-10438705D01*
X10788622Y-10438705D02*
X10769575Y-10429181D01*
X10769575Y-10429181D02*
X10760051Y-10419657D01*
X10760051Y-10419657D02*
X10750527Y-10400610D01*
X10750527Y-10400610D02*
X10741003Y-10362515D01*
X10741003Y-10362515D02*
X10741003Y-10314896D01*
X10741003Y-10314896D02*
X10750527Y-10276800D01*
X10750527Y-10276800D02*
X10760051Y-10257753D01*
X10760051Y-10257753D02*
X10769575Y-10248229D01*
X10769575Y-10248229D02*
X10788622Y-10238705D01*
X10931480Y-10238705D02*
X10931480Y-10276800D01*
X11007670Y-10238705D02*
X11007670Y-10276800D01*
X11302908Y-10514896D02*
X11293384Y-10505372D01*
X11293384Y-10505372D02*
X11274337Y-10476800D01*
X11274337Y-10476800D02*
X11264813Y-10457753D01*
X11264813Y-10457753D02*
X11255289Y-10429181D01*
X11255289Y-10429181D02*
X11245765Y-10381562D01*
X11245765Y-10381562D02*
X11245765Y-10343467D01*
X11245765Y-10343467D02*
X11255289Y-10295848D01*
X11255289Y-10295848D02*
X11264813Y-10267277D01*
X11264813Y-10267277D02*
X11274337Y-10248229D01*
X11274337Y-10248229D02*
X11293384Y-10219657D01*
X11293384Y-10219657D02*
X11302908Y-10210134D01*
X11464813Y-10305372D02*
X11464813Y-10438705D01*
X11417194Y-10229181D02*
X11369575Y-10372038D01*
X11369575Y-10372038D02*
X11493384Y-10372038D01*
X11721956Y-10438705D02*
X11721956Y-10238705D01*
X11807670Y-10438705D02*
X11807670Y-10333943D01*
X11807670Y-10333943D02*
X11798146Y-10314896D01*
X11798146Y-10314896D02*
X11779099Y-10305372D01*
X11779099Y-10305372D02*
X11750527Y-10305372D01*
X11750527Y-10305372D02*
X11731480Y-10314896D01*
X11731480Y-10314896D02*
X11721956Y-10324419D01*
X11931480Y-10438705D02*
X11912432Y-10429181D01*
X11912432Y-10429181D02*
X11902908Y-10419657D01*
X11902908Y-10419657D02*
X11893384Y-10400610D01*
X11893384Y-10400610D02*
X11893384Y-10343467D01*
X11893384Y-10343467D02*
X11902908Y-10324419D01*
X11902908Y-10324419D02*
X11912432Y-10314896D01*
X11912432Y-10314896D02*
X11931480Y-10305372D01*
X11931480Y-10305372D02*
X11960051Y-10305372D01*
X11960051Y-10305372D02*
X11979099Y-10314896D01*
X11979099Y-10314896D02*
X11988622Y-10324419D01*
X11988622Y-10324419D02*
X11998146Y-10343467D01*
X11998146Y-10343467D02*
X11998146Y-10400610D01*
X11998146Y-10400610D02*
X11988622Y-10419657D01*
X11988622Y-10419657D02*
X11979099Y-10429181D01*
X11979099Y-10429181D02*
X11960051Y-10438705D01*
X11960051Y-10438705D02*
X11931480Y-10438705D01*
X12112432Y-10438705D02*
X12093384Y-10429181D01*
X12093384Y-10429181D02*
X12083861Y-10410134D01*
X12083861Y-10410134D02*
X12083861Y-10238705D01*
X12264813Y-10429181D02*
X12245765Y-10438705D01*
X12245765Y-10438705D02*
X12207670Y-10438705D01*
X12207670Y-10438705D02*
X12188622Y-10429181D01*
X12188622Y-10429181D02*
X12179099Y-10410134D01*
X12179099Y-10410134D02*
X12179099Y-10333943D01*
X12179099Y-10333943D02*
X12188622Y-10314896D01*
X12188622Y-10314896D02*
X12207670Y-10305372D01*
X12207670Y-10305372D02*
X12245765Y-10305372D01*
X12245765Y-10305372D02*
X12264813Y-10314896D01*
X12264813Y-10314896D02*
X12274337Y-10333943D01*
X12274337Y-10333943D02*
X12274337Y-10352991D01*
X12274337Y-10352991D02*
X12179099Y-10372038D01*
X12350527Y-10429181D02*
X12369575Y-10438705D01*
X12369575Y-10438705D02*
X12407670Y-10438705D01*
X12407670Y-10438705D02*
X12426718Y-10429181D01*
X12426718Y-10429181D02*
X12436242Y-10410134D01*
X12436242Y-10410134D02*
X12436242Y-10400610D01*
X12436242Y-10400610D02*
X12426718Y-10381562D01*
X12426718Y-10381562D02*
X12407670Y-10372038D01*
X12407670Y-10372038D02*
X12379099Y-10372038D01*
X12379099Y-10372038D02*
X12360051Y-10362515D01*
X12360051Y-10362515D02*
X12350527Y-10343467D01*
X12350527Y-10343467D02*
X12350527Y-10333943D01*
X12350527Y-10333943D02*
X12360051Y-10314896D01*
X12360051Y-10314896D02*
X12379099Y-10305372D01*
X12379099Y-10305372D02*
X12407670Y-10305372D01*
X12407670Y-10305372D02*
X12426718Y-10314896D01*
X12502908Y-10514896D02*
X12512432Y-10505372D01*
X12512432Y-10505372D02*
X12531480Y-10476800D01*
X12531480Y-10476800D02*
X12541003Y-10457753D01*
X12541003Y-10457753D02*
X12550527Y-10429181D01*
X12550527Y-10429181D02*
X12560051Y-10381562D01*
X12560051Y-10381562D02*
X12560051Y-10343467D01*
X12560051Y-10343467D02*
X12550527Y-10295848D01*
X12550527Y-10295848D02*
X12541003Y-10267277D01*
X12541003Y-10267277D02*
X12531480Y-10248229D01*
X12531480Y-10248229D02*
X12512432Y-10219657D01*
X12512432Y-10219657D02*
X12502908Y-10210134D01*
X12864813Y-10514896D02*
X12855289Y-10505372D01*
X12855289Y-10505372D02*
X12836242Y-10476800D01*
X12836242Y-10476800D02*
X12826718Y-10457753D01*
X12826718Y-10457753D02*
X12817194Y-10429181D01*
X12817194Y-10429181D02*
X12807670Y-10381562D01*
X12807670Y-10381562D02*
X12807670Y-10343467D01*
X12807670Y-10343467D02*
X12817194Y-10295848D01*
X12817194Y-10295848D02*
X12826718Y-10267277D01*
X12826718Y-10267277D02*
X12836242Y-10248229D01*
X12836242Y-10248229D02*
X12855289Y-10219657D01*
X12855289Y-10219657D02*
X12864813Y-10210134D01*
X12941003Y-10305372D02*
X12941003Y-10438705D01*
X12941003Y-10324419D02*
X12950527Y-10314896D01*
X12950527Y-10314896D02*
X12969575Y-10305372D01*
X12969575Y-10305372D02*
X12998146Y-10305372D01*
X12998146Y-10305372D02*
X13017194Y-10314896D01*
X13017194Y-10314896D02*
X13026718Y-10333943D01*
X13026718Y-10333943D02*
X13026718Y-10438705D01*
X13150527Y-10438705D02*
X13131480Y-10429181D01*
X13131480Y-10429181D02*
X13121956Y-10419657D01*
X13121956Y-10419657D02*
X13112432Y-10400610D01*
X13112432Y-10400610D02*
X13112432Y-10343467D01*
X13112432Y-10343467D02*
X13121956Y-10324419D01*
X13121956Y-10324419D02*
X13131480Y-10314896D01*
X13131480Y-10314896D02*
X13150527Y-10305372D01*
X13150527Y-10305372D02*
X13179099Y-10305372D01*
X13179099Y-10305372D02*
X13198146Y-10314896D01*
X13198146Y-10314896D02*
X13207670Y-10324419D01*
X13207670Y-10324419D02*
X13217194Y-10343467D01*
X13217194Y-10343467D02*
X13217194Y-10400610D01*
X13217194Y-10400610D02*
X13207670Y-10419657D01*
X13207670Y-10419657D02*
X13198146Y-10429181D01*
X13198146Y-10429181D02*
X13179099Y-10438705D01*
X13179099Y-10438705D02*
X13150527Y-10438705D01*
X13274337Y-10305372D02*
X13350527Y-10305372D01*
X13302908Y-10238705D02*
X13302908Y-10410134D01*
X13302908Y-10410134D02*
X13312432Y-10429181D01*
X13312432Y-10429181D02*
X13331480Y-10438705D01*
X13331480Y-10438705D02*
X13350527Y-10438705D01*
X13569575Y-10305372D02*
X13569575Y-10505372D01*
X13569575Y-10314896D02*
X13588623Y-10305372D01*
X13588623Y-10305372D02*
X13626718Y-10305372D01*
X13626718Y-10305372D02*
X13645765Y-10314896D01*
X13645765Y-10314896D02*
X13655289Y-10324419D01*
X13655289Y-10324419D02*
X13664813Y-10343467D01*
X13664813Y-10343467D02*
X13664813Y-10400610D01*
X13664813Y-10400610D02*
X13655289Y-10419657D01*
X13655289Y-10419657D02*
X13645765Y-10429181D01*
X13645765Y-10429181D02*
X13626718Y-10438705D01*
X13626718Y-10438705D02*
X13588623Y-10438705D01*
X13588623Y-10438705D02*
X13569575Y-10429181D01*
X13779099Y-10438705D02*
X13760051Y-10429181D01*
X13760051Y-10429181D02*
X13750527Y-10410134D01*
X13750527Y-10410134D02*
X13750527Y-10238705D01*
X13941004Y-10438705D02*
X13941004Y-10333943D01*
X13941004Y-10333943D02*
X13931480Y-10314896D01*
X13931480Y-10314896D02*
X13912432Y-10305372D01*
X13912432Y-10305372D02*
X13874337Y-10305372D01*
X13874337Y-10305372D02*
X13855289Y-10314896D01*
X13941004Y-10429181D02*
X13921956Y-10438705D01*
X13921956Y-10438705D02*
X13874337Y-10438705D01*
X13874337Y-10438705D02*
X13855289Y-10429181D01*
X13855289Y-10429181D02*
X13845765Y-10410134D01*
X13845765Y-10410134D02*
X13845765Y-10391086D01*
X13845765Y-10391086D02*
X13855289Y-10372038D01*
X13855289Y-10372038D02*
X13874337Y-10362515D01*
X13874337Y-10362515D02*
X13921956Y-10362515D01*
X13921956Y-10362515D02*
X13941004Y-10352991D01*
X14007670Y-10305372D02*
X14083861Y-10305372D01*
X14036242Y-10238705D02*
X14036242Y-10410134D01*
X14036242Y-10410134D02*
X14045765Y-10429181D01*
X14045765Y-10429181D02*
X14064813Y-10438705D01*
X14064813Y-10438705D02*
X14083861Y-10438705D01*
X14226718Y-10429181D02*
X14207670Y-10438705D01*
X14207670Y-10438705D02*
X14169575Y-10438705D01*
X14169575Y-10438705D02*
X14150527Y-10429181D01*
X14150527Y-10429181D02*
X14141004Y-10410134D01*
X14141004Y-10410134D02*
X14141004Y-10333943D01*
X14141004Y-10333943D02*
X14150527Y-10314896D01*
X14150527Y-10314896D02*
X14169575Y-10305372D01*
X14169575Y-10305372D02*
X14207670Y-10305372D01*
X14207670Y-10305372D02*
X14226718Y-10314896D01*
X14226718Y-10314896D02*
X14236242Y-10333943D01*
X14236242Y-10333943D02*
X14236242Y-10352991D01*
X14236242Y-10352991D02*
X14141004Y-10372038D01*
X14407670Y-10438705D02*
X14407670Y-10238705D01*
X14407670Y-10429181D02*
X14388623Y-10438705D01*
X14388623Y-10438705D02*
X14350527Y-10438705D01*
X14350527Y-10438705D02*
X14331480Y-10429181D01*
X14331480Y-10429181D02*
X14321956Y-10419657D01*
X14321956Y-10419657D02*
X14312432Y-10400610D01*
X14312432Y-10400610D02*
X14312432Y-10343467D01*
X14312432Y-10343467D02*
X14321956Y-10324419D01*
X14321956Y-10324419D02*
X14331480Y-10314896D01*
X14331480Y-10314896D02*
X14350527Y-10305372D01*
X14350527Y-10305372D02*
X14388623Y-10305372D01*
X14388623Y-10305372D02*
X14407670Y-10314896D01*
X14483861Y-10514896D02*
X14493385Y-10505372D01*
X14493385Y-10505372D02*
X14512432Y-10476800D01*
X14512432Y-10476800D02*
X14521956Y-10457753D01*
X14521956Y-10457753D02*
X14531480Y-10429181D01*
X14531480Y-10429181D02*
X14541004Y-10381562D01*
X14541004Y-10381562D02*
X14541004Y-10343467D01*
X14541004Y-10343467D02*
X14531480Y-10295848D01*
X14531480Y-10295848D02*
X14521956Y-10267277D01*
X14521956Y-10267277D02*
X14512432Y-10248229D01*
X14512432Y-10248229D02*
X14493385Y-10219657D01*
X14493385Y-10219657D02*
X14483861Y-10210134D01*
M02*
