G04 #@! TF.GenerationSoftware,KiCad,Pcbnew,7.0.7*
G04 #@! TF.CreationDate,2023-08-28T09:14:14+02:00*
G04 #@! TF.ProjectId,l293d-motor-controller,6c323933-642d-46d6-9f74-6f722d636f6e,rev?*
G04 #@! TF.SameCoordinates,Original*
G04 #@! TF.FileFunction,Copper,L1,Top*
G04 #@! TF.FilePolarity,Positive*
%FSLAX46Y46*%
G04 Gerber Fmt 4.6, Leading zero omitted, Abs format (unit mm)*
G04 Created by KiCad (PCBNEW 7.0.7) date 2023-08-28 09:14:14*
%MOMM*%
%LPD*%
G01*
G04 APERTURE LIST*
G04 #@! TA.AperFunction,ComponentPad*
%ADD10R,1.700000X1.700000*%
G04 #@! TD*
G04 #@! TA.AperFunction,ComponentPad*
%ADD11O,1.700000X1.700000*%
G04 #@! TD*
G04 #@! TA.AperFunction,ComponentPad*
%ADD12R,1.600000X1.600000*%
G04 #@! TD*
G04 #@! TA.AperFunction,ComponentPad*
%ADD13O,1.600000X1.600000*%
G04 #@! TD*
G04 #@! TA.AperFunction,ComponentPad*
%ADD14R,2.000000X1.905000*%
G04 #@! TD*
G04 #@! TA.AperFunction,ComponentPad*
%ADD15O,2.000000X1.905000*%
G04 #@! TD*
G04 #@! TA.AperFunction,ComponentPad*
%ADD16R,2.000000X1.440000*%
G04 #@! TD*
G04 #@! TA.AperFunction,ComponentPad*
%ADD17O,2.000000X1.440000*%
G04 #@! TD*
G04 #@! TA.AperFunction,ComponentPad*
%ADD18C,1.600000*%
G04 #@! TD*
G04 #@! TA.AperFunction,ComponentPad*
%ADD19R,1.200000X1.200000*%
G04 #@! TD*
G04 #@! TA.AperFunction,ComponentPad*
%ADD20C,1.200000*%
G04 #@! TD*
G04 #@! TA.AperFunction,Conductor*
%ADD21C,0.250000*%
G04 #@! TD*
G04 APERTURE END LIST*
D10*
X127000000Y-101600000D03*
D11*
X129540000Y-101600000D03*
X132080000Y-101600000D03*
D12*
X123200000Y-113045000D03*
D13*
X123200000Y-115585000D03*
X123200000Y-118125000D03*
X123200000Y-120665000D03*
X123200000Y-123205000D03*
X123200000Y-125745000D03*
X123200000Y-128285000D03*
X123200000Y-130825000D03*
X130820000Y-130825000D03*
X130820000Y-128285000D03*
X130820000Y-125745000D03*
X130820000Y-123205000D03*
X130820000Y-120665000D03*
X130820000Y-118125000D03*
X130820000Y-115585000D03*
X130820000Y-113045000D03*
D10*
X129540000Y-139700000D03*
D11*
X129540000Y-142240000D03*
D10*
X124460000Y-139700000D03*
D11*
X124460000Y-142240000D03*
D10*
X134620000Y-139700000D03*
D11*
X134620000Y-142240000D03*
D14*
X114300000Y-119380000D03*
D15*
X114300000Y-121920000D03*
X114300000Y-124460000D03*
D16*
X99060000Y-121920000D03*
D17*
X99060000Y-124460000D03*
X99060000Y-127000000D03*
X99060000Y-129540000D03*
X99060000Y-132080000D03*
X99060000Y-134620000D03*
X99060000Y-137160000D03*
X106680000Y-137160000D03*
X106680000Y-134620000D03*
X106680000Y-132080000D03*
X106680000Y-129540000D03*
X106680000Y-127000000D03*
X106680000Y-124460000D03*
X106680000Y-121920000D03*
D18*
X119380000Y-124500000D03*
X119380000Y-127000000D03*
D10*
X114300000Y-139700000D03*
D11*
X114300000Y-142240000D03*
D10*
X104140000Y-101600000D03*
D11*
X106680000Y-101600000D03*
X109220000Y-101600000D03*
D19*
X115340000Y-132080000D03*
D20*
X116840000Y-132080000D03*
D18*
X134620000Y-127000000D03*
X134620000Y-124500000D03*
D10*
X119380000Y-139700000D03*
D11*
X119380000Y-142240000D03*
D21*
X117355000Y-127515000D02*
X120665000Y-130825000D01*
X117355000Y-122435000D02*
X117355000Y-127515000D01*
X120665000Y-130825000D02*
X123200000Y-130825000D01*
X114300000Y-119380000D02*
X117355000Y-122435000D01*
X124460000Y-132085000D02*
X123200000Y-130825000D01*
X124460000Y-139700000D02*
X124460000Y-132085000D01*
X107855000Y-100425000D02*
X128365000Y-100425000D01*
X115340000Y-132080000D02*
X115915000Y-132080000D01*
X135795000Y-138525000D02*
X133255000Y-138525000D01*
X106680000Y-121920000D02*
X101600000Y-116840000D01*
X105505000Y-100425000D02*
X106680000Y-101600000D01*
X102775000Y-100425000D02*
X105505000Y-100425000D01*
X101600000Y-116840000D02*
X101600000Y-101600000D01*
X106680000Y-121920000D02*
X109960000Y-125200000D01*
X115340000Y-132080000D02*
X116840000Y-133580000D01*
X121020001Y-143880000D02*
X119380000Y-142240000D01*
X116840000Y-133580000D02*
X116840000Y-139700000D01*
X133255000Y-138525000D02*
X132080000Y-139700000D01*
X129540000Y-101600000D02*
X129540000Y-111765000D01*
X130440000Y-143880000D02*
X121020001Y-143880000D01*
X114300000Y-124460000D02*
X114300000Y-131040000D01*
X112355751Y-145230000D02*
X133928097Y-145230000D01*
X106680000Y-101600000D02*
X107855000Y-100425000D01*
X116840000Y-139700000D02*
X114300000Y-142240000D01*
X136245000Y-138975000D02*
X135795000Y-138525000D01*
X101600000Y-101600000D02*
X102775000Y-100425000D01*
X109960000Y-125200000D02*
X109960000Y-142834249D01*
X132080000Y-142240000D02*
X130440000Y-143880000D01*
X114300000Y-131040000D02*
X115340000Y-132080000D01*
X132080000Y-139700000D02*
X132080000Y-142240000D01*
X128365000Y-100425000D02*
X129540000Y-101600000D01*
X109960000Y-142834249D02*
X112355751Y-145230000D01*
X136245000Y-142913097D02*
X136245000Y-138975000D01*
X133928097Y-145230000D02*
X136245000Y-142913097D01*
X114300000Y-142240000D02*
X119380000Y-142240000D01*
X129540000Y-111765000D02*
X130820000Y-113045000D01*
X135795000Y-140875000D02*
X135795000Y-142726701D01*
X118705000Y-120055000D02*
X120635000Y-118125000D01*
X124910000Y-111868604D02*
X124910000Y-116415000D01*
X124910000Y-116415000D02*
X123200000Y-118125000D01*
X118705000Y-123825000D02*
X118705000Y-120055000D01*
X135795000Y-142726701D02*
X133741701Y-144780000D01*
X124511396Y-111470000D02*
X124910000Y-111868604D01*
X110410000Y-142647853D02*
X110410000Y-117553604D01*
X120635000Y-118125000D02*
X123200000Y-118125000D01*
X119380000Y-124500000D02*
X118705000Y-123825000D01*
X134620000Y-139700000D02*
X135795000Y-140875000D01*
X116493604Y-111470000D02*
X124511396Y-111470000D01*
X133741701Y-144780000D02*
X112542147Y-144780000D01*
X112542147Y-144780000D02*
X110410000Y-142647853D01*
X110410000Y-117553604D02*
X116493604Y-111470000D01*
X121945000Y-127000000D02*
X123200000Y-125745000D01*
X110860000Y-142461457D02*
X110860000Y-117740000D01*
X118255000Y-125875000D02*
X119380000Y-127000000D01*
X112728543Y-144330000D02*
X110860000Y-142461457D01*
X124325000Y-111920000D02*
X124460000Y-112055000D01*
X121283604Y-116840000D02*
X118255000Y-119868604D01*
X133555305Y-144330000D02*
X112728543Y-144330000D01*
X124460000Y-112055000D02*
X124460000Y-115915991D01*
X118255000Y-119868604D02*
X118255000Y-125875000D01*
X134620000Y-142240000D02*
X134620000Y-143265305D01*
X123535991Y-116840000D02*
X121283604Y-116840000D01*
X119380000Y-127000000D02*
X121945000Y-127000000D01*
X110860000Y-117740000D02*
X116680000Y-111920000D01*
X134620000Y-143265305D02*
X133555305Y-144330000D01*
X124460000Y-115915991D02*
X123535991Y-116840000D01*
X116680000Y-111920000D02*
X124325000Y-111920000D01*
X129540000Y-139700000D02*
X134620000Y-134620000D01*
X134620000Y-134620000D02*
X134620000Y-127000000D01*
X134620000Y-127000000D02*
X132075000Y-127000000D01*
X132075000Y-127000000D02*
X130820000Y-125745000D01*
X133365000Y-118125000D02*
X130820000Y-118125000D01*
X135070000Y-134806396D02*
X135070000Y-128140991D01*
X135745000Y-125625000D02*
X134620000Y-124500000D01*
X134620000Y-119380000D02*
X133365000Y-118125000D01*
X130715000Y-141065000D02*
X130715000Y-139161396D01*
X135745000Y-127465991D02*
X135745000Y-125625000D01*
X129540000Y-142240000D02*
X130715000Y-141065000D01*
X134620000Y-124500000D02*
X134620000Y-119380000D01*
X135070000Y-128140991D02*
X135745000Y-127465991D01*
X130715000Y-139161396D02*
X135070000Y-134806396D01*
X130820000Y-135690000D02*
X130820000Y-130825000D01*
X120555000Y-139700000D02*
X121730000Y-140875000D01*
X125635000Y-140875000D02*
X130820000Y-135690000D01*
X119380000Y-139700000D02*
X120555000Y-139700000D01*
X121730000Y-140875000D02*
X125635000Y-140875000D01*
X116866396Y-112370000D02*
X122525000Y-112370000D01*
X111310000Y-117926396D02*
X116866396Y-112370000D01*
X122525000Y-112370000D02*
X123200000Y-113045000D01*
X111760000Y-139700000D02*
X111310000Y-139250000D01*
X111310000Y-139250000D02*
X111310000Y-117926396D01*
X114300000Y-139700000D02*
X111760000Y-139700000D01*
X121479009Y-128125000D02*
X118914009Y-128125000D01*
X104140000Y-101600000D02*
X106680000Y-104140000D01*
X125360000Y-105040000D02*
X125360000Y-125175991D01*
X117805000Y-127015991D02*
X117805000Y-119682208D01*
X122734009Y-126870000D02*
X121479009Y-128125000D01*
X117805000Y-119682208D02*
X121902208Y-115585000D01*
X124460000Y-104140000D02*
X125360000Y-105040000D01*
X106680000Y-104140000D02*
X124460000Y-104140000D01*
X123665991Y-126870000D02*
X122734009Y-126870000D01*
X125360000Y-125175991D02*
X123665991Y-126870000D01*
X118914009Y-128125000D02*
X117805000Y-127015991D01*
X121902208Y-115585000D02*
X123200000Y-115585000D01*
X129090000Y-126555000D02*
X130820000Y-128285000D01*
X129090000Y-103690000D02*
X129090000Y-126555000D01*
X127000000Y-101600000D02*
X129090000Y-103690000D01*
G04 #@! TA.AperFunction,Conductor*
G36*
X120813062Y-140842652D02*
G01*
X121030134Y-141059725D01*
X121229197Y-141258788D01*
X121239022Y-141271051D01*
X121239243Y-141270869D01*
X121244214Y-141276878D01*
X121267441Y-141298689D01*
X121294635Y-141324226D01*
X121315529Y-141345120D01*
X121321011Y-141349373D01*
X121325443Y-141353157D01*
X121359418Y-141385062D01*
X121376976Y-141394714D01*
X121393233Y-141405393D01*
X121409064Y-141417673D01*
X121428737Y-141426186D01*
X121451833Y-141436182D01*
X121457077Y-141438750D01*
X121497908Y-141461197D01*
X121510523Y-141464435D01*
X121517305Y-141466177D01*
X121535719Y-141472481D01*
X121554104Y-141480438D01*
X121600157Y-141487732D01*
X121605826Y-141488906D01*
X121650981Y-141500500D01*
X121671016Y-141500500D01*
X121690413Y-141502026D01*
X121710196Y-141505160D01*
X121756583Y-141500775D01*
X121762422Y-141500500D01*
X123120634Y-141500500D01*
X123187673Y-141520185D01*
X123233428Y-141572989D01*
X123243372Y-141642147D01*
X123233016Y-141676905D01*
X123186569Y-141776507D01*
X123186567Y-141776513D01*
X123129364Y-141989999D01*
X123129364Y-141990000D01*
X123846653Y-141990000D01*
X123913692Y-142009685D01*
X123959447Y-142062489D01*
X123969391Y-142131647D01*
X123965631Y-142148933D01*
X123960000Y-142168111D01*
X123960000Y-142311889D01*
X123962093Y-142319016D01*
X123965631Y-142331067D01*
X123965630Y-142400936D01*
X123927855Y-142459714D01*
X123864299Y-142488738D01*
X123846653Y-142490000D01*
X123129364Y-142490000D01*
X123186567Y-142703486D01*
X123186570Y-142703492D01*
X123286400Y-142917579D01*
X123286404Y-142917585D01*
X123385688Y-143059376D01*
X123408016Y-143125582D01*
X123391006Y-143193349D01*
X123340059Y-143241163D01*
X123284114Y-143254500D01*
X121330454Y-143254500D01*
X121263415Y-143234815D01*
X121242773Y-143218181D01*
X120986074Y-142961482D01*
X120720236Y-142695645D01*
X120686752Y-142634323D01*
X120688142Y-142575876D01*
X120715063Y-142475408D01*
X120735659Y-142240000D01*
X120715063Y-142004592D01*
X120653903Y-141776337D01*
X120554035Y-141562171D01*
X120553651Y-141561623D01*
X120418496Y-141368600D01*
X120374122Y-141324226D01*
X120296567Y-141246671D01*
X120263084Y-141185351D01*
X120268068Y-141115659D01*
X120309939Y-141059725D01*
X120340915Y-141042810D01*
X120472331Y-140993796D01*
X120587546Y-140907546D01*
X120626117Y-140856021D01*
X120682049Y-140814152D01*
X120751740Y-140809168D01*
X120813062Y-140842652D01*
G37*
G04 #@! TD.AperFunction*
G04 #@! TA.AperFunction,Conductor*
G36*
X128108834Y-139388269D02*
G01*
X128164767Y-139430141D01*
X128189184Y-139495605D01*
X128189500Y-139504451D01*
X128189500Y-140597870D01*
X128189501Y-140597876D01*
X128195908Y-140657483D01*
X128246202Y-140792328D01*
X128246206Y-140792335D01*
X128332452Y-140907544D01*
X128332455Y-140907547D01*
X128447664Y-140993793D01*
X128447671Y-140993797D01*
X128579081Y-141042810D01*
X128635015Y-141084681D01*
X128659432Y-141150145D01*
X128644580Y-141218418D01*
X128623430Y-141246673D01*
X128501503Y-141368600D01*
X128365965Y-141562169D01*
X128365964Y-141562171D01*
X128266098Y-141776335D01*
X128266094Y-141776344D01*
X128204938Y-142004586D01*
X128204936Y-142004596D01*
X128184341Y-142239999D01*
X128184341Y-142240000D01*
X128204936Y-142475403D01*
X128204938Y-142475413D01*
X128266094Y-142703655D01*
X128266096Y-142703659D01*
X128266097Y-142703663D01*
X128345340Y-142873599D01*
X128365965Y-142917830D01*
X128365967Y-142917834D01*
X128465077Y-143059377D01*
X128487404Y-143125583D01*
X128470394Y-143193350D01*
X128419446Y-143241163D01*
X128363502Y-143254500D01*
X125635886Y-143254500D01*
X125568847Y-143234815D01*
X125523092Y-143182011D01*
X125513148Y-143112853D01*
X125534312Y-143059376D01*
X125633595Y-142917585D01*
X125633599Y-142917579D01*
X125733429Y-142703492D01*
X125733432Y-142703486D01*
X125790636Y-142490000D01*
X125073347Y-142490000D01*
X125006308Y-142470315D01*
X124960553Y-142417511D01*
X124950609Y-142348353D01*
X124954369Y-142331067D01*
X124957907Y-142319016D01*
X124960000Y-142311889D01*
X124960000Y-142168111D01*
X124954368Y-142148933D01*
X124954370Y-142079064D01*
X124992145Y-142020286D01*
X125055701Y-141991262D01*
X125073347Y-141990000D01*
X125790636Y-141990000D01*
X125790635Y-141989999D01*
X125733432Y-141776513D01*
X125733430Y-141776507D01*
X125680463Y-141662920D01*
X125669971Y-141593843D01*
X125698491Y-141530059D01*
X125756967Y-141491819D01*
X125777306Y-141487493D01*
X125791792Y-141485664D01*
X125835122Y-141468507D01*
X125840646Y-141466617D01*
X125844396Y-141465527D01*
X125885390Y-141453618D01*
X125902629Y-141443422D01*
X125920103Y-141434862D01*
X125938727Y-141427488D01*
X125938727Y-141427487D01*
X125938732Y-141427486D01*
X125976449Y-141400082D01*
X125981305Y-141396892D01*
X126021420Y-141373170D01*
X126035589Y-141358999D01*
X126050379Y-141346368D01*
X126066587Y-141334594D01*
X126096299Y-141298676D01*
X126100212Y-141294376D01*
X127977820Y-139416768D01*
X128039142Y-139383285D01*
X128108834Y-139388269D01*
G37*
G04 #@! TD.AperFunction*
G04 #@! TA.AperFunction,Conductor*
G36*
X115959703Y-121943888D02*
G01*
X116009775Y-121974365D01*
X116693182Y-122657772D01*
X116726666Y-122719093D01*
X116729500Y-122745451D01*
X116729500Y-127432254D01*
X116727775Y-127447872D01*
X116728061Y-127447899D01*
X116727326Y-127455666D01*
X116729499Y-127524814D01*
X116729499Y-127554351D01*
X116730368Y-127561232D01*
X116730826Y-127567051D01*
X116732290Y-127613624D01*
X116732291Y-127613627D01*
X116737880Y-127632867D01*
X116741824Y-127651911D01*
X116744336Y-127671792D01*
X116745641Y-127675087D01*
X116761490Y-127715119D01*
X116763382Y-127720647D01*
X116776381Y-127765388D01*
X116786580Y-127782634D01*
X116795138Y-127800103D01*
X116802514Y-127818732D01*
X116829898Y-127856423D01*
X116833106Y-127861307D01*
X116856827Y-127901416D01*
X116856833Y-127901424D01*
X116870990Y-127915580D01*
X116883628Y-127930376D01*
X116895405Y-127946586D01*
X116895406Y-127946587D01*
X116931309Y-127976288D01*
X116935620Y-127980210D01*
X119418246Y-130462837D01*
X120164197Y-131208788D01*
X120174022Y-131221051D01*
X120174243Y-131220869D01*
X120179214Y-131226878D01*
X120193315Y-131240119D01*
X120229635Y-131274226D01*
X120250529Y-131295120D01*
X120256011Y-131299373D01*
X120260443Y-131303157D01*
X120294418Y-131335062D01*
X120311976Y-131344714D01*
X120328233Y-131355393D01*
X120344064Y-131367673D01*
X120363737Y-131376186D01*
X120386833Y-131386182D01*
X120392077Y-131388750D01*
X120432908Y-131411197D01*
X120445523Y-131414435D01*
X120452305Y-131416177D01*
X120470719Y-131422481D01*
X120489104Y-131430438D01*
X120535157Y-131437732D01*
X120540826Y-131438906D01*
X120585981Y-131450500D01*
X120606016Y-131450500D01*
X120625413Y-131452026D01*
X120645196Y-131455160D01*
X120691583Y-131450775D01*
X120697422Y-131450500D01*
X121985812Y-131450500D01*
X122052851Y-131470185D01*
X122087387Y-131503377D01*
X122199954Y-131664141D01*
X122360858Y-131825045D01*
X122402863Y-131854457D01*
X122547266Y-131955568D01*
X122753504Y-132051739D01*
X122753509Y-132051740D01*
X122753511Y-132051741D01*
X122806415Y-132065916D01*
X122973308Y-132110635D01*
X123130791Y-132124413D01*
X123199998Y-132130468D01*
X123200000Y-132130468D01*
X123200002Y-132130468D01*
X123256673Y-132125509D01*
X123426692Y-132110635D01*
X123495048Y-132092319D01*
X123564897Y-132093982D01*
X123614822Y-132124413D01*
X123798180Y-132307771D01*
X123831665Y-132369094D01*
X123834499Y-132395452D01*
X123834499Y-138225500D01*
X123814814Y-138292539D01*
X123762010Y-138338294D01*
X123710500Y-138349500D01*
X123562130Y-138349500D01*
X123562123Y-138349501D01*
X123502516Y-138355908D01*
X123367671Y-138406202D01*
X123367664Y-138406206D01*
X123252455Y-138492452D01*
X123252452Y-138492455D01*
X123166206Y-138607664D01*
X123166202Y-138607671D01*
X123115908Y-138742517D01*
X123109501Y-138802116D01*
X123109500Y-138802127D01*
X123109500Y-139524393D01*
X123109501Y-140125500D01*
X123089816Y-140192539D01*
X123037013Y-140238294D01*
X122985501Y-140249500D01*
X122040452Y-140249500D01*
X121973413Y-140229815D01*
X121952771Y-140213181D01*
X121055803Y-139316212D01*
X121045980Y-139303950D01*
X121045759Y-139304134D01*
X121040786Y-139298123D01*
X121005125Y-139264635D01*
X120990364Y-139250773D01*
X120979919Y-139240328D01*
X120969475Y-139229883D01*
X120963986Y-139225625D01*
X120959561Y-139221847D01*
X120925582Y-139189938D01*
X120925580Y-139189936D01*
X120925577Y-139189935D01*
X120908029Y-139180288D01*
X120891763Y-139169604D01*
X120875932Y-139157324D01*
X120833169Y-139138818D01*
X120827923Y-139136248D01*
X120794764Y-139118020D01*
X120745499Y-139068475D01*
X120730499Y-139009357D01*
X120730499Y-138922945D01*
X120730499Y-138802128D01*
X120724091Y-138742517D01*
X120710982Y-138707371D01*
X120673797Y-138607671D01*
X120673793Y-138607664D01*
X120587547Y-138492455D01*
X120587544Y-138492452D01*
X120472335Y-138406206D01*
X120472328Y-138406202D01*
X120337482Y-138355908D01*
X120337483Y-138355908D01*
X120277883Y-138349501D01*
X120277881Y-138349500D01*
X120277873Y-138349500D01*
X120277864Y-138349500D01*
X118482129Y-138349500D01*
X118482123Y-138349501D01*
X118422516Y-138355908D01*
X118287671Y-138406202D01*
X118287664Y-138406206D01*
X118172455Y-138492452D01*
X118172452Y-138492455D01*
X118086206Y-138607664D01*
X118086202Y-138607671D01*
X118035908Y-138742517D01*
X118029501Y-138802116D01*
X118029501Y-138802123D01*
X118029500Y-138802135D01*
X118029500Y-140597870D01*
X118029501Y-140597876D01*
X118035908Y-140657483D01*
X118086202Y-140792328D01*
X118086206Y-140792335D01*
X118172452Y-140907544D01*
X118172455Y-140907547D01*
X118287664Y-140993793D01*
X118287671Y-140993797D01*
X118419081Y-141042810D01*
X118475015Y-141084681D01*
X118499432Y-141150145D01*
X118484580Y-141218418D01*
X118463430Y-141246673D01*
X118341503Y-141368600D01*
X118206348Y-141561623D01*
X118151771Y-141605248D01*
X118104773Y-141614500D01*
X116109452Y-141614500D01*
X116042413Y-141594815D01*
X115996658Y-141542011D01*
X115986714Y-141472853D01*
X116015739Y-141409297D01*
X116021771Y-141402819D01*
X116615422Y-140809168D01*
X117223788Y-140200801D01*
X117236042Y-140190986D01*
X117235859Y-140190764D01*
X117241866Y-140185792D01*
X117241877Y-140185786D01*
X117272775Y-140152882D01*
X117289227Y-140135364D01*
X117299671Y-140124918D01*
X117310120Y-140114471D01*
X117314379Y-140108978D01*
X117318152Y-140104561D01*
X117350062Y-140070582D01*
X117359713Y-140053024D01*
X117370396Y-140036761D01*
X117382673Y-140020936D01*
X117401185Y-139978153D01*
X117403738Y-139972941D01*
X117426197Y-139932092D01*
X117431180Y-139912680D01*
X117437481Y-139894280D01*
X117445437Y-139875896D01*
X117452729Y-139829852D01*
X117453906Y-139824171D01*
X117465500Y-139779019D01*
X117465500Y-139758983D01*
X117467027Y-139739582D01*
X117470160Y-139719804D01*
X117465775Y-139673415D01*
X117465500Y-139667577D01*
X117465500Y-133662737D01*
X117467224Y-133647123D01*
X117466938Y-133647096D01*
X117467672Y-133639333D01*
X117465500Y-133570203D01*
X117465500Y-133540651D01*
X117465500Y-133540650D01*
X117464629Y-133533759D01*
X117464172Y-133527945D01*
X117462709Y-133481373D01*
X117457121Y-133462139D01*
X117453174Y-133443081D01*
X117450664Y-133423208D01*
X117433507Y-133379875D01*
X117431614Y-133374346D01*
X117418618Y-133329614D01*
X117418617Y-133329610D01*
X117408420Y-133312368D01*
X117399863Y-133294902D01*
X117392486Y-133276268D01*
X117365083Y-133238550D01*
X117361900Y-133233705D01*
X117338170Y-133193579D01*
X117338165Y-133193573D01*
X117324005Y-133179413D01*
X117311370Y-133164620D01*
X117299593Y-133148412D01*
X117263693Y-133118713D01*
X117259381Y-133114790D01*
X116736272Y-132591681D01*
X116702787Y-132530358D01*
X116707771Y-132460666D01*
X116749643Y-132404733D01*
X116815107Y-132380316D01*
X116823953Y-132380000D01*
X116867799Y-132380000D01*
X116867802Y-132380000D01*
X116950250Y-132364588D01*
X117045608Y-132305544D01*
X117045609Y-132305544D01*
X117068806Y-132274826D01*
X117113201Y-132216038D01*
X117126944Y-132167738D01*
X117143895Y-132108162D01*
X117143895Y-132108160D01*
X117141286Y-132080000D01*
X117547106Y-132080000D01*
X117886960Y-132419854D01*
X117886961Y-132419854D01*
X117925902Y-132282990D01*
X117944713Y-132080000D01*
X117944713Y-132079999D01*
X117925902Y-131877009D01*
X117886960Y-131740144D01*
X117547106Y-132079999D01*
X117547106Y-132080000D01*
X117141286Y-132080000D01*
X117133546Y-131996479D01*
X117083552Y-131896078D01*
X117083550Y-131896076D01*
X117000666Y-131820516D01*
X116947433Y-131799894D01*
X116896080Y-131780000D01*
X116812198Y-131780000D01*
X116739299Y-131793626D01*
X116669785Y-131786596D01*
X116615107Y-131743098D01*
X116592625Y-131676944D01*
X116609478Y-131609137D01*
X116628835Y-131584057D01*
X116840000Y-131372893D01*
X117180602Y-131032290D01*
X117142321Y-131017460D01*
X117142316Y-131017459D01*
X116941928Y-130980000D01*
X116738072Y-130980000D01*
X116537677Y-131017460D01*
X116351098Y-131089741D01*
X116281474Y-131095603D01*
X116231993Y-131073381D01*
X116182331Y-131036204D01*
X116182329Y-131036203D01*
X116182328Y-131036202D01*
X116047482Y-130985908D01*
X116047483Y-130985908D01*
X115987883Y-130979501D01*
X115987881Y-130979500D01*
X115987873Y-130979500D01*
X115987865Y-130979500D01*
X115175453Y-130979500D01*
X115108414Y-130959815D01*
X115087772Y-130943181D01*
X114961819Y-130817228D01*
X114928334Y-130755905D01*
X114925500Y-130729547D01*
X114925500Y-125874116D01*
X114945185Y-125807077D01*
X114997989Y-125761322D01*
X114999691Y-125760560D01*
X115006515Y-125757566D01*
X115041422Y-125742255D01*
X115243010Y-125610551D01*
X115420171Y-125447463D01*
X115568072Y-125257439D01*
X115682679Y-125045664D01*
X115760866Y-124817913D01*
X115800500Y-124580399D01*
X115800500Y-124339601D01*
X115760866Y-124102087D01*
X115744187Y-124053504D01*
X115709801Y-123953340D01*
X115682679Y-123874336D01*
X115568072Y-123662561D01*
X115559327Y-123651326D01*
X115529613Y-123613149D01*
X115420171Y-123472537D01*
X115265495Y-123330148D01*
X115243007Y-123309446D01*
X115218614Y-123293510D01*
X115173257Y-123240364D01*
X115163833Y-123171132D01*
X115193335Y-123107796D01*
X115218616Y-123085891D01*
X115242701Y-123070155D01*
X115242702Y-123070154D01*
X115419797Y-122907126D01*
X115419806Y-122907116D01*
X115567649Y-122717168D01*
X115567655Y-122717159D01*
X115682215Y-122505468D01*
X115682221Y-122505454D01*
X115760379Y-122277792D01*
X115799786Y-122041638D01*
X115830236Y-121978752D01*
X115889851Y-121942313D01*
X115959703Y-121943888D01*
G37*
G04 #@! TD.AperFunction*
G04 #@! TA.AperFunction,Conductor*
G36*
X121842539Y-113015185D02*
G01*
X121888294Y-113067989D01*
X121899500Y-113119500D01*
X121899500Y-113892870D01*
X121899501Y-113892876D01*
X121905908Y-113952483D01*
X121956202Y-114087328D01*
X121956206Y-114087335D01*
X122042452Y-114202544D01*
X122042455Y-114202547D01*
X122157664Y-114288793D01*
X122157671Y-114288797D01*
X122202618Y-114305560D01*
X122292517Y-114339091D01*
X122327596Y-114342862D01*
X122392144Y-114369599D01*
X122431993Y-114426991D01*
X122434488Y-114496816D01*
X122398836Y-114556905D01*
X122385464Y-114567725D01*
X122360858Y-114584954D01*
X122199954Y-114745858D01*
X122087387Y-114906623D01*
X122032811Y-114950248D01*
X121985812Y-114959500D01*
X121984946Y-114959500D01*
X121969329Y-114957776D01*
X121969302Y-114958062D01*
X121961540Y-114957327D01*
X121892412Y-114959500D01*
X121862858Y-114959500D01*
X121862137Y-114959590D01*
X121855965Y-114960369D01*
X121850153Y-114960826D01*
X121803581Y-114962290D01*
X121803580Y-114962290D01*
X121784337Y-114967881D01*
X121765287Y-114971825D01*
X121745419Y-114974334D01*
X121745417Y-114974335D01*
X121702092Y-114991488D01*
X121696565Y-114993380D01*
X121651818Y-115006381D01*
X121651817Y-115006382D01*
X121634575Y-115016579D01*
X121617107Y-115025137D01*
X121598477Y-115032513D01*
X121598475Y-115032514D01*
X121560784Y-115059898D01*
X121555902Y-115063105D01*
X121515787Y-115086830D01*
X121501616Y-115101000D01*
X121486831Y-115113628D01*
X121470620Y-115125407D01*
X121440917Y-115161310D01*
X121436985Y-115165631D01*
X117421208Y-119181407D01*
X117408951Y-119191228D01*
X117409134Y-119191449D01*
X117403123Y-119196421D01*
X117355772Y-119246844D01*
X117334889Y-119267727D01*
X117334877Y-119267740D01*
X117330621Y-119273225D01*
X117326837Y-119277655D01*
X117294937Y-119311626D01*
X117294936Y-119311628D01*
X117285284Y-119329184D01*
X117274610Y-119345434D01*
X117262329Y-119361269D01*
X117262324Y-119361276D01*
X117243815Y-119404046D01*
X117241245Y-119409292D01*
X117218803Y-119450114D01*
X117213822Y-119469515D01*
X117207521Y-119487918D01*
X117199562Y-119506310D01*
X117199561Y-119506313D01*
X117192271Y-119552335D01*
X117191087Y-119558054D01*
X117179501Y-119603180D01*
X117179500Y-119603190D01*
X117179500Y-119623224D01*
X117177973Y-119642624D01*
X117174839Y-119662402D01*
X117177491Y-119690452D01*
X117178957Y-119705970D01*
X117179224Y-119708788D01*
X117179499Y-119714625D01*
X117179499Y-121075545D01*
X117159814Y-121142584D01*
X117107010Y-121188339D01*
X117037852Y-121198283D01*
X116974296Y-121169258D01*
X116967818Y-121163226D01*
X115836818Y-120032226D01*
X115803333Y-119970903D01*
X115800499Y-119944545D01*
X115800499Y-118379629D01*
X115800498Y-118379623D01*
X115800497Y-118379616D01*
X115795299Y-118331257D01*
X115794091Y-118320016D01*
X115743797Y-118185171D01*
X115743793Y-118185164D01*
X115657547Y-118069955D01*
X115657544Y-118069952D01*
X115542335Y-117983706D01*
X115542328Y-117983702D01*
X115407482Y-117933408D01*
X115407483Y-117933408D01*
X115347883Y-117927001D01*
X115347881Y-117927000D01*
X115347873Y-117927000D01*
X115347864Y-117927000D01*
X113252129Y-117927000D01*
X113252123Y-117927001D01*
X113192516Y-117933408D01*
X113057671Y-117983702D01*
X113057664Y-117983706D01*
X112942455Y-118069952D01*
X112942452Y-118069955D01*
X112856206Y-118185164D01*
X112856202Y-118185171D01*
X112805908Y-118320017D01*
X112799501Y-118379616D01*
X112799501Y-118379623D01*
X112799500Y-118379635D01*
X112799500Y-120380370D01*
X112799501Y-120380376D01*
X112805908Y-120439983D01*
X112856202Y-120574828D01*
X112856206Y-120574835D01*
X112942452Y-120690044D01*
X112942455Y-120690047D01*
X113057664Y-120776293D01*
X113057671Y-120776297D01*
X113068545Y-120780352D01*
X113088802Y-120787907D01*
X113144736Y-120829777D01*
X113169155Y-120895241D01*
X113154305Y-120963514D01*
X113143325Y-120980252D01*
X113032345Y-121122838D01*
X113032344Y-121122840D01*
X112917784Y-121334531D01*
X112917778Y-121334545D01*
X112839619Y-121562208D01*
X112821633Y-121669999D01*
X112821634Y-121670000D01*
X113633044Y-121670000D01*
X113700083Y-121689685D01*
X113745838Y-121742489D01*
X113756755Y-121802463D01*
X113756441Y-121807045D01*
X113756441Y-121807047D01*
X113752475Y-121865025D01*
X113747081Y-121943888D01*
X113746123Y-121957886D01*
X113755126Y-122001210D01*
X113759191Y-122020772D01*
X113753557Y-122090414D01*
X113711166Y-122145955D01*
X113645477Y-122169761D01*
X113637784Y-122170000D01*
X112821633Y-122170000D01*
X112839619Y-122277791D01*
X112917778Y-122505454D01*
X112917784Y-122505468D01*
X113032344Y-122717159D01*
X113032350Y-122717168D01*
X113180193Y-122907116D01*
X113180202Y-122907126D01*
X113357297Y-123070154D01*
X113357296Y-123070154D01*
X113381385Y-123085892D01*
X113426742Y-123139038D01*
X113436166Y-123208269D01*
X113406664Y-123271605D01*
X113381389Y-123293507D01*
X113356994Y-123309446D01*
X113356988Y-123309450D01*
X113221313Y-123434348D01*
X113179829Y-123472537D01*
X113158490Y-123499954D01*
X113031929Y-123662558D01*
X112917321Y-123874334D01*
X112917318Y-123874343D01*
X112839134Y-124102083D01*
X112799499Y-124339602D01*
X112799499Y-124580397D01*
X112839134Y-124817916D01*
X112917318Y-125045656D01*
X112917321Y-125045665D01*
X113031929Y-125257441D01*
X113052267Y-125283571D01*
X113179829Y-125447463D01*
X113356990Y-125610551D01*
X113558578Y-125742255D01*
X113578991Y-125751209D01*
X113600309Y-125760560D01*
X113653795Y-125805515D01*
X113674486Y-125872251D01*
X113674500Y-125874116D01*
X113674500Y-130957255D01*
X113672775Y-130972872D01*
X113673061Y-130972899D01*
X113672326Y-130980665D01*
X113674500Y-131049814D01*
X113674500Y-131079343D01*
X113674501Y-131079360D01*
X113675368Y-131086231D01*
X113675826Y-131092050D01*
X113677290Y-131138624D01*
X113677291Y-131138627D01*
X113682880Y-131157867D01*
X113686824Y-131176911D01*
X113689336Y-131196792D01*
X113705520Y-131237669D01*
X113706490Y-131240119D01*
X113708382Y-131245647D01*
X113716685Y-131274226D01*
X113721382Y-131290390D01*
X113728934Y-131303161D01*
X113731580Y-131307634D01*
X113740138Y-131325103D01*
X113747514Y-131343732D01*
X113774898Y-131381423D01*
X113778106Y-131386307D01*
X113801827Y-131426416D01*
X113801833Y-131426424D01*
X113815990Y-131440580D01*
X113828628Y-131455376D01*
X113840405Y-131471586D01*
X113840406Y-131471587D01*
X113876309Y-131501288D01*
X113880620Y-131505210D01*
X114045029Y-131669619D01*
X114203181Y-131827771D01*
X114236666Y-131889094D01*
X114239500Y-131915452D01*
X114239500Y-132727870D01*
X114239501Y-132727876D01*
X114245908Y-132787483D01*
X114296202Y-132922328D01*
X114296206Y-132922335D01*
X114382452Y-133037544D01*
X114382455Y-133037547D01*
X114497664Y-133123793D01*
X114497671Y-133123797D01*
X114632517Y-133174091D01*
X114632516Y-133174091D01*
X114639444Y-133174835D01*
X114692127Y-133180500D01*
X115504546Y-133180499D01*
X115571585Y-133200183D01*
X115592227Y-133216818D01*
X116178181Y-133802771D01*
X116211666Y-133864094D01*
X116214500Y-133890452D01*
X116214500Y-139389546D01*
X116194815Y-139456585D01*
X116178181Y-139477227D01*
X115862179Y-139793228D01*
X115800856Y-139826713D01*
X115731164Y-139821729D01*
X115675231Y-139779857D01*
X115650814Y-139714393D01*
X115650498Y-139705574D01*
X115650499Y-138802128D01*
X115644091Y-138742517D01*
X115630982Y-138707371D01*
X115593797Y-138607671D01*
X115593793Y-138607664D01*
X115507547Y-138492455D01*
X115507544Y-138492452D01*
X115392335Y-138406206D01*
X115392328Y-138406202D01*
X115257482Y-138355908D01*
X115257483Y-138355908D01*
X115197883Y-138349501D01*
X115197881Y-138349500D01*
X115197873Y-138349500D01*
X115197864Y-138349500D01*
X113402129Y-138349500D01*
X113402123Y-138349501D01*
X113342516Y-138355908D01*
X113207671Y-138406202D01*
X113207664Y-138406206D01*
X113092455Y-138492452D01*
X113092452Y-138492455D01*
X113006206Y-138607664D01*
X113006202Y-138607671D01*
X112955908Y-138742517D01*
X112949501Y-138802116D01*
X112949501Y-138802123D01*
X112949500Y-138802135D01*
X112949500Y-138950500D01*
X112929815Y-139017539D01*
X112877011Y-139063294D01*
X112825500Y-139074500D01*
X112070453Y-139074500D01*
X112003414Y-139054815D01*
X111982772Y-139038181D01*
X111971818Y-139027227D01*
X111938333Y-138965904D01*
X111935500Y-138939555D01*
X111935499Y-118236846D01*
X111955185Y-118169808D01*
X111971814Y-118149171D01*
X117089167Y-113031818D01*
X117150490Y-112998334D01*
X117176848Y-112995500D01*
X121775500Y-112995500D01*
X121842539Y-113015185D01*
G37*
G04 #@! TD.AperFunction*
G04 #@! TA.AperFunction,Conductor*
G36*
X125592539Y-101070185D02*
G01*
X125638294Y-101122989D01*
X125649500Y-101174500D01*
X125649500Y-102497870D01*
X125649501Y-102497876D01*
X125655908Y-102557483D01*
X125706202Y-102692328D01*
X125706206Y-102692335D01*
X125792452Y-102807544D01*
X125792455Y-102807547D01*
X125907664Y-102893793D01*
X125907671Y-102893797D01*
X126042517Y-102944091D01*
X126042516Y-102944091D01*
X126049444Y-102944835D01*
X126102127Y-102950500D01*
X127414546Y-102950499D01*
X127481585Y-102970184D01*
X127502227Y-102986818D01*
X128428181Y-103912771D01*
X128461666Y-103974094D01*
X128464500Y-104000452D01*
X128464499Y-126472255D01*
X128462776Y-126487872D01*
X128463061Y-126487899D01*
X128462326Y-126495665D01*
X128464500Y-126564814D01*
X128464500Y-126594343D01*
X128464501Y-126594360D01*
X128465368Y-126601231D01*
X128465826Y-126607050D01*
X128467290Y-126653624D01*
X128467291Y-126653627D01*
X128472880Y-126672867D01*
X128476824Y-126691911D01*
X128479336Y-126711792D01*
X128496490Y-126755119D01*
X128498382Y-126760647D01*
X128511381Y-126805388D01*
X128521580Y-126822634D01*
X128530138Y-126840103D01*
X128537514Y-126858732D01*
X128564898Y-126896423D01*
X128568106Y-126901307D01*
X128591827Y-126941416D01*
X128591833Y-126941424D01*
X128605990Y-126955580D01*
X128618628Y-126970376D01*
X128630405Y-126986586D01*
X128630406Y-126986587D01*
X128666309Y-127016288D01*
X128670620Y-127020210D01*
X129310672Y-127660263D01*
X129520586Y-127870177D01*
X129554071Y-127931500D01*
X129552680Y-127989949D01*
X129534367Y-128058296D01*
X129534364Y-128058313D01*
X129514532Y-128284999D01*
X129514532Y-128285001D01*
X129534364Y-128511686D01*
X129534366Y-128511697D01*
X129593258Y-128731488D01*
X129593261Y-128731497D01*
X129689431Y-128937732D01*
X129689432Y-128937734D01*
X129819954Y-129124141D01*
X129980858Y-129285045D01*
X130110050Y-129375505D01*
X130167266Y-129415568D01*
X130225278Y-129442619D01*
X130277713Y-129488788D01*
X130296866Y-129555982D01*
X130276651Y-129622863D01*
X130225277Y-129667380D01*
X130167268Y-129694430D01*
X130167265Y-129694432D01*
X129980858Y-129824954D01*
X129819954Y-129985858D01*
X129689432Y-130172265D01*
X129689431Y-130172267D01*
X129593261Y-130378502D01*
X129593258Y-130378511D01*
X129534366Y-130598302D01*
X129534364Y-130598313D01*
X129514532Y-130824998D01*
X129514532Y-130825001D01*
X129534364Y-131051686D01*
X129534366Y-131051697D01*
X129593258Y-131271488D01*
X129593261Y-131271497D01*
X129689431Y-131477732D01*
X129689432Y-131477734D01*
X129819954Y-131664141D01*
X129980859Y-131825046D01*
X130141622Y-131937613D01*
X130185247Y-131992190D01*
X130194499Y-132039188D01*
X130194500Y-135379546D01*
X130174815Y-135446585D01*
X130158181Y-135467227D01*
X126022180Y-139603228D01*
X125960857Y-139636713D01*
X125891165Y-139631729D01*
X125835232Y-139589857D01*
X125810815Y-139524393D01*
X125810499Y-139515547D01*
X125810499Y-138802129D01*
X125810498Y-138802123D01*
X125810497Y-138802116D01*
X125804091Y-138742517D01*
X125790982Y-138707371D01*
X125753797Y-138607671D01*
X125753793Y-138607664D01*
X125667547Y-138492455D01*
X125667544Y-138492452D01*
X125552335Y-138406206D01*
X125552328Y-138406202D01*
X125417482Y-138355908D01*
X125417483Y-138355908D01*
X125357883Y-138349501D01*
X125357881Y-138349500D01*
X125357873Y-138349500D01*
X125357865Y-138349500D01*
X125209500Y-138349500D01*
X125142461Y-138329815D01*
X125096706Y-138277011D01*
X125085500Y-138225500D01*
X125085500Y-132167738D01*
X125087224Y-132152124D01*
X125086938Y-132152097D01*
X125087672Y-132144334D01*
X125085500Y-132075203D01*
X125085500Y-132045651D01*
X125085500Y-132045650D01*
X125084629Y-132038759D01*
X125084172Y-132032945D01*
X125083026Y-131996479D01*
X125082709Y-131986373D01*
X125077122Y-131967144D01*
X125073174Y-131948084D01*
X125070664Y-131928208D01*
X125070663Y-131928206D01*
X125070663Y-131928204D01*
X125053512Y-131884887D01*
X125051619Y-131879358D01*
X125038618Y-131834609D01*
X125038616Y-131834606D01*
X125028423Y-131817371D01*
X125019861Y-131799894D01*
X125012487Y-131781270D01*
X125012486Y-131781268D01*
X124985079Y-131743545D01*
X124981888Y-131738686D01*
X124958172Y-131698583D01*
X124958165Y-131698574D01*
X124944006Y-131684415D01*
X124931368Y-131669619D01*
X124927388Y-131664141D01*
X124919594Y-131653413D01*
X124883688Y-131623709D01*
X124879376Y-131619786D01*
X124499413Y-131239822D01*
X124465928Y-131178499D01*
X124467319Y-131120048D01*
X124474821Y-131092050D01*
X124485635Y-131051692D01*
X124505468Y-130825000D01*
X124485635Y-130598308D01*
X124426739Y-130378504D01*
X124330568Y-130172266D01*
X124200047Y-129985861D01*
X124200045Y-129985858D01*
X124039141Y-129824954D01*
X123852735Y-129694433D01*
X123852736Y-129694433D01*
X123852734Y-129694432D01*
X123794722Y-129667380D01*
X123742284Y-129621208D01*
X123723133Y-129554014D01*
X123743349Y-129487133D01*
X123794721Y-129442619D01*
X123852734Y-129415568D01*
X124039139Y-129285047D01*
X124200047Y-129124139D01*
X124330568Y-128937734D01*
X124426739Y-128731496D01*
X124485635Y-128511692D01*
X124505468Y-128285000D01*
X124485635Y-128058308D01*
X124426739Y-127838504D01*
X124330568Y-127632266D01*
X124206913Y-127455667D01*
X124200045Y-127445858D01*
X124175064Y-127420877D01*
X124141579Y-127359554D01*
X124146563Y-127289862D01*
X124175062Y-127245517D01*
X125743786Y-125676793D01*
X125756048Y-125666971D01*
X125755865Y-125666750D01*
X125761867Y-125661783D01*
X125761877Y-125661777D01*
X125809241Y-125611339D01*
X125830120Y-125590461D01*
X125834373Y-125584977D01*
X125838150Y-125580554D01*
X125870062Y-125546573D01*
X125879714Y-125529014D01*
X125890389Y-125512763D01*
X125902674Y-125496927D01*
X125921186Y-125454143D01*
X125923742Y-125448926D01*
X125946197Y-125408083D01*
X125951180Y-125388671D01*
X125957477Y-125370282D01*
X125965438Y-125351886D01*
X125972729Y-125305844D01*
X125973906Y-125300157D01*
X125985500Y-125255010D01*
X125985499Y-125234977D01*
X125987027Y-125215574D01*
X125990159Y-125195799D01*
X125990160Y-125195797D01*
X125985775Y-125149406D01*
X125985500Y-125143568D01*
X125985500Y-105122737D01*
X125987224Y-105107124D01*
X125986938Y-105107097D01*
X125987671Y-105099335D01*
X125987672Y-105099332D01*
X125985499Y-105030203D01*
X125985500Y-105000650D01*
X125984629Y-104993758D01*
X125984172Y-104987946D01*
X125982709Y-104941372D01*
X125977122Y-104922144D01*
X125973174Y-104903084D01*
X125970664Y-104883208D01*
X125953507Y-104839875D01*
X125951619Y-104834359D01*
X125938619Y-104789612D01*
X125928418Y-104772363D01*
X125919860Y-104754894D01*
X125912486Y-104736268D01*
X125912483Y-104736264D01*
X125912483Y-104736263D01*
X125885098Y-104698571D01*
X125881890Y-104693687D01*
X125858172Y-104653582D01*
X125858163Y-104653571D01*
X125844005Y-104639413D01*
X125831370Y-104624620D01*
X125820834Y-104610120D01*
X125819594Y-104608413D01*
X125783693Y-104578713D01*
X125779381Y-104574790D01*
X124960803Y-103756212D01*
X124950980Y-103743950D01*
X124950759Y-103744134D01*
X124945786Y-103738123D01*
X124895364Y-103690773D01*
X124884919Y-103680328D01*
X124874475Y-103669883D01*
X124868986Y-103665625D01*
X124864561Y-103661847D01*
X124830582Y-103629938D01*
X124830580Y-103629936D01*
X124830577Y-103629935D01*
X124813029Y-103620288D01*
X124796763Y-103609604D01*
X124780933Y-103597325D01*
X124738168Y-103578818D01*
X124732922Y-103576248D01*
X124692093Y-103553803D01*
X124692092Y-103553802D01*
X124672693Y-103548822D01*
X124654281Y-103542518D01*
X124635898Y-103534562D01*
X124635892Y-103534560D01*
X124589874Y-103527272D01*
X124584152Y-103526087D01*
X124539021Y-103514500D01*
X124539019Y-103514500D01*
X124518984Y-103514500D01*
X124499586Y-103512973D01*
X124492162Y-103511797D01*
X124479805Y-103509840D01*
X124479804Y-103509840D01*
X124433416Y-103514225D01*
X124427578Y-103514500D01*
X106990453Y-103514500D01*
X106923414Y-103494815D01*
X106902772Y-103478181D01*
X106591931Y-103167340D01*
X106558446Y-103106017D01*
X106563430Y-103036325D01*
X106605302Y-102980392D01*
X106670766Y-102955975D01*
X106679612Y-102955659D01*
X106680001Y-102955659D01*
X106738966Y-102950500D01*
X106915408Y-102935063D01*
X107143663Y-102873903D01*
X107357830Y-102774035D01*
X107551401Y-102638495D01*
X107718495Y-102471401D01*
X107848730Y-102285405D01*
X107903307Y-102241781D01*
X107972805Y-102234587D01*
X108035160Y-102266110D01*
X108051879Y-102285405D01*
X108181890Y-102471078D01*
X108348917Y-102638105D01*
X108542421Y-102773600D01*
X108756507Y-102873429D01*
X108756516Y-102873433D01*
X108970000Y-102930634D01*
X108970000Y-102212301D01*
X108989685Y-102145262D01*
X109042489Y-102099507D01*
X109111647Y-102089563D01*
X109184237Y-102100000D01*
X109184238Y-102100000D01*
X109255762Y-102100000D01*
X109255763Y-102100000D01*
X109328353Y-102089563D01*
X109397512Y-102099507D01*
X109450315Y-102145262D01*
X109470000Y-102212301D01*
X109470000Y-102930633D01*
X109683483Y-102873433D01*
X109683492Y-102873429D01*
X109897578Y-102773600D01*
X110091082Y-102638105D01*
X110258105Y-102471082D01*
X110393600Y-102277578D01*
X110493429Y-102063492D01*
X110493432Y-102063486D01*
X110550636Y-101850000D01*
X109833347Y-101850000D01*
X109766308Y-101830315D01*
X109720553Y-101777511D01*
X109710609Y-101708353D01*
X109714369Y-101691067D01*
X109720000Y-101671888D01*
X109720000Y-101528111D01*
X109714369Y-101508933D01*
X109714370Y-101439064D01*
X109752145Y-101380286D01*
X109815701Y-101351262D01*
X109833347Y-101350000D01*
X110550636Y-101350000D01*
X110550635Y-101349999D01*
X110512210Y-101206594D01*
X110513873Y-101136744D01*
X110553035Y-101078881D01*
X110617264Y-101051377D01*
X110631985Y-101050500D01*
X125525500Y-101050500D01*
X125592539Y-101070185D01*
G37*
G04 #@! TD.AperFunction*
G04 #@! TA.AperFunction,Conductor*
G36*
X122052851Y-118770185D02*
G01*
X122087387Y-118803377D01*
X122199954Y-118964141D01*
X122360858Y-119125045D01*
X122360861Y-119125047D01*
X122547266Y-119255568D01*
X122605865Y-119282893D01*
X122658305Y-119329065D01*
X122677457Y-119396258D01*
X122657242Y-119463139D01*
X122605867Y-119507657D01*
X122547515Y-119534867D01*
X122361179Y-119665342D01*
X122200342Y-119826179D01*
X122069865Y-120012517D01*
X121973734Y-120218673D01*
X121973730Y-120218682D01*
X121921127Y-120414999D01*
X121921128Y-120415000D01*
X122689424Y-120415000D01*
X122756463Y-120434685D01*
X122802218Y-120487489D01*
X122812162Y-120556647D01*
X122811897Y-120558397D01*
X122795014Y-120664996D01*
X122795014Y-120665003D01*
X122811897Y-120771603D01*
X122802942Y-120840896D01*
X122757946Y-120894348D01*
X122691194Y-120914987D01*
X122689424Y-120915000D01*
X121921128Y-120915000D01*
X121973730Y-121111317D01*
X121973734Y-121111326D01*
X122069865Y-121317482D01*
X122200342Y-121503820D01*
X122361179Y-121664657D01*
X122547517Y-121795134D01*
X122606457Y-121822618D01*
X122658896Y-121868790D01*
X122678048Y-121935984D01*
X122657832Y-122002865D01*
X122606457Y-122047382D01*
X122547517Y-122074865D01*
X122361179Y-122205342D01*
X122200342Y-122366179D01*
X122069865Y-122552517D01*
X121973734Y-122758673D01*
X121973730Y-122758682D01*
X121921127Y-122954999D01*
X121921128Y-122955000D01*
X122689424Y-122955000D01*
X122756463Y-122974685D01*
X122802218Y-123027489D01*
X122812162Y-123096647D01*
X122811897Y-123098397D01*
X122795014Y-123204996D01*
X122795014Y-123205003D01*
X122811897Y-123311603D01*
X122802942Y-123380896D01*
X122757946Y-123434348D01*
X122691194Y-123454987D01*
X122689424Y-123455000D01*
X121921128Y-123455000D01*
X121973730Y-123651317D01*
X121973734Y-123651326D01*
X122069865Y-123857482D01*
X122200342Y-124043820D01*
X122361179Y-124204657D01*
X122547518Y-124335134D01*
X122547520Y-124335135D01*
X122605865Y-124362342D01*
X122658305Y-124408514D01*
X122677457Y-124475707D01*
X122657242Y-124542589D01*
X122605867Y-124587105D01*
X122547268Y-124614431D01*
X122547264Y-124614433D01*
X122360858Y-124744954D01*
X122199954Y-124905858D01*
X122069432Y-125092265D01*
X122069431Y-125092267D01*
X121973261Y-125298502D01*
X121973258Y-125298511D01*
X121914366Y-125518302D01*
X121914364Y-125518313D01*
X121894959Y-125740115D01*
X121894532Y-125745000D01*
X121914364Y-125971686D01*
X121914365Y-125971691D01*
X121914366Y-125971697D01*
X121932680Y-126040048D01*
X121931017Y-126109897D01*
X121900586Y-126159821D01*
X121722226Y-126338182D01*
X121660906Y-126371666D01*
X121634547Y-126374500D01*
X120594188Y-126374500D01*
X120527149Y-126354815D01*
X120492613Y-126321623D01*
X120380045Y-126160858D01*
X120219141Y-125999954D01*
X120032734Y-125869432D01*
X120032733Y-125869432D01*
X120017614Y-125862381D01*
X119965176Y-125816211D01*
X119946023Y-125749018D01*
X119966238Y-125682136D01*
X120017614Y-125637618D01*
X120032734Y-125630568D01*
X120219139Y-125500047D01*
X120380047Y-125339139D01*
X120510568Y-125152734D01*
X120606739Y-124946496D01*
X120665635Y-124726692D01*
X120684158Y-124514974D01*
X120685468Y-124500001D01*
X120685468Y-124499998D01*
X120665635Y-124273313D01*
X120665635Y-124273308D01*
X120606739Y-124053504D01*
X120510568Y-123847266D01*
X120380047Y-123660861D01*
X120380045Y-123660858D01*
X120219141Y-123499954D01*
X120032734Y-123369432D01*
X120032732Y-123369431D01*
X119826497Y-123273261D01*
X119826488Y-123273258D01*
X119606697Y-123214366D01*
X119606687Y-123214364D01*
X119443692Y-123200104D01*
X119378624Y-123174651D01*
X119337645Y-123118060D01*
X119330500Y-123076576D01*
X119330500Y-120365452D01*
X119350185Y-120298413D01*
X119366819Y-120277771D01*
X120857772Y-118786819D01*
X120919095Y-118753334D01*
X120945453Y-118750500D01*
X121985812Y-118750500D01*
X122052851Y-118770185D01*
G37*
G04 #@! TD.AperFunction*
G04 #@! TA.AperFunction,Conductor*
G36*
X133121587Y-118770185D02*
G01*
X133142229Y-118786819D01*
X133958181Y-119602771D01*
X133991666Y-119664094D01*
X133994500Y-119690452D01*
X133994499Y-123285811D01*
X133974814Y-123352850D01*
X133941623Y-123387386D01*
X133780856Y-123499956D01*
X133619954Y-123660858D01*
X133489432Y-123847265D01*
X133489431Y-123847267D01*
X133393261Y-124053502D01*
X133393258Y-124053511D01*
X133334366Y-124273302D01*
X133334364Y-124273313D01*
X133314532Y-124499998D01*
X133314532Y-124500001D01*
X133334364Y-124726686D01*
X133334366Y-124726697D01*
X133393258Y-124946488D01*
X133393261Y-124946497D01*
X133489431Y-125152732D01*
X133489432Y-125152734D01*
X133619954Y-125339141D01*
X133780858Y-125500045D01*
X133780861Y-125500047D01*
X133967266Y-125630568D01*
X133982387Y-125637619D01*
X134034825Y-125683791D01*
X134053976Y-125750985D01*
X134033760Y-125817866D01*
X133982387Y-125862380D01*
X133967266Y-125869432D01*
X133967264Y-125869433D01*
X133780858Y-125999954D01*
X133619954Y-126160858D01*
X133507387Y-126321623D01*
X133452811Y-126365248D01*
X133405812Y-126374500D01*
X132385452Y-126374500D01*
X132318413Y-126354815D01*
X132297771Y-126338181D01*
X132119413Y-126159822D01*
X132085928Y-126098499D01*
X132087319Y-126040048D01*
X132095744Y-126008604D01*
X132105635Y-125971692D01*
X132125031Y-125750000D01*
X132125468Y-125745001D01*
X132125468Y-125744998D01*
X132115456Y-125630566D01*
X132105635Y-125518308D01*
X132048711Y-125305865D01*
X132046741Y-125298511D01*
X132046738Y-125298502D01*
X131950568Y-125092266D01*
X131820047Y-124905861D01*
X131820045Y-124905858D01*
X131659141Y-124744954D01*
X131472734Y-124614432D01*
X131472732Y-124614431D01*
X131461275Y-124609088D01*
X131414132Y-124587105D01*
X131361694Y-124540934D01*
X131342542Y-124473740D01*
X131362758Y-124406859D01*
X131414134Y-124362341D01*
X131472484Y-124335132D01*
X131658820Y-124204657D01*
X131819657Y-124043820D01*
X131950134Y-123857482D01*
X132046265Y-123651326D01*
X132046269Y-123651317D01*
X132098872Y-123455000D01*
X131330576Y-123455000D01*
X131263537Y-123435315D01*
X131217782Y-123382511D01*
X131207838Y-123313353D01*
X131208103Y-123311603D01*
X131224986Y-123205003D01*
X131224986Y-123204996D01*
X131208103Y-123098397D01*
X131217058Y-123029104D01*
X131262054Y-122975652D01*
X131328806Y-122955013D01*
X131330576Y-122955000D01*
X132098872Y-122955000D01*
X132098872Y-122954999D01*
X132046269Y-122758682D01*
X132046265Y-122758673D01*
X131950134Y-122552517D01*
X131819657Y-122366179D01*
X131658820Y-122205342D01*
X131472481Y-122074865D01*
X131472479Y-122074864D01*
X131413543Y-122047382D01*
X131361103Y-122001210D01*
X131341951Y-121934017D01*
X131362166Y-121867136D01*
X131413543Y-121822618D01*
X131472479Y-121795135D01*
X131472481Y-121795134D01*
X131658820Y-121664657D01*
X131819657Y-121503820D01*
X131950134Y-121317482D01*
X132046265Y-121111326D01*
X132046269Y-121111317D01*
X132098872Y-120915000D01*
X131330576Y-120915000D01*
X131263537Y-120895315D01*
X131217782Y-120842511D01*
X131207838Y-120773353D01*
X131208103Y-120771603D01*
X131224986Y-120665003D01*
X131224986Y-120664996D01*
X131208103Y-120558397D01*
X131217058Y-120489104D01*
X131262054Y-120435652D01*
X131328806Y-120415013D01*
X131330576Y-120415000D01*
X132098872Y-120415000D01*
X132098872Y-120414999D01*
X132046269Y-120218682D01*
X132046265Y-120218673D01*
X131950134Y-120012517D01*
X131819657Y-119826179D01*
X131658820Y-119665342D01*
X131472482Y-119534865D01*
X131414133Y-119507657D01*
X131361694Y-119461484D01*
X131342542Y-119394291D01*
X131362758Y-119327410D01*
X131414129Y-119282895D01*
X131472734Y-119255568D01*
X131659139Y-119125047D01*
X131820047Y-118964139D01*
X131932612Y-118803377D01*
X131987189Y-118759752D01*
X132034188Y-118750500D01*
X133054548Y-118750500D01*
X133121587Y-118770185D01*
G37*
G04 #@! TD.AperFunction*
G04 #@! TA.AperFunction,Conductor*
G36*
X123093331Y-121053091D02*
G01*
X123125699Y-121058218D01*
X123168515Y-121065000D01*
X123168519Y-121065000D01*
X123231485Y-121065000D01*
X123274300Y-121058218D01*
X123306602Y-121053102D01*
X123375894Y-121062056D01*
X123429347Y-121107052D01*
X123449987Y-121173803D01*
X123450000Y-121175575D01*
X123450000Y-122694424D01*
X123430315Y-122761463D01*
X123377511Y-122807218D01*
X123308353Y-122817162D01*
X123306602Y-122816897D01*
X123231486Y-122805000D01*
X123231481Y-122805000D01*
X123168519Y-122805000D01*
X123168514Y-122805000D01*
X123093398Y-122816897D01*
X123024104Y-122807942D01*
X122970652Y-122762946D01*
X122950013Y-122696194D01*
X122950000Y-122694424D01*
X122950000Y-121175575D01*
X122969685Y-121108536D01*
X123022489Y-121062781D01*
X123091647Y-121052837D01*
X123093331Y-121053091D01*
G37*
G04 #@! TD.AperFunction*
G04 #@! TA.AperFunction,Conductor*
G36*
X130713331Y-121053091D02*
G01*
X130745699Y-121058218D01*
X130788515Y-121065000D01*
X130788519Y-121065000D01*
X130851485Y-121065000D01*
X130894300Y-121058218D01*
X130926602Y-121053102D01*
X130995894Y-121062056D01*
X131049347Y-121107052D01*
X131069987Y-121173803D01*
X131070000Y-121175575D01*
X131070000Y-121865000D01*
X131069999Y-122694424D01*
X131050314Y-122761464D01*
X130997510Y-122807218D01*
X130928352Y-122817162D01*
X130926601Y-122816897D01*
X130851486Y-122805000D01*
X130851481Y-122805000D01*
X130788519Y-122805000D01*
X130788514Y-122805000D01*
X130713398Y-122816897D01*
X130644104Y-122807942D01*
X130590652Y-122762946D01*
X130570013Y-122696194D01*
X130570000Y-122694424D01*
X130570000Y-121175575D01*
X130589685Y-121108536D01*
X130642489Y-121062781D01*
X130711647Y-121052837D01*
X130713331Y-121053091D01*
G37*
G04 #@! TD.AperFunction*
G04 #@! TA.AperFunction,Conductor*
G36*
X139642539Y-96540185D02*
G01*
X139688294Y-96592989D01*
X139699500Y-96644500D01*
X139699500Y-147195500D01*
X139679815Y-147262539D01*
X139627011Y-147308294D01*
X139575500Y-147319500D01*
X91564500Y-147319500D01*
X91497461Y-147299815D01*
X91451706Y-147247011D01*
X91440500Y-147195500D01*
X91440500Y-134674979D01*
X97555801Y-134674979D01*
X97585291Y-134892684D01*
X97585292Y-134892688D01*
X97653180Y-135101627D01*
X97757284Y-135295084D01*
X97757286Y-135295087D01*
X97828227Y-135384045D01*
X97894263Y-135466851D01*
X98059709Y-135611396D01*
X98137003Y-135657577D01*
X98248297Y-135724073D01*
X98248299Y-135724073D01*
X98248305Y-135724077D01*
X98375969Y-135771990D01*
X98377815Y-135772683D01*
X98433663Y-135814669D01*
X98457946Y-135880183D01*
X98442955Y-135948425D01*
X98393448Y-135997729D01*
X98367234Y-136008307D01*
X98349597Y-136013174D01*
X98349586Y-136013178D01*
X98151737Y-136108456D01*
X98151727Y-136108462D01*
X97974075Y-136237534D01*
X97974068Y-136237540D01*
X97822309Y-136396269D01*
X97701331Y-136579543D01*
X97615020Y-136781479D01*
X97615019Y-136781482D01*
X97585686Y-136909999D01*
X97585687Y-136910000D01*
X98446653Y-136910000D01*
X98513692Y-136929685D01*
X98559447Y-136982489D01*
X98569391Y-137051647D01*
X98565631Y-137068933D01*
X98560000Y-137088111D01*
X98560000Y-137231888D01*
X98565631Y-137251067D01*
X98565630Y-137320936D01*
X98527855Y-137379714D01*
X98464299Y-137408738D01*
X98446653Y-137410000D01*
X97582724Y-137410000D01*
X97585781Y-137432575D01*
X97585782Y-137432578D01*
X97653642Y-137641430D01*
X97757703Y-137834808D01*
X97757705Y-137834811D01*
X97894625Y-138006504D01*
X98059997Y-138150984D01*
X98060005Y-138150990D01*
X98248515Y-138263621D01*
X98248520Y-138263623D01*
X98454123Y-138340788D01*
X98670194Y-138380000D01*
X98810000Y-138380000D01*
X98810000Y-137772301D01*
X98829685Y-137705262D01*
X98882489Y-137659507D01*
X98951647Y-137649563D01*
X99024237Y-137660000D01*
X99024238Y-137660000D01*
X99095762Y-137660000D01*
X99095763Y-137660000D01*
X99168353Y-137649563D01*
X99237512Y-137659507D01*
X99290315Y-137705262D01*
X99310000Y-137772301D01*
X99310000Y-138380000D01*
X99394781Y-138380000D01*
X99394784Y-138379999D01*
X99558720Y-138365246D01*
X99770400Y-138306826D01*
X99770413Y-138306821D01*
X99968262Y-138211543D01*
X99968272Y-138211537D01*
X100145924Y-138082465D01*
X100145931Y-138082459D01*
X100297690Y-137923730D01*
X100418668Y-137740456D01*
X100504979Y-137538520D01*
X100504980Y-137538517D01*
X100534313Y-137410000D01*
X99673347Y-137410000D01*
X99606308Y-137390315D01*
X99560553Y-137337511D01*
X99550609Y-137268353D01*
X99554369Y-137251067D01*
X99560000Y-137231888D01*
X99560000Y-137088111D01*
X99554369Y-137068933D01*
X99554370Y-136999064D01*
X99592145Y-136940286D01*
X99655701Y-136911262D01*
X99673347Y-136910000D01*
X100537276Y-136910000D01*
X100534218Y-136887424D01*
X100534217Y-136887421D01*
X100466357Y-136678569D01*
X100362296Y-136485191D01*
X100362294Y-136485188D01*
X100225374Y-136313495D01*
X100060002Y-136169015D01*
X100059994Y-136169009D01*
X99871484Y-136056378D01*
X99871479Y-136056375D01*
X99742161Y-136007841D01*
X99686313Y-135965855D01*
X99662030Y-135900341D01*
X99677022Y-135832098D01*
X99726528Y-135782794D01*
X99752744Y-135772216D01*
X99770586Y-135767293D01*
X99968524Y-135671971D01*
X99980301Y-135663415D01*
X100146254Y-135542843D01*
X100146260Y-135542839D01*
X100298082Y-135384045D01*
X100419111Y-135200694D01*
X100505456Y-134998680D01*
X100554343Y-134784494D01*
X100564199Y-134565021D01*
X100534709Y-134347316D01*
X100466820Y-134138374D01*
X100362714Y-133944913D01*
X100225737Y-133773149D01*
X100060291Y-133628604D01*
X100033595Y-133612653D01*
X99871702Y-133515926D01*
X99871696Y-133515923D01*
X99742980Y-133467615D01*
X99687132Y-133425629D01*
X99662849Y-133360115D01*
X99677841Y-133291873D01*
X99727347Y-133242568D01*
X99753563Y-133231990D01*
X99770586Y-133227293D01*
X99968524Y-133131971D01*
X99979781Y-133123793D01*
X100098488Y-133037547D01*
X100146260Y-133002839D01*
X100298082Y-132844045D01*
X100419111Y-132660694D01*
X100505456Y-132458680D01*
X100554343Y-132244494D01*
X100564199Y-132025021D01*
X100534709Y-131807316D01*
X100466820Y-131598374D01*
X100362714Y-131404913D01*
X100225737Y-131233149D01*
X100060291Y-131088604D01*
X100033595Y-131072653D01*
X99871702Y-130975926D01*
X99871696Y-130975923D01*
X99742980Y-130927615D01*
X99687132Y-130885629D01*
X99662849Y-130820115D01*
X99677841Y-130751873D01*
X99727347Y-130702568D01*
X99753563Y-130691990D01*
X99770586Y-130687293D01*
X99968524Y-130591971D01*
X100146260Y-130462839D01*
X100298082Y-130304045D01*
X100419111Y-130120694D01*
X100505456Y-129918680D01*
X100554343Y-129704494D01*
X100564199Y-129485021D01*
X100534709Y-129267316D01*
X100466820Y-129058374D01*
X100362714Y-128864913D01*
X100225737Y-128693149D01*
X100060291Y-128548604D01*
X100033595Y-128532653D01*
X99871702Y-128435926D01*
X99871696Y-128435923D01*
X99742980Y-128387615D01*
X99687132Y-128345629D01*
X99662849Y-128280115D01*
X99677841Y-128211873D01*
X99727347Y-128162568D01*
X99753563Y-128151990D01*
X99770586Y-128147293D01*
X99968524Y-128051971D01*
X100039995Y-128000045D01*
X100072693Y-127976288D01*
X100146260Y-127922839D01*
X100298082Y-127764045D01*
X100419111Y-127580694D01*
X100505456Y-127378680D01*
X100554343Y-127164494D01*
X100564199Y-126945021D01*
X100534709Y-126727316D01*
X100466820Y-126518374D01*
X100362714Y-126324913D01*
X100225737Y-126153149D01*
X100060291Y-126008604D01*
X100033595Y-125992653D01*
X99871702Y-125895926D01*
X99871696Y-125895923D01*
X99742980Y-125847615D01*
X99687132Y-125805629D01*
X99662849Y-125740115D01*
X99677841Y-125671873D01*
X99727347Y-125622568D01*
X99753563Y-125611990D01*
X99770586Y-125607293D01*
X99968524Y-125511971D01*
X99989231Y-125496927D01*
X100111506Y-125408089D01*
X100146260Y-125382839D01*
X100298082Y-125224045D01*
X100419111Y-125040694D01*
X100505456Y-124838680D01*
X100554343Y-124624494D01*
X100564199Y-124405021D01*
X100534709Y-124187316D01*
X100466820Y-123978374D01*
X100362714Y-123784913D01*
X100225737Y-123613149D01*
X100060291Y-123468604D01*
X99981422Y-123421482D01*
X99896840Y-123370946D01*
X99849387Y-123319664D01*
X99837192Y-123250866D01*
X99864127Y-123186397D01*
X99921641Y-123146725D01*
X99960439Y-123140499D01*
X100107872Y-123140499D01*
X100167483Y-123134091D01*
X100302331Y-123083796D01*
X100417546Y-122997546D01*
X100503796Y-122882331D01*
X100554091Y-122747483D01*
X100560500Y-122687873D01*
X100560499Y-121152128D01*
X100554091Y-121092517D01*
X100546867Y-121073149D01*
X100503797Y-120957671D01*
X100503793Y-120957664D01*
X100417547Y-120842455D01*
X100417544Y-120842452D01*
X100302335Y-120756206D01*
X100302328Y-120756202D01*
X100167482Y-120705908D01*
X100167483Y-120705908D01*
X100107883Y-120699501D01*
X100107881Y-120699500D01*
X100107873Y-120699500D01*
X100107864Y-120699500D01*
X98012129Y-120699500D01*
X98012123Y-120699501D01*
X97952516Y-120705908D01*
X97817671Y-120756202D01*
X97817664Y-120756206D01*
X97702455Y-120842452D01*
X97702452Y-120842455D01*
X97616206Y-120957664D01*
X97616202Y-120957671D01*
X97565908Y-121092517D01*
X97560526Y-121142584D01*
X97559501Y-121152123D01*
X97559500Y-121152135D01*
X97559500Y-122687870D01*
X97559501Y-122687876D01*
X97565908Y-122747483D01*
X97616202Y-122882328D01*
X97616206Y-122882335D01*
X97702452Y-122997544D01*
X97702455Y-122997547D01*
X97817664Y-123083793D01*
X97817671Y-123083797D01*
X97952517Y-123134091D01*
X97952516Y-123134091D01*
X97959444Y-123134835D01*
X98012127Y-123140500D01*
X98163728Y-123140499D01*
X98230765Y-123160183D01*
X98276520Y-123212987D01*
X98286464Y-123282145D01*
X98257439Y-123345701D01*
X98217529Y-123376219D01*
X98151472Y-123408031D01*
X98151469Y-123408032D01*
X97973745Y-123537156D01*
X97973738Y-123537162D01*
X97821916Y-123695956D01*
X97700890Y-123879302D01*
X97614544Y-124081321D01*
X97614542Y-124081327D01*
X97565657Y-124295505D01*
X97565657Y-124295506D01*
X97563877Y-124335134D01*
X97556474Y-124500001D01*
X97555801Y-124514979D01*
X97584480Y-124726696D01*
X97585292Y-124732688D01*
X97653180Y-124941627D01*
X97757284Y-125135084D01*
X97757286Y-125135087D01*
X97893476Y-125305865D01*
X97894263Y-125306851D01*
X98059709Y-125451396D01*
X98135915Y-125496927D01*
X98248297Y-125564073D01*
X98248299Y-125564073D01*
X98248305Y-125564077D01*
X98377019Y-125612384D01*
X98432867Y-125654369D01*
X98457150Y-125719884D01*
X98442159Y-125788126D01*
X98392652Y-125837430D01*
X98366439Y-125848008D01*
X98349418Y-125852705D01*
X98349410Y-125852708D01*
X98151479Y-125948026D01*
X98151469Y-125948032D01*
X97973745Y-126077156D01*
X97973738Y-126077162D01*
X97821916Y-126235956D01*
X97700890Y-126419302D01*
X97658546Y-126518372D01*
X97620644Y-126607050D01*
X97614544Y-126621321D01*
X97614542Y-126621327D01*
X97565657Y-126835505D01*
X97565657Y-126835508D01*
X97555947Y-127051736D01*
X97555801Y-127054979D01*
X97570636Y-127164494D01*
X97585292Y-127272688D01*
X97653180Y-127481627D01*
X97757284Y-127675084D01*
X97757286Y-127675087D01*
X97887606Y-127838504D01*
X97894263Y-127846851D01*
X98059709Y-127991396D01*
X98141521Y-128040276D01*
X98248297Y-128104073D01*
X98248299Y-128104073D01*
X98248305Y-128104077D01*
X98377019Y-128152384D01*
X98432867Y-128194369D01*
X98457150Y-128259884D01*
X98442159Y-128328126D01*
X98392652Y-128377430D01*
X98366439Y-128388008D01*
X98349418Y-128392705D01*
X98349410Y-128392708D01*
X98151479Y-128488026D01*
X98151469Y-128488032D01*
X97973745Y-128617156D01*
X97973738Y-128617162D01*
X97821916Y-128775956D01*
X97700890Y-128959302D01*
X97614544Y-129161321D01*
X97614542Y-129161327D01*
X97565657Y-129375505D01*
X97565657Y-129375508D01*
X97557641Y-129554014D01*
X97555801Y-129594979D01*
X97570636Y-129704494D01*
X97585292Y-129812688D01*
X97653180Y-130021627D01*
X97757284Y-130215084D01*
X97757286Y-130215087D01*
X97887606Y-130378504D01*
X97894263Y-130386851D01*
X98059709Y-130531396D01*
X98141521Y-130580276D01*
X98248297Y-130644073D01*
X98248299Y-130644073D01*
X98248305Y-130644077D01*
X98377019Y-130692384D01*
X98432867Y-130734369D01*
X98457150Y-130799884D01*
X98442159Y-130868126D01*
X98392652Y-130917430D01*
X98366439Y-130928008D01*
X98349418Y-130932705D01*
X98349410Y-130932708D01*
X98151479Y-131028026D01*
X98151469Y-131028032D01*
X97973745Y-131157156D01*
X97973738Y-131157162D01*
X97821916Y-131315956D01*
X97700890Y-131499302D01*
X97658546Y-131598372D01*
X97615716Y-131698580D01*
X97614544Y-131701321D01*
X97614542Y-131701327D01*
X97565657Y-131915505D01*
X97565657Y-131915508D01*
X97556004Y-132130468D01*
X97555801Y-132134979D01*
X97584127Y-132344090D01*
X97585292Y-132352688D01*
X97653180Y-132561627D01*
X97757284Y-132755084D01*
X97757286Y-132755087D01*
X97890661Y-132922335D01*
X97894263Y-132926851D01*
X98059709Y-133071396D01*
X98135788Y-133116851D01*
X98248297Y-133184073D01*
X98248299Y-133184073D01*
X98248305Y-133184077D01*
X98377019Y-133232384D01*
X98432867Y-133274369D01*
X98457150Y-133339884D01*
X98442159Y-133408126D01*
X98392652Y-133457430D01*
X98366439Y-133468008D01*
X98349418Y-133472705D01*
X98349410Y-133472708D01*
X98151479Y-133568026D01*
X98151469Y-133568032D01*
X97973745Y-133697156D01*
X97973738Y-133697162D01*
X97821916Y-133855956D01*
X97700890Y-134039302D01*
X97614544Y-134241321D01*
X97614542Y-134241327D01*
X97590352Y-134347311D01*
X97565657Y-134455506D01*
X97555801Y-134674979D01*
X91440500Y-134674979D01*
X91440500Y-101580195D01*
X100969840Y-101580195D01*
X100974225Y-101626583D01*
X100974500Y-101632421D01*
X100974500Y-116757255D01*
X100972775Y-116772872D01*
X100973061Y-116772899D01*
X100972326Y-116780665D01*
X100974500Y-116849814D01*
X100974500Y-116879343D01*
X100974501Y-116879360D01*
X100975368Y-116886231D01*
X100975826Y-116892050D01*
X100977290Y-116938624D01*
X100977291Y-116938627D01*
X100982880Y-116957867D01*
X100986824Y-116976911D01*
X100989038Y-116994431D01*
X100989336Y-116996791D01*
X101006490Y-117040119D01*
X101008382Y-117045647D01*
X101014823Y-117067817D01*
X101021382Y-117090390D01*
X101026944Y-117099796D01*
X101031580Y-117107634D01*
X101040138Y-117125103D01*
X101047514Y-117143732D01*
X101074898Y-117181423D01*
X101078106Y-117186307D01*
X101101827Y-117226416D01*
X101101833Y-117226424D01*
X101115990Y-117240580D01*
X101128628Y-117255376D01*
X101140405Y-117271586D01*
X101140406Y-117271587D01*
X101176309Y-117301288D01*
X101180620Y-117305210D01*
X104240861Y-120365452D01*
X105229795Y-121354386D01*
X105263280Y-121415709D01*
X105258296Y-121485401D01*
X105256136Y-121490800D01*
X105234547Y-121541312D01*
X105234542Y-121541327D01*
X105185657Y-121755505D01*
X105185657Y-121755508D01*
X105175829Y-121974366D01*
X105175801Y-121974979D01*
X105205291Y-122192684D01*
X105205292Y-122192688D01*
X105273180Y-122401627D01*
X105377284Y-122595084D01*
X105377286Y-122595087D01*
X105498817Y-122747483D01*
X105514263Y-122766851D01*
X105679709Y-122911396D01*
X105761521Y-122960276D01*
X105868297Y-123024073D01*
X105868299Y-123024073D01*
X105868305Y-123024077D01*
X105997019Y-123072384D01*
X106052867Y-123114369D01*
X106077150Y-123179884D01*
X106062159Y-123248126D01*
X106012652Y-123297430D01*
X105986439Y-123308008D01*
X105969418Y-123312705D01*
X105969410Y-123312708D01*
X105771479Y-123408026D01*
X105771469Y-123408032D01*
X105593745Y-123537156D01*
X105593738Y-123537162D01*
X105441916Y-123695956D01*
X105320890Y-123879302D01*
X105234544Y-124081321D01*
X105234542Y-124081327D01*
X105185657Y-124295505D01*
X105185657Y-124295506D01*
X105183877Y-124335134D01*
X105176474Y-124500001D01*
X105175801Y-124514979D01*
X105204480Y-124726696D01*
X105205292Y-124732688D01*
X105273180Y-124941627D01*
X105377284Y-125135084D01*
X105377286Y-125135087D01*
X105513476Y-125305865D01*
X105514263Y-125306851D01*
X105679709Y-125451396D01*
X105755915Y-125496927D01*
X105868297Y-125564073D01*
X105868299Y-125564073D01*
X105868305Y-125564077D01*
X105997019Y-125612384D01*
X106052867Y-125654369D01*
X106077150Y-125719884D01*
X106062159Y-125788126D01*
X106012652Y-125837430D01*
X105986439Y-125848008D01*
X105969418Y-125852705D01*
X105969410Y-125852708D01*
X105771479Y-125948026D01*
X105771469Y-125948032D01*
X105593745Y-126077156D01*
X105593738Y-126077162D01*
X105441916Y-126235956D01*
X105320890Y-126419302D01*
X105278546Y-126518372D01*
X105240644Y-126607050D01*
X105234544Y-126621321D01*
X105234542Y-126621327D01*
X105185657Y-126835505D01*
X105185657Y-126835508D01*
X105175947Y-127051736D01*
X105175801Y-127054979D01*
X105190636Y-127164494D01*
X105205292Y-127272688D01*
X105273180Y-127481627D01*
X105377284Y-127675084D01*
X105377286Y-127675087D01*
X105507606Y-127838504D01*
X105514263Y-127846851D01*
X105679709Y-127991396D01*
X105761521Y-128040276D01*
X105868297Y-128104073D01*
X105868299Y-128104073D01*
X105868305Y-128104077D01*
X105997019Y-128152384D01*
X106052867Y-128194369D01*
X106077150Y-128259884D01*
X106062159Y-128328126D01*
X106012652Y-128377430D01*
X105986439Y-128388008D01*
X105969418Y-128392705D01*
X105969410Y-128392708D01*
X105771479Y-128488026D01*
X105771469Y-128488032D01*
X105593745Y-128617156D01*
X105593738Y-128617162D01*
X105441916Y-128775956D01*
X105320890Y-128959302D01*
X105234544Y-129161321D01*
X105234542Y-129161327D01*
X105185657Y-129375505D01*
X105185657Y-129375508D01*
X105177641Y-129554014D01*
X105175801Y-129594979D01*
X105190636Y-129704494D01*
X105205292Y-129812688D01*
X105273180Y-130021627D01*
X105377284Y-130215084D01*
X105377286Y-130215087D01*
X105507606Y-130378504D01*
X105514263Y-130386851D01*
X105679709Y-130531396D01*
X105761521Y-130580276D01*
X105868297Y-130644073D01*
X105868299Y-130644073D01*
X105868305Y-130644077D01*
X105997019Y-130692384D01*
X106052867Y-130734369D01*
X106077150Y-130799884D01*
X106062159Y-130868126D01*
X106012652Y-130917430D01*
X105986439Y-130928008D01*
X105969418Y-130932705D01*
X105969410Y-130932708D01*
X105771479Y-131028026D01*
X105771469Y-131028032D01*
X105593745Y-131157156D01*
X105593738Y-131157162D01*
X105441916Y-131315956D01*
X105320890Y-131499302D01*
X105278546Y-131598372D01*
X105235716Y-131698580D01*
X105234544Y-131701321D01*
X105234542Y-131701327D01*
X105185657Y-131915505D01*
X105185657Y-131915508D01*
X105176004Y-132130468D01*
X105175801Y-132134979D01*
X105204127Y-132344090D01*
X105205292Y-132352688D01*
X105273180Y-132561627D01*
X105377284Y-132755084D01*
X105377286Y-132755087D01*
X105510661Y-132922335D01*
X105514263Y-132926851D01*
X105679709Y-133071396D01*
X105755788Y-133116851D01*
X105868297Y-133184073D01*
X105868299Y-133184073D01*
X105868305Y-133184077D01*
X105997019Y-133232384D01*
X106052867Y-133274369D01*
X106077150Y-133339884D01*
X106062159Y-133408126D01*
X106012652Y-133457430D01*
X105986439Y-133468008D01*
X105969418Y-133472705D01*
X105969410Y-133472708D01*
X105771479Y-133568026D01*
X105771469Y-133568032D01*
X105593745Y-133697156D01*
X105593738Y-133697162D01*
X105441916Y-133855956D01*
X105320890Y-134039302D01*
X105234544Y-134241321D01*
X105234542Y-134241327D01*
X105210352Y-134347311D01*
X105185657Y-134455506D01*
X105175801Y-134674979D01*
X105205291Y-134892684D01*
X105205292Y-134892688D01*
X105273180Y-135101627D01*
X105377284Y-135295084D01*
X105377286Y-135295087D01*
X105448227Y-135384045D01*
X105514263Y-135466851D01*
X105679709Y-135611396D01*
X105757003Y-135657577D01*
X105868297Y-135724073D01*
X105868299Y-135724073D01*
X105868305Y-135724077D01*
X105997019Y-135772384D01*
X106052867Y-135814369D01*
X106077150Y-135879884D01*
X106062159Y-135948126D01*
X106012652Y-135997430D01*
X105986439Y-136008008D01*
X105969418Y-136012705D01*
X105969410Y-136012708D01*
X105771479Y-136108026D01*
X105771469Y-136108032D01*
X105593745Y-136237156D01*
X105593738Y-136237162D01*
X105441916Y-136395956D01*
X105320890Y-136579302D01*
X105234544Y-136781321D01*
X105234542Y-136781327D01*
X105196008Y-136950156D01*
X105185657Y-136995506D01*
X105175801Y-137214979D01*
X105205277Y-137432578D01*
X105205292Y-137432688D01*
X105273180Y-137641627D01*
X105377284Y-137835084D01*
X105377286Y-137835087D01*
X105513016Y-138005288D01*
X105514263Y-138006851D01*
X105679709Y-138151396D01*
X105761521Y-138200276D01*
X105868297Y-138264073D01*
X105868299Y-138264073D01*
X105868305Y-138264077D01*
X106073990Y-138341272D01*
X106117222Y-138349117D01*
X106290149Y-138380500D01*
X106290153Y-138380500D01*
X107014804Y-138380500D01*
X107014811Y-138380500D01*
X107178810Y-138365740D01*
X107214432Y-138355909D01*
X107390576Y-138307296D01*
X107390578Y-138307295D01*
X107390586Y-138307293D01*
X107588524Y-138211971D01*
X107589114Y-138211543D01*
X107702537Y-138129136D01*
X107766260Y-138082839D01*
X107918082Y-137924045D01*
X108039111Y-137740694D01*
X108125456Y-137538680D01*
X108174343Y-137324494D01*
X108184199Y-137105021D01*
X108154709Y-136887316D01*
X108086820Y-136678374D01*
X107982714Y-136484913D01*
X107845737Y-136313149D01*
X107680291Y-136168604D01*
X107607920Y-136125364D01*
X107491702Y-136055926D01*
X107491696Y-136055923D01*
X107362980Y-136007615D01*
X107307132Y-135965629D01*
X107282849Y-135900115D01*
X107297841Y-135831873D01*
X107347347Y-135782568D01*
X107373563Y-135771990D01*
X107390586Y-135767293D01*
X107588524Y-135671971D01*
X107600301Y-135663415D01*
X107766254Y-135542843D01*
X107766260Y-135542839D01*
X107918082Y-135384045D01*
X108039111Y-135200694D01*
X108125456Y-134998680D01*
X108174343Y-134784494D01*
X108184199Y-134565021D01*
X108154709Y-134347316D01*
X108086820Y-134138374D01*
X107982714Y-133944913D01*
X107845737Y-133773149D01*
X107680291Y-133628604D01*
X107653595Y-133612653D01*
X107491702Y-133515926D01*
X107491696Y-133515923D01*
X107362980Y-133467615D01*
X107307132Y-133425629D01*
X107282849Y-133360115D01*
X107297841Y-133291873D01*
X107347347Y-133242568D01*
X107373563Y-133231990D01*
X107390586Y-133227293D01*
X107588524Y-133131971D01*
X107599781Y-133123793D01*
X107718488Y-133037547D01*
X107766260Y-133002839D01*
X107918082Y-132844045D01*
X108039111Y-132660694D01*
X108125456Y-132458680D01*
X108174343Y-132244494D01*
X108184199Y-132025021D01*
X108154709Y-131807316D01*
X108086820Y-131598374D01*
X107982714Y-131404913D01*
X107845737Y-131233149D01*
X107680291Y-131088604D01*
X107653595Y-131072653D01*
X107491702Y-130975926D01*
X107491696Y-130975923D01*
X107362980Y-130927615D01*
X107307132Y-130885629D01*
X107282849Y-130820115D01*
X107297841Y-130751873D01*
X107347347Y-130702568D01*
X107373563Y-130691990D01*
X107390586Y-130687293D01*
X107588524Y-130591971D01*
X107766260Y-130462839D01*
X107918082Y-130304045D01*
X108039111Y-130120694D01*
X108125456Y-129918680D01*
X108174343Y-129704494D01*
X108184199Y-129485021D01*
X108154709Y-129267316D01*
X108086820Y-129058374D01*
X107982714Y-128864913D01*
X107845737Y-128693149D01*
X107680291Y-128548604D01*
X107653595Y-128532653D01*
X107491702Y-128435926D01*
X107491696Y-128435923D01*
X107362980Y-128387615D01*
X107307132Y-128345629D01*
X107282849Y-128280115D01*
X107297841Y-128211873D01*
X107347347Y-128162568D01*
X107373563Y-128151990D01*
X107390586Y-128147293D01*
X107588524Y-128051971D01*
X107659995Y-128000045D01*
X107692693Y-127976288D01*
X107766260Y-127922839D01*
X107918082Y-127764045D01*
X108039111Y-127580694D01*
X108125456Y-127378680D01*
X108174343Y-127164494D01*
X108184199Y-126945021D01*
X108154709Y-126727316D01*
X108086820Y-126518374D01*
X107982714Y-126324913D01*
X107845737Y-126153149D01*
X107680291Y-126008604D01*
X107653595Y-125992653D01*
X107491702Y-125895926D01*
X107491696Y-125895923D01*
X107362980Y-125847615D01*
X107307132Y-125805629D01*
X107282849Y-125740115D01*
X107297841Y-125671873D01*
X107347347Y-125622568D01*
X107373563Y-125611990D01*
X107390586Y-125607293D01*
X107588524Y-125511971D01*
X107609231Y-125496927D01*
X107731506Y-125408089D01*
X107766260Y-125382839D01*
X107918082Y-125224045D01*
X108039111Y-125040694D01*
X108125456Y-124838680D01*
X108174343Y-124624494D01*
X108175713Y-124593976D01*
X108198385Y-124527889D01*
X108253188Y-124484549D01*
X108322723Y-124477717D01*
X108384912Y-124509564D01*
X108387269Y-124511859D01*
X109298181Y-125422771D01*
X109331666Y-125484094D01*
X109334500Y-125510452D01*
X109334500Y-142751504D01*
X109332775Y-142767121D01*
X109333061Y-142767148D01*
X109332326Y-142774914D01*
X109334500Y-142844063D01*
X109334500Y-142873592D01*
X109334501Y-142873609D01*
X109335368Y-142880480D01*
X109335826Y-142886299D01*
X109337290Y-142932873D01*
X109337291Y-142932876D01*
X109342880Y-142952116D01*
X109346824Y-142971160D01*
X109349336Y-142991041D01*
X109366490Y-143034368D01*
X109368382Y-143039896D01*
X109381381Y-143084637D01*
X109391580Y-143101883D01*
X109400138Y-143119352D01*
X109407514Y-143137981D01*
X109434898Y-143175672D01*
X109438106Y-143180556D01*
X109461827Y-143220665D01*
X109461833Y-143220673D01*
X109475990Y-143234829D01*
X109488628Y-143249625D01*
X109500405Y-143265835D01*
X109500406Y-143265836D01*
X109536309Y-143295537D01*
X109540620Y-143299459D01*
X111854944Y-145613784D01*
X111854945Y-145613784D01*
X111864770Y-145626048D01*
X111864991Y-145625866D01*
X111869961Y-145631873D01*
X111869964Y-145631876D01*
X111869965Y-145631877D01*
X111920402Y-145679241D01*
X111941281Y-145700120D01*
X111946755Y-145704366D01*
X111951193Y-145708156D01*
X111985169Y-145740062D01*
X111985173Y-145740064D01*
X112002724Y-145749713D01*
X112018982Y-145760392D01*
X112034815Y-145772674D01*
X112056766Y-145782172D01*
X112077588Y-145791183D01*
X112082832Y-145793752D01*
X112123659Y-145816197D01*
X112143063Y-145821179D01*
X112161461Y-145827478D01*
X112179856Y-145835438D01*
X112225880Y-145842726D01*
X112231583Y-145843907D01*
X112276732Y-145855500D01*
X112296767Y-145855500D01*
X112316164Y-145857026D01*
X112335947Y-145860160D01*
X112382334Y-145855775D01*
X112388173Y-145855500D01*
X133845354Y-145855500D01*
X133860974Y-145857224D01*
X133861001Y-145856939D01*
X133868757Y-145857671D01*
X133868764Y-145857673D01*
X133937911Y-145855500D01*
X133967447Y-145855500D01*
X133974325Y-145854630D01*
X133980138Y-145854172D01*
X134026724Y-145852709D01*
X134045966Y-145847117D01*
X134065009Y-145843174D01*
X134084889Y-145840664D01*
X134128219Y-145823507D01*
X134133743Y-145821617D01*
X134137493Y-145820527D01*
X134178487Y-145808618D01*
X134195726Y-145798422D01*
X134213200Y-145789862D01*
X134231824Y-145782488D01*
X134231824Y-145782487D01*
X134231829Y-145782486D01*
X134269546Y-145755082D01*
X134274402Y-145751892D01*
X134314517Y-145728170D01*
X134328686Y-145713999D01*
X134343476Y-145701368D01*
X134359684Y-145689594D01*
X134389396Y-145653676D01*
X134393309Y-145649376D01*
X136628786Y-143413899D01*
X136641048Y-143404077D01*
X136640865Y-143403856D01*
X136646867Y-143398889D01*
X136646877Y-143398883D01*
X136694241Y-143348445D01*
X136715120Y-143327567D01*
X136719373Y-143322083D01*
X136723150Y-143317660D01*
X136755062Y-143283679D01*
X136764714Y-143266120D01*
X136775389Y-143249869D01*
X136787674Y-143234033D01*
X136806186Y-143191249D01*
X136808742Y-143186032D01*
X136831197Y-143145189D01*
X136836180Y-143125777D01*
X136842477Y-143107388D01*
X136850438Y-143088992D01*
X136857729Y-143042950D01*
X136858908Y-143037259D01*
X136870500Y-142992116D01*
X136870500Y-142972080D01*
X136872027Y-142952679D01*
X136872118Y-142952107D01*
X136875160Y-142932901D01*
X136870775Y-142886512D01*
X136870500Y-142880674D01*
X136870500Y-139057738D01*
X136872224Y-139042124D01*
X136871938Y-139042097D01*
X136872672Y-139034334D01*
X136870500Y-138965203D01*
X136870500Y-138935651D01*
X136870500Y-138935650D01*
X136869629Y-138928759D01*
X136869172Y-138922945D01*
X136867709Y-138876372D01*
X136862122Y-138857144D01*
X136858174Y-138838084D01*
X136855663Y-138818204D01*
X136838512Y-138774887D01*
X136836619Y-138769358D01*
X136823618Y-138724609D01*
X136823616Y-138724606D01*
X136813423Y-138707371D01*
X136804861Y-138689894D01*
X136797487Y-138671270D01*
X136797486Y-138671268D01*
X136770079Y-138633545D01*
X136766888Y-138628686D01*
X136743172Y-138588583D01*
X136743165Y-138588574D01*
X136729006Y-138574415D01*
X136716368Y-138559619D01*
X136704594Y-138543413D01*
X136668688Y-138513709D01*
X136664376Y-138509786D01*
X136295806Y-138141216D01*
X136285981Y-138128952D01*
X136285760Y-138129136D01*
X136280785Y-138123121D01*
X136254038Y-138098004D01*
X136230364Y-138075773D01*
X136219919Y-138065328D01*
X136209475Y-138054883D01*
X136203986Y-138050625D01*
X136199561Y-138046847D01*
X136165582Y-138014938D01*
X136165580Y-138014936D01*
X136165577Y-138014935D01*
X136148029Y-138005288D01*
X136131763Y-137994604D01*
X136115933Y-137982325D01*
X136073168Y-137963818D01*
X136067922Y-137961248D01*
X136027093Y-137938803D01*
X136027092Y-137938802D01*
X136007693Y-137933822D01*
X135989281Y-137927518D01*
X135970898Y-137919562D01*
X135970892Y-137919560D01*
X135924874Y-137912272D01*
X135919152Y-137911087D01*
X135874021Y-137899500D01*
X135874019Y-137899500D01*
X135853984Y-137899500D01*
X135834586Y-137897973D01*
X135827162Y-137896797D01*
X135814805Y-137894840D01*
X135814804Y-137894840D01*
X135768416Y-137899225D01*
X135762578Y-137899500D01*
X133337743Y-137899500D01*
X133322122Y-137897775D01*
X133322096Y-137898061D01*
X133314334Y-137897327D01*
X133314333Y-137897327D01*
X133245186Y-137899500D01*
X133215649Y-137899500D01*
X133208766Y-137900369D01*
X133202948Y-137900826D01*
X133162070Y-137902111D01*
X133094445Y-137884542D01*
X133047054Y-137833201D01*
X133034943Y-137764389D01*
X133061958Y-137699953D01*
X133070484Y-137690501D01*
X135453788Y-135307197D01*
X135466042Y-135297382D01*
X135465859Y-135297160D01*
X135471866Y-135292188D01*
X135471877Y-135292182D01*
X135502775Y-135259278D01*
X135519227Y-135241760D01*
X135529671Y-135231314D01*
X135540120Y-135220867D01*
X135544379Y-135215374D01*
X135548152Y-135210957D01*
X135580062Y-135176978D01*
X135589715Y-135159416D01*
X135600389Y-135143166D01*
X135612673Y-135127332D01*
X135631180Y-135084563D01*
X135633749Y-135079320D01*
X135656196Y-135038489D01*
X135656197Y-135038488D01*
X135661177Y-135019087D01*
X135667478Y-135000684D01*
X135675438Y-134982292D01*
X135682730Y-134936245D01*
X135683911Y-134930548D01*
X135695500Y-134885415D01*
X135695500Y-134865378D01*
X135697027Y-134845978D01*
X135700160Y-134826200D01*
X135695775Y-134779811D01*
X135695500Y-134773973D01*
X135695500Y-128451443D01*
X135715185Y-128384404D01*
X135731819Y-128363762D01*
X135928392Y-128167189D01*
X136128788Y-127966792D01*
X136141042Y-127956977D01*
X136140859Y-127956755D01*
X136146866Y-127951783D01*
X136146877Y-127951777D01*
X136180868Y-127915580D01*
X136194227Y-127901355D01*
X136204671Y-127890909D01*
X136215120Y-127880462D01*
X136219379Y-127874969D01*
X136223152Y-127870552D01*
X136255062Y-127836573D01*
X136264713Y-127819015D01*
X136275396Y-127802752D01*
X136287673Y-127786927D01*
X136306185Y-127744144D01*
X136308738Y-127738932D01*
X136331197Y-127698083D01*
X136336180Y-127678671D01*
X136342481Y-127660271D01*
X136350437Y-127641887D01*
X136357729Y-127595843D01*
X136358906Y-127590162D01*
X136370500Y-127545010D01*
X136370500Y-127524974D01*
X136372027Y-127505573D01*
X136375160Y-127485795D01*
X136370775Y-127439406D01*
X136370500Y-127433568D01*
X136370500Y-125707737D01*
X136372224Y-125692123D01*
X136371938Y-125692096D01*
X136372672Y-125684333D01*
X136370500Y-125615203D01*
X136370500Y-125585651D01*
X136370500Y-125585650D01*
X136369629Y-125578759D01*
X136369172Y-125572945D01*
X136368893Y-125564077D01*
X136367709Y-125526373D01*
X136363524Y-125511971D01*
X136362122Y-125507144D01*
X136358174Y-125488084D01*
X136357670Y-125484094D01*
X136355664Y-125468208D01*
X136338507Y-125424875D01*
X136336619Y-125419359D01*
X136323619Y-125374612D01*
X136313418Y-125357363D01*
X136304860Y-125339894D01*
X136297486Y-125321268D01*
X136297483Y-125321264D01*
X136297483Y-125321263D01*
X136270098Y-125283571D01*
X136266890Y-125278687D01*
X136243172Y-125238582D01*
X136243163Y-125238571D01*
X136229005Y-125224413D01*
X136216370Y-125209620D01*
X136206982Y-125196700D01*
X136204594Y-125193413D01*
X136168693Y-125163713D01*
X136164381Y-125159790D01*
X135919413Y-124914822D01*
X135885928Y-124853499D01*
X135887319Y-124795048D01*
X135889942Y-124785260D01*
X135905635Y-124726692D01*
X135924158Y-124514974D01*
X135925468Y-124500001D01*
X135925468Y-124499998D01*
X135905635Y-124273313D01*
X135905635Y-124273308D01*
X135846739Y-124053504D01*
X135750568Y-123847266D01*
X135620047Y-123660861D01*
X135620045Y-123660858D01*
X135459140Y-123499953D01*
X135298377Y-123387386D01*
X135254752Y-123332809D01*
X135245500Y-123285811D01*
X135245500Y-119462742D01*
X135247224Y-119447122D01*
X135246939Y-119447096D01*
X135247671Y-119439340D01*
X135247673Y-119439333D01*
X135245500Y-119370185D01*
X135245500Y-119340650D01*
X135244631Y-119333772D01*
X135244172Y-119327943D01*
X135243659Y-119311628D01*
X135242709Y-119281373D01*
X135241010Y-119275527D01*
X135237122Y-119262144D01*
X135233174Y-119243084D01*
X135230663Y-119223204D01*
X135213512Y-119179887D01*
X135211619Y-119174358D01*
X135198618Y-119129609D01*
X135198616Y-119129606D01*
X135188423Y-119112371D01*
X135179861Y-119094894D01*
X135172487Y-119076270D01*
X135172486Y-119076268D01*
X135145079Y-119038545D01*
X135141888Y-119033686D01*
X135118172Y-118993583D01*
X135118165Y-118993574D01*
X135104006Y-118979415D01*
X135091368Y-118964619D01*
X135091021Y-118964141D01*
X135079594Y-118948413D01*
X135043688Y-118918709D01*
X135039376Y-118914786D01*
X133865803Y-117741212D01*
X133855980Y-117728950D01*
X133855759Y-117729134D01*
X133850786Y-117723123D01*
X133812073Y-117686769D01*
X133800364Y-117675773D01*
X133789919Y-117665328D01*
X133779475Y-117654883D01*
X133773986Y-117650625D01*
X133769561Y-117646847D01*
X133735582Y-117614938D01*
X133735580Y-117614936D01*
X133735577Y-117614935D01*
X133718029Y-117605288D01*
X133701763Y-117594604D01*
X133685933Y-117582325D01*
X133643168Y-117563818D01*
X133637922Y-117561248D01*
X133597093Y-117538803D01*
X133597092Y-117538802D01*
X133577693Y-117533822D01*
X133559281Y-117527518D01*
X133540898Y-117519562D01*
X133540892Y-117519560D01*
X133494874Y-117512272D01*
X133489152Y-117511087D01*
X133444021Y-117499500D01*
X133444019Y-117499500D01*
X133423984Y-117499500D01*
X133404586Y-117497973D01*
X133397162Y-117496797D01*
X133384805Y-117494840D01*
X133384804Y-117494840D01*
X133338416Y-117499225D01*
X133332578Y-117499500D01*
X132034188Y-117499500D01*
X131967149Y-117479815D01*
X131932613Y-117446623D01*
X131820045Y-117285858D01*
X131659141Y-117124954D01*
X131472734Y-116994432D01*
X131472728Y-116994429D01*
X131414725Y-116967382D01*
X131362285Y-116921210D01*
X131343133Y-116854017D01*
X131363348Y-116787135D01*
X131414725Y-116742618D01*
X131472734Y-116715568D01*
X131659139Y-116585047D01*
X131820047Y-116424139D01*
X131950568Y-116237734D01*
X132046739Y-116031496D01*
X132105635Y-115811692D01*
X132125468Y-115585000D01*
X132105635Y-115358308D01*
X132046739Y-115138504D01*
X131950568Y-114932266D01*
X131820047Y-114745861D01*
X131820045Y-114745858D01*
X131659141Y-114584954D01*
X131472734Y-114454432D01*
X131472728Y-114454429D01*
X131414725Y-114427382D01*
X131362285Y-114381210D01*
X131343133Y-114314017D01*
X131363348Y-114247135D01*
X131414725Y-114202618D01*
X131472734Y-114175568D01*
X131659139Y-114045047D01*
X131820047Y-113884139D01*
X131950568Y-113697734D01*
X132046739Y-113491496D01*
X132105635Y-113271692D01*
X132125468Y-113045000D01*
X132105635Y-112818308D01*
X132046739Y-112598504D01*
X131950568Y-112392266D01*
X131820047Y-112205861D01*
X131820045Y-112205858D01*
X131659141Y-112044954D01*
X131472734Y-111914432D01*
X131472732Y-111914431D01*
X131266497Y-111818261D01*
X131266488Y-111818258D01*
X131046697Y-111759366D01*
X131046693Y-111759365D01*
X131046692Y-111759365D01*
X131046691Y-111759364D01*
X131046686Y-111759364D01*
X130820002Y-111739532D01*
X130819999Y-111739532D01*
X130593313Y-111759364D01*
X130593296Y-111759367D01*
X130524949Y-111777680D01*
X130455099Y-111776016D01*
X130405177Y-111745586D01*
X130201819Y-111542228D01*
X130168334Y-111480905D01*
X130165500Y-111454547D01*
X130165500Y-102875226D01*
X130185185Y-102808187D01*
X130218374Y-102773654D01*
X130411401Y-102638495D01*
X130578495Y-102471401D01*
X130708730Y-102285405D01*
X130763307Y-102241781D01*
X130832805Y-102234587D01*
X130895160Y-102266110D01*
X130911879Y-102285405D01*
X131041890Y-102471078D01*
X131208917Y-102638105D01*
X131402421Y-102773600D01*
X131616507Y-102873429D01*
X131616516Y-102873433D01*
X131830000Y-102930634D01*
X131830000Y-102212301D01*
X131849685Y-102145262D01*
X131902489Y-102099507D01*
X131971647Y-102089563D01*
X132044237Y-102100000D01*
X132044238Y-102100000D01*
X132115762Y-102100000D01*
X132115763Y-102100000D01*
X132188353Y-102089563D01*
X132257512Y-102099507D01*
X132310315Y-102145262D01*
X132330000Y-102212301D01*
X132330000Y-102930633D01*
X132543483Y-102873433D01*
X132543492Y-102873429D01*
X132757578Y-102773600D01*
X132951082Y-102638105D01*
X133118105Y-102471082D01*
X133253600Y-102277578D01*
X133353429Y-102063492D01*
X133353432Y-102063486D01*
X133410636Y-101850000D01*
X132693347Y-101850000D01*
X132626308Y-101830315D01*
X132580553Y-101777511D01*
X132570609Y-101708353D01*
X132574369Y-101691067D01*
X132580000Y-101671888D01*
X132580000Y-101528111D01*
X132574369Y-101508933D01*
X132574370Y-101439064D01*
X132612145Y-101380286D01*
X132675701Y-101351262D01*
X132693347Y-101350000D01*
X133410636Y-101350000D01*
X133410635Y-101349999D01*
X133353432Y-101136513D01*
X133353429Y-101136507D01*
X133253600Y-100922422D01*
X133253599Y-100922420D01*
X133118113Y-100728926D01*
X133118108Y-100728920D01*
X132951082Y-100561894D01*
X132757578Y-100426399D01*
X132543492Y-100326570D01*
X132543486Y-100326567D01*
X132330000Y-100269364D01*
X132330000Y-100987698D01*
X132310315Y-101054737D01*
X132257511Y-101100492D01*
X132188355Y-101110436D01*
X132115766Y-101100000D01*
X132115763Y-101100000D01*
X132044237Y-101100000D01*
X132044233Y-101100000D01*
X131971645Y-101110436D01*
X131902487Y-101100492D01*
X131849684Y-101054736D01*
X131830000Y-100987698D01*
X131829999Y-100269364D01*
X131616513Y-100326567D01*
X131616507Y-100326570D01*
X131402422Y-100426399D01*
X131402420Y-100426400D01*
X131208926Y-100561886D01*
X131208920Y-100561891D01*
X131041891Y-100728920D01*
X131041890Y-100728922D01*
X130911880Y-100914595D01*
X130857303Y-100958219D01*
X130787804Y-100965412D01*
X130725450Y-100933890D01*
X130708730Y-100914594D01*
X130578494Y-100728597D01*
X130411402Y-100561506D01*
X130411395Y-100561501D01*
X130217834Y-100425967D01*
X130217830Y-100425965D01*
X130217829Y-100425965D01*
X130003663Y-100326097D01*
X130003659Y-100326096D01*
X130003655Y-100326094D01*
X129775413Y-100264938D01*
X129775403Y-100264936D01*
X129540001Y-100244341D01*
X129539999Y-100244341D01*
X129304590Y-100264937D01*
X129304589Y-100264937D01*
X129204124Y-100291855D01*
X129134274Y-100290191D01*
X129084352Y-100259761D01*
X128865803Y-100041212D01*
X128855980Y-100028950D01*
X128855759Y-100029134D01*
X128850786Y-100023123D01*
X128832159Y-100005631D01*
X128800364Y-99975773D01*
X128789919Y-99965328D01*
X128779475Y-99954883D01*
X128773986Y-99950625D01*
X128769561Y-99946847D01*
X128735582Y-99914938D01*
X128735580Y-99914936D01*
X128735577Y-99914935D01*
X128718029Y-99905288D01*
X128701763Y-99894604D01*
X128685933Y-99882325D01*
X128643168Y-99863818D01*
X128637922Y-99861248D01*
X128597093Y-99838803D01*
X128597092Y-99838802D01*
X128577693Y-99833822D01*
X128559281Y-99827518D01*
X128540898Y-99819562D01*
X128540892Y-99819560D01*
X128494874Y-99812272D01*
X128489152Y-99811087D01*
X128444021Y-99799500D01*
X128444019Y-99799500D01*
X128423984Y-99799500D01*
X128404586Y-99797973D01*
X128397162Y-99796797D01*
X128384805Y-99794840D01*
X128384804Y-99794840D01*
X128338416Y-99799225D01*
X128332578Y-99799500D01*
X107937743Y-99799500D01*
X107922122Y-99797775D01*
X107922096Y-99798061D01*
X107914334Y-99797327D01*
X107914333Y-99797327D01*
X107845186Y-99799500D01*
X107815649Y-99799500D01*
X107808766Y-99800369D01*
X107802949Y-99800826D01*
X107756373Y-99802290D01*
X107737129Y-99807881D01*
X107718079Y-99811825D01*
X107698211Y-99814334D01*
X107654884Y-99831488D01*
X107649358Y-99833379D01*
X107604614Y-99846379D01*
X107604610Y-99846381D01*
X107587366Y-99856579D01*
X107569905Y-99865133D01*
X107551274Y-99872510D01*
X107551262Y-99872517D01*
X107513570Y-99899902D01*
X107508687Y-99903109D01*
X107468580Y-99926829D01*
X107454414Y-99940995D01*
X107439624Y-99953627D01*
X107423414Y-99965404D01*
X107423411Y-99965407D01*
X107393710Y-100001309D01*
X107389777Y-100005631D01*
X107135646Y-100259762D01*
X107074323Y-100293247D01*
X107015872Y-100291856D01*
X106915413Y-100264938D01*
X106915403Y-100264936D01*
X106680001Y-100244341D01*
X106679999Y-100244341D01*
X106444590Y-100264937D01*
X106444589Y-100264937D01*
X106344124Y-100291855D01*
X106274274Y-100290191D01*
X106224352Y-100259761D01*
X106005803Y-100041212D01*
X105995980Y-100028950D01*
X105995759Y-100029134D01*
X105990786Y-100023123D01*
X105972159Y-100005631D01*
X105940364Y-99975773D01*
X105929919Y-99965328D01*
X105919475Y-99954883D01*
X105913986Y-99950625D01*
X105909561Y-99946847D01*
X105875582Y-99914938D01*
X105875580Y-99914936D01*
X105875577Y-99914935D01*
X105858029Y-99905288D01*
X105841763Y-99894604D01*
X105825933Y-99882325D01*
X105783168Y-99863818D01*
X105777922Y-99861248D01*
X105737093Y-99838803D01*
X105737092Y-99838802D01*
X105717693Y-99833822D01*
X105699281Y-99827518D01*
X105680898Y-99819562D01*
X105680892Y-99819560D01*
X105634874Y-99812272D01*
X105629152Y-99811087D01*
X105584021Y-99799500D01*
X105584019Y-99799500D01*
X105563984Y-99799500D01*
X105544586Y-99797973D01*
X105537162Y-99796797D01*
X105524805Y-99794840D01*
X105524804Y-99794840D01*
X105478416Y-99799225D01*
X105472578Y-99799500D01*
X102857743Y-99799500D01*
X102842122Y-99797775D01*
X102842096Y-99798061D01*
X102834334Y-99797327D01*
X102834333Y-99797327D01*
X102765186Y-99799500D01*
X102735649Y-99799500D01*
X102728766Y-99800369D01*
X102722949Y-99800826D01*
X102676373Y-99802290D01*
X102657129Y-99807881D01*
X102638079Y-99811825D01*
X102618211Y-99814334D01*
X102574884Y-99831488D01*
X102569358Y-99833379D01*
X102524614Y-99846379D01*
X102524610Y-99846381D01*
X102507366Y-99856579D01*
X102489905Y-99865133D01*
X102471274Y-99872510D01*
X102471262Y-99872517D01*
X102433570Y-99899902D01*
X102428687Y-99903109D01*
X102388580Y-99926829D01*
X102374414Y-99940995D01*
X102359624Y-99953627D01*
X102343414Y-99965404D01*
X102343411Y-99965407D01*
X102313710Y-100001309D01*
X102309777Y-100005631D01*
X101216208Y-101099199D01*
X101203951Y-101109020D01*
X101204134Y-101109241D01*
X101198123Y-101114213D01*
X101150772Y-101164636D01*
X101129889Y-101185519D01*
X101129877Y-101185532D01*
X101125621Y-101191017D01*
X101121837Y-101195447D01*
X101089937Y-101229418D01*
X101089936Y-101229420D01*
X101080284Y-101246976D01*
X101069610Y-101263226D01*
X101057329Y-101279061D01*
X101057324Y-101279068D01*
X101038815Y-101321838D01*
X101036245Y-101327084D01*
X101013803Y-101367906D01*
X101008822Y-101387307D01*
X101002521Y-101405710D01*
X100994562Y-101424102D01*
X100994561Y-101424105D01*
X100987271Y-101470127D01*
X100986087Y-101475846D01*
X100974501Y-101520972D01*
X100974500Y-101520982D01*
X100974500Y-101541016D01*
X100972973Y-101560415D01*
X100969840Y-101580194D01*
X100969840Y-101580195D01*
X91440500Y-101580195D01*
X91440500Y-96644500D01*
X91460185Y-96577461D01*
X91512989Y-96531706D01*
X91564500Y-96520500D01*
X139575500Y-96520500D01*
X139642539Y-96540185D01*
G37*
G04 #@! TD.AperFunction*
M02*
