%TF.GenerationSoftware,KiCad,Pcbnew,7.0.7*%
%TF.CreationDate,2023-08-28T09:16:44+02:00*%
%TF.ProjectId,l293d-motor-controller,6c323933-642d-46d6-9f74-6f722d636f6e,rev?*%
%TF.SameCoordinates,Original*%
%TF.FileFunction,Drillmap*%
%TF.FilePolarity,Positive*%
%FSLAX45Y45*%
G04 Gerber Fmt 4.5, Leading zero omitted, Abs format (unit mm)*
G04 Created by KiCad (PCBNEW 7.0.7) date 2023-08-28 09:16:44*
%MOMM*%
%LPD*%
G01*
G04 APERTURE LIST*
%ADD10C,0.100000*%
%ADD11C,0.200000*%
G04 APERTURE END LIST*
D10*
X9144000Y-14732000D02*
X9144000Y-9652000D01*
X13970000Y-14732000D02*
X9144000Y-14732000D01*
X13970000Y-9652000D02*
X13970000Y-14732000D01*
X9144000Y-9652000D02*
X13970000Y-9652000D01*
D11*
X9399777Y-15048484D02*
X9399777Y-14848484D01*
X9399777Y-14848484D02*
X9447396Y-14848484D01*
X9447396Y-14848484D02*
X9475967Y-14858008D01*
X9475967Y-14858008D02*
X9495015Y-14877055D01*
X9495015Y-14877055D02*
X9504539Y-14896103D01*
X9504539Y-14896103D02*
X9514063Y-14934198D01*
X9514063Y-14934198D02*
X9514063Y-14962769D01*
X9514063Y-14962769D02*
X9504539Y-15000865D01*
X9504539Y-15000865D02*
X9495015Y-15019912D01*
X9495015Y-15019912D02*
X9475967Y-15038960D01*
X9475967Y-15038960D02*
X9447396Y-15048484D01*
X9447396Y-15048484D02*
X9399777Y-15048484D01*
X9599777Y-15048484D02*
X9599777Y-14915150D01*
X9599777Y-14953246D02*
X9609301Y-14934198D01*
X9609301Y-14934198D02*
X9618824Y-14924674D01*
X9618824Y-14924674D02*
X9637872Y-14915150D01*
X9637872Y-14915150D02*
X9656920Y-14915150D01*
X9723586Y-15048484D02*
X9723586Y-14915150D01*
X9723586Y-14848484D02*
X9714063Y-14858008D01*
X9714063Y-14858008D02*
X9723586Y-14867531D01*
X9723586Y-14867531D02*
X9733110Y-14858008D01*
X9733110Y-14858008D02*
X9723586Y-14848484D01*
X9723586Y-14848484D02*
X9723586Y-14867531D01*
X9847396Y-15048484D02*
X9828348Y-15038960D01*
X9828348Y-15038960D02*
X9818824Y-15019912D01*
X9818824Y-15019912D02*
X9818824Y-14848484D01*
X9952158Y-15048484D02*
X9933110Y-15038960D01*
X9933110Y-15038960D02*
X9923586Y-15019912D01*
X9923586Y-15019912D02*
X9923586Y-14848484D01*
X10180729Y-15048484D02*
X10180729Y-14848484D01*
X10180729Y-14848484D02*
X10247396Y-14991341D01*
X10247396Y-14991341D02*
X10314063Y-14848484D01*
X10314063Y-14848484D02*
X10314063Y-15048484D01*
X10495015Y-15048484D02*
X10495015Y-14943722D01*
X10495015Y-14943722D02*
X10485491Y-14924674D01*
X10485491Y-14924674D02*
X10466444Y-14915150D01*
X10466444Y-14915150D02*
X10428348Y-14915150D01*
X10428348Y-14915150D02*
X10409301Y-14924674D01*
X10495015Y-15038960D02*
X10475967Y-15048484D01*
X10475967Y-15048484D02*
X10428348Y-15048484D01*
X10428348Y-15048484D02*
X10409301Y-15038960D01*
X10409301Y-15038960D02*
X10399777Y-15019912D01*
X10399777Y-15019912D02*
X10399777Y-15000865D01*
X10399777Y-15000865D02*
X10409301Y-14981817D01*
X10409301Y-14981817D02*
X10428348Y-14972293D01*
X10428348Y-14972293D02*
X10475967Y-14972293D01*
X10475967Y-14972293D02*
X10495015Y-14962769D01*
X10590253Y-14915150D02*
X10590253Y-15115150D01*
X10590253Y-14924674D02*
X10609301Y-14915150D01*
X10609301Y-14915150D02*
X10647396Y-14915150D01*
X10647396Y-14915150D02*
X10666444Y-14924674D01*
X10666444Y-14924674D02*
X10675967Y-14934198D01*
X10675967Y-14934198D02*
X10685491Y-14953246D01*
X10685491Y-14953246D02*
X10685491Y-15010388D01*
X10685491Y-15010388D02*
X10675967Y-15029436D01*
X10675967Y-15029436D02*
X10666444Y-15038960D01*
X10666444Y-15038960D02*
X10647396Y-15048484D01*
X10647396Y-15048484D02*
X10609301Y-15048484D01*
X10609301Y-15048484D02*
X10590253Y-15038960D01*
X10771205Y-15029436D02*
X10780729Y-15038960D01*
X10780729Y-15038960D02*
X10771205Y-15048484D01*
X10771205Y-15048484D02*
X10761682Y-15038960D01*
X10761682Y-15038960D02*
X10771205Y-15029436D01*
X10771205Y-15029436D02*
X10771205Y-15048484D01*
X10771205Y-14924674D02*
X10780729Y-14934198D01*
X10780729Y-14934198D02*
X10771205Y-14943722D01*
X10771205Y-14943722D02*
X10761682Y-14934198D01*
X10761682Y-14934198D02*
X10771205Y-14924674D01*
X10771205Y-14924674D02*
X10771205Y-14943722D01*
M02*
