G04 #@! TF.GenerationSoftware,KiCad,Pcbnew,7.0.7*
G04 #@! TF.CreationDate,2023-08-28T09:14:14+02:00*
G04 #@! TF.ProjectId,l293d-motor-controller,6c323933-642d-46d6-9f74-6f722d636f6e,rev?*
G04 #@! TF.SameCoordinates,Original*
G04 #@! TF.FileFunction,Soldermask,Top*
G04 #@! TF.FilePolarity,Negative*
%FSLAX46Y46*%
G04 Gerber Fmt 4.6, Leading zero omitted, Abs format (unit mm)*
G04 Created by KiCad (PCBNEW 7.0.7) date 2023-08-28 09:14:14*
%MOMM*%
%LPD*%
G01*
G04 APERTURE LIST*
%ADD10R,1.700000X1.700000*%
%ADD11O,1.700000X1.700000*%
%ADD12R,1.600000X1.600000*%
%ADD13O,1.600000X1.600000*%
%ADD14R,2.000000X1.905000*%
%ADD15O,2.000000X1.905000*%
%ADD16R,2.000000X1.440000*%
%ADD17O,2.000000X1.440000*%
%ADD18C,1.600000*%
%ADD19R,1.200000X1.200000*%
%ADD20C,1.200000*%
G04 APERTURE END LIST*
D10*
X127000000Y-101600000D03*
D11*
X129540000Y-101600000D03*
X132080000Y-101600000D03*
D12*
X123200000Y-113045000D03*
D13*
X123200000Y-115585000D03*
X123200000Y-118125000D03*
X123200000Y-120665000D03*
X123200000Y-123205000D03*
X123200000Y-125745000D03*
X123200000Y-128285000D03*
X123200000Y-130825000D03*
X130820000Y-130825000D03*
X130820000Y-128285000D03*
X130820000Y-125745000D03*
X130820000Y-123205000D03*
X130820000Y-120665000D03*
X130820000Y-118125000D03*
X130820000Y-115585000D03*
X130820000Y-113045000D03*
D10*
X129540000Y-139700000D03*
D11*
X129540000Y-142240000D03*
D10*
X124460000Y-139700000D03*
D11*
X124460000Y-142240000D03*
D10*
X134620000Y-139700000D03*
D11*
X134620000Y-142240000D03*
D14*
X114300000Y-119380000D03*
D15*
X114300000Y-121920000D03*
X114300000Y-124460000D03*
D16*
X99060000Y-121920000D03*
D17*
X99060000Y-124460000D03*
X99060000Y-127000000D03*
X99060000Y-129540000D03*
X99060000Y-132080000D03*
X99060000Y-134620000D03*
X99060000Y-137160000D03*
X106680000Y-137160000D03*
X106680000Y-134620000D03*
X106680000Y-132080000D03*
X106680000Y-129540000D03*
X106680000Y-127000000D03*
X106680000Y-124460000D03*
X106680000Y-121920000D03*
D18*
X119380000Y-124500000D03*
X119380000Y-127000000D03*
D10*
X114300000Y-139700000D03*
D11*
X114300000Y-142240000D03*
D10*
X104140000Y-101600000D03*
D11*
X106680000Y-101600000D03*
X109220000Y-101600000D03*
D19*
X115340000Y-132080000D03*
D20*
X116840000Y-132080000D03*
D18*
X134620000Y-127000000D03*
X134620000Y-124500000D03*
D10*
X119380000Y-139700000D03*
D11*
X119380000Y-142240000D03*
M02*
