%TF.GenerationSoftware,KiCad,Pcbnew,7.0.7*%
%TF.CreationDate,2023-08-28T09:16:44+02:00*%
%TF.ProjectId,l293d-motor-controller,6c323933-642d-46d6-9f74-6f722d636f6e,rev?*%
%TF.SameCoordinates,Original*%
%TF.FileFunction,Drillmap*%
%TF.FilePolarity,Positive*%
%FSLAX45Y45*%
G04 Gerber Fmt 4.5, Leading zero omitted, Abs format (unit mm)*
G04 Created by KiCad (PCBNEW 7.0.7) date 2023-08-28 09:16:44*
%MOMM*%
%LPD*%
G01*
G04 APERTURE LIST*
%ADD10C,0.100000*%
%ADD11C,0.200000*%
%ADD12C,0.060000*%
%ADD13C,0.080000*%
%ADD14C,0.110000*%
G04 APERTURE END LIST*
D10*
X9144000Y-14732000D02*
X9144000Y-9652000D01*
X13970000Y-14732000D02*
X9144000Y-14732000D01*
X13970000Y-9652000D02*
X13970000Y-14732000D01*
X9144000Y-9652000D02*
X13970000Y-9652000D01*
D11*
D12*
X11504000Y-13178000D02*
X11564000Y-13238000D01*
X11564000Y-13178000D02*
X11504000Y-13238000D01*
X11654000Y-13178000D02*
X11714000Y-13238000D01*
X11714000Y-13178000D02*
X11654000Y-13238000D01*
D13*
X11978000Y-12450000D02*
G75*
G03*
X11978000Y-12450000I-40000J0D01*
G01*
X11978000Y-12700000D02*
G75*
G03*
X11978000Y-12700000I-40000J0D01*
G01*
X12360000Y-11304500D02*
G75*
G03*
X12360000Y-11304500I-40000J0D01*
G01*
X12360000Y-11558500D02*
G75*
G03*
X12360000Y-11558500I-40000J0D01*
G01*
X12360000Y-11812500D02*
G75*
G03*
X12360000Y-11812500I-40000J0D01*
G01*
X12360000Y-12066500D02*
G75*
G03*
X12360000Y-12066500I-40000J0D01*
G01*
X12360000Y-12320500D02*
G75*
G03*
X12360000Y-12320500I-40000J0D01*
G01*
X12360000Y-12574500D02*
G75*
G03*
X12360000Y-12574500I-40000J0D01*
G01*
X12360000Y-12828500D02*
G75*
G03*
X12360000Y-12828500I-40000J0D01*
G01*
X12360000Y-13082500D02*
G75*
G03*
X12360000Y-13082500I-40000J0D01*
G01*
X13122000Y-11304500D02*
G75*
G03*
X13122000Y-11304500I-40000J0D01*
G01*
X13122000Y-11558500D02*
G75*
G03*
X13122000Y-11558500I-40000J0D01*
G01*
X13122000Y-11812500D02*
G75*
G03*
X13122000Y-11812500I-40000J0D01*
G01*
X13122000Y-12066500D02*
G75*
G03*
X13122000Y-12066500I-40000J0D01*
G01*
X13122000Y-12320500D02*
G75*
G03*
X13122000Y-12320500I-40000J0D01*
G01*
X13122000Y-12574500D02*
G75*
G03*
X13122000Y-12574500I-40000J0D01*
G01*
X13122000Y-12828500D02*
G75*
G03*
X13122000Y-12828500I-40000J0D01*
G01*
X13122000Y-13082500D02*
G75*
G03*
X13122000Y-13082500I-40000J0D01*
G01*
X13502000Y-12450000D02*
G75*
G03*
X13502000Y-12450000I-40000J0D01*
G01*
X13502000Y-12700000D02*
G75*
G03*
X13502000Y-12700000I-40000J0D01*
G01*
D10*
X9906000Y-12142000D02*
X9906000Y-12242000D01*
X9856000Y-12192000D02*
X9956000Y-12192000D01*
X9906000Y-12396000D02*
X9906000Y-12496000D01*
X9856000Y-12446000D02*
X9956000Y-12446000D01*
X9906000Y-12650000D02*
X9906000Y-12750000D01*
X9856000Y-12700000D02*
X9956000Y-12700000D01*
X9906000Y-12904000D02*
X9906000Y-13004000D01*
X9856000Y-12954000D02*
X9956000Y-12954000D01*
X9906000Y-13158000D02*
X9906000Y-13258000D01*
X9856000Y-13208000D02*
X9956000Y-13208000D01*
X9906000Y-13412000D02*
X9906000Y-13512000D01*
X9856000Y-13462000D02*
X9956000Y-13462000D01*
X9906000Y-13666000D02*
X9906000Y-13766000D01*
X9856000Y-13716000D02*
X9956000Y-13716000D01*
X10414000Y-10110000D02*
X10414000Y-10210000D01*
X10364000Y-10160000D02*
X10464000Y-10160000D01*
X10668000Y-10110000D02*
X10668000Y-10210000D01*
X10618000Y-10160000D02*
X10718000Y-10160000D01*
X10668000Y-12142000D02*
X10668000Y-12242000D01*
X10618000Y-12192000D02*
X10718000Y-12192000D01*
X10668000Y-12396000D02*
X10668000Y-12496000D01*
X10618000Y-12446000D02*
X10718000Y-12446000D01*
X10668000Y-12650000D02*
X10668000Y-12750000D01*
X10618000Y-12700000D02*
X10718000Y-12700000D01*
X10668000Y-12904000D02*
X10668000Y-13004000D01*
X10618000Y-12954000D02*
X10718000Y-12954000D01*
X10668000Y-13158000D02*
X10668000Y-13258000D01*
X10618000Y-13208000D02*
X10718000Y-13208000D01*
X10668000Y-13412000D02*
X10668000Y-13512000D01*
X10618000Y-13462000D02*
X10718000Y-13462000D01*
X10668000Y-13666000D02*
X10668000Y-13766000D01*
X10618000Y-13716000D02*
X10718000Y-13716000D01*
X10922000Y-10110000D02*
X10922000Y-10210000D01*
X10872000Y-10160000D02*
X10972000Y-10160000D01*
X11430000Y-13920000D02*
X11430000Y-14020000D01*
X11380000Y-13970000D02*
X11480000Y-13970000D01*
X11430000Y-14174000D02*
X11430000Y-14274000D01*
X11380000Y-14224000D02*
X11480000Y-14224000D01*
X11938000Y-13920000D02*
X11938000Y-14020000D01*
X11888000Y-13970000D02*
X11988000Y-13970000D01*
X11938000Y-14174000D02*
X11938000Y-14274000D01*
X11888000Y-14224000D02*
X11988000Y-14224000D01*
X12446000Y-13920000D02*
X12446000Y-14020000D01*
X12396000Y-13970000D02*
X12496000Y-13970000D01*
X12446000Y-14174000D02*
X12446000Y-14274000D01*
X12396000Y-14224000D02*
X12496000Y-14224000D01*
X12700000Y-10110000D02*
X12700000Y-10210000D01*
X12650000Y-10160000D02*
X12750000Y-10160000D01*
X12954000Y-10110000D02*
X12954000Y-10210000D01*
X12904000Y-10160000D02*
X13004000Y-10160000D01*
X12954000Y-13920000D02*
X12954000Y-14020000D01*
X12904000Y-13970000D02*
X13004000Y-13970000D01*
X12954000Y-14174000D02*
X12954000Y-14274000D01*
X12904000Y-14224000D02*
X13004000Y-14224000D01*
X13208000Y-10110000D02*
X13208000Y-10210000D01*
X13158000Y-10160000D02*
X13258000Y-10160000D01*
X13462000Y-13920000D02*
X13462000Y-14020000D01*
X13412000Y-13970000D02*
X13512000Y-13970000D01*
X13462000Y-14174000D02*
X13462000Y-14274000D01*
X13412000Y-14224000D02*
X13512000Y-14224000D01*
D14*
X11468891Y-11976891D02*
X11468891Y-11899109D01*
X11391109Y-11899109D01*
X11391109Y-11976891D01*
X11468891Y-11976891D01*
X11468891Y-12230891D02*
X11468891Y-12153109D01*
X11391109Y-12153109D01*
X11391109Y-12230891D01*
X11468891Y-12230891D01*
X11468891Y-12484891D02*
X11468891Y-12407109D01*
X11391109Y-12407109D01*
X11391109Y-12484891D01*
X11468891Y-12484891D01*
D11*
X9399777Y-15048484D02*
X9399777Y-14848484D01*
X9399777Y-14848484D02*
X9447396Y-14848484D01*
X9447396Y-14848484D02*
X9475967Y-14858008D01*
X9475967Y-14858008D02*
X9495015Y-14877055D01*
X9495015Y-14877055D02*
X9504539Y-14896103D01*
X9504539Y-14896103D02*
X9514063Y-14934198D01*
X9514063Y-14934198D02*
X9514063Y-14962769D01*
X9514063Y-14962769D02*
X9504539Y-15000865D01*
X9504539Y-15000865D02*
X9495015Y-15019912D01*
X9495015Y-15019912D02*
X9475967Y-15038960D01*
X9475967Y-15038960D02*
X9447396Y-15048484D01*
X9447396Y-15048484D02*
X9399777Y-15048484D01*
X9599777Y-15048484D02*
X9599777Y-14915150D01*
X9599777Y-14953246D02*
X9609301Y-14934198D01*
X9609301Y-14934198D02*
X9618824Y-14924674D01*
X9618824Y-14924674D02*
X9637872Y-14915150D01*
X9637872Y-14915150D02*
X9656920Y-14915150D01*
X9723586Y-15048484D02*
X9723586Y-14915150D01*
X9723586Y-14848484D02*
X9714063Y-14858008D01*
X9714063Y-14858008D02*
X9723586Y-14867531D01*
X9723586Y-14867531D02*
X9733110Y-14858008D01*
X9733110Y-14858008D02*
X9723586Y-14848484D01*
X9723586Y-14848484D02*
X9723586Y-14867531D01*
X9847396Y-15048484D02*
X9828348Y-15038960D01*
X9828348Y-15038960D02*
X9818824Y-15019912D01*
X9818824Y-15019912D02*
X9818824Y-14848484D01*
X9952158Y-15048484D02*
X9933110Y-15038960D01*
X9933110Y-15038960D02*
X9923586Y-15019912D01*
X9923586Y-15019912D02*
X9923586Y-14848484D01*
X10180729Y-15048484D02*
X10180729Y-14848484D01*
X10180729Y-14848484D02*
X10247396Y-14991341D01*
X10247396Y-14991341D02*
X10314063Y-14848484D01*
X10314063Y-14848484D02*
X10314063Y-15048484D01*
X10495015Y-15048484D02*
X10495015Y-14943722D01*
X10495015Y-14943722D02*
X10485491Y-14924674D01*
X10485491Y-14924674D02*
X10466444Y-14915150D01*
X10466444Y-14915150D02*
X10428348Y-14915150D01*
X10428348Y-14915150D02*
X10409301Y-14924674D01*
X10495015Y-15038960D02*
X10475967Y-15048484D01*
X10475967Y-15048484D02*
X10428348Y-15048484D01*
X10428348Y-15048484D02*
X10409301Y-15038960D01*
X10409301Y-15038960D02*
X10399777Y-15019912D01*
X10399777Y-15019912D02*
X10399777Y-15000865D01*
X10399777Y-15000865D02*
X10409301Y-14981817D01*
X10409301Y-14981817D02*
X10428348Y-14972293D01*
X10428348Y-14972293D02*
X10475967Y-14972293D01*
X10475967Y-14972293D02*
X10495015Y-14962769D01*
X10590253Y-14915150D02*
X10590253Y-15115150D01*
X10590253Y-14924674D02*
X10609301Y-14915150D01*
X10609301Y-14915150D02*
X10647396Y-14915150D01*
X10647396Y-14915150D02*
X10666444Y-14924674D01*
X10666444Y-14924674D02*
X10675967Y-14934198D01*
X10675967Y-14934198D02*
X10685491Y-14953246D01*
X10685491Y-14953246D02*
X10685491Y-15010388D01*
X10685491Y-15010388D02*
X10675967Y-15029436D01*
X10675967Y-15029436D02*
X10666444Y-15038960D01*
X10666444Y-15038960D02*
X10647396Y-15048484D01*
X10647396Y-15048484D02*
X10609301Y-15048484D01*
X10609301Y-15048484D02*
X10590253Y-15038960D01*
X10771205Y-15029436D02*
X10780729Y-15038960D01*
X10780729Y-15038960D02*
X10771205Y-15048484D01*
X10771205Y-15048484D02*
X10761682Y-15038960D01*
X10761682Y-15038960D02*
X10771205Y-15029436D01*
X10771205Y-15029436D02*
X10771205Y-15048484D01*
X10771205Y-14924674D02*
X10780729Y-14934198D01*
X10780729Y-14934198D02*
X10771205Y-14943722D01*
X10771205Y-14943722D02*
X10761682Y-14934198D01*
X10761682Y-14934198D02*
X10771205Y-14924674D01*
X10771205Y-14924674D02*
X10771205Y-14943722D01*
D12*
X9079000Y-15347000D02*
X9139000Y-15407000D01*
X9139000Y-15347000D02*
X9079000Y-15407000D01*
D11*
X9437872Y-15268484D02*
X9456920Y-15268484D01*
X9456920Y-15268484D02*
X9475967Y-15278008D01*
X9475967Y-15278008D02*
X9485491Y-15287531D01*
X9485491Y-15287531D02*
X9495015Y-15306579D01*
X9495015Y-15306579D02*
X9504539Y-15344674D01*
X9504539Y-15344674D02*
X9504539Y-15392293D01*
X9504539Y-15392293D02*
X9495015Y-15430388D01*
X9495015Y-15430388D02*
X9485491Y-15449436D01*
X9485491Y-15449436D02*
X9475967Y-15458960D01*
X9475967Y-15458960D02*
X9456920Y-15468484D01*
X9456920Y-15468484D02*
X9437872Y-15468484D01*
X9437872Y-15468484D02*
X9418824Y-15458960D01*
X9418824Y-15458960D02*
X9409301Y-15449436D01*
X9409301Y-15449436D02*
X9399777Y-15430388D01*
X9399777Y-15430388D02*
X9390253Y-15392293D01*
X9390253Y-15392293D02*
X9390253Y-15344674D01*
X9390253Y-15344674D02*
X9399777Y-15306579D01*
X9399777Y-15306579D02*
X9409301Y-15287531D01*
X9409301Y-15287531D02*
X9418824Y-15278008D01*
X9418824Y-15278008D02*
X9437872Y-15268484D01*
X9590253Y-15449436D02*
X9599777Y-15458960D01*
X9599777Y-15458960D02*
X9590253Y-15468484D01*
X9590253Y-15468484D02*
X9580729Y-15458960D01*
X9580729Y-15458960D02*
X9590253Y-15449436D01*
X9590253Y-15449436D02*
X9590253Y-15468484D01*
X9771205Y-15268484D02*
X9733110Y-15268484D01*
X9733110Y-15268484D02*
X9714063Y-15278008D01*
X9714063Y-15278008D02*
X9704539Y-15287531D01*
X9704539Y-15287531D02*
X9685491Y-15316103D01*
X9685491Y-15316103D02*
X9675967Y-15354198D01*
X9675967Y-15354198D02*
X9675967Y-15430388D01*
X9675967Y-15430388D02*
X9685491Y-15449436D01*
X9685491Y-15449436D02*
X9695015Y-15458960D01*
X9695015Y-15458960D02*
X9714063Y-15468484D01*
X9714063Y-15468484D02*
X9752158Y-15468484D01*
X9752158Y-15468484D02*
X9771205Y-15458960D01*
X9771205Y-15458960D02*
X9780729Y-15449436D01*
X9780729Y-15449436D02*
X9790253Y-15430388D01*
X9790253Y-15430388D02*
X9790253Y-15382769D01*
X9790253Y-15382769D02*
X9780729Y-15363722D01*
X9780729Y-15363722D02*
X9771205Y-15354198D01*
X9771205Y-15354198D02*
X9752158Y-15344674D01*
X9752158Y-15344674D02*
X9714063Y-15344674D01*
X9714063Y-15344674D02*
X9695015Y-15354198D01*
X9695015Y-15354198D02*
X9685491Y-15363722D01*
X9685491Y-15363722D02*
X9675967Y-15382769D01*
X9914063Y-15268484D02*
X9933110Y-15268484D01*
X9933110Y-15268484D02*
X9952158Y-15278008D01*
X9952158Y-15278008D02*
X9961682Y-15287531D01*
X9961682Y-15287531D02*
X9971205Y-15306579D01*
X9971205Y-15306579D02*
X9980729Y-15344674D01*
X9980729Y-15344674D02*
X9980729Y-15392293D01*
X9980729Y-15392293D02*
X9971205Y-15430388D01*
X9971205Y-15430388D02*
X9961682Y-15449436D01*
X9961682Y-15449436D02*
X9952158Y-15458960D01*
X9952158Y-15458960D02*
X9933110Y-15468484D01*
X9933110Y-15468484D02*
X9914063Y-15468484D01*
X9914063Y-15468484D02*
X9895015Y-15458960D01*
X9895015Y-15458960D02*
X9885491Y-15449436D01*
X9885491Y-15449436D02*
X9875967Y-15430388D01*
X9875967Y-15430388D02*
X9866444Y-15392293D01*
X9866444Y-15392293D02*
X9866444Y-15344674D01*
X9866444Y-15344674D02*
X9875967Y-15306579D01*
X9875967Y-15306579D02*
X9885491Y-15287531D01*
X9885491Y-15287531D02*
X9895015Y-15278008D01*
X9895015Y-15278008D02*
X9914063Y-15268484D01*
X10104539Y-15268484D02*
X10123586Y-15268484D01*
X10123586Y-15268484D02*
X10142634Y-15278008D01*
X10142634Y-15278008D02*
X10152158Y-15287531D01*
X10152158Y-15287531D02*
X10161682Y-15306579D01*
X10161682Y-15306579D02*
X10171205Y-15344674D01*
X10171205Y-15344674D02*
X10171205Y-15392293D01*
X10171205Y-15392293D02*
X10161682Y-15430388D01*
X10161682Y-15430388D02*
X10152158Y-15449436D01*
X10152158Y-15449436D02*
X10142634Y-15458960D01*
X10142634Y-15458960D02*
X10123586Y-15468484D01*
X10123586Y-15468484D02*
X10104539Y-15468484D01*
X10104539Y-15468484D02*
X10085491Y-15458960D01*
X10085491Y-15458960D02*
X10075967Y-15449436D01*
X10075967Y-15449436D02*
X10066444Y-15430388D01*
X10066444Y-15430388D02*
X10056920Y-15392293D01*
X10056920Y-15392293D02*
X10056920Y-15344674D01*
X10056920Y-15344674D02*
X10066444Y-15306579D01*
X10066444Y-15306579D02*
X10075967Y-15287531D01*
X10075967Y-15287531D02*
X10085491Y-15278008D01*
X10085491Y-15278008D02*
X10104539Y-15268484D01*
X10256920Y-15468484D02*
X10256920Y-15335150D01*
X10256920Y-15354198D02*
X10266444Y-15344674D01*
X10266444Y-15344674D02*
X10285491Y-15335150D01*
X10285491Y-15335150D02*
X10314063Y-15335150D01*
X10314063Y-15335150D02*
X10333110Y-15344674D01*
X10333110Y-15344674D02*
X10342634Y-15363722D01*
X10342634Y-15363722D02*
X10342634Y-15468484D01*
X10342634Y-15363722D02*
X10352158Y-15344674D01*
X10352158Y-15344674D02*
X10371205Y-15335150D01*
X10371205Y-15335150D02*
X10399777Y-15335150D01*
X10399777Y-15335150D02*
X10418825Y-15344674D01*
X10418825Y-15344674D02*
X10428348Y-15363722D01*
X10428348Y-15363722D02*
X10428348Y-15468484D01*
X10523586Y-15468484D02*
X10523586Y-15335150D01*
X10523586Y-15354198D02*
X10533110Y-15344674D01*
X10533110Y-15344674D02*
X10552158Y-15335150D01*
X10552158Y-15335150D02*
X10580729Y-15335150D01*
X10580729Y-15335150D02*
X10599777Y-15344674D01*
X10599777Y-15344674D02*
X10609301Y-15363722D01*
X10609301Y-15363722D02*
X10609301Y-15468484D01*
X10609301Y-15363722D02*
X10618825Y-15344674D01*
X10618825Y-15344674D02*
X10637872Y-15335150D01*
X10637872Y-15335150D02*
X10666444Y-15335150D01*
X10666444Y-15335150D02*
X10685491Y-15344674D01*
X10685491Y-15344674D02*
X10695015Y-15363722D01*
X10695015Y-15363722D02*
X10695015Y-15468484D01*
X11085491Y-15258960D02*
X10914063Y-15516103D01*
X11342634Y-15268484D02*
X11361682Y-15268484D01*
X11361682Y-15268484D02*
X11380729Y-15278008D01*
X11380729Y-15278008D02*
X11390253Y-15287531D01*
X11390253Y-15287531D02*
X11399777Y-15306579D01*
X11399777Y-15306579D02*
X11409301Y-15344674D01*
X11409301Y-15344674D02*
X11409301Y-15392293D01*
X11409301Y-15392293D02*
X11399777Y-15430388D01*
X11399777Y-15430388D02*
X11390253Y-15449436D01*
X11390253Y-15449436D02*
X11380729Y-15458960D01*
X11380729Y-15458960D02*
X11361682Y-15468484D01*
X11361682Y-15468484D02*
X11342634Y-15468484D01*
X11342634Y-15468484D02*
X11323586Y-15458960D01*
X11323586Y-15458960D02*
X11314063Y-15449436D01*
X11314063Y-15449436D02*
X11304539Y-15430388D01*
X11304539Y-15430388D02*
X11295015Y-15392293D01*
X11295015Y-15392293D02*
X11295015Y-15344674D01*
X11295015Y-15344674D02*
X11304539Y-15306579D01*
X11304539Y-15306579D02*
X11314063Y-15287531D01*
X11314063Y-15287531D02*
X11323586Y-15278008D01*
X11323586Y-15278008D02*
X11342634Y-15268484D01*
X11495015Y-15449436D02*
X11504539Y-15458960D01*
X11504539Y-15458960D02*
X11495015Y-15468484D01*
X11495015Y-15468484D02*
X11485491Y-15458960D01*
X11485491Y-15458960D02*
X11495015Y-15449436D01*
X11495015Y-15449436D02*
X11495015Y-15468484D01*
X11628348Y-15268484D02*
X11647396Y-15268484D01*
X11647396Y-15268484D02*
X11666444Y-15278008D01*
X11666444Y-15278008D02*
X11675967Y-15287531D01*
X11675967Y-15287531D02*
X11685491Y-15306579D01*
X11685491Y-15306579D02*
X11695015Y-15344674D01*
X11695015Y-15344674D02*
X11695015Y-15392293D01*
X11695015Y-15392293D02*
X11685491Y-15430388D01*
X11685491Y-15430388D02*
X11675967Y-15449436D01*
X11675967Y-15449436D02*
X11666444Y-15458960D01*
X11666444Y-15458960D02*
X11647396Y-15468484D01*
X11647396Y-15468484D02*
X11628348Y-15468484D01*
X11628348Y-15468484D02*
X11609301Y-15458960D01*
X11609301Y-15458960D02*
X11599777Y-15449436D01*
X11599777Y-15449436D02*
X11590253Y-15430388D01*
X11590253Y-15430388D02*
X11580729Y-15392293D01*
X11580729Y-15392293D02*
X11580729Y-15344674D01*
X11580729Y-15344674D02*
X11590253Y-15306579D01*
X11590253Y-15306579D02*
X11599777Y-15287531D01*
X11599777Y-15287531D02*
X11609301Y-15278008D01*
X11609301Y-15278008D02*
X11628348Y-15268484D01*
X11771206Y-15287531D02*
X11780729Y-15278008D01*
X11780729Y-15278008D02*
X11799777Y-15268484D01*
X11799777Y-15268484D02*
X11847396Y-15268484D01*
X11847396Y-15268484D02*
X11866444Y-15278008D01*
X11866444Y-15278008D02*
X11875967Y-15287531D01*
X11875967Y-15287531D02*
X11885491Y-15306579D01*
X11885491Y-15306579D02*
X11885491Y-15325627D01*
X11885491Y-15325627D02*
X11875967Y-15354198D01*
X11875967Y-15354198D02*
X11761682Y-15468484D01*
X11761682Y-15468484D02*
X11885491Y-15468484D01*
X11952158Y-15268484D02*
X12075967Y-15268484D01*
X12075967Y-15268484D02*
X12009301Y-15344674D01*
X12009301Y-15344674D02*
X12037872Y-15344674D01*
X12037872Y-15344674D02*
X12056920Y-15354198D01*
X12056920Y-15354198D02*
X12066444Y-15363722D01*
X12066444Y-15363722D02*
X12075967Y-15382769D01*
X12075967Y-15382769D02*
X12075967Y-15430388D01*
X12075967Y-15430388D02*
X12066444Y-15449436D01*
X12066444Y-15449436D02*
X12056920Y-15458960D01*
X12056920Y-15458960D02*
X12037872Y-15468484D01*
X12037872Y-15468484D02*
X11980729Y-15468484D01*
X11980729Y-15468484D02*
X11961682Y-15458960D01*
X11961682Y-15458960D02*
X11952158Y-15449436D01*
X12247396Y-15268484D02*
X12209301Y-15268484D01*
X12209301Y-15268484D02*
X12190253Y-15278008D01*
X12190253Y-15278008D02*
X12180729Y-15287531D01*
X12180729Y-15287531D02*
X12161682Y-15316103D01*
X12161682Y-15316103D02*
X12152158Y-15354198D01*
X12152158Y-15354198D02*
X12152158Y-15430388D01*
X12152158Y-15430388D02*
X12161682Y-15449436D01*
X12161682Y-15449436D02*
X12171206Y-15458960D01*
X12171206Y-15458960D02*
X12190253Y-15468484D01*
X12190253Y-15468484D02*
X12228348Y-15468484D01*
X12228348Y-15468484D02*
X12247396Y-15458960D01*
X12247396Y-15458960D02*
X12256920Y-15449436D01*
X12256920Y-15449436D02*
X12266444Y-15430388D01*
X12266444Y-15430388D02*
X12266444Y-15382769D01*
X12266444Y-15382769D02*
X12256920Y-15363722D01*
X12256920Y-15363722D02*
X12247396Y-15354198D01*
X12247396Y-15354198D02*
X12228348Y-15344674D01*
X12228348Y-15344674D02*
X12190253Y-15344674D01*
X12190253Y-15344674D02*
X12171206Y-15354198D01*
X12171206Y-15354198D02*
X12161682Y-15363722D01*
X12161682Y-15363722D02*
X12152158Y-15382769D01*
X12342634Y-15268484D02*
X12342634Y-15306579D01*
X12418825Y-15268484D02*
X12418825Y-15306579D01*
X12714063Y-15544674D02*
X12704539Y-15535150D01*
X12704539Y-15535150D02*
X12685491Y-15506579D01*
X12685491Y-15506579D02*
X12675968Y-15487531D01*
X12675968Y-15487531D02*
X12666444Y-15458960D01*
X12666444Y-15458960D02*
X12656920Y-15411341D01*
X12656920Y-15411341D02*
X12656920Y-15373246D01*
X12656920Y-15373246D02*
X12666444Y-15325627D01*
X12666444Y-15325627D02*
X12675968Y-15297055D01*
X12675968Y-15297055D02*
X12685491Y-15278008D01*
X12685491Y-15278008D02*
X12704539Y-15249436D01*
X12704539Y-15249436D02*
X12714063Y-15239912D01*
X12780729Y-15287531D02*
X12790253Y-15278008D01*
X12790253Y-15278008D02*
X12809301Y-15268484D01*
X12809301Y-15268484D02*
X12856920Y-15268484D01*
X12856920Y-15268484D02*
X12875968Y-15278008D01*
X12875968Y-15278008D02*
X12885491Y-15287531D01*
X12885491Y-15287531D02*
X12895015Y-15306579D01*
X12895015Y-15306579D02*
X12895015Y-15325627D01*
X12895015Y-15325627D02*
X12885491Y-15354198D01*
X12885491Y-15354198D02*
X12771206Y-15468484D01*
X12771206Y-15468484D02*
X12895015Y-15468484D01*
X13133110Y-15468484D02*
X13133110Y-15268484D01*
X13218825Y-15468484D02*
X13218825Y-15363722D01*
X13218825Y-15363722D02*
X13209301Y-15344674D01*
X13209301Y-15344674D02*
X13190253Y-15335150D01*
X13190253Y-15335150D02*
X13161682Y-15335150D01*
X13161682Y-15335150D02*
X13142634Y-15344674D01*
X13142634Y-15344674D02*
X13133110Y-15354198D01*
X13342634Y-15468484D02*
X13323587Y-15458960D01*
X13323587Y-15458960D02*
X13314063Y-15449436D01*
X13314063Y-15449436D02*
X13304539Y-15430388D01*
X13304539Y-15430388D02*
X13304539Y-15373246D01*
X13304539Y-15373246D02*
X13314063Y-15354198D01*
X13314063Y-15354198D02*
X13323587Y-15344674D01*
X13323587Y-15344674D02*
X13342634Y-15335150D01*
X13342634Y-15335150D02*
X13371206Y-15335150D01*
X13371206Y-15335150D02*
X13390253Y-15344674D01*
X13390253Y-15344674D02*
X13399777Y-15354198D01*
X13399777Y-15354198D02*
X13409301Y-15373246D01*
X13409301Y-15373246D02*
X13409301Y-15430388D01*
X13409301Y-15430388D02*
X13399777Y-15449436D01*
X13399777Y-15449436D02*
X13390253Y-15458960D01*
X13390253Y-15458960D02*
X13371206Y-15468484D01*
X13371206Y-15468484D02*
X13342634Y-15468484D01*
X13523587Y-15468484D02*
X13504539Y-15458960D01*
X13504539Y-15458960D02*
X13495015Y-15439912D01*
X13495015Y-15439912D02*
X13495015Y-15268484D01*
X13675968Y-15458960D02*
X13656920Y-15468484D01*
X13656920Y-15468484D02*
X13618825Y-15468484D01*
X13618825Y-15468484D02*
X13599777Y-15458960D01*
X13599777Y-15458960D02*
X13590253Y-15439912D01*
X13590253Y-15439912D02*
X13590253Y-15363722D01*
X13590253Y-15363722D02*
X13599777Y-15344674D01*
X13599777Y-15344674D02*
X13618825Y-15335150D01*
X13618825Y-15335150D02*
X13656920Y-15335150D01*
X13656920Y-15335150D02*
X13675968Y-15344674D01*
X13675968Y-15344674D02*
X13685491Y-15363722D01*
X13685491Y-15363722D02*
X13685491Y-15382769D01*
X13685491Y-15382769D02*
X13590253Y-15401817D01*
X13761682Y-15458960D02*
X13780730Y-15468484D01*
X13780730Y-15468484D02*
X13818825Y-15468484D01*
X13818825Y-15468484D02*
X13837872Y-15458960D01*
X13837872Y-15458960D02*
X13847396Y-15439912D01*
X13847396Y-15439912D02*
X13847396Y-15430388D01*
X13847396Y-15430388D02*
X13837872Y-15411341D01*
X13837872Y-15411341D02*
X13818825Y-15401817D01*
X13818825Y-15401817D02*
X13790253Y-15401817D01*
X13790253Y-15401817D02*
X13771206Y-15392293D01*
X13771206Y-15392293D02*
X13761682Y-15373246D01*
X13761682Y-15373246D02*
X13761682Y-15363722D01*
X13761682Y-15363722D02*
X13771206Y-15344674D01*
X13771206Y-15344674D02*
X13790253Y-15335150D01*
X13790253Y-15335150D02*
X13818825Y-15335150D01*
X13818825Y-15335150D02*
X13837872Y-15344674D01*
X13914063Y-15544674D02*
X13923587Y-15535150D01*
X13923587Y-15535150D02*
X13942634Y-15506579D01*
X13942634Y-15506579D02*
X13952158Y-15487531D01*
X13952158Y-15487531D02*
X13961682Y-15458960D01*
X13961682Y-15458960D02*
X13971206Y-15411341D01*
X13971206Y-15411341D02*
X13971206Y-15373246D01*
X13971206Y-15373246D02*
X13961682Y-15325627D01*
X13961682Y-15325627D02*
X13952158Y-15297055D01*
X13952158Y-15297055D02*
X13942634Y-15278008D01*
X13942634Y-15278008D02*
X13923587Y-15249436D01*
X13923587Y-15249436D02*
X13914063Y-15239912D01*
D13*
X9139000Y-15641000D02*
G75*
G03*
X9139000Y-15641000I-40000J0D01*
G01*
D11*
X9437872Y-15532484D02*
X9456920Y-15532484D01*
X9456920Y-15532484D02*
X9475967Y-15542008D01*
X9475967Y-15542008D02*
X9485491Y-15551531D01*
X9485491Y-15551531D02*
X9495015Y-15570579D01*
X9495015Y-15570579D02*
X9504539Y-15608674D01*
X9504539Y-15608674D02*
X9504539Y-15656293D01*
X9504539Y-15656293D02*
X9495015Y-15694388D01*
X9495015Y-15694388D02*
X9485491Y-15713436D01*
X9485491Y-15713436D02*
X9475967Y-15722960D01*
X9475967Y-15722960D02*
X9456920Y-15732484D01*
X9456920Y-15732484D02*
X9437872Y-15732484D01*
X9437872Y-15732484D02*
X9418824Y-15722960D01*
X9418824Y-15722960D02*
X9409301Y-15713436D01*
X9409301Y-15713436D02*
X9399777Y-15694388D01*
X9399777Y-15694388D02*
X9390253Y-15656293D01*
X9390253Y-15656293D02*
X9390253Y-15608674D01*
X9390253Y-15608674D02*
X9399777Y-15570579D01*
X9399777Y-15570579D02*
X9409301Y-15551531D01*
X9409301Y-15551531D02*
X9418824Y-15542008D01*
X9418824Y-15542008D02*
X9437872Y-15532484D01*
X9590253Y-15713436D02*
X9599777Y-15722960D01*
X9599777Y-15722960D02*
X9590253Y-15732484D01*
X9590253Y-15732484D02*
X9580729Y-15722960D01*
X9580729Y-15722960D02*
X9590253Y-15713436D01*
X9590253Y-15713436D02*
X9590253Y-15732484D01*
X9714063Y-15618198D02*
X9695015Y-15608674D01*
X9695015Y-15608674D02*
X9685491Y-15599150D01*
X9685491Y-15599150D02*
X9675967Y-15580103D01*
X9675967Y-15580103D02*
X9675967Y-15570579D01*
X9675967Y-15570579D02*
X9685491Y-15551531D01*
X9685491Y-15551531D02*
X9695015Y-15542008D01*
X9695015Y-15542008D02*
X9714063Y-15532484D01*
X9714063Y-15532484D02*
X9752158Y-15532484D01*
X9752158Y-15532484D02*
X9771205Y-15542008D01*
X9771205Y-15542008D02*
X9780729Y-15551531D01*
X9780729Y-15551531D02*
X9790253Y-15570579D01*
X9790253Y-15570579D02*
X9790253Y-15580103D01*
X9790253Y-15580103D02*
X9780729Y-15599150D01*
X9780729Y-15599150D02*
X9771205Y-15608674D01*
X9771205Y-15608674D02*
X9752158Y-15618198D01*
X9752158Y-15618198D02*
X9714063Y-15618198D01*
X9714063Y-15618198D02*
X9695015Y-15627722D01*
X9695015Y-15627722D02*
X9685491Y-15637246D01*
X9685491Y-15637246D02*
X9675967Y-15656293D01*
X9675967Y-15656293D02*
X9675967Y-15694388D01*
X9675967Y-15694388D02*
X9685491Y-15713436D01*
X9685491Y-15713436D02*
X9695015Y-15722960D01*
X9695015Y-15722960D02*
X9714063Y-15732484D01*
X9714063Y-15732484D02*
X9752158Y-15732484D01*
X9752158Y-15732484D02*
X9771205Y-15722960D01*
X9771205Y-15722960D02*
X9780729Y-15713436D01*
X9780729Y-15713436D02*
X9790253Y-15694388D01*
X9790253Y-15694388D02*
X9790253Y-15656293D01*
X9790253Y-15656293D02*
X9780729Y-15637246D01*
X9780729Y-15637246D02*
X9771205Y-15627722D01*
X9771205Y-15627722D02*
X9752158Y-15618198D01*
X9914063Y-15532484D02*
X9933110Y-15532484D01*
X9933110Y-15532484D02*
X9952158Y-15542008D01*
X9952158Y-15542008D02*
X9961682Y-15551531D01*
X9961682Y-15551531D02*
X9971205Y-15570579D01*
X9971205Y-15570579D02*
X9980729Y-15608674D01*
X9980729Y-15608674D02*
X9980729Y-15656293D01*
X9980729Y-15656293D02*
X9971205Y-15694388D01*
X9971205Y-15694388D02*
X9961682Y-15713436D01*
X9961682Y-15713436D02*
X9952158Y-15722960D01*
X9952158Y-15722960D02*
X9933110Y-15732484D01*
X9933110Y-15732484D02*
X9914063Y-15732484D01*
X9914063Y-15732484D02*
X9895015Y-15722960D01*
X9895015Y-15722960D02*
X9885491Y-15713436D01*
X9885491Y-15713436D02*
X9875967Y-15694388D01*
X9875967Y-15694388D02*
X9866444Y-15656293D01*
X9866444Y-15656293D02*
X9866444Y-15608674D01*
X9866444Y-15608674D02*
X9875967Y-15570579D01*
X9875967Y-15570579D02*
X9885491Y-15551531D01*
X9885491Y-15551531D02*
X9895015Y-15542008D01*
X9895015Y-15542008D02*
X9914063Y-15532484D01*
X10104539Y-15532484D02*
X10123586Y-15532484D01*
X10123586Y-15532484D02*
X10142634Y-15542008D01*
X10142634Y-15542008D02*
X10152158Y-15551531D01*
X10152158Y-15551531D02*
X10161682Y-15570579D01*
X10161682Y-15570579D02*
X10171205Y-15608674D01*
X10171205Y-15608674D02*
X10171205Y-15656293D01*
X10171205Y-15656293D02*
X10161682Y-15694388D01*
X10161682Y-15694388D02*
X10152158Y-15713436D01*
X10152158Y-15713436D02*
X10142634Y-15722960D01*
X10142634Y-15722960D02*
X10123586Y-15732484D01*
X10123586Y-15732484D02*
X10104539Y-15732484D01*
X10104539Y-15732484D02*
X10085491Y-15722960D01*
X10085491Y-15722960D02*
X10075967Y-15713436D01*
X10075967Y-15713436D02*
X10066444Y-15694388D01*
X10066444Y-15694388D02*
X10056920Y-15656293D01*
X10056920Y-15656293D02*
X10056920Y-15608674D01*
X10056920Y-15608674D02*
X10066444Y-15570579D01*
X10066444Y-15570579D02*
X10075967Y-15551531D01*
X10075967Y-15551531D02*
X10085491Y-15542008D01*
X10085491Y-15542008D02*
X10104539Y-15532484D01*
X10256920Y-15732484D02*
X10256920Y-15599150D01*
X10256920Y-15618198D02*
X10266444Y-15608674D01*
X10266444Y-15608674D02*
X10285491Y-15599150D01*
X10285491Y-15599150D02*
X10314063Y-15599150D01*
X10314063Y-15599150D02*
X10333110Y-15608674D01*
X10333110Y-15608674D02*
X10342634Y-15627722D01*
X10342634Y-15627722D02*
X10342634Y-15732484D01*
X10342634Y-15627722D02*
X10352158Y-15608674D01*
X10352158Y-15608674D02*
X10371205Y-15599150D01*
X10371205Y-15599150D02*
X10399777Y-15599150D01*
X10399777Y-15599150D02*
X10418825Y-15608674D01*
X10418825Y-15608674D02*
X10428348Y-15627722D01*
X10428348Y-15627722D02*
X10428348Y-15732484D01*
X10523586Y-15732484D02*
X10523586Y-15599150D01*
X10523586Y-15618198D02*
X10533110Y-15608674D01*
X10533110Y-15608674D02*
X10552158Y-15599150D01*
X10552158Y-15599150D02*
X10580729Y-15599150D01*
X10580729Y-15599150D02*
X10599777Y-15608674D01*
X10599777Y-15608674D02*
X10609301Y-15627722D01*
X10609301Y-15627722D02*
X10609301Y-15732484D01*
X10609301Y-15627722D02*
X10618825Y-15608674D01*
X10618825Y-15608674D02*
X10637872Y-15599150D01*
X10637872Y-15599150D02*
X10666444Y-15599150D01*
X10666444Y-15599150D02*
X10685491Y-15608674D01*
X10685491Y-15608674D02*
X10695015Y-15627722D01*
X10695015Y-15627722D02*
X10695015Y-15732484D01*
X11085491Y-15522960D02*
X10914063Y-15780103D01*
X11342634Y-15532484D02*
X11361682Y-15532484D01*
X11361682Y-15532484D02*
X11380729Y-15542008D01*
X11380729Y-15542008D02*
X11390253Y-15551531D01*
X11390253Y-15551531D02*
X11399777Y-15570579D01*
X11399777Y-15570579D02*
X11409301Y-15608674D01*
X11409301Y-15608674D02*
X11409301Y-15656293D01*
X11409301Y-15656293D02*
X11399777Y-15694388D01*
X11399777Y-15694388D02*
X11390253Y-15713436D01*
X11390253Y-15713436D02*
X11380729Y-15722960D01*
X11380729Y-15722960D02*
X11361682Y-15732484D01*
X11361682Y-15732484D02*
X11342634Y-15732484D01*
X11342634Y-15732484D02*
X11323586Y-15722960D01*
X11323586Y-15722960D02*
X11314063Y-15713436D01*
X11314063Y-15713436D02*
X11304539Y-15694388D01*
X11304539Y-15694388D02*
X11295015Y-15656293D01*
X11295015Y-15656293D02*
X11295015Y-15608674D01*
X11295015Y-15608674D02*
X11304539Y-15570579D01*
X11304539Y-15570579D02*
X11314063Y-15551531D01*
X11314063Y-15551531D02*
X11323586Y-15542008D01*
X11323586Y-15542008D02*
X11342634Y-15532484D01*
X11495015Y-15713436D02*
X11504539Y-15722960D01*
X11504539Y-15722960D02*
X11495015Y-15732484D01*
X11495015Y-15732484D02*
X11485491Y-15722960D01*
X11485491Y-15722960D02*
X11495015Y-15713436D01*
X11495015Y-15713436D02*
X11495015Y-15732484D01*
X11628348Y-15532484D02*
X11647396Y-15532484D01*
X11647396Y-15532484D02*
X11666444Y-15542008D01*
X11666444Y-15542008D02*
X11675967Y-15551531D01*
X11675967Y-15551531D02*
X11685491Y-15570579D01*
X11685491Y-15570579D02*
X11695015Y-15608674D01*
X11695015Y-15608674D02*
X11695015Y-15656293D01*
X11695015Y-15656293D02*
X11685491Y-15694388D01*
X11685491Y-15694388D02*
X11675967Y-15713436D01*
X11675967Y-15713436D02*
X11666444Y-15722960D01*
X11666444Y-15722960D02*
X11647396Y-15732484D01*
X11647396Y-15732484D02*
X11628348Y-15732484D01*
X11628348Y-15732484D02*
X11609301Y-15722960D01*
X11609301Y-15722960D02*
X11599777Y-15713436D01*
X11599777Y-15713436D02*
X11590253Y-15694388D01*
X11590253Y-15694388D02*
X11580729Y-15656293D01*
X11580729Y-15656293D02*
X11580729Y-15608674D01*
X11580729Y-15608674D02*
X11590253Y-15570579D01*
X11590253Y-15570579D02*
X11599777Y-15551531D01*
X11599777Y-15551531D02*
X11609301Y-15542008D01*
X11609301Y-15542008D02*
X11628348Y-15532484D01*
X11761682Y-15532484D02*
X11885491Y-15532484D01*
X11885491Y-15532484D02*
X11818825Y-15608674D01*
X11818825Y-15608674D02*
X11847396Y-15608674D01*
X11847396Y-15608674D02*
X11866444Y-15618198D01*
X11866444Y-15618198D02*
X11875967Y-15627722D01*
X11875967Y-15627722D02*
X11885491Y-15646769D01*
X11885491Y-15646769D02*
X11885491Y-15694388D01*
X11885491Y-15694388D02*
X11875967Y-15713436D01*
X11875967Y-15713436D02*
X11866444Y-15722960D01*
X11866444Y-15722960D02*
X11847396Y-15732484D01*
X11847396Y-15732484D02*
X11790253Y-15732484D01*
X11790253Y-15732484D02*
X11771206Y-15722960D01*
X11771206Y-15722960D02*
X11761682Y-15713436D01*
X12075967Y-15732484D02*
X11961682Y-15732484D01*
X12018825Y-15732484D02*
X12018825Y-15532484D01*
X12018825Y-15532484D02*
X11999777Y-15561055D01*
X11999777Y-15561055D02*
X11980729Y-15580103D01*
X11980729Y-15580103D02*
X11961682Y-15589627D01*
X12256920Y-15532484D02*
X12161682Y-15532484D01*
X12161682Y-15532484D02*
X12152158Y-15627722D01*
X12152158Y-15627722D02*
X12161682Y-15618198D01*
X12161682Y-15618198D02*
X12180729Y-15608674D01*
X12180729Y-15608674D02*
X12228348Y-15608674D01*
X12228348Y-15608674D02*
X12247396Y-15618198D01*
X12247396Y-15618198D02*
X12256920Y-15627722D01*
X12256920Y-15627722D02*
X12266444Y-15646769D01*
X12266444Y-15646769D02*
X12266444Y-15694388D01*
X12266444Y-15694388D02*
X12256920Y-15713436D01*
X12256920Y-15713436D02*
X12247396Y-15722960D01*
X12247396Y-15722960D02*
X12228348Y-15732484D01*
X12228348Y-15732484D02*
X12180729Y-15732484D01*
X12180729Y-15732484D02*
X12161682Y-15722960D01*
X12161682Y-15722960D02*
X12152158Y-15713436D01*
X12342634Y-15532484D02*
X12342634Y-15570579D01*
X12418825Y-15532484D02*
X12418825Y-15570579D01*
X12714063Y-15808674D02*
X12704539Y-15799150D01*
X12704539Y-15799150D02*
X12685491Y-15770579D01*
X12685491Y-15770579D02*
X12675968Y-15751531D01*
X12675968Y-15751531D02*
X12666444Y-15722960D01*
X12666444Y-15722960D02*
X12656920Y-15675341D01*
X12656920Y-15675341D02*
X12656920Y-15637246D01*
X12656920Y-15637246D02*
X12666444Y-15589627D01*
X12666444Y-15589627D02*
X12675968Y-15561055D01*
X12675968Y-15561055D02*
X12685491Y-15542008D01*
X12685491Y-15542008D02*
X12704539Y-15513436D01*
X12704539Y-15513436D02*
X12714063Y-15503912D01*
X12780729Y-15551531D02*
X12790253Y-15542008D01*
X12790253Y-15542008D02*
X12809301Y-15532484D01*
X12809301Y-15532484D02*
X12856920Y-15532484D01*
X12856920Y-15532484D02*
X12875968Y-15542008D01*
X12875968Y-15542008D02*
X12885491Y-15551531D01*
X12885491Y-15551531D02*
X12895015Y-15570579D01*
X12895015Y-15570579D02*
X12895015Y-15589627D01*
X12895015Y-15589627D02*
X12885491Y-15618198D01*
X12885491Y-15618198D02*
X12771206Y-15732484D01*
X12771206Y-15732484D02*
X12895015Y-15732484D01*
X13018825Y-15532484D02*
X13037872Y-15532484D01*
X13037872Y-15532484D02*
X13056920Y-15542008D01*
X13056920Y-15542008D02*
X13066444Y-15551531D01*
X13066444Y-15551531D02*
X13075968Y-15570579D01*
X13075968Y-15570579D02*
X13085491Y-15608674D01*
X13085491Y-15608674D02*
X13085491Y-15656293D01*
X13085491Y-15656293D02*
X13075968Y-15694388D01*
X13075968Y-15694388D02*
X13066444Y-15713436D01*
X13066444Y-15713436D02*
X13056920Y-15722960D01*
X13056920Y-15722960D02*
X13037872Y-15732484D01*
X13037872Y-15732484D02*
X13018825Y-15732484D01*
X13018825Y-15732484D02*
X12999777Y-15722960D01*
X12999777Y-15722960D02*
X12990253Y-15713436D01*
X12990253Y-15713436D02*
X12980729Y-15694388D01*
X12980729Y-15694388D02*
X12971206Y-15656293D01*
X12971206Y-15656293D02*
X12971206Y-15608674D01*
X12971206Y-15608674D02*
X12980729Y-15570579D01*
X12980729Y-15570579D02*
X12990253Y-15551531D01*
X12990253Y-15551531D02*
X12999777Y-15542008D01*
X12999777Y-15542008D02*
X13018825Y-15532484D01*
X13323587Y-15732484D02*
X13323587Y-15532484D01*
X13409301Y-15732484D02*
X13409301Y-15627722D01*
X13409301Y-15627722D02*
X13399777Y-15608674D01*
X13399777Y-15608674D02*
X13380730Y-15599150D01*
X13380730Y-15599150D02*
X13352158Y-15599150D01*
X13352158Y-15599150D02*
X13333110Y-15608674D01*
X13333110Y-15608674D02*
X13323587Y-15618198D01*
X13533110Y-15732484D02*
X13514063Y-15722960D01*
X13514063Y-15722960D02*
X13504539Y-15713436D01*
X13504539Y-15713436D02*
X13495015Y-15694388D01*
X13495015Y-15694388D02*
X13495015Y-15637246D01*
X13495015Y-15637246D02*
X13504539Y-15618198D01*
X13504539Y-15618198D02*
X13514063Y-15608674D01*
X13514063Y-15608674D02*
X13533110Y-15599150D01*
X13533110Y-15599150D02*
X13561682Y-15599150D01*
X13561682Y-15599150D02*
X13580730Y-15608674D01*
X13580730Y-15608674D02*
X13590253Y-15618198D01*
X13590253Y-15618198D02*
X13599777Y-15637246D01*
X13599777Y-15637246D02*
X13599777Y-15694388D01*
X13599777Y-15694388D02*
X13590253Y-15713436D01*
X13590253Y-15713436D02*
X13580730Y-15722960D01*
X13580730Y-15722960D02*
X13561682Y-15732484D01*
X13561682Y-15732484D02*
X13533110Y-15732484D01*
X13714063Y-15732484D02*
X13695015Y-15722960D01*
X13695015Y-15722960D02*
X13685491Y-15703912D01*
X13685491Y-15703912D02*
X13685491Y-15532484D01*
X13866444Y-15722960D02*
X13847396Y-15732484D01*
X13847396Y-15732484D02*
X13809301Y-15732484D01*
X13809301Y-15732484D02*
X13790253Y-15722960D01*
X13790253Y-15722960D02*
X13780730Y-15703912D01*
X13780730Y-15703912D02*
X13780730Y-15627722D01*
X13780730Y-15627722D02*
X13790253Y-15608674D01*
X13790253Y-15608674D02*
X13809301Y-15599150D01*
X13809301Y-15599150D02*
X13847396Y-15599150D01*
X13847396Y-15599150D02*
X13866444Y-15608674D01*
X13866444Y-15608674D02*
X13875968Y-15627722D01*
X13875968Y-15627722D02*
X13875968Y-15646769D01*
X13875968Y-15646769D02*
X13780730Y-15665817D01*
X13952158Y-15722960D02*
X13971206Y-15732484D01*
X13971206Y-15732484D02*
X14009301Y-15732484D01*
X14009301Y-15732484D02*
X14028349Y-15722960D01*
X14028349Y-15722960D02*
X14037872Y-15703912D01*
X14037872Y-15703912D02*
X14037872Y-15694388D01*
X14037872Y-15694388D02*
X14028349Y-15675341D01*
X14028349Y-15675341D02*
X14009301Y-15665817D01*
X14009301Y-15665817D02*
X13980730Y-15665817D01*
X13980730Y-15665817D02*
X13961682Y-15656293D01*
X13961682Y-15656293D02*
X13952158Y-15637246D01*
X13952158Y-15637246D02*
X13952158Y-15627722D01*
X13952158Y-15627722D02*
X13961682Y-15608674D01*
X13961682Y-15608674D02*
X13980730Y-15599150D01*
X13980730Y-15599150D02*
X14009301Y-15599150D01*
X14009301Y-15599150D02*
X14028349Y-15608674D01*
X14104539Y-15808674D02*
X14114063Y-15799150D01*
X14114063Y-15799150D02*
X14133111Y-15770579D01*
X14133111Y-15770579D02*
X14142634Y-15751531D01*
X14142634Y-15751531D02*
X14152158Y-15722960D01*
X14152158Y-15722960D02*
X14161682Y-15675341D01*
X14161682Y-15675341D02*
X14161682Y-15637246D01*
X14161682Y-15637246D02*
X14152158Y-15589627D01*
X14152158Y-15589627D02*
X14142634Y-15561055D01*
X14142634Y-15561055D02*
X14133111Y-15542008D01*
X14133111Y-15542008D02*
X14114063Y-15513436D01*
X14114063Y-15513436D02*
X14104539Y-15503912D01*
D10*
X9089000Y-15855000D02*
X9089000Y-15955000D01*
X9039000Y-15905000D02*
X9139000Y-15905000D01*
D11*
X9504539Y-15996484D02*
X9390253Y-15996484D01*
X9447396Y-15996484D02*
X9447396Y-15796484D01*
X9447396Y-15796484D02*
X9428348Y-15825055D01*
X9428348Y-15825055D02*
X9409301Y-15844103D01*
X9409301Y-15844103D02*
X9390253Y-15853627D01*
X9590253Y-15977436D02*
X9599777Y-15986960D01*
X9599777Y-15986960D02*
X9590253Y-15996484D01*
X9590253Y-15996484D02*
X9580729Y-15986960D01*
X9580729Y-15986960D02*
X9590253Y-15977436D01*
X9590253Y-15977436D02*
X9590253Y-15996484D01*
X9723586Y-15796484D02*
X9742634Y-15796484D01*
X9742634Y-15796484D02*
X9761682Y-15806008D01*
X9761682Y-15806008D02*
X9771205Y-15815531D01*
X9771205Y-15815531D02*
X9780729Y-15834579D01*
X9780729Y-15834579D02*
X9790253Y-15872674D01*
X9790253Y-15872674D02*
X9790253Y-15920293D01*
X9790253Y-15920293D02*
X9780729Y-15958388D01*
X9780729Y-15958388D02*
X9771205Y-15977436D01*
X9771205Y-15977436D02*
X9761682Y-15986960D01*
X9761682Y-15986960D02*
X9742634Y-15996484D01*
X9742634Y-15996484D02*
X9723586Y-15996484D01*
X9723586Y-15996484D02*
X9704539Y-15986960D01*
X9704539Y-15986960D02*
X9695015Y-15977436D01*
X9695015Y-15977436D02*
X9685491Y-15958388D01*
X9685491Y-15958388D02*
X9675967Y-15920293D01*
X9675967Y-15920293D02*
X9675967Y-15872674D01*
X9675967Y-15872674D02*
X9685491Y-15834579D01*
X9685491Y-15834579D02*
X9695015Y-15815531D01*
X9695015Y-15815531D02*
X9704539Y-15806008D01*
X9704539Y-15806008D02*
X9723586Y-15796484D01*
X9914063Y-15796484D02*
X9933110Y-15796484D01*
X9933110Y-15796484D02*
X9952158Y-15806008D01*
X9952158Y-15806008D02*
X9961682Y-15815531D01*
X9961682Y-15815531D02*
X9971205Y-15834579D01*
X9971205Y-15834579D02*
X9980729Y-15872674D01*
X9980729Y-15872674D02*
X9980729Y-15920293D01*
X9980729Y-15920293D02*
X9971205Y-15958388D01*
X9971205Y-15958388D02*
X9961682Y-15977436D01*
X9961682Y-15977436D02*
X9952158Y-15986960D01*
X9952158Y-15986960D02*
X9933110Y-15996484D01*
X9933110Y-15996484D02*
X9914063Y-15996484D01*
X9914063Y-15996484D02*
X9895015Y-15986960D01*
X9895015Y-15986960D02*
X9885491Y-15977436D01*
X9885491Y-15977436D02*
X9875967Y-15958388D01*
X9875967Y-15958388D02*
X9866444Y-15920293D01*
X9866444Y-15920293D02*
X9866444Y-15872674D01*
X9866444Y-15872674D02*
X9875967Y-15834579D01*
X9875967Y-15834579D02*
X9885491Y-15815531D01*
X9885491Y-15815531D02*
X9895015Y-15806008D01*
X9895015Y-15806008D02*
X9914063Y-15796484D01*
X10104539Y-15796484D02*
X10123586Y-15796484D01*
X10123586Y-15796484D02*
X10142634Y-15806008D01*
X10142634Y-15806008D02*
X10152158Y-15815531D01*
X10152158Y-15815531D02*
X10161682Y-15834579D01*
X10161682Y-15834579D02*
X10171205Y-15872674D01*
X10171205Y-15872674D02*
X10171205Y-15920293D01*
X10171205Y-15920293D02*
X10161682Y-15958388D01*
X10161682Y-15958388D02*
X10152158Y-15977436D01*
X10152158Y-15977436D02*
X10142634Y-15986960D01*
X10142634Y-15986960D02*
X10123586Y-15996484D01*
X10123586Y-15996484D02*
X10104539Y-15996484D01*
X10104539Y-15996484D02*
X10085491Y-15986960D01*
X10085491Y-15986960D02*
X10075967Y-15977436D01*
X10075967Y-15977436D02*
X10066444Y-15958388D01*
X10066444Y-15958388D02*
X10056920Y-15920293D01*
X10056920Y-15920293D02*
X10056920Y-15872674D01*
X10056920Y-15872674D02*
X10066444Y-15834579D01*
X10066444Y-15834579D02*
X10075967Y-15815531D01*
X10075967Y-15815531D02*
X10085491Y-15806008D01*
X10085491Y-15806008D02*
X10104539Y-15796484D01*
X10256920Y-15996484D02*
X10256920Y-15863150D01*
X10256920Y-15882198D02*
X10266444Y-15872674D01*
X10266444Y-15872674D02*
X10285491Y-15863150D01*
X10285491Y-15863150D02*
X10314063Y-15863150D01*
X10314063Y-15863150D02*
X10333110Y-15872674D01*
X10333110Y-15872674D02*
X10342634Y-15891722D01*
X10342634Y-15891722D02*
X10342634Y-15996484D01*
X10342634Y-15891722D02*
X10352158Y-15872674D01*
X10352158Y-15872674D02*
X10371205Y-15863150D01*
X10371205Y-15863150D02*
X10399777Y-15863150D01*
X10399777Y-15863150D02*
X10418825Y-15872674D01*
X10418825Y-15872674D02*
X10428348Y-15891722D01*
X10428348Y-15891722D02*
X10428348Y-15996484D01*
X10523586Y-15996484D02*
X10523586Y-15863150D01*
X10523586Y-15882198D02*
X10533110Y-15872674D01*
X10533110Y-15872674D02*
X10552158Y-15863150D01*
X10552158Y-15863150D02*
X10580729Y-15863150D01*
X10580729Y-15863150D02*
X10599777Y-15872674D01*
X10599777Y-15872674D02*
X10609301Y-15891722D01*
X10609301Y-15891722D02*
X10609301Y-15996484D01*
X10609301Y-15891722D02*
X10618825Y-15872674D01*
X10618825Y-15872674D02*
X10637872Y-15863150D01*
X10637872Y-15863150D02*
X10666444Y-15863150D01*
X10666444Y-15863150D02*
X10685491Y-15872674D01*
X10685491Y-15872674D02*
X10695015Y-15891722D01*
X10695015Y-15891722D02*
X10695015Y-15996484D01*
X11085491Y-15786960D02*
X10914063Y-16044103D01*
X11342634Y-15796484D02*
X11361682Y-15796484D01*
X11361682Y-15796484D02*
X11380729Y-15806008D01*
X11380729Y-15806008D02*
X11390253Y-15815531D01*
X11390253Y-15815531D02*
X11399777Y-15834579D01*
X11399777Y-15834579D02*
X11409301Y-15872674D01*
X11409301Y-15872674D02*
X11409301Y-15920293D01*
X11409301Y-15920293D02*
X11399777Y-15958388D01*
X11399777Y-15958388D02*
X11390253Y-15977436D01*
X11390253Y-15977436D02*
X11380729Y-15986960D01*
X11380729Y-15986960D02*
X11361682Y-15996484D01*
X11361682Y-15996484D02*
X11342634Y-15996484D01*
X11342634Y-15996484D02*
X11323586Y-15986960D01*
X11323586Y-15986960D02*
X11314063Y-15977436D01*
X11314063Y-15977436D02*
X11304539Y-15958388D01*
X11304539Y-15958388D02*
X11295015Y-15920293D01*
X11295015Y-15920293D02*
X11295015Y-15872674D01*
X11295015Y-15872674D02*
X11304539Y-15834579D01*
X11304539Y-15834579D02*
X11314063Y-15815531D01*
X11314063Y-15815531D02*
X11323586Y-15806008D01*
X11323586Y-15806008D02*
X11342634Y-15796484D01*
X11495015Y-15977436D02*
X11504539Y-15986960D01*
X11504539Y-15986960D02*
X11495015Y-15996484D01*
X11495015Y-15996484D02*
X11485491Y-15986960D01*
X11485491Y-15986960D02*
X11495015Y-15977436D01*
X11495015Y-15977436D02*
X11495015Y-15996484D01*
X11628348Y-15796484D02*
X11647396Y-15796484D01*
X11647396Y-15796484D02*
X11666444Y-15806008D01*
X11666444Y-15806008D02*
X11675967Y-15815531D01*
X11675967Y-15815531D02*
X11685491Y-15834579D01*
X11685491Y-15834579D02*
X11695015Y-15872674D01*
X11695015Y-15872674D02*
X11695015Y-15920293D01*
X11695015Y-15920293D02*
X11685491Y-15958388D01*
X11685491Y-15958388D02*
X11675967Y-15977436D01*
X11675967Y-15977436D02*
X11666444Y-15986960D01*
X11666444Y-15986960D02*
X11647396Y-15996484D01*
X11647396Y-15996484D02*
X11628348Y-15996484D01*
X11628348Y-15996484D02*
X11609301Y-15986960D01*
X11609301Y-15986960D02*
X11599777Y-15977436D01*
X11599777Y-15977436D02*
X11590253Y-15958388D01*
X11590253Y-15958388D02*
X11580729Y-15920293D01*
X11580729Y-15920293D02*
X11580729Y-15872674D01*
X11580729Y-15872674D02*
X11590253Y-15834579D01*
X11590253Y-15834579D02*
X11599777Y-15815531D01*
X11599777Y-15815531D02*
X11609301Y-15806008D01*
X11609301Y-15806008D02*
X11628348Y-15796484D01*
X11761682Y-15796484D02*
X11885491Y-15796484D01*
X11885491Y-15796484D02*
X11818825Y-15872674D01*
X11818825Y-15872674D02*
X11847396Y-15872674D01*
X11847396Y-15872674D02*
X11866444Y-15882198D01*
X11866444Y-15882198D02*
X11875967Y-15891722D01*
X11875967Y-15891722D02*
X11885491Y-15910769D01*
X11885491Y-15910769D02*
X11885491Y-15958388D01*
X11885491Y-15958388D02*
X11875967Y-15977436D01*
X11875967Y-15977436D02*
X11866444Y-15986960D01*
X11866444Y-15986960D02*
X11847396Y-15996484D01*
X11847396Y-15996484D02*
X11790253Y-15996484D01*
X11790253Y-15996484D02*
X11771206Y-15986960D01*
X11771206Y-15986960D02*
X11761682Y-15977436D01*
X11980729Y-15996484D02*
X12018825Y-15996484D01*
X12018825Y-15996484D02*
X12037872Y-15986960D01*
X12037872Y-15986960D02*
X12047396Y-15977436D01*
X12047396Y-15977436D02*
X12066444Y-15948865D01*
X12066444Y-15948865D02*
X12075967Y-15910769D01*
X12075967Y-15910769D02*
X12075967Y-15834579D01*
X12075967Y-15834579D02*
X12066444Y-15815531D01*
X12066444Y-15815531D02*
X12056920Y-15806008D01*
X12056920Y-15806008D02*
X12037872Y-15796484D01*
X12037872Y-15796484D02*
X11999777Y-15796484D01*
X11999777Y-15796484D02*
X11980729Y-15806008D01*
X11980729Y-15806008D02*
X11971206Y-15815531D01*
X11971206Y-15815531D02*
X11961682Y-15834579D01*
X11961682Y-15834579D02*
X11961682Y-15882198D01*
X11961682Y-15882198D02*
X11971206Y-15901246D01*
X11971206Y-15901246D02*
X11980729Y-15910769D01*
X11980729Y-15910769D02*
X11999777Y-15920293D01*
X11999777Y-15920293D02*
X12037872Y-15920293D01*
X12037872Y-15920293D02*
X12056920Y-15910769D01*
X12056920Y-15910769D02*
X12066444Y-15901246D01*
X12066444Y-15901246D02*
X12075967Y-15882198D01*
X12247396Y-15863150D02*
X12247396Y-15996484D01*
X12199777Y-15786960D02*
X12152158Y-15929817D01*
X12152158Y-15929817D02*
X12275967Y-15929817D01*
X12342634Y-15796484D02*
X12342634Y-15834579D01*
X12418825Y-15796484D02*
X12418825Y-15834579D01*
X12714063Y-16072674D02*
X12704539Y-16063150D01*
X12704539Y-16063150D02*
X12685491Y-16034579D01*
X12685491Y-16034579D02*
X12675968Y-16015531D01*
X12675968Y-16015531D02*
X12666444Y-15986960D01*
X12666444Y-15986960D02*
X12656920Y-15939341D01*
X12656920Y-15939341D02*
X12656920Y-15901246D01*
X12656920Y-15901246D02*
X12666444Y-15853627D01*
X12666444Y-15853627D02*
X12675968Y-15825055D01*
X12675968Y-15825055D02*
X12685491Y-15806008D01*
X12685491Y-15806008D02*
X12704539Y-15777436D01*
X12704539Y-15777436D02*
X12714063Y-15767912D01*
X12771206Y-15796484D02*
X12895015Y-15796484D01*
X12895015Y-15796484D02*
X12828348Y-15872674D01*
X12828348Y-15872674D02*
X12856920Y-15872674D01*
X12856920Y-15872674D02*
X12875968Y-15882198D01*
X12875968Y-15882198D02*
X12885491Y-15891722D01*
X12885491Y-15891722D02*
X12895015Y-15910769D01*
X12895015Y-15910769D02*
X12895015Y-15958388D01*
X12895015Y-15958388D02*
X12885491Y-15977436D01*
X12885491Y-15977436D02*
X12875968Y-15986960D01*
X12875968Y-15986960D02*
X12856920Y-15996484D01*
X12856920Y-15996484D02*
X12799777Y-15996484D01*
X12799777Y-15996484D02*
X12780729Y-15986960D01*
X12780729Y-15986960D02*
X12771206Y-15977436D01*
X13018825Y-15796484D02*
X13037872Y-15796484D01*
X13037872Y-15796484D02*
X13056920Y-15806008D01*
X13056920Y-15806008D02*
X13066444Y-15815531D01*
X13066444Y-15815531D02*
X13075968Y-15834579D01*
X13075968Y-15834579D02*
X13085491Y-15872674D01*
X13085491Y-15872674D02*
X13085491Y-15920293D01*
X13085491Y-15920293D02*
X13075968Y-15958388D01*
X13075968Y-15958388D02*
X13066444Y-15977436D01*
X13066444Y-15977436D02*
X13056920Y-15986960D01*
X13056920Y-15986960D02*
X13037872Y-15996484D01*
X13037872Y-15996484D02*
X13018825Y-15996484D01*
X13018825Y-15996484D02*
X12999777Y-15986960D01*
X12999777Y-15986960D02*
X12990253Y-15977436D01*
X12990253Y-15977436D02*
X12980729Y-15958388D01*
X12980729Y-15958388D02*
X12971206Y-15920293D01*
X12971206Y-15920293D02*
X12971206Y-15872674D01*
X12971206Y-15872674D02*
X12980729Y-15834579D01*
X12980729Y-15834579D02*
X12990253Y-15815531D01*
X12990253Y-15815531D02*
X12999777Y-15806008D01*
X12999777Y-15806008D02*
X13018825Y-15796484D01*
X13323587Y-15996484D02*
X13323587Y-15796484D01*
X13409301Y-15996484D02*
X13409301Y-15891722D01*
X13409301Y-15891722D02*
X13399777Y-15872674D01*
X13399777Y-15872674D02*
X13380730Y-15863150D01*
X13380730Y-15863150D02*
X13352158Y-15863150D01*
X13352158Y-15863150D02*
X13333110Y-15872674D01*
X13333110Y-15872674D02*
X13323587Y-15882198D01*
X13533110Y-15996484D02*
X13514063Y-15986960D01*
X13514063Y-15986960D02*
X13504539Y-15977436D01*
X13504539Y-15977436D02*
X13495015Y-15958388D01*
X13495015Y-15958388D02*
X13495015Y-15901246D01*
X13495015Y-15901246D02*
X13504539Y-15882198D01*
X13504539Y-15882198D02*
X13514063Y-15872674D01*
X13514063Y-15872674D02*
X13533110Y-15863150D01*
X13533110Y-15863150D02*
X13561682Y-15863150D01*
X13561682Y-15863150D02*
X13580730Y-15872674D01*
X13580730Y-15872674D02*
X13590253Y-15882198D01*
X13590253Y-15882198D02*
X13599777Y-15901246D01*
X13599777Y-15901246D02*
X13599777Y-15958388D01*
X13599777Y-15958388D02*
X13590253Y-15977436D01*
X13590253Y-15977436D02*
X13580730Y-15986960D01*
X13580730Y-15986960D02*
X13561682Y-15996484D01*
X13561682Y-15996484D02*
X13533110Y-15996484D01*
X13714063Y-15996484D02*
X13695015Y-15986960D01*
X13695015Y-15986960D02*
X13685491Y-15967912D01*
X13685491Y-15967912D02*
X13685491Y-15796484D01*
X13866444Y-15986960D02*
X13847396Y-15996484D01*
X13847396Y-15996484D02*
X13809301Y-15996484D01*
X13809301Y-15996484D02*
X13790253Y-15986960D01*
X13790253Y-15986960D02*
X13780730Y-15967912D01*
X13780730Y-15967912D02*
X13780730Y-15891722D01*
X13780730Y-15891722D02*
X13790253Y-15872674D01*
X13790253Y-15872674D02*
X13809301Y-15863150D01*
X13809301Y-15863150D02*
X13847396Y-15863150D01*
X13847396Y-15863150D02*
X13866444Y-15872674D01*
X13866444Y-15872674D02*
X13875968Y-15891722D01*
X13875968Y-15891722D02*
X13875968Y-15910769D01*
X13875968Y-15910769D02*
X13780730Y-15929817D01*
X13952158Y-15986960D02*
X13971206Y-15996484D01*
X13971206Y-15996484D02*
X14009301Y-15996484D01*
X14009301Y-15996484D02*
X14028349Y-15986960D01*
X14028349Y-15986960D02*
X14037872Y-15967912D01*
X14037872Y-15967912D02*
X14037872Y-15958388D01*
X14037872Y-15958388D02*
X14028349Y-15939341D01*
X14028349Y-15939341D02*
X14009301Y-15929817D01*
X14009301Y-15929817D02*
X13980730Y-15929817D01*
X13980730Y-15929817D02*
X13961682Y-15920293D01*
X13961682Y-15920293D02*
X13952158Y-15901246D01*
X13952158Y-15901246D02*
X13952158Y-15891722D01*
X13952158Y-15891722D02*
X13961682Y-15872674D01*
X13961682Y-15872674D02*
X13980730Y-15863150D01*
X13980730Y-15863150D02*
X14009301Y-15863150D01*
X14009301Y-15863150D02*
X14028349Y-15872674D01*
X14104539Y-16072674D02*
X14114063Y-16063150D01*
X14114063Y-16063150D02*
X14133111Y-16034579D01*
X14133111Y-16034579D02*
X14142634Y-16015531D01*
X14142634Y-16015531D02*
X14152158Y-15986960D01*
X14152158Y-15986960D02*
X14161682Y-15939341D01*
X14161682Y-15939341D02*
X14161682Y-15901246D01*
X14161682Y-15901246D02*
X14152158Y-15853627D01*
X14152158Y-15853627D02*
X14142634Y-15825055D01*
X14142634Y-15825055D02*
X14133111Y-15806008D01*
X14133111Y-15806008D02*
X14114063Y-15777436D01*
X14114063Y-15777436D02*
X14104539Y-15767912D01*
D14*
X9122891Y-16207891D02*
X9122891Y-16130109D01*
X9045109Y-16130109D01*
X9045109Y-16207891D01*
X9122891Y-16207891D01*
D11*
X9504539Y-16260484D02*
X9390253Y-16260484D01*
X9447396Y-16260484D02*
X9447396Y-16060484D01*
X9447396Y-16060484D02*
X9428348Y-16089055D01*
X9428348Y-16089055D02*
X9409301Y-16108103D01*
X9409301Y-16108103D02*
X9390253Y-16117627D01*
X9590253Y-16241436D02*
X9599777Y-16250960D01*
X9599777Y-16250960D02*
X9590253Y-16260484D01*
X9590253Y-16260484D02*
X9580729Y-16250960D01*
X9580729Y-16250960D02*
X9590253Y-16241436D01*
X9590253Y-16241436D02*
X9590253Y-16260484D01*
X9790253Y-16260484D02*
X9675967Y-16260484D01*
X9733110Y-16260484D02*
X9733110Y-16060484D01*
X9733110Y-16060484D02*
X9714063Y-16089055D01*
X9714063Y-16089055D02*
X9695015Y-16108103D01*
X9695015Y-16108103D02*
X9675967Y-16117627D01*
X9914063Y-16060484D02*
X9933110Y-16060484D01*
X9933110Y-16060484D02*
X9952158Y-16070008D01*
X9952158Y-16070008D02*
X9961682Y-16079531D01*
X9961682Y-16079531D02*
X9971205Y-16098579D01*
X9971205Y-16098579D02*
X9980729Y-16136674D01*
X9980729Y-16136674D02*
X9980729Y-16184293D01*
X9980729Y-16184293D02*
X9971205Y-16222388D01*
X9971205Y-16222388D02*
X9961682Y-16241436D01*
X9961682Y-16241436D02*
X9952158Y-16250960D01*
X9952158Y-16250960D02*
X9933110Y-16260484D01*
X9933110Y-16260484D02*
X9914063Y-16260484D01*
X9914063Y-16260484D02*
X9895015Y-16250960D01*
X9895015Y-16250960D02*
X9885491Y-16241436D01*
X9885491Y-16241436D02*
X9875967Y-16222388D01*
X9875967Y-16222388D02*
X9866444Y-16184293D01*
X9866444Y-16184293D02*
X9866444Y-16136674D01*
X9866444Y-16136674D02*
X9875967Y-16098579D01*
X9875967Y-16098579D02*
X9885491Y-16079531D01*
X9885491Y-16079531D02*
X9895015Y-16070008D01*
X9895015Y-16070008D02*
X9914063Y-16060484D01*
X10104539Y-16060484D02*
X10123586Y-16060484D01*
X10123586Y-16060484D02*
X10142634Y-16070008D01*
X10142634Y-16070008D02*
X10152158Y-16079531D01*
X10152158Y-16079531D02*
X10161682Y-16098579D01*
X10161682Y-16098579D02*
X10171205Y-16136674D01*
X10171205Y-16136674D02*
X10171205Y-16184293D01*
X10171205Y-16184293D02*
X10161682Y-16222388D01*
X10161682Y-16222388D02*
X10152158Y-16241436D01*
X10152158Y-16241436D02*
X10142634Y-16250960D01*
X10142634Y-16250960D02*
X10123586Y-16260484D01*
X10123586Y-16260484D02*
X10104539Y-16260484D01*
X10104539Y-16260484D02*
X10085491Y-16250960D01*
X10085491Y-16250960D02*
X10075967Y-16241436D01*
X10075967Y-16241436D02*
X10066444Y-16222388D01*
X10066444Y-16222388D02*
X10056920Y-16184293D01*
X10056920Y-16184293D02*
X10056920Y-16136674D01*
X10056920Y-16136674D02*
X10066444Y-16098579D01*
X10066444Y-16098579D02*
X10075967Y-16079531D01*
X10075967Y-16079531D02*
X10085491Y-16070008D01*
X10085491Y-16070008D02*
X10104539Y-16060484D01*
X10256920Y-16260484D02*
X10256920Y-16127150D01*
X10256920Y-16146198D02*
X10266444Y-16136674D01*
X10266444Y-16136674D02*
X10285491Y-16127150D01*
X10285491Y-16127150D02*
X10314063Y-16127150D01*
X10314063Y-16127150D02*
X10333110Y-16136674D01*
X10333110Y-16136674D02*
X10342634Y-16155722D01*
X10342634Y-16155722D02*
X10342634Y-16260484D01*
X10342634Y-16155722D02*
X10352158Y-16136674D01*
X10352158Y-16136674D02*
X10371205Y-16127150D01*
X10371205Y-16127150D02*
X10399777Y-16127150D01*
X10399777Y-16127150D02*
X10418825Y-16136674D01*
X10418825Y-16136674D02*
X10428348Y-16155722D01*
X10428348Y-16155722D02*
X10428348Y-16260484D01*
X10523586Y-16260484D02*
X10523586Y-16127150D01*
X10523586Y-16146198D02*
X10533110Y-16136674D01*
X10533110Y-16136674D02*
X10552158Y-16127150D01*
X10552158Y-16127150D02*
X10580729Y-16127150D01*
X10580729Y-16127150D02*
X10599777Y-16136674D01*
X10599777Y-16136674D02*
X10609301Y-16155722D01*
X10609301Y-16155722D02*
X10609301Y-16260484D01*
X10609301Y-16155722D02*
X10618825Y-16136674D01*
X10618825Y-16136674D02*
X10637872Y-16127150D01*
X10637872Y-16127150D02*
X10666444Y-16127150D01*
X10666444Y-16127150D02*
X10685491Y-16136674D01*
X10685491Y-16136674D02*
X10695015Y-16155722D01*
X10695015Y-16155722D02*
X10695015Y-16260484D01*
X11085491Y-16050960D02*
X10914063Y-16308103D01*
X11342634Y-16060484D02*
X11361682Y-16060484D01*
X11361682Y-16060484D02*
X11380729Y-16070008D01*
X11380729Y-16070008D02*
X11390253Y-16079531D01*
X11390253Y-16079531D02*
X11399777Y-16098579D01*
X11399777Y-16098579D02*
X11409301Y-16136674D01*
X11409301Y-16136674D02*
X11409301Y-16184293D01*
X11409301Y-16184293D02*
X11399777Y-16222388D01*
X11399777Y-16222388D02*
X11390253Y-16241436D01*
X11390253Y-16241436D02*
X11380729Y-16250960D01*
X11380729Y-16250960D02*
X11361682Y-16260484D01*
X11361682Y-16260484D02*
X11342634Y-16260484D01*
X11342634Y-16260484D02*
X11323586Y-16250960D01*
X11323586Y-16250960D02*
X11314063Y-16241436D01*
X11314063Y-16241436D02*
X11304539Y-16222388D01*
X11304539Y-16222388D02*
X11295015Y-16184293D01*
X11295015Y-16184293D02*
X11295015Y-16136674D01*
X11295015Y-16136674D02*
X11304539Y-16098579D01*
X11304539Y-16098579D02*
X11314063Y-16079531D01*
X11314063Y-16079531D02*
X11323586Y-16070008D01*
X11323586Y-16070008D02*
X11342634Y-16060484D01*
X11495015Y-16241436D02*
X11504539Y-16250960D01*
X11504539Y-16250960D02*
X11495015Y-16260484D01*
X11495015Y-16260484D02*
X11485491Y-16250960D01*
X11485491Y-16250960D02*
X11495015Y-16241436D01*
X11495015Y-16241436D02*
X11495015Y-16260484D01*
X11628348Y-16060484D02*
X11647396Y-16060484D01*
X11647396Y-16060484D02*
X11666444Y-16070008D01*
X11666444Y-16070008D02*
X11675967Y-16079531D01*
X11675967Y-16079531D02*
X11685491Y-16098579D01*
X11685491Y-16098579D02*
X11695015Y-16136674D01*
X11695015Y-16136674D02*
X11695015Y-16184293D01*
X11695015Y-16184293D02*
X11685491Y-16222388D01*
X11685491Y-16222388D02*
X11675967Y-16241436D01*
X11675967Y-16241436D02*
X11666444Y-16250960D01*
X11666444Y-16250960D02*
X11647396Y-16260484D01*
X11647396Y-16260484D02*
X11628348Y-16260484D01*
X11628348Y-16260484D02*
X11609301Y-16250960D01*
X11609301Y-16250960D02*
X11599777Y-16241436D01*
X11599777Y-16241436D02*
X11590253Y-16222388D01*
X11590253Y-16222388D02*
X11580729Y-16184293D01*
X11580729Y-16184293D02*
X11580729Y-16136674D01*
X11580729Y-16136674D02*
X11590253Y-16098579D01*
X11590253Y-16098579D02*
X11599777Y-16079531D01*
X11599777Y-16079531D02*
X11609301Y-16070008D01*
X11609301Y-16070008D02*
X11628348Y-16060484D01*
X11866444Y-16127150D02*
X11866444Y-16260484D01*
X11818825Y-16050960D02*
X11771206Y-16193817D01*
X11771206Y-16193817D02*
X11895015Y-16193817D01*
X11952158Y-16060484D02*
X12075967Y-16060484D01*
X12075967Y-16060484D02*
X12009301Y-16136674D01*
X12009301Y-16136674D02*
X12037872Y-16136674D01*
X12037872Y-16136674D02*
X12056920Y-16146198D01*
X12056920Y-16146198D02*
X12066444Y-16155722D01*
X12066444Y-16155722D02*
X12075967Y-16174769D01*
X12075967Y-16174769D02*
X12075967Y-16222388D01*
X12075967Y-16222388D02*
X12066444Y-16241436D01*
X12066444Y-16241436D02*
X12056920Y-16250960D01*
X12056920Y-16250960D02*
X12037872Y-16260484D01*
X12037872Y-16260484D02*
X11980729Y-16260484D01*
X11980729Y-16260484D02*
X11961682Y-16250960D01*
X11961682Y-16250960D02*
X11952158Y-16241436D01*
X12142634Y-16060484D02*
X12266444Y-16060484D01*
X12266444Y-16060484D02*
X12199777Y-16136674D01*
X12199777Y-16136674D02*
X12228348Y-16136674D01*
X12228348Y-16136674D02*
X12247396Y-16146198D01*
X12247396Y-16146198D02*
X12256920Y-16155722D01*
X12256920Y-16155722D02*
X12266444Y-16174769D01*
X12266444Y-16174769D02*
X12266444Y-16222388D01*
X12266444Y-16222388D02*
X12256920Y-16241436D01*
X12256920Y-16241436D02*
X12247396Y-16250960D01*
X12247396Y-16250960D02*
X12228348Y-16260484D01*
X12228348Y-16260484D02*
X12171206Y-16260484D01*
X12171206Y-16260484D02*
X12152158Y-16250960D01*
X12152158Y-16250960D02*
X12142634Y-16241436D01*
X12342634Y-16060484D02*
X12342634Y-16098579D01*
X12418825Y-16060484D02*
X12418825Y-16098579D01*
X12714063Y-16336674D02*
X12704539Y-16327150D01*
X12704539Y-16327150D02*
X12685491Y-16298579D01*
X12685491Y-16298579D02*
X12675968Y-16279531D01*
X12675968Y-16279531D02*
X12666444Y-16250960D01*
X12666444Y-16250960D02*
X12656920Y-16203341D01*
X12656920Y-16203341D02*
X12656920Y-16165246D01*
X12656920Y-16165246D02*
X12666444Y-16117627D01*
X12666444Y-16117627D02*
X12675968Y-16089055D01*
X12675968Y-16089055D02*
X12685491Y-16070008D01*
X12685491Y-16070008D02*
X12704539Y-16041436D01*
X12704539Y-16041436D02*
X12714063Y-16031912D01*
X12771206Y-16060484D02*
X12895015Y-16060484D01*
X12895015Y-16060484D02*
X12828348Y-16136674D01*
X12828348Y-16136674D02*
X12856920Y-16136674D01*
X12856920Y-16136674D02*
X12875968Y-16146198D01*
X12875968Y-16146198D02*
X12885491Y-16155722D01*
X12885491Y-16155722D02*
X12895015Y-16174769D01*
X12895015Y-16174769D02*
X12895015Y-16222388D01*
X12895015Y-16222388D02*
X12885491Y-16241436D01*
X12885491Y-16241436D02*
X12875968Y-16250960D01*
X12875968Y-16250960D02*
X12856920Y-16260484D01*
X12856920Y-16260484D02*
X12799777Y-16260484D01*
X12799777Y-16260484D02*
X12780729Y-16250960D01*
X12780729Y-16250960D02*
X12771206Y-16241436D01*
X13133110Y-16260484D02*
X13133110Y-16060484D01*
X13218825Y-16260484D02*
X13218825Y-16155722D01*
X13218825Y-16155722D02*
X13209301Y-16136674D01*
X13209301Y-16136674D02*
X13190253Y-16127150D01*
X13190253Y-16127150D02*
X13161682Y-16127150D01*
X13161682Y-16127150D02*
X13142634Y-16136674D01*
X13142634Y-16136674D02*
X13133110Y-16146198D01*
X13342634Y-16260484D02*
X13323587Y-16250960D01*
X13323587Y-16250960D02*
X13314063Y-16241436D01*
X13314063Y-16241436D02*
X13304539Y-16222388D01*
X13304539Y-16222388D02*
X13304539Y-16165246D01*
X13304539Y-16165246D02*
X13314063Y-16146198D01*
X13314063Y-16146198D02*
X13323587Y-16136674D01*
X13323587Y-16136674D02*
X13342634Y-16127150D01*
X13342634Y-16127150D02*
X13371206Y-16127150D01*
X13371206Y-16127150D02*
X13390253Y-16136674D01*
X13390253Y-16136674D02*
X13399777Y-16146198D01*
X13399777Y-16146198D02*
X13409301Y-16165246D01*
X13409301Y-16165246D02*
X13409301Y-16222388D01*
X13409301Y-16222388D02*
X13399777Y-16241436D01*
X13399777Y-16241436D02*
X13390253Y-16250960D01*
X13390253Y-16250960D02*
X13371206Y-16260484D01*
X13371206Y-16260484D02*
X13342634Y-16260484D01*
X13523587Y-16260484D02*
X13504539Y-16250960D01*
X13504539Y-16250960D02*
X13495015Y-16231912D01*
X13495015Y-16231912D02*
X13495015Y-16060484D01*
X13675968Y-16250960D02*
X13656920Y-16260484D01*
X13656920Y-16260484D02*
X13618825Y-16260484D01*
X13618825Y-16260484D02*
X13599777Y-16250960D01*
X13599777Y-16250960D02*
X13590253Y-16231912D01*
X13590253Y-16231912D02*
X13590253Y-16155722D01*
X13590253Y-16155722D02*
X13599777Y-16136674D01*
X13599777Y-16136674D02*
X13618825Y-16127150D01*
X13618825Y-16127150D02*
X13656920Y-16127150D01*
X13656920Y-16127150D02*
X13675968Y-16136674D01*
X13675968Y-16136674D02*
X13685491Y-16155722D01*
X13685491Y-16155722D02*
X13685491Y-16174769D01*
X13685491Y-16174769D02*
X13590253Y-16193817D01*
X13761682Y-16250960D02*
X13780730Y-16260484D01*
X13780730Y-16260484D02*
X13818825Y-16260484D01*
X13818825Y-16260484D02*
X13837872Y-16250960D01*
X13837872Y-16250960D02*
X13847396Y-16231912D01*
X13847396Y-16231912D02*
X13847396Y-16222388D01*
X13847396Y-16222388D02*
X13837872Y-16203341D01*
X13837872Y-16203341D02*
X13818825Y-16193817D01*
X13818825Y-16193817D02*
X13790253Y-16193817D01*
X13790253Y-16193817D02*
X13771206Y-16184293D01*
X13771206Y-16184293D02*
X13761682Y-16165246D01*
X13761682Y-16165246D02*
X13761682Y-16155722D01*
X13761682Y-16155722D02*
X13771206Y-16136674D01*
X13771206Y-16136674D02*
X13790253Y-16127150D01*
X13790253Y-16127150D02*
X13818825Y-16127150D01*
X13818825Y-16127150D02*
X13837872Y-16136674D01*
X13914063Y-16336674D02*
X13923587Y-16327150D01*
X13923587Y-16327150D02*
X13942634Y-16298579D01*
X13942634Y-16298579D02*
X13952158Y-16279531D01*
X13952158Y-16279531D02*
X13961682Y-16250960D01*
X13961682Y-16250960D02*
X13971206Y-16203341D01*
X13971206Y-16203341D02*
X13971206Y-16165246D01*
X13971206Y-16165246D02*
X13961682Y-16117627D01*
X13961682Y-16117627D02*
X13952158Y-16089055D01*
X13952158Y-16089055D02*
X13942634Y-16070008D01*
X13942634Y-16070008D02*
X13923587Y-16041436D01*
X13923587Y-16041436D02*
X13914063Y-16031912D01*
M02*
