M48
; DRILL file {KiCad 7.0.7} date Mon Aug 28 09:16:23 2023
; FORMAT={-:-/ absolute / metric / decimal}
; #@! TF.CreationDate,2023-08-28T09:16:23+02:00
; #@! TF.GenerationSoftware,Kicad,Pcbnew,7.0.7
; #@! TF.FileFunction,Plated,1,2,PTH
FMAT,2
METRIC
; #@! TA.AperFunction,Plated,PTH,ComponentDrill
T1C0.600
; #@! TA.AperFunction,Plated,PTH,ComponentDrill
T2C0.800
; #@! TA.AperFunction,Plated,PTH,ComponentDrill
T3C1.000
; #@! TA.AperFunction,Plated,PTH,ComponentDrill
T4C1.100
%
G90
G05
T1
X115.34Y-132.08
X116.84Y-132.08
T2
X119.38Y-124.5
X119.38Y-127.0
X123.2Y-113.045
X123.2Y-115.585
X123.2Y-118.125
X123.2Y-120.665
X123.2Y-123.205
X123.2Y-125.745
X123.2Y-128.285
X123.2Y-130.825
X130.82Y-113.045
X130.82Y-115.585
X130.82Y-118.125
X130.82Y-120.665
X130.82Y-123.205
X130.82Y-125.745
X130.82Y-128.285
X130.82Y-130.825
X134.62Y-124.5
X134.62Y-127.0
T3
X99.06Y-121.92
X99.06Y-124.46
X99.06Y-127.0
X99.06Y-129.54
X99.06Y-132.08
X99.06Y-134.62
X99.06Y-137.16
X104.14Y-101.6
X106.68Y-101.6
X106.68Y-121.92
X106.68Y-124.46
X106.68Y-127.0
X106.68Y-129.54
X106.68Y-132.08
X106.68Y-134.62
X106.68Y-137.16
X109.22Y-101.6
X114.3Y-139.7
X114.3Y-142.24
X119.38Y-139.7
X119.38Y-142.24
X124.46Y-139.7
X124.46Y-142.24
X127.0Y-101.6
X129.54Y-101.6
X129.54Y-139.7
X129.54Y-142.24
X132.08Y-101.6
X134.62Y-139.7
X134.62Y-142.24
T4
X114.3Y-119.38
X114.3Y-121.92
X114.3Y-124.46
T0
M30
