%TF.GenerationSoftware,KiCad,Pcbnew,8.0.7-8.0.7-0~ubuntu22.04.1*%
%TF.CreationDate,2025-01-30T21:49:32+01:00*%
%TF.ProjectId,linefollower_pcb,6c696e65-666f-46c6-9c6f-7765725f7063,rev?*%
%TF.SameCoordinates,Original*%
%TF.FileFunction,Drillmap*%
%TF.FilePolarity,Positive*%
%FSLAX45Y45*%
G04 Gerber Fmt 4.5, Leading zero omitted, Abs format (unit mm)*
G04 Created by KiCad (PCBNEW 8.0.7-8.0.7-0~ubuntu22.04.1) date 2025-01-30 21:49:32*
%MOMM*%
%LPD*%
G01*
G04 APERTURE LIST*
%ADD10C,0.100000*%
%ADD11C,0.200000*%
%ADD12C,0.110000*%
%ADD13C,0.270000*%
G04 APERTURE END LIST*
D10*
X11017058Y-12242252D02*
G75*
G02*
X10657058Y-12602258I-360008J3D01*
G01*
X10657058Y-12602252D02*
X6620000Y-12600000D01*
X10652891Y-7500000D02*
G75*
G02*
X11014999Y-7876811I-15001J-376810D01*
G01*
X6614670Y-7500000D02*
X6297170Y-7500000D01*
X5950000Y-7854588D02*
G75*
G02*
X6297170Y-7499999I354670J-2D01*
G01*
X6302500Y-12600000D02*
G75*
G02*
X5952501Y-12245471I4560J354530D01*
G01*
X6614670Y-7500000D02*
X10652891Y-7500000D01*
X6620000Y-12600000D02*
X6302500Y-12600000D01*
X5952500Y-12245471D02*
X5950000Y-7854588D01*
X11015000Y-7876811D02*
X11017058Y-12242252D01*
D11*
D10*
X6015000Y-8110000D02*
X6055000Y-8150000D01*
X6055000Y-8110000D02*
X6015000Y-8150000D01*
X6020000Y-9375000D02*
X6060000Y-9415000D01*
X6060000Y-9375000D02*
X6020000Y-9415000D01*
X6255000Y-8420000D02*
X6295000Y-8460000D01*
X6295000Y-8420000D02*
X6255000Y-8460000D01*
X6265000Y-8920000D02*
X6305000Y-8960000D01*
X6305000Y-8920000D02*
X6265000Y-8960000D01*
X6505000Y-10395000D02*
X6545000Y-10435000D01*
X6545000Y-10395000D02*
X6505000Y-10435000D01*
X6570000Y-12480000D02*
X6610000Y-12520000D01*
X6610000Y-12480000D02*
X6570000Y-12520000D01*
X6600000Y-8675000D02*
X6640000Y-8715000D01*
X6640000Y-8675000D02*
X6600000Y-8715000D01*
X6710000Y-7675000D02*
X6750000Y-7715000D01*
X6750000Y-7675000D02*
X6710000Y-7715000D01*
X6822500Y-12320000D02*
X6862500Y-12360000D01*
X6862500Y-12320000D02*
X6822500Y-12360000D01*
X6955000Y-8415000D02*
X6995000Y-8455000D01*
X6995000Y-8415000D02*
X6955000Y-8455000D01*
X6985000Y-8935000D02*
X7025000Y-8975000D01*
X7025000Y-8935000D02*
X6985000Y-8975000D01*
X7020000Y-7995000D02*
X7060000Y-8035000D01*
X7060000Y-7995000D02*
X7020000Y-8035000D01*
X7177500Y-9787500D02*
X7217500Y-9827500D01*
X7217500Y-9787500D02*
X7177500Y-9827500D01*
X7237500Y-10862500D02*
X7277500Y-10902500D01*
X7277500Y-10862500D02*
X7237500Y-10902500D01*
X7250000Y-7575000D02*
X7290000Y-7615000D01*
X7290000Y-7575000D02*
X7250000Y-7615000D01*
X7330000Y-11780000D02*
X7370000Y-11820000D01*
X7370000Y-11780000D02*
X7330000Y-11820000D01*
X7480000Y-8455000D02*
X7520000Y-8495000D01*
X7520000Y-8455000D02*
X7480000Y-8495000D01*
X7505000Y-12055000D02*
X7545000Y-12095000D01*
X7545000Y-12055000D02*
X7505000Y-12095000D01*
X7741000Y-10604000D02*
X7781000Y-10644000D01*
X7781000Y-10604000D02*
X7741000Y-10644000D01*
X7905000Y-7605000D02*
X7945000Y-7645000D01*
X7945000Y-7605000D02*
X7905000Y-7645000D01*
X7930000Y-8230000D02*
X7970000Y-8270000D01*
X7970000Y-8230000D02*
X7930000Y-8270000D01*
X8030000Y-10225000D02*
X8070000Y-10265000D01*
X8070000Y-10225000D02*
X8030000Y-10265000D01*
X8065000Y-12350000D02*
X8105000Y-12390000D01*
X8105000Y-12350000D02*
X8065000Y-12390000D01*
X8067500Y-9337500D02*
X8107500Y-9377500D01*
X8107500Y-9337500D02*
X8067500Y-9377500D01*
X8090000Y-9845000D02*
X8130000Y-9885000D01*
X8130000Y-9845000D02*
X8090000Y-9885000D01*
X8280000Y-8505000D02*
X8320000Y-8545000D01*
X8320000Y-8505000D02*
X8280000Y-8545000D01*
X8327500Y-11145000D02*
X8367500Y-11185000D01*
X8367500Y-11145000D02*
X8327500Y-11185000D01*
X8330000Y-9030000D02*
X8370000Y-9070000D01*
X8370000Y-9030000D02*
X8330000Y-9070000D01*
X8365000Y-9570000D02*
X8405000Y-9610000D01*
X8405000Y-9570000D02*
X8365000Y-9610000D01*
X8380000Y-10130000D02*
X8420000Y-10170000D01*
X8420000Y-10130000D02*
X8380000Y-10170000D01*
X8385000Y-11535000D02*
X8425000Y-11575000D01*
X8425000Y-11535000D02*
X8385000Y-11575000D01*
X8510584Y-9310322D02*
X8550584Y-9350322D01*
X8550584Y-9310322D02*
X8510584Y-9350322D01*
X8595000Y-8115000D02*
X8635000Y-8155000D01*
X8635000Y-8115000D02*
X8595000Y-8155000D01*
X8610000Y-9300000D02*
X8650000Y-9340000D01*
X8650000Y-9300000D02*
X8610000Y-9340000D01*
X8610000Y-11205000D02*
X8650000Y-11245000D01*
X8650000Y-11205000D02*
X8610000Y-11245000D01*
X8635000Y-7560000D02*
X8675000Y-7600000D01*
X8675000Y-7560000D02*
X8635000Y-7600000D01*
X8695000Y-10470000D02*
X8735000Y-10510000D01*
X8735000Y-10470000D02*
X8695000Y-10510000D01*
X8705000Y-9235000D02*
X8745000Y-9275000D01*
X8745000Y-9235000D02*
X8705000Y-9275000D01*
X8735000Y-8572500D02*
X8775000Y-8612500D01*
X8775000Y-8572500D02*
X8735000Y-8612500D01*
X8825000Y-9175000D02*
X8865000Y-9215000D01*
X8865000Y-9175000D02*
X8825000Y-9215000D01*
X8825000Y-9510000D02*
X8865000Y-9550000D01*
X8865000Y-9510000D02*
X8825000Y-9550000D01*
X8830000Y-11730000D02*
X8870000Y-11770000D01*
X8870000Y-11730000D02*
X8830000Y-11770000D01*
X8905000Y-10265000D02*
X8945000Y-10305000D01*
X8945000Y-10265000D02*
X8905000Y-10305000D01*
X8935000Y-9145000D02*
X8975000Y-9185000D01*
X8975000Y-9145000D02*
X8935000Y-9185000D01*
X9070000Y-11110000D02*
X9110000Y-11150000D01*
X9110000Y-11110000D02*
X9070000Y-11150000D01*
X9120000Y-9127550D02*
X9160000Y-9167550D01*
X9160000Y-9127550D02*
X9120000Y-9167550D01*
X9199000Y-8572188D02*
X9239000Y-8612188D01*
X9239000Y-8572188D02*
X9199000Y-8612188D01*
X9275000Y-9025000D02*
X9315000Y-9065000D01*
X9315000Y-9025000D02*
X9275000Y-9065000D01*
X9375000Y-9505000D02*
X9415000Y-9545000D01*
X9415000Y-9505000D02*
X9375000Y-9545000D01*
X9513000Y-9586000D02*
X9553000Y-9626000D01*
X9553000Y-9586000D02*
X9513000Y-9626000D01*
X9513000Y-10094000D02*
X9553000Y-10134000D01*
X9553000Y-10094000D02*
X9513000Y-10134000D01*
X9520000Y-9842500D02*
X9560000Y-9882500D01*
X9560000Y-9842500D02*
X9520000Y-9882500D01*
X9525000Y-9715000D02*
X9565000Y-9755000D01*
X9565000Y-9715000D02*
X9525000Y-9755000D01*
X9540000Y-8185000D02*
X9580000Y-8225000D01*
X9580000Y-8185000D02*
X9540000Y-8225000D01*
X9609000Y-12160000D02*
X9649000Y-12200000D01*
X9649000Y-12160000D02*
X9609000Y-12200000D01*
X9695000Y-10390000D02*
X9735000Y-10430000D01*
X9735000Y-10390000D02*
X9695000Y-10430000D01*
X9807500Y-11105000D02*
X9847500Y-11145000D01*
X9847500Y-11105000D02*
X9807500Y-11145000D01*
X9840000Y-9757500D02*
X9880000Y-9797500D01*
X9880000Y-9757500D02*
X9840000Y-9797500D01*
X9845000Y-9615000D02*
X9885000Y-9655000D01*
X9885000Y-9615000D02*
X9845000Y-9655000D01*
X9855000Y-11645000D02*
X9895000Y-11685000D01*
X9895000Y-11645000D02*
X9855000Y-11685000D01*
X9860000Y-7630000D02*
X9900000Y-7670000D01*
X9900000Y-7630000D02*
X9860000Y-7670000D01*
X10140000Y-11335000D02*
X10180000Y-11375000D01*
X10180000Y-11335000D02*
X10140000Y-11375000D01*
X10170000Y-10825000D02*
X10210000Y-10865000D01*
X10210000Y-10825000D02*
X10170000Y-10865000D01*
X10200000Y-12372500D02*
X10240000Y-12412500D01*
X10240000Y-12372500D02*
X10200000Y-12412500D01*
X10245000Y-11837500D02*
X10285000Y-11877500D01*
X10285000Y-11837500D02*
X10245000Y-11877500D01*
X10355000Y-9857500D02*
X10395000Y-9897500D01*
X10395000Y-9857500D02*
X10355000Y-9897500D01*
X10382500Y-8572500D02*
X10422500Y-8612500D01*
X10422500Y-8572500D02*
X10382500Y-8612500D01*
X10401250Y-9335442D02*
X10441250Y-9375442D01*
X10441250Y-9335442D02*
X10401250Y-9375442D01*
X10405000Y-10290000D02*
X10445000Y-10330000D01*
X10445000Y-10290000D02*
X10405000Y-10330000D01*
X10895000Y-11157500D02*
X10935000Y-11197500D01*
X10935000Y-11157500D02*
X10895000Y-11197500D01*
X10895000Y-11500000D02*
X10935000Y-11540000D01*
X10935000Y-11500000D02*
X10895000Y-11540000D01*
X6117500Y-7860000D02*
G75*
G02*
X6067500Y-7860000I-25000J0D01*
G01*
X6067500Y-7860000D02*
G75*
G02*
X6117500Y-7860000I25000J0D01*
G01*
X6122500Y-12200000D02*
G75*
G02*
X6072500Y-12200000I-25000J0D01*
G01*
X6072500Y-12200000D02*
G75*
G02*
X6122500Y-12200000I25000J0D01*
G01*
X6176811Y-7716811D02*
G75*
G02*
X6126811Y-7716811I-25000J0D01*
G01*
X6126811Y-7716811D02*
G75*
G02*
X6176811Y-7716811I25000J0D01*
G01*
X6176811Y-8003189D02*
G75*
G02*
X6126811Y-8003189I-25000J0D01*
G01*
X6126811Y-8003189D02*
G75*
G02*
X6176811Y-8003189I25000J0D01*
G01*
X6181811Y-12056811D02*
G75*
G02*
X6131811Y-12056811I-25000J0D01*
G01*
X6131811Y-12056811D02*
G75*
G02*
X6181811Y-12056811I25000J0D01*
G01*
X6181811Y-12343189D02*
G75*
G02*
X6131811Y-12343189I-25000J0D01*
G01*
X6131811Y-12343189D02*
G75*
G02*
X6181811Y-12343189I25000J0D01*
G01*
X6320000Y-7657500D02*
G75*
G02*
X6270000Y-7657500I-25000J0D01*
G01*
X6270000Y-7657500D02*
G75*
G02*
X6320000Y-7657500I25000J0D01*
G01*
X6320000Y-8062500D02*
G75*
G02*
X6270000Y-8062500I-25000J0D01*
G01*
X6270000Y-8062500D02*
G75*
G02*
X6320000Y-8062500I25000J0D01*
G01*
X6325000Y-11997500D02*
G75*
G02*
X6275000Y-11997500I-25000J0D01*
G01*
X6275000Y-11997500D02*
G75*
G02*
X6325000Y-11997500I25000J0D01*
G01*
X6325000Y-12402500D02*
G75*
G02*
X6275000Y-12402500I-25000J0D01*
G01*
X6275000Y-12402500D02*
G75*
G02*
X6325000Y-12402500I25000J0D01*
G01*
X6463189Y-7716811D02*
G75*
G02*
X6413189Y-7716811I-25000J0D01*
G01*
X6413189Y-7716811D02*
G75*
G02*
X6463189Y-7716811I25000J0D01*
G01*
X6463189Y-8003189D02*
G75*
G02*
X6413189Y-8003189I-25000J0D01*
G01*
X6413189Y-8003189D02*
G75*
G02*
X6463189Y-8003189I25000J0D01*
G01*
X6468189Y-12056811D02*
G75*
G02*
X6418189Y-12056811I-25000J0D01*
G01*
X6418189Y-12056811D02*
G75*
G02*
X6468189Y-12056811I25000J0D01*
G01*
X6468189Y-12343189D02*
G75*
G02*
X6418189Y-12343189I-25000J0D01*
G01*
X6418189Y-12343189D02*
G75*
G02*
X6468189Y-12343189I25000J0D01*
G01*
X6522500Y-7860000D02*
G75*
G02*
X6472500Y-7860000I-25000J0D01*
G01*
X6472500Y-7860000D02*
G75*
G02*
X6522500Y-7860000I25000J0D01*
G01*
X6527500Y-12200000D02*
G75*
G02*
X6477500Y-12200000I-25000J0D01*
G01*
X6477500Y-12200000D02*
G75*
G02*
X6527500Y-12200000I25000J0D01*
G01*
X8310000Y-12255000D02*
G75*
G02*
X8260000Y-12255000I-25000J0D01*
G01*
X8260000Y-12255000D02*
G75*
G02*
X8310000Y-12255000I25000J0D01*
G01*
X8310000Y-12290000D02*
X8310000Y-12220000D01*
X8260000Y-12220000D02*
G75*
G02*
X8310000Y-12220000I25000J0D01*
G01*
X8260000Y-12220000D02*
X8260000Y-12290000D01*
X8260000Y-12290000D02*
G75*
G03*
X8310000Y-12290000I25000J0D01*
G01*
X8970000Y-12255000D02*
G75*
G02*
X8920000Y-12255000I-25000J0D01*
G01*
X8920000Y-12255000D02*
G75*
G02*
X8970000Y-12255000I25000J0D01*
G01*
X8970000Y-12290000D02*
X8970000Y-12220000D01*
X8920000Y-12220000D02*
G75*
G02*
X8970000Y-12220000I25000J0D01*
G01*
X8920000Y-12220000D02*
X8920000Y-12290000D01*
X8920000Y-12290000D02*
G75*
G03*
X8970000Y-12290000I25000J0D01*
G01*
X10455000Y-7906811D02*
G75*
G02*
X10405000Y-7906811I-25000J0D01*
G01*
X10405000Y-7906811D02*
G75*
G02*
X10455000Y-7906811I25000J0D01*
G01*
X10457500Y-12221811D02*
G75*
G02*
X10407500Y-12221811I-25000J0D01*
G01*
X10407500Y-12221811D02*
G75*
G02*
X10457500Y-12221811I25000J0D01*
G01*
X10514311Y-7763622D02*
G75*
G02*
X10464311Y-7763622I-25000J0D01*
G01*
X10464311Y-7763622D02*
G75*
G02*
X10514311Y-7763622I25000J0D01*
G01*
X10514311Y-8050000D02*
G75*
G02*
X10464311Y-8050000I-25000J0D01*
G01*
X10464311Y-8050000D02*
G75*
G02*
X10514311Y-8050000I25000J0D01*
G01*
X10516811Y-12078622D02*
G75*
G02*
X10466811Y-12078622I-25000J0D01*
G01*
X10466811Y-12078622D02*
G75*
G02*
X10516811Y-12078622I25000J0D01*
G01*
X10516811Y-12365000D02*
G75*
G02*
X10466811Y-12365000I-25000J0D01*
G01*
X10466811Y-12365000D02*
G75*
G02*
X10516811Y-12365000I25000J0D01*
G01*
X10657500Y-7704311D02*
G75*
G02*
X10607500Y-7704311I-25000J0D01*
G01*
X10607500Y-7704311D02*
G75*
G02*
X10657500Y-7704311I25000J0D01*
G01*
X10657500Y-8109311D02*
G75*
G02*
X10607500Y-8109311I-25000J0D01*
G01*
X10607500Y-8109311D02*
G75*
G02*
X10657500Y-8109311I25000J0D01*
G01*
X10660000Y-12019311D02*
G75*
G02*
X10610000Y-12019311I-25000J0D01*
G01*
X10610000Y-12019311D02*
G75*
G02*
X10660000Y-12019311I25000J0D01*
G01*
X10660000Y-12424311D02*
G75*
G02*
X10610000Y-12424311I-25000J0D01*
G01*
X10610000Y-12424311D02*
G75*
G02*
X10660000Y-12424311I25000J0D01*
G01*
X10800689Y-7763622D02*
G75*
G02*
X10750689Y-7763622I-25000J0D01*
G01*
X10750689Y-7763622D02*
G75*
G02*
X10800689Y-7763622I25000J0D01*
G01*
X10800689Y-8050000D02*
G75*
G02*
X10750689Y-8050000I-25000J0D01*
G01*
X10750689Y-8050000D02*
G75*
G02*
X10800689Y-8050000I25000J0D01*
G01*
X10803189Y-12078622D02*
G75*
G02*
X10753189Y-12078622I-25000J0D01*
G01*
X10753189Y-12078622D02*
G75*
G02*
X10803189Y-12078622I25000J0D01*
G01*
X10803189Y-12365000D02*
G75*
G02*
X10753189Y-12365000I-25000J0D01*
G01*
X10753189Y-12365000D02*
G75*
G02*
X10803189Y-12365000I25000J0D01*
G01*
X10860000Y-7906811D02*
G75*
G02*
X10810000Y-7906811I-25000J0D01*
G01*
X10810000Y-7906811D02*
G75*
G02*
X10860000Y-7906811I25000J0D01*
G01*
X10862500Y-12221811D02*
G75*
G02*
X10812500Y-12221811I-25000J0D01*
G01*
X10812500Y-12221811D02*
G75*
G02*
X10862500Y-12221811I25000J0D01*
G01*
X10010000Y-8447000D02*
X10010000Y-8527000D01*
X9970000Y-8487000D02*
X10050000Y-8487000D01*
X10010000Y-8701000D02*
X10010000Y-8781000D01*
X9970000Y-8741000D02*
X10050000Y-8741000D01*
X10010000Y-8955000D02*
X10010000Y-9035000D01*
X9970000Y-8995000D02*
X10050000Y-8995000D01*
X10010000Y-9209000D02*
X10010000Y-9289000D01*
X9970000Y-9249000D02*
X10050000Y-9249000D01*
X10010000Y-9463000D02*
X10010000Y-9543000D01*
X9970000Y-9503000D02*
X10050000Y-9503000D01*
X10010000Y-9717000D02*
X10010000Y-9797000D01*
X9970000Y-9757000D02*
X10050000Y-9757000D01*
X10010000Y-9971000D02*
X10010000Y-10051000D01*
X9970000Y-10011000D02*
X10050000Y-10011000D01*
X10010000Y-10225000D02*
X10010000Y-10305000D01*
X9970000Y-10265000D02*
X10050000Y-10265000D01*
X10772000Y-8447000D02*
X10772000Y-8527000D01*
X10732000Y-8487000D02*
X10812000Y-8487000D01*
X10772000Y-8701000D02*
X10772000Y-8781000D01*
X10732000Y-8741000D02*
X10812000Y-8741000D01*
X10772000Y-8955000D02*
X10772000Y-9035000D01*
X10732000Y-8995000D02*
X10812000Y-8995000D01*
X10772000Y-9209000D02*
X10772000Y-9289000D01*
X10732000Y-9249000D02*
X10812000Y-9249000D01*
X10772000Y-9463000D02*
X10772000Y-9543000D01*
X10732000Y-9503000D02*
X10812000Y-9503000D01*
X10772000Y-9717000D02*
X10772000Y-9797000D01*
X10732000Y-9757000D02*
X10812000Y-9757000D01*
X10772000Y-9971000D02*
X10772000Y-10051000D01*
X10732000Y-10011000D02*
X10812000Y-10011000D01*
X10772000Y-10225000D02*
X10772000Y-10305000D01*
X10732000Y-10265000D02*
X10812000Y-10265000D01*
X7460356Y-8944856D02*
X7460356Y-8874144D01*
X7389644Y-8874144D01*
X7389644Y-8944856D01*
X7460356Y-8944856D01*
X7460356Y-9198856D02*
X7460356Y-9128144D01*
X7389644Y-9128144D01*
X7389644Y-9198856D01*
X7460356Y-9198856D01*
X7460356Y-9452856D02*
X7460356Y-9382144D01*
X7389644Y-9382144D01*
X7389644Y-9452856D01*
X7460356Y-9452856D01*
X7460356Y-9706856D02*
X7460356Y-9636144D01*
X7389644Y-9636144D01*
X7389644Y-9706856D01*
X7460356Y-9706856D01*
X7460356Y-9960856D02*
X7460356Y-9890144D01*
X7389644Y-9890144D01*
X7389644Y-9960856D01*
X7460356Y-9960856D01*
X7460356Y-10214856D02*
X7460356Y-10144144D01*
X7389644Y-10144144D01*
X7389644Y-10214856D01*
X7460356Y-10214856D01*
X7460356Y-10468856D02*
X7460356Y-10398144D01*
X7389644Y-10398144D01*
X7389644Y-10468856D01*
X7460356Y-10468856D01*
X7460356Y-10722856D02*
X7460356Y-10652144D01*
X7389644Y-10652144D01*
X7389644Y-10722856D01*
X7460356Y-10722856D01*
X7499356Y-7965356D02*
X7499356Y-7894644D01*
X7428644Y-7894644D01*
X7428644Y-7965356D01*
X7499356Y-7965356D01*
X7753356Y-7965356D02*
X7753356Y-7894644D01*
X7682644Y-7894644D01*
X7682644Y-7965356D01*
X7753356Y-7965356D01*
X7981356Y-11685356D02*
X7981356Y-11614644D01*
X7910644Y-11614644D01*
X7910644Y-11685356D01*
X7981356Y-11685356D01*
X8007356Y-7965356D02*
X8007356Y-7894644D01*
X7936644Y-7894644D01*
X7936644Y-7965356D01*
X8007356Y-7965356D01*
X8235356Y-11685356D02*
X8235356Y-11614644D01*
X8164644Y-11614644D01*
X8164644Y-11685356D01*
X8235356Y-11685356D01*
X8261356Y-7965356D02*
X8261356Y-7894644D01*
X8190644Y-7894644D01*
X8190644Y-7965356D01*
X8261356Y-7965356D01*
X8515356Y-7965356D02*
X8515356Y-7894644D01*
X8444644Y-7894644D01*
X8444644Y-7965356D01*
X8515356Y-7965356D01*
X8769356Y-7965356D02*
X8769356Y-7894644D01*
X8698644Y-7894644D01*
X8698644Y-7965356D01*
X8769356Y-7965356D01*
X9023356Y-7965356D02*
X9023356Y-7894644D01*
X8952644Y-7894644D01*
X8952644Y-7965356D01*
X9023356Y-7965356D01*
X9131356Y-11695356D02*
X9131356Y-11624644D01*
X9060644Y-11624644D01*
X9060644Y-11695356D01*
X9131356Y-11695356D01*
X9277356Y-7965356D02*
X9277356Y-7894644D01*
X9206644Y-7894644D01*
X9206644Y-7965356D01*
X9277356Y-7965356D01*
X9385356Y-11695356D02*
X9385356Y-11624644D01*
X9314644Y-11624644D01*
X9314644Y-11695356D01*
X9385356Y-11695356D01*
X9531356Y-7965356D02*
X9531356Y-7894644D01*
X9460644Y-7894644D01*
X9460644Y-7965356D01*
X9531356Y-7965356D01*
X9785356Y-7965356D02*
X9785356Y-7894644D01*
X9714644Y-7894644D01*
X9714644Y-7965356D01*
X9785356Y-7965356D01*
X10039356Y-7965356D02*
X10039356Y-7894644D01*
X9968644Y-7894644D01*
X9968644Y-7965356D01*
X10039356Y-7965356D01*
X10745356Y-10760356D02*
X10745356Y-10689644D01*
X10674644Y-10689644D01*
X10674644Y-10760356D01*
X10745356Y-10760356D01*
X10745356Y-11014356D02*
X10745356Y-10943644D01*
X10674644Y-10943644D01*
X10674644Y-11014356D01*
X10745356Y-11014356D01*
D12*
X6285000Y-11263113D02*
X6340000Y-11208113D01*
X6285000Y-11153113D01*
X6230000Y-11208113D01*
X6285000Y-11263113D01*
X6285000Y-11713113D02*
X6340000Y-11658113D01*
X6285000Y-11603113D01*
X6230000Y-11658113D01*
X6285000Y-11713113D01*
X6290000Y-10095000D02*
X6345000Y-10040000D01*
X6290000Y-9985000D01*
X6235000Y-10040000D01*
X6290000Y-10095000D01*
X6290000Y-10545000D02*
X6345000Y-10490000D01*
X6290000Y-10435000D01*
X6235000Y-10490000D01*
X6290000Y-10545000D01*
X6935000Y-11263113D02*
X6990000Y-11208113D01*
X6935000Y-11153113D01*
X6880000Y-11208113D01*
X6935000Y-11263113D01*
X6935000Y-11713113D02*
X6990000Y-11658113D01*
X6935000Y-11603113D01*
X6880000Y-11658113D01*
X6935000Y-11713113D01*
X6940000Y-10095000D02*
X6995000Y-10040000D01*
X6940000Y-9985000D01*
X6885000Y-10040000D01*
X6940000Y-10095000D01*
X6940000Y-10545000D02*
X6995000Y-10490000D01*
X6940000Y-10435000D01*
X6885000Y-10490000D01*
X6940000Y-10545000D01*
D13*
X6160000Y-7725000D02*
X6430000Y-7995000D01*
X6430000Y-7725000D02*
X6160000Y-7995000D01*
X6430000Y-7860000D02*
G75*
G02*
X6160000Y-7860000I-135000J0D01*
G01*
X6160000Y-7860000D02*
G75*
G02*
X6430000Y-7860000I135000J0D01*
G01*
X6165000Y-12065000D02*
X6435000Y-12335000D01*
X6435000Y-12065000D02*
X6165000Y-12335000D01*
X6435000Y-12200000D02*
G75*
G02*
X6165000Y-12200000I-135000J0D01*
G01*
X6165000Y-12200000D02*
G75*
G02*
X6435000Y-12200000I135000J0D01*
G01*
X10497500Y-7771811D02*
X10767500Y-8041811D01*
X10767500Y-7771811D02*
X10497500Y-8041811D01*
X10767500Y-7906811D02*
G75*
G02*
X10497500Y-7906811I-135000J0D01*
G01*
X10497500Y-7906811D02*
G75*
G02*
X10767500Y-7906811I135000J0D01*
G01*
X10500000Y-12086811D02*
X10770000Y-12356811D01*
X10770000Y-12086811D02*
X10500000Y-12356811D01*
X10770000Y-12221811D02*
G75*
G02*
X10500000Y-12221811I-135000J0D01*
G01*
X10500000Y-12221811D02*
G75*
G02*
X10770000Y-12221811I135000J0D01*
G01*
D11*
X6205777Y-12918736D02*
X6205777Y-12718736D01*
X6205777Y-12718736D02*
X6253396Y-12718736D01*
X6253396Y-12718736D02*
X6281967Y-12728260D01*
X6281967Y-12728260D02*
X6301015Y-12747308D01*
X6301015Y-12747308D02*
X6310539Y-12766355D01*
X6310539Y-12766355D02*
X6320062Y-12804450D01*
X6320062Y-12804450D02*
X6320062Y-12833022D01*
X6320062Y-12833022D02*
X6310539Y-12871117D01*
X6310539Y-12871117D02*
X6301015Y-12890165D01*
X6301015Y-12890165D02*
X6281967Y-12909212D01*
X6281967Y-12909212D02*
X6253396Y-12918736D01*
X6253396Y-12918736D02*
X6205777Y-12918736D01*
X6405777Y-12918736D02*
X6405777Y-12785403D01*
X6405777Y-12823498D02*
X6415301Y-12804450D01*
X6415301Y-12804450D02*
X6424824Y-12794927D01*
X6424824Y-12794927D02*
X6443872Y-12785403D01*
X6443872Y-12785403D02*
X6462920Y-12785403D01*
X6529586Y-12918736D02*
X6529586Y-12785403D01*
X6529586Y-12718736D02*
X6520062Y-12728260D01*
X6520062Y-12728260D02*
X6529586Y-12737784D01*
X6529586Y-12737784D02*
X6539110Y-12728260D01*
X6539110Y-12728260D02*
X6529586Y-12718736D01*
X6529586Y-12718736D02*
X6529586Y-12737784D01*
X6653396Y-12918736D02*
X6634348Y-12909212D01*
X6634348Y-12909212D02*
X6624824Y-12890165D01*
X6624824Y-12890165D02*
X6624824Y-12718736D01*
X6758158Y-12918736D02*
X6739110Y-12909212D01*
X6739110Y-12909212D02*
X6729586Y-12890165D01*
X6729586Y-12890165D02*
X6729586Y-12718736D01*
X6986729Y-12918736D02*
X6986729Y-12718736D01*
X6986729Y-12718736D02*
X7053396Y-12861593D01*
X7053396Y-12861593D02*
X7120062Y-12718736D01*
X7120062Y-12718736D02*
X7120062Y-12918736D01*
X7301015Y-12918736D02*
X7301015Y-12813974D01*
X7301015Y-12813974D02*
X7291491Y-12794927D01*
X7291491Y-12794927D02*
X7272443Y-12785403D01*
X7272443Y-12785403D02*
X7234348Y-12785403D01*
X7234348Y-12785403D02*
X7215301Y-12794927D01*
X7301015Y-12909212D02*
X7281967Y-12918736D01*
X7281967Y-12918736D02*
X7234348Y-12918736D01*
X7234348Y-12918736D02*
X7215301Y-12909212D01*
X7215301Y-12909212D02*
X7205777Y-12890165D01*
X7205777Y-12890165D02*
X7205777Y-12871117D01*
X7205777Y-12871117D02*
X7215301Y-12852070D01*
X7215301Y-12852070D02*
X7234348Y-12842546D01*
X7234348Y-12842546D02*
X7281967Y-12842546D01*
X7281967Y-12842546D02*
X7301015Y-12833022D01*
X7396253Y-12785403D02*
X7396253Y-12985403D01*
X7396253Y-12794927D02*
X7415301Y-12785403D01*
X7415301Y-12785403D02*
X7453396Y-12785403D01*
X7453396Y-12785403D02*
X7472443Y-12794927D01*
X7472443Y-12794927D02*
X7481967Y-12804450D01*
X7481967Y-12804450D02*
X7491491Y-12823498D01*
X7491491Y-12823498D02*
X7491491Y-12880641D01*
X7491491Y-12880641D02*
X7481967Y-12899689D01*
X7481967Y-12899689D02*
X7472443Y-12909212D01*
X7472443Y-12909212D02*
X7453396Y-12918736D01*
X7453396Y-12918736D02*
X7415301Y-12918736D01*
X7415301Y-12918736D02*
X7396253Y-12909212D01*
X7577205Y-12899689D02*
X7586729Y-12909212D01*
X7586729Y-12909212D02*
X7577205Y-12918736D01*
X7577205Y-12918736D02*
X7567682Y-12909212D01*
X7567682Y-12909212D02*
X7577205Y-12899689D01*
X7577205Y-12899689D02*
X7577205Y-12918736D01*
X7577205Y-12794927D02*
X7586729Y-12804450D01*
X7586729Y-12804450D02*
X7577205Y-12813974D01*
X7577205Y-12813974D02*
X7567682Y-12804450D01*
X7567682Y-12804450D02*
X7577205Y-12794927D01*
X7577205Y-12794927D02*
X7577205Y-12813974D01*
D10*
X5905000Y-13227252D02*
X5945000Y-13267252D01*
X5945000Y-13227252D02*
X5905000Y-13267252D01*
D11*
X6243872Y-13138736D02*
X6262920Y-13138736D01*
X6262920Y-13138736D02*
X6281967Y-13148260D01*
X6281967Y-13148260D02*
X6291491Y-13157784D01*
X6291491Y-13157784D02*
X6301015Y-13176831D01*
X6301015Y-13176831D02*
X6310539Y-13214927D01*
X6310539Y-13214927D02*
X6310539Y-13262546D01*
X6310539Y-13262546D02*
X6301015Y-13300641D01*
X6301015Y-13300641D02*
X6291491Y-13319689D01*
X6291491Y-13319689D02*
X6281967Y-13329212D01*
X6281967Y-13329212D02*
X6262920Y-13338736D01*
X6262920Y-13338736D02*
X6243872Y-13338736D01*
X6243872Y-13338736D02*
X6224824Y-13329212D01*
X6224824Y-13329212D02*
X6215301Y-13319689D01*
X6215301Y-13319689D02*
X6205777Y-13300641D01*
X6205777Y-13300641D02*
X6196253Y-13262546D01*
X6196253Y-13262546D02*
X6196253Y-13214927D01*
X6196253Y-13214927D02*
X6205777Y-13176831D01*
X6205777Y-13176831D02*
X6215301Y-13157784D01*
X6215301Y-13157784D02*
X6224824Y-13148260D01*
X6224824Y-13148260D02*
X6243872Y-13138736D01*
X6396253Y-13319689D02*
X6405777Y-13329212D01*
X6405777Y-13329212D02*
X6396253Y-13338736D01*
X6396253Y-13338736D02*
X6386729Y-13329212D01*
X6386729Y-13329212D02*
X6396253Y-13319689D01*
X6396253Y-13319689D02*
X6396253Y-13338736D01*
X6577205Y-13205403D02*
X6577205Y-13338736D01*
X6529586Y-13129212D02*
X6481967Y-13272070D01*
X6481967Y-13272070D02*
X6605777Y-13272070D01*
X6720062Y-13138736D02*
X6739110Y-13138736D01*
X6739110Y-13138736D02*
X6758158Y-13148260D01*
X6758158Y-13148260D02*
X6767682Y-13157784D01*
X6767682Y-13157784D02*
X6777205Y-13176831D01*
X6777205Y-13176831D02*
X6786729Y-13214927D01*
X6786729Y-13214927D02*
X6786729Y-13262546D01*
X6786729Y-13262546D02*
X6777205Y-13300641D01*
X6777205Y-13300641D02*
X6767682Y-13319689D01*
X6767682Y-13319689D02*
X6758158Y-13329212D01*
X6758158Y-13329212D02*
X6739110Y-13338736D01*
X6739110Y-13338736D02*
X6720062Y-13338736D01*
X6720062Y-13338736D02*
X6701015Y-13329212D01*
X6701015Y-13329212D02*
X6691491Y-13319689D01*
X6691491Y-13319689D02*
X6681967Y-13300641D01*
X6681967Y-13300641D02*
X6672443Y-13262546D01*
X6672443Y-13262546D02*
X6672443Y-13214927D01*
X6672443Y-13214927D02*
X6681967Y-13176831D01*
X6681967Y-13176831D02*
X6691491Y-13157784D01*
X6691491Y-13157784D02*
X6701015Y-13148260D01*
X6701015Y-13148260D02*
X6720062Y-13138736D01*
X6910539Y-13138736D02*
X6929586Y-13138736D01*
X6929586Y-13138736D02*
X6948634Y-13148260D01*
X6948634Y-13148260D02*
X6958158Y-13157784D01*
X6958158Y-13157784D02*
X6967682Y-13176831D01*
X6967682Y-13176831D02*
X6977205Y-13214927D01*
X6977205Y-13214927D02*
X6977205Y-13262546D01*
X6977205Y-13262546D02*
X6967682Y-13300641D01*
X6967682Y-13300641D02*
X6958158Y-13319689D01*
X6958158Y-13319689D02*
X6948634Y-13329212D01*
X6948634Y-13329212D02*
X6929586Y-13338736D01*
X6929586Y-13338736D02*
X6910539Y-13338736D01*
X6910539Y-13338736D02*
X6891491Y-13329212D01*
X6891491Y-13329212D02*
X6881967Y-13319689D01*
X6881967Y-13319689D02*
X6872443Y-13300641D01*
X6872443Y-13300641D02*
X6862920Y-13262546D01*
X6862920Y-13262546D02*
X6862920Y-13214927D01*
X6862920Y-13214927D02*
X6872443Y-13176831D01*
X6872443Y-13176831D02*
X6881967Y-13157784D01*
X6881967Y-13157784D02*
X6891491Y-13148260D01*
X6891491Y-13148260D02*
X6910539Y-13138736D01*
X7062920Y-13338736D02*
X7062920Y-13205403D01*
X7062920Y-13224450D02*
X7072443Y-13214927D01*
X7072443Y-13214927D02*
X7091491Y-13205403D01*
X7091491Y-13205403D02*
X7120063Y-13205403D01*
X7120063Y-13205403D02*
X7139110Y-13214927D01*
X7139110Y-13214927D02*
X7148634Y-13233974D01*
X7148634Y-13233974D02*
X7148634Y-13338736D01*
X7148634Y-13233974D02*
X7158158Y-13214927D01*
X7158158Y-13214927D02*
X7177205Y-13205403D01*
X7177205Y-13205403D02*
X7205777Y-13205403D01*
X7205777Y-13205403D02*
X7224824Y-13214927D01*
X7224824Y-13214927D02*
X7234348Y-13233974D01*
X7234348Y-13233974D02*
X7234348Y-13338736D01*
X7329586Y-13338736D02*
X7329586Y-13205403D01*
X7329586Y-13224450D02*
X7339110Y-13214927D01*
X7339110Y-13214927D02*
X7358158Y-13205403D01*
X7358158Y-13205403D02*
X7386729Y-13205403D01*
X7386729Y-13205403D02*
X7405777Y-13214927D01*
X7405777Y-13214927D02*
X7415301Y-13233974D01*
X7415301Y-13233974D02*
X7415301Y-13338736D01*
X7415301Y-13233974D02*
X7424824Y-13214927D01*
X7424824Y-13214927D02*
X7443872Y-13205403D01*
X7443872Y-13205403D02*
X7472443Y-13205403D01*
X7472443Y-13205403D02*
X7491491Y-13214927D01*
X7491491Y-13214927D02*
X7501015Y-13233974D01*
X7501015Y-13233974D02*
X7501015Y-13338736D01*
X7891491Y-13129212D02*
X7720063Y-13386355D01*
X8148634Y-13138736D02*
X8167682Y-13138736D01*
X8167682Y-13138736D02*
X8186729Y-13148260D01*
X8186729Y-13148260D02*
X8196253Y-13157784D01*
X8196253Y-13157784D02*
X8205777Y-13176831D01*
X8205777Y-13176831D02*
X8215301Y-13214927D01*
X8215301Y-13214927D02*
X8215301Y-13262546D01*
X8215301Y-13262546D02*
X8205777Y-13300641D01*
X8205777Y-13300641D02*
X8196253Y-13319689D01*
X8196253Y-13319689D02*
X8186729Y-13329212D01*
X8186729Y-13329212D02*
X8167682Y-13338736D01*
X8167682Y-13338736D02*
X8148634Y-13338736D01*
X8148634Y-13338736D02*
X8129586Y-13329212D01*
X8129586Y-13329212D02*
X8120063Y-13319689D01*
X8120063Y-13319689D02*
X8110539Y-13300641D01*
X8110539Y-13300641D02*
X8101015Y-13262546D01*
X8101015Y-13262546D02*
X8101015Y-13214927D01*
X8101015Y-13214927D02*
X8110539Y-13176831D01*
X8110539Y-13176831D02*
X8120063Y-13157784D01*
X8120063Y-13157784D02*
X8129586Y-13148260D01*
X8129586Y-13148260D02*
X8148634Y-13138736D01*
X8301015Y-13319689D02*
X8310539Y-13329212D01*
X8310539Y-13329212D02*
X8301015Y-13338736D01*
X8301015Y-13338736D02*
X8291491Y-13329212D01*
X8291491Y-13329212D02*
X8301015Y-13319689D01*
X8301015Y-13319689D02*
X8301015Y-13338736D01*
X8434348Y-13138736D02*
X8453396Y-13138736D01*
X8453396Y-13138736D02*
X8472444Y-13148260D01*
X8472444Y-13148260D02*
X8481968Y-13157784D01*
X8481968Y-13157784D02*
X8491491Y-13176831D01*
X8491491Y-13176831D02*
X8501015Y-13214927D01*
X8501015Y-13214927D02*
X8501015Y-13262546D01*
X8501015Y-13262546D02*
X8491491Y-13300641D01*
X8491491Y-13300641D02*
X8481968Y-13319689D01*
X8481968Y-13319689D02*
X8472444Y-13329212D01*
X8472444Y-13329212D02*
X8453396Y-13338736D01*
X8453396Y-13338736D02*
X8434348Y-13338736D01*
X8434348Y-13338736D02*
X8415301Y-13329212D01*
X8415301Y-13329212D02*
X8405777Y-13319689D01*
X8405777Y-13319689D02*
X8396253Y-13300641D01*
X8396253Y-13300641D02*
X8386729Y-13262546D01*
X8386729Y-13262546D02*
X8386729Y-13214927D01*
X8386729Y-13214927D02*
X8396253Y-13176831D01*
X8396253Y-13176831D02*
X8405777Y-13157784D01*
X8405777Y-13157784D02*
X8415301Y-13148260D01*
X8415301Y-13148260D02*
X8434348Y-13138736D01*
X8691491Y-13338736D02*
X8577206Y-13338736D01*
X8634348Y-13338736D02*
X8634348Y-13138736D01*
X8634348Y-13138736D02*
X8615301Y-13167308D01*
X8615301Y-13167308D02*
X8596253Y-13186355D01*
X8596253Y-13186355D02*
X8577206Y-13195879D01*
X8872444Y-13138736D02*
X8777206Y-13138736D01*
X8777206Y-13138736D02*
X8767682Y-13233974D01*
X8767682Y-13233974D02*
X8777206Y-13224450D01*
X8777206Y-13224450D02*
X8796253Y-13214927D01*
X8796253Y-13214927D02*
X8843872Y-13214927D01*
X8843872Y-13214927D02*
X8862920Y-13224450D01*
X8862920Y-13224450D02*
X8872444Y-13233974D01*
X8872444Y-13233974D02*
X8881968Y-13253022D01*
X8881968Y-13253022D02*
X8881968Y-13300641D01*
X8881968Y-13300641D02*
X8872444Y-13319689D01*
X8872444Y-13319689D02*
X8862920Y-13329212D01*
X8862920Y-13329212D02*
X8843872Y-13338736D01*
X8843872Y-13338736D02*
X8796253Y-13338736D01*
X8796253Y-13338736D02*
X8777206Y-13329212D01*
X8777206Y-13329212D02*
X8767682Y-13319689D01*
X8948634Y-13138736D02*
X9081968Y-13138736D01*
X9081968Y-13138736D02*
X8996253Y-13338736D01*
X9148634Y-13138736D02*
X9148634Y-13176831D01*
X9224825Y-13138736D02*
X9224825Y-13176831D01*
X9520063Y-13414927D02*
X9510539Y-13405403D01*
X9510539Y-13405403D02*
X9491491Y-13376831D01*
X9491491Y-13376831D02*
X9481968Y-13357784D01*
X9481968Y-13357784D02*
X9472444Y-13329212D01*
X9472444Y-13329212D02*
X9462920Y-13281593D01*
X9462920Y-13281593D02*
X9462920Y-13243498D01*
X9462920Y-13243498D02*
X9472444Y-13195879D01*
X9472444Y-13195879D02*
X9481968Y-13167308D01*
X9481968Y-13167308D02*
X9491491Y-13148260D01*
X9491491Y-13148260D02*
X9510539Y-13119689D01*
X9510539Y-13119689D02*
X9520063Y-13110165D01*
X9577206Y-13138736D02*
X9710539Y-13138736D01*
X9710539Y-13138736D02*
X9624825Y-13338736D01*
X9891491Y-13338736D02*
X9777206Y-13338736D01*
X9834349Y-13338736D02*
X9834349Y-13138736D01*
X9834349Y-13138736D02*
X9815301Y-13167308D01*
X9815301Y-13167308D02*
X9796253Y-13186355D01*
X9796253Y-13186355D02*
X9777206Y-13195879D01*
X10129587Y-13338736D02*
X10129587Y-13138736D01*
X10215301Y-13338736D02*
X10215301Y-13233974D01*
X10215301Y-13233974D02*
X10205777Y-13214927D01*
X10205777Y-13214927D02*
X10186730Y-13205403D01*
X10186730Y-13205403D02*
X10158158Y-13205403D01*
X10158158Y-13205403D02*
X10139111Y-13214927D01*
X10139111Y-13214927D02*
X10129587Y-13224450D01*
X10339111Y-13338736D02*
X10320063Y-13329212D01*
X10320063Y-13329212D02*
X10310539Y-13319689D01*
X10310539Y-13319689D02*
X10301015Y-13300641D01*
X10301015Y-13300641D02*
X10301015Y-13243498D01*
X10301015Y-13243498D02*
X10310539Y-13224450D01*
X10310539Y-13224450D02*
X10320063Y-13214927D01*
X10320063Y-13214927D02*
X10339111Y-13205403D01*
X10339111Y-13205403D02*
X10367682Y-13205403D01*
X10367682Y-13205403D02*
X10386730Y-13214927D01*
X10386730Y-13214927D02*
X10396253Y-13224450D01*
X10396253Y-13224450D02*
X10405777Y-13243498D01*
X10405777Y-13243498D02*
X10405777Y-13300641D01*
X10405777Y-13300641D02*
X10396253Y-13319689D01*
X10396253Y-13319689D02*
X10386730Y-13329212D01*
X10386730Y-13329212D02*
X10367682Y-13338736D01*
X10367682Y-13338736D02*
X10339111Y-13338736D01*
X10520063Y-13338736D02*
X10501015Y-13329212D01*
X10501015Y-13329212D02*
X10491492Y-13310165D01*
X10491492Y-13310165D02*
X10491492Y-13138736D01*
X10672444Y-13329212D02*
X10653396Y-13338736D01*
X10653396Y-13338736D02*
X10615301Y-13338736D01*
X10615301Y-13338736D02*
X10596253Y-13329212D01*
X10596253Y-13329212D02*
X10586730Y-13310165D01*
X10586730Y-13310165D02*
X10586730Y-13233974D01*
X10586730Y-13233974D02*
X10596253Y-13214927D01*
X10596253Y-13214927D02*
X10615301Y-13205403D01*
X10615301Y-13205403D02*
X10653396Y-13205403D01*
X10653396Y-13205403D02*
X10672444Y-13214927D01*
X10672444Y-13214927D02*
X10681968Y-13233974D01*
X10681968Y-13233974D02*
X10681968Y-13253022D01*
X10681968Y-13253022D02*
X10586730Y-13272070D01*
X10758158Y-13329212D02*
X10777206Y-13338736D01*
X10777206Y-13338736D02*
X10815301Y-13338736D01*
X10815301Y-13338736D02*
X10834349Y-13329212D01*
X10834349Y-13329212D02*
X10843873Y-13310165D01*
X10843873Y-13310165D02*
X10843873Y-13300641D01*
X10843873Y-13300641D02*
X10834349Y-13281593D01*
X10834349Y-13281593D02*
X10815301Y-13272070D01*
X10815301Y-13272070D02*
X10786730Y-13272070D01*
X10786730Y-13272070D02*
X10767682Y-13262546D01*
X10767682Y-13262546D02*
X10758158Y-13243498D01*
X10758158Y-13243498D02*
X10758158Y-13233974D01*
X10758158Y-13233974D02*
X10767682Y-13214927D01*
X10767682Y-13214927D02*
X10786730Y-13205403D01*
X10786730Y-13205403D02*
X10815301Y-13205403D01*
X10815301Y-13205403D02*
X10834349Y-13214927D01*
X10910539Y-13414927D02*
X10920063Y-13405403D01*
X10920063Y-13405403D02*
X10939111Y-13376831D01*
X10939111Y-13376831D02*
X10948634Y-13357784D01*
X10948634Y-13357784D02*
X10958158Y-13329212D01*
X10958158Y-13329212D02*
X10967682Y-13281593D01*
X10967682Y-13281593D02*
X10967682Y-13243498D01*
X10967682Y-13243498D02*
X10958158Y-13195879D01*
X10958158Y-13195879D02*
X10948634Y-13167308D01*
X10948634Y-13167308D02*
X10939111Y-13148260D01*
X10939111Y-13148260D02*
X10920063Y-13119689D01*
X10920063Y-13119689D02*
X10910539Y-13110165D01*
D10*
X5945000Y-13511252D02*
G75*
G02*
X5895000Y-13511252I-25000J0D01*
G01*
X5895000Y-13511252D02*
G75*
G02*
X5945000Y-13511252I25000J0D01*
G01*
D11*
X6243872Y-13402736D02*
X6262920Y-13402736D01*
X6262920Y-13402736D02*
X6281967Y-13412260D01*
X6281967Y-13412260D02*
X6291491Y-13421784D01*
X6291491Y-13421784D02*
X6301015Y-13440831D01*
X6301015Y-13440831D02*
X6310539Y-13478927D01*
X6310539Y-13478927D02*
X6310539Y-13526546D01*
X6310539Y-13526546D02*
X6301015Y-13564641D01*
X6301015Y-13564641D02*
X6291491Y-13583689D01*
X6291491Y-13583689D02*
X6281967Y-13593212D01*
X6281967Y-13593212D02*
X6262920Y-13602736D01*
X6262920Y-13602736D02*
X6243872Y-13602736D01*
X6243872Y-13602736D02*
X6224824Y-13593212D01*
X6224824Y-13593212D02*
X6215301Y-13583689D01*
X6215301Y-13583689D02*
X6205777Y-13564641D01*
X6205777Y-13564641D02*
X6196253Y-13526546D01*
X6196253Y-13526546D02*
X6196253Y-13478927D01*
X6196253Y-13478927D02*
X6205777Y-13440831D01*
X6205777Y-13440831D02*
X6215301Y-13421784D01*
X6215301Y-13421784D02*
X6224824Y-13412260D01*
X6224824Y-13412260D02*
X6243872Y-13402736D01*
X6396253Y-13583689D02*
X6405777Y-13593212D01*
X6405777Y-13593212D02*
X6396253Y-13602736D01*
X6396253Y-13602736D02*
X6386729Y-13593212D01*
X6386729Y-13593212D02*
X6396253Y-13583689D01*
X6396253Y-13583689D02*
X6396253Y-13602736D01*
X6586729Y-13402736D02*
X6491491Y-13402736D01*
X6491491Y-13402736D02*
X6481967Y-13497974D01*
X6481967Y-13497974D02*
X6491491Y-13488450D01*
X6491491Y-13488450D02*
X6510539Y-13478927D01*
X6510539Y-13478927D02*
X6558158Y-13478927D01*
X6558158Y-13478927D02*
X6577205Y-13488450D01*
X6577205Y-13488450D02*
X6586729Y-13497974D01*
X6586729Y-13497974D02*
X6596253Y-13517022D01*
X6596253Y-13517022D02*
X6596253Y-13564641D01*
X6596253Y-13564641D02*
X6586729Y-13583689D01*
X6586729Y-13583689D02*
X6577205Y-13593212D01*
X6577205Y-13593212D02*
X6558158Y-13602736D01*
X6558158Y-13602736D02*
X6510539Y-13602736D01*
X6510539Y-13602736D02*
X6491491Y-13593212D01*
X6491491Y-13593212D02*
X6481967Y-13583689D01*
X6720062Y-13402736D02*
X6739110Y-13402736D01*
X6739110Y-13402736D02*
X6758158Y-13412260D01*
X6758158Y-13412260D02*
X6767682Y-13421784D01*
X6767682Y-13421784D02*
X6777205Y-13440831D01*
X6777205Y-13440831D02*
X6786729Y-13478927D01*
X6786729Y-13478927D02*
X6786729Y-13526546D01*
X6786729Y-13526546D02*
X6777205Y-13564641D01*
X6777205Y-13564641D02*
X6767682Y-13583689D01*
X6767682Y-13583689D02*
X6758158Y-13593212D01*
X6758158Y-13593212D02*
X6739110Y-13602736D01*
X6739110Y-13602736D02*
X6720062Y-13602736D01*
X6720062Y-13602736D02*
X6701015Y-13593212D01*
X6701015Y-13593212D02*
X6691491Y-13583689D01*
X6691491Y-13583689D02*
X6681967Y-13564641D01*
X6681967Y-13564641D02*
X6672443Y-13526546D01*
X6672443Y-13526546D02*
X6672443Y-13478927D01*
X6672443Y-13478927D02*
X6681967Y-13440831D01*
X6681967Y-13440831D02*
X6691491Y-13421784D01*
X6691491Y-13421784D02*
X6701015Y-13412260D01*
X6701015Y-13412260D02*
X6720062Y-13402736D01*
X6910539Y-13402736D02*
X6929586Y-13402736D01*
X6929586Y-13402736D02*
X6948634Y-13412260D01*
X6948634Y-13412260D02*
X6958158Y-13421784D01*
X6958158Y-13421784D02*
X6967682Y-13440831D01*
X6967682Y-13440831D02*
X6977205Y-13478927D01*
X6977205Y-13478927D02*
X6977205Y-13526546D01*
X6977205Y-13526546D02*
X6967682Y-13564641D01*
X6967682Y-13564641D02*
X6958158Y-13583689D01*
X6958158Y-13583689D02*
X6948634Y-13593212D01*
X6948634Y-13593212D02*
X6929586Y-13602736D01*
X6929586Y-13602736D02*
X6910539Y-13602736D01*
X6910539Y-13602736D02*
X6891491Y-13593212D01*
X6891491Y-13593212D02*
X6881967Y-13583689D01*
X6881967Y-13583689D02*
X6872443Y-13564641D01*
X6872443Y-13564641D02*
X6862920Y-13526546D01*
X6862920Y-13526546D02*
X6862920Y-13478927D01*
X6862920Y-13478927D02*
X6872443Y-13440831D01*
X6872443Y-13440831D02*
X6881967Y-13421784D01*
X6881967Y-13421784D02*
X6891491Y-13412260D01*
X6891491Y-13412260D02*
X6910539Y-13402736D01*
X7062920Y-13602736D02*
X7062920Y-13469403D01*
X7062920Y-13488450D02*
X7072443Y-13478927D01*
X7072443Y-13478927D02*
X7091491Y-13469403D01*
X7091491Y-13469403D02*
X7120063Y-13469403D01*
X7120063Y-13469403D02*
X7139110Y-13478927D01*
X7139110Y-13478927D02*
X7148634Y-13497974D01*
X7148634Y-13497974D02*
X7148634Y-13602736D01*
X7148634Y-13497974D02*
X7158158Y-13478927D01*
X7158158Y-13478927D02*
X7177205Y-13469403D01*
X7177205Y-13469403D02*
X7205777Y-13469403D01*
X7205777Y-13469403D02*
X7224824Y-13478927D01*
X7224824Y-13478927D02*
X7234348Y-13497974D01*
X7234348Y-13497974D02*
X7234348Y-13602736D01*
X7329586Y-13602736D02*
X7329586Y-13469403D01*
X7329586Y-13488450D02*
X7339110Y-13478927D01*
X7339110Y-13478927D02*
X7358158Y-13469403D01*
X7358158Y-13469403D02*
X7386729Y-13469403D01*
X7386729Y-13469403D02*
X7405777Y-13478927D01*
X7405777Y-13478927D02*
X7415301Y-13497974D01*
X7415301Y-13497974D02*
X7415301Y-13602736D01*
X7415301Y-13497974D02*
X7424824Y-13478927D01*
X7424824Y-13478927D02*
X7443872Y-13469403D01*
X7443872Y-13469403D02*
X7472443Y-13469403D01*
X7472443Y-13469403D02*
X7491491Y-13478927D01*
X7491491Y-13478927D02*
X7501015Y-13497974D01*
X7501015Y-13497974D02*
X7501015Y-13602736D01*
X7891491Y-13393212D02*
X7720063Y-13650355D01*
X8148634Y-13402736D02*
X8167682Y-13402736D01*
X8167682Y-13402736D02*
X8186729Y-13412260D01*
X8186729Y-13412260D02*
X8196253Y-13421784D01*
X8196253Y-13421784D02*
X8205777Y-13440831D01*
X8205777Y-13440831D02*
X8215301Y-13478927D01*
X8215301Y-13478927D02*
X8215301Y-13526546D01*
X8215301Y-13526546D02*
X8205777Y-13564641D01*
X8205777Y-13564641D02*
X8196253Y-13583689D01*
X8196253Y-13583689D02*
X8186729Y-13593212D01*
X8186729Y-13593212D02*
X8167682Y-13602736D01*
X8167682Y-13602736D02*
X8148634Y-13602736D01*
X8148634Y-13602736D02*
X8129586Y-13593212D01*
X8129586Y-13593212D02*
X8120063Y-13583689D01*
X8120063Y-13583689D02*
X8110539Y-13564641D01*
X8110539Y-13564641D02*
X8101015Y-13526546D01*
X8101015Y-13526546D02*
X8101015Y-13478927D01*
X8101015Y-13478927D02*
X8110539Y-13440831D01*
X8110539Y-13440831D02*
X8120063Y-13421784D01*
X8120063Y-13421784D02*
X8129586Y-13412260D01*
X8129586Y-13412260D02*
X8148634Y-13402736D01*
X8301015Y-13583689D02*
X8310539Y-13593212D01*
X8310539Y-13593212D02*
X8301015Y-13602736D01*
X8301015Y-13602736D02*
X8291491Y-13593212D01*
X8291491Y-13593212D02*
X8301015Y-13583689D01*
X8301015Y-13583689D02*
X8301015Y-13602736D01*
X8434348Y-13402736D02*
X8453396Y-13402736D01*
X8453396Y-13402736D02*
X8472444Y-13412260D01*
X8472444Y-13412260D02*
X8481968Y-13421784D01*
X8481968Y-13421784D02*
X8491491Y-13440831D01*
X8491491Y-13440831D02*
X8501015Y-13478927D01*
X8501015Y-13478927D02*
X8501015Y-13526546D01*
X8501015Y-13526546D02*
X8491491Y-13564641D01*
X8491491Y-13564641D02*
X8481968Y-13583689D01*
X8481968Y-13583689D02*
X8472444Y-13593212D01*
X8472444Y-13593212D02*
X8453396Y-13602736D01*
X8453396Y-13602736D02*
X8434348Y-13602736D01*
X8434348Y-13602736D02*
X8415301Y-13593212D01*
X8415301Y-13593212D02*
X8405777Y-13583689D01*
X8405777Y-13583689D02*
X8396253Y-13564641D01*
X8396253Y-13564641D02*
X8386729Y-13526546D01*
X8386729Y-13526546D02*
X8386729Y-13478927D01*
X8386729Y-13478927D02*
X8396253Y-13440831D01*
X8396253Y-13440831D02*
X8405777Y-13421784D01*
X8405777Y-13421784D02*
X8415301Y-13412260D01*
X8415301Y-13412260D02*
X8434348Y-13402736D01*
X8691491Y-13602736D02*
X8577206Y-13602736D01*
X8634348Y-13602736D02*
X8634348Y-13402736D01*
X8634348Y-13402736D02*
X8615301Y-13431308D01*
X8615301Y-13431308D02*
X8596253Y-13450355D01*
X8596253Y-13450355D02*
X8577206Y-13459879D01*
X8786729Y-13602736D02*
X8824825Y-13602736D01*
X8824825Y-13602736D02*
X8843872Y-13593212D01*
X8843872Y-13593212D02*
X8853396Y-13583689D01*
X8853396Y-13583689D02*
X8872444Y-13555117D01*
X8872444Y-13555117D02*
X8881968Y-13517022D01*
X8881968Y-13517022D02*
X8881968Y-13440831D01*
X8881968Y-13440831D02*
X8872444Y-13421784D01*
X8872444Y-13421784D02*
X8862920Y-13412260D01*
X8862920Y-13412260D02*
X8843872Y-13402736D01*
X8843872Y-13402736D02*
X8805777Y-13402736D01*
X8805777Y-13402736D02*
X8786729Y-13412260D01*
X8786729Y-13412260D02*
X8777206Y-13421784D01*
X8777206Y-13421784D02*
X8767682Y-13440831D01*
X8767682Y-13440831D02*
X8767682Y-13488450D01*
X8767682Y-13488450D02*
X8777206Y-13507498D01*
X8777206Y-13507498D02*
X8786729Y-13517022D01*
X8786729Y-13517022D02*
X8805777Y-13526546D01*
X8805777Y-13526546D02*
X8843872Y-13526546D01*
X8843872Y-13526546D02*
X8862920Y-13517022D01*
X8862920Y-13517022D02*
X8872444Y-13507498D01*
X8872444Y-13507498D02*
X8881968Y-13488450D01*
X8948634Y-13402736D02*
X9081968Y-13402736D01*
X9081968Y-13402736D02*
X8996253Y-13602736D01*
X9148634Y-13402736D02*
X9148634Y-13440831D01*
X9224825Y-13402736D02*
X9224825Y-13440831D01*
X9520063Y-13678927D02*
X9510539Y-13669403D01*
X9510539Y-13669403D02*
X9491491Y-13640831D01*
X9491491Y-13640831D02*
X9481968Y-13621784D01*
X9481968Y-13621784D02*
X9472444Y-13593212D01*
X9472444Y-13593212D02*
X9462920Y-13545593D01*
X9462920Y-13545593D02*
X9462920Y-13507498D01*
X9462920Y-13507498D02*
X9472444Y-13459879D01*
X9472444Y-13459879D02*
X9481968Y-13431308D01*
X9481968Y-13431308D02*
X9491491Y-13412260D01*
X9491491Y-13412260D02*
X9510539Y-13383689D01*
X9510539Y-13383689D02*
X9520063Y-13374165D01*
X9577206Y-13402736D02*
X9701015Y-13402736D01*
X9701015Y-13402736D02*
X9634349Y-13478927D01*
X9634349Y-13478927D02*
X9662920Y-13478927D01*
X9662920Y-13478927D02*
X9681968Y-13488450D01*
X9681968Y-13488450D02*
X9691491Y-13497974D01*
X9691491Y-13497974D02*
X9701015Y-13517022D01*
X9701015Y-13517022D02*
X9701015Y-13564641D01*
X9701015Y-13564641D02*
X9691491Y-13583689D01*
X9691491Y-13583689D02*
X9681968Y-13593212D01*
X9681968Y-13593212D02*
X9662920Y-13602736D01*
X9662920Y-13602736D02*
X9605777Y-13602736D01*
X9605777Y-13602736D02*
X9586730Y-13593212D01*
X9586730Y-13593212D02*
X9577206Y-13583689D01*
X9777206Y-13421784D02*
X9786730Y-13412260D01*
X9786730Y-13412260D02*
X9805777Y-13402736D01*
X9805777Y-13402736D02*
X9853396Y-13402736D01*
X9853396Y-13402736D02*
X9872444Y-13412260D01*
X9872444Y-13412260D02*
X9881968Y-13421784D01*
X9881968Y-13421784D02*
X9891491Y-13440831D01*
X9891491Y-13440831D02*
X9891491Y-13459879D01*
X9891491Y-13459879D02*
X9881968Y-13488450D01*
X9881968Y-13488450D02*
X9767682Y-13602736D01*
X9767682Y-13602736D02*
X9891491Y-13602736D01*
X10129587Y-13602736D02*
X10129587Y-13402736D01*
X10215301Y-13602736D02*
X10215301Y-13497974D01*
X10215301Y-13497974D02*
X10205777Y-13478927D01*
X10205777Y-13478927D02*
X10186730Y-13469403D01*
X10186730Y-13469403D02*
X10158158Y-13469403D01*
X10158158Y-13469403D02*
X10139111Y-13478927D01*
X10139111Y-13478927D02*
X10129587Y-13488450D01*
X10339111Y-13602736D02*
X10320063Y-13593212D01*
X10320063Y-13593212D02*
X10310539Y-13583689D01*
X10310539Y-13583689D02*
X10301015Y-13564641D01*
X10301015Y-13564641D02*
X10301015Y-13507498D01*
X10301015Y-13507498D02*
X10310539Y-13488450D01*
X10310539Y-13488450D02*
X10320063Y-13478927D01*
X10320063Y-13478927D02*
X10339111Y-13469403D01*
X10339111Y-13469403D02*
X10367682Y-13469403D01*
X10367682Y-13469403D02*
X10386730Y-13478927D01*
X10386730Y-13478927D02*
X10396253Y-13488450D01*
X10396253Y-13488450D02*
X10405777Y-13507498D01*
X10405777Y-13507498D02*
X10405777Y-13564641D01*
X10405777Y-13564641D02*
X10396253Y-13583689D01*
X10396253Y-13583689D02*
X10386730Y-13593212D01*
X10386730Y-13593212D02*
X10367682Y-13602736D01*
X10367682Y-13602736D02*
X10339111Y-13602736D01*
X10520063Y-13602736D02*
X10501015Y-13593212D01*
X10501015Y-13593212D02*
X10491492Y-13574165D01*
X10491492Y-13574165D02*
X10491492Y-13402736D01*
X10672444Y-13593212D02*
X10653396Y-13602736D01*
X10653396Y-13602736D02*
X10615301Y-13602736D01*
X10615301Y-13602736D02*
X10596253Y-13593212D01*
X10596253Y-13593212D02*
X10586730Y-13574165D01*
X10586730Y-13574165D02*
X10586730Y-13497974D01*
X10586730Y-13497974D02*
X10596253Y-13478927D01*
X10596253Y-13478927D02*
X10615301Y-13469403D01*
X10615301Y-13469403D02*
X10653396Y-13469403D01*
X10653396Y-13469403D02*
X10672444Y-13478927D01*
X10672444Y-13478927D02*
X10681968Y-13497974D01*
X10681968Y-13497974D02*
X10681968Y-13517022D01*
X10681968Y-13517022D02*
X10586730Y-13536070D01*
X10758158Y-13593212D02*
X10777206Y-13602736D01*
X10777206Y-13602736D02*
X10815301Y-13602736D01*
X10815301Y-13602736D02*
X10834349Y-13593212D01*
X10834349Y-13593212D02*
X10843873Y-13574165D01*
X10843873Y-13574165D02*
X10843873Y-13564641D01*
X10843873Y-13564641D02*
X10834349Y-13545593D01*
X10834349Y-13545593D02*
X10815301Y-13536070D01*
X10815301Y-13536070D02*
X10786730Y-13536070D01*
X10786730Y-13536070D02*
X10767682Y-13526546D01*
X10767682Y-13526546D02*
X10758158Y-13507498D01*
X10758158Y-13507498D02*
X10758158Y-13497974D01*
X10758158Y-13497974D02*
X10767682Y-13478927D01*
X10767682Y-13478927D02*
X10786730Y-13469403D01*
X10786730Y-13469403D02*
X10815301Y-13469403D01*
X10815301Y-13469403D02*
X10834349Y-13478927D01*
X11081968Y-13526546D02*
X11234349Y-13526546D01*
X11158158Y-13602736D02*
X11158158Y-13450355D01*
X11472444Y-13421784D02*
X11481968Y-13412260D01*
X11481968Y-13412260D02*
X11501015Y-13402736D01*
X11501015Y-13402736D02*
X11548634Y-13402736D01*
X11548634Y-13402736D02*
X11567682Y-13412260D01*
X11567682Y-13412260D02*
X11577206Y-13421784D01*
X11577206Y-13421784D02*
X11586730Y-13440831D01*
X11586730Y-13440831D02*
X11586730Y-13459879D01*
X11586730Y-13459879D02*
X11577206Y-13488450D01*
X11577206Y-13488450D02*
X11462920Y-13602736D01*
X11462920Y-13602736D02*
X11586730Y-13602736D01*
X11815301Y-13593212D02*
X11834349Y-13602736D01*
X11834349Y-13602736D02*
X11872444Y-13602736D01*
X11872444Y-13602736D02*
X11891492Y-13593212D01*
X11891492Y-13593212D02*
X11901015Y-13574165D01*
X11901015Y-13574165D02*
X11901015Y-13564641D01*
X11901015Y-13564641D02*
X11891492Y-13545593D01*
X11891492Y-13545593D02*
X11872444Y-13536070D01*
X11872444Y-13536070D02*
X11843873Y-13536070D01*
X11843873Y-13536070D02*
X11824825Y-13526546D01*
X11824825Y-13526546D02*
X11815301Y-13507498D01*
X11815301Y-13507498D02*
X11815301Y-13497974D01*
X11815301Y-13497974D02*
X11824825Y-13478927D01*
X11824825Y-13478927D02*
X11843873Y-13469403D01*
X11843873Y-13469403D02*
X11872444Y-13469403D01*
X11872444Y-13469403D02*
X11891492Y-13478927D01*
X12015301Y-13602736D02*
X11996254Y-13593212D01*
X11996254Y-13593212D02*
X11986730Y-13574165D01*
X11986730Y-13574165D02*
X11986730Y-13402736D01*
X12120063Y-13602736D02*
X12101015Y-13593212D01*
X12101015Y-13593212D02*
X12091492Y-13583689D01*
X12091492Y-13583689D02*
X12081968Y-13564641D01*
X12081968Y-13564641D02*
X12081968Y-13507498D01*
X12081968Y-13507498D02*
X12091492Y-13488450D01*
X12091492Y-13488450D02*
X12101015Y-13478927D01*
X12101015Y-13478927D02*
X12120063Y-13469403D01*
X12120063Y-13469403D02*
X12148635Y-13469403D01*
X12148635Y-13469403D02*
X12167682Y-13478927D01*
X12167682Y-13478927D02*
X12177206Y-13488450D01*
X12177206Y-13488450D02*
X12186730Y-13507498D01*
X12186730Y-13507498D02*
X12186730Y-13564641D01*
X12186730Y-13564641D02*
X12177206Y-13583689D01*
X12177206Y-13583689D02*
X12167682Y-13593212D01*
X12167682Y-13593212D02*
X12148635Y-13602736D01*
X12148635Y-13602736D02*
X12120063Y-13602736D01*
X12243873Y-13469403D02*
X12320063Y-13469403D01*
X12272444Y-13402736D02*
X12272444Y-13574165D01*
X12272444Y-13574165D02*
X12281968Y-13593212D01*
X12281968Y-13593212D02*
X12301015Y-13602736D01*
X12301015Y-13602736D02*
X12320063Y-13602736D01*
X12377206Y-13593212D02*
X12396254Y-13602736D01*
X12396254Y-13602736D02*
X12434349Y-13602736D01*
X12434349Y-13602736D02*
X12453396Y-13593212D01*
X12453396Y-13593212D02*
X12462920Y-13574165D01*
X12462920Y-13574165D02*
X12462920Y-13564641D01*
X12462920Y-13564641D02*
X12453396Y-13545593D01*
X12453396Y-13545593D02*
X12434349Y-13536070D01*
X12434349Y-13536070D02*
X12405777Y-13536070D01*
X12405777Y-13536070D02*
X12386730Y-13526546D01*
X12386730Y-13526546D02*
X12377206Y-13507498D01*
X12377206Y-13507498D02*
X12377206Y-13497974D01*
X12377206Y-13497974D02*
X12386730Y-13478927D01*
X12386730Y-13478927D02*
X12405777Y-13469403D01*
X12405777Y-13469403D02*
X12434349Y-13469403D01*
X12434349Y-13469403D02*
X12453396Y-13478927D01*
X12529587Y-13678927D02*
X12539111Y-13669403D01*
X12539111Y-13669403D02*
X12558158Y-13640831D01*
X12558158Y-13640831D02*
X12567682Y-13621784D01*
X12567682Y-13621784D02*
X12577206Y-13593212D01*
X12577206Y-13593212D02*
X12586730Y-13545593D01*
X12586730Y-13545593D02*
X12586730Y-13507498D01*
X12586730Y-13507498D02*
X12577206Y-13459879D01*
X12577206Y-13459879D02*
X12567682Y-13431308D01*
X12567682Y-13431308D02*
X12558158Y-13412260D01*
X12558158Y-13412260D02*
X12539111Y-13383689D01*
X12539111Y-13383689D02*
X12529587Y-13374165D01*
D10*
X5905000Y-13735252D02*
X5905000Y-13815252D01*
X5865000Y-13775252D02*
X5945000Y-13775252D01*
D11*
X6243872Y-13666736D02*
X6262920Y-13666736D01*
X6262920Y-13666736D02*
X6281967Y-13676260D01*
X6281967Y-13676260D02*
X6291491Y-13685784D01*
X6291491Y-13685784D02*
X6301015Y-13704831D01*
X6301015Y-13704831D02*
X6310539Y-13742927D01*
X6310539Y-13742927D02*
X6310539Y-13790546D01*
X6310539Y-13790546D02*
X6301015Y-13828641D01*
X6301015Y-13828641D02*
X6291491Y-13847689D01*
X6291491Y-13847689D02*
X6281967Y-13857212D01*
X6281967Y-13857212D02*
X6262920Y-13866736D01*
X6262920Y-13866736D02*
X6243872Y-13866736D01*
X6243872Y-13866736D02*
X6224824Y-13857212D01*
X6224824Y-13857212D02*
X6215301Y-13847689D01*
X6215301Y-13847689D02*
X6205777Y-13828641D01*
X6205777Y-13828641D02*
X6196253Y-13790546D01*
X6196253Y-13790546D02*
X6196253Y-13742927D01*
X6196253Y-13742927D02*
X6205777Y-13704831D01*
X6205777Y-13704831D02*
X6215301Y-13685784D01*
X6215301Y-13685784D02*
X6224824Y-13676260D01*
X6224824Y-13676260D02*
X6243872Y-13666736D01*
X6396253Y-13847689D02*
X6405777Y-13857212D01*
X6405777Y-13857212D02*
X6396253Y-13866736D01*
X6396253Y-13866736D02*
X6386729Y-13857212D01*
X6386729Y-13857212D02*
X6396253Y-13847689D01*
X6396253Y-13847689D02*
X6396253Y-13866736D01*
X6520062Y-13752450D02*
X6501015Y-13742927D01*
X6501015Y-13742927D02*
X6491491Y-13733403D01*
X6491491Y-13733403D02*
X6481967Y-13714355D01*
X6481967Y-13714355D02*
X6481967Y-13704831D01*
X6481967Y-13704831D02*
X6491491Y-13685784D01*
X6491491Y-13685784D02*
X6501015Y-13676260D01*
X6501015Y-13676260D02*
X6520062Y-13666736D01*
X6520062Y-13666736D02*
X6558158Y-13666736D01*
X6558158Y-13666736D02*
X6577205Y-13676260D01*
X6577205Y-13676260D02*
X6586729Y-13685784D01*
X6586729Y-13685784D02*
X6596253Y-13704831D01*
X6596253Y-13704831D02*
X6596253Y-13714355D01*
X6596253Y-13714355D02*
X6586729Y-13733403D01*
X6586729Y-13733403D02*
X6577205Y-13742927D01*
X6577205Y-13742927D02*
X6558158Y-13752450D01*
X6558158Y-13752450D02*
X6520062Y-13752450D01*
X6520062Y-13752450D02*
X6501015Y-13761974D01*
X6501015Y-13761974D02*
X6491491Y-13771498D01*
X6491491Y-13771498D02*
X6481967Y-13790546D01*
X6481967Y-13790546D02*
X6481967Y-13828641D01*
X6481967Y-13828641D02*
X6491491Y-13847689D01*
X6491491Y-13847689D02*
X6501015Y-13857212D01*
X6501015Y-13857212D02*
X6520062Y-13866736D01*
X6520062Y-13866736D02*
X6558158Y-13866736D01*
X6558158Y-13866736D02*
X6577205Y-13857212D01*
X6577205Y-13857212D02*
X6586729Y-13847689D01*
X6586729Y-13847689D02*
X6596253Y-13828641D01*
X6596253Y-13828641D02*
X6596253Y-13790546D01*
X6596253Y-13790546D02*
X6586729Y-13771498D01*
X6586729Y-13771498D02*
X6577205Y-13761974D01*
X6577205Y-13761974D02*
X6558158Y-13752450D01*
X6720062Y-13666736D02*
X6739110Y-13666736D01*
X6739110Y-13666736D02*
X6758158Y-13676260D01*
X6758158Y-13676260D02*
X6767682Y-13685784D01*
X6767682Y-13685784D02*
X6777205Y-13704831D01*
X6777205Y-13704831D02*
X6786729Y-13742927D01*
X6786729Y-13742927D02*
X6786729Y-13790546D01*
X6786729Y-13790546D02*
X6777205Y-13828641D01*
X6777205Y-13828641D02*
X6767682Y-13847689D01*
X6767682Y-13847689D02*
X6758158Y-13857212D01*
X6758158Y-13857212D02*
X6739110Y-13866736D01*
X6739110Y-13866736D02*
X6720062Y-13866736D01*
X6720062Y-13866736D02*
X6701015Y-13857212D01*
X6701015Y-13857212D02*
X6691491Y-13847689D01*
X6691491Y-13847689D02*
X6681967Y-13828641D01*
X6681967Y-13828641D02*
X6672443Y-13790546D01*
X6672443Y-13790546D02*
X6672443Y-13742927D01*
X6672443Y-13742927D02*
X6681967Y-13704831D01*
X6681967Y-13704831D02*
X6691491Y-13685784D01*
X6691491Y-13685784D02*
X6701015Y-13676260D01*
X6701015Y-13676260D02*
X6720062Y-13666736D01*
X6910539Y-13666736D02*
X6929586Y-13666736D01*
X6929586Y-13666736D02*
X6948634Y-13676260D01*
X6948634Y-13676260D02*
X6958158Y-13685784D01*
X6958158Y-13685784D02*
X6967682Y-13704831D01*
X6967682Y-13704831D02*
X6977205Y-13742927D01*
X6977205Y-13742927D02*
X6977205Y-13790546D01*
X6977205Y-13790546D02*
X6967682Y-13828641D01*
X6967682Y-13828641D02*
X6958158Y-13847689D01*
X6958158Y-13847689D02*
X6948634Y-13857212D01*
X6948634Y-13857212D02*
X6929586Y-13866736D01*
X6929586Y-13866736D02*
X6910539Y-13866736D01*
X6910539Y-13866736D02*
X6891491Y-13857212D01*
X6891491Y-13857212D02*
X6881967Y-13847689D01*
X6881967Y-13847689D02*
X6872443Y-13828641D01*
X6872443Y-13828641D02*
X6862920Y-13790546D01*
X6862920Y-13790546D02*
X6862920Y-13742927D01*
X6862920Y-13742927D02*
X6872443Y-13704831D01*
X6872443Y-13704831D02*
X6881967Y-13685784D01*
X6881967Y-13685784D02*
X6891491Y-13676260D01*
X6891491Y-13676260D02*
X6910539Y-13666736D01*
X7062920Y-13866736D02*
X7062920Y-13733403D01*
X7062920Y-13752450D02*
X7072443Y-13742927D01*
X7072443Y-13742927D02*
X7091491Y-13733403D01*
X7091491Y-13733403D02*
X7120063Y-13733403D01*
X7120063Y-13733403D02*
X7139110Y-13742927D01*
X7139110Y-13742927D02*
X7148634Y-13761974D01*
X7148634Y-13761974D02*
X7148634Y-13866736D01*
X7148634Y-13761974D02*
X7158158Y-13742927D01*
X7158158Y-13742927D02*
X7177205Y-13733403D01*
X7177205Y-13733403D02*
X7205777Y-13733403D01*
X7205777Y-13733403D02*
X7224824Y-13742927D01*
X7224824Y-13742927D02*
X7234348Y-13761974D01*
X7234348Y-13761974D02*
X7234348Y-13866736D01*
X7329586Y-13866736D02*
X7329586Y-13733403D01*
X7329586Y-13752450D02*
X7339110Y-13742927D01*
X7339110Y-13742927D02*
X7358158Y-13733403D01*
X7358158Y-13733403D02*
X7386729Y-13733403D01*
X7386729Y-13733403D02*
X7405777Y-13742927D01*
X7405777Y-13742927D02*
X7415301Y-13761974D01*
X7415301Y-13761974D02*
X7415301Y-13866736D01*
X7415301Y-13761974D02*
X7424824Y-13742927D01*
X7424824Y-13742927D02*
X7443872Y-13733403D01*
X7443872Y-13733403D02*
X7472443Y-13733403D01*
X7472443Y-13733403D02*
X7491491Y-13742927D01*
X7491491Y-13742927D02*
X7501015Y-13761974D01*
X7501015Y-13761974D02*
X7501015Y-13866736D01*
X7891491Y-13657212D02*
X7720063Y-13914355D01*
X8148634Y-13666736D02*
X8167682Y-13666736D01*
X8167682Y-13666736D02*
X8186729Y-13676260D01*
X8186729Y-13676260D02*
X8196253Y-13685784D01*
X8196253Y-13685784D02*
X8205777Y-13704831D01*
X8205777Y-13704831D02*
X8215301Y-13742927D01*
X8215301Y-13742927D02*
X8215301Y-13790546D01*
X8215301Y-13790546D02*
X8205777Y-13828641D01*
X8205777Y-13828641D02*
X8196253Y-13847689D01*
X8196253Y-13847689D02*
X8186729Y-13857212D01*
X8186729Y-13857212D02*
X8167682Y-13866736D01*
X8167682Y-13866736D02*
X8148634Y-13866736D01*
X8148634Y-13866736D02*
X8129586Y-13857212D01*
X8129586Y-13857212D02*
X8120063Y-13847689D01*
X8120063Y-13847689D02*
X8110539Y-13828641D01*
X8110539Y-13828641D02*
X8101015Y-13790546D01*
X8101015Y-13790546D02*
X8101015Y-13742927D01*
X8101015Y-13742927D02*
X8110539Y-13704831D01*
X8110539Y-13704831D02*
X8120063Y-13685784D01*
X8120063Y-13685784D02*
X8129586Y-13676260D01*
X8129586Y-13676260D02*
X8148634Y-13666736D01*
X8301015Y-13847689D02*
X8310539Y-13857212D01*
X8310539Y-13857212D02*
X8301015Y-13866736D01*
X8301015Y-13866736D02*
X8291491Y-13857212D01*
X8291491Y-13857212D02*
X8301015Y-13847689D01*
X8301015Y-13847689D02*
X8301015Y-13866736D01*
X8434348Y-13666736D02*
X8453396Y-13666736D01*
X8453396Y-13666736D02*
X8472444Y-13676260D01*
X8472444Y-13676260D02*
X8481968Y-13685784D01*
X8481968Y-13685784D02*
X8491491Y-13704831D01*
X8491491Y-13704831D02*
X8501015Y-13742927D01*
X8501015Y-13742927D02*
X8501015Y-13790546D01*
X8501015Y-13790546D02*
X8491491Y-13828641D01*
X8491491Y-13828641D02*
X8481968Y-13847689D01*
X8481968Y-13847689D02*
X8472444Y-13857212D01*
X8472444Y-13857212D02*
X8453396Y-13866736D01*
X8453396Y-13866736D02*
X8434348Y-13866736D01*
X8434348Y-13866736D02*
X8415301Y-13857212D01*
X8415301Y-13857212D02*
X8405777Y-13847689D01*
X8405777Y-13847689D02*
X8396253Y-13828641D01*
X8396253Y-13828641D02*
X8386729Y-13790546D01*
X8386729Y-13790546D02*
X8386729Y-13742927D01*
X8386729Y-13742927D02*
X8396253Y-13704831D01*
X8396253Y-13704831D02*
X8405777Y-13685784D01*
X8405777Y-13685784D02*
X8415301Y-13676260D01*
X8415301Y-13676260D02*
X8434348Y-13666736D01*
X8567682Y-13666736D02*
X8691491Y-13666736D01*
X8691491Y-13666736D02*
X8624825Y-13742927D01*
X8624825Y-13742927D02*
X8653396Y-13742927D01*
X8653396Y-13742927D02*
X8672444Y-13752450D01*
X8672444Y-13752450D02*
X8681968Y-13761974D01*
X8681968Y-13761974D02*
X8691491Y-13781022D01*
X8691491Y-13781022D02*
X8691491Y-13828641D01*
X8691491Y-13828641D02*
X8681968Y-13847689D01*
X8681968Y-13847689D02*
X8672444Y-13857212D01*
X8672444Y-13857212D02*
X8653396Y-13866736D01*
X8653396Y-13866736D02*
X8596253Y-13866736D01*
X8596253Y-13866736D02*
X8577206Y-13857212D01*
X8577206Y-13857212D02*
X8567682Y-13847689D01*
X8881968Y-13866736D02*
X8767682Y-13866736D01*
X8824825Y-13866736D02*
X8824825Y-13666736D01*
X8824825Y-13666736D02*
X8805777Y-13695308D01*
X8805777Y-13695308D02*
X8786729Y-13714355D01*
X8786729Y-13714355D02*
X8767682Y-13723879D01*
X9062920Y-13666736D02*
X8967682Y-13666736D01*
X8967682Y-13666736D02*
X8958158Y-13761974D01*
X8958158Y-13761974D02*
X8967682Y-13752450D01*
X8967682Y-13752450D02*
X8986729Y-13742927D01*
X8986729Y-13742927D02*
X9034349Y-13742927D01*
X9034349Y-13742927D02*
X9053396Y-13752450D01*
X9053396Y-13752450D02*
X9062920Y-13761974D01*
X9062920Y-13761974D02*
X9072444Y-13781022D01*
X9072444Y-13781022D02*
X9072444Y-13828641D01*
X9072444Y-13828641D02*
X9062920Y-13847689D01*
X9062920Y-13847689D02*
X9053396Y-13857212D01*
X9053396Y-13857212D02*
X9034349Y-13866736D01*
X9034349Y-13866736D02*
X8986729Y-13866736D01*
X8986729Y-13866736D02*
X8967682Y-13857212D01*
X8967682Y-13857212D02*
X8958158Y-13847689D01*
X9148634Y-13666736D02*
X9148634Y-13704831D01*
X9224825Y-13666736D02*
X9224825Y-13704831D01*
X9520063Y-13942927D02*
X9510539Y-13933403D01*
X9510539Y-13933403D02*
X9491491Y-13904831D01*
X9491491Y-13904831D02*
X9481968Y-13885784D01*
X9481968Y-13885784D02*
X9472444Y-13857212D01*
X9472444Y-13857212D02*
X9462920Y-13809593D01*
X9462920Y-13809593D02*
X9462920Y-13771498D01*
X9462920Y-13771498D02*
X9472444Y-13723879D01*
X9472444Y-13723879D02*
X9481968Y-13695308D01*
X9481968Y-13695308D02*
X9491491Y-13676260D01*
X9491491Y-13676260D02*
X9510539Y-13647689D01*
X9510539Y-13647689D02*
X9520063Y-13638165D01*
X9701015Y-13866736D02*
X9586730Y-13866736D01*
X9643872Y-13866736D02*
X9643872Y-13666736D01*
X9643872Y-13666736D02*
X9624825Y-13695308D01*
X9624825Y-13695308D02*
X9605777Y-13714355D01*
X9605777Y-13714355D02*
X9586730Y-13723879D01*
X9872444Y-13666736D02*
X9834349Y-13666736D01*
X9834349Y-13666736D02*
X9815301Y-13676260D01*
X9815301Y-13676260D02*
X9805777Y-13685784D01*
X9805777Y-13685784D02*
X9786730Y-13714355D01*
X9786730Y-13714355D02*
X9777206Y-13752450D01*
X9777206Y-13752450D02*
X9777206Y-13828641D01*
X9777206Y-13828641D02*
X9786730Y-13847689D01*
X9786730Y-13847689D02*
X9796253Y-13857212D01*
X9796253Y-13857212D02*
X9815301Y-13866736D01*
X9815301Y-13866736D02*
X9853396Y-13866736D01*
X9853396Y-13866736D02*
X9872444Y-13857212D01*
X9872444Y-13857212D02*
X9881968Y-13847689D01*
X9881968Y-13847689D02*
X9891491Y-13828641D01*
X9891491Y-13828641D02*
X9891491Y-13781022D01*
X9891491Y-13781022D02*
X9881968Y-13761974D01*
X9881968Y-13761974D02*
X9872444Y-13752450D01*
X9872444Y-13752450D02*
X9853396Y-13742927D01*
X9853396Y-13742927D02*
X9815301Y-13742927D01*
X9815301Y-13742927D02*
X9796253Y-13752450D01*
X9796253Y-13752450D02*
X9786730Y-13761974D01*
X9786730Y-13761974D02*
X9777206Y-13781022D01*
X10129587Y-13866736D02*
X10129587Y-13666736D01*
X10215301Y-13866736D02*
X10215301Y-13761974D01*
X10215301Y-13761974D02*
X10205777Y-13742927D01*
X10205777Y-13742927D02*
X10186730Y-13733403D01*
X10186730Y-13733403D02*
X10158158Y-13733403D01*
X10158158Y-13733403D02*
X10139111Y-13742927D01*
X10139111Y-13742927D02*
X10129587Y-13752450D01*
X10339111Y-13866736D02*
X10320063Y-13857212D01*
X10320063Y-13857212D02*
X10310539Y-13847689D01*
X10310539Y-13847689D02*
X10301015Y-13828641D01*
X10301015Y-13828641D02*
X10301015Y-13771498D01*
X10301015Y-13771498D02*
X10310539Y-13752450D01*
X10310539Y-13752450D02*
X10320063Y-13742927D01*
X10320063Y-13742927D02*
X10339111Y-13733403D01*
X10339111Y-13733403D02*
X10367682Y-13733403D01*
X10367682Y-13733403D02*
X10386730Y-13742927D01*
X10386730Y-13742927D02*
X10396253Y-13752450D01*
X10396253Y-13752450D02*
X10405777Y-13771498D01*
X10405777Y-13771498D02*
X10405777Y-13828641D01*
X10405777Y-13828641D02*
X10396253Y-13847689D01*
X10396253Y-13847689D02*
X10386730Y-13857212D01*
X10386730Y-13857212D02*
X10367682Y-13866736D01*
X10367682Y-13866736D02*
X10339111Y-13866736D01*
X10520063Y-13866736D02*
X10501015Y-13857212D01*
X10501015Y-13857212D02*
X10491492Y-13838165D01*
X10491492Y-13838165D02*
X10491492Y-13666736D01*
X10672444Y-13857212D02*
X10653396Y-13866736D01*
X10653396Y-13866736D02*
X10615301Y-13866736D01*
X10615301Y-13866736D02*
X10596253Y-13857212D01*
X10596253Y-13857212D02*
X10586730Y-13838165D01*
X10586730Y-13838165D02*
X10586730Y-13761974D01*
X10586730Y-13761974D02*
X10596253Y-13742927D01*
X10596253Y-13742927D02*
X10615301Y-13733403D01*
X10615301Y-13733403D02*
X10653396Y-13733403D01*
X10653396Y-13733403D02*
X10672444Y-13742927D01*
X10672444Y-13742927D02*
X10681968Y-13761974D01*
X10681968Y-13761974D02*
X10681968Y-13781022D01*
X10681968Y-13781022D02*
X10586730Y-13800070D01*
X10758158Y-13857212D02*
X10777206Y-13866736D01*
X10777206Y-13866736D02*
X10815301Y-13866736D01*
X10815301Y-13866736D02*
X10834349Y-13857212D01*
X10834349Y-13857212D02*
X10843873Y-13838165D01*
X10843873Y-13838165D02*
X10843873Y-13828641D01*
X10843873Y-13828641D02*
X10834349Y-13809593D01*
X10834349Y-13809593D02*
X10815301Y-13800070D01*
X10815301Y-13800070D02*
X10786730Y-13800070D01*
X10786730Y-13800070D02*
X10767682Y-13790546D01*
X10767682Y-13790546D02*
X10758158Y-13771498D01*
X10758158Y-13771498D02*
X10758158Y-13761974D01*
X10758158Y-13761974D02*
X10767682Y-13742927D01*
X10767682Y-13742927D02*
X10786730Y-13733403D01*
X10786730Y-13733403D02*
X10815301Y-13733403D01*
X10815301Y-13733403D02*
X10834349Y-13742927D01*
X10910539Y-13942927D02*
X10920063Y-13933403D01*
X10920063Y-13933403D02*
X10939111Y-13904831D01*
X10939111Y-13904831D02*
X10948634Y-13885784D01*
X10948634Y-13885784D02*
X10958158Y-13857212D01*
X10958158Y-13857212D02*
X10967682Y-13809593D01*
X10967682Y-13809593D02*
X10967682Y-13771498D01*
X10967682Y-13771498D02*
X10958158Y-13723879D01*
X10958158Y-13723879D02*
X10948634Y-13695308D01*
X10948634Y-13695308D02*
X10939111Y-13676260D01*
X10939111Y-13676260D02*
X10920063Y-13647689D01*
X10920063Y-13647689D02*
X10910539Y-13638165D01*
D10*
X5930356Y-14074608D02*
X5930356Y-14003897D01*
X5859644Y-14003897D01*
X5859644Y-14074608D01*
X5930356Y-14074608D01*
D11*
X6310539Y-14130736D02*
X6196253Y-14130736D01*
X6253396Y-14130736D02*
X6253396Y-13930736D01*
X6253396Y-13930736D02*
X6234348Y-13959308D01*
X6234348Y-13959308D02*
X6215301Y-13978355D01*
X6215301Y-13978355D02*
X6196253Y-13987879D01*
X6396253Y-14111689D02*
X6405777Y-14121212D01*
X6405777Y-14121212D02*
X6396253Y-14130736D01*
X6396253Y-14130736D02*
X6386729Y-14121212D01*
X6386729Y-14121212D02*
X6396253Y-14111689D01*
X6396253Y-14111689D02*
X6396253Y-14130736D01*
X6529586Y-13930736D02*
X6548634Y-13930736D01*
X6548634Y-13930736D02*
X6567682Y-13940260D01*
X6567682Y-13940260D02*
X6577205Y-13949784D01*
X6577205Y-13949784D02*
X6586729Y-13968831D01*
X6586729Y-13968831D02*
X6596253Y-14006927D01*
X6596253Y-14006927D02*
X6596253Y-14054546D01*
X6596253Y-14054546D02*
X6586729Y-14092641D01*
X6586729Y-14092641D02*
X6577205Y-14111689D01*
X6577205Y-14111689D02*
X6567682Y-14121212D01*
X6567682Y-14121212D02*
X6548634Y-14130736D01*
X6548634Y-14130736D02*
X6529586Y-14130736D01*
X6529586Y-14130736D02*
X6510539Y-14121212D01*
X6510539Y-14121212D02*
X6501015Y-14111689D01*
X6501015Y-14111689D02*
X6491491Y-14092641D01*
X6491491Y-14092641D02*
X6481967Y-14054546D01*
X6481967Y-14054546D02*
X6481967Y-14006927D01*
X6481967Y-14006927D02*
X6491491Y-13968831D01*
X6491491Y-13968831D02*
X6501015Y-13949784D01*
X6501015Y-13949784D02*
X6510539Y-13940260D01*
X6510539Y-13940260D02*
X6529586Y-13930736D01*
X6720062Y-13930736D02*
X6739110Y-13930736D01*
X6739110Y-13930736D02*
X6758158Y-13940260D01*
X6758158Y-13940260D02*
X6767682Y-13949784D01*
X6767682Y-13949784D02*
X6777205Y-13968831D01*
X6777205Y-13968831D02*
X6786729Y-14006927D01*
X6786729Y-14006927D02*
X6786729Y-14054546D01*
X6786729Y-14054546D02*
X6777205Y-14092641D01*
X6777205Y-14092641D02*
X6767682Y-14111689D01*
X6767682Y-14111689D02*
X6758158Y-14121212D01*
X6758158Y-14121212D02*
X6739110Y-14130736D01*
X6739110Y-14130736D02*
X6720062Y-14130736D01*
X6720062Y-14130736D02*
X6701015Y-14121212D01*
X6701015Y-14121212D02*
X6691491Y-14111689D01*
X6691491Y-14111689D02*
X6681967Y-14092641D01*
X6681967Y-14092641D02*
X6672443Y-14054546D01*
X6672443Y-14054546D02*
X6672443Y-14006927D01*
X6672443Y-14006927D02*
X6681967Y-13968831D01*
X6681967Y-13968831D02*
X6691491Y-13949784D01*
X6691491Y-13949784D02*
X6701015Y-13940260D01*
X6701015Y-13940260D02*
X6720062Y-13930736D01*
X6910539Y-13930736D02*
X6929586Y-13930736D01*
X6929586Y-13930736D02*
X6948634Y-13940260D01*
X6948634Y-13940260D02*
X6958158Y-13949784D01*
X6958158Y-13949784D02*
X6967682Y-13968831D01*
X6967682Y-13968831D02*
X6977205Y-14006927D01*
X6977205Y-14006927D02*
X6977205Y-14054546D01*
X6977205Y-14054546D02*
X6967682Y-14092641D01*
X6967682Y-14092641D02*
X6958158Y-14111689D01*
X6958158Y-14111689D02*
X6948634Y-14121212D01*
X6948634Y-14121212D02*
X6929586Y-14130736D01*
X6929586Y-14130736D02*
X6910539Y-14130736D01*
X6910539Y-14130736D02*
X6891491Y-14121212D01*
X6891491Y-14121212D02*
X6881967Y-14111689D01*
X6881967Y-14111689D02*
X6872443Y-14092641D01*
X6872443Y-14092641D02*
X6862920Y-14054546D01*
X6862920Y-14054546D02*
X6862920Y-14006927D01*
X6862920Y-14006927D02*
X6872443Y-13968831D01*
X6872443Y-13968831D02*
X6881967Y-13949784D01*
X6881967Y-13949784D02*
X6891491Y-13940260D01*
X6891491Y-13940260D02*
X6910539Y-13930736D01*
X7062920Y-14130736D02*
X7062920Y-13997403D01*
X7062920Y-14016450D02*
X7072443Y-14006927D01*
X7072443Y-14006927D02*
X7091491Y-13997403D01*
X7091491Y-13997403D02*
X7120063Y-13997403D01*
X7120063Y-13997403D02*
X7139110Y-14006927D01*
X7139110Y-14006927D02*
X7148634Y-14025974D01*
X7148634Y-14025974D02*
X7148634Y-14130736D01*
X7148634Y-14025974D02*
X7158158Y-14006927D01*
X7158158Y-14006927D02*
X7177205Y-13997403D01*
X7177205Y-13997403D02*
X7205777Y-13997403D01*
X7205777Y-13997403D02*
X7224824Y-14006927D01*
X7224824Y-14006927D02*
X7234348Y-14025974D01*
X7234348Y-14025974D02*
X7234348Y-14130736D01*
X7329586Y-14130736D02*
X7329586Y-13997403D01*
X7329586Y-14016450D02*
X7339110Y-14006927D01*
X7339110Y-14006927D02*
X7358158Y-13997403D01*
X7358158Y-13997403D02*
X7386729Y-13997403D01*
X7386729Y-13997403D02*
X7405777Y-14006927D01*
X7405777Y-14006927D02*
X7415301Y-14025974D01*
X7415301Y-14025974D02*
X7415301Y-14130736D01*
X7415301Y-14025974D02*
X7424824Y-14006927D01*
X7424824Y-14006927D02*
X7443872Y-13997403D01*
X7443872Y-13997403D02*
X7472443Y-13997403D01*
X7472443Y-13997403D02*
X7491491Y-14006927D01*
X7491491Y-14006927D02*
X7501015Y-14025974D01*
X7501015Y-14025974D02*
X7501015Y-14130736D01*
X7891491Y-13921212D02*
X7720063Y-14178355D01*
X8148634Y-13930736D02*
X8167682Y-13930736D01*
X8167682Y-13930736D02*
X8186729Y-13940260D01*
X8186729Y-13940260D02*
X8196253Y-13949784D01*
X8196253Y-13949784D02*
X8205777Y-13968831D01*
X8205777Y-13968831D02*
X8215301Y-14006927D01*
X8215301Y-14006927D02*
X8215301Y-14054546D01*
X8215301Y-14054546D02*
X8205777Y-14092641D01*
X8205777Y-14092641D02*
X8196253Y-14111689D01*
X8196253Y-14111689D02*
X8186729Y-14121212D01*
X8186729Y-14121212D02*
X8167682Y-14130736D01*
X8167682Y-14130736D02*
X8148634Y-14130736D01*
X8148634Y-14130736D02*
X8129586Y-14121212D01*
X8129586Y-14121212D02*
X8120063Y-14111689D01*
X8120063Y-14111689D02*
X8110539Y-14092641D01*
X8110539Y-14092641D02*
X8101015Y-14054546D01*
X8101015Y-14054546D02*
X8101015Y-14006927D01*
X8101015Y-14006927D02*
X8110539Y-13968831D01*
X8110539Y-13968831D02*
X8120063Y-13949784D01*
X8120063Y-13949784D02*
X8129586Y-13940260D01*
X8129586Y-13940260D02*
X8148634Y-13930736D01*
X8301015Y-14111689D02*
X8310539Y-14121212D01*
X8310539Y-14121212D02*
X8301015Y-14130736D01*
X8301015Y-14130736D02*
X8291491Y-14121212D01*
X8291491Y-14121212D02*
X8301015Y-14111689D01*
X8301015Y-14111689D02*
X8301015Y-14130736D01*
X8434348Y-13930736D02*
X8453396Y-13930736D01*
X8453396Y-13930736D02*
X8472444Y-13940260D01*
X8472444Y-13940260D02*
X8481968Y-13949784D01*
X8481968Y-13949784D02*
X8491491Y-13968831D01*
X8491491Y-13968831D02*
X8501015Y-14006927D01*
X8501015Y-14006927D02*
X8501015Y-14054546D01*
X8501015Y-14054546D02*
X8491491Y-14092641D01*
X8491491Y-14092641D02*
X8481968Y-14111689D01*
X8481968Y-14111689D02*
X8472444Y-14121212D01*
X8472444Y-14121212D02*
X8453396Y-14130736D01*
X8453396Y-14130736D02*
X8434348Y-14130736D01*
X8434348Y-14130736D02*
X8415301Y-14121212D01*
X8415301Y-14121212D02*
X8405777Y-14111689D01*
X8405777Y-14111689D02*
X8396253Y-14092641D01*
X8396253Y-14092641D02*
X8386729Y-14054546D01*
X8386729Y-14054546D02*
X8386729Y-14006927D01*
X8386729Y-14006927D02*
X8396253Y-13968831D01*
X8396253Y-13968831D02*
X8405777Y-13949784D01*
X8405777Y-13949784D02*
X8415301Y-13940260D01*
X8415301Y-13940260D02*
X8434348Y-13930736D01*
X8567682Y-13930736D02*
X8691491Y-13930736D01*
X8691491Y-13930736D02*
X8624825Y-14006927D01*
X8624825Y-14006927D02*
X8653396Y-14006927D01*
X8653396Y-14006927D02*
X8672444Y-14016450D01*
X8672444Y-14016450D02*
X8681968Y-14025974D01*
X8681968Y-14025974D02*
X8691491Y-14045022D01*
X8691491Y-14045022D02*
X8691491Y-14092641D01*
X8691491Y-14092641D02*
X8681968Y-14111689D01*
X8681968Y-14111689D02*
X8672444Y-14121212D01*
X8672444Y-14121212D02*
X8653396Y-14130736D01*
X8653396Y-14130736D02*
X8596253Y-14130736D01*
X8596253Y-14130736D02*
X8577206Y-14121212D01*
X8577206Y-14121212D02*
X8567682Y-14111689D01*
X8786729Y-14130736D02*
X8824825Y-14130736D01*
X8824825Y-14130736D02*
X8843872Y-14121212D01*
X8843872Y-14121212D02*
X8853396Y-14111689D01*
X8853396Y-14111689D02*
X8872444Y-14083117D01*
X8872444Y-14083117D02*
X8881968Y-14045022D01*
X8881968Y-14045022D02*
X8881968Y-13968831D01*
X8881968Y-13968831D02*
X8872444Y-13949784D01*
X8872444Y-13949784D02*
X8862920Y-13940260D01*
X8862920Y-13940260D02*
X8843872Y-13930736D01*
X8843872Y-13930736D02*
X8805777Y-13930736D01*
X8805777Y-13930736D02*
X8786729Y-13940260D01*
X8786729Y-13940260D02*
X8777206Y-13949784D01*
X8777206Y-13949784D02*
X8767682Y-13968831D01*
X8767682Y-13968831D02*
X8767682Y-14016450D01*
X8767682Y-14016450D02*
X8777206Y-14035498D01*
X8777206Y-14035498D02*
X8786729Y-14045022D01*
X8786729Y-14045022D02*
X8805777Y-14054546D01*
X8805777Y-14054546D02*
X8843872Y-14054546D01*
X8843872Y-14054546D02*
X8862920Y-14045022D01*
X8862920Y-14045022D02*
X8872444Y-14035498D01*
X8872444Y-14035498D02*
X8881968Y-14016450D01*
X9053396Y-13997403D02*
X9053396Y-14130736D01*
X9005777Y-13921212D02*
X8958158Y-14064070D01*
X8958158Y-14064070D02*
X9081968Y-14064070D01*
X9148634Y-13930736D02*
X9148634Y-13968831D01*
X9224825Y-13930736D02*
X9224825Y-13968831D01*
X9520063Y-14206927D02*
X9510539Y-14197403D01*
X9510539Y-14197403D02*
X9491491Y-14168831D01*
X9491491Y-14168831D02*
X9481968Y-14149784D01*
X9481968Y-14149784D02*
X9472444Y-14121212D01*
X9472444Y-14121212D02*
X9462920Y-14073593D01*
X9462920Y-14073593D02*
X9462920Y-14035498D01*
X9462920Y-14035498D02*
X9472444Y-13987879D01*
X9472444Y-13987879D02*
X9481968Y-13959308D01*
X9481968Y-13959308D02*
X9491491Y-13940260D01*
X9491491Y-13940260D02*
X9510539Y-13911689D01*
X9510539Y-13911689D02*
X9520063Y-13902165D01*
X9586730Y-13949784D02*
X9596253Y-13940260D01*
X9596253Y-13940260D02*
X9615301Y-13930736D01*
X9615301Y-13930736D02*
X9662920Y-13930736D01*
X9662920Y-13930736D02*
X9681968Y-13940260D01*
X9681968Y-13940260D02*
X9691491Y-13949784D01*
X9691491Y-13949784D02*
X9701015Y-13968831D01*
X9701015Y-13968831D02*
X9701015Y-13987879D01*
X9701015Y-13987879D02*
X9691491Y-14016450D01*
X9691491Y-14016450D02*
X9577206Y-14130736D01*
X9577206Y-14130736D02*
X9701015Y-14130736D01*
X9881968Y-13930736D02*
X9786730Y-13930736D01*
X9786730Y-13930736D02*
X9777206Y-14025974D01*
X9777206Y-14025974D02*
X9786730Y-14016450D01*
X9786730Y-14016450D02*
X9805777Y-14006927D01*
X9805777Y-14006927D02*
X9853396Y-14006927D01*
X9853396Y-14006927D02*
X9872444Y-14016450D01*
X9872444Y-14016450D02*
X9881968Y-14025974D01*
X9881968Y-14025974D02*
X9891491Y-14045022D01*
X9891491Y-14045022D02*
X9891491Y-14092641D01*
X9891491Y-14092641D02*
X9881968Y-14111689D01*
X9881968Y-14111689D02*
X9872444Y-14121212D01*
X9872444Y-14121212D02*
X9853396Y-14130736D01*
X9853396Y-14130736D02*
X9805777Y-14130736D01*
X9805777Y-14130736D02*
X9786730Y-14121212D01*
X9786730Y-14121212D02*
X9777206Y-14111689D01*
X10129587Y-14130736D02*
X10129587Y-13930736D01*
X10215301Y-14130736D02*
X10215301Y-14025974D01*
X10215301Y-14025974D02*
X10205777Y-14006927D01*
X10205777Y-14006927D02*
X10186730Y-13997403D01*
X10186730Y-13997403D02*
X10158158Y-13997403D01*
X10158158Y-13997403D02*
X10139111Y-14006927D01*
X10139111Y-14006927D02*
X10129587Y-14016450D01*
X10339111Y-14130736D02*
X10320063Y-14121212D01*
X10320063Y-14121212D02*
X10310539Y-14111689D01*
X10310539Y-14111689D02*
X10301015Y-14092641D01*
X10301015Y-14092641D02*
X10301015Y-14035498D01*
X10301015Y-14035498D02*
X10310539Y-14016450D01*
X10310539Y-14016450D02*
X10320063Y-14006927D01*
X10320063Y-14006927D02*
X10339111Y-13997403D01*
X10339111Y-13997403D02*
X10367682Y-13997403D01*
X10367682Y-13997403D02*
X10386730Y-14006927D01*
X10386730Y-14006927D02*
X10396253Y-14016450D01*
X10396253Y-14016450D02*
X10405777Y-14035498D01*
X10405777Y-14035498D02*
X10405777Y-14092641D01*
X10405777Y-14092641D02*
X10396253Y-14111689D01*
X10396253Y-14111689D02*
X10386730Y-14121212D01*
X10386730Y-14121212D02*
X10367682Y-14130736D01*
X10367682Y-14130736D02*
X10339111Y-14130736D01*
X10520063Y-14130736D02*
X10501015Y-14121212D01*
X10501015Y-14121212D02*
X10491492Y-14102165D01*
X10491492Y-14102165D02*
X10491492Y-13930736D01*
X10672444Y-14121212D02*
X10653396Y-14130736D01*
X10653396Y-14130736D02*
X10615301Y-14130736D01*
X10615301Y-14130736D02*
X10596253Y-14121212D01*
X10596253Y-14121212D02*
X10586730Y-14102165D01*
X10586730Y-14102165D02*
X10586730Y-14025974D01*
X10586730Y-14025974D02*
X10596253Y-14006927D01*
X10596253Y-14006927D02*
X10615301Y-13997403D01*
X10615301Y-13997403D02*
X10653396Y-13997403D01*
X10653396Y-13997403D02*
X10672444Y-14006927D01*
X10672444Y-14006927D02*
X10681968Y-14025974D01*
X10681968Y-14025974D02*
X10681968Y-14045022D01*
X10681968Y-14045022D02*
X10586730Y-14064070D01*
X10758158Y-14121212D02*
X10777206Y-14130736D01*
X10777206Y-14130736D02*
X10815301Y-14130736D01*
X10815301Y-14130736D02*
X10834349Y-14121212D01*
X10834349Y-14121212D02*
X10843873Y-14102165D01*
X10843873Y-14102165D02*
X10843873Y-14092641D01*
X10843873Y-14092641D02*
X10834349Y-14073593D01*
X10834349Y-14073593D02*
X10815301Y-14064070D01*
X10815301Y-14064070D02*
X10786730Y-14064070D01*
X10786730Y-14064070D02*
X10767682Y-14054546D01*
X10767682Y-14054546D02*
X10758158Y-14035498D01*
X10758158Y-14035498D02*
X10758158Y-14025974D01*
X10758158Y-14025974D02*
X10767682Y-14006927D01*
X10767682Y-14006927D02*
X10786730Y-13997403D01*
X10786730Y-13997403D02*
X10815301Y-13997403D01*
X10815301Y-13997403D02*
X10834349Y-14006927D01*
X10910539Y-14206927D02*
X10920063Y-14197403D01*
X10920063Y-14197403D02*
X10939111Y-14168831D01*
X10939111Y-14168831D02*
X10948634Y-14149784D01*
X10948634Y-14149784D02*
X10958158Y-14121212D01*
X10958158Y-14121212D02*
X10967682Y-14073593D01*
X10967682Y-14073593D02*
X10967682Y-14035498D01*
X10967682Y-14035498D02*
X10958158Y-13987879D01*
X10958158Y-13987879D02*
X10948634Y-13959308D01*
X10948634Y-13959308D02*
X10939111Y-13940260D01*
X10939111Y-13940260D02*
X10920063Y-13911689D01*
X10920063Y-13911689D02*
X10910539Y-13902165D01*
D12*
X5890000Y-14358252D02*
X5945000Y-14303252D01*
X5890000Y-14248252D01*
X5835000Y-14303252D01*
X5890000Y-14358252D01*
D11*
X6310539Y-14394736D02*
X6196253Y-14394736D01*
X6253396Y-14394736D02*
X6253396Y-14194736D01*
X6253396Y-14194736D02*
X6234348Y-14223308D01*
X6234348Y-14223308D02*
X6215301Y-14242355D01*
X6215301Y-14242355D02*
X6196253Y-14251879D01*
X6396253Y-14375689D02*
X6405777Y-14385212D01*
X6405777Y-14385212D02*
X6396253Y-14394736D01*
X6396253Y-14394736D02*
X6386729Y-14385212D01*
X6386729Y-14385212D02*
X6396253Y-14375689D01*
X6396253Y-14375689D02*
X6396253Y-14394736D01*
X6596253Y-14394736D02*
X6481967Y-14394736D01*
X6539110Y-14394736D02*
X6539110Y-14194736D01*
X6539110Y-14194736D02*
X6520062Y-14223308D01*
X6520062Y-14223308D02*
X6501015Y-14242355D01*
X6501015Y-14242355D02*
X6481967Y-14251879D01*
X6720062Y-14194736D02*
X6739110Y-14194736D01*
X6739110Y-14194736D02*
X6758158Y-14204260D01*
X6758158Y-14204260D02*
X6767682Y-14213784D01*
X6767682Y-14213784D02*
X6777205Y-14232831D01*
X6777205Y-14232831D02*
X6786729Y-14270927D01*
X6786729Y-14270927D02*
X6786729Y-14318546D01*
X6786729Y-14318546D02*
X6777205Y-14356641D01*
X6777205Y-14356641D02*
X6767682Y-14375689D01*
X6767682Y-14375689D02*
X6758158Y-14385212D01*
X6758158Y-14385212D02*
X6739110Y-14394736D01*
X6739110Y-14394736D02*
X6720062Y-14394736D01*
X6720062Y-14394736D02*
X6701015Y-14385212D01*
X6701015Y-14385212D02*
X6691491Y-14375689D01*
X6691491Y-14375689D02*
X6681967Y-14356641D01*
X6681967Y-14356641D02*
X6672443Y-14318546D01*
X6672443Y-14318546D02*
X6672443Y-14270927D01*
X6672443Y-14270927D02*
X6681967Y-14232831D01*
X6681967Y-14232831D02*
X6691491Y-14213784D01*
X6691491Y-14213784D02*
X6701015Y-14204260D01*
X6701015Y-14204260D02*
X6720062Y-14194736D01*
X6910539Y-14194736D02*
X6929586Y-14194736D01*
X6929586Y-14194736D02*
X6948634Y-14204260D01*
X6948634Y-14204260D02*
X6958158Y-14213784D01*
X6958158Y-14213784D02*
X6967682Y-14232831D01*
X6967682Y-14232831D02*
X6977205Y-14270927D01*
X6977205Y-14270927D02*
X6977205Y-14318546D01*
X6977205Y-14318546D02*
X6967682Y-14356641D01*
X6967682Y-14356641D02*
X6958158Y-14375689D01*
X6958158Y-14375689D02*
X6948634Y-14385212D01*
X6948634Y-14385212D02*
X6929586Y-14394736D01*
X6929586Y-14394736D02*
X6910539Y-14394736D01*
X6910539Y-14394736D02*
X6891491Y-14385212D01*
X6891491Y-14385212D02*
X6881967Y-14375689D01*
X6881967Y-14375689D02*
X6872443Y-14356641D01*
X6872443Y-14356641D02*
X6862920Y-14318546D01*
X6862920Y-14318546D02*
X6862920Y-14270927D01*
X6862920Y-14270927D02*
X6872443Y-14232831D01*
X6872443Y-14232831D02*
X6881967Y-14213784D01*
X6881967Y-14213784D02*
X6891491Y-14204260D01*
X6891491Y-14204260D02*
X6910539Y-14194736D01*
X7062920Y-14394736D02*
X7062920Y-14261403D01*
X7062920Y-14280450D02*
X7072443Y-14270927D01*
X7072443Y-14270927D02*
X7091491Y-14261403D01*
X7091491Y-14261403D02*
X7120063Y-14261403D01*
X7120063Y-14261403D02*
X7139110Y-14270927D01*
X7139110Y-14270927D02*
X7148634Y-14289974D01*
X7148634Y-14289974D02*
X7148634Y-14394736D01*
X7148634Y-14289974D02*
X7158158Y-14270927D01*
X7158158Y-14270927D02*
X7177205Y-14261403D01*
X7177205Y-14261403D02*
X7205777Y-14261403D01*
X7205777Y-14261403D02*
X7224824Y-14270927D01*
X7224824Y-14270927D02*
X7234348Y-14289974D01*
X7234348Y-14289974D02*
X7234348Y-14394736D01*
X7329586Y-14394736D02*
X7329586Y-14261403D01*
X7329586Y-14280450D02*
X7339110Y-14270927D01*
X7339110Y-14270927D02*
X7358158Y-14261403D01*
X7358158Y-14261403D02*
X7386729Y-14261403D01*
X7386729Y-14261403D02*
X7405777Y-14270927D01*
X7405777Y-14270927D02*
X7415301Y-14289974D01*
X7415301Y-14289974D02*
X7415301Y-14394736D01*
X7415301Y-14289974D02*
X7424824Y-14270927D01*
X7424824Y-14270927D02*
X7443872Y-14261403D01*
X7443872Y-14261403D02*
X7472443Y-14261403D01*
X7472443Y-14261403D02*
X7491491Y-14270927D01*
X7491491Y-14270927D02*
X7501015Y-14289974D01*
X7501015Y-14289974D02*
X7501015Y-14394736D01*
X7891491Y-14185212D02*
X7720063Y-14442355D01*
X8148634Y-14194736D02*
X8167682Y-14194736D01*
X8167682Y-14194736D02*
X8186729Y-14204260D01*
X8186729Y-14204260D02*
X8196253Y-14213784D01*
X8196253Y-14213784D02*
X8205777Y-14232831D01*
X8205777Y-14232831D02*
X8215301Y-14270927D01*
X8215301Y-14270927D02*
X8215301Y-14318546D01*
X8215301Y-14318546D02*
X8205777Y-14356641D01*
X8205777Y-14356641D02*
X8196253Y-14375689D01*
X8196253Y-14375689D02*
X8186729Y-14385212D01*
X8186729Y-14385212D02*
X8167682Y-14394736D01*
X8167682Y-14394736D02*
X8148634Y-14394736D01*
X8148634Y-14394736D02*
X8129586Y-14385212D01*
X8129586Y-14385212D02*
X8120063Y-14375689D01*
X8120063Y-14375689D02*
X8110539Y-14356641D01*
X8110539Y-14356641D02*
X8101015Y-14318546D01*
X8101015Y-14318546D02*
X8101015Y-14270927D01*
X8101015Y-14270927D02*
X8110539Y-14232831D01*
X8110539Y-14232831D02*
X8120063Y-14213784D01*
X8120063Y-14213784D02*
X8129586Y-14204260D01*
X8129586Y-14204260D02*
X8148634Y-14194736D01*
X8301015Y-14375689D02*
X8310539Y-14385212D01*
X8310539Y-14385212D02*
X8301015Y-14394736D01*
X8301015Y-14394736D02*
X8291491Y-14385212D01*
X8291491Y-14385212D02*
X8301015Y-14375689D01*
X8301015Y-14375689D02*
X8301015Y-14394736D01*
X8434348Y-14194736D02*
X8453396Y-14194736D01*
X8453396Y-14194736D02*
X8472444Y-14204260D01*
X8472444Y-14204260D02*
X8481968Y-14213784D01*
X8481968Y-14213784D02*
X8491491Y-14232831D01*
X8491491Y-14232831D02*
X8501015Y-14270927D01*
X8501015Y-14270927D02*
X8501015Y-14318546D01*
X8501015Y-14318546D02*
X8491491Y-14356641D01*
X8491491Y-14356641D02*
X8481968Y-14375689D01*
X8481968Y-14375689D02*
X8472444Y-14385212D01*
X8472444Y-14385212D02*
X8453396Y-14394736D01*
X8453396Y-14394736D02*
X8434348Y-14394736D01*
X8434348Y-14394736D02*
X8415301Y-14385212D01*
X8415301Y-14385212D02*
X8405777Y-14375689D01*
X8405777Y-14375689D02*
X8396253Y-14356641D01*
X8396253Y-14356641D02*
X8386729Y-14318546D01*
X8386729Y-14318546D02*
X8386729Y-14270927D01*
X8386729Y-14270927D02*
X8396253Y-14232831D01*
X8396253Y-14232831D02*
X8405777Y-14213784D01*
X8405777Y-14213784D02*
X8415301Y-14204260D01*
X8415301Y-14204260D02*
X8434348Y-14194736D01*
X8672444Y-14261403D02*
X8672444Y-14394736D01*
X8624825Y-14185212D02*
X8577206Y-14328070D01*
X8577206Y-14328070D02*
X8701015Y-14328070D01*
X8758158Y-14194736D02*
X8881968Y-14194736D01*
X8881968Y-14194736D02*
X8815301Y-14270927D01*
X8815301Y-14270927D02*
X8843872Y-14270927D01*
X8843872Y-14270927D02*
X8862920Y-14280450D01*
X8862920Y-14280450D02*
X8872444Y-14289974D01*
X8872444Y-14289974D02*
X8881968Y-14309022D01*
X8881968Y-14309022D02*
X8881968Y-14356641D01*
X8881968Y-14356641D02*
X8872444Y-14375689D01*
X8872444Y-14375689D02*
X8862920Y-14385212D01*
X8862920Y-14385212D02*
X8843872Y-14394736D01*
X8843872Y-14394736D02*
X8786729Y-14394736D01*
X8786729Y-14394736D02*
X8767682Y-14385212D01*
X8767682Y-14385212D02*
X8758158Y-14375689D01*
X8948634Y-14194736D02*
X9072444Y-14194736D01*
X9072444Y-14194736D02*
X9005777Y-14270927D01*
X9005777Y-14270927D02*
X9034349Y-14270927D01*
X9034349Y-14270927D02*
X9053396Y-14280450D01*
X9053396Y-14280450D02*
X9062920Y-14289974D01*
X9062920Y-14289974D02*
X9072444Y-14309022D01*
X9072444Y-14309022D02*
X9072444Y-14356641D01*
X9072444Y-14356641D02*
X9062920Y-14375689D01*
X9062920Y-14375689D02*
X9053396Y-14385212D01*
X9053396Y-14385212D02*
X9034349Y-14394736D01*
X9034349Y-14394736D02*
X8977206Y-14394736D01*
X8977206Y-14394736D02*
X8958158Y-14385212D01*
X8958158Y-14385212D02*
X8948634Y-14375689D01*
X9148634Y-14194736D02*
X9148634Y-14232831D01*
X9224825Y-14194736D02*
X9224825Y-14232831D01*
X9520063Y-14470927D02*
X9510539Y-14461403D01*
X9510539Y-14461403D02*
X9491491Y-14432831D01*
X9491491Y-14432831D02*
X9481968Y-14413784D01*
X9481968Y-14413784D02*
X9472444Y-14385212D01*
X9472444Y-14385212D02*
X9462920Y-14337593D01*
X9462920Y-14337593D02*
X9462920Y-14299498D01*
X9462920Y-14299498D02*
X9472444Y-14251879D01*
X9472444Y-14251879D02*
X9481968Y-14223308D01*
X9481968Y-14223308D02*
X9491491Y-14204260D01*
X9491491Y-14204260D02*
X9510539Y-14175689D01*
X9510539Y-14175689D02*
X9520063Y-14166165D01*
X9624825Y-14280450D02*
X9605777Y-14270927D01*
X9605777Y-14270927D02*
X9596253Y-14261403D01*
X9596253Y-14261403D02*
X9586730Y-14242355D01*
X9586730Y-14242355D02*
X9586730Y-14232831D01*
X9586730Y-14232831D02*
X9596253Y-14213784D01*
X9596253Y-14213784D02*
X9605777Y-14204260D01*
X9605777Y-14204260D02*
X9624825Y-14194736D01*
X9624825Y-14194736D02*
X9662920Y-14194736D01*
X9662920Y-14194736D02*
X9681968Y-14204260D01*
X9681968Y-14204260D02*
X9691491Y-14213784D01*
X9691491Y-14213784D02*
X9701015Y-14232831D01*
X9701015Y-14232831D02*
X9701015Y-14242355D01*
X9701015Y-14242355D02*
X9691491Y-14261403D01*
X9691491Y-14261403D02*
X9681968Y-14270927D01*
X9681968Y-14270927D02*
X9662920Y-14280450D01*
X9662920Y-14280450D02*
X9624825Y-14280450D01*
X9624825Y-14280450D02*
X9605777Y-14289974D01*
X9605777Y-14289974D02*
X9596253Y-14299498D01*
X9596253Y-14299498D02*
X9586730Y-14318546D01*
X9586730Y-14318546D02*
X9586730Y-14356641D01*
X9586730Y-14356641D02*
X9596253Y-14375689D01*
X9596253Y-14375689D02*
X9605777Y-14385212D01*
X9605777Y-14385212D02*
X9624825Y-14394736D01*
X9624825Y-14394736D02*
X9662920Y-14394736D01*
X9662920Y-14394736D02*
X9681968Y-14385212D01*
X9681968Y-14385212D02*
X9691491Y-14375689D01*
X9691491Y-14375689D02*
X9701015Y-14356641D01*
X9701015Y-14356641D02*
X9701015Y-14318546D01*
X9701015Y-14318546D02*
X9691491Y-14299498D01*
X9691491Y-14299498D02*
X9681968Y-14289974D01*
X9681968Y-14289974D02*
X9662920Y-14280450D01*
X9939111Y-14394736D02*
X9939111Y-14194736D01*
X10024825Y-14394736D02*
X10024825Y-14289974D01*
X10024825Y-14289974D02*
X10015301Y-14270927D01*
X10015301Y-14270927D02*
X9996253Y-14261403D01*
X9996253Y-14261403D02*
X9967682Y-14261403D01*
X9967682Y-14261403D02*
X9948634Y-14270927D01*
X9948634Y-14270927D02*
X9939111Y-14280450D01*
X10148634Y-14394736D02*
X10129587Y-14385212D01*
X10129587Y-14385212D02*
X10120063Y-14375689D01*
X10120063Y-14375689D02*
X10110539Y-14356641D01*
X10110539Y-14356641D02*
X10110539Y-14299498D01*
X10110539Y-14299498D02*
X10120063Y-14280450D01*
X10120063Y-14280450D02*
X10129587Y-14270927D01*
X10129587Y-14270927D02*
X10148634Y-14261403D01*
X10148634Y-14261403D02*
X10177206Y-14261403D01*
X10177206Y-14261403D02*
X10196253Y-14270927D01*
X10196253Y-14270927D02*
X10205777Y-14280450D01*
X10205777Y-14280450D02*
X10215301Y-14299498D01*
X10215301Y-14299498D02*
X10215301Y-14356641D01*
X10215301Y-14356641D02*
X10205777Y-14375689D01*
X10205777Y-14375689D02*
X10196253Y-14385212D01*
X10196253Y-14385212D02*
X10177206Y-14394736D01*
X10177206Y-14394736D02*
X10148634Y-14394736D01*
X10329587Y-14394736D02*
X10310539Y-14385212D01*
X10310539Y-14385212D02*
X10301015Y-14366165D01*
X10301015Y-14366165D02*
X10301015Y-14194736D01*
X10481968Y-14385212D02*
X10462920Y-14394736D01*
X10462920Y-14394736D02*
X10424825Y-14394736D01*
X10424825Y-14394736D02*
X10405777Y-14385212D01*
X10405777Y-14385212D02*
X10396253Y-14366165D01*
X10396253Y-14366165D02*
X10396253Y-14289974D01*
X10396253Y-14289974D02*
X10405777Y-14270927D01*
X10405777Y-14270927D02*
X10424825Y-14261403D01*
X10424825Y-14261403D02*
X10462920Y-14261403D01*
X10462920Y-14261403D02*
X10481968Y-14270927D01*
X10481968Y-14270927D02*
X10491492Y-14289974D01*
X10491492Y-14289974D02*
X10491492Y-14309022D01*
X10491492Y-14309022D02*
X10396253Y-14328070D01*
X10567682Y-14385212D02*
X10586730Y-14394736D01*
X10586730Y-14394736D02*
X10624825Y-14394736D01*
X10624825Y-14394736D02*
X10643873Y-14385212D01*
X10643873Y-14385212D02*
X10653396Y-14366165D01*
X10653396Y-14366165D02*
X10653396Y-14356641D01*
X10653396Y-14356641D02*
X10643873Y-14337593D01*
X10643873Y-14337593D02*
X10624825Y-14328070D01*
X10624825Y-14328070D02*
X10596253Y-14328070D01*
X10596253Y-14328070D02*
X10577206Y-14318546D01*
X10577206Y-14318546D02*
X10567682Y-14299498D01*
X10567682Y-14299498D02*
X10567682Y-14289974D01*
X10567682Y-14289974D02*
X10577206Y-14270927D01*
X10577206Y-14270927D02*
X10596253Y-14261403D01*
X10596253Y-14261403D02*
X10624825Y-14261403D01*
X10624825Y-14261403D02*
X10643873Y-14270927D01*
X10720063Y-14470927D02*
X10729587Y-14461403D01*
X10729587Y-14461403D02*
X10748634Y-14432831D01*
X10748634Y-14432831D02*
X10758158Y-14413784D01*
X10758158Y-14413784D02*
X10767682Y-14385212D01*
X10767682Y-14385212D02*
X10777206Y-14337593D01*
X10777206Y-14337593D02*
X10777206Y-14299498D01*
X10777206Y-14299498D02*
X10767682Y-14251879D01*
X10767682Y-14251879D02*
X10758158Y-14223308D01*
X10758158Y-14223308D02*
X10748634Y-14204260D01*
X10748634Y-14204260D02*
X10729587Y-14175689D01*
X10729587Y-14175689D02*
X10720063Y-14166165D01*
X5745000Y-14467252D02*
X5945000Y-14667252D01*
X5945000Y-14467252D02*
X5745000Y-14667252D01*
X5945000Y-14567252D02*
G75*
G02*
X5745000Y-14567252I-100000J0D01*
G01*
X5745000Y-14567252D02*
G75*
G02*
X5945000Y-14567252I100000J0D01*
G01*
X6196253Y-14477784D02*
X6205777Y-14468260D01*
X6205777Y-14468260D02*
X6224824Y-14458736D01*
X6224824Y-14458736D02*
X6272443Y-14458736D01*
X6272443Y-14458736D02*
X6291491Y-14468260D01*
X6291491Y-14468260D02*
X6301015Y-14477784D01*
X6301015Y-14477784D02*
X6310539Y-14496831D01*
X6310539Y-14496831D02*
X6310539Y-14515879D01*
X6310539Y-14515879D02*
X6301015Y-14544450D01*
X6301015Y-14544450D02*
X6186729Y-14658736D01*
X6186729Y-14658736D02*
X6310539Y-14658736D01*
X6396253Y-14639689D02*
X6405777Y-14649212D01*
X6405777Y-14649212D02*
X6396253Y-14658736D01*
X6396253Y-14658736D02*
X6386729Y-14649212D01*
X6386729Y-14649212D02*
X6396253Y-14639689D01*
X6396253Y-14639689D02*
X6396253Y-14658736D01*
X6472443Y-14458736D02*
X6605777Y-14458736D01*
X6605777Y-14458736D02*
X6520062Y-14658736D01*
X6720062Y-14458736D02*
X6739110Y-14458736D01*
X6739110Y-14458736D02*
X6758158Y-14468260D01*
X6758158Y-14468260D02*
X6767682Y-14477784D01*
X6767682Y-14477784D02*
X6777205Y-14496831D01*
X6777205Y-14496831D02*
X6786729Y-14534927D01*
X6786729Y-14534927D02*
X6786729Y-14582546D01*
X6786729Y-14582546D02*
X6777205Y-14620641D01*
X6777205Y-14620641D02*
X6767682Y-14639689D01*
X6767682Y-14639689D02*
X6758158Y-14649212D01*
X6758158Y-14649212D02*
X6739110Y-14658736D01*
X6739110Y-14658736D02*
X6720062Y-14658736D01*
X6720062Y-14658736D02*
X6701015Y-14649212D01*
X6701015Y-14649212D02*
X6691491Y-14639689D01*
X6691491Y-14639689D02*
X6681967Y-14620641D01*
X6681967Y-14620641D02*
X6672443Y-14582546D01*
X6672443Y-14582546D02*
X6672443Y-14534927D01*
X6672443Y-14534927D02*
X6681967Y-14496831D01*
X6681967Y-14496831D02*
X6691491Y-14477784D01*
X6691491Y-14477784D02*
X6701015Y-14468260D01*
X6701015Y-14468260D02*
X6720062Y-14458736D01*
X6910539Y-14458736D02*
X6929586Y-14458736D01*
X6929586Y-14458736D02*
X6948634Y-14468260D01*
X6948634Y-14468260D02*
X6958158Y-14477784D01*
X6958158Y-14477784D02*
X6967682Y-14496831D01*
X6967682Y-14496831D02*
X6977205Y-14534927D01*
X6977205Y-14534927D02*
X6977205Y-14582546D01*
X6977205Y-14582546D02*
X6967682Y-14620641D01*
X6967682Y-14620641D02*
X6958158Y-14639689D01*
X6958158Y-14639689D02*
X6948634Y-14649212D01*
X6948634Y-14649212D02*
X6929586Y-14658736D01*
X6929586Y-14658736D02*
X6910539Y-14658736D01*
X6910539Y-14658736D02*
X6891491Y-14649212D01*
X6891491Y-14649212D02*
X6881967Y-14639689D01*
X6881967Y-14639689D02*
X6872443Y-14620641D01*
X6872443Y-14620641D02*
X6862920Y-14582546D01*
X6862920Y-14582546D02*
X6862920Y-14534927D01*
X6862920Y-14534927D02*
X6872443Y-14496831D01*
X6872443Y-14496831D02*
X6881967Y-14477784D01*
X6881967Y-14477784D02*
X6891491Y-14468260D01*
X6891491Y-14468260D02*
X6910539Y-14458736D01*
X7062920Y-14658736D02*
X7062920Y-14525403D01*
X7062920Y-14544450D02*
X7072443Y-14534927D01*
X7072443Y-14534927D02*
X7091491Y-14525403D01*
X7091491Y-14525403D02*
X7120063Y-14525403D01*
X7120063Y-14525403D02*
X7139110Y-14534927D01*
X7139110Y-14534927D02*
X7148634Y-14553974D01*
X7148634Y-14553974D02*
X7148634Y-14658736D01*
X7148634Y-14553974D02*
X7158158Y-14534927D01*
X7158158Y-14534927D02*
X7177205Y-14525403D01*
X7177205Y-14525403D02*
X7205777Y-14525403D01*
X7205777Y-14525403D02*
X7224824Y-14534927D01*
X7224824Y-14534927D02*
X7234348Y-14553974D01*
X7234348Y-14553974D02*
X7234348Y-14658736D01*
X7329586Y-14658736D02*
X7329586Y-14525403D01*
X7329586Y-14544450D02*
X7339110Y-14534927D01*
X7339110Y-14534927D02*
X7358158Y-14525403D01*
X7358158Y-14525403D02*
X7386729Y-14525403D01*
X7386729Y-14525403D02*
X7405777Y-14534927D01*
X7405777Y-14534927D02*
X7415301Y-14553974D01*
X7415301Y-14553974D02*
X7415301Y-14658736D01*
X7415301Y-14553974D02*
X7424824Y-14534927D01*
X7424824Y-14534927D02*
X7443872Y-14525403D01*
X7443872Y-14525403D02*
X7472443Y-14525403D01*
X7472443Y-14525403D02*
X7491491Y-14534927D01*
X7491491Y-14534927D02*
X7501015Y-14553974D01*
X7501015Y-14553974D02*
X7501015Y-14658736D01*
X7891491Y-14449212D02*
X7720063Y-14706355D01*
X8148634Y-14458736D02*
X8167682Y-14458736D01*
X8167682Y-14458736D02*
X8186729Y-14468260D01*
X8186729Y-14468260D02*
X8196253Y-14477784D01*
X8196253Y-14477784D02*
X8205777Y-14496831D01*
X8205777Y-14496831D02*
X8215301Y-14534927D01*
X8215301Y-14534927D02*
X8215301Y-14582546D01*
X8215301Y-14582546D02*
X8205777Y-14620641D01*
X8205777Y-14620641D02*
X8196253Y-14639689D01*
X8196253Y-14639689D02*
X8186729Y-14649212D01*
X8186729Y-14649212D02*
X8167682Y-14658736D01*
X8167682Y-14658736D02*
X8148634Y-14658736D01*
X8148634Y-14658736D02*
X8129586Y-14649212D01*
X8129586Y-14649212D02*
X8120063Y-14639689D01*
X8120063Y-14639689D02*
X8110539Y-14620641D01*
X8110539Y-14620641D02*
X8101015Y-14582546D01*
X8101015Y-14582546D02*
X8101015Y-14534927D01*
X8101015Y-14534927D02*
X8110539Y-14496831D01*
X8110539Y-14496831D02*
X8120063Y-14477784D01*
X8120063Y-14477784D02*
X8129586Y-14468260D01*
X8129586Y-14468260D02*
X8148634Y-14458736D01*
X8301015Y-14639689D02*
X8310539Y-14649212D01*
X8310539Y-14649212D02*
X8301015Y-14658736D01*
X8301015Y-14658736D02*
X8291491Y-14649212D01*
X8291491Y-14649212D02*
X8301015Y-14639689D01*
X8301015Y-14639689D02*
X8301015Y-14658736D01*
X8501015Y-14658736D02*
X8386729Y-14658736D01*
X8443872Y-14658736D02*
X8443872Y-14458736D01*
X8443872Y-14458736D02*
X8424825Y-14487308D01*
X8424825Y-14487308D02*
X8405777Y-14506355D01*
X8405777Y-14506355D02*
X8386729Y-14515879D01*
X8624825Y-14458736D02*
X8643872Y-14458736D01*
X8643872Y-14458736D02*
X8662920Y-14468260D01*
X8662920Y-14468260D02*
X8672444Y-14477784D01*
X8672444Y-14477784D02*
X8681968Y-14496831D01*
X8681968Y-14496831D02*
X8691491Y-14534927D01*
X8691491Y-14534927D02*
X8691491Y-14582546D01*
X8691491Y-14582546D02*
X8681968Y-14620641D01*
X8681968Y-14620641D02*
X8672444Y-14639689D01*
X8672444Y-14639689D02*
X8662920Y-14649212D01*
X8662920Y-14649212D02*
X8643872Y-14658736D01*
X8643872Y-14658736D02*
X8624825Y-14658736D01*
X8624825Y-14658736D02*
X8605777Y-14649212D01*
X8605777Y-14649212D02*
X8596253Y-14639689D01*
X8596253Y-14639689D02*
X8586729Y-14620641D01*
X8586729Y-14620641D02*
X8577206Y-14582546D01*
X8577206Y-14582546D02*
X8577206Y-14534927D01*
X8577206Y-14534927D02*
X8586729Y-14496831D01*
X8586729Y-14496831D02*
X8596253Y-14477784D01*
X8596253Y-14477784D02*
X8605777Y-14468260D01*
X8605777Y-14468260D02*
X8624825Y-14458736D01*
X8862920Y-14458736D02*
X8824825Y-14458736D01*
X8824825Y-14458736D02*
X8805777Y-14468260D01*
X8805777Y-14468260D02*
X8796253Y-14477784D01*
X8796253Y-14477784D02*
X8777206Y-14506355D01*
X8777206Y-14506355D02*
X8767682Y-14544450D01*
X8767682Y-14544450D02*
X8767682Y-14620641D01*
X8767682Y-14620641D02*
X8777206Y-14639689D01*
X8777206Y-14639689D02*
X8786729Y-14649212D01*
X8786729Y-14649212D02*
X8805777Y-14658736D01*
X8805777Y-14658736D02*
X8843872Y-14658736D01*
X8843872Y-14658736D02*
X8862920Y-14649212D01*
X8862920Y-14649212D02*
X8872444Y-14639689D01*
X8872444Y-14639689D02*
X8881968Y-14620641D01*
X8881968Y-14620641D02*
X8881968Y-14573022D01*
X8881968Y-14573022D02*
X8872444Y-14553974D01*
X8872444Y-14553974D02*
X8862920Y-14544450D01*
X8862920Y-14544450D02*
X8843872Y-14534927D01*
X8843872Y-14534927D02*
X8805777Y-14534927D01*
X8805777Y-14534927D02*
X8786729Y-14544450D01*
X8786729Y-14544450D02*
X8777206Y-14553974D01*
X8777206Y-14553974D02*
X8767682Y-14573022D01*
X8948634Y-14458736D02*
X9072444Y-14458736D01*
X9072444Y-14458736D02*
X9005777Y-14534927D01*
X9005777Y-14534927D02*
X9034349Y-14534927D01*
X9034349Y-14534927D02*
X9053396Y-14544450D01*
X9053396Y-14544450D02*
X9062920Y-14553974D01*
X9062920Y-14553974D02*
X9072444Y-14573022D01*
X9072444Y-14573022D02*
X9072444Y-14620641D01*
X9072444Y-14620641D02*
X9062920Y-14639689D01*
X9062920Y-14639689D02*
X9053396Y-14649212D01*
X9053396Y-14649212D02*
X9034349Y-14658736D01*
X9034349Y-14658736D02*
X8977206Y-14658736D01*
X8977206Y-14658736D02*
X8958158Y-14649212D01*
X8958158Y-14649212D02*
X8948634Y-14639689D01*
X9148634Y-14458736D02*
X9148634Y-14496831D01*
X9224825Y-14458736D02*
X9224825Y-14496831D01*
X9520063Y-14734927D02*
X9510539Y-14725403D01*
X9510539Y-14725403D02*
X9491491Y-14696831D01*
X9491491Y-14696831D02*
X9481968Y-14677784D01*
X9481968Y-14677784D02*
X9472444Y-14649212D01*
X9472444Y-14649212D02*
X9462920Y-14601593D01*
X9462920Y-14601593D02*
X9462920Y-14563498D01*
X9462920Y-14563498D02*
X9472444Y-14515879D01*
X9472444Y-14515879D02*
X9481968Y-14487308D01*
X9481968Y-14487308D02*
X9491491Y-14468260D01*
X9491491Y-14468260D02*
X9510539Y-14439689D01*
X9510539Y-14439689D02*
X9520063Y-14430165D01*
X9681968Y-14525403D02*
X9681968Y-14658736D01*
X9634349Y-14449212D02*
X9586730Y-14592070D01*
X9586730Y-14592070D02*
X9710539Y-14592070D01*
X9939111Y-14658736D02*
X9939111Y-14458736D01*
X10024825Y-14658736D02*
X10024825Y-14553974D01*
X10024825Y-14553974D02*
X10015301Y-14534927D01*
X10015301Y-14534927D02*
X9996253Y-14525403D01*
X9996253Y-14525403D02*
X9967682Y-14525403D01*
X9967682Y-14525403D02*
X9948634Y-14534927D01*
X9948634Y-14534927D02*
X9939111Y-14544450D01*
X10148634Y-14658736D02*
X10129587Y-14649212D01*
X10129587Y-14649212D02*
X10120063Y-14639689D01*
X10120063Y-14639689D02*
X10110539Y-14620641D01*
X10110539Y-14620641D02*
X10110539Y-14563498D01*
X10110539Y-14563498D02*
X10120063Y-14544450D01*
X10120063Y-14544450D02*
X10129587Y-14534927D01*
X10129587Y-14534927D02*
X10148634Y-14525403D01*
X10148634Y-14525403D02*
X10177206Y-14525403D01*
X10177206Y-14525403D02*
X10196253Y-14534927D01*
X10196253Y-14534927D02*
X10205777Y-14544450D01*
X10205777Y-14544450D02*
X10215301Y-14563498D01*
X10215301Y-14563498D02*
X10215301Y-14620641D01*
X10215301Y-14620641D02*
X10205777Y-14639689D01*
X10205777Y-14639689D02*
X10196253Y-14649212D01*
X10196253Y-14649212D02*
X10177206Y-14658736D01*
X10177206Y-14658736D02*
X10148634Y-14658736D01*
X10329587Y-14658736D02*
X10310539Y-14649212D01*
X10310539Y-14649212D02*
X10301015Y-14630165D01*
X10301015Y-14630165D02*
X10301015Y-14458736D01*
X10481968Y-14649212D02*
X10462920Y-14658736D01*
X10462920Y-14658736D02*
X10424825Y-14658736D01*
X10424825Y-14658736D02*
X10405777Y-14649212D01*
X10405777Y-14649212D02*
X10396253Y-14630165D01*
X10396253Y-14630165D02*
X10396253Y-14553974D01*
X10396253Y-14553974D02*
X10405777Y-14534927D01*
X10405777Y-14534927D02*
X10424825Y-14525403D01*
X10424825Y-14525403D02*
X10462920Y-14525403D01*
X10462920Y-14525403D02*
X10481968Y-14534927D01*
X10481968Y-14534927D02*
X10491492Y-14553974D01*
X10491492Y-14553974D02*
X10491492Y-14573022D01*
X10491492Y-14573022D02*
X10396253Y-14592070D01*
X10567682Y-14649212D02*
X10586730Y-14658736D01*
X10586730Y-14658736D02*
X10624825Y-14658736D01*
X10624825Y-14658736D02*
X10643873Y-14649212D01*
X10643873Y-14649212D02*
X10653396Y-14630165D01*
X10653396Y-14630165D02*
X10653396Y-14620641D01*
X10653396Y-14620641D02*
X10643873Y-14601593D01*
X10643873Y-14601593D02*
X10624825Y-14592070D01*
X10624825Y-14592070D02*
X10596253Y-14592070D01*
X10596253Y-14592070D02*
X10577206Y-14582546D01*
X10577206Y-14582546D02*
X10567682Y-14563498D01*
X10567682Y-14563498D02*
X10567682Y-14553974D01*
X10567682Y-14553974D02*
X10577206Y-14534927D01*
X10577206Y-14534927D02*
X10596253Y-14525403D01*
X10596253Y-14525403D02*
X10624825Y-14525403D01*
X10624825Y-14525403D02*
X10643873Y-14534927D01*
X10720063Y-14734927D02*
X10729587Y-14725403D01*
X10729587Y-14725403D02*
X10748634Y-14696831D01*
X10748634Y-14696831D02*
X10758158Y-14677784D01*
X10758158Y-14677784D02*
X10767682Y-14649212D01*
X10767682Y-14649212D02*
X10777206Y-14601593D01*
X10777206Y-14601593D02*
X10777206Y-14563498D01*
X10777206Y-14563498D02*
X10767682Y-14515879D01*
X10767682Y-14515879D02*
X10758158Y-14487308D01*
X10758158Y-14487308D02*
X10748634Y-14468260D01*
X10748634Y-14468260D02*
X10729587Y-14439689D01*
X10729587Y-14439689D02*
X10720063Y-14430165D01*
M02*
