G04 #@! TF.GenerationSoftware,KiCad,Pcbnew,8.0.7-8.0.7-0~ubuntu22.04.1*
G04 #@! TF.CreationDate,2025-01-30T21:49:18+01:00*
G04 #@! TF.ProjectId,linefollower_pcb,6c696e65-666f-46c6-9c6f-7765725f7063,rev?*
G04 #@! TF.SameCoordinates,Original*
G04 #@! TF.FileFunction,Soldermask,Bot*
G04 #@! TF.FilePolarity,Negative*
%FSLAX46Y46*%
G04 Gerber Fmt 4.6, Leading zero omitted, Abs format (unit mm)*
G04 Created by KiCad (PCBNEW 8.0.7-8.0.7-0~ubuntu22.04.1) date 2025-01-30 21:49:18*
%MOMM*%
%LPD*%
G01*
G04 APERTURE LIST*
%ADD10R,1.700000X1.700000*%
%ADD11O,1.700000X1.700000*%
%ADD12O,0.900000X1.600000*%
%ADD13C,0.800000*%
%ADD14C,5.400000*%
%ADD15R,1.600000X1.600000*%
%ADD16O,1.600000X1.600000*%
%ADD17C,2.000000*%
G04 APERTURE END LIST*
D10*
X90960000Y-116600000D03*
D11*
X93500000Y-116600000D03*
D12*
X82850000Y-122550000D03*
X89450000Y-122550000D03*
D10*
X82000000Y-116500000D03*
D11*
X79460000Y-116500000D03*
D10*
X74640000Y-79300000D03*
D11*
X77180000Y-79300000D03*
X79720000Y-79300000D03*
X82260000Y-79300000D03*
X84800000Y-79300000D03*
X87340000Y-79300000D03*
X89880000Y-79300000D03*
X92420000Y-79300000D03*
X94960000Y-79300000D03*
X97500000Y-79300000D03*
X100040000Y-79300000D03*
D13*
X60925000Y-78600000D03*
X61518109Y-77168109D03*
X61518109Y-80031891D03*
X62950000Y-76575000D03*
D14*
X62950000Y-78600000D03*
D13*
X62950000Y-80625000D03*
X64381891Y-77168109D03*
X64381891Y-80031891D03*
X64975000Y-78600000D03*
D15*
X100100000Y-84870000D03*
D16*
X100100000Y-87410000D03*
X100100000Y-89950000D03*
X100100000Y-92490000D03*
X100100000Y-95030000D03*
X100100000Y-97570000D03*
X100100000Y-100110000D03*
X100100000Y-102650000D03*
X107720000Y-102650000D03*
X107720000Y-100110000D03*
X107720000Y-97570000D03*
X107720000Y-95030000D03*
X107720000Y-92490000D03*
X107720000Y-89950000D03*
X107720000Y-87410000D03*
X107720000Y-84870000D03*
D10*
X74250000Y-106875000D03*
D11*
X74250000Y-104335000D03*
X74250000Y-101795000D03*
X74250000Y-99255000D03*
X74250000Y-96715000D03*
X74250000Y-94175000D03*
X74250000Y-91635000D03*
X74250000Y-89095000D03*
D10*
X107100000Y-107250000D03*
D11*
X107100000Y-109790000D03*
D13*
X104300000Y-79068109D03*
X104893109Y-77636218D03*
X104893109Y-80500000D03*
X106325000Y-77043109D03*
D14*
X106325000Y-79068109D03*
D13*
X106325000Y-81093109D03*
X107756891Y-77636218D03*
X107756891Y-80500000D03*
X108350000Y-79068109D03*
X104325000Y-122218109D03*
X104918109Y-120786218D03*
X104918109Y-123650000D03*
X106350000Y-120193109D03*
D14*
X106350000Y-122218109D03*
D13*
X106350000Y-124243109D03*
X107781891Y-120786218D03*
X107781891Y-123650000D03*
X108375000Y-122218109D03*
X60975000Y-122000000D03*
X61568109Y-120568109D03*
X61568109Y-123431891D03*
X63000000Y-119975000D03*
D14*
X63000000Y-122000000D03*
D13*
X63000000Y-124025000D03*
X64431891Y-120568109D03*
X64431891Y-123431891D03*
X65025000Y-122000000D03*
D17*
X62850000Y-112081128D03*
X69350000Y-112081128D03*
X62850000Y-116581128D03*
X69350000Y-116581128D03*
X62900000Y-100400000D03*
X69400000Y-100400000D03*
X62900000Y-104900000D03*
X69400000Y-104900000D03*
M02*
