G04 #@! TF.GenerationSoftware,KiCad,Pcbnew,8.0.7-8.0.7-0~ubuntu22.04.1*
G04 #@! TF.CreationDate,2025-01-30T21:49:18+01:00*
G04 #@! TF.ProjectId,linefollower_pcb,6c696e65-666f-46c6-9c6f-7765725f7063,rev?*
G04 #@! TF.SameCoordinates,Original*
G04 #@! TF.FileFunction,Soldermask,Top*
G04 #@! TF.FilePolarity,Negative*
%FSLAX46Y46*%
G04 Gerber Fmt 4.6, Leading zero omitted, Abs format (unit mm)*
G04 Created by KiCad (PCBNEW 8.0.7-8.0.7-0~ubuntu22.04.1) date 2025-01-30 21:49:18*
%MOMM*%
%LPD*%
G01*
G04 APERTURE LIST*
G04 Aperture macros list*
%AMRoundRect*
0 Rectangle with rounded corners*
0 $1 Rounding radius*
0 $2 $3 $4 $5 $6 $7 $8 $9 X,Y pos of 4 corners*
0 Add a 4 corners polygon primitive as box body*
4,1,4,$2,$3,$4,$5,$6,$7,$8,$9,$2,$3,0*
0 Add four circle primitives for the rounded corners*
1,1,$1+$1,$2,$3*
1,1,$1+$1,$4,$5*
1,1,$1+$1,$6,$7*
1,1,$1+$1,$8,$9*
0 Add four rect primitives between the rounded corners*
20,1,$1+$1,$2,$3,$4,$5,0*
20,1,$1+$1,$4,$5,$6,$7,0*
20,1,$1+$1,$6,$7,$8,$9,0*
20,1,$1+$1,$8,$9,$2,$3,0*%
G04 Aperture macros list end*
%ADD10R,1.700000X1.700000*%
%ADD11O,1.700000X1.700000*%
%ADD12RoundRect,0.100000X-0.100000X-0.575000X0.100000X-0.575000X0.100000X0.575000X-0.100000X0.575000X0*%
%ADD13O,0.900000X1.600000*%
%ADD14RoundRect,0.250000X-0.550000X-0.450000X0.550000X-0.450000X0.550000X0.450000X-0.550000X0.450000X0*%
%ADD15RoundRect,0.250000X-0.700000X-0.700000X0.700000X-0.700000X0.700000X0.700000X-0.700000X0.700000X0*%
%ADD16RoundRect,0.250000X-0.412500X-0.650000X0.412500X-0.650000X0.412500X0.650000X-0.412500X0.650000X0*%
%ADD17RoundRect,0.250000X-0.650000X0.412500X-0.650000X-0.412500X0.650000X-0.412500X0.650000X0.412500X0*%
%ADD18RoundRect,0.250000X-0.400000X-0.625000X0.400000X-0.625000X0.400000X0.625000X-0.400000X0.625000X0*%
%ADD19C,0.800000*%
%ADD20C,5.400000*%
%ADD21R,1.600000X1.600000*%
%ADD22O,1.600000X1.600000*%
%ADD23RoundRect,0.225000X-0.525000X-0.225000X0.525000X-0.225000X0.525000X0.225000X-0.525000X0.225000X0*%
%ADD24RoundRect,0.225000X0.225000X0.525000X-0.225000X0.525000X-0.225000X-0.525000X0.225000X-0.525000X0*%
%ADD25RoundRect,0.225000X0.525000X0.225000X-0.525000X0.225000X-0.525000X-0.225000X0.525000X-0.225000X0*%
%ADD26RoundRect,0.185000X1.665000X1.665000X-1.665000X1.665000X-1.665000X-1.665000X1.665000X-1.665000X0*%
%ADD27RoundRect,0.250000X0.300000X-2.050000X0.300000X2.050000X-0.300000X2.050000X-0.300000X-2.050000X0*%
%ADD28RoundRect,0.250002X5.149998X-4.449998X5.149998X4.449998X-5.149998X4.449998X-5.149998X-4.449998X0*%
%ADD29RoundRect,0.250000X0.412500X0.650000X-0.412500X0.650000X-0.412500X-0.650000X0.412500X-0.650000X0*%
%ADD30C,2.000000*%
G04 APERTURE END LIST*
D10*
X90960000Y-116600000D03*
D11*
X93500000Y-116600000D03*
D12*
X84850000Y-119875000D03*
X85500000Y-119875000D03*
X86150000Y-119875000D03*
X86800000Y-119875000D03*
X87450000Y-119875000D03*
D13*
X82850000Y-122550000D03*
D14*
X82950000Y-120100000D03*
D15*
X84950000Y-122550000D03*
X87350000Y-122550000D03*
D14*
X89350000Y-120100000D03*
D13*
X89450000Y-122550000D03*
D10*
X82000000Y-116500000D03*
D11*
X79460000Y-116500000D03*
D16*
X61687500Y-108350000D03*
X64812500Y-108350000D03*
D17*
X74250000Y-111437500D03*
X74250000Y-114562500D03*
D10*
X74640000Y-79300000D03*
D11*
X77180000Y-79300000D03*
X79720000Y-79300000D03*
X82260000Y-79300000D03*
X84800000Y-79300000D03*
X87340000Y-79300000D03*
X89880000Y-79300000D03*
X92420000Y-79300000D03*
X94960000Y-79300000D03*
X97500000Y-79300000D03*
X100040000Y-79300000D03*
D18*
X101600000Y-113550000D03*
X104700000Y-113550000D03*
D19*
X60925000Y-78600000D03*
X61518109Y-77168109D03*
X61518109Y-80031891D03*
X62950000Y-76575000D03*
D20*
X62950000Y-78600000D03*
D19*
X62950000Y-80625000D03*
X64381891Y-77168109D03*
X64381891Y-80031891D03*
X64975000Y-78600000D03*
D21*
X100100000Y-84870000D03*
D22*
X100100000Y-87410000D03*
X100100000Y-89950000D03*
X100100000Y-92490000D03*
X100100000Y-95030000D03*
X100100000Y-97570000D03*
X100100000Y-100110000D03*
X100100000Y-102650000D03*
X107720000Y-102650000D03*
X107720000Y-100110000D03*
X107720000Y-97570000D03*
X107720000Y-95030000D03*
X107720000Y-92490000D03*
X107720000Y-89950000D03*
X107720000Y-87410000D03*
X107720000Y-84870000D03*
D10*
X74250000Y-106875000D03*
D11*
X74250000Y-104335000D03*
X74250000Y-101795000D03*
X74250000Y-99255000D03*
X74250000Y-96715000D03*
X74250000Y-94175000D03*
X74250000Y-91635000D03*
X74250000Y-89095000D03*
D23*
X95330000Y-106220000D03*
X95330000Y-104950000D03*
X95330000Y-103680000D03*
X95330000Y-102410000D03*
X95330000Y-101140000D03*
X95330000Y-99870000D03*
X95330000Y-98600000D03*
X95330000Y-97330000D03*
X95330000Y-96060000D03*
X95330000Y-94790000D03*
X95330000Y-93520000D03*
X95330000Y-92250000D03*
X95330000Y-90980000D03*
X95330000Y-89710000D03*
D24*
X93460000Y-88430000D03*
X92190000Y-88430000D03*
X90920000Y-88430000D03*
X89650000Y-88430000D03*
X88380000Y-88430000D03*
X87110000Y-88430000D03*
X85840000Y-88430000D03*
X84570000Y-88430000D03*
X83300000Y-88430000D03*
X82030000Y-88430000D03*
X80760000Y-88430000D03*
X79490000Y-88430000D03*
D25*
X77610000Y-89730000D03*
X77610000Y-91000000D03*
X77610000Y-92270000D03*
X77610000Y-93540000D03*
X77610000Y-94810000D03*
X77610000Y-96080000D03*
X77610000Y-97350000D03*
X77610000Y-98620000D03*
X77610000Y-99890000D03*
X77610000Y-101160000D03*
X77610000Y-102430000D03*
X77610000Y-103700000D03*
X77610000Y-104970000D03*
X77610000Y-106240000D03*
D26*
X88050000Y-98850000D03*
D16*
X101637500Y-116350000D03*
X104762500Y-116350000D03*
D10*
X107100000Y-107250000D03*
D11*
X107100000Y-109790000D03*
D27*
X62800000Y-96175000D03*
X64500000Y-96175000D03*
X66200000Y-96175000D03*
D28*
X66200000Y-87025000D03*
D27*
X67900000Y-96175000D03*
X69600000Y-96175000D03*
D19*
X104300000Y-79068109D03*
X104893109Y-77636218D03*
X104893109Y-80500000D03*
X106325000Y-77043109D03*
D20*
X106325000Y-79068109D03*
D19*
X106325000Y-81093109D03*
X107756891Y-77636218D03*
X107756891Y-80500000D03*
X108350000Y-79068109D03*
X104325000Y-122218109D03*
X104918109Y-120786218D03*
X104918109Y-123650000D03*
X106350000Y-120193109D03*
D20*
X106350000Y-122218109D03*
D19*
X106350000Y-124243109D03*
X107781891Y-120786218D03*
X107781891Y-123650000D03*
X108375000Y-122218109D03*
D29*
X70187500Y-108350000D03*
X67062500Y-108350000D03*
D19*
X60975000Y-122000000D03*
X61568109Y-120568109D03*
X61568109Y-123431891D03*
X63000000Y-119975000D03*
D20*
X63000000Y-122000000D03*
D19*
X63000000Y-124025000D03*
X64431891Y-120568109D03*
X64431891Y-123431891D03*
X65025000Y-122000000D03*
D29*
X103462500Y-110150000D03*
X100337500Y-110150000D03*
D30*
X62850000Y-112081128D03*
X69350000Y-112081128D03*
X62850000Y-116581128D03*
X69350000Y-116581128D03*
X62900000Y-100400000D03*
X69400000Y-100400000D03*
X62900000Y-104900000D03*
X69400000Y-104900000D03*
M02*
