G04 #@! TF.GenerationSoftware,KiCad,Pcbnew,8.0.7-8.0.7-0~ubuntu22.04.1*
G04 #@! TF.CreationDate,2025-01-30T21:49:18+01:00*
G04 #@! TF.ProjectId,linefollower_pcb,6c696e65-666f-46c6-9c6f-7765725f7063,rev?*
G04 #@! TF.SameCoordinates,Original*
G04 #@! TF.FileFunction,Copper,L1,Top*
G04 #@! TF.FilePolarity,Positive*
%FSLAX46Y46*%
G04 Gerber Fmt 4.6, Leading zero omitted, Abs format (unit mm)*
G04 Created by KiCad (PCBNEW 8.0.7-8.0.7-0~ubuntu22.04.1) date 2025-01-30 21:49:18*
%MOMM*%
%LPD*%
G01*
G04 APERTURE LIST*
G04 Aperture macros list*
%AMRoundRect*
0 Rectangle with rounded corners*
0 $1 Rounding radius*
0 $2 $3 $4 $5 $6 $7 $8 $9 X,Y pos of 4 corners*
0 Add a 4 corners polygon primitive as box body*
4,1,4,$2,$3,$4,$5,$6,$7,$8,$9,$2,$3,0*
0 Add four circle primitives for the rounded corners*
1,1,$1+$1,$2,$3*
1,1,$1+$1,$4,$5*
1,1,$1+$1,$6,$7*
1,1,$1+$1,$8,$9*
0 Add four rect primitives between the rounded corners*
20,1,$1+$1,$2,$3,$4,$5,0*
20,1,$1+$1,$4,$5,$6,$7,0*
20,1,$1+$1,$6,$7,$8,$9,0*
20,1,$1+$1,$8,$9,$2,$3,0*%
G04 Aperture macros list end*
G04 #@! TA.AperFunction,ComponentPad*
%ADD10R,1.700000X1.700000*%
G04 #@! TD*
G04 #@! TA.AperFunction,ComponentPad*
%ADD11O,1.700000X1.700000*%
G04 #@! TD*
G04 #@! TA.AperFunction,SMDPad,CuDef*
%ADD12RoundRect,0.100000X-0.100000X-0.575000X0.100000X-0.575000X0.100000X0.575000X-0.100000X0.575000X0*%
G04 #@! TD*
G04 #@! TA.AperFunction,ComponentPad*
%ADD13O,0.900000X1.600000*%
G04 #@! TD*
G04 #@! TA.AperFunction,SMDPad,CuDef*
%ADD14RoundRect,0.250000X-0.550000X-0.450000X0.550000X-0.450000X0.550000X0.450000X-0.550000X0.450000X0*%
G04 #@! TD*
G04 #@! TA.AperFunction,SMDPad,CuDef*
%ADD15RoundRect,0.250000X-0.700000X-0.700000X0.700000X-0.700000X0.700000X0.700000X-0.700000X0.700000X0*%
G04 #@! TD*
G04 #@! TA.AperFunction,SMDPad,CuDef*
%ADD16RoundRect,0.250000X-0.412500X-0.650000X0.412500X-0.650000X0.412500X0.650000X-0.412500X0.650000X0*%
G04 #@! TD*
G04 #@! TA.AperFunction,SMDPad,CuDef*
%ADD17RoundRect,0.250000X-0.650000X0.412500X-0.650000X-0.412500X0.650000X-0.412500X0.650000X0.412500X0*%
G04 #@! TD*
G04 #@! TA.AperFunction,SMDPad,CuDef*
%ADD18RoundRect,0.250000X-0.400000X-0.625000X0.400000X-0.625000X0.400000X0.625000X-0.400000X0.625000X0*%
G04 #@! TD*
G04 #@! TA.AperFunction,ComponentPad*
%ADD19C,0.800000*%
G04 #@! TD*
G04 #@! TA.AperFunction,ComponentPad*
%ADD20C,5.400000*%
G04 #@! TD*
G04 #@! TA.AperFunction,ComponentPad*
%ADD21R,1.600000X1.600000*%
G04 #@! TD*
G04 #@! TA.AperFunction,ComponentPad*
%ADD22O,1.600000X1.600000*%
G04 #@! TD*
G04 #@! TA.AperFunction,SMDPad,CuDef*
%ADD23RoundRect,0.225000X-0.525000X-0.225000X0.525000X-0.225000X0.525000X0.225000X-0.525000X0.225000X0*%
G04 #@! TD*
G04 #@! TA.AperFunction,SMDPad,CuDef*
%ADD24RoundRect,0.225000X0.225000X0.525000X-0.225000X0.525000X-0.225000X-0.525000X0.225000X-0.525000X0*%
G04 #@! TD*
G04 #@! TA.AperFunction,SMDPad,CuDef*
%ADD25RoundRect,0.225000X0.525000X0.225000X-0.525000X0.225000X-0.525000X-0.225000X0.525000X-0.225000X0*%
G04 #@! TD*
G04 #@! TA.AperFunction,SMDPad,CuDef*
%ADD26RoundRect,0.185000X1.665000X1.665000X-1.665000X1.665000X-1.665000X-1.665000X1.665000X-1.665000X0*%
G04 #@! TD*
G04 #@! TA.AperFunction,SMDPad,CuDef*
%ADD27RoundRect,0.250000X0.300000X-2.050000X0.300000X2.050000X-0.300000X2.050000X-0.300000X-2.050000X0*%
G04 #@! TD*
G04 #@! TA.AperFunction,SMDPad,CuDef*
%ADD28RoundRect,0.250000X2.375000X-2.025000X2.375000X2.025000X-2.375000X2.025000X-2.375000X-2.025000X0*%
G04 #@! TD*
G04 #@! TA.AperFunction,SMDPad,CuDef*
%ADD29RoundRect,0.250002X5.149998X-4.449998X5.149998X4.449998X-5.149998X4.449998X-5.149998X-4.449998X0*%
G04 #@! TD*
G04 #@! TA.AperFunction,SMDPad,CuDef*
%ADD30RoundRect,0.250000X0.412500X0.650000X-0.412500X0.650000X-0.412500X-0.650000X0.412500X-0.650000X0*%
G04 #@! TD*
G04 #@! TA.AperFunction,ComponentPad*
%ADD31C,2.000000*%
G04 #@! TD*
G04 #@! TA.AperFunction,ViaPad*
%ADD32C,0.800000*%
G04 #@! TD*
G04 #@! TA.AperFunction,Conductor*
%ADD33C,0.400000*%
G04 #@! TD*
G04 #@! TA.AperFunction,Conductor*
%ADD34C,0.250000*%
G04 #@! TD*
G04 #@! TA.AperFunction,Conductor*
%ADD35C,0.200000*%
G04 #@! TD*
G04 #@! TA.AperFunction,Conductor*
%ADD36C,0.300000*%
G04 #@! TD*
G04 APERTURE END LIST*
D10*
X90960000Y-116600000D03*
D11*
X93500000Y-116600000D03*
D12*
X84850000Y-119875000D03*
X85500000Y-119875000D03*
X86150000Y-119875000D03*
X86800000Y-119875000D03*
X87450000Y-119875000D03*
D13*
X82850000Y-122550000D03*
D14*
X82950000Y-120100000D03*
D15*
X84950000Y-122550000D03*
X87350000Y-122550000D03*
D14*
X89350000Y-120100000D03*
D13*
X89450000Y-122550000D03*
D10*
X82000000Y-116500000D03*
D11*
X79460000Y-116500000D03*
D16*
X61687500Y-108350000D03*
X64812500Y-108350000D03*
D17*
X74250000Y-111437500D03*
X74250000Y-114562500D03*
D10*
X74640000Y-79300000D03*
D11*
X77180000Y-79300000D03*
X79720000Y-79300000D03*
X82260000Y-79300000D03*
X84800000Y-79300000D03*
X87340000Y-79300000D03*
X89880000Y-79300000D03*
X92420000Y-79300000D03*
X94960000Y-79300000D03*
X97500000Y-79300000D03*
X100040000Y-79300000D03*
D18*
X101600000Y-113550000D03*
X104700000Y-113550000D03*
D19*
X60925000Y-78600000D03*
X61518109Y-77168109D03*
X61518109Y-80031891D03*
X62950000Y-76575000D03*
D20*
X62950000Y-78600000D03*
D19*
X62950000Y-80625000D03*
X64381891Y-77168109D03*
X64381891Y-80031891D03*
X64975000Y-78600000D03*
D21*
X100100000Y-84870000D03*
D22*
X100100000Y-87410000D03*
X100100000Y-89950000D03*
X100100000Y-92490000D03*
X100100000Y-95030000D03*
X100100000Y-97570000D03*
X100100000Y-100110000D03*
X100100000Y-102650000D03*
X107720000Y-102650000D03*
X107720000Y-100110000D03*
X107720000Y-97570000D03*
X107720000Y-95030000D03*
X107720000Y-92490000D03*
X107720000Y-89950000D03*
X107720000Y-87410000D03*
X107720000Y-84870000D03*
D10*
X74250000Y-106875000D03*
D11*
X74250000Y-104335000D03*
X74250000Y-101795000D03*
X74250000Y-99255000D03*
X74250000Y-96715000D03*
X74250000Y-94175000D03*
X74250000Y-91635000D03*
X74250000Y-89095000D03*
D23*
X95330000Y-106220000D03*
X95330000Y-104950000D03*
X95330000Y-103680000D03*
X95330000Y-102410000D03*
X95330000Y-101140000D03*
X95330000Y-99870000D03*
X95330000Y-98600000D03*
X95330000Y-97330000D03*
X95330000Y-96060000D03*
X95330000Y-94790000D03*
X95330000Y-93520000D03*
X95330000Y-92250000D03*
X95330000Y-90980000D03*
X95330000Y-89710000D03*
D24*
X93460000Y-88430000D03*
X92190000Y-88430000D03*
X90920000Y-88430000D03*
X89650000Y-88430000D03*
X88380000Y-88430000D03*
X87110000Y-88430000D03*
X85840000Y-88430000D03*
X84570000Y-88430000D03*
X83300000Y-88430000D03*
X82030000Y-88430000D03*
X80760000Y-88430000D03*
X79490000Y-88430000D03*
D25*
X77610000Y-89730000D03*
X77610000Y-91000000D03*
X77610000Y-92270000D03*
X77610000Y-93540000D03*
X77610000Y-94810000D03*
X77610000Y-96080000D03*
X77610000Y-97350000D03*
X77610000Y-98620000D03*
X77610000Y-99890000D03*
X77610000Y-101160000D03*
X77610000Y-102430000D03*
X77610000Y-103700000D03*
X77610000Y-104970000D03*
X77610000Y-106240000D03*
D26*
X88050000Y-98850000D03*
D16*
X101637500Y-116350000D03*
X104762500Y-116350000D03*
D10*
X107100000Y-107250000D03*
D11*
X107100000Y-109790000D03*
D27*
X62800000Y-96175000D03*
X64500000Y-96175000D03*
X66200000Y-96175000D03*
D28*
X63425000Y-89450000D03*
X68975000Y-89450000D03*
D29*
X66200000Y-87025000D03*
D28*
X63425000Y-84600000D03*
X68975000Y-84600000D03*
D27*
X67900000Y-96175000D03*
X69600000Y-96175000D03*
D19*
X104300000Y-79068109D03*
X104893109Y-77636218D03*
X104893109Y-80500000D03*
X106325000Y-77043109D03*
D20*
X106325000Y-79068109D03*
D19*
X106325000Y-81093109D03*
X107756891Y-77636218D03*
X107756891Y-80500000D03*
X108350000Y-79068109D03*
X104325000Y-122218109D03*
X104918109Y-120786218D03*
X104918109Y-123650000D03*
X106350000Y-120193109D03*
D20*
X106350000Y-122218109D03*
D19*
X106350000Y-124243109D03*
X107781891Y-120786218D03*
X107781891Y-123650000D03*
X108375000Y-122218109D03*
D30*
X70187500Y-108350000D03*
X67062500Y-108350000D03*
D19*
X60975000Y-122000000D03*
X61568109Y-120568109D03*
X61568109Y-123431891D03*
X63000000Y-119975000D03*
D20*
X63000000Y-122000000D03*
D19*
X63000000Y-124025000D03*
X64431891Y-120568109D03*
X64431891Y-123431891D03*
X65025000Y-122000000D03*
D30*
X103462500Y-110150000D03*
X100337500Y-110150000D03*
D31*
X62850000Y-112081128D03*
X69350000Y-112081128D03*
X62850000Y-116581128D03*
X69350000Y-116581128D03*
X62900000Y-100400000D03*
X69400000Y-100400000D03*
X62900000Y-104900000D03*
X69400000Y-104900000D03*
D32*
X87550000Y-85925000D03*
X70050000Y-89550000D03*
X98800000Y-76500000D03*
X96290000Y-121800000D03*
X65250000Y-104150000D03*
X60350000Y-81300000D03*
X102650000Y-118575000D03*
X79500000Y-82500000D03*
X83475000Y-111650000D03*
X60400000Y-93950000D03*
X88500000Y-117500000D03*
X88450000Y-95300000D03*
X79250000Y-76250000D03*
X89250000Y-102850000D03*
X80500000Y-102450000D03*
X86300000Y-112250000D03*
X75250000Y-120750000D03*
X70400000Y-80150000D03*
X67300000Y-76950000D03*
X72700000Y-75950000D03*
X104212500Y-93554416D03*
X90900000Y-111300000D03*
X103750000Y-98775000D03*
X77610000Y-106240000D03*
X68425000Y-123400000D03*
X69750000Y-84350000D03*
X75000000Y-84750000D03*
X81100000Y-98650000D03*
X109150000Y-115200000D03*
X83850000Y-95900000D03*
X73500000Y-118000000D03*
X62850000Y-89400000D03*
X104025000Y-85925000D03*
X84000000Y-101500000D03*
X104250000Y-103100000D03*
X95600000Y-82050000D03*
X83000000Y-85250000D03*
X102200000Y-123925000D03*
X98275000Y-111250000D03*
X86550000Y-75800000D03*
X98750000Y-116650000D03*
X86150000Y-81350000D03*
X71975000Y-98075000D03*
X65900000Y-125000000D03*
X66200000Y-86950000D03*
X84050000Y-115550000D03*
X62750000Y-84400000D03*
X87150000Y-104900000D03*
X80850000Y-123700000D03*
X83500000Y-90500000D03*
X80875000Y-93575000D03*
X101900000Y-108450000D03*
X97150000Y-104100000D03*
X72575000Y-108825000D03*
X95330000Y-101140000D03*
X95330000Y-96060000D03*
X98650000Y-96350000D03*
X95450000Y-97350000D03*
X93950000Y-95250000D03*
X98600000Y-97775000D03*
X95400000Y-98625000D03*
X101600000Y-113550000D03*
X109150000Y-111775000D03*
X92950000Y-90450000D03*
X92190000Y-85921884D03*
X91400000Y-91475500D03*
X89550000Y-91650000D03*
X88450000Y-91950000D03*
X87250000Y-92550000D03*
X86300000Y-93200000D03*
X85305841Y-93303223D03*
D33*
X107100000Y-107250000D02*
X105862500Y-106012500D01*
X98250000Y-125000000D02*
X106275000Y-116975000D01*
X60800000Y-107462500D02*
X60800000Y-97200000D01*
X61825000Y-96175000D02*
X62800000Y-96175000D01*
X66000000Y-118500000D02*
X72500000Y-125000000D01*
X106275000Y-116975000D02*
X106275000Y-112750000D01*
X106275000Y-112750000D02*
X103675000Y-110150000D01*
X61687500Y-108350000D02*
X60750000Y-109287500D01*
X100100000Y-102650000D02*
X103462500Y-106012500D01*
X103675000Y-110150000D02*
X103462500Y-110150000D01*
X61900000Y-118500000D02*
X66000000Y-118500000D01*
X103462500Y-106800000D02*
X103462500Y-110150000D01*
X60800000Y-97200000D02*
X61825000Y-96175000D01*
X105250000Y-106037500D02*
X105225000Y-106012500D01*
X72500000Y-125000000D02*
X98250000Y-125000000D01*
X60750000Y-109287500D02*
X60750000Y-117350000D01*
X61687500Y-108350000D02*
X60800000Y-107462500D01*
X103462500Y-106012500D02*
X103462500Y-106800000D01*
X105862500Y-106012500D02*
X103462500Y-106012500D01*
X60750000Y-117350000D02*
X61900000Y-118500000D01*
D34*
X88500000Y-117500000D02*
X87450000Y-118550000D01*
X87450000Y-118550000D02*
X87450000Y-119875000D01*
D35*
X94280000Y-105064196D02*
X94280000Y-103995000D01*
X69400000Y-100400000D02*
X71450000Y-102450000D01*
X71450000Y-108689950D02*
X72457148Y-109697098D01*
D34*
X97150000Y-104100000D02*
X96730000Y-103680000D01*
D35*
X72457148Y-109697098D02*
X89647098Y-109697098D01*
D34*
X101900000Y-108450000D02*
X101900000Y-110750000D01*
D35*
X71450000Y-102450000D02*
X71450000Y-108689950D01*
D34*
X101900000Y-110750000D02*
X104700000Y-113550000D01*
X96730000Y-103680000D02*
X95330000Y-103680000D01*
D35*
X94595000Y-103680000D02*
X95330000Y-103680000D01*
X89647098Y-109697098D02*
X94280000Y-105064196D01*
X94280000Y-103995000D02*
X94595000Y-103680000D01*
X72625000Y-108775000D02*
X77325000Y-108775000D01*
X79050000Y-90200000D02*
X78580000Y-89730000D01*
X79050000Y-107050000D02*
X79050000Y-90200000D01*
X72575000Y-108825000D02*
X72625000Y-108775000D01*
X77325000Y-108775000D02*
X79050000Y-107050000D01*
X78580000Y-89730000D02*
X77610000Y-89730000D01*
D34*
X98650000Y-96350000D02*
X103960000Y-96350000D01*
X103960000Y-96350000D02*
X107720000Y-100110000D01*
X94470000Y-99870000D02*
X95330000Y-99870000D01*
X95309669Y-99849669D02*
X95330000Y-99870000D01*
X93950000Y-99350000D02*
X94470000Y-99870000D01*
X95049669Y-99849669D02*
X95309669Y-99849669D01*
X93950000Y-95250000D02*
X93950000Y-99350000D01*
X98600000Y-98610000D02*
X100100000Y-100110000D01*
X98600000Y-97775000D02*
X98600000Y-98610000D01*
X93910000Y-90515305D02*
X92400000Y-92025305D01*
X98635948Y-84870000D02*
X93910000Y-89595948D01*
X92400000Y-92025305D02*
X92400000Y-100200000D01*
X100100000Y-84870000D02*
X98635948Y-84870000D01*
X92400000Y-100200000D02*
X94610000Y-102410000D01*
X93910000Y-89595948D02*
X93910000Y-90515305D01*
X94610000Y-102410000D02*
X95330000Y-102410000D01*
D36*
X67550000Y-98825000D02*
X67900000Y-98475000D01*
X71237500Y-111437500D02*
X71462500Y-111212500D01*
X67900000Y-97680456D02*
X67900000Y-96175000D01*
X64500000Y-98475000D02*
X64850000Y-98825000D01*
X67900000Y-98475000D02*
X67900000Y-96175000D01*
X71237500Y-122837500D02*
X72850000Y-124450000D01*
X95030592Y-104950000D02*
X95330000Y-104950000D01*
X109150000Y-111775000D02*
X109450000Y-111475000D01*
X101637500Y-116350000D02*
X101637500Y-113587500D01*
X101637500Y-120834682D02*
X101637500Y-116350000D01*
X64500000Y-96175000D02*
X64500000Y-98475000D01*
X72850000Y-124450000D02*
X98022182Y-124450000D01*
X75540402Y-110147098D02*
X89833494Y-110147098D01*
X70187500Y-110162500D02*
X70187500Y-108350000D01*
X98022182Y-124450000D02*
X101637500Y-120834682D01*
X70187500Y-108350000D02*
X69525000Y-108350000D01*
X71237500Y-111212500D02*
X70187500Y-110162500D01*
X100040000Y-79300000D02*
X100475000Y-79300000D01*
X71237500Y-111437500D02*
X71237500Y-111212500D01*
X101637500Y-113587500D02*
X101600000Y-113550000D01*
X69525000Y-108350000D02*
X66175000Y-105000000D01*
X66175000Y-98825000D02*
X67550000Y-98825000D01*
X89833494Y-110147098D02*
X95030592Y-104950000D01*
X74250000Y-111437500D02*
X75540402Y-110147098D01*
X74025000Y-111212500D02*
X74250000Y-111437500D01*
X100475000Y-79300000D02*
X106045000Y-84870000D01*
X71237500Y-111437500D02*
X71237500Y-122837500D01*
X109450000Y-111475000D02*
X109450000Y-86600000D01*
X66175000Y-105000000D02*
X66175000Y-98825000D01*
X71462500Y-111212500D02*
X74025000Y-111212500D01*
X109450000Y-86600000D02*
X107720000Y-84870000D01*
X106045000Y-84870000D02*
X107720000Y-84870000D01*
X64850000Y-98825000D02*
X66175000Y-98825000D01*
D34*
X92950000Y-90450000D02*
X93460000Y-89940000D01*
X93460000Y-89940000D02*
X93460000Y-88430000D01*
X91984058Y-88224058D02*
X92190000Y-88430000D01*
X92190000Y-85921884D02*
X92190000Y-88430000D01*
X90920000Y-90995500D02*
X90920000Y-88430000D01*
X91400000Y-91475500D02*
X90920000Y-90995500D01*
X89550000Y-91650000D02*
X89550000Y-88530000D01*
X89550000Y-88530000D02*
X89650000Y-88430000D01*
X88450000Y-88500000D02*
X88380000Y-88430000D01*
X88450000Y-91950000D02*
X88450000Y-88500000D01*
X87250000Y-92550000D02*
X87110000Y-92410000D01*
X87110000Y-92410000D02*
X87110000Y-88430000D01*
X86300000Y-93200000D02*
X85850000Y-92750000D01*
X85850000Y-92750000D02*
X85850000Y-88440000D01*
X85850000Y-88440000D02*
X85840000Y-88430000D01*
D35*
X97850000Y-103810050D02*
X97475000Y-103435050D01*
X85500000Y-119875000D02*
X85500000Y-117184315D01*
X97475000Y-103435050D02*
X97475000Y-91590686D01*
X96864314Y-90980000D02*
X95330000Y-90980000D01*
X97475000Y-91590686D02*
X96864314Y-90980000D01*
X97850000Y-108400000D02*
X97850000Y-103810050D01*
X88184315Y-114500000D02*
X91750000Y-114500000D01*
X85500000Y-117184315D02*
X88184315Y-114500000D01*
X91750000Y-114500000D02*
X97850000Y-108400000D01*
X86150000Y-117100001D02*
X88350001Y-114900000D01*
X96160000Y-89710000D02*
X95330000Y-89710000D01*
X88350001Y-114900000D02*
X91915686Y-114900000D01*
X98250000Y-108565686D02*
X98250000Y-103644364D01*
X97875000Y-91425000D02*
X96160000Y-89710000D01*
X97875000Y-103269364D02*
X97875000Y-91425000D01*
X91915686Y-114900000D02*
X98250000Y-108565686D01*
X98250000Y-103644364D02*
X97875000Y-103269364D01*
X86150000Y-119875000D02*
X86150000Y-117100001D01*
D34*
X82950000Y-122450000D02*
X82850000Y-122550000D01*
X84600000Y-88460000D02*
X84570000Y-88430000D01*
X84600000Y-92597382D02*
X84600000Y-88460000D01*
X85305841Y-93303223D02*
X84600000Y-92597382D01*
X76500000Y-95500000D02*
X76500000Y-90000000D01*
X75595000Y-89095000D02*
X74250000Y-89095000D01*
X77610000Y-96080000D02*
X77080000Y-96080000D01*
X76500000Y-90000000D02*
X75595000Y-89095000D01*
X77080000Y-96080000D02*
X76500000Y-95500000D01*
X76050000Y-96047817D02*
X76050000Y-93435000D01*
X77610000Y-97350000D02*
X77352183Y-97350000D01*
X76050000Y-93435000D02*
X74250000Y-91635000D01*
X77352183Y-97350000D02*
X76050000Y-96047817D01*
X75600000Y-96867817D02*
X77352183Y-98620000D01*
X74250000Y-94175000D02*
X75600000Y-95525000D01*
X75600000Y-95525000D02*
X75600000Y-96867817D01*
X77352183Y-98620000D02*
X77610000Y-98620000D01*
X77352183Y-99890000D02*
X77610000Y-99890000D01*
X74250000Y-96715000D02*
X74810787Y-96715000D01*
X74810787Y-96715000D02*
X76250000Y-98154213D01*
X76250000Y-98787817D02*
X77352183Y-99890000D01*
X76250000Y-98154213D02*
X76250000Y-98787817D01*
X74250000Y-99255000D02*
X75005000Y-99255000D01*
X76910000Y-101160000D02*
X77610000Y-101160000D01*
X75005000Y-99255000D02*
X76910000Y-101160000D01*
X74250000Y-101795000D02*
X75795000Y-101795000D01*
X76430000Y-102430000D02*
X77610000Y-102430000D01*
X75795000Y-101795000D02*
X76430000Y-102430000D01*
X76500000Y-103750000D02*
X77560000Y-103750000D01*
X77560000Y-103750000D02*
X77610000Y-103700000D01*
X74250000Y-104335000D02*
X75915000Y-104335000D01*
X75915000Y-104335000D02*
X76500000Y-103750000D01*
X74250000Y-106875000D02*
X75875000Y-106875000D01*
X76250000Y-106500000D02*
X76250000Y-105250000D01*
X76250000Y-105250000D02*
X76530000Y-104970000D01*
X75875000Y-106875000D02*
X76250000Y-106500000D01*
X76530000Y-104970000D02*
X77610000Y-104970000D01*
X89450000Y-120200000D02*
X89350000Y-120100000D01*
G04 #@! TA.AperFunction,Conductor*
G36*
X106532140Y-75000169D02*
G01*
X106715609Y-75009759D01*
X106726667Y-75010836D01*
X107096010Y-75063584D01*
X107108426Y-75066009D01*
X107372352Y-75131694D01*
X107469733Y-75155930D01*
X107481829Y-75159604D01*
X107832106Y-75285877D01*
X107843770Y-75290768D01*
X108179342Y-75452064D01*
X108190449Y-75458119D01*
X108507847Y-75652772D01*
X108518278Y-75659926D01*
X108814188Y-75885903D01*
X108823834Y-75894082D01*
X109095181Y-76149036D01*
X109103947Y-76158157D01*
X109347904Y-76439431D01*
X109355694Y-76449398D01*
X109569719Y-76754059D01*
X109576454Y-76764769D01*
X109758321Y-77089650D01*
X109763929Y-77100989D01*
X109911755Y-77442725D01*
X109916179Y-77454578D01*
X109974605Y-77639388D01*
X110028411Y-77809581D01*
X110031604Y-77821822D01*
X110107079Y-78186411D01*
X110109009Y-78198914D01*
X110147025Y-78570091D01*
X110147660Y-78581173D01*
X110149990Y-78767337D01*
X110150000Y-78768831D01*
X110153449Y-86084082D01*
X110133796Y-86151130D01*
X110081014Y-86196910D01*
X110011860Y-86206886D01*
X109948290Y-86177891D01*
X109941768Y-86171821D01*
X109026884Y-85256938D01*
X108993399Y-85195615D01*
X108994791Y-85137162D01*
X109005633Y-85096699D01*
X109005632Y-85096699D01*
X109005635Y-85096692D01*
X109025468Y-84870000D01*
X109005635Y-84643308D01*
X108946739Y-84423504D01*
X108850568Y-84217266D01*
X108720047Y-84030861D01*
X108720045Y-84030858D01*
X108559141Y-83869954D01*
X108372734Y-83739432D01*
X108372732Y-83739431D01*
X108166497Y-83643261D01*
X108166488Y-83643258D01*
X107946697Y-83584366D01*
X107946693Y-83584365D01*
X107946692Y-83584365D01*
X107946691Y-83584364D01*
X107946686Y-83584364D01*
X107720002Y-83564532D01*
X107719998Y-83564532D01*
X107493313Y-83584364D01*
X107493302Y-83584366D01*
X107273511Y-83643258D01*
X107273502Y-83643261D01*
X107067267Y-83739431D01*
X107067265Y-83739432D01*
X106880858Y-83869954D01*
X106719954Y-84030858D01*
X106624892Y-84166623D01*
X106570315Y-84210248D01*
X106523317Y-84219500D01*
X106365808Y-84219500D01*
X106298769Y-84199815D01*
X106278127Y-84183181D01*
X101427641Y-79332695D01*
X101394156Y-79271372D01*
X101391794Y-79255822D01*
X101378774Y-79107007D01*
X101375371Y-79068109D01*
X103119457Y-79068109D01*
X103139612Y-79427011D01*
X103139614Y-79427023D01*
X103199826Y-79781405D01*
X103199828Y-79781414D01*
X103260160Y-79990831D01*
X103299341Y-80126833D01*
X103354881Y-80260917D01*
X103436905Y-80458940D01*
X103610790Y-80773563D01*
X103676847Y-80866661D01*
X103818806Y-81066732D01*
X104058339Y-81334770D01*
X104326377Y-81574303D01*
X104619548Y-81782320D01*
X104934167Y-81956203D01*
X105266276Y-82093768D01*
X105611700Y-82193282D01*
X105966093Y-82253496D01*
X106325000Y-82273652D01*
X106683907Y-82253496D01*
X107038300Y-82193282D01*
X107383724Y-82093768D01*
X107715833Y-81956203D01*
X108030452Y-81782320D01*
X108323623Y-81574303D01*
X108591661Y-81334770D01*
X108831194Y-81066732D01*
X109039211Y-80773561D01*
X109213094Y-80458942D01*
X109350659Y-80126833D01*
X109450173Y-79781409D01*
X109510387Y-79427016D01*
X109530543Y-79068109D01*
X109510387Y-78709202D01*
X109450173Y-78354809D01*
X109350659Y-78009385D01*
X109213094Y-77677276D01*
X109039211Y-77362657D01*
X108930303Y-77209167D01*
X108831194Y-77069486D01*
X108591661Y-76801448D01*
X108323623Y-76561915D01*
X108150999Y-76439431D01*
X108030454Y-76353899D01*
X107715831Y-76180014D01*
X107444810Y-76067753D01*
X107383724Y-76042450D01*
X107383720Y-76042448D01*
X107383718Y-76042448D01*
X107038305Y-75942937D01*
X107038296Y-75942935D01*
X106683914Y-75882723D01*
X106683902Y-75882721D01*
X106325000Y-75862566D01*
X105966097Y-75882721D01*
X105966085Y-75882723D01*
X105611703Y-75942935D01*
X105611694Y-75942937D01*
X105266281Y-76042448D01*
X104934168Y-76180014D01*
X104619545Y-76353899D01*
X104326377Y-76561914D01*
X104058339Y-76801448D01*
X103818805Y-77069486D01*
X103610790Y-77362654D01*
X103436905Y-77677277D01*
X103317752Y-77964937D01*
X103300660Y-78006202D01*
X103299339Y-78009390D01*
X103199828Y-78354803D01*
X103199826Y-78354812D01*
X103139614Y-78709194D01*
X103139612Y-78709206D01*
X103119457Y-79068109D01*
X101375371Y-79068109D01*
X101375063Y-79064592D01*
X101313903Y-78836337D01*
X101214035Y-78622171D01*
X101208731Y-78614595D01*
X101078494Y-78428597D01*
X100911402Y-78261506D01*
X100911395Y-78261501D01*
X100717834Y-78125967D01*
X100717830Y-78125965D01*
X100717828Y-78125964D01*
X100503663Y-78026097D01*
X100503659Y-78026096D01*
X100503655Y-78026094D01*
X100275413Y-77964938D01*
X100275403Y-77964936D01*
X100040001Y-77944341D01*
X100039999Y-77944341D01*
X99804596Y-77964936D01*
X99804586Y-77964938D01*
X99576344Y-78026094D01*
X99576335Y-78026098D01*
X99362171Y-78125964D01*
X99362169Y-78125965D01*
X99168597Y-78261505D01*
X99001508Y-78428594D01*
X98871269Y-78614595D01*
X98816692Y-78658219D01*
X98747193Y-78665412D01*
X98684839Y-78633890D01*
X98668119Y-78614594D01*
X98538113Y-78428926D01*
X98538108Y-78428920D01*
X98371082Y-78261894D01*
X98177578Y-78126399D01*
X97963492Y-78026570D01*
X97963486Y-78026567D01*
X97750000Y-77969364D01*
X97750000Y-78866988D01*
X97692993Y-78834075D01*
X97565826Y-78800000D01*
X97434174Y-78800000D01*
X97307007Y-78834075D01*
X97250000Y-78866988D01*
X97250000Y-77969364D01*
X97249999Y-77969364D01*
X97036513Y-78026567D01*
X97036507Y-78026570D01*
X96822422Y-78126399D01*
X96822420Y-78126400D01*
X96628926Y-78261886D01*
X96628920Y-78261891D01*
X96461891Y-78428920D01*
X96461890Y-78428922D01*
X96331880Y-78614595D01*
X96277303Y-78658219D01*
X96207804Y-78665412D01*
X96145450Y-78633890D01*
X96128730Y-78614594D01*
X95998494Y-78428597D01*
X95831402Y-78261506D01*
X95831395Y-78261501D01*
X95637834Y-78125967D01*
X95637830Y-78125965D01*
X95637828Y-78125964D01*
X95423663Y-78026097D01*
X95423659Y-78026096D01*
X95423655Y-78026094D01*
X95195413Y-77964938D01*
X95195403Y-77964936D01*
X94960001Y-77944341D01*
X94959999Y-77944341D01*
X94724596Y-77964936D01*
X94724586Y-77964938D01*
X94496344Y-78026094D01*
X94496335Y-78026098D01*
X94282171Y-78125964D01*
X94282169Y-78125965D01*
X94088597Y-78261505D01*
X93921505Y-78428597D01*
X93791575Y-78614158D01*
X93736998Y-78657783D01*
X93667500Y-78664977D01*
X93605145Y-78633454D01*
X93588425Y-78614158D01*
X93458494Y-78428597D01*
X93291402Y-78261506D01*
X93291395Y-78261501D01*
X93097834Y-78125967D01*
X93097830Y-78125965D01*
X93097828Y-78125964D01*
X92883663Y-78026097D01*
X92883659Y-78026096D01*
X92883655Y-78026094D01*
X92655413Y-77964938D01*
X92655403Y-77964936D01*
X92420001Y-77944341D01*
X92419999Y-77944341D01*
X92184596Y-77964936D01*
X92184586Y-77964938D01*
X91956344Y-78026094D01*
X91956335Y-78026098D01*
X91742171Y-78125964D01*
X91742169Y-78125965D01*
X91548597Y-78261505D01*
X91381505Y-78428597D01*
X91251575Y-78614158D01*
X91196998Y-78657783D01*
X91127500Y-78664977D01*
X91065145Y-78633454D01*
X91048425Y-78614158D01*
X90918494Y-78428597D01*
X90751402Y-78261506D01*
X90751395Y-78261501D01*
X90557834Y-78125967D01*
X90557830Y-78125965D01*
X90557828Y-78125964D01*
X90343663Y-78026097D01*
X90343659Y-78026096D01*
X90343655Y-78026094D01*
X90115413Y-77964938D01*
X90115403Y-77964936D01*
X89880001Y-77944341D01*
X89879999Y-77944341D01*
X89644596Y-77964936D01*
X89644586Y-77964938D01*
X89416344Y-78026094D01*
X89416335Y-78026098D01*
X89202171Y-78125964D01*
X89202169Y-78125965D01*
X89008597Y-78261505D01*
X88841505Y-78428597D01*
X88711575Y-78614158D01*
X88656998Y-78657783D01*
X88587500Y-78664977D01*
X88525145Y-78633454D01*
X88508425Y-78614158D01*
X88378494Y-78428597D01*
X88211402Y-78261506D01*
X88211395Y-78261501D01*
X88017834Y-78125967D01*
X88017830Y-78125965D01*
X88017828Y-78125964D01*
X87803663Y-78026097D01*
X87803659Y-78026096D01*
X87803655Y-78026094D01*
X87575413Y-77964938D01*
X87575403Y-77964936D01*
X87340001Y-77944341D01*
X87339999Y-77944341D01*
X87104596Y-77964936D01*
X87104586Y-77964938D01*
X86876344Y-78026094D01*
X86876335Y-78026098D01*
X86662171Y-78125964D01*
X86662169Y-78125965D01*
X86468597Y-78261505D01*
X86301505Y-78428597D01*
X86171575Y-78614158D01*
X86116998Y-78657783D01*
X86047500Y-78664977D01*
X85985145Y-78633454D01*
X85968425Y-78614158D01*
X85838494Y-78428597D01*
X85671402Y-78261506D01*
X85671395Y-78261501D01*
X85477834Y-78125967D01*
X85477830Y-78125965D01*
X85477828Y-78125964D01*
X85263663Y-78026097D01*
X85263659Y-78026096D01*
X85263655Y-78026094D01*
X85035413Y-77964938D01*
X85035403Y-77964936D01*
X84800001Y-77944341D01*
X84799999Y-77944341D01*
X84564596Y-77964936D01*
X84564586Y-77964938D01*
X84336344Y-78026094D01*
X84336335Y-78026098D01*
X84122171Y-78125964D01*
X84122169Y-78125965D01*
X83928597Y-78261505D01*
X83761505Y-78428597D01*
X83631575Y-78614158D01*
X83576998Y-78657783D01*
X83507500Y-78664977D01*
X83445145Y-78633454D01*
X83428425Y-78614158D01*
X83298494Y-78428597D01*
X83131402Y-78261506D01*
X83131395Y-78261501D01*
X82937834Y-78125967D01*
X82937830Y-78125965D01*
X82937828Y-78125964D01*
X82723663Y-78026097D01*
X82723659Y-78026096D01*
X82723655Y-78026094D01*
X82495413Y-77964938D01*
X82495403Y-77964936D01*
X82260001Y-77944341D01*
X82259999Y-77944341D01*
X82024596Y-77964936D01*
X82024586Y-77964938D01*
X81796344Y-78026094D01*
X81796335Y-78026098D01*
X81582171Y-78125964D01*
X81582169Y-78125965D01*
X81388597Y-78261505D01*
X81221505Y-78428597D01*
X81091575Y-78614158D01*
X81036998Y-78657783D01*
X80967500Y-78664977D01*
X80905145Y-78633454D01*
X80888425Y-78614158D01*
X80758494Y-78428597D01*
X80591402Y-78261506D01*
X80591395Y-78261501D01*
X80397834Y-78125967D01*
X80397830Y-78125965D01*
X80397828Y-78125964D01*
X80183663Y-78026097D01*
X80183659Y-78026096D01*
X80183655Y-78026094D01*
X79955413Y-77964938D01*
X79955403Y-77964936D01*
X79720001Y-77944341D01*
X79719999Y-77944341D01*
X79484596Y-77964936D01*
X79484586Y-77964938D01*
X79256344Y-78026094D01*
X79256335Y-78026098D01*
X79042171Y-78125964D01*
X79042169Y-78125965D01*
X78848597Y-78261505D01*
X78681505Y-78428597D01*
X78551575Y-78614158D01*
X78496998Y-78657783D01*
X78427500Y-78664977D01*
X78365145Y-78633454D01*
X78348425Y-78614158D01*
X78218494Y-78428597D01*
X78051402Y-78261506D01*
X78051395Y-78261501D01*
X77857834Y-78125967D01*
X77857830Y-78125965D01*
X77857828Y-78125964D01*
X77643663Y-78026097D01*
X77643659Y-78026096D01*
X77643655Y-78026094D01*
X77415413Y-77964938D01*
X77415403Y-77964936D01*
X77180001Y-77944341D01*
X77179999Y-77944341D01*
X76944596Y-77964936D01*
X76944586Y-77964938D01*
X76716344Y-78026094D01*
X76716335Y-78026098D01*
X76502171Y-78125964D01*
X76502169Y-78125965D01*
X76308600Y-78261503D01*
X76186673Y-78383430D01*
X76125350Y-78416914D01*
X76055658Y-78411930D01*
X75999725Y-78370058D01*
X75982810Y-78339081D01*
X75933797Y-78207671D01*
X75933793Y-78207664D01*
X75847547Y-78092455D01*
X75847544Y-78092452D01*
X75732335Y-78006206D01*
X75732328Y-78006202D01*
X75597482Y-77955908D01*
X75597483Y-77955908D01*
X75537883Y-77949501D01*
X75537881Y-77949500D01*
X75537873Y-77949500D01*
X75537864Y-77949500D01*
X73742129Y-77949500D01*
X73742123Y-77949501D01*
X73682516Y-77955908D01*
X73547671Y-78006202D01*
X73547664Y-78006206D01*
X73432455Y-78092452D01*
X73432452Y-78092455D01*
X73346206Y-78207664D01*
X73346202Y-78207671D01*
X73295908Y-78342517D01*
X73289501Y-78402116D01*
X73289500Y-78402135D01*
X73289500Y-80197870D01*
X73289501Y-80197876D01*
X73295908Y-80257483D01*
X73346202Y-80392328D01*
X73346206Y-80392335D01*
X73432452Y-80507544D01*
X73432455Y-80507547D01*
X73547664Y-80593793D01*
X73547671Y-80593797D01*
X73682517Y-80644091D01*
X73682516Y-80644091D01*
X73689444Y-80644835D01*
X73742127Y-80650500D01*
X75537872Y-80650499D01*
X75597483Y-80644091D01*
X75732331Y-80593796D01*
X75847546Y-80507546D01*
X75933796Y-80392331D01*
X75982810Y-80260916D01*
X76024681Y-80204984D01*
X76090145Y-80180566D01*
X76158418Y-80195417D01*
X76186673Y-80216569D01*
X76308599Y-80338495D01*
X76405384Y-80406265D01*
X76502165Y-80474032D01*
X76502167Y-80474033D01*
X76502170Y-80474035D01*
X76716337Y-80573903D01*
X76944592Y-80635063D01*
X77121034Y-80650500D01*
X77179999Y-80655659D01*
X77180000Y-80655659D01*
X77180001Y-80655659D01*
X77238966Y-80650500D01*
X77415408Y-80635063D01*
X77643663Y-80573903D01*
X77857830Y-80474035D01*
X78051401Y-80338495D01*
X78218495Y-80171401D01*
X78348425Y-79985842D01*
X78403002Y-79942217D01*
X78472500Y-79935023D01*
X78534855Y-79966546D01*
X78551575Y-79985842D01*
X78681281Y-80171082D01*
X78681505Y-80171401D01*
X78848599Y-80338495D01*
X78945384Y-80406265D01*
X79042165Y-80474032D01*
X79042167Y-80474033D01*
X79042170Y-80474035D01*
X79256337Y-80573903D01*
X79484592Y-80635063D01*
X79661034Y-80650500D01*
X79719999Y-80655659D01*
X79720000Y-80655659D01*
X79720001Y-80655659D01*
X79778966Y-80650500D01*
X79955408Y-80635063D01*
X80183663Y-80573903D01*
X80397830Y-80474035D01*
X80591401Y-80338495D01*
X80758495Y-80171401D01*
X80888425Y-79985842D01*
X80943002Y-79942217D01*
X81012500Y-79935023D01*
X81074855Y-79966546D01*
X81091575Y-79985842D01*
X81221281Y-80171082D01*
X81221505Y-80171401D01*
X81388599Y-80338495D01*
X81485384Y-80406265D01*
X81582165Y-80474032D01*
X81582167Y-80474033D01*
X81582170Y-80474035D01*
X81796337Y-80573903D01*
X82024592Y-80635063D01*
X82201034Y-80650500D01*
X82259999Y-80655659D01*
X82260000Y-80655659D01*
X82260001Y-80655659D01*
X82318966Y-80650500D01*
X82495408Y-80635063D01*
X82723663Y-80573903D01*
X82937830Y-80474035D01*
X83131401Y-80338495D01*
X83298495Y-80171401D01*
X83428425Y-79985842D01*
X83483002Y-79942217D01*
X83552500Y-79935023D01*
X83614855Y-79966546D01*
X83631575Y-79985842D01*
X83761281Y-80171082D01*
X83761505Y-80171401D01*
X83928599Y-80338495D01*
X84025384Y-80406265D01*
X84122165Y-80474032D01*
X84122167Y-80474033D01*
X84122170Y-80474035D01*
X84336337Y-80573903D01*
X84564592Y-80635063D01*
X84741034Y-80650500D01*
X84799999Y-80655659D01*
X84800000Y-80655659D01*
X84800001Y-80655659D01*
X84858966Y-80650500D01*
X85035408Y-80635063D01*
X85263663Y-80573903D01*
X85477830Y-80474035D01*
X85671401Y-80338495D01*
X85838495Y-80171401D01*
X85968425Y-79985842D01*
X86023002Y-79942217D01*
X86092500Y-79935023D01*
X86154855Y-79966546D01*
X86171575Y-79985842D01*
X86301281Y-80171082D01*
X86301505Y-80171401D01*
X86468599Y-80338495D01*
X86565384Y-80406265D01*
X86662165Y-80474032D01*
X86662167Y-80474033D01*
X86662170Y-80474035D01*
X86876337Y-80573903D01*
X87104592Y-80635063D01*
X87281034Y-80650500D01*
X87339999Y-80655659D01*
X87340000Y-80655659D01*
X87340001Y-80655659D01*
X87398966Y-80650500D01*
X87575408Y-80635063D01*
X87803663Y-80573903D01*
X88017830Y-80474035D01*
X88211401Y-80338495D01*
X88378495Y-80171401D01*
X88508425Y-79985842D01*
X88563002Y-79942217D01*
X88632500Y-79935023D01*
X88694855Y-79966546D01*
X88711575Y-79985842D01*
X88841281Y-80171082D01*
X88841505Y-80171401D01*
X89008599Y-80338495D01*
X89105384Y-80406265D01*
X89202165Y-80474032D01*
X89202167Y-80474033D01*
X89202170Y-80474035D01*
X89416337Y-80573903D01*
X89644592Y-80635063D01*
X89821034Y-80650500D01*
X89879999Y-80655659D01*
X89880000Y-80655659D01*
X89880001Y-80655659D01*
X89938966Y-80650500D01*
X90115408Y-80635063D01*
X90343663Y-80573903D01*
X90557830Y-80474035D01*
X90751401Y-80338495D01*
X90918495Y-80171401D01*
X91048425Y-79985842D01*
X91103002Y-79942217D01*
X91172500Y-79935023D01*
X91234855Y-79966546D01*
X91251575Y-79985842D01*
X91381281Y-80171082D01*
X91381505Y-80171401D01*
X91548599Y-80338495D01*
X91645384Y-80406265D01*
X91742165Y-80474032D01*
X91742167Y-80474033D01*
X91742170Y-80474035D01*
X91956337Y-80573903D01*
X92184592Y-80635063D01*
X92361034Y-80650500D01*
X92419999Y-80655659D01*
X92420000Y-80655659D01*
X92420001Y-80655659D01*
X92478966Y-80650500D01*
X92655408Y-80635063D01*
X92883663Y-80573903D01*
X93097830Y-80474035D01*
X93291401Y-80338495D01*
X93458495Y-80171401D01*
X93588425Y-79985842D01*
X93643002Y-79942217D01*
X93712500Y-79935023D01*
X93774855Y-79966546D01*
X93791575Y-79985842D01*
X93921281Y-80171082D01*
X93921505Y-80171401D01*
X94088599Y-80338495D01*
X94185384Y-80406265D01*
X94282165Y-80474032D01*
X94282167Y-80474033D01*
X94282170Y-80474035D01*
X94496337Y-80573903D01*
X94724592Y-80635063D01*
X94901034Y-80650500D01*
X94959999Y-80655659D01*
X94960000Y-80655659D01*
X94960001Y-80655659D01*
X95018966Y-80650500D01*
X95195408Y-80635063D01*
X95423663Y-80573903D01*
X95637830Y-80474035D01*
X95831401Y-80338495D01*
X95998495Y-80171401D01*
X96128730Y-79985405D01*
X96183307Y-79941781D01*
X96252805Y-79934587D01*
X96315160Y-79966110D01*
X96331879Y-79985405D01*
X96461890Y-80171078D01*
X96628917Y-80338105D01*
X96822421Y-80473600D01*
X97036507Y-80573429D01*
X97036516Y-80573433D01*
X97250000Y-80630634D01*
X97250000Y-79733012D01*
X97307007Y-79765925D01*
X97434174Y-79800000D01*
X97565826Y-79800000D01*
X97692993Y-79765925D01*
X97750000Y-79733012D01*
X97750000Y-80630633D01*
X97963483Y-80573433D01*
X97963492Y-80573429D01*
X98177578Y-80473600D01*
X98371082Y-80338105D01*
X98538105Y-80171082D01*
X98668119Y-79985405D01*
X98722696Y-79941781D01*
X98792195Y-79934588D01*
X98854549Y-79966110D01*
X98871269Y-79985405D01*
X99001505Y-80171401D01*
X99168599Y-80338495D01*
X99265384Y-80406265D01*
X99362165Y-80474032D01*
X99362167Y-80474033D01*
X99362170Y-80474035D01*
X99576337Y-80573903D01*
X99804592Y-80635063D01*
X99981034Y-80650500D01*
X100039999Y-80655659D01*
X100040000Y-80655659D01*
X100040001Y-80655659D01*
X100098966Y-80650500D01*
X100275408Y-80635063D01*
X100503663Y-80573903D01*
X100646820Y-80507147D01*
X100715894Y-80496656D01*
X100779678Y-80525175D01*
X100786903Y-80531849D01*
X105630325Y-85375272D01*
X105630332Y-85375278D01*
X105736863Y-85446459D01*
X105736867Y-85446461D01*
X105736874Y-85446466D01*
X105797223Y-85471463D01*
X105855256Y-85495501D01*
X105855260Y-85495501D01*
X105855261Y-85495502D01*
X105980928Y-85520500D01*
X105980931Y-85520500D01*
X106523317Y-85520500D01*
X106590356Y-85540185D01*
X106624892Y-85573377D01*
X106719954Y-85709141D01*
X106880858Y-85870045D01*
X106880861Y-85870047D01*
X107067266Y-86000568D01*
X107125275Y-86027618D01*
X107177714Y-86073791D01*
X107196866Y-86140984D01*
X107176650Y-86207865D01*
X107125275Y-86252382D01*
X107067267Y-86279431D01*
X107067265Y-86279432D01*
X106880858Y-86409954D01*
X106719954Y-86570858D01*
X106589432Y-86757265D01*
X106589431Y-86757267D01*
X106493261Y-86963502D01*
X106493258Y-86963511D01*
X106434366Y-87183302D01*
X106434364Y-87183313D01*
X106414532Y-87409998D01*
X106414532Y-87410001D01*
X106434364Y-87636686D01*
X106434366Y-87636697D01*
X106493258Y-87856488D01*
X106493261Y-87856497D01*
X106589431Y-88062732D01*
X106589432Y-88062734D01*
X106719954Y-88249141D01*
X106880858Y-88410045D01*
X106891032Y-88417169D01*
X107067266Y-88540568D01*
X107125275Y-88567618D01*
X107177714Y-88613791D01*
X107196866Y-88680984D01*
X107176650Y-88747865D01*
X107125275Y-88792382D01*
X107067267Y-88819431D01*
X107067265Y-88819432D01*
X106880858Y-88949954D01*
X106719954Y-89110858D01*
X106589432Y-89297265D01*
X106589431Y-89297267D01*
X106493261Y-89503502D01*
X106493258Y-89503511D01*
X106434366Y-89723302D01*
X106434364Y-89723313D01*
X106414532Y-89949998D01*
X106414532Y-89950001D01*
X106434364Y-90176686D01*
X106434366Y-90176697D01*
X106493258Y-90396488D01*
X106493261Y-90396497D01*
X106589431Y-90602732D01*
X106589432Y-90602734D01*
X106719954Y-90789141D01*
X106880858Y-90950045D01*
X106880861Y-90950047D01*
X107067266Y-91080568D01*
X107125865Y-91107893D01*
X107178305Y-91154065D01*
X107197457Y-91221258D01*
X107177242Y-91288139D01*
X107125867Y-91332657D01*
X107067515Y-91359867D01*
X106881179Y-91490342D01*
X106720342Y-91651179D01*
X106589865Y-91837517D01*
X106493734Y-92043673D01*
X106493730Y-92043682D01*
X106441127Y-92239999D01*
X106441128Y-92240000D01*
X107404314Y-92240000D01*
X107399920Y-92244394D01*
X107347259Y-92335606D01*
X107320000Y-92437339D01*
X107320000Y-92542661D01*
X107347259Y-92644394D01*
X107399920Y-92735606D01*
X107404314Y-92740000D01*
X106441128Y-92740000D01*
X106493730Y-92936317D01*
X106493734Y-92936326D01*
X106589865Y-93142482D01*
X106720342Y-93328820D01*
X106881179Y-93489657D01*
X107067517Y-93620134D01*
X107126457Y-93647618D01*
X107178896Y-93693790D01*
X107198048Y-93760984D01*
X107177832Y-93827865D01*
X107126457Y-93872382D01*
X107067517Y-93899865D01*
X106881179Y-94030342D01*
X106720342Y-94191179D01*
X106589865Y-94377517D01*
X106493734Y-94583673D01*
X106493730Y-94583682D01*
X106441127Y-94779999D01*
X106441128Y-94780000D01*
X107404314Y-94780000D01*
X107399920Y-94784394D01*
X107347259Y-94875606D01*
X107320000Y-94977339D01*
X107320000Y-95082661D01*
X107347259Y-95184394D01*
X107399920Y-95275606D01*
X107404314Y-95280000D01*
X106441128Y-95280000D01*
X106493730Y-95476317D01*
X106493734Y-95476326D01*
X106589865Y-95682482D01*
X106720342Y-95868820D01*
X106881179Y-96029657D01*
X107067518Y-96160134D01*
X107067520Y-96160135D01*
X107125865Y-96187342D01*
X107178305Y-96233514D01*
X107197457Y-96300707D01*
X107177242Y-96367589D01*
X107125867Y-96412105D01*
X107067268Y-96439431D01*
X107067264Y-96439433D01*
X106880858Y-96569954D01*
X106719954Y-96730858D01*
X106589432Y-96917265D01*
X106589431Y-96917267D01*
X106493261Y-97123502D01*
X106493258Y-97123511D01*
X106434366Y-97343302D01*
X106434364Y-97343313D01*
X106414532Y-97569998D01*
X106414532Y-97570003D01*
X106418390Y-97614104D01*
X106404623Y-97682603D01*
X106356007Y-97732786D01*
X106287979Y-97748719D01*
X106222135Y-97725343D01*
X106207181Y-97712591D01*
X104450198Y-95955608D01*
X104450178Y-95955586D01*
X104358735Y-95864143D01*
X104327985Y-95843597D01*
X104294593Y-95821285D01*
X104294594Y-95821285D01*
X104294592Y-95821283D01*
X104256290Y-95795690D01*
X104256286Y-95795688D01*
X104223761Y-95782216D01*
X104171333Y-95760500D01*
X104171331Y-95760498D01*
X104142455Y-95748538D01*
X104142453Y-95748537D01*
X104142452Y-95748537D01*
X104082029Y-95736518D01*
X104021610Y-95724500D01*
X104021607Y-95724500D01*
X104021606Y-95724500D01*
X101405182Y-95724500D01*
X101338143Y-95704815D01*
X101292388Y-95652011D01*
X101282444Y-95582853D01*
X101292800Y-95548095D01*
X101326265Y-95476326D01*
X101326269Y-95476317D01*
X101378872Y-95280000D01*
X100415686Y-95280000D01*
X100420080Y-95275606D01*
X100472741Y-95184394D01*
X100500000Y-95082661D01*
X100500000Y-94977339D01*
X100472741Y-94875606D01*
X100420080Y-94784394D01*
X100415686Y-94780000D01*
X101378872Y-94780000D01*
X101378872Y-94779999D01*
X101326269Y-94583682D01*
X101326265Y-94583673D01*
X101230134Y-94377517D01*
X101099657Y-94191179D01*
X100938820Y-94030342D01*
X100752481Y-93899865D01*
X100752479Y-93899864D01*
X100693543Y-93872382D01*
X100641103Y-93826210D01*
X100621951Y-93759017D01*
X100642166Y-93692136D01*
X100693543Y-93647618D01*
X100752479Y-93620135D01*
X100752481Y-93620134D01*
X100938820Y-93489657D01*
X101099657Y-93328820D01*
X101230134Y-93142482D01*
X101326265Y-92936326D01*
X101326269Y-92936317D01*
X101378872Y-92740000D01*
X100415686Y-92740000D01*
X100420080Y-92735606D01*
X100472741Y-92644394D01*
X100500000Y-92542661D01*
X100500000Y-92437339D01*
X100472741Y-92335606D01*
X100420080Y-92244394D01*
X100415686Y-92240000D01*
X101378872Y-92240000D01*
X101378872Y-92239999D01*
X101326269Y-92043682D01*
X101326265Y-92043673D01*
X101230134Y-91837517D01*
X101099657Y-91651179D01*
X100938820Y-91490342D01*
X100752482Y-91359865D01*
X100694133Y-91332657D01*
X100641694Y-91286484D01*
X100622542Y-91219291D01*
X100642758Y-91152410D01*
X100694129Y-91107895D01*
X100752734Y-91080568D01*
X100939139Y-90950047D01*
X101100047Y-90789139D01*
X101230568Y-90602734D01*
X101326739Y-90396496D01*
X101385635Y-90176692D01*
X101405468Y-89950000D01*
X101402649Y-89917784D01*
X101399801Y-89885230D01*
X101385635Y-89723308D01*
X101326739Y-89503504D01*
X101230568Y-89297266D01*
X101100047Y-89110861D01*
X101100045Y-89110858D01*
X100939141Y-88949954D01*
X100752734Y-88819432D01*
X100752728Y-88819429D01*
X100694725Y-88792382D01*
X100642285Y-88746210D01*
X100623133Y-88679017D01*
X100643348Y-88612135D01*
X100694725Y-88567618D01*
X100752734Y-88540568D01*
X100939139Y-88410047D01*
X101100047Y-88249139D01*
X101230568Y-88062734D01*
X101326739Y-87856496D01*
X101385635Y-87636692D01*
X101405468Y-87410000D01*
X101385635Y-87183308D01*
X101326739Y-86963504D01*
X101230568Y-86757266D01*
X101120863Y-86600590D01*
X101100045Y-86570858D01*
X100939143Y-86409956D01*
X100914536Y-86392726D01*
X100870912Y-86338149D01*
X100863719Y-86268650D01*
X100895241Y-86206296D01*
X100955471Y-86170882D01*
X100972404Y-86167861D01*
X101007483Y-86164091D01*
X101142331Y-86113796D01*
X101257546Y-86027546D01*
X101343796Y-85912331D01*
X101394091Y-85777483D01*
X101400500Y-85717873D01*
X101400499Y-84022128D01*
X101394091Y-83962517D01*
X101359567Y-83869954D01*
X101343797Y-83827671D01*
X101343793Y-83827664D01*
X101257547Y-83712455D01*
X101257544Y-83712452D01*
X101142335Y-83626206D01*
X101142328Y-83626202D01*
X101007482Y-83575908D01*
X101007483Y-83575908D01*
X100947883Y-83569501D01*
X100947881Y-83569500D01*
X100947873Y-83569500D01*
X100947864Y-83569500D01*
X99252129Y-83569500D01*
X99252123Y-83569501D01*
X99192516Y-83575908D01*
X99057671Y-83626202D01*
X99057664Y-83626206D01*
X98942455Y-83712452D01*
X98942452Y-83712455D01*
X98856206Y-83827664D01*
X98856202Y-83827671D01*
X98805908Y-83962517D01*
X98799501Y-84022116D01*
X98799501Y-84022123D01*
X98799500Y-84022135D01*
X98799500Y-84120500D01*
X98779815Y-84187539D01*
X98727011Y-84233294D01*
X98675500Y-84244500D01*
X98574337Y-84244500D01*
X98513919Y-84256518D01*
X98453496Y-84268537D01*
X98453491Y-84268538D01*
X98419494Y-84282620D01*
X98406345Y-84288067D01*
X98384117Y-84297274D01*
X98339661Y-84315688D01*
X98329505Y-84322475D01*
X98329397Y-84322547D01*
X98237216Y-84384140D01*
X98197855Y-84423502D01*
X98150090Y-84471267D01*
X94622180Y-87999177D01*
X94560857Y-88032662D01*
X94491165Y-88027678D01*
X94435232Y-87985806D01*
X94410815Y-87920342D01*
X94410499Y-87911496D01*
X94410499Y-87856662D01*
X94410498Y-87856644D01*
X94400349Y-87757292D01*
X94400348Y-87757289D01*
X94360384Y-87636686D01*
X94347003Y-87596303D01*
X94346999Y-87596297D01*
X94346998Y-87596294D01*
X94257970Y-87451959D01*
X94257967Y-87451955D01*
X94138044Y-87332032D01*
X94138040Y-87332029D01*
X93993705Y-87243001D01*
X93993699Y-87242998D01*
X93993697Y-87242997D01*
X93993694Y-87242996D01*
X93832709Y-87189651D01*
X93733346Y-87179500D01*
X93186662Y-87179500D01*
X93186644Y-87179501D01*
X93087292Y-87189650D01*
X93087286Y-87189652D01*
X92978503Y-87225699D01*
X92908675Y-87228101D01*
X92848633Y-87192369D01*
X92817441Y-87129848D01*
X92815500Y-87107993D01*
X92815500Y-86620571D01*
X92835185Y-86553532D01*
X92847350Y-86537599D01*
X92865891Y-86517006D01*
X92922533Y-86454100D01*
X93017179Y-86290168D01*
X93075674Y-86110140D01*
X93095460Y-85921884D01*
X93075674Y-85733628D01*
X93017179Y-85553600D01*
X92922533Y-85389668D01*
X92795871Y-85248996D01*
X92795870Y-85248995D01*
X92642734Y-85137735D01*
X92642729Y-85137732D01*
X92469807Y-85060741D01*
X92469802Y-85060739D01*
X92324001Y-85029749D01*
X92284646Y-85021384D01*
X92095354Y-85021384D01*
X92062897Y-85028282D01*
X91910197Y-85060739D01*
X91910192Y-85060741D01*
X91737270Y-85137732D01*
X91737265Y-85137735D01*
X91584129Y-85248995D01*
X91457466Y-85389669D01*
X91362821Y-85553599D01*
X91362818Y-85553606D01*
X91312283Y-85709139D01*
X91304326Y-85733628D01*
X91284540Y-85921884D01*
X91304326Y-86110140D01*
X91304327Y-86110143D01*
X91362818Y-86290161D01*
X91362821Y-86290168D01*
X91457467Y-86454100D01*
X91500772Y-86502194D01*
X91532650Y-86537599D01*
X91562880Y-86600590D01*
X91564500Y-86620571D01*
X91564500Y-87107993D01*
X91544815Y-87175032D01*
X91492011Y-87220787D01*
X91422853Y-87230731D01*
X91401497Y-87225699D01*
X91292711Y-87189651D01*
X91193346Y-87179500D01*
X90646662Y-87179500D01*
X90646644Y-87179501D01*
X90547292Y-87189650D01*
X90547289Y-87189651D01*
X90386305Y-87242996D01*
X90386296Y-87243001D01*
X90350096Y-87265329D01*
X90282703Y-87283769D01*
X90219904Y-87265329D01*
X90183703Y-87243001D01*
X90183697Y-87242997D01*
X90183694Y-87242996D01*
X90022709Y-87189651D01*
X89923346Y-87179500D01*
X89376662Y-87179500D01*
X89376644Y-87179501D01*
X89277292Y-87189650D01*
X89277289Y-87189651D01*
X89116305Y-87242996D01*
X89116296Y-87243001D01*
X89080096Y-87265329D01*
X89012703Y-87283769D01*
X88949904Y-87265329D01*
X88913703Y-87243001D01*
X88913697Y-87242997D01*
X88913694Y-87242996D01*
X88752709Y-87189651D01*
X88653346Y-87179500D01*
X88106662Y-87179500D01*
X88106644Y-87179501D01*
X88007292Y-87189650D01*
X88007289Y-87189651D01*
X87846305Y-87242996D01*
X87846296Y-87243001D01*
X87810096Y-87265329D01*
X87742703Y-87283769D01*
X87679904Y-87265329D01*
X87643703Y-87243001D01*
X87643697Y-87242997D01*
X87643694Y-87242996D01*
X87482709Y-87189651D01*
X87383346Y-87179500D01*
X86836662Y-87179500D01*
X86836644Y-87179501D01*
X86737292Y-87189650D01*
X86737289Y-87189651D01*
X86576305Y-87242996D01*
X86576296Y-87243001D01*
X86540096Y-87265329D01*
X86472703Y-87283769D01*
X86409904Y-87265329D01*
X86373703Y-87243001D01*
X86373697Y-87242997D01*
X86373694Y-87242996D01*
X86212709Y-87189651D01*
X86113346Y-87179500D01*
X85566662Y-87179500D01*
X85566644Y-87179501D01*
X85467292Y-87189650D01*
X85467289Y-87189651D01*
X85306305Y-87242996D01*
X85306296Y-87243001D01*
X85270096Y-87265329D01*
X85202703Y-87283769D01*
X85139904Y-87265329D01*
X85103703Y-87243001D01*
X85103697Y-87242997D01*
X85103694Y-87242996D01*
X84942709Y-87189651D01*
X84843346Y-87179500D01*
X84296662Y-87179500D01*
X84296644Y-87179501D01*
X84197292Y-87189650D01*
X84197289Y-87189651D01*
X84036305Y-87242996D01*
X84036296Y-87243001D01*
X84000096Y-87265329D01*
X83932703Y-87283769D01*
X83869904Y-87265329D01*
X83833703Y-87243001D01*
X83833697Y-87242997D01*
X83833694Y-87242996D01*
X83672709Y-87189651D01*
X83573346Y-87179500D01*
X83026662Y-87179500D01*
X83026644Y-87179501D01*
X82927292Y-87189650D01*
X82927289Y-87189651D01*
X82766305Y-87242996D01*
X82766296Y-87243001D01*
X82730096Y-87265329D01*
X82662703Y-87283769D01*
X82599904Y-87265329D01*
X82563703Y-87243001D01*
X82563697Y-87242997D01*
X82563694Y-87242996D01*
X82402709Y-87189651D01*
X82303346Y-87179500D01*
X81756662Y-87179500D01*
X81756644Y-87179501D01*
X81657292Y-87189650D01*
X81657289Y-87189651D01*
X81496305Y-87242996D01*
X81496296Y-87243001D01*
X81460096Y-87265329D01*
X81392703Y-87283769D01*
X81329904Y-87265329D01*
X81293703Y-87243001D01*
X81293697Y-87242997D01*
X81293694Y-87242996D01*
X81132709Y-87189651D01*
X81033346Y-87179500D01*
X80486662Y-87179500D01*
X80486644Y-87179501D01*
X80387292Y-87189650D01*
X80387289Y-87189651D01*
X80226305Y-87242996D01*
X80226296Y-87243001D01*
X80190096Y-87265329D01*
X80122703Y-87283769D01*
X80059904Y-87265329D01*
X80023703Y-87243001D01*
X80023697Y-87242997D01*
X80023694Y-87242996D01*
X79862709Y-87189651D01*
X79763346Y-87179500D01*
X79216662Y-87179500D01*
X79216644Y-87179501D01*
X79117292Y-87189650D01*
X79117289Y-87189651D01*
X78956305Y-87242996D01*
X78956294Y-87243001D01*
X78811959Y-87332029D01*
X78811955Y-87332032D01*
X78692032Y-87451955D01*
X78692029Y-87451959D01*
X78603001Y-87596294D01*
X78602996Y-87596305D01*
X78549651Y-87757290D01*
X78539500Y-87856647D01*
X78539500Y-88703023D01*
X78519815Y-88770062D01*
X78467011Y-88815817D01*
X78397853Y-88825761D01*
X78376496Y-88820729D01*
X78282709Y-88789651D01*
X78183346Y-88779500D01*
X77036662Y-88779500D01*
X77036644Y-88779501D01*
X76937292Y-88789650D01*
X76937289Y-88789651D01*
X76776305Y-88842996D01*
X76776294Y-88843001D01*
X76631959Y-88932029D01*
X76631954Y-88932032D01*
X76561968Y-89002018D01*
X76500644Y-89035503D01*
X76430953Y-89030517D01*
X76386607Y-89002017D01*
X76085198Y-88700608D01*
X76085178Y-88700586D01*
X75993733Y-88609141D01*
X75942509Y-88574915D01*
X75891286Y-88540688D01*
X75891283Y-88540686D01*
X75891280Y-88540685D01*
X75810792Y-88507347D01*
X75777453Y-88493537D01*
X75767427Y-88491543D01*
X75717029Y-88481518D01*
X75656610Y-88469500D01*
X75656607Y-88469500D01*
X75656606Y-88469500D01*
X75525227Y-88469500D01*
X75458188Y-88449815D01*
X75423652Y-88416623D01*
X75288494Y-88223597D01*
X75121402Y-88056506D01*
X75121395Y-88056501D01*
X74927834Y-87920967D01*
X74927830Y-87920965D01*
X74907524Y-87911496D01*
X74713663Y-87821097D01*
X74713659Y-87821096D01*
X74713655Y-87821094D01*
X74485413Y-87759938D01*
X74485403Y-87759936D01*
X74250001Y-87739341D01*
X74249999Y-87739341D01*
X74014596Y-87759936D01*
X74014586Y-87759938D01*
X73786344Y-87821094D01*
X73786335Y-87821098D01*
X73572171Y-87920964D01*
X73572169Y-87920965D01*
X73378597Y-88056505D01*
X73211505Y-88223597D01*
X73075965Y-88417169D01*
X73075964Y-88417171D01*
X72976098Y-88631335D01*
X72976094Y-88631344D01*
X72914938Y-88859586D01*
X72914936Y-88859596D01*
X72894341Y-89094999D01*
X72894341Y-89095000D01*
X72914936Y-89330403D01*
X72914938Y-89330413D01*
X72976094Y-89558655D01*
X72976096Y-89558659D01*
X72976097Y-89558663D01*
X73052875Y-89723313D01*
X73075965Y-89772830D01*
X73075967Y-89772834D01*
X73154998Y-89885701D01*
X73200019Y-89949998D01*
X73211501Y-89966395D01*
X73211506Y-89966402D01*
X73378597Y-90133493D01*
X73378603Y-90133498D01*
X73564158Y-90263425D01*
X73607783Y-90318002D01*
X73614977Y-90387500D01*
X73583454Y-90449855D01*
X73564158Y-90466575D01*
X73378597Y-90596505D01*
X73211505Y-90763597D01*
X73075965Y-90957169D01*
X73075964Y-90957171D01*
X72976098Y-91171335D01*
X72976094Y-91171344D01*
X72914938Y-91399586D01*
X72914936Y-91399596D01*
X72894341Y-91634999D01*
X72894341Y-91635000D01*
X72914936Y-91870403D01*
X72914938Y-91870413D01*
X72976094Y-92098655D01*
X72976096Y-92098659D01*
X72976097Y-92098663D01*
X73042003Y-92239999D01*
X73075965Y-92312830D01*
X73075967Y-92312834D01*
X73160913Y-92434148D01*
X73194570Y-92482216D01*
X73211501Y-92506395D01*
X73211506Y-92506402D01*
X73378597Y-92673493D01*
X73378603Y-92673498D01*
X73564158Y-92803425D01*
X73607783Y-92858002D01*
X73614977Y-92927500D01*
X73583454Y-92989855D01*
X73564158Y-93006575D01*
X73378597Y-93136505D01*
X73211505Y-93303597D01*
X73075965Y-93497169D01*
X73075964Y-93497171D01*
X72976098Y-93711335D01*
X72976094Y-93711344D01*
X72914938Y-93939586D01*
X72914936Y-93939596D01*
X72894341Y-94174999D01*
X72894341Y-94175000D01*
X72914936Y-94410403D01*
X72914938Y-94410413D01*
X72976094Y-94638655D01*
X72976096Y-94638659D01*
X72976097Y-94638663D01*
X73042003Y-94779999D01*
X73075965Y-94852830D01*
X73075967Y-94852834D01*
X73211501Y-95046395D01*
X73211506Y-95046402D01*
X73378597Y-95213493D01*
X73378603Y-95213498D01*
X73564158Y-95343425D01*
X73607783Y-95398002D01*
X73614977Y-95467500D01*
X73583454Y-95529855D01*
X73564158Y-95546575D01*
X73378597Y-95676505D01*
X73211505Y-95843597D01*
X73075965Y-96037169D01*
X73075964Y-96037171D01*
X72976098Y-96251335D01*
X72976094Y-96251344D01*
X72914938Y-96479586D01*
X72914936Y-96479596D01*
X72894341Y-96714999D01*
X72894341Y-96715000D01*
X72914936Y-96950403D01*
X72914938Y-96950413D01*
X72976094Y-97178655D01*
X72976096Y-97178659D01*
X72976097Y-97178663D01*
X73052875Y-97343313D01*
X73075965Y-97392830D01*
X73075967Y-97392834D01*
X73133136Y-97474479D01*
X73200019Y-97569998D01*
X73211501Y-97586395D01*
X73211506Y-97586402D01*
X73378597Y-97753493D01*
X73378603Y-97753498D01*
X73564158Y-97883425D01*
X73607783Y-97938002D01*
X73614977Y-98007500D01*
X73583454Y-98069855D01*
X73564158Y-98086575D01*
X73378597Y-98216505D01*
X73211505Y-98383597D01*
X73075965Y-98577169D01*
X73075964Y-98577171D01*
X72976098Y-98791335D01*
X72976094Y-98791344D01*
X72914938Y-99019586D01*
X72914936Y-99019596D01*
X72894341Y-99254999D01*
X72894341Y-99255000D01*
X72914936Y-99490403D01*
X72914938Y-99490413D01*
X72976094Y-99718655D01*
X72976096Y-99718659D01*
X72976097Y-99718663D01*
X73065841Y-99911119D01*
X73075965Y-99932830D01*
X73075967Y-99932834D01*
X73184281Y-100087521D01*
X73200019Y-100109998D01*
X73211501Y-100126395D01*
X73211506Y-100126402D01*
X73378597Y-100293493D01*
X73378603Y-100293498D01*
X73564158Y-100423425D01*
X73607783Y-100478002D01*
X73614977Y-100547500D01*
X73583454Y-100609855D01*
X73564158Y-100626575D01*
X73378597Y-100756505D01*
X73211505Y-100923597D01*
X73075965Y-101117169D01*
X73075964Y-101117171D01*
X72976098Y-101331335D01*
X72976094Y-101331344D01*
X72914938Y-101559586D01*
X72914936Y-101559596D01*
X72894341Y-101794999D01*
X72894341Y-101795000D01*
X72914936Y-102030403D01*
X72914938Y-102030413D01*
X72976094Y-102258655D01*
X72976096Y-102258659D01*
X72976097Y-102258663D01*
X73052875Y-102423313D01*
X73075965Y-102472830D01*
X73075967Y-102472834D01*
X73184281Y-102627521D01*
X73211501Y-102666396D01*
X73211506Y-102666402D01*
X73378597Y-102833493D01*
X73378603Y-102833498D01*
X73564158Y-102963425D01*
X73607783Y-103018002D01*
X73614977Y-103087500D01*
X73583454Y-103149855D01*
X73564158Y-103166575D01*
X73378597Y-103296505D01*
X73211505Y-103463597D01*
X73075965Y-103657169D01*
X73075964Y-103657171D01*
X72976098Y-103871335D01*
X72976094Y-103871344D01*
X72914938Y-104099586D01*
X72914936Y-104099596D01*
X72894341Y-104334999D01*
X72894341Y-104335000D01*
X72914936Y-104570403D01*
X72914938Y-104570413D01*
X72976094Y-104798655D01*
X72976096Y-104798659D01*
X72976097Y-104798663D01*
X73069734Y-104999468D01*
X73075965Y-105012830D01*
X73075967Y-105012834D01*
X73120741Y-105076777D01*
X73211501Y-105206396D01*
X73211506Y-105206402D01*
X73333430Y-105328326D01*
X73366915Y-105389649D01*
X73361931Y-105459341D01*
X73320059Y-105515274D01*
X73289083Y-105532189D01*
X73157669Y-105581203D01*
X73157664Y-105581206D01*
X73042455Y-105667452D01*
X73042452Y-105667455D01*
X72956206Y-105782664D01*
X72956202Y-105782671D01*
X72905908Y-105917517D01*
X72899501Y-105977116D01*
X72899500Y-105977135D01*
X72899500Y-107772870D01*
X72899501Y-107772879D01*
X72903269Y-107807930D01*
X72890862Y-107876689D01*
X72843250Y-107927825D01*
X72775550Y-107945103D01*
X72754198Y-107942472D01*
X72669646Y-107924500D01*
X72480354Y-107924500D01*
X72464711Y-107927825D01*
X72295197Y-107963855D01*
X72295192Y-107963857D01*
X72224936Y-107995138D01*
X72155686Y-108004423D01*
X72092409Y-107974795D01*
X72055196Y-107915660D01*
X72050500Y-107881859D01*
X72050500Y-102539060D01*
X72050501Y-102539047D01*
X72050501Y-102370945D01*
X72050501Y-102370943D01*
X72009577Y-102218215D01*
X71930520Y-102081284D01*
X70856515Y-101007280D01*
X70823031Y-100945958D01*
X70823992Y-100889159D01*
X70824061Y-100888884D01*
X70824063Y-100888881D01*
X70885108Y-100647821D01*
X70885808Y-100639377D01*
X70905643Y-100400005D01*
X70905643Y-100399994D01*
X70885109Y-100152187D01*
X70885107Y-100152175D01*
X70824063Y-99911118D01*
X70724173Y-99683393D01*
X70588166Y-99475217D01*
X70565412Y-99450500D01*
X70419744Y-99292262D01*
X70223509Y-99139526D01*
X70223508Y-99139525D01*
X70223505Y-99139523D01*
X70223503Y-99139522D01*
X70209749Y-99132079D01*
X70160159Y-99082859D01*
X70145052Y-99014642D01*
X70169223Y-98949087D01*
X70213082Y-98913323D01*
X70212975Y-98913149D01*
X70214293Y-98912335D01*
X70216378Y-98910636D01*
X70219125Y-98909355D01*
X70368345Y-98817315D01*
X70492315Y-98693345D01*
X70584356Y-98544124D01*
X70584358Y-98544119D01*
X70639505Y-98377697D01*
X70639506Y-98377690D01*
X70649999Y-98274986D01*
X70650000Y-98274973D01*
X70650000Y-96425000D01*
X69724000Y-96425000D01*
X69656961Y-96405315D01*
X69611206Y-96352511D01*
X69600000Y-96301000D01*
X69600000Y-96175000D01*
X69474000Y-96175000D01*
X69406961Y-96155315D01*
X69361206Y-96102511D01*
X69350000Y-96051000D01*
X69350000Y-95925000D01*
X69850000Y-95925000D01*
X70649999Y-95925000D01*
X70649999Y-94075028D01*
X70649998Y-94075013D01*
X70639505Y-93972302D01*
X70584358Y-93805880D01*
X70584356Y-93805875D01*
X70492315Y-93656654D01*
X70368345Y-93532684D01*
X70219124Y-93440643D01*
X70219119Y-93440641D01*
X70052697Y-93385494D01*
X70052690Y-93385493D01*
X69949986Y-93375000D01*
X69850000Y-93375000D01*
X69850000Y-95925000D01*
X69350000Y-95925000D01*
X69350000Y-93374999D01*
X69250028Y-93375000D01*
X69250012Y-93375001D01*
X69147302Y-93385494D01*
X68980880Y-93440641D01*
X68980875Y-93440643D01*
X68831649Y-93532687D01*
X68827305Y-93536122D01*
X68762507Y-93562255D01*
X68693866Y-93549207D01*
X68673497Y-93536116D01*
X68668660Y-93532292D01*
X68668656Y-93532288D01*
X68519334Y-93440186D01*
X68352797Y-93385001D01*
X68352795Y-93385000D01*
X68250010Y-93374500D01*
X67549998Y-93374500D01*
X67549980Y-93374501D01*
X67447203Y-93385000D01*
X67447200Y-93385001D01*
X67280668Y-93440185D01*
X67280663Y-93440187D01*
X67200460Y-93489657D01*
X67131344Y-93532288D01*
X67131343Y-93532288D01*
X67131330Y-93532297D01*
X67126487Y-93536126D01*
X67061687Y-93562256D01*
X66993047Y-93549204D01*
X66972683Y-93536114D01*
X66968346Y-93532684D01*
X66819124Y-93440643D01*
X66819119Y-93440641D01*
X66652697Y-93385494D01*
X66652690Y-93385493D01*
X66549986Y-93375000D01*
X66450000Y-93375000D01*
X66450000Y-96051000D01*
X66430315Y-96118039D01*
X66377511Y-96163794D01*
X66326000Y-96175000D01*
X66074000Y-96175000D01*
X66006961Y-96155315D01*
X65961206Y-96102511D01*
X65950000Y-96051000D01*
X65950000Y-93374999D01*
X65850028Y-93375000D01*
X65850012Y-93375001D01*
X65747302Y-93385494D01*
X65580880Y-93440641D01*
X65580875Y-93440643D01*
X65431649Y-93532687D01*
X65427305Y-93536122D01*
X65362507Y-93562255D01*
X65293866Y-93549207D01*
X65273497Y-93536116D01*
X65268660Y-93532292D01*
X65268656Y-93532288D01*
X65119334Y-93440186D01*
X64952797Y-93385001D01*
X64952795Y-93385000D01*
X64850010Y-93374500D01*
X64149998Y-93374500D01*
X64149980Y-93374501D01*
X64047203Y-93385000D01*
X64047200Y-93385001D01*
X63880668Y-93440185D01*
X63880663Y-93440187D01*
X63731342Y-93532289D01*
X63726909Y-93535795D01*
X63662113Y-93561934D01*
X63593471Y-93548892D01*
X63573091Y-93535795D01*
X63568657Y-93532289D01*
X63568656Y-93532288D01*
X63419334Y-93440186D01*
X63252797Y-93385001D01*
X63252795Y-93385000D01*
X63150010Y-93374500D01*
X62449998Y-93374500D01*
X62449980Y-93374501D01*
X62347203Y-93385000D01*
X62347200Y-93385001D01*
X62180668Y-93440185D01*
X62180663Y-93440187D01*
X62031342Y-93532289D01*
X61907289Y-93656342D01*
X61815187Y-93805663D01*
X61815185Y-93805668D01*
X61815115Y-93805880D01*
X61760001Y-93972203D01*
X61760001Y-93972204D01*
X61760000Y-93972204D01*
X61749500Y-94074983D01*
X61749500Y-95374030D01*
X61729815Y-95441069D01*
X61677011Y-95486824D01*
X61649692Y-95495647D01*
X61620677Y-95501418D01*
X61620667Y-95501421D01*
X61493192Y-95554222D01*
X61378454Y-95630887D01*
X60255887Y-96753454D01*
X60179222Y-96868192D01*
X60126421Y-96995667D01*
X60126418Y-96995679D01*
X60105248Y-97102110D01*
X60105248Y-97102113D01*
X60100993Y-97123504D01*
X60099500Y-97131007D01*
X60099500Y-107393506D01*
X60099500Y-107531494D01*
X60099500Y-107531496D01*
X60099499Y-107531496D01*
X60126418Y-107666822D01*
X60126421Y-107666832D01*
X60179222Y-107794307D01*
X60255887Y-107909045D01*
X60255888Y-107909046D01*
X60488181Y-108141338D01*
X60521666Y-108202661D01*
X60524500Y-108229019D01*
X60524500Y-108470980D01*
X60504815Y-108538019D01*
X60488181Y-108558661D01*
X60205888Y-108840953D01*
X60205887Y-108840954D01*
X60129223Y-108955692D01*
X60076421Y-109083168D01*
X60076418Y-109083178D01*
X60063027Y-109150501D01*
X60049500Y-109218504D01*
X60049500Y-109218507D01*
X60049500Y-117281006D01*
X60049500Y-117418994D01*
X60049500Y-117418996D01*
X60049499Y-117418996D01*
X60076418Y-117554322D01*
X60076421Y-117554332D01*
X60129222Y-117681807D01*
X60205887Y-117796545D01*
X61436034Y-119026692D01*
X61469519Y-119088015D01*
X61464535Y-119157707D01*
X61422663Y-119213640D01*
X61408335Y-119222900D01*
X61294549Y-119285787D01*
X61294547Y-119285789D01*
X61001377Y-119493805D01*
X60733339Y-119733339D01*
X60493805Y-120001377D01*
X60285790Y-120294545D01*
X60111905Y-120609168D01*
X59974339Y-120941281D01*
X59874828Y-121286694D01*
X59874826Y-121286703D01*
X59814614Y-121641085D01*
X59814612Y-121641097D01*
X59794457Y-122000000D01*
X59814612Y-122358902D01*
X59814614Y-122358914D01*
X59874826Y-122713296D01*
X59874828Y-122713305D01*
X59974339Y-123058718D01*
X60111905Y-123390831D01*
X60285790Y-123705454D01*
X60493805Y-123998622D01*
X60493806Y-123998623D01*
X60733339Y-124266661D01*
X61001377Y-124506194D01*
X61227903Y-124666924D01*
X61294548Y-124714211D01*
X61609167Y-124888094D01*
X61941276Y-125025659D01*
X62286700Y-125125173D01*
X62641093Y-125185387D01*
X63000000Y-125205543D01*
X63358907Y-125185387D01*
X63713300Y-125125173D01*
X64058724Y-125025659D01*
X64390833Y-124888094D01*
X64705452Y-124714211D01*
X64998623Y-124506194D01*
X65266661Y-124266661D01*
X65506194Y-123998623D01*
X65714211Y-123705452D01*
X65888094Y-123390833D01*
X66025659Y-123058724D01*
X66125173Y-122713300D01*
X66185387Y-122358907D01*
X66205543Y-122000000D01*
X66185387Y-121641093D01*
X66125173Y-121286700D01*
X66025659Y-120941276D01*
X65888094Y-120609167D01*
X65714211Y-120294548D01*
X65506194Y-120001377D01*
X65266661Y-119733339D01*
X64998623Y-119493806D01*
X64902536Y-119425628D01*
X64859254Y-119370781D01*
X64852494Y-119301240D01*
X64884405Y-119239083D01*
X64944854Y-119204045D01*
X64974293Y-119200500D01*
X65658481Y-119200500D01*
X65725520Y-119220185D01*
X65746162Y-119236819D01*
X72053453Y-125544111D01*
X72053454Y-125544112D01*
X72168190Y-125620776D01*
X72266790Y-125661617D01*
X72295671Y-125673580D01*
X72295672Y-125673580D01*
X72295677Y-125673582D01*
X72322545Y-125678925D01*
X72322551Y-125678926D01*
X72322591Y-125678934D01*
X72412937Y-125696905D01*
X72431006Y-125700500D01*
X72431007Y-125700500D01*
X98318996Y-125700500D01*
X98427457Y-125678925D01*
X98454328Y-125673580D01*
X98561783Y-125629071D01*
X98581807Y-125620777D01*
X98581808Y-125620776D01*
X98581811Y-125620775D01*
X98696543Y-125544114D01*
X103082797Y-121157858D01*
X103144118Y-121124375D01*
X103213810Y-121129359D01*
X103269743Y-121171231D01*
X103294160Y-121236695D01*
X103289630Y-121279868D01*
X103224828Y-121504803D01*
X103224826Y-121504812D01*
X103164614Y-121859194D01*
X103164612Y-121859206D01*
X103144457Y-122218109D01*
X103164612Y-122577011D01*
X103164614Y-122577023D01*
X103224826Y-122931405D01*
X103224828Y-122931414D01*
X103261505Y-123058724D01*
X103324341Y-123276833D01*
X103354744Y-123350231D01*
X103461905Y-123608940D01*
X103635790Y-123923563D01*
X103735167Y-124063621D01*
X103843806Y-124216732D01*
X104083339Y-124484770D01*
X104306665Y-124684346D01*
X104351377Y-124724303D01*
X104582217Y-124888094D01*
X104644548Y-124932320D01*
X104959167Y-125106203D01*
X105291276Y-125243768D01*
X105636700Y-125343282D01*
X105991093Y-125403496D01*
X106350000Y-125423652D01*
X106708907Y-125403496D01*
X107063300Y-125343282D01*
X107408724Y-125243768D01*
X107740833Y-125106203D01*
X108055452Y-124932320D01*
X108348623Y-124724303D01*
X108616661Y-124484770D01*
X108856194Y-124216732D01*
X109064211Y-123923561D01*
X109238094Y-123608942D01*
X109375659Y-123276833D01*
X109475173Y-122931409D01*
X109535387Y-122577016D01*
X109555543Y-122218109D01*
X109535387Y-121859202D01*
X109475173Y-121504809D01*
X109375659Y-121159385D01*
X109238094Y-120827276D01*
X109064211Y-120512657D01*
X108909451Y-120294545D01*
X108856194Y-120219486D01*
X108616661Y-119951448D01*
X108348623Y-119711915D01*
X108348622Y-119711914D01*
X108055454Y-119503899D01*
X107814594Y-119370781D01*
X107740833Y-119330015D01*
X107671364Y-119301240D01*
X107573348Y-119260640D01*
X107408724Y-119192450D01*
X107408720Y-119192448D01*
X107408718Y-119192448D01*
X107063305Y-119092937D01*
X107063296Y-119092935D01*
X106708914Y-119032723D01*
X106708902Y-119032721D01*
X106350000Y-119012566D01*
X105991097Y-119032721D01*
X105991085Y-119032723D01*
X105636703Y-119092935D01*
X105636694Y-119092937D01*
X105411760Y-119157739D01*
X105341891Y-119157382D01*
X105283307Y-119119308D01*
X105254607Y-119055605D01*
X105264903Y-118986498D01*
X105289752Y-118950904D01*
X106819111Y-117421546D01*
X106819112Y-117421545D01*
X106819112Y-117421544D01*
X106819114Y-117421543D01*
X106895775Y-117306811D01*
X106909631Y-117273361D01*
X106948578Y-117179332D01*
X106948580Y-117179328D01*
X106963314Y-117105258D01*
X106975500Y-117043996D01*
X106975500Y-112681004D01*
X106975499Y-112681002D01*
X106948582Y-112545682D01*
X106948581Y-112545681D01*
X106948580Y-112545672D01*
X106944082Y-112534814D01*
X106895775Y-112418189D01*
X106819114Y-112303457D01*
X106819112Y-112303454D01*
X104661818Y-110146160D01*
X104628333Y-110084837D01*
X104625499Y-110058479D01*
X104625499Y-109449998D01*
X104625498Y-109449981D01*
X104614999Y-109347203D01*
X104614998Y-109347200D01*
X104605763Y-109319331D01*
X104559814Y-109180666D01*
X104467712Y-109031344D01*
X104343656Y-108907288D01*
X104221902Y-108832190D01*
X104175179Y-108780243D01*
X104163000Y-108726652D01*
X104163000Y-106837000D01*
X104182685Y-106769961D01*
X104235489Y-106724206D01*
X104287000Y-106713000D01*
X105043109Y-106713000D01*
X105067299Y-106715382D01*
X105181006Y-106737999D01*
X105181007Y-106737999D01*
X105318995Y-106737999D01*
X105318996Y-106737998D01*
X105432695Y-106715383D01*
X105456886Y-106713000D01*
X105520981Y-106713000D01*
X105588020Y-106732685D01*
X105608662Y-106749319D01*
X105713181Y-106853838D01*
X105746666Y-106915161D01*
X105749500Y-106941519D01*
X105749500Y-108147870D01*
X105749501Y-108147876D01*
X105755908Y-108207483D01*
X105806202Y-108342328D01*
X105806206Y-108342335D01*
X105892452Y-108457544D01*
X105892455Y-108457547D01*
X106007664Y-108543793D01*
X106007671Y-108543797D01*
X106007674Y-108543798D01*
X106139598Y-108593002D01*
X106195531Y-108634873D01*
X106219949Y-108700337D01*
X106205098Y-108768610D01*
X106183947Y-108796865D01*
X106061886Y-108918926D01*
X105926400Y-109112420D01*
X105926399Y-109112422D01*
X105826570Y-109326507D01*
X105826567Y-109326513D01*
X105769364Y-109539999D01*
X105769364Y-109540000D01*
X106666988Y-109540000D01*
X106634075Y-109597007D01*
X106600000Y-109724174D01*
X106600000Y-109855826D01*
X106634075Y-109982993D01*
X106666988Y-110040000D01*
X105769364Y-110040000D01*
X105826567Y-110253486D01*
X105826570Y-110253492D01*
X105926399Y-110467578D01*
X106061894Y-110661082D01*
X106228917Y-110828105D01*
X106422421Y-110963600D01*
X106636507Y-111063429D01*
X106636516Y-111063433D01*
X106850000Y-111120634D01*
X106850000Y-110223012D01*
X106907007Y-110255925D01*
X107034174Y-110290000D01*
X107165826Y-110290000D01*
X107292993Y-110255925D01*
X107350000Y-110223012D01*
X107350000Y-111120633D01*
X107563483Y-111063433D01*
X107563492Y-111063429D01*
X107777578Y-110963600D01*
X107971082Y-110828105D01*
X108138105Y-110661082D01*
X108273600Y-110467578D01*
X108373429Y-110253492D01*
X108373432Y-110253486D01*
X108430636Y-110040000D01*
X107533012Y-110040000D01*
X107565925Y-109982993D01*
X107600000Y-109855826D01*
X107600000Y-109724174D01*
X107565925Y-109597007D01*
X107533012Y-109540000D01*
X108430636Y-109540000D01*
X108430635Y-109539999D01*
X108373432Y-109326513D01*
X108373429Y-109326507D01*
X108273600Y-109112422D01*
X108273599Y-109112420D01*
X108138113Y-108918926D01*
X108138108Y-108918920D01*
X108016053Y-108796865D01*
X107982568Y-108735542D01*
X107987552Y-108665850D01*
X108029424Y-108609917D01*
X108060400Y-108593002D01*
X108192331Y-108543796D01*
X108307546Y-108457546D01*
X108393796Y-108342331D01*
X108444091Y-108207483D01*
X108450500Y-108147873D01*
X108450499Y-106352128D01*
X108444091Y-106292517D01*
X108438814Y-106278369D01*
X108393797Y-106157671D01*
X108393793Y-106157664D01*
X108307547Y-106042455D01*
X108307544Y-106042452D01*
X108192335Y-105956206D01*
X108192328Y-105956202D01*
X108057482Y-105905908D01*
X108057483Y-105905908D01*
X107997883Y-105899501D01*
X107997881Y-105899500D01*
X107997873Y-105899500D01*
X107997865Y-105899500D01*
X106791519Y-105899500D01*
X106724480Y-105879815D01*
X106703838Y-105863181D01*
X106309046Y-105468388D01*
X106309045Y-105468387D01*
X106194307Y-105391722D01*
X106066832Y-105338921D01*
X106066822Y-105338918D01*
X105931496Y-105312000D01*
X105931494Y-105312000D01*
X105931493Y-105312000D01*
X103804019Y-105312000D01*
X103736980Y-105292315D01*
X103716338Y-105275681D01*
X101421027Y-102980370D01*
X101387542Y-102919047D01*
X101385180Y-102881881D01*
X101385633Y-102876697D01*
X101385635Y-102876692D01*
X101405468Y-102650000D01*
X101385635Y-102423308D01*
X101326739Y-102203504D01*
X101230568Y-101997266D01*
X101129401Y-101852783D01*
X101100045Y-101810858D01*
X100939141Y-101649954D01*
X100752734Y-101519432D01*
X100752728Y-101519429D01*
X100694725Y-101492382D01*
X100642285Y-101446210D01*
X100623133Y-101379017D01*
X100643348Y-101312135D01*
X100694725Y-101267618D01*
X100752734Y-101240568D01*
X100939139Y-101110047D01*
X101100047Y-100949139D01*
X101230568Y-100762734D01*
X101326739Y-100556496D01*
X101385635Y-100336692D01*
X101405468Y-100110000D01*
X101385635Y-99883308D01*
X101326739Y-99663504D01*
X101230568Y-99457266D01*
X101132839Y-99317693D01*
X101100045Y-99270858D01*
X100939141Y-99109954D01*
X100752734Y-98979432D01*
X100752728Y-98979429D01*
X100724195Y-98966124D01*
X100694724Y-98952381D01*
X100642285Y-98906210D01*
X100623133Y-98839017D01*
X100643348Y-98772135D01*
X100694725Y-98727618D01*
X100752734Y-98700568D01*
X100939139Y-98570047D01*
X101100047Y-98409139D01*
X101230568Y-98222734D01*
X101326739Y-98016496D01*
X101385635Y-97796692D01*
X101405468Y-97570000D01*
X101385635Y-97343308D01*
X101341517Y-97178655D01*
X101328907Y-97131593D01*
X101330570Y-97061743D01*
X101369733Y-97003881D01*
X101433961Y-96976377D01*
X101448682Y-96975500D01*
X103649548Y-96975500D01*
X103716587Y-96995185D01*
X103737229Y-97011819D01*
X106420586Y-99695176D01*
X106454071Y-99756499D01*
X106452681Y-99814948D01*
X106434365Y-99883307D01*
X106434364Y-99883313D01*
X106414532Y-100109999D01*
X106414532Y-100110001D01*
X106434364Y-100336686D01*
X106434366Y-100336697D01*
X106493258Y-100556488D01*
X106493261Y-100556497D01*
X106589431Y-100762732D01*
X106589432Y-100762734D01*
X106719954Y-100949141D01*
X106880858Y-101110045D01*
X106891032Y-101117169D01*
X107067266Y-101240568D01*
X107125275Y-101267618D01*
X107177714Y-101313791D01*
X107196866Y-101380984D01*
X107176650Y-101447865D01*
X107125275Y-101492382D01*
X107067267Y-101519431D01*
X107067265Y-101519432D01*
X106880858Y-101649954D01*
X106719954Y-101810858D01*
X106589432Y-101997265D01*
X106589431Y-101997267D01*
X106493261Y-102203502D01*
X106493258Y-102203511D01*
X106434366Y-102423302D01*
X106434364Y-102423313D01*
X106414532Y-102649998D01*
X106414532Y-102650001D01*
X106434364Y-102876686D01*
X106434366Y-102876697D01*
X106493258Y-103096488D01*
X106493261Y-103096497D01*
X106589431Y-103302732D01*
X106589432Y-103302734D01*
X106719954Y-103489141D01*
X106880858Y-103650045D01*
X106891032Y-103657169D01*
X107067266Y-103780568D01*
X107273504Y-103876739D01*
X107493308Y-103935635D01*
X107655230Y-103949801D01*
X107719998Y-103955468D01*
X107720000Y-103955468D01*
X107720002Y-103955468D01*
X107776673Y-103950509D01*
X107946692Y-103935635D01*
X108166496Y-103876739D01*
X108372734Y-103780568D01*
X108559139Y-103650047D01*
X108569243Y-103639943D01*
X108587819Y-103621368D01*
X108649142Y-103587883D01*
X108718834Y-103592867D01*
X108774767Y-103634739D01*
X108799184Y-103700203D01*
X108799500Y-103709049D01*
X108799500Y-110864806D01*
X108779815Y-110931845D01*
X108727011Y-110977600D01*
X108725937Y-110978085D01*
X108697268Y-110990849D01*
X108544129Y-111102111D01*
X108417466Y-111242785D01*
X108322821Y-111406715D01*
X108322818Y-111406722D01*
X108264327Y-111586740D01*
X108264326Y-111586744D01*
X108244540Y-111775000D01*
X108264326Y-111963256D01*
X108264327Y-111963259D01*
X108322818Y-112143277D01*
X108322821Y-112143284D01*
X108417467Y-112307216D01*
X108544129Y-112447888D01*
X108697265Y-112559148D01*
X108697270Y-112559151D01*
X108870192Y-112636142D01*
X108870197Y-112636144D01*
X109055354Y-112675500D01*
X109055355Y-112675500D01*
X109244644Y-112675500D01*
X109244646Y-112675500D01*
X109429803Y-112636144D01*
X109602730Y-112559151D01*
X109755871Y-112447888D01*
X109882533Y-112307216D01*
X109934415Y-112217352D01*
X109984980Y-112169139D01*
X110053587Y-112155915D01*
X110118452Y-112181883D01*
X110158981Y-112238796D01*
X110165801Y-112279296D01*
X110170583Y-122421656D01*
X110170572Y-122423376D01*
X110168132Y-122605393D01*
X110167464Y-122616693D01*
X110129318Y-122979611D01*
X110127287Y-122992430D01*
X110051592Y-123348541D01*
X110048233Y-123361078D01*
X109935727Y-123707335D01*
X109931076Y-123719452D01*
X109782991Y-124052057D01*
X109777099Y-124063621D01*
X109595064Y-124378919D01*
X109587994Y-124389805D01*
X109373998Y-124684346D01*
X109365831Y-124694432D01*
X109122217Y-124964999D01*
X109113039Y-124974177D01*
X108842483Y-125217791D01*
X108832397Y-125225959D01*
X108537849Y-125439966D01*
X108526972Y-125447029D01*
X108358828Y-125544111D01*
X108211676Y-125629071D01*
X108200112Y-125634963D01*
X107867505Y-125783056D01*
X107855388Y-125787707D01*
X107509142Y-125900216D01*
X107496605Y-125903576D01*
X107140477Y-125979280D01*
X107127658Y-125981310D01*
X106764775Y-126019459D01*
X106753436Y-126020128D01*
X106571458Y-126022513D01*
X106569764Y-126022524D01*
X67564004Y-126000761D01*
X66200000Y-126000000D01*
X66199966Y-126000000D01*
X63026574Y-126000000D01*
X63023402Y-125999959D01*
X63017543Y-125999809D01*
X62846532Y-125995432D01*
X62835264Y-125994629D01*
X62481442Y-125953142D01*
X62468752Y-125950981D01*
X62121924Y-125873210D01*
X62109526Y-125869746D01*
X61772610Y-125756431D01*
X61760637Y-125751699D01*
X61437300Y-125604070D01*
X61425884Y-125598123D01*
X61119587Y-125417765D01*
X61108848Y-125410666D01*
X61099135Y-125403494D01*
X60822901Y-125199523D01*
X60812958Y-125191351D01*
X60550445Y-124951702D01*
X60541401Y-124942541D01*
X60440526Y-124829148D01*
X60305142Y-124676963D01*
X60297105Y-124666924D01*
X60089653Y-124378281D01*
X60082694Y-124367453D01*
X59906285Y-124058859D01*
X59900494Y-124047383D01*
X59757027Y-123722156D01*
X59752451Y-123710125D01*
X59643480Y-123371790D01*
X59640175Y-123359348D01*
X59566870Y-123011547D01*
X59564872Y-122998830D01*
X59562869Y-122979611D01*
X59527934Y-122644481D01*
X59527279Y-122633245D01*
X59525008Y-122455366D01*
X59524999Y-122454039D01*
X59507390Y-91524986D01*
X60300001Y-91524986D01*
X60310494Y-91627697D01*
X60365641Y-91794119D01*
X60365643Y-91794124D01*
X60457684Y-91943345D01*
X60581654Y-92067315D01*
X60730875Y-92159356D01*
X60730880Y-92159358D01*
X60897302Y-92214505D01*
X60897310Y-92214506D01*
X60981954Y-92223154D01*
X60989263Y-92224999D01*
X60993695Y-92224999D01*
X61006310Y-92225642D01*
X61013462Y-92226373D01*
X61021420Y-92224999D01*
X63174999Y-92224999D01*
X63675000Y-92224999D01*
X65950000Y-92224999D01*
X66450000Y-92224999D01*
X68724999Y-92224999D01*
X69225000Y-92224999D01*
X71399972Y-92224999D01*
X71399986Y-92224998D01*
X71502697Y-92214505D01*
X71669119Y-92159358D01*
X71669124Y-92159356D01*
X71818345Y-92067315D01*
X71942315Y-91943345D01*
X72034356Y-91794124D01*
X72034358Y-91794119D01*
X72089505Y-91627697D01*
X72089506Y-91627690D01*
X72099999Y-91524986D01*
X72100000Y-91524973D01*
X72100000Y-89700000D01*
X69225000Y-89700000D01*
X69225000Y-92224999D01*
X68724999Y-92224999D01*
X68725000Y-92224998D01*
X68725000Y-89700000D01*
X66450000Y-89700000D01*
X66450000Y-92224999D01*
X65950000Y-92224999D01*
X65950000Y-89700000D01*
X63675000Y-89700000D01*
X63675000Y-92224999D01*
X63174999Y-92224999D01*
X63175000Y-92224998D01*
X63175000Y-89700000D01*
X60300001Y-89700000D01*
X60300001Y-91524986D01*
X59507390Y-91524986D01*
X59506066Y-89200000D01*
X60300000Y-89200000D01*
X63175000Y-89200000D01*
X63675000Y-89200000D01*
X65950000Y-89200000D01*
X66450000Y-89200000D01*
X68725000Y-89200000D01*
X69225000Y-89200000D01*
X72099999Y-89200000D01*
X72099999Y-87275000D01*
X69225000Y-87275000D01*
X69225000Y-89200000D01*
X68725000Y-89200000D01*
X68725000Y-87275000D01*
X66450000Y-87275000D01*
X66450000Y-89200000D01*
X65950000Y-89200000D01*
X65950000Y-87275000D01*
X63675000Y-87275000D01*
X63675000Y-89200000D01*
X63175000Y-89200000D01*
X63175000Y-87275000D01*
X60300000Y-87275000D01*
X60300000Y-89200000D01*
X59506066Y-89200000D01*
X59504685Y-86775000D01*
X60300000Y-86775000D01*
X63175000Y-86775000D01*
X63675000Y-86775000D01*
X65950000Y-86775000D01*
X66450000Y-86775000D01*
X68725000Y-86775000D01*
X69225000Y-86775000D01*
X72099999Y-86775000D01*
X72099999Y-86681113D01*
X72100000Y-86681092D01*
X72100000Y-84850000D01*
X69225000Y-84850000D01*
X69225000Y-86775000D01*
X68725000Y-86775000D01*
X68725000Y-84850000D01*
X66450000Y-84850000D01*
X66450000Y-86775000D01*
X65950000Y-86775000D01*
X65950000Y-84850000D01*
X63675000Y-84850000D01*
X63675000Y-86775000D01*
X63175000Y-86775000D01*
X63175000Y-84850000D01*
X60300000Y-84850000D01*
X60300000Y-86775000D01*
X59504685Y-86775000D01*
X59500069Y-78667873D01*
X59519083Y-78602982D01*
X59723838Y-78602982D01*
X59743026Y-78632801D01*
X59747874Y-78660851D01*
X59764612Y-78958902D01*
X59764614Y-78958914D01*
X59824826Y-79313296D01*
X59824828Y-79313305D01*
X59924339Y-79658718D01*
X59924341Y-79658724D01*
X59975159Y-79781409D01*
X60061905Y-79990831D01*
X60235790Y-80305454D01*
X60443805Y-80598622D01*
X60443806Y-80598623D01*
X60683339Y-80866661D01*
X60951377Y-81106194D01*
X61244548Y-81314211D01*
X61559167Y-81488094D01*
X61796594Y-81586440D01*
X61850996Y-81630280D01*
X61873061Y-81696574D01*
X61855782Y-81764273D01*
X61804645Y-81811884D01*
X61749140Y-81825000D01*
X61000028Y-81825000D01*
X61000012Y-81825001D01*
X60897302Y-81835494D01*
X60730880Y-81890641D01*
X60730875Y-81890643D01*
X60581654Y-81982684D01*
X60457684Y-82106654D01*
X60365643Y-82255875D01*
X60365641Y-82255880D01*
X60310494Y-82422301D01*
X60310023Y-82425221D01*
X60309852Y-82428589D01*
X60300000Y-82525015D01*
X60300000Y-84350000D01*
X65950000Y-84350000D01*
X66450000Y-84350000D01*
X68725000Y-84350000D01*
X69225000Y-84350000D01*
X72099999Y-84350000D01*
X72099999Y-82525028D01*
X72099998Y-82525013D01*
X72089505Y-82422302D01*
X72034358Y-82255880D01*
X72034356Y-82255875D01*
X71942315Y-82106654D01*
X71818345Y-81982684D01*
X71669124Y-81890643D01*
X71669119Y-81890641D01*
X71502697Y-81835494D01*
X71502690Y-81835493D01*
X71399986Y-81825000D01*
X69225000Y-81825000D01*
X69225000Y-84350000D01*
X68725000Y-84350000D01*
X68725000Y-81825000D01*
X66450000Y-81825000D01*
X66450000Y-84350000D01*
X65950000Y-84350000D01*
X65950000Y-81825000D01*
X64150860Y-81825000D01*
X64083821Y-81805315D01*
X64038066Y-81752511D01*
X64028122Y-81683353D01*
X64057147Y-81619797D01*
X64103404Y-81586440D01*
X64340833Y-81488094D01*
X64655452Y-81314211D01*
X64948623Y-81106194D01*
X65216661Y-80866661D01*
X65456194Y-80598623D01*
X65664211Y-80305452D01*
X65838094Y-79990833D01*
X65975659Y-79658724D01*
X66075173Y-79313300D01*
X66135387Y-78958907D01*
X66155543Y-78600000D01*
X66135387Y-78241093D01*
X66075173Y-77886700D01*
X65975659Y-77541276D01*
X65838094Y-77209167D01*
X65664211Y-76894548D01*
X65456194Y-76601377D01*
X65216661Y-76333339D01*
X64948623Y-76093806D01*
X64876244Y-76042450D01*
X64655454Y-75885790D01*
X64340831Y-75711905D01*
X64198072Y-75652772D01*
X64008724Y-75574341D01*
X64008720Y-75574339D01*
X64008718Y-75574339D01*
X63663305Y-75474828D01*
X63663296Y-75474826D01*
X63308914Y-75414614D01*
X63308902Y-75414612D01*
X62950000Y-75394457D01*
X62591097Y-75414612D01*
X62591085Y-75414614D01*
X62236703Y-75474826D01*
X62236694Y-75474828D01*
X61891281Y-75574339D01*
X61559168Y-75711905D01*
X61244545Y-75885790D01*
X60951377Y-76093805D01*
X60683339Y-76333339D01*
X60443805Y-76601377D01*
X60235790Y-76894545D01*
X60061905Y-77209168D01*
X59924339Y-77541281D01*
X59824828Y-77886694D01*
X59824826Y-77886703D01*
X59764614Y-78241085D01*
X59764612Y-78241097D01*
X59748019Y-78536560D01*
X59724606Y-78602390D01*
X59723838Y-78602982D01*
X59519083Y-78602982D01*
X59519715Y-78600824D01*
X59525144Y-78596113D01*
X59503465Y-78557815D01*
X59500224Y-78528049D01*
X59502239Y-78368257D01*
X59502890Y-78357034D01*
X59504395Y-78342517D01*
X59539446Y-78004453D01*
X59541423Y-77991808D01*
X59546128Y-77969364D01*
X59613983Y-77645652D01*
X59617245Y-77633302D01*
X59725123Y-77296453D01*
X59729653Y-77284480D01*
X59762677Y-77209168D01*
X59871688Y-76960563D01*
X59877412Y-76949151D01*
X60052102Y-76641595D01*
X60058971Y-76630835D01*
X60264454Y-76342925D01*
X60272407Y-76332919D01*
X60506468Y-76067753D01*
X60515404Y-76058626D01*
X60775570Y-75819004D01*
X60785418Y-75810834D01*
X60924874Y-75706784D01*
X61068897Y-75599328D01*
X61079511Y-75592231D01*
X61383311Y-75411075D01*
X61394618Y-75405102D01*
X61715451Y-75256256D01*
X61727317Y-75251478D01*
X62061805Y-75136505D01*
X62074096Y-75132980D01*
X62418643Y-75053118D01*
X62431230Y-75050877D01*
X62782965Y-75006874D01*
X62794162Y-75005986D01*
X62969629Y-75000071D01*
X62973807Y-75000001D01*
X66146701Y-75000001D01*
X106525667Y-75000000D01*
X106532140Y-75000169D01*
G37*
G04 #@! TD.AperFunction*
G04 #@! TA.AperFunction,Conductor*
G36*
X96754930Y-104909823D02*
G01*
X96870197Y-104961144D01*
X97055354Y-105000500D01*
X97055355Y-105000500D01*
X97125500Y-105000500D01*
X97192539Y-105020185D01*
X97238294Y-105072989D01*
X97249500Y-105124500D01*
X97249500Y-108099902D01*
X97229815Y-108166941D01*
X97213181Y-108187583D01*
X91537584Y-113863181D01*
X91476261Y-113896666D01*
X91449903Y-113899500D01*
X88270985Y-113899500D01*
X88270969Y-113899499D01*
X88263373Y-113899499D01*
X88105258Y-113899499D01*
X88028894Y-113919961D01*
X87952529Y-113940423D01*
X87952524Y-113940426D01*
X87815605Y-114019475D01*
X87815597Y-114019481D01*
X85019481Y-116815597D01*
X85019479Y-116815600D01*
X84975467Y-116891833D01*
X84975466Y-116891834D01*
X84950728Y-116934682D01*
X84940423Y-116952530D01*
X84899499Y-117105258D01*
X84899499Y-117105260D01*
X84899499Y-117273361D01*
X84899500Y-117273374D01*
X84899500Y-118575500D01*
X84879815Y-118642539D01*
X84827011Y-118688294D01*
X84775502Y-118699500D01*
X84710637Y-118699500D01*
X84593246Y-118714953D01*
X84593237Y-118714956D01*
X84447160Y-118775463D01*
X84321718Y-118871718D01*
X84225463Y-118997160D01*
X84203653Y-119049815D01*
X84159812Y-119104218D01*
X84093517Y-119126283D01*
X84025818Y-119109004D01*
X84001411Y-119090043D01*
X83968657Y-119057289D01*
X83968656Y-119057288D01*
X83864000Y-118992736D01*
X83819336Y-118965187D01*
X83819331Y-118965185D01*
X83817862Y-118964698D01*
X83652797Y-118910001D01*
X83652795Y-118910000D01*
X83550010Y-118899500D01*
X82349998Y-118899500D01*
X82349981Y-118899501D01*
X82247203Y-118910000D01*
X82247200Y-118910001D01*
X82080668Y-118965185D01*
X82080663Y-118965187D01*
X81931342Y-119057289D01*
X81807289Y-119181342D01*
X81715187Y-119330663D01*
X81715186Y-119330666D01*
X81660001Y-119497203D01*
X81660001Y-119497204D01*
X81660000Y-119497204D01*
X81649500Y-119599983D01*
X81649500Y-120600001D01*
X81649501Y-120600019D01*
X81660000Y-120702796D01*
X81660001Y-120702799D01*
X81715185Y-120869331D01*
X81715186Y-120869334D01*
X81807288Y-121018656D01*
X81931344Y-121142712D01*
X82080666Y-121234814D01*
X82183000Y-121268724D01*
X82240445Y-121308497D01*
X82267268Y-121373013D01*
X82254953Y-121441789D01*
X82231678Y-121474111D01*
X82111697Y-121594092D01*
X82007681Y-121749762D01*
X82007676Y-121749771D01*
X81936027Y-121922748D01*
X81936025Y-121922756D01*
X81899500Y-122106379D01*
X81899500Y-122993620D01*
X81936025Y-123177243D01*
X81936027Y-123177251D01*
X82007676Y-123350228D01*
X82007681Y-123350237D01*
X82111697Y-123505907D01*
X82111700Y-123505911D01*
X82193608Y-123587819D01*
X82227093Y-123649142D01*
X82222109Y-123718834D01*
X82180237Y-123774767D01*
X82114773Y-123799184D01*
X82105927Y-123799500D01*
X73170808Y-123799500D01*
X73103769Y-123779815D01*
X73083127Y-123763181D01*
X71924319Y-122604373D01*
X71890834Y-122543050D01*
X71888000Y-122516692D01*
X71888000Y-116499999D01*
X78104341Y-116499999D01*
X78104341Y-116500000D01*
X78124936Y-116735403D01*
X78124938Y-116735413D01*
X78186094Y-116963655D01*
X78186096Y-116963659D01*
X78186097Y-116963663D01*
X78270499Y-117144663D01*
X78285965Y-117177830D01*
X78285967Y-117177834D01*
X78380204Y-117312417D01*
X78421505Y-117371401D01*
X78588599Y-117538495D01*
X78666026Y-117592710D01*
X78782165Y-117674032D01*
X78782167Y-117674033D01*
X78782170Y-117674035D01*
X78996337Y-117773903D01*
X78996343Y-117773904D01*
X78996344Y-117773905D01*
X79018401Y-117779815D01*
X79224592Y-117835063D01*
X79401034Y-117850500D01*
X79459999Y-117855659D01*
X79460000Y-117855659D01*
X79460001Y-117855659D01*
X79518966Y-117850500D01*
X79695408Y-117835063D01*
X79923663Y-117773903D01*
X80137830Y-117674035D01*
X80331401Y-117538495D01*
X80453329Y-117416566D01*
X80514648Y-117383084D01*
X80584340Y-117388068D01*
X80640274Y-117429939D01*
X80657189Y-117460917D01*
X80706202Y-117592328D01*
X80706206Y-117592335D01*
X80792452Y-117707544D01*
X80792455Y-117707547D01*
X80907664Y-117793793D01*
X80907671Y-117793797D01*
X81042517Y-117844091D01*
X81042516Y-117844091D01*
X81049444Y-117844835D01*
X81102127Y-117850500D01*
X82897872Y-117850499D01*
X82957483Y-117844091D01*
X83092331Y-117793796D01*
X83207546Y-117707546D01*
X83293796Y-117592331D01*
X83344091Y-117457483D01*
X83350500Y-117397873D01*
X83350499Y-115602128D01*
X83344091Y-115542517D01*
X83342810Y-115539083D01*
X83293797Y-115407671D01*
X83293793Y-115407664D01*
X83207547Y-115292455D01*
X83207544Y-115292452D01*
X83092335Y-115206206D01*
X83092328Y-115206202D01*
X82957482Y-115155908D01*
X82957483Y-115155908D01*
X82897883Y-115149501D01*
X82897881Y-115149500D01*
X82897873Y-115149500D01*
X82897864Y-115149500D01*
X81102129Y-115149500D01*
X81102123Y-115149501D01*
X81042516Y-115155908D01*
X80907671Y-115206202D01*
X80907664Y-115206206D01*
X80792455Y-115292452D01*
X80792452Y-115292455D01*
X80706206Y-115407664D01*
X80706203Y-115407669D01*
X80657189Y-115539083D01*
X80615317Y-115595016D01*
X80549853Y-115619433D01*
X80481580Y-115604581D01*
X80453326Y-115583430D01*
X80331402Y-115461506D01*
X80331395Y-115461501D01*
X80137834Y-115325967D01*
X80137830Y-115325965D01*
X80069536Y-115294119D01*
X79923663Y-115226097D01*
X79923659Y-115226096D01*
X79923655Y-115226094D01*
X79695413Y-115164938D01*
X79695403Y-115164936D01*
X79460001Y-115144341D01*
X79459999Y-115144341D01*
X79224596Y-115164936D01*
X79224586Y-115164938D01*
X78996344Y-115226094D01*
X78996335Y-115226098D01*
X78782171Y-115325964D01*
X78782169Y-115325965D01*
X78588597Y-115461505D01*
X78421505Y-115628597D01*
X78285965Y-115822169D01*
X78285964Y-115822171D01*
X78186098Y-116036335D01*
X78186094Y-116036344D01*
X78124938Y-116264586D01*
X78124936Y-116264596D01*
X78104341Y-116499999D01*
X71888000Y-116499999D01*
X71888000Y-115024986D01*
X72850001Y-115024986D01*
X72860494Y-115127697D01*
X72915641Y-115294119D01*
X72915643Y-115294124D01*
X73007684Y-115443345D01*
X73131654Y-115567315D01*
X73280875Y-115659356D01*
X73280880Y-115659358D01*
X73447302Y-115714505D01*
X73447309Y-115714506D01*
X73550019Y-115724999D01*
X73999999Y-115724999D01*
X74500000Y-115724999D01*
X74949972Y-115724999D01*
X74949986Y-115724998D01*
X75052697Y-115714505D01*
X75219119Y-115659358D01*
X75219124Y-115659356D01*
X75368345Y-115567315D01*
X75492315Y-115443345D01*
X75584356Y-115294124D01*
X75584358Y-115294119D01*
X75639505Y-115127697D01*
X75639506Y-115127690D01*
X75649999Y-115024986D01*
X75650000Y-115024973D01*
X75650000Y-114812500D01*
X74500000Y-114812500D01*
X74500000Y-115724999D01*
X73999999Y-115724999D01*
X74000000Y-115724998D01*
X74000000Y-114812500D01*
X72850001Y-114812500D01*
X72850001Y-115024986D01*
X71888000Y-115024986D01*
X71888000Y-114100013D01*
X72850000Y-114100013D01*
X72850000Y-114312500D01*
X74000000Y-114312500D01*
X74500000Y-114312500D01*
X75649999Y-114312500D01*
X75649999Y-114100028D01*
X75649998Y-114100013D01*
X75639505Y-113997302D01*
X75584358Y-113830880D01*
X75584356Y-113830875D01*
X75492315Y-113681654D01*
X75368345Y-113557684D01*
X75219124Y-113465643D01*
X75219119Y-113465641D01*
X75052697Y-113410494D01*
X75052690Y-113410493D01*
X74949986Y-113400000D01*
X74500000Y-113400000D01*
X74500000Y-114312500D01*
X74000000Y-114312500D01*
X74000000Y-113400000D01*
X73550028Y-113400000D01*
X73550012Y-113400001D01*
X73447302Y-113410494D01*
X73280880Y-113465641D01*
X73280875Y-113465643D01*
X73131654Y-113557684D01*
X73007684Y-113681654D01*
X72915643Y-113830875D01*
X72915641Y-113830880D01*
X72860494Y-113997302D01*
X72860493Y-113997309D01*
X72850000Y-114100013D01*
X71888000Y-114100013D01*
X71888000Y-111987000D01*
X71907685Y-111919961D01*
X71960489Y-111874206D01*
X72012000Y-111863000D01*
X72733742Y-111863000D01*
X72800781Y-111882685D01*
X72846536Y-111935489D01*
X72857100Y-111974398D01*
X72860001Y-112002797D01*
X72860001Y-112002799D01*
X72915185Y-112169331D01*
X72915187Y-112169336D01*
X72922926Y-112181883D01*
X73007288Y-112318656D01*
X73131344Y-112442712D01*
X73280666Y-112534814D01*
X73447203Y-112589999D01*
X73549991Y-112600500D01*
X74950008Y-112600499D01*
X75052797Y-112589999D01*
X75219334Y-112534814D01*
X75368656Y-112442712D01*
X75492712Y-112318656D01*
X75584814Y-112169334D01*
X75639999Y-112002797D01*
X75650500Y-111900009D01*
X75650499Y-111008308D01*
X75670183Y-110941270D01*
X75686818Y-110920627D01*
X75773530Y-110833916D01*
X75834854Y-110800432D01*
X75861211Y-110797598D01*
X89897565Y-110797598D01*
X89982109Y-110780780D01*
X90023238Y-110772599D01*
X90141621Y-110723563D01*
X90168406Y-110705666D01*
X90248163Y-110652375D01*
X93732681Y-107167855D01*
X94735695Y-107167855D01*
X94756666Y-107169998D01*
X94756686Y-107169999D01*
X95903314Y-107169999D01*
X95903330Y-107169998D01*
X95924301Y-107167854D01*
X95924302Y-107167853D01*
X95330001Y-106573552D01*
X95330000Y-106573552D01*
X94735695Y-107167855D01*
X93732681Y-107167855D01*
X94033939Y-106866597D01*
X94095258Y-106833115D01*
X94164949Y-106838099D01*
X94220883Y-106879971D01*
X94227155Y-106889184D01*
X94232428Y-106897733D01*
X94265570Y-106930875D01*
X95065542Y-106130904D01*
X95126865Y-106097419D01*
X95196556Y-106102403D01*
X95240904Y-106130904D01*
X95329999Y-106219999D01*
X95419093Y-106130905D01*
X95480416Y-106097420D01*
X95550108Y-106102404D01*
X95594456Y-106130905D01*
X96394427Y-106930876D01*
X96394428Y-106930876D01*
X96427572Y-106897733D01*
X96516545Y-106753486D01*
X96516547Y-106753481D01*
X96569855Y-106592606D01*
X96579999Y-106493322D01*
X96579999Y-105946692D01*
X96579998Y-105946676D01*
X96569855Y-105847392D01*
X96516545Y-105686511D01*
X96494378Y-105650575D01*
X96475936Y-105583183D01*
X96494378Y-105520377D01*
X96517001Y-105483700D01*
X96517000Y-105483700D01*
X96517003Y-105483697D01*
X96570349Y-105322708D01*
X96580500Y-105223345D01*
X96580499Y-105023103D01*
X96600183Y-104956065D01*
X96652987Y-104910310D01*
X96722145Y-104900366D01*
X96754930Y-104909823D01*
G37*
G04 #@! TD.AperFunction*
G04 #@! TA.AperFunction,Conductor*
G36*
X99018774Y-103400476D02*
G01*
X99066167Y-103440887D01*
X99089533Y-103474257D01*
X99099957Y-103489144D01*
X99260858Y-103650045D01*
X99271032Y-103657169D01*
X99447266Y-103780568D01*
X99653504Y-103876739D01*
X99873308Y-103935635D01*
X100035230Y-103949801D01*
X100099998Y-103955468D01*
X100100000Y-103955468D01*
X100100001Y-103955468D01*
X100118304Y-103953866D01*
X100326692Y-103935635D01*
X100326697Y-103935633D01*
X100331881Y-103935180D01*
X100400381Y-103948946D01*
X100430370Y-103971027D01*
X102725681Y-106266338D01*
X102759166Y-106327661D01*
X102762000Y-106354019D01*
X102762000Y-107738541D01*
X102742315Y-107805580D01*
X102689511Y-107851335D01*
X102620353Y-107861279D01*
X102556797Y-107832254D01*
X102545850Y-107821513D01*
X102505870Y-107777111D01*
X102352734Y-107665851D01*
X102352729Y-107665848D01*
X102179807Y-107588857D01*
X102179802Y-107588855D01*
X102032100Y-107557461D01*
X101994646Y-107549500D01*
X101805354Y-107549500D01*
X101772897Y-107556398D01*
X101620197Y-107588855D01*
X101620192Y-107588857D01*
X101447270Y-107665848D01*
X101447265Y-107665851D01*
X101294129Y-107777111D01*
X101167466Y-107917785D01*
X101072821Y-108081715D01*
X101072818Y-108081722D01*
X101024959Y-108229019D01*
X101014326Y-108261744D01*
X101005856Y-108342335D01*
X100994540Y-108450000D01*
X101012566Y-108621513D01*
X100999996Y-108690243D01*
X100952264Y-108741266D01*
X100884524Y-108758384D01*
X100876642Y-108757832D01*
X100799986Y-108750000D01*
X100587500Y-108750000D01*
X100587500Y-111549999D01*
X100799972Y-111549999D01*
X100799986Y-111549998D01*
X100902697Y-111539505D01*
X101069119Y-111484358D01*
X101069124Y-111484356D01*
X101218345Y-111392315D01*
X101347424Y-111263237D01*
X101348912Y-111264725D01*
X101397448Y-111230358D01*
X101467247Y-111227218D01*
X101525374Y-111259964D01*
X102237812Y-111972402D01*
X102271297Y-112033725D01*
X102266313Y-112103417D01*
X102224441Y-112159350D01*
X102158977Y-112183767D01*
X102137529Y-112183441D01*
X102050011Y-112174500D01*
X101149998Y-112174500D01*
X101149980Y-112174501D01*
X101047203Y-112185000D01*
X101047200Y-112185001D01*
X100880668Y-112240185D01*
X100880663Y-112240187D01*
X100731342Y-112332289D01*
X100607289Y-112456342D01*
X100515187Y-112605663D01*
X100515185Y-112605668D01*
X100500173Y-112650972D01*
X100460001Y-112772203D01*
X100460001Y-112772204D01*
X100460000Y-112772204D01*
X100449500Y-112874983D01*
X100449500Y-114225001D01*
X100449501Y-114225018D01*
X100460000Y-114327796D01*
X100460001Y-114327799D01*
X100515185Y-114494331D01*
X100515186Y-114494334D01*
X100607288Y-114643656D01*
X100731344Y-114767712D01*
X100848009Y-114839671D01*
X100894733Y-114891619D01*
X100905956Y-114960582D01*
X100878112Y-115024664D01*
X100848009Y-115050748D01*
X100822744Y-115066332D01*
X100756342Y-115107289D01*
X100632289Y-115231342D01*
X100540187Y-115380663D01*
X100540185Y-115380668D01*
X100519416Y-115443345D01*
X100485001Y-115547203D01*
X100485001Y-115547204D01*
X100485000Y-115547204D01*
X100474500Y-115649983D01*
X100474500Y-117050001D01*
X100474501Y-117050018D01*
X100485000Y-117152796D01*
X100485001Y-117152799D01*
X100540185Y-117319331D01*
X100540187Y-117319336D01*
X100558321Y-117348736D01*
X100632288Y-117468656D01*
X100756344Y-117592712D01*
X100904927Y-117684358D01*
X100905671Y-117684817D01*
X100912216Y-117687869D01*
X100911228Y-117689987D01*
X100959448Y-117723372D01*
X100986272Y-117787887D01*
X100987000Y-117801307D01*
X100987000Y-120513874D01*
X100967315Y-120580913D01*
X100950681Y-120601555D01*
X97789055Y-123763181D01*
X97727732Y-123796666D01*
X97701374Y-123799500D01*
X90194073Y-123799500D01*
X90127034Y-123779815D01*
X90081279Y-123727011D01*
X90071335Y-123657853D01*
X90100360Y-123594297D01*
X90106392Y-123587819D01*
X90188299Y-123505911D01*
X90188302Y-123505908D01*
X90292322Y-123350231D01*
X90363973Y-123177251D01*
X90400500Y-122993616D01*
X90400500Y-122106384D01*
X90363973Y-121922749D01*
X90292322Y-121749769D01*
X90292321Y-121749768D01*
X90292318Y-121749762D01*
X90188302Y-121594092D01*
X90188299Y-121594088D01*
X90068322Y-121474111D01*
X90034837Y-121412788D01*
X90039821Y-121343096D01*
X90081693Y-121287163D01*
X90116996Y-121268725D01*
X90219334Y-121234814D01*
X90368656Y-121142712D01*
X90492712Y-121018656D01*
X90584814Y-120869334D01*
X90639999Y-120702797D01*
X90650500Y-120600009D01*
X90650499Y-119599992D01*
X90639999Y-119497203D01*
X90584814Y-119330666D01*
X90492712Y-119181344D01*
X90368656Y-119057288D01*
X90264000Y-118992736D01*
X90219336Y-118965187D01*
X90219331Y-118965185D01*
X90217862Y-118964698D01*
X90052797Y-118910001D01*
X90052795Y-118910000D01*
X89950010Y-118899500D01*
X88749998Y-118899500D01*
X88749981Y-118899501D01*
X88647203Y-118910000D01*
X88647200Y-118910001D01*
X88480668Y-118965185D01*
X88480663Y-118965187D01*
X88331342Y-119057289D01*
X88298204Y-119090427D01*
X88236881Y-119123912D01*
X88167189Y-119118926D01*
X88111256Y-119077054D01*
X88095962Y-119050196D01*
X88074099Y-118997412D01*
X87977924Y-118872075D01*
X87852586Y-118775899D01*
X87706631Y-118715444D01*
X87650000Y-118707987D01*
X87650000Y-118925697D01*
X87630315Y-118992736D01*
X87577511Y-119038491D01*
X87508353Y-119048435D01*
X87444797Y-119019410D01*
X87427624Y-119001184D01*
X87416355Y-118986498D01*
X87328282Y-118871718D01*
X87328280Y-118871717D01*
X87328280Y-118871716D01*
X87298511Y-118848873D01*
X87257310Y-118792444D01*
X87250000Y-118750499D01*
X87250000Y-118707987D01*
X87193370Y-118715443D01*
X87173103Y-118723838D01*
X87103633Y-118731304D01*
X87078203Y-118723837D01*
X87056762Y-118714956D01*
X87056760Y-118714955D01*
X86939370Y-118699501D01*
X86939367Y-118699500D01*
X86939361Y-118699500D01*
X86939354Y-118699500D01*
X86874500Y-118699500D01*
X86807461Y-118679815D01*
X86761706Y-118627011D01*
X86750500Y-118575500D01*
X86750500Y-117400098D01*
X86770185Y-117333059D01*
X86786819Y-117312417D01*
X88562417Y-115536819D01*
X88623740Y-115503334D01*
X88650098Y-115500500D01*
X89493132Y-115500500D01*
X89560171Y-115520185D01*
X89605926Y-115572989D01*
X89616421Y-115637756D01*
X89609500Y-115702118D01*
X89609500Y-117497870D01*
X89609501Y-117497876D01*
X89615908Y-117557483D01*
X89666202Y-117692328D01*
X89666206Y-117692335D01*
X89752452Y-117807544D01*
X89752455Y-117807547D01*
X89867664Y-117893793D01*
X89867671Y-117893797D01*
X90002517Y-117944091D01*
X90002516Y-117944091D01*
X90009444Y-117944835D01*
X90062127Y-117950500D01*
X91857872Y-117950499D01*
X91917483Y-117944091D01*
X92052331Y-117893796D01*
X92167546Y-117807546D01*
X92253796Y-117692331D01*
X92302810Y-117560916D01*
X92344681Y-117504984D01*
X92410145Y-117480566D01*
X92478418Y-117495417D01*
X92506673Y-117516569D01*
X92628599Y-117638495D01*
X92725384Y-117706265D01*
X92822165Y-117774032D01*
X92822167Y-117774033D01*
X92822170Y-117774035D01*
X93036337Y-117873903D01*
X93264592Y-117935063D01*
X93441034Y-117950500D01*
X93499999Y-117955659D01*
X93500000Y-117955659D01*
X93500001Y-117955659D01*
X93558966Y-117950500D01*
X93735408Y-117935063D01*
X93963663Y-117873903D01*
X94177830Y-117774035D01*
X94371401Y-117638495D01*
X94538495Y-117471401D01*
X94674035Y-117277830D01*
X94773903Y-117063663D01*
X94835063Y-116835408D01*
X94855659Y-116600000D01*
X94835063Y-116364592D01*
X94773903Y-116136337D01*
X94674035Y-115922171D01*
X94633837Y-115864761D01*
X94538494Y-115728597D01*
X94371402Y-115561506D01*
X94371395Y-115561501D01*
X94177834Y-115425967D01*
X94177830Y-115425965D01*
X94177828Y-115425964D01*
X93963663Y-115326097D01*
X93963659Y-115326096D01*
X93963655Y-115326094D01*
X93735413Y-115264938D01*
X93735403Y-115264936D01*
X93500001Y-115244341D01*
X93499999Y-115244341D01*
X93264596Y-115264936D01*
X93264586Y-115264938D01*
X93036344Y-115326094D01*
X93036335Y-115326098D01*
X92822171Y-115425964D01*
X92822169Y-115425965D01*
X92628600Y-115561503D01*
X92506673Y-115683430D01*
X92445350Y-115716914D01*
X92375658Y-115711930D01*
X92319725Y-115670058D01*
X92302810Y-115639081D01*
X92255418Y-115512016D01*
X92250434Y-115442324D01*
X92283919Y-115381001D01*
X92284397Y-115380522D01*
X92284402Y-115380520D01*
X92396206Y-115268716D01*
X92396207Y-115268713D01*
X96814936Y-110849986D01*
X99175001Y-110849986D01*
X99185494Y-110952697D01*
X99240641Y-111119119D01*
X99240643Y-111119124D01*
X99332684Y-111268345D01*
X99456654Y-111392315D01*
X99605875Y-111484356D01*
X99605880Y-111484358D01*
X99772302Y-111539505D01*
X99772309Y-111539506D01*
X99875019Y-111549999D01*
X100087499Y-111549999D01*
X100087500Y-111549998D01*
X100087500Y-110400000D01*
X99175001Y-110400000D01*
X99175001Y-110849986D01*
X96814936Y-110849986D01*
X98214909Y-109450013D01*
X99175000Y-109450013D01*
X99175000Y-109900000D01*
X100087500Y-109900000D01*
X100087500Y-108750000D01*
X99875029Y-108750000D01*
X99875012Y-108750001D01*
X99772302Y-108760494D01*
X99605880Y-108815641D01*
X99605875Y-108815643D01*
X99456654Y-108907684D01*
X99332684Y-109031654D01*
X99240643Y-109180875D01*
X99240641Y-109180880D01*
X99185494Y-109347302D01*
X99185493Y-109347309D01*
X99175000Y-109450013D01*
X98214909Y-109450013D01*
X98730520Y-108934402D01*
X98809577Y-108797470D01*
X98850501Y-108644743D01*
X98850501Y-108486628D01*
X98850501Y-108479033D01*
X98850500Y-108479015D01*
X98850500Y-103565308D01*
X98850499Y-103565302D01*
X98848506Y-103557864D01*
X98848505Y-103557863D01*
X98848505Y-103557861D01*
X98844819Y-103544104D01*
X98846482Y-103474257D01*
X98885644Y-103416395D01*
X98949872Y-103388890D01*
X99018774Y-103400476D01*
G37*
G04 #@! TD.AperFunction*
G04 #@! TA.AperFunction,Conductor*
G36*
X63706522Y-98801103D02*
G01*
X63726915Y-98814209D01*
X63731339Y-98817707D01*
X63731344Y-98817712D01*
X63880666Y-98909814D01*
X64047203Y-98964999D01*
X64047207Y-98964999D01*
X64053480Y-98967078D01*
X64102157Y-98997103D01*
X64435325Y-99330272D01*
X64435328Y-99330275D01*
X64435331Y-99330277D01*
X64515947Y-99384142D01*
X64541873Y-99401465D01*
X64660256Y-99450501D01*
X64660260Y-99450501D01*
X64660261Y-99450502D01*
X64785928Y-99475500D01*
X64785931Y-99475500D01*
X65400500Y-99475500D01*
X65467539Y-99495185D01*
X65513294Y-99547989D01*
X65524500Y-99599500D01*
X65524500Y-105064071D01*
X65540251Y-105143253D01*
X65540251Y-105143254D01*
X65549496Y-105189737D01*
X65549498Y-105189742D01*
X65563420Y-105223351D01*
X65598535Y-105308127D01*
X65654391Y-105391722D01*
X65669726Y-105414673D01*
X65669727Y-105414674D01*
X66993373Y-106738319D01*
X67026858Y-106799642D01*
X67021874Y-106869334D01*
X66980002Y-106925267D01*
X66914538Y-106949684D01*
X66905692Y-106950000D01*
X66600029Y-106950000D01*
X66600012Y-106950001D01*
X66497302Y-106960494D01*
X66330880Y-107015641D01*
X66330875Y-107015643D01*
X66181654Y-107107684D01*
X66057682Y-107231656D01*
X66043038Y-107255399D01*
X65991090Y-107302123D01*
X65922127Y-107313344D01*
X65858045Y-107285501D01*
X65831962Y-107255399D01*
X65817317Y-107231656D01*
X65693345Y-107107684D01*
X65544124Y-107015643D01*
X65544119Y-107015641D01*
X65377697Y-106960494D01*
X65377690Y-106960493D01*
X65274986Y-106950000D01*
X65062500Y-106950000D01*
X65062500Y-108100000D01*
X68243829Y-108100000D01*
X68263663Y-108089169D01*
X68333355Y-108094151D01*
X68377707Y-108122653D01*
X68988181Y-108733127D01*
X69021666Y-108794450D01*
X69024500Y-108820807D01*
X69024500Y-109050000D01*
X69024501Y-109050019D01*
X69035000Y-109152796D01*
X69035001Y-109152799D01*
X69056774Y-109218504D01*
X69090186Y-109319334D01*
X69182288Y-109468656D01*
X69306344Y-109592712D01*
X69454927Y-109684358D01*
X69455671Y-109684817D01*
X69462216Y-109687869D01*
X69461228Y-109689987D01*
X69509448Y-109723372D01*
X69536272Y-109787887D01*
X69537000Y-109801307D01*
X69537000Y-110226570D01*
X69542989Y-110256675D01*
X69561805Y-110351267D01*
X69561999Y-110352244D01*
X69585581Y-110409175D01*
X69593050Y-110478644D01*
X69561775Y-110541124D01*
X69501686Y-110576776D01*
X69471020Y-110580628D01*
X69225665Y-110580628D01*
X68980383Y-110621557D01*
X68745197Y-110702297D01*
X68745188Y-110702300D01*
X68526493Y-110820652D01*
X68330257Y-110973389D01*
X68161833Y-111156345D01*
X68025826Y-111364521D01*
X67925936Y-111592246D01*
X67864892Y-111833303D01*
X67864890Y-111833315D01*
X67844357Y-112081122D01*
X67844357Y-112081133D01*
X67864890Y-112328940D01*
X67864892Y-112328952D01*
X67925936Y-112570009D01*
X68025826Y-112797734D01*
X68161833Y-113005910D01*
X68161836Y-113005913D01*
X68330256Y-113188866D01*
X68526491Y-113341602D01*
X68745190Y-113459956D01*
X68980386Y-113540699D01*
X69225665Y-113581628D01*
X69474335Y-113581628D01*
X69719614Y-113540699D01*
X69954810Y-113459956D01*
X70173509Y-113341602D01*
X70369744Y-113188866D01*
X70371769Y-113186665D01*
X70372819Y-113186034D01*
X70373514Y-113185395D01*
X70373645Y-113185537D01*
X70431653Y-113150675D01*
X70501491Y-113152772D01*
X70559109Y-113192295D01*
X70586212Y-113256693D01*
X70587000Y-113270647D01*
X70587000Y-115646318D01*
X70567315Y-115713357D01*
X70550681Y-115733999D01*
X69873787Y-116410893D01*
X69862518Y-116368836D01*
X69790110Y-116243420D01*
X69687708Y-116141018D01*
X69562292Y-116068610D01*
X69520233Y-116057340D01*
X70220055Y-115357517D01*
X70220055Y-115357516D01*
X70173236Y-115321075D01*
X70173231Y-115321072D01*
X69954614Y-115202763D01*
X69954603Y-115202758D01*
X69719493Y-115122044D01*
X69474293Y-115081128D01*
X69225707Y-115081128D01*
X68980506Y-115122044D01*
X68745396Y-115202758D01*
X68745385Y-115202763D01*
X68526770Y-115321071D01*
X68479943Y-115357517D01*
X69179766Y-116057340D01*
X69137708Y-116068610D01*
X69012292Y-116141018D01*
X68909890Y-116243420D01*
X68837482Y-116368836D01*
X68826212Y-116410894D01*
X68126563Y-115711245D01*
X68026267Y-115864761D01*
X68026265Y-115864765D01*
X67926412Y-116092410D01*
X67865387Y-116333389D01*
X67865385Y-116333398D01*
X67844859Y-116581122D01*
X67844859Y-116581133D01*
X67865385Y-116828857D01*
X67865387Y-116828866D01*
X67926412Y-117069845D01*
X68026267Y-117297495D01*
X68126562Y-117451009D01*
X68826212Y-116751361D01*
X68837482Y-116793420D01*
X68909890Y-116918836D01*
X69012292Y-117021238D01*
X69137708Y-117093646D01*
X69179766Y-117104915D01*
X68479943Y-117804737D01*
X68526768Y-117841183D01*
X68526771Y-117841185D01*
X68745385Y-117959492D01*
X68745396Y-117959497D01*
X68980506Y-118040211D01*
X69225707Y-118081128D01*
X69474293Y-118081128D01*
X69719493Y-118040211D01*
X69954603Y-117959497D01*
X69954614Y-117959492D01*
X70173230Y-117841184D01*
X70173236Y-117841179D01*
X70220055Y-117804738D01*
X70220056Y-117804737D01*
X69520233Y-117104915D01*
X69562292Y-117093646D01*
X69687708Y-117021238D01*
X69790110Y-116918836D01*
X69862518Y-116793420D01*
X69873787Y-116751361D01*
X70550681Y-117428255D01*
X70584166Y-117489578D01*
X70587000Y-117515936D01*
X70587000Y-121796980D01*
X70567315Y-121864019D01*
X70514511Y-121909774D01*
X70445353Y-121919718D01*
X70381797Y-121890693D01*
X70375319Y-121884661D01*
X66446545Y-117955887D01*
X66331807Y-117879222D01*
X66204332Y-117826421D01*
X66204322Y-117826418D01*
X66068996Y-117799500D01*
X66068994Y-117799500D01*
X66068993Y-117799500D01*
X63766180Y-117799500D01*
X63699141Y-117779815D01*
X63678499Y-117763181D01*
X63020233Y-117104915D01*
X63062292Y-117093646D01*
X63187708Y-117021238D01*
X63290110Y-116918836D01*
X63362518Y-116793420D01*
X63373787Y-116751362D01*
X64073435Y-117451010D01*
X64173733Y-117297492D01*
X64273587Y-117069845D01*
X64334612Y-116828866D01*
X64334614Y-116828857D01*
X64355141Y-116581133D01*
X64355141Y-116581122D01*
X64334614Y-116333398D01*
X64334612Y-116333389D01*
X64273587Y-116092410D01*
X64173732Y-115864760D01*
X64073435Y-115711244D01*
X63373787Y-116410893D01*
X63362518Y-116368836D01*
X63290110Y-116243420D01*
X63187708Y-116141018D01*
X63062292Y-116068610D01*
X63020233Y-116057340D01*
X63720055Y-115357517D01*
X63720055Y-115357516D01*
X63673236Y-115321075D01*
X63673231Y-115321072D01*
X63454614Y-115202763D01*
X63454603Y-115202758D01*
X63219493Y-115122044D01*
X62974293Y-115081128D01*
X62725707Y-115081128D01*
X62480506Y-115122044D01*
X62245396Y-115202758D01*
X62245385Y-115202763D01*
X62026770Y-115321071D01*
X61979943Y-115357517D01*
X62679766Y-116057340D01*
X62637708Y-116068610D01*
X62512292Y-116141018D01*
X62409890Y-116243420D01*
X62337482Y-116368836D01*
X62326212Y-116410894D01*
X61626562Y-115711244D01*
X61587291Y-115715317D01*
X61518579Y-115702653D01*
X61467621Y-115654851D01*
X61450500Y-115591979D01*
X61450500Y-113094125D01*
X61470185Y-113027086D01*
X61522989Y-112981331D01*
X61592147Y-112971387D01*
X61655703Y-113000412D01*
X61665721Y-113010133D01*
X61830256Y-113188866D01*
X62026491Y-113341602D01*
X62245190Y-113459956D01*
X62480386Y-113540699D01*
X62725665Y-113581628D01*
X62974335Y-113581628D01*
X63219614Y-113540699D01*
X63454810Y-113459956D01*
X63673509Y-113341602D01*
X63869744Y-113188866D01*
X64038164Y-113005913D01*
X64174173Y-112797735D01*
X64274063Y-112570009D01*
X64335108Y-112328949D01*
X64336909Y-112307214D01*
X64355643Y-112081133D01*
X64355643Y-112081122D01*
X64335109Y-111833315D01*
X64335107Y-111833303D01*
X64274063Y-111592246D01*
X64174173Y-111364521D01*
X64038166Y-111156345D01*
X64016557Y-111132872D01*
X63869744Y-110973390D01*
X63673509Y-110820654D01*
X63673507Y-110820653D01*
X63673506Y-110820652D01*
X63454811Y-110702300D01*
X63454802Y-110702297D01*
X63219616Y-110621557D01*
X62974335Y-110580628D01*
X62725665Y-110580628D01*
X62480383Y-110621557D01*
X62245197Y-110702297D01*
X62245188Y-110702300D01*
X62026493Y-110820652D01*
X61842834Y-110963600D01*
X61830256Y-110973390D01*
X61665730Y-111152113D01*
X61605843Y-111188104D01*
X61536004Y-111186003D01*
X61478388Y-111146479D01*
X61451287Y-111082080D01*
X61450500Y-111068130D01*
X61450500Y-109874499D01*
X61470185Y-109807460D01*
X61522989Y-109761705D01*
X61574500Y-109750499D01*
X62150002Y-109750499D01*
X62150008Y-109750499D01*
X62252797Y-109739999D01*
X62419334Y-109684814D01*
X62568656Y-109592712D01*
X62692712Y-109468656D01*
X62784814Y-109319334D01*
X62839999Y-109152797D01*
X62850500Y-109050009D01*
X62850500Y-109049986D01*
X63650001Y-109049986D01*
X63660494Y-109152697D01*
X63715641Y-109319119D01*
X63715643Y-109319124D01*
X63807684Y-109468345D01*
X63931654Y-109592315D01*
X64080875Y-109684356D01*
X64080880Y-109684358D01*
X64247302Y-109739505D01*
X64247309Y-109739506D01*
X64350019Y-109749999D01*
X64562499Y-109749999D01*
X65062500Y-109749999D01*
X65274972Y-109749999D01*
X65274986Y-109749998D01*
X65377697Y-109739505D01*
X65544119Y-109684358D01*
X65544124Y-109684356D01*
X65693345Y-109592315D01*
X65817317Y-109468343D01*
X65831961Y-109444602D01*
X65883908Y-109397877D01*
X65952871Y-109386654D01*
X66016953Y-109414497D01*
X66043039Y-109444602D01*
X66057682Y-109468343D01*
X66181654Y-109592315D01*
X66330875Y-109684356D01*
X66330880Y-109684358D01*
X66497302Y-109739505D01*
X66497309Y-109739506D01*
X66600019Y-109749999D01*
X66812499Y-109749999D01*
X67312500Y-109749999D01*
X67524972Y-109749999D01*
X67524986Y-109749998D01*
X67627697Y-109739505D01*
X67794119Y-109684358D01*
X67794124Y-109684356D01*
X67943345Y-109592315D01*
X68067315Y-109468345D01*
X68159356Y-109319124D01*
X68159358Y-109319119D01*
X68214505Y-109152697D01*
X68214506Y-109152690D01*
X68224999Y-109049986D01*
X68225000Y-109049973D01*
X68225000Y-108600000D01*
X67312500Y-108600000D01*
X67312500Y-109749999D01*
X66812499Y-109749999D01*
X66812500Y-109749998D01*
X66812500Y-108600000D01*
X65062500Y-108600000D01*
X65062500Y-109749999D01*
X64562499Y-109749999D01*
X64562500Y-109749998D01*
X64562500Y-108600000D01*
X63650001Y-108600000D01*
X63650001Y-109049986D01*
X62850500Y-109049986D01*
X62850499Y-107650013D01*
X63650000Y-107650013D01*
X63650000Y-108100000D01*
X64562500Y-108100000D01*
X64562500Y-106950000D01*
X64350029Y-106950000D01*
X64350012Y-106950001D01*
X64247302Y-106960494D01*
X64080880Y-107015641D01*
X64080875Y-107015643D01*
X63931654Y-107107684D01*
X63807684Y-107231654D01*
X63715643Y-107380875D01*
X63715641Y-107380880D01*
X63660494Y-107547302D01*
X63660493Y-107547309D01*
X63650000Y-107650013D01*
X62850499Y-107650013D01*
X62850499Y-107649992D01*
X62839999Y-107547203D01*
X62784814Y-107380666D01*
X62692712Y-107231344D01*
X62568656Y-107107288D01*
X62419334Y-107015186D01*
X62252797Y-106960001D01*
X62252795Y-106960000D01*
X62150016Y-106949500D01*
X62150009Y-106949500D01*
X61624500Y-106949500D01*
X61557461Y-106929815D01*
X61511706Y-106877011D01*
X61500500Y-106825500D01*
X61500500Y-105889147D01*
X61520185Y-105822108D01*
X61572989Y-105776353D01*
X61637292Y-105765809D01*
X61676562Y-105769882D01*
X62376212Y-105070233D01*
X62387482Y-105112292D01*
X62459890Y-105237708D01*
X62562292Y-105340110D01*
X62687708Y-105412518D01*
X62729766Y-105423787D01*
X62029943Y-106123609D01*
X62076768Y-106160055D01*
X62076771Y-106160057D01*
X62295385Y-106278364D01*
X62295396Y-106278369D01*
X62530506Y-106359083D01*
X62775707Y-106400000D01*
X63024293Y-106400000D01*
X63269493Y-106359083D01*
X63504603Y-106278369D01*
X63504614Y-106278364D01*
X63723230Y-106160056D01*
X63723236Y-106160051D01*
X63770055Y-106123610D01*
X63770056Y-106123609D01*
X63070233Y-105423787D01*
X63112292Y-105412518D01*
X63237708Y-105340110D01*
X63340110Y-105237708D01*
X63412518Y-105112292D01*
X63423787Y-105070234D01*
X64123435Y-105769882D01*
X64223733Y-105616364D01*
X64323587Y-105388717D01*
X64384612Y-105147738D01*
X64384614Y-105147729D01*
X64405141Y-104900005D01*
X64405141Y-104899994D01*
X64384614Y-104652270D01*
X64384612Y-104652261D01*
X64323587Y-104411282D01*
X64223732Y-104183632D01*
X64123435Y-104030116D01*
X63423787Y-104729765D01*
X63412518Y-104687708D01*
X63340110Y-104562292D01*
X63237708Y-104459890D01*
X63112292Y-104387482D01*
X63070233Y-104376212D01*
X63770055Y-103676389D01*
X63770055Y-103676388D01*
X63723236Y-103639947D01*
X63723231Y-103639944D01*
X63504614Y-103521635D01*
X63504603Y-103521630D01*
X63269493Y-103440916D01*
X63024293Y-103400000D01*
X62775707Y-103400000D01*
X62530506Y-103440916D01*
X62295396Y-103521630D01*
X62295385Y-103521635D01*
X62076770Y-103639943D01*
X62029943Y-103676389D01*
X62729766Y-104376212D01*
X62687708Y-104387482D01*
X62562292Y-104459890D01*
X62459890Y-104562292D01*
X62387482Y-104687708D01*
X62376212Y-104729766D01*
X61676562Y-104030116D01*
X61637291Y-104034189D01*
X61568579Y-104021525D01*
X61517621Y-103973723D01*
X61500500Y-103910851D01*
X61500500Y-101412997D01*
X61520185Y-101345958D01*
X61572989Y-101300203D01*
X61642147Y-101290259D01*
X61705703Y-101319284D01*
X61715721Y-101329005D01*
X61880256Y-101507738D01*
X62076491Y-101660474D01*
X62295190Y-101778828D01*
X62530386Y-101859571D01*
X62775665Y-101900500D01*
X63024335Y-101900500D01*
X63269614Y-101859571D01*
X63504810Y-101778828D01*
X63723509Y-101660474D01*
X63919744Y-101507738D01*
X64088164Y-101324785D01*
X64224173Y-101116607D01*
X64324063Y-100888881D01*
X64385108Y-100647821D01*
X64385808Y-100639377D01*
X64405643Y-100400005D01*
X64405643Y-100399994D01*
X64385109Y-100152187D01*
X64385107Y-100152175D01*
X64324063Y-99911118D01*
X64224173Y-99683393D01*
X64088166Y-99475217D01*
X64065412Y-99450500D01*
X63919744Y-99292262D01*
X63723509Y-99139526D01*
X63723507Y-99139525D01*
X63723506Y-99139524D01*
X63551670Y-99046531D01*
X63502080Y-98997311D01*
X63486972Y-98929094D01*
X63511143Y-98863539D01*
X63545591Y-98831938D01*
X63568656Y-98817712D01*
X63568665Y-98817702D01*
X63573085Y-98814209D01*
X63637879Y-98788066D01*
X63706522Y-98801103D01*
G37*
G04 #@! TD.AperFunction*
G04 #@! TA.AperFunction,Conductor*
G36*
X102936174Y-112673388D02*
G01*
X102952597Y-112687187D01*
X103513181Y-113247771D01*
X103546666Y-113309094D01*
X103549500Y-113335452D01*
X103549500Y-114225001D01*
X103549501Y-114225019D01*
X103560000Y-114327796D01*
X103560001Y-114327799D01*
X103615185Y-114494331D01*
X103615187Y-114494336D01*
X103707289Y-114643657D01*
X103831344Y-114767712D01*
X103960984Y-114847674D01*
X104007709Y-114899622D01*
X104018932Y-114968584D01*
X103991089Y-115032667D01*
X103960986Y-115058751D01*
X103881656Y-115107682D01*
X103757684Y-115231654D01*
X103665643Y-115380875D01*
X103665641Y-115380880D01*
X103610494Y-115547302D01*
X103610493Y-115547309D01*
X103600000Y-115650013D01*
X103600000Y-116100000D01*
X104638500Y-116100000D01*
X104705539Y-116119685D01*
X104751294Y-116172489D01*
X104762500Y-116224000D01*
X104762500Y-116476000D01*
X104742815Y-116543039D01*
X104690011Y-116588794D01*
X104638500Y-116600000D01*
X103600001Y-116600000D01*
X103600001Y-117049986D01*
X103610494Y-117152697D01*
X103665641Y-117319119D01*
X103665643Y-117319124D01*
X103757684Y-117468345D01*
X103881654Y-117592315D01*
X104030875Y-117684356D01*
X104030880Y-117684358D01*
X104197302Y-117739505D01*
X104197310Y-117739506D01*
X104230341Y-117742881D01*
X104295033Y-117769276D01*
X104335185Y-117826457D01*
X104338049Y-117896268D01*
X104305421Y-117953920D01*
X102499681Y-119759661D01*
X102438358Y-119793146D01*
X102368666Y-119788162D01*
X102312733Y-119746290D01*
X102288316Y-119680826D01*
X102288000Y-119671980D01*
X102288000Y-117801307D01*
X102307685Y-117734268D01*
X102360489Y-117688513D01*
X102366281Y-117686238D01*
X102369328Y-117684817D01*
X102369331Y-117684814D01*
X102369334Y-117684814D01*
X102518656Y-117592712D01*
X102642712Y-117468656D01*
X102734814Y-117319334D01*
X102789999Y-117152797D01*
X102800500Y-117050009D01*
X102800499Y-115649992D01*
X102799735Y-115642517D01*
X102789999Y-115547203D01*
X102789998Y-115547200D01*
X102774523Y-115500500D01*
X102734814Y-115380666D01*
X102642712Y-115231344D01*
X102518656Y-115107288D01*
X102426991Y-115050749D01*
X102389490Y-115027618D01*
X102342766Y-114975670D01*
X102331543Y-114906707D01*
X102359387Y-114842625D01*
X102389490Y-114816541D01*
X102468656Y-114767712D01*
X102592712Y-114643656D01*
X102684814Y-114494334D01*
X102739999Y-114327797D01*
X102750500Y-114225009D01*
X102750499Y-112874992D01*
X102741558Y-112787468D01*
X102754327Y-112718777D01*
X102802208Y-112667893D01*
X102869998Y-112650972D01*
X102936174Y-112673388D01*
G37*
G04 #@! TD.AperFunction*
G04 #@! TA.AperFunction,Conductor*
G36*
X82730096Y-89594670D02*
G01*
X82766303Y-89617003D01*
X82927292Y-89670349D01*
X83026655Y-89680500D01*
X83573344Y-89680499D01*
X83573352Y-89680498D01*
X83573355Y-89680498D01*
X83627760Y-89674940D01*
X83672708Y-89670349D01*
X83811498Y-89624358D01*
X83881324Y-89621957D01*
X83941366Y-89657689D01*
X83972559Y-89720209D01*
X83974500Y-89742065D01*
X83974500Y-92535775D01*
X83974500Y-92658989D01*
X83974500Y-92658991D01*
X83974499Y-92658991D01*
X83980348Y-92688390D01*
X83980348Y-92688392D01*
X83998535Y-92779827D01*
X83998537Y-92779834D01*
X84008309Y-92803425D01*
X84010631Y-92809029D01*
X84010632Y-92809034D01*
X84045685Y-92893662D01*
X84045686Y-92893664D01*
X84045688Y-92893668D01*
X84053260Y-92905000D01*
X84073263Y-92934937D01*
X84073265Y-92934939D01*
X84114141Y-92996114D01*
X84114144Y-92996118D01*
X84205586Y-93087560D01*
X84205608Y-93087580D01*
X84366879Y-93248851D01*
X84400364Y-93310174D01*
X84402519Y-93323570D01*
X84407872Y-93374500D01*
X84420167Y-93491479D01*
X84420168Y-93491482D01*
X84478659Y-93671500D01*
X84478662Y-93671507D01*
X84573308Y-93835439D01*
X84631317Y-93899864D01*
X84699970Y-93976111D01*
X84853106Y-94087371D01*
X84853111Y-94087374D01*
X85026033Y-94164365D01*
X85026038Y-94164367D01*
X85211195Y-94203723D01*
X85211196Y-94203723D01*
X85400485Y-94203723D01*
X85400487Y-94203723D01*
X85585644Y-94164367D01*
X85758571Y-94087374D01*
X85822444Y-94040967D01*
X85888250Y-94017486D01*
X85945766Y-94028005D01*
X85998371Y-94051426D01*
X86020197Y-94061144D01*
X86205354Y-94100500D01*
X86205355Y-94100500D01*
X86394644Y-94100500D01*
X86394646Y-94100500D01*
X86579803Y-94061144D01*
X86752730Y-93984151D01*
X86905871Y-93872888D01*
X87032533Y-93732216D01*
X87127179Y-93568284D01*
X87137610Y-93536182D01*
X87177048Y-93478506D01*
X87241406Y-93451308D01*
X87255541Y-93450500D01*
X87344644Y-93450500D01*
X87344646Y-93450500D01*
X87529803Y-93411144D01*
X87702730Y-93334151D01*
X87855871Y-93222888D01*
X87982533Y-93082216D01*
X88077179Y-92918284D01*
X88081249Y-92905757D01*
X88120684Y-92848083D01*
X88185042Y-92820883D01*
X88224958Y-92822783D01*
X88355354Y-92850500D01*
X88355355Y-92850500D01*
X88544644Y-92850500D01*
X88544646Y-92850500D01*
X88729803Y-92811144D01*
X88902730Y-92734151D01*
X89055871Y-92622888D01*
X89128744Y-92541954D01*
X89188229Y-92505306D01*
X89258086Y-92506636D01*
X89268793Y-92510687D01*
X89270188Y-92511140D01*
X89270197Y-92511144D01*
X89455354Y-92550500D01*
X89455355Y-92550500D01*
X89644644Y-92550500D01*
X89644646Y-92550500D01*
X89829803Y-92511144D01*
X90002730Y-92434151D01*
X90155871Y-92322888D01*
X90282533Y-92182216D01*
X90377179Y-92018284D01*
X90380613Y-92007716D01*
X90397849Y-91954669D01*
X90437286Y-91896993D01*
X90501644Y-91869794D01*
X90570491Y-91881708D01*
X90621967Y-91928952D01*
X90623167Y-91930986D01*
X90667467Y-92007716D01*
X90749357Y-92098664D01*
X90794129Y-92148388D01*
X90947265Y-92259648D01*
X90947270Y-92259651D01*
X91120192Y-92336642D01*
X91120197Y-92336644D01*
X91305354Y-92376000D01*
X91305355Y-92376000D01*
X91494644Y-92376000D01*
X91494646Y-92376000D01*
X91624720Y-92348352D01*
X91694386Y-92353668D01*
X91750120Y-92395805D01*
X91774225Y-92461385D01*
X91774500Y-92469642D01*
X91774500Y-100261607D01*
X91776765Y-100272994D01*
X91776765Y-100272996D01*
X91793247Y-100355857D01*
X91798537Y-100382452D01*
X91805803Y-100399994D01*
X91812347Y-100415792D01*
X91812347Y-100415793D01*
X91845685Y-100496280D01*
X91845687Y-100496283D01*
X91845688Y-100496286D01*
X91849978Y-100502707D01*
X91879914Y-100547507D01*
X91879915Y-100547509D01*
X91914141Y-100598733D01*
X92005586Y-100690178D01*
X92005608Y-100690198D01*
X94064673Y-102749263D01*
X94094698Y-102797940D01*
X94122513Y-102881881D01*
X94142997Y-102943697D01*
X94143001Y-102943703D01*
X94165329Y-102979904D01*
X94183769Y-103047297D01*
X94165329Y-103110096D01*
X94143001Y-103146296D01*
X94142996Y-103146305D01*
X94089647Y-103307303D01*
X94089463Y-103308165D01*
X94089203Y-103308644D01*
X94087522Y-103313718D01*
X94086616Y-103313417D01*
X94056170Y-103369593D01*
X94055897Y-103369867D01*
X93911286Y-103514478D01*
X93799481Y-103626282D01*
X93799475Y-103626290D01*
X93763622Y-103688391D01*
X93763622Y-103688393D01*
X93720423Y-103763214D01*
X93720423Y-103763215D01*
X93679499Y-103915943D01*
X93679499Y-103915945D01*
X93679499Y-104084046D01*
X93679500Y-104084059D01*
X93679500Y-104764099D01*
X93659815Y-104831138D01*
X93643181Y-104851780D01*
X89434682Y-109060279D01*
X89373359Y-109093764D01*
X89347001Y-109096598D01*
X78151999Y-109096598D01*
X78084960Y-109076913D01*
X78039205Y-109024109D01*
X78029261Y-108954951D01*
X78058286Y-108891395D01*
X78064318Y-108884917D01*
X78390574Y-108558661D01*
X79408506Y-107540727D01*
X79408511Y-107540724D01*
X79418714Y-107530520D01*
X79418716Y-107530520D01*
X79530520Y-107418716D01*
X79609577Y-107281784D01*
X79640377Y-107166835D01*
X79650500Y-107129058D01*
X79650500Y-106970943D01*
X79650500Y-101146022D01*
X86107528Y-101146022D01*
X86107529Y-101146023D01*
X86260613Y-101193726D01*
X86260620Y-101193727D01*
X86329639Y-101199999D01*
X89770369Y-101199999D01*
X89839375Y-101193729D01*
X89839382Y-101193727D01*
X89992471Y-101146023D01*
X89992472Y-101146022D01*
X88050000Y-99203551D01*
X88049999Y-99203551D01*
X86107528Y-101146022D01*
X79650500Y-101146022D01*
X79650500Y-97129639D01*
X85700000Y-97129639D01*
X85700000Y-100570370D01*
X85706270Y-100639377D01*
X85753976Y-100792472D01*
X87696448Y-98850001D01*
X87696448Y-98849999D01*
X87696447Y-98849998D01*
X88403551Y-98849998D01*
X88403551Y-98849999D01*
X90346022Y-100792469D01*
X90346023Y-100792469D01*
X90393726Y-100639386D01*
X90393727Y-100639379D01*
X90399999Y-100570360D01*
X90399999Y-97129629D01*
X90393729Y-97060624D01*
X90393727Y-97060617D01*
X90346023Y-96907527D01*
X90346022Y-96907526D01*
X88403551Y-98849998D01*
X87696447Y-98849998D01*
X85753976Y-96907528D01*
X85706271Y-97060621D01*
X85700000Y-97129639D01*
X79650500Y-97129639D01*
X79650500Y-96553976D01*
X86107526Y-96553976D01*
X88049999Y-98496448D01*
X88050000Y-98496448D01*
X89992470Y-96553976D01*
X89992469Y-96553975D01*
X89839382Y-96506272D01*
X89839384Y-96506272D01*
X89770360Y-96500000D01*
X86329629Y-96500000D01*
X86260622Y-96506270D01*
X86107526Y-96553976D01*
X79650500Y-96553976D01*
X79650500Y-90120943D01*
X79609577Y-89968216D01*
X79550850Y-89866498D01*
X79534378Y-89798599D01*
X79557231Y-89732572D01*
X79612152Y-89689381D01*
X79658238Y-89680499D01*
X79763338Y-89680499D01*
X79763344Y-89680499D01*
X79763352Y-89680498D01*
X79763355Y-89680498D01*
X79817760Y-89674940D01*
X79862708Y-89670349D01*
X80023697Y-89617003D01*
X80059903Y-89594670D01*
X80127293Y-89576229D01*
X80190096Y-89594670D01*
X80226303Y-89617003D01*
X80387292Y-89670349D01*
X80486655Y-89680500D01*
X81033344Y-89680499D01*
X81033352Y-89680498D01*
X81033355Y-89680498D01*
X81087760Y-89674940D01*
X81132708Y-89670349D01*
X81293697Y-89617003D01*
X81329903Y-89594670D01*
X81397293Y-89576229D01*
X81460096Y-89594670D01*
X81496303Y-89617003D01*
X81657292Y-89670349D01*
X81756655Y-89680500D01*
X82303344Y-89680499D01*
X82303352Y-89680498D01*
X82303355Y-89680498D01*
X82357760Y-89674940D01*
X82402708Y-89670349D01*
X82563697Y-89617003D01*
X82599903Y-89594670D01*
X82667293Y-89576229D01*
X82730096Y-89594670D01*
G37*
G04 #@! TD.AperFunction*
G04 #@! TA.AperFunction,Conductor*
G36*
X77476557Y-106122403D02*
G01*
X77520904Y-106150904D01*
X77699094Y-106329094D01*
X77732579Y-106390417D01*
X77727595Y-106460109D01*
X77699094Y-106504456D01*
X77015695Y-107187855D01*
X77036666Y-107189998D01*
X77036686Y-107189999D01*
X77761402Y-107189999D01*
X77828441Y-107209683D01*
X77874196Y-107262487D01*
X77884140Y-107331646D01*
X77855115Y-107395202D01*
X77849083Y-107401680D01*
X77112584Y-108138181D01*
X77051261Y-108171666D01*
X77024903Y-108174500D01*
X75636432Y-108174500D01*
X75569393Y-108154815D01*
X75523638Y-108102011D01*
X75513694Y-108032853D01*
X75537165Y-107976190D01*
X75540679Y-107971494D01*
X75543796Y-107967331D01*
X75594091Y-107832483D01*
X75600500Y-107772873D01*
X75600500Y-107624500D01*
X75620185Y-107557461D01*
X75672989Y-107511706D01*
X75724500Y-107500500D01*
X75936607Y-107500500D01*
X75997029Y-107488481D01*
X76057452Y-107476463D01*
X76057455Y-107476461D01*
X76057458Y-107476461D01*
X76090787Y-107462654D01*
X76090786Y-107462654D01*
X76090792Y-107462652D01*
X76171286Y-107429312D01*
X76244088Y-107380666D01*
X76273733Y-107360858D01*
X76360858Y-107273733D01*
X76360859Y-107273730D01*
X76367925Y-107266665D01*
X76367928Y-107266661D01*
X76648729Y-106985860D01*
X76648733Y-106985858D01*
X76735858Y-106898733D01*
X76792878Y-106813397D01*
X76792880Y-106813395D01*
X76804308Y-106796292D01*
X76804308Y-106796291D01*
X76804312Y-106796286D01*
X76839605Y-106711080D01*
X76851463Y-106682452D01*
X76853426Y-106672581D01*
X76885806Y-106610668D01*
X76887364Y-106609082D01*
X77345542Y-106150904D01*
X77406865Y-106117419D01*
X77476557Y-106122403D01*
G37*
G04 #@! TD.AperFunction*
G04 #@! TA.AperFunction,Conductor*
G36*
X70623435Y-105769882D02*
G01*
X70625011Y-105769719D01*
X70674837Y-105727196D01*
X70744069Y-105717772D01*
X70807404Y-105747274D01*
X70844736Y-105806334D01*
X70849500Y-105840374D01*
X70849500Y-106832566D01*
X70829815Y-106899605D01*
X70777011Y-106945360D01*
X70712899Y-106955924D01*
X70650012Y-106949500D01*
X69724998Y-106949500D01*
X69724980Y-106949501D01*
X69622203Y-106960000D01*
X69622200Y-106960001D01*
X69455668Y-107015185D01*
X69455659Y-107015189D01*
X69325399Y-107095534D01*
X69258007Y-107113974D01*
X69191343Y-107093051D01*
X69172622Y-107077676D01*
X68477293Y-106382347D01*
X68443808Y-106321024D01*
X68448792Y-106251332D01*
X68490664Y-106195399D01*
X68556128Y-106170982D01*
X68623991Y-106185611D01*
X68795385Y-106278364D01*
X68795396Y-106278369D01*
X69030506Y-106359083D01*
X69275707Y-106400000D01*
X69524293Y-106400000D01*
X69769493Y-106359083D01*
X70004603Y-106278369D01*
X70004614Y-106278364D01*
X70223230Y-106160056D01*
X70223236Y-106160051D01*
X70270055Y-106123610D01*
X70270056Y-106123609D01*
X69570233Y-105423787D01*
X69612292Y-105412518D01*
X69737708Y-105340110D01*
X69840110Y-105237708D01*
X69912518Y-105112292D01*
X69923787Y-105070234D01*
X70623435Y-105769882D01*
G37*
G04 #@! TD.AperFunction*
G04 #@! TA.AperFunction,Conductor*
G36*
X68579853Y-98966124D02*
G01*
X68611046Y-99028645D01*
X68603485Y-99098104D01*
X68565149Y-99148353D01*
X68380262Y-99292256D01*
X68380259Y-99292259D01*
X68211833Y-99475217D01*
X68075826Y-99683393D01*
X67975936Y-99911118D01*
X67914892Y-100152175D01*
X67914890Y-100152187D01*
X67894357Y-100399994D01*
X67894357Y-100400005D01*
X67914890Y-100647812D01*
X67914892Y-100647824D01*
X67975936Y-100888881D01*
X68075826Y-101116606D01*
X68211833Y-101324782D01*
X68217874Y-101331344D01*
X68380256Y-101507738D01*
X68576491Y-101660474D01*
X68795190Y-101778828D01*
X69030386Y-101859571D01*
X69275665Y-101900500D01*
X69524335Y-101900500D01*
X69769608Y-101859572D01*
X69769607Y-101859572D01*
X69769614Y-101859571D01*
X69875607Y-101823182D01*
X69945402Y-101820033D01*
X70003548Y-101852783D01*
X70813181Y-102662416D01*
X70846666Y-102723739D01*
X70849500Y-102750097D01*
X70849500Y-103959624D01*
X70829815Y-104026663D01*
X70777011Y-104072418D01*
X70707853Y-104082362D01*
X70644297Y-104053337D01*
X70624082Y-104030183D01*
X70623435Y-104030116D01*
X69923787Y-104729765D01*
X69912518Y-104687708D01*
X69840110Y-104562292D01*
X69737708Y-104459890D01*
X69612292Y-104387482D01*
X69570233Y-104376212D01*
X70270055Y-103676389D01*
X70270055Y-103676388D01*
X70223236Y-103639947D01*
X70223231Y-103639944D01*
X70004614Y-103521635D01*
X70004603Y-103521630D01*
X69769493Y-103440916D01*
X69524293Y-103400000D01*
X69275707Y-103400000D01*
X69030506Y-103440916D01*
X68795396Y-103521630D01*
X68795385Y-103521635D01*
X68576770Y-103639943D01*
X68529943Y-103676389D01*
X69229766Y-104376212D01*
X69187708Y-104387482D01*
X69062292Y-104459890D01*
X68959890Y-104562292D01*
X68887482Y-104687708D01*
X68876212Y-104729766D01*
X68176563Y-104030117D01*
X68076267Y-104183633D01*
X68076265Y-104183637D01*
X67976412Y-104411282D01*
X67915387Y-104652261D01*
X67915385Y-104652270D01*
X67894859Y-104899994D01*
X67894859Y-104900005D01*
X67915385Y-105147729D01*
X67915387Y-105147738D01*
X67976412Y-105388717D01*
X68076267Y-105616367D01*
X68110118Y-105668180D01*
X68130306Y-105735069D01*
X68111125Y-105802255D01*
X68058666Y-105848405D01*
X67989585Y-105858868D01*
X67925813Y-105830321D01*
X67918628Y-105823682D01*
X66861819Y-104766873D01*
X66828334Y-104705550D01*
X66825500Y-104679192D01*
X66825500Y-99599500D01*
X66845185Y-99532461D01*
X66897989Y-99486706D01*
X66949500Y-99475500D01*
X67614071Y-99475500D01*
X67705740Y-99457265D01*
X67739744Y-99450501D01*
X67858127Y-99401465D01*
X67884053Y-99384142D01*
X67964669Y-99330277D01*
X68297844Y-98997100D01*
X68346517Y-98967079D01*
X68352792Y-98964999D01*
X68352797Y-98964999D01*
X68449985Y-98932793D01*
X68519812Y-98930392D01*
X68579853Y-98966124D01*
G37*
G04 #@! TD.AperFunction*
G04 #@! TA.AperFunction,Conductor*
G36*
X98748098Y-85744952D02*
G01*
X98804031Y-85786824D01*
X98820946Y-85817801D01*
X98856202Y-85912328D01*
X98856206Y-85912335D01*
X98942452Y-86027544D01*
X98942455Y-86027547D01*
X99057664Y-86113793D01*
X99057671Y-86113797D01*
X99091089Y-86126261D01*
X99192517Y-86164091D01*
X99227596Y-86167862D01*
X99292144Y-86194599D01*
X99331993Y-86251991D01*
X99334488Y-86321816D01*
X99298836Y-86381905D01*
X99285464Y-86392725D01*
X99260858Y-86409954D01*
X99099954Y-86570858D01*
X98969432Y-86757265D01*
X98969431Y-86757267D01*
X98873261Y-86963502D01*
X98873258Y-86963511D01*
X98814366Y-87183302D01*
X98814364Y-87183313D01*
X98794532Y-87409998D01*
X98794532Y-87410001D01*
X98814364Y-87636686D01*
X98814366Y-87636697D01*
X98873258Y-87856488D01*
X98873261Y-87856497D01*
X98969431Y-88062732D01*
X98969432Y-88062734D01*
X99099954Y-88249141D01*
X99260858Y-88410045D01*
X99271032Y-88417169D01*
X99447266Y-88540568D01*
X99505275Y-88567618D01*
X99557714Y-88613791D01*
X99576866Y-88680984D01*
X99556650Y-88747865D01*
X99505275Y-88792382D01*
X99447267Y-88819431D01*
X99447265Y-88819432D01*
X99260858Y-88949954D01*
X99099954Y-89110858D01*
X98969432Y-89297265D01*
X98969431Y-89297267D01*
X98873261Y-89503502D01*
X98873258Y-89503511D01*
X98814366Y-89723302D01*
X98814364Y-89723313D01*
X98794532Y-89949998D01*
X98794532Y-89950001D01*
X98814364Y-90176686D01*
X98814366Y-90176697D01*
X98873258Y-90396488D01*
X98873261Y-90396497D01*
X98969431Y-90602732D01*
X98969432Y-90602734D01*
X99099954Y-90789141D01*
X99260858Y-90950045D01*
X99260861Y-90950047D01*
X99447266Y-91080568D01*
X99505865Y-91107893D01*
X99558305Y-91154065D01*
X99577457Y-91221258D01*
X99557242Y-91288139D01*
X99505867Y-91332657D01*
X99447515Y-91359867D01*
X99261179Y-91490342D01*
X99100342Y-91651179D01*
X98969865Y-91837517D01*
X98873734Y-92043673D01*
X98873730Y-92043682D01*
X98821127Y-92239999D01*
X98821128Y-92240000D01*
X99784314Y-92240000D01*
X99779920Y-92244394D01*
X99727259Y-92335606D01*
X99700000Y-92437339D01*
X99700000Y-92542661D01*
X99727259Y-92644394D01*
X99779920Y-92735606D01*
X99784314Y-92740000D01*
X98821128Y-92740000D01*
X98873730Y-92936317D01*
X98873734Y-92936326D01*
X98969865Y-93142482D01*
X99100342Y-93328820D01*
X99261179Y-93489657D01*
X99447517Y-93620134D01*
X99506457Y-93647618D01*
X99558896Y-93693790D01*
X99578048Y-93760984D01*
X99557832Y-93827865D01*
X99506457Y-93872382D01*
X99447517Y-93899865D01*
X99261179Y-94030342D01*
X99100342Y-94191179D01*
X98969865Y-94377517D01*
X98873734Y-94583673D01*
X98873730Y-94583682D01*
X98821127Y-94779999D01*
X98821128Y-94780000D01*
X99784314Y-94780000D01*
X99779920Y-94784394D01*
X99727259Y-94875606D01*
X99700000Y-94977339D01*
X99700000Y-95082661D01*
X99727259Y-95184394D01*
X99779920Y-95275606D01*
X99784314Y-95280000D01*
X98821128Y-95280000D01*
X98824720Y-95293407D01*
X98823057Y-95363256D01*
X98783894Y-95421119D01*
X98719666Y-95448623D01*
X98704945Y-95449500D01*
X98599500Y-95449500D01*
X98532461Y-95429815D01*
X98486706Y-95377011D01*
X98475500Y-95325500D01*
X98475500Y-91345945D01*
X98475498Y-91345936D01*
X98471940Y-91332657D01*
X98469104Y-91322070D01*
X98434577Y-91193215D01*
X98393973Y-91122888D01*
X98355520Y-91056284D01*
X98243716Y-90944480D01*
X98243715Y-90944479D01*
X98239385Y-90940149D01*
X98239374Y-90940139D01*
X96647590Y-89348355D01*
X96647588Y-89348352D01*
X96558332Y-89259096D01*
X96528306Y-89210415D01*
X96517004Y-89176304D01*
X96517003Y-89176302D01*
X96427970Y-89031959D01*
X96427967Y-89031955D01*
X96308044Y-88912032D01*
X96308040Y-88912029D01*
X96163705Y-88823001D01*
X96163699Y-88822998D01*
X96163697Y-88822997D01*
X96156853Y-88820729D01*
X96002709Y-88769651D01*
X95915873Y-88760779D01*
X95851182Y-88734382D01*
X95811031Y-88677201D01*
X95808168Y-88607390D01*
X95840794Y-88549742D01*
X98617085Y-85773451D01*
X98678406Y-85739968D01*
X98748098Y-85744952D01*
G37*
G04 #@! TD.AperFunction*
G04 #@! TA.AperFunction,Conductor*
G36*
X100350000Y-94714314D02*
G01*
X100345606Y-94709920D01*
X100254394Y-94657259D01*
X100152661Y-94630000D01*
X100047339Y-94630000D01*
X99945606Y-94657259D01*
X99854394Y-94709920D01*
X99850000Y-94714314D01*
X99850000Y-92805686D01*
X99854394Y-92810080D01*
X99945606Y-92862741D01*
X100047339Y-92890000D01*
X100152661Y-92890000D01*
X100254394Y-92862741D01*
X100345606Y-92810080D01*
X100350000Y-92805686D01*
X100350000Y-94714314D01*
G37*
G04 #@! TD.AperFunction*
G04 #@! TA.AperFunction,Conductor*
G36*
X107970000Y-94714314D02*
G01*
X107965606Y-94709920D01*
X107874394Y-94657259D01*
X107772661Y-94630000D01*
X107667339Y-94630000D01*
X107565606Y-94657259D01*
X107474394Y-94709920D01*
X107470000Y-94714314D01*
X107470000Y-92805686D01*
X107474394Y-92810080D01*
X107565606Y-92862741D01*
X107667339Y-92890000D01*
X107772661Y-92890000D01*
X107874394Y-92862741D01*
X107965606Y-92810080D01*
X107970000Y-92805686D01*
X107970000Y-94714314D01*
G37*
G04 #@! TD.AperFunction*
M02*
