G04 #@! TF.GenerationSoftware,KiCad,Pcbnew,8.0.7-8.0.7-0~ubuntu22.04.1*
G04 #@! TF.CreationDate,2025-01-30T21:49:18+01:00*
G04 #@! TF.ProjectId,linefollower_pcb,6c696e65-666f-46c6-9c6f-7765725f7063,rev?*
G04 #@! TF.SameCoordinates,Original*
G04 #@! TF.FileFunction,Copper,L2,Bot*
G04 #@! TF.FilePolarity,Positive*
%FSLAX46Y46*%
G04 Gerber Fmt 4.6, Leading zero omitted, Abs format (unit mm)*
G04 Created by KiCad (PCBNEW 8.0.7-8.0.7-0~ubuntu22.04.1) date 2025-01-30 21:49:18*
%MOMM*%
%LPD*%
G01*
G04 APERTURE LIST*
G04 #@! TA.AperFunction,ComponentPad*
%ADD10R,1.700000X1.700000*%
G04 #@! TD*
G04 #@! TA.AperFunction,ComponentPad*
%ADD11O,1.700000X1.700000*%
G04 #@! TD*
G04 #@! TA.AperFunction,ComponentPad*
%ADD12O,0.900000X1.600000*%
G04 #@! TD*
G04 #@! TA.AperFunction,ComponentPad*
%ADD13C,0.800000*%
G04 #@! TD*
G04 #@! TA.AperFunction,ComponentPad*
%ADD14C,5.400000*%
G04 #@! TD*
G04 #@! TA.AperFunction,ComponentPad*
%ADD15R,1.600000X1.600000*%
G04 #@! TD*
G04 #@! TA.AperFunction,ComponentPad*
%ADD16O,1.600000X1.600000*%
G04 #@! TD*
G04 #@! TA.AperFunction,ComponentPad*
%ADD17C,2.000000*%
G04 #@! TD*
G04 #@! TA.AperFunction,ViaPad*
%ADD18C,0.800000*%
G04 #@! TD*
G04 #@! TA.AperFunction,Conductor*
%ADD19C,0.250000*%
G04 #@! TD*
G04 #@! TA.AperFunction,Conductor*
%ADD20C,0.200000*%
G04 #@! TD*
G04 #@! TA.AperFunction,Conductor*
%ADD21C,0.300000*%
G04 #@! TD*
G04 APERTURE END LIST*
D10*
X90960000Y-116600000D03*
D11*
X93500000Y-116600000D03*
D12*
X82850000Y-122550000D03*
X89450000Y-122550000D03*
D10*
X82000000Y-116500000D03*
D11*
X79460000Y-116500000D03*
D10*
X74640000Y-79300000D03*
D11*
X77180000Y-79300000D03*
X79720000Y-79300000D03*
X82260000Y-79300000D03*
X84800000Y-79300000D03*
X87340000Y-79300000D03*
X89880000Y-79300000D03*
X92420000Y-79300000D03*
X94960000Y-79300000D03*
X97500000Y-79300000D03*
X100040000Y-79300000D03*
D13*
X60925000Y-78600000D03*
X61518109Y-77168109D03*
X61518109Y-80031891D03*
X62950000Y-76575000D03*
D14*
X62950000Y-78600000D03*
D13*
X62950000Y-80625000D03*
X64381891Y-77168109D03*
X64381891Y-80031891D03*
X64975000Y-78600000D03*
D15*
X100100000Y-84870000D03*
D16*
X100100000Y-87410000D03*
X100100000Y-89950000D03*
X100100000Y-92490000D03*
X100100000Y-95030000D03*
X100100000Y-97570000D03*
X100100000Y-100110000D03*
X100100000Y-102650000D03*
X107720000Y-102650000D03*
X107720000Y-100110000D03*
X107720000Y-97570000D03*
X107720000Y-95030000D03*
X107720000Y-92490000D03*
X107720000Y-89950000D03*
X107720000Y-87410000D03*
X107720000Y-84870000D03*
D10*
X74250000Y-106875000D03*
D11*
X74250000Y-104335000D03*
X74250000Y-101795000D03*
X74250000Y-99255000D03*
X74250000Y-96715000D03*
X74250000Y-94175000D03*
X74250000Y-91635000D03*
X74250000Y-89095000D03*
D10*
X107100000Y-107250000D03*
D11*
X107100000Y-109790000D03*
D13*
X104300000Y-79068109D03*
X104893109Y-77636218D03*
X104893109Y-80500000D03*
X106325000Y-77043109D03*
D14*
X106325000Y-79068109D03*
D13*
X106325000Y-81093109D03*
X107756891Y-77636218D03*
X107756891Y-80500000D03*
X108350000Y-79068109D03*
X104325000Y-122218109D03*
X104918109Y-120786218D03*
X104918109Y-123650000D03*
X106350000Y-120193109D03*
D14*
X106350000Y-122218109D03*
D13*
X106350000Y-124243109D03*
X107781891Y-120786218D03*
X107781891Y-123650000D03*
X108375000Y-122218109D03*
X60975000Y-122000000D03*
X61568109Y-120568109D03*
X61568109Y-123431891D03*
X63000000Y-119975000D03*
D14*
X63000000Y-122000000D03*
D13*
X63000000Y-124025000D03*
X64431891Y-120568109D03*
X64431891Y-123431891D03*
X65025000Y-122000000D03*
D17*
X62850000Y-112081128D03*
X69350000Y-112081128D03*
X62850000Y-116581128D03*
X69350000Y-116581128D03*
X62900000Y-100400000D03*
X69400000Y-100400000D03*
X62900000Y-104900000D03*
X69400000Y-104900000D03*
D18*
X87550000Y-85925000D03*
X70050000Y-89550000D03*
X98800000Y-76500000D03*
X96290000Y-121800000D03*
X65250000Y-104150000D03*
X60350000Y-81300000D03*
X102650000Y-118575000D03*
X79500000Y-82500000D03*
X83475000Y-111650000D03*
X60400000Y-93950000D03*
X88500000Y-117500000D03*
X88450000Y-95300000D03*
X79250000Y-76250000D03*
X89250000Y-102850000D03*
X80500000Y-102450000D03*
X86300000Y-112250000D03*
X75250000Y-120750000D03*
X70400000Y-80150000D03*
X67300000Y-76950000D03*
X72700000Y-75950000D03*
X104212500Y-93554416D03*
X90900000Y-111300000D03*
X103750000Y-98775000D03*
X77610000Y-106240000D03*
X68425000Y-123400000D03*
X69750000Y-84350000D03*
X75000000Y-84750000D03*
X81100000Y-98650000D03*
X109150000Y-115200000D03*
X83850000Y-95900000D03*
X73500000Y-118000000D03*
X62850000Y-89400000D03*
X104025000Y-85925000D03*
X84000000Y-101500000D03*
X104250000Y-103100000D03*
X95600000Y-82050000D03*
X83000000Y-85250000D03*
X102200000Y-123925000D03*
X98275000Y-111250000D03*
X86550000Y-75800000D03*
X98750000Y-116650000D03*
X86150000Y-81350000D03*
X71975000Y-98075000D03*
X65900000Y-125000000D03*
X66200000Y-86950000D03*
X84050000Y-115550000D03*
X62750000Y-84400000D03*
X87150000Y-104900000D03*
X80850000Y-123700000D03*
X83500000Y-90500000D03*
X80875000Y-93575000D03*
X101900000Y-108450000D03*
X97150000Y-104100000D03*
X72575000Y-108825000D03*
X95330000Y-101140000D03*
X95330000Y-96060000D03*
X98650000Y-96350000D03*
X95450000Y-97350000D03*
X93950000Y-95250000D03*
X98600000Y-97775000D03*
X95400000Y-98625000D03*
X101600000Y-113550000D03*
X109150000Y-111775000D03*
X92950000Y-90450000D03*
X92190000Y-85921884D03*
X91400000Y-91475500D03*
X89550000Y-91650000D03*
X88450000Y-91950000D03*
X87250000Y-92550000D03*
X86300000Y-93200000D03*
X85305841Y-93303223D03*
D19*
X97150000Y-104000000D02*
X97000000Y-103850000D01*
D20*
X62900000Y-100400000D02*
X69400000Y-100400000D01*
D19*
X101900000Y-107250000D02*
X98750000Y-104100000D01*
X101900000Y-108450000D02*
X101900000Y-107250000D01*
X97150000Y-104100000D02*
X97150000Y-104000000D01*
X98750000Y-104100000D02*
X97150000Y-104100000D01*
D20*
X72575000Y-108856128D02*
X69350000Y-112081128D01*
X62850000Y-112081128D02*
X69350000Y-112081128D01*
X72575000Y-108825000D02*
X72575000Y-108856128D01*
D19*
X95330000Y-101140000D02*
X95425000Y-101235000D01*
X95425000Y-101235000D02*
X106305000Y-101235000D01*
X106305000Y-101235000D02*
X107720000Y-102650000D01*
X106305000Y-88825000D02*
X107720000Y-87410000D01*
X95330000Y-96060000D02*
X96690000Y-96060000D01*
X98900000Y-93850000D02*
X98900000Y-89550000D01*
X96690000Y-96060000D02*
X98900000Y-93850000D01*
X98900000Y-89550000D02*
X99625000Y-88825000D01*
X99625000Y-88825000D02*
X106305000Y-88825000D01*
X98650000Y-96350000D02*
X97650000Y-97350000D01*
X97650000Y-97350000D02*
X95450000Y-97350000D01*
X93950000Y-95186396D02*
X97550000Y-91586396D01*
X93950000Y-95250000D02*
X93950000Y-95186396D01*
X97550000Y-89960000D02*
X100100000Y-87410000D01*
X97550000Y-91586396D02*
X97550000Y-89960000D01*
X97750000Y-98625000D02*
X95400000Y-98625000D01*
X98600000Y-97775000D02*
X97750000Y-98625000D01*
D21*
X102150000Y-113000000D02*
X101600000Y-113550000D01*
X109150000Y-111775000D02*
X107925000Y-113000000D01*
X107925000Y-113000000D02*
X102150000Y-113000000D01*
D19*
X89769922Y-83750000D02*
X79090000Y-83750000D01*
X91465000Y-85445078D02*
X89769922Y-83750000D01*
X92950000Y-90450000D02*
X92000000Y-90450000D01*
X79090000Y-83750000D02*
X74640000Y-79300000D01*
X92000000Y-90450000D02*
X91465000Y-89915000D01*
X91465000Y-89915000D02*
X91465000Y-85445078D01*
X83037208Y-81350000D02*
X79230000Y-81350000D01*
X92190000Y-85921884D02*
X92190000Y-85533682D01*
X84987208Y-83300000D02*
X83037208Y-81350000D01*
X92190000Y-85533682D02*
X89956318Y-83300000D01*
X79230000Y-81350000D02*
X77180000Y-79300000D01*
X89956318Y-83300000D02*
X84987208Y-83300000D01*
X94300000Y-90831624D02*
X94850000Y-90281624D01*
X90142714Y-82850000D02*
X85173604Y-82850000D01*
X91400000Y-91475500D02*
X93842520Y-91475500D01*
X81220000Y-80800000D02*
X79720000Y-79300000D01*
X93842520Y-91475500D02*
X94300000Y-91018020D01*
X94850000Y-87557286D02*
X90142714Y-82850000D01*
X83123604Y-80800000D02*
X81220000Y-80800000D01*
X94300000Y-91018020D02*
X94300000Y-90831624D01*
X85173604Y-82850000D02*
X83123604Y-80800000D01*
X94850000Y-90281624D02*
X94850000Y-87557286D01*
X79720000Y-79300000D02*
X80104416Y-79300000D01*
X90100000Y-92200000D02*
X89550000Y-91650000D01*
X95300000Y-90468020D02*
X94750000Y-91018020D01*
X94750000Y-91018020D02*
X94750000Y-91204416D01*
X95300000Y-87370889D02*
X95300000Y-90468020D01*
X94750000Y-91204416D02*
X93754416Y-92200000D01*
X85360000Y-82400000D02*
X90329111Y-82400000D01*
X90329111Y-82400000D02*
X95300000Y-87370889D01*
X82260000Y-79300000D02*
X85360000Y-82400000D01*
X93754416Y-92200000D02*
X90100000Y-92200000D01*
X88450000Y-92350000D02*
X88750000Y-92650000D01*
X88450000Y-91950000D02*
X88450000Y-92350000D01*
X93940812Y-92650000D02*
X95200000Y-91390812D01*
X88253299Y-81875000D02*
X86165000Y-79786701D01*
X90440507Y-81875000D02*
X88253299Y-81875000D01*
X88450000Y-92350000D02*
X88500000Y-92400000D01*
X86165000Y-79786701D02*
X85286701Y-79786701D01*
X95750000Y-87184493D02*
X90440507Y-81875000D01*
X85286701Y-79786701D02*
X84800000Y-79300000D01*
X95200000Y-91204416D02*
X95750000Y-90654416D01*
X95750000Y-90654416D02*
X95750000Y-87184493D01*
X88750000Y-92650000D02*
X93940812Y-92650000D01*
X95200000Y-91390812D02*
X95200000Y-91204416D01*
D21*
X82000000Y-116500000D02*
X81400000Y-115900000D01*
X81400000Y-109182106D02*
X90682106Y-99900000D01*
X98477107Y-99900000D02*
X99527107Y-98850000D01*
X81400000Y-115900000D02*
X81400000Y-109182106D01*
X101250000Y-91100000D02*
X100100000Y-89950000D01*
X100750000Y-98850000D02*
X101250000Y-98350000D01*
X101250000Y-98350000D02*
X101250000Y-91100000D01*
X90682106Y-99900000D02*
X98477107Y-99900000D01*
X99527107Y-98850000D02*
X100750000Y-98850000D01*
X80100000Y-109775000D02*
X90475000Y-99400000D01*
X80100000Y-115860000D02*
X80100000Y-109775000D01*
X90475000Y-99400000D02*
X98270000Y-99400000D01*
X98270000Y-99400000D02*
X100100000Y-97570000D01*
X79460000Y-116500000D02*
X80100000Y-115860000D01*
X107414339Y-112450000D02*
X109225000Y-110639339D01*
X90960000Y-115790000D02*
X94300000Y-112450000D01*
X94300000Y-112450000D02*
X107414339Y-112450000D01*
X109225000Y-110639339D02*
X109225000Y-99075000D01*
X90960000Y-116600000D02*
X90960000Y-115790000D01*
X109225000Y-99075000D02*
X107720000Y-97570000D01*
X109900000Y-92130000D02*
X109900000Y-112085661D01*
X95292106Y-112975000D02*
X93500000Y-114767106D01*
X107385661Y-114600000D02*
X100800000Y-114600000D01*
X109900000Y-112085661D02*
X107385661Y-114600000D01*
X107720000Y-89950000D02*
X109900000Y-92130000D01*
X93500000Y-114767106D02*
X93500000Y-116600000D01*
X99175000Y-112975000D02*
X95292106Y-112975000D01*
X100800000Y-114600000D02*
X99175000Y-112975000D01*
D19*
X96200000Y-90840812D02*
X96200000Y-86998097D01*
X88218299Y-79300000D02*
X87340000Y-79300000D01*
X96200000Y-86998097D02*
X89713604Y-80511701D01*
X95650000Y-91577208D02*
X95650000Y-91390812D01*
X87800000Y-93100000D02*
X94127208Y-93100000D01*
X89713604Y-80511701D02*
X89430000Y-80511701D01*
X95650000Y-91390812D02*
X96200000Y-90840812D01*
X89430000Y-80511701D02*
X88218299Y-79300000D01*
X87250000Y-92550000D02*
X87800000Y-93100000D01*
X94127208Y-93100000D02*
X95650000Y-91577208D01*
X96100000Y-91763604D02*
X96100000Y-91577208D01*
X89880000Y-80041701D02*
X89880000Y-79300000D01*
X96650000Y-86811701D02*
X89880000Y-80041701D01*
X94313604Y-93550000D02*
X96100000Y-91763604D01*
X96100000Y-91577208D02*
X96650000Y-91027208D01*
X86300000Y-93200000D02*
X86650000Y-93550000D01*
X96650000Y-91027208D02*
X96650000Y-86811701D01*
X86650000Y-93550000D02*
X94313604Y-93550000D01*
X94500000Y-94000000D02*
X96550000Y-91950000D01*
X96550000Y-91763604D02*
X97100000Y-91213604D01*
X92420000Y-81945305D02*
X92420000Y-79300000D01*
X97100000Y-86625305D02*
X92420000Y-81945305D01*
X96550000Y-91950000D02*
X96550000Y-91763604D01*
X85305841Y-93303223D02*
X86002618Y-94000000D01*
X97100000Y-91213604D02*
X97100000Y-86625305D01*
X86002618Y-94000000D02*
X94500000Y-94000000D01*
G04 #@! TA.AperFunction,Conductor*
G36*
X106532140Y-75000169D02*
G01*
X106715609Y-75009759D01*
X106726667Y-75010836D01*
X107096010Y-75063584D01*
X107108426Y-75066009D01*
X107372352Y-75131694D01*
X107469733Y-75155930D01*
X107481829Y-75159604D01*
X107832106Y-75285877D01*
X107843770Y-75290768D01*
X108179342Y-75452064D01*
X108190449Y-75458119D01*
X108507847Y-75652772D01*
X108518278Y-75659926D01*
X108814188Y-75885903D01*
X108823834Y-75894082D01*
X109095181Y-76149036D01*
X109103947Y-76158157D01*
X109347904Y-76439431D01*
X109355694Y-76449398D01*
X109569719Y-76754059D01*
X109576454Y-76764769D01*
X109758321Y-77089650D01*
X109763929Y-77100989D01*
X109911755Y-77442725D01*
X109916179Y-77454578D01*
X109974605Y-77639388D01*
X110028411Y-77809581D01*
X110031604Y-77821822D01*
X110107079Y-78186411D01*
X110109009Y-78198914D01*
X110147025Y-78570091D01*
X110147660Y-78581173D01*
X110149990Y-78767337D01*
X110150000Y-78768831D01*
X110155845Y-91166479D01*
X110136192Y-91233527D01*
X110083410Y-91279307D01*
X110014256Y-91289283D01*
X109950686Y-91260288D01*
X109944164Y-91254218D01*
X109026884Y-90336938D01*
X108993399Y-90275615D01*
X108994791Y-90217162D01*
X109005633Y-90176699D01*
X109005632Y-90176699D01*
X109005635Y-90176692D01*
X109025468Y-89950000D01*
X109022649Y-89917784D01*
X109014488Y-89824500D01*
X109005635Y-89723308D01*
X108946739Y-89503504D01*
X108850568Y-89297266D01*
X108720047Y-89110861D01*
X108720045Y-89110858D01*
X108559141Y-88949954D01*
X108372734Y-88819432D01*
X108372728Y-88819429D01*
X108314725Y-88792382D01*
X108262285Y-88746210D01*
X108243133Y-88679017D01*
X108263348Y-88612135D01*
X108314725Y-88567618D01*
X108372734Y-88540568D01*
X108559139Y-88410047D01*
X108720047Y-88249139D01*
X108850568Y-88062734D01*
X108946739Y-87856496D01*
X109005635Y-87636692D01*
X109025468Y-87410000D01*
X109005635Y-87183308D01*
X108946739Y-86963504D01*
X108850568Y-86757266D01*
X108720047Y-86570861D01*
X108720045Y-86570858D01*
X108559141Y-86409954D01*
X108372734Y-86279432D01*
X108372728Y-86279429D01*
X108314725Y-86252382D01*
X108262285Y-86206210D01*
X108243133Y-86139017D01*
X108263348Y-86072135D01*
X108314725Y-86027618D01*
X108372734Y-86000568D01*
X108559139Y-85870047D01*
X108720047Y-85709139D01*
X108850568Y-85522734D01*
X108946739Y-85316496D01*
X109005635Y-85096692D01*
X109025468Y-84870000D01*
X109005635Y-84643308D01*
X108946739Y-84423504D01*
X108850568Y-84217266D01*
X108720047Y-84030861D01*
X108720045Y-84030858D01*
X108559141Y-83869954D01*
X108372734Y-83739432D01*
X108372732Y-83739431D01*
X108166497Y-83643261D01*
X108166488Y-83643258D01*
X107946697Y-83584366D01*
X107946693Y-83584365D01*
X107946692Y-83584365D01*
X107946691Y-83584364D01*
X107946686Y-83584364D01*
X107720002Y-83564532D01*
X107719998Y-83564532D01*
X107493313Y-83584364D01*
X107493302Y-83584366D01*
X107273511Y-83643258D01*
X107273502Y-83643261D01*
X107067267Y-83739431D01*
X107067265Y-83739432D01*
X106880858Y-83869954D01*
X106719954Y-84030858D01*
X106589432Y-84217265D01*
X106589431Y-84217267D01*
X106493261Y-84423502D01*
X106493258Y-84423511D01*
X106434366Y-84643302D01*
X106434364Y-84643313D01*
X106414532Y-84869998D01*
X106414532Y-84870001D01*
X106434364Y-85096686D01*
X106434366Y-85096697D01*
X106493258Y-85316488D01*
X106493261Y-85316497D01*
X106589431Y-85522732D01*
X106589432Y-85522734D01*
X106719954Y-85709141D01*
X106880858Y-85870045D01*
X106880861Y-85870047D01*
X107067266Y-86000568D01*
X107125275Y-86027618D01*
X107177714Y-86073791D01*
X107196866Y-86140984D01*
X107176650Y-86207865D01*
X107125275Y-86252382D01*
X107067267Y-86279431D01*
X107067265Y-86279432D01*
X106880858Y-86409954D01*
X106719954Y-86570858D01*
X106589432Y-86757265D01*
X106589431Y-86757267D01*
X106493261Y-86963502D01*
X106493258Y-86963511D01*
X106434366Y-87183302D01*
X106434364Y-87183313D01*
X106414532Y-87409998D01*
X106414532Y-87410000D01*
X106434365Y-87636692D01*
X106434367Y-87636699D01*
X106452680Y-87705049D01*
X106451016Y-87774899D01*
X106420588Y-87824821D01*
X106082227Y-88163182D01*
X106020906Y-88196666D01*
X105994548Y-88199500D01*
X101361434Y-88199500D01*
X101294395Y-88179815D01*
X101248640Y-88127011D01*
X101238696Y-88057853D01*
X101249052Y-88023095D01*
X101296675Y-87920967D01*
X101326739Y-87856496D01*
X101385635Y-87636692D01*
X101405468Y-87410000D01*
X101385635Y-87183308D01*
X101326739Y-86963504D01*
X101230568Y-86757266D01*
X101100047Y-86570861D01*
X101100045Y-86570858D01*
X100939143Y-86409956D01*
X100914536Y-86392726D01*
X100870912Y-86338149D01*
X100863719Y-86268650D01*
X100895241Y-86206296D01*
X100955471Y-86170882D01*
X100972404Y-86167861D01*
X101007483Y-86164091D01*
X101142331Y-86113796D01*
X101257546Y-86027546D01*
X101343796Y-85912331D01*
X101394091Y-85777483D01*
X101400500Y-85717873D01*
X101400499Y-84022128D01*
X101394091Y-83962517D01*
X101359567Y-83869954D01*
X101343797Y-83827671D01*
X101343793Y-83827664D01*
X101257547Y-83712455D01*
X101257544Y-83712452D01*
X101142335Y-83626206D01*
X101142328Y-83626202D01*
X101007482Y-83575908D01*
X101007483Y-83575908D01*
X100947883Y-83569501D01*
X100947881Y-83569500D01*
X100947873Y-83569500D01*
X100947864Y-83569500D01*
X99252129Y-83569500D01*
X99252123Y-83569501D01*
X99192516Y-83575908D01*
X99057671Y-83626202D01*
X99057664Y-83626206D01*
X98942455Y-83712452D01*
X98942452Y-83712455D01*
X98856206Y-83827664D01*
X98856202Y-83827671D01*
X98805908Y-83962517D01*
X98799501Y-84022116D01*
X98799501Y-84022123D01*
X98799500Y-84022135D01*
X98799500Y-85717870D01*
X98799501Y-85717876D01*
X98805908Y-85777483D01*
X98856202Y-85912328D01*
X98856206Y-85912335D01*
X98942452Y-86027544D01*
X98942455Y-86027547D01*
X99057664Y-86113793D01*
X99057671Y-86113797D01*
X99102618Y-86130561D01*
X99192517Y-86164091D01*
X99227596Y-86167862D01*
X99292144Y-86194599D01*
X99331993Y-86251991D01*
X99334488Y-86321816D01*
X99298836Y-86381905D01*
X99285464Y-86392725D01*
X99260858Y-86409954D01*
X99099954Y-86570858D01*
X98969432Y-86757265D01*
X98969431Y-86757267D01*
X98873261Y-86963502D01*
X98873258Y-86963511D01*
X98814366Y-87183302D01*
X98814364Y-87183313D01*
X98794532Y-87409998D01*
X98794532Y-87410000D01*
X98814364Y-87636686D01*
X98814365Y-87636691D01*
X98814366Y-87636697D01*
X98832680Y-87705048D01*
X98831017Y-87774897D01*
X98800586Y-87824821D01*
X97937181Y-88688227D01*
X97875858Y-88721712D01*
X97806167Y-88716728D01*
X97750233Y-88674856D01*
X97725816Y-88609392D01*
X97725500Y-88600546D01*
X97725500Y-86563698D01*
X97722038Y-86546293D01*
X97714719Y-86509500D01*
X97701463Y-86442853D01*
X97654311Y-86329019D01*
X97648697Y-86320617D01*
X97603104Y-86252382D01*
X97585859Y-86226573D01*
X97542547Y-86183261D01*
X97498733Y-86139447D01*
X97498732Y-86139446D01*
X93081819Y-81722533D01*
X93048334Y-81661210D01*
X93045500Y-81634852D01*
X93045500Y-80575226D01*
X93065185Y-80508187D01*
X93098374Y-80473654D01*
X93291401Y-80338495D01*
X93458495Y-80171401D01*
X93588426Y-79985841D01*
X93643002Y-79942217D01*
X93712500Y-79935023D01*
X93774855Y-79966546D01*
X93791575Y-79985842D01*
X93921500Y-80171395D01*
X93921505Y-80171401D01*
X94088599Y-80338495D01*
X94185384Y-80406265D01*
X94282165Y-80474032D01*
X94282167Y-80474033D01*
X94282170Y-80474035D01*
X94496337Y-80573903D01*
X94496343Y-80573904D01*
X94496344Y-80573905D01*
X94551285Y-80588626D01*
X94724592Y-80635063D01*
X94901034Y-80650500D01*
X94959999Y-80655659D01*
X94960000Y-80655659D01*
X94960001Y-80655659D01*
X95018966Y-80650500D01*
X95195408Y-80635063D01*
X95423663Y-80573903D01*
X95637830Y-80474035D01*
X95831401Y-80338495D01*
X95998495Y-80171401D01*
X96128730Y-79985405D01*
X96183307Y-79941781D01*
X96252805Y-79934587D01*
X96315160Y-79966110D01*
X96331879Y-79985405D01*
X96461890Y-80171078D01*
X96628917Y-80338105D01*
X96822421Y-80473600D01*
X97036507Y-80573429D01*
X97036516Y-80573433D01*
X97250000Y-80630634D01*
X97250000Y-79733012D01*
X97307007Y-79765925D01*
X97434174Y-79800000D01*
X97565826Y-79800000D01*
X97692993Y-79765925D01*
X97750000Y-79733012D01*
X97750000Y-80630633D01*
X97963483Y-80573433D01*
X97963492Y-80573429D01*
X98177578Y-80473600D01*
X98371082Y-80338105D01*
X98538105Y-80171082D01*
X98668119Y-79985405D01*
X98722696Y-79941781D01*
X98792195Y-79934588D01*
X98854549Y-79966110D01*
X98871269Y-79985405D01*
X99001505Y-80171401D01*
X99168599Y-80338495D01*
X99265384Y-80406265D01*
X99362165Y-80474032D01*
X99362167Y-80474033D01*
X99362170Y-80474035D01*
X99576337Y-80573903D01*
X99576343Y-80573904D01*
X99576344Y-80573905D01*
X99631285Y-80588626D01*
X99804592Y-80635063D01*
X99981034Y-80650500D01*
X100039999Y-80655659D01*
X100040000Y-80655659D01*
X100040001Y-80655659D01*
X100098966Y-80650500D01*
X100275408Y-80635063D01*
X100503663Y-80573903D01*
X100717830Y-80474035D01*
X100911401Y-80338495D01*
X101078495Y-80171401D01*
X101214035Y-79977830D01*
X101313903Y-79763663D01*
X101375063Y-79535408D01*
X101395659Y-79300000D01*
X101375371Y-79068109D01*
X103119457Y-79068109D01*
X103139612Y-79427011D01*
X103139614Y-79427023D01*
X103199826Y-79781405D01*
X103199828Y-79781414D01*
X103260160Y-79990831D01*
X103299341Y-80126833D01*
X103436906Y-80458942D01*
X103460504Y-80501640D01*
X103610790Y-80773563D01*
X103818805Y-81066731D01*
X103842378Y-81093109D01*
X104058339Y-81334770D01*
X104229909Y-81488094D01*
X104326377Y-81574303D01*
X104580783Y-81754815D01*
X104619548Y-81782320D01*
X104934167Y-81956203D01*
X105266276Y-82093768D01*
X105611700Y-82193282D01*
X105966093Y-82253496D01*
X106325000Y-82273652D01*
X106683907Y-82253496D01*
X107038300Y-82193282D01*
X107383724Y-82093768D01*
X107715833Y-81956203D01*
X108030452Y-81782320D01*
X108323623Y-81574303D01*
X108591661Y-81334770D01*
X108831194Y-81066732D01*
X109039211Y-80773561D01*
X109213094Y-80458942D01*
X109350659Y-80126833D01*
X109450173Y-79781409D01*
X109510387Y-79427016D01*
X109530543Y-79068109D01*
X109510387Y-78709202D01*
X109450173Y-78354809D01*
X109350659Y-78009385D01*
X109213094Y-77677276D01*
X109039211Y-77362657D01*
X108930303Y-77209167D01*
X108831194Y-77069486D01*
X108591661Y-76801448D01*
X108323623Y-76561915D01*
X108150999Y-76439431D01*
X108030454Y-76353899D01*
X107715831Y-76180014D01*
X107444810Y-76067753D01*
X107383724Y-76042450D01*
X107383720Y-76042448D01*
X107383718Y-76042448D01*
X107038305Y-75942937D01*
X107038296Y-75942935D01*
X106683914Y-75882723D01*
X106683902Y-75882721D01*
X106325000Y-75862566D01*
X105966097Y-75882721D01*
X105966085Y-75882723D01*
X105611703Y-75942935D01*
X105611694Y-75942937D01*
X105266281Y-76042448D01*
X104934168Y-76180014D01*
X104619545Y-76353899D01*
X104326377Y-76561914D01*
X104058339Y-76801448D01*
X103818805Y-77069486D01*
X103610790Y-77362654D01*
X103436905Y-77677277D01*
X103317752Y-77964937D01*
X103300660Y-78006202D01*
X103299339Y-78009390D01*
X103199828Y-78354803D01*
X103199826Y-78354812D01*
X103139614Y-78709194D01*
X103139612Y-78709206D01*
X103119457Y-79068109D01*
X101375371Y-79068109D01*
X101375063Y-79064592D01*
X101313903Y-78836337D01*
X101214035Y-78622171D01*
X101208731Y-78614595D01*
X101078494Y-78428597D01*
X100911402Y-78261506D01*
X100911395Y-78261501D01*
X100717834Y-78125967D01*
X100717830Y-78125965D01*
X100717828Y-78125964D01*
X100503663Y-78026097D01*
X100503659Y-78026096D01*
X100503655Y-78026094D01*
X100275413Y-77964938D01*
X100275403Y-77964936D01*
X100040001Y-77944341D01*
X100039999Y-77944341D01*
X99804596Y-77964936D01*
X99804586Y-77964938D01*
X99576344Y-78026094D01*
X99576335Y-78026098D01*
X99362171Y-78125964D01*
X99362169Y-78125965D01*
X99168597Y-78261505D01*
X99001508Y-78428594D01*
X98871269Y-78614595D01*
X98816692Y-78658219D01*
X98747193Y-78665412D01*
X98684839Y-78633890D01*
X98668119Y-78614594D01*
X98538113Y-78428926D01*
X98538108Y-78428920D01*
X98371082Y-78261894D01*
X98177578Y-78126399D01*
X97963492Y-78026570D01*
X97963486Y-78026567D01*
X97750000Y-77969364D01*
X97750000Y-78866988D01*
X97692993Y-78834075D01*
X97565826Y-78800000D01*
X97434174Y-78800000D01*
X97307007Y-78834075D01*
X97250000Y-78866988D01*
X97250000Y-77969364D01*
X97249999Y-77969364D01*
X97036513Y-78026567D01*
X97036507Y-78026570D01*
X96822422Y-78126399D01*
X96822420Y-78126400D01*
X96628926Y-78261886D01*
X96628920Y-78261891D01*
X96461891Y-78428920D01*
X96461890Y-78428922D01*
X96331880Y-78614595D01*
X96277303Y-78658219D01*
X96207804Y-78665412D01*
X96145450Y-78633890D01*
X96128730Y-78614594D01*
X95998494Y-78428597D01*
X95831402Y-78261506D01*
X95831395Y-78261501D01*
X95637834Y-78125967D01*
X95637830Y-78125965D01*
X95637828Y-78125964D01*
X95423663Y-78026097D01*
X95423659Y-78026096D01*
X95423655Y-78026094D01*
X95195413Y-77964938D01*
X95195403Y-77964936D01*
X94960001Y-77944341D01*
X94959999Y-77944341D01*
X94724596Y-77964936D01*
X94724586Y-77964938D01*
X94496344Y-78026094D01*
X94496335Y-78026098D01*
X94282171Y-78125964D01*
X94282169Y-78125965D01*
X94088597Y-78261505D01*
X93921505Y-78428597D01*
X93791575Y-78614158D01*
X93736998Y-78657783D01*
X93667500Y-78664977D01*
X93605145Y-78633454D01*
X93588425Y-78614158D01*
X93458494Y-78428597D01*
X93291402Y-78261506D01*
X93291395Y-78261501D01*
X93097834Y-78125967D01*
X93097830Y-78125965D01*
X93097828Y-78125964D01*
X92883663Y-78026097D01*
X92883659Y-78026096D01*
X92883655Y-78026094D01*
X92655413Y-77964938D01*
X92655403Y-77964936D01*
X92420001Y-77944341D01*
X92419999Y-77944341D01*
X92184596Y-77964936D01*
X92184586Y-77964938D01*
X91956344Y-78026094D01*
X91956335Y-78026098D01*
X91742171Y-78125964D01*
X91742169Y-78125965D01*
X91548597Y-78261505D01*
X91381505Y-78428597D01*
X91251575Y-78614158D01*
X91196998Y-78657783D01*
X91127500Y-78664977D01*
X91065145Y-78633454D01*
X91048425Y-78614158D01*
X90918494Y-78428597D01*
X90751402Y-78261506D01*
X90751395Y-78261501D01*
X90557834Y-78125967D01*
X90557830Y-78125965D01*
X90557828Y-78125964D01*
X90343663Y-78026097D01*
X90343659Y-78026096D01*
X90343655Y-78026094D01*
X90115413Y-77964938D01*
X90115403Y-77964936D01*
X89880001Y-77944341D01*
X89879999Y-77944341D01*
X89644596Y-77964936D01*
X89644586Y-77964938D01*
X89416344Y-78026094D01*
X89416335Y-78026098D01*
X89202171Y-78125964D01*
X89202169Y-78125965D01*
X89008597Y-78261505D01*
X88841508Y-78428594D01*
X88711574Y-78614160D01*
X88656997Y-78657784D01*
X88587498Y-78664977D01*
X88525144Y-78633455D01*
X88508429Y-78614164D01*
X88378495Y-78428599D01*
X88378493Y-78428596D01*
X88211402Y-78261506D01*
X88211395Y-78261501D01*
X88017834Y-78125967D01*
X88017830Y-78125965D01*
X88017828Y-78125964D01*
X87803663Y-78026097D01*
X87803659Y-78026096D01*
X87803655Y-78026094D01*
X87575413Y-77964938D01*
X87575403Y-77964936D01*
X87340001Y-77944341D01*
X87339999Y-77944341D01*
X87104596Y-77964936D01*
X87104586Y-77964938D01*
X86876344Y-78026094D01*
X86876335Y-78026098D01*
X86662171Y-78125964D01*
X86662169Y-78125965D01*
X86468597Y-78261505D01*
X86301505Y-78428597D01*
X86171575Y-78614158D01*
X86116998Y-78657783D01*
X86047500Y-78664977D01*
X85985145Y-78633454D01*
X85968425Y-78614158D01*
X85838494Y-78428597D01*
X85671402Y-78261506D01*
X85671395Y-78261501D01*
X85477834Y-78125967D01*
X85477830Y-78125965D01*
X85477828Y-78125964D01*
X85263663Y-78026097D01*
X85263659Y-78026096D01*
X85263655Y-78026094D01*
X85035413Y-77964938D01*
X85035403Y-77964936D01*
X84800001Y-77944341D01*
X84799999Y-77944341D01*
X84564596Y-77964936D01*
X84564586Y-77964938D01*
X84336344Y-78026094D01*
X84336335Y-78026098D01*
X84122171Y-78125964D01*
X84122169Y-78125965D01*
X83928597Y-78261505D01*
X83761505Y-78428597D01*
X83631575Y-78614158D01*
X83576998Y-78657783D01*
X83507500Y-78664977D01*
X83445145Y-78633454D01*
X83428425Y-78614158D01*
X83298494Y-78428597D01*
X83131402Y-78261506D01*
X83131395Y-78261501D01*
X82937834Y-78125967D01*
X82937830Y-78125965D01*
X82937828Y-78125964D01*
X82723663Y-78026097D01*
X82723659Y-78026096D01*
X82723655Y-78026094D01*
X82495413Y-77964938D01*
X82495403Y-77964936D01*
X82260001Y-77944341D01*
X82259999Y-77944341D01*
X82024596Y-77964936D01*
X82024586Y-77964938D01*
X81796344Y-78026094D01*
X81796335Y-78026098D01*
X81582171Y-78125964D01*
X81582169Y-78125965D01*
X81388597Y-78261505D01*
X81221505Y-78428597D01*
X81091575Y-78614158D01*
X81036998Y-78657783D01*
X80967500Y-78664977D01*
X80905145Y-78633454D01*
X80888425Y-78614158D01*
X80758494Y-78428597D01*
X80591402Y-78261506D01*
X80591395Y-78261501D01*
X80397834Y-78125967D01*
X80397830Y-78125965D01*
X80397828Y-78125964D01*
X80183663Y-78026097D01*
X80183659Y-78026096D01*
X80183655Y-78026094D01*
X79955413Y-77964938D01*
X79955403Y-77964936D01*
X79720001Y-77944341D01*
X79719999Y-77944341D01*
X79484596Y-77964936D01*
X79484586Y-77964938D01*
X79256344Y-78026094D01*
X79256335Y-78026098D01*
X79042171Y-78125964D01*
X79042169Y-78125965D01*
X78848597Y-78261505D01*
X78681505Y-78428597D01*
X78551575Y-78614158D01*
X78496998Y-78657783D01*
X78427500Y-78664977D01*
X78365145Y-78633454D01*
X78348425Y-78614158D01*
X78218494Y-78428597D01*
X78051402Y-78261506D01*
X78051395Y-78261501D01*
X77857834Y-78125967D01*
X77857830Y-78125965D01*
X77857828Y-78125964D01*
X77643663Y-78026097D01*
X77643659Y-78026096D01*
X77643655Y-78026094D01*
X77415413Y-77964938D01*
X77415403Y-77964936D01*
X77180001Y-77944341D01*
X77179999Y-77944341D01*
X76944596Y-77964936D01*
X76944586Y-77964938D01*
X76716344Y-78026094D01*
X76716335Y-78026098D01*
X76502171Y-78125964D01*
X76502169Y-78125965D01*
X76308600Y-78261503D01*
X76186673Y-78383430D01*
X76125350Y-78416914D01*
X76055658Y-78411930D01*
X75999725Y-78370058D01*
X75982810Y-78339081D01*
X75933797Y-78207671D01*
X75933793Y-78207664D01*
X75847547Y-78092455D01*
X75847544Y-78092452D01*
X75732335Y-78006206D01*
X75732328Y-78006202D01*
X75597482Y-77955908D01*
X75597483Y-77955908D01*
X75537883Y-77949501D01*
X75537881Y-77949500D01*
X75537873Y-77949500D01*
X75537864Y-77949500D01*
X73742129Y-77949500D01*
X73742123Y-77949501D01*
X73682516Y-77955908D01*
X73547671Y-78006202D01*
X73547664Y-78006206D01*
X73432455Y-78092452D01*
X73432452Y-78092455D01*
X73346206Y-78207664D01*
X73346202Y-78207671D01*
X73295908Y-78342517D01*
X73289501Y-78402116D01*
X73289500Y-78402135D01*
X73289500Y-80197870D01*
X73289501Y-80197876D01*
X73295908Y-80257483D01*
X73346202Y-80392328D01*
X73346206Y-80392335D01*
X73432452Y-80507544D01*
X73432455Y-80507547D01*
X73547664Y-80593793D01*
X73547671Y-80593797D01*
X73682517Y-80644091D01*
X73682516Y-80644091D01*
X73689444Y-80644835D01*
X73742127Y-80650500D01*
X75054547Y-80650499D01*
X75121586Y-80670184D01*
X75142227Y-80686817D01*
X78604141Y-84148732D01*
X78604142Y-84148733D01*
X78672674Y-84217265D01*
X78691268Y-84235859D01*
X78793707Y-84304307D01*
X78793713Y-84304310D01*
X78793714Y-84304311D01*
X78907548Y-84351463D01*
X78967971Y-84363481D01*
X79028393Y-84375500D01*
X79028394Y-84375500D01*
X89459470Y-84375500D01*
X89526509Y-84395185D01*
X89547151Y-84411819D01*
X90803181Y-85667849D01*
X90836666Y-85729172D01*
X90839500Y-85755530D01*
X90839500Y-89976611D01*
X90863535Y-90097444D01*
X90863540Y-90097461D01*
X90910685Y-90211281D01*
X90910687Y-90211285D01*
X90929440Y-90239349D01*
X90929441Y-90239351D01*
X90979141Y-90313732D01*
X90979144Y-90313736D01*
X91070586Y-90405178D01*
X91070608Y-90405198D01*
X91103031Y-90437621D01*
X91136516Y-90498944D01*
X91131532Y-90568636D01*
X91089660Y-90624569D01*
X91065786Y-90638581D01*
X90947270Y-90691348D01*
X90947265Y-90691351D01*
X90794129Y-90802611D01*
X90667466Y-90943285D01*
X90572821Y-91107215D01*
X90572819Y-91107219D01*
X90552150Y-91170832D01*
X90512711Y-91228507D01*
X90448352Y-91255705D01*
X90379506Y-91243790D01*
X90328031Y-91196545D01*
X90326869Y-91194577D01*
X90282533Y-91117784D01*
X90155871Y-90977112D01*
X90155870Y-90977111D01*
X90002734Y-90865851D01*
X90002729Y-90865848D01*
X89829807Y-90788857D01*
X89829802Y-90788855D01*
X89684001Y-90757865D01*
X89644646Y-90749500D01*
X89455354Y-90749500D01*
X89422897Y-90756398D01*
X89270197Y-90788855D01*
X89270192Y-90788857D01*
X89097270Y-90865848D01*
X89097265Y-90865851D01*
X88944129Y-90977111D01*
X88944128Y-90977112D01*
X88871255Y-91058045D01*
X88811768Y-91094693D01*
X88741911Y-91093362D01*
X88731212Y-91089313D01*
X88729802Y-91088855D01*
X88584001Y-91057865D01*
X88544646Y-91049500D01*
X88355354Y-91049500D01*
X88322897Y-91056398D01*
X88170197Y-91088855D01*
X88170192Y-91088857D01*
X87997270Y-91165848D01*
X87997265Y-91165851D01*
X87844129Y-91277111D01*
X87717466Y-91417785D01*
X87622821Y-91581715D01*
X87622816Y-91581726D01*
X87618749Y-91594245D01*
X87579311Y-91651920D01*
X87514952Y-91679117D01*
X87475039Y-91677215D01*
X87344647Y-91649500D01*
X87344646Y-91649500D01*
X87155354Y-91649500D01*
X87143969Y-91651920D01*
X86970197Y-91688855D01*
X86970192Y-91688857D01*
X86797270Y-91765848D01*
X86797265Y-91765851D01*
X86644129Y-91877111D01*
X86517466Y-92017785D01*
X86422821Y-92181715D01*
X86422818Y-92181722D01*
X86412390Y-92213818D01*
X86372952Y-92271494D01*
X86308594Y-92298692D01*
X86294459Y-92299500D01*
X86205354Y-92299500D01*
X86172897Y-92306398D01*
X86020197Y-92338855D01*
X86020192Y-92338857D01*
X85847270Y-92415848D01*
X85847266Y-92415850D01*
X85783393Y-92462257D01*
X85717587Y-92485736D01*
X85660073Y-92475217D01*
X85585648Y-92442080D01*
X85585643Y-92442078D01*
X85439842Y-92411088D01*
X85400487Y-92402723D01*
X85211195Y-92402723D01*
X85178738Y-92409621D01*
X85026038Y-92442078D01*
X85026033Y-92442080D01*
X84853111Y-92519071D01*
X84853106Y-92519074D01*
X84699970Y-92630334D01*
X84573307Y-92771008D01*
X84478662Y-92934938D01*
X84478659Y-92934945D01*
X84420168Y-93114963D01*
X84420167Y-93114967D01*
X84400381Y-93303223D01*
X84420167Y-93491479D01*
X84420168Y-93491482D01*
X84478659Y-93671500D01*
X84478662Y-93671507D01*
X84573308Y-93835439D01*
X84667083Y-93939586D01*
X84699970Y-93976111D01*
X84853106Y-94087371D01*
X84853111Y-94087374D01*
X85026033Y-94164365D01*
X85026038Y-94164367D01*
X85211195Y-94203723D01*
X85270388Y-94203723D01*
X85337427Y-94223408D01*
X85358069Y-94240042D01*
X85603880Y-94485854D01*
X85603883Y-94485857D01*
X85672029Y-94531390D01*
X85706332Y-94554311D01*
X85820166Y-94601463D01*
X85941006Y-94625499D01*
X85941010Y-94625500D01*
X85941011Y-94625500D01*
X85941012Y-94625500D01*
X93055973Y-94625500D01*
X93123012Y-94645185D01*
X93168767Y-94697989D01*
X93178711Y-94767147D01*
X93163360Y-94811499D01*
X93122823Y-94881710D01*
X93122818Y-94881722D01*
X93078281Y-95018794D01*
X93064326Y-95061744D01*
X93044540Y-95250000D01*
X93064326Y-95438256D01*
X93064327Y-95438259D01*
X93122818Y-95618277D01*
X93122821Y-95618284D01*
X93217467Y-95782216D01*
X93249493Y-95817784D01*
X93344129Y-95922888D01*
X93497265Y-96034148D01*
X93497270Y-96034151D01*
X93670192Y-96111142D01*
X93670197Y-96111144D01*
X93855354Y-96150500D01*
X93855355Y-96150500D01*
X94044644Y-96150500D01*
X94044646Y-96150500D01*
X94229803Y-96111144D01*
X94240506Y-96106378D01*
X94265053Y-96095450D01*
X94334303Y-96086165D01*
X94397579Y-96115793D01*
X94434793Y-96174928D01*
X94438808Y-96195759D01*
X94444326Y-96248256D01*
X94444327Y-96248259D01*
X94502818Y-96428277D01*
X94502821Y-96428284D01*
X94597467Y-96592216D01*
X94641153Y-96640734D01*
X94689651Y-96694597D01*
X94719881Y-96757589D01*
X94711256Y-96826924D01*
X94704889Y-96839568D01*
X94622820Y-96981718D01*
X94622818Y-96981722D01*
X94564327Y-97161740D01*
X94564326Y-97161744D01*
X94544540Y-97350000D01*
X94564326Y-97538256D01*
X94564327Y-97538259D01*
X94622818Y-97718277D01*
X94622821Y-97718284D01*
X94717465Y-97882214D01*
X94720783Y-97886780D01*
X94744264Y-97952587D01*
X94728439Y-98020641D01*
X94712617Y-98042638D01*
X94667470Y-98092778D01*
X94667465Y-98092785D01*
X94572821Y-98256715D01*
X94572818Y-98256722D01*
X94521693Y-98414071D01*
X94514326Y-98436744D01*
X94503501Y-98539744D01*
X94494540Y-98625002D01*
X94494540Y-98625500D01*
X94494458Y-98625777D01*
X94493861Y-98631463D01*
X94492821Y-98631353D01*
X94474855Y-98692539D01*
X94422051Y-98738294D01*
X94370540Y-98749500D01*
X90410929Y-98749500D01*
X90285261Y-98774497D01*
X90285255Y-98774499D01*
X90205703Y-98807451D01*
X90166874Y-98823534D01*
X90060326Y-98894726D01*
X79594724Y-109360328D01*
X79557723Y-109415704D01*
X79557724Y-109415705D01*
X79523534Y-109466874D01*
X79474499Y-109585255D01*
X79474497Y-109585261D01*
X79449500Y-109710928D01*
X79449500Y-115031634D01*
X79429815Y-115098673D01*
X79377011Y-115144428D01*
X79336309Y-115155162D01*
X79224596Y-115164936D01*
X79224586Y-115164938D01*
X78996344Y-115226094D01*
X78996335Y-115226098D01*
X78782171Y-115325964D01*
X78782169Y-115325965D01*
X78588597Y-115461505D01*
X78421505Y-115628597D01*
X78285965Y-115822169D01*
X78285964Y-115822171D01*
X78186098Y-116036335D01*
X78186094Y-116036344D01*
X78124938Y-116264586D01*
X78124936Y-116264596D01*
X78104341Y-116499999D01*
X78104341Y-116500000D01*
X78124936Y-116735403D01*
X78124938Y-116735413D01*
X78186094Y-116963655D01*
X78186096Y-116963659D01*
X78186097Y-116963663D01*
X78270499Y-117144663D01*
X78285965Y-117177830D01*
X78285967Y-117177834D01*
X78369753Y-117297492D01*
X78421505Y-117371401D01*
X78588599Y-117538495D01*
X78685384Y-117606265D01*
X78782165Y-117674032D01*
X78782167Y-117674033D01*
X78782170Y-117674035D01*
X78996337Y-117773903D01*
X78996343Y-117773904D01*
X78996344Y-117773905D01*
X79051285Y-117788626D01*
X79224592Y-117835063D01*
X79401034Y-117850500D01*
X79459999Y-117855659D01*
X79460000Y-117855659D01*
X79460001Y-117855659D01*
X79518966Y-117850500D01*
X79695408Y-117835063D01*
X79923663Y-117773903D01*
X80137830Y-117674035D01*
X80331401Y-117538495D01*
X80453329Y-117416566D01*
X80514648Y-117383084D01*
X80584340Y-117388068D01*
X80640274Y-117429939D01*
X80657189Y-117460917D01*
X80706202Y-117592328D01*
X80706206Y-117592335D01*
X80792452Y-117707544D01*
X80792455Y-117707547D01*
X80907664Y-117793793D01*
X80907671Y-117793797D01*
X81042517Y-117844091D01*
X81042516Y-117844091D01*
X81049444Y-117844835D01*
X81102127Y-117850500D01*
X82897872Y-117850499D01*
X82957483Y-117844091D01*
X83092331Y-117793796D01*
X83207546Y-117707546D01*
X83293796Y-117592331D01*
X83344091Y-117457483D01*
X83350500Y-117397873D01*
X83350499Y-115602128D01*
X83344091Y-115542517D01*
X83331094Y-115507671D01*
X83293797Y-115407671D01*
X83293793Y-115407664D01*
X83207547Y-115292455D01*
X83207544Y-115292452D01*
X83092335Y-115206206D01*
X83092328Y-115206202D01*
X82957482Y-115155908D01*
X82957483Y-115155908D01*
X82897883Y-115149501D01*
X82897881Y-115149500D01*
X82897873Y-115149500D01*
X82897865Y-115149500D01*
X82174500Y-115149500D01*
X82107461Y-115129815D01*
X82061706Y-115077011D01*
X82050500Y-115025500D01*
X82050500Y-109502913D01*
X82070185Y-109435874D01*
X82086819Y-109415232D01*
X90915232Y-100586819D01*
X90976555Y-100553334D01*
X91002913Y-100550500D01*
X94415766Y-100550500D01*
X94482805Y-100570185D01*
X94528560Y-100622989D01*
X94538504Y-100692147D01*
X94523153Y-100736499D01*
X94502823Y-100771710D01*
X94502818Y-100771722D01*
X94453471Y-100923599D01*
X94444326Y-100951744D01*
X94424540Y-101140000D01*
X94444326Y-101328256D01*
X94444327Y-101328259D01*
X94502818Y-101508277D01*
X94502821Y-101508284D01*
X94597467Y-101672216D01*
X94693460Y-101778827D01*
X94724129Y-101812888D01*
X94877265Y-101924148D01*
X94877270Y-101924151D01*
X95050192Y-102001142D01*
X95050197Y-102001144D01*
X95235354Y-102040500D01*
X95235355Y-102040500D01*
X95424644Y-102040500D01*
X95424646Y-102040500D01*
X95609803Y-102001144D01*
X95782730Y-101924151D01*
X95837743Y-101884181D01*
X95903549Y-101860702D01*
X95910628Y-101860500D01*
X98838566Y-101860500D01*
X98905605Y-101880185D01*
X98951360Y-101932989D01*
X98961304Y-102002147D01*
X98950948Y-102036905D01*
X98873262Y-102203502D01*
X98873258Y-102203511D01*
X98814366Y-102423302D01*
X98814364Y-102423313D01*
X98794532Y-102649998D01*
X98794532Y-102650001D01*
X98814364Y-102876686D01*
X98814366Y-102876697D01*
X98873258Y-103096488D01*
X98873260Y-103096492D01*
X98873261Y-103096496D01*
X98966528Y-103296506D01*
X98970445Y-103304906D01*
X98980937Y-103373983D01*
X98952417Y-103437767D01*
X98893941Y-103476007D01*
X98833874Y-103478928D01*
X98811607Y-103474500D01*
X98811606Y-103474500D01*
X97853748Y-103474500D01*
X97786709Y-103454815D01*
X97761600Y-103433474D01*
X97755873Y-103427114D01*
X97755869Y-103427110D01*
X97602734Y-103315851D01*
X97602729Y-103315848D01*
X97429807Y-103238857D01*
X97429802Y-103238855D01*
X97284001Y-103207865D01*
X97244646Y-103199500D01*
X97055354Y-103199500D01*
X96928920Y-103226373D01*
X96927332Y-103226699D01*
X96817555Y-103248535D01*
X96817552Y-103248536D01*
X96817550Y-103248536D01*
X96817549Y-103248537D01*
X96775502Y-103265952D01*
X96703713Y-103295688D01*
X96703709Y-103295690D01*
X96601272Y-103364139D01*
X96601264Y-103364145D01*
X96514145Y-103451264D01*
X96514138Y-103451273D01*
X96495405Y-103479307D01*
X96484457Y-103493383D01*
X96417466Y-103567785D01*
X96322821Y-103731715D01*
X96322818Y-103731722D01*
X96265584Y-103907871D01*
X96264326Y-103911744D01*
X96244540Y-104100000D01*
X96264326Y-104288256D01*
X96264327Y-104288259D01*
X96322818Y-104468277D01*
X96322821Y-104468284D01*
X96417467Y-104632216D01*
X96519185Y-104745185D01*
X96544129Y-104772888D01*
X96697265Y-104884148D01*
X96697270Y-104884151D01*
X96870192Y-104961142D01*
X96870197Y-104961144D01*
X97055354Y-105000500D01*
X97055355Y-105000500D01*
X97244644Y-105000500D01*
X97244646Y-105000500D01*
X97429803Y-104961144D01*
X97602730Y-104884151D01*
X97755871Y-104772888D01*
X97758788Y-104769647D01*
X97761600Y-104766526D01*
X97821087Y-104729879D01*
X97853748Y-104725500D01*
X98439548Y-104725500D01*
X98506587Y-104745185D01*
X98527229Y-104761819D01*
X101238181Y-107472771D01*
X101271666Y-107534094D01*
X101274500Y-107560452D01*
X101274500Y-107751312D01*
X101254815Y-107818351D01*
X101242650Y-107834284D01*
X101167466Y-107917784D01*
X101072821Y-108081715D01*
X101072818Y-108081722D01*
X101014327Y-108261740D01*
X101014326Y-108261744D01*
X100994540Y-108450000D01*
X101014326Y-108638256D01*
X101014327Y-108638259D01*
X101072818Y-108818277D01*
X101072821Y-108818284D01*
X101167467Y-108982216D01*
X101284704Y-109112420D01*
X101294129Y-109122888D01*
X101447265Y-109234148D01*
X101447270Y-109234151D01*
X101620192Y-109311142D01*
X101620197Y-109311144D01*
X101805354Y-109350500D01*
X101805355Y-109350500D01*
X101994644Y-109350500D01*
X101994646Y-109350500D01*
X102179803Y-109311144D01*
X102352730Y-109234151D01*
X102505871Y-109122888D01*
X102632533Y-108982216D01*
X102727179Y-108818284D01*
X102785674Y-108638256D01*
X102805460Y-108450000D01*
X102785674Y-108261744D01*
X102727179Y-108081716D01*
X102632533Y-107917784D01*
X102595531Y-107876689D01*
X102557350Y-107834284D01*
X102527120Y-107771292D01*
X102525500Y-107751312D01*
X102525500Y-107188393D01*
X102525499Y-107188389D01*
X102501464Y-107067555D01*
X102501463Y-107067548D01*
X102456155Y-106958165D01*
X102454312Y-106953715D01*
X102385858Y-106851267D01*
X102385855Y-106851263D01*
X99649917Y-104115327D01*
X99616432Y-104054004D01*
X99621416Y-103984312D01*
X99663288Y-103928379D01*
X99728752Y-103903962D01*
X99769690Y-103907870D01*
X99873308Y-103935635D01*
X100035230Y-103949801D01*
X100099998Y-103955468D01*
X100100000Y-103955468D01*
X100100002Y-103955468D01*
X100156673Y-103950509D01*
X100326692Y-103935635D01*
X100546496Y-103876739D01*
X100752734Y-103780568D01*
X100939139Y-103650047D01*
X101100047Y-103489139D01*
X101230568Y-103302734D01*
X101326739Y-103096496D01*
X101385635Y-102876692D01*
X101405468Y-102650000D01*
X101385635Y-102423308D01*
X101326739Y-102203504D01*
X101249051Y-102036904D01*
X101238560Y-101967827D01*
X101267080Y-101904043D01*
X101325556Y-101865804D01*
X101361434Y-101860500D01*
X105994548Y-101860500D01*
X106061587Y-101880185D01*
X106082229Y-101896819D01*
X106420586Y-102235176D01*
X106454071Y-102296499D01*
X106452681Y-102354948D01*
X106434365Y-102423307D01*
X106434364Y-102423313D01*
X106414532Y-102649999D01*
X106414532Y-102650001D01*
X106434364Y-102876686D01*
X106434366Y-102876697D01*
X106493258Y-103096488D01*
X106493261Y-103096497D01*
X106589431Y-103302732D01*
X106589432Y-103302734D01*
X106719954Y-103489141D01*
X106880858Y-103650045D01*
X106880861Y-103650047D01*
X107067266Y-103780568D01*
X107273504Y-103876739D01*
X107273509Y-103876740D01*
X107273511Y-103876741D01*
X107326415Y-103890916D01*
X107493308Y-103935635D01*
X107655230Y-103949801D01*
X107719998Y-103955468D01*
X107720000Y-103955468D01*
X107720002Y-103955468D01*
X107776673Y-103950509D01*
X107946692Y-103935635D01*
X108166496Y-103876739D01*
X108372734Y-103780568D01*
X108379376Y-103775916D01*
X108445582Y-103753589D01*
X108513349Y-103770599D01*
X108561163Y-103821546D01*
X108574500Y-103877491D01*
X108574500Y-106026501D01*
X108554815Y-106093540D01*
X108502011Y-106139295D01*
X108432853Y-106149239D01*
X108369297Y-106120214D01*
X108351234Y-106100813D01*
X108331175Y-106074019D01*
X108307546Y-106042454D01*
X108307544Y-106042453D01*
X108307544Y-106042452D01*
X108192335Y-105956206D01*
X108192328Y-105956202D01*
X108057482Y-105905908D01*
X108057483Y-105905908D01*
X107997883Y-105899501D01*
X107997881Y-105899500D01*
X107997873Y-105899500D01*
X107997864Y-105899500D01*
X106202129Y-105899500D01*
X106202123Y-105899501D01*
X106142516Y-105905908D01*
X106007671Y-105956202D01*
X106007664Y-105956206D01*
X105892455Y-106042452D01*
X105892452Y-106042455D01*
X105806206Y-106157664D01*
X105806202Y-106157671D01*
X105755908Y-106292517D01*
X105749501Y-106352116D01*
X105749500Y-106352135D01*
X105749500Y-108147870D01*
X105749501Y-108147876D01*
X105755908Y-108207483D01*
X105806202Y-108342328D01*
X105806206Y-108342335D01*
X105892452Y-108457544D01*
X105892455Y-108457547D01*
X106007664Y-108543793D01*
X106007671Y-108543797D01*
X106007674Y-108543798D01*
X106139598Y-108593002D01*
X106195531Y-108634873D01*
X106219949Y-108700337D01*
X106205098Y-108768610D01*
X106183947Y-108796865D01*
X106061886Y-108918926D01*
X105926400Y-109112420D01*
X105926399Y-109112422D01*
X105826570Y-109326507D01*
X105826567Y-109326513D01*
X105769364Y-109539999D01*
X105769364Y-109540000D01*
X106666988Y-109540000D01*
X106634075Y-109597007D01*
X106600000Y-109724174D01*
X106600000Y-109855826D01*
X106634075Y-109982993D01*
X106666988Y-110040000D01*
X105769364Y-110040000D01*
X105826567Y-110253486D01*
X105826570Y-110253492D01*
X105926399Y-110467578D01*
X106061894Y-110661082D01*
X106228917Y-110828105D01*
X106422421Y-110963600D01*
X106636507Y-111063429D01*
X106636516Y-111063433D01*
X106850000Y-111120634D01*
X106850000Y-110223012D01*
X106907007Y-110255925D01*
X107034174Y-110290000D01*
X107165826Y-110290000D01*
X107292993Y-110255925D01*
X107350000Y-110223012D01*
X107350000Y-111120633D01*
X107550159Y-111067003D01*
X107620009Y-111068666D01*
X107677871Y-111107829D01*
X107705375Y-111172057D01*
X107693788Y-111240960D01*
X107669933Y-111274459D01*
X107181212Y-111763181D01*
X107119889Y-111796666D01*
X107093531Y-111799500D01*
X94235929Y-111799500D01*
X94110261Y-111824497D01*
X94110255Y-111824499D01*
X93991870Y-111873535D01*
X93885331Y-111944722D01*
X93885324Y-111944728D01*
X90616871Y-115213181D01*
X90555548Y-115246666D01*
X90529190Y-115249500D01*
X90062129Y-115249500D01*
X90062123Y-115249501D01*
X90002516Y-115255908D01*
X89867671Y-115306202D01*
X89867664Y-115306206D01*
X89752455Y-115392452D01*
X89752452Y-115392455D01*
X89666206Y-115507664D01*
X89666202Y-115507671D01*
X89615908Y-115642517D01*
X89609501Y-115702116D01*
X89609500Y-115702135D01*
X89609500Y-117497870D01*
X89609501Y-117497876D01*
X89615908Y-117557483D01*
X89666202Y-117692328D01*
X89666206Y-117692335D01*
X89752452Y-117807544D01*
X89752455Y-117807547D01*
X89867664Y-117893793D01*
X89867671Y-117893797D01*
X90002517Y-117944091D01*
X90002516Y-117944091D01*
X90009444Y-117944835D01*
X90062127Y-117950500D01*
X91857872Y-117950499D01*
X91917483Y-117944091D01*
X92052331Y-117893796D01*
X92167546Y-117807546D01*
X92253796Y-117692331D01*
X92302810Y-117560916D01*
X92344681Y-117504984D01*
X92410145Y-117480566D01*
X92478418Y-117495417D01*
X92506673Y-117516569D01*
X92628599Y-117638495D01*
X92725384Y-117706265D01*
X92822165Y-117774032D01*
X92822167Y-117774033D01*
X92822170Y-117774035D01*
X93036337Y-117873903D01*
X93264592Y-117935063D01*
X93441034Y-117950500D01*
X93499999Y-117955659D01*
X93500000Y-117955659D01*
X93500001Y-117955659D01*
X93558966Y-117950500D01*
X93735408Y-117935063D01*
X93963663Y-117873903D01*
X94177830Y-117774035D01*
X94371401Y-117638495D01*
X94538495Y-117471401D01*
X94674035Y-117277830D01*
X94773903Y-117063663D01*
X94835063Y-116835408D01*
X94855659Y-116600000D01*
X94835063Y-116364592D01*
X94773903Y-116136337D01*
X94674035Y-115922171D01*
X94633837Y-115864761D01*
X94538494Y-115728597D01*
X94371402Y-115561506D01*
X94371401Y-115561505D01*
X94274860Y-115493906D01*
X94203376Y-115443852D01*
X94159751Y-115389275D01*
X94150500Y-115342277D01*
X94150500Y-115087914D01*
X94170185Y-115020875D01*
X94186819Y-115000233D01*
X95525233Y-113661819D01*
X95586556Y-113628334D01*
X95612914Y-113625500D01*
X98854192Y-113625500D01*
X98921231Y-113645185D01*
X98941873Y-113661819D01*
X100385325Y-115105272D01*
X100385332Y-115105278D01*
X100474615Y-115164935D01*
X100474619Y-115164936D01*
X100474620Y-115164937D01*
X100491873Y-115176465D01*
X100491874Y-115176465D01*
X100491875Y-115176466D01*
X100518692Y-115187574D01*
X100610256Y-115225501D01*
X100610260Y-115225501D01*
X100610261Y-115225502D01*
X100735928Y-115250500D01*
X100735931Y-115250500D01*
X107449732Y-115250500D01*
X107534276Y-115233682D01*
X107575405Y-115225501D01*
X107693788Y-115176465D01*
X107711041Y-115164937D01*
X107711041Y-115164936D01*
X107711043Y-115164936D01*
X107791823Y-115110961D01*
X107800330Y-115105277D01*
X109954480Y-112951126D01*
X110015801Y-112917643D01*
X110085493Y-112922627D01*
X110141426Y-112964499D01*
X110165843Y-113029963D01*
X110166159Y-113038751D01*
X110170583Y-122421656D01*
X110170572Y-122423376D01*
X110168132Y-122605393D01*
X110167464Y-122616693D01*
X110129318Y-122979611D01*
X110127287Y-122992430D01*
X110051592Y-123348541D01*
X110048233Y-123361078D01*
X109935727Y-123707335D01*
X109931076Y-123719452D01*
X109782991Y-124052057D01*
X109777099Y-124063621D01*
X109595064Y-124378919D01*
X109587994Y-124389805D01*
X109373998Y-124684346D01*
X109365831Y-124694432D01*
X109122217Y-124964999D01*
X109113039Y-124974177D01*
X108842483Y-125217791D01*
X108832397Y-125225959D01*
X108537849Y-125439966D01*
X108526972Y-125447029D01*
X108300828Y-125577597D01*
X108211676Y-125629071D01*
X108200112Y-125634963D01*
X107867505Y-125783056D01*
X107855388Y-125787707D01*
X107509142Y-125900216D01*
X107496605Y-125903576D01*
X107140477Y-125979280D01*
X107127658Y-125981310D01*
X106764775Y-126019459D01*
X106753436Y-126020128D01*
X106571458Y-126022513D01*
X106569764Y-126022524D01*
X67564004Y-126000761D01*
X66200000Y-126000000D01*
X66199966Y-126000000D01*
X63026574Y-126000000D01*
X63023402Y-125999959D01*
X63017543Y-125999809D01*
X62846532Y-125995432D01*
X62835264Y-125994629D01*
X62481442Y-125953142D01*
X62468752Y-125950981D01*
X62121924Y-125873210D01*
X62109526Y-125869746D01*
X61772610Y-125756431D01*
X61760637Y-125751699D01*
X61437300Y-125604070D01*
X61425884Y-125598123D01*
X61119587Y-125417765D01*
X61108848Y-125410666D01*
X61099135Y-125403494D01*
X60822901Y-125199523D01*
X60812958Y-125191351D01*
X60550445Y-124951702D01*
X60541401Y-124942541D01*
X60440526Y-124829148D01*
X60305142Y-124676963D01*
X60297105Y-124666924D01*
X60089653Y-124378281D01*
X60082694Y-124367453D01*
X59906285Y-124058859D01*
X59900494Y-124047383D01*
X59757027Y-123722156D01*
X59752451Y-123710125D01*
X59643480Y-123371790D01*
X59640175Y-123359348D01*
X59566870Y-123011547D01*
X59564872Y-122998830D01*
X59562869Y-122979611D01*
X59527934Y-122644481D01*
X59527279Y-122633245D01*
X59525008Y-122455366D01*
X59524999Y-122454039D01*
X59524740Y-122000000D01*
X59794457Y-122000000D01*
X59814612Y-122358902D01*
X59814614Y-122358914D01*
X59874826Y-122713296D01*
X59874828Y-122713305D01*
X59974339Y-123058718D01*
X60111905Y-123390831D01*
X60285790Y-123705454D01*
X60493805Y-123998622D01*
X60493806Y-123998623D01*
X60733339Y-124266661D01*
X61001377Y-124506194D01*
X61227903Y-124666924D01*
X61294548Y-124714211D01*
X61609167Y-124888094D01*
X61941276Y-125025659D01*
X62286700Y-125125173D01*
X62641093Y-125185387D01*
X63000000Y-125205543D01*
X63358907Y-125185387D01*
X63713300Y-125125173D01*
X64058724Y-125025659D01*
X64390833Y-124888094D01*
X64705452Y-124714211D01*
X64998623Y-124506194D01*
X65266661Y-124266661D01*
X65506194Y-123998623D01*
X65714211Y-123705452D01*
X65888094Y-123390833D01*
X66025659Y-123058724D01*
X66125173Y-122713300D01*
X66185387Y-122358907D01*
X66199569Y-122106379D01*
X81899500Y-122106379D01*
X81899500Y-122993620D01*
X81936025Y-123177243D01*
X81936027Y-123177251D01*
X82007676Y-123350228D01*
X82007681Y-123350237D01*
X82111697Y-123505907D01*
X82111700Y-123505911D01*
X82244088Y-123638299D01*
X82244092Y-123638302D01*
X82399762Y-123742318D01*
X82399768Y-123742321D01*
X82399769Y-123742322D01*
X82572749Y-123813973D01*
X82756379Y-123850499D01*
X82756383Y-123850500D01*
X82756384Y-123850500D01*
X82943617Y-123850500D01*
X82943618Y-123850499D01*
X83127251Y-123813973D01*
X83300231Y-123742322D01*
X83455908Y-123638302D01*
X83588302Y-123505908D01*
X83692322Y-123350231D01*
X83763973Y-123177251D01*
X83800500Y-122993616D01*
X83800500Y-122106384D01*
X83800499Y-122106379D01*
X88499500Y-122106379D01*
X88499500Y-122993620D01*
X88536025Y-123177243D01*
X88536027Y-123177251D01*
X88607676Y-123350228D01*
X88607681Y-123350237D01*
X88711697Y-123505907D01*
X88711700Y-123505911D01*
X88844088Y-123638299D01*
X88844092Y-123638302D01*
X88999762Y-123742318D01*
X88999768Y-123742321D01*
X88999769Y-123742322D01*
X89172749Y-123813973D01*
X89356379Y-123850499D01*
X89356383Y-123850500D01*
X89356384Y-123850500D01*
X89543617Y-123850500D01*
X89543618Y-123850499D01*
X89727251Y-123813973D01*
X89900231Y-123742322D01*
X90055908Y-123638302D01*
X90188302Y-123505908D01*
X90292322Y-123350231D01*
X90363973Y-123177251D01*
X90400500Y-122993616D01*
X90400500Y-122218109D01*
X103144457Y-122218109D01*
X103164612Y-122577011D01*
X103164614Y-122577023D01*
X103224826Y-122931405D01*
X103224828Y-122931414D01*
X103261505Y-123058724D01*
X103324341Y-123276833D01*
X103354744Y-123350231D01*
X103461905Y-123608940D01*
X103635790Y-123923563D01*
X103735167Y-124063621D01*
X103843806Y-124216732D01*
X104083339Y-124484770D01*
X104306665Y-124684346D01*
X104351377Y-124724303D01*
X104582217Y-124888094D01*
X104644548Y-124932320D01*
X104959167Y-125106203D01*
X105291276Y-125243768D01*
X105636700Y-125343282D01*
X105991093Y-125403496D01*
X106350000Y-125423652D01*
X106708907Y-125403496D01*
X107063300Y-125343282D01*
X107408724Y-125243768D01*
X107740833Y-125106203D01*
X108055452Y-124932320D01*
X108348623Y-124724303D01*
X108616661Y-124484770D01*
X108856194Y-124216732D01*
X109064211Y-123923561D01*
X109238094Y-123608942D01*
X109375659Y-123276833D01*
X109475173Y-122931409D01*
X109535387Y-122577016D01*
X109555543Y-122218109D01*
X109535387Y-121859202D01*
X109475173Y-121504809D01*
X109375659Y-121159385D01*
X109238094Y-120827276D01*
X109064211Y-120512657D01*
X108909451Y-120294545D01*
X108856194Y-120219486D01*
X108616661Y-119951448D01*
X108348623Y-119711915D01*
X108348622Y-119711914D01*
X108055454Y-119503899D01*
X107740831Y-119330014D01*
X107634063Y-119285789D01*
X107408724Y-119192450D01*
X107408720Y-119192448D01*
X107408718Y-119192448D01*
X107063305Y-119092937D01*
X107063296Y-119092935D01*
X106708914Y-119032723D01*
X106708902Y-119032721D01*
X106350000Y-119012566D01*
X105991097Y-119032721D01*
X105991085Y-119032723D01*
X105636703Y-119092935D01*
X105636694Y-119092937D01*
X105291281Y-119192448D01*
X104959168Y-119330014D01*
X104644545Y-119503899D01*
X104351377Y-119711914D01*
X104083339Y-119951448D01*
X103843805Y-120219486D01*
X103635790Y-120512654D01*
X103461905Y-120827277D01*
X103324339Y-121159390D01*
X103224828Y-121504803D01*
X103224826Y-121504812D01*
X103164614Y-121859194D01*
X103164612Y-121859206D01*
X103144457Y-122218109D01*
X90400500Y-122218109D01*
X90400500Y-122106384D01*
X90363973Y-121922749D01*
X90292322Y-121749769D01*
X90292321Y-121749768D01*
X90292318Y-121749762D01*
X90188302Y-121594092D01*
X90188299Y-121594088D01*
X90055911Y-121461700D01*
X90055907Y-121461697D01*
X89900237Y-121357681D01*
X89900228Y-121357676D01*
X89727251Y-121286027D01*
X89727243Y-121286025D01*
X89543620Y-121249500D01*
X89543616Y-121249500D01*
X89356384Y-121249500D01*
X89356379Y-121249500D01*
X89172756Y-121286025D01*
X89172748Y-121286027D01*
X88999771Y-121357676D01*
X88999762Y-121357681D01*
X88844092Y-121461697D01*
X88844088Y-121461700D01*
X88711700Y-121594088D01*
X88711697Y-121594092D01*
X88607681Y-121749762D01*
X88607676Y-121749771D01*
X88536027Y-121922748D01*
X88536025Y-121922756D01*
X88499500Y-122106379D01*
X83800499Y-122106379D01*
X83763973Y-121922749D01*
X83692322Y-121749769D01*
X83692321Y-121749768D01*
X83692318Y-121749762D01*
X83588302Y-121594092D01*
X83588299Y-121594088D01*
X83455911Y-121461700D01*
X83455907Y-121461697D01*
X83300237Y-121357681D01*
X83300228Y-121357676D01*
X83127251Y-121286027D01*
X83127243Y-121286025D01*
X82943620Y-121249500D01*
X82943616Y-121249500D01*
X82756384Y-121249500D01*
X82756379Y-121249500D01*
X82572756Y-121286025D01*
X82572748Y-121286027D01*
X82399771Y-121357676D01*
X82399762Y-121357681D01*
X82244092Y-121461697D01*
X82244088Y-121461700D01*
X82111700Y-121594088D01*
X82111697Y-121594092D01*
X82007681Y-121749762D01*
X82007676Y-121749771D01*
X81936027Y-121922748D01*
X81936025Y-121922756D01*
X81899500Y-122106379D01*
X66199569Y-122106379D01*
X66205543Y-122000000D01*
X66185387Y-121641093D01*
X66125173Y-121286700D01*
X66025659Y-120941276D01*
X65888094Y-120609167D01*
X65714211Y-120294548D01*
X65506194Y-120001377D01*
X65266661Y-119733339D01*
X64998623Y-119493806D01*
X64998622Y-119493805D01*
X64705454Y-119285790D01*
X64390831Y-119111905D01*
X64304086Y-119075974D01*
X64058724Y-118974341D01*
X64058720Y-118974339D01*
X64058718Y-118974339D01*
X63713305Y-118874828D01*
X63713296Y-118874826D01*
X63358914Y-118814614D01*
X63358902Y-118814612D01*
X63000000Y-118794457D01*
X62641097Y-118814612D01*
X62641085Y-118814614D01*
X62286703Y-118874826D01*
X62286694Y-118874828D01*
X61941281Y-118974339D01*
X61609168Y-119111905D01*
X61294545Y-119285790D01*
X61001377Y-119493805D01*
X60733339Y-119733339D01*
X60493805Y-120001377D01*
X60285790Y-120294545D01*
X60111905Y-120609168D01*
X59974339Y-120941281D01*
X59874828Y-121286694D01*
X59874826Y-121286703D01*
X59814614Y-121641085D01*
X59814612Y-121641097D01*
X59794457Y-122000000D01*
X59524740Y-122000000D01*
X59521655Y-116581122D01*
X61344859Y-116581122D01*
X61344859Y-116581133D01*
X61365385Y-116828857D01*
X61365387Y-116828866D01*
X61426412Y-117069845D01*
X61526267Y-117297495D01*
X61626562Y-117451009D01*
X62326212Y-116751361D01*
X62337482Y-116793420D01*
X62409890Y-116918836D01*
X62512292Y-117021238D01*
X62637708Y-117093646D01*
X62679766Y-117104915D01*
X61979943Y-117804737D01*
X62026768Y-117841183D01*
X62026771Y-117841185D01*
X62245385Y-117959492D01*
X62245396Y-117959497D01*
X62480506Y-118040211D01*
X62725707Y-118081128D01*
X62974293Y-118081128D01*
X63219493Y-118040211D01*
X63454603Y-117959497D01*
X63454614Y-117959492D01*
X63673230Y-117841184D01*
X63673236Y-117841179D01*
X63720055Y-117804738D01*
X63720056Y-117804737D01*
X63020233Y-117104915D01*
X63062292Y-117093646D01*
X63187708Y-117021238D01*
X63290110Y-116918836D01*
X63362518Y-116793420D01*
X63373787Y-116751362D01*
X64073435Y-117451010D01*
X64173733Y-117297492D01*
X64273587Y-117069845D01*
X64334612Y-116828866D01*
X64334614Y-116828857D01*
X64355141Y-116581133D01*
X64355141Y-116581122D01*
X67844859Y-116581122D01*
X67844859Y-116581133D01*
X67865385Y-116828857D01*
X67865387Y-116828866D01*
X67926412Y-117069845D01*
X68026267Y-117297495D01*
X68126562Y-117451009D01*
X68826212Y-116751361D01*
X68837482Y-116793420D01*
X68909890Y-116918836D01*
X69012292Y-117021238D01*
X69137708Y-117093646D01*
X69179766Y-117104915D01*
X68479943Y-117804737D01*
X68526768Y-117841183D01*
X68526771Y-117841185D01*
X68745385Y-117959492D01*
X68745396Y-117959497D01*
X68980506Y-118040211D01*
X69225707Y-118081128D01*
X69474293Y-118081128D01*
X69719493Y-118040211D01*
X69954603Y-117959497D01*
X69954614Y-117959492D01*
X70173230Y-117841184D01*
X70173236Y-117841179D01*
X70220055Y-117804738D01*
X70220056Y-117804737D01*
X69520233Y-117104915D01*
X69562292Y-117093646D01*
X69687708Y-117021238D01*
X69790110Y-116918836D01*
X69862518Y-116793420D01*
X69873787Y-116751361D01*
X70573435Y-117451010D01*
X70673733Y-117297492D01*
X70773587Y-117069845D01*
X70834612Y-116828866D01*
X70834614Y-116828857D01*
X70855141Y-116581133D01*
X70855141Y-116581122D01*
X70834614Y-116333398D01*
X70834612Y-116333389D01*
X70773587Y-116092410D01*
X70673732Y-115864760D01*
X70573435Y-115711244D01*
X69873787Y-116410893D01*
X69862518Y-116368836D01*
X69790110Y-116243420D01*
X69687708Y-116141018D01*
X69562292Y-116068610D01*
X69520233Y-116057340D01*
X70220055Y-115357517D01*
X70220055Y-115357516D01*
X70173236Y-115321075D01*
X70173231Y-115321072D01*
X69954614Y-115202763D01*
X69954603Y-115202758D01*
X69719493Y-115122044D01*
X69474293Y-115081128D01*
X69225707Y-115081128D01*
X68980506Y-115122044D01*
X68745396Y-115202758D01*
X68745385Y-115202763D01*
X68526770Y-115321071D01*
X68479943Y-115357517D01*
X69179766Y-116057340D01*
X69137708Y-116068610D01*
X69012292Y-116141018D01*
X68909890Y-116243420D01*
X68837482Y-116368836D01*
X68826212Y-116410894D01*
X68126563Y-115711245D01*
X68026267Y-115864761D01*
X68026265Y-115864765D01*
X67926412Y-116092410D01*
X67865387Y-116333389D01*
X67865385Y-116333398D01*
X67844859Y-116581122D01*
X64355141Y-116581122D01*
X64334614Y-116333398D01*
X64334612Y-116333389D01*
X64273587Y-116092410D01*
X64173732Y-115864760D01*
X64073435Y-115711244D01*
X63373787Y-116410893D01*
X63362518Y-116368836D01*
X63290110Y-116243420D01*
X63187708Y-116141018D01*
X63062292Y-116068610D01*
X63020233Y-116057340D01*
X63720055Y-115357517D01*
X63720055Y-115357516D01*
X63673236Y-115321075D01*
X63673231Y-115321072D01*
X63454614Y-115202763D01*
X63454603Y-115202758D01*
X63219493Y-115122044D01*
X62974293Y-115081128D01*
X62725707Y-115081128D01*
X62480506Y-115122044D01*
X62245396Y-115202758D01*
X62245385Y-115202763D01*
X62026770Y-115321071D01*
X61979943Y-115357517D01*
X62679766Y-116057340D01*
X62637708Y-116068610D01*
X62512292Y-116141018D01*
X62409890Y-116243420D01*
X62337482Y-116368836D01*
X62326212Y-116410894D01*
X61626563Y-115711245D01*
X61526267Y-115864761D01*
X61526265Y-115864765D01*
X61426412Y-116092410D01*
X61365387Y-116333389D01*
X61365385Y-116333398D01*
X61344859Y-116581122D01*
X59521655Y-116581122D01*
X59519093Y-112081122D01*
X61344357Y-112081122D01*
X61344357Y-112081133D01*
X61364890Y-112328940D01*
X61364892Y-112328952D01*
X61425936Y-112570009D01*
X61525826Y-112797734D01*
X61661833Y-113005910D01*
X61692065Y-113038751D01*
X61830256Y-113188866D01*
X62026491Y-113341602D01*
X62245190Y-113459956D01*
X62480386Y-113540699D01*
X62725665Y-113581628D01*
X62974335Y-113581628D01*
X63219614Y-113540699D01*
X63454810Y-113459956D01*
X63673509Y-113341602D01*
X63869744Y-113188866D01*
X64038164Y-113005913D01*
X64174173Y-112797735D01*
X64192560Y-112755817D01*
X64237517Y-112702332D01*
X64304253Y-112681642D01*
X64306116Y-112681628D01*
X67893884Y-112681628D01*
X67960923Y-112701313D01*
X68006678Y-112754117D01*
X68007440Y-112755817D01*
X68025827Y-112797736D01*
X68161833Y-113005910D01*
X68192065Y-113038751D01*
X68330256Y-113188866D01*
X68526491Y-113341602D01*
X68745190Y-113459956D01*
X68980386Y-113540699D01*
X69225665Y-113581628D01*
X69474335Y-113581628D01*
X69719614Y-113540699D01*
X69954810Y-113459956D01*
X70173509Y-113341602D01*
X70369744Y-113188866D01*
X70538164Y-113005913D01*
X70674173Y-112797735D01*
X70774063Y-112570009D01*
X70835108Y-112328949D01*
X70846649Y-112189669D01*
X70855643Y-112081133D01*
X70855643Y-112081122D01*
X70835109Y-111833315D01*
X70835108Y-111833311D01*
X70835108Y-111833307D01*
X70832877Y-111824499D01*
X70773992Y-111591967D01*
X70776616Y-111522146D01*
X70806514Y-111473847D01*
X72518545Y-109761819D01*
X72579868Y-109728334D01*
X72606226Y-109725500D01*
X72669644Y-109725500D01*
X72669646Y-109725500D01*
X72854803Y-109686144D01*
X73027730Y-109609151D01*
X73180871Y-109497888D01*
X73307533Y-109357216D01*
X73402179Y-109193284D01*
X73460674Y-109013256D01*
X73480460Y-108825000D01*
X73460674Y-108636744D01*
X73402179Y-108456716D01*
X73396651Y-108447141D01*
X73376073Y-108411498D01*
X73359600Y-108343598D01*
X73382453Y-108277571D01*
X73437374Y-108234381D01*
X73483455Y-108225499D01*
X75147872Y-108225499D01*
X75207483Y-108219091D01*
X75342331Y-108168796D01*
X75457546Y-108082546D01*
X75543796Y-107967331D01*
X75594091Y-107832483D01*
X75600500Y-107772873D01*
X75600499Y-105977128D01*
X75594091Y-105917517D01*
X75587371Y-105899501D01*
X75543797Y-105782671D01*
X75543793Y-105782664D01*
X75457547Y-105667455D01*
X75457544Y-105667452D01*
X75342335Y-105581206D01*
X75342328Y-105581202D01*
X75210917Y-105532189D01*
X75154983Y-105490318D01*
X75130566Y-105424853D01*
X75145418Y-105356580D01*
X75166563Y-105328332D01*
X75288495Y-105206401D01*
X75424035Y-105012830D01*
X75523903Y-104798663D01*
X75585063Y-104570408D01*
X75605659Y-104335000D01*
X75585063Y-104099592D01*
X75525351Y-103876741D01*
X75523905Y-103871344D01*
X75523904Y-103871343D01*
X75523903Y-103871337D01*
X75424035Y-103657171D01*
X75419046Y-103650045D01*
X75288494Y-103463597D01*
X75121402Y-103296506D01*
X75121396Y-103296501D01*
X74935842Y-103166575D01*
X74892217Y-103111998D01*
X74885023Y-103042500D01*
X74916546Y-102980145D01*
X74935842Y-102963425D01*
X75059709Y-102876692D01*
X75121401Y-102833495D01*
X75288495Y-102666401D01*
X75424035Y-102472830D01*
X75523903Y-102258663D01*
X75585063Y-102030408D01*
X75605659Y-101795000D01*
X75585063Y-101559592D01*
X75527099Y-101343263D01*
X75523905Y-101331344D01*
X75523904Y-101331343D01*
X75523903Y-101331337D01*
X75424035Y-101117171D01*
X75423640Y-101116606D01*
X75288494Y-100923597D01*
X75121402Y-100756506D01*
X75121396Y-100756501D01*
X74935842Y-100626575D01*
X74892217Y-100571998D01*
X74885023Y-100502500D01*
X74916546Y-100440145D01*
X74935842Y-100423425D01*
X75059709Y-100336692D01*
X75121401Y-100293495D01*
X75288495Y-100126401D01*
X75424035Y-99932830D01*
X75523903Y-99718663D01*
X75585063Y-99490408D01*
X75605659Y-99255000D01*
X75585063Y-99019592D01*
X75528221Y-98807451D01*
X75523905Y-98791344D01*
X75523904Y-98791343D01*
X75523903Y-98791337D01*
X75424035Y-98577171D01*
X75419046Y-98570045D01*
X75288494Y-98383597D01*
X75121402Y-98216506D01*
X75121396Y-98216501D01*
X74935842Y-98086575D01*
X74892217Y-98031998D01*
X74885023Y-97962500D01*
X74916546Y-97900145D01*
X74935842Y-97883425D01*
X75059709Y-97796692D01*
X75121401Y-97753495D01*
X75288495Y-97586401D01*
X75424035Y-97392830D01*
X75523903Y-97178663D01*
X75585063Y-96950408D01*
X75605659Y-96715000D01*
X75585063Y-96479592D01*
X75538626Y-96306285D01*
X75523905Y-96251344D01*
X75523904Y-96251343D01*
X75523903Y-96251337D01*
X75424035Y-96037171D01*
X75421921Y-96034151D01*
X75288494Y-95843597D01*
X75121402Y-95676506D01*
X75121396Y-95676501D01*
X74935842Y-95546575D01*
X74892217Y-95491998D01*
X74885023Y-95422500D01*
X74916546Y-95360145D01*
X74935842Y-95343425D01*
X74958026Y-95327891D01*
X75121401Y-95213495D01*
X75288495Y-95046401D01*
X75424035Y-94852830D01*
X75523903Y-94638663D01*
X75585063Y-94410408D01*
X75605659Y-94175000D01*
X75585063Y-93939592D01*
X75523903Y-93711337D01*
X75424035Y-93497171D01*
X75420050Y-93491479D01*
X75288494Y-93303597D01*
X75121402Y-93136506D01*
X75121396Y-93136501D01*
X74935842Y-93006575D01*
X74892217Y-92951998D01*
X74885023Y-92882500D01*
X74916546Y-92820145D01*
X74935842Y-92803425D01*
X74982138Y-92771008D01*
X75121401Y-92673495D01*
X75288495Y-92506401D01*
X75424035Y-92312830D01*
X75523903Y-92098663D01*
X75585063Y-91870408D01*
X75605659Y-91635000D01*
X75585063Y-91399592D01*
X75530113Y-91194512D01*
X75523905Y-91171344D01*
X75523904Y-91171343D01*
X75523903Y-91171337D01*
X75424035Y-90957171D01*
X75419046Y-90950045D01*
X75288494Y-90763597D01*
X75121402Y-90596506D01*
X75121396Y-90596501D01*
X74935842Y-90466575D01*
X74892217Y-90411998D01*
X74885023Y-90342500D01*
X74916546Y-90280145D01*
X74935842Y-90263425D01*
X75059709Y-90176692D01*
X75121401Y-90133495D01*
X75288495Y-89966401D01*
X75424035Y-89772830D01*
X75523903Y-89558663D01*
X75585063Y-89330408D01*
X75605659Y-89095000D01*
X75585063Y-88859592D01*
X75531259Y-88658790D01*
X75523905Y-88631344D01*
X75523904Y-88631343D01*
X75523903Y-88631337D01*
X75424035Y-88417171D01*
X75419046Y-88410045D01*
X75288494Y-88223597D01*
X75121402Y-88056506D01*
X75121395Y-88056501D01*
X74927834Y-87920967D01*
X74927830Y-87920965D01*
X74927828Y-87920964D01*
X74713663Y-87821097D01*
X74713659Y-87821096D01*
X74713655Y-87821094D01*
X74485413Y-87759938D01*
X74485403Y-87759936D01*
X74250001Y-87739341D01*
X74249999Y-87739341D01*
X74014596Y-87759936D01*
X74014586Y-87759938D01*
X73786344Y-87821094D01*
X73786335Y-87821098D01*
X73572171Y-87920964D01*
X73572169Y-87920965D01*
X73378597Y-88056505D01*
X73211505Y-88223597D01*
X73075965Y-88417169D01*
X73075964Y-88417171D01*
X72976098Y-88631335D01*
X72976094Y-88631344D01*
X72914938Y-88859586D01*
X72914936Y-88859596D01*
X72894341Y-89094999D01*
X72894341Y-89095000D01*
X72914936Y-89330403D01*
X72914938Y-89330413D01*
X72976094Y-89558655D01*
X72976096Y-89558659D01*
X72976097Y-89558663D01*
X73052875Y-89723313D01*
X73075965Y-89772830D01*
X73075967Y-89772834D01*
X73177463Y-89917784D01*
X73200019Y-89949998D01*
X73211501Y-89966395D01*
X73211506Y-89966402D01*
X73378597Y-90133493D01*
X73378603Y-90133498D01*
X73564158Y-90263425D01*
X73607783Y-90318002D01*
X73614977Y-90387500D01*
X73583454Y-90449855D01*
X73564158Y-90466575D01*
X73378597Y-90596505D01*
X73211505Y-90763597D01*
X73075965Y-90957169D01*
X73075964Y-90957171D01*
X72984151Y-91154065D01*
X72976333Y-91170832D01*
X72976098Y-91171335D01*
X72976094Y-91171344D01*
X72914938Y-91399586D01*
X72914936Y-91399596D01*
X72894341Y-91634999D01*
X72894341Y-91635000D01*
X72914936Y-91870403D01*
X72914938Y-91870413D01*
X72976094Y-92098655D01*
X72976096Y-92098659D01*
X72976097Y-92098663D01*
X73014828Y-92181722D01*
X73075965Y-92312830D01*
X73075967Y-92312834D01*
X73166466Y-92442079D01*
X73207867Y-92501206D01*
X73211501Y-92506395D01*
X73211506Y-92506402D01*
X73378597Y-92673493D01*
X73378603Y-92673498D01*
X73564158Y-92803425D01*
X73607783Y-92858002D01*
X73614977Y-92927500D01*
X73583454Y-92989855D01*
X73564158Y-93006575D01*
X73378597Y-93136505D01*
X73211505Y-93303597D01*
X73075965Y-93497169D01*
X73075964Y-93497171D01*
X72976098Y-93711335D01*
X72976094Y-93711344D01*
X72914938Y-93939586D01*
X72914936Y-93939596D01*
X72894341Y-94174999D01*
X72894341Y-94175000D01*
X72914936Y-94410403D01*
X72914938Y-94410413D01*
X72976094Y-94638655D01*
X72976096Y-94638659D01*
X72976097Y-94638663D01*
X73009325Y-94709920D01*
X73075965Y-94852830D01*
X73075967Y-94852834D01*
X73211501Y-95046395D01*
X73211506Y-95046402D01*
X73378597Y-95213493D01*
X73378603Y-95213498D01*
X73564158Y-95343425D01*
X73607783Y-95398002D01*
X73614977Y-95467500D01*
X73583454Y-95529855D01*
X73564158Y-95546575D01*
X73378597Y-95676505D01*
X73211505Y-95843597D01*
X73075965Y-96037169D01*
X73075964Y-96037171D01*
X72976098Y-96251335D01*
X72976094Y-96251344D01*
X72914938Y-96479586D01*
X72914936Y-96479596D01*
X72894341Y-96714999D01*
X72894341Y-96715000D01*
X72914936Y-96950403D01*
X72914938Y-96950413D01*
X72976094Y-97178655D01*
X72976096Y-97178659D01*
X72976097Y-97178663D01*
X73052875Y-97343313D01*
X73075965Y-97392830D01*
X73075967Y-97392834D01*
X73177793Y-97538256D01*
X73200019Y-97569998D01*
X73211501Y-97586395D01*
X73211506Y-97586402D01*
X73378597Y-97753493D01*
X73378603Y-97753498D01*
X73564158Y-97883425D01*
X73607783Y-97938002D01*
X73614977Y-98007500D01*
X73583454Y-98069855D01*
X73564158Y-98086575D01*
X73378597Y-98216505D01*
X73211505Y-98383597D01*
X73075965Y-98577169D01*
X73075964Y-98577171D01*
X72976098Y-98791335D01*
X72976094Y-98791344D01*
X72914938Y-99019586D01*
X72914936Y-99019596D01*
X72894341Y-99254999D01*
X72894341Y-99255000D01*
X72914936Y-99490403D01*
X72914938Y-99490413D01*
X72976094Y-99718655D01*
X72976096Y-99718659D01*
X72976097Y-99718663D01*
X73065841Y-99911119D01*
X73075965Y-99932830D01*
X73075967Y-99932834D01*
X73184281Y-100087521D01*
X73200019Y-100109998D01*
X73211501Y-100126395D01*
X73211506Y-100126402D01*
X73378597Y-100293493D01*
X73378603Y-100293498D01*
X73564158Y-100423425D01*
X73607783Y-100478002D01*
X73614977Y-100547500D01*
X73583454Y-100609855D01*
X73564158Y-100626575D01*
X73378597Y-100756505D01*
X73211505Y-100923597D01*
X73075965Y-101117169D01*
X73075964Y-101117171D01*
X72976098Y-101331335D01*
X72976094Y-101331344D01*
X72914938Y-101559586D01*
X72914936Y-101559596D01*
X72894341Y-101794999D01*
X72894341Y-101795000D01*
X72914936Y-102030403D01*
X72914938Y-102030413D01*
X72976094Y-102258655D01*
X72976096Y-102258659D01*
X72976097Y-102258663D01*
X73052875Y-102423313D01*
X73075965Y-102472830D01*
X73075967Y-102472834D01*
X73184281Y-102627521D01*
X73200019Y-102649998D01*
X73211501Y-102666395D01*
X73211506Y-102666402D01*
X73378597Y-102833493D01*
X73378603Y-102833498D01*
X73564158Y-102963425D01*
X73607783Y-103018002D01*
X73614977Y-103087500D01*
X73583454Y-103149855D01*
X73564158Y-103166575D01*
X73378597Y-103296505D01*
X73211505Y-103463597D01*
X73075965Y-103657169D01*
X73075964Y-103657171D01*
X72976098Y-103871335D01*
X72976094Y-103871344D01*
X72914938Y-104099586D01*
X72914936Y-104099596D01*
X72894341Y-104334999D01*
X72894341Y-104335000D01*
X72914936Y-104570403D01*
X72914938Y-104570413D01*
X72976094Y-104798655D01*
X72976096Y-104798659D01*
X72976097Y-104798663D01*
X73051863Y-104961144D01*
X73075965Y-105012830D01*
X73075967Y-105012834D01*
X73145609Y-105112292D01*
X73211501Y-105206396D01*
X73211506Y-105206402D01*
X73333430Y-105328326D01*
X73366915Y-105389649D01*
X73361931Y-105459341D01*
X73320059Y-105515274D01*
X73289083Y-105532189D01*
X73157669Y-105581203D01*
X73157664Y-105581206D01*
X73042455Y-105667452D01*
X73042452Y-105667455D01*
X72956206Y-105782664D01*
X72956202Y-105782671D01*
X72905908Y-105917517D01*
X72901749Y-105956206D01*
X72899501Y-105977123D01*
X72899500Y-105977135D01*
X72899500Y-107772870D01*
X72899501Y-107772879D01*
X72903269Y-107807930D01*
X72890862Y-107876689D01*
X72843250Y-107927825D01*
X72775550Y-107945103D01*
X72754198Y-107942472D01*
X72669646Y-107924500D01*
X72480354Y-107924500D01*
X72464711Y-107927825D01*
X72295197Y-107963855D01*
X72295192Y-107963857D01*
X72122270Y-108040848D01*
X72122265Y-108040851D01*
X71969129Y-108152111D01*
X71842466Y-108292785D01*
X71747821Y-108456715D01*
X71747818Y-108456722D01*
X71689934Y-108634873D01*
X71689326Y-108636744D01*
X71675467Y-108768610D01*
X71669540Y-108825002D01*
X71671665Y-108845226D01*
X71659094Y-108913956D01*
X71636025Y-108945865D01*
X69953548Y-110628343D01*
X69892225Y-110661828D01*
X69825604Y-110657943D01*
X69719616Y-110621557D01*
X69474335Y-110580628D01*
X69225665Y-110580628D01*
X68980383Y-110621557D01*
X68745197Y-110702297D01*
X68745188Y-110702300D01*
X68526493Y-110820652D01*
X68330257Y-110973389D01*
X68161833Y-111156345D01*
X68025827Y-111364519D01*
X68007440Y-111406439D01*
X67962483Y-111459924D01*
X67895747Y-111480614D01*
X67893884Y-111480628D01*
X64306116Y-111480628D01*
X64239077Y-111460943D01*
X64193322Y-111408139D01*
X64192560Y-111406439D01*
X64174172Y-111364519D01*
X64038166Y-111156345D01*
X64016557Y-111132872D01*
X63869744Y-110973390D01*
X63673509Y-110820654D01*
X63673507Y-110820653D01*
X63673506Y-110820652D01*
X63454811Y-110702300D01*
X63454802Y-110702297D01*
X63219616Y-110621557D01*
X62974335Y-110580628D01*
X62725665Y-110580628D01*
X62480383Y-110621557D01*
X62245197Y-110702297D01*
X62245188Y-110702300D01*
X62026493Y-110820652D01*
X61830257Y-110973389D01*
X61661833Y-111156345D01*
X61525826Y-111364521D01*
X61425936Y-111592246D01*
X61364892Y-111833303D01*
X61364890Y-111833315D01*
X61344357Y-112081122D01*
X59519093Y-112081122D01*
X59515004Y-104899994D01*
X61394859Y-104899994D01*
X61394859Y-104900005D01*
X61415385Y-105147729D01*
X61415387Y-105147738D01*
X61476412Y-105388717D01*
X61576267Y-105616367D01*
X61676562Y-105769881D01*
X62376212Y-105070233D01*
X62387482Y-105112292D01*
X62459890Y-105237708D01*
X62562292Y-105340110D01*
X62687708Y-105412518D01*
X62729766Y-105423787D01*
X62029943Y-106123609D01*
X62076768Y-106160055D01*
X62076771Y-106160057D01*
X62295385Y-106278364D01*
X62295396Y-106278369D01*
X62530506Y-106359083D01*
X62775707Y-106400000D01*
X63024293Y-106400000D01*
X63269493Y-106359083D01*
X63504603Y-106278369D01*
X63504614Y-106278364D01*
X63723230Y-106160056D01*
X63723236Y-106160051D01*
X63770055Y-106123610D01*
X63770056Y-106123609D01*
X63070233Y-105423787D01*
X63112292Y-105412518D01*
X63237708Y-105340110D01*
X63340110Y-105237708D01*
X63412518Y-105112292D01*
X63423787Y-105070234D01*
X64123435Y-105769882D01*
X64223733Y-105616364D01*
X64323587Y-105388717D01*
X64384612Y-105147738D01*
X64384614Y-105147729D01*
X64405141Y-104900005D01*
X64405141Y-104899994D01*
X67894859Y-104899994D01*
X67894859Y-104900005D01*
X67915385Y-105147729D01*
X67915387Y-105147738D01*
X67976412Y-105388717D01*
X68076267Y-105616367D01*
X68176562Y-105769881D01*
X68876212Y-105070233D01*
X68887482Y-105112292D01*
X68959890Y-105237708D01*
X69062292Y-105340110D01*
X69187708Y-105412518D01*
X69229766Y-105423787D01*
X68529943Y-106123609D01*
X68576768Y-106160055D01*
X68576771Y-106160057D01*
X68795385Y-106278364D01*
X68795396Y-106278369D01*
X69030506Y-106359083D01*
X69275707Y-106400000D01*
X69524293Y-106400000D01*
X69769493Y-106359083D01*
X70004603Y-106278369D01*
X70004614Y-106278364D01*
X70223230Y-106160056D01*
X70223236Y-106160051D01*
X70270055Y-106123610D01*
X70270056Y-106123609D01*
X69570233Y-105423787D01*
X69612292Y-105412518D01*
X69737708Y-105340110D01*
X69840110Y-105237708D01*
X69912518Y-105112292D01*
X69923787Y-105070234D01*
X70623435Y-105769882D01*
X70723733Y-105616364D01*
X70823587Y-105388717D01*
X70884612Y-105147738D01*
X70884614Y-105147729D01*
X70905141Y-104900005D01*
X70905141Y-104899994D01*
X70884614Y-104652270D01*
X70884612Y-104652261D01*
X70823587Y-104411282D01*
X70723732Y-104183632D01*
X70623435Y-104030116D01*
X69923787Y-104729765D01*
X69912518Y-104687708D01*
X69840110Y-104562292D01*
X69737708Y-104459890D01*
X69612292Y-104387482D01*
X69570233Y-104376212D01*
X70270055Y-103676389D01*
X70270055Y-103676388D01*
X70223236Y-103639947D01*
X70223231Y-103639944D01*
X70004614Y-103521635D01*
X70004603Y-103521630D01*
X69769493Y-103440916D01*
X69524293Y-103400000D01*
X69275707Y-103400000D01*
X69030506Y-103440916D01*
X68795396Y-103521630D01*
X68795385Y-103521635D01*
X68576770Y-103639943D01*
X68529943Y-103676389D01*
X69229766Y-104376212D01*
X69187708Y-104387482D01*
X69062292Y-104459890D01*
X68959890Y-104562292D01*
X68887482Y-104687708D01*
X68876212Y-104729766D01*
X68176563Y-104030117D01*
X68076267Y-104183633D01*
X68076265Y-104183637D01*
X67976412Y-104411282D01*
X67915387Y-104652261D01*
X67915385Y-104652270D01*
X67894859Y-104899994D01*
X64405141Y-104899994D01*
X64384614Y-104652270D01*
X64384612Y-104652261D01*
X64323587Y-104411282D01*
X64223732Y-104183632D01*
X64123435Y-104030116D01*
X63423787Y-104729765D01*
X63412518Y-104687708D01*
X63340110Y-104562292D01*
X63237708Y-104459890D01*
X63112292Y-104387482D01*
X63070233Y-104376212D01*
X63770055Y-103676389D01*
X63770055Y-103676388D01*
X63723236Y-103639947D01*
X63723231Y-103639944D01*
X63504614Y-103521635D01*
X63504603Y-103521630D01*
X63269493Y-103440916D01*
X63024293Y-103400000D01*
X62775707Y-103400000D01*
X62530506Y-103440916D01*
X62295396Y-103521630D01*
X62295385Y-103521635D01*
X62076770Y-103639943D01*
X62029943Y-103676389D01*
X62729766Y-104376212D01*
X62687708Y-104387482D01*
X62562292Y-104459890D01*
X62459890Y-104562292D01*
X62387482Y-104687708D01*
X62376212Y-104729766D01*
X61676563Y-104030117D01*
X61576267Y-104183633D01*
X61576265Y-104183637D01*
X61476412Y-104411282D01*
X61415387Y-104652261D01*
X61415385Y-104652270D01*
X61394859Y-104899994D01*
X59515004Y-104899994D01*
X59512442Y-100399994D01*
X61394357Y-100399994D01*
X61394357Y-100400005D01*
X61414890Y-100647812D01*
X61414892Y-100647824D01*
X61475936Y-100888881D01*
X61575826Y-101116606D01*
X61711833Y-101324782D01*
X61717874Y-101331344D01*
X61880256Y-101507738D01*
X62076491Y-101660474D01*
X62295190Y-101778828D01*
X62530386Y-101859571D01*
X62775665Y-101900500D01*
X63024335Y-101900500D01*
X63269614Y-101859571D01*
X63504810Y-101778828D01*
X63723509Y-101660474D01*
X63919744Y-101507738D01*
X64088164Y-101324785D01*
X64224173Y-101116607D01*
X64242560Y-101074689D01*
X64287517Y-101021204D01*
X64354253Y-101000514D01*
X64356116Y-101000500D01*
X67943884Y-101000500D01*
X68010923Y-101020185D01*
X68056678Y-101072989D01*
X68057440Y-101074689D01*
X68075827Y-101116608D01*
X68211833Y-101324782D01*
X68217874Y-101331344D01*
X68380256Y-101507738D01*
X68576491Y-101660474D01*
X68795190Y-101778828D01*
X69030386Y-101859571D01*
X69275665Y-101900500D01*
X69524335Y-101900500D01*
X69769614Y-101859571D01*
X70004810Y-101778828D01*
X70223509Y-101660474D01*
X70419744Y-101507738D01*
X70588164Y-101324785D01*
X70724173Y-101116607D01*
X70824063Y-100888881D01*
X70885108Y-100647821D01*
X70885109Y-100647812D01*
X70905643Y-100400005D01*
X70905643Y-100399994D01*
X70885109Y-100152187D01*
X70885107Y-100152175D01*
X70824063Y-99911118D01*
X70724173Y-99683393D01*
X70588166Y-99475217D01*
X70498254Y-99377547D01*
X70419744Y-99292262D01*
X70223509Y-99139526D01*
X70223507Y-99139525D01*
X70223506Y-99139524D01*
X70004811Y-99021172D01*
X70004802Y-99021169D01*
X69769616Y-98940429D01*
X69524335Y-98899500D01*
X69275665Y-98899500D01*
X69030383Y-98940429D01*
X68795197Y-99021169D01*
X68795188Y-99021172D01*
X68576493Y-99139524D01*
X68380257Y-99292261D01*
X68211833Y-99475217D01*
X68075827Y-99683391D01*
X68057440Y-99725311D01*
X68012483Y-99778796D01*
X67945747Y-99799486D01*
X67943884Y-99799500D01*
X64356116Y-99799500D01*
X64289077Y-99779815D01*
X64243322Y-99727011D01*
X64242560Y-99725311D01*
X64224172Y-99683391D01*
X64088166Y-99475217D01*
X63998254Y-99377547D01*
X63919744Y-99292262D01*
X63723509Y-99139526D01*
X63723507Y-99139525D01*
X63723506Y-99139524D01*
X63504811Y-99021172D01*
X63504802Y-99021169D01*
X63269616Y-98940429D01*
X63024335Y-98899500D01*
X62775665Y-98899500D01*
X62530383Y-98940429D01*
X62295197Y-99021169D01*
X62295188Y-99021172D01*
X62076493Y-99139524D01*
X61880257Y-99292261D01*
X61711833Y-99475217D01*
X61575826Y-99683393D01*
X61475936Y-99911118D01*
X61414892Y-100152175D01*
X61414890Y-100152187D01*
X61394357Y-100399994D01*
X59512442Y-100399994D01*
X59500069Y-78667873D01*
X59519083Y-78602982D01*
X59723838Y-78602982D01*
X59743026Y-78632801D01*
X59747874Y-78660851D01*
X59764612Y-78958902D01*
X59764614Y-78958914D01*
X59824826Y-79313296D01*
X59824828Y-79313305D01*
X59924339Y-79658718D01*
X59924341Y-79658724D01*
X59975159Y-79781409D01*
X60061905Y-79990831D01*
X60235790Y-80305454D01*
X60443805Y-80598622D01*
X60443806Y-80598623D01*
X60683339Y-80866661D01*
X60907218Y-81066731D01*
X60951377Y-81106194D01*
X61125603Y-81229815D01*
X61244548Y-81314211D01*
X61559167Y-81488094D01*
X61891276Y-81625659D01*
X62236700Y-81725173D01*
X62591093Y-81785387D01*
X62950000Y-81805543D01*
X63308907Y-81785387D01*
X63663300Y-81725173D01*
X64008724Y-81625659D01*
X64340833Y-81488094D01*
X64655452Y-81314211D01*
X64948623Y-81106194D01*
X65216661Y-80866661D01*
X65456194Y-80598623D01*
X65664211Y-80305452D01*
X65838094Y-79990833D01*
X65975659Y-79658724D01*
X66075173Y-79313300D01*
X66135387Y-78958907D01*
X66155543Y-78600000D01*
X66135387Y-78241093D01*
X66075173Y-77886700D01*
X65975659Y-77541276D01*
X65838094Y-77209167D01*
X65664211Y-76894548D01*
X65456194Y-76601377D01*
X65216661Y-76333339D01*
X64948623Y-76093806D01*
X64876244Y-76042450D01*
X64655454Y-75885790D01*
X64340831Y-75711905D01*
X64198072Y-75652772D01*
X64008724Y-75574341D01*
X64008720Y-75574339D01*
X64008718Y-75574339D01*
X63663305Y-75474828D01*
X63663296Y-75474826D01*
X63308914Y-75414614D01*
X63308902Y-75414612D01*
X62950000Y-75394457D01*
X62591097Y-75414612D01*
X62591085Y-75414614D01*
X62236703Y-75474826D01*
X62236694Y-75474828D01*
X61891281Y-75574339D01*
X61559168Y-75711905D01*
X61244545Y-75885790D01*
X60951377Y-76093805D01*
X60683339Y-76333339D01*
X60443805Y-76601377D01*
X60235790Y-76894545D01*
X60061905Y-77209168D01*
X59924339Y-77541281D01*
X59824828Y-77886694D01*
X59824826Y-77886703D01*
X59764614Y-78241085D01*
X59764612Y-78241097D01*
X59748019Y-78536560D01*
X59724606Y-78602390D01*
X59723838Y-78602982D01*
X59519083Y-78602982D01*
X59519715Y-78600824D01*
X59525144Y-78596113D01*
X59503465Y-78557815D01*
X59500224Y-78528049D01*
X59502239Y-78368257D01*
X59502890Y-78357034D01*
X59504395Y-78342517D01*
X59539446Y-78004453D01*
X59541423Y-77991808D01*
X59546128Y-77969364D01*
X59613983Y-77645652D01*
X59617245Y-77633302D01*
X59725123Y-77296453D01*
X59729653Y-77284480D01*
X59762677Y-77209168D01*
X59871688Y-76960563D01*
X59877412Y-76949151D01*
X60052102Y-76641595D01*
X60058971Y-76630835D01*
X60264454Y-76342925D01*
X60272407Y-76332919D01*
X60506468Y-76067753D01*
X60515404Y-76058626D01*
X60775570Y-75819004D01*
X60785418Y-75810834D01*
X60924874Y-75706784D01*
X61068897Y-75599328D01*
X61079511Y-75592231D01*
X61383311Y-75411075D01*
X61394618Y-75405102D01*
X61715451Y-75256256D01*
X61727317Y-75251478D01*
X62061805Y-75136505D01*
X62074096Y-75132980D01*
X62418643Y-75053118D01*
X62431230Y-75050877D01*
X62782965Y-75006874D01*
X62794162Y-75005986D01*
X62969629Y-75000071D01*
X62973807Y-75000001D01*
X66146701Y-75000001D01*
X106525667Y-75000000D01*
X106532140Y-75000169D01*
G37*
G04 #@! TD.AperFunction*
G04 #@! TA.AperFunction,Conductor*
G36*
X106412902Y-89470185D02*
G01*
X106458657Y-89522989D01*
X106468601Y-89592147D01*
X106465638Y-89606593D01*
X106434366Y-89723302D01*
X106434364Y-89723313D01*
X106414532Y-89949998D01*
X106414532Y-89950001D01*
X106434364Y-90176686D01*
X106434366Y-90176697D01*
X106493258Y-90396488D01*
X106493261Y-90396497D01*
X106589431Y-90602732D01*
X106589432Y-90602734D01*
X106719954Y-90789141D01*
X106880858Y-90950045D01*
X106880861Y-90950047D01*
X107067266Y-91080568D01*
X107125865Y-91107893D01*
X107178305Y-91154065D01*
X107197457Y-91221258D01*
X107177242Y-91288139D01*
X107125867Y-91332657D01*
X107067515Y-91359867D01*
X106881179Y-91490342D01*
X106720342Y-91651179D01*
X106589865Y-91837517D01*
X106493734Y-92043673D01*
X106493730Y-92043682D01*
X106441127Y-92239999D01*
X106441128Y-92240000D01*
X107404314Y-92240000D01*
X107399920Y-92244394D01*
X107347259Y-92335606D01*
X107320000Y-92437339D01*
X107320000Y-92542661D01*
X107347259Y-92644394D01*
X107399920Y-92735606D01*
X107404314Y-92740000D01*
X106441128Y-92740000D01*
X106493730Y-92936317D01*
X106493734Y-92936326D01*
X106589865Y-93142482D01*
X106720342Y-93328820D01*
X106881179Y-93489657D01*
X107067517Y-93620134D01*
X107126457Y-93647618D01*
X107178896Y-93693790D01*
X107198048Y-93760984D01*
X107177832Y-93827865D01*
X107126457Y-93872382D01*
X107067517Y-93899865D01*
X106881179Y-94030342D01*
X106720342Y-94191179D01*
X106589865Y-94377517D01*
X106493734Y-94583673D01*
X106493730Y-94583682D01*
X106441127Y-94779999D01*
X106441128Y-94780000D01*
X107404314Y-94780000D01*
X107399920Y-94784394D01*
X107347259Y-94875606D01*
X107320000Y-94977339D01*
X107320000Y-95082661D01*
X107347259Y-95184394D01*
X107399920Y-95275606D01*
X107404314Y-95280000D01*
X106441128Y-95280000D01*
X106493730Y-95476317D01*
X106493734Y-95476326D01*
X106589865Y-95682482D01*
X106720342Y-95868820D01*
X106881179Y-96029657D01*
X107067518Y-96160134D01*
X107067520Y-96160135D01*
X107125865Y-96187342D01*
X107178305Y-96233514D01*
X107197457Y-96300707D01*
X107177242Y-96367589D01*
X107125867Y-96412105D01*
X107091188Y-96428277D01*
X107067264Y-96439433D01*
X106880858Y-96569954D01*
X106719954Y-96730858D01*
X106589432Y-96917265D01*
X106589431Y-96917267D01*
X106493261Y-97123502D01*
X106493258Y-97123511D01*
X106434366Y-97343302D01*
X106434364Y-97343313D01*
X106414532Y-97569998D01*
X106414532Y-97570001D01*
X106434364Y-97796686D01*
X106434366Y-97796697D01*
X106493258Y-98016488D01*
X106493261Y-98016497D01*
X106589431Y-98222732D01*
X106589432Y-98222734D01*
X106719954Y-98409141D01*
X106880858Y-98570045D01*
X106880861Y-98570047D01*
X107067266Y-98700568D01*
X107125275Y-98727618D01*
X107177714Y-98773791D01*
X107196866Y-98840984D01*
X107176650Y-98907865D01*
X107125275Y-98952382D01*
X107067267Y-98979431D01*
X107067265Y-98979432D01*
X106880858Y-99109954D01*
X106719954Y-99270858D01*
X106589432Y-99457265D01*
X106589431Y-99457267D01*
X106493261Y-99663502D01*
X106493258Y-99663511D01*
X106434366Y-99883302D01*
X106434364Y-99883313D01*
X106414532Y-100109998D01*
X106414532Y-100110001D01*
X106434364Y-100336686D01*
X106434366Y-100336697D01*
X106465638Y-100453407D01*
X106463975Y-100523257D01*
X106424812Y-100581119D01*
X106360583Y-100608623D01*
X106345863Y-100609500D01*
X101474137Y-100609500D01*
X101407098Y-100589815D01*
X101361343Y-100537011D01*
X101351399Y-100467853D01*
X101354362Y-100453407D01*
X101368673Y-100399994D01*
X101385635Y-100336692D01*
X101405468Y-100110000D01*
X101385635Y-99883308D01*
X101326739Y-99663504D01*
X101230568Y-99457266D01*
X101221103Y-99443749D01*
X101198777Y-99377547D01*
X101215786Y-99309779D01*
X101234994Y-99284951D01*
X101755277Y-98764669D01*
X101826465Y-98658127D01*
X101863083Y-98569724D01*
X101875501Y-98539744D01*
X101895990Y-98436744D01*
X101900500Y-98414071D01*
X101900500Y-91035928D01*
X101875502Y-90910261D01*
X101875501Y-90910260D01*
X101875501Y-90910256D01*
X101836339Y-90815710D01*
X101826466Y-90791874D01*
X101824449Y-90788856D01*
X101755278Y-90685332D01*
X101755272Y-90685325D01*
X101406884Y-90336938D01*
X101373399Y-90275615D01*
X101374791Y-90217162D01*
X101385633Y-90176699D01*
X101385632Y-90176699D01*
X101385635Y-90176692D01*
X101405468Y-89950000D01*
X101402649Y-89917784D01*
X101394488Y-89824500D01*
X101385635Y-89723308D01*
X101360876Y-89630906D01*
X101354362Y-89606593D01*
X101356025Y-89536743D01*
X101395188Y-89478881D01*
X101459417Y-89451377D01*
X101474137Y-89450500D01*
X106345863Y-89450500D01*
X106412902Y-89470185D01*
G37*
G04 #@! TD.AperFunction*
G04 #@! TA.AperFunction,Conductor*
G36*
X99779920Y-94784394D02*
G01*
X99727259Y-94875606D01*
X99700000Y-94977339D01*
X99700000Y-95082661D01*
X99727259Y-95184394D01*
X99779920Y-95275606D01*
X99784314Y-95280000D01*
X98821128Y-95280000D01*
X98824720Y-95293407D01*
X98823057Y-95363256D01*
X98783894Y-95421119D01*
X98719666Y-95448623D01*
X98704945Y-95449500D01*
X98555354Y-95449500D01*
X98494607Y-95462411D01*
X98424942Y-95457095D01*
X98369208Y-95414957D01*
X98345104Y-95349377D01*
X98360282Y-95281176D01*
X98381144Y-95253444D01*
X98818270Y-94816319D01*
X98879593Y-94782834D01*
X98905951Y-94780000D01*
X99784314Y-94780000D01*
X99779920Y-94784394D01*
G37*
G04 #@! TD.AperFunction*
G04 #@! TA.AperFunction,Conductor*
G36*
X100350000Y-94714314D02*
G01*
X100345606Y-94709920D01*
X100254394Y-94657259D01*
X100152661Y-94630000D01*
X100047339Y-94630000D01*
X99945606Y-94657259D01*
X99854394Y-94709920D01*
X99850000Y-94714314D01*
X99850000Y-92805686D01*
X99854394Y-92810080D01*
X99945606Y-92862741D01*
X100047339Y-92890000D01*
X100152661Y-92890000D01*
X100254394Y-92862741D01*
X100345606Y-92810080D01*
X100350000Y-92805686D01*
X100350000Y-94714314D01*
G37*
G04 #@! TD.AperFunction*
G04 #@! TA.AperFunction,Conductor*
G36*
X107970000Y-94714314D02*
G01*
X107965606Y-94709920D01*
X107874394Y-94657259D01*
X107772661Y-94630000D01*
X107667339Y-94630000D01*
X107565606Y-94657259D01*
X107474394Y-94709920D01*
X107470000Y-94714314D01*
X107470000Y-92805686D01*
X107474394Y-92810080D01*
X107565606Y-92862741D01*
X107667339Y-92890000D01*
X107772661Y-92890000D01*
X107874394Y-92862741D01*
X107965606Y-92810080D01*
X107970000Y-92805686D01*
X107970000Y-94714314D01*
G37*
G04 #@! TD.AperFunction*
G04 #@! TA.AperFunction,Conductor*
G36*
X77585722Y-80609806D02*
G01*
X77635647Y-80640237D01*
X78741016Y-81745606D01*
X78741045Y-81745637D01*
X78831263Y-81835855D01*
X78831267Y-81835858D01*
X78902863Y-81883696D01*
X78902865Y-81883699D01*
X78902866Y-81883699D01*
X78933708Y-81904308D01*
X78933712Y-81904310D01*
X78933715Y-81904312D01*
X79000396Y-81931931D01*
X79000398Y-81931933D01*
X79040640Y-81948601D01*
X79047548Y-81951463D01*
X79107971Y-81963481D01*
X79168393Y-81975500D01*
X79168394Y-81975500D01*
X82726756Y-81975500D01*
X82793795Y-81995185D01*
X82814437Y-82011819D01*
X83715436Y-82912819D01*
X83748921Y-82974142D01*
X83743937Y-83043834D01*
X83702065Y-83099767D01*
X83636601Y-83124184D01*
X83627755Y-83124500D01*
X79400453Y-83124500D01*
X79333414Y-83104815D01*
X79312772Y-83088181D01*
X77091931Y-80867340D01*
X77058446Y-80806017D01*
X77063430Y-80736325D01*
X77105302Y-80680392D01*
X77170766Y-80655975D01*
X77179612Y-80655659D01*
X77180001Y-80655659D01*
X77238966Y-80650500D01*
X77415408Y-80635063D01*
X77515873Y-80608143D01*
X77585722Y-80609806D01*
G37*
G04 #@! TD.AperFunction*
G04 #@! TA.AperFunction,Conductor*
G36*
X85921587Y-80431886D02*
G01*
X85942229Y-80448520D01*
X87056528Y-81562819D01*
X87090013Y-81624142D01*
X87085029Y-81693834D01*
X87043157Y-81749767D01*
X86977693Y-81774184D01*
X86968847Y-81774500D01*
X85670452Y-81774500D01*
X85603413Y-81754815D01*
X85582771Y-81738181D01*
X84711930Y-80867340D01*
X84678445Y-80806017D01*
X84683429Y-80736325D01*
X84725301Y-80680392D01*
X84790765Y-80655975D01*
X84799611Y-80655659D01*
X84800001Y-80655659D01*
X84858966Y-80650500D01*
X85035408Y-80635063D01*
X85263663Y-80573903D01*
X85477830Y-80474035D01*
X85514269Y-80448520D01*
X85534113Y-80434626D01*
X85600319Y-80412299D01*
X85605236Y-80412201D01*
X85854548Y-80412201D01*
X85921587Y-80431886D01*
G37*
G04 #@! TD.AperFunction*
M02*
