M48
; DRILL file {KiCad 8.0.7-8.0.7-0~ubuntu22.04.1} date 2025-01-30T21:49:31+0100
; FORMAT={-:-/ absolute / metric / decimal}
; #@! TF.CreationDate,2025-01-30T21:49:31+01:00
; #@! TF.GenerationSoftware,Kicad,Pcbnew,8.0.7-8.0.7-0~ubuntu22.04.1
; #@! TF.FileFunction,Plated,1,2,PTH
FMAT,2
METRIC
; #@! TA.AperFunction,Plated,PTH,ViaDrill
T1C0.400
; #@! TA.AperFunction,Plated,PTH,ComponentDrill
T2C0.500
; #@! TA.AperFunction,Plated,PTH,ComponentDrill
T3C0.800
; #@! TA.AperFunction,Plated,PTH,ComponentDrill
T4C1.000
; #@! TA.AperFunction,Plated,PTH,ComponentDrill
T5C1.100
; #@! TA.AperFunction,Plated,PTH,ComponentDrill
T6C2.700
%
G90
G05
T1
X60.35Y-81.3
X60.4Y-93.95
X62.75Y-84.4
X62.85Y-89.4
X65.25Y-104.15
X65.9Y-125.0
X66.2Y-86.95
X67.3Y-76.95
X68.425Y-123.4
X69.75Y-84.35
X70.05Y-89.55
X70.4Y-80.15
X71.975Y-98.075
X72.575Y-108.825
X72.7Y-75.95
X73.5Y-118.0
X75.0Y-84.75
X75.25Y-120.75
X77.61Y-106.24
X79.25Y-76.25
X79.5Y-82.5
X80.5Y-102.45
X80.85Y-123.7
X80.875Y-93.575
X81.1Y-98.65
X83.0Y-85.25
X83.475Y-111.65
X83.5Y-90.5
X83.85Y-95.9
X84.0Y-101.5
X84.05Y-115.55
X85.306Y-93.303
X86.15Y-81.35
X86.3Y-93.2
X86.3Y-112.25
X86.55Y-75.8
X87.15Y-104.9
X87.25Y-92.55
X87.55Y-85.925
X88.45Y-91.95
X88.45Y-95.3
X88.5Y-117.5
X89.25Y-102.85
X89.55Y-91.65
X90.9Y-111.3
X91.4Y-91.475
X92.19Y-85.922
X92.95Y-90.45
X93.95Y-95.25
X95.33Y-96.06
X95.33Y-101.14
X95.4Y-98.625
X95.45Y-97.35
X95.6Y-82.05
X96.29Y-121.8
X97.15Y-104.1
X98.275Y-111.25
X98.6Y-97.775
X98.65Y-96.35
X98.75Y-116.65
X98.8Y-76.5
X101.6Y-113.55
X101.9Y-108.45
X102.2Y-123.925
X102.65Y-118.575
X103.75Y-98.775
X104.025Y-85.925
X104.212Y-93.554
X104.25Y-103.1
X109.15Y-111.775
X109.15Y-115.2
T2
X60.925Y-78.6
X60.975Y-122.0
X61.518Y-77.168
X61.518Y-80.032
X61.568Y-120.568
X61.568Y-123.432
X62.95Y-76.575
X62.95Y-80.625
X63.0Y-119.975
X63.0Y-124.025
X64.382Y-77.168
X64.382Y-80.032
X64.432Y-120.568
X64.432Y-123.432
X64.975Y-78.6
X65.025Y-122.0
X104.3Y-79.068
X104.325Y-122.218
X104.893Y-77.636
X104.893Y-80.5
X104.918Y-120.786
X104.918Y-123.65
X106.325Y-77.043
X106.325Y-81.093
X106.35Y-120.193
X106.35Y-124.243
X107.757Y-77.636
X107.757Y-80.5
X107.782Y-120.786
X107.782Y-123.65
X108.35Y-79.068
X108.375Y-122.218
T3
X100.1Y-84.87
X100.1Y-87.41
X100.1Y-89.95
X100.1Y-92.49
X100.1Y-95.03
X100.1Y-97.57
X100.1Y-100.11
X100.1Y-102.65
X107.72Y-84.87
X107.72Y-87.41
X107.72Y-89.95
X107.72Y-92.49
X107.72Y-95.03
X107.72Y-97.57
X107.72Y-100.11
X107.72Y-102.65
T4
X74.25Y-89.095
X74.25Y-91.635
X74.25Y-94.175
X74.25Y-96.715
X74.25Y-99.255
X74.25Y-101.795
X74.25Y-104.335
X74.25Y-106.875
X74.64Y-79.3
X77.18Y-79.3
X79.46Y-116.5
X79.72Y-79.3
X82.0Y-116.5
X82.26Y-79.3
X84.8Y-79.3
X87.34Y-79.3
X89.88Y-79.3
X90.96Y-116.6
X92.42Y-79.3
X93.5Y-116.6
X94.96Y-79.3
X97.5Y-79.3
X100.04Y-79.3
X107.1Y-107.25
X107.1Y-109.79
T5
X62.85Y-112.081
X62.85Y-116.581
X62.9Y-100.4
X62.9Y-104.9
X69.35Y-112.081
X69.35Y-116.581
X69.4Y-100.4
X69.4Y-104.9
T6
X62.95Y-78.6
X63.0Y-122.0
X106.325Y-79.068
X106.35Y-122.218
T2
X82.85Y-122.9G85X82.85Y-122.2
G05
X89.45Y-122.9G85X89.45Y-122.2
G05
M30
