G04 #@! TF.GenerationSoftware,KiCad,Pcbnew,8.0.7-8.0.7-0~ubuntu22.04.1*
G04 #@! TF.CreationDate,2025-01-30T21:49:18+01:00*
G04 #@! TF.ProjectId,linefollower_pcb,6c696e65-666f-46c6-9c6f-7765725f7063,rev?*
G04 #@! TF.SameCoordinates,Original*
G04 #@! TF.FileFunction,Paste,Top*
G04 #@! TF.FilePolarity,Positive*
%FSLAX46Y46*%
G04 Gerber Fmt 4.6, Leading zero omitted, Abs format (unit mm)*
G04 Created by KiCad (PCBNEW 8.0.7-8.0.7-0~ubuntu22.04.1) date 2025-01-30 21:49:18*
%MOMM*%
%LPD*%
G01*
G04 APERTURE LIST*
G04 Aperture macros list*
%AMRoundRect*
0 Rectangle with rounded corners*
0 $1 Rounding radius*
0 $2 $3 $4 $5 $6 $7 $8 $9 X,Y pos of 4 corners*
0 Add a 4 corners polygon primitive as box body*
4,1,4,$2,$3,$4,$5,$6,$7,$8,$9,$2,$3,0*
0 Add four circle primitives for the rounded corners*
1,1,$1+$1,$2,$3*
1,1,$1+$1,$4,$5*
1,1,$1+$1,$6,$7*
1,1,$1+$1,$8,$9*
0 Add four rect primitives between the rounded corners*
20,1,$1+$1,$2,$3,$4,$5,0*
20,1,$1+$1,$4,$5,$6,$7,0*
20,1,$1+$1,$6,$7,$8,$9,0*
20,1,$1+$1,$8,$9,$2,$3,0*%
G04 Aperture macros list end*
%ADD10RoundRect,0.100000X-0.100000X-0.575000X0.100000X-0.575000X0.100000X0.575000X-0.100000X0.575000X0*%
%ADD11O,0.900000X1.600000*%
%ADD12RoundRect,0.250000X-0.550000X-0.450000X0.550000X-0.450000X0.550000X0.450000X-0.550000X0.450000X0*%
%ADD13RoundRect,0.250000X-0.700000X-0.700000X0.700000X-0.700000X0.700000X0.700000X-0.700000X0.700000X0*%
%ADD14RoundRect,0.250000X-0.412500X-0.650000X0.412500X-0.650000X0.412500X0.650000X-0.412500X0.650000X0*%
%ADD15RoundRect,0.250000X-0.650000X0.412500X-0.650000X-0.412500X0.650000X-0.412500X0.650000X0.412500X0*%
%ADD16RoundRect,0.250000X-0.400000X-0.625000X0.400000X-0.625000X0.400000X0.625000X-0.400000X0.625000X0*%
%ADD17RoundRect,0.225000X-0.525000X-0.225000X0.525000X-0.225000X0.525000X0.225000X-0.525000X0.225000X0*%
%ADD18RoundRect,0.225000X0.225000X0.525000X-0.225000X0.525000X-0.225000X-0.525000X0.225000X-0.525000X0*%
%ADD19RoundRect,0.225000X0.525000X0.225000X-0.525000X0.225000X-0.525000X-0.225000X0.525000X-0.225000X0*%
%ADD20RoundRect,0.185000X1.665000X1.665000X-1.665000X1.665000X-1.665000X-1.665000X1.665000X-1.665000X0*%
%ADD21RoundRect,0.250000X0.300000X-2.050000X0.300000X2.050000X-0.300000X2.050000X-0.300000X-2.050000X0*%
%ADD22RoundRect,0.250000X2.375000X-2.025000X2.375000X2.025000X-2.375000X2.025000X-2.375000X-2.025000X0*%
%ADD23RoundRect,0.250000X0.412500X0.650000X-0.412500X0.650000X-0.412500X-0.650000X0.412500X-0.650000X0*%
G04 APERTURE END LIST*
D10*
X84850000Y-119875000D03*
X85500000Y-119875000D03*
X86150000Y-119875000D03*
X86800000Y-119875000D03*
X87450000Y-119875000D03*
D11*
X82850000Y-122550000D03*
D12*
X82950000Y-120100000D03*
D13*
X84950000Y-122550000D03*
X87350000Y-122550000D03*
D12*
X89350000Y-120100000D03*
D11*
X89450000Y-122550000D03*
D14*
X61687500Y-108350000D03*
X64812500Y-108350000D03*
D15*
X74250000Y-111437500D03*
X74250000Y-114562500D03*
D16*
X101600000Y-113550000D03*
X104700000Y-113550000D03*
D17*
X95330000Y-106220000D03*
X95330000Y-104950000D03*
X95330000Y-103680000D03*
X95330000Y-102410000D03*
X95330000Y-101140000D03*
X95330000Y-99870000D03*
X95330000Y-98600000D03*
X95330000Y-97330000D03*
X95330000Y-96060000D03*
X95330000Y-94790000D03*
X95330000Y-93520000D03*
X95330000Y-92250000D03*
X95330000Y-90980000D03*
X95330000Y-89710000D03*
D18*
X93460000Y-88430000D03*
X92190000Y-88430000D03*
X90920000Y-88430000D03*
X89650000Y-88430000D03*
X88380000Y-88430000D03*
X87110000Y-88430000D03*
X85840000Y-88430000D03*
X84570000Y-88430000D03*
X83300000Y-88430000D03*
X82030000Y-88430000D03*
X80760000Y-88430000D03*
X79490000Y-88430000D03*
D19*
X77610000Y-89730000D03*
X77610000Y-91000000D03*
X77610000Y-92270000D03*
X77610000Y-93540000D03*
X77610000Y-94810000D03*
X77610000Y-96080000D03*
X77610000Y-97350000D03*
X77610000Y-98620000D03*
X77610000Y-99890000D03*
X77610000Y-101160000D03*
X77610000Y-102430000D03*
X77610000Y-103700000D03*
X77610000Y-104970000D03*
X77610000Y-106240000D03*
D20*
X88050000Y-98850000D03*
D14*
X101637500Y-116350000D03*
X104762500Y-116350000D03*
D21*
X62800000Y-96175000D03*
X64500000Y-96175000D03*
X66200000Y-96175000D03*
D22*
X63425000Y-89450000D03*
X68975000Y-89450000D03*
X63425000Y-84600000D03*
X68975000Y-84600000D03*
D21*
X67900000Y-96175000D03*
X69600000Y-96175000D03*
D23*
X70187500Y-108350000D03*
X67062500Y-108350000D03*
X103462500Y-110150000D03*
X100337500Y-110150000D03*
M02*
