M48
; DRILL file {KiCad 7.0.7} date Tue May 28 19:53:21 2024
; FORMAT={-:-/ absolute / metric / decimal}
; #@! TF.CreationDate,2024-05-28T19:53:21+02:00
; #@! TF.GenerationSoftware,Kicad,Pcbnew,7.0.7
; #@! TF.FileFunction,Plated,1,2,PTH
FMAT,2
METRIC
; #@! TA.AperFunction,Plated,PTH,ViaDrill
T1C0.400
; #@! TA.AperFunction,Plated,PTH,ComponentDrill
T2C0.500
; #@! TA.AperFunction,Plated,PTH,ComponentDrill
T3C0.762
; #@! TA.AperFunction,Plated,PTH,ComponentDrill
T4C0.800
; #@! TA.AperFunction,Plated,PTH,ComponentDrill
T5C1.000
; #@! TA.AperFunction,Plated,PTH,ComponentDrill
T6C1.020
; #@! TA.AperFunction,Plated,PTH,ComponentDrill
T7C2.700
%
G90
G05
T1
X66.65Y-77.8
X67.8Y-107.6
X68.15Y-92.4
X77.75Y-85.65
X78.2Y-99.95
X78.75Y-113.25
X78.9Y-69.9
X85.95Y-77.7
X86.65Y-124.45
X87.15Y-92.4
X87.25Y-108.0
X93.55Y-113.6
X94.0Y-99.4
X97.15Y-69.8
X98.25Y-85.1
X101.0Y-109.75
X101.5Y-124.45
X105.8Y-77.35
X108.05Y-93.4
X108.05Y-100.9
X108.1Y-91.1
X108.1Y-103.65
X108.15Y-106.1
X108.2Y-95.9
X108.2Y-98.45
X108.3Y-112.2
X113.2Y-69.8
X114.3Y-107.25
X114.8Y-124.45
X114.85Y-99.5
X115.6Y-85.1
X118.5Y-114.85
X122.05Y-78.1
X122.15Y-92.65
X123.25Y-108.7
X128.25Y-124.45
X128.4Y-70.25
X129.1Y-98.35
X129.35Y-85.2
X131.85Y-114.55
X133.75Y-78.0
X138.85Y-93.1
X139.0Y-97.75
X140.1Y-106.65
X140.4Y-70.05
X140.6Y-101.25
X141.45Y-114.4
X141.7Y-95.95
X142.0Y-124.55
X142.05Y-84.45
X142.2Y-103.5
X147.05Y-108.8
X147.15Y-93.6
X148.35Y-77.7
X151.5Y-114.1
X151.6Y-98.8
X152.05Y-70.05
X153.0Y-124.8
X154.25Y-84.1
X154.6Y-92.85
X155.75Y-108.9
X161.55Y-78.1
T2
X65.55Y-121.35
X65.625Y-70.05
X66.143Y-119.918
X66.143Y-122.782
X66.218Y-68.618
X66.218Y-71.482
X67.575Y-119.325
X67.575Y-123.375
X67.65Y-68.025
X67.65Y-72.075
X69.007Y-119.918
X69.007Y-122.782
X69.082Y-68.618
X69.082Y-71.482
X69.6Y-121.35
X69.675Y-70.05
X156.925Y-121.175
X157.225Y-70.15
X157.518Y-119.743
X157.518Y-122.607
X157.818Y-68.718
X157.818Y-71.582
X158.95Y-119.15
X158.95Y-123.2
X159.25Y-68.125
X159.25Y-72.175
X160.382Y-119.743
X160.382Y-122.607
X160.682Y-68.718
X160.682Y-71.582
X160.975Y-121.175
X161.275Y-70.15
T3
X72.25Y-75.3
X72.25Y-116.2
X90.35Y-75.3
X90.35Y-116.2
X143.7Y-91.98
X143.7Y-94.5
X143.7Y-97.02
X143.7Y-99.54
X143.7Y-102.06
X143.7Y-104.58
X143.7Y-107.1
X143.7Y-109.62
X158.82Y-91.98
X158.82Y-94.5
X158.82Y-97.02
X158.82Y-99.54
X158.82Y-102.06
X158.82Y-104.58
X158.82Y-107.1
X158.82Y-109.62
T4
X95.86Y-92.415
X95.957Y-105.215
X97.06Y-81.915
X99.56Y-81.915
X100.86Y-92.415
X100.957Y-105.215
T5
X96.785Y-115.015
X99.325Y-115.015
X105.3Y-89.64
X105.3Y-92.18
X105.3Y-94.72
X105.3Y-97.26
X105.3Y-99.8
X105.3Y-102.34
X105.3Y-104.88
X105.3Y-107.42
X105.3Y-109.96
X105.3Y-112.5
X105.3Y-115.04
X143.16Y-87.1
X145.7Y-87.1
X156.96Y-87.1
X159.5Y-87.1
T6
X111.05Y-77.07
X111.05Y-79.59
X111.05Y-82.11
X111.05Y-84.63
X111.05Y-87.15
X111.05Y-89.67
X111.05Y-92.19
X111.05Y-94.71
X111.05Y-97.23
X111.05Y-99.75
X111.05Y-102.27
X111.05Y-104.79
X111.05Y-107.31
X111.05Y-109.83
X111.05Y-112.35
X136.75Y-77.07
X136.75Y-79.59
X136.75Y-82.11
X136.75Y-84.63
X136.75Y-87.15
X136.75Y-89.67
X136.75Y-92.19
X136.75Y-94.71
X136.75Y-97.23
X136.75Y-99.75
X136.75Y-102.27
X136.75Y-104.79
X136.75Y-107.31
X136.75Y-109.83
X136.75Y-112.35
T7
X67.575Y-121.35
X67.65Y-70.05
X158.95Y-121.175
X159.25Y-70.15
T0
M30
