%TF.GenerationSoftware,KiCad,Pcbnew,7.0.7*%
%TF.CreationDate,2024-05-28T19:53:24+02:00*%
%TF.ProjectId,linefollower_pcb,6c696e65-666f-46c6-9c6f-7765725f7063,rev?*%
%TF.SameCoordinates,Original*%
%TF.FileFunction,Drillmap*%
%TF.FilePolarity,Positive*%
%FSLAX45Y45*%
G04 Gerber Fmt 4.5, Leading zero omitted, Abs format (unit mm)*
G04 Created by KiCad (PCBNEW 7.0.7) date 2024-05-28 19:53:24*
%MOMM*%
%LPD*%
G01*
G04 APERTURE LIST*
%ADD10C,0.100000*%
%ADD11C,0.200000*%
%ADD12C,0.040000*%
%ADD13C,0.050000*%
%ADD14C,0.076200*%
%ADD15C,0.080000*%
%ADD16C,0.102000*%
%ADD17C,0.270000*%
G04 APERTURE END LIST*
D10*
X16000000Y-12590000D02*
G75*
G03*
X16360000Y-12230000I0J360000D01*
G01*
X16000000Y-12590000D02*
X6670000Y-12590000D01*
X16360000Y-6940000D02*
G75*
G03*
X16000000Y-6580000I-360000J0D01*
G01*
X6669558Y-6579558D02*
G75*
G03*
X6309558Y-6939558I2J-360002D01*
G01*
X6310000Y-12230000D02*
G75*
G03*
X6670000Y-12590000I360000J0D01*
G01*
X6669558Y-6579558D02*
X16000000Y-6580000D01*
X6310000Y-12230000D02*
X6309558Y-6939558D01*
X16360000Y-6940000D02*
X16360000Y-12230000D01*
D11*
D12*
X6645000Y-7760000D02*
X6685000Y-7800000D01*
X6685000Y-7760000D02*
X6645000Y-7800000D01*
X6760000Y-10740000D02*
X6800000Y-10780000D01*
X6800000Y-10740000D02*
X6760000Y-10780000D01*
X6795000Y-9220000D02*
X6835000Y-9260000D01*
X6835000Y-9220000D02*
X6795000Y-9260000D01*
X7755000Y-8545000D02*
X7795000Y-8585000D01*
X7795000Y-8545000D02*
X7755000Y-8585000D01*
X7800000Y-9975000D02*
X7840000Y-10015000D01*
X7840000Y-9975000D02*
X7800000Y-10015000D01*
X7855000Y-11305000D02*
X7895000Y-11345000D01*
X7895000Y-11305000D02*
X7855000Y-11345000D01*
X7870000Y-6970000D02*
X7910000Y-7010000D01*
X7910000Y-6970000D02*
X7870000Y-7010000D01*
X8575000Y-7750000D02*
X8615000Y-7790000D01*
X8615000Y-7750000D02*
X8575000Y-7790000D01*
X8645000Y-12425000D02*
X8685000Y-12465000D01*
X8685000Y-12425000D02*
X8645000Y-12465000D01*
X8695000Y-9220000D02*
X8735000Y-9260000D01*
X8735000Y-9220000D02*
X8695000Y-9260000D01*
X8705000Y-10780000D02*
X8745000Y-10820000D01*
X8745000Y-10780000D02*
X8705000Y-10820000D01*
X9335000Y-11340000D02*
X9375000Y-11380000D01*
X9375000Y-11340000D02*
X9335000Y-11380000D01*
X9380000Y-9920000D02*
X9420000Y-9960000D01*
X9420000Y-9920000D02*
X9380000Y-9960000D01*
X9695000Y-6960000D02*
X9735000Y-7000000D01*
X9735000Y-6960000D02*
X9695000Y-7000000D01*
X9805000Y-8490000D02*
X9845000Y-8530000D01*
X9845000Y-8490000D02*
X9805000Y-8530000D01*
X10080000Y-10955000D02*
X10120000Y-10995000D01*
X10120000Y-10955000D02*
X10080000Y-10995000D01*
X10130000Y-12425000D02*
X10170000Y-12465000D01*
X10170000Y-12425000D02*
X10130000Y-12465000D01*
X10560000Y-7715000D02*
X10600000Y-7755000D01*
X10600000Y-7715000D02*
X10560000Y-7755000D01*
X10785000Y-9320000D02*
X10825000Y-9360000D01*
X10825000Y-9320000D02*
X10785000Y-9360000D01*
X10785000Y-10070000D02*
X10825000Y-10110000D01*
X10825000Y-10070000D02*
X10785000Y-10110000D01*
X10790000Y-9090000D02*
X10830000Y-9130000D01*
X10830000Y-9090000D02*
X10790000Y-9130000D01*
X10790000Y-10345000D02*
X10830000Y-10385000D01*
X10830000Y-10345000D02*
X10790000Y-10385000D01*
X10795000Y-10590000D02*
X10835000Y-10630000D01*
X10835000Y-10590000D02*
X10795000Y-10630000D01*
X10800000Y-9570000D02*
X10840000Y-9610000D01*
X10840000Y-9570000D02*
X10800000Y-9610000D01*
X10800000Y-9825000D02*
X10840000Y-9865000D01*
X10840000Y-9825000D02*
X10800000Y-9865000D01*
X10810000Y-11200000D02*
X10850000Y-11240000D01*
X10850000Y-11200000D02*
X10810000Y-11240000D01*
X11300000Y-6960000D02*
X11340000Y-7000000D01*
X11340000Y-6960000D02*
X11300000Y-7000000D01*
X11410000Y-10705000D02*
X11450000Y-10745000D01*
X11450000Y-10705000D02*
X11410000Y-10745000D01*
X11460000Y-12425000D02*
X11500000Y-12465000D01*
X11500000Y-12425000D02*
X11460000Y-12465000D01*
X11465000Y-9930000D02*
X11505000Y-9970000D01*
X11505000Y-9930000D02*
X11465000Y-9970000D01*
X11540000Y-8490000D02*
X11580000Y-8530000D01*
X11580000Y-8490000D02*
X11540000Y-8530000D01*
X11830000Y-11465000D02*
X11870000Y-11505000D01*
X11870000Y-11465000D02*
X11830000Y-11505000D01*
X12185000Y-7790000D02*
X12225000Y-7830000D01*
X12225000Y-7790000D02*
X12185000Y-7830000D01*
X12195000Y-9245000D02*
X12235000Y-9285000D01*
X12235000Y-9245000D02*
X12195000Y-9285000D01*
X12305000Y-10850000D02*
X12345000Y-10890000D01*
X12345000Y-10850000D02*
X12305000Y-10890000D01*
X12805000Y-12425000D02*
X12845000Y-12465000D01*
X12845000Y-12425000D02*
X12805000Y-12465000D01*
X12820000Y-7005000D02*
X12860000Y-7045000D01*
X12860000Y-7005000D02*
X12820000Y-7045000D01*
X12890000Y-9815000D02*
X12930000Y-9855000D01*
X12930000Y-9815000D02*
X12890000Y-9855000D01*
X12915000Y-8500000D02*
X12955000Y-8540000D01*
X12955000Y-8500000D02*
X12915000Y-8540000D01*
X13165000Y-11435000D02*
X13205000Y-11475000D01*
X13205000Y-11435000D02*
X13165000Y-11475000D01*
X13355000Y-7780000D02*
X13395000Y-7820000D01*
X13395000Y-7780000D02*
X13355000Y-7820000D01*
X13865000Y-9290000D02*
X13905000Y-9330000D01*
X13905000Y-9290000D02*
X13865000Y-9330000D01*
X13880000Y-9755000D02*
X13920000Y-9795000D01*
X13920000Y-9755000D02*
X13880000Y-9795000D01*
X13990000Y-10645000D02*
X14030000Y-10685000D01*
X14030000Y-10645000D02*
X13990000Y-10685000D01*
X14020000Y-6985000D02*
X14060000Y-7025000D01*
X14060000Y-6985000D02*
X14020000Y-7025000D01*
X14040000Y-10105000D02*
X14080000Y-10145000D01*
X14080000Y-10105000D02*
X14040000Y-10145000D01*
X14125000Y-11420000D02*
X14165000Y-11460000D01*
X14165000Y-11420000D02*
X14125000Y-11460000D01*
X14150000Y-9575000D02*
X14190000Y-9615000D01*
X14190000Y-9575000D02*
X14150000Y-9615000D01*
X14180000Y-12435000D02*
X14220000Y-12475000D01*
X14220000Y-12435000D02*
X14180000Y-12475000D01*
X14185000Y-8425000D02*
X14225000Y-8465000D01*
X14225000Y-8425000D02*
X14185000Y-8465000D01*
X14200000Y-10330000D02*
X14240000Y-10370000D01*
X14240000Y-10330000D02*
X14200000Y-10370000D01*
X14685000Y-10860000D02*
X14725000Y-10900000D01*
X14725000Y-10860000D02*
X14685000Y-10900000D01*
X14695000Y-9340000D02*
X14735000Y-9380000D01*
X14735000Y-9340000D02*
X14695000Y-9380000D01*
X14815000Y-7750000D02*
X14855000Y-7790000D01*
X14855000Y-7750000D02*
X14815000Y-7790000D01*
X15130000Y-11390000D02*
X15170000Y-11430000D01*
X15170000Y-11390000D02*
X15130000Y-11430000D01*
X15140000Y-9860000D02*
X15180000Y-9900000D01*
X15180000Y-9860000D02*
X15140000Y-9900000D01*
X15185000Y-6985000D02*
X15225000Y-7025000D01*
X15225000Y-6985000D02*
X15185000Y-7025000D01*
X15280000Y-12460000D02*
X15320000Y-12500000D01*
X15320000Y-12460000D02*
X15280000Y-12500000D01*
X15405000Y-8390000D02*
X15445000Y-8430000D01*
X15445000Y-8390000D02*
X15405000Y-8430000D01*
X15440000Y-9265000D02*
X15480000Y-9305000D01*
X15480000Y-9265000D02*
X15440000Y-9305000D01*
X15555000Y-10870000D02*
X15595000Y-10910000D01*
X15595000Y-10870000D02*
X15555000Y-10910000D01*
X16135000Y-7790000D02*
X16175000Y-7830000D01*
X16175000Y-7790000D02*
X16135000Y-7830000D01*
D13*
X6580000Y-12135000D02*
G75*
G03*
X6580000Y-12135000I-25000J0D01*
G01*
X6587500Y-7005000D02*
G75*
G03*
X6587500Y-7005000I-25000J0D01*
G01*
X6639311Y-11991811D02*
G75*
G03*
X6639311Y-11991811I-25000J0D01*
G01*
X6639311Y-12278189D02*
G75*
G03*
X6639311Y-12278189I-25000J0D01*
G01*
X6646811Y-6861811D02*
G75*
G03*
X6646811Y-6861811I-25000J0D01*
G01*
X6646811Y-7148189D02*
G75*
G03*
X6646811Y-7148189I-25000J0D01*
G01*
X6782500Y-11932500D02*
G75*
G03*
X6782500Y-11932500I-25000J0D01*
G01*
X6782500Y-12337500D02*
G75*
G03*
X6782500Y-12337500I-25000J0D01*
G01*
X6790000Y-6802500D02*
G75*
G03*
X6790000Y-6802500I-25000J0D01*
G01*
X6790000Y-7207500D02*
G75*
G03*
X6790000Y-7207500I-25000J0D01*
G01*
X6925689Y-11991811D02*
G75*
G03*
X6925689Y-11991811I-25000J0D01*
G01*
X6925689Y-12278189D02*
G75*
G03*
X6925689Y-12278189I-25000J0D01*
G01*
X6933189Y-6861811D02*
G75*
G03*
X6933189Y-6861811I-25000J0D01*
G01*
X6933189Y-7148189D02*
G75*
G03*
X6933189Y-7148189I-25000J0D01*
G01*
X6985000Y-12135000D02*
G75*
G03*
X6985000Y-12135000I-25000J0D01*
G01*
X6992500Y-7005000D02*
G75*
G03*
X6992500Y-7005000I-25000J0D01*
G01*
X15717500Y-12117500D02*
G75*
G03*
X15717500Y-12117500I-25000J0D01*
G01*
X15747500Y-7015000D02*
G75*
G03*
X15747500Y-7015000I-25000J0D01*
G01*
X15776811Y-11974311D02*
G75*
G03*
X15776811Y-11974311I-25000J0D01*
G01*
X15776811Y-12260689D02*
G75*
G03*
X15776811Y-12260689I-25000J0D01*
G01*
X15806811Y-6871811D02*
G75*
G03*
X15806811Y-6871811I-25000J0D01*
G01*
X15806811Y-7158189D02*
G75*
G03*
X15806811Y-7158189I-25000J0D01*
G01*
X15920000Y-11915000D02*
G75*
G03*
X15920000Y-11915000I-25000J0D01*
G01*
X15920000Y-12320000D02*
G75*
G03*
X15920000Y-12320000I-25000J0D01*
G01*
X15950000Y-6812500D02*
G75*
G03*
X15950000Y-6812500I-25000J0D01*
G01*
X15950000Y-7217500D02*
G75*
G03*
X15950000Y-7217500I-25000J0D01*
G01*
X16063189Y-11974311D02*
G75*
G03*
X16063189Y-11974311I-25000J0D01*
G01*
X16063189Y-12260689D02*
G75*
G03*
X16063189Y-12260689I-25000J0D01*
G01*
X16093189Y-6871811D02*
G75*
G03*
X16093189Y-6871811I-25000J0D01*
G01*
X16093189Y-7158189D02*
G75*
G03*
X16093189Y-7158189I-25000J0D01*
G01*
X16122500Y-12117500D02*
G75*
G03*
X16122500Y-12117500I-25000J0D01*
G01*
X16152500Y-7015000D02*
G75*
G03*
X16152500Y-7015000I-25000J0D01*
G01*
D14*
X7225000Y-7491900D02*
X7225000Y-7568100D01*
X7186900Y-7530000D02*
X7263100Y-7530000D01*
X7225000Y-11581900D02*
X7225000Y-11658100D01*
X7186900Y-11620000D02*
X7263100Y-11620000D01*
X9035000Y-7491900D02*
X9035000Y-7568100D01*
X8996900Y-7530000D02*
X9073100Y-7530000D01*
X9035000Y-11581900D02*
X9035000Y-11658100D01*
X8996900Y-11620000D02*
X9073100Y-11620000D01*
X14370000Y-9159900D02*
X14370000Y-9236100D01*
X14331900Y-9198000D02*
X14408100Y-9198000D01*
X14370000Y-9411900D02*
X14370000Y-9488100D01*
X14331900Y-9450000D02*
X14408100Y-9450000D01*
X14370000Y-9663900D02*
X14370000Y-9740100D01*
X14331900Y-9702000D02*
X14408100Y-9702000D01*
X14370000Y-9915900D02*
X14370000Y-9992100D01*
X14331900Y-9954000D02*
X14408100Y-9954000D01*
X14370000Y-10167900D02*
X14370000Y-10244100D01*
X14331900Y-10206000D02*
X14408100Y-10206000D01*
X14370000Y-10419900D02*
X14370000Y-10496100D01*
X14331900Y-10458000D02*
X14408100Y-10458000D01*
X14370000Y-10671900D02*
X14370000Y-10748100D01*
X14331900Y-10710000D02*
X14408100Y-10710000D01*
X14370000Y-10923900D02*
X14370000Y-11000100D01*
X14331900Y-10962000D02*
X14408100Y-10962000D01*
X15882000Y-9159900D02*
X15882000Y-9236100D01*
X15843900Y-9198000D02*
X15920100Y-9198000D01*
X15882000Y-9411900D02*
X15882000Y-9488100D01*
X15843900Y-9450000D02*
X15920100Y-9450000D01*
X15882000Y-9663900D02*
X15882000Y-9740100D01*
X15843900Y-9702000D02*
X15920100Y-9702000D01*
X15882000Y-9915900D02*
X15882000Y-9992100D01*
X15843900Y-9954000D02*
X15920100Y-9954000D01*
X15882000Y-10167900D02*
X15882000Y-10244100D01*
X15843900Y-10206000D02*
X15920100Y-10206000D01*
X15882000Y-10419900D02*
X15882000Y-10496100D01*
X15843900Y-10458000D02*
X15920100Y-10458000D01*
X15882000Y-10671900D02*
X15882000Y-10748100D01*
X15843900Y-10710000D02*
X15920100Y-10710000D01*
X15882000Y-10923900D02*
X15882000Y-11000100D01*
X15843900Y-10962000D02*
X15920100Y-10962000D01*
D15*
X9614285Y-9269785D02*
X9614285Y-9213216D01*
X9557716Y-9213216D01*
X9557716Y-9269785D01*
X9614285Y-9269785D01*
X9624019Y-10549785D02*
X9624019Y-10493216D01*
X9567450Y-10493216D01*
X9567450Y-10549785D01*
X9624019Y-10549785D01*
X9734285Y-8219784D02*
X9734285Y-8163215D01*
X9677716Y-8163215D01*
X9677716Y-8219784D01*
X9734285Y-8219784D01*
X9984285Y-8219784D02*
X9984285Y-8163215D01*
X9927716Y-8163215D01*
X9927716Y-8219784D01*
X9984285Y-8219784D01*
X10114285Y-9269785D02*
X10114285Y-9213216D01*
X10057716Y-9213216D01*
X10057716Y-9269785D01*
X10114285Y-9269785D01*
X10124019Y-10549785D02*
X10124019Y-10493216D01*
X10067450Y-10493216D01*
X10067450Y-10549785D01*
X10124019Y-10549785D01*
D10*
X9678500Y-11551500D02*
X9728500Y-11501500D01*
X9678500Y-11451500D01*
X9628500Y-11501500D01*
X9678500Y-11551500D01*
X9932500Y-11551500D02*
X9982500Y-11501500D01*
X9932500Y-11451500D01*
X9882500Y-11501500D01*
X9932500Y-11551500D01*
X10530000Y-9014000D02*
X10580000Y-8964000D01*
X10530000Y-8914000D01*
X10480000Y-8964000D01*
X10530000Y-9014000D01*
X10530000Y-9268000D02*
X10580000Y-9218000D01*
X10530000Y-9168000D01*
X10480000Y-9218000D01*
X10530000Y-9268000D01*
X10530000Y-9522000D02*
X10580000Y-9472000D01*
X10530000Y-9422000D01*
X10480000Y-9472000D01*
X10530000Y-9522000D01*
X10530000Y-9776000D02*
X10580000Y-9726000D01*
X10530000Y-9676000D01*
X10480000Y-9726000D01*
X10530000Y-9776000D01*
X10530000Y-10030000D02*
X10580000Y-9980000D01*
X10530000Y-9930000D01*
X10480000Y-9980000D01*
X10530000Y-10030000D01*
X10530000Y-10284000D02*
X10580000Y-10234000D01*
X10530000Y-10184000D01*
X10480000Y-10234000D01*
X10530000Y-10284000D01*
X10530000Y-10538000D02*
X10580000Y-10488000D01*
X10530000Y-10438000D01*
X10480000Y-10488000D01*
X10530000Y-10538000D01*
X10530000Y-10792000D02*
X10580000Y-10742000D01*
X10530000Y-10692000D01*
X10480000Y-10742000D01*
X10530000Y-10792000D01*
X10530000Y-11046000D02*
X10580000Y-10996000D01*
X10530000Y-10946000D01*
X10480000Y-10996000D01*
X10530000Y-11046000D01*
X10530000Y-11300000D02*
X10580000Y-11250000D01*
X10530000Y-11200000D01*
X10480000Y-11250000D01*
X10530000Y-11300000D01*
X10530000Y-11554000D02*
X10580000Y-11504000D01*
X10530000Y-11454000D01*
X10480000Y-11504000D01*
X10530000Y-11554000D01*
X14316000Y-8760000D02*
X14366000Y-8710000D01*
X14316000Y-8660000D01*
X14266000Y-8710000D01*
X14316000Y-8760000D01*
X14570000Y-8760000D02*
X14620000Y-8710000D01*
X14570000Y-8660000D01*
X14520000Y-8710000D01*
X14570000Y-8760000D01*
X15696000Y-8760000D02*
X15746000Y-8710000D01*
X15696000Y-8660000D01*
X15646000Y-8710000D01*
X15696000Y-8760000D01*
X15950000Y-8760000D02*
X16000000Y-8710000D01*
X15950000Y-8660000D01*
X15900000Y-8710000D01*
X15950000Y-8760000D01*
D16*
X11054000Y-7656000D02*
X11156000Y-7758000D01*
X11156000Y-7656000D02*
X11054000Y-7758000D01*
X11156000Y-7707000D02*
G75*
G03*
X11156000Y-7707000I-51000J0D01*
G01*
X11054000Y-7908000D02*
X11156000Y-8010000D01*
X11156000Y-7908000D02*
X11054000Y-8010000D01*
X11156000Y-7959000D02*
G75*
G03*
X11156000Y-7959000I-51000J0D01*
G01*
X11054000Y-8160000D02*
X11156000Y-8262000D01*
X11156000Y-8160000D02*
X11054000Y-8262000D01*
X11156000Y-8211000D02*
G75*
G03*
X11156000Y-8211000I-51000J0D01*
G01*
X11054000Y-8412000D02*
X11156000Y-8514000D01*
X11156000Y-8412000D02*
X11054000Y-8514000D01*
X11156000Y-8463000D02*
G75*
G03*
X11156000Y-8463000I-51000J0D01*
G01*
X11054000Y-8664000D02*
X11156000Y-8766000D01*
X11156000Y-8664000D02*
X11054000Y-8766000D01*
X11156000Y-8715000D02*
G75*
G03*
X11156000Y-8715000I-51000J0D01*
G01*
X11054000Y-8916000D02*
X11156000Y-9018000D01*
X11156000Y-8916000D02*
X11054000Y-9018000D01*
X11156000Y-8967000D02*
G75*
G03*
X11156000Y-8967000I-51000J0D01*
G01*
X11054000Y-9168000D02*
X11156000Y-9270000D01*
X11156000Y-9168000D02*
X11054000Y-9270000D01*
X11156000Y-9219000D02*
G75*
G03*
X11156000Y-9219000I-51000J0D01*
G01*
X11054000Y-9420000D02*
X11156000Y-9522000D01*
X11156000Y-9420000D02*
X11054000Y-9522000D01*
X11156000Y-9471000D02*
G75*
G03*
X11156000Y-9471000I-51000J0D01*
G01*
X11054000Y-9672000D02*
X11156000Y-9774000D01*
X11156000Y-9672000D02*
X11054000Y-9774000D01*
X11156000Y-9723000D02*
G75*
G03*
X11156000Y-9723000I-51000J0D01*
G01*
X11054000Y-9924000D02*
X11156000Y-10026000D01*
X11156000Y-9924000D02*
X11054000Y-10026000D01*
X11156000Y-9975000D02*
G75*
G03*
X11156000Y-9975000I-51000J0D01*
G01*
X11054000Y-10176000D02*
X11156000Y-10278000D01*
X11156000Y-10176000D02*
X11054000Y-10278000D01*
X11156000Y-10227000D02*
G75*
G03*
X11156000Y-10227000I-51000J0D01*
G01*
X11054000Y-10428000D02*
X11156000Y-10530000D01*
X11156000Y-10428000D02*
X11054000Y-10530000D01*
X11156000Y-10479000D02*
G75*
G03*
X11156000Y-10479000I-51000J0D01*
G01*
X11054000Y-10680000D02*
X11156000Y-10782000D01*
X11156000Y-10680000D02*
X11054000Y-10782000D01*
X11156000Y-10731000D02*
G75*
G03*
X11156000Y-10731000I-51000J0D01*
G01*
X11054000Y-10932000D02*
X11156000Y-11034000D01*
X11156000Y-10932000D02*
X11054000Y-11034000D01*
X11156000Y-10983000D02*
G75*
G03*
X11156000Y-10983000I-51000J0D01*
G01*
X11054000Y-11184000D02*
X11156000Y-11286000D01*
X11156000Y-11184000D02*
X11054000Y-11286000D01*
X11156000Y-11235000D02*
G75*
G03*
X11156000Y-11235000I-51000J0D01*
G01*
X13624000Y-7656000D02*
X13726000Y-7758000D01*
X13726000Y-7656000D02*
X13624000Y-7758000D01*
X13726000Y-7707000D02*
G75*
G03*
X13726000Y-7707000I-51000J0D01*
G01*
X13624000Y-7908000D02*
X13726000Y-8010000D01*
X13726000Y-7908000D02*
X13624000Y-8010000D01*
X13726000Y-7959000D02*
G75*
G03*
X13726000Y-7959000I-51000J0D01*
G01*
X13624000Y-8160000D02*
X13726000Y-8262000D01*
X13726000Y-8160000D02*
X13624000Y-8262000D01*
X13726000Y-8211000D02*
G75*
G03*
X13726000Y-8211000I-51000J0D01*
G01*
X13624000Y-8412000D02*
X13726000Y-8514000D01*
X13726000Y-8412000D02*
X13624000Y-8514000D01*
X13726000Y-8463000D02*
G75*
G03*
X13726000Y-8463000I-51000J0D01*
G01*
X13624000Y-8664000D02*
X13726000Y-8766000D01*
X13726000Y-8664000D02*
X13624000Y-8766000D01*
X13726000Y-8715000D02*
G75*
G03*
X13726000Y-8715000I-51000J0D01*
G01*
X13624000Y-8916000D02*
X13726000Y-9018000D01*
X13726000Y-8916000D02*
X13624000Y-9018000D01*
X13726000Y-8967000D02*
G75*
G03*
X13726000Y-8967000I-51000J0D01*
G01*
X13624000Y-9168000D02*
X13726000Y-9270000D01*
X13726000Y-9168000D02*
X13624000Y-9270000D01*
X13726000Y-9219000D02*
G75*
G03*
X13726000Y-9219000I-51000J0D01*
G01*
X13624000Y-9420000D02*
X13726000Y-9522000D01*
X13726000Y-9420000D02*
X13624000Y-9522000D01*
X13726000Y-9471000D02*
G75*
G03*
X13726000Y-9471000I-51000J0D01*
G01*
X13624000Y-9672000D02*
X13726000Y-9774000D01*
X13726000Y-9672000D02*
X13624000Y-9774000D01*
X13726000Y-9723000D02*
G75*
G03*
X13726000Y-9723000I-51000J0D01*
G01*
X13624000Y-9924000D02*
X13726000Y-10026000D01*
X13726000Y-9924000D02*
X13624000Y-10026000D01*
X13726000Y-9975000D02*
G75*
G03*
X13726000Y-9975000I-51000J0D01*
G01*
X13624000Y-10176000D02*
X13726000Y-10278000D01*
X13726000Y-10176000D02*
X13624000Y-10278000D01*
X13726000Y-10227000D02*
G75*
G03*
X13726000Y-10227000I-51000J0D01*
G01*
X13624000Y-10428000D02*
X13726000Y-10530000D01*
X13726000Y-10428000D02*
X13624000Y-10530000D01*
X13726000Y-10479000D02*
G75*
G03*
X13726000Y-10479000I-51000J0D01*
G01*
X13624000Y-10680000D02*
X13726000Y-10782000D01*
X13726000Y-10680000D02*
X13624000Y-10782000D01*
X13726000Y-10731000D02*
G75*
G03*
X13726000Y-10731000I-51000J0D01*
G01*
X13624000Y-10932000D02*
X13726000Y-11034000D01*
X13726000Y-10932000D02*
X13624000Y-11034000D01*
X13726000Y-10983000D02*
G75*
G03*
X13726000Y-10983000I-51000J0D01*
G01*
X13624000Y-11184000D02*
X13726000Y-11286000D01*
X13726000Y-11184000D02*
X13624000Y-11286000D01*
X13726000Y-11235000D02*
G75*
G03*
X13726000Y-11235000I-51000J0D01*
G01*
D17*
X6622500Y-12000000D02*
X6892500Y-12270000D01*
X6892500Y-12000000D02*
X6622500Y-12270000D01*
X6757500Y-12000000D02*
X6757500Y-12270000D01*
X6622500Y-12135000D02*
X6892500Y-12135000D01*
X6630000Y-6870000D02*
X6900000Y-7140000D01*
X6900000Y-6870000D02*
X6630000Y-7140000D01*
X6765000Y-6870000D02*
X6765000Y-7140000D01*
X6630000Y-7005000D02*
X6900000Y-7005000D01*
X15760000Y-11982500D02*
X16030000Y-12252500D01*
X16030000Y-11982500D02*
X15760000Y-12252500D01*
X15895000Y-11982500D02*
X15895000Y-12252500D01*
X15760000Y-12117500D02*
X16030000Y-12117500D01*
X15790000Y-6880000D02*
X16060000Y-7150000D01*
X16060000Y-6880000D02*
X15790000Y-7150000D01*
X15925000Y-6880000D02*
X15925000Y-7150000D01*
X15790000Y-7015000D02*
X16060000Y-7015000D01*
D11*
X6565335Y-12906484D02*
X6565335Y-12706484D01*
X6565335Y-12706484D02*
X6612954Y-12706484D01*
X6612954Y-12706484D02*
X6641526Y-12716008D01*
X6641526Y-12716008D02*
X6660573Y-12735055D01*
X6660573Y-12735055D02*
X6670097Y-12754103D01*
X6670097Y-12754103D02*
X6679621Y-12792198D01*
X6679621Y-12792198D02*
X6679621Y-12820769D01*
X6679621Y-12820769D02*
X6670097Y-12858865D01*
X6670097Y-12858865D02*
X6660573Y-12877912D01*
X6660573Y-12877912D02*
X6641526Y-12896960D01*
X6641526Y-12896960D02*
X6612954Y-12906484D01*
X6612954Y-12906484D02*
X6565335Y-12906484D01*
X6765335Y-12906484D02*
X6765335Y-12773150D01*
X6765335Y-12811246D02*
X6774859Y-12792198D01*
X6774859Y-12792198D02*
X6784383Y-12782674D01*
X6784383Y-12782674D02*
X6803430Y-12773150D01*
X6803430Y-12773150D02*
X6822478Y-12773150D01*
X6889145Y-12906484D02*
X6889145Y-12773150D01*
X6889145Y-12706484D02*
X6879621Y-12716008D01*
X6879621Y-12716008D02*
X6889145Y-12725531D01*
X6889145Y-12725531D02*
X6898668Y-12716008D01*
X6898668Y-12716008D02*
X6889145Y-12706484D01*
X6889145Y-12706484D02*
X6889145Y-12725531D01*
X7012954Y-12906484D02*
X6993907Y-12896960D01*
X6993907Y-12896960D02*
X6984383Y-12877912D01*
X6984383Y-12877912D02*
X6984383Y-12706484D01*
X7117716Y-12906484D02*
X7098668Y-12896960D01*
X7098668Y-12896960D02*
X7089145Y-12877912D01*
X7089145Y-12877912D02*
X7089145Y-12706484D01*
X7346288Y-12906484D02*
X7346288Y-12706484D01*
X7346288Y-12706484D02*
X7412954Y-12849341D01*
X7412954Y-12849341D02*
X7479621Y-12706484D01*
X7479621Y-12706484D02*
X7479621Y-12906484D01*
X7660573Y-12906484D02*
X7660573Y-12801722D01*
X7660573Y-12801722D02*
X7651049Y-12782674D01*
X7651049Y-12782674D02*
X7632002Y-12773150D01*
X7632002Y-12773150D02*
X7593907Y-12773150D01*
X7593907Y-12773150D02*
X7574859Y-12782674D01*
X7660573Y-12896960D02*
X7641526Y-12906484D01*
X7641526Y-12906484D02*
X7593907Y-12906484D01*
X7593907Y-12906484D02*
X7574859Y-12896960D01*
X7574859Y-12896960D02*
X7565335Y-12877912D01*
X7565335Y-12877912D02*
X7565335Y-12858865D01*
X7565335Y-12858865D02*
X7574859Y-12839817D01*
X7574859Y-12839817D02*
X7593907Y-12830293D01*
X7593907Y-12830293D02*
X7641526Y-12830293D01*
X7641526Y-12830293D02*
X7660573Y-12820769D01*
X7755811Y-12773150D02*
X7755811Y-12973150D01*
X7755811Y-12782674D02*
X7774859Y-12773150D01*
X7774859Y-12773150D02*
X7812954Y-12773150D01*
X7812954Y-12773150D02*
X7832002Y-12782674D01*
X7832002Y-12782674D02*
X7841526Y-12792198D01*
X7841526Y-12792198D02*
X7851049Y-12811246D01*
X7851049Y-12811246D02*
X7851049Y-12868388D01*
X7851049Y-12868388D02*
X7841526Y-12887436D01*
X7841526Y-12887436D02*
X7832002Y-12896960D01*
X7832002Y-12896960D02*
X7812954Y-12906484D01*
X7812954Y-12906484D02*
X7774859Y-12906484D01*
X7774859Y-12906484D02*
X7755811Y-12896960D01*
X7936764Y-12887436D02*
X7946288Y-12896960D01*
X7946288Y-12896960D02*
X7936764Y-12906484D01*
X7936764Y-12906484D02*
X7927240Y-12896960D01*
X7927240Y-12896960D02*
X7936764Y-12887436D01*
X7936764Y-12887436D02*
X7936764Y-12906484D01*
X7936764Y-12782674D02*
X7946288Y-12792198D01*
X7946288Y-12792198D02*
X7936764Y-12801722D01*
X7936764Y-12801722D02*
X7927240Y-12792198D01*
X7927240Y-12792198D02*
X7936764Y-12782674D01*
X7936764Y-12782674D02*
X7936764Y-12801722D01*
D12*
X6264558Y-13215000D02*
X6304558Y-13255000D01*
X6304558Y-13215000D02*
X6264558Y-13255000D01*
D11*
X6603430Y-13126484D02*
X6622478Y-13126484D01*
X6622478Y-13126484D02*
X6641526Y-13136008D01*
X6641526Y-13136008D02*
X6651049Y-13145531D01*
X6651049Y-13145531D02*
X6660573Y-13164579D01*
X6660573Y-13164579D02*
X6670097Y-13202674D01*
X6670097Y-13202674D02*
X6670097Y-13250293D01*
X6670097Y-13250293D02*
X6660573Y-13288388D01*
X6660573Y-13288388D02*
X6651049Y-13307436D01*
X6651049Y-13307436D02*
X6641526Y-13316960D01*
X6641526Y-13316960D02*
X6622478Y-13326484D01*
X6622478Y-13326484D02*
X6603430Y-13326484D01*
X6603430Y-13326484D02*
X6584383Y-13316960D01*
X6584383Y-13316960D02*
X6574859Y-13307436D01*
X6574859Y-13307436D02*
X6565335Y-13288388D01*
X6565335Y-13288388D02*
X6555811Y-13250293D01*
X6555811Y-13250293D02*
X6555811Y-13202674D01*
X6555811Y-13202674D02*
X6565335Y-13164579D01*
X6565335Y-13164579D02*
X6574859Y-13145531D01*
X6574859Y-13145531D02*
X6584383Y-13136008D01*
X6584383Y-13136008D02*
X6603430Y-13126484D01*
X6755811Y-13307436D02*
X6765335Y-13316960D01*
X6765335Y-13316960D02*
X6755811Y-13326484D01*
X6755811Y-13326484D02*
X6746288Y-13316960D01*
X6746288Y-13316960D02*
X6755811Y-13307436D01*
X6755811Y-13307436D02*
X6755811Y-13326484D01*
X6936764Y-13193150D02*
X6936764Y-13326484D01*
X6889145Y-13116960D02*
X6841526Y-13259817D01*
X6841526Y-13259817D02*
X6965335Y-13259817D01*
X7079621Y-13126484D02*
X7098669Y-13126484D01*
X7098669Y-13126484D02*
X7117716Y-13136008D01*
X7117716Y-13136008D02*
X7127240Y-13145531D01*
X7127240Y-13145531D02*
X7136764Y-13164579D01*
X7136764Y-13164579D02*
X7146288Y-13202674D01*
X7146288Y-13202674D02*
X7146288Y-13250293D01*
X7146288Y-13250293D02*
X7136764Y-13288388D01*
X7136764Y-13288388D02*
X7127240Y-13307436D01*
X7127240Y-13307436D02*
X7117716Y-13316960D01*
X7117716Y-13316960D02*
X7098669Y-13326484D01*
X7098669Y-13326484D02*
X7079621Y-13326484D01*
X7079621Y-13326484D02*
X7060573Y-13316960D01*
X7060573Y-13316960D02*
X7051049Y-13307436D01*
X7051049Y-13307436D02*
X7041526Y-13288388D01*
X7041526Y-13288388D02*
X7032002Y-13250293D01*
X7032002Y-13250293D02*
X7032002Y-13202674D01*
X7032002Y-13202674D02*
X7041526Y-13164579D01*
X7041526Y-13164579D02*
X7051049Y-13145531D01*
X7051049Y-13145531D02*
X7060573Y-13136008D01*
X7060573Y-13136008D02*
X7079621Y-13126484D01*
X7270097Y-13126484D02*
X7289145Y-13126484D01*
X7289145Y-13126484D02*
X7308192Y-13136008D01*
X7308192Y-13136008D02*
X7317716Y-13145531D01*
X7317716Y-13145531D02*
X7327240Y-13164579D01*
X7327240Y-13164579D02*
X7336764Y-13202674D01*
X7336764Y-13202674D02*
X7336764Y-13250293D01*
X7336764Y-13250293D02*
X7327240Y-13288388D01*
X7327240Y-13288388D02*
X7317716Y-13307436D01*
X7317716Y-13307436D02*
X7308192Y-13316960D01*
X7308192Y-13316960D02*
X7289145Y-13326484D01*
X7289145Y-13326484D02*
X7270097Y-13326484D01*
X7270097Y-13326484D02*
X7251049Y-13316960D01*
X7251049Y-13316960D02*
X7241526Y-13307436D01*
X7241526Y-13307436D02*
X7232002Y-13288388D01*
X7232002Y-13288388D02*
X7222478Y-13250293D01*
X7222478Y-13250293D02*
X7222478Y-13202674D01*
X7222478Y-13202674D02*
X7232002Y-13164579D01*
X7232002Y-13164579D02*
X7241526Y-13145531D01*
X7241526Y-13145531D02*
X7251049Y-13136008D01*
X7251049Y-13136008D02*
X7270097Y-13126484D01*
X7422478Y-13326484D02*
X7422478Y-13193150D01*
X7422478Y-13212198D02*
X7432002Y-13202674D01*
X7432002Y-13202674D02*
X7451049Y-13193150D01*
X7451049Y-13193150D02*
X7479621Y-13193150D01*
X7479621Y-13193150D02*
X7498669Y-13202674D01*
X7498669Y-13202674D02*
X7508192Y-13221722D01*
X7508192Y-13221722D02*
X7508192Y-13326484D01*
X7508192Y-13221722D02*
X7517716Y-13202674D01*
X7517716Y-13202674D02*
X7536764Y-13193150D01*
X7536764Y-13193150D02*
X7565335Y-13193150D01*
X7565335Y-13193150D02*
X7584383Y-13202674D01*
X7584383Y-13202674D02*
X7593907Y-13221722D01*
X7593907Y-13221722D02*
X7593907Y-13326484D01*
X7689145Y-13326484D02*
X7689145Y-13193150D01*
X7689145Y-13212198D02*
X7698669Y-13202674D01*
X7698669Y-13202674D02*
X7717716Y-13193150D01*
X7717716Y-13193150D02*
X7746288Y-13193150D01*
X7746288Y-13193150D02*
X7765335Y-13202674D01*
X7765335Y-13202674D02*
X7774859Y-13221722D01*
X7774859Y-13221722D02*
X7774859Y-13326484D01*
X7774859Y-13221722D02*
X7784383Y-13202674D01*
X7784383Y-13202674D02*
X7803430Y-13193150D01*
X7803430Y-13193150D02*
X7832002Y-13193150D01*
X7832002Y-13193150D02*
X7851050Y-13202674D01*
X7851050Y-13202674D02*
X7860573Y-13221722D01*
X7860573Y-13221722D02*
X7860573Y-13326484D01*
X8251050Y-13116960D02*
X8079621Y-13374103D01*
X8508193Y-13126484D02*
X8527240Y-13126484D01*
X8527240Y-13126484D02*
X8546288Y-13136008D01*
X8546288Y-13136008D02*
X8555812Y-13145531D01*
X8555812Y-13145531D02*
X8565335Y-13164579D01*
X8565335Y-13164579D02*
X8574859Y-13202674D01*
X8574859Y-13202674D02*
X8574859Y-13250293D01*
X8574859Y-13250293D02*
X8565335Y-13288388D01*
X8565335Y-13288388D02*
X8555812Y-13307436D01*
X8555812Y-13307436D02*
X8546288Y-13316960D01*
X8546288Y-13316960D02*
X8527240Y-13326484D01*
X8527240Y-13326484D02*
X8508193Y-13326484D01*
X8508193Y-13326484D02*
X8489145Y-13316960D01*
X8489145Y-13316960D02*
X8479621Y-13307436D01*
X8479621Y-13307436D02*
X8470097Y-13288388D01*
X8470097Y-13288388D02*
X8460574Y-13250293D01*
X8460574Y-13250293D02*
X8460574Y-13202674D01*
X8460574Y-13202674D02*
X8470097Y-13164579D01*
X8470097Y-13164579D02*
X8479621Y-13145531D01*
X8479621Y-13145531D02*
X8489145Y-13136008D01*
X8489145Y-13136008D02*
X8508193Y-13126484D01*
X8660574Y-13307436D02*
X8670097Y-13316960D01*
X8670097Y-13316960D02*
X8660574Y-13326484D01*
X8660574Y-13326484D02*
X8651050Y-13316960D01*
X8651050Y-13316960D02*
X8660574Y-13307436D01*
X8660574Y-13307436D02*
X8660574Y-13326484D01*
X8793907Y-13126484D02*
X8812955Y-13126484D01*
X8812955Y-13126484D02*
X8832002Y-13136008D01*
X8832002Y-13136008D02*
X8841526Y-13145531D01*
X8841526Y-13145531D02*
X8851050Y-13164579D01*
X8851050Y-13164579D02*
X8860574Y-13202674D01*
X8860574Y-13202674D02*
X8860574Y-13250293D01*
X8860574Y-13250293D02*
X8851050Y-13288388D01*
X8851050Y-13288388D02*
X8841526Y-13307436D01*
X8841526Y-13307436D02*
X8832002Y-13316960D01*
X8832002Y-13316960D02*
X8812955Y-13326484D01*
X8812955Y-13326484D02*
X8793907Y-13326484D01*
X8793907Y-13326484D02*
X8774859Y-13316960D01*
X8774859Y-13316960D02*
X8765335Y-13307436D01*
X8765335Y-13307436D02*
X8755812Y-13288388D01*
X8755812Y-13288388D02*
X8746288Y-13250293D01*
X8746288Y-13250293D02*
X8746288Y-13202674D01*
X8746288Y-13202674D02*
X8755812Y-13164579D01*
X8755812Y-13164579D02*
X8765335Y-13145531D01*
X8765335Y-13145531D02*
X8774859Y-13136008D01*
X8774859Y-13136008D02*
X8793907Y-13126484D01*
X9051050Y-13326484D02*
X8936764Y-13326484D01*
X8993907Y-13326484D02*
X8993907Y-13126484D01*
X8993907Y-13126484D02*
X8974859Y-13155055D01*
X8974859Y-13155055D02*
X8955812Y-13174103D01*
X8955812Y-13174103D02*
X8936764Y-13183627D01*
X9232002Y-13126484D02*
X9136764Y-13126484D01*
X9136764Y-13126484D02*
X9127240Y-13221722D01*
X9127240Y-13221722D02*
X9136764Y-13212198D01*
X9136764Y-13212198D02*
X9155812Y-13202674D01*
X9155812Y-13202674D02*
X9203431Y-13202674D01*
X9203431Y-13202674D02*
X9222478Y-13212198D01*
X9222478Y-13212198D02*
X9232002Y-13221722D01*
X9232002Y-13221722D02*
X9241526Y-13240769D01*
X9241526Y-13240769D02*
X9241526Y-13288388D01*
X9241526Y-13288388D02*
X9232002Y-13307436D01*
X9232002Y-13307436D02*
X9222478Y-13316960D01*
X9222478Y-13316960D02*
X9203431Y-13326484D01*
X9203431Y-13326484D02*
X9155812Y-13326484D01*
X9155812Y-13326484D02*
X9136764Y-13316960D01*
X9136764Y-13316960D02*
X9127240Y-13307436D01*
X9308193Y-13126484D02*
X9441526Y-13126484D01*
X9441526Y-13126484D02*
X9355812Y-13326484D01*
X9508193Y-13126484D02*
X9508193Y-13164579D01*
X9584383Y-13126484D02*
X9584383Y-13164579D01*
X9879621Y-13402674D02*
X9870097Y-13393150D01*
X9870097Y-13393150D02*
X9851050Y-13364579D01*
X9851050Y-13364579D02*
X9841526Y-13345531D01*
X9841526Y-13345531D02*
X9832002Y-13316960D01*
X9832002Y-13316960D02*
X9822478Y-13269341D01*
X9822478Y-13269341D02*
X9822478Y-13231246D01*
X9822478Y-13231246D02*
X9832002Y-13183627D01*
X9832002Y-13183627D02*
X9841526Y-13155055D01*
X9841526Y-13155055D02*
X9851050Y-13136008D01*
X9851050Y-13136008D02*
X9870097Y-13107436D01*
X9870097Y-13107436D02*
X9879621Y-13097912D01*
X10041526Y-13126484D02*
X10003431Y-13126484D01*
X10003431Y-13126484D02*
X9984383Y-13136008D01*
X9984383Y-13136008D02*
X9974859Y-13145531D01*
X9974859Y-13145531D02*
X9955812Y-13174103D01*
X9955812Y-13174103D02*
X9946288Y-13212198D01*
X9946288Y-13212198D02*
X9946288Y-13288388D01*
X9946288Y-13288388D02*
X9955812Y-13307436D01*
X9955812Y-13307436D02*
X9965336Y-13316960D01*
X9965336Y-13316960D02*
X9984383Y-13326484D01*
X9984383Y-13326484D02*
X10022478Y-13326484D01*
X10022478Y-13326484D02*
X10041526Y-13316960D01*
X10041526Y-13316960D02*
X10051050Y-13307436D01*
X10051050Y-13307436D02*
X10060574Y-13288388D01*
X10060574Y-13288388D02*
X10060574Y-13240769D01*
X10060574Y-13240769D02*
X10051050Y-13221722D01*
X10051050Y-13221722D02*
X10041526Y-13212198D01*
X10041526Y-13212198D02*
X10022478Y-13202674D01*
X10022478Y-13202674D02*
X9984383Y-13202674D01*
X9984383Y-13202674D02*
X9965336Y-13212198D01*
X9965336Y-13212198D02*
X9955812Y-13221722D01*
X9955812Y-13221722D02*
X9946288Y-13240769D01*
X10136764Y-13145531D02*
X10146288Y-13136008D01*
X10146288Y-13136008D02*
X10165336Y-13126484D01*
X10165336Y-13126484D02*
X10212955Y-13126484D01*
X10212955Y-13126484D02*
X10232002Y-13136008D01*
X10232002Y-13136008D02*
X10241526Y-13145531D01*
X10241526Y-13145531D02*
X10251050Y-13164579D01*
X10251050Y-13164579D02*
X10251050Y-13183627D01*
X10251050Y-13183627D02*
X10241526Y-13212198D01*
X10241526Y-13212198D02*
X10127240Y-13326484D01*
X10127240Y-13326484D02*
X10251050Y-13326484D01*
X10489145Y-13326484D02*
X10489145Y-13126484D01*
X10574859Y-13326484D02*
X10574859Y-13221722D01*
X10574859Y-13221722D02*
X10565336Y-13202674D01*
X10565336Y-13202674D02*
X10546288Y-13193150D01*
X10546288Y-13193150D02*
X10517717Y-13193150D01*
X10517717Y-13193150D02*
X10498669Y-13202674D01*
X10498669Y-13202674D02*
X10489145Y-13212198D01*
X10698669Y-13326484D02*
X10679621Y-13316960D01*
X10679621Y-13316960D02*
X10670098Y-13307436D01*
X10670098Y-13307436D02*
X10660574Y-13288388D01*
X10660574Y-13288388D02*
X10660574Y-13231246D01*
X10660574Y-13231246D02*
X10670098Y-13212198D01*
X10670098Y-13212198D02*
X10679621Y-13202674D01*
X10679621Y-13202674D02*
X10698669Y-13193150D01*
X10698669Y-13193150D02*
X10727240Y-13193150D01*
X10727240Y-13193150D02*
X10746288Y-13202674D01*
X10746288Y-13202674D02*
X10755812Y-13212198D01*
X10755812Y-13212198D02*
X10765336Y-13231246D01*
X10765336Y-13231246D02*
X10765336Y-13288388D01*
X10765336Y-13288388D02*
X10755812Y-13307436D01*
X10755812Y-13307436D02*
X10746288Y-13316960D01*
X10746288Y-13316960D02*
X10727240Y-13326484D01*
X10727240Y-13326484D02*
X10698669Y-13326484D01*
X10879621Y-13326484D02*
X10860574Y-13316960D01*
X10860574Y-13316960D02*
X10851050Y-13297912D01*
X10851050Y-13297912D02*
X10851050Y-13126484D01*
X11032002Y-13316960D02*
X11012955Y-13326484D01*
X11012955Y-13326484D02*
X10974859Y-13326484D01*
X10974859Y-13326484D02*
X10955812Y-13316960D01*
X10955812Y-13316960D02*
X10946288Y-13297912D01*
X10946288Y-13297912D02*
X10946288Y-13221722D01*
X10946288Y-13221722D02*
X10955812Y-13202674D01*
X10955812Y-13202674D02*
X10974859Y-13193150D01*
X10974859Y-13193150D02*
X11012955Y-13193150D01*
X11012955Y-13193150D02*
X11032002Y-13202674D01*
X11032002Y-13202674D02*
X11041526Y-13221722D01*
X11041526Y-13221722D02*
X11041526Y-13240769D01*
X11041526Y-13240769D02*
X10946288Y-13259817D01*
X11117717Y-13316960D02*
X11136764Y-13326484D01*
X11136764Y-13326484D02*
X11174859Y-13326484D01*
X11174859Y-13326484D02*
X11193907Y-13316960D01*
X11193907Y-13316960D02*
X11203431Y-13297912D01*
X11203431Y-13297912D02*
X11203431Y-13288388D01*
X11203431Y-13288388D02*
X11193907Y-13269341D01*
X11193907Y-13269341D02*
X11174859Y-13259817D01*
X11174859Y-13259817D02*
X11146288Y-13259817D01*
X11146288Y-13259817D02*
X11127240Y-13250293D01*
X11127240Y-13250293D02*
X11117717Y-13231246D01*
X11117717Y-13231246D02*
X11117717Y-13221722D01*
X11117717Y-13221722D02*
X11127240Y-13202674D01*
X11127240Y-13202674D02*
X11146288Y-13193150D01*
X11146288Y-13193150D02*
X11174859Y-13193150D01*
X11174859Y-13193150D02*
X11193907Y-13202674D01*
X11270098Y-13402674D02*
X11279621Y-13393150D01*
X11279621Y-13393150D02*
X11298669Y-13364579D01*
X11298669Y-13364579D02*
X11308193Y-13345531D01*
X11308193Y-13345531D02*
X11317717Y-13316960D01*
X11317717Y-13316960D02*
X11327240Y-13269341D01*
X11327240Y-13269341D02*
X11327240Y-13231246D01*
X11327240Y-13231246D02*
X11317717Y-13183627D01*
X11317717Y-13183627D02*
X11308193Y-13155055D01*
X11308193Y-13155055D02*
X11298669Y-13136008D01*
X11298669Y-13136008D02*
X11279621Y-13107436D01*
X11279621Y-13107436D02*
X11270098Y-13097912D01*
D13*
X6304558Y-13499000D02*
G75*
G03*
X6304558Y-13499000I-25000J0D01*
G01*
D11*
X6603430Y-13390484D02*
X6622478Y-13390484D01*
X6622478Y-13390484D02*
X6641526Y-13400008D01*
X6641526Y-13400008D02*
X6651049Y-13409531D01*
X6651049Y-13409531D02*
X6660573Y-13428579D01*
X6660573Y-13428579D02*
X6670097Y-13466674D01*
X6670097Y-13466674D02*
X6670097Y-13514293D01*
X6670097Y-13514293D02*
X6660573Y-13552388D01*
X6660573Y-13552388D02*
X6651049Y-13571436D01*
X6651049Y-13571436D02*
X6641526Y-13580960D01*
X6641526Y-13580960D02*
X6622478Y-13590484D01*
X6622478Y-13590484D02*
X6603430Y-13590484D01*
X6603430Y-13590484D02*
X6584383Y-13580960D01*
X6584383Y-13580960D02*
X6574859Y-13571436D01*
X6574859Y-13571436D02*
X6565335Y-13552388D01*
X6565335Y-13552388D02*
X6555811Y-13514293D01*
X6555811Y-13514293D02*
X6555811Y-13466674D01*
X6555811Y-13466674D02*
X6565335Y-13428579D01*
X6565335Y-13428579D02*
X6574859Y-13409531D01*
X6574859Y-13409531D02*
X6584383Y-13400008D01*
X6584383Y-13400008D02*
X6603430Y-13390484D01*
X6755811Y-13571436D02*
X6765335Y-13580960D01*
X6765335Y-13580960D02*
X6755811Y-13590484D01*
X6755811Y-13590484D02*
X6746288Y-13580960D01*
X6746288Y-13580960D02*
X6755811Y-13571436D01*
X6755811Y-13571436D02*
X6755811Y-13590484D01*
X6946288Y-13390484D02*
X6851049Y-13390484D01*
X6851049Y-13390484D02*
X6841526Y-13485722D01*
X6841526Y-13485722D02*
X6851049Y-13476198D01*
X6851049Y-13476198D02*
X6870097Y-13466674D01*
X6870097Y-13466674D02*
X6917716Y-13466674D01*
X6917716Y-13466674D02*
X6936764Y-13476198D01*
X6936764Y-13476198D02*
X6946288Y-13485722D01*
X6946288Y-13485722D02*
X6955811Y-13504769D01*
X6955811Y-13504769D02*
X6955811Y-13552388D01*
X6955811Y-13552388D02*
X6946288Y-13571436D01*
X6946288Y-13571436D02*
X6936764Y-13580960D01*
X6936764Y-13580960D02*
X6917716Y-13590484D01*
X6917716Y-13590484D02*
X6870097Y-13590484D01*
X6870097Y-13590484D02*
X6851049Y-13580960D01*
X6851049Y-13580960D02*
X6841526Y-13571436D01*
X7079621Y-13390484D02*
X7098669Y-13390484D01*
X7098669Y-13390484D02*
X7117716Y-13400008D01*
X7117716Y-13400008D02*
X7127240Y-13409531D01*
X7127240Y-13409531D02*
X7136764Y-13428579D01*
X7136764Y-13428579D02*
X7146288Y-13466674D01*
X7146288Y-13466674D02*
X7146288Y-13514293D01*
X7146288Y-13514293D02*
X7136764Y-13552388D01*
X7136764Y-13552388D02*
X7127240Y-13571436D01*
X7127240Y-13571436D02*
X7117716Y-13580960D01*
X7117716Y-13580960D02*
X7098669Y-13590484D01*
X7098669Y-13590484D02*
X7079621Y-13590484D01*
X7079621Y-13590484D02*
X7060573Y-13580960D01*
X7060573Y-13580960D02*
X7051049Y-13571436D01*
X7051049Y-13571436D02*
X7041526Y-13552388D01*
X7041526Y-13552388D02*
X7032002Y-13514293D01*
X7032002Y-13514293D02*
X7032002Y-13466674D01*
X7032002Y-13466674D02*
X7041526Y-13428579D01*
X7041526Y-13428579D02*
X7051049Y-13409531D01*
X7051049Y-13409531D02*
X7060573Y-13400008D01*
X7060573Y-13400008D02*
X7079621Y-13390484D01*
X7270097Y-13390484D02*
X7289145Y-13390484D01*
X7289145Y-13390484D02*
X7308192Y-13400008D01*
X7308192Y-13400008D02*
X7317716Y-13409531D01*
X7317716Y-13409531D02*
X7327240Y-13428579D01*
X7327240Y-13428579D02*
X7336764Y-13466674D01*
X7336764Y-13466674D02*
X7336764Y-13514293D01*
X7336764Y-13514293D02*
X7327240Y-13552388D01*
X7327240Y-13552388D02*
X7317716Y-13571436D01*
X7317716Y-13571436D02*
X7308192Y-13580960D01*
X7308192Y-13580960D02*
X7289145Y-13590484D01*
X7289145Y-13590484D02*
X7270097Y-13590484D01*
X7270097Y-13590484D02*
X7251049Y-13580960D01*
X7251049Y-13580960D02*
X7241526Y-13571436D01*
X7241526Y-13571436D02*
X7232002Y-13552388D01*
X7232002Y-13552388D02*
X7222478Y-13514293D01*
X7222478Y-13514293D02*
X7222478Y-13466674D01*
X7222478Y-13466674D02*
X7232002Y-13428579D01*
X7232002Y-13428579D02*
X7241526Y-13409531D01*
X7241526Y-13409531D02*
X7251049Y-13400008D01*
X7251049Y-13400008D02*
X7270097Y-13390484D01*
X7422478Y-13590484D02*
X7422478Y-13457150D01*
X7422478Y-13476198D02*
X7432002Y-13466674D01*
X7432002Y-13466674D02*
X7451049Y-13457150D01*
X7451049Y-13457150D02*
X7479621Y-13457150D01*
X7479621Y-13457150D02*
X7498669Y-13466674D01*
X7498669Y-13466674D02*
X7508192Y-13485722D01*
X7508192Y-13485722D02*
X7508192Y-13590484D01*
X7508192Y-13485722D02*
X7517716Y-13466674D01*
X7517716Y-13466674D02*
X7536764Y-13457150D01*
X7536764Y-13457150D02*
X7565335Y-13457150D01*
X7565335Y-13457150D02*
X7584383Y-13466674D01*
X7584383Y-13466674D02*
X7593907Y-13485722D01*
X7593907Y-13485722D02*
X7593907Y-13590484D01*
X7689145Y-13590484D02*
X7689145Y-13457150D01*
X7689145Y-13476198D02*
X7698669Y-13466674D01*
X7698669Y-13466674D02*
X7717716Y-13457150D01*
X7717716Y-13457150D02*
X7746288Y-13457150D01*
X7746288Y-13457150D02*
X7765335Y-13466674D01*
X7765335Y-13466674D02*
X7774859Y-13485722D01*
X7774859Y-13485722D02*
X7774859Y-13590484D01*
X7774859Y-13485722D02*
X7784383Y-13466674D01*
X7784383Y-13466674D02*
X7803430Y-13457150D01*
X7803430Y-13457150D02*
X7832002Y-13457150D01*
X7832002Y-13457150D02*
X7851050Y-13466674D01*
X7851050Y-13466674D02*
X7860573Y-13485722D01*
X7860573Y-13485722D02*
X7860573Y-13590484D01*
X8251050Y-13380960D02*
X8079621Y-13638103D01*
X8508193Y-13390484D02*
X8527240Y-13390484D01*
X8527240Y-13390484D02*
X8546288Y-13400008D01*
X8546288Y-13400008D02*
X8555812Y-13409531D01*
X8555812Y-13409531D02*
X8565335Y-13428579D01*
X8565335Y-13428579D02*
X8574859Y-13466674D01*
X8574859Y-13466674D02*
X8574859Y-13514293D01*
X8574859Y-13514293D02*
X8565335Y-13552388D01*
X8565335Y-13552388D02*
X8555812Y-13571436D01*
X8555812Y-13571436D02*
X8546288Y-13580960D01*
X8546288Y-13580960D02*
X8527240Y-13590484D01*
X8527240Y-13590484D02*
X8508193Y-13590484D01*
X8508193Y-13590484D02*
X8489145Y-13580960D01*
X8489145Y-13580960D02*
X8479621Y-13571436D01*
X8479621Y-13571436D02*
X8470097Y-13552388D01*
X8470097Y-13552388D02*
X8460574Y-13514293D01*
X8460574Y-13514293D02*
X8460574Y-13466674D01*
X8460574Y-13466674D02*
X8470097Y-13428579D01*
X8470097Y-13428579D02*
X8479621Y-13409531D01*
X8479621Y-13409531D02*
X8489145Y-13400008D01*
X8489145Y-13400008D02*
X8508193Y-13390484D01*
X8660574Y-13571436D02*
X8670097Y-13580960D01*
X8670097Y-13580960D02*
X8660574Y-13590484D01*
X8660574Y-13590484D02*
X8651050Y-13580960D01*
X8651050Y-13580960D02*
X8660574Y-13571436D01*
X8660574Y-13571436D02*
X8660574Y-13590484D01*
X8793907Y-13390484D02*
X8812955Y-13390484D01*
X8812955Y-13390484D02*
X8832002Y-13400008D01*
X8832002Y-13400008D02*
X8841526Y-13409531D01*
X8841526Y-13409531D02*
X8851050Y-13428579D01*
X8851050Y-13428579D02*
X8860574Y-13466674D01*
X8860574Y-13466674D02*
X8860574Y-13514293D01*
X8860574Y-13514293D02*
X8851050Y-13552388D01*
X8851050Y-13552388D02*
X8841526Y-13571436D01*
X8841526Y-13571436D02*
X8832002Y-13580960D01*
X8832002Y-13580960D02*
X8812955Y-13590484D01*
X8812955Y-13590484D02*
X8793907Y-13590484D01*
X8793907Y-13590484D02*
X8774859Y-13580960D01*
X8774859Y-13580960D02*
X8765335Y-13571436D01*
X8765335Y-13571436D02*
X8755812Y-13552388D01*
X8755812Y-13552388D02*
X8746288Y-13514293D01*
X8746288Y-13514293D02*
X8746288Y-13466674D01*
X8746288Y-13466674D02*
X8755812Y-13428579D01*
X8755812Y-13428579D02*
X8765335Y-13409531D01*
X8765335Y-13409531D02*
X8774859Y-13400008D01*
X8774859Y-13400008D02*
X8793907Y-13390484D01*
X9051050Y-13590484D02*
X8936764Y-13590484D01*
X8993907Y-13590484D02*
X8993907Y-13390484D01*
X8993907Y-13390484D02*
X8974859Y-13419055D01*
X8974859Y-13419055D02*
X8955812Y-13438103D01*
X8955812Y-13438103D02*
X8936764Y-13447627D01*
X9146288Y-13590484D02*
X9184383Y-13590484D01*
X9184383Y-13590484D02*
X9203431Y-13580960D01*
X9203431Y-13580960D02*
X9212955Y-13571436D01*
X9212955Y-13571436D02*
X9232002Y-13542865D01*
X9232002Y-13542865D02*
X9241526Y-13504769D01*
X9241526Y-13504769D02*
X9241526Y-13428579D01*
X9241526Y-13428579D02*
X9232002Y-13409531D01*
X9232002Y-13409531D02*
X9222478Y-13400008D01*
X9222478Y-13400008D02*
X9203431Y-13390484D01*
X9203431Y-13390484D02*
X9165335Y-13390484D01*
X9165335Y-13390484D02*
X9146288Y-13400008D01*
X9146288Y-13400008D02*
X9136764Y-13409531D01*
X9136764Y-13409531D02*
X9127240Y-13428579D01*
X9127240Y-13428579D02*
X9127240Y-13476198D01*
X9127240Y-13476198D02*
X9136764Y-13495246D01*
X9136764Y-13495246D02*
X9146288Y-13504769D01*
X9146288Y-13504769D02*
X9165335Y-13514293D01*
X9165335Y-13514293D02*
X9203431Y-13514293D01*
X9203431Y-13514293D02*
X9222478Y-13504769D01*
X9222478Y-13504769D02*
X9232002Y-13495246D01*
X9232002Y-13495246D02*
X9241526Y-13476198D01*
X9308193Y-13390484D02*
X9441526Y-13390484D01*
X9441526Y-13390484D02*
X9355812Y-13590484D01*
X9508193Y-13390484D02*
X9508193Y-13428579D01*
X9584383Y-13390484D02*
X9584383Y-13428579D01*
X9879621Y-13666674D02*
X9870097Y-13657150D01*
X9870097Y-13657150D02*
X9851050Y-13628579D01*
X9851050Y-13628579D02*
X9841526Y-13609531D01*
X9841526Y-13609531D02*
X9832002Y-13580960D01*
X9832002Y-13580960D02*
X9822478Y-13533341D01*
X9822478Y-13533341D02*
X9822478Y-13495246D01*
X9822478Y-13495246D02*
X9832002Y-13447627D01*
X9832002Y-13447627D02*
X9841526Y-13419055D01*
X9841526Y-13419055D02*
X9851050Y-13400008D01*
X9851050Y-13400008D02*
X9870097Y-13371436D01*
X9870097Y-13371436D02*
X9879621Y-13361912D01*
X9936764Y-13390484D02*
X10060574Y-13390484D01*
X10060574Y-13390484D02*
X9993907Y-13466674D01*
X9993907Y-13466674D02*
X10022478Y-13466674D01*
X10022478Y-13466674D02*
X10041526Y-13476198D01*
X10041526Y-13476198D02*
X10051050Y-13485722D01*
X10051050Y-13485722D02*
X10060574Y-13504769D01*
X10060574Y-13504769D02*
X10060574Y-13552388D01*
X10060574Y-13552388D02*
X10051050Y-13571436D01*
X10051050Y-13571436D02*
X10041526Y-13580960D01*
X10041526Y-13580960D02*
X10022478Y-13590484D01*
X10022478Y-13590484D02*
X9965336Y-13590484D01*
X9965336Y-13590484D02*
X9946288Y-13580960D01*
X9946288Y-13580960D02*
X9936764Y-13571436D01*
X10136764Y-13409531D02*
X10146288Y-13400008D01*
X10146288Y-13400008D02*
X10165336Y-13390484D01*
X10165336Y-13390484D02*
X10212955Y-13390484D01*
X10212955Y-13390484D02*
X10232002Y-13400008D01*
X10232002Y-13400008D02*
X10241526Y-13409531D01*
X10241526Y-13409531D02*
X10251050Y-13428579D01*
X10251050Y-13428579D02*
X10251050Y-13447627D01*
X10251050Y-13447627D02*
X10241526Y-13476198D01*
X10241526Y-13476198D02*
X10127240Y-13590484D01*
X10127240Y-13590484D02*
X10251050Y-13590484D01*
X10489145Y-13590484D02*
X10489145Y-13390484D01*
X10574859Y-13590484D02*
X10574859Y-13485722D01*
X10574859Y-13485722D02*
X10565336Y-13466674D01*
X10565336Y-13466674D02*
X10546288Y-13457150D01*
X10546288Y-13457150D02*
X10517717Y-13457150D01*
X10517717Y-13457150D02*
X10498669Y-13466674D01*
X10498669Y-13466674D02*
X10489145Y-13476198D01*
X10698669Y-13590484D02*
X10679621Y-13580960D01*
X10679621Y-13580960D02*
X10670098Y-13571436D01*
X10670098Y-13571436D02*
X10660574Y-13552388D01*
X10660574Y-13552388D02*
X10660574Y-13495246D01*
X10660574Y-13495246D02*
X10670098Y-13476198D01*
X10670098Y-13476198D02*
X10679621Y-13466674D01*
X10679621Y-13466674D02*
X10698669Y-13457150D01*
X10698669Y-13457150D02*
X10727240Y-13457150D01*
X10727240Y-13457150D02*
X10746288Y-13466674D01*
X10746288Y-13466674D02*
X10755812Y-13476198D01*
X10755812Y-13476198D02*
X10765336Y-13495246D01*
X10765336Y-13495246D02*
X10765336Y-13552388D01*
X10765336Y-13552388D02*
X10755812Y-13571436D01*
X10755812Y-13571436D02*
X10746288Y-13580960D01*
X10746288Y-13580960D02*
X10727240Y-13590484D01*
X10727240Y-13590484D02*
X10698669Y-13590484D01*
X10879621Y-13590484D02*
X10860574Y-13580960D01*
X10860574Y-13580960D02*
X10851050Y-13561912D01*
X10851050Y-13561912D02*
X10851050Y-13390484D01*
X11032002Y-13580960D02*
X11012955Y-13590484D01*
X11012955Y-13590484D02*
X10974859Y-13590484D01*
X10974859Y-13590484D02*
X10955812Y-13580960D01*
X10955812Y-13580960D02*
X10946288Y-13561912D01*
X10946288Y-13561912D02*
X10946288Y-13485722D01*
X10946288Y-13485722D02*
X10955812Y-13466674D01*
X10955812Y-13466674D02*
X10974859Y-13457150D01*
X10974859Y-13457150D02*
X11012955Y-13457150D01*
X11012955Y-13457150D02*
X11032002Y-13466674D01*
X11032002Y-13466674D02*
X11041526Y-13485722D01*
X11041526Y-13485722D02*
X11041526Y-13504769D01*
X11041526Y-13504769D02*
X10946288Y-13523817D01*
X11117717Y-13580960D02*
X11136764Y-13590484D01*
X11136764Y-13590484D02*
X11174859Y-13590484D01*
X11174859Y-13590484D02*
X11193907Y-13580960D01*
X11193907Y-13580960D02*
X11203431Y-13561912D01*
X11203431Y-13561912D02*
X11203431Y-13552388D01*
X11203431Y-13552388D02*
X11193907Y-13533341D01*
X11193907Y-13533341D02*
X11174859Y-13523817D01*
X11174859Y-13523817D02*
X11146288Y-13523817D01*
X11146288Y-13523817D02*
X11127240Y-13514293D01*
X11127240Y-13514293D02*
X11117717Y-13495246D01*
X11117717Y-13495246D02*
X11117717Y-13485722D01*
X11117717Y-13485722D02*
X11127240Y-13466674D01*
X11127240Y-13466674D02*
X11146288Y-13457150D01*
X11146288Y-13457150D02*
X11174859Y-13457150D01*
X11174859Y-13457150D02*
X11193907Y-13466674D01*
X11270098Y-13666674D02*
X11279621Y-13657150D01*
X11279621Y-13657150D02*
X11298669Y-13628579D01*
X11298669Y-13628579D02*
X11308193Y-13609531D01*
X11308193Y-13609531D02*
X11317717Y-13580960D01*
X11317717Y-13580960D02*
X11327240Y-13533341D01*
X11327240Y-13533341D02*
X11327240Y-13495246D01*
X11327240Y-13495246D02*
X11317717Y-13447627D01*
X11317717Y-13447627D02*
X11308193Y-13419055D01*
X11308193Y-13419055D02*
X11298669Y-13400008D01*
X11298669Y-13400008D02*
X11279621Y-13371436D01*
X11279621Y-13371436D02*
X11270098Y-13361912D01*
D14*
X6266458Y-13724900D02*
X6266458Y-13801100D01*
X6228358Y-13763000D02*
X6304558Y-13763000D01*
D11*
X6603430Y-13654484D02*
X6622478Y-13654484D01*
X6622478Y-13654484D02*
X6641526Y-13664008D01*
X6641526Y-13664008D02*
X6651049Y-13673531D01*
X6651049Y-13673531D02*
X6660573Y-13692579D01*
X6660573Y-13692579D02*
X6670097Y-13730674D01*
X6670097Y-13730674D02*
X6670097Y-13778293D01*
X6670097Y-13778293D02*
X6660573Y-13816388D01*
X6660573Y-13816388D02*
X6651049Y-13835436D01*
X6651049Y-13835436D02*
X6641526Y-13844960D01*
X6641526Y-13844960D02*
X6622478Y-13854484D01*
X6622478Y-13854484D02*
X6603430Y-13854484D01*
X6603430Y-13854484D02*
X6584383Y-13844960D01*
X6584383Y-13844960D02*
X6574859Y-13835436D01*
X6574859Y-13835436D02*
X6565335Y-13816388D01*
X6565335Y-13816388D02*
X6555811Y-13778293D01*
X6555811Y-13778293D02*
X6555811Y-13730674D01*
X6555811Y-13730674D02*
X6565335Y-13692579D01*
X6565335Y-13692579D02*
X6574859Y-13673531D01*
X6574859Y-13673531D02*
X6584383Y-13664008D01*
X6584383Y-13664008D02*
X6603430Y-13654484D01*
X6755811Y-13835436D02*
X6765335Y-13844960D01*
X6765335Y-13844960D02*
X6755811Y-13854484D01*
X6755811Y-13854484D02*
X6746288Y-13844960D01*
X6746288Y-13844960D02*
X6755811Y-13835436D01*
X6755811Y-13835436D02*
X6755811Y-13854484D01*
X6832002Y-13654484D02*
X6965335Y-13654484D01*
X6965335Y-13654484D02*
X6879621Y-13854484D01*
X7127240Y-13654484D02*
X7089145Y-13654484D01*
X7089145Y-13654484D02*
X7070097Y-13664008D01*
X7070097Y-13664008D02*
X7060573Y-13673531D01*
X7060573Y-13673531D02*
X7041526Y-13702103D01*
X7041526Y-13702103D02*
X7032002Y-13740198D01*
X7032002Y-13740198D02*
X7032002Y-13816388D01*
X7032002Y-13816388D02*
X7041526Y-13835436D01*
X7041526Y-13835436D02*
X7051049Y-13844960D01*
X7051049Y-13844960D02*
X7070097Y-13854484D01*
X7070097Y-13854484D02*
X7108192Y-13854484D01*
X7108192Y-13854484D02*
X7127240Y-13844960D01*
X7127240Y-13844960D02*
X7136764Y-13835436D01*
X7136764Y-13835436D02*
X7146288Y-13816388D01*
X7146288Y-13816388D02*
X7146288Y-13768769D01*
X7146288Y-13768769D02*
X7136764Y-13749722D01*
X7136764Y-13749722D02*
X7127240Y-13740198D01*
X7127240Y-13740198D02*
X7108192Y-13730674D01*
X7108192Y-13730674D02*
X7070097Y-13730674D01*
X7070097Y-13730674D02*
X7051049Y-13740198D01*
X7051049Y-13740198D02*
X7041526Y-13749722D01*
X7041526Y-13749722D02*
X7032002Y-13768769D01*
X7222478Y-13673531D02*
X7232002Y-13664008D01*
X7232002Y-13664008D02*
X7251049Y-13654484D01*
X7251049Y-13654484D02*
X7298669Y-13654484D01*
X7298669Y-13654484D02*
X7317716Y-13664008D01*
X7317716Y-13664008D02*
X7327240Y-13673531D01*
X7327240Y-13673531D02*
X7336764Y-13692579D01*
X7336764Y-13692579D02*
X7336764Y-13711627D01*
X7336764Y-13711627D02*
X7327240Y-13740198D01*
X7327240Y-13740198D02*
X7212954Y-13854484D01*
X7212954Y-13854484D02*
X7336764Y-13854484D01*
X7422478Y-13854484D02*
X7422478Y-13721150D01*
X7422478Y-13740198D02*
X7432002Y-13730674D01*
X7432002Y-13730674D02*
X7451049Y-13721150D01*
X7451049Y-13721150D02*
X7479621Y-13721150D01*
X7479621Y-13721150D02*
X7498669Y-13730674D01*
X7498669Y-13730674D02*
X7508192Y-13749722D01*
X7508192Y-13749722D02*
X7508192Y-13854484D01*
X7508192Y-13749722D02*
X7517716Y-13730674D01*
X7517716Y-13730674D02*
X7536764Y-13721150D01*
X7536764Y-13721150D02*
X7565335Y-13721150D01*
X7565335Y-13721150D02*
X7584383Y-13730674D01*
X7584383Y-13730674D02*
X7593907Y-13749722D01*
X7593907Y-13749722D02*
X7593907Y-13854484D01*
X7689145Y-13854484D02*
X7689145Y-13721150D01*
X7689145Y-13740198D02*
X7698669Y-13730674D01*
X7698669Y-13730674D02*
X7717716Y-13721150D01*
X7717716Y-13721150D02*
X7746288Y-13721150D01*
X7746288Y-13721150D02*
X7765335Y-13730674D01*
X7765335Y-13730674D02*
X7774859Y-13749722D01*
X7774859Y-13749722D02*
X7774859Y-13854484D01*
X7774859Y-13749722D02*
X7784383Y-13730674D01*
X7784383Y-13730674D02*
X7803430Y-13721150D01*
X7803430Y-13721150D02*
X7832002Y-13721150D01*
X7832002Y-13721150D02*
X7851050Y-13730674D01*
X7851050Y-13730674D02*
X7860573Y-13749722D01*
X7860573Y-13749722D02*
X7860573Y-13854484D01*
X8251050Y-13644960D02*
X8079621Y-13902103D01*
X8508193Y-13654484D02*
X8527240Y-13654484D01*
X8527240Y-13654484D02*
X8546288Y-13664008D01*
X8546288Y-13664008D02*
X8555812Y-13673531D01*
X8555812Y-13673531D02*
X8565335Y-13692579D01*
X8565335Y-13692579D02*
X8574859Y-13730674D01*
X8574859Y-13730674D02*
X8574859Y-13778293D01*
X8574859Y-13778293D02*
X8565335Y-13816388D01*
X8565335Y-13816388D02*
X8555812Y-13835436D01*
X8555812Y-13835436D02*
X8546288Y-13844960D01*
X8546288Y-13844960D02*
X8527240Y-13854484D01*
X8527240Y-13854484D02*
X8508193Y-13854484D01*
X8508193Y-13854484D02*
X8489145Y-13844960D01*
X8489145Y-13844960D02*
X8479621Y-13835436D01*
X8479621Y-13835436D02*
X8470097Y-13816388D01*
X8470097Y-13816388D02*
X8460574Y-13778293D01*
X8460574Y-13778293D02*
X8460574Y-13730674D01*
X8460574Y-13730674D02*
X8470097Y-13692579D01*
X8470097Y-13692579D02*
X8479621Y-13673531D01*
X8479621Y-13673531D02*
X8489145Y-13664008D01*
X8489145Y-13664008D02*
X8508193Y-13654484D01*
X8660574Y-13835436D02*
X8670097Y-13844960D01*
X8670097Y-13844960D02*
X8660574Y-13854484D01*
X8660574Y-13854484D02*
X8651050Y-13844960D01*
X8651050Y-13844960D02*
X8660574Y-13835436D01*
X8660574Y-13835436D02*
X8660574Y-13854484D01*
X8793907Y-13654484D02*
X8812955Y-13654484D01*
X8812955Y-13654484D02*
X8832002Y-13664008D01*
X8832002Y-13664008D02*
X8841526Y-13673531D01*
X8841526Y-13673531D02*
X8851050Y-13692579D01*
X8851050Y-13692579D02*
X8860574Y-13730674D01*
X8860574Y-13730674D02*
X8860574Y-13778293D01*
X8860574Y-13778293D02*
X8851050Y-13816388D01*
X8851050Y-13816388D02*
X8841526Y-13835436D01*
X8841526Y-13835436D02*
X8832002Y-13844960D01*
X8832002Y-13844960D02*
X8812955Y-13854484D01*
X8812955Y-13854484D02*
X8793907Y-13854484D01*
X8793907Y-13854484D02*
X8774859Y-13844960D01*
X8774859Y-13844960D02*
X8765335Y-13835436D01*
X8765335Y-13835436D02*
X8755812Y-13816388D01*
X8755812Y-13816388D02*
X8746288Y-13778293D01*
X8746288Y-13778293D02*
X8746288Y-13730674D01*
X8746288Y-13730674D02*
X8755812Y-13692579D01*
X8755812Y-13692579D02*
X8765335Y-13673531D01*
X8765335Y-13673531D02*
X8774859Y-13664008D01*
X8774859Y-13664008D02*
X8793907Y-13654484D01*
X8927240Y-13654484D02*
X9051050Y-13654484D01*
X9051050Y-13654484D02*
X8984383Y-13730674D01*
X8984383Y-13730674D02*
X9012955Y-13730674D01*
X9012955Y-13730674D02*
X9032002Y-13740198D01*
X9032002Y-13740198D02*
X9041526Y-13749722D01*
X9041526Y-13749722D02*
X9051050Y-13768769D01*
X9051050Y-13768769D02*
X9051050Y-13816388D01*
X9051050Y-13816388D02*
X9041526Y-13835436D01*
X9041526Y-13835436D02*
X9032002Y-13844960D01*
X9032002Y-13844960D02*
X9012955Y-13854484D01*
X9012955Y-13854484D02*
X8955812Y-13854484D01*
X8955812Y-13854484D02*
X8936764Y-13844960D01*
X8936764Y-13844960D02*
X8927240Y-13835436D01*
X9174859Y-13654484D02*
X9193907Y-13654484D01*
X9193907Y-13654484D02*
X9212955Y-13664008D01*
X9212955Y-13664008D02*
X9222478Y-13673531D01*
X9222478Y-13673531D02*
X9232002Y-13692579D01*
X9232002Y-13692579D02*
X9241526Y-13730674D01*
X9241526Y-13730674D02*
X9241526Y-13778293D01*
X9241526Y-13778293D02*
X9232002Y-13816388D01*
X9232002Y-13816388D02*
X9222478Y-13835436D01*
X9222478Y-13835436D02*
X9212955Y-13844960D01*
X9212955Y-13844960D02*
X9193907Y-13854484D01*
X9193907Y-13854484D02*
X9174859Y-13854484D01*
X9174859Y-13854484D02*
X9155812Y-13844960D01*
X9155812Y-13844960D02*
X9146288Y-13835436D01*
X9146288Y-13835436D02*
X9136764Y-13816388D01*
X9136764Y-13816388D02*
X9127240Y-13778293D01*
X9127240Y-13778293D02*
X9127240Y-13730674D01*
X9127240Y-13730674D02*
X9136764Y-13692579D01*
X9136764Y-13692579D02*
X9146288Y-13673531D01*
X9146288Y-13673531D02*
X9155812Y-13664008D01*
X9155812Y-13664008D02*
X9174859Y-13654484D01*
X9365335Y-13654484D02*
X9384383Y-13654484D01*
X9384383Y-13654484D02*
X9403431Y-13664008D01*
X9403431Y-13664008D02*
X9412955Y-13673531D01*
X9412955Y-13673531D02*
X9422478Y-13692579D01*
X9422478Y-13692579D02*
X9432002Y-13730674D01*
X9432002Y-13730674D02*
X9432002Y-13778293D01*
X9432002Y-13778293D02*
X9422478Y-13816388D01*
X9422478Y-13816388D02*
X9412955Y-13835436D01*
X9412955Y-13835436D02*
X9403431Y-13844960D01*
X9403431Y-13844960D02*
X9384383Y-13854484D01*
X9384383Y-13854484D02*
X9365335Y-13854484D01*
X9365335Y-13854484D02*
X9346288Y-13844960D01*
X9346288Y-13844960D02*
X9336764Y-13835436D01*
X9336764Y-13835436D02*
X9327240Y-13816388D01*
X9327240Y-13816388D02*
X9317716Y-13778293D01*
X9317716Y-13778293D02*
X9317716Y-13730674D01*
X9317716Y-13730674D02*
X9327240Y-13692579D01*
X9327240Y-13692579D02*
X9336764Y-13673531D01*
X9336764Y-13673531D02*
X9346288Y-13664008D01*
X9346288Y-13664008D02*
X9365335Y-13654484D01*
X9508193Y-13654484D02*
X9508193Y-13692579D01*
X9584383Y-13654484D02*
X9584383Y-13692579D01*
X9879621Y-13930674D02*
X9870097Y-13921150D01*
X9870097Y-13921150D02*
X9851050Y-13892579D01*
X9851050Y-13892579D02*
X9841526Y-13873531D01*
X9841526Y-13873531D02*
X9832002Y-13844960D01*
X9832002Y-13844960D02*
X9822478Y-13797341D01*
X9822478Y-13797341D02*
X9822478Y-13759246D01*
X9822478Y-13759246D02*
X9832002Y-13711627D01*
X9832002Y-13711627D02*
X9841526Y-13683055D01*
X9841526Y-13683055D02*
X9851050Y-13664008D01*
X9851050Y-13664008D02*
X9870097Y-13635436D01*
X9870097Y-13635436D02*
X9879621Y-13625912D01*
X9946288Y-13673531D02*
X9955812Y-13664008D01*
X9955812Y-13664008D02*
X9974859Y-13654484D01*
X9974859Y-13654484D02*
X10022478Y-13654484D01*
X10022478Y-13654484D02*
X10041526Y-13664008D01*
X10041526Y-13664008D02*
X10051050Y-13673531D01*
X10051050Y-13673531D02*
X10060574Y-13692579D01*
X10060574Y-13692579D02*
X10060574Y-13711627D01*
X10060574Y-13711627D02*
X10051050Y-13740198D01*
X10051050Y-13740198D02*
X9936764Y-13854484D01*
X9936764Y-13854484D02*
X10060574Y-13854484D01*
X10184383Y-13654484D02*
X10203431Y-13654484D01*
X10203431Y-13654484D02*
X10222478Y-13664008D01*
X10222478Y-13664008D02*
X10232002Y-13673531D01*
X10232002Y-13673531D02*
X10241526Y-13692579D01*
X10241526Y-13692579D02*
X10251050Y-13730674D01*
X10251050Y-13730674D02*
X10251050Y-13778293D01*
X10251050Y-13778293D02*
X10241526Y-13816388D01*
X10241526Y-13816388D02*
X10232002Y-13835436D01*
X10232002Y-13835436D02*
X10222478Y-13844960D01*
X10222478Y-13844960D02*
X10203431Y-13854484D01*
X10203431Y-13854484D02*
X10184383Y-13854484D01*
X10184383Y-13854484D02*
X10165336Y-13844960D01*
X10165336Y-13844960D02*
X10155812Y-13835436D01*
X10155812Y-13835436D02*
X10146288Y-13816388D01*
X10146288Y-13816388D02*
X10136764Y-13778293D01*
X10136764Y-13778293D02*
X10136764Y-13730674D01*
X10136764Y-13730674D02*
X10146288Y-13692579D01*
X10146288Y-13692579D02*
X10155812Y-13673531D01*
X10155812Y-13673531D02*
X10165336Y-13664008D01*
X10165336Y-13664008D02*
X10184383Y-13654484D01*
X10489145Y-13854484D02*
X10489145Y-13654484D01*
X10574859Y-13854484D02*
X10574859Y-13749722D01*
X10574859Y-13749722D02*
X10565336Y-13730674D01*
X10565336Y-13730674D02*
X10546288Y-13721150D01*
X10546288Y-13721150D02*
X10517717Y-13721150D01*
X10517717Y-13721150D02*
X10498669Y-13730674D01*
X10498669Y-13730674D02*
X10489145Y-13740198D01*
X10698669Y-13854484D02*
X10679621Y-13844960D01*
X10679621Y-13844960D02*
X10670098Y-13835436D01*
X10670098Y-13835436D02*
X10660574Y-13816388D01*
X10660574Y-13816388D02*
X10660574Y-13759246D01*
X10660574Y-13759246D02*
X10670098Y-13740198D01*
X10670098Y-13740198D02*
X10679621Y-13730674D01*
X10679621Y-13730674D02*
X10698669Y-13721150D01*
X10698669Y-13721150D02*
X10727240Y-13721150D01*
X10727240Y-13721150D02*
X10746288Y-13730674D01*
X10746288Y-13730674D02*
X10755812Y-13740198D01*
X10755812Y-13740198D02*
X10765336Y-13759246D01*
X10765336Y-13759246D02*
X10765336Y-13816388D01*
X10765336Y-13816388D02*
X10755812Y-13835436D01*
X10755812Y-13835436D02*
X10746288Y-13844960D01*
X10746288Y-13844960D02*
X10727240Y-13854484D01*
X10727240Y-13854484D02*
X10698669Y-13854484D01*
X10879621Y-13854484D02*
X10860574Y-13844960D01*
X10860574Y-13844960D02*
X10851050Y-13825912D01*
X10851050Y-13825912D02*
X10851050Y-13654484D01*
X11032002Y-13844960D02*
X11012955Y-13854484D01*
X11012955Y-13854484D02*
X10974859Y-13854484D01*
X10974859Y-13854484D02*
X10955812Y-13844960D01*
X10955812Y-13844960D02*
X10946288Y-13825912D01*
X10946288Y-13825912D02*
X10946288Y-13749722D01*
X10946288Y-13749722D02*
X10955812Y-13730674D01*
X10955812Y-13730674D02*
X10974859Y-13721150D01*
X10974859Y-13721150D02*
X11012955Y-13721150D01*
X11012955Y-13721150D02*
X11032002Y-13730674D01*
X11032002Y-13730674D02*
X11041526Y-13749722D01*
X11041526Y-13749722D02*
X11041526Y-13768769D01*
X11041526Y-13768769D02*
X10946288Y-13787817D01*
X11117717Y-13844960D02*
X11136764Y-13854484D01*
X11136764Y-13854484D02*
X11174859Y-13854484D01*
X11174859Y-13854484D02*
X11193907Y-13844960D01*
X11193907Y-13844960D02*
X11203431Y-13825912D01*
X11203431Y-13825912D02*
X11203431Y-13816388D01*
X11203431Y-13816388D02*
X11193907Y-13797341D01*
X11193907Y-13797341D02*
X11174859Y-13787817D01*
X11174859Y-13787817D02*
X11146288Y-13787817D01*
X11146288Y-13787817D02*
X11127240Y-13778293D01*
X11127240Y-13778293D02*
X11117717Y-13759246D01*
X11117717Y-13759246D02*
X11117717Y-13749722D01*
X11117717Y-13749722D02*
X11127240Y-13730674D01*
X11127240Y-13730674D02*
X11146288Y-13721150D01*
X11146288Y-13721150D02*
X11174859Y-13721150D01*
X11174859Y-13721150D02*
X11193907Y-13730674D01*
X11270098Y-13930674D02*
X11279621Y-13921150D01*
X11279621Y-13921150D02*
X11298669Y-13892579D01*
X11298669Y-13892579D02*
X11308193Y-13873531D01*
X11308193Y-13873531D02*
X11317717Y-13844960D01*
X11317717Y-13844960D02*
X11327240Y-13797341D01*
X11327240Y-13797341D02*
X11327240Y-13759246D01*
X11327240Y-13759246D02*
X11317717Y-13711627D01*
X11317717Y-13711627D02*
X11308193Y-13683055D01*
X11308193Y-13683055D02*
X11298669Y-13664008D01*
X11298669Y-13664008D02*
X11279621Y-13635436D01*
X11279621Y-13635436D02*
X11270098Y-13625912D01*
D15*
X6292843Y-14055284D02*
X6292843Y-13998715D01*
X6236274Y-13998715D01*
X6236274Y-14055284D01*
X6292843Y-14055284D01*
D11*
X6603430Y-13918484D02*
X6622478Y-13918484D01*
X6622478Y-13918484D02*
X6641526Y-13928008D01*
X6641526Y-13928008D02*
X6651049Y-13937531D01*
X6651049Y-13937531D02*
X6660573Y-13956579D01*
X6660573Y-13956579D02*
X6670097Y-13994674D01*
X6670097Y-13994674D02*
X6670097Y-14042293D01*
X6670097Y-14042293D02*
X6660573Y-14080388D01*
X6660573Y-14080388D02*
X6651049Y-14099436D01*
X6651049Y-14099436D02*
X6641526Y-14108960D01*
X6641526Y-14108960D02*
X6622478Y-14118484D01*
X6622478Y-14118484D02*
X6603430Y-14118484D01*
X6603430Y-14118484D02*
X6584383Y-14108960D01*
X6584383Y-14108960D02*
X6574859Y-14099436D01*
X6574859Y-14099436D02*
X6565335Y-14080388D01*
X6565335Y-14080388D02*
X6555811Y-14042293D01*
X6555811Y-14042293D02*
X6555811Y-13994674D01*
X6555811Y-13994674D02*
X6565335Y-13956579D01*
X6565335Y-13956579D02*
X6574859Y-13937531D01*
X6574859Y-13937531D02*
X6584383Y-13928008D01*
X6584383Y-13928008D02*
X6603430Y-13918484D01*
X6755811Y-14099436D02*
X6765335Y-14108960D01*
X6765335Y-14108960D02*
X6755811Y-14118484D01*
X6755811Y-14118484D02*
X6746288Y-14108960D01*
X6746288Y-14108960D02*
X6755811Y-14099436D01*
X6755811Y-14099436D02*
X6755811Y-14118484D01*
X6879621Y-14004198D02*
X6860573Y-13994674D01*
X6860573Y-13994674D02*
X6851049Y-13985150D01*
X6851049Y-13985150D02*
X6841526Y-13966103D01*
X6841526Y-13966103D02*
X6841526Y-13956579D01*
X6841526Y-13956579D02*
X6851049Y-13937531D01*
X6851049Y-13937531D02*
X6860573Y-13928008D01*
X6860573Y-13928008D02*
X6879621Y-13918484D01*
X6879621Y-13918484D02*
X6917716Y-13918484D01*
X6917716Y-13918484D02*
X6936764Y-13928008D01*
X6936764Y-13928008D02*
X6946288Y-13937531D01*
X6946288Y-13937531D02*
X6955811Y-13956579D01*
X6955811Y-13956579D02*
X6955811Y-13966103D01*
X6955811Y-13966103D02*
X6946288Y-13985150D01*
X6946288Y-13985150D02*
X6936764Y-13994674D01*
X6936764Y-13994674D02*
X6917716Y-14004198D01*
X6917716Y-14004198D02*
X6879621Y-14004198D01*
X6879621Y-14004198D02*
X6860573Y-14013722D01*
X6860573Y-14013722D02*
X6851049Y-14023246D01*
X6851049Y-14023246D02*
X6841526Y-14042293D01*
X6841526Y-14042293D02*
X6841526Y-14080388D01*
X6841526Y-14080388D02*
X6851049Y-14099436D01*
X6851049Y-14099436D02*
X6860573Y-14108960D01*
X6860573Y-14108960D02*
X6879621Y-14118484D01*
X6879621Y-14118484D02*
X6917716Y-14118484D01*
X6917716Y-14118484D02*
X6936764Y-14108960D01*
X6936764Y-14108960D02*
X6946288Y-14099436D01*
X6946288Y-14099436D02*
X6955811Y-14080388D01*
X6955811Y-14080388D02*
X6955811Y-14042293D01*
X6955811Y-14042293D02*
X6946288Y-14023246D01*
X6946288Y-14023246D02*
X6936764Y-14013722D01*
X6936764Y-14013722D02*
X6917716Y-14004198D01*
X7079621Y-13918484D02*
X7098669Y-13918484D01*
X7098669Y-13918484D02*
X7117716Y-13928008D01*
X7117716Y-13928008D02*
X7127240Y-13937531D01*
X7127240Y-13937531D02*
X7136764Y-13956579D01*
X7136764Y-13956579D02*
X7146288Y-13994674D01*
X7146288Y-13994674D02*
X7146288Y-14042293D01*
X7146288Y-14042293D02*
X7136764Y-14080388D01*
X7136764Y-14080388D02*
X7127240Y-14099436D01*
X7127240Y-14099436D02*
X7117716Y-14108960D01*
X7117716Y-14108960D02*
X7098669Y-14118484D01*
X7098669Y-14118484D02*
X7079621Y-14118484D01*
X7079621Y-14118484D02*
X7060573Y-14108960D01*
X7060573Y-14108960D02*
X7051049Y-14099436D01*
X7051049Y-14099436D02*
X7041526Y-14080388D01*
X7041526Y-14080388D02*
X7032002Y-14042293D01*
X7032002Y-14042293D02*
X7032002Y-13994674D01*
X7032002Y-13994674D02*
X7041526Y-13956579D01*
X7041526Y-13956579D02*
X7051049Y-13937531D01*
X7051049Y-13937531D02*
X7060573Y-13928008D01*
X7060573Y-13928008D02*
X7079621Y-13918484D01*
X7270097Y-13918484D02*
X7289145Y-13918484D01*
X7289145Y-13918484D02*
X7308192Y-13928008D01*
X7308192Y-13928008D02*
X7317716Y-13937531D01*
X7317716Y-13937531D02*
X7327240Y-13956579D01*
X7327240Y-13956579D02*
X7336764Y-13994674D01*
X7336764Y-13994674D02*
X7336764Y-14042293D01*
X7336764Y-14042293D02*
X7327240Y-14080388D01*
X7327240Y-14080388D02*
X7317716Y-14099436D01*
X7317716Y-14099436D02*
X7308192Y-14108960D01*
X7308192Y-14108960D02*
X7289145Y-14118484D01*
X7289145Y-14118484D02*
X7270097Y-14118484D01*
X7270097Y-14118484D02*
X7251049Y-14108960D01*
X7251049Y-14108960D02*
X7241526Y-14099436D01*
X7241526Y-14099436D02*
X7232002Y-14080388D01*
X7232002Y-14080388D02*
X7222478Y-14042293D01*
X7222478Y-14042293D02*
X7222478Y-13994674D01*
X7222478Y-13994674D02*
X7232002Y-13956579D01*
X7232002Y-13956579D02*
X7241526Y-13937531D01*
X7241526Y-13937531D02*
X7251049Y-13928008D01*
X7251049Y-13928008D02*
X7270097Y-13918484D01*
X7422478Y-14118484D02*
X7422478Y-13985150D01*
X7422478Y-14004198D02*
X7432002Y-13994674D01*
X7432002Y-13994674D02*
X7451049Y-13985150D01*
X7451049Y-13985150D02*
X7479621Y-13985150D01*
X7479621Y-13985150D02*
X7498669Y-13994674D01*
X7498669Y-13994674D02*
X7508192Y-14013722D01*
X7508192Y-14013722D02*
X7508192Y-14118484D01*
X7508192Y-14013722D02*
X7517716Y-13994674D01*
X7517716Y-13994674D02*
X7536764Y-13985150D01*
X7536764Y-13985150D02*
X7565335Y-13985150D01*
X7565335Y-13985150D02*
X7584383Y-13994674D01*
X7584383Y-13994674D02*
X7593907Y-14013722D01*
X7593907Y-14013722D02*
X7593907Y-14118484D01*
X7689145Y-14118484D02*
X7689145Y-13985150D01*
X7689145Y-14004198D02*
X7698669Y-13994674D01*
X7698669Y-13994674D02*
X7717716Y-13985150D01*
X7717716Y-13985150D02*
X7746288Y-13985150D01*
X7746288Y-13985150D02*
X7765335Y-13994674D01*
X7765335Y-13994674D02*
X7774859Y-14013722D01*
X7774859Y-14013722D02*
X7774859Y-14118484D01*
X7774859Y-14013722D02*
X7784383Y-13994674D01*
X7784383Y-13994674D02*
X7803430Y-13985150D01*
X7803430Y-13985150D02*
X7832002Y-13985150D01*
X7832002Y-13985150D02*
X7851050Y-13994674D01*
X7851050Y-13994674D02*
X7860573Y-14013722D01*
X7860573Y-14013722D02*
X7860573Y-14118484D01*
X8251050Y-13908960D02*
X8079621Y-14166103D01*
X8508193Y-13918484D02*
X8527240Y-13918484D01*
X8527240Y-13918484D02*
X8546288Y-13928008D01*
X8546288Y-13928008D02*
X8555812Y-13937531D01*
X8555812Y-13937531D02*
X8565335Y-13956579D01*
X8565335Y-13956579D02*
X8574859Y-13994674D01*
X8574859Y-13994674D02*
X8574859Y-14042293D01*
X8574859Y-14042293D02*
X8565335Y-14080388D01*
X8565335Y-14080388D02*
X8555812Y-14099436D01*
X8555812Y-14099436D02*
X8546288Y-14108960D01*
X8546288Y-14108960D02*
X8527240Y-14118484D01*
X8527240Y-14118484D02*
X8508193Y-14118484D01*
X8508193Y-14118484D02*
X8489145Y-14108960D01*
X8489145Y-14108960D02*
X8479621Y-14099436D01*
X8479621Y-14099436D02*
X8470097Y-14080388D01*
X8470097Y-14080388D02*
X8460574Y-14042293D01*
X8460574Y-14042293D02*
X8460574Y-13994674D01*
X8460574Y-13994674D02*
X8470097Y-13956579D01*
X8470097Y-13956579D02*
X8479621Y-13937531D01*
X8479621Y-13937531D02*
X8489145Y-13928008D01*
X8489145Y-13928008D02*
X8508193Y-13918484D01*
X8660574Y-14099436D02*
X8670097Y-14108960D01*
X8670097Y-14108960D02*
X8660574Y-14118484D01*
X8660574Y-14118484D02*
X8651050Y-14108960D01*
X8651050Y-14108960D02*
X8660574Y-14099436D01*
X8660574Y-14099436D02*
X8660574Y-14118484D01*
X8793907Y-13918484D02*
X8812955Y-13918484D01*
X8812955Y-13918484D02*
X8832002Y-13928008D01*
X8832002Y-13928008D02*
X8841526Y-13937531D01*
X8841526Y-13937531D02*
X8851050Y-13956579D01*
X8851050Y-13956579D02*
X8860574Y-13994674D01*
X8860574Y-13994674D02*
X8860574Y-14042293D01*
X8860574Y-14042293D02*
X8851050Y-14080388D01*
X8851050Y-14080388D02*
X8841526Y-14099436D01*
X8841526Y-14099436D02*
X8832002Y-14108960D01*
X8832002Y-14108960D02*
X8812955Y-14118484D01*
X8812955Y-14118484D02*
X8793907Y-14118484D01*
X8793907Y-14118484D02*
X8774859Y-14108960D01*
X8774859Y-14108960D02*
X8765335Y-14099436D01*
X8765335Y-14099436D02*
X8755812Y-14080388D01*
X8755812Y-14080388D02*
X8746288Y-14042293D01*
X8746288Y-14042293D02*
X8746288Y-13994674D01*
X8746288Y-13994674D02*
X8755812Y-13956579D01*
X8755812Y-13956579D02*
X8765335Y-13937531D01*
X8765335Y-13937531D02*
X8774859Y-13928008D01*
X8774859Y-13928008D02*
X8793907Y-13918484D01*
X8927240Y-13918484D02*
X9051050Y-13918484D01*
X9051050Y-13918484D02*
X8984383Y-13994674D01*
X8984383Y-13994674D02*
X9012955Y-13994674D01*
X9012955Y-13994674D02*
X9032002Y-14004198D01*
X9032002Y-14004198D02*
X9041526Y-14013722D01*
X9041526Y-14013722D02*
X9051050Y-14032769D01*
X9051050Y-14032769D02*
X9051050Y-14080388D01*
X9051050Y-14080388D02*
X9041526Y-14099436D01*
X9041526Y-14099436D02*
X9032002Y-14108960D01*
X9032002Y-14108960D02*
X9012955Y-14118484D01*
X9012955Y-14118484D02*
X8955812Y-14118484D01*
X8955812Y-14118484D02*
X8936764Y-14108960D01*
X8936764Y-14108960D02*
X8927240Y-14099436D01*
X9241526Y-14118484D02*
X9127240Y-14118484D01*
X9184383Y-14118484D02*
X9184383Y-13918484D01*
X9184383Y-13918484D02*
X9165335Y-13947055D01*
X9165335Y-13947055D02*
X9146288Y-13966103D01*
X9146288Y-13966103D02*
X9127240Y-13975627D01*
X9422478Y-13918484D02*
X9327240Y-13918484D01*
X9327240Y-13918484D02*
X9317716Y-14013722D01*
X9317716Y-14013722D02*
X9327240Y-14004198D01*
X9327240Y-14004198D02*
X9346288Y-13994674D01*
X9346288Y-13994674D02*
X9393907Y-13994674D01*
X9393907Y-13994674D02*
X9412955Y-14004198D01*
X9412955Y-14004198D02*
X9422478Y-14013722D01*
X9422478Y-14013722D02*
X9432002Y-14032769D01*
X9432002Y-14032769D02*
X9432002Y-14080388D01*
X9432002Y-14080388D02*
X9422478Y-14099436D01*
X9422478Y-14099436D02*
X9412955Y-14108960D01*
X9412955Y-14108960D02*
X9393907Y-14118484D01*
X9393907Y-14118484D02*
X9346288Y-14118484D01*
X9346288Y-14118484D02*
X9327240Y-14108960D01*
X9327240Y-14108960D02*
X9317716Y-14099436D01*
X9508193Y-13918484D02*
X9508193Y-13956579D01*
X9584383Y-13918484D02*
X9584383Y-13956579D01*
X9879621Y-14194674D02*
X9870097Y-14185150D01*
X9870097Y-14185150D02*
X9851050Y-14156579D01*
X9851050Y-14156579D02*
X9841526Y-14137531D01*
X9841526Y-14137531D02*
X9832002Y-14108960D01*
X9832002Y-14108960D02*
X9822478Y-14061341D01*
X9822478Y-14061341D02*
X9822478Y-14023246D01*
X9822478Y-14023246D02*
X9832002Y-13975627D01*
X9832002Y-13975627D02*
X9841526Y-13947055D01*
X9841526Y-13947055D02*
X9851050Y-13928008D01*
X9851050Y-13928008D02*
X9870097Y-13899436D01*
X9870097Y-13899436D02*
X9879621Y-13889912D01*
X10041526Y-13918484D02*
X10003431Y-13918484D01*
X10003431Y-13918484D02*
X9984383Y-13928008D01*
X9984383Y-13928008D02*
X9974859Y-13937531D01*
X9974859Y-13937531D02*
X9955812Y-13966103D01*
X9955812Y-13966103D02*
X9946288Y-14004198D01*
X9946288Y-14004198D02*
X9946288Y-14080388D01*
X9946288Y-14080388D02*
X9955812Y-14099436D01*
X9955812Y-14099436D02*
X9965336Y-14108960D01*
X9965336Y-14108960D02*
X9984383Y-14118484D01*
X9984383Y-14118484D02*
X10022478Y-14118484D01*
X10022478Y-14118484D02*
X10041526Y-14108960D01*
X10041526Y-14108960D02*
X10051050Y-14099436D01*
X10051050Y-14099436D02*
X10060574Y-14080388D01*
X10060574Y-14080388D02*
X10060574Y-14032769D01*
X10060574Y-14032769D02*
X10051050Y-14013722D01*
X10051050Y-14013722D02*
X10041526Y-14004198D01*
X10041526Y-14004198D02*
X10022478Y-13994674D01*
X10022478Y-13994674D02*
X9984383Y-13994674D01*
X9984383Y-13994674D02*
X9965336Y-14004198D01*
X9965336Y-14004198D02*
X9955812Y-14013722D01*
X9955812Y-14013722D02*
X9946288Y-14032769D01*
X10298669Y-14118484D02*
X10298669Y-13918484D01*
X10384383Y-14118484D02*
X10384383Y-14013722D01*
X10384383Y-14013722D02*
X10374859Y-13994674D01*
X10374859Y-13994674D02*
X10355812Y-13985150D01*
X10355812Y-13985150D02*
X10327240Y-13985150D01*
X10327240Y-13985150D02*
X10308193Y-13994674D01*
X10308193Y-13994674D02*
X10298669Y-14004198D01*
X10508193Y-14118484D02*
X10489145Y-14108960D01*
X10489145Y-14108960D02*
X10479621Y-14099436D01*
X10479621Y-14099436D02*
X10470098Y-14080388D01*
X10470098Y-14080388D02*
X10470098Y-14023246D01*
X10470098Y-14023246D02*
X10479621Y-14004198D01*
X10479621Y-14004198D02*
X10489145Y-13994674D01*
X10489145Y-13994674D02*
X10508193Y-13985150D01*
X10508193Y-13985150D02*
X10536764Y-13985150D01*
X10536764Y-13985150D02*
X10555812Y-13994674D01*
X10555812Y-13994674D02*
X10565336Y-14004198D01*
X10565336Y-14004198D02*
X10574859Y-14023246D01*
X10574859Y-14023246D02*
X10574859Y-14080388D01*
X10574859Y-14080388D02*
X10565336Y-14099436D01*
X10565336Y-14099436D02*
X10555812Y-14108960D01*
X10555812Y-14108960D02*
X10536764Y-14118484D01*
X10536764Y-14118484D02*
X10508193Y-14118484D01*
X10689145Y-14118484D02*
X10670098Y-14108960D01*
X10670098Y-14108960D02*
X10660574Y-14089912D01*
X10660574Y-14089912D02*
X10660574Y-13918484D01*
X10841526Y-14108960D02*
X10822479Y-14118484D01*
X10822479Y-14118484D02*
X10784383Y-14118484D01*
X10784383Y-14118484D02*
X10765336Y-14108960D01*
X10765336Y-14108960D02*
X10755812Y-14089912D01*
X10755812Y-14089912D02*
X10755812Y-14013722D01*
X10755812Y-14013722D02*
X10765336Y-13994674D01*
X10765336Y-13994674D02*
X10784383Y-13985150D01*
X10784383Y-13985150D02*
X10822479Y-13985150D01*
X10822479Y-13985150D02*
X10841526Y-13994674D01*
X10841526Y-13994674D02*
X10851050Y-14013722D01*
X10851050Y-14013722D02*
X10851050Y-14032769D01*
X10851050Y-14032769D02*
X10755812Y-14051817D01*
X10927240Y-14108960D02*
X10946288Y-14118484D01*
X10946288Y-14118484D02*
X10984383Y-14118484D01*
X10984383Y-14118484D02*
X11003431Y-14108960D01*
X11003431Y-14108960D02*
X11012955Y-14089912D01*
X11012955Y-14089912D02*
X11012955Y-14080388D01*
X11012955Y-14080388D02*
X11003431Y-14061341D01*
X11003431Y-14061341D02*
X10984383Y-14051817D01*
X10984383Y-14051817D02*
X10955812Y-14051817D01*
X10955812Y-14051817D02*
X10936764Y-14042293D01*
X10936764Y-14042293D02*
X10927240Y-14023246D01*
X10927240Y-14023246D02*
X10927240Y-14013722D01*
X10927240Y-14013722D02*
X10936764Y-13994674D01*
X10936764Y-13994674D02*
X10955812Y-13985150D01*
X10955812Y-13985150D02*
X10984383Y-13985150D01*
X10984383Y-13985150D02*
X11003431Y-13994674D01*
X11079621Y-14194674D02*
X11089145Y-14185150D01*
X11089145Y-14185150D02*
X11108193Y-14156579D01*
X11108193Y-14156579D02*
X11117717Y-14137531D01*
X11117717Y-14137531D02*
X11127240Y-14108960D01*
X11127240Y-14108960D02*
X11136764Y-14061341D01*
X11136764Y-14061341D02*
X11136764Y-14023246D01*
X11136764Y-14023246D02*
X11127240Y-13975627D01*
X11127240Y-13975627D02*
X11117717Y-13947055D01*
X11117717Y-13947055D02*
X11108193Y-13928008D01*
X11108193Y-13928008D02*
X11089145Y-13899436D01*
X11089145Y-13899436D02*
X11079621Y-13889912D01*
D10*
X6254558Y-14341000D02*
X6304558Y-14291000D01*
X6254558Y-14241000D01*
X6204558Y-14291000D01*
X6254558Y-14341000D01*
D11*
X6670097Y-14382484D02*
X6555811Y-14382484D01*
X6612954Y-14382484D02*
X6612954Y-14182484D01*
X6612954Y-14182484D02*
X6593907Y-14211055D01*
X6593907Y-14211055D02*
X6574859Y-14230103D01*
X6574859Y-14230103D02*
X6555811Y-14239627D01*
X6755811Y-14363436D02*
X6765335Y-14372960D01*
X6765335Y-14372960D02*
X6755811Y-14382484D01*
X6755811Y-14382484D02*
X6746288Y-14372960D01*
X6746288Y-14372960D02*
X6755811Y-14363436D01*
X6755811Y-14363436D02*
X6755811Y-14382484D01*
X6889145Y-14182484D02*
X6908192Y-14182484D01*
X6908192Y-14182484D02*
X6927240Y-14192008D01*
X6927240Y-14192008D02*
X6936764Y-14201531D01*
X6936764Y-14201531D02*
X6946288Y-14220579D01*
X6946288Y-14220579D02*
X6955811Y-14258674D01*
X6955811Y-14258674D02*
X6955811Y-14306293D01*
X6955811Y-14306293D02*
X6946288Y-14344388D01*
X6946288Y-14344388D02*
X6936764Y-14363436D01*
X6936764Y-14363436D02*
X6927240Y-14372960D01*
X6927240Y-14372960D02*
X6908192Y-14382484D01*
X6908192Y-14382484D02*
X6889145Y-14382484D01*
X6889145Y-14382484D02*
X6870097Y-14372960D01*
X6870097Y-14372960D02*
X6860573Y-14363436D01*
X6860573Y-14363436D02*
X6851049Y-14344388D01*
X6851049Y-14344388D02*
X6841526Y-14306293D01*
X6841526Y-14306293D02*
X6841526Y-14258674D01*
X6841526Y-14258674D02*
X6851049Y-14220579D01*
X6851049Y-14220579D02*
X6860573Y-14201531D01*
X6860573Y-14201531D02*
X6870097Y-14192008D01*
X6870097Y-14192008D02*
X6889145Y-14182484D01*
X7079621Y-14182484D02*
X7098669Y-14182484D01*
X7098669Y-14182484D02*
X7117716Y-14192008D01*
X7117716Y-14192008D02*
X7127240Y-14201531D01*
X7127240Y-14201531D02*
X7136764Y-14220579D01*
X7136764Y-14220579D02*
X7146288Y-14258674D01*
X7146288Y-14258674D02*
X7146288Y-14306293D01*
X7146288Y-14306293D02*
X7136764Y-14344388D01*
X7136764Y-14344388D02*
X7127240Y-14363436D01*
X7127240Y-14363436D02*
X7117716Y-14372960D01*
X7117716Y-14372960D02*
X7098669Y-14382484D01*
X7098669Y-14382484D02*
X7079621Y-14382484D01*
X7079621Y-14382484D02*
X7060573Y-14372960D01*
X7060573Y-14372960D02*
X7051049Y-14363436D01*
X7051049Y-14363436D02*
X7041526Y-14344388D01*
X7041526Y-14344388D02*
X7032002Y-14306293D01*
X7032002Y-14306293D02*
X7032002Y-14258674D01*
X7032002Y-14258674D02*
X7041526Y-14220579D01*
X7041526Y-14220579D02*
X7051049Y-14201531D01*
X7051049Y-14201531D02*
X7060573Y-14192008D01*
X7060573Y-14192008D02*
X7079621Y-14182484D01*
X7270097Y-14182484D02*
X7289145Y-14182484D01*
X7289145Y-14182484D02*
X7308192Y-14192008D01*
X7308192Y-14192008D02*
X7317716Y-14201531D01*
X7317716Y-14201531D02*
X7327240Y-14220579D01*
X7327240Y-14220579D02*
X7336764Y-14258674D01*
X7336764Y-14258674D02*
X7336764Y-14306293D01*
X7336764Y-14306293D02*
X7327240Y-14344388D01*
X7327240Y-14344388D02*
X7317716Y-14363436D01*
X7317716Y-14363436D02*
X7308192Y-14372960D01*
X7308192Y-14372960D02*
X7289145Y-14382484D01*
X7289145Y-14382484D02*
X7270097Y-14382484D01*
X7270097Y-14382484D02*
X7251049Y-14372960D01*
X7251049Y-14372960D02*
X7241526Y-14363436D01*
X7241526Y-14363436D02*
X7232002Y-14344388D01*
X7232002Y-14344388D02*
X7222478Y-14306293D01*
X7222478Y-14306293D02*
X7222478Y-14258674D01*
X7222478Y-14258674D02*
X7232002Y-14220579D01*
X7232002Y-14220579D02*
X7241526Y-14201531D01*
X7241526Y-14201531D02*
X7251049Y-14192008D01*
X7251049Y-14192008D02*
X7270097Y-14182484D01*
X7422478Y-14382484D02*
X7422478Y-14249150D01*
X7422478Y-14268198D02*
X7432002Y-14258674D01*
X7432002Y-14258674D02*
X7451049Y-14249150D01*
X7451049Y-14249150D02*
X7479621Y-14249150D01*
X7479621Y-14249150D02*
X7498669Y-14258674D01*
X7498669Y-14258674D02*
X7508192Y-14277722D01*
X7508192Y-14277722D02*
X7508192Y-14382484D01*
X7508192Y-14277722D02*
X7517716Y-14258674D01*
X7517716Y-14258674D02*
X7536764Y-14249150D01*
X7536764Y-14249150D02*
X7565335Y-14249150D01*
X7565335Y-14249150D02*
X7584383Y-14258674D01*
X7584383Y-14258674D02*
X7593907Y-14277722D01*
X7593907Y-14277722D02*
X7593907Y-14382484D01*
X7689145Y-14382484D02*
X7689145Y-14249150D01*
X7689145Y-14268198D02*
X7698669Y-14258674D01*
X7698669Y-14258674D02*
X7717716Y-14249150D01*
X7717716Y-14249150D02*
X7746288Y-14249150D01*
X7746288Y-14249150D02*
X7765335Y-14258674D01*
X7765335Y-14258674D02*
X7774859Y-14277722D01*
X7774859Y-14277722D02*
X7774859Y-14382484D01*
X7774859Y-14277722D02*
X7784383Y-14258674D01*
X7784383Y-14258674D02*
X7803430Y-14249150D01*
X7803430Y-14249150D02*
X7832002Y-14249150D01*
X7832002Y-14249150D02*
X7851050Y-14258674D01*
X7851050Y-14258674D02*
X7860573Y-14277722D01*
X7860573Y-14277722D02*
X7860573Y-14382484D01*
X8251050Y-14172960D02*
X8079621Y-14430103D01*
X8508193Y-14182484D02*
X8527240Y-14182484D01*
X8527240Y-14182484D02*
X8546288Y-14192008D01*
X8546288Y-14192008D02*
X8555812Y-14201531D01*
X8555812Y-14201531D02*
X8565335Y-14220579D01*
X8565335Y-14220579D02*
X8574859Y-14258674D01*
X8574859Y-14258674D02*
X8574859Y-14306293D01*
X8574859Y-14306293D02*
X8565335Y-14344388D01*
X8565335Y-14344388D02*
X8555812Y-14363436D01*
X8555812Y-14363436D02*
X8546288Y-14372960D01*
X8546288Y-14372960D02*
X8527240Y-14382484D01*
X8527240Y-14382484D02*
X8508193Y-14382484D01*
X8508193Y-14382484D02*
X8489145Y-14372960D01*
X8489145Y-14372960D02*
X8479621Y-14363436D01*
X8479621Y-14363436D02*
X8470097Y-14344388D01*
X8470097Y-14344388D02*
X8460574Y-14306293D01*
X8460574Y-14306293D02*
X8460574Y-14258674D01*
X8460574Y-14258674D02*
X8470097Y-14220579D01*
X8470097Y-14220579D02*
X8479621Y-14201531D01*
X8479621Y-14201531D02*
X8489145Y-14192008D01*
X8489145Y-14192008D02*
X8508193Y-14182484D01*
X8660574Y-14363436D02*
X8670097Y-14372960D01*
X8670097Y-14372960D02*
X8660574Y-14382484D01*
X8660574Y-14382484D02*
X8651050Y-14372960D01*
X8651050Y-14372960D02*
X8660574Y-14363436D01*
X8660574Y-14363436D02*
X8660574Y-14382484D01*
X8793907Y-14182484D02*
X8812955Y-14182484D01*
X8812955Y-14182484D02*
X8832002Y-14192008D01*
X8832002Y-14192008D02*
X8841526Y-14201531D01*
X8841526Y-14201531D02*
X8851050Y-14220579D01*
X8851050Y-14220579D02*
X8860574Y-14258674D01*
X8860574Y-14258674D02*
X8860574Y-14306293D01*
X8860574Y-14306293D02*
X8851050Y-14344388D01*
X8851050Y-14344388D02*
X8841526Y-14363436D01*
X8841526Y-14363436D02*
X8832002Y-14372960D01*
X8832002Y-14372960D02*
X8812955Y-14382484D01*
X8812955Y-14382484D02*
X8793907Y-14382484D01*
X8793907Y-14382484D02*
X8774859Y-14372960D01*
X8774859Y-14372960D02*
X8765335Y-14363436D01*
X8765335Y-14363436D02*
X8755812Y-14344388D01*
X8755812Y-14344388D02*
X8746288Y-14306293D01*
X8746288Y-14306293D02*
X8746288Y-14258674D01*
X8746288Y-14258674D02*
X8755812Y-14220579D01*
X8755812Y-14220579D02*
X8765335Y-14201531D01*
X8765335Y-14201531D02*
X8774859Y-14192008D01*
X8774859Y-14192008D02*
X8793907Y-14182484D01*
X8927240Y-14182484D02*
X9051050Y-14182484D01*
X9051050Y-14182484D02*
X8984383Y-14258674D01*
X8984383Y-14258674D02*
X9012955Y-14258674D01*
X9012955Y-14258674D02*
X9032002Y-14268198D01*
X9032002Y-14268198D02*
X9041526Y-14277722D01*
X9041526Y-14277722D02*
X9051050Y-14296769D01*
X9051050Y-14296769D02*
X9051050Y-14344388D01*
X9051050Y-14344388D02*
X9041526Y-14363436D01*
X9041526Y-14363436D02*
X9032002Y-14372960D01*
X9032002Y-14372960D02*
X9012955Y-14382484D01*
X9012955Y-14382484D02*
X8955812Y-14382484D01*
X8955812Y-14382484D02*
X8936764Y-14372960D01*
X8936764Y-14372960D02*
X8927240Y-14363436D01*
X9146288Y-14382484D02*
X9184383Y-14382484D01*
X9184383Y-14382484D02*
X9203431Y-14372960D01*
X9203431Y-14372960D02*
X9212955Y-14363436D01*
X9212955Y-14363436D02*
X9232002Y-14334865D01*
X9232002Y-14334865D02*
X9241526Y-14296769D01*
X9241526Y-14296769D02*
X9241526Y-14220579D01*
X9241526Y-14220579D02*
X9232002Y-14201531D01*
X9232002Y-14201531D02*
X9222478Y-14192008D01*
X9222478Y-14192008D02*
X9203431Y-14182484D01*
X9203431Y-14182484D02*
X9165335Y-14182484D01*
X9165335Y-14182484D02*
X9146288Y-14192008D01*
X9146288Y-14192008D02*
X9136764Y-14201531D01*
X9136764Y-14201531D02*
X9127240Y-14220579D01*
X9127240Y-14220579D02*
X9127240Y-14268198D01*
X9127240Y-14268198D02*
X9136764Y-14287246D01*
X9136764Y-14287246D02*
X9146288Y-14296769D01*
X9146288Y-14296769D02*
X9165335Y-14306293D01*
X9165335Y-14306293D02*
X9203431Y-14306293D01*
X9203431Y-14306293D02*
X9222478Y-14296769D01*
X9222478Y-14296769D02*
X9232002Y-14287246D01*
X9232002Y-14287246D02*
X9241526Y-14268198D01*
X9412955Y-14249150D02*
X9412955Y-14382484D01*
X9365335Y-14172960D02*
X9317716Y-14315817D01*
X9317716Y-14315817D02*
X9441526Y-14315817D01*
X9508193Y-14182484D02*
X9508193Y-14220579D01*
X9584383Y-14182484D02*
X9584383Y-14220579D01*
X9879621Y-14458674D02*
X9870097Y-14449150D01*
X9870097Y-14449150D02*
X9851050Y-14420579D01*
X9851050Y-14420579D02*
X9841526Y-14401531D01*
X9841526Y-14401531D02*
X9832002Y-14372960D01*
X9832002Y-14372960D02*
X9822478Y-14325341D01*
X9822478Y-14325341D02*
X9822478Y-14287246D01*
X9822478Y-14287246D02*
X9832002Y-14239627D01*
X9832002Y-14239627D02*
X9841526Y-14211055D01*
X9841526Y-14211055D02*
X9851050Y-14192008D01*
X9851050Y-14192008D02*
X9870097Y-14163436D01*
X9870097Y-14163436D02*
X9879621Y-14153912D01*
X10060574Y-14382484D02*
X9946288Y-14382484D01*
X10003431Y-14382484D02*
X10003431Y-14182484D01*
X10003431Y-14182484D02*
X9984383Y-14211055D01*
X9984383Y-14211055D02*
X9965336Y-14230103D01*
X9965336Y-14230103D02*
X9946288Y-14239627D01*
X10127240Y-14182484D02*
X10260574Y-14182484D01*
X10260574Y-14182484D02*
X10174859Y-14382484D01*
X10489145Y-14382484D02*
X10489145Y-14182484D01*
X10574859Y-14382484D02*
X10574859Y-14277722D01*
X10574859Y-14277722D02*
X10565336Y-14258674D01*
X10565336Y-14258674D02*
X10546288Y-14249150D01*
X10546288Y-14249150D02*
X10517717Y-14249150D01*
X10517717Y-14249150D02*
X10498669Y-14258674D01*
X10498669Y-14258674D02*
X10489145Y-14268198D01*
X10698669Y-14382484D02*
X10679621Y-14372960D01*
X10679621Y-14372960D02*
X10670098Y-14363436D01*
X10670098Y-14363436D02*
X10660574Y-14344388D01*
X10660574Y-14344388D02*
X10660574Y-14287246D01*
X10660574Y-14287246D02*
X10670098Y-14268198D01*
X10670098Y-14268198D02*
X10679621Y-14258674D01*
X10679621Y-14258674D02*
X10698669Y-14249150D01*
X10698669Y-14249150D02*
X10727240Y-14249150D01*
X10727240Y-14249150D02*
X10746288Y-14258674D01*
X10746288Y-14258674D02*
X10755812Y-14268198D01*
X10755812Y-14268198D02*
X10765336Y-14287246D01*
X10765336Y-14287246D02*
X10765336Y-14344388D01*
X10765336Y-14344388D02*
X10755812Y-14363436D01*
X10755812Y-14363436D02*
X10746288Y-14372960D01*
X10746288Y-14372960D02*
X10727240Y-14382484D01*
X10727240Y-14382484D02*
X10698669Y-14382484D01*
X10879621Y-14382484D02*
X10860574Y-14372960D01*
X10860574Y-14372960D02*
X10851050Y-14353912D01*
X10851050Y-14353912D02*
X10851050Y-14182484D01*
X11032002Y-14372960D02*
X11012955Y-14382484D01*
X11012955Y-14382484D02*
X10974859Y-14382484D01*
X10974859Y-14382484D02*
X10955812Y-14372960D01*
X10955812Y-14372960D02*
X10946288Y-14353912D01*
X10946288Y-14353912D02*
X10946288Y-14277722D01*
X10946288Y-14277722D02*
X10955812Y-14258674D01*
X10955812Y-14258674D02*
X10974859Y-14249150D01*
X10974859Y-14249150D02*
X11012955Y-14249150D01*
X11012955Y-14249150D02*
X11032002Y-14258674D01*
X11032002Y-14258674D02*
X11041526Y-14277722D01*
X11041526Y-14277722D02*
X11041526Y-14296769D01*
X11041526Y-14296769D02*
X10946288Y-14315817D01*
X11117717Y-14372960D02*
X11136764Y-14382484D01*
X11136764Y-14382484D02*
X11174859Y-14382484D01*
X11174859Y-14382484D02*
X11193907Y-14372960D01*
X11193907Y-14372960D02*
X11203431Y-14353912D01*
X11203431Y-14353912D02*
X11203431Y-14344388D01*
X11203431Y-14344388D02*
X11193907Y-14325341D01*
X11193907Y-14325341D02*
X11174859Y-14315817D01*
X11174859Y-14315817D02*
X11146288Y-14315817D01*
X11146288Y-14315817D02*
X11127240Y-14306293D01*
X11127240Y-14306293D02*
X11117717Y-14287246D01*
X11117717Y-14287246D02*
X11117717Y-14277722D01*
X11117717Y-14277722D02*
X11127240Y-14258674D01*
X11127240Y-14258674D02*
X11146288Y-14249150D01*
X11146288Y-14249150D02*
X11174859Y-14249150D01*
X11174859Y-14249150D02*
X11193907Y-14258674D01*
X11270098Y-14458674D02*
X11279621Y-14449150D01*
X11279621Y-14449150D02*
X11298669Y-14420579D01*
X11298669Y-14420579D02*
X11308193Y-14401531D01*
X11308193Y-14401531D02*
X11317717Y-14372960D01*
X11317717Y-14372960D02*
X11327240Y-14325341D01*
X11327240Y-14325341D02*
X11327240Y-14287246D01*
X11327240Y-14287246D02*
X11317717Y-14239627D01*
X11317717Y-14239627D02*
X11308193Y-14211055D01*
X11308193Y-14211055D02*
X11298669Y-14192008D01*
X11298669Y-14192008D02*
X11279621Y-14163436D01*
X11279621Y-14163436D02*
X11270098Y-14153912D01*
D16*
X6202558Y-14504000D02*
X6304558Y-14606000D01*
X6304558Y-14504000D02*
X6202558Y-14606000D01*
X6304558Y-14555000D02*
G75*
G03*
X6304558Y-14555000I-51000J0D01*
G01*
D11*
X6670097Y-14646484D02*
X6555811Y-14646484D01*
X6612954Y-14646484D02*
X6612954Y-14446484D01*
X6612954Y-14446484D02*
X6593907Y-14475055D01*
X6593907Y-14475055D02*
X6574859Y-14494103D01*
X6574859Y-14494103D02*
X6555811Y-14503627D01*
X6755811Y-14627436D02*
X6765335Y-14636960D01*
X6765335Y-14636960D02*
X6755811Y-14646484D01*
X6755811Y-14646484D02*
X6746288Y-14636960D01*
X6746288Y-14636960D02*
X6755811Y-14627436D01*
X6755811Y-14627436D02*
X6755811Y-14646484D01*
X6889145Y-14446484D02*
X6908192Y-14446484D01*
X6908192Y-14446484D02*
X6927240Y-14456008D01*
X6927240Y-14456008D02*
X6936764Y-14465531D01*
X6936764Y-14465531D02*
X6946288Y-14484579D01*
X6946288Y-14484579D02*
X6955811Y-14522674D01*
X6955811Y-14522674D02*
X6955811Y-14570293D01*
X6955811Y-14570293D02*
X6946288Y-14608388D01*
X6946288Y-14608388D02*
X6936764Y-14627436D01*
X6936764Y-14627436D02*
X6927240Y-14636960D01*
X6927240Y-14636960D02*
X6908192Y-14646484D01*
X6908192Y-14646484D02*
X6889145Y-14646484D01*
X6889145Y-14646484D02*
X6870097Y-14636960D01*
X6870097Y-14636960D02*
X6860573Y-14627436D01*
X6860573Y-14627436D02*
X6851049Y-14608388D01*
X6851049Y-14608388D02*
X6841526Y-14570293D01*
X6841526Y-14570293D02*
X6841526Y-14522674D01*
X6841526Y-14522674D02*
X6851049Y-14484579D01*
X6851049Y-14484579D02*
X6860573Y-14465531D01*
X6860573Y-14465531D02*
X6870097Y-14456008D01*
X6870097Y-14456008D02*
X6889145Y-14446484D01*
X7032002Y-14465531D02*
X7041526Y-14456008D01*
X7041526Y-14456008D02*
X7060573Y-14446484D01*
X7060573Y-14446484D02*
X7108192Y-14446484D01*
X7108192Y-14446484D02*
X7127240Y-14456008D01*
X7127240Y-14456008D02*
X7136764Y-14465531D01*
X7136764Y-14465531D02*
X7146288Y-14484579D01*
X7146288Y-14484579D02*
X7146288Y-14503627D01*
X7146288Y-14503627D02*
X7136764Y-14532198D01*
X7136764Y-14532198D02*
X7022478Y-14646484D01*
X7022478Y-14646484D02*
X7146288Y-14646484D01*
X7270097Y-14446484D02*
X7289145Y-14446484D01*
X7289145Y-14446484D02*
X7308192Y-14456008D01*
X7308192Y-14456008D02*
X7317716Y-14465531D01*
X7317716Y-14465531D02*
X7327240Y-14484579D01*
X7327240Y-14484579D02*
X7336764Y-14522674D01*
X7336764Y-14522674D02*
X7336764Y-14570293D01*
X7336764Y-14570293D02*
X7327240Y-14608388D01*
X7327240Y-14608388D02*
X7317716Y-14627436D01*
X7317716Y-14627436D02*
X7308192Y-14636960D01*
X7308192Y-14636960D02*
X7289145Y-14646484D01*
X7289145Y-14646484D02*
X7270097Y-14646484D01*
X7270097Y-14646484D02*
X7251049Y-14636960D01*
X7251049Y-14636960D02*
X7241526Y-14627436D01*
X7241526Y-14627436D02*
X7232002Y-14608388D01*
X7232002Y-14608388D02*
X7222478Y-14570293D01*
X7222478Y-14570293D02*
X7222478Y-14522674D01*
X7222478Y-14522674D02*
X7232002Y-14484579D01*
X7232002Y-14484579D02*
X7241526Y-14465531D01*
X7241526Y-14465531D02*
X7251049Y-14456008D01*
X7251049Y-14456008D02*
X7270097Y-14446484D01*
X7422478Y-14646484D02*
X7422478Y-14513150D01*
X7422478Y-14532198D02*
X7432002Y-14522674D01*
X7432002Y-14522674D02*
X7451049Y-14513150D01*
X7451049Y-14513150D02*
X7479621Y-14513150D01*
X7479621Y-14513150D02*
X7498669Y-14522674D01*
X7498669Y-14522674D02*
X7508192Y-14541722D01*
X7508192Y-14541722D02*
X7508192Y-14646484D01*
X7508192Y-14541722D02*
X7517716Y-14522674D01*
X7517716Y-14522674D02*
X7536764Y-14513150D01*
X7536764Y-14513150D02*
X7565335Y-14513150D01*
X7565335Y-14513150D02*
X7584383Y-14522674D01*
X7584383Y-14522674D02*
X7593907Y-14541722D01*
X7593907Y-14541722D02*
X7593907Y-14646484D01*
X7689145Y-14646484D02*
X7689145Y-14513150D01*
X7689145Y-14532198D02*
X7698669Y-14522674D01*
X7698669Y-14522674D02*
X7717716Y-14513150D01*
X7717716Y-14513150D02*
X7746288Y-14513150D01*
X7746288Y-14513150D02*
X7765335Y-14522674D01*
X7765335Y-14522674D02*
X7774859Y-14541722D01*
X7774859Y-14541722D02*
X7774859Y-14646484D01*
X7774859Y-14541722D02*
X7784383Y-14522674D01*
X7784383Y-14522674D02*
X7803430Y-14513150D01*
X7803430Y-14513150D02*
X7832002Y-14513150D01*
X7832002Y-14513150D02*
X7851050Y-14522674D01*
X7851050Y-14522674D02*
X7860573Y-14541722D01*
X7860573Y-14541722D02*
X7860573Y-14646484D01*
X8251050Y-14436960D02*
X8079621Y-14694103D01*
X8508193Y-14446484D02*
X8527240Y-14446484D01*
X8527240Y-14446484D02*
X8546288Y-14456008D01*
X8546288Y-14456008D02*
X8555812Y-14465531D01*
X8555812Y-14465531D02*
X8565335Y-14484579D01*
X8565335Y-14484579D02*
X8574859Y-14522674D01*
X8574859Y-14522674D02*
X8574859Y-14570293D01*
X8574859Y-14570293D02*
X8565335Y-14608388D01*
X8565335Y-14608388D02*
X8555812Y-14627436D01*
X8555812Y-14627436D02*
X8546288Y-14636960D01*
X8546288Y-14636960D02*
X8527240Y-14646484D01*
X8527240Y-14646484D02*
X8508193Y-14646484D01*
X8508193Y-14646484D02*
X8489145Y-14636960D01*
X8489145Y-14636960D02*
X8479621Y-14627436D01*
X8479621Y-14627436D02*
X8470097Y-14608388D01*
X8470097Y-14608388D02*
X8460574Y-14570293D01*
X8460574Y-14570293D02*
X8460574Y-14522674D01*
X8460574Y-14522674D02*
X8470097Y-14484579D01*
X8470097Y-14484579D02*
X8479621Y-14465531D01*
X8479621Y-14465531D02*
X8489145Y-14456008D01*
X8489145Y-14456008D02*
X8508193Y-14446484D01*
X8660574Y-14627436D02*
X8670097Y-14636960D01*
X8670097Y-14636960D02*
X8660574Y-14646484D01*
X8660574Y-14646484D02*
X8651050Y-14636960D01*
X8651050Y-14636960D02*
X8660574Y-14627436D01*
X8660574Y-14627436D02*
X8660574Y-14646484D01*
X8793907Y-14446484D02*
X8812955Y-14446484D01*
X8812955Y-14446484D02*
X8832002Y-14456008D01*
X8832002Y-14456008D02*
X8841526Y-14465531D01*
X8841526Y-14465531D02*
X8851050Y-14484579D01*
X8851050Y-14484579D02*
X8860574Y-14522674D01*
X8860574Y-14522674D02*
X8860574Y-14570293D01*
X8860574Y-14570293D02*
X8851050Y-14608388D01*
X8851050Y-14608388D02*
X8841526Y-14627436D01*
X8841526Y-14627436D02*
X8832002Y-14636960D01*
X8832002Y-14636960D02*
X8812955Y-14646484D01*
X8812955Y-14646484D02*
X8793907Y-14646484D01*
X8793907Y-14646484D02*
X8774859Y-14636960D01*
X8774859Y-14636960D02*
X8765335Y-14627436D01*
X8765335Y-14627436D02*
X8755812Y-14608388D01*
X8755812Y-14608388D02*
X8746288Y-14570293D01*
X8746288Y-14570293D02*
X8746288Y-14522674D01*
X8746288Y-14522674D02*
X8755812Y-14484579D01*
X8755812Y-14484579D02*
X8765335Y-14465531D01*
X8765335Y-14465531D02*
X8774859Y-14456008D01*
X8774859Y-14456008D02*
X8793907Y-14446484D01*
X9032002Y-14513150D02*
X9032002Y-14646484D01*
X8984383Y-14436960D02*
X8936764Y-14579817D01*
X8936764Y-14579817D02*
X9060574Y-14579817D01*
X9174859Y-14446484D02*
X9193907Y-14446484D01*
X9193907Y-14446484D02*
X9212955Y-14456008D01*
X9212955Y-14456008D02*
X9222478Y-14465531D01*
X9222478Y-14465531D02*
X9232002Y-14484579D01*
X9232002Y-14484579D02*
X9241526Y-14522674D01*
X9241526Y-14522674D02*
X9241526Y-14570293D01*
X9241526Y-14570293D02*
X9232002Y-14608388D01*
X9232002Y-14608388D02*
X9222478Y-14627436D01*
X9222478Y-14627436D02*
X9212955Y-14636960D01*
X9212955Y-14636960D02*
X9193907Y-14646484D01*
X9193907Y-14646484D02*
X9174859Y-14646484D01*
X9174859Y-14646484D02*
X9155812Y-14636960D01*
X9155812Y-14636960D02*
X9146288Y-14627436D01*
X9146288Y-14627436D02*
X9136764Y-14608388D01*
X9136764Y-14608388D02*
X9127240Y-14570293D01*
X9127240Y-14570293D02*
X9127240Y-14522674D01*
X9127240Y-14522674D02*
X9136764Y-14484579D01*
X9136764Y-14484579D02*
X9146288Y-14465531D01*
X9146288Y-14465531D02*
X9155812Y-14456008D01*
X9155812Y-14456008D02*
X9174859Y-14446484D01*
X9317716Y-14465531D02*
X9327240Y-14456008D01*
X9327240Y-14456008D02*
X9346288Y-14446484D01*
X9346288Y-14446484D02*
X9393907Y-14446484D01*
X9393907Y-14446484D02*
X9412955Y-14456008D01*
X9412955Y-14456008D02*
X9422478Y-14465531D01*
X9422478Y-14465531D02*
X9432002Y-14484579D01*
X9432002Y-14484579D02*
X9432002Y-14503627D01*
X9432002Y-14503627D02*
X9422478Y-14532198D01*
X9422478Y-14532198D02*
X9308193Y-14646484D01*
X9308193Y-14646484D02*
X9432002Y-14646484D01*
X9508193Y-14446484D02*
X9508193Y-14484579D01*
X9584383Y-14446484D02*
X9584383Y-14484579D01*
X9879621Y-14722674D02*
X9870097Y-14713150D01*
X9870097Y-14713150D02*
X9851050Y-14684579D01*
X9851050Y-14684579D02*
X9841526Y-14665531D01*
X9841526Y-14665531D02*
X9832002Y-14636960D01*
X9832002Y-14636960D02*
X9822478Y-14589341D01*
X9822478Y-14589341D02*
X9822478Y-14551246D01*
X9822478Y-14551246D02*
X9832002Y-14503627D01*
X9832002Y-14503627D02*
X9841526Y-14475055D01*
X9841526Y-14475055D02*
X9851050Y-14456008D01*
X9851050Y-14456008D02*
X9870097Y-14427436D01*
X9870097Y-14427436D02*
X9879621Y-14417912D01*
X9936764Y-14446484D02*
X10060574Y-14446484D01*
X10060574Y-14446484D02*
X9993907Y-14522674D01*
X9993907Y-14522674D02*
X10022478Y-14522674D01*
X10022478Y-14522674D02*
X10041526Y-14532198D01*
X10041526Y-14532198D02*
X10051050Y-14541722D01*
X10051050Y-14541722D02*
X10060574Y-14560769D01*
X10060574Y-14560769D02*
X10060574Y-14608388D01*
X10060574Y-14608388D02*
X10051050Y-14627436D01*
X10051050Y-14627436D02*
X10041526Y-14636960D01*
X10041526Y-14636960D02*
X10022478Y-14646484D01*
X10022478Y-14646484D02*
X9965336Y-14646484D01*
X9965336Y-14646484D02*
X9946288Y-14636960D01*
X9946288Y-14636960D02*
X9936764Y-14627436D01*
X10184383Y-14446484D02*
X10203431Y-14446484D01*
X10203431Y-14446484D02*
X10222478Y-14456008D01*
X10222478Y-14456008D02*
X10232002Y-14465531D01*
X10232002Y-14465531D02*
X10241526Y-14484579D01*
X10241526Y-14484579D02*
X10251050Y-14522674D01*
X10251050Y-14522674D02*
X10251050Y-14570293D01*
X10251050Y-14570293D02*
X10241526Y-14608388D01*
X10241526Y-14608388D02*
X10232002Y-14627436D01*
X10232002Y-14627436D02*
X10222478Y-14636960D01*
X10222478Y-14636960D02*
X10203431Y-14646484D01*
X10203431Y-14646484D02*
X10184383Y-14646484D01*
X10184383Y-14646484D02*
X10165336Y-14636960D01*
X10165336Y-14636960D02*
X10155812Y-14627436D01*
X10155812Y-14627436D02*
X10146288Y-14608388D01*
X10146288Y-14608388D02*
X10136764Y-14570293D01*
X10136764Y-14570293D02*
X10136764Y-14522674D01*
X10136764Y-14522674D02*
X10146288Y-14484579D01*
X10146288Y-14484579D02*
X10155812Y-14465531D01*
X10155812Y-14465531D02*
X10165336Y-14456008D01*
X10165336Y-14456008D02*
X10184383Y-14446484D01*
X10489145Y-14646484D02*
X10489145Y-14446484D01*
X10574859Y-14646484D02*
X10574859Y-14541722D01*
X10574859Y-14541722D02*
X10565336Y-14522674D01*
X10565336Y-14522674D02*
X10546288Y-14513150D01*
X10546288Y-14513150D02*
X10517717Y-14513150D01*
X10517717Y-14513150D02*
X10498669Y-14522674D01*
X10498669Y-14522674D02*
X10489145Y-14532198D01*
X10698669Y-14646484D02*
X10679621Y-14636960D01*
X10679621Y-14636960D02*
X10670098Y-14627436D01*
X10670098Y-14627436D02*
X10660574Y-14608388D01*
X10660574Y-14608388D02*
X10660574Y-14551246D01*
X10660574Y-14551246D02*
X10670098Y-14532198D01*
X10670098Y-14532198D02*
X10679621Y-14522674D01*
X10679621Y-14522674D02*
X10698669Y-14513150D01*
X10698669Y-14513150D02*
X10727240Y-14513150D01*
X10727240Y-14513150D02*
X10746288Y-14522674D01*
X10746288Y-14522674D02*
X10755812Y-14532198D01*
X10755812Y-14532198D02*
X10765336Y-14551246D01*
X10765336Y-14551246D02*
X10765336Y-14608388D01*
X10765336Y-14608388D02*
X10755812Y-14627436D01*
X10755812Y-14627436D02*
X10746288Y-14636960D01*
X10746288Y-14636960D02*
X10727240Y-14646484D01*
X10727240Y-14646484D02*
X10698669Y-14646484D01*
X10879621Y-14646484D02*
X10860574Y-14636960D01*
X10860574Y-14636960D02*
X10851050Y-14617912D01*
X10851050Y-14617912D02*
X10851050Y-14446484D01*
X11032002Y-14636960D02*
X11012955Y-14646484D01*
X11012955Y-14646484D02*
X10974859Y-14646484D01*
X10974859Y-14646484D02*
X10955812Y-14636960D01*
X10955812Y-14636960D02*
X10946288Y-14617912D01*
X10946288Y-14617912D02*
X10946288Y-14541722D01*
X10946288Y-14541722D02*
X10955812Y-14522674D01*
X10955812Y-14522674D02*
X10974859Y-14513150D01*
X10974859Y-14513150D02*
X11012955Y-14513150D01*
X11012955Y-14513150D02*
X11032002Y-14522674D01*
X11032002Y-14522674D02*
X11041526Y-14541722D01*
X11041526Y-14541722D02*
X11041526Y-14560769D01*
X11041526Y-14560769D02*
X10946288Y-14579817D01*
X11117717Y-14636960D02*
X11136764Y-14646484D01*
X11136764Y-14646484D02*
X11174859Y-14646484D01*
X11174859Y-14646484D02*
X11193907Y-14636960D01*
X11193907Y-14636960D02*
X11203431Y-14617912D01*
X11203431Y-14617912D02*
X11203431Y-14608388D01*
X11203431Y-14608388D02*
X11193907Y-14589341D01*
X11193907Y-14589341D02*
X11174859Y-14579817D01*
X11174859Y-14579817D02*
X11146288Y-14579817D01*
X11146288Y-14579817D02*
X11127240Y-14570293D01*
X11127240Y-14570293D02*
X11117717Y-14551246D01*
X11117717Y-14551246D02*
X11117717Y-14541722D01*
X11117717Y-14541722D02*
X11127240Y-14522674D01*
X11127240Y-14522674D02*
X11146288Y-14513150D01*
X11146288Y-14513150D02*
X11174859Y-14513150D01*
X11174859Y-14513150D02*
X11193907Y-14522674D01*
X11270098Y-14722674D02*
X11279621Y-14713150D01*
X11279621Y-14713150D02*
X11298669Y-14684579D01*
X11298669Y-14684579D02*
X11308193Y-14665531D01*
X11308193Y-14665531D02*
X11317717Y-14636960D01*
X11317717Y-14636960D02*
X11327240Y-14589341D01*
X11327240Y-14589341D02*
X11327240Y-14551246D01*
X11327240Y-14551246D02*
X11317717Y-14503627D01*
X11317717Y-14503627D02*
X11308193Y-14475055D01*
X11308193Y-14475055D02*
X11298669Y-14456008D01*
X11298669Y-14456008D02*
X11279621Y-14427436D01*
X11279621Y-14427436D02*
X11270098Y-14417912D01*
X6104558Y-14719000D02*
X6304558Y-14919000D01*
X6304558Y-14719000D02*
X6104558Y-14919000D01*
X6204558Y-14719000D02*
X6204558Y-14919000D01*
X6104558Y-14819000D02*
X6304558Y-14819000D01*
X6555811Y-14729531D02*
X6565335Y-14720008D01*
X6565335Y-14720008D02*
X6584383Y-14710484D01*
X6584383Y-14710484D02*
X6632002Y-14710484D01*
X6632002Y-14710484D02*
X6651049Y-14720008D01*
X6651049Y-14720008D02*
X6660573Y-14729531D01*
X6660573Y-14729531D02*
X6670097Y-14748579D01*
X6670097Y-14748579D02*
X6670097Y-14767627D01*
X6670097Y-14767627D02*
X6660573Y-14796198D01*
X6660573Y-14796198D02*
X6546288Y-14910484D01*
X6546288Y-14910484D02*
X6670097Y-14910484D01*
X6755811Y-14891436D02*
X6765335Y-14900960D01*
X6765335Y-14900960D02*
X6755811Y-14910484D01*
X6755811Y-14910484D02*
X6746288Y-14900960D01*
X6746288Y-14900960D02*
X6755811Y-14891436D01*
X6755811Y-14891436D02*
X6755811Y-14910484D01*
X6832002Y-14710484D02*
X6965335Y-14710484D01*
X6965335Y-14710484D02*
X6879621Y-14910484D01*
X7079621Y-14710484D02*
X7098669Y-14710484D01*
X7098669Y-14710484D02*
X7117716Y-14720008D01*
X7117716Y-14720008D02*
X7127240Y-14729531D01*
X7127240Y-14729531D02*
X7136764Y-14748579D01*
X7136764Y-14748579D02*
X7146288Y-14786674D01*
X7146288Y-14786674D02*
X7146288Y-14834293D01*
X7146288Y-14834293D02*
X7136764Y-14872388D01*
X7136764Y-14872388D02*
X7127240Y-14891436D01*
X7127240Y-14891436D02*
X7117716Y-14900960D01*
X7117716Y-14900960D02*
X7098669Y-14910484D01*
X7098669Y-14910484D02*
X7079621Y-14910484D01*
X7079621Y-14910484D02*
X7060573Y-14900960D01*
X7060573Y-14900960D02*
X7051049Y-14891436D01*
X7051049Y-14891436D02*
X7041526Y-14872388D01*
X7041526Y-14872388D02*
X7032002Y-14834293D01*
X7032002Y-14834293D02*
X7032002Y-14786674D01*
X7032002Y-14786674D02*
X7041526Y-14748579D01*
X7041526Y-14748579D02*
X7051049Y-14729531D01*
X7051049Y-14729531D02*
X7060573Y-14720008D01*
X7060573Y-14720008D02*
X7079621Y-14710484D01*
X7270097Y-14710484D02*
X7289145Y-14710484D01*
X7289145Y-14710484D02*
X7308192Y-14720008D01*
X7308192Y-14720008D02*
X7317716Y-14729531D01*
X7317716Y-14729531D02*
X7327240Y-14748579D01*
X7327240Y-14748579D02*
X7336764Y-14786674D01*
X7336764Y-14786674D02*
X7336764Y-14834293D01*
X7336764Y-14834293D02*
X7327240Y-14872388D01*
X7327240Y-14872388D02*
X7317716Y-14891436D01*
X7317716Y-14891436D02*
X7308192Y-14900960D01*
X7308192Y-14900960D02*
X7289145Y-14910484D01*
X7289145Y-14910484D02*
X7270097Y-14910484D01*
X7270097Y-14910484D02*
X7251049Y-14900960D01*
X7251049Y-14900960D02*
X7241526Y-14891436D01*
X7241526Y-14891436D02*
X7232002Y-14872388D01*
X7232002Y-14872388D02*
X7222478Y-14834293D01*
X7222478Y-14834293D02*
X7222478Y-14786674D01*
X7222478Y-14786674D02*
X7232002Y-14748579D01*
X7232002Y-14748579D02*
X7241526Y-14729531D01*
X7241526Y-14729531D02*
X7251049Y-14720008D01*
X7251049Y-14720008D02*
X7270097Y-14710484D01*
X7422478Y-14910484D02*
X7422478Y-14777150D01*
X7422478Y-14796198D02*
X7432002Y-14786674D01*
X7432002Y-14786674D02*
X7451049Y-14777150D01*
X7451049Y-14777150D02*
X7479621Y-14777150D01*
X7479621Y-14777150D02*
X7498669Y-14786674D01*
X7498669Y-14786674D02*
X7508192Y-14805722D01*
X7508192Y-14805722D02*
X7508192Y-14910484D01*
X7508192Y-14805722D02*
X7517716Y-14786674D01*
X7517716Y-14786674D02*
X7536764Y-14777150D01*
X7536764Y-14777150D02*
X7565335Y-14777150D01*
X7565335Y-14777150D02*
X7584383Y-14786674D01*
X7584383Y-14786674D02*
X7593907Y-14805722D01*
X7593907Y-14805722D02*
X7593907Y-14910484D01*
X7689145Y-14910484D02*
X7689145Y-14777150D01*
X7689145Y-14796198D02*
X7698669Y-14786674D01*
X7698669Y-14786674D02*
X7717716Y-14777150D01*
X7717716Y-14777150D02*
X7746288Y-14777150D01*
X7746288Y-14777150D02*
X7765335Y-14786674D01*
X7765335Y-14786674D02*
X7774859Y-14805722D01*
X7774859Y-14805722D02*
X7774859Y-14910484D01*
X7774859Y-14805722D02*
X7784383Y-14786674D01*
X7784383Y-14786674D02*
X7803430Y-14777150D01*
X7803430Y-14777150D02*
X7832002Y-14777150D01*
X7832002Y-14777150D02*
X7851050Y-14786674D01*
X7851050Y-14786674D02*
X7860573Y-14805722D01*
X7860573Y-14805722D02*
X7860573Y-14910484D01*
X8251050Y-14700960D02*
X8079621Y-14958103D01*
X8508193Y-14710484D02*
X8527240Y-14710484D01*
X8527240Y-14710484D02*
X8546288Y-14720008D01*
X8546288Y-14720008D02*
X8555812Y-14729531D01*
X8555812Y-14729531D02*
X8565335Y-14748579D01*
X8565335Y-14748579D02*
X8574859Y-14786674D01*
X8574859Y-14786674D02*
X8574859Y-14834293D01*
X8574859Y-14834293D02*
X8565335Y-14872388D01*
X8565335Y-14872388D02*
X8555812Y-14891436D01*
X8555812Y-14891436D02*
X8546288Y-14900960D01*
X8546288Y-14900960D02*
X8527240Y-14910484D01*
X8527240Y-14910484D02*
X8508193Y-14910484D01*
X8508193Y-14910484D02*
X8489145Y-14900960D01*
X8489145Y-14900960D02*
X8479621Y-14891436D01*
X8479621Y-14891436D02*
X8470097Y-14872388D01*
X8470097Y-14872388D02*
X8460574Y-14834293D01*
X8460574Y-14834293D02*
X8460574Y-14786674D01*
X8460574Y-14786674D02*
X8470097Y-14748579D01*
X8470097Y-14748579D02*
X8479621Y-14729531D01*
X8479621Y-14729531D02*
X8489145Y-14720008D01*
X8489145Y-14720008D02*
X8508193Y-14710484D01*
X8660574Y-14891436D02*
X8670097Y-14900960D01*
X8670097Y-14900960D02*
X8660574Y-14910484D01*
X8660574Y-14910484D02*
X8651050Y-14900960D01*
X8651050Y-14900960D02*
X8660574Y-14891436D01*
X8660574Y-14891436D02*
X8660574Y-14910484D01*
X8860574Y-14910484D02*
X8746288Y-14910484D01*
X8803431Y-14910484D02*
X8803431Y-14710484D01*
X8803431Y-14710484D02*
X8784383Y-14739055D01*
X8784383Y-14739055D02*
X8765335Y-14758103D01*
X8765335Y-14758103D02*
X8746288Y-14767627D01*
X8984383Y-14710484D02*
X9003431Y-14710484D01*
X9003431Y-14710484D02*
X9022478Y-14720008D01*
X9022478Y-14720008D02*
X9032002Y-14729531D01*
X9032002Y-14729531D02*
X9041526Y-14748579D01*
X9041526Y-14748579D02*
X9051050Y-14786674D01*
X9051050Y-14786674D02*
X9051050Y-14834293D01*
X9051050Y-14834293D02*
X9041526Y-14872388D01*
X9041526Y-14872388D02*
X9032002Y-14891436D01*
X9032002Y-14891436D02*
X9022478Y-14900960D01*
X9022478Y-14900960D02*
X9003431Y-14910484D01*
X9003431Y-14910484D02*
X8984383Y-14910484D01*
X8984383Y-14910484D02*
X8965335Y-14900960D01*
X8965335Y-14900960D02*
X8955812Y-14891436D01*
X8955812Y-14891436D02*
X8946288Y-14872388D01*
X8946288Y-14872388D02*
X8936764Y-14834293D01*
X8936764Y-14834293D02*
X8936764Y-14786674D01*
X8936764Y-14786674D02*
X8946288Y-14748579D01*
X8946288Y-14748579D02*
X8955812Y-14729531D01*
X8955812Y-14729531D02*
X8965335Y-14720008D01*
X8965335Y-14720008D02*
X8984383Y-14710484D01*
X9222478Y-14710484D02*
X9184383Y-14710484D01*
X9184383Y-14710484D02*
X9165335Y-14720008D01*
X9165335Y-14720008D02*
X9155812Y-14729531D01*
X9155812Y-14729531D02*
X9136764Y-14758103D01*
X9136764Y-14758103D02*
X9127240Y-14796198D01*
X9127240Y-14796198D02*
X9127240Y-14872388D01*
X9127240Y-14872388D02*
X9136764Y-14891436D01*
X9136764Y-14891436D02*
X9146288Y-14900960D01*
X9146288Y-14900960D02*
X9165335Y-14910484D01*
X9165335Y-14910484D02*
X9203431Y-14910484D01*
X9203431Y-14910484D02*
X9222478Y-14900960D01*
X9222478Y-14900960D02*
X9232002Y-14891436D01*
X9232002Y-14891436D02*
X9241526Y-14872388D01*
X9241526Y-14872388D02*
X9241526Y-14824769D01*
X9241526Y-14824769D02*
X9232002Y-14805722D01*
X9232002Y-14805722D02*
X9222478Y-14796198D01*
X9222478Y-14796198D02*
X9203431Y-14786674D01*
X9203431Y-14786674D02*
X9165335Y-14786674D01*
X9165335Y-14786674D02*
X9146288Y-14796198D01*
X9146288Y-14796198D02*
X9136764Y-14805722D01*
X9136764Y-14805722D02*
X9127240Y-14824769D01*
X9308193Y-14710484D02*
X9432002Y-14710484D01*
X9432002Y-14710484D02*
X9365335Y-14786674D01*
X9365335Y-14786674D02*
X9393907Y-14786674D01*
X9393907Y-14786674D02*
X9412955Y-14796198D01*
X9412955Y-14796198D02*
X9422478Y-14805722D01*
X9422478Y-14805722D02*
X9432002Y-14824769D01*
X9432002Y-14824769D02*
X9432002Y-14872388D01*
X9432002Y-14872388D02*
X9422478Y-14891436D01*
X9422478Y-14891436D02*
X9412955Y-14900960D01*
X9412955Y-14900960D02*
X9393907Y-14910484D01*
X9393907Y-14910484D02*
X9336764Y-14910484D01*
X9336764Y-14910484D02*
X9317716Y-14900960D01*
X9317716Y-14900960D02*
X9308193Y-14891436D01*
X9508193Y-14710484D02*
X9508193Y-14748579D01*
X9584383Y-14710484D02*
X9584383Y-14748579D01*
X9879621Y-14986674D02*
X9870097Y-14977150D01*
X9870097Y-14977150D02*
X9851050Y-14948579D01*
X9851050Y-14948579D02*
X9841526Y-14929531D01*
X9841526Y-14929531D02*
X9832002Y-14900960D01*
X9832002Y-14900960D02*
X9822478Y-14853341D01*
X9822478Y-14853341D02*
X9822478Y-14815246D01*
X9822478Y-14815246D02*
X9832002Y-14767627D01*
X9832002Y-14767627D02*
X9841526Y-14739055D01*
X9841526Y-14739055D02*
X9851050Y-14720008D01*
X9851050Y-14720008D02*
X9870097Y-14691436D01*
X9870097Y-14691436D02*
X9879621Y-14681912D01*
X10041526Y-14777150D02*
X10041526Y-14910484D01*
X9993907Y-14700960D02*
X9946288Y-14843817D01*
X9946288Y-14843817D02*
X10070097Y-14843817D01*
X10298669Y-14910484D02*
X10298669Y-14710484D01*
X10384383Y-14910484D02*
X10384383Y-14805722D01*
X10384383Y-14805722D02*
X10374859Y-14786674D01*
X10374859Y-14786674D02*
X10355812Y-14777150D01*
X10355812Y-14777150D02*
X10327240Y-14777150D01*
X10327240Y-14777150D02*
X10308193Y-14786674D01*
X10308193Y-14786674D02*
X10298669Y-14796198D01*
X10508193Y-14910484D02*
X10489145Y-14900960D01*
X10489145Y-14900960D02*
X10479621Y-14891436D01*
X10479621Y-14891436D02*
X10470098Y-14872388D01*
X10470098Y-14872388D02*
X10470098Y-14815246D01*
X10470098Y-14815246D02*
X10479621Y-14796198D01*
X10479621Y-14796198D02*
X10489145Y-14786674D01*
X10489145Y-14786674D02*
X10508193Y-14777150D01*
X10508193Y-14777150D02*
X10536764Y-14777150D01*
X10536764Y-14777150D02*
X10555812Y-14786674D01*
X10555812Y-14786674D02*
X10565336Y-14796198D01*
X10565336Y-14796198D02*
X10574859Y-14815246D01*
X10574859Y-14815246D02*
X10574859Y-14872388D01*
X10574859Y-14872388D02*
X10565336Y-14891436D01*
X10565336Y-14891436D02*
X10555812Y-14900960D01*
X10555812Y-14900960D02*
X10536764Y-14910484D01*
X10536764Y-14910484D02*
X10508193Y-14910484D01*
X10689145Y-14910484D02*
X10670098Y-14900960D01*
X10670098Y-14900960D02*
X10660574Y-14881912D01*
X10660574Y-14881912D02*
X10660574Y-14710484D01*
X10841526Y-14900960D02*
X10822479Y-14910484D01*
X10822479Y-14910484D02*
X10784383Y-14910484D01*
X10784383Y-14910484D02*
X10765336Y-14900960D01*
X10765336Y-14900960D02*
X10755812Y-14881912D01*
X10755812Y-14881912D02*
X10755812Y-14805722D01*
X10755812Y-14805722D02*
X10765336Y-14786674D01*
X10765336Y-14786674D02*
X10784383Y-14777150D01*
X10784383Y-14777150D02*
X10822479Y-14777150D01*
X10822479Y-14777150D02*
X10841526Y-14786674D01*
X10841526Y-14786674D02*
X10851050Y-14805722D01*
X10851050Y-14805722D02*
X10851050Y-14824769D01*
X10851050Y-14824769D02*
X10755812Y-14843817D01*
X10927240Y-14900960D02*
X10946288Y-14910484D01*
X10946288Y-14910484D02*
X10984383Y-14910484D01*
X10984383Y-14910484D02*
X11003431Y-14900960D01*
X11003431Y-14900960D02*
X11012955Y-14881912D01*
X11012955Y-14881912D02*
X11012955Y-14872388D01*
X11012955Y-14872388D02*
X11003431Y-14853341D01*
X11003431Y-14853341D02*
X10984383Y-14843817D01*
X10984383Y-14843817D02*
X10955812Y-14843817D01*
X10955812Y-14843817D02*
X10936764Y-14834293D01*
X10936764Y-14834293D02*
X10927240Y-14815246D01*
X10927240Y-14815246D02*
X10927240Y-14805722D01*
X10927240Y-14805722D02*
X10936764Y-14786674D01*
X10936764Y-14786674D02*
X10955812Y-14777150D01*
X10955812Y-14777150D02*
X10984383Y-14777150D01*
X10984383Y-14777150D02*
X11003431Y-14786674D01*
X11079621Y-14986674D02*
X11089145Y-14977150D01*
X11089145Y-14977150D02*
X11108193Y-14948579D01*
X11108193Y-14948579D02*
X11117717Y-14929531D01*
X11117717Y-14929531D02*
X11127240Y-14900960D01*
X11127240Y-14900960D02*
X11136764Y-14853341D01*
X11136764Y-14853341D02*
X11136764Y-14815246D01*
X11136764Y-14815246D02*
X11127240Y-14767627D01*
X11127240Y-14767627D02*
X11117717Y-14739055D01*
X11117717Y-14739055D02*
X11108193Y-14720008D01*
X11108193Y-14720008D02*
X11089145Y-14691436D01*
X11089145Y-14691436D02*
X11079621Y-14681912D01*
M02*
