G04 #@! TF.GenerationSoftware,KiCad,Pcbnew,7.0.7*
G04 #@! TF.CreationDate,2024-05-28T19:52:44+02:00*
G04 #@! TF.ProjectId,linefollower_pcb,6c696e65-666f-46c6-9c6f-7765725f7063,rev?*
G04 #@! TF.SameCoordinates,Original*
G04 #@! TF.FileFunction,Legend,Top*
G04 #@! TF.FilePolarity,Positive*
%FSLAX46Y46*%
G04 Gerber Fmt 4.6, Leading zero omitted, Abs format (unit mm)*
G04 Created by KiCad (PCBNEW 7.0.7) date 2024-05-28 19:52:44*
%MOMM*%
%LPD*%
G01*
G04 APERTURE LIST*
G04 Aperture macros list*
%AMRoundRect*
0 Rectangle with rounded corners*
0 $1 Rounding radius*
0 $2 $3 $4 $5 $6 $7 $8 $9 X,Y pos of 4 corners*
0 Add a 4 corners polygon primitive as box body*
4,1,4,$2,$3,$4,$5,$6,$7,$8,$9,$2,$3,0*
0 Add four circle primitives for the rounded corners*
1,1,$1+$1,$2,$3*
1,1,$1+$1,$4,$5*
1,1,$1+$1,$6,$7*
1,1,$1+$1,$8,$9*
0 Add four rect primitives between the rounded corners*
20,1,$1+$1,$2,$3,$4,$5,0*
20,1,$1+$1,$4,$5,$6,$7,0*
20,1,$1+$1,$6,$7,$8,$9,0*
20,1,$1+$1,$8,$9,$2,$3,0*%
G04 Aperture macros list end*
%ADD10C,0.200000*%
%ADD11C,0.150000*%
%ADD12C,0.100000*%
%ADD13C,0.120000*%
%ADD14C,0.127000*%
%ADD15R,1.700000X1.700000*%
%ADD16O,1.700000X1.700000*%
%ADD17C,0.800000*%
%ADD18C,5.400000*%
%ADD19R,1.600000X1.600000*%
%ADD20C,1.600000*%
%ADD21C,1.524000*%
%ADD22RoundRect,0.102000X-0.765000X-0.765000X0.765000X-0.765000X0.765000X0.765000X-0.765000X0.765000X0*%
%ADD23C,1.734000*%
G04 APERTURE END LIST*
D10*
X102745863Y-68517219D02*
X102269673Y-68517219D01*
X102269673Y-68517219D02*
X102269673Y-67517219D01*
X103079197Y-68517219D02*
X103079197Y-67517219D01*
X103555387Y-68517219D02*
X103555387Y-67517219D01*
X103555387Y-67517219D02*
X104126815Y-68517219D01*
X104126815Y-68517219D02*
X104126815Y-67517219D01*
X104603006Y-67993409D02*
X104936339Y-67993409D01*
X105079196Y-68517219D02*
X104603006Y-68517219D01*
X104603006Y-68517219D02*
X104603006Y-67517219D01*
X104603006Y-67517219D02*
X105079196Y-67517219D01*
X105841101Y-67993409D02*
X105507768Y-67993409D01*
X105507768Y-68517219D02*
X105507768Y-67517219D01*
X105507768Y-67517219D02*
X105983958Y-67517219D01*
X106555387Y-67517219D02*
X106745863Y-67517219D01*
X106745863Y-67517219D02*
X106841101Y-67564838D01*
X106841101Y-67564838D02*
X106936339Y-67660076D01*
X106936339Y-67660076D02*
X106983958Y-67850552D01*
X106983958Y-67850552D02*
X106983958Y-68183885D01*
X106983958Y-68183885D02*
X106936339Y-68374361D01*
X106936339Y-68374361D02*
X106841101Y-68469600D01*
X106841101Y-68469600D02*
X106745863Y-68517219D01*
X106745863Y-68517219D02*
X106555387Y-68517219D01*
X106555387Y-68517219D02*
X106460149Y-68469600D01*
X106460149Y-68469600D02*
X106364911Y-68374361D01*
X106364911Y-68374361D02*
X106317292Y-68183885D01*
X106317292Y-68183885D02*
X106317292Y-67850552D01*
X106317292Y-67850552D02*
X106364911Y-67660076D01*
X106364911Y-67660076D02*
X106460149Y-67564838D01*
X106460149Y-67564838D02*
X106555387Y-67517219D01*
X107888720Y-68517219D02*
X107412530Y-68517219D01*
X107412530Y-68517219D02*
X107412530Y-67517219D01*
X108698244Y-68517219D02*
X108222054Y-68517219D01*
X108222054Y-68517219D02*
X108222054Y-67517219D01*
X109222054Y-67517219D02*
X109412530Y-67517219D01*
X109412530Y-67517219D02*
X109507768Y-67564838D01*
X109507768Y-67564838D02*
X109603006Y-67660076D01*
X109603006Y-67660076D02*
X109650625Y-67850552D01*
X109650625Y-67850552D02*
X109650625Y-68183885D01*
X109650625Y-68183885D02*
X109603006Y-68374361D01*
X109603006Y-68374361D02*
X109507768Y-68469600D01*
X109507768Y-68469600D02*
X109412530Y-68517219D01*
X109412530Y-68517219D02*
X109222054Y-68517219D01*
X109222054Y-68517219D02*
X109126816Y-68469600D01*
X109126816Y-68469600D02*
X109031578Y-68374361D01*
X109031578Y-68374361D02*
X108983959Y-68183885D01*
X108983959Y-68183885D02*
X108983959Y-67850552D01*
X108983959Y-67850552D02*
X109031578Y-67660076D01*
X109031578Y-67660076D02*
X109126816Y-67564838D01*
X109126816Y-67564838D02*
X109222054Y-67517219D01*
X109983959Y-67517219D02*
X110222054Y-68517219D01*
X110222054Y-68517219D02*
X110412530Y-67802933D01*
X110412530Y-67802933D02*
X110603006Y-68517219D01*
X110603006Y-68517219D02*
X110841102Y-67517219D01*
X111222054Y-67993409D02*
X111555387Y-67993409D01*
X111698244Y-68517219D02*
X111222054Y-68517219D01*
X111222054Y-68517219D02*
X111222054Y-67517219D01*
X111222054Y-67517219D02*
X111698244Y-67517219D01*
X112698244Y-68517219D02*
X112364911Y-68041028D01*
X112126816Y-68517219D02*
X112126816Y-67517219D01*
X112126816Y-67517219D02*
X112507768Y-67517219D01*
X112507768Y-67517219D02*
X112603006Y-67564838D01*
X112603006Y-67564838D02*
X112650625Y-67612457D01*
X112650625Y-67612457D02*
X112698244Y-67707695D01*
X112698244Y-67707695D02*
X112698244Y-67850552D01*
X112698244Y-67850552D02*
X112650625Y-67945790D01*
X112650625Y-67945790D02*
X112603006Y-67993409D01*
X112603006Y-67993409D02*
X112507768Y-68041028D01*
X112507768Y-68041028D02*
X112126816Y-68041028D01*
X113888721Y-68517219D02*
X113888721Y-67517219D01*
X113888721Y-67517219D02*
X114222054Y-68231504D01*
X114222054Y-68231504D02*
X114555387Y-67517219D01*
X114555387Y-67517219D02*
X114555387Y-68517219D01*
X115222054Y-67517219D02*
X115412530Y-67517219D01*
X115412530Y-67517219D02*
X115507768Y-67564838D01*
X115507768Y-67564838D02*
X115603006Y-67660076D01*
X115603006Y-67660076D02*
X115650625Y-67850552D01*
X115650625Y-67850552D02*
X115650625Y-68183885D01*
X115650625Y-68183885D02*
X115603006Y-68374361D01*
X115603006Y-68374361D02*
X115507768Y-68469600D01*
X115507768Y-68469600D02*
X115412530Y-68517219D01*
X115412530Y-68517219D02*
X115222054Y-68517219D01*
X115222054Y-68517219D02*
X115126816Y-68469600D01*
X115126816Y-68469600D02*
X115031578Y-68374361D01*
X115031578Y-68374361D02*
X114983959Y-68183885D01*
X114983959Y-68183885D02*
X114983959Y-67850552D01*
X114983959Y-67850552D02*
X115031578Y-67660076D01*
X115031578Y-67660076D02*
X115126816Y-67564838D01*
X115126816Y-67564838D02*
X115222054Y-67517219D01*
X116079197Y-68517219D02*
X116079197Y-67517219D01*
X116079197Y-67517219D02*
X116317292Y-67517219D01*
X116317292Y-67517219D02*
X116460149Y-67564838D01*
X116460149Y-67564838D02*
X116555387Y-67660076D01*
X116555387Y-67660076D02*
X116603006Y-67755314D01*
X116603006Y-67755314D02*
X116650625Y-67945790D01*
X116650625Y-67945790D02*
X116650625Y-68088647D01*
X116650625Y-68088647D02*
X116603006Y-68279123D01*
X116603006Y-68279123D02*
X116555387Y-68374361D01*
X116555387Y-68374361D02*
X116460149Y-68469600D01*
X116460149Y-68469600D02*
X116317292Y-68517219D01*
X116317292Y-68517219D02*
X116079197Y-68517219D01*
X117079197Y-67517219D02*
X117079197Y-68326742D01*
X117079197Y-68326742D02*
X117126816Y-68421980D01*
X117126816Y-68421980D02*
X117174435Y-68469600D01*
X117174435Y-68469600D02*
X117269673Y-68517219D01*
X117269673Y-68517219D02*
X117460149Y-68517219D01*
X117460149Y-68517219D02*
X117555387Y-68469600D01*
X117555387Y-68469600D02*
X117603006Y-68421980D01*
X117603006Y-68421980D02*
X117650625Y-68326742D01*
X117650625Y-68326742D02*
X117650625Y-67517219D01*
X118603006Y-68517219D02*
X118126816Y-68517219D01*
X118126816Y-68517219D02*
X118126816Y-67517219D01*
X118936340Y-67993409D02*
X119269673Y-67993409D01*
X119412530Y-68517219D02*
X118936340Y-68517219D01*
X118936340Y-68517219D02*
X118936340Y-67517219D01*
X118936340Y-67517219D02*
X119412530Y-67517219D01*
X120841102Y-68850552D02*
X120841102Y-67421980D01*
X122888721Y-68517219D02*
X122555388Y-68041028D01*
X122317293Y-68517219D02*
X122317293Y-67517219D01*
X122317293Y-67517219D02*
X122698245Y-67517219D01*
X122698245Y-67517219D02*
X122793483Y-67564838D01*
X122793483Y-67564838D02*
X122841102Y-67612457D01*
X122841102Y-67612457D02*
X122888721Y-67707695D01*
X122888721Y-67707695D02*
X122888721Y-67850552D01*
X122888721Y-67850552D02*
X122841102Y-67945790D01*
X122841102Y-67945790D02*
X122793483Y-67993409D01*
X122793483Y-67993409D02*
X122698245Y-68041028D01*
X122698245Y-68041028D02*
X122317293Y-68041028D01*
X123317293Y-67993409D02*
X123650626Y-67993409D01*
X123793483Y-68517219D02*
X123317293Y-68517219D01*
X123317293Y-68517219D02*
X123317293Y-67517219D01*
X123317293Y-67517219D02*
X123793483Y-67517219D01*
X124079198Y-67517219D02*
X124412531Y-68517219D01*
X124412531Y-68517219D02*
X124745864Y-67517219D01*
X125079198Y-68421980D02*
X125126817Y-68469600D01*
X125126817Y-68469600D02*
X125079198Y-68517219D01*
X125079198Y-68517219D02*
X125031579Y-68469600D01*
X125031579Y-68469600D02*
X125079198Y-68421980D01*
X125079198Y-68421980D02*
X125079198Y-68517219D01*
X125745864Y-67517219D02*
X125841102Y-67517219D01*
X125841102Y-67517219D02*
X125936340Y-67564838D01*
X125936340Y-67564838D02*
X125983959Y-67612457D01*
X125983959Y-67612457D02*
X126031578Y-67707695D01*
X126031578Y-67707695D02*
X126079197Y-67898171D01*
X126079197Y-67898171D02*
X126079197Y-68136266D01*
X126079197Y-68136266D02*
X126031578Y-68326742D01*
X126031578Y-68326742D02*
X125983959Y-68421980D01*
X125983959Y-68421980D02*
X125936340Y-68469600D01*
X125936340Y-68469600D02*
X125841102Y-68517219D01*
X125841102Y-68517219D02*
X125745864Y-68517219D01*
X125745864Y-68517219D02*
X125650626Y-68469600D01*
X125650626Y-68469600D02*
X125603007Y-68421980D01*
X125603007Y-68421980D02*
X125555388Y-68326742D01*
X125555388Y-68326742D02*
X125507769Y-68136266D01*
X125507769Y-68136266D02*
X125507769Y-67898171D01*
X125507769Y-67898171D02*
X125555388Y-67707695D01*
X125555388Y-67707695D02*
X125603007Y-67612457D01*
X125603007Y-67612457D02*
X125650626Y-67564838D01*
X125650626Y-67564838D02*
X125745864Y-67517219D01*
D11*
X103550000Y-87582700D02*
X103483333Y-87549366D01*
X103483333Y-87549366D02*
X103416667Y-87482700D01*
X103416667Y-87482700D02*
X103316667Y-87382700D01*
X103316667Y-87382700D02*
X103250000Y-87349366D01*
X103250000Y-87349366D02*
X103183333Y-87349366D01*
X103216667Y-87516033D02*
X103150000Y-87482700D01*
X103150000Y-87482700D02*
X103083333Y-87416033D01*
X103083333Y-87416033D02*
X103050000Y-87282700D01*
X103050000Y-87282700D02*
X103050000Y-87049366D01*
X103050000Y-87049366D02*
X103083333Y-86916033D01*
X103083333Y-86916033D02*
X103150000Y-86849366D01*
X103150000Y-86849366D02*
X103216667Y-86816033D01*
X103216667Y-86816033D02*
X103350000Y-86816033D01*
X103350000Y-86816033D02*
X103416667Y-86849366D01*
X103416667Y-86849366D02*
X103483333Y-86916033D01*
X103483333Y-86916033D02*
X103516667Y-87049366D01*
X103516667Y-87049366D02*
X103516667Y-87282700D01*
X103516667Y-87282700D02*
X103483333Y-87416033D01*
X103483333Y-87416033D02*
X103416667Y-87482700D01*
X103416667Y-87482700D02*
X103350000Y-87516033D01*
X103350000Y-87516033D02*
X103216667Y-87516033D01*
X103716666Y-86816033D02*
X104116666Y-86816033D01*
X103916666Y-87516033D02*
X103916666Y-86816033D01*
X104749999Y-87516033D02*
X104516666Y-87182700D01*
X104349999Y-87516033D02*
X104349999Y-86816033D01*
X104349999Y-86816033D02*
X104616666Y-86816033D01*
X104616666Y-86816033D02*
X104683333Y-86849366D01*
X104683333Y-86849366D02*
X104716666Y-86882700D01*
X104716666Y-86882700D02*
X104749999Y-86949366D01*
X104749999Y-86949366D02*
X104749999Y-87049366D01*
X104749999Y-87049366D02*
X104716666Y-87116033D01*
X104716666Y-87116033D02*
X104683333Y-87149366D01*
X104683333Y-87149366D02*
X104616666Y-87182700D01*
X104616666Y-87182700D02*
X104349999Y-87182700D01*
X105049999Y-87249366D02*
X105583333Y-87249366D01*
X106016666Y-87116033D02*
X105950000Y-87082700D01*
X105950000Y-87082700D02*
X105916666Y-87049366D01*
X105916666Y-87049366D02*
X105883333Y-86982700D01*
X105883333Y-86982700D02*
X105883333Y-86949366D01*
X105883333Y-86949366D02*
X105916666Y-86882700D01*
X105916666Y-86882700D02*
X105950000Y-86849366D01*
X105950000Y-86849366D02*
X106016666Y-86816033D01*
X106016666Y-86816033D02*
X106150000Y-86816033D01*
X106150000Y-86816033D02*
X106216666Y-86849366D01*
X106216666Y-86849366D02*
X106250000Y-86882700D01*
X106250000Y-86882700D02*
X106283333Y-86949366D01*
X106283333Y-86949366D02*
X106283333Y-86982700D01*
X106283333Y-86982700D02*
X106250000Y-87049366D01*
X106250000Y-87049366D02*
X106216666Y-87082700D01*
X106216666Y-87082700D02*
X106150000Y-87116033D01*
X106150000Y-87116033D02*
X106016666Y-87116033D01*
X106016666Y-87116033D02*
X105950000Y-87149366D01*
X105950000Y-87149366D02*
X105916666Y-87182700D01*
X105916666Y-87182700D02*
X105883333Y-87249366D01*
X105883333Y-87249366D02*
X105883333Y-87382700D01*
X105883333Y-87382700D02*
X105916666Y-87449366D01*
X105916666Y-87449366D02*
X105950000Y-87482700D01*
X105950000Y-87482700D02*
X106016666Y-87516033D01*
X106016666Y-87516033D02*
X106150000Y-87516033D01*
X106150000Y-87516033D02*
X106216666Y-87482700D01*
X106216666Y-87482700D02*
X106250000Y-87449366D01*
X106250000Y-87449366D02*
X106283333Y-87382700D01*
X106283333Y-87382700D02*
X106283333Y-87249366D01*
X106283333Y-87249366D02*
X106250000Y-87182700D01*
X106250000Y-87182700D02*
X106216666Y-87149366D01*
X106216666Y-87149366D02*
X106150000Y-87116033D01*
X106983333Y-87516033D02*
X106750000Y-87182700D01*
X106583333Y-87516033D02*
X106583333Y-86816033D01*
X106583333Y-86816033D02*
X106850000Y-86816033D01*
X106850000Y-86816033D02*
X106916667Y-86849366D01*
X106916667Y-86849366D02*
X106950000Y-86882700D01*
X106950000Y-86882700D02*
X106983333Y-86949366D01*
X106983333Y-86949366D02*
X106983333Y-87049366D01*
X106983333Y-87049366D02*
X106950000Y-87116033D01*
X106950000Y-87116033D02*
X106916667Y-87149366D01*
X106916667Y-87149366D02*
X106850000Y-87182700D01*
X106850000Y-87182700D02*
X106583333Y-87182700D01*
X107683333Y-87449366D02*
X107650000Y-87482700D01*
X107650000Y-87482700D02*
X107550000Y-87516033D01*
X107550000Y-87516033D02*
X107483333Y-87516033D01*
X107483333Y-87516033D02*
X107383333Y-87482700D01*
X107383333Y-87482700D02*
X107316667Y-87416033D01*
X107316667Y-87416033D02*
X107283333Y-87349366D01*
X107283333Y-87349366D02*
X107250000Y-87216033D01*
X107250000Y-87216033D02*
X107250000Y-87116033D01*
X107250000Y-87116033D02*
X107283333Y-86982700D01*
X107283333Y-86982700D02*
X107316667Y-86916033D01*
X107316667Y-86916033D02*
X107383333Y-86849366D01*
X107383333Y-86849366D02*
X107483333Y-86816033D01*
X107483333Y-86816033D02*
X107550000Y-86816033D01*
X107550000Y-86816033D02*
X107650000Y-86849366D01*
X107650000Y-86849366D02*
X107683333Y-86882700D01*
X108350000Y-87516033D02*
X107950000Y-87516033D01*
X108150000Y-87516033D02*
X108150000Y-86816033D01*
X108150000Y-86816033D02*
X108083333Y-86916033D01*
X108083333Y-86916033D02*
X108016667Y-86982700D01*
X108016667Y-86982700D02*
X107950000Y-87016033D01*
X66266667Y-74454819D02*
X66266667Y-73454819D01*
X66266667Y-73454819D02*
X66600000Y-74169104D01*
X66600000Y-74169104D02*
X66933333Y-73454819D01*
X66933333Y-73454819D02*
X66933333Y-74454819D01*
X67409524Y-74454819D02*
X67409524Y-73454819D01*
X67409524Y-73931009D02*
X67980952Y-73931009D01*
X67980952Y-74454819D02*
X67980952Y-73454819D01*
X68885714Y-73788152D02*
X68885714Y-74454819D01*
X68647619Y-73407200D02*
X68409524Y-74121485D01*
X68409524Y-74121485D02*
X69028571Y-74121485D01*
X95409730Y-100038866D02*
X95457349Y-99991247D01*
X95457349Y-99991247D02*
X95552587Y-99943628D01*
X95552587Y-99943628D02*
X95743063Y-100038866D01*
X95743063Y-100038866D02*
X95838301Y-99991247D01*
X95838301Y-99991247D02*
X95885920Y-99943628D01*
X96219254Y-99515057D02*
X96266873Y-99467438D01*
X96266873Y-99467438D02*
X96362111Y-99419819D01*
X96362111Y-99419819D02*
X96600206Y-99419819D01*
X96600206Y-99419819D02*
X96695444Y-99467438D01*
X96695444Y-99467438D02*
X96743063Y-99515057D01*
X96743063Y-99515057D02*
X96790682Y-99610295D01*
X96790682Y-99610295D02*
X96790682Y-99705533D01*
X96790682Y-99705533D02*
X96743063Y-99848390D01*
X96743063Y-99848390D02*
X96171635Y-100419819D01*
X96171635Y-100419819D02*
X96790682Y-100419819D01*
X97409730Y-99419819D02*
X97504968Y-99419819D01*
X97504968Y-99419819D02*
X97600206Y-99467438D01*
X97600206Y-99467438D02*
X97647825Y-99515057D01*
X97647825Y-99515057D02*
X97695444Y-99610295D01*
X97695444Y-99610295D02*
X97743063Y-99800771D01*
X97743063Y-99800771D02*
X97743063Y-100038866D01*
X97743063Y-100038866D02*
X97695444Y-100229342D01*
X97695444Y-100229342D02*
X97647825Y-100324580D01*
X97647825Y-100324580D02*
X97600206Y-100372200D01*
X97600206Y-100372200D02*
X97504968Y-100419819D01*
X97504968Y-100419819D02*
X97409730Y-100419819D01*
X97409730Y-100419819D02*
X97314492Y-100372200D01*
X97314492Y-100372200D02*
X97266873Y-100324580D01*
X97266873Y-100324580D02*
X97219254Y-100229342D01*
X97219254Y-100229342D02*
X97171635Y-100038866D01*
X97171635Y-100038866D02*
X97171635Y-99800771D01*
X97171635Y-99800771D02*
X97219254Y-99610295D01*
X97219254Y-99610295D02*
X97266873Y-99515057D01*
X97266873Y-99515057D02*
X97314492Y-99467438D01*
X97314492Y-99467438D02*
X97409730Y-99419819D01*
X98362111Y-99419819D02*
X98457349Y-99419819D01*
X98457349Y-99419819D02*
X98552587Y-99467438D01*
X98552587Y-99467438D02*
X98600206Y-99515057D01*
X98600206Y-99515057D02*
X98647825Y-99610295D01*
X98647825Y-99610295D02*
X98695444Y-99800771D01*
X98695444Y-99800771D02*
X98695444Y-100038866D01*
X98695444Y-100038866D02*
X98647825Y-100229342D01*
X98647825Y-100229342D02*
X98600206Y-100324580D01*
X98600206Y-100324580D02*
X98552587Y-100372200D01*
X98552587Y-100372200D02*
X98457349Y-100419819D01*
X98457349Y-100419819D02*
X98362111Y-100419819D01*
X98362111Y-100419819D02*
X98266873Y-100372200D01*
X98266873Y-100372200D02*
X98219254Y-100324580D01*
X98219254Y-100324580D02*
X98171635Y-100229342D01*
X98171635Y-100229342D02*
X98124016Y-100038866D01*
X98124016Y-100038866D02*
X98124016Y-99800771D01*
X98124016Y-99800771D02*
X98171635Y-99610295D01*
X98171635Y-99610295D02*
X98219254Y-99515057D01*
X98219254Y-99515057D02*
X98266873Y-99467438D01*
X98266873Y-99467438D02*
X98362111Y-99419819D01*
X99552587Y-99753152D02*
X99552587Y-100419819D01*
X99124016Y-99753152D02*
X99124016Y-100276961D01*
X99124016Y-100276961D02*
X99171635Y-100372200D01*
X99171635Y-100372200D02*
X99266873Y-100419819D01*
X99266873Y-100419819D02*
X99409730Y-100419819D01*
X99409730Y-100419819D02*
X99504968Y-100372200D01*
X99504968Y-100372200D02*
X99552587Y-100324580D01*
X100362111Y-99896009D02*
X100028778Y-99896009D01*
X100028778Y-100419819D02*
X100028778Y-99419819D01*
X100028778Y-99419819D02*
X100504968Y-99419819D01*
X100838302Y-99515057D02*
X100885921Y-99467438D01*
X100885921Y-99467438D02*
X100981159Y-99419819D01*
X100981159Y-99419819D02*
X101219254Y-99419819D01*
X101219254Y-99419819D02*
X101314492Y-99467438D01*
X101314492Y-99467438D02*
X101362111Y-99515057D01*
X101362111Y-99515057D02*
X101409730Y-99610295D01*
X101409730Y-99610295D02*
X101409730Y-99705533D01*
X101409730Y-99705533D02*
X101362111Y-99848390D01*
X101362111Y-99848390D02*
X100790683Y-100419819D01*
X100790683Y-100419819D02*
X101409730Y-100419819D01*
D12*
X146507143Y-112307419D02*
X147078571Y-112307419D01*
X146792857Y-113307419D02*
X146792857Y-112307419D01*
X147745238Y-112783609D02*
X147888095Y-112831228D01*
X147888095Y-112831228D02*
X147935714Y-112878847D01*
X147935714Y-112878847D02*
X147983333Y-112974085D01*
X147983333Y-112974085D02*
X147983333Y-113116942D01*
X147983333Y-113116942D02*
X147935714Y-113212180D01*
X147935714Y-113212180D02*
X147888095Y-113259800D01*
X147888095Y-113259800D02*
X147792857Y-113307419D01*
X147792857Y-113307419D02*
X147411905Y-113307419D01*
X147411905Y-113307419D02*
X147411905Y-112307419D01*
X147411905Y-112307419D02*
X147745238Y-112307419D01*
X147745238Y-112307419D02*
X147840476Y-112355038D01*
X147840476Y-112355038D02*
X147888095Y-112402657D01*
X147888095Y-112402657D02*
X147935714Y-112497895D01*
X147935714Y-112497895D02*
X147935714Y-112593133D01*
X147935714Y-112593133D02*
X147888095Y-112688371D01*
X147888095Y-112688371D02*
X147840476Y-112735990D01*
X147840476Y-112735990D02*
X147745238Y-112783609D01*
X147745238Y-112783609D02*
X147411905Y-112783609D01*
X148840476Y-112307419D02*
X148650000Y-112307419D01*
X148650000Y-112307419D02*
X148554762Y-112355038D01*
X148554762Y-112355038D02*
X148507143Y-112402657D01*
X148507143Y-112402657D02*
X148411905Y-112545514D01*
X148411905Y-112545514D02*
X148364286Y-112735990D01*
X148364286Y-112735990D02*
X148364286Y-113116942D01*
X148364286Y-113116942D02*
X148411905Y-113212180D01*
X148411905Y-113212180D02*
X148459524Y-113259800D01*
X148459524Y-113259800D02*
X148554762Y-113307419D01*
X148554762Y-113307419D02*
X148745238Y-113307419D01*
X148745238Y-113307419D02*
X148840476Y-113259800D01*
X148840476Y-113259800D02*
X148888095Y-113212180D01*
X148888095Y-113212180D02*
X148935714Y-113116942D01*
X148935714Y-113116942D02*
X148935714Y-112878847D01*
X148935714Y-112878847D02*
X148888095Y-112783609D01*
X148888095Y-112783609D02*
X148840476Y-112735990D01*
X148840476Y-112735990D02*
X148745238Y-112688371D01*
X148745238Y-112688371D02*
X148554762Y-112688371D01*
X148554762Y-112688371D02*
X148459524Y-112735990D01*
X148459524Y-112735990D02*
X148411905Y-112783609D01*
X148411905Y-112783609D02*
X148364286Y-112878847D01*
X149792857Y-112307419D02*
X149602381Y-112307419D01*
X149602381Y-112307419D02*
X149507143Y-112355038D01*
X149507143Y-112355038D02*
X149459524Y-112402657D01*
X149459524Y-112402657D02*
X149364286Y-112545514D01*
X149364286Y-112545514D02*
X149316667Y-112735990D01*
X149316667Y-112735990D02*
X149316667Y-113116942D01*
X149316667Y-113116942D02*
X149364286Y-113212180D01*
X149364286Y-113212180D02*
X149411905Y-113259800D01*
X149411905Y-113259800D02*
X149507143Y-113307419D01*
X149507143Y-113307419D02*
X149697619Y-113307419D01*
X149697619Y-113307419D02*
X149792857Y-113259800D01*
X149792857Y-113259800D02*
X149840476Y-113212180D01*
X149840476Y-113212180D02*
X149888095Y-113116942D01*
X149888095Y-113116942D02*
X149888095Y-112878847D01*
X149888095Y-112878847D02*
X149840476Y-112783609D01*
X149840476Y-112783609D02*
X149792857Y-112735990D01*
X149792857Y-112735990D02*
X149697619Y-112688371D01*
X149697619Y-112688371D02*
X149507143Y-112688371D01*
X149507143Y-112688371D02*
X149411905Y-112735990D01*
X149411905Y-112735990D02*
X149364286Y-112783609D01*
X149364286Y-112783609D02*
X149316667Y-112878847D01*
X150840476Y-113307419D02*
X150269048Y-113307419D01*
X150554762Y-113307419D02*
X150554762Y-112307419D01*
X150554762Y-112307419D02*
X150459524Y-112450276D01*
X150459524Y-112450276D02*
X150364286Y-112545514D01*
X150364286Y-112545514D02*
X150269048Y-112593133D01*
X151221429Y-112402657D02*
X151269048Y-112355038D01*
X151269048Y-112355038D02*
X151364286Y-112307419D01*
X151364286Y-112307419D02*
X151602381Y-112307419D01*
X151602381Y-112307419D02*
X151697619Y-112355038D01*
X151697619Y-112355038D02*
X151745238Y-112402657D01*
X151745238Y-112402657D02*
X151792857Y-112497895D01*
X151792857Y-112497895D02*
X151792857Y-112593133D01*
X151792857Y-112593133D02*
X151745238Y-112735990D01*
X151745238Y-112735990D02*
X151173810Y-113307419D01*
X151173810Y-113307419D02*
X151792857Y-113307419D01*
X152554762Y-112783609D02*
X152221429Y-112783609D01*
X152221429Y-113307419D02*
X152221429Y-112307419D01*
X152221429Y-112307419D02*
X152697619Y-112307419D01*
X153078572Y-113307419D02*
X153078572Y-112307419D01*
X153078572Y-112307419D02*
X153650000Y-113307419D01*
X153650000Y-113307419D02*
X153650000Y-112307419D01*
X154650000Y-112355038D02*
X154554762Y-112307419D01*
X154554762Y-112307419D02*
X154411905Y-112307419D01*
X154411905Y-112307419D02*
X154269048Y-112355038D01*
X154269048Y-112355038D02*
X154173810Y-112450276D01*
X154173810Y-112450276D02*
X154126191Y-112545514D01*
X154126191Y-112545514D02*
X154078572Y-112735990D01*
X154078572Y-112735990D02*
X154078572Y-112878847D01*
X154078572Y-112878847D02*
X154126191Y-113069323D01*
X154126191Y-113069323D02*
X154173810Y-113164561D01*
X154173810Y-113164561D02*
X154269048Y-113259800D01*
X154269048Y-113259800D02*
X154411905Y-113307419D01*
X154411905Y-113307419D02*
X154507143Y-113307419D01*
X154507143Y-113307419D02*
X154650000Y-113259800D01*
X154650000Y-113259800D02*
X154697619Y-113212180D01*
X154697619Y-113212180D02*
X154697619Y-112878847D01*
X154697619Y-112878847D02*
X154507143Y-112878847D01*
D11*
X143640476Y-85104819D02*
X143640476Y-84104819D01*
X143640476Y-84104819D02*
X143973809Y-84819104D01*
X143973809Y-84819104D02*
X144307142Y-84104819D01*
X144307142Y-84104819D02*
X144307142Y-85104819D01*
X145307142Y-85104819D02*
X144735714Y-85104819D01*
X145021428Y-85104819D02*
X145021428Y-84104819D01*
X145021428Y-84104819D02*
X144926190Y-84247676D01*
X144926190Y-84247676D02*
X144830952Y-84342914D01*
X144830952Y-84342914D02*
X144735714Y-84390533D01*
X96412381Y-87288866D02*
X96460000Y-87241247D01*
X96460000Y-87241247D02*
X96555238Y-87193628D01*
X96555238Y-87193628D02*
X96745714Y-87288866D01*
X96745714Y-87288866D02*
X96840952Y-87241247D01*
X96840952Y-87241247D02*
X96888571Y-87193628D01*
X97221905Y-86765057D02*
X97269524Y-86717438D01*
X97269524Y-86717438D02*
X97364762Y-86669819D01*
X97364762Y-86669819D02*
X97602857Y-86669819D01*
X97602857Y-86669819D02*
X97698095Y-86717438D01*
X97698095Y-86717438D02*
X97745714Y-86765057D01*
X97745714Y-86765057D02*
X97793333Y-86860295D01*
X97793333Y-86860295D02*
X97793333Y-86955533D01*
X97793333Y-86955533D02*
X97745714Y-87098390D01*
X97745714Y-87098390D02*
X97174286Y-87669819D01*
X97174286Y-87669819D02*
X97793333Y-87669819D01*
X98412381Y-86669819D02*
X98507619Y-86669819D01*
X98507619Y-86669819D02*
X98602857Y-86717438D01*
X98602857Y-86717438D02*
X98650476Y-86765057D01*
X98650476Y-86765057D02*
X98698095Y-86860295D01*
X98698095Y-86860295D02*
X98745714Y-87050771D01*
X98745714Y-87050771D02*
X98745714Y-87288866D01*
X98745714Y-87288866D02*
X98698095Y-87479342D01*
X98698095Y-87479342D02*
X98650476Y-87574580D01*
X98650476Y-87574580D02*
X98602857Y-87622200D01*
X98602857Y-87622200D02*
X98507619Y-87669819D01*
X98507619Y-87669819D02*
X98412381Y-87669819D01*
X98412381Y-87669819D02*
X98317143Y-87622200D01*
X98317143Y-87622200D02*
X98269524Y-87574580D01*
X98269524Y-87574580D02*
X98221905Y-87479342D01*
X98221905Y-87479342D02*
X98174286Y-87288866D01*
X98174286Y-87288866D02*
X98174286Y-87050771D01*
X98174286Y-87050771D02*
X98221905Y-86860295D01*
X98221905Y-86860295D02*
X98269524Y-86765057D01*
X98269524Y-86765057D02*
X98317143Y-86717438D01*
X98317143Y-86717438D02*
X98412381Y-86669819D01*
X99364762Y-86669819D02*
X99460000Y-86669819D01*
X99460000Y-86669819D02*
X99555238Y-86717438D01*
X99555238Y-86717438D02*
X99602857Y-86765057D01*
X99602857Y-86765057D02*
X99650476Y-86860295D01*
X99650476Y-86860295D02*
X99698095Y-87050771D01*
X99698095Y-87050771D02*
X99698095Y-87288866D01*
X99698095Y-87288866D02*
X99650476Y-87479342D01*
X99650476Y-87479342D02*
X99602857Y-87574580D01*
X99602857Y-87574580D02*
X99555238Y-87622200D01*
X99555238Y-87622200D02*
X99460000Y-87669819D01*
X99460000Y-87669819D02*
X99364762Y-87669819D01*
X99364762Y-87669819D02*
X99269524Y-87622200D01*
X99269524Y-87622200D02*
X99221905Y-87574580D01*
X99221905Y-87574580D02*
X99174286Y-87479342D01*
X99174286Y-87479342D02*
X99126667Y-87288866D01*
X99126667Y-87288866D02*
X99126667Y-87050771D01*
X99126667Y-87050771D02*
X99174286Y-86860295D01*
X99174286Y-86860295D02*
X99221905Y-86765057D01*
X99221905Y-86765057D02*
X99269524Y-86717438D01*
X99269524Y-86717438D02*
X99364762Y-86669819D01*
X100555238Y-87003152D02*
X100555238Y-87669819D01*
X100126667Y-87003152D02*
X100126667Y-87526961D01*
X100126667Y-87526961D02*
X100174286Y-87622200D01*
X100174286Y-87622200D02*
X100269524Y-87669819D01*
X100269524Y-87669819D02*
X100412381Y-87669819D01*
X100412381Y-87669819D02*
X100507619Y-87622200D01*
X100507619Y-87622200D02*
X100555238Y-87574580D01*
X101364762Y-87146009D02*
X101031429Y-87146009D01*
X101031429Y-87669819D02*
X101031429Y-86669819D01*
X101031429Y-86669819D02*
X101507619Y-86669819D01*
X102412381Y-87669819D02*
X101840953Y-87669819D01*
X102126667Y-87669819D02*
X102126667Y-86669819D01*
X102126667Y-86669819D02*
X102031429Y-86812676D01*
X102031429Y-86812676D02*
X101936191Y-86907914D01*
X101936191Y-86907914D02*
X101840953Y-86955533D01*
X122322143Y-118431009D02*
X122655476Y-118431009D01*
X122798333Y-118954819D02*
X122322143Y-118954819D01*
X122322143Y-118954819D02*
X122322143Y-117954819D01*
X122322143Y-117954819D02*
X122798333Y-117954819D01*
X123179286Y-118907200D02*
X123322143Y-118954819D01*
X123322143Y-118954819D02*
X123560238Y-118954819D01*
X123560238Y-118954819D02*
X123655476Y-118907200D01*
X123655476Y-118907200D02*
X123703095Y-118859580D01*
X123703095Y-118859580D02*
X123750714Y-118764342D01*
X123750714Y-118764342D02*
X123750714Y-118669104D01*
X123750714Y-118669104D02*
X123703095Y-118573866D01*
X123703095Y-118573866D02*
X123655476Y-118526247D01*
X123655476Y-118526247D02*
X123560238Y-118478628D01*
X123560238Y-118478628D02*
X123369762Y-118431009D01*
X123369762Y-118431009D02*
X123274524Y-118383390D01*
X123274524Y-118383390D02*
X123226905Y-118335771D01*
X123226905Y-118335771D02*
X123179286Y-118240533D01*
X123179286Y-118240533D02*
X123179286Y-118145295D01*
X123179286Y-118145295D02*
X123226905Y-118050057D01*
X123226905Y-118050057D02*
X123274524Y-118002438D01*
X123274524Y-118002438D02*
X123369762Y-117954819D01*
X123369762Y-117954819D02*
X123607857Y-117954819D01*
X123607857Y-117954819D02*
X123750714Y-118002438D01*
X124179286Y-118954819D02*
X124179286Y-117954819D01*
X124179286Y-117954819D02*
X124560238Y-117954819D01*
X124560238Y-117954819D02*
X124655476Y-118002438D01*
X124655476Y-118002438D02*
X124703095Y-118050057D01*
X124703095Y-118050057D02*
X124750714Y-118145295D01*
X124750714Y-118145295D02*
X124750714Y-118288152D01*
X124750714Y-118288152D02*
X124703095Y-118383390D01*
X124703095Y-118383390D02*
X124655476Y-118431009D01*
X124655476Y-118431009D02*
X124560238Y-118478628D01*
X124560238Y-118478628D02*
X124179286Y-118478628D01*
X125084048Y-117954819D02*
X125703095Y-117954819D01*
X125703095Y-117954819D02*
X125369762Y-118335771D01*
X125369762Y-118335771D02*
X125512619Y-118335771D01*
X125512619Y-118335771D02*
X125607857Y-118383390D01*
X125607857Y-118383390D02*
X125655476Y-118431009D01*
X125655476Y-118431009D02*
X125703095Y-118526247D01*
X125703095Y-118526247D02*
X125703095Y-118764342D01*
X125703095Y-118764342D02*
X125655476Y-118859580D01*
X125655476Y-118859580D02*
X125607857Y-118907200D01*
X125607857Y-118907200D02*
X125512619Y-118954819D01*
X125512619Y-118954819D02*
X125226905Y-118954819D01*
X125226905Y-118954819D02*
X125131667Y-118907200D01*
X125131667Y-118907200D02*
X125084048Y-118859580D01*
X126084048Y-118050057D02*
X126131667Y-118002438D01*
X126131667Y-118002438D02*
X126226905Y-117954819D01*
X126226905Y-117954819D02*
X126465000Y-117954819D01*
X126465000Y-117954819D02*
X126560238Y-118002438D01*
X126560238Y-118002438D02*
X126607857Y-118050057D01*
X126607857Y-118050057D02*
X126655476Y-118145295D01*
X126655476Y-118145295D02*
X126655476Y-118240533D01*
X126655476Y-118240533D02*
X126607857Y-118383390D01*
X126607857Y-118383390D02*
X126036429Y-118954819D01*
X126036429Y-118954819D02*
X126655476Y-118954819D01*
D12*
X78407142Y-72357419D02*
X77930952Y-72357419D01*
X77930952Y-72357419D02*
X77930952Y-71357419D01*
X78740476Y-72357419D02*
X78740476Y-71357419D01*
X78740476Y-71357419D02*
X79073809Y-72071704D01*
X79073809Y-72071704D02*
X79407142Y-71357419D01*
X79407142Y-71357419D02*
X79407142Y-72357419D01*
X79835714Y-71452657D02*
X79883333Y-71405038D01*
X79883333Y-71405038D02*
X79978571Y-71357419D01*
X79978571Y-71357419D02*
X80216666Y-71357419D01*
X80216666Y-71357419D02*
X80311904Y-71405038D01*
X80311904Y-71405038D02*
X80359523Y-71452657D01*
X80359523Y-71452657D02*
X80407142Y-71547895D01*
X80407142Y-71547895D02*
X80407142Y-71643133D01*
X80407142Y-71643133D02*
X80359523Y-71785990D01*
X80359523Y-71785990D02*
X79788095Y-72357419D01*
X79788095Y-72357419D02*
X80407142Y-72357419D01*
X81311904Y-71357419D02*
X80835714Y-71357419D01*
X80835714Y-71357419D02*
X80788095Y-71833609D01*
X80788095Y-71833609D02*
X80835714Y-71785990D01*
X80835714Y-71785990D02*
X80930952Y-71738371D01*
X80930952Y-71738371D02*
X81169047Y-71738371D01*
X81169047Y-71738371D02*
X81264285Y-71785990D01*
X81264285Y-71785990D02*
X81311904Y-71833609D01*
X81311904Y-71833609D02*
X81359523Y-71928847D01*
X81359523Y-71928847D02*
X81359523Y-72166942D01*
X81359523Y-72166942D02*
X81311904Y-72262180D01*
X81311904Y-72262180D02*
X81264285Y-72309800D01*
X81264285Y-72309800D02*
X81169047Y-72357419D01*
X81169047Y-72357419D02*
X80930952Y-72357419D01*
X80930952Y-72357419D02*
X80835714Y-72309800D01*
X80835714Y-72309800D02*
X80788095Y-72262180D01*
X81835714Y-72357419D02*
X82026190Y-72357419D01*
X82026190Y-72357419D02*
X82121428Y-72309800D01*
X82121428Y-72309800D02*
X82169047Y-72262180D01*
X82169047Y-72262180D02*
X82264285Y-72119323D01*
X82264285Y-72119323D02*
X82311904Y-71928847D01*
X82311904Y-71928847D02*
X82311904Y-71547895D01*
X82311904Y-71547895D02*
X82264285Y-71452657D01*
X82264285Y-71452657D02*
X82216666Y-71405038D01*
X82216666Y-71405038D02*
X82121428Y-71357419D01*
X82121428Y-71357419D02*
X81930952Y-71357419D01*
X81930952Y-71357419D02*
X81835714Y-71405038D01*
X81835714Y-71405038D02*
X81788095Y-71452657D01*
X81788095Y-71452657D02*
X81740476Y-71547895D01*
X81740476Y-71547895D02*
X81740476Y-71785990D01*
X81740476Y-71785990D02*
X81788095Y-71881228D01*
X81788095Y-71881228D02*
X81835714Y-71928847D01*
X81835714Y-71928847D02*
X81930952Y-71976466D01*
X81930952Y-71976466D02*
X82121428Y-71976466D01*
X82121428Y-71976466D02*
X82216666Y-71928847D01*
X82216666Y-71928847D02*
X82264285Y-71881228D01*
X82264285Y-71881228D02*
X82311904Y-71785990D01*
X83169047Y-71357419D02*
X82978571Y-71357419D01*
X82978571Y-71357419D02*
X82883333Y-71405038D01*
X82883333Y-71405038D02*
X82835714Y-71452657D01*
X82835714Y-71452657D02*
X82740476Y-71595514D01*
X82740476Y-71595514D02*
X82692857Y-71785990D01*
X82692857Y-71785990D02*
X82692857Y-72166942D01*
X82692857Y-72166942D02*
X82740476Y-72262180D01*
X82740476Y-72262180D02*
X82788095Y-72309800D01*
X82788095Y-72309800D02*
X82883333Y-72357419D01*
X82883333Y-72357419D02*
X83073809Y-72357419D01*
X83073809Y-72357419D02*
X83169047Y-72309800D01*
X83169047Y-72309800D02*
X83216666Y-72262180D01*
X83216666Y-72262180D02*
X83264285Y-72166942D01*
X83264285Y-72166942D02*
X83264285Y-71928847D01*
X83264285Y-71928847D02*
X83216666Y-71833609D01*
X83216666Y-71833609D02*
X83169047Y-71785990D01*
X83169047Y-71785990D02*
X83073809Y-71738371D01*
X83073809Y-71738371D02*
X82883333Y-71738371D01*
X82883333Y-71738371D02*
X82788095Y-71785990D01*
X82788095Y-71785990D02*
X82740476Y-71833609D01*
X82740476Y-71833609D02*
X82692857Y-71928847D01*
X83645238Y-72309800D02*
X83788095Y-72357419D01*
X83788095Y-72357419D02*
X84026190Y-72357419D01*
X84026190Y-72357419D02*
X84121428Y-72309800D01*
X84121428Y-72309800D02*
X84169047Y-72262180D01*
X84169047Y-72262180D02*
X84216666Y-72166942D01*
X84216666Y-72166942D02*
X84216666Y-72071704D01*
X84216666Y-72071704D02*
X84169047Y-71976466D01*
X84169047Y-71976466D02*
X84121428Y-71928847D01*
X84121428Y-71928847D02*
X84026190Y-71881228D01*
X84026190Y-71881228D02*
X83835714Y-71833609D01*
X83835714Y-71833609D02*
X83740476Y-71785990D01*
X83740476Y-71785990D02*
X83692857Y-71738371D01*
X83692857Y-71738371D02*
X83645238Y-71643133D01*
X83645238Y-71643133D02*
X83645238Y-71547895D01*
X83645238Y-71547895D02*
X83692857Y-71452657D01*
X83692857Y-71452657D02*
X83740476Y-71405038D01*
X83740476Y-71405038D02*
X83835714Y-71357419D01*
X83835714Y-71357419D02*
X84073809Y-71357419D01*
X84073809Y-71357419D02*
X84216666Y-71405038D01*
X73394360Y-96350038D02*
X72441979Y-96350038D01*
X72441979Y-96350038D02*
X72441979Y-94350038D01*
X74061027Y-96350038D02*
X74061027Y-94350038D01*
X74061027Y-94350038D02*
X74727694Y-95778609D01*
X74727694Y-95778609D02*
X75394360Y-94350038D01*
X75394360Y-94350038D02*
X75394360Y-96350038D01*
X76251503Y-94540514D02*
X76346741Y-94445276D01*
X76346741Y-94445276D02*
X76537217Y-94350038D01*
X76537217Y-94350038D02*
X77013408Y-94350038D01*
X77013408Y-94350038D02*
X77203884Y-94445276D01*
X77203884Y-94445276D02*
X77299122Y-94540514D01*
X77299122Y-94540514D02*
X77394360Y-94730990D01*
X77394360Y-94730990D02*
X77394360Y-94921466D01*
X77394360Y-94921466D02*
X77299122Y-95207180D01*
X77299122Y-95207180D02*
X76156265Y-96350038D01*
X76156265Y-96350038D02*
X77394360Y-96350038D01*
X79203884Y-94350038D02*
X78251503Y-94350038D01*
X78251503Y-94350038D02*
X78156265Y-95302419D01*
X78156265Y-95302419D02*
X78251503Y-95207180D01*
X78251503Y-95207180D02*
X78441979Y-95111942D01*
X78441979Y-95111942D02*
X78918170Y-95111942D01*
X78918170Y-95111942D02*
X79108646Y-95207180D01*
X79108646Y-95207180D02*
X79203884Y-95302419D01*
X79203884Y-95302419D02*
X79299122Y-95492895D01*
X79299122Y-95492895D02*
X79299122Y-95969085D01*
X79299122Y-95969085D02*
X79203884Y-96159561D01*
X79203884Y-96159561D02*
X79108646Y-96254800D01*
X79108646Y-96254800D02*
X78918170Y-96350038D01*
X78918170Y-96350038D02*
X78441979Y-96350038D01*
X78441979Y-96350038D02*
X78251503Y-96254800D01*
X78251503Y-96254800D02*
X78156265Y-96159561D01*
X80251503Y-96350038D02*
X80632455Y-96350038D01*
X80632455Y-96350038D02*
X80822932Y-96254800D01*
X80822932Y-96254800D02*
X80918170Y-96159561D01*
X80918170Y-96159561D02*
X81108646Y-95873847D01*
X81108646Y-95873847D02*
X81203884Y-95492895D01*
X81203884Y-95492895D02*
X81203884Y-94730990D01*
X81203884Y-94730990D02*
X81108646Y-94540514D01*
X81108646Y-94540514D02*
X81013408Y-94445276D01*
X81013408Y-94445276D02*
X80822932Y-94350038D01*
X80822932Y-94350038D02*
X80441979Y-94350038D01*
X80441979Y-94350038D02*
X80251503Y-94445276D01*
X80251503Y-94445276D02*
X80156265Y-94540514D01*
X80156265Y-94540514D02*
X80061027Y-94730990D01*
X80061027Y-94730990D02*
X80061027Y-95207180D01*
X80061027Y-95207180D02*
X80156265Y-95397657D01*
X80156265Y-95397657D02*
X80251503Y-95492895D01*
X80251503Y-95492895D02*
X80441979Y-95588133D01*
X80441979Y-95588133D02*
X80822932Y-95588133D01*
X80822932Y-95588133D02*
X81013408Y-95492895D01*
X81013408Y-95492895D02*
X81108646Y-95397657D01*
X81108646Y-95397657D02*
X81203884Y-95207180D01*
X82918170Y-94350038D02*
X82537217Y-94350038D01*
X82537217Y-94350038D02*
X82346741Y-94445276D01*
X82346741Y-94445276D02*
X82251503Y-94540514D01*
X82251503Y-94540514D02*
X82061027Y-94826228D01*
X82061027Y-94826228D02*
X81965789Y-95207180D01*
X81965789Y-95207180D02*
X81965789Y-95969085D01*
X81965789Y-95969085D02*
X82061027Y-96159561D01*
X82061027Y-96159561D02*
X82156265Y-96254800D01*
X82156265Y-96254800D02*
X82346741Y-96350038D01*
X82346741Y-96350038D02*
X82727694Y-96350038D01*
X82727694Y-96350038D02*
X82918170Y-96254800D01*
X82918170Y-96254800D02*
X83013408Y-96159561D01*
X83013408Y-96159561D02*
X83108646Y-95969085D01*
X83108646Y-95969085D02*
X83108646Y-95492895D01*
X83108646Y-95492895D02*
X83013408Y-95302419D01*
X83013408Y-95302419D02*
X82918170Y-95207180D01*
X82918170Y-95207180D02*
X82727694Y-95111942D01*
X82727694Y-95111942D02*
X82346741Y-95111942D01*
X82346741Y-95111942D02*
X82156265Y-95207180D01*
X82156265Y-95207180D02*
X82061027Y-95302419D01*
X82061027Y-95302419D02*
X81965789Y-95492895D01*
X83870551Y-96254800D02*
X84156265Y-96350038D01*
X84156265Y-96350038D02*
X84632456Y-96350038D01*
X84632456Y-96350038D02*
X84822932Y-96254800D01*
X84822932Y-96254800D02*
X84918170Y-96159561D01*
X84918170Y-96159561D02*
X85013408Y-95969085D01*
X85013408Y-95969085D02*
X85013408Y-95778609D01*
X85013408Y-95778609D02*
X84918170Y-95588133D01*
X84918170Y-95588133D02*
X84822932Y-95492895D01*
X84822932Y-95492895D02*
X84632456Y-95397657D01*
X84632456Y-95397657D02*
X84251503Y-95302419D01*
X84251503Y-95302419D02*
X84061027Y-95207180D01*
X84061027Y-95207180D02*
X83965789Y-95111942D01*
X83965789Y-95111942D02*
X83870551Y-94921466D01*
X83870551Y-94921466D02*
X83870551Y-94730990D01*
X83870551Y-94730990D02*
X83965789Y-94540514D01*
X83965789Y-94540514D02*
X84061027Y-94445276D01*
X84061027Y-94445276D02*
X84251503Y-94350038D01*
X84251503Y-94350038D02*
X84727694Y-94350038D01*
X84727694Y-94350038D02*
X85013408Y-94445276D01*
X85870551Y-95588133D02*
X87394361Y-95588133D01*
X89299122Y-94350038D02*
X88346741Y-94350038D01*
X88346741Y-94350038D02*
X88251503Y-95302419D01*
X88251503Y-95302419D02*
X88346741Y-95207180D01*
X88346741Y-95207180D02*
X88537217Y-95111942D01*
X88537217Y-95111942D02*
X89013408Y-95111942D01*
X89013408Y-95111942D02*
X89203884Y-95207180D01*
X89203884Y-95207180D02*
X89299122Y-95302419D01*
X89299122Y-95302419D02*
X89394360Y-95492895D01*
X89394360Y-95492895D02*
X89394360Y-95969085D01*
X89394360Y-95969085D02*
X89299122Y-96159561D01*
X89299122Y-96159561D02*
X89203884Y-96254800D01*
X89203884Y-96254800D02*
X89013408Y-96350038D01*
X89013408Y-96350038D02*
X88537217Y-96350038D01*
X88537217Y-96350038D02*
X88346741Y-96254800D01*
X88346741Y-96254800D02*
X88251503Y-96159561D01*
X89965789Y-94350038D02*
X90632455Y-96350038D01*
X90632455Y-96350038D02*
X91299122Y-94350038D01*
D11*
X101012381Y-82088866D02*
X101060000Y-82041247D01*
X101060000Y-82041247D02*
X101155238Y-81993628D01*
X101155238Y-81993628D02*
X101345714Y-82088866D01*
X101345714Y-82088866D02*
X101440952Y-82041247D01*
X101440952Y-82041247D02*
X101488571Y-81993628D01*
X102393333Y-82469819D02*
X101821905Y-82469819D01*
X102107619Y-82469819D02*
X102107619Y-81469819D01*
X102107619Y-81469819D02*
X102012381Y-81612676D01*
X102012381Y-81612676D02*
X101917143Y-81707914D01*
X101917143Y-81707914D02*
X101821905Y-81755533D01*
X103012381Y-81469819D02*
X103107619Y-81469819D01*
X103107619Y-81469819D02*
X103202857Y-81517438D01*
X103202857Y-81517438D02*
X103250476Y-81565057D01*
X103250476Y-81565057D02*
X103298095Y-81660295D01*
X103298095Y-81660295D02*
X103345714Y-81850771D01*
X103345714Y-81850771D02*
X103345714Y-82088866D01*
X103345714Y-82088866D02*
X103298095Y-82279342D01*
X103298095Y-82279342D02*
X103250476Y-82374580D01*
X103250476Y-82374580D02*
X103202857Y-82422200D01*
X103202857Y-82422200D02*
X103107619Y-82469819D01*
X103107619Y-82469819D02*
X103012381Y-82469819D01*
X103012381Y-82469819D02*
X102917143Y-82422200D01*
X102917143Y-82422200D02*
X102869524Y-82374580D01*
X102869524Y-82374580D02*
X102821905Y-82279342D01*
X102821905Y-82279342D02*
X102774286Y-82088866D01*
X102774286Y-82088866D02*
X102774286Y-81850771D01*
X102774286Y-81850771D02*
X102821905Y-81660295D01*
X102821905Y-81660295D02*
X102869524Y-81565057D01*
X102869524Y-81565057D02*
X102917143Y-81517438D01*
X102917143Y-81517438D02*
X103012381Y-81469819D01*
X103964762Y-81469819D02*
X104060000Y-81469819D01*
X104060000Y-81469819D02*
X104155238Y-81517438D01*
X104155238Y-81517438D02*
X104202857Y-81565057D01*
X104202857Y-81565057D02*
X104250476Y-81660295D01*
X104250476Y-81660295D02*
X104298095Y-81850771D01*
X104298095Y-81850771D02*
X104298095Y-82088866D01*
X104298095Y-82088866D02*
X104250476Y-82279342D01*
X104250476Y-82279342D02*
X104202857Y-82374580D01*
X104202857Y-82374580D02*
X104155238Y-82422200D01*
X104155238Y-82422200D02*
X104060000Y-82469819D01*
X104060000Y-82469819D02*
X103964762Y-82469819D01*
X103964762Y-82469819D02*
X103869524Y-82422200D01*
X103869524Y-82422200D02*
X103821905Y-82374580D01*
X103821905Y-82374580D02*
X103774286Y-82279342D01*
X103774286Y-82279342D02*
X103726667Y-82088866D01*
X103726667Y-82088866D02*
X103726667Y-81850771D01*
X103726667Y-81850771D02*
X103774286Y-81660295D01*
X103774286Y-81660295D02*
X103821905Y-81565057D01*
X103821905Y-81565057D02*
X103869524Y-81517438D01*
X103869524Y-81517438D02*
X103964762Y-81469819D01*
X104726667Y-81803152D02*
X104726667Y-82469819D01*
X104726667Y-81898390D02*
X104774286Y-81850771D01*
X104774286Y-81850771D02*
X104869524Y-81803152D01*
X104869524Y-81803152D02*
X105012381Y-81803152D01*
X105012381Y-81803152D02*
X105107619Y-81850771D01*
X105107619Y-81850771D02*
X105155238Y-81946009D01*
X105155238Y-81946009D02*
X105155238Y-82469819D01*
X105964762Y-81946009D02*
X105631429Y-81946009D01*
X105631429Y-82469819D02*
X105631429Y-81469819D01*
X105631429Y-81469819D02*
X106107619Y-81469819D01*
X107012381Y-82469819D02*
X106440953Y-82469819D01*
X106726667Y-82469819D02*
X106726667Y-81469819D01*
X106726667Y-81469819D02*
X106631429Y-81612676D01*
X106631429Y-81612676D02*
X106536191Y-81707914D01*
X106536191Y-81707914D02*
X106440953Y-81755533D01*
X158116667Y-74554819D02*
X158116667Y-73554819D01*
X158116667Y-73554819D02*
X158450000Y-74269104D01*
X158450000Y-74269104D02*
X158783333Y-73554819D01*
X158783333Y-73554819D02*
X158783333Y-74554819D01*
X159259524Y-74554819D02*
X159259524Y-73554819D01*
X159259524Y-74031009D02*
X159830952Y-74031009D01*
X159830952Y-74554819D02*
X159830952Y-73554819D01*
X160830952Y-74554819D02*
X160259524Y-74554819D01*
X160545238Y-74554819D02*
X160545238Y-73554819D01*
X160545238Y-73554819D02*
X160450000Y-73697676D01*
X160450000Y-73697676D02*
X160354762Y-73792914D01*
X160354762Y-73792914D02*
X160259524Y-73840533D01*
X157816667Y-125579819D02*
X157816667Y-124579819D01*
X157816667Y-124579819D02*
X158150000Y-125294104D01*
X158150000Y-125294104D02*
X158483333Y-124579819D01*
X158483333Y-124579819D02*
X158483333Y-125579819D01*
X158959524Y-125579819D02*
X158959524Y-124579819D01*
X158959524Y-125056009D02*
X159530952Y-125056009D01*
X159530952Y-125579819D02*
X159530952Y-124579819D01*
X159959524Y-124675057D02*
X160007143Y-124627438D01*
X160007143Y-124627438D02*
X160102381Y-124579819D01*
X160102381Y-124579819D02*
X160340476Y-124579819D01*
X160340476Y-124579819D02*
X160435714Y-124627438D01*
X160435714Y-124627438D02*
X160483333Y-124675057D01*
X160483333Y-124675057D02*
X160530952Y-124770295D01*
X160530952Y-124770295D02*
X160530952Y-124865533D01*
X160530952Y-124865533D02*
X160483333Y-125008390D01*
X160483333Y-125008390D02*
X159911905Y-125579819D01*
X159911905Y-125579819D02*
X160530952Y-125579819D01*
X66416667Y-125654819D02*
X66416667Y-124654819D01*
X66416667Y-124654819D02*
X66750000Y-125369104D01*
X66750000Y-125369104D02*
X67083333Y-124654819D01*
X67083333Y-124654819D02*
X67083333Y-125654819D01*
X67559524Y-125654819D02*
X67559524Y-124654819D01*
X67559524Y-125131009D02*
X68130952Y-125131009D01*
X68130952Y-125654819D02*
X68130952Y-124654819D01*
X68511905Y-124654819D02*
X69130952Y-124654819D01*
X69130952Y-124654819D02*
X68797619Y-125035771D01*
X68797619Y-125035771D02*
X68940476Y-125035771D01*
X68940476Y-125035771D02*
X69035714Y-125083390D01*
X69035714Y-125083390D02*
X69083333Y-125131009D01*
X69083333Y-125131009D02*
X69130952Y-125226247D01*
X69130952Y-125226247D02*
X69130952Y-125464342D01*
X69130952Y-125464342D02*
X69083333Y-125559580D01*
X69083333Y-125559580D02*
X69035714Y-125607200D01*
X69035714Y-125607200D02*
X68940476Y-125654819D01*
X68940476Y-125654819D02*
X68654762Y-125654819D01*
X68654762Y-125654819D02*
X68559524Y-125607200D01*
X68559524Y-125607200D02*
X68511905Y-125559580D01*
X157590476Y-85104819D02*
X157590476Y-84104819D01*
X157590476Y-84104819D02*
X157923809Y-84819104D01*
X157923809Y-84819104D02*
X158257142Y-84104819D01*
X158257142Y-84104819D02*
X158257142Y-85104819D01*
X158685714Y-84200057D02*
X158733333Y-84152438D01*
X158733333Y-84152438D02*
X158828571Y-84104819D01*
X158828571Y-84104819D02*
X159066666Y-84104819D01*
X159066666Y-84104819D02*
X159161904Y-84152438D01*
X159161904Y-84152438D02*
X159209523Y-84200057D01*
X159209523Y-84200057D02*
X159257142Y-84295295D01*
X159257142Y-84295295D02*
X159257142Y-84390533D01*
X159257142Y-84390533D02*
X159209523Y-84533390D01*
X159209523Y-84533390D02*
X158638095Y-85104819D01*
X158638095Y-85104819D02*
X159257142Y-85104819D01*
X98974285Y-112446009D02*
X99117142Y-112493628D01*
X99117142Y-112493628D02*
X99164761Y-112541247D01*
X99164761Y-112541247D02*
X99212380Y-112636485D01*
X99212380Y-112636485D02*
X99212380Y-112779342D01*
X99212380Y-112779342D02*
X99164761Y-112874580D01*
X99164761Y-112874580D02*
X99117142Y-112922200D01*
X99117142Y-112922200D02*
X99021904Y-112969819D01*
X99021904Y-112969819D02*
X98640952Y-112969819D01*
X98640952Y-112969819D02*
X98640952Y-111969819D01*
X98640952Y-111969819D02*
X98974285Y-111969819D01*
X98974285Y-111969819D02*
X99069523Y-112017438D01*
X99069523Y-112017438D02*
X99117142Y-112065057D01*
X99117142Y-112065057D02*
X99164761Y-112160295D01*
X99164761Y-112160295D02*
X99164761Y-112255533D01*
X99164761Y-112255533D02*
X99117142Y-112350771D01*
X99117142Y-112350771D02*
X99069523Y-112398390D01*
X99069523Y-112398390D02*
X98974285Y-112446009D01*
X98974285Y-112446009D02*
X98640952Y-112446009D01*
X99498095Y-111969819D02*
X100069523Y-111969819D01*
X99783809Y-112969819D02*
X99783809Y-111969819D01*
X100355238Y-112065057D02*
X100402857Y-112017438D01*
X100402857Y-112017438D02*
X100498095Y-111969819D01*
X100498095Y-111969819D02*
X100736190Y-111969819D01*
X100736190Y-111969819D02*
X100831428Y-112017438D01*
X100831428Y-112017438D02*
X100879047Y-112065057D01*
X100879047Y-112065057D02*
X100926666Y-112160295D01*
X100926666Y-112160295D02*
X100926666Y-112255533D01*
X100926666Y-112255533D02*
X100879047Y-112398390D01*
X100879047Y-112398390D02*
X100307619Y-112969819D01*
X100307619Y-112969819D02*
X100926666Y-112969819D01*
D13*
X103970000Y-90910000D02*
X103970000Y-116370000D01*
X103970000Y-90910000D02*
X106630000Y-90910000D01*
X103970000Y-116370000D02*
X106630000Y-116370000D01*
X105300000Y-88310000D02*
X106630000Y-88310000D01*
X106630000Y-88310000D02*
X106630000Y-89640000D01*
X106630000Y-90910000D02*
X106630000Y-116370000D01*
X94047651Y-102900000D02*
X94847651Y-102900000D01*
X94447651Y-102500000D02*
X94447651Y-103300000D01*
X98457349Y-101135000D02*
X98457349Y-109295000D01*
X98497349Y-101135000D02*
X98497349Y-109295000D01*
X98537349Y-101135000D02*
X98537349Y-109295000D01*
X98577349Y-101136000D02*
X98577349Y-109294000D01*
X98617349Y-101138000D02*
X98617349Y-109292000D01*
X98657349Y-101139000D02*
X98657349Y-109291000D01*
X98697349Y-101141000D02*
X98697349Y-109289000D01*
X98737349Y-101144000D02*
X98737349Y-109286000D01*
X98777349Y-101147000D02*
X98777349Y-109283000D01*
X98817349Y-101150000D02*
X98817349Y-109280000D01*
X98857349Y-101154000D02*
X98857349Y-109276000D01*
X98897349Y-101158000D02*
X98897349Y-109272000D01*
X98937349Y-101163000D02*
X98937349Y-109267000D01*
X98977349Y-101167000D02*
X98977349Y-109263000D01*
X99017349Y-101173000D02*
X99017349Y-109257000D01*
X99057349Y-101178000D02*
X99057349Y-109252000D01*
X99097349Y-101185000D02*
X99097349Y-109245000D01*
X99137349Y-101191000D02*
X99137349Y-109239000D01*
X99178349Y-101198000D02*
X99178349Y-109232000D01*
X99218349Y-101205000D02*
X99218349Y-109225000D01*
X99258349Y-101213000D02*
X99258349Y-109217000D01*
X99298349Y-101221000D02*
X99298349Y-109209000D01*
X99338349Y-101230000D02*
X99338349Y-109200000D01*
X99378349Y-101239000D02*
X99378349Y-109191000D01*
X99418349Y-101248000D02*
X99418349Y-109182000D01*
X99458349Y-101258000D02*
X99458349Y-109172000D01*
X99498349Y-101268000D02*
X99498349Y-109162000D01*
X99538349Y-101279000D02*
X99538349Y-109151000D01*
X99578349Y-101290000D02*
X99578349Y-109140000D01*
X99618349Y-101301000D02*
X99618349Y-109129000D01*
X99658349Y-101313000D02*
X99658349Y-109117000D01*
X99698349Y-101326000D02*
X99698349Y-109104000D01*
X99738349Y-101338000D02*
X99738349Y-109092000D01*
X99778349Y-101352000D02*
X99778349Y-109078000D01*
X99818349Y-101365000D02*
X99818349Y-109065000D01*
X99858349Y-101380000D02*
X99858349Y-109050000D01*
X99898349Y-101394000D02*
X99898349Y-109036000D01*
X99938349Y-101410000D02*
X99938349Y-104175000D01*
X99938349Y-106255000D02*
X99938349Y-109020000D01*
X99978349Y-101425000D02*
X99978349Y-104175000D01*
X99978349Y-106255000D02*
X99978349Y-109005000D01*
X100018349Y-101441000D02*
X100018349Y-104175000D01*
X100018349Y-106255000D02*
X100018349Y-108989000D01*
X100058349Y-101458000D02*
X100058349Y-104175000D01*
X100058349Y-106255000D02*
X100058349Y-108972000D01*
X100098349Y-101475000D02*
X100098349Y-104175000D01*
X100098349Y-106255000D02*
X100098349Y-108955000D01*
X100138349Y-101493000D02*
X100138349Y-104175000D01*
X100138349Y-106255000D02*
X100138349Y-108937000D01*
X100178349Y-101511000D02*
X100178349Y-104175000D01*
X100178349Y-106255000D02*
X100178349Y-108919000D01*
X100218349Y-101529000D02*
X100218349Y-104175000D01*
X100218349Y-106255000D02*
X100218349Y-108901000D01*
X100258349Y-101549000D02*
X100258349Y-104175000D01*
X100258349Y-106255000D02*
X100258349Y-108881000D01*
X100298349Y-101568000D02*
X100298349Y-104175000D01*
X100298349Y-106255000D02*
X100298349Y-108862000D01*
X100338349Y-101588000D02*
X100338349Y-104175000D01*
X100338349Y-106255000D02*
X100338349Y-108842000D01*
X100378349Y-101609000D02*
X100378349Y-104175000D01*
X100378349Y-106255000D02*
X100378349Y-108821000D01*
X100418349Y-101631000D02*
X100418349Y-104175000D01*
X100418349Y-106255000D02*
X100418349Y-108799000D01*
X100458349Y-101653000D02*
X100458349Y-104175000D01*
X100458349Y-106255000D02*
X100458349Y-108777000D01*
X100498349Y-101675000D02*
X100498349Y-104175000D01*
X100498349Y-106255000D02*
X100498349Y-108755000D01*
X100538349Y-101698000D02*
X100538349Y-104175000D01*
X100538349Y-106255000D02*
X100538349Y-108732000D01*
X100578349Y-101722000D02*
X100578349Y-104175000D01*
X100578349Y-106255000D02*
X100578349Y-108708000D01*
X100618349Y-101746000D02*
X100618349Y-104175000D01*
X100618349Y-106255000D02*
X100618349Y-108684000D01*
X100658349Y-101771000D02*
X100658349Y-104175000D01*
X100658349Y-106255000D02*
X100658349Y-108659000D01*
X100698349Y-101797000D02*
X100698349Y-104175000D01*
X100698349Y-106255000D02*
X100698349Y-108633000D01*
X100738349Y-101823000D02*
X100738349Y-104175000D01*
X100738349Y-106255000D02*
X100738349Y-108607000D01*
X100778349Y-101850000D02*
X100778349Y-104175000D01*
X100778349Y-106255000D02*
X100778349Y-108580000D01*
X100818349Y-101877000D02*
X100818349Y-104175000D01*
X100818349Y-106255000D02*
X100818349Y-108553000D01*
X100858349Y-101906000D02*
X100858349Y-104175000D01*
X100858349Y-106255000D02*
X100858349Y-108524000D01*
X100898349Y-101935000D02*
X100898349Y-104175000D01*
X100898349Y-106255000D02*
X100898349Y-108495000D01*
X100938349Y-101965000D02*
X100938349Y-104175000D01*
X100938349Y-106255000D02*
X100938349Y-108465000D01*
X100978349Y-101995000D02*
X100978349Y-104175000D01*
X100978349Y-106255000D02*
X100978349Y-108435000D01*
X101018349Y-102026000D02*
X101018349Y-104175000D01*
X101018349Y-106255000D02*
X101018349Y-108404000D01*
X101058349Y-102059000D02*
X101058349Y-104175000D01*
X101058349Y-106255000D02*
X101058349Y-108371000D01*
X101098349Y-102091000D02*
X101098349Y-104175000D01*
X101098349Y-106255000D02*
X101098349Y-108339000D01*
X101138349Y-102125000D02*
X101138349Y-104175000D01*
X101138349Y-106255000D02*
X101138349Y-108305000D01*
X101178349Y-102160000D02*
X101178349Y-104175000D01*
X101178349Y-106255000D02*
X101178349Y-108270000D01*
X101218349Y-102196000D02*
X101218349Y-104175000D01*
X101218349Y-106255000D02*
X101218349Y-108234000D01*
X101258349Y-102232000D02*
X101258349Y-104175000D01*
X101258349Y-106255000D02*
X101258349Y-108198000D01*
X101298349Y-102270000D02*
X101298349Y-104175000D01*
X101298349Y-106255000D02*
X101298349Y-108160000D01*
X101338349Y-102308000D02*
X101338349Y-104175000D01*
X101338349Y-106255000D02*
X101338349Y-108122000D01*
X101378349Y-102348000D02*
X101378349Y-104175000D01*
X101378349Y-106255000D02*
X101378349Y-108082000D01*
X101418349Y-102389000D02*
X101418349Y-104175000D01*
X101418349Y-106255000D02*
X101418349Y-108041000D01*
X101458349Y-102431000D02*
X101458349Y-104175000D01*
X101458349Y-106255000D02*
X101458349Y-107999000D01*
X101498349Y-102474000D02*
X101498349Y-104175000D01*
X101498349Y-106255000D02*
X101498349Y-107956000D01*
X101538349Y-102518000D02*
X101538349Y-104175000D01*
X101538349Y-106255000D02*
X101538349Y-107912000D01*
X101578349Y-102564000D02*
X101578349Y-104175000D01*
X101578349Y-106255000D02*
X101578349Y-107866000D01*
X101618349Y-102611000D02*
X101618349Y-104175000D01*
X101618349Y-106255000D02*
X101618349Y-107819000D01*
X101658349Y-102659000D02*
X101658349Y-104175000D01*
X101658349Y-106255000D02*
X101658349Y-107771000D01*
X101698349Y-102710000D02*
X101698349Y-104175000D01*
X101698349Y-106255000D02*
X101698349Y-107720000D01*
X101738349Y-102761000D02*
X101738349Y-104175000D01*
X101738349Y-106255000D02*
X101738349Y-107669000D01*
X101778349Y-102815000D02*
X101778349Y-104175000D01*
X101778349Y-106255000D02*
X101778349Y-107615000D01*
X101818349Y-102870000D02*
X101818349Y-104175000D01*
X101818349Y-106255000D02*
X101818349Y-107560000D01*
X101858349Y-102928000D02*
X101858349Y-104175000D01*
X101858349Y-106255000D02*
X101858349Y-107502000D01*
X101898349Y-102987000D02*
X101898349Y-104175000D01*
X101898349Y-106255000D02*
X101898349Y-107443000D01*
X101938349Y-103049000D02*
X101938349Y-104175000D01*
X101938349Y-106255000D02*
X101938349Y-107381000D01*
X101978349Y-103113000D02*
X101978349Y-104175000D01*
X101978349Y-106255000D02*
X101978349Y-107317000D01*
X102018349Y-103181000D02*
X102018349Y-107249000D01*
X102058349Y-103251000D02*
X102058349Y-107179000D01*
X102098349Y-103325000D02*
X102098349Y-107105000D01*
X102138349Y-103402000D02*
X102138349Y-107028000D01*
X102178349Y-103484000D02*
X102178349Y-106946000D01*
X102218349Y-103570000D02*
X102218349Y-106860000D01*
X102258349Y-103663000D02*
X102258349Y-106767000D01*
X102298349Y-103762000D02*
X102298349Y-106668000D01*
X102338349Y-103869000D02*
X102338349Y-106561000D01*
X102378349Y-103986000D02*
X102378349Y-106444000D01*
X102418349Y-104117000D02*
X102418349Y-106313000D01*
X102458349Y-104267000D02*
X102458349Y-106163000D01*
X102498349Y-104447000D02*
X102498349Y-105983000D01*
X102538349Y-104682000D02*
X102538349Y-105748000D01*
X102577349Y-105215000D02*
G75*
G03*
X102577349Y-105215000I-4120000J0D01*
G01*
D12*
X161340000Y-111980000D02*
X141340000Y-111980000D01*
X141340000Y-111980000D02*
X141340000Y-89460000D01*
X141340000Y-89460000D02*
X161340000Y-89460000D01*
X161340000Y-89460000D02*
X161340000Y-111980000D01*
X153780000Y-107100000D02*
X148740000Y-107100000D01*
X148740000Y-107100000D02*
X148740000Y-109620000D01*
X148740000Y-109620000D02*
X153780000Y-109620000D01*
X153780000Y-109620000D02*
X153780000Y-107100000D01*
X153780000Y-97020000D02*
X148740000Y-97020000D01*
X148740000Y-97020000D02*
X148740000Y-104580000D01*
X148740000Y-104580000D02*
X153780000Y-104580000D01*
X153780000Y-104580000D02*
X153780000Y-97020000D01*
D13*
X144430000Y-88430000D02*
X147030000Y-88430000D01*
X144430000Y-88430000D02*
X144430000Y-85770000D01*
X147030000Y-88430000D02*
X147030000Y-85770000D01*
X141830000Y-87100000D02*
X141830000Y-85770000D01*
X141830000Y-85770000D02*
X143160000Y-85770000D01*
X144430000Y-85770000D02*
X147030000Y-85770000D01*
X93950302Y-90100000D02*
X94750302Y-90100000D01*
X94350302Y-89700000D02*
X94350302Y-90500000D01*
X98360000Y-88335000D02*
X98360000Y-96495000D01*
X98400000Y-88335000D02*
X98400000Y-96495000D01*
X98440000Y-88335000D02*
X98440000Y-96495000D01*
X98480000Y-88336000D02*
X98480000Y-96494000D01*
X98520000Y-88338000D02*
X98520000Y-96492000D01*
X98560000Y-88339000D02*
X98560000Y-96491000D01*
X98600000Y-88341000D02*
X98600000Y-96489000D01*
X98640000Y-88344000D02*
X98640000Y-96486000D01*
X98680000Y-88347000D02*
X98680000Y-96483000D01*
X98720000Y-88350000D02*
X98720000Y-96480000D01*
X98760000Y-88354000D02*
X98760000Y-96476000D01*
X98800000Y-88358000D02*
X98800000Y-96472000D01*
X98840000Y-88363000D02*
X98840000Y-96467000D01*
X98880000Y-88367000D02*
X98880000Y-96463000D01*
X98920000Y-88373000D02*
X98920000Y-96457000D01*
X98960000Y-88378000D02*
X98960000Y-96452000D01*
X99000000Y-88385000D02*
X99000000Y-96445000D01*
X99040000Y-88391000D02*
X99040000Y-96439000D01*
X99081000Y-88398000D02*
X99081000Y-96432000D01*
X99121000Y-88405000D02*
X99121000Y-96425000D01*
X99161000Y-88413000D02*
X99161000Y-96417000D01*
X99201000Y-88421000D02*
X99201000Y-96409000D01*
X99241000Y-88430000D02*
X99241000Y-96400000D01*
X99281000Y-88439000D02*
X99281000Y-96391000D01*
X99321000Y-88448000D02*
X99321000Y-96382000D01*
X99361000Y-88458000D02*
X99361000Y-96372000D01*
X99401000Y-88468000D02*
X99401000Y-96362000D01*
X99441000Y-88479000D02*
X99441000Y-96351000D01*
X99481000Y-88490000D02*
X99481000Y-96340000D01*
X99521000Y-88501000D02*
X99521000Y-96329000D01*
X99561000Y-88513000D02*
X99561000Y-96317000D01*
X99601000Y-88526000D02*
X99601000Y-96304000D01*
X99641000Y-88538000D02*
X99641000Y-96292000D01*
X99681000Y-88552000D02*
X99681000Y-96278000D01*
X99721000Y-88565000D02*
X99721000Y-96265000D01*
X99761000Y-88580000D02*
X99761000Y-96250000D01*
X99801000Y-88594000D02*
X99801000Y-96236000D01*
X99841000Y-88610000D02*
X99841000Y-91375000D01*
X99841000Y-93455000D02*
X99841000Y-96220000D01*
X99881000Y-88625000D02*
X99881000Y-91375000D01*
X99881000Y-93455000D02*
X99881000Y-96205000D01*
X99921000Y-88641000D02*
X99921000Y-91375000D01*
X99921000Y-93455000D02*
X99921000Y-96189000D01*
X99961000Y-88658000D02*
X99961000Y-91375000D01*
X99961000Y-93455000D02*
X99961000Y-96172000D01*
X100001000Y-88675000D02*
X100001000Y-91375000D01*
X100001000Y-93455000D02*
X100001000Y-96155000D01*
X100041000Y-88693000D02*
X100041000Y-91375000D01*
X100041000Y-93455000D02*
X100041000Y-96137000D01*
X100081000Y-88711000D02*
X100081000Y-91375000D01*
X100081000Y-93455000D02*
X100081000Y-96119000D01*
X100121000Y-88729000D02*
X100121000Y-91375000D01*
X100121000Y-93455000D02*
X100121000Y-96101000D01*
X100161000Y-88749000D02*
X100161000Y-91375000D01*
X100161000Y-93455000D02*
X100161000Y-96081000D01*
X100201000Y-88768000D02*
X100201000Y-91375000D01*
X100201000Y-93455000D02*
X100201000Y-96062000D01*
X100241000Y-88788000D02*
X100241000Y-91375000D01*
X100241000Y-93455000D02*
X100241000Y-96042000D01*
X100281000Y-88809000D02*
X100281000Y-91375000D01*
X100281000Y-93455000D02*
X100281000Y-96021000D01*
X100321000Y-88831000D02*
X100321000Y-91375000D01*
X100321000Y-93455000D02*
X100321000Y-95999000D01*
X100361000Y-88853000D02*
X100361000Y-91375000D01*
X100361000Y-93455000D02*
X100361000Y-95977000D01*
X100401000Y-88875000D02*
X100401000Y-91375000D01*
X100401000Y-93455000D02*
X100401000Y-95955000D01*
X100441000Y-88898000D02*
X100441000Y-91375000D01*
X100441000Y-93455000D02*
X100441000Y-95932000D01*
X100481000Y-88922000D02*
X100481000Y-91375000D01*
X100481000Y-93455000D02*
X100481000Y-95908000D01*
X100521000Y-88946000D02*
X100521000Y-91375000D01*
X100521000Y-93455000D02*
X100521000Y-95884000D01*
X100561000Y-88971000D02*
X100561000Y-91375000D01*
X100561000Y-93455000D02*
X100561000Y-95859000D01*
X100601000Y-88997000D02*
X100601000Y-91375000D01*
X100601000Y-93455000D02*
X100601000Y-95833000D01*
X100641000Y-89023000D02*
X100641000Y-91375000D01*
X100641000Y-93455000D02*
X100641000Y-95807000D01*
X100681000Y-89050000D02*
X100681000Y-91375000D01*
X100681000Y-93455000D02*
X100681000Y-95780000D01*
X100721000Y-89077000D02*
X100721000Y-91375000D01*
X100721000Y-93455000D02*
X100721000Y-95753000D01*
X100761000Y-89106000D02*
X100761000Y-91375000D01*
X100761000Y-93455000D02*
X100761000Y-95724000D01*
X100801000Y-89135000D02*
X100801000Y-91375000D01*
X100801000Y-93455000D02*
X100801000Y-95695000D01*
X100841000Y-89165000D02*
X100841000Y-91375000D01*
X100841000Y-93455000D02*
X100841000Y-95665000D01*
X100881000Y-89195000D02*
X100881000Y-91375000D01*
X100881000Y-93455000D02*
X100881000Y-95635000D01*
X100921000Y-89226000D02*
X100921000Y-91375000D01*
X100921000Y-93455000D02*
X100921000Y-95604000D01*
X100961000Y-89259000D02*
X100961000Y-91375000D01*
X100961000Y-93455000D02*
X100961000Y-95571000D01*
X101001000Y-89291000D02*
X101001000Y-91375000D01*
X101001000Y-93455000D02*
X101001000Y-95539000D01*
X101041000Y-89325000D02*
X101041000Y-91375000D01*
X101041000Y-93455000D02*
X101041000Y-95505000D01*
X101081000Y-89360000D02*
X101081000Y-91375000D01*
X101081000Y-93455000D02*
X101081000Y-95470000D01*
X101121000Y-89396000D02*
X101121000Y-91375000D01*
X101121000Y-93455000D02*
X101121000Y-95434000D01*
X101161000Y-89432000D02*
X101161000Y-91375000D01*
X101161000Y-93455000D02*
X101161000Y-95398000D01*
X101201000Y-89470000D02*
X101201000Y-91375000D01*
X101201000Y-93455000D02*
X101201000Y-95360000D01*
X101241000Y-89508000D02*
X101241000Y-91375000D01*
X101241000Y-93455000D02*
X101241000Y-95322000D01*
X101281000Y-89548000D02*
X101281000Y-91375000D01*
X101281000Y-93455000D02*
X101281000Y-95282000D01*
X101321000Y-89589000D02*
X101321000Y-91375000D01*
X101321000Y-93455000D02*
X101321000Y-95241000D01*
X101361000Y-89631000D02*
X101361000Y-91375000D01*
X101361000Y-93455000D02*
X101361000Y-95199000D01*
X101401000Y-89674000D02*
X101401000Y-91375000D01*
X101401000Y-93455000D02*
X101401000Y-95156000D01*
X101441000Y-89718000D02*
X101441000Y-91375000D01*
X101441000Y-93455000D02*
X101441000Y-95112000D01*
X101481000Y-89764000D02*
X101481000Y-91375000D01*
X101481000Y-93455000D02*
X101481000Y-95066000D01*
X101521000Y-89811000D02*
X101521000Y-91375000D01*
X101521000Y-93455000D02*
X101521000Y-95019000D01*
X101561000Y-89859000D02*
X101561000Y-91375000D01*
X101561000Y-93455000D02*
X101561000Y-94971000D01*
X101601000Y-89910000D02*
X101601000Y-91375000D01*
X101601000Y-93455000D02*
X101601000Y-94920000D01*
X101641000Y-89961000D02*
X101641000Y-91375000D01*
X101641000Y-93455000D02*
X101641000Y-94869000D01*
X101681000Y-90015000D02*
X101681000Y-91375000D01*
X101681000Y-93455000D02*
X101681000Y-94815000D01*
X101721000Y-90070000D02*
X101721000Y-91375000D01*
X101721000Y-93455000D02*
X101721000Y-94760000D01*
X101761000Y-90128000D02*
X101761000Y-91375000D01*
X101761000Y-93455000D02*
X101761000Y-94702000D01*
X101801000Y-90187000D02*
X101801000Y-91375000D01*
X101801000Y-93455000D02*
X101801000Y-94643000D01*
X101841000Y-90249000D02*
X101841000Y-91375000D01*
X101841000Y-93455000D02*
X101841000Y-94581000D01*
X101881000Y-90313000D02*
X101881000Y-91375000D01*
X101881000Y-93455000D02*
X101881000Y-94517000D01*
X101921000Y-90381000D02*
X101921000Y-94449000D01*
X101961000Y-90451000D02*
X101961000Y-94379000D01*
X102001000Y-90525000D02*
X102001000Y-94305000D01*
X102041000Y-90602000D02*
X102041000Y-94228000D01*
X102081000Y-90684000D02*
X102081000Y-94146000D01*
X102121000Y-90770000D02*
X102121000Y-94060000D01*
X102161000Y-90863000D02*
X102161000Y-93967000D01*
X102201000Y-90962000D02*
X102201000Y-93868000D01*
X102241000Y-91069000D02*
X102241000Y-93761000D01*
X102281000Y-91186000D02*
X102281000Y-93644000D01*
X102321000Y-91317000D02*
X102321000Y-93513000D01*
X102361000Y-91467000D02*
X102361000Y-93363000D01*
X102401000Y-91647000D02*
X102401000Y-93183000D01*
X102441000Y-91882000D02*
X102441000Y-92948000D01*
X102480000Y-92415000D02*
G75*
G03*
X102480000Y-92415000I-4120000J0D01*
G01*
D14*
X109350000Y-75650000D02*
X109355000Y-116490000D01*
X109355000Y-116490000D02*
X119915000Y-116490000D01*
X114870000Y-69450000D02*
X133950000Y-69450000D01*
X114870000Y-75650000D02*
X109350000Y-75650000D01*
X114870000Y-75650000D02*
X114870000Y-69450000D01*
X119915000Y-116490000D02*
X119915000Y-117390000D01*
X119915000Y-117390000D02*
X129015000Y-117390000D01*
X129015000Y-116490000D02*
X138905000Y-116490000D01*
X129015000Y-117390000D02*
X129015000Y-116490000D01*
X133950000Y-69450000D02*
X133950000Y-75650000D01*
X138900000Y-75650000D02*
X133950000Y-75650000D01*
X138905000Y-116490000D02*
X138900000Y-75650000D01*
D12*
X92870000Y-118650000D02*
X69250000Y-118650000D01*
X69250000Y-118650000D02*
X69250000Y-72780000D01*
X69250000Y-72780000D02*
X92870000Y-72780000D01*
X92870000Y-72780000D02*
X92870000Y-118650000D01*
D13*
X96290000Y-80495000D02*
X96290000Y-81120000D01*
X96290000Y-80495000D02*
X100330000Y-80495000D01*
X96290000Y-82710000D02*
X96290000Y-83335000D01*
X96290000Y-83335000D02*
X100330000Y-83335000D01*
X100330000Y-80495000D02*
X100330000Y-81120000D01*
X100330000Y-82710000D02*
X100330000Y-83335000D01*
X158230000Y-85770000D02*
X155630000Y-85770000D01*
X158230000Y-85770000D02*
X158230000Y-88430000D01*
X155630000Y-85770000D02*
X155630000Y-88430000D01*
X160830000Y-87100000D02*
X160830000Y-88430000D01*
X160830000Y-88430000D02*
X159500000Y-88430000D01*
X158230000Y-88430000D02*
X155630000Y-88430000D01*
X95455000Y-116345000D02*
X95455000Y-115015000D01*
X96785000Y-116345000D02*
X95455000Y-116345000D01*
X98055000Y-116345000D02*
X100655000Y-116345000D01*
X98055000Y-116345000D02*
X98055000Y-113685000D01*
X100655000Y-116345000D02*
X100655000Y-113685000D01*
X98055000Y-113685000D02*
X100655000Y-113685000D01*
%LPC*%
D15*
X105300000Y-89640000D03*
D16*
X105300000Y-92180000D03*
X105300000Y-94720000D03*
X105300000Y-97260000D03*
X105300000Y-99800000D03*
X105300000Y-102340000D03*
X105300000Y-104880000D03*
X105300000Y-107420000D03*
X105300000Y-109960000D03*
X105300000Y-112500000D03*
X105300000Y-115040000D03*
D17*
X65625000Y-70050000D03*
X66218109Y-68618109D03*
X66218109Y-71481891D03*
X67650000Y-68025000D03*
D18*
X67650000Y-70050000D03*
D17*
X67650000Y-72075000D03*
X69081891Y-68618109D03*
X69081891Y-71481891D03*
X69675000Y-70050000D03*
D19*
X95957349Y-105215000D03*
D20*
X100957349Y-105215000D03*
D21*
X158820000Y-102060000D03*
X158820000Y-91980000D03*
X158820000Y-99540000D03*
X158820000Y-97020000D03*
X158820000Y-104580000D03*
X158820000Y-94500000D03*
X143700000Y-94500000D03*
X143700000Y-97020000D03*
X143700000Y-99540000D03*
X143700000Y-91980000D03*
X143700000Y-102060000D03*
X158820000Y-107100000D03*
X143700000Y-104580000D03*
X143700000Y-107100000D03*
X143700000Y-109620000D03*
X158820000Y-109620000D03*
D15*
X143160000Y-87100000D03*
D16*
X145700000Y-87100000D03*
D19*
X95860000Y-92415000D03*
D20*
X100860000Y-92415000D03*
D22*
X136750000Y-112350000D03*
D23*
X111050000Y-77070000D03*
X111050000Y-79590000D03*
X111050000Y-82110000D03*
X111050000Y-84630000D03*
X111050000Y-87150000D03*
X111050000Y-89670000D03*
X111050000Y-92190000D03*
X111050000Y-94710000D03*
X111050000Y-97230000D03*
X111050000Y-99750000D03*
X111050000Y-102270000D03*
X111050000Y-104790000D03*
X111050000Y-109830000D03*
X111050000Y-107310000D03*
X111050000Y-112350000D03*
X136750000Y-107310000D03*
X136750000Y-104790000D03*
X136750000Y-102270000D03*
X136750000Y-94710000D03*
X136750000Y-92190000D03*
X136750000Y-89670000D03*
X136750000Y-109830000D03*
X136750000Y-87150000D03*
X136750000Y-99750000D03*
X136750000Y-97230000D03*
X136750000Y-79590000D03*
X136750000Y-77070000D03*
X136750000Y-82110000D03*
X136750000Y-84630000D03*
D21*
X90350000Y-116200000D03*
X72250000Y-116200000D03*
X90350000Y-75300000D03*
X72250000Y-75300000D03*
D20*
X97060000Y-81915000D03*
X99560000Y-81915000D03*
D17*
X157225000Y-70150000D03*
X157818109Y-68718109D03*
X157818109Y-71581891D03*
X159250000Y-68125000D03*
D18*
X159250000Y-70150000D03*
D17*
X159250000Y-72175000D03*
X160681891Y-68718109D03*
X160681891Y-71581891D03*
X161275000Y-70150000D03*
X156925000Y-121175000D03*
X157518109Y-119743109D03*
X157518109Y-122606891D03*
X158950000Y-119150000D03*
D18*
X158950000Y-121175000D03*
D17*
X158950000Y-123200000D03*
X160381891Y-119743109D03*
X160381891Y-122606891D03*
X160975000Y-121175000D03*
X65550000Y-121350000D03*
X66143109Y-119918109D03*
X66143109Y-122781891D03*
X67575000Y-119325000D03*
D18*
X67575000Y-121350000D03*
D17*
X67575000Y-123375000D03*
X69006891Y-119918109D03*
X69006891Y-122781891D03*
X69600000Y-121350000D03*
D15*
X159500000Y-87100000D03*
D16*
X156960000Y-87100000D03*
D15*
X96785000Y-115015000D03*
D16*
X99325000Y-115015000D03*
%LPD*%
M02*
