%TF.GenerationSoftware,KiCad,Pcbnew,7.0.7*%
%TF.CreationDate,2023-10-16T17:55:04+02:00*%
%TF.ProjectId,arduino-nano-radio-receiver,61726475-696e-46f2-9d6e-616e6f2d7261,0*%
%TF.SameCoordinates,Original*%
%TF.FileFunction,Soldermask,Top*%
%TF.FilePolarity,Negative*%
%FSLAX46Y46*%
G04 Gerber Fmt 4.6, Leading zero omitted, Abs format (unit mm)*
G04 Created by KiCad (PCBNEW 7.0.7) date 2023-10-16 17:55:04*
%MOMM*%
%LPD*%
G01*
G04 APERTURE LIST*
%ADD10R,1.600000X1.600000*%
%ADD11O,1.600000X1.600000*%
%ADD12C,3.200000*%
%ADD13R,1.200000X1.200000*%
%ADD14C,1.200000*%
%ADD15R,1.700000X1.700000*%
%ADD16O,1.700000X1.700000*%
%ADD17C,1.700000*%
G04 APERTURE END LIST*
D10*
%TO.C,A1*%
X97900000Y-81860000D03*
D11*
X97900000Y-79320000D03*
X97900000Y-76780000D03*
X97900000Y-74240000D03*
X97900000Y-71700000D03*
X97900000Y-69160000D03*
X97900000Y-66620000D03*
X97900000Y-64080000D03*
X97900000Y-61540000D03*
X97900000Y-59000000D03*
X97900000Y-56460000D03*
X97900000Y-53920000D03*
X97900000Y-51380000D03*
X97900000Y-48840000D03*
X97900000Y-46300000D03*
X82660000Y-46300000D03*
X82660000Y-48840000D03*
X82660000Y-51380000D03*
X82660000Y-53920000D03*
X82660000Y-56460000D03*
X82660000Y-59000000D03*
X82660000Y-61540000D03*
X82660000Y-64080000D03*
X82660000Y-66620000D03*
X82660000Y-69160000D03*
X82660000Y-71700000D03*
X82660000Y-74240000D03*
X82660000Y-76780000D03*
X82660000Y-79320000D03*
X82660000Y-81860000D03*
%TD*%
D12*
%TO.C,REF\u002A\u002A*%
X84364823Y-35964823D03*
%TD*%
%TO.C,REF\u002A\u002A*%
X112300000Y-36000000D03*
%TD*%
%TO.C,REF\u002A\u002A*%
X84100000Y-89500000D03*
%TD*%
D13*
%TO.C,C1*%
X108620000Y-79600000D03*
D14*
X107120000Y-79600000D03*
%TD*%
D15*
%TO.C,J1*%
X110800000Y-84050000D03*
%TD*%
D12*
%TO.C,REF\u002A\u002A*%
X112300000Y-89600000D03*
%TD*%
D15*
%TO.C,BT1*%
X104600000Y-84050000D03*
D16*
X107140000Y-84050000D03*
%TD*%
D13*
%TO.C,C2*%
X114000000Y-41650000D03*
D14*
X112500000Y-41650000D03*
%TD*%
D15*
%TO.C,U2*%
X113320000Y-45800000D03*
D17*
X113320000Y-48340000D03*
X110780000Y-45800000D03*
X110780000Y-48340000D03*
X108240000Y-45800000D03*
X108240000Y-48340000D03*
X105700000Y-45800000D03*
X105700000Y-48340000D03*
%TD*%
D15*
%TO.C,U1*%
X105470000Y-75400000D03*
D16*
X108010000Y-75400000D03*
X110550000Y-75400000D03*
%TD*%
M02*
