%TF.GenerationSoftware,KiCad,Pcbnew,7.0.7*%
%TF.CreationDate,2023-10-16T17:55:03+02:00*%
%TF.ProjectId,arduino-nano-radio-receiver,61726475-696e-46f2-9d6e-616e6f2d7261,0*%
%TF.SameCoordinates,Original*%
%TF.FileFunction,Copper,L1,Top*%
%TF.FilePolarity,Positive*%
%FSLAX46Y46*%
G04 Gerber Fmt 4.6, Leading zero omitted, Abs format (unit mm)*
G04 Created by KiCad (PCBNEW 7.0.7) date 2023-10-16 17:55:03*
%MOMM*%
%LPD*%
G01*
G04 APERTURE LIST*
%TA.AperFunction,ComponentPad*%
%ADD10R,1.600000X1.600000*%
%TD*%
%TA.AperFunction,ComponentPad*%
%ADD11O,1.600000X1.600000*%
%TD*%
%TA.AperFunction,ComponentPad*%
%ADD12R,1.200000X1.200000*%
%TD*%
%TA.AperFunction,ComponentPad*%
%ADD13C,1.200000*%
%TD*%
%TA.AperFunction,ComponentPad*%
%ADD14R,1.700000X1.700000*%
%TD*%
%TA.AperFunction,ComponentPad*%
%ADD15O,1.700000X1.700000*%
%TD*%
%TA.AperFunction,ComponentPad*%
%ADD16C,1.700000*%
%TD*%
%TA.AperFunction,ViaPad*%
%ADD17C,0.800000*%
%TD*%
%TA.AperFunction,Conductor*%
%ADD18C,0.250000*%
%TD*%
%TA.AperFunction,Conductor*%
%ADD19C,0.800000*%
%TD*%
%TA.AperFunction,Conductor*%
%ADD20C,0.400000*%
%TD*%
G04 APERTURE END LIST*
D10*
%TO.P,A1,1,D1/TX*%
%TO.N,unconnected-(A1-D1{slash}TX-Pad1)*%
X97900000Y-81860000D03*
D11*
%TO.P,A1,2,D0/RX*%
%TO.N,unconnected-(A1-D0{slash}RX-Pad2)*%
X97900000Y-79320000D03*
%TO.P,A1,3,~{RESET}*%
%TO.N,unconnected-(A1-~{RESET}-Pad3)*%
X97900000Y-76780000D03*
%TO.P,A1,4,GND*%
%TO.N,GND*%
X97900000Y-74240000D03*
%TO.P,A1,5,D2*%
%TO.N,Net-(A1-D2)*%
X97900000Y-71700000D03*
%TO.P,A1,6,D3*%
%TO.N,unconnected-(A1-D3-Pad6)*%
X97900000Y-69160000D03*
%TO.P,A1,7,D4*%
%TO.N,unconnected-(A1-D4-Pad7)*%
X97900000Y-66620000D03*
%TO.P,A1,8,D5*%
%TO.N,unconnected-(A1-D5-Pad8)*%
X97900000Y-64080000D03*
%TO.P,A1,9,D6*%
%TO.N,unconnected-(A1-D6-Pad9)*%
X97900000Y-61540000D03*
%TO.P,A1,10,D7*%
%TO.N,unconnected-(A1-D7-Pad10)*%
X97900000Y-59000000D03*
%TO.P,A1,11,D8*%
%TO.N,/IRQ*%
X97900000Y-56460000D03*
%TO.P,A1,12,D9*%
%TO.N,/CE*%
X97900000Y-53920000D03*
%TO.P,A1,13,D10*%
%TO.N,/CSN*%
X97900000Y-51380000D03*
%TO.P,A1,14,D11*%
%TO.N,/MOSI*%
X97900000Y-48840000D03*
%TO.P,A1,15,D12*%
%TO.N,/MISO*%
X97900000Y-46300000D03*
%TO.P,A1,16,D13*%
%TO.N,/SCK*%
X82660000Y-46300000D03*
%TO.P,A1,17,3V3*%
%TO.N,unconnected-(A1-3V3-Pad17)*%
X82660000Y-48840000D03*
%TO.P,A1,18,AREF*%
%TO.N,unconnected-(A1-AREF-Pad18)*%
X82660000Y-51380000D03*
%TO.P,A1,19,A0*%
%TO.N,unconnected-(A1-A0-Pad19)*%
X82660000Y-53920000D03*
%TO.P,A1,20,A1*%
%TO.N,unconnected-(A1-A1-Pad20)*%
X82660000Y-56460000D03*
%TO.P,A1,21,A2*%
%TO.N,unconnected-(A1-A2-Pad21)*%
X82660000Y-59000000D03*
%TO.P,A1,22,A3*%
%TO.N,unconnected-(A1-A3-Pad22)*%
X82660000Y-61540000D03*
%TO.P,A1,23,A4*%
%TO.N,unconnected-(A1-A4-Pad23)*%
X82660000Y-64080000D03*
%TO.P,A1,24,A5*%
%TO.N,unconnected-(A1-A5-Pad24)*%
X82660000Y-66620000D03*
%TO.P,A1,25,A6*%
%TO.N,unconnected-(A1-A6-Pad25)*%
X82660000Y-69160000D03*
%TO.P,A1,26,A7*%
%TO.N,unconnected-(A1-A7-Pad26)*%
X82660000Y-71700000D03*
%TO.P,A1,27,+5V*%
%TO.N,unconnected-(A1-+5V-Pad27)*%
X82660000Y-74240000D03*
%TO.P,A1,28,~{RESET}*%
%TO.N,unconnected-(A1-~{RESET}-Pad28)*%
X82660000Y-76780000D03*
%TO.P,A1,29,GND*%
%TO.N,GND*%
X82660000Y-79320000D03*
%TO.P,A1,30,VIN*%
%TO.N,+12V*%
X82660000Y-81860000D03*
%TD*%
D12*
%TO.P,C1,1*%
%TO.N,+3.3V*%
X108620000Y-79600000D03*
D13*
%TO.P,C1,2*%
%TO.N,GND*%
X107120000Y-79600000D03*
%TD*%
D14*
%TO.P,J1,1,Pin_1*%
%TO.N,Net-(A1-D2)*%
X110800000Y-84050000D03*
%TD*%
%TO.P,BT1,1,+*%
%TO.N,+12V*%
X104600000Y-84050000D03*
D15*
%TO.P,BT1,2,-*%
%TO.N,GND*%
X107140000Y-84050000D03*
%TD*%
D12*
%TO.P,C2,1*%
%TO.N,+3.3V*%
X114000000Y-41650000D03*
D13*
%TO.P,C2,2*%
%TO.N,GND*%
X112500000Y-41650000D03*
%TD*%
D14*
%TO.P,U2,1,GND*%
%TO.N,GND*%
X113320000Y-45800000D03*
D16*
%TO.P,U2,2,VCC*%
%TO.N,+3.3V*%
X113320000Y-48340000D03*
%TO.P,U2,3,CE*%
%TO.N,/CE*%
X110780000Y-45800000D03*
%TO.P,U2,4,~{CSN}*%
%TO.N,/CSN*%
X110780000Y-48340000D03*
%TO.P,U2,5,SCK*%
%TO.N,/SCK*%
X108240000Y-45800000D03*
%TO.P,U2,6,MOSI*%
%TO.N,/MOSI*%
X108240000Y-48340000D03*
%TO.P,U2,7,MISO*%
%TO.N,/MISO*%
X105700000Y-45800000D03*
%TO.P,U2,8,IRQ*%
%TO.N,/IRQ*%
X105700000Y-48340000D03*
%TD*%
D14*
%TO.P,U1,1,GND*%
%TO.N,GND*%
X105470000Y-75400000D03*
D15*
%TO.P,U1,2,VO*%
%TO.N,+3.3V*%
X108010000Y-75400000D03*
%TO.P,U1,3,VI*%
%TO.N,+12V*%
X110550000Y-75400000D03*
%TD*%
D17*
%TO.N,GND*%
X85800000Y-65900000D03*
X105200000Y-77750000D03*
X82200000Y-40800000D03*
X106500000Y-36700000D03*
X89600000Y-92000000D03*
X96100000Y-87800000D03*
X97900000Y-38800000D03*
X107100000Y-59400000D03*
X115900000Y-84000000D03*
X88600000Y-36900000D03*
X102900000Y-56600000D03*
X86300000Y-46800000D03*
X106400000Y-90700000D03*
X113800000Y-61200000D03*
X95200000Y-75900000D03*
X94200000Y-60300000D03*
X111700000Y-53250000D03*
X100900000Y-49800000D03*
X87000000Y-80100000D03*
X90400000Y-52700000D03*
X113370000Y-78100000D03*
X101500000Y-81100000D03*
%TD*%
D18*
%TO.N,/CSN*%
X110780000Y-48340000D02*
X107740000Y-51380000D01*
X107740000Y-51380000D02*
X97900000Y-51380000D01*
%TO.N,/MOSI*%
X99575000Y-47165000D02*
X107065000Y-47165000D01*
X107065000Y-47165000D02*
X108240000Y-48340000D01*
X97900000Y-48840000D02*
X99575000Y-47165000D01*
%TO.N,/MISO*%
X98400000Y-45800000D02*
X97900000Y-46300000D01*
X105700000Y-45800000D02*
X98400000Y-45800000D01*
%TO.N,/SCK*%
X107065000Y-44625000D02*
X84335000Y-44625000D01*
X84335000Y-44625000D02*
X82660000Y-46300000D01*
X108240000Y-45800000D02*
X107065000Y-44625000D01*
D19*
%TO.N,+12V*%
X110550000Y-80650000D02*
X110550000Y-75400000D01*
X83450000Y-83800000D02*
X104350000Y-83800000D01*
X104350000Y-83800000D02*
X104600000Y-84050000D01*
X82660000Y-83010000D02*
X83450000Y-83800000D01*
X109600000Y-81600000D02*
X110550000Y-80650000D01*
X82660000Y-81860000D02*
X82660000Y-83010000D01*
X106100000Y-81600000D02*
X109600000Y-81600000D01*
X104600000Y-83100000D02*
X106100000Y-81600000D01*
X104600000Y-84050000D02*
X104600000Y-83100000D01*
D20*
%TO.N,+3.3V*%
X116400000Y-43200000D02*
X116400000Y-47400000D01*
X108620000Y-79600000D02*
X108620000Y-76010000D01*
X116400000Y-47400000D02*
X115460000Y-48340000D01*
X108010000Y-60940000D02*
X113320000Y-55630000D01*
X113320000Y-55630000D02*
X113320000Y-48340000D01*
X114000000Y-41650000D02*
X114850000Y-41650000D01*
X114850000Y-41650000D02*
X116400000Y-43200000D01*
X108620000Y-76010000D02*
X108010000Y-75400000D01*
X115460000Y-48340000D02*
X113320000Y-48340000D01*
X108010000Y-75400000D02*
X108010000Y-60940000D01*
%TD*%
%TA.AperFunction,Conductor*%
%TO.N,GND*%
G36*
X112248230Y-31100179D02*
G01*
X112248451Y-31100245D01*
X112300000Y-31100245D01*
X112493191Y-31108734D01*
X112734306Y-31119954D01*
X112739528Y-31120421D01*
X112952645Y-31148662D01*
X113173288Y-31179643D01*
X113178136Y-31180523D01*
X113391727Y-31228193D01*
X113605032Y-31278701D01*
X113609487Y-31279932D01*
X113787858Y-31336562D01*
X113819607Y-31346642D01*
X114026062Y-31416322D01*
X114030109Y-31417847D01*
X114138655Y-31463132D01*
X114234452Y-31503099D01*
X114327851Y-31544641D01*
X114432941Y-31591383D01*
X114436537Y-31593123D01*
X114633157Y-31696258D01*
X114822324Y-31802443D01*
X114825455Y-31804325D01*
X115012650Y-31924553D01*
X115191067Y-32047798D01*
X115193756Y-32049766D01*
X115369909Y-32186127D01*
X115431821Y-32238010D01*
X115536113Y-32325409D01*
X115538381Y-32327407D01*
X115702082Y-32478869D01*
X115855658Y-32634019D01*
X116005433Y-32799249D01*
X116007421Y-32801553D01*
X116144991Y-32969156D01*
X116279552Y-33146697D01*
X116281510Y-33149432D01*
X116402914Y-33329076D01*
X116470625Y-33436907D01*
X116521216Y-33517475D01*
X116523081Y-33520651D01*
X116591435Y-33645386D01*
X116627335Y-33710898D01*
X116728449Y-33908545D01*
X116730157Y-33912166D01*
X116816411Y-34111549D01*
X116899568Y-34316737D01*
X116901052Y-34320799D01*
X116968628Y-34527975D01*
X117025047Y-34712180D01*
X117033171Y-34738702D01*
X117034364Y-34743191D01*
X117082724Y-34957144D01*
X117128179Y-35171059D01*
X117129016Y-35175953D01*
X117157752Y-35396954D01*
X117183806Y-35610257D01*
X117184222Y-35615527D01*
X117192982Y-35856738D01*
X117199500Y-36049995D01*
X117199020Y-36097970D01*
X117199402Y-36101633D01*
X117187050Y-42709407D01*
X117167240Y-42776409D01*
X117114351Y-42822065D01*
X117045174Y-42831880D01*
X116981672Y-42802736D01*
X116961002Y-42779617D01*
X116928183Y-42732071D01*
X116881750Y-42690935D01*
X116879056Y-42688399D01*
X115361598Y-41170941D01*
X115359064Y-41168250D01*
X115317929Y-41121817D01*
X115317928Y-41121816D01*
X115317924Y-41121812D01*
X115266896Y-41086591D01*
X115263887Y-41084377D01*
X115215060Y-41046124D01*
X115215055Y-41046120D01*
X115205813Y-41041961D01*
X115186266Y-41030936D01*
X115177931Y-41025183D01*
X115177932Y-41025183D01*
X115177930Y-41025182D01*
X115168753Y-41021701D01*
X115113051Y-40979524D01*
X115096543Y-40949092D01*
X115043798Y-40807673D01*
X115043793Y-40807664D01*
X114957547Y-40692455D01*
X114957544Y-40692452D01*
X114842335Y-40606206D01*
X114842328Y-40606202D01*
X114707482Y-40555908D01*
X114707483Y-40555908D01*
X114647883Y-40549501D01*
X114647881Y-40549500D01*
X114647873Y-40549500D01*
X114647864Y-40549500D01*
X113352129Y-40549500D01*
X113352123Y-40549501D01*
X113292516Y-40555908D01*
X113157671Y-40606202D01*
X113157665Y-40606205D01*
X113108004Y-40643381D01*
X113042539Y-40667797D01*
X112988902Y-40659740D01*
X112802324Y-40587460D01*
X112601928Y-40550000D01*
X112398072Y-40550000D01*
X112197678Y-40587460D01*
X112007588Y-40661100D01*
X112007584Y-40661102D01*
X111919310Y-40715758D01*
X112389736Y-41186183D01*
X112423221Y-41247506D01*
X112418237Y-41317197D01*
X112376366Y-41373131D01*
X112367334Y-41379290D01*
X112294390Y-41424456D01*
X112219874Y-41523132D01*
X112216476Y-41520566D01*
X112184097Y-41555435D01*
X112116420Y-41572803D01*
X112050098Y-41550824D01*
X112033004Y-41536557D01*
X111562533Y-41066085D01*
X111560754Y-41068443D01*
X111469886Y-41250930D01*
X111469883Y-41250936D01*
X111414097Y-41447007D01*
X111414096Y-41447010D01*
X111395287Y-41649999D01*
X111395287Y-41650000D01*
X111414096Y-41852989D01*
X111414097Y-41852992D01*
X111469883Y-42049063D01*
X111469886Y-42049069D01*
X111560754Y-42231556D01*
X111560755Y-42231557D01*
X111562533Y-42233912D01*
X112036880Y-41759567D01*
X112098203Y-41726082D01*
X112167895Y-41731066D01*
X112223828Y-41772938D01*
X112235561Y-41791976D01*
X112256447Y-41833921D01*
X112256449Y-41833923D01*
X112339332Y-41909483D01*
X112339333Y-41909483D01*
X112339334Y-41909484D01*
X112345485Y-41911866D01*
X112400887Y-41954437D01*
X112424479Y-42020203D01*
X112408771Y-42088284D01*
X112388375Y-42115175D01*
X111919310Y-42584240D01*
X111919311Y-42584241D01*
X112007581Y-42638895D01*
X112007588Y-42638899D01*
X112197678Y-42712539D01*
X112398072Y-42750000D01*
X112601928Y-42750000D01*
X112802326Y-42712538D01*
X112988902Y-42640259D01*
X113058525Y-42634396D01*
X113108005Y-42656617D01*
X113153869Y-42690951D01*
X113157668Y-42693795D01*
X113157671Y-42693797D01*
X113292517Y-42744091D01*
X113292516Y-42744091D01*
X113299444Y-42744835D01*
X113352127Y-42750500D01*
X114647872Y-42750499D01*
X114707483Y-42744091D01*
X114811956Y-42705124D01*
X114881646Y-42700141D01*
X114942969Y-42733626D01*
X115663182Y-43453839D01*
X115696666Y-43515160D01*
X115699500Y-43541518D01*
X115699500Y-47058481D01*
X115679815Y-47125520D01*
X115663181Y-47146162D01*
X115206162Y-47603181D01*
X115144839Y-47636666D01*
X115118481Y-47639500D01*
X114542711Y-47639500D01*
X114475672Y-47619815D01*
X114441136Y-47586623D01*
X114358496Y-47468600D01*
X114320463Y-47430567D01*
X114236179Y-47346283D01*
X114202696Y-47284963D01*
X114207680Y-47215271D01*
X114249551Y-47159337D01*
X114280529Y-47142422D01*
X114412086Y-47093354D01*
X114412093Y-47093350D01*
X114527187Y-47007190D01*
X114527190Y-47007187D01*
X114613350Y-46892093D01*
X114613354Y-46892086D01*
X114663596Y-46757379D01*
X114663598Y-46757372D01*
X114669999Y-46697844D01*
X114670000Y-46697827D01*
X114670000Y-46050000D01*
X113933347Y-46050000D01*
X113866308Y-46030315D01*
X113820553Y-45977511D01*
X113810609Y-45908353D01*
X113814369Y-45891067D01*
X113820000Y-45871888D01*
X113820000Y-45728111D01*
X113814369Y-45708933D01*
X113814370Y-45639064D01*
X113852145Y-45580286D01*
X113915701Y-45551262D01*
X113933347Y-45550000D01*
X114670000Y-45550000D01*
X114670000Y-44902172D01*
X114669999Y-44902155D01*
X114663598Y-44842627D01*
X114663596Y-44842620D01*
X114613354Y-44707913D01*
X114613350Y-44707906D01*
X114527190Y-44592812D01*
X114527187Y-44592809D01*
X114412093Y-44506649D01*
X114412086Y-44506645D01*
X114277379Y-44456403D01*
X114277372Y-44456401D01*
X114217844Y-44450000D01*
X113570000Y-44450000D01*
X113570000Y-45187698D01*
X113550315Y-45254737D01*
X113497511Y-45300492D01*
X113428355Y-45310436D01*
X113355766Y-45300000D01*
X113355763Y-45300000D01*
X113284237Y-45300000D01*
X113284233Y-45300000D01*
X113211645Y-45310436D01*
X113142487Y-45300492D01*
X113089684Y-45254736D01*
X113070000Y-45187698D01*
X113070000Y-44450000D01*
X112422155Y-44450000D01*
X112362627Y-44456401D01*
X112362620Y-44456403D01*
X112227913Y-44506645D01*
X112227906Y-44506649D01*
X112112812Y-44592809D01*
X112112809Y-44592812D01*
X112026649Y-44707906D01*
X112026645Y-44707913D01*
X111977578Y-44839470D01*
X111935707Y-44895404D01*
X111870242Y-44919821D01*
X111801969Y-44904969D01*
X111773715Y-44883819D01*
X111729366Y-44839470D01*
X111651401Y-44761505D01*
X111651397Y-44761502D01*
X111651396Y-44761501D01*
X111457834Y-44625967D01*
X111457830Y-44625965D01*
X111386727Y-44592809D01*
X111243663Y-44526097D01*
X111243659Y-44526096D01*
X111243655Y-44526094D01*
X111015413Y-44464938D01*
X111015403Y-44464936D01*
X110780001Y-44444341D01*
X110779999Y-44444341D01*
X110544596Y-44464936D01*
X110544586Y-44464938D01*
X110316344Y-44526094D01*
X110316335Y-44526098D01*
X110102171Y-44625964D01*
X110102169Y-44625965D01*
X109908597Y-44761505D01*
X109741505Y-44928597D01*
X109611575Y-45114158D01*
X109556998Y-45157783D01*
X109487500Y-45164977D01*
X109425145Y-45133454D01*
X109408425Y-45114158D01*
X109278494Y-44928597D01*
X109111402Y-44761506D01*
X109111395Y-44761501D01*
X108917834Y-44625967D01*
X108917830Y-44625965D01*
X108846727Y-44592809D01*
X108703663Y-44526097D01*
X108703659Y-44526096D01*
X108703655Y-44526094D01*
X108475413Y-44464938D01*
X108475403Y-44464936D01*
X108240001Y-44444341D01*
X108239999Y-44444341D01*
X108004590Y-44464937D01*
X108004589Y-44464937D01*
X107904124Y-44491855D01*
X107834274Y-44490191D01*
X107784352Y-44459761D01*
X107565803Y-44241212D01*
X107555980Y-44228950D01*
X107555759Y-44229134D01*
X107550786Y-44223123D01*
X107532159Y-44205631D01*
X107500364Y-44175773D01*
X107489919Y-44165328D01*
X107479475Y-44154883D01*
X107473986Y-44150625D01*
X107469561Y-44146847D01*
X107435582Y-44114938D01*
X107435580Y-44114936D01*
X107435577Y-44114935D01*
X107418029Y-44105288D01*
X107401763Y-44094604D01*
X107385933Y-44082325D01*
X107343168Y-44063818D01*
X107337922Y-44061248D01*
X107297093Y-44038803D01*
X107297092Y-44038802D01*
X107277693Y-44033822D01*
X107259281Y-44027518D01*
X107240898Y-44019562D01*
X107240892Y-44019560D01*
X107194874Y-44012272D01*
X107189152Y-44011087D01*
X107144021Y-43999500D01*
X107144019Y-43999500D01*
X107123984Y-43999500D01*
X107104586Y-43997973D01*
X107097162Y-43996797D01*
X107084805Y-43994840D01*
X107084804Y-43994840D01*
X107038416Y-43999225D01*
X107032578Y-43999500D01*
X84417743Y-43999500D01*
X84402122Y-43997775D01*
X84402095Y-43998061D01*
X84394333Y-43997326D01*
X84325172Y-43999500D01*
X84295649Y-43999500D01*
X84288778Y-44000367D01*
X84282959Y-44000825D01*
X84236374Y-44002289D01*
X84236368Y-44002290D01*
X84217126Y-44007880D01*
X84198087Y-44011823D01*
X84178217Y-44014334D01*
X84178203Y-44014337D01*
X84134883Y-44031488D01*
X84129358Y-44033380D01*
X84084613Y-44046380D01*
X84084610Y-44046381D01*
X84067366Y-44056579D01*
X84049905Y-44065133D01*
X84031274Y-44072510D01*
X84031262Y-44072517D01*
X83993570Y-44099902D01*
X83988687Y-44103109D01*
X83948580Y-44126829D01*
X83934414Y-44140995D01*
X83919624Y-44153627D01*
X83903414Y-44165404D01*
X83903411Y-44165407D01*
X83873710Y-44201309D01*
X83869777Y-44205631D01*
X83074821Y-45000586D01*
X83013498Y-45034071D01*
X82955048Y-45032680D01*
X82886697Y-45014366D01*
X82886693Y-45014365D01*
X82886692Y-45014365D01*
X82773346Y-45004448D01*
X82660001Y-44994532D01*
X82659998Y-44994532D01*
X82433313Y-45014364D01*
X82433302Y-45014366D01*
X82213511Y-45073258D01*
X82213502Y-45073261D01*
X82007267Y-45169431D01*
X82007265Y-45169432D01*
X81820858Y-45299954D01*
X81659954Y-45460858D01*
X81529432Y-45647265D01*
X81529431Y-45647267D01*
X81433261Y-45853502D01*
X81433258Y-45853511D01*
X81374366Y-46073302D01*
X81374364Y-46073313D01*
X81354532Y-46299998D01*
X81354532Y-46300001D01*
X81374364Y-46526686D01*
X81374366Y-46526697D01*
X81433258Y-46746488D01*
X81433261Y-46746497D01*
X81529431Y-46952732D01*
X81529432Y-46952734D01*
X81659954Y-47139141D01*
X81820858Y-47300045D01*
X81822943Y-47301505D01*
X82007266Y-47430568D01*
X82065275Y-47457618D01*
X82117714Y-47503791D01*
X82136866Y-47570984D01*
X82116650Y-47637865D01*
X82065275Y-47682382D01*
X82007267Y-47709431D01*
X82007265Y-47709432D01*
X81820858Y-47839954D01*
X81659954Y-48000858D01*
X81529432Y-48187265D01*
X81529431Y-48187267D01*
X81433261Y-48393502D01*
X81433258Y-48393511D01*
X81374366Y-48613302D01*
X81374364Y-48613313D01*
X81354532Y-48839998D01*
X81354532Y-48840001D01*
X81374364Y-49066686D01*
X81374366Y-49066697D01*
X81433258Y-49286488D01*
X81433261Y-49286497D01*
X81529431Y-49492732D01*
X81529432Y-49492734D01*
X81659954Y-49679141D01*
X81820858Y-49840045D01*
X81820861Y-49840047D01*
X82007266Y-49970568D01*
X82065275Y-49997618D01*
X82117714Y-50043791D01*
X82136866Y-50110984D01*
X82116650Y-50177865D01*
X82065275Y-50222382D01*
X82007267Y-50249431D01*
X82007265Y-50249432D01*
X81820858Y-50379954D01*
X81659954Y-50540858D01*
X81529432Y-50727265D01*
X81529431Y-50727267D01*
X81433261Y-50933502D01*
X81433258Y-50933511D01*
X81374366Y-51153302D01*
X81374364Y-51153313D01*
X81354532Y-51379998D01*
X81354532Y-51380001D01*
X81374364Y-51606686D01*
X81374366Y-51606697D01*
X81433258Y-51826488D01*
X81433261Y-51826497D01*
X81529431Y-52032732D01*
X81529432Y-52032734D01*
X81659954Y-52219141D01*
X81820858Y-52380045D01*
X81820861Y-52380047D01*
X82007266Y-52510568D01*
X82065275Y-52537618D01*
X82117714Y-52583791D01*
X82136866Y-52650984D01*
X82116650Y-52717865D01*
X82065275Y-52762382D01*
X82007267Y-52789431D01*
X82007265Y-52789432D01*
X81820858Y-52919954D01*
X81659954Y-53080858D01*
X81529432Y-53267265D01*
X81529431Y-53267267D01*
X81433261Y-53473502D01*
X81433258Y-53473511D01*
X81374366Y-53693302D01*
X81374364Y-53693313D01*
X81354532Y-53919998D01*
X81354532Y-53920001D01*
X81374364Y-54146686D01*
X81374366Y-54146697D01*
X81433258Y-54366488D01*
X81433261Y-54366497D01*
X81529431Y-54572732D01*
X81529432Y-54572734D01*
X81659954Y-54759141D01*
X81820858Y-54920045D01*
X81820861Y-54920047D01*
X82007266Y-55050568D01*
X82065275Y-55077618D01*
X82117714Y-55123791D01*
X82136866Y-55190984D01*
X82116650Y-55257865D01*
X82065275Y-55302382D01*
X82007267Y-55329431D01*
X82007265Y-55329432D01*
X81820858Y-55459954D01*
X81659954Y-55620858D01*
X81529432Y-55807265D01*
X81529431Y-55807267D01*
X81433261Y-56013502D01*
X81433258Y-56013511D01*
X81374366Y-56233302D01*
X81374364Y-56233313D01*
X81354532Y-56459998D01*
X81354532Y-56460001D01*
X81374364Y-56686686D01*
X81374366Y-56686697D01*
X81433258Y-56906488D01*
X81433261Y-56906497D01*
X81529431Y-57112732D01*
X81529432Y-57112734D01*
X81659954Y-57299141D01*
X81820858Y-57460045D01*
X81820861Y-57460047D01*
X82007266Y-57590568D01*
X82065275Y-57617618D01*
X82117714Y-57663791D01*
X82136866Y-57730984D01*
X82116650Y-57797865D01*
X82065275Y-57842382D01*
X82007267Y-57869431D01*
X82007265Y-57869432D01*
X81820858Y-57999954D01*
X81659954Y-58160858D01*
X81529432Y-58347265D01*
X81529431Y-58347267D01*
X81433261Y-58553502D01*
X81433258Y-58553511D01*
X81374366Y-58773302D01*
X81374364Y-58773313D01*
X81354532Y-58999998D01*
X81354532Y-59000001D01*
X81374364Y-59226686D01*
X81374366Y-59226697D01*
X81433258Y-59446488D01*
X81433261Y-59446497D01*
X81529431Y-59652732D01*
X81529432Y-59652734D01*
X81659954Y-59839141D01*
X81820858Y-60000045D01*
X81820861Y-60000047D01*
X82007266Y-60130568D01*
X82065275Y-60157618D01*
X82117714Y-60203791D01*
X82136866Y-60270984D01*
X82116650Y-60337865D01*
X82065275Y-60382382D01*
X82007267Y-60409431D01*
X82007265Y-60409432D01*
X81820858Y-60539954D01*
X81659954Y-60700858D01*
X81529432Y-60887265D01*
X81529431Y-60887267D01*
X81433261Y-61093502D01*
X81433258Y-61093511D01*
X81374366Y-61313302D01*
X81374364Y-61313313D01*
X81354532Y-61539998D01*
X81354532Y-61540001D01*
X81374364Y-61766686D01*
X81374366Y-61766697D01*
X81433258Y-61986488D01*
X81433261Y-61986497D01*
X81529431Y-62192732D01*
X81529432Y-62192734D01*
X81659954Y-62379141D01*
X81820858Y-62540045D01*
X81820861Y-62540047D01*
X82007266Y-62670568D01*
X82065275Y-62697618D01*
X82117714Y-62743791D01*
X82136866Y-62810984D01*
X82116650Y-62877865D01*
X82065275Y-62922382D01*
X82007267Y-62949431D01*
X82007265Y-62949432D01*
X81820858Y-63079954D01*
X81659954Y-63240858D01*
X81529432Y-63427265D01*
X81529431Y-63427267D01*
X81433261Y-63633502D01*
X81433258Y-63633511D01*
X81374366Y-63853302D01*
X81374364Y-63853313D01*
X81354532Y-64079998D01*
X81354532Y-64080001D01*
X81374364Y-64306686D01*
X81374366Y-64306697D01*
X81433258Y-64526488D01*
X81433261Y-64526497D01*
X81529431Y-64732732D01*
X81529432Y-64732734D01*
X81659954Y-64919141D01*
X81820858Y-65080045D01*
X81820861Y-65080047D01*
X82007266Y-65210568D01*
X82065278Y-65237619D01*
X82117713Y-65283788D01*
X82136866Y-65350982D01*
X82116651Y-65417863D01*
X82065277Y-65462380D01*
X82007268Y-65489430D01*
X82007265Y-65489432D01*
X81820858Y-65619954D01*
X81659954Y-65780858D01*
X81529432Y-65967265D01*
X81529431Y-65967267D01*
X81433261Y-66173502D01*
X81433258Y-66173511D01*
X81374366Y-66393302D01*
X81374364Y-66393313D01*
X81354532Y-66619998D01*
X81354532Y-66620001D01*
X81374364Y-66846686D01*
X81374366Y-66846697D01*
X81433258Y-67066488D01*
X81433261Y-67066497D01*
X81529431Y-67272732D01*
X81529432Y-67272734D01*
X81659954Y-67459141D01*
X81820858Y-67620045D01*
X81820861Y-67620047D01*
X82007266Y-67750568D01*
X82065275Y-67777618D01*
X82117714Y-67823791D01*
X82136866Y-67890984D01*
X82116650Y-67957865D01*
X82065275Y-68002382D01*
X82007267Y-68029431D01*
X82007265Y-68029432D01*
X81820858Y-68159954D01*
X81659954Y-68320858D01*
X81529432Y-68507265D01*
X81529431Y-68507267D01*
X81433261Y-68713502D01*
X81433258Y-68713511D01*
X81374366Y-68933302D01*
X81374364Y-68933313D01*
X81354532Y-69159998D01*
X81354532Y-69160001D01*
X81374364Y-69386686D01*
X81374366Y-69386697D01*
X81433258Y-69606488D01*
X81433261Y-69606497D01*
X81529431Y-69812732D01*
X81529432Y-69812734D01*
X81659954Y-69999141D01*
X81820858Y-70160045D01*
X81820861Y-70160047D01*
X82007266Y-70290568D01*
X82065275Y-70317618D01*
X82117714Y-70363791D01*
X82136866Y-70430984D01*
X82116650Y-70497865D01*
X82065275Y-70542382D01*
X82007267Y-70569431D01*
X82007265Y-70569432D01*
X81820858Y-70699954D01*
X81659954Y-70860858D01*
X81529432Y-71047265D01*
X81529431Y-71047267D01*
X81433261Y-71253502D01*
X81433258Y-71253511D01*
X81374366Y-71473302D01*
X81374364Y-71473313D01*
X81354532Y-71699998D01*
X81354532Y-71700001D01*
X81374364Y-71926686D01*
X81374366Y-71926697D01*
X81433258Y-72146488D01*
X81433261Y-72146497D01*
X81529431Y-72352732D01*
X81529432Y-72352734D01*
X81659954Y-72539141D01*
X81820858Y-72700045D01*
X81820861Y-72700047D01*
X82007266Y-72830568D01*
X82065275Y-72857618D01*
X82117714Y-72903791D01*
X82136866Y-72970984D01*
X82116650Y-73037865D01*
X82065275Y-73082382D01*
X82007267Y-73109431D01*
X82007265Y-73109432D01*
X81820858Y-73239954D01*
X81659954Y-73400858D01*
X81529432Y-73587265D01*
X81529431Y-73587267D01*
X81433261Y-73793502D01*
X81433258Y-73793511D01*
X81374366Y-74013302D01*
X81374364Y-74013313D01*
X81354532Y-74239998D01*
X81354532Y-74240001D01*
X81374364Y-74466686D01*
X81374366Y-74466697D01*
X81433258Y-74686488D01*
X81433261Y-74686497D01*
X81529431Y-74892732D01*
X81529432Y-74892734D01*
X81659954Y-75079141D01*
X81820858Y-75240045D01*
X81820861Y-75240047D01*
X82007266Y-75370568D01*
X82064681Y-75397341D01*
X82065275Y-75397618D01*
X82117714Y-75443791D01*
X82136866Y-75510984D01*
X82116650Y-75577865D01*
X82065275Y-75622382D01*
X82007267Y-75649431D01*
X82007265Y-75649432D01*
X81820858Y-75779954D01*
X81659954Y-75940858D01*
X81529432Y-76127265D01*
X81529431Y-76127267D01*
X81433261Y-76333502D01*
X81433258Y-76333511D01*
X81374366Y-76553302D01*
X81374364Y-76553313D01*
X81354532Y-76779998D01*
X81354532Y-76780001D01*
X81374364Y-77006686D01*
X81374366Y-77006697D01*
X81433258Y-77226488D01*
X81433261Y-77226497D01*
X81529431Y-77432732D01*
X81529432Y-77432734D01*
X81659954Y-77619141D01*
X81820858Y-77780045D01*
X81820861Y-77780047D01*
X82007266Y-77910568D01*
X82065865Y-77937893D01*
X82118305Y-77984065D01*
X82137457Y-78051258D01*
X82117242Y-78118139D01*
X82065867Y-78162657D01*
X82007515Y-78189867D01*
X81821179Y-78320342D01*
X81660342Y-78481179D01*
X81529865Y-78667517D01*
X81433734Y-78873673D01*
X81433730Y-78873682D01*
X81381127Y-79069999D01*
X81381128Y-79070000D01*
X82046653Y-79070000D01*
X82113692Y-79089685D01*
X82159447Y-79142489D01*
X82169391Y-79211647D01*
X82165631Y-79228933D01*
X82160000Y-79248111D01*
X82160000Y-79391888D01*
X82165631Y-79411067D01*
X82165630Y-79480936D01*
X82127855Y-79539714D01*
X82064299Y-79568738D01*
X82046653Y-79570000D01*
X81381128Y-79570000D01*
X81433730Y-79766317D01*
X81433734Y-79766326D01*
X81529865Y-79972482D01*
X81660342Y-80158820D01*
X81821179Y-80319657D01*
X82007518Y-80450134D01*
X82007520Y-80450135D01*
X82065865Y-80477342D01*
X82118305Y-80523514D01*
X82137457Y-80590707D01*
X82117242Y-80657589D01*
X82065867Y-80702105D01*
X82044992Y-80711840D01*
X82007264Y-80729433D01*
X81820858Y-80859954D01*
X81659954Y-81020858D01*
X81529432Y-81207265D01*
X81529431Y-81207267D01*
X81433261Y-81413502D01*
X81433258Y-81413511D01*
X81374366Y-81633302D01*
X81374364Y-81633313D01*
X81354532Y-81859998D01*
X81354532Y-81860001D01*
X81374364Y-82086686D01*
X81374366Y-82086697D01*
X81433258Y-82306488D01*
X81433261Y-82306497D01*
X81529431Y-82512732D01*
X81529432Y-82512734D01*
X81659951Y-82699137D01*
X81659952Y-82699138D01*
X81659953Y-82699139D01*
X81723182Y-82762368D01*
X81756666Y-82823689D01*
X81759500Y-82850048D01*
X81759500Y-82929373D01*
X81757973Y-82948772D01*
X81755781Y-82962611D01*
X81759415Y-83031956D01*
X81759500Y-83035201D01*
X81759500Y-83057189D01*
X81761797Y-83079059D01*
X81762051Y-83082290D01*
X81765686Y-83151643D01*
X81765688Y-83151653D01*
X81769315Y-83165189D01*
X81772860Y-83184314D01*
X81774325Y-83198249D01*
X81774326Y-83198256D01*
X81774328Y-83198262D01*
X81795784Y-83264298D01*
X81796705Y-83267409D01*
X81814679Y-83334486D01*
X81814684Y-83334498D01*
X81821043Y-83346978D01*
X81828488Y-83364949D01*
X81832820Y-83378282D01*
X81867537Y-83438414D01*
X81869085Y-83441266D01*
X81890992Y-83484259D01*
X81900617Y-83503149D01*
X81900619Y-83503151D01*
X81900620Y-83503153D01*
X81909438Y-83514043D01*
X81920454Y-83530070D01*
X81927465Y-83542213D01*
X81927470Y-83542220D01*
X81973939Y-83593831D01*
X81976043Y-83596295D01*
X81989882Y-83613382D01*
X82005423Y-83628922D01*
X82007657Y-83631277D01*
X82054128Y-83682887D01*
X82065468Y-83691126D01*
X82080265Y-83703764D01*
X82756236Y-84379736D01*
X82768871Y-84394529D01*
X82777110Y-84405869D01*
X82777112Y-84405871D01*
X82828730Y-84452348D01*
X82831068Y-84454568D01*
X82846620Y-84470120D01*
X82863716Y-84483964D01*
X82866168Y-84486058D01*
X82888887Y-84506514D01*
X82917784Y-84532533D01*
X82921503Y-84534680D01*
X82929920Y-84539540D01*
X82945952Y-84550557D01*
X82956851Y-84559383D01*
X83018714Y-84590903D01*
X83021569Y-84592453D01*
X83081707Y-84627174D01*
X83081712Y-84627177D01*
X83081713Y-84627177D01*
X83081716Y-84627179D01*
X83095050Y-84631511D01*
X83113022Y-84638956D01*
X83125512Y-84645320D01*
X83125514Y-84645320D01*
X83125515Y-84645321D01*
X83143928Y-84650254D01*
X83192601Y-84663296D01*
X83195682Y-84664209D01*
X83261744Y-84685674D01*
X83275688Y-84687139D01*
X83294814Y-84690685D01*
X83304441Y-84693264D01*
X83308355Y-84694313D01*
X83377720Y-84697947D01*
X83380935Y-84698200D01*
X83402808Y-84700500D01*
X83424798Y-84700500D01*
X83428041Y-84700584D01*
X83497388Y-84704219D01*
X83511227Y-84702027D01*
X83530627Y-84700500D01*
X103125501Y-84700500D01*
X103192540Y-84720185D01*
X103238295Y-84772989D01*
X103249501Y-84824500D01*
X103249501Y-84947876D01*
X103255908Y-85007483D01*
X103306202Y-85142328D01*
X103306206Y-85142335D01*
X103392452Y-85257544D01*
X103392455Y-85257547D01*
X103507664Y-85343793D01*
X103507671Y-85343797D01*
X103642517Y-85394091D01*
X103642516Y-85394091D01*
X103649444Y-85394835D01*
X103702127Y-85400500D01*
X105497872Y-85400499D01*
X105557483Y-85394091D01*
X105692331Y-85343796D01*
X105807546Y-85257546D01*
X105893796Y-85142331D01*
X105943002Y-85010401D01*
X105984872Y-84954468D01*
X106050337Y-84930050D01*
X106118610Y-84944901D01*
X106146865Y-84966053D01*
X106268917Y-85088105D01*
X106462421Y-85223600D01*
X106676507Y-85323429D01*
X106676516Y-85323433D01*
X106890000Y-85380634D01*
X106890000Y-84662301D01*
X106909685Y-84595262D01*
X106962489Y-84549507D01*
X107031647Y-84539563D01*
X107104237Y-84550000D01*
X107104238Y-84550000D01*
X107175762Y-84550000D01*
X107175763Y-84550000D01*
X107248353Y-84539563D01*
X107317512Y-84549507D01*
X107370315Y-84595262D01*
X107390000Y-84662301D01*
X107390000Y-85380633D01*
X107603483Y-85323433D01*
X107603492Y-85323429D01*
X107817578Y-85223600D01*
X108011082Y-85088105D01*
X108151317Y-84947870D01*
X109449500Y-84947870D01*
X109449501Y-84947876D01*
X109455908Y-85007483D01*
X109506202Y-85142328D01*
X109506206Y-85142335D01*
X109592452Y-85257544D01*
X109592455Y-85257547D01*
X109707664Y-85343793D01*
X109707671Y-85343797D01*
X109842517Y-85394091D01*
X109842516Y-85394091D01*
X109849444Y-85394835D01*
X109902127Y-85400500D01*
X111697872Y-85400499D01*
X111757483Y-85394091D01*
X111892331Y-85343796D01*
X112007546Y-85257546D01*
X112093796Y-85142331D01*
X112144091Y-85007483D01*
X112150500Y-84947873D01*
X112150499Y-83152128D01*
X112144091Y-83092517D01*
X112139071Y-83079059D01*
X112093797Y-82957671D01*
X112093793Y-82957664D01*
X112007547Y-82842455D01*
X112007544Y-82842452D01*
X111892335Y-82756206D01*
X111892328Y-82756202D01*
X111757482Y-82705908D01*
X111757483Y-82705908D01*
X111697883Y-82699501D01*
X111697881Y-82699500D01*
X111697873Y-82699500D01*
X111697865Y-82699500D01*
X109917745Y-82699500D01*
X109850706Y-82679815D01*
X109831711Y-82657893D01*
X109816720Y-82695863D01*
X109762220Y-82735857D01*
X109707670Y-82756203D01*
X109707664Y-82756206D01*
X109592455Y-82842452D01*
X109592452Y-82842455D01*
X109506206Y-82957664D01*
X109506202Y-82957671D01*
X109455908Y-83092517D01*
X109449552Y-83151643D01*
X109449501Y-83152123D01*
X109449500Y-83152135D01*
X109449500Y-84947870D01*
X108151317Y-84947870D01*
X108178105Y-84921082D01*
X108313600Y-84727578D01*
X108413429Y-84513492D01*
X108413432Y-84513486D01*
X108470636Y-84300000D01*
X107753347Y-84300000D01*
X107686308Y-84280315D01*
X107640553Y-84227511D01*
X107630609Y-84158353D01*
X107634369Y-84141067D01*
X107640000Y-84121888D01*
X107640000Y-83978111D01*
X107634369Y-83958933D01*
X107634370Y-83889064D01*
X107672145Y-83830286D01*
X107735701Y-83801262D01*
X107753347Y-83800000D01*
X108470636Y-83800000D01*
X108470635Y-83799999D01*
X108413432Y-83586513D01*
X108413429Y-83586507D01*
X108313600Y-83372422D01*
X108313599Y-83372420D01*
X108178113Y-83178926D01*
X108178108Y-83178920D01*
X108011082Y-83011894D01*
X107817578Y-82876399D01*
X107603492Y-82776570D01*
X107603483Y-82776566D01*
X107482969Y-82744275D01*
X107423308Y-82707910D01*
X107392779Y-82645063D01*
X107401074Y-82575687D01*
X107445559Y-82521810D01*
X107512111Y-82500535D01*
X107515062Y-82500500D01*
X109519373Y-82500500D01*
X109538772Y-82502027D01*
X109552612Y-82504219D01*
X109621959Y-82500584D01*
X109625203Y-82500500D01*
X109647191Y-82500500D01*
X109647192Y-82500500D01*
X109669063Y-82498200D01*
X109672281Y-82497947D01*
X109712399Y-82495845D01*
X109780375Y-82511994D01*
X109804502Y-82537059D01*
X109824032Y-82494297D01*
X109882810Y-82456523D01*
X109885585Y-82455743D01*
X109924488Y-82445320D01*
X109936976Y-82438956D01*
X109954950Y-82431510D01*
X109968284Y-82427179D01*
X110028476Y-82392425D01*
X110031222Y-82390934D01*
X110093149Y-82359383D01*
X110104031Y-82350569D01*
X110120083Y-82339537D01*
X110132216Y-82332533D01*
X110183847Y-82286043D01*
X110186260Y-82283982D01*
X110203380Y-82270119D01*
X110218929Y-82254568D01*
X110221270Y-82252347D01*
X110272888Y-82205871D01*
X110281130Y-82194525D01*
X110293760Y-82179737D01*
X111129742Y-81343756D01*
X111144525Y-81331130D01*
X111155871Y-81322888D01*
X111202339Y-81271278D01*
X111204540Y-81268958D01*
X111220120Y-81253380D01*
X111233975Y-81236268D01*
X111236054Y-81233834D01*
X111282533Y-81182216D01*
X111289537Y-81170083D01*
X111300563Y-81154041D01*
X111309382Y-81143150D01*
X111340914Y-81081263D01*
X111342442Y-81078447D01*
X111377179Y-81018284D01*
X111381509Y-81004956D01*
X111388960Y-80986969D01*
X111395319Y-80974489D01*
X111395320Y-80974488D01*
X111413296Y-80907397D01*
X111414214Y-80904301D01*
X111435674Y-80838256D01*
X111437138Y-80824317D01*
X111440687Y-80805175D01*
X111444313Y-80791645D01*
X111447947Y-80722281D01*
X111448201Y-80719064D01*
X111450499Y-80697199D01*
X111450500Y-80697191D01*
X111450500Y-80675201D01*
X111450585Y-80671956D01*
X111451338Y-80657589D01*
X111454219Y-80602612D01*
X111452027Y-80588772D01*
X111450500Y-80569373D01*
X111450500Y-76460757D01*
X111470185Y-76393718D01*
X111486813Y-76373081D01*
X111588495Y-76271401D01*
X111724035Y-76077830D01*
X111823903Y-75863663D01*
X111885063Y-75635408D01*
X111905659Y-75400000D01*
X111905426Y-75397342D01*
X111896179Y-75291647D01*
X111885063Y-75164592D01*
X111823903Y-74936337D01*
X111724035Y-74722171D01*
X111718425Y-74714158D01*
X111588494Y-74528597D01*
X111421402Y-74361506D01*
X111421395Y-74361501D01*
X111227834Y-74225967D01*
X111227830Y-74225965D01*
X111123442Y-74177288D01*
X111013663Y-74126097D01*
X111013659Y-74126096D01*
X111013655Y-74126094D01*
X110785413Y-74064938D01*
X110785403Y-74064936D01*
X110550001Y-74044341D01*
X110549999Y-74044341D01*
X110314596Y-74064936D01*
X110314586Y-74064938D01*
X110086344Y-74126094D01*
X110086335Y-74126098D01*
X109872171Y-74225964D01*
X109872169Y-74225965D01*
X109678597Y-74361505D01*
X109511505Y-74528597D01*
X109381575Y-74714158D01*
X109326998Y-74757783D01*
X109257500Y-74764977D01*
X109195145Y-74733454D01*
X109178425Y-74714158D01*
X109048494Y-74528597D01*
X108881404Y-74361508D01*
X108881402Y-74361506D01*
X108881401Y-74361505D01*
X108881396Y-74361501D01*
X108881393Y-74361499D01*
X108763376Y-74278861D01*
X108719751Y-74224284D01*
X108710500Y-74177287D01*
X108710500Y-61281518D01*
X108730185Y-61214479D01*
X108746814Y-61193842D01*
X113799056Y-56141599D01*
X113801748Y-56139065D01*
X113848183Y-56097929D01*
X113883421Y-56046876D01*
X113885613Y-56043896D01*
X113923878Y-55995057D01*
X113928034Y-55985821D01*
X113939062Y-55966266D01*
X113944818Y-55957930D01*
X113966809Y-55899942D01*
X113968229Y-55896512D01*
X113993695Y-55839932D01*
X113995521Y-55829961D01*
X114001552Y-55808331D01*
X114001957Y-55807265D01*
X114005140Y-55798872D01*
X114012613Y-55737325D01*
X114013177Y-55733621D01*
X114017447Y-55710314D01*
X114024358Y-55672606D01*
X114020613Y-55610696D01*
X114020500Y-55606951D01*
X114020500Y-49562711D01*
X114040185Y-49495672D01*
X114073377Y-49461136D01*
X114191401Y-49378495D01*
X114358495Y-49211401D01*
X114441136Y-49093376D01*
X114495713Y-49049752D01*
X114542711Y-49040500D01*
X115436952Y-49040500D01*
X115440697Y-49040613D01*
X115448042Y-49041057D01*
X115502606Y-49044358D01*
X115540314Y-49037447D01*
X115563621Y-49033177D01*
X115567325Y-49032613D01*
X115585170Y-49030446D01*
X115628872Y-49025140D01*
X115638335Y-49021550D01*
X115659961Y-49015522D01*
X115660893Y-49015351D01*
X115669932Y-49013695D01*
X115726512Y-48988229D01*
X115729942Y-48986809D01*
X115787930Y-48964818D01*
X115796266Y-48959062D01*
X115815821Y-48948034D01*
X115825057Y-48943878D01*
X115873896Y-48905613D01*
X115876876Y-48903421D01*
X115927929Y-48868183D01*
X115969065Y-48821748D01*
X115971599Y-48819056D01*
X116879056Y-47911599D01*
X116881748Y-47909065D01*
X116928183Y-47867929D01*
X116951288Y-47834454D01*
X117005569Y-47790465D01*
X117075017Y-47782804D01*
X117137583Y-47813906D01*
X117173401Y-47873896D01*
X117177338Y-47905126D01*
X117099670Y-89456241D01*
X117098691Y-89459549D01*
X117099580Y-89503977D01*
X117094974Y-89699026D01*
X117089014Y-89926586D01*
X117088655Y-89931822D01*
X117065262Y-90142027D01*
X117039924Y-90354788D01*
X117039147Y-90359657D01*
X116996981Y-90569775D01*
X116952653Y-90776851D01*
X116951520Y-90781323D01*
X116890853Y-90988184D01*
X116827919Y-91189329D01*
X116826495Y-91193381D01*
X116747769Y-91394868D01*
X116724538Y-91450499D01*
X116666713Y-91588968D01*
X116665064Y-91592586D01*
X116568852Y-91786918D01*
X116470352Y-91972508D01*
X116468543Y-91975687D01*
X116355580Y-92161210D01*
X116240408Y-92336890D01*
X116238503Y-92339633D01*
X116109640Y-92514839D01*
X115978722Y-92679194D01*
X115976782Y-92681511D01*
X115833012Y-92844980D01*
X115686483Y-92997617D01*
X115529011Y-93147948D01*
X115526775Y-93149981D01*
X115367914Y-93287485D01*
X115198099Y-93423403D01*
X115195436Y-93425419D01*
X115024613Y-93547658D01*
X114843862Y-93668095D01*
X114840759Y-93670033D01*
X114659317Y-93776043D01*
X114469097Y-93880093D01*
X114465550Y-93881888D01*
X114274942Y-93970790D01*
X114076811Y-94057687D01*
X114072821Y-94059274D01*
X113874434Y-94130358D01*
X113670185Y-94199429D01*
X113665764Y-94200743D01*
X113460692Y-94253481D01*
X113252467Y-94304189D01*
X113247633Y-94305165D01*
X113036066Y-94339169D01*
X112826990Y-94371121D01*
X112821773Y-94371694D01*
X112594500Y-94386946D01*
X112401978Y-94399370D01*
X112397984Y-94399499D01*
X84099999Y-94399499D01*
X83905479Y-94391006D01*
X83668591Y-94380053D01*
X83663359Y-94379589D01*
X83450878Y-94351615D01*
X83232422Y-94321142D01*
X83227566Y-94320267D01*
X83014878Y-94273115D01*
X82863034Y-94237402D01*
X82803325Y-94223359D01*
X82798882Y-94222138D01*
X82589614Y-94156156D01*
X82384752Y-94087493D01*
X82380727Y-94085987D01*
X82177212Y-94001688D01*
X81980057Y-93914636D01*
X81976527Y-93912940D01*
X81780558Y-93810925D01*
X81717932Y-93776043D01*
X81592542Y-93706201D01*
X81589448Y-93704355D01*
X81402764Y-93585425D01*
X81225315Y-93463869D01*
X81222609Y-93461907D01*
X81046793Y-93326998D01*
X80881273Y-93189552D01*
X80878995Y-93187564D01*
X80757620Y-93076345D01*
X80715451Y-93037704D01*
X80562295Y-92884548D01*
X80412434Y-92721003D01*
X80410446Y-92718725D01*
X80273001Y-92553206D01*
X80191969Y-92447604D01*
X80138079Y-92377373D01*
X80136129Y-92374683D01*
X80014574Y-92197235D01*
X79895631Y-92010531D01*
X79893810Y-92007478D01*
X79789078Y-91819448D01*
X79687045Y-91623446D01*
X79685375Y-91619969D01*
X79598327Y-91422825D01*
X79514000Y-91219242D01*
X79512515Y-91215274D01*
X79443849Y-91010403D01*
X79377851Y-90801085D01*
X79376647Y-90796704D01*
X79326882Y-90585112D01*
X79323482Y-90569775D01*
X79279726Y-90372404D01*
X79278860Y-90367601D01*
X79248394Y-90149197D01*
X79220406Y-89936607D01*
X79219946Y-89931420D01*
X79208999Y-89694670D01*
X79203458Y-89567763D01*
X82245787Y-89567763D01*
X82275413Y-89837013D01*
X82275415Y-89837024D01*
X82336144Y-90069314D01*
X82343928Y-90099088D01*
X82449870Y-90348390D01*
X82580035Y-90561673D01*
X82590979Y-90579605D01*
X82590986Y-90579615D01*
X82764253Y-90787819D01*
X82764259Y-90787824D01*
X82965998Y-90968582D01*
X83191910Y-91118044D01*
X83437176Y-91233020D01*
X83437183Y-91233022D01*
X83437185Y-91233023D01*
X83696557Y-91311057D01*
X83696564Y-91311058D01*
X83696569Y-91311060D01*
X83964561Y-91350500D01*
X83964566Y-91350500D01*
X84167636Y-91350500D01*
X84219133Y-91346730D01*
X84370156Y-91335677D01*
X84482758Y-91310593D01*
X84634546Y-91276782D01*
X84634548Y-91276781D01*
X84634553Y-91276780D01*
X84887558Y-91180014D01*
X85123777Y-91047441D01*
X85338177Y-90881888D01*
X85526186Y-90686881D01*
X85683799Y-90466579D01*
X85757787Y-90322669D01*
X85807649Y-90225690D01*
X85807651Y-90225684D01*
X85807656Y-90225675D01*
X85895118Y-89969305D01*
X85944319Y-89702933D01*
X85945604Y-89667763D01*
X110445787Y-89667763D01*
X110475413Y-89937013D01*
X110475415Y-89937024D01*
X110529010Y-90142027D01*
X110543928Y-90199088D01*
X110649870Y-90448390D01*
X110729950Y-90579605D01*
X110790979Y-90679605D01*
X110790986Y-90679615D01*
X110964253Y-90887819D01*
X110964259Y-90887824D01*
X111165998Y-91068582D01*
X111391910Y-91218044D01*
X111637176Y-91333020D01*
X111637183Y-91333022D01*
X111637185Y-91333023D01*
X111896557Y-91411057D01*
X111896564Y-91411058D01*
X111896569Y-91411060D01*
X112164561Y-91450500D01*
X112164566Y-91450500D01*
X112367636Y-91450500D01*
X112419133Y-91446730D01*
X112570156Y-91435677D01*
X112682758Y-91410593D01*
X112834546Y-91376782D01*
X112834548Y-91376781D01*
X112834553Y-91376780D01*
X113087558Y-91280014D01*
X113323777Y-91147441D01*
X113538177Y-90981888D01*
X113726186Y-90786881D01*
X113883799Y-90566579D01*
X113983617Y-90372432D01*
X114007649Y-90325690D01*
X114007651Y-90325684D01*
X114007656Y-90325675D01*
X114095118Y-90069305D01*
X114144319Y-89802933D01*
X114154212Y-89532235D01*
X114124586Y-89262982D01*
X114056072Y-89000912D01*
X113950130Y-88751610D01*
X113809018Y-88520390D01*
X113719747Y-88413119D01*
X113635746Y-88312180D01*
X113635740Y-88312175D01*
X113434002Y-88131418D01*
X113208092Y-87981957D01*
X113208090Y-87981956D01*
X112962824Y-87866980D01*
X112962819Y-87866978D01*
X112962814Y-87866976D01*
X112703442Y-87788942D01*
X112703428Y-87788939D01*
X112587791Y-87771921D01*
X112435439Y-87749500D01*
X112232369Y-87749500D01*
X112232364Y-87749500D01*
X112029844Y-87764323D01*
X112029831Y-87764325D01*
X111765453Y-87823217D01*
X111765446Y-87823220D01*
X111512439Y-87919987D01*
X111276226Y-88052557D01*
X111061822Y-88218112D01*
X110873822Y-88413109D01*
X110873816Y-88413116D01*
X110716202Y-88633419D01*
X110716199Y-88633424D01*
X110592350Y-88874309D01*
X110592343Y-88874327D01*
X110504884Y-89130685D01*
X110504881Y-89130699D01*
X110455681Y-89397068D01*
X110455680Y-89397075D01*
X110445787Y-89667763D01*
X85945604Y-89667763D01*
X85954212Y-89432235D01*
X85924586Y-89162982D01*
X85856072Y-88900912D01*
X85750130Y-88651610D01*
X85609018Y-88420390D01*
X85519747Y-88313119D01*
X85435746Y-88212180D01*
X85435740Y-88212175D01*
X85234002Y-88031418D01*
X85008092Y-87881957D01*
X84976143Y-87866980D01*
X84762824Y-87766980D01*
X84762819Y-87766978D01*
X84762814Y-87766976D01*
X84503442Y-87688942D01*
X84503428Y-87688939D01*
X84387791Y-87671921D01*
X84235439Y-87649500D01*
X84032369Y-87649500D01*
X84032364Y-87649500D01*
X83829844Y-87664323D01*
X83829831Y-87664325D01*
X83565453Y-87723217D01*
X83565446Y-87723220D01*
X83312439Y-87819987D01*
X83076226Y-87952557D01*
X82861822Y-88118112D01*
X82673822Y-88313109D01*
X82673816Y-88313116D01*
X82516202Y-88533419D01*
X82516199Y-88533424D01*
X82392350Y-88774309D01*
X82392343Y-88774327D01*
X82304884Y-89030685D01*
X82304881Y-89030699D01*
X82255681Y-89297068D01*
X82255680Y-89297075D01*
X82245787Y-89567763D01*
X79203458Y-89567763D01*
X79200562Y-89501442D01*
X79200507Y-89498545D01*
X79464987Y-36032586D01*
X82510610Y-36032586D01*
X82540236Y-36301836D01*
X82540238Y-36301847D01*
X82584020Y-36469314D01*
X82608751Y-36563911D01*
X82714693Y-36813213D01*
X82786821Y-36931398D01*
X82855802Y-37044428D01*
X82855809Y-37044438D01*
X83029076Y-37252642D01*
X83029082Y-37252647D01*
X83230821Y-37433405D01*
X83456733Y-37582867D01*
X83701999Y-37697843D01*
X83702006Y-37697845D01*
X83702008Y-37697846D01*
X83961380Y-37775880D01*
X83961387Y-37775881D01*
X83961392Y-37775883D01*
X84229384Y-37815323D01*
X84229389Y-37815323D01*
X84432459Y-37815323D01*
X84483956Y-37811553D01*
X84634979Y-37800500D01*
X84747581Y-37775416D01*
X84899369Y-37741605D01*
X84899371Y-37741604D01*
X84899376Y-37741603D01*
X85152381Y-37644837D01*
X85388600Y-37512264D01*
X85603000Y-37346711D01*
X85791009Y-37151704D01*
X85948622Y-36931402D01*
X86054386Y-36725690D01*
X86072472Y-36690513D01*
X86072474Y-36690507D01*
X86072479Y-36690498D01*
X86159941Y-36434128D01*
X86209142Y-36167756D01*
X86212796Y-36067763D01*
X110445787Y-36067763D01*
X110475413Y-36337013D01*
X110475415Y-36337024D01*
X110543926Y-36599082D01*
X110543928Y-36599088D01*
X110649870Y-36848390D01*
X110721998Y-36966575D01*
X110790979Y-37079605D01*
X110790986Y-37079615D01*
X110964253Y-37287819D01*
X110964259Y-37287824D01*
X111165998Y-37468582D01*
X111391910Y-37618044D01*
X111637176Y-37733020D01*
X111637183Y-37733022D01*
X111637185Y-37733023D01*
X111896557Y-37811057D01*
X111896564Y-37811058D01*
X111896569Y-37811060D01*
X112164561Y-37850500D01*
X112164566Y-37850500D01*
X112367636Y-37850500D01*
X112419133Y-37846730D01*
X112570156Y-37835677D01*
X112728071Y-37800500D01*
X112834546Y-37776782D01*
X112834548Y-37776781D01*
X112834553Y-37776780D01*
X113087558Y-37680014D01*
X113323777Y-37547441D01*
X113538177Y-37381888D01*
X113726186Y-37186881D01*
X113883799Y-36966579D01*
X113962650Y-36813212D01*
X114007649Y-36725690D01*
X114007651Y-36725684D01*
X114007656Y-36725675D01*
X114095118Y-36469305D01*
X114144319Y-36202933D01*
X114154212Y-35932235D01*
X114124586Y-35662982D01*
X114056072Y-35400912D01*
X113950130Y-35151610D01*
X113809018Y-34920390D01*
X113719747Y-34813119D01*
X113635746Y-34712180D01*
X113635740Y-34712175D01*
X113434002Y-34531418D01*
X113208092Y-34381957D01*
X113162913Y-34360778D01*
X112962824Y-34266980D01*
X112962819Y-34266978D01*
X112962814Y-34266976D01*
X112703442Y-34188942D01*
X112703428Y-34188939D01*
X112587791Y-34171921D01*
X112435439Y-34149500D01*
X112232369Y-34149500D01*
X112232364Y-34149500D01*
X112029844Y-34164323D01*
X112029831Y-34164325D01*
X111765453Y-34223217D01*
X111765446Y-34223220D01*
X111512439Y-34319987D01*
X111276226Y-34452557D01*
X111276224Y-34452558D01*
X111276223Y-34452559D01*
X111213893Y-34500688D01*
X111061822Y-34618112D01*
X110873822Y-34813109D01*
X110873816Y-34813116D01*
X110716202Y-35033419D01*
X110716199Y-35033424D01*
X110592350Y-35274309D01*
X110592343Y-35274327D01*
X110504884Y-35530685D01*
X110504881Y-35530699D01*
X110503569Y-35537803D01*
X110462179Y-35761890D01*
X110455681Y-35797068D01*
X110455680Y-35797075D01*
X110445787Y-36067763D01*
X86212796Y-36067763D01*
X86219035Y-35897058D01*
X86189409Y-35627805D01*
X86120895Y-35365735D01*
X86014953Y-35116433D01*
X85873841Y-34885213D01*
X85784570Y-34777942D01*
X85700569Y-34677003D01*
X85700563Y-34676998D01*
X85498825Y-34496241D01*
X85272915Y-34346780D01*
X85272913Y-34346779D01*
X85027647Y-34231803D01*
X85027642Y-34231801D01*
X85027637Y-34231799D01*
X84768265Y-34153765D01*
X84768251Y-34153762D01*
X84652614Y-34136744D01*
X84500262Y-34114323D01*
X84297192Y-34114323D01*
X84297187Y-34114323D01*
X84094667Y-34129146D01*
X84094654Y-34129148D01*
X83830276Y-34188040D01*
X83830269Y-34188043D01*
X83577262Y-34284810D01*
X83341049Y-34417380D01*
X83341047Y-34417381D01*
X83341046Y-34417382D01*
X83295490Y-34452559D01*
X83126645Y-34582935D01*
X82938645Y-34777932D01*
X82938639Y-34777939D01*
X82781025Y-34998242D01*
X82781022Y-34998247D01*
X82657173Y-35239132D01*
X82657166Y-35239150D01*
X82569707Y-35495508D01*
X82569704Y-35495522D01*
X82520504Y-35761891D01*
X82520503Y-35761898D01*
X82510610Y-36032586D01*
X79464987Y-36032586D01*
X79465067Y-36016326D01*
X79465323Y-36015472D01*
X79465323Y-35964823D01*
X79473814Y-35770338D01*
X79474205Y-35761898D01*
X79484767Y-35533415D01*
X79485228Y-35528224D01*
X79513230Y-35315524D01*
X79543679Y-35097243D01*
X79544549Y-35092416D01*
X79591726Y-34879615D01*
X79641474Y-34668102D01*
X79642671Y-34663747D01*
X79708682Y-34454385D01*
X79777344Y-34249527D01*
X79778812Y-34245604D01*
X79863149Y-34041997D01*
X79950199Y-33844847D01*
X79951864Y-33841381D01*
X80053909Y-33645355D01*
X80158630Y-33457347D01*
X80160460Y-33454278D01*
X80279411Y-33267563D01*
X80400966Y-33090118D01*
X80402891Y-33087463D01*
X80537830Y-32911606D01*
X80675288Y-32746071D01*
X80677209Y-32743869D01*
X80827128Y-32580261D01*
X80980261Y-32427128D01*
X81143869Y-32277209D01*
X81146071Y-32275288D01*
X81311606Y-32137830D01*
X81487463Y-32002891D01*
X81490118Y-32000966D01*
X81667563Y-31879411D01*
X81854278Y-31760460D01*
X81857347Y-31758630D01*
X82045355Y-31653909D01*
X82241381Y-31551864D01*
X82244847Y-31550199D01*
X82441997Y-31463149D01*
X82645604Y-31378812D01*
X82649527Y-31377344D01*
X82854385Y-31308682D01*
X83063747Y-31242671D01*
X83068102Y-31241474D01*
X83279615Y-31191726D01*
X83492416Y-31144549D01*
X83497243Y-31143679D01*
X83715524Y-31113230D01*
X83928222Y-31085228D01*
X83933417Y-31084767D01*
X84170182Y-31073821D01*
X84363463Y-31065382D01*
X84366177Y-31065324D01*
X112248230Y-31100179D01*
G37*
%TD.AperFunction*%
%TA.AperFunction,Conductor*%
G36*
X96877990Y-45270185D02*
G01*
X96923745Y-45322989D01*
X96933689Y-45392147D01*
X96904664Y-45455703D01*
X96900779Y-45459875D01*
X96899956Y-45460855D01*
X96769432Y-45647265D01*
X96769431Y-45647267D01*
X96673261Y-45853502D01*
X96673258Y-45853511D01*
X96614366Y-46073302D01*
X96614364Y-46073313D01*
X96594532Y-46299998D01*
X96594532Y-46300001D01*
X96614364Y-46526686D01*
X96614366Y-46526697D01*
X96673258Y-46746488D01*
X96673261Y-46746497D01*
X96769431Y-46952732D01*
X96769432Y-46952734D01*
X96899954Y-47139141D01*
X97060858Y-47300045D01*
X97062943Y-47301505D01*
X97247266Y-47430568D01*
X97305275Y-47457618D01*
X97357714Y-47503791D01*
X97376866Y-47570984D01*
X97356650Y-47637865D01*
X97305275Y-47682382D01*
X97247267Y-47709431D01*
X97247265Y-47709432D01*
X97060858Y-47839954D01*
X96899954Y-48000858D01*
X96769432Y-48187265D01*
X96769431Y-48187267D01*
X96673261Y-48393502D01*
X96673258Y-48393511D01*
X96614366Y-48613302D01*
X96614364Y-48613313D01*
X96594532Y-48839998D01*
X96594532Y-48840001D01*
X96614364Y-49066686D01*
X96614366Y-49066697D01*
X96673258Y-49286488D01*
X96673261Y-49286497D01*
X96769431Y-49492732D01*
X96769432Y-49492734D01*
X96899954Y-49679141D01*
X97060858Y-49840045D01*
X97060861Y-49840047D01*
X97247266Y-49970568D01*
X97305275Y-49997618D01*
X97357714Y-50043791D01*
X97376866Y-50110984D01*
X97356650Y-50177865D01*
X97305275Y-50222382D01*
X97247267Y-50249431D01*
X97247265Y-50249432D01*
X97060858Y-50379954D01*
X96899954Y-50540858D01*
X96769432Y-50727265D01*
X96769431Y-50727267D01*
X96673261Y-50933502D01*
X96673258Y-50933511D01*
X96614366Y-51153302D01*
X96614364Y-51153313D01*
X96594532Y-51379998D01*
X96594532Y-51380001D01*
X96614364Y-51606686D01*
X96614366Y-51606697D01*
X96673258Y-51826488D01*
X96673261Y-51826497D01*
X96769431Y-52032732D01*
X96769432Y-52032734D01*
X96899954Y-52219141D01*
X97060858Y-52380045D01*
X97060861Y-52380047D01*
X97247266Y-52510568D01*
X97305275Y-52537618D01*
X97357714Y-52583791D01*
X97376866Y-52650984D01*
X97356650Y-52717865D01*
X97305275Y-52762382D01*
X97247267Y-52789431D01*
X97247265Y-52789432D01*
X97060858Y-52919954D01*
X96899954Y-53080858D01*
X96769432Y-53267265D01*
X96769431Y-53267267D01*
X96673261Y-53473502D01*
X96673258Y-53473511D01*
X96614366Y-53693302D01*
X96614364Y-53693313D01*
X96594532Y-53919998D01*
X96594532Y-53920001D01*
X96614364Y-54146686D01*
X96614366Y-54146697D01*
X96673258Y-54366488D01*
X96673261Y-54366497D01*
X96769431Y-54572732D01*
X96769432Y-54572734D01*
X96899954Y-54759141D01*
X97060858Y-54920045D01*
X97060861Y-54920047D01*
X97247266Y-55050568D01*
X97305275Y-55077618D01*
X97357714Y-55123791D01*
X97376866Y-55190984D01*
X97356650Y-55257865D01*
X97305275Y-55302382D01*
X97247267Y-55329431D01*
X97247265Y-55329432D01*
X97060858Y-55459954D01*
X96899954Y-55620858D01*
X96769432Y-55807265D01*
X96769431Y-55807267D01*
X96673261Y-56013502D01*
X96673258Y-56013511D01*
X96614366Y-56233302D01*
X96614364Y-56233313D01*
X96594532Y-56459998D01*
X96594532Y-56460001D01*
X96614364Y-56686686D01*
X96614366Y-56686697D01*
X96673258Y-56906488D01*
X96673261Y-56906497D01*
X96769431Y-57112732D01*
X96769432Y-57112734D01*
X96899954Y-57299141D01*
X97060858Y-57460045D01*
X97060861Y-57460047D01*
X97247266Y-57590568D01*
X97305275Y-57617618D01*
X97357714Y-57663791D01*
X97376866Y-57730984D01*
X97356650Y-57797865D01*
X97305275Y-57842382D01*
X97247267Y-57869431D01*
X97247265Y-57869432D01*
X97060858Y-57999954D01*
X96899954Y-58160858D01*
X96769432Y-58347265D01*
X96769431Y-58347267D01*
X96673261Y-58553502D01*
X96673258Y-58553511D01*
X96614366Y-58773302D01*
X96614364Y-58773313D01*
X96594532Y-58999998D01*
X96594532Y-59000001D01*
X96614364Y-59226686D01*
X96614366Y-59226697D01*
X96673258Y-59446488D01*
X96673261Y-59446497D01*
X96769431Y-59652732D01*
X96769432Y-59652734D01*
X96899954Y-59839141D01*
X97060858Y-60000045D01*
X97060861Y-60000047D01*
X97247266Y-60130568D01*
X97305278Y-60157619D01*
X97357713Y-60203788D01*
X97376866Y-60270982D01*
X97356651Y-60337863D01*
X97305277Y-60382380D01*
X97247268Y-60409430D01*
X97247265Y-60409432D01*
X97060858Y-60539954D01*
X96899954Y-60700858D01*
X96769432Y-60887265D01*
X96769431Y-60887267D01*
X96673261Y-61093502D01*
X96673258Y-61093511D01*
X96614366Y-61313302D01*
X96614364Y-61313313D01*
X96594532Y-61539998D01*
X96594532Y-61540001D01*
X96614364Y-61766686D01*
X96614366Y-61766697D01*
X96673258Y-61986488D01*
X96673261Y-61986497D01*
X96769431Y-62192732D01*
X96769432Y-62192734D01*
X96899954Y-62379141D01*
X97060858Y-62540045D01*
X97060861Y-62540047D01*
X97247266Y-62670568D01*
X97305278Y-62697619D01*
X97357713Y-62743788D01*
X97376866Y-62810982D01*
X97356651Y-62877863D01*
X97305277Y-62922380D01*
X97247268Y-62949430D01*
X97247265Y-62949432D01*
X97060858Y-63079954D01*
X96899954Y-63240858D01*
X96769432Y-63427265D01*
X96769431Y-63427267D01*
X96673261Y-63633502D01*
X96673258Y-63633511D01*
X96614366Y-63853302D01*
X96614364Y-63853313D01*
X96594532Y-64079998D01*
X96594532Y-64080001D01*
X96614364Y-64306686D01*
X96614366Y-64306697D01*
X96673258Y-64526488D01*
X96673261Y-64526497D01*
X96769431Y-64732732D01*
X96769432Y-64732734D01*
X96899954Y-64919141D01*
X97060858Y-65080045D01*
X97060861Y-65080047D01*
X97247266Y-65210568D01*
X97305278Y-65237619D01*
X97357713Y-65283788D01*
X97376866Y-65350982D01*
X97356651Y-65417863D01*
X97305277Y-65462380D01*
X97247268Y-65489430D01*
X97247265Y-65489432D01*
X97060858Y-65619954D01*
X96899954Y-65780858D01*
X96769432Y-65967265D01*
X96769431Y-65967267D01*
X96673261Y-66173502D01*
X96673258Y-66173511D01*
X96614366Y-66393302D01*
X96614364Y-66393313D01*
X96594532Y-66619998D01*
X96594532Y-66620001D01*
X96614364Y-66846686D01*
X96614366Y-66846697D01*
X96673258Y-67066488D01*
X96673261Y-67066497D01*
X96769431Y-67272732D01*
X96769432Y-67272734D01*
X96899954Y-67459141D01*
X97060858Y-67620045D01*
X97060861Y-67620047D01*
X97247266Y-67750568D01*
X97305275Y-67777618D01*
X97357714Y-67823791D01*
X97376866Y-67890984D01*
X97356650Y-67957865D01*
X97305275Y-68002382D01*
X97247267Y-68029431D01*
X97247265Y-68029432D01*
X97060858Y-68159954D01*
X96899954Y-68320858D01*
X96769432Y-68507265D01*
X96769431Y-68507267D01*
X96673261Y-68713502D01*
X96673258Y-68713511D01*
X96614366Y-68933302D01*
X96614364Y-68933313D01*
X96594532Y-69159998D01*
X96594532Y-69160001D01*
X96614364Y-69386686D01*
X96614366Y-69386697D01*
X96673258Y-69606488D01*
X96673261Y-69606497D01*
X96769431Y-69812732D01*
X96769432Y-69812734D01*
X96899954Y-69999141D01*
X97060858Y-70160045D01*
X97060861Y-70160047D01*
X97247266Y-70290568D01*
X97305275Y-70317618D01*
X97357714Y-70363791D01*
X97376866Y-70430984D01*
X97356650Y-70497865D01*
X97305275Y-70542382D01*
X97247267Y-70569431D01*
X97247265Y-70569432D01*
X97060858Y-70699954D01*
X96899954Y-70860858D01*
X96769432Y-71047265D01*
X96769431Y-71047267D01*
X96673261Y-71253502D01*
X96673258Y-71253511D01*
X96614366Y-71473302D01*
X96614364Y-71473313D01*
X96594532Y-71699998D01*
X96594532Y-71700001D01*
X96614364Y-71926686D01*
X96614366Y-71926697D01*
X96673258Y-72146488D01*
X96673261Y-72146497D01*
X96769431Y-72352732D01*
X96769432Y-72352734D01*
X96899954Y-72539141D01*
X97060858Y-72700045D01*
X97060861Y-72700047D01*
X97247266Y-72830568D01*
X97305865Y-72857893D01*
X97358305Y-72904065D01*
X97377457Y-72971258D01*
X97357242Y-73038139D01*
X97305867Y-73082657D01*
X97247515Y-73109867D01*
X97061179Y-73240342D01*
X96900342Y-73401179D01*
X96769865Y-73587517D01*
X96673734Y-73793673D01*
X96673730Y-73793682D01*
X96621127Y-73989999D01*
X96621128Y-73990000D01*
X97286653Y-73990000D01*
X97353692Y-74009685D01*
X97399447Y-74062489D01*
X97409391Y-74131647D01*
X97405631Y-74148933D01*
X97400000Y-74168111D01*
X97400000Y-74311888D01*
X97405631Y-74331067D01*
X97405630Y-74400936D01*
X97367855Y-74459714D01*
X97304299Y-74488738D01*
X97286653Y-74490000D01*
X96621128Y-74490000D01*
X96673730Y-74686317D01*
X96673734Y-74686326D01*
X96769865Y-74892482D01*
X96900342Y-75078820D01*
X97061179Y-75239657D01*
X97247518Y-75370134D01*
X97247520Y-75370135D01*
X97305865Y-75397342D01*
X97358305Y-75443514D01*
X97377457Y-75510707D01*
X97357242Y-75577589D01*
X97305867Y-75622105D01*
X97247268Y-75649431D01*
X97247264Y-75649433D01*
X97060858Y-75779954D01*
X96899954Y-75940858D01*
X96769432Y-76127265D01*
X96769431Y-76127267D01*
X96673261Y-76333502D01*
X96673258Y-76333511D01*
X96614366Y-76553302D01*
X96614364Y-76553313D01*
X96594532Y-76779998D01*
X96594532Y-76780001D01*
X96614364Y-77006686D01*
X96614366Y-77006697D01*
X96673258Y-77226488D01*
X96673261Y-77226497D01*
X96769431Y-77432732D01*
X96769432Y-77432734D01*
X96899954Y-77619141D01*
X97060858Y-77780045D01*
X97060861Y-77780047D01*
X97247266Y-77910568D01*
X97305275Y-77937618D01*
X97357714Y-77983791D01*
X97376866Y-78050984D01*
X97356650Y-78117865D01*
X97305275Y-78162382D01*
X97247267Y-78189431D01*
X97247265Y-78189432D01*
X97060858Y-78319954D01*
X96899954Y-78480858D01*
X96769432Y-78667265D01*
X96769431Y-78667267D01*
X96673261Y-78873502D01*
X96673258Y-78873511D01*
X96614366Y-79093302D01*
X96614364Y-79093313D01*
X96594532Y-79319998D01*
X96594532Y-79320001D01*
X96614364Y-79546686D01*
X96614366Y-79546697D01*
X96673258Y-79766488D01*
X96673261Y-79766497D01*
X96769431Y-79972732D01*
X96769432Y-79972734D01*
X96899954Y-80159141D01*
X97060858Y-80320045D01*
X97085462Y-80337273D01*
X97129087Y-80391849D01*
X97136281Y-80461348D01*
X97104758Y-80523703D01*
X97044529Y-80559117D01*
X97027593Y-80562138D01*
X96992516Y-80565908D01*
X96857671Y-80616202D01*
X96857664Y-80616206D01*
X96742455Y-80702452D01*
X96742452Y-80702455D01*
X96656206Y-80817664D01*
X96656202Y-80817671D01*
X96605908Y-80952517D01*
X96601435Y-80994126D01*
X96599501Y-81012123D01*
X96599500Y-81012135D01*
X96599500Y-82707870D01*
X96599501Y-82707876D01*
X96605346Y-82762247D01*
X96592939Y-82831006D01*
X96545328Y-82882143D01*
X96482056Y-82899500D01*
X83874362Y-82899500D01*
X83807323Y-82879815D01*
X83786685Y-82863185D01*
X83718211Y-82794711D01*
X83684728Y-82733392D01*
X83689712Y-82663700D01*
X83704315Y-82635915D01*
X83790568Y-82512734D01*
X83886739Y-82306496D01*
X83945635Y-82086692D01*
X83965468Y-81860000D01*
X83945635Y-81633308D01*
X83886739Y-81413504D01*
X83790568Y-81207266D01*
X83660047Y-81020861D01*
X83660045Y-81020858D01*
X83499141Y-80859954D01*
X83312734Y-80729432D01*
X83312732Y-80729431D01*
X83275008Y-80711840D01*
X83254132Y-80702105D01*
X83201694Y-80655934D01*
X83182542Y-80588740D01*
X83202758Y-80521859D01*
X83254134Y-80477341D01*
X83312484Y-80450132D01*
X83498820Y-80319657D01*
X83659657Y-80158820D01*
X83790134Y-79972482D01*
X83886265Y-79766326D01*
X83886269Y-79766317D01*
X83938872Y-79570000D01*
X83273347Y-79570000D01*
X83206308Y-79550315D01*
X83160553Y-79497511D01*
X83150609Y-79428353D01*
X83154369Y-79411067D01*
X83160000Y-79391888D01*
X83160000Y-79248111D01*
X83154369Y-79228933D01*
X83154370Y-79159064D01*
X83192145Y-79100286D01*
X83255701Y-79071262D01*
X83273347Y-79070000D01*
X83938872Y-79070000D01*
X83938872Y-79069999D01*
X83886269Y-78873682D01*
X83886265Y-78873673D01*
X83790134Y-78667517D01*
X83659657Y-78481179D01*
X83498820Y-78320342D01*
X83312482Y-78189865D01*
X83254133Y-78162657D01*
X83201694Y-78116484D01*
X83182542Y-78049291D01*
X83202758Y-77982410D01*
X83254129Y-77937895D01*
X83312734Y-77910568D01*
X83499139Y-77780047D01*
X83660047Y-77619139D01*
X83790568Y-77432734D01*
X83886739Y-77226496D01*
X83945635Y-77006692D01*
X83965468Y-76780000D01*
X83945635Y-76553308D01*
X83899133Y-76379758D01*
X83886741Y-76333511D01*
X83886738Y-76333502D01*
X83864608Y-76286045D01*
X83790568Y-76127266D01*
X83660047Y-75940861D01*
X83660045Y-75940858D01*
X83499141Y-75779954D01*
X83312734Y-75649432D01*
X83312728Y-75649429D01*
X83254725Y-75622382D01*
X83202285Y-75576210D01*
X83183133Y-75509017D01*
X83203348Y-75442135D01*
X83254725Y-75397618D01*
X83255319Y-75397341D01*
X83312734Y-75370568D01*
X83499139Y-75240047D01*
X83660047Y-75079139D01*
X83790568Y-74892734D01*
X83886739Y-74686496D01*
X83945635Y-74466692D01*
X83962634Y-74272384D01*
X83965468Y-74240001D01*
X83965468Y-74239998D01*
X83955503Y-74126097D01*
X83945635Y-74013308D01*
X83886739Y-73793504D01*
X83790568Y-73587266D01*
X83660047Y-73400861D01*
X83660045Y-73400858D01*
X83499141Y-73239954D01*
X83312734Y-73109432D01*
X83312728Y-73109429D01*
X83254725Y-73082382D01*
X83202285Y-73036210D01*
X83183133Y-72969017D01*
X83203348Y-72902135D01*
X83254725Y-72857618D01*
X83312734Y-72830568D01*
X83499139Y-72700047D01*
X83660047Y-72539139D01*
X83790568Y-72352734D01*
X83886739Y-72146496D01*
X83945635Y-71926692D01*
X83965468Y-71700000D01*
X83945635Y-71473308D01*
X83886739Y-71253504D01*
X83790568Y-71047266D01*
X83660047Y-70860861D01*
X83660045Y-70860858D01*
X83499141Y-70699954D01*
X83312734Y-70569432D01*
X83312728Y-70569429D01*
X83254725Y-70542382D01*
X83202285Y-70496210D01*
X83183133Y-70429017D01*
X83203348Y-70362135D01*
X83254725Y-70317618D01*
X83312734Y-70290568D01*
X83499139Y-70160047D01*
X83660047Y-69999139D01*
X83790568Y-69812734D01*
X83886739Y-69606496D01*
X83945635Y-69386692D01*
X83965468Y-69160000D01*
X83945635Y-68933308D01*
X83886739Y-68713504D01*
X83790568Y-68507266D01*
X83660047Y-68320861D01*
X83660045Y-68320858D01*
X83499141Y-68159954D01*
X83312734Y-68029432D01*
X83312728Y-68029429D01*
X83254725Y-68002382D01*
X83202285Y-67956210D01*
X83183133Y-67889017D01*
X83203348Y-67822135D01*
X83254725Y-67777618D01*
X83312734Y-67750568D01*
X83499139Y-67620047D01*
X83660047Y-67459139D01*
X83790568Y-67272734D01*
X83886739Y-67066496D01*
X83945635Y-66846692D01*
X83965468Y-66620000D01*
X83945635Y-66393308D01*
X83886739Y-66173504D01*
X83790568Y-65967266D01*
X83660047Y-65780861D01*
X83660045Y-65780858D01*
X83499141Y-65619954D01*
X83312735Y-65489433D01*
X83312736Y-65489433D01*
X83312734Y-65489432D01*
X83254722Y-65462380D01*
X83202284Y-65416208D01*
X83183133Y-65349014D01*
X83203349Y-65282133D01*
X83254721Y-65237619D01*
X83312734Y-65210568D01*
X83499139Y-65080047D01*
X83660047Y-64919139D01*
X83790568Y-64732734D01*
X83886739Y-64526496D01*
X83945635Y-64306692D01*
X83965468Y-64080000D01*
X83945635Y-63853308D01*
X83886739Y-63633504D01*
X83790568Y-63427266D01*
X83660047Y-63240861D01*
X83660045Y-63240858D01*
X83499141Y-63079954D01*
X83312735Y-62949433D01*
X83312736Y-62949433D01*
X83312734Y-62949432D01*
X83254722Y-62922380D01*
X83202284Y-62876208D01*
X83183133Y-62809014D01*
X83203349Y-62742133D01*
X83254721Y-62697619D01*
X83312734Y-62670568D01*
X83499139Y-62540047D01*
X83660047Y-62379139D01*
X83790568Y-62192734D01*
X83886739Y-61986496D01*
X83945635Y-61766692D01*
X83965468Y-61540000D01*
X83945635Y-61313308D01*
X83886739Y-61093504D01*
X83790568Y-60887266D01*
X83660047Y-60700861D01*
X83660045Y-60700858D01*
X83499141Y-60539954D01*
X83312734Y-60409432D01*
X83312728Y-60409429D01*
X83254725Y-60382382D01*
X83202285Y-60336210D01*
X83183133Y-60269017D01*
X83203348Y-60202135D01*
X83254725Y-60157618D01*
X83312734Y-60130568D01*
X83499139Y-60000047D01*
X83660047Y-59839139D01*
X83790568Y-59652734D01*
X83886739Y-59446496D01*
X83945635Y-59226692D01*
X83965468Y-59000000D01*
X83945635Y-58773308D01*
X83886739Y-58553504D01*
X83790568Y-58347266D01*
X83660047Y-58160861D01*
X83660045Y-58160858D01*
X83499141Y-57999954D01*
X83312734Y-57869432D01*
X83312728Y-57869429D01*
X83254725Y-57842382D01*
X83202285Y-57796210D01*
X83183133Y-57729017D01*
X83203348Y-57662135D01*
X83254725Y-57617618D01*
X83312734Y-57590568D01*
X83499139Y-57460047D01*
X83660047Y-57299139D01*
X83790568Y-57112734D01*
X83886739Y-56906496D01*
X83945635Y-56686692D01*
X83965468Y-56460000D01*
X83945635Y-56233308D01*
X83886739Y-56013504D01*
X83790568Y-55807266D01*
X83660047Y-55620861D01*
X83660045Y-55620858D01*
X83499141Y-55459954D01*
X83312734Y-55329432D01*
X83312728Y-55329429D01*
X83254725Y-55302382D01*
X83202285Y-55256210D01*
X83183133Y-55189017D01*
X83203348Y-55122135D01*
X83254725Y-55077618D01*
X83312734Y-55050568D01*
X83499139Y-54920047D01*
X83660047Y-54759139D01*
X83790568Y-54572734D01*
X83886739Y-54366496D01*
X83945635Y-54146692D01*
X83965468Y-53920000D01*
X83945635Y-53693308D01*
X83886739Y-53473504D01*
X83790568Y-53267266D01*
X83660047Y-53080861D01*
X83660045Y-53080858D01*
X83499141Y-52919954D01*
X83312734Y-52789432D01*
X83312728Y-52789429D01*
X83254725Y-52762382D01*
X83202285Y-52716210D01*
X83183133Y-52649017D01*
X83203348Y-52582135D01*
X83254725Y-52537618D01*
X83312734Y-52510568D01*
X83499139Y-52380047D01*
X83660047Y-52219139D01*
X83790568Y-52032734D01*
X83886739Y-51826496D01*
X83945635Y-51606692D01*
X83965468Y-51380000D01*
X83945635Y-51153308D01*
X83886739Y-50933504D01*
X83790568Y-50727266D01*
X83660047Y-50540861D01*
X83660045Y-50540858D01*
X83499141Y-50379954D01*
X83312734Y-50249432D01*
X83312728Y-50249429D01*
X83254725Y-50222382D01*
X83202285Y-50176210D01*
X83183133Y-50109017D01*
X83203348Y-50042135D01*
X83254725Y-49997618D01*
X83312734Y-49970568D01*
X83499139Y-49840047D01*
X83660047Y-49679139D01*
X83790568Y-49492734D01*
X83886739Y-49286496D01*
X83945635Y-49066692D01*
X83965468Y-48840000D01*
X83945635Y-48613308D01*
X83886739Y-48393504D01*
X83790568Y-48187266D01*
X83660047Y-48000861D01*
X83660045Y-48000858D01*
X83499141Y-47839954D01*
X83312734Y-47709432D01*
X83312728Y-47709429D01*
X83254725Y-47682382D01*
X83202285Y-47636210D01*
X83183133Y-47569017D01*
X83203348Y-47502135D01*
X83254725Y-47457618D01*
X83312734Y-47430568D01*
X83499139Y-47300047D01*
X83660047Y-47139139D01*
X83790568Y-46952734D01*
X83886739Y-46746496D01*
X83945635Y-46526692D01*
X83965468Y-46300000D01*
X83945635Y-46073308D01*
X83927318Y-46004947D01*
X83928981Y-45935101D01*
X83959410Y-45885178D01*
X84557770Y-45286819D01*
X84619094Y-45253334D01*
X84645452Y-45250500D01*
X96810951Y-45250500D01*
X96877990Y-45270185D01*
G37*
%TD.AperFunction*%
%TA.AperFunction,Conductor*%
G36*
X112134855Y-49006546D02*
G01*
X112151575Y-49025842D01*
X112281500Y-49211395D01*
X112281505Y-49211401D01*
X112448599Y-49378495D01*
X112504048Y-49417321D01*
X112566623Y-49461137D01*
X112610248Y-49515714D01*
X112619499Y-49562711D01*
X112619499Y-55288480D01*
X112599814Y-55355519D01*
X112583180Y-55376161D01*
X107530966Y-60428375D01*
X107528240Y-60430942D01*
X107481818Y-60472068D01*
X107446586Y-60523109D01*
X107444368Y-60526124D01*
X107406124Y-60574939D01*
X107406119Y-60574948D01*
X107401960Y-60584188D01*
X107390942Y-60603723D01*
X107385187Y-60612061D01*
X107385183Y-60612067D01*
X107385182Y-60612070D01*
X107385180Y-60612074D01*
X107385179Y-60612077D01*
X107363189Y-60670055D01*
X107361757Y-60673513D01*
X107336305Y-60730068D01*
X107334477Y-60740042D01*
X107328453Y-60761653D01*
X107324860Y-60771127D01*
X107324859Y-60771128D01*
X107317384Y-60832685D01*
X107316821Y-60836386D01*
X107305642Y-60897390D01*
X107305642Y-60897395D01*
X107309386Y-60959303D01*
X107309499Y-60963047D01*
X107309499Y-74177288D01*
X107289814Y-74244327D01*
X107256624Y-74278862D01*
X107138599Y-74361505D01*
X107016284Y-74483819D01*
X106954960Y-74517303D01*
X106885269Y-74512318D01*
X106829335Y-74470447D01*
X106812421Y-74439470D01*
X106763354Y-74307913D01*
X106763350Y-74307906D01*
X106677190Y-74192812D01*
X106677187Y-74192809D01*
X106562093Y-74106649D01*
X106562086Y-74106645D01*
X106427379Y-74056403D01*
X106427372Y-74056401D01*
X106367844Y-74050000D01*
X105720000Y-74050000D01*
X105720000Y-74787698D01*
X105700315Y-74854737D01*
X105647511Y-74900492D01*
X105578355Y-74910436D01*
X105505766Y-74900000D01*
X105505763Y-74900000D01*
X105434237Y-74900000D01*
X105361646Y-74910437D01*
X105292487Y-74900493D01*
X105239683Y-74854738D01*
X105219999Y-74787699D01*
X105220000Y-74050000D01*
X104572155Y-74050000D01*
X104512627Y-74056401D01*
X104512620Y-74056403D01*
X104377913Y-74106645D01*
X104377906Y-74106649D01*
X104262812Y-74192809D01*
X104262809Y-74192812D01*
X104176649Y-74307906D01*
X104176645Y-74307913D01*
X104126403Y-74442620D01*
X104126401Y-74442627D01*
X104120000Y-74502155D01*
X104120000Y-74502172D01*
X104119999Y-75150000D01*
X104856653Y-75150000D01*
X104923692Y-75169685D01*
X104969447Y-75222489D01*
X104979391Y-75291647D01*
X104975631Y-75308933D01*
X104970000Y-75328111D01*
X104970000Y-75471888D01*
X104975631Y-75491067D01*
X104975630Y-75560936D01*
X104937855Y-75619714D01*
X104874299Y-75648738D01*
X104856653Y-75650000D01*
X104120000Y-75650000D01*
X104120000Y-76297844D01*
X104126401Y-76357372D01*
X104126403Y-76357379D01*
X104176645Y-76492086D01*
X104176649Y-76492093D01*
X104262809Y-76607187D01*
X104262812Y-76607190D01*
X104377906Y-76693350D01*
X104377913Y-76693354D01*
X104512620Y-76743596D01*
X104512627Y-76743598D01*
X104572155Y-76749999D01*
X104572172Y-76750000D01*
X105219999Y-76750000D01*
X105219999Y-76012301D01*
X105239683Y-75945262D01*
X105292487Y-75899507D01*
X105361646Y-75889563D01*
X105368380Y-75890531D01*
X105434237Y-75900000D01*
X105434238Y-75900000D01*
X105505762Y-75900000D01*
X105505763Y-75900000D01*
X105578353Y-75889563D01*
X105647512Y-75899507D01*
X105700315Y-75945262D01*
X105720000Y-76012301D01*
X105720000Y-76750000D01*
X106367828Y-76750000D01*
X106367844Y-76749999D01*
X106427372Y-76743598D01*
X106427379Y-76743596D01*
X106562086Y-76693354D01*
X106562093Y-76693350D01*
X106677187Y-76607190D01*
X106677190Y-76607187D01*
X106763350Y-76492093D01*
X106763354Y-76492086D01*
X106812422Y-76360529D01*
X106854293Y-76304595D01*
X106919757Y-76280178D01*
X106988030Y-76295030D01*
X107016284Y-76316181D01*
X107138599Y-76438495D01*
X107170394Y-76460758D01*
X107332165Y-76574032D01*
X107332167Y-76574033D01*
X107332170Y-76574035D01*
X107546337Y-76673903D01*
X107774592Y-76735063D01*
X107806306Y-76737837D01*
X107871374Y-76763288D01*
X107912354Y-76819878D01*
X107919500Y-76861365D01*
X107919500Y-78417209D01*
X107899815Y-78484248D01*
X107847011Y-78530003D01*
X107838833Y-78533391D01*
X107777671Y-78556202D01*
X107777665Y-78556205D01*
X107728004Y-78593381D01*
X107662539Y-78617797D01*
X107608902Y-78609740D01*
X107422324Y-78537460D01*
X107221928Y-78500000D01*
X107018072Y-78500000D01*
X106817678Y-78537460D01*
X106627588Y-78611100D01*
X106627584Y-78611102D01*
X106539310Y-78665758D01*
X107009736Y-79136183D01*
X107043221Y-79197506D01*
X107038237Y-79267197D01*
X106996366Y-79323131D01*
X106987334Y-79329290D01*
X106914390Y-79374456D01*
X106839874Y-79473132D01*
X106836484Y-79470572D01*
X106804007Y-79505488D01*
X106736315Y-79522798D01*
X106670011Y-79500763D01*
X106653004Y-79486556D01*
X106182533Y-79016085D01*
X106182532Y-79016085D01*
X106180756Y-79018439D01*
X106180754Y-79018442D01*
X106089886Y-79200930D01*
X106089883Y-79200936D01*
X106034097Y-79397007D01*
X106034096Y-79397010D01*
X106015287Y-79599999D01*
X106015287Y-79600000D01*
X106034096Y-79802989D01*
X106034097Y-79802992D01*
X106089883Y-79999063D01*
X106089886Y-79999069D01*
X106180754Y-80181556D01*
X106180755Y-80181557D01*
X106182533Y-80183912D01*
X106656879Y-79709566D01*
X106718202Y-79676081D01*
X106787893Y-79681065D01*
X106843827Y-79722936D01*
X106855560Y-79741974D01*
X106876448Y-79783922D01*
X106876449Y-79783923D01*
X106959332Y-79859483D01*
X106959333Y-79859483D01*
X106959334Y-79859484D01*
X106965485Y-79861866D01*
X107020887Y-79904437D01*
X107044479Y-79970203D01*
X107028771Y-80038284D01*
X107008375Y-80065175D01*
X106539311Y-80534239D01*
X106542440Y-80561209D01*
X106530612Y-80630071D01*
X106483433Y-80681606D01*
X106419266Y-80699500D01*
X106180627Y-80699500D01*
X106161228Y-80697973D01*
X106147389Y-80695781D01*
X106147388Y-80695781D01*
X106078046Y-80699415D01*
X106074803Y-80699500D01*
X106052808Y-80699500D01*
X106037403Y-80701118D01*
X106030933Y-80701798D01*
X106027702Y-80702052D01*
X105958356Y-80705687D01*
X105944809Y-80709317D01*
X105925686Y-80712860D01*
X105911745Y-80714325D01*
X105911743Y-80714325D01*
X105845702Y-80735784D01*
X105842590Y-80736705D01*
X105775517Y-80754677D01*
X105775503Y-80754683D01*
X105763022Y-80761043D01*
X105745049Y-80768488D01*
X105731715Y-80772820D01*
X105671592Y-80807533D01*
X105668740Y-80809082D01*
X105606853Y-80840616D01*
X105606837Y-80840626D01*
X105595948Y-80849444D01*
X105579923Y-80860458D01*
X105567785Y-80867466D01*
X105567781Y-80867469D01*
X105516172Y-80913936D01*
X105513710Y-80916039D01*
X105496627Y-80929875D01*
X105496610Y-80929890D01*
X105481065Y-80945435D01*
X105478713Y-80947666D01*
X105427114Y-80994126D01*
X105418869Y-81005474D01*
X105406236Y-81020263D01*
X104020263Y-82406236D01*
X104005474Y-82418869D01*
X103994126Y-82427114D01*
X103947666Y-82478713D01*
X103945435Y-82481065D01*
X103929890Y-82496610D01*
X103929875Y-82496627D01*
X103916039Y-82513710D01*
X103913936Y-82516172D01*
X103867469Y-82567781D01*
X103867466Y-82567785D01*
X103860458Y-82579923D01*
X103849444Y-82595948D01*
X103840626Y-82606837D01*
X103840613Y-82606857D01*
X103827905Y-82631798D01*
X103779929Y-82682593D01*
X103717429Y-82699500D01*
X103702133Y-82699500D01*
X103702123Y-82699501D01*
X103642516Y-82705908D01*
X103507671Y-82756202D01*
X103507664Y-82756206D01*
X103392457Y-82842451D01*
X103392451Y-82842457D01*
X103386948Y-82849809D01*
X103331015Y-82891681D01*
X103287680Y-82899500D01*
X99317943Y-82899500D01*
X99250904Y-82879815D01*
X99205149Y-82827011D01*
X99194654Y-82762244D01*
X99195304Y-82756204D01*
X99200500Y-82707873D01*
X99200499Y-81012128D01*
X99194091Y-80952517D01*
X99191874Y-80946574D01*
X99143797Y-80817671D01*
X99143793Y-80817664D01*
X99057547Y-80702455D01*
X99057544Y-80702452D01*
X98942335Y-80616206D01*
X98942328Y-80616202D01*
X98807482Y-80565908D01*
X98807483Y-80565908D01*
X98772404Y-80562137D01*
X98707853Y-80535399D01*
X98668005Y-80478006D01*
X98665512Y-80408181D01*
X98701165Y-80348092D01*
X98714539Y-80337272D01*
X98739140Y-80320046D01*
X98900045Y-80159141D01*
X98900044Y-80159141D01*
X98900047Y-80159139D01*
X99030568Y-79972734D01*
X99126739Y-79766496D01*
X99185635Y-79546692D01*
X99205468Y-79320000D01*
X99185635Y-79093308D01*
X99132512Y-78895048D01*
X99126741Y-78873511D01*
X99126738Y-78873502D01*
X99108933Y-78835320D01*
X99030568Y-78667266D01*
X98913448Y-78500000D01*
X98900045Y-78480858D01*
X98739141Y-78319954D01*
X98552734Y-78189432D01*
X98552728Y-78189429D01*
X98494725Y-78162382D01*
X98442285Y-78116210D01*
X98423133Y-78049017D01*
X98443348Y-77982135D01*
X98494725Y-77937618D01*
X98552734Y-77910568D01*
X98739139Y-77780047D01*
X98900047Y-77619139D01*
X99030568Y-77432734D01*
X99126739Y-77226496D01*
X99185635Y-77006692D01*
X99205468Y-76780000D01*
X99185635Y-76553308D01*
X99139133Y-76379758D01*
X99126741Y-76333511D01*
X99126738Y-76333502D01*
X99104608Y-76286045D01*
X99030568Y-76127266D01*
X98900047Y-75940861D01*
X98900045Y-75940858D01*
X98739141Y-75779954D01*
X98552734Y-75649432D01*
X98552732Y-75649431D01*
X98522670Y-75635413D01*
X98494132Y-75622105D01*
X98441694Y-75575934D01*
X98422542Y-75508740D01*
X98442758Y-75441859D01*
X98494134Y-75397341D01*
X98552484Y-75370132D01*
X98738820Y-75239657D01*
X98899657Y-75078820D01*
X99030134Y-74892482D01*
X99126265Y-74686326D01*
X99126269Y-74686317D01*
X99178872Y-74490000D01*
X98513347Y-74490000D01*
X98446308Y-74470315D01*
X98400553Y-74417511D01*
X98390609Y-74348353D01*
X98394369Y-74331067D01*
X98400000Y-74311888D01*
X98400000Y-74168111D01*
X98394369Y-74148933D01*
X98394370Y-74079064D01*
X98432145Y-74020286D01*
X98495701Y-73991262D01*
X98513347Y-73990000D01*
X99178872Y-73990000D01*
X99178872Y-73989999D01*
X99126269Y-73793682D01*
X99126265Y-73793673D01*
X99030134Y-73587517D01*
X98899657Y-73401179D01*
X98738820Y-73240342D01*
X98552482Y-73109865D01*
X98494133Y-73082657D01*
X98441694Y-73036484D01*
X98422542Y-72969291D01*
X98442758Y-72902410D01*
X98494129Y-72857895D01*
X98552734Y-72830568D01*
X98739139Y-72700047D01*
X98900047Y-72539139D01*
X99030568Y-72352734D01*
X99126739Y-72146496D01*
X99185635Y-71926692D01*
X99205468Y-71700000D01*
X99185635Y-71473308D01*
X99126739Y-71253504D01*
X99030568Y-71047266D01*
X98900047Y-70860861D01*
X98900045Y-70860858D01*
X98739141Y-70699954D01*
X98552734Y-70569432D01*
X98552728Y-70569429D01*
X98494725Y-70542382D01*
X98442285Y-70496210D01*
X98423133Y-70429017D01*
X98443348Y-70362135D01*
X98494725Y-70317618D01*
X98552734Y-70290568D01*
X98739139Y-70160047D01*
X98900047Y-69999139D01*
X99030568Y-69812734D01*
X99126739Y-69606496D01*
X99185635Y-69386692D01*
X99205468Y-69160000D01*
X99185635Y-68933308D01*
X99126739Y-68713504D01*
X99030568Y-68507266D01*
X98900047Y-68320861D01*
X98900045Y-68320858D01*
X98739141Y-68159954D01*
X98552734Y-68029432D01*
X98552728Y-68029429D01*
X98494725Y-68002382D01*
X98442285Y-67956210D01*
X98423133Y-67889017D01*
X98443348Y-67822135D01*
X98494725Y-67777618D01*
X98552734Y-67750568D01*
X98739139Y-67620047D01*
X98900047Y-67459139D01*
X99030568Y-67272734D01*
X99126739Y-67066496D01*
X99185635Y-66846692D01*
X99205468Y-66620000D01*
X99185635Y-66393308D01*
X99126739Y-66173504D01*
X99030568Y-65967266D01*
X98900047Y-65780861D01*
X98900045Y-65780858D01*
X98739141Y-65619954D01*
X98552735Y-65489433D01*
X98552736Y-65489433D01*
X98552734Y-65489432D01*
X98494722Y-65462380D01*
X98442284Y-65416208D01*
X98423133Y-65349014D01*
X98443349Y-65282133D01*
X98494721Y-65237619D01*
X98552734Y-65210568D01*
X98739139Y-65080047D01*
X98900047Y-64919139D01*
X99030568Y-64732734D01*
X99126739Y-64526496D01*
X99185635Y-64306692D01*
X99205468Y-64080000D01*
X99185635Y-63853308D01*
X99126739Y-63633504D01*
X99030568Y-63427266D01*
X98900047Y-63240861D01*
X98900045Y-63240858D01*
X98739141Y-63079954D01*
X98552735Y-62949433D01*
X98552736Y-62949433D01*
X98552734Y-62949432D01*
X98494722Y-62922380D01*
X98442284Y-62876208D01*
X98423133Y-62809014D01*
X98443349Y-62742133D01*
X98494721Y-62697619D01*
X98552734Y-62670568D01*
X98739139Y-62540047D01*
X98900047Y-62379139D01*
X99030568Y-62192734D01*
X99126739Y-61986496D01*
X99185635Y-61766692D01*
X99205468Y-61540000D01*
X99185635Y-61313308D01*
X99126739Y-61093504D01*
X99030568Y-60887266D01*
X98900047Y-60700861D01*
X98900045Y-60700858D01*
X98739141Y-60539954D01*
X98632546Y-60465317D01*
X98552734Y-60409432D01*
X98494722Y-60382380D01*
X98442284Y-60336208D01*
X98423133Y-60269014D01*
X98443349Y-60202133D01*
X98494721Y-60157619D01*
X98552734Y-60130568D01*
X98739139Y-60000047D01*
X98900047Y-59839139D01*
X99030568Y-59652734D01*
X99126739Y-59446496D01*
X99185635Y-59226692D01*
X99205468Y-59000000D01*
X99185635Y-58773308D01*
X99126739Y-58553504D01*
X99030568Y-58347266D01*
X98900047Y-58160861D01*
X98900045Y-58160858D01*
X98739141Y-57999954D01*
X98552734Y-57869432D01*
X98552728Y-57869429D01*
X98494725Y-57842382D01*
X98442285Y-57796210D01*
X98423133Y-57729017D01*
X98443348Y-57662135D01*
X98494725Y-57617618D01*
X98552734Y-57590568D01*
X98739139Y-57460047D01*
X98900047Y-57299139D01*
X99030568Y-57112734D01*
X99126739Y-56906496D01*
X99185635Y-56686692D01*
X99205468Y-56460000D01*
X99185635Y-56233308D01*
X99126739Y-56013504D01*
X99030568Y-55807266D01*
X98900047Y-55620861D01*
X98900045Y-55620858D01*
X98739141Y-55459954D01*
X98552734Y-55329432D01*
X98552728Y-55329429D01*
X98494725Y-55302382D01*
X98442285Y-55256210D01*
X98423133Y-55189017D01*
X98443348Y-55122135D01*
X98494725Y-55077618D01*
X98552734Y-55050568D01*
X98739139Y-54920047D01*
X98900047Y-54759139D01*
X99030568Y-54572734D01*
X99126739Y-54366496D01*
X99185635Y-54146692D01*
X99205468Y-53920000D01*
X99185635Y-53693308D01*
X99126739Y-53473504D01*
X99030568Y-53267266D01*
X98900047Y-53080861D01*
X98900045Y-53080858D01*
X98739141Y-52919954D01*
X98552734Y-52789432D01*
X98552728Y-52789429D01*
X98494725Y-52762382D01*
X98442285Y-52716210D01*
X98423133Y-52649017D01*
X98443348Y-52582135D01*
X98494725Y-52537618D01*
X98552734Y-52510568D01*
X98739139Y-52380047D01*
X98900047Y-52219139D01*
X99012612Y-52058377D01*
X99067189Y-52014752D01*
X99114188Y-52005500D01*
X107657257Y-52005500D01*
X107672877Y-52007224D01*
X107672904Y-52006939D01*
X107680660Y-52007671D01*
X107680667Y-52007673D01*
X107749814Y-52005500D01*
X107779350Y-52005500D01*
X107786228Y-52004630D01*
X107792041Y-52004172D01*
X107838627Y-52002709D01*
X107857869Y-51997117D01*
X107876912Y-51993174D01*
X107896792Y-51990664D01*
X107940122Y-51973507D01*
X107945646Y-51971617D01*
X107949396Y-51970527D01*
X107990390Y-51958618D01*
X108007629Y-51948422D01*
X108025103Y-51939862D01*
X108043727Y-51932488D01*
X108043727Y-51932487D01*
X108043732Y-51932486D01*
X108081449Y-51905082D01*
X108086305Y-51901892D01*
X108126420Y-51878170D01*
X108140589Y-51863999D01*
X108155379Y-51851368D01*
X108171587Y-51839594D01*
X108201299Y-51803676D01*
X108205212Y-51799376D01*
X110324354Y-49680235D01*
X110385675Y-49646752D01*
X110444123Y-49648142D01*
X110544592Y-49675063D01*
X110732918Y-49691539D01*
X110779999Y-49695659D01*
X110780000Y-49695659D01*
X110780001Y-49695659D01*
X110819234Y-49692226D01*
X111015408Y-49675063D01*
X111243663Y-49613903D01*
X111457830Y-49514035D01*
X111651401Y-49378495D01*
X111818495Y-49211401D01*
X111948424Y-49025842D01*
X112003002Y-48982217D01*
X112072500Y-48975023D01*
X112134855Y-49006546D01*
G37*
%TD.AperFunction*%
%TA.AperFunction,Conductor*%
G36*
X104354536Y-47810185D02*
G01*
X104400291Y-47862989D01*
X104410235Y-47932147D01*
X104407272Y-47946593D01*
X104364938Y-48104586D01*
X104364936Y-48104596D01*
X104344341Y-48339999D01*
X104344341Y-48340000D01*
X104364936Y-48575403D01*
X104364938Y-48575413D01*
X104426094Y-48803655D01*
X104426096Y-48803659D01*
X104426097Y-48803663D01*
X104473107Y-48904476D01*
X104525965Y-49017830D01*
X104525967Y-49017834D01*
X104634281Y-49172521D01*
X104661505Y-49211401D01*
X104828599Y-49378495D01*
X104925384Y-49446264D01*
X105022165Y-49514032D01*
X105022167Y-49514033D01*
X105022170Y-49514035D01*
X105236337Y-49613903D01*
X105464592Y-49675063D01*
X105652918Y-49691539D01*
X105699999Y-49695659D01*
X105700000Y-49695659D01*
X105700001Y-49695659D01*
X105739234Y-49692226D01*
X105935408Y-49675063D01*
X106163663Y-49613903D01*
X106377830Y-49514035D01*
X106571401Y-49378495D01*
X106738495Y-49211401D01*
X106868424Y-49025842D01*
X106923002Y-48982217D01*
X106992500Y-48975023D01*
X107054855Y-49006546D01*
X107071575Y-49025842D01*
X107201500Y-49211395D01*
X107201505Y-49211401D01*
X107368599Y-49378495D01*
X107465384Y-49446264D01*
X107562165Y-49514032D01*
X107562167Y-49514033D01*
X107562170Y-49514035D01*
X107776337Y-49613903D01*
X108004592Y-49675063D01*
X108192918Y-49691539D01*
X108239999Y-49695659D01*
X108240387Y-49695659D01*
X108240551Y-49695707D01*
X108245394Y-49696131D01*
X108245308Y-49697104D01*
X108307426Y-49715344D01*
X108353181Y-49768148D01*
X108363125Y-49837306D01*
X108334100Y-49900862D01*
X108328068Y-49907340D01*
X107517228Y-50718181D01*
X107455905Y-50751666D01*
X107429547Y-50754500D01*
X99114188Y-50754500D01*
X99047149Y-50734815D01*
X99012613Y-50701623D01*
X98900045Y-50540858D01*
X98739141Y-50379954D01*
X98552734Y-50249432D01*
X98552728Y-50249429D01*
X98494725Y-50222382D01*
X98442285Y-50176210D01*
X98423133Y-50109017D01*
X98443348Y-50042135D01*
X98494725Y-49997618D01*
X98552734Y-49970568D01*
X98739139Y-49840047D01*
X98900047Y-49679139D01*
X99030568Y-49492734D01*
X99126739Y-49286496D01*
X99185635Y-49066692D01*
X99205468Y-48840000D01*
X99185635Y-48613308D01*
X99167318Y-48544947D01*
X99168981Y-48475101D01*
X99199410Y-48425178D01*
X99797770Y-47826819D01*
X99859094Y-47793334D01*
X99885452Y-47790500D01*
X104287497Y-47790500D01*
X104354536Y-47810185D01*
G37*
%TD.AperFunction*%
%TD*%
M02*
