%TF.GenerationSoftware,KiCad,Pcbnew,7.0.7*%
%TF.CreationDate,2023-10-16T17:55:10+02:00*%
%TF.ProjectId,arduino-nano-radio-receiver,61726475-696e-46f2-9d6e-616e6f2d7261,0*%
%TF.SameCoordinates,Original*%
%TF.FileFunction,Drillmap*%
%TF.FilePolarity,Positive*%
%FSLAX45Y45*%
G04 Gerber Fmt 4.5, Leading zero omitted, Abs format (unit mm)*
G04 Created by KiCad (PCBNEW 7.0.7) date 2023-10-16 17:55:10*
%MOMM*%
%LPD*%
G01*
G04 APERTURE LIST*
%ADD10C,0.100000*%
%ADD11C,0.200000*%
%ADD12C,0.320000*%
G04 APERTURE END LIST*
D10*
X7920000Y-8950000D02*
X7946482Y-3596482D01*
D11*
X8436482Y-3106482D02*
G75*
G03*
X7946482Y-3596482I0J-490000D01*
G01*
D10*
X8436482Y-3106482D02*
X11230000Y-3109974D01*
X8410000Y-9440000D02*
X11240000Y-9440000D01*
X11720000Y-3605000D02*
X11710008Y-8950400D01*
D11*
X11720000Y-3605000D02*
G75*
G03*
X11230000Y-3109974I-490000J5000D01*
G01*
X7920000Y-8950000D02*
G75*
G03*
X8410000Y-9440000I490000J0D01*
G01*
X11240000Y-9440000D02*
G75*
G03*
X11710008Y-8950400I-10000J480000D01*
G01*
D12*
X8250000Y-8790000D02*
X8570000Y-9110000D01*
X8570000Y-8790000D02*
X8250000Y-9110000D01*
X8276482Y-3436482D02*
X8596482Y-3756482D01*
X8596482Y-3436482D02*
X8276482Y-3756482D01*
X11070000Y-3440000D02*
X11390000Y-3760000D01*
X11390000Y-3440000D02*
X11070000Y-3760000D01*
X11070000Y-8800000D02*
X11390000Y-9120000D01*
X11390000Y-8800000D02*
X11070000Y-9120000D01*
D11*
X8170777Y-9761484D02*
X8170777Y-9561484D01*
X8170777Y-9561484D02*
X8218396Y-9561484D01*
X8218396Y-9561484D02*
X8246967Y-9571008D01*
X8246967Y-9571008D02*
X8266015Y-9590055D01*
X8266015Y-9590055D02*
X8275539Y-9609103D01*
X8275539Y-9609103D02*
X8285062Y-9647198D01*
X8285062Y-9647198D02*
X8285062Y-9675770D01*
X8285062Y-9675770D02*
X8275539Y-9713865D01*
X8275539Y-9713865D02*
X8266015Y-9732912D01*
X8266015Y-9732912D02*
X8246967Y-9751960D01*
X8246967Y-9751960D02*
X8218396Y-9761484D01*
X8218396Y-9761484D02*
X8170777Y-9761484D01*
X8370777Y-9761484D02*
X8370777Y-9628150D01*
X8370777Y-9666246D02*
X8380301Y-9647198D01*
X8380301Y-9647198D02*
X8389824Y-9637674D01*
X8389824Y-9637674D02*
X8408872Y-9628150D01*
X8408872Y-9628150D02*
X8427920Y-9628150D01*
X8494586Y-9761484D02*
X8494586Y-9628150D01*
X8494586Y-9561484D02*
X8485063Y-9571008D01*
X8485063Y-9571008D02*
X8494586Y-9580531D01*
X8494586Y-9580531D02*
X8504110Y-9571008D01*
X8504110Y-9571008D02*
X8494586Y-9561484D01*
X8494586Y-9561484D02*
X8494586Y-9580531D01*
X8618396Y-9761484D02*
X8599348Y-9751960D01*
X8599348Y-9751960D02*
X8589824Y-9732912D01*
X8589824Y-9732912D02*
X8589824Y-9561484D01*
X8723158Y-9761484D02*
X8704110Y-9751960D01*
X8704110Y-9751960D02*
X8694586Y-9732912D01*
X8694586Y-9732912D02*
X8694586Y-9561484D01*
X8951729Y-9761484D02*
X8951729Y-9561484D01*
X8951729Y-9561484D02*
X9018396Y-9704341D01*
X9018396Y-9704341D02*
X9085063Y-9561484D01*
X9085063Y-9561484D02*
X9085063Y-9761484D01*
X9266015Y-9761484D02*
X9266015Y-9656722D01*
X9266015Y-9656722D02*
X9256491Y-9637674D01*
X9256491Y-9637674D02*
X9237444Y-9628150D01*
X9237444Y-9628150D02*
X9199348Y-9628150D01*
X9199348Y-9628150D02*
X9180301Y-9637674D01*
X9266015Y-9751960D02*
X9246967Y-9761484D01*
X9246967Y-9761484D02*
X9199348Y-9761484D01*
X9199348Y-9761484D02*
X9180301Y-9751960D01*
X9180301Y-9751960D02*
X9170777Y-9732912D01*
X9170777Y-9732912D02*
X9170777Y-9713865D01*
X9170777Y-9713865D02*
X9180301Y-9694817D01*
X9180301Y-9694817D02*
X9199348Y-9685293D01*
X9199348Y-9685293D02*
X9246967Y-9685293D01*
X9246967Y-9685293D02*
X9266015Y-9675770D01*
X9361253Y-9628150D02*
X9361253Y-9828150D01*
X9361253Y-9637674D02*
X9380301Y-9628150D01*
X9380301Y-9628150D02*
X9418396Y-9628150D01*
X9418396Y-9628150D02*
X9437444Y-9637674D01*
X9437444Y-9637674D02*
X9446967Y-9647198D01*
X9446967Y-9647198D02*
X9456491Y-9666246D01*
X9456491Y-9666246D02*
X9456491Y-9723389D01*
X9456491Y-9723389D02*
X9446967Y-9742436D01*
X9446967Y-9742436D02*
X9437444Y-9751960D01*
X9437444Y-9751960D02*
X9418396Y-9761484D01*
X9418396Y-9761484D02*
X9380301Y-9761484D01*
X9380301Y-9761484D02*
X9361253Y-9751960D01*
X9542205Y-9742436D02*
X9551729Y-9751960D01*
X9551729Y-9751960D02*
X9542205Y-9761484D01*
X9542205Y-9761484D02*
X9532682Y-9751960D01*
X9532682Y-9751960D02*
X9542205Y-9742436D01*
X9542205Y-9742436D02*
X9542205Y-9761484D01*
X9542205Y-9637674D02*
X9551729Y-9647198D01*
X9551729Y-9647198D02*
X9542205Y-9656722D01*
X9542205Y-9656722D02*
X9532682Y-9647198D01*
X9532682Y-9647198D02*
X9542205Y-9637674D01*
X9542205Y-9637674D02*
X9542205Y-9656722D01*
X7710000Y-9990000D02*
X7910000Y-10190000D01*
X7910000Y-9990000D02*
X7710000Y-10190000D01*
X8151729Y-9981484D02*
X8275539Y-9981484D01*
X8275539Y-9981484D02*
X8208872Y-10057674D01*
X8208872Y-10057674D02*
X8237443Y-10057674D01*
X8237443Y-10057674D02*
X8256491Y-10067198D01*
X8256491Y-10067198D02*
X8266015Y-10076722D01*
X8266015Y-10076722D02*
X8275539Y-10095770D01*
X8275539Y-10095770D02*
X8275539Y-10143389D01*
X8275539Y-10143389D02*
X8266015Y-10162436D01*
X8266015Y-10162436D02*
X8256491Y-10171960D01*
X8256491Y-10171960D02*
X8237443Y-10181484D01*
X8237443Y-10181484D02*
X8180301Y-10181484D01*
X8180301Y-10181484D02*
X8161253Y-10171960D01*
X8161253Y-10171960D02*
X8151729Y-10162436D01*
X8361253Y-10162436D02*
X8370777Y-10171960D01*
X8370777Y-10171960D02*
X8361253Y-10181484D01*
X8361253Y-10181484D02*
X8351729Y-10171960D01*
X8351729Y-10171960D02*
X8361253Y-10162436D01*
X8361253Y-10162436D02*
X8361253Y-10181484D01*
X8446967Y-10000531D02*
X8456491Y-9991008D01*
X8456491Y-9991008D02*
X8475539Y-9981484D01*
X8475539Y-9981484D02*
X8523158Y-9981484D01*
X8523158Y-9981484D02*
X8542205Y-9991008D01*
X8542205Y-9991008D02*
X8551729Y-10000531D01*
X8551729Y-10000531D02*
X8561253Y-10019579D01*
X8561253Y-10019579D02*
X8561253Y-10038627D01*
X8561253Y-10038627D02*
X8551729Y-10067198D01*
X8551729Y-10067198D02*
X8437444Y-10181484D01*
X8437444Y-10181484D02*
X8561253Y-10181484D01*
X8685063Y-9981484D02*
X8704110Y-9981484D01*
X8704110Y-9981484D02*
X8723158Y-9991008D01*
X8723158Y-9991008D02*
X8732682Y-10000531D01*
X8732682Y-10000531D02*
X8742205Y-10019579D01*
X8742205Y-10019579D02*
X8751729Y-10057674D01*
X8751729Y-10057674D02*
X8751729Y-10105293D01*
X8751729Y-10105293D02*
X8742205Y-10143389D01*
X8742205Y-10143389D02*
X8732682Y-10162436D01*
X8732682Y-10162436D02*
X8723158Y-10171960D01*
X8723158Y-10171960D02*
X8704110Y-10181484D01*
X8704110Y-10181484D02*
X8685063Y-10181484D01*
X8685063Y-10181484D02*
X8666015Y-10171960D01*
X8666015Y-10171960D02*
X8656491Y-10162436D01*
X8656491Y-10162436D02*
X8646967Y-10143389D01*
X8646967Y-10143389D02*
X8637444Y-10105293D01*
X8637444Y-10105293D02*
X8637444Y-10057674D01*
X8637444Y-10057674D02*
X8646967Y-10019579D01*
X8646967Y-10019579D02*
X8656491Y-10000531D01*
X8656491Y-10000531D02*
X8666015Y-9991008D01*
X8666015Y-9991008D02*
X8685063Y-9981484D01*
X8875539Y-9981484D02*
X8894586Y-9981484D01*
X8894586Y-9981484D02*
X8913634Y-9991008D01*
X8913634Y-9991008D02*
X8923158Y-10000531D01*
X8923158Y-10000531D02*
X8932682Y-10019579D01*
X8932682Y-10019579D02*
X8942205Y-10057674D01*
X8942205Y-10057674D02*
X8942205Y-10105293D01*
X8942205Y-10105293D02*
X8932682Y-10143389D01*
X8932682Y-10143389D02*
X8923158Y-10162436D01*
X8923158Y-10162436D02*
X8913634Y-10171960D01*
X8913634Y-10171960D02*
X8894586Y-10181484D01*
X8894586Y-10181484D02*
X8875539Y-10181484D01*
X8875539Y-10181484D02*
X8856491Y-10171960D01*
X8856491Y-10171960D02*
X8846967Y-10162436D01*
X8846967Y-10162436D02*
X8837444Y-10143389D01*
X8837444Y-10143389D02*
X8827920Y-10105293D01*
X8827920Y-10105293D02*
X8827920Y-10057674D01*
X8827920Y-10057674D02*
X8837444Y-10019579D01*
X8837444Y-10019579D02*
X8846967Y-10000531D01*
X8846967Y-10000531D02*
X8856491Y-9991008D01*
X8856491Y-9991008D02*
X8875539Y-9981484D01*
X9027920Y-10181484D02*
X9027920Y-10048150D01*
X9027920Y-10067198D02*
X9037444Y-10057674D01*
X9037444Y-10057674D02*
X9056491Y-10048150D01*
X9056491Y-10048150D02*
X9085063Y-10048150D01*
X9085063Y-10048150D02*
X9104110Y-10057674D01*
X9104110Y-10057674D02*
X9113634Y-10076722D01*
X9113634Y-10076722D02*
X9113634Y-10181484D01*
X9113634Y-10076722D02*
X9123158Y-10057674D01*
X9123158Y-10057674D02*
X9142205Y-10048150D01*
X9142205Y-10048150D02*
X9170777Y-10048150D01*
X9170777Y-10048150D02*
X9189825Y-10057674D01*
X9189825Y-10057674D02*
X9199348Y-10076722D01*
X9199348Y-10076722D02*
X9199348Y-10181484D01*
X9294586Y-10181484D02*
X9294586Y-10048150D01*
X9294586Y-10067198D02*
X9304110Y-10057674D01*
X9304110Y-10057674D02*
X9323158Y-10048150D01*
X9323158Y-10048150D02*
X9351729Y-10048150D01*
X9351729Y-10048150D02*
X9370777Y-10057674D01*
X9370777Y-10057674D02*
X9380301Y-10076722D01*
X9380301Y-10076722D02*
X9380301Y-10181484D01*
X9380301Y-10076722D02*
X9389825Y-10057674D01*
X9389825Y-10057674D02*
X9408872Y-10048150D01*
X9408872Y-10048150D02*
X9437444Y-10048150D01*
X9437444Y-10048150D02*
X9456491Y-10057674D01*
X9456491Y-10057674D02*
X9466015Y-10076722D01*
X9466015Y-10076722D02*
X9466015Y-10181484D01*
X9856491Y-9971960D02*
X9685063Y-10229103D01*
X10113634Y-9981484D02*
X10132682Y-9981484D01*
X10132682Y-9981484D02*
X10151729Y-9991008D01*
X10151729Y-9991008D02*
X10161253Y-10000531D01*
X10161253Y-10000531D02*
X10170777Y-10019579D01*
X10170777Y-10019579D02*
X10180301Y-10057674D01*
X10180301Y-10057674D02*
X10180301Y-10105293D01*
X10180301Y-10105293D02*
X10170777Y-10143389D01*
X10170777Y-10143389D02*
X10161253Y-10162436D01*
X10161253Y-10162436D02*
X10151729Y-10171960D01*
X10151729Y-10171960D02*
X10132682Y-10181484D01*
X10132682Y-10181484D02*
X10113634Y-10181484D01*
X10113634Y-10181484D02*
X10094587Y-10171960D01*
X10094587Y-10171960D02*
X10085063Y-10162436D01*
X10085063Y-10162436D02*
X10075539Y-10143389D01*
X10075539Y-10143389D02*
X10066015Y-10105293D01*
X10066015Y-10105293D02*
X10066015Y-10057674D01*
X10066015Y-10057674D02*
X10075539Y-10019579D01*
X10075539Y-10019579D02*
X10085063Y-10000531D01*
X10085063Y-10000531D02*
X10094587Y-9991008D01*
X10094587Y-9991008D02*
X10113634Y-9981484D01*
X10266015Y-10162436D02*
X10275539Y-10171960D01*
X10275539Y-10171960D02*
X10266015Y-10181484D01*
X10266015Y-10181484D02*
X10256491Y-10171960D01*
X10256491Y-10171960D02*
X10266015Y-10162436D01*
X10266015Y-10162436D02*
X10266015Y-10181484D01*
X10466015Y-10181484D02*
X10351729Y-10181484D01*
X10408872Y-10181484D02*
X10408872Y-9981484D01*
X10408872Y-9981484D02*
X10389825Y-10010055D01*
X10389825Y-10010055D02*
X10370777Y-10029103D01*
X10370777Y-10029103D02*
X10351729Y-10038627D01*
X10542206Y-10000531D02*
X10551729Y-9991008D01*
X10551729Y-9991008D02*
X10570777Y-9981484D01*
X10570777Y-9981484D02*
X10618396Y-9981484D01*
X10618396Y-9981484D02*
X10637444Y-9991008D01*
X10637444Y-9991008D02*
X10646968Y-10000531D01*
X10646968Y-10000531D02*
X10656491Y-10019579D01*
X10656491Y-10019579D02*
X10656491Y-10038627D01*
X10656491Y-10038627D02*
X10646968Y-10067198D01*
X10646968Y-10067198D02*
X10532682Y-10181484D01*
X10532682Y-10181484D02*
X10656491Y-10181484D01*
X10827920Y-9981484D02*
X10789825Y-9981484D01*
X10789825Y-9981484D02*
X10770777Y-9991008D01*
X10770777Y-9991008D02*
X10761253Y-10000531D01*
X10761253Y-10000531D02*
X10742206Y-10029103D01*
X10742206Y-10029103D02*
X10732682Y-10067198D01*
X10732682Y-10067198D02*
X10732682Y-10143389D01*
X10732682Y-10143389D02*
X10742206Y-10162436D01*
X10742206Y-10162436D02*
X10751729Y-10171960D01*
X10751729Y-10171960D02*
X10770777Y-10181484D01*
X10770777Y-10181484D02*
X10808872Y-10181484D01*
X10808872Y-10181484D02*
X10827920Y-10171960D01*
X10827920Y-10171960D02*
X10837444Y-10162436D01*
X10837444Y-10162436D02*
X10846968Y-10143389D01*
X10846968Y-10143389D02*
X10846968Y-10095770D01*
X10846968Y-10095770D02*
X10837444Y-10076722D01*
X10837444Y-10076722D02*
X10827920Y-10067198D01*
X10827920Y-10067198D02*
X10808872Y-10057674D01*
X10808872Y-10057674D02*
X10770777Y-10057674D01*
X10770777Y-10057674D02*
X10751729Y-10067198D01*
X10751729Y-10067198D02*
X10742206Y-10076722D01*
X10742206Y-10076722D02*
X10732682Y-10095770D01*
X10970777Y-9981484D02*
X10989825Y-9981484D01*
X10989825Y-9981484D02*
X11008872Y-9991008D01*
X11008872Y-9991008D02*
X11018396Y-10000531D01*
X11018396Y-10000531D02*
X11027920Y-10019579D01*
X11027920Y-10019579D02*
X11037444Y-10057674D01*
X11037444Y-10057674D02*
X11037444Y-10105293D01*
X11037444Y-10105293D02*
X11027920Y-10143389D01*
X11027920Y-10143389D02*
X11018396Y-10162436D01*
X11018396Y-10162436D02*
X11008872Y-10171960D01*
X11008872Y-10171960D02*
X10989825Y-10181484D01*
X10989825Y-10181484D02*
X10970777Y-10181484D01*
X10970777Y-10181484D02*
X10951729Y-10171960D01*
X10951729Y-10171960D02*
X10942206Y-10162436D01*
X10942206Y-10162436D02*
X10932682Y-10143389D01*
X10932682Y-10143389D02*
X10923158Y-10105293D01*
X10923158Y-10105293D02*
X10923158Y-10057674D01*
X10923158Y-10057674D02*
X10932682Y-10019579D01*
X10932682Y-10019579D02*
X10942206Y-10000531D01*
X10942206Y-10000531D02*
X10951729Y-9991008D01*
X10951729Y-9991008D02*
X10970777Y-9981484D01*
X11113634Y-9981484D02*
X11113634Y-10019579D01*
X11189825Y-9981484D02*
X11189825Y-10019579D01*
X11485063Y-10257674D02*
X11475539Y-10248150D01*
X11475539Y-10248150D02*
X11456491Y-10219579D01*
X11456491Y-10219579D02*
X11446968Y-10200531D01*
X11446968Y-10200531D02*
X11437444Y-10171960D01*
X11437444Y-10171960D02*
X11427920Y-10124341D01*
X11427920Y-10124341D02*
X11427920Y-10086246D01*
X11427920Y-10086246D02*
X11437444Y-10038627D01*
X11437444Y-10038627D02*
X11446968Y-10010055D01*
X11446968Y-10010055D02*
X11456491Y-9991008D01*
X11456491Y-9991008D02*
X11475539Y-9962436D01*
X11475539Y-9962436D02*
X11485063Y-9952912D01*
X11646968Y-10048150D02*
X11646968Y-10181484D01*
X11599348Y-9971960D02*
X11551729Y-10114817D01*
X11551729Y-10114817D02*
X11675539Y-10114817D01*
X11904110Y-10181484D02*
X11904110Y-9981484D01*
X11989825Y-10181484D02*
X11989825Y-10076722D01*
X11989825Y-10076722D02*
X11980301Y-10057674D01*
X11980301Y-10057674D02*
X11961253Y-10048150D01*
X11961253Y-10048150D02*
X11932682Y-10048150D01*
X11932682Y-10048150D02*
X11913634Y-10057674D01*
X11913634Y-10057674D02*
X11904110Y-10067198D01*
X12113634Y-10181484D02*
X12094587Y-10171960D01*
X12094587Y-10171960D02*
X12085063Y-10162436D01*
X12085063Y-10162436D02*
X12075539Y-10143389D01*
X12075539Y-10143389D02*
X12075539Y-10086246D01*
X12075539Y-10086246D02*
X12085063Y-10067198D01*
X12085063Y-10067198D02*
X12094587Y-10057674D01*
X12094587Y-10057674D02*
X12113634Y-10048150D01*
X12113634Y-10048150D02*
X12142206Y-10048150D01*
X12142206Y-10048150D02*
X12161253Y-10057674D01*
X12161253Y-10057674D02*
X12170777Y-10067198D01*
X12170777Y-10067198D02*
X12180301Y-10086246D01*
X12180301Y-10086246D02*
X12180301Y-10143389D01*
X12180301Y-10143389D02*
X12170777Y-10162436D01*
X12170777Y-10162436D02*
X12161253Y-10171960D01*
X12161253Y-10171960D02*
X12142206Y-10181484D01*
X12142206Y-10181484D02*
X12113634Y-10181484D01*
X12294587Y-10181484D02*
X12275539Y-10171960D01*
X12275539Y-10171960D02*
X12266015Y-10152912D01*
X12266015Y-10152912D02*
X12266015Y-9981484D01*
X12446968Y-10171960D02*
X12427920Y-10181484D01*
X12427920Y-10181484D02*
X12389825Y-10181484D01*
X12389825Y-10181484D02*
X12370777Y-10171960D01*
X12370777Y-10171960D02*
X12361253Y-10152912D01*
X12361253Y-10152912D02*
X12361253Y-10076722D01*
X12361253Y-10076722D02*
X12370777Y-10057674D01*
X12370777Y-10057674D02*
X12389825Y-10048150D01*
X12389825Y-10048150D02*
X12427920Y-10048150D01*
X12427920Y-10048150D02*
X12446968Y-10057674D01*
X12446968Y-10057674D02*
X12456491Y-10076722D01*
X12456491Y-10076722D02*
X12456491Y-10095770D01*
X12456491Y-10095770D02*
X12361253Y-10114817D01*
X12532682Y-10171960D02*
X12551730Y-10181484D01*
X12551730Y-10181484D02*
X12589825Y-10181484D01*
X12589825Y-10181484D02*
X12608872Y-10171960D01*
X12608872Y-10171960D02*
X12618396Y-10152912D01*
X12618396Y-10152912D02*
X12618396Y-10143389D01*
X12618396Y-10143389D02*
X12608872Y-10124341D01*
X12608872Y-10124341D02*
X12589825Y-10114817D01*
X12589825Y-10114817D02*
X12561253Y-10114817D01*
X12561253Y-10114817D02*
X12542206Y-10105293D01*
X12542206Y-10105293D02*
X12532682Y-10086246D01*
X12532682Y-10086246D02*
X12532682Y-10076722D01*
X12532682Y-10076722D02*
X12542206Y-10057674D01*
X12542206Y-10057674D02*
X12561253Y-10048150D01*
X12561253Y-10048150D02*
X12589825Y-10048150D01*
X12589825Y-10048150D02*
X12608872Y-10057674D01*
X12685063Y-10257674D02*
X12694587Y-10248150D01*
X12694587Y-10248150D02*
X12713634Y-10219579D01*
X12713634Y-10219579D02*
X12723158Y-10200531D01*
X12723158Y-10200531D02*
X12732682Y-10171960D01*
X12732682Y-10171960D02*
X12742206Y-10124341D01*
X12742206Y-10124341D02*
X12742206Y-10086246D01*
X12742206Y-10086246D02*
X12732682Y-10038627D01*
X12732682Y-10038627D02*
X12723158Y-10010055D01*
X12723158Y-10010055D02*
X12713634Y-9991008D01*
X12713634Y-9991008D02*
X12694587Y-9962436D01*
X12694587Y-9962436D02*
X12685063Y-9952912D01*
X13046968Y-10257674D02*
X13037444Y-10248150D01*
X13037444Y-10248150D02*
X13018396Y-10219579D01*
X13018396Y-10219579D02*
X13008872Y-10200531D01*
X13008872Y-10200531D02*
X12999349Y-10171960D01*
X12999349Y-10171960D02*
X12989825Y-10124341D01*
X12989825Y-10124341D02*
X12989825Y-10086246D01*
X12989825Y-10086246D02*
X12999349Y-10038627D01*
X12999349Y-10038627D02*
X13008872Y-10010055D01*
X13008872Y-10010055D02*
X13018396Y-9991008D01*
X13018396Y-9991008D02*
X13037444Y-9962436D01*
X13037444Y-9962436D02*
X13046968Y-9952912D01*
X13123158Y-10048150D02*
X13123158Y-10181484D01*
X13123158Y-10067198D02*
X13132682Y-10057674D01*
X13132682Y-10057674D02*
X13151730Y-10048150D01*
X13151730Y-10048150D02*
X13180301Y-10048150D01*
X13180301Y-10048150D02*
X13199349Y-10057674D01*
X13199349Y-10057674D02*
X13208872Y-10076722D01*
X13208872Y-10076722D02*
X13208872Y-10181484D01*
X13332682Y-10181484D02*
X13313634Y-10171960D01*
X13313634Y-10171960D02*
X13304111Y-10162436D01*
X13304111Y-10162436D02*
X13294587Y-10143389D01*
X13294587Y-10143389D02*
X13294587Y-10086246D01*
X13294587Y-10086246D02*
X13304111Y-10067198D01*
X13304111Y-10067198D02*
X13313634Y-10057674D01*
X13313634Y-10057674D02*
X13332682Y-10048150D01*
X13332682Y-10048150D02*
X13361253Y-10048150D01*
X13361253Y-10048150D02*
X13380301Y-10057674D01*
X13380301Y-10057674D02*
X13389825Y-10067198D01*
X13389825Y-10067198D02*
X13399349Y-10086246D01*
X13399349Y-10086246D02*
X13399349Y-10143389D01*
X13399349Y-10143389D02*
X13389825Y-10162436D01*
X13389825Y-10162436D02*
X13380301Y-10171960D01*
X13380301Y-10171960D02*
X13361253Y-10181484D01*
X13361253Y-10181484D02*
X13332682Y-10181484D01*
X13456492Y-10048150D02*
X13532682Y-10048150D01*
X13485063Y-9981484D02*
X13485063Y-10152912D01*
X13485063Y-10152912D02*
X13494587Y-10171960D01*
X13494587Y-10171960D02*
X13513634Y-10181484D01*
X13513634Y-10181484D02*
X13532682Y-10181484D01*
X13751730Y-10048150D02*
X13751730Y-10248150D01*
X13751730Y-10057674D02*
X13770777Y-10048150D01*
X13770777Y-10048150D02*
X13808873Y-10048150D01*
X13808873Y-10048150D02*
X13827920Y-10057674D01*
X13827920Y-10057674D02*
X13837444Y-10067198D01*
X13837444Y-10067198D02*
X13846968Y-10086246D01*
X13846968Y-10086246D02*
X13846968Y-10143389D01*
X13846968Y-10143389D02*
X13837444Y-10162436D01*
X13837444Y-10162436D02*
X13827920Y-10171960D01*
X13827920Y-10171960D02*
X13808873Y-10181484D01*
X13808873Y-10181484D02*
X13770777Y-10181484D01*
X13770777Y-10181484D02*
X13751730Y-10171960D01*
X13961253Y-10181484D02*
X13942206Y-10171960D01*
X13942206Y-10171960D02*
X13932682Y-10152912D01*
X13932682Y-10152912D02*
X13932682Y-9981484D01*
X14123158Y-10181484D02*
X14123158Y-10076722D01*
X14123158Y-10076722D02*
X14113634Y-10057674D01*
X14113634Y-10057674D02*
X14094587Y-10048150D01*
X14094587Y-10048150D02*
X14056492Y-10048150D01*
X14056492Y-10048150D02*
X14037444Y-10057674D01*
X14123158Y-10171960D02*
X14104111Y-10181484D01*
X14104111Y-10181484D02*
X14056492Y-10181484D01*
X14056492Y-10181484D02*
X14037444Y-10171960D01*
X14037444Y-10171960D02*
X14027920Y-10152912D01*
X14027920Y-10152912D02*
X14027920Y-10133865D01*
X14027920Y-10133865D02*
X14037444Y-10114817D01*
X14037444Y-10114817D02*
X14056492Y-10105293D01*
X14056492Y-10105293D02*
X14104111Y-10105293D01*
X14104111Y-10105293D02*
X14123158Y-10095770D01*
X14189825Y-10048150D02*
X14266015Y-10048150D01*
X14218396Y-9981484D02*
X14218396Y-10152912D01*
X14218396Y-10152912D02*
X14227920Y-10171960D01*
X14227920Y-10171960D02*
X14246968Y-10181484D01*
X14246968Y-10181484D02*
X14266015Y-10181484D01*
X14408873Y-10171960D02*
X14389825Y-10181484D01*
X14389825Y-10181484D02*
X14351730Y-10181484D01*
X14351730Y-10181484D02*
X14332682Y-10171960D01*
X14332682Y-10171960D02*
X14323158Y-10152912D01*
X14323158Y-10152912D02*
X14323158Y-10076722D01*
X14323158Y-10076722D02*
X14332682Y-10057674D01*
X14332682Y-10057674D02*
X14351730Y-10048150D01*
X14351730Y-10048150D02*
X14389825Y-10048150D01*
X14389825Y-10048150D02*
X14408873Y-10057674D01*
X14408873Y-10057674D02*
X14418396Y-10076722D01*
X14418396Y-10076722D02*
X14418396Y-10095770D01*
X14418396Y-10095770D02*
X14323158Y-10114817D01*
X14589825Y-10181484D02*
X14589825Y-9981484D01*
X14589825Y-10171960D02*
X14570777Y-10181484D01*
X14570777Y-10181484D02*
X14532682Y-10181484D01*
X14532682Y-10181484D02*
X14513634Y-10171960D01*
X14513634Y-10171960D02*
X14504111Y-10162436D01*
X14504111Y-10162436D02*
X14494587Y-10143389D01*
X14494587Y-10143389D02*
X14494587Y-10086246D01*
X14494587Y-10086246D02*
X14504111Y-10067198D01*
X14504111Y-10067198D02*
X14513634Y-10057674D01*
X14513634Y-10057674D02*
X14532682Y-10048150D01*
X14532682Y-10048150D02*
X14570777Y-10048150D01*
X14570777Y-10048150D02*
X14589825Y-10057674D01*
X14666015Y-10257674D02*
X14675539Y-10248150D01*
X14675539Y-10248150D02*
X14694587Y-10219579D01*
X14694587Y-10219579D02*
X14704111Y-10200531D01*
X14704111Y-10200531D02*
X14713634Y-10171960D01*
X14713634Y-10171960D02*
X14723158Y-10124341D01*
X14723158Y-10124341D02*
X14723158Y-10086246D01*
X14723158Y-10086246D02*
X14713634Y-10038627D01*
X14713634Y-10038627D02*
X14704111Y-10010055D01*
X14704111Y-10010055D02*
X14694587Y-9991008D01*
X14694587Y-9991008D02*
X14675539Y-9962436D01*
X14675539Y-9962436D02*
X14666015Y-9952912D01*
M02*
