M48
; DRILL file {KiCad 7.0.7} date Mon Oct 16 17:55:09 2023
; FORMAT={-:-/ absolute / metric / decimal}
; #@! TF.CreationDate,2023-10-16T17:55:09+02:00
; #@! TF.GenerationSoftware,Kicad,Pcbnew,7.0.7
; #@! TF.FileFunction,Plated,1,2,PTH
FMAT,2
METRIC
; #@! TA.AperFunction,Plated,PTH,ViaDrill
T1C0.400
; #@! TA.AperFunction,Plated,PTH,ComponentDrill
T2C0.600
; #@! TA.AperFunction,Plated,PTH,ComponentDrill
T3C1.000
%
G90
G05
T1
X82.2Y-40.8
X85.8Y-65.9
X86.3Y-46.8
X87.0Y-80.1
X88.6Y-36.9
X89.6Y-92.0
X90.4Y-52.7
X94.2Y-60.3
X95.2Y-75.9
X96.1Y-87.8
X97.9Y-38.8
X100.9Y-49.8
X101.5Y-81.1
X102.9Y-56.6
X105.2Y-77.75
X106.4Y-90.7
X106.5Y-36.7
X107.1Y-59.4
X111.7Y-53.25
X113.37Y-78.1
X113.8Y-61.2
X115.9Y-84.0
T2
X107.12Y-79.6
X108.62Y-79.6
X112.5Y-41.65
X114.0Y-41.65
T3
X82.66Y-46.3
X82.66Y-48.84
X82.66Y-51.38
X82.66Y-53.92
X82.66Y-56.46
X82.66Y-59.0
X82.66Y-61.54
X82.66Y-64.08
X82.66Y-66.62
X82.66Y-69.16
X82.66Y-71.7
X82.66Y-74.24
X82.66Y-76.78
X82.66Y-79.32
X82.66Y-81.86
X97.9Y-46.3
X97.9Y-48.84
X97.9Y-51.38
X97.9Y-53.92
X97.9Y-56.46
X97.9Y-59.0
X97.9Y-61.54
X97.9Y-64.08
X97.9Y-66.62
X97.9Y-69.16
X97.9Y-71.7
X97.9Y-74.24
X97.9Y-76.78
X97.9Y-79.32
X97.9Y-81.86
X104.6Y-84.05
X105.47Y-75.4
X105.7Y-45.8
X105.7Y-48.34
X107.14Y-84.05
X108.01Y-75.4
X108.24Y-45.8
X108.24Y-48.34
X110.55Y-75.4
X110.78Y-45.8
X110.78Y-48.34
X110.8Y-84.05
X113.32Y-45.8
X113.32Y-48.34
T0
M30
