%TF.GenerationSoftware,KiCad,Pcbnew,7.0.7*%
%TF.CreationDate,2023-10-16T17:55:10+02:00*%
%TF.ProjectId,arduino-nano-radio-receiver,61726475-696e-46f2-9d6e-616e6f2d7261,0*%
%TF.SameCoordinates,Original*%
%TF.FileFunction,Drillmap*%
%TF.FilePolarity,Positive*%
%FSLAX45Y45*%
G04 Gerber Fmt 4.5, Leading zero omitted, Abs format (unit mm)*
G04 Created by KiCad (PCBNEW 7.0.7) date 2023-10-16 17:55:10*
%MOMM*%
%LPD*%
G01*
G04 APERTURE LIST*
%ADD10C,0.100000*%
%ADD11C,0.200000*%
%ADD12C,0.040000*%
%ADD13C,0.060000*%
G04 APERTURE END LIST*
D10*
X7920000Y-8950000D02*
X7946482Y-3596482D01*
D11*
X8436482Y-3106482D02*
G75*
G03*
X7946482Y-3596482I0J-490000D01*
G01*
D10*
X8436482Y-3106482D02*
X11230000Y-3109974D01*
X8410000Y-9440000D02*
X11240000Y-9440000D01*
X11720000Y-3605000D02*
X11710008Y-8950400D01*
D11*
X11720000Y-3605000D02*
G75*
G03*
X11230000Y-3109974I-490000J5000D01*
G01*
X7920000Y-8950000D02*
G75*
G03*
X8410000Y-9440000I490000J0D01*
G01*
X11240000Y-9440000D02*
G75*
G03*
X11710008Y-8950400I-10000J480000D01*
G01*
D12*
X8200000Y-4060000D02*
X8240000Y-4100000D01*
X8240000Y-4060000D02*
X8200000Y-4100000D01*
X8560000Y-6570000D02*
X8600000Y-6610000D01*
X8600000Y-6570000D02*
X8560000Y-6610000D01*
X8610000Y-4660000D02*
X8650000Y-4700000D01*
X8650000Y-4660000D02*
X8610000Y-4700000D01*
X8680000Y-7990000D02*
X8720000Y-8030000D01*
X8720000Y-7990000D02*
X8680000Y-8030000D01*
X8840000Y-3670000D02*
X8880000Y-3710000D01*
X8880000Y-3670000D02*
X8840000Y-3710000D01*
X8940000Y-9180000D02*
X8980000Y-9220000D01*
X8980000Y-9180000D02*
X8940000Y-9220000D01*
X9020000Y-5250000D02*
X9060000Y-5290000D01*
X9060000Y-5250000D02*
X9020000Y-5290000D01*
X9400000Y-6010000D02*
X9440000Y-6050000D01*
X9440000Y-6010000D02*
X9400000Y-6050000D01*
X9500000Y-7570000D02*
X9540000Y-7610000D01*
X9540000Y-7570000D02*
X9500000Y-7610000D01*
X9590000Y-8760000D02*
X9630000Y-8800000D01*
X9630000Y-8760000D02*
X9590000Y-8800000D01*
X9770000Y-3860000D02*
X9810000Y-3900000D01*
X9810000Y-3860000D02*
X9770000Y-3900000D01*
X10070000Y-4960000D02*
X10110000Y-5000000D01*
X10110000Y-4960000D02*
X10070000Y-5000000D01*
X10130000Y-8090000D02*
X10170000Y-8130000D01*
X10170000Y-8090000D02*
X10130000Y-8130000D01*
X10270000Y-5640000D02*
X10310000Y-5680000D01*
X10310000Y-5640000D02*
X10270000Y-5680000D01*
X10500000Y-7755000D02*
X10540000Y-7795000D01*
X10540000Y-7755000D02*
X10500000Y-7795000D01*
X10620000Y-9050000D02*
X10660000Y-9090000D01*
X10660000Y-9050000D02*
X10620000Y-9090000D01*
X10630000Y-3650000D02*
X10670000Y-3690000D01*
X10670000Y-3650000D02*
X10630000Y-3690000D01*
X10690000Y-5920000D02*
X10730000Y-5960000D01*
X10730000Y-5920000D02*
X10690000Y-5960000D01*
X11150000Y-5305000D02*
X11190000Y-5345000D01*
X11190000Y-5305000D02*
X11150000Y-5345000D01*
X11317000Y-7790000D02*
X11357000Y-7830000D01*
X11357000Y-7790000D02*
X11317000Y-7830000D01*
X11360000Y-6100000D02*
X11400000Y-6140000D01*
X11400000Y-6100000D02*
X11360000Y-6140000D01*
X11570000Y-8380000D02*
X11610000Y-8420000D01*
X11610000Y-8380000D02*
X11570000Y-8420000D01*
D13*
X10742000Y-7960000D02*
G75*
G03*
X10742000Y-7960000I-30000J0D01*
G01*
X10892000Y-7960000D02*
G75*
G03*
X10892000Y-7960000I-30000J0D01*
G01*
X11280000Y-4165000D02*
G75*
G03*
X11280000Y-4165000I-30000J0D01*
G01*
X11430000Y-4165000D02*
G75*
G03*
X11430000Y-4165000I-30000J0D01*
G01*
D10*
X8266000Y-4580000D02*
X8266000Y-4680000D01*
X8216000Y-4630000D02*
X8316000Y-4630000D01*
X8266000Y-4834000D02*
X8266000Y-4934000D01*
X8216000Y-4884000D02*
X8316000Y-4884000D01*
X8266000Y-5088000D02*
X8266000Y-5188000D01*
X8216000Y-5138000D02*
X8316000Y-5138000D01*
X8266000Y-5342000D02*
X8266000Y-5442000D01*
X8216000Y-5392000D02*
X8316000Y-5392000D01*
X8266000Y-5596000D02*
X8266000Y-5696000D01*
X8216000Y-5646000D02*
X8316000Y-5646000D01*
X8266000Y-5850000D02*
X8266000Y-5950000D01*
X8216000Y-5900000D02*
X8316000Y-5900000D01*
X8266000Y-6104000D02*
X8266000Y-6204000D01*
X8216000Y-6154000D02*
X8316000Y-6154000D01*
X8266000Y-6358000D02*
X8266000Y-6458000D01*
X8216000Y-6408000D02*
X8316000Y-6408000D01*
X8266000Y-6612000D02*
X8266000Y-6712000D01*
X8216000Y-6662000D02*
X8316000Y-6662000D01*
X8266000Y-6866000D02*
X8266000Y-6966000D01*
X8216000Y-6916000D02*
X8316000Y-6916000D01*
X8266000Y-7120000D02*
X8266000Y-7220000D01*
X8216000Y-7170000D02*
X8316000Y-7170000D01*
X8266000Y-7374000D02*
X8266000Y-7474000D01*
X8216000Y-7424000D02*
X8316000Y-7424000D01*
X8266000Y-7628000D02*
X8266000Y-7728000D01*
X8216000Y-7678000D02*
X8316000Y-7678000D01*
X8266000Y-7882000D02*
X8266000Y-7982000D01*
X8216000Y-7932000D02*
X8316000Y-7932000D01*
X8266000Y-8136000D02*
X8266000Y-8236000D01*
X8216000Y-8186000D02*
X8316000Y-8186000D01*
X9790000Y-4580000D02*
X9790000Y-4680000D01*
X9740000Y-4630000D02*
X9840000Y-4630000D01*
X9790000Y-4834000D02*
X9790000Y-4934000D01*
X9740000Y-4884000D02*
X9840000Y-4884000D01*
X9790000Y-5088000D02*
X9790000Y-5188000D01*
X9740000Y-5138000D02*
X9840000Y-5138000D01*
X9790000Y-5342000D02*
X9790000Y-5442000D01*
X9740000Y-5392000D02*
X9840000Y-5392000D01*
X9790000Y-5596000D02*
X9790000Y-5696000D01*
X9740000Y-5646000D02*
X9840000Y-5646000D01*
X9790000Y-5850000D02*
X9790000Y-5950000D01*
X9740000Y-5900000D02*
X9840000Y-5900000D01*
X9790000Y-6104000D02*
X9790000Y-6204000D01*
X9740000Y-6154000D02*
X9840000Y-6154000D01*
X9790000Y-6358000D02*
X9790000Y-6458000D01*
X9740000Y-6408000D02*
X9840000Y-6408000D01*
X9790000Y-6612000D02*
X9790000Y-6712000D01*
X9740000Y-6662000D02*
X9840000Y-6662000D01*
X9790000Y-6866000D02*
X9790000Y-6966000D01*
X9740000Y-6916000D02*
X9840000Y-6916000D01*
X9790000Y-7120000D02*
X9790000Y-7220000D01*
X9740000Y-7170000D02*
X9840000Y-7170000D01*
X9790000Y-7374000D02*
X9790000Y-7474000D01*
X9740000Y-7424000D02*
X9840000Y-7424000D01*
X9790000Y-7628000D02*
X9790000Y-7728000D01*
X9740000Y-7678000D02*
X9840000Y-7678000D01*
X9790000Y-7882000D02*
X9790000Y-7982000D01*
X9740000Y-7932000D02*
X9840000Y-7932000D01*
X9790000Y-8136000D02*
X9790000Y-8236000D01*
X9740000Y-8186000D02*
X9840000Y-8186000D01*
X10460000Y-8355000D02*
X10460000Y-8455000D01*
X10410000Y-8405000D02*
X10510000Y-8405000D01*
X10547000Y-7490000D02*
X10547000Y-7590000D01*
X10497000Y-7540000D02*
X10597000Y-7540000D01*
X10570000Y-4530000D02*
X10570000Y-4630000D01*
X10520000Y-4580000D02*
X10620000Y-4580000D01*
X10570000Y-4784000D02*
X10570000Y-4884000D01*
X10520000Y-4834000D02*
X10620000Y-4834000D01*
X10714000Y-8355000D02*
X10714000Y-8455000D01*
X10664000Y-8405000D02*
X10764000Y-8405000D01*
X10801000Y-7490000D02*
X10801000Y-7590000D01*
X10751000Y-7540000D02*
X10851000Y-7540000D01*
X10824000Y-4530000D02*
X10824000Y-4630000D01*
X10774000Y-4580000D02*
X10874000Y-4580000D01*
X10824000Y-4784000D02*
X10824000Y-4884000D01*
X10774000Y-4834000D02*
X10874000Y-4834000D01*
X11055000Y-7490000D02*
X11055000Y-7590000D01*
X11005000Y-7540000D02*
X11105000Y-7540000D01*
X11078000Y-4530000D02*
X11078000Y-4630000D01*
X11028000Y-4580000D02*
X11128000Y-4580000D01*
X11078000Y-4784000D02*
X11078000Y-4884000D01*
X11028000Y-4834000D02*
X11128000Y-4834000D01*
X11080000Y-8355000D02*
X11080000Y-8455000D01*
X11030000Y-8405000D02*
X11130000Y-8405000D01*
X11332000Y-4530000D02*
X11332000Y-4630000D01*
X11282000Y-4580000D02*
X11382000Y-4580000D01*
X11332000Y-4784000D02*
X11332000Y-4884000D01*
X11282000Y-4834000D02*
X11382000Y-4834000D01*
D11*
X8170777Y-9761484D02*
X8170777Y-9561484D01*
X8170777Y-9561484D02*
X8218396Y-9561484D01*
X8218396Y-9561484D02*
X8246967Y-9571008D01*
X8246967Y-9571008D02*
X8266015Y-9590055D01*
X8266015Y-9590055D02*
X8275539Y-9609103D01*
X8275539Y-9609103D02*
X8285062Y-9647198D01*
X8285062Y-9647198D02*
X8285062Y-9675770D01*
X8285062Y-9675770D02*
X8275539Y-9713865D01*
X8275539Y-9713865D02*
X8266015Y-9732912D01*
X8266015Y-9732912D02*
X8246967Y-9751960D01*
X8246967Y-9751960D02*
X8218396Y-9761484D01*
X8218396Y-9761484D02*
X8170777Y-9761484D01*
X8370777Y-9761484D02*
X8370777Y-9628150D01*
X8370777Y-9666246D02*
X8380301Y-9647198D01*
X8380301Y-9647198D02*
X8389824Y-9637674D01*
X8389824Y-9637674D02*
X8408872Y-9628150D01*
X8408872Y-9628150D02*
X8427920Y-9628150D01*
X8494586Y-9761484D02*
X8494586Y-9628150D01*
X8494586Y-9561484D02*
X8485063Y-9571008D01*
X8485063Y-9571008D02*
X8494586Y-9580531D01*
X8494586Y-9580531D02*
X8504110Y-9571008D01*
X8504110Y-9571008D02*
X8494586Y-9561484D01*
X8494586Y-9561484D02*
X8494586Y-9580531D01*
X8618396Y-9761484D02*
X8599348Y-9751960D01*
X8599348Y-9751960D02*
X8589824Y-9732912D01*
X8589824Y-9732912D02*
X8589824Y-9561484D01*
X8723158Y-9761484D02*
X8704110Y-9751960D01*
X8704110Y-9751960D02*
X8694586Y-9732912D01*
X8694586Y-9732912D02*
X8694586Y-9561484D01*
X8951729Y-9761484D02*
X8951729Y-9561484D01*
X8951729Y-9561484D02*
X9018396Y-9704341D01*
X9018396Y-9704341D02*
X9085063Y-9561484D01*
X9085063Y-9561484D02*
X9085063Y-9761484D01*
X9266015Y-9761484D02*
X9266015Y-9656722D01*
X9266015Y-9656722D02*
X9256491Y-9637674D01*
X9256491Y-9637674D02*
X9237444Y-9628150D01*
X9237444Y-9628150D02*
X9199348Y-9628150D01*
X9199348Y-9628150D02*
X9180301Y-9637674D01*
X9266015Y-9751960D02*
X9246967Y-9761484D01*
X9246967Y-9761484D02*
X9199348Y-9761484D01*
X9199348Y-9761484D02*
X9180301Y-9751960D01*
X9180301Y-9751960D02*
X9170777Y-9732912D01*
X9170777Y-9732912D02*
X9170777Y-9713865D01*
X9170777Y-9713865D02*
X9180301Y-9694817D01*
X9180301Y-9694817D02*
X9199348Y-9685293D01*
X9199348Y-9685293D02*
X9246967Y-9685293D01*
X9246967Y-9685293D02*
X9266015Y-9675770D01*
X9361253Y-9628150D02*
X9361253Y-9828150D01*
X9361253Y-9637674D02*
X9380301Y-9628150D01*
X9380301Y-9628150D02*
X9418396Y-9628150D01*
X9418396Y-9628150D02*
X9437444Y-9637674D01*
X9437444Y-9637674D02*
X9446967Y-9647198D01*
X9446967Y-9647198D02*
X9456491Y-9666246D01*
X9456491Y-9666246D02*
X9456491Y-9723389D01*
X9456491Y-9723389D02*
X9446967Y-9742436D01*
X9446967Y-9742436D02*
X9437444Y-9751960D01*
X9437444Y-9751960D02*
X9418396Y-9761484D01*
X9418396Y-9761484D02*
X9380301Y-9761484D01*
X9380301Y-9761484D02*
X9361253Y-9751960D01*
X9542205Y-9742436D02*
X9551729Y-9751960D01*
X9551729Y-9751960D02*
X9542205Y-9761484D01*
X9542205Y-9761484D02*
X9532682Y-9751960D01*
X9532682Y-9751960D02*
X9542205Y-9742436D01*
X9542205Y-9742436D02*
X9542205Y-9761484D01*
X9542205Y-9637674D02*
X9551729Y-9647198D01*
X9551729Y-9647198D02*
X9542205Y-9656722D01*
X9542205Y-9656722D02*
X9532682Y-9647198D01*
X9532682Y-9647198D02*
X9542205Y-9637674D01*
X9542205Y-9637674D02*
X9542205Y-9656722D01*
D12*
X7870000Y-10070000D02*
X7910000Y-10110000D01*
X7910000Y-10070000D02*
X7870000Y-10110000D01*
D11*
X8208872Y-9981484D02*
X8227920Y-9981484D01*
X8227920Y-9981484D02*
X8246967Y-9991008D01*
X8246967Y-9991008D02*
X8256491Y-10000531D01*
X8256491Y-10000531D02*
X8266015Y-10019579D01*
X8266015Y-10019579D02*
X8275539Y-10057674D01*
X8275539Y-10057674D02*
X8275539Y-10105293D01*
X8275539Y-10105293D02*
X8266015Y-10143389D01*
X8266015Y-10143389D02*
X8256491Y-10162436D01*
X8256491Y-10162436D02*
X8246967Y-10171960D01*
X8246967Y-10171960D02*
X8227920Y-10181484D01*
X8227920Y-10181484D02*
X8208872Y-10181484D01*
X8208872Y-10181484D02*
X8189824Y-10171960D01*
X8189824Y-10171960D02*
X8180301Y-10162436D01*
X8180301Y-10162436D02*
X8170777Y-10143389D01*
X8170777Y-10143389D02*
X8161253Y-10105293D01*
X8161253Y-10105293D02*
X8161253Y-10057674D01*
X8161253Y-10057674D02*
X8170777Y-10019579D01*
X8170777Y-10019579D02*
X8180301Y-10000531D01*
X8180301Y-10000531D02*
X8189824Y-9991008D01*
X8189824Y-9991008D02*
X8208872Y-9981484D01*
X8361253Y-10162436D02*
X8370777Y-10171960D01*
X8370777Y-10171960D02*
X8361253Y-10181484D01*
X8361253Y-10181484D02*
X8351729Y-10171960D01*
X8351729Y-10171960D02*
X8361253Y-10162436D01*
X8361253Y-10162436D02*
X8361253Y-10181484D01*
X8542205Y-10048150D02*
X8542205Y-10181484D01*
X8494586Y-9971960D02*
X8446967Y-10114817D01*
X8446967Y-10114817D02*
X8570777Y-10114817D01*
X8685063Y-9981484D02*
X8704110Y-9981484D01*
X8704110Y-9981484D02*
X8723158Y-9991008D01*
X8723158Y-9991008D02*
X8732682Y-10000531D01*
X8732682Y-10000531D02*
X8742205Y-10019579D01*
X8742205Y-10019579D02*
X8751729Y-10057674D01*
X8751729Y-10057674D02*
X8751729Y-10105293D01*
X8751729Y-10105293D02*
X8742205Y-10143389D01*
X8742205Y-10143389D02*
X8732682Y-10162436D01*
X8732682Y-10162436D02*
X8723158Y-10171960D01*
X8723158Y-10171960D02*
X8704110Y-10181484D01*
X8704110Y-10181484D02*
X8685063Y-10181484D01*
X8685063Y-10181484D02*
X8666015Y-10171960D01*
X8666015Y-10171960D02*
X8656491Y-10162436D01*
X8656491Y-10162436D02*
X8646967Y-10143389D01*
X8646967Y-10143389D02*
X8637444Y-10105293D01*
X8637444Y-10105293D02*
X8637444Y-10057674D01*
X8637444Y-10057674D02*
X8646967Y-10019579D01*
X8646967Y-10019579D02*
X8656491Y-10000531D01*
X8656491Y-10000531D02*
X8666015Y-9991008D01*
X8666015Y-9991008D02*
X8685063Y-9981484D01*
X8875539Y-9981484D02*
X8894586Y-9981484D01*
X8894586Y-9981484D02*
X8913634Y-9991008D01*
X8913634Y-9991008D02*
X8923158Y-10000531D01*
X8923158Y-10000531D02*
X8932682Y-10019579D01*
X8932682Y-10019579D02*
X8942205Y-10057674D01*
X8942205Y-10057674D02*
X8942205Y-10105293D01*
X8942205Y-10105293D02*
X8932682Y-10143389D01*
X8932682Y-10143389D02*
X8923158Y-10162436D01*
X8923158Y-10162436D02*
X8913634Y-10171960D01*
X8913634Y-10171960D02*
X8894586Y-10181484D01*
X8894586Y-10181484D02*
X8875539Y-10181484D01*
X8875539Y-10181484D02*
X8856491Y-10171960D01*
X8856491Y-10171960D02*
X8846967Y-10162436D01*
X8846967Y-10162436D02*
X8837444Y-10143389D01*
X8837444Y-10143389D02*
X8827920Y-10105293D01*
X8827920Y-10105293D02*
X8827920Y-10057674D01*
X8827920Y-10057674D02*
X8837444Y-10019579D01*
X8837444Y-10019579D02*
X8846967Y-10000531D01*
X8846967Y-10000531D02*
X8856491Y-9991008D01*
X8856491Y-9991008D02*
X8875539Y-9981484D01*
X9027920Y-10181484D02*
X9027920Y-10048150D01*
X9027920Y-10067198D02*
X9037444Y-10057674D01*
X9037444Y-10057674D02*
X9056491Y-10048150D01*
X9056491Y-10048150D02*
X9085063Y-10048150D01*
X9085063Y-10048150D02*
X9104110Y-10057674D01*
X9104110Y-10057674D02*
X9113634Y-10076722D01*
X9113634Y-10076722D02*
X9113634Y-10181484D01*
X9113634Y-10076722D02*
X9123158Y-10057674D01*
X9123158Y-10057674D02*
X9142205Y-10048150D01*
X9142205Y-10048150D02*
X9170777Y-10048150D01*
X9170777Y-10048150D02*
X9189825Y-10057674D01*
X9189825Y-10057674D02*
X9199348Y-10076722D01*
X9199348Y-10076722D02*
X9199348Y-10181484D01*
X9294586Y-10181484D02*
X9294586Y-10048150D01*
X9294586Y-10067198D02*
X9304110Y-10057674D01*
X9304110Y-10057674D02*
X9323158Y-10048150D01*
X9323158Y-10048150D02*
X9351729Y-10048150D01*
X9351729Y-10048150D02*
X9370777Y-10057674D01*
X9370777Y-10057674D02*
X9380301Y-10076722D01*
X9380301Y-10076722D02*
X9380301Y-10181484D01*
X9380301Y-10076722D02*
X9389825Y-10057674D01*
X9389825Y-10057674D02*
X9408872Y-10048150D01*
X9408872Y-10048150D02*
X9437444Y-10048150D01*
X9437444Y-10048150D02*
X9456491Y-10057674D01*
X9456491Y-10057674D02*
X9466015Y-10076722D01*
X9466015Y-10076722D02*
X9466015Y-10181484D01*
X9856491Y-9971960D02*
X9685063Y-10229103D01*
X10113634Y-9981484D02*
X10132682Y-9981484D01*
X10132682Y-9981484D02*
X10151729Y-9991008D01*
X10151729Y-9991008D02*
X10161253Y-10000531D01*
X10161253Y-10000531D02*
X10170777Y-10019579D01*
X10170777Y-10019579D02*
X10180301Y-10057674D01*
X10180301Y-10057674D02*
X10180301Y-10105293D01*
X10180301Y-10105293D02*
X10170777Y-10143389D01*
X10170777Y-10143389D02*
X10161253Y-10162436D01*
X10161253Y-10162436D02*
X10151729Y-10171960D01*
X10151729Y-10171960D02*
X10132682Y-10181484D01*
X10132682Y-10181484D02*
X10113634Y-10181484D01*
X10113634Y-10181484D02*
X10094587Y-10171960D01*
X10094587Y-10171960D02*
X10085063Y-10162436D01*
X10085063Y-10162436D02*
X10075539Y-10143389D01*
X10075539Y-10143389D02*
X10066015Y-10105293D01*
X10066015Y-10105293D02*
X10066015Y-10057674D01*
X10066015Y-10057674D02*
X10075539Y-10019579D01*
X10075539Y-10019579D02*
X10085063Y-10000531D01*
X10085063Y-10000531D02*
X10094587Y-9991008D01*
X10094587Y-9991008D02*
X10113634Y-9981484D01*
X10266015Y-10162436D02*
X10275539Y-10171960D01*
X10275539Y-10171960D02*
X10266015Y-10181484D01*
X10266015Y-10181484D02*
X10256491Y-10171960D01*
X10256491Y-10171960D02*
X10266015Y-10162436D01*
X10266015Y-10162436D02*
X10266015Y-10181484D01*
X10399348Y-9981484D02*
X10418396Y-9981484D01*
X10418396Y-9981484D02*
X10437444Y-9991008D01*
X10437444Y-9991008D02*
X10446968Y-10000531D01*
X10446968Y-10000531D02*
X10456491Y-10019579D01*
X10456491Y-10019579D02*
X10466015Y-10057674D01*
X10466015Y-10057674D02*
X10466015Y-10105293D01*
X10466015Y-10105293D02*
X10456491Y-10143389D01*
X10456491Y-10143389D02*
X10446968Y-10162436D01*
X10446968Y-10162436D02*
X10437444Y-10171960D01*
X10437444Y-10171960D02*
X10418396Y-10181484D01*
X10418396Y-10181484D02*
X10399348Y-10181484D01*
X10399348Y-10181484D02*
X10380301Y-10171960D01*
X10380301Y-10171960D02*
X10370777Y-10162436D01*
X10370777Y-10162436D02*
X10361253Y-10143389D01*
X10361253Y-10143389D02*
X10351729Y-10105293D01*
X10351729Y-10105293D02*
X10351729Y-10057674D01*
X10351729Y-10057674D02*
X10361253Y-10019579D01*
X10361253Y-10019579D02*
X10370777Y-10000531D01*
X10370777Y-10000531D02*
X10380301Y-9991008D01*
X10380301Y-9991008D02*
X10399348Y-9981484D01*
X10656491Y-10181484D02*
X10542206Y-10181484D01*
X10599348Y-10181484D02*
X10599348Y-9981484D01*
X10599348Y-9981484D02*
X10580301Y-10010055D01*
X10580301Y-10010055D02*
X10561253Y-10029103D01*
X10561253Y-10029103D02*
X10542206Y-10038627D01*
X10837444Y-9981484D02*
X10742206Y-9981484D01*
X10742206Y-9981484D02*
X10732682Y-10076722D01*
X10732682Y-10076722D02*
X10742206Y-10067198D01*
X10742206Y-10067198D02*
X10761253Y-10057674D01*
X10761253Y-10057674D02*
X10808872Y-10057674D01*
X10808872Y-10057674D02*
X10827920Y-10067198D01*
X10827920Y-10067198D02*
X10837444Y-10076722D01*
X10837444Y-10076722D02*
X10846968Y-10095770D01*
X10846968Y-10095770D02*
X10846968Y-10143389D01*
X10846968Y-10143389D02*
X10837444Y-10162436D01*
X10837444Y-10162436D02*
X10827920Y-10171960D01*
X10827920Y-10171960D02*
X10808872Y-10181484D01*
X10808872Y-10181484D02*
X10761253Y-10181484D01*
X10761253Y-10181484D02*
X10742206Y-10171960D01*
X10742206Y-10171960D02*
X10732682Y-10162436D01*
X10913634Y-9981484D02*
X11046968Y-9981484D01*
X11046968Y-9981484D02*
X10961253Y-10181484D01*
X11113634Y-9981484D02*
X11113634Y-10019579D01*
X11189825Y-9981484D02*
X11189825Y-10019579D01*
X11485063Y-10257674D02*
X11475539Y-10248150D01*
X11475539Y-10248150D02*
X11456491Y-10219579D01*
X11456491Y-10219579D02*
X11446968Y-10200531D01*
X11446968Y-10200531D02*
X11437444Y-10171960D01*
X11437444Y-10171960D02*
X11427920Y-10124341D01*
X11427920Y-10124341D02*
X11427920Y-10086246D01*
X11427920Y-10086246D02*
X11437444Y-10038627D01*
X11437444Y-10038627D02*
X11446968Y-10010055D01*
X11446968Y-10010055D02*
X11456491Y-9991008D01*
X11456491Y-9991008D02*
X11475539Y-9962436D01*
X11475539Y-9962436D02*
X11485063Y-9952912D01*
X11551729Y-10000531D02*
X11561253Y-9991008D01*
X11561253Y-9991008D02*
X11580301Y-9981484D01*
X11580301Y-9981484D02*
X11627920Y-9981484D01*
X11627920Y-9981484D02*
X11646968Y-9991008D01*
X11646968Y-9991008D02*
X11656491Y-10000531D01*
X11656491Y-10000531D02*
X11666015Y-10019579D01*
X11666015Y-10019579D02*
X11666015Y-10038627D01*
X11666015Y-10038627D02*
X11656491Y-10067198D01*
X11656491Y-10067198D02*
X11542206Y-10181484D01*
X11542206Y-10181484D02*
X11666015Y-10181484D01*
X11742206Y-10000531D02*
X11751729Y-9991008D01*
X11751729Y-9991008D02*
X11770777Y-9981484D01*
X11770777Y-9981484D02*
X11818396Y-9981484D01*
X11818396Y-9981484D02*
X11837444Y-9991008D01*
X11837444Y-9991008D02*
X11846968Y-10000531D01*
X11846968Y-10000531D02*
X11856491Y-10019579D01*
X11856491Y-10019579D02*
X11856491Y-10038627D01*
X11856491Y-10038627D02*
X11846968Y-10067198D01*
X11846968Y-10067198D02*
X11732682Y-10181484D01*
X11732682Y-10181484D02*
X11856491Y-10181484D01*
X12094587Y-10181484D02*
X12094587Y-9981484D01*
X12180301Y-10181484D02*
X12180301Y-10076722D01*
X12180301Y-10076722D02*
X12170777Y-10057674D01*
X12170777Y-10057674D02*
X12151730Y-10048150D01*
X12151730Y-10048150D02*
X12123158Y-10048150D01*
X12123158Y-10048150D02*
X12104110Y-10057674D01*
X12104110Y-10057674D02*
X12094587Y-10067198D01*
X12304110Y-10181484D02*
X12285063Y-10171960D01*
X12285063Y-10171960D02*
X12275539Y-10162436D01*
X12275539Y-10162436D02*
X12266015Y-10143389D01*
X12266015Y-10143389D02*
X12266015Y-10086246D01*
X12266015Y-10086246D02*
X12275539Y-10067198D01*
X12275539Y-10067198D02*
X12285063Y-10057674D01*
X12285063Y-10057674D02*
X12304110Y-10048150D01*
X12304110Y-10048150D02*
X12332682Y-10048150D01*
X12332682Y-10048150D02*
X12351730Y-10057674D01*
X12351730Y-10057674D02*
X12361253Y-10067198D01*
X12361253Y-10067198D02*
X12370777Y-10086246D01*
X12370777Y-10086246D02*
X12370777Y-10143389D01*
X12370777Y-10143389D02*
X12361253Y-10162436D01*
X12361253Y-10162436D02*
X12351730Y-10171960D01*
X12351730Y-10171960D02*
X12332682Y-10181484D01*
X12332682Y-10181484D02*
X12304110Y-10181484D01*
X12485063Y-10181484D02*
X12466015Y-10171960D01*
X12466015Y-10171960D02*
X12456491Y-10152912D01*
X12456491Y-10152912D02*
X12456491Y-9981484D01*
X12637444Y-10171960D02*
X12618396Y-10181484D01*
X12618396Y-10181484D02*
X12580301Y-10181484D01*
X12580301Y-10181484D02*
X12561253Y-10171960D01*
X12561253Y-10171960D02*
X12551730Y-10152912D01*
X12551730Y-10152912D02*
X12551730Y-10076722D01*
X12551730Y-10076722D02*
X12561253Y-10057674D01*
X12561253Y-10057674D02*
X12580301Y-10048150D01*
X12580301Y-10048150D02*
X12618396Y-10048150D01*
X12618396Y-10048150D02*
X12637444Y-10057674D01*
X12637444Y-10057674D02*
X12646968Y-10076722D01*
X12646968Y-10076722D02*
X12646968Y-10095770D01*
X12646968Y-10095770D02*
X12551730Y-10114817D01*
X12723158Y-10171960D02*
X12742206Y-10181484D01*
X12742206Y-10181484D02*
X12780301Y-10181484D01*
X12780301Y-10181484D02*
X12799349Y-10171960D01*
X12799349Y-10171960D02*
X12808872Y-10152912D01*
X12808872Y-10152912D02*
X12808872Y-10143389D01*
X12808872Y-10143389D02*
X12799349Y-10124341D01*
X12799349Y-10124341D02*
X12780301Y-10114817D01*
X12780301Y-10114817D02*
X12751730Y-10114817D01*
X12751730Y-10114817D02*
X12732682Y-10105293D01*
X12732682Y-10105293D02*
X12723158Y-10086246D01*
X12723158Y-10086246D02*
X12723158Y-10076722D01*
X12723158Y-10076722D02*
X12732682Y-10057674D01*
X12732682Y-10057674D02*
X12751730Y-10048150D01*
X12751730Y-10048150D02*
X12780301Y-10048150D01*
X12780301Y-10048150D02*
X12799349Y-10057674D01*
X12875539Y-10257674D02*
X12885063Y-10248150D01*
X12885063Y-10248150D02*
X12904111Y-10219579D01*
X12904111Y-10219579D02*
X12913634Y-10200531D01*
X12913634Y-10200531D02*
X12923158Y-10171960D01*
X12923158Y-10171960D02*
X12932682Y-10124341D01*
X12932682Y-10124341D02*
X12932682Y-10086246D01*
X12932682Y-10086246D02*
X12923158Y-10038627D01*
X12923158Y-10038627D02*
X12913634Y-10010055D01*
X12913634Y-10010055D02*
X12904111Y-9991008D01*
X12904111Y-9991008D02*
X12885063Y-9962436D01*
X12885063Y-9962436D02*
X12875539Y-9952912D01*
D13*
X7910000Y-10354000D02*
G75*
G03*
X7910000Y-10354000I-30000J0D01*
G01*
D11*
X8208872Y-10245484D02*
X8227920Y-10245484D01*
X8227920Y-10245484D02*
X8246967Y-10255008D01*
X8246967Y-10255008D02*
X8256491Y-10264531D01*
X8256491Y-10264531D02*
X8266015Y-10283579D01*
X8266015Y-10283579D02*
X8275539Y-10321674D01*
X8275539Y-10321674D02*
X8275539Y-10369293D01*
X8275539Y-10369293D02*
X8266015Y-10407389D01*
X8266015Y-10407389D02*
X8256491Y-10426436D01*
X8256491Y-10426436D02*
X8246967Y-10435960D01*
X8246967Y-10435960D02*
X8227920Y-10445484D01*
X8227920Y-10445484D02*
X8208872Y-10445484D01*
X8208872Y-10445484D02*
X8189824Y-10435960D01*
X8189824Y-10435960D02*
X8180301Y-10426436D01*
X8180301Y-10426436D02*
X8170777Y-10407389D01*
X8170777Y-10407389D02*
X8161253Y-10369293D01*
X8161253Y-10369293D02*
X8161253Y-10321674D01*
X8161253Y-10321674D02*
X8170777Y-10283579D01*
X8170777Y-10283579D02*
X8180301Y-10264531D01*
X8180301Y-10264531D02*
X8189824Y-10255008D01*
X8189824Y-10255008D02*
X8208872Y-10245484D01*
X8361253Y-10426436D02*
X8370777Y-10435960D01*
X8370777Y-10435960D02*
X8361253Y-10445484D01*
X8361253Y-10445484D02*
X8351729Y-10435960D01*
X8351729Y-10435960D02*
X8361253Y-10426436D01*
X8361253Y-10426436D02*
X8361253Y-10445484D01*
X8542205Y-10245484D02*
X8504110Y-10245484D01*
X8504110Y-10245484D02*
X8485063Y-10255008D01*
X8485063Y-10255008D02*
X8475539Y-10264531D01*
X8475539Y-10264531D02*
X8456491Y-10293103D01*
X8456491Y-10293103D02*
X8446967Y-10331198D01*
X8446967Y-10331198D02*
X8446967Y-10407389D01*
X8446967Y-10407389D02*
X8456491Y-10426436D01*
X8456491Y-10426436D02*
X8466015Y-10435960D01*
X8466015Y-10435960D02*
X8485063Y-10445484D01*
X8485063Y-10445484D02*
X8523158Y-10445484D01*
X8523158Y-10445484D02*
X8542205Y-10435960D01*
X8542205Y-10435960D02*
X8551729Y-10426436D01*
X8551729Y-10426436D02*
X8561253Y-10407389D01*
X8561253Y-10407389D02*
X8561253Y-10359770D01*
X8561253Y-10359770D02*
X8551729Y-10340722D01*
X8551729Y-10340722D02*
X8542205Y-10331198D01*
X8542205Y-10331198D02*
X8523158Y-10321674D01*
X8523158Y-10321674D02*
X8485063Y-10321674D01*
X8485063Y-10321674D02*
X8466015Y-10331198D01*
X8466015Y-10331198D02*
X8456491Y-10340722D01*
X8456491Y-10340722D02*
X8446967Y-10359770D01*
X8685063Y-10245484D02*
X8704110Y-10245484D01*
X8704110Y-10245484D02*
X8723158Y-10255008D01*
X8723158Y-10255008D02*
X8732682Y-10264531D01*
X8732682Y-10264531D02*
X8742205Y-10283579D01*
X8742205Y-10283579D02*
X8751729Y-10321674D01*
X8751729Y-10321674D02*
X8751729Y-10369293D01*
X8751729Y-10369293D02*
X8742205Y-10407389D01*
X8742205Y-10407389D02*
X8732682Y-10426436D01*
X8732682Y-10426436D02*
X8723158Y-10435960D01*
X8723158Y-10435960D02*
X8704110Y-10445484D01*
X8704110Y-10445484D02*
X8685063Y-10445484D01*
X8685063Y-10445484D02*
X8666015Y-10435960D01*
X8666015Y-10435960D02*
X8656491Y-10426436D01*
X8656491Y-10426436D02*
X8646967Y-10407389D01*
X8646967Y-10407389D02*
X8637444Y-10369293D01*
X8637444Y-10369293D02*
X8637444Y-10321674D01*
X8637444Y-10321674D02*
X8646967Y-10283579D01*
X8646967Y-10283579D02*
X8656491Y-10264531D01*
X8656491Y-10264531D02*
X8666015Y-10255008D01*
X8666015Y-10255008D02*
X8685063Y-10245484D01*
X8875539Y-10245484D02*
X8894586Y-10245484D01*
X8894586Y-10245484D02*
X8913634Y-10255008D01*
X8913634Y-10255008D02*
X8923158Y-10264531D01*
X8923158Y-10264531D02*
X8932682Y-10283579D01*
X8932682Y-10283579D02*
X8942205Y-10321674D01*
X8942205Y-10321674D02*
X8942205Y-10369293D01*
X8942205Y-10369293D02*
X8932682Y-10407389D01*
X8932682Y-10407389D02*
X8923158Y-10426436D01*
X8923158Y-10426436D02*
X8913634Y-10435960D01*
X8913634Y-10435960D02*
X8894586Y-10445484D01*
X8894586Y-10445484D02*
X8875539Y-10445484D01*
X8875539Y-10445484D02*
X8856491Y-10435960D01*
X8856491Y-10435960D02*
X8846967Y-10426436D01*
X8846967Y-10426436D02*
X8837444Y-10407389D01*
X8837444Y-10407389D02*
X8827920Y-10369293D01*
X8827920Y-10369293D02*
X8827920Y-10321674D01*
X8827920Y-10321674D02*
X8837444Y-10283579D01*
X8837444Y-10283579D02*
X8846967Y-10264531D01*
X8846967Y-10264531D02*
X8856491Y-10255008D01*
X8856491Y-10255008D02*
X8875539Y-10245484D01*
X9027920Y-10445484D02*
X9027920Y-10312150D01*
X9027920Y-10331198D02*
X9037444Y-10321674D01*
X9037444Y-10321674D02*
X9056491Y-10312150D01*
X9056491Y-10312150D02*
X9085063Y-10312150D01*
X9085063Y-10312150D02*
X9104110Y-10321674D01*
X9104110Y-10321674D02*
X9113634Y-10340722D01*
X9113634Y-10340722D02*
X9113634Y-10445484D01*
X9113634Y-10340722D02*
X9123158Y-10321674D01*
X9123158Y-10321674D02*
X9142205Y-10312150D01*
X9142205Y-10312150D02*
X9170777Y-10312150D01*
X9170777Y-10312150D02*
X9189825Y-10321674D01*
X9189825Y-10321674D02*
X9199348Y-10340722D01*
X9199348Y-10340722D02*
X9199348Y-10445484D01*
X9294586Y-10445484D02*
X9294586Y-10312150D01*
X9294586Y-10331198D02*
X9304110Y-10321674D01*
X9304110Y-10321674D02*
X9323158Y-10312150D01*
X9323158Y-10312150D02*
X9351729Y-10312150D01*
X9351729Y-10312150D02*
X9370777Y-10321674D01*
X9370777Y-10321674D02*
X9380301Y-10340722D01*
X9380301Y-10340722D02*
X9380301Y-10445484D01*
X9380301Y-10340722D02*
X9389825Y-10321674D01*
X9389825Y-10321674D02*
X9408872Y-10312150D01*
X9408872Y-10312150D02*
X9437444Y-10312150D01*
X9437444Y-10312150D02*
X9456491Y-10321674D01*
X9456491Y-10321674D02*
X9466015Y-10340722D01*
X9466015Y-10340722D02*
X9466015Y-10445484D01*
X9856491Y-10235960D02*
X9685063Y-10493103D01*
X10113634Y-10245484D02*
X10132682Y-10245484D01*
X10132682Y-10245484D02*
X10151729Y-10255008D01*
X10151729Y-10255008D02*
X10161253Y-10264531D01*
X10161253Y-10264531D02*
X10170777Y-10283579D01*
X10170777Y-10283579D02*
X10180301Y-10321674D01*
X10180301Y-10321674D02*
X10180301Y-10369293D01*
X10180301Y-10369293D02*
X10170777Y-10407389D01*
X10170777Y-10407389D02*
X10161253Y-10426436D01*
X10161253Y-10426436D02*
X10151729Y-10435960D01*
X10151729Y-10435960D02*
X10132682Y-10445484D01*
X10132682Y-10445484D02*
X10113634Y-10445484D01*
X10113634Y-10445484D02*
X10094587Y-10435960D01*
X10094587Y-10435960D02*
X10085063Y-10426436D01*
X10085063Y-10426436D02*
X10075539Y-10407389D01*
X10075539Y-10407389D02*
X10066015Y-10369293D01*
X10066015Y-10369293D02*
X10066015Y-10321674D01*
X10066015Y-10321674D02*
X10075539Y-10283579D01*
X10075539Y-10283579D02*
X10085063Y-10264531D01*
X10085063Y-10264531D02*
X10094587Y-10255008D01*
X10094587Y-10255008D02*
X10113634Y-10245484D01*
X10266015Y-10426436D02*
X10275539Y-10435960D01*
X10275539Y-10435960D02*
X10266015Y-10445484D01*
X10266015Y-10445484D02*
X10256491Y-10435960D01*
X10256491Y-10435960D02*
X10266015Y-10426436D01*
X10266015Y-10426436D02*
X10266015Y-10445484D01*
X10399348Y-10245484D02*
X10418396Y-10245484D01*
X10418396Y-10245484D02*
X10437444Y-10255008D01*
X10437444Y-10255008D02*
X10446968Y-10264531D01*
X10446968Y-10264531D02*
X10456491Y-10283579D01*
X10456491Y-10283579D02*
X10466015Y-10321674D01*
X10466015Y-10321674D02*
X10466015Y-10369293D01*
X10466015Y-10369293D02*
X10456491Y-10407389D01*
X10456491Y-10407389D02*
X10446968Y-10426436D01*
X10446968Y-10426436D02*
X10437444Y-10435960D01*
X10437444Y-10435960D02*
X10418396Y-10445484D01*
X10418396Y-10445484D02*
X10399348Y-10445484D01*
X10399348Y-10445484D02*
X10380301Y-10435960D01*
X10380301Y-10435960D02*
X10370777Y-10426436D01*
X10370777Y-10426436D02*
X10361253Y-10407389D01*
X10361253Y-10407389D02*
X10351729Y-10369293D01*
X10351729Y-10369293D02*
X10351729Y-10321674D01*
X10351729Y-10321674D02*
X10361253Y-10283579D01*
X10361253Y-10283579D02*
X10370777Y-10264531D01*
X10370777Y-10264531D02*
X10380301Y-10255008D01*
X10380301Y-10255008D02*
X10399348Y-10245484D01*
X10542206Y-10264531D02*
X10551729Y-10255008D01*
X10551729Y-10255008D02*
X10570777Y-10245484D01*
X10570777Y-10245484D02*
X10618396Y-10245484D01*
X10618396Y-10245484D02*
X10637444Y-10255008D01*
X10637444Y-10255008D02*
X10646968Y-10264531D01*
X10646968Y-10264531D02*
X10656491Y-10283579D01*
X10656491Y-10283579D02*
X10656491Y-10302627D01*
X10656491Y-10302627D02*
X10646968Y-10331198D01*
X10646968Y-10331198D02*
X10532682Y-10445484D01*
X10532682Y-10445484D02*
X10656491Y-10445484D01*
X10723158Y-10245484D02*
X10846968Y-10245484D01*
X10846968Y-10245484D02*
X10780301Y-10321674D01*
X10780301Y-10321674D02*
X10808872Y-10321674D01*
X10808872Y-10321674D02*
X10827920Y-10331198D01*
X10827920Y-10331198D02*
X10837444Y-10340722D01*
X10837444Y-10340722D02*
X10846968Y-10359770D01*
X10846968Y-10359770D02*
X10846968Y-10407389D01*
X10846968Y-10407389D02*
X10837444Y-10426436D01*
X10837444Y-10426436D02*
X10827920Y-10435960D01*
X10827920Y-10435960D02*
X10808872Y-10445484D01*
X10808872Y-10445484D02*
X10751729Y-10445484D01*
X10751729Y-10445484D02*
X10732682Y-10435960D01*
X10732682Y-10435960D02*
X10723158Y-10426436D01*
X11018396Y-10245484D02*
X10980301Y-10245484D01*
X10980301Y-10245484D02*
X10961253Y-10255008D01*
X10961253Y-10255008D02*
X10951729Y-10264531D01*
X10951729Y-10264531D02*
X10932682Y-10293103D01*
X10932682Y-10293103D02*
X10923158Y-10331198D01*
X10923158Y-10331198D02*
X10923158Y-10407389D01*
X10923158Y-10407389D02*
X10932682Y-10426436D01*
X10932682Y-10426436D02*
X10942206Y-10435960D01*
X10942206Y-10435960D02*
X10961253Y-10445484D01*
X10961253Y-10445484D02*
X10999349Y-10445484D01*
X10999349Y-10445484D02*
X11018396Y-10435960D01*
X11018396Y-10435960D02*
X11027920Y-10426436D01*
X11027920Y-10426436D02*
X11037444Y-10407389D01*
X11037444Y-10407389D02*
X11037444Y-10359770D01*
X11037444Y-10359770D02*
X11027920Y-10340722D01*
X11027920Y-10340722D02*
X11018396Y-10331198D01*
X11018396Y-10331198D02*
X10999349Y-10321674D01*
X10999349Y-10321674D02*
X10961253Y-10321674D01*
X10961253Y-10321674D02*
X10942206Y-10331198D01*
X10942206Y-10331198D02*
X10932682Y-10340722D01*
X10932682Y-10340722D02*
X10923158Y-10359770D01*
X11113634Y-10245484D02*
X11113634Y-10283579D01*
X11189825Y-10245484D02*
X11189825Y-10283579D01*
X11485063Y-10521674D02*
X11475539Y-10512150D01*
X11475539Y-10512150D02*
X11456491Y-10483579D01*
X11456491Y-10483579D02*
X11446968Y-10464531D01*
X11446968Y-10464531D02*
X11437444Y-10435960D01*
X11437444Y-10435960D02*
X11427920Y-10388341D01*
X11427920Y-10388341D02*
X11427920Y-10350246D01*
X11427920Y-10350246D02*
X11437444Y-10302627D01*
X11437444Y-10302627D02*
X11446968Y-10274055D01*
X11446968Y-10274055D02*
X11456491Y-10255008D01*
X11456491Y-10255008D02*
X11475539Y-10226436D01*
X11475539Y-10226436D02*
X11485063Y-10216912D01*
X11646968Y-10312150D02*
X11646968Y-10445484D01*
X11599348Y-10235960D02*
X11551729Y-10378817D01*
X11551729Y-10378817D02*
X11675539Y-10378817D01*
X11904110Y-10445484D02*
X11904110Y-10245484D01*
X11989825Y-10445484D02*
X11989825Y-10340722D01*
X11989825Y-10340722D02*
X11980301Y-10321674D01*
X11980301Y-10321674D02*
X11961253Y-10312150D01*
X11961253Y-10312150D02*
X11932682Y-10312150D01*
X11932682Y-10312150D02*
X11913634Y-10321674D01*
X11913634Y-10321674D02*
X11904110Y-10331198D01*
X12113634Y-10445484D02*
X12094587Y-10435960D01*
X12094587Y-10435960D02*
X12085063Y-10426436D01*
X12085063Y-10426436D02*
X12075539Y-10407389D01*
X12075539Y-10407389D02*
X12075539Y-10350246D01*
X12075539Y-10350246D02*
X12085063Y-10331198D01*
X12085063Y-10331198D02*
X12094587Y-10321674D01*
X12094587Y-10321674D02*
X12113634Y-10312150D01*
X12113634Y-10312150D02*
X12142206Y-10312150D01*
X12142206Y-10312150D02*
X12161253Y-10321674D01*
X12161253Y-10321674D02*
X12170777Y-10331198D01*
X12170777Y-10331198D02*
X12180301Y-10350246D01*
X12180301Y-10350246D02*
X12180301Y-10407389D01*
X12180301Y-10407389D02*
X12170777Y-10426436D01*
X12170777Y-10426436D02*
X12161253Y-10435960D01*
X12161253Y-10435960D02*
X12142206Y-10445484D01*
X12142206Y-10445484D02*
X12113634Y-10445484D01*
X12294587Y-10445484D02*
X12275539Y-10435960D01*
X12275539Y-10435960D02*
X12266015Y-10416912D01*
X12266015Y-10416912D02*
X12266015Y-10245484D01*
X12446968Y-10435960D02*
X12427920Y-10445484D01*
X12427920Y-10445484D02*
X12389825Y-10445484D01*
X12389825Y-10445484D02*
X12370777Y-10435960D01*
X12370777Y-10435960D02*
X12361253Y-10416912D01*
X12361253Y-10416912D02*
X12361253Y-10340722D01*
X12361253Y-10340722D02*
X12370777Y-10321674D01*
X12370777Y-10321674D02*
X12389825Y-10312150D01*
X12389825Y-10312150D02*
X12427920Y-10312150D01*
X12427920Y-10312150D02*
X12446968Y-10321674D01*
X12446968Y-10321674D02*
X12456491Y-10340722D01*
X12456491Y-10340722D02*
X12456491Y-10359770D01*
X12456491Y-10359770D02*
X12361253Y-10378817D01*
X12532682Y-10435960D02*
X12551730Y-10445484D01*
X12551730Y-10445484D02*
X12589825Y-10445484D01*
X12589825Y-10445484D02*
X12608872Y-10435960D01*
X12608872Y-10435960D02*
X12618396Y-10416912D01*
X12618396Y-10416912D02*
X12618396Y-10407389D01*
X12618396Y-10407389D02*
X12608872Y-10388341D01*
X12608872Y-10388341D02*
X12589825Y-10378817D01*
X12589825Y-10378817D02*
X12561253Y-10378817D01*
X12561253Y-10378817D02*
X12542206Y-10369293D01*
X12542206Y-10369293D02*
X12532682Y-10350246D01*
X12532682Y-10350246D02*
X12532682Y-10340722D01*
X12532682Y-10340722D02*
X12542206Y-10321674D01*
X12542206Y-10321674D02*
X12561253Y-10312150D01*
X12561253Y-10312150D02*
X12589825Y-10312150D01*
X12589825Y-10312150D02*
X12608872Y-10321674D01*
X12685063Y-10521674D02*
X12694587Y-10512150D01*
X12694587Y-10512150D02*
X12713634Y-10483579D01*
X12713634Y-10483579D02*
X12723158Y-10464531D01*
X12723158Y-10464531D02*
X12732682Y-10435960D01*
X12732682Y-10435960D02*
X12742206Y-10388341D01*
X12742206Y-10388341D02*
X12742206Y-10350246D01*
X12742206Y-10350246D02*
X12732682Y-10302627D01*
X12732682Y-10302627D02*
X12723158Y-10274055D01*
X12723158Y-10274055D02*
X12713634Y-10255008D01*
X12713634Y-10255008D02*
X12694587Y-10226436D01*
X12694587Y-10226436D02*
X12685063Y-10216912D01*
D10*
X7860000Y-10568000D02*
X7860000Y-10668000D01*
X7810000Y-10618000D02*
X7910000Y-10618000D01*
D11*
X8275539Y-10709484D02*
X8161253Y-10709484D01*
X8218396Y-10709484D02*
X8218396Y-10509484D01*
X8218396Y-10509484D02*
X8199348Y-10538055D01*
X8199348Y-10538055D02*
X8180301Y-10557103D01*
X8180301Y-10557103D02*
X8161253Y-10566627D01*
X8361253Y-10690436D02*
X8370777Y-10699960D01*
X8370777Y-10699960D02*
X8361253Y-10709484D01*
X8361253Y-10709484D02*
X8351729Y-10699960D01*
X8351729Y-10699960D02*
X8361253Y-10690436D01*
X8361253Y-10690436D02*
X8361253Y-10709484D01*
X8494586Y-10509484D02*
X8513634Y-10509484D01*
X8513634Y-10509484D02*
X8532682Y-10519008D01*
X8532682Y-10519008D02*
X8542205Y-10528531D01*
X8542205Y-10528531D02*
X8551729Y-10547579D01*
X8551729Y-10547579D02*
X8561253Y-10585674D01*
X8561253Y-10585674D02*
X8561253Y-10633293D01*
X8561253Y-10633293D02*
X8551729Y-10671389D01*
X8551729Y-10671389D02*
X8542205Y-10690436D01*
X8542205Y-10690436D02*
X8532682Y-10699960D01*
X8532682Y-10699960D02*
X8513634Y-10709484D01*
X8513634Y-10709484D02*
X8494586Y-10709484D01*
X8494586Y-10709484D02*
X8475539Y-10699960D01*
X8475539Y-10699960D02*
X8466015Y-10690436D01*
X8466015Y-10690436D02*
X8456491Y-10671389D01*
X8456491Y-10671389D02*
X8446967Y-10633293D01*
X8446967Y-10633293D02*
X8446967Y-10585674D01*
X8446967Y-10585674D02*
X8456491Y-10547579D01*
X8456491Y-10547579D02*
X8466015Y-10528531D01*
X8466015Y-10528531D02*
X8475539Y-10519008D01*
X8475539Y-10519008D02*
X8494586Y-10509484D01*
X8685063Y-10509484D02*
X8704110Y-10509484D01*
X8704110Y-10509484D02*
X8723158Y-10519008D01*
X8723158Y-10519008D02*
X8732682Y-10528531D01*
X8732682Y-10528531D02*
X8742205Y-10547579D01*
X8742205Y-10547579D02*
X8751729Y-10585674D01*
X8751729Y-10585674D02*
X8751729Y-10633293D01*
X8751729Y-10633293D02*
X8742205Y-10671389D01*
X8742205Y-10671389D02*
X8732682Y-10690436D01*
X8732682Y-10690436D02*
X8723158Y-10699960D01*
X8723158Y-10699960D02*
X8704110Y-10709484D01*
X8704110Y-10709484D02*
X8685063Y-10709484D01*
X8685063Y-10709484D02*
X8666015Y-10699960D01*
X8666015Y-10699960D02*
X8656491Y-10690436D01*
X8656491Y-10690436D02*
X8646967Y-10671389D01*
X8646967Y-10671389D02*
X8637444Y-10633293D01*
X8637444Y-10633293D02*
X8637444Y-10585674D01*
X8637444Y-10585674D02*
X8646967Y-10547579D01*
X8646967Y-10547579D02*
X8656491Y-10528531D01*
X8656491Y-10528531D02*
X8666015Y-10519008D01*
X8666015Y-10519008D02*
X8685063Y-10509484D01*
X8875539Y-10509484D02*
X8894586Y-10509484D01*
X8894586Y-10509484D02*
X8913634Y-10519008D01*
X8913634Y-10519008D02*
X8923158Y-10528531D01*
X8923158Y-10528531D02*
X8932682Y-10547579D01*
X8932682Y-10547579D02*
X8942205Y-10585674D01*
X8942205Y-10585674D02*
X8942205Y-10633293D01*
X8942205Y-10633293D02*
X8932682Y-10671389D01*
X8932682Y-10671389D02*
X8923158Y-10690436D01*
X8923158Y-10690436D02*
X8913634Y-10699960D01*
X8913634Y-10699960D02*
X8894586Y-10709484D01*
X8894586Y-10709484D02*
X8875539Y-10709484D01*
X8875539Y-10709484D02*
X8856491Y-10699960D01*
X8856491Y-10699960D02*
X8846967Y-10690436D01*
X8846967Y-10690436D02*
X8837444Y-10671389D01*
X8837444Y-10671389D02*
X8827920Y-10633293D01*
X8827920Y-10633293D02*
X8827920Y-10585674D01*
X8827920Y-10585674D02*
X8837444Y-10547579D01*
X8837444Y-10547579D02*
X8846967Y-10528531D01*
X8846967Y-10528531D02*
X8856491Y-10519008D01*
X8856491Y-10519008D02*
X8875539Y-10509484D01*
X9027920Y-10709484D02*
X9027920Y-10576150D01*
X9027920Y-10595198D02*
X9037444Y-10585674D01*
X9037444Y-10585674D02*
X9056491Y-10576150D01*
X9056491Y-10576150D02*
X9085063Y-10576150D01*
X9085063Y-10576150D02*
X9104110Y-10585674D01*
X9104110Y-10585674D02*
X9113634Y-10604722D01*
X9113634Y-10604722D02*
X9113634Y-10709484D01*
X9113634Y-10604722D02*
X9123158Y-10585674D01*
X9123158Y-10585674D02*
X9142205Y-10576150D01*
X9142205Y-10576150D02*
X9170777Y-10576150D01*
X9170777Y-10576150D02*
X9189825Y-10585674D01*
X9189825Y-10585674D02*
X9199348Y-10604722D01*
X9199348Y-10604722D02*
X9199348Y-10709484D01*
X9294586Y-10709484D02*
X9294586Y-10576150D01*
X9294586Y-10595198D02*
X9304110Y-10585674D01*
X9304110Y-10585674D02*
X9323158Y-10576150D01*
X9323158Y-10576150D02*
X9351729Y-10576150D01*
X9351729Y-10576150D02*
X9370777Y-10585674D01*
X9370777Y-10585674D02*
X9380301Y-10604722D01*
X9380301Y-10604722D02*
X9380301Y-10709484D01*
X9380301Y-10604722D02*
X9389825Y-10585674D01*
X9389825Y-10585674D02*
X9408872Y-10576150D01*
X9408872Y-10576150D02*
X9437444Y-10576150D01*
X9437444Y-10576150D02*
X9456491Y-10585674D01*
X9456491Y-10585674D02*
X9466015Y-10604722D01*
X9466015Y-10604722D02*
X9466015Y-10709484D01*
X9856491Y-10499960D02*
X9685063Y-10757103D01*
X10113634Y-10509484D02*
X10132682Y-10509484D01*
X10132682Y-10509484D02*
X10151729Y-10519008D01*
X10151729Y-10519008D02*
X10161253Y-10528531D01*
X10161253Y-10528531D02*
X10170777Y-10547579D01*
X10170777Y-10547579D02*
X10180301Y-10585674D01*
X10180301Y-10585674D02*
X10180301Y-10633293D01*
X10180301Y-10633293D02*
X10170777Y-10671389D01*
X10170777Y-10671389D02*
X10161253Y-10690436D01*
X10161253Y-10690436D02*
X10151729Y-10699960D01*
X10151729Y-10699960D02*
X10132682Y-10709484D01*
X10132682Y-10709484D02*
X10113634Y-10709484D01*
X10113634Y-10709484D02*
X10094587Y-10699960D01*
X10094587Y-10699960D02*
X10085063Y-10690436D01*
X10085063Y-10690436D02*
X10075539Y-10671389D01*
X10075539Y-10671389D02*
X10066015Y-10633293D01*
X10066015Y-10633293D02*
X10066015Y-10585674D01*
X10066015Y-10585674D02*
X10075539Y-10547579D01*
X10075539Y-10547579D02*
X10085063Y-10528531D01*
X10085063Y-10528531D02*
X10094587Y-10519008D01*
X10094587Y-10519008D02*
X10113634Y-10509484D01*
X10266015Y-10690436D02*
X10275539Y-10699960D01*
X10275539Y-10699960D02*
X10266015Y-10709484D01*
X10266015Y-10709484D02*
X10256491Y-10699960D01*
X10256491Y-10699960D02*
X10266015Y-10690436D01*
X10266015Y-10690436D02*
X10266015Y-10709484D01*
X10399348Y-10509484D02*
X10418396Y-10509484D01*
X10418396Y-10509484D02*
X10437444Y-10519008D01*
X10437444Y-10519008D02*
X10446968Y-10528531D01*
X10446968Y-10528531D02*
X10456491Y-10547579D01*
X10456491Y-10547579D02*
X10466015Y-10585674D01*
X10466015Y-10585674D02*
X10466015Y-10633293D01*
X10466015Y-10633293D02*
X10456491Y-10671389D01*
X10456491Y-10671389D02*
X10446968Y-10690436D01*
X10446968Y-10690436D02*
X10437444Y-10699960D01*
X10437444Y-10699960D02*
X10418396Y-10709484D01*
X10418396Y-10709484D02*
X10399348Y-10709484D01*
X10399348Y-10709484D02*
X10380301Y-10699960D01*
X10380301Y-10699960D02*
X10370777Y-10690436D01*
X10370777Y-10690436D02*
X10361253Y-10671389D01*
X10361253Y-10671389D02*
X10351729Y-10633293D01*
X10351729Y-10633293D02*
X10351729Y-10585674D01*
X10351729Y-10585674D02*
X10361253Y-10547579D01*
X10361253Y-10547579D02*
X10370777Y-10528531D01*
X10370777Y-10528531D02*
X10380301Y-10519008D01*
X10380301Y-10519008D02*
X10399348Y-10509484D01*
X10532682Y-10509484D02*
X10656491Y-10509484D01*
X10656491Y-10509484D02*
X10589825Y-10585674D01*
X10589825Y-10585674D02*
X10618396Y-10585674D01*
X10618396Y-10585674D02*
X10637444Y-10595198D01*
X10637444Y-10595198D02*
X10646968Y-10604722D01*
X10646968Y-10604722D02*
X10656491Y-10623770D01*
X10656491Y-10623770D02*
X10656491Y-10671389D01*
X10656491Y-10671389D02*
X10646968Y-10690436D01*
X10646968Y-10690436D02*
X10637444Y-10699960D01*
X10637444Y-10699960D02*
X10618396Y-10709484D01*
X10618396Y-10709484D02*
X10561253Y-10709484D01*
X10561253Y-10709484D02*
X10542206Y-10699960D01*
X10542206Y-10699960D02*
X10532682Y-10690436D01*
X10751729Y-10709484D02*
X10789825Y-10709484D01*
X10789825Y-10709484D02*
X10808872Y-10699960D01*
X10808872Y-10699960D02*
X10818396Y-10690436D01*
X10818396Y-10690436D02*
X10837444Y-10661865D01*
X10837444Y-10661865D02*
X10846968Y-10623770D01*
X10846968Y-10623770D02*
X10846968Y-10547579D01*
X10846968Y-10547579D02*
X10837444Y-10528531D01*
X10837444Y-10528531D02*
X10827920Y-10519008D01*
X10827920Y-10519008D02*
X10808872Y-10509484D01*
X10808872Y-10509484D02*
X10770777Y-10509484D01*
X10770777Y-10509484D02*
X10751729Y-10519008D01*
X10751729Y-10519008D02*
X10742206Y-10528531D01*
X10742206Y-10528531D02*
X10732682Y-10547579D01*
X10732682Y-10547579D02*
X10732682Y-10595198D01*
X10732682Y-10595198D02*
X10742206Y-10614246D01*
X10742206Y-10614246D02*
X10751729Y-10623770D01*
X10751729Y-10623770D02*
X10770777Y-10633293D01*
X10770777Y-10633293D02*
X10808872Y-10633293D01*
X10808872Y-10633293D02*
X10827920Y-10623770D01*
X10827920Y-10623770D02*
X10837444Y-10614246D01*
X10837444Y-10614246D02*
X10846968Y-10595198D01*
X11018396Y-10576150D02*
X11018396Y-10709484D01*
X10970777Y-10499960D02*
X10923158Y-10642817D01*
X10923158Y-10642817D02*
X11046968Y-10642817D01*
X11113634Y-10509484D02*
X11113634Y-10547579D01*
X11189825Y-10509484D02*
X11189825Y-10547579D01*
X11485063Y-10785674D02*
X11475539Y-10776150D01*
X11475539Y-10776150D02*
X11456491Y-10747579D01*
X11456491Y-10747579D02*
X11446968Y-10728531D01*
X11446968Y-10728531D02*
X11437444Y-10699960D01*
X11437444Y-10699960D02*
X11427920Y-10652341D01*
X11427920Y-10652341D02*
X11427920Y-10614246D01*
X11427920Y-10614246D02*
X11437444Y-10566627D01*
X11437444Y-10566627D02*
X11446968Y-10538055D01*
X11446968Y-10538055D02*
X11456491Y-10519008D01*
X11456491Y-10519008D02*
X11475539Y-10490436D01*
X11475539Y-10490436D02*
X11485063Y-10480912D01*
X11646968Y-10576150D02*
X11646968Y-10709484D01*
X11599348Y-10499960D02*
X11551729Y-10642817D01*
X11551729Y-10642817D02*
X11675539Y-10642817D01*
X11837444Y-10576150D02*
X11837444Y-10709484D01*
X11789825Y-10499960D02*
X11742206Y-10642817D01*
X11742206Y-10642817D02*
X11866015Y-10642817D01*
X12094587Y-10709484D02*
X12094587Y-10509484D01*
X12180301Y-10709484D02*
X12180301Y-10604722D01*
X12180301Y-10604722D02*
X12170777Y-10585674D01*
X12170777Y-10585674D02*
X12151730Y-10576150D01*
X12151730Y-10576150D02*
X12123158Y-10576150D01*
X12123158Y-10576150D02*
X12104110Y-10585674D01*
X12104110Y-10585674D02*
X12094587Y-10595198D01*
X12304110Y-10709484D02*
X12285063Y-10699960D01*
X12285063Y-10699960D02*
X12275539Y-10690436D01*
X12275539Y-10690436D02*
X12266015Y-10671389D01*
X12266015Y-10671389D02*
X12266015Y-10614246D01*
X12266015Y-10614246D02*
X12275539Y-10595198D01*
X12275539Y-10595198D02*
X12285063Y-10585674D01*
X12285063Y-10585674D02*
X12304110Y-10576150D01*
X12304110Y-10576150D02*
X12332682Y-10576150D01*
X12332682Y-10576150D02*
X12351730Y-10585674D01*
X12351730Y-10585674D02*
X12361253Y-10595198D01*
X12361253Y-10595198D02*
X12370777Y-10614246D01*
X12370777Y-10614246D02*
X12370777Y-10671389D01*
X12370777Y-10671389D02*
X12361253Y-10690436D01*
X12361253Y-10690436D02*
X12351730Y-10699960D01*
X12351730Y-10699960D02*
X12332682Y-10709484D01*
X12332682Y-10709484D02*
X12304110Y-10709484D01*
X12485063Y-10709484D02*
X12466015Y-10699960D01*
X12466015Y-10699960D02*
X12456491Y-10680912D01*
X12456491Y-10680912D02*
X12456491Y-10509484D01*
X12637444Y-10699960D02*
X12618396Y-10709484D01*
X12618396Y-10709484D02*
X12580301Y-10709484D01*
X12580301Y-10709484D02*
X12561253Y-10699960D01*
X12561253Y-10699960D02*
X12551730Y-10680912D01*
X12551730Y-10680912D02*
X12551730Y-10604722D01*
X12551730Y-10604722D02*
X12561253Y-10585674D01*
X12561253Y-10585674D02*
X12580301Y-10576150D01*
X12580301Y-10576150D02*
X12618396Y-10576150D01*
X12618396Y-10576150D02*
X12637444Y-10585674D01*
X12637444Y-10585674D02*
X12646968Y-10604722D01*
X12646968Y-10604722D02*
X12646968Y-10623770D01*
X12646968Y-10623770D02*
X12551730Y-10642817D01*
X12723158Y-10699960D02*
X12742206Y-10709484D01*
X12742206Y-10709484D02*
X12780301Y-10709484D01*
X12780301Y-10709484D02*
X12799349Y-10699960D01*
X12799349Y-10699960D02*
X12808872Y-10680912D01*
X12808872Y-10680912D02*
X12808872Y-10671389D01*
X12808872Y-10671389D02*
X12799349Y-10652341D01*
X12799349Y-10652341D02*
X12780301Y-10642817D01*
X12780301Y-10642817D02*
X12751730Y-10642817D01*
X12751730Y-10642817D02*
X12732682Y-10633293D01*
X12732682Y-10633293D02*
X12723158Y-10614246D01*
X12723158Y-10614246D02*
X12723158Y-10604722D01*
X12723158Y-10604722D02*
X12732682Y-10585674D01*
X12732682Y-10585674D02*
X12751730Y-10576150D01*
X12751730Y-10576150D02*
X12780301Y-10576150D01*
X12780301Y-10576150D02*
X12799349Y-10585674D01*
X12875539Y-10785674D02*
X12885063Y-10776150D01*
X12885063Y-10776150D02*
X12904111Y-10747579D01*
X12904111Y-10747579D02*
X12913634Y-10728531D01*
X12913634Y-10728531D02*
X12923158Y-10699960D01*
X12923158Y-10699960D02*
X12932682Y-10652341D01*
X12932682Y-10652341D02*
X12932682Y-10614246D01*
X12932682Y-10614246D02*
X12923158Y-10566627D01*
X12923158Y-10566627D02*
X12913634Y-10538055D01*
X12913634Y-10538055D02*
X12904111Y-10519008D01*
X12904111Y-10519008D02*
X12885063Y-10490436D01*
X12885063Y-10490436D02*
X12875539Y-10480912D01*
M02*
