%TF.GenerationSoftware,KiCad,Pcbnew,7.0.7*%
%TF.CreationDate,2023-10-16T17:55:04+02:00*%
%TF.ProjectId,arduino-nano-radio-receiver,61726475-696e-46f2-9d6e-616e6f2d7261,0*%
%TF.SameCoordinates,Original*%
%TF.FileFunction,Legend,Top*%
%TF.FilePolarity,Positive*%
%FSLAX46Y46*%
G04 Gerber Fmt 4.6, Leading zero omitted, Abs format (unit mm)*
G04 Created by KiCad (PCBNEW 7.0.7) date 2023-10-16 17:55:04*
%MOMM*%
%LPD*%
G01*
G04 APERTURE LIST*
%ADD10C,0.150000*%
%ADD11C,0.120000*%
G04 APERTURE END LIST*
D10*
X85774874Y-33603152D02*
X85774874Y-32174580D01*
X86441541Y-32984104D02*
X86917731Y-32984104D01*
X86346303Y-33269819D02*
X86679636Y-32269819D01*
X86679636Y-32269819D02*
X87012969Y-33269819D01*
X87917731Y-33269819D02*
X87584398Y-32793628D01*
X87346303Y-33269819D02*
X87346303Y-32269819D01*
X87346303Y-32269819D02*
X87727255Y-32269819D01*
X87727255Y-32269819D02*
X87822493Y-32317438D01*
X87822493Y-32317438D02*
X87870112Y-32365057D01*
X87870112Y-32365057D02*
X87917731Y-32460295D01*
X87917731Y-32460295D02*
X87917731Y-32603152D01*
X87917731Y-32603152D02*
X87870112Y-32698390D01*
X87870112Y-32698390D02*
X87822493Y-32746009D01*
X87822493Y-32746009D02*
X87727255Y-32793628D01*
X87727255Y-32793628D02*
X87346303Y-32793628D01*
X88346303Y-33269819D02*
X88346303Y-32269819D01*
X88346303Y-32269819D02*
X88584398Y-32269819D01*
X88584398Y-32269819D02*
X88727255Y-32317438D01*
X88727255Y-32317438D02*
X88822493Y-32412676D01*
X88822493Y-32412676D02*
X88870112Y-32507914D01*
X88870112Y-32507914D02*
X88917731Y-32698390D01*
X88917731Y-32698390D02*
X88917731Y-32841247D01*
X88917731Y-32841247D02*
X88870112Y-33031723D01*
X88870112Y-33031723D02*
X88822493Y-33126961D01*
X88822493Y-33126961D02*
X88727255Y-33222200D01*
X88727255Y-33222200D02*
X88584398Y-33269819D01*
X88584398Y-33269819D02*
X88346303Y-33269819D01*
X89346303Y-32269819D02*
X89346303Y-33079342D01*
X89346303Y-33079342D02*
X89393922Y-33174580D01*
X89393922Y-33174580D02*
X89441541Y-33222200D01*
X89441541Y-33222200D02*
X89536779Y-33269819D01*
X89536779Y-33269819D02*
X89727255Y-33269819D01*
X89727255Y-33269819D02*
X89822493Y-33222200D01*
X89822493Y-33222200D02*
X89870112Y-33174580D01*
X89870112Y-33174580D02*
X89917731Y-33079342D01*
X89917731Y-33079342D02*
X89917731Y-32269819D01*
X90393922Y-33269819D02*
X90393922Y-32269819D01*
X90870112Y-33269819D02*
X90870112Y-32269819D01*
X90870112Y-32269819D02*
X91441540Y-33269819D01*
X91441540Y-33269819D02*
X91441540Y-32269819D01*
X92108207Y-32269819D02*
X92298683Y-32269819D01*
X92298683Y-32269819D02*
X92393921Y-32317438D01*
X92393921Y-32317438D02*
X92489159Y-32412676D01*
X92489159Y-32412676D02*
X92536778Y-32603152D01*
X92536778Y-32603152D02*
X92536778Y-32936485D01*
X92536778Y-32936485D02*
X92489159Y-33126961D01*
X92489159Y-33126961D02*
X92393921Y-33222200D01*
X92393921Y-33222200D02*
X92298683Y-33269819D01*
X92298683Y-33269819D02*
X92108207Y-33269819D01*
X92108207Y-33269819D02*
X92012969Y-33222200D01*
X92012969Y-33222200D02*
X91917731Y-33126961D01*
X91917731Y-33126961D02*
X91870112Y-32936485D01*
X91870112Y-32936485D02*
X91870112Y-32603152D01*
X91870112Y-32603152D02*
X91917731Y-32412676D01*
X91917731Y-32412676D02*
X92012969Y-32317438D01*
X92012969Y-32317438D02*
X92108207Y-32269819D01*
X93727255Y-33269819D02*
X93727255Y-32269819D01*
X93727255Y-32269819D02*
X94298683Y-33269819D01*
X94298683Y-33269819D02*
X94298683Y-32269819D01*
X94727255Y-32984104D02*
X95203445Y-32984104D01*
X94632017Y-33269819D02*
X94965350Y-32269819D01*
X94965350Y-32269819D02*
X95298683Y-33269819D01*
X95632017Y-33269819D02*
X95632017Y-32269819D01*
X95632017Y-32269819D02*
X96203445Y-33269819D01*
X96203445Y-33269819D02*
X96203445Y-32269819D01*
X96870112Y-32269819D02*
X97060588Y-32269819D01*
X97060588Y-32269819D02*
X97155826Y-32317438D01*
X97155826Y-32317438D02*
X97251064Y-32412676D01*
X97251064Y-32412676D02*
X97298683Y-32603152D01*
X97298683Y-32603152D02*
X97298683Y-32936485D01*
X97298683Y-32936485D02*
X97251064Y-33126961D01*
X97251064Y-33126961D02*
X97155826Y-33222200D01*
X97155826Y-33222200D02*
X97060588Y-33269819D01*
X97060588Y-33269819D02*
X96870112Y-33269819D01*
X96870112Y-33269819D02*
X96774874Y-33222200D01*
X96774874Y-33222200D02*
X96679636Y-33126961D01*
X96679636Y-33126961D02*
X96632017Y-32936485D01*
X96632017Y-32936485D02*
X96632017Y-32603152D01*
X96632017Y-32603152D02*
X96679636Y-32412676D01*
X96679636Y-32412676D02*
X96774874Y-32317438D01*
X96774874Y-32317438D02*
X96870112Y-32269819D01*
X99060588Y-33269819D02*
X98727255Y-32793628D01*
X98489160Y-33269819D02*
X98489160Y-32269819D01*
X98489160Y-32269819D02*
X98870112Y-32269819D01*
X98870112Y-32269819D02*
X98965350Y-32317438D01*
X98965350Y-32317438D02*
X99012969Y-32365057D01*
X99012969Y-32365057D02*
X99060588Y-32460295D01*
X99060588Y-32460295D02*
X99060588Y-32603152D01*
X99060588Y-32603152D02*
X99012969Y-32698390D01*
X99012969Y-32698390D02*
X98965350Y-32746009D01*
X98965350Y-32746009D02*
X98870112Y-32793628D01*
X98870112Y-32793628D02*
X98489160Y-32793628D01*
X99441541Y-32984104D02*
X99917731Y-32984104D01*
X99346303Y-33269819D02*
X99679636Y-32269819D01*
X99679636Y-32269819D02*
X100012969Y-33269819D01*
X100346303Y-33269819D02*
X100346303Y-32269819D01*
X100346303Y-32269819D02*
X100584398Y-32269819D01*
X100584398Y-32269819D02*
X100727255Y-32317438D01*
X100727255Y-32317438D02*
X100822493Y-32412676D01*
X100822493Y-32412676D02*
X100870112Y-32507914D01*
X100870112Y-32507914D02*
X100917731Y-32698390D01*
X100917731Y-32698390D02*
X100917731Y-32841247D01*
X100917731Y-32841247D02*
X100870112Y-33031723D01*
X100870112Y-33031723D02*
X100822493Y-33126961D01*
X100822493Y-33126961D02*
X100727255Y-33222200D01*
X100727255Y-33222200D02*
X100584398Y-33269819D01*
X100584398Y-33269819D02*
X100346303Y-33269819D01*
X101346303Y-33269819D02*
X101346303Y-32269819D01*
X102012969Y-32269819D02*
X102203445Y-32269819D01*
X102203445Y-32269819D02*
X102298683Y-32317438D01*
X102298683Y-32317438D02*
X102393921Y-32412676D01*
X102393921Y-32412676D02*
X102441540Y-32603152D01*
X102441540Y-32603152D02*
X102441540Y-32936485D01*
X102441540Y-32936485D02*
X102393921Y-33126961D01*
X102393921Y-33126961D02*
X102298683Y-33222200D01*
X102298683Y-33222200D02*
X102203445Y-33269819D01*
X102203445Y-33269819D02*
X102012969Y-33269819D01*
X102012969Y-33269819D02*
X101917731Y-33222200D01*
X101917731Y-33222200D02*
X101822493Y-33126961D01*
X101822493Y-33126961D02*
X101774874Y-32936485D01*
X101774874Y-32936485D02*
X101774874Y-32603152D01*
X101774874Y-32603152D02*
X101822493Y-32412676D01*
X101822493Y-32412676D02*
X101917731Y-32317438D01*
X101917731Y-32317438D02*
X102012969Y-32269819D01*
X104203445Y-33269819D02*
X103870112Y-32793628D01*
X103632017Y-33269819D02*
X103632017Y-32269819D01*
X103632017Y-32269819D02*
X104012969Y-32269819D01*
X104012969Y-32269819D02*
X104108207Y-32317438D01*
X104108207Y-32317438D02*
X104155826Y-32365057D01*
X104155826Y-32365057D02*
X104203445Y-32460295D01*
X104203445Y-32460295D02*
X104203445Y-32603152D01*
X104203445Y-32603152D02*
X104155826Y-32698390D01*
X104155826Y-32698390D02*
X104108207Y-32746009D01*
X104108207Y-32746009D02*
X104012969Y-32793628D01*
X104012969Y-32793628D02*
X103632017Y-32793628D01*
X104632017Y-32746009D02*
X104965350Y-32746009D01*
X105108207Y-33269819D02*
X104632017Y-33269819D01*
X104632017Y-33269819D02*
X104632017Y-32269819D01*
X104632017Y-32269819D02*
X105108207Y-32269819D01*
X106108207Y-33174580D02*
X106060588Y-33222200D01*
X106060588Y-33222200D02*
X105917731Y-33269819D01*
X105917731Y-33269819D02*
X105822493Y-33269819D01*
X105822493Y-33269819D02*
X105679636Y-33222200D01*
X105679636Y-33222200D02*
X105584398Y-33126961D01*
X105584398Y-33126961D02*
X105536779Y-33031723D01*
X105536779Y-33031723D02*
X105489160Y-32841247D01*
X105489160Y-32841247D02*
X105489160Y-32698390D01*
X105489160Y-32698390D02*
X105536779Y-32507914D01*
X105536779Y-32507914D02*
X105584398Y-32412676D01*
X105584398Y-32412676D02*
X105679636Y-32317438D01*
X105679636Y-32317438D02*
X105822493Y-32269819D01*
X105822493Y-32269819D02*
X105917731Y-32269819D01*
X105917731Y-32269819D02*
X106060588Y-32317438D01*
X106060588Y-32317438D02*
X106108207Y-32365057D01*
X106536779Y-32746009D02*
X106870112Y-32746009D01*
X107012969Y-33269819D02*
X106536779Y-33269819D01*
X106536779Y-33269819D02*
X106536779Y-32269819D01*
X106536779Y-32269819D02*
X107012969Y-32269819D01*
X107441541Y-33269819D02*
X107441541Y-32269819D01*
X107774874Y-32269819D02*
X108108207Y-33269819D01*
X108108207Y-33269819D02*
X108441540Y-32269819D01*
X108774874Y-32746009D02*
X109108207Y-32746009D01*
X109251064Y-33269819D02*
X108774874Y-33269819D01*
X108774874Y-33269819D02*
X108774874Y-32269819D01*
X108774874Y-32269819D02*
X109251064Y-32269819D01*
X110251064Y-33269819D02*
X109917731Y-32793628D01*
X109679636Y-33269819D02*
X109679636Y-32269819D01*
X109679636Y-32269819D02*
X110060588Y-32269819D01*
X110060588Y-32269819D02*
X110155826Y-32317438D01*
X110155826Y-32317438D02*
X110203445Y-32365057D01*
X110203445Y-32365057D02*
X110251064Y-32460295D01*
X110251064Y-32460295D02*
X110251064Y-32603152D01*
X110251064Y-32603152D02*
X110203445Y-32698390D01*
X110203445Y-32698390D02*
X110155826Y-32746009D01*
X110155826Y-32746009D02*
X110060588Y-32793628D01*
X110060588Y-32793628D02*
X109679636Y-32793628D01*
X110917731Y-33603152D02*
X110917731Y-32174580D01*
X89685714Y-39269104D02*
X90161904Y-39269104D01*
X89590476Y-39554819D02*
X89923809Y-38554819D01*
X89923809Y-38554819D02*
X90257142Y-39554819D01*
X91114285Y-39554819D02*
X90542857Y-39554819D01*
X90828571Y-39554819D02*
X90828571Y-38554819D01*
X90828571Y-38554819D02*
X90733333Y-38697676D01*
X90733333Y-38697676D02*
X90638095Y-38792914D01*
X90638095Y-38792914D02*
X90542857Y-38840533D01*
X91541904Y-46845180D02*
X91541904Y-46035657D01*
X91541904Y-46035657D02*
X91494285Y-45940419D01*
X91494285Y-45940419D02*
X91446666Y-45892800D01*
X91446666Y-45892800D02*
X91351428Y-45845180D01*
X91351428Y-45845180D02*
X91160952Y-45845180D01*
X91160952Y-45845180D02*
X91065714Y-45892800D01*
X91065714Y-45892800D02*
X91018095Y-45940419D01*
X91018095Y-45940419D02*
X90970476Y-46035657D01*
X90970476Y-46035657D02*
X90970476Y-46845180D01*
X90541904Y-45892800D02*
X90399047Y-45845180D01*
X90399047Y-45845180D02*
X90160952Y-45845180D01*
X90160952Y-45845180D02*
X90065714Y-45892800D01*
X90065714Y-45892800D02*
X90018095Y-45940419D01*
X90018095Y-45940419D02*
X89970476Y-46035657D01*
X89970476Y-46035657D02*
X89970476Y-46130895D01*
X89970476Y-46130895D02*
X90018095Y-46226133D01*
X90018095Y-46226133D02*
X90065714Y-46273752D01*
X90065714Y-46273752D02*
X90160952Y-46321371D01*
X90160952Y-46321371D02*
X90351428Y-46368990D01*
X90351428Y-46368990D02*
X90446666Y-46416609D01*
X90446666Y-46416609D02*
X90494285Y-46464228D01*
X90494285Y-46464228D02*
X90541904Y-46559466D01*
X90541904Y-46559466D02*
X90541904Y-46654704D01*
X90541904Y-46654704D02*
X90494285Y-46749942D01*
X90494285Y-46749942D02*
X90446666Y-46797561D01*
X90446666Y-46797561D02*
X90351428Y-46845180D01*
X90351428Y-46845180D02*
X90113333Y-46845180D01*
X90113333Y-46845180D02*
X89970476Y-46797561D01*
X89208571Y-46368990D02*
X89065714Y-46321371D01*
X89065714Y-46321371D02*
X89018095Y-46273752D01*
X89018095Y-46273752D02*
X88970476Y-46178514D01*
X88970476Y-46178514D02*
X88970476Y-46035657D01*
X88970476Y-46035657D02*
X89018095Y-45940419D01*
X89018095Y-45940419D02*
X89065714Y-45892800D01*
X89065714Y-45892800D02*
X89160952Y-45845180D01*
X89160952Y-45845180D02*
X89541904Y-45845180D01*
X89541904Y-45845180D02*
X89541904Y-46845180D01*
X89541904Y-46845180D02*
X89208571Y-46845180D01*
X89208571Y-46845180D02*
X89113333Y-46797561D01*
X89113333Y-46797561D02*
X89065714Y-46749942D01*
X89065714Y-46749942D02*
X89018095Y-46654704D01*
X89018095Y-46654704D02*
X89018095Y-46559466D01*
X89018095Y-46559466D02*
X89065714Y-46464228D01*
X89065714Y-46464228D02*
X89113333Y-46416609D01*
X89113333Y-46416609D02*
X89208571Y-46368990D01*
X89208571Y-46368990D02*
X89541904Y-46368990D01*
X107703333Y-83209580D02*
X107655714Y-83257200D01*
X107655714Y-83257200D02*
X107512857Y-83304819D01*
X107512857Y-83304819D02*
X107417619Y-83304819D01*
X107417619Y-83304819D02*
X107274762Y-83257200D01*
X107274762Y-83257200D02*
X107179524Y-83161961D01*
X107179524Y-83161961D02*
X107131905Y-83066723D01*
X107131905Y-83066723D02*
X107084286Y-82876247D01*
X107084286Y-82876247D02*
X107084286Y-82733390D01*
X107084286Y-82733390D02*
X107131905Y-82542914D01*
X107131905Y-82542914D02*
X107179524Y-82447676D01*
X107179524Y-82447676D02*
X107274762Y-82352438D01*
X107274762Y-82352438D02*
X107417619Y-82304819D01*
X107417619Y-82304819D02*
X107512857Y-82304819D01*
X107512857Y-82304819D02*
X107655714Y-82352438D01*
X107655714Y-82352438D02*
X107703333Y-82400057D01*
X108655714Y-83304819D02*
X108084286Y-83304819D01*
X108370000Y-83304819D02*
X108370000Y-82304819D01*
X108370000Y-82304819D02*
X108274762Y-82447676D01*
X108274762Y-82447676D02*
X108179524Y-82542914D01*
X108179524Y-82542914D02*
X108084286Y-82590533D01*
X110381666Y-81004819D02*
X110381666Y-81719104D01*
X110381666Y-81719104D02*
X110334047Y-81861961D01*
X110334047Y-81861961D02*
X110238809Y-81957200D01*
X110238809Y-81957200D02*
X110095952Y-82004819D01*
X110095952Y-82004819D02*
X110000714Y-82004819D01*
X111381666Y-82004819D02*
X110810238Y-82004819D01*
X111095952Y-82004819D02*
X111095952Y-81004819D01*
X111095952Y-81004819D02*
X111000714Y-81147676D01*
X111000714Y-81147676D02*
X110905476Y-81242914D01*
X110905476Y-81242914D02*
X110810238Y-81290533D01*
X105389285Y-86381009D02*
X105532142Y-86428628D01*
X105532142Y-86428628D02*
X105579761Y-86476247D01*
X105579761Y-86476247D02*
X105627380Y-86571485D01*
X105627380Y-86571485D02*
X105627380Y-86714342D01*
X105627380Y-86714342D02*
X105579761Y-86809580D01*
X105579761Y-86809580D02*
X105532142Y-86857200D01*
X105532142Y-86857200D02*
X105436904Y-86904819D01*
X105436904Y-86904819D02*
X105055952Y-86904819D01*
X105055952Y-86904819D02*
X105055952Y-85904819D01*
X105055952Y-85904819D02*
X105389285Y-85904819D01*
X105389285Y-85904819D02*
X105484523Y-85952438D01*
X105484523Y-85952438D02*
X105532142Y-86000057D01*
X105532142Y-86000057D02*
X105579761Y-86095295D01*
X105579761Y-86095295D02*
X105579761Y-86190533D01*
X105579761Y-86190533D02*
X105532142Y-86285771D01*
X105532142Y-86285771D02*
X105484523Y-86333390D01*
X105484523Y-86333390D02*
X105389285Y-86381009D01*
X105389285Y-86381009D02*
X105055952Y-86381009D01*
X105913095Y-85904819D02*
X106484523Y-85904819D01*
X106198809Y-86904819D02*
X106198809Y-85904819D01*
X107341666Y-86904819D02*
X106770238Y-86904819D01*
X107055952Y-86904819D02*
X107055952Y-85904819D01*
X107055952Y-85904819D02*
X106960714Y-86047676D01*
X106960714Y-86047676D02*
X106865476Y-86142914D01*
X106865476Y-86142914D02*
X106770238Y-86190533D01*
X113083333Y-45259580D02*
X113035714Y-45307200D01*
X113035714Y-45307200D02*
X112892857Y-45354819D01*
X112892857Y-45354819D02*
X112797619Y-45354819D01*
X112797619Y-45354819D02*
X112654762Y-45307200D01*
X112654762Y-45307200D02*
X112559524Y-45211961D01*
X112559524Y-45211961D02*
X112511905Y-45116723D01*
X112511905Y-45116723D02*
X112464286Y-44926247D01*
X112464286Y-44926247D02*
X112464286Y-44783390D01*
X112464286Y-44783390D02*
X112511905Y-44592914D01*
X112511905Y-44592914D02*
X112559524Y-44497676D01*
X112559524Y-44497676D02*
X112654762Y-44402438D01*
X112654762Y-44402438D02*
X112797619Y-44354819D01*
X112797619Y-44354819D02*
X112892857Y-44354819D01*
X112892857Y-44354819D02*
X113035714Y-44402438D01*
X113035714Y-44402438D02*
X113083333Y-44450057D01*
X113464286Y-44450057D02*
X113511905Y-44402438D01*
X113511905Y-44402438D02*
X113607143Y-44354819D01*
X113607143Y-44354819D02*
X113845238Y-44354819D01*
X113845238Y-44354819D02*
X113940476Y-44402438D01*
X113940476Y-44402438D02*
X113988095Y-44450057D01*
X113988095Y-44450057D02*
X114035714Y-44545295D01*
X114035714Y-44545295D02*
X114035714Y-44640533D01*
X114035714Y-44640533D02*
X113988095Y-44783390D01*
X113988095Y-44783390D02*
X113416667Y-45354819D01*
X113416667Y-45354819D02*
X114035714Y-45354819D01*
X106638095Y-42854819D02*
X106638095Y-43664342D01*
X106638095Y-43664342D02*
X106685714Y-43759580D01*
X106685714Y-43759580D02*
X106733333Y-43807200D01*
X106733333Y-43807200D02*
X106828571Y-43854819D01*
X106828571Y-43854819D02*
X107019047Y-43854819D01*
X107019047Y-43854819D02*
X107114285Y-43807200D01*
X107114285Y-43807200D02*
X107161904Y-43759580D01*
X107161904Y-43759580D02*
X107209523Y-43664342D01*
X107209523Y-43664342D02*
X107209523Y-42854819D01*
X107638095Y-42950057D02*
X107685714Y-42902438D01*
X107685714Y-42902438D02*
X107780952Y-42854819D01*
X107780952Y-42854819D02*
X108019047Y-42854819D01*
X108019047Y-42854819D02*
X108114285Y-42902438D01*
X108114285Y-42902438D02*
X108161904Y-42950057D01*
X108161904Y-42950057D02*
X108209523Y-43045295D01*
X108209523Y-43045295D02*
X108209523Y-43140533D01*
X108209523Y-43140533D02*
X108161904Y-43283390D01*
X108161904Y-43283390D02*
X107590476Y-43854819D01*
X107590476Y-43854819D02*
X108209523Y-43854819D01*
X107133095Y-77429819D02*
X107133095Y-78239342D01*
X107133095Y-78239342D02*
X107180714Y-78334580D01*
X107180714Y-78334580D02*
X107228333Y-78382200D01*
X107228333Y-78382200D02*
X107323571Y-78429819D01*
X107323571Y-78429819D02*
X107514047Y-78429819D01*
X107514047Y-78429819D02*
X107609285Y-78382200D01*
X107609285Y-78382200D02*
X107656904Y-78334580D01*
X107656904Y-78334580D02*
X107704523Y-78239342D01*
X107704523Y-78239342D02*
X107704523Y-77429819D01*
X108704523Y-78429819D02*
X108133095Y-78429819D01*
X108418809Y-78429819D02*
X108418809Y-77429819D01*
X108418809Y-77429819D02*
X108323571Y-77572676D01*
X108323571Y-77572676D02*
X108228333Y-77667914D01*
X108228333Y-77667914D02*
X108133095Y-77715533D01*
D11*
%TO.C,A1*%
X99300000Y-85800000D02*
X99300000Y-83130000D01*
X99300000Y-80590000D02*
X99300000Y-42360000D01*
X99300000Y-42360000D02*
X94220000Y-42360000D01*
X96630000Y-83130000D02*
X99300000Y-83130000D01*
X96630000Y-80590000D02*
X99300000Y-80590000D01*
X96630000Y-80590000D02*
X96630000Y-83130000D01*
X96630000Y-80590000D02*
X96630000Y-45030000D01*
X96630000Y-45030000D02*
X99300000Y-45030000D01*
X94220000Y-50240000D02*
X86340000Y-50240000D01*
X94220000Y-39820000D02*
X94220000Y-50240000D01*
X86340000Y-50240000D02*
X86340000Y-39820000D01*
X86340000Y-39820000D02*
X94220000Y-39820000D01*
X83930000Y-83130000D02*
X83930000Y-45030000D01*
X83930000Y-83130000D02*
X81260000Y-83130000D01*
X83930000Y-45030000D02*
X81260000Y-45030000D01*
X81260000Y-85800000D02*
X99300000Y-85800000D01*
X81260000Y-42360000D02*
X86340000Y-42360000D01*
X81260000Y-42360000D02*
X81260000Y-85800000D01*
%TO.C,C1*%
X110139801Y-80795000D02*
X109739801Y-80795000D01*
X109939801Y-80995000D02*
X109939801Y-80595000D01*
X107870000Y-81680000D02*
X107870000Y-80440000D01*
X107870000Y-78760000D02*
X107870000Y-77520000D01*
X107830000Y-81680000D02*
X107830000Y-80440000D01*
X107830000Y-78760000D02*
X107830000Y-77520000D01*
X107790000Y-81679000D02*
X107790000Y-80440000D01*
X107790000Y-78760000D02*
X107790000Y-77521000D01*
X107750000Y-81677000D02*
X107750000Y-80440000D01*
X107750000Y-78760000D02*
X107750000Y-77523000D01*
X107710000Y-81674000D02*
X107710000Y-80440000D01*
X107710000Y-78760000D02*
X107710000Y-77526000D01*
X107670000Y-81671000D02*
X107670000Y-80440000D01*
X107670000Y-78760000D02*
X107670000Y-77529000D01*
X107630000Y-81667000D02*
X107630000Y-80440000D01*
X107630000Y-78760000D02*
X107630000Y-77533000D01*
X107590000Y-81662000D02*
X107590000Y-80440000D01*
X107590000Y-78760000D02*
X107590000Y-77538000D01*
X107550000Y-81656000D02*
X107550000Y-80440000D01*
X107550000Y-78760000D02*
X107550000Y-77544000D01*
X107510000Y-81650000D02*
X107510000Y-80440000D01*
X107510000Y-78760000D02*
X107510000Y-77550000D01*
X107470000Y-81642000D02*
X107470000Y-80440000D01*
X107470000Y-78760000D02*
X107470000Y-77558000D01*
X107430000Y-81634000D02*
X107430000Y-80440000D01*
X107430000Y-78760000D02*
X107430000Y-77566000D01*
X107390000Y-81625000D02*
X107390000Y-80440000D01*
X107390000Y-78760000D02*
X107390000Y-77575000D01*
X107350000Y-81616000D02*
X107350000Y-80440000D01*
X107350000Y-78760000D02*
X107350000Y-77584000D01*
X107310000Y-81605000D02*
X107310000Y-80440000D01*
X107310000Y-78760000D02*
X107310000Y-77595000D01*
X107270000Y-81594000D02*
X107270000Y-80440000D01*
X107270000Y-78760000D02*
X107270000Y-77606000D01*
X107230000Y-81582000D02*
X107230000Y-80440000D01*
X107230000Y-78760000D02*
X107230000Y-77618000D01*
X107190000Y-81568000D02*
X107190000Y-80440000D01*
X107190000Y-78760000D02*
X107190000Y-77632000D01*
X107149000Y-81554000D02*
X107149000Y-80440000D01*
X107149000Y-78760000D02*
X107149000Y-77646000D01*
X107109000Y-81540000D02*
X107109000Y-80440000D01*
X107109000Y-78760000D02*
X107109000Y-77660000D01*
X107069000Y-81524000D02*
X107069000Y-80440000D01*
X107069000Y-78760000D02*
X107069000Y-77676000D01*
X107029000Y-81507000D02*
X107029000Y-80440000D01*
X107029000Y-78760000D02*
X107029000Y-77693000D01*
X106989000Y-81489000D02*
X106989000Y-80440000D01*
X106989000Y-78760000D02*
X106989000Y-77711000D01*
X106949000Y-81470000D02*
X106949000Y-80440000D01*
X106949000Y-78760000D02*
X106949000Y-77730000D01*
X106909000Y-81451000D02*
X106909000Y-80440000D01*
X106909000Y-78760000D02*
X106909000Y-77749000D01*
X106869000Y-81430000D02*
X106869000Y-80440000D01*
X106869000Y-78760000D02*
X106869000Y-77770000D01*
X106829000Y-81408000D02*
X106829000Y-80440000D01*
X106829000Y-78760000D02*
X106829000Y-77792000D01*
X106789000Y-81385000D02*
X106789000Y-80440000D01*
X106789000Y-78760000D02*
X106789000Y-77815000D01*
X106749000Y-81360000D02*
X106749000Y-80440000D01*
X106749000Y-78760000D02*
X106749000Y-77840000D01*
X106709000Y-81335000D02*
X106709000Y-80440000D01*
X106709000Y-78760000D02*
X106709000Y-77865000D01*
X106669000Y-81308000D02*
X106669000Y-80440000D01*
X106669000Y-78760000D02*
X106669000Y-77892000D01*
X106629000Y-81280000D02*
X106629000Y-80440000D01*
X106629000Y-78760000D02*
X106629000Y-77920000D01*
X106589000Y-81250000D02*
X106589000Y-80440000D01*
X106589000Y-78760000D02*
X106589000Y-77950000D01*
X106549000Y-81219000D02*
X106549000Y-80440000D01*
X106549000Y-78760000D02*
X106549000Y-77981000D01*
X106509000Y-81187000D02*
X106509000Y-80440000D01*
X106509000Y-78760000D02*
X106509000Y-78013000D01*
X106469000Y-81152000D02*
X106469000Y-80440000D01*
X106469000Y-78760000D02*
X106469000Y-78048000D01*
X106429000Y-81116000D02*
X106429000Y-80440000D01*
X106429000Y-78760000D02*
X106429000Y-78084000D01*
X106389000Y-81078000D02*
X106389000Y-80440000D01*
X106389000Y-78760000D02*
X106389000Y-78122000D01*
X106349000Y-81038000D02*
X106349000Y-80440000D01*
X106349000Y-78760000D02*
X106349000Y-78162000D01*
X106309000Y-80996000D02*
X106309000Y-80440000D01*
X106309000Y-78760000D02*
X106309000Y-78204000D01*
X106269000Y-80951000D02*
X106269000Y-78249000D01*
X106229000Y-80904000D02*
X106229000Y-78296000D01*
X106189000Y-80854000D02*
X106189000Y-78346000D01*
X106149000Y-80800000D02*
X106149000Y-78400000D01*
X106109000Y-80742000D02*
X106109000Y-78458000D01*
X106069000Y-80680000D02*
X106069000Y-78520000D01*
X106029000Y-80613000D02*
X106029000Y-78587000D01*
X105989000Y-80540000D02*
X105989000Y-78660000D01*
X105949000Y-80459000D02*
X105949000Y-78741000D01*
X105909000Y-80368000D02*
X105909000Y-78832000D01*
X105869000Y-80264000D02*
X105869000Y-78936000D01*
X105829000Y-80137000D02*
X105829000Y-79063000D01*
X105789000Y-79970000D02*
X105789000Y-79230000D01*
X109990000Y-79600000D02*
G75*
G03*
X109990000Y-79600000I-2120000J0D01*
G01*
%TO.C,J1*%
X109470000Y-85380000D02*
X109470000Y-84050000D01*
X110800000Y-85380000D02*
X109470000Y-85380000D01*
X112070000Y-85380000D02*
X112130000Y-85380000D01*
X112070000Y-85380000D02*
X112070000Y-82720000D01*
X112130000Y-85380000D02*
X112130000Y-82720000D01*
X112070000Y-82720000D02*
X112130000Y-82720000D01*
%TO.C,BT1*%
X103270000Y-85380000D02*
X103270000Y-84050000D01*
X104600000Y-85380000D02*
X103270000Y-85380000D01*
X105870000Y-85380000D02*
X108470000Y-85380000D01*
X105870000Y-85380000D02*
X105870000Y-82720000D01*
X108470000Y-85380000D02*
X108470000Y-82720000D01*
X105870000Y-82720000D02*
X108470000Y-82720000D01*
%TO.C,G\u002A\u002A\u002A*%
G36*
X97215495Y-36851737D02*
G01*
X97215495Y-37111844D01*
X96955388Y-37111844D01*
X96695281Y-37111844D01*
X96695281Y-36953518D01*
X96828510Y-36953518D01*
X96942839Y-36953518D01*
X97057169Y-36953518D01*
X97057169Y-36839189D01*
X97057169Y-36724859D01*
X96949733Y-36731753D01*
X96842298Y-36738647D01*
X96835404Y-36846082D01*
X96828510Y-36953518D01*
X96695281Y-36953518D01*
X96695281Y-36851737D01*
X96695281Y-36591630D01*
X96955388Y-36591630D01*
X97215495Y-36591630D01*
X97215495Y-36851737D01*
G37*
G36*
X97871416Y-35517276D02*
G01*
X97871416Y-35777382D01*
X97611309Y-35777382D01*
X97351203Y-35777382D01*
X97351203Y-35517276D01*
X97351203Y-35415495D01*
X97509528Y-35415495D01*
X97509528Y-35529824D01*
X97509528Y-35644153D01*
X97616964Y-35637259D01*
X97724399Y-35630365D01*
X97731293Y-35522930D01*
X97738187Y-35415495D01*
X97623858Y-35415495D01*
X97509528Y-35415495D01*
X97351203Y-35415495D01*
X97351203Y-35257169D01*
X97611309Y-35257169D01*
X97871416Y-35257169D01*
X97871416Y-35517276D01*
G37*
G36*
X97871416Y-36184506D02*
G01*
X97871416Y-36455922D01*
X97611309Y-36455922D01*
X97351203Y-36455922D01*
X97351203Y-36184506D01*
X97351203Y-36068938D01*
X97509528Y-36068938D01*
X97509528Y-36184506D01*
X97509528Y-36300075D01*
X97616964Y-36293181D01*
X97724399Y-36286287D01*
X97724399Y-36184506D01*
X97724399Y-36082725D01*
X97616964Y-36075831D01*
X97509528Y-36068938D01*
X97351203Y-36068938D01*
X97351203Y-35913090D01*
X97611309Y-35913090D01*
X97871416Y-35913090D01*
X97871416Y-36184506D01*
G37*
G36*
X97871416Y-36851737D02*
G01*
X97871416Y-37111844D01*
X97611309Y-37111844D01*
X97351203Y-37111844D01*
X97351203Y-36851737D01*
X97351203Y-36724859D01*
X97509528Y-36724859D01*
X97509528Y-36839189D01*
X97509528Y-36953518D01*
X97623858Y-36953518D01*
X97738187Y-36953518D01*
X97731293Y-36846082D01*
X97724399Y-36738647D01*
X97616964Y-36731753D01*
X97509528Y-36724859D01*
X97351203Y-36724859D01*
X97351203Y-36591630D01*
X97611309Y-36591630D01*
X97871416Y-36591630D01*
X97871416Y-36851737D01*
G37*
G36*
X98549956Y-36851737D02*
G01*
X98549956Y-37111844D01*
X98289849Y-37111844D01*
X98029742Y-37111844D01*
X98029742Y-36953518D01*
X98162972Y-36953518D01*
X98277301Y-36953518D01*
X98391630Y-36953518D01*
X98391630Y-36839189D01*
X98391630Y-36724859D01*
X98284195Y-36731753D01*
X98176759Y-36738647D01*
X98169865Y-36846082D01*
X98162972Y-36953518D01*
X98029742Y-36953518D01*
X98029742Y-36851737D01*
X98029742Y-36591630D01*
X98289849Y-36591630D01*
X98549956Y-36591630D01*
X98549956Y-36851737D01*
G37*
G36*
X97215495Y-35517276D02*
G01*
X97215495Y-35777382D01*
X96955388Y-35777382D01*
X96695281Y-35777382D01*
X96695281Y-35517276D01*
X96695281Y-35415495D01*
X96830989Y-35415495D01*
X96830989Y-35513506D01*
X96834197Y-35576975D01*
X96842250Y-35619577D01*
X96846067Y-35626596D01*
X96876191Y-35635867D01*
X96933854Y-35641182D01*
X96959157Y-35641674D01*
X97057169Y-35641674D01*
X97057169Y-35528585D01*
X97057169Y-35415495D01*
X96944079Y-35415495D01*
X96830989Y-35415495D01*
X96695281Y-35415495D01*
X96695281Y-35257169D01*
X96955388Y-35257169D01*
X97215495Y-35257169D01*
X97215495Y-35517276D01*
G37*
G36*
X97215495Y-36184506D02*
G01*
X97215495Y-36455922D01*
X96955388Y-36455922D01*
X96695281Y-36455922D01*
X96695281Y-36234849D01*
X96833367Y-36234849D01*
X96852215Y-36277219D01*
X96899667Y-36294891D01*
X96954678Y-36297596D01*
X97057169Y-36297596D01*
X97057169Y-36183267D01*
X97057169Y-36068938D01*
X96949733Y-36075831D01*
X96884688Y-36081997D01*
X96852046Y-36095663D01*
X96839006Y-36126044D01*
X96835050Y-36158387D01*
X96833367Y-36234849D01*
X96695281Y-36234849D01*
X96695281Y-36184506D01*
X96695281Y-35913090D01*
X96955388Y-35913090D01*
X97215495Y-35913090D01*
X97215495Y-36184506D01*
G37*
G36*
X98549956Y-35517276D02*
G01*
X98549956Y-35777382D01*
X98289849Y-35777382D01*
X98029742Y-35777382D01*
X98029742Y-35517276D01*
X98029742Y-35415495D01*
X98165450Y-35415495D01*
X98165450Y-35513506D01*
X98168658Y-35576975D01*
X98176712Y-35619577D01*
X98180529Y-35626596D01*
X98210652Y-35635867D01*
X98268316Y-35641182D01*
X98293619Y-35641674D01*
X98391630Y-35641674D01*
X98391630Y-35528585D01*
X98391630Y-35415495D01*
X98278540Y-35415495D01*
X98165450Y-35415495D01*
X98029742Y-35415495D01*
X98029742Y-35257169D01*
X98289849Y-35257169D01*
X98549956Y-35257169D01*
X98549956Y-35517276D01*
G37*
G36*
X98549956Y-36184506D02*
G01*
X98549956Y-36455922D01*
X98289849Y-36455922D01*
X98029742Y-36455922D01*
X98029742Y-36234849D01*
X98167828Y-36234849D01*
X98186676Y-36277219D01*
X98234128Y-36294891D01*
X98289139Y-36297596D01*
X98391630Y-36297596D01*
X98391630Y-36183267D01*
X98391630Y-36068938D01*
X98284195Y-36075831D01*
X98219149Y-36081997D01*
X98186507Y-36095663D01*
X98173468Y-36126044D01*
X98169511Y-36158387D01*
X98167828Y-36234849D01*
X98029742Y-36234849D01*
X98029742Y-36184506D01*
X98029742Y-35913090D01*
X98289849Y-35913090D01*
X98549956Y-35913090D01*
X98549956Y-36184506D01*
G37*
G36*
X98549956Y-34669101D02*
G01*
X98549956Y-35030989D01*
X97622618Y-35030989D01*
X96695281Y-35030989D01*
X96695281Y-34669101D01*
X96695281Y-34465539D01*
X96830989Y-34465539D01*
X96830989Y-34654022D01*
X96832687Y-34742358D01*
X96837207Y-34812510D01*
X96843687Y-34852842D01*
X96846067Y-34857584D01*
X96871484Y-34861157D01*
X96936793Y-34864428D01*
X97036650Y-34867293D01*
X97165712Y-34869649D01*
X97318636Y-34871393D01*
X97490077Y-34872423D01*
X97626388Y-34872663D01*
X98391630Y-34872663D01*
X98391630Y-34669101D01*
X98391630Y-34465539D01*
X97611309Y-34465539D01*
X96830989Y-34465539D01*
X96695281Y-34465539D01*
X96695281Y-34307213D01*
X97622618Y-34307213D01*
X98549956Y-34307213D01*
X98549956Y-34669101D01*
G37*
G36*
X98274338Y-33948217D02*
G01*
X98432435Y-33949355D01*
X98560207Y-33951894D01*
X98661379Y-33956117D01*
X98739679Y-33962308D01*
X98798835Y-33970749D01*
X98842574Y-33981724D01*
X98874622Y-33995515D01*
X98898708Y-34012405D01*
X98918558Y-34032678D01*
X98935228Y-34053218D01*
X98943542Y-34064908D01*
X98950749Y-34079441D01*
X98956930Y-34099934D01*
X98962162Y-34129498D01*
X98966526Y-34171248D01*
X98970098Y-34228299D01*
X98972960Y-34303764D01*
X98975188Y-34400756D01*
X98976863Y-34522390D01*
X98978063Y-34671780D01*
X98978866Y-34852040D01*
X98979352Y-35066283D01*
X98979600Y-35317623D01*
X98979689Y-35609175D01*
X98979698Y-35809327D01*
X98979751Y-36133338D01*
X98979759Y-36415166D01*
X98979497Y-36657864D01*
X98978738Y-36864485D01*
X98977255Y-37038081D01*
X98974822Y-37181705D01*
X98971214Y-37298409D01*
X98966203Y-37391247D01*
X98959563Y-37463271D01*
X98951069Y-37517534D01*
X98940494Y-37557089D01*
X98927611Y-37584987D01*
X98912195Y-37604283D01*
X98894018Y-37618029D01*
X98872856Y-37629276D01*
X98848480Y-37641079D01*
X98843740Y-37643496D01*
X98823394Y-37651191D01*
X98792202Y-37657638D01*
X98746478Y-37662934D01*
X98682533Y-37667177D01*
X98596683Y-37670463D01*
X98485241Y-37672890D01*
X98344520Y-37674556D01*
X98170834Y-37675557D01*
X97960497Y-37675992D01*
X97709822Y-37675957D01*
X97618087Y-37675860D01*
X97391954Y-37675225D01*
X97178631Y-37673941D01*
X96982571Y-37672083D01*
X96808224Y-37669724D01*
X96660038Y-37666940D01*
X96542466Y-37663804D01*
X96459957Y-37660391D01*
X96416961Y-37656775D01*
X96412556Y-37655715D01*
X96366420Y-37626511D01*
X96314949Y-37580584D01*
X96310775Y-37576171D01*
X96254230Y-37515339D01*
X96248155Y-35820931D01*
X96248098Y-35805156D01*
X96401247Y-35805156D01*
X96401315Y-36117793D01*
X96401565Y-36388309D01*
X96402068Y-36619817D01*
X96402892Y-36815433D01*
X96404107Y-36978271D01*
X96405784Y-37111445D01*
X96407991Y-37218070D01*
X96410800Y-37301261D01*
X96414278Y-37364131D01*
X96418497Y-37409796D01*
X96423525Y-37441369D01*
X96429432Y-37461965D01*
X96436289Y-37474699D01*
X96438680Y-37477605D01*
X96449172Y-37486930D01*
X96464850Y-37494741D01*
X96489505Y-37501172D01*
X96526928Y-37506357D01*
X96580912Y-37510428D01*
X96655247Y-37513520D01*
X96753726Y-37515765D01*
X96880139Y-37517297D01*
X97038278Y-37518249D01*
X97231935Y-37518755D01*
X97464901Y-37518947D01*
X97614815Y-37518967D01*
X97871017Y-37518921D01*
X98085815Y-37518682D01*
X98263038Y-37518103D01*
X98406517Y-37517037D01*
X98520082Y-37515335D01*
X98607566Y-37512851D01*
X98672798Y-37509435D01*
X98719609Y-37504942D01*
X98751829Y-37499222D01*
X98773291Y-37492128D01*
X98787823Y-37483513D01*
X98799191Y-37473294D01*
X98807890Y-37463783D01*
X98815393Y-37451782D01*
X98821775Y-37434128D01*
X98827111Y-37407657D01*
X98831476Y-37369205D01*
X98834945Y-37315610D01*
X98837591Y-37243706D01*
X98839491Y-37150331D01*
X98840718Y-37032320D01*
X98841347Y-36886510D01*
X98841453Y-36709738D01*
X98841111Y-36498839D01*
X98840396Y-36250649D01*
X98839382Y-35962006D01*
X98838772Y-35797734D01*
X98837579Y-35487032D01*
X98836424Y-35218430D01*
X98835212Y-34988792D01*
X98833851Y-34794983D01*
X98832244Y-34633866D01*
X98830298Y-34502306D01*
X98827918Y-34397168D01*
X98825011Y-34315314D01*
X98821481Y-34253611D01*
X98817235Y-34208921D01*
X98812179Y-34178109D01*
X98806216Y-34158039D01*
X98799255Y-34145575D01*
X98791199Y-34137583D01*
X98788776Y-34135749D01*
X98772197Y-34128284D01*
X98742233Y-34122029D01*
X98695300Y-34116883D01*
X98627814Y-34112749D01*
X98536190Y-34109527D01*
X98416842Y-34107119D01*
X98266187Y-34105427D01*
X98080639Y-34104351D01*
X97856615Y-34103793D01*
X97623328Y-34103651D01*
X97365383Y-34103793D01*
X97148908Y-34104292D01*
X96970141Y-34105263D01*
X96825316Y-34106818D01*
X96710670Y-34109071D01*
X96622438Y-34112134D01*
X96556856Y-34116121D01*
X96510160Y-34121145D01*
X96478585Y-34127319D01*
X96458368Y-34134756D01*
X96451516Y-34138861D01*
X96401247Y-34174070D01*
X96401247Y-35805156D01*
X96248098Y-35805156D01*
X96242079Y-34126524D01*
X96319913Y-34041579D01*
X96397746Y-33956634D01*
X97580815Y-33950383D01*
X97852255Y-33949014D01*
X98082187Y-33948198D01*
X98274338Y-33948217D01*
G37*
%TO.C,C2*%
X115519801Y-42845000D02*
X115119801Y-42845000D01*
X115319801Y-43045000D02*
X115319801Y-42645000D01*
X113250000Y-43730000D02*
X113250000Y-42490000D01*
X113250000Y-40810000D02*
X113250000Y-39570000D01*
X113210000Y-43730000D02*
X113210000Y-42490000D01*
X113210000Y-40810000D02*
X113210000Y-39570000D01*
X113170000Y-43729000D02*
X113170000Y-42490000D01*
X113170000Y-40810000D02*
X113170000Y-39571000D01*
X113130000Y-43727000D02*
X113130000Y-42490000D01*
X113130000Y-40810000D02*
X113130000Y-39573000D01*
X113090000Y-43724000D02*
X113090000Y-42490000D01*
X113090000Y-40810000D02*
X113090000Y-39576000D01*
X113050000Y-43721000D02*
X113050000Y-42490000D01*
X113050000Y-40810000D02*
X113050000Y-39579000D01*
X113010000Y-43717000D02*
X113010000Y-42490000D01*
X113010000Y-40810000D02*
X113010000Y-39583000D01*
X112970000Y-43712000D02*
X112970000Y-42490000D01*
X112970000Y-40810000D02*
X112970000Y-39588000D01*
X112930000Y-43706000D02*
X112930000Y-42490000D01*
X112930000Y-40810000D02*
X112930000Y-39594000D01*
X112890000Y-43700000D02*
X112890000Y-42490000D01*
X112890000Y-40810000D02*
X112890000Y-39600000D01*
X112850000Y-43692000D02*
X112850000Y-42490000D01*
X112850000Y-40810000D02*
X112850000Y-39608000D01*
X112810000Y-43684000D02*
X112810000Y-42490000D01*
X112810000Y-40810000D02*
X112810000Y-39616000D01*
X112770000Y-43675000D02*
X112770000Y-42490000D01*
X112770000Y-40810000D02*
X112770000Y-39625000D01*
X112730000Y-43666000D02*
X112730000Y-42490000D01*
X112730000Y-40810000D02*
X112730000Y-39634000D01*
X112690000Y-43655000D02*
X112690000Y-42490000D01*
X112690000Y-40810000D02*
X112690000Y-39645000D01*
X112650000Y-43644000D02*
X112650000Y-42490000D01*
X112650000Y-40810000D02*
X112650000Y-39656000D01*
X112610000Y-43632000D02*
X112610000Y-42490000D01*
X112610000Y-40810000D02*
X112610000Y-39668000D01*
X112570000Y-43618000D02*
X112570000Y-42490000D01*
X112570000Y-40810000D02*
X112570000Y-39682000D01*
X112529000Y-43604000D02*
X112529000Y-42490000D01*
X112529000Y-40810000D02*
X112529000Y-39696000D01*
X112489000Y-43590000D02*
X112489000Y-42490000D01*
X112489000Y-40810000D02*
X112489000Y-39710000D01*
X112449000Y-43574000D02*
X112449000Y-42490000D01*
X112449000Y-40810000D02*
X112449000Y-39726000D01*
X112409000Y-43557000D02*
X112409000Y-42490000D01*
X112409000Y-40810000D02*
X112409000Y-39743000D01*
X112369000Y-43539000D02*
X112369000Y-42490000D01*
X112369000Y-40810000D02*
X112369000Y-39761000D01*
X112329000Y-43520000D02*
X112329000Y-42490000D01*
X112329000Y-40810000D02*
X112329000Y-39780000D01*
X112289000Y-43501000D02*
X112289000Y-42490000D01*
X112289000Y-40810000D02*
X112289000Y-39799000D01*
X112249000Y-43480000D02*
X112249000Y-42490000D01*
X112249000Y-40810000D02*
X112249000Y-39820000D01*
X112209000Y-43458000D02*
X112209000Y-42490000D01*
X112209000Y-40810000D02*
X112209000Y-39842000D01*
X112169000Y-43435000D02*
X112169000Y-42490000D01*
X112169000Y-40810000D02*
X112169000Y-39865000D01*
X112129000Y-43410000D02*
X112129000Y-42490000D01*
X112129000Y-40810000D02*
X112129000Y-39890000D01*
X112089000Y-43385000D02*
X112089000Y-42490000D01*
X112089000Y-40810000D02*
X112089000Y-39915000D01*
X112049000Y-43358000D02*
X112049000Y-42490000D01*
X112049000Y-40810000D02*
X112049000Y-39942000D01*
X112009000Y-43330000D02*
X112009000Y-42490000D01*
X112009000Y-40810000D02*
X112009000Y-39970000D01*
X111969000Y-43300000D02*
X111969000Y-42490000D01*
X111969000Y-40810000D02*
X111969000Y-40000000D01*
X111929000Y-43269000D02*
X111929000Y-42490000D01*
X111929000Y-40810000D02*
X111929000Y-40031000D01*
X111889000Y-43237000D02*
X111889000Y-42490000D01*
X111889000Y-40810000D02*
X111889000Y-40063000D01*
X111849000Y-43202000D02*
X111849000Y-42490000D01*
X111849000Y-40810000D02*
X111849000Y-40098000D01*
X111809000Y-43166000D02*
X111809000Y-42490000D01*
X111809000Y-40810000D02*
X111809000Y-40134000D01*
X111769000Y-43128000D02*
X111769000Y-42490000D01*
X111769000Y-40810000D02*
X111769000Y-40172000D01*
X111729000Y-43088000D02*
X111729000Y-42490000D01*
X111729000Y-40810000D02*
X111729000Y-40212000D01*
X111689000Y-43046000D02*
X111689000Y-42490000D01*
X111689000Y-40810000D02*
X111689000Y-40254000D01*
X111649000Y-43001000D02*
X111649000Y-40299000D01*
X111609000Y-42954000D02*
X111609000Y-40346000D01*
X111569000Y-42904000D02*
X111569000Y-40396000D01*
X111529000Y-42850000D02*
X111529000Y-40450000D01*
X111489000Y-42792000D02*
X111489000Y-40508000D01*
X111449000Y-42730000D02*
X111449000Y-40570000D01*
X111409000Y-42663000D02*
X111409000Y-40637000D01*
X111369000Y-42590000D02*
X111369000Y-40710000D01*
X111329000Y-42509000D02*
X111329000Y-40791000D01*
X111289000Y-42418000D02*
X111289000Y-40882000D01*
X111249000Y-42314000D02*
X111249000Y-40986000D01*
X111209000Y-42187000D02*
X111209000Y-41113000D01*
X111169000Y-42020000D02*
X111169000Y-41280000D01*
X115370000Y-41650000D02*
G75*
G03*
X115370000Y-41650000I-2120000J0D01*
G01*
%TO.C,U2*%
X115420000Y-44200000D02*
X115420000Y-44200000D01*
X115420000Y-44200000D02*
X115420000Y-73400000D01*
X99970000Y-44200000D02*
X115420000Y-44200000D01*
X114844000Y-44530000D02*
X114844000Y-44530000D01*
X114844000Y-44530000D02*
X114844000Y-49864000D01*
X104176000Y-44530000D02*
X114844000Y-44530000D01*
X104176000Y-44530000D02*
X104176000Y-44530000D01*
X112050000Y-44784000D02*
X112050000Y-44784000D01*
X114336000Y-47070000D02*
X112050000Y-47070000D01*
X112050000Y-47070000D02*
X112050000Y-44784000D01*
X114844000Y-49864000D02*
X104176000Y-49864000D01*
X104176000Y-49864000D02*
X104176000Y-44530000D01*
X115420000Y-73400000D02*
X99970000Y-73400000D01*
X99970000Y-73400000D02*
X99970000Y-44200000D01*
%TO.C,U1*%
X106740000Y-76730000D02*
X111880000Y-76730000D01*
X106740000Y-76730000D02*
X106740000Y-74070000D01*
X111880000Y-76730000D02*
X111880000Y-74070000D01*
X104140000Y-75400000D02*
X104140000Y-74070000D01*
X104140000Y-74070000D02*
X105470000Y-74070000D01*
X106740000Y-74070000D02*
X111880000Y-74070000D01*
%TD*%
M02*
