M48
; DRILL file {KiCad 7.0.6} date Sat 16 Sep 2023 09:49:40 AM CEST
; FORMAT={-:-/ absolute / metric / decimal}
; #@! TF.CreationDate,2023-09-16T09:49:40+02:00
; #@! TF.GenerationSoftware,Kicad,Pcbnew,7.0.6
; #@! TF.FileFunction,Plated,1,2,PTH
FMAT,2
METRIC
; #@! TA.AperFunction,Plated,PTH,ViaDrill
T1C0.400
; #@! TA.AperFunction,Plated,PTH,ComponentDrill
T2C0.700
; #@! TA.AperFunction,Plated,PTH,ComponentDrill
T3C0.750
; #@! TA.AperFunction,Plated,PTH,ComponentDrill
T4C0.800
; #@! TA.AperFunction,Plated,PTH,ComponentDrill
T5C1.000
%
G90
G05
T1
X90.1Y-78.3
X90.9Y-69.5
X97.9Y-54.2
X98.4Y-61.2
X99.4Y-69.6
X100.5Y-84.9
X101.4Y-63.8
X103.6Y-72.8
X107.2Y-67.6
X107.4Y-55.8
X107.6Y-63.1
X112.6Y-74.1
X115.1Y-84.2
X115.3Y-53.5
X115.3Y-61.1
X121.1Y-55.4
X122.3Y-72.5
X122.4Y-67.2
T2
X91.55Y-63.6
X91.63Y-71.5
X91.73Y-59.1
X91.83Y-75.6
X99.17Y-63.6
X99.25Y-71.5
X99.35Y-59.1
X99.45Y-75.6
X114.28Y-62.875
X114.29Y-58.875
X114.38Y-70.175
X121.9Y-62.875
X121.91Y-58.875
X122.0Y-70.175
T3
X96.43Y-79.23
X97.7Y-80.5
X98.97Y-79.23
T4
X91.55Y-67.3
X94.05Y-67.3
X96.55Y-67.3
X99.05Y-67.3
X103.6Y-54.975
X103.6Y-57.515
X103.6Y-60.055
X103.6Y-62.595
X103.6Y-65.135
X103.6Y-67.675
X103.6Y-70.215
X111.22Y-54.975
X111.22Y-57.515
X111.22Y-60.055
X111.22Y-62.595
X111.22Y-65.135
X111.22Y-67.675
X111.22Y-70.215
X114.3Y-66.375
X116.8Y-66.375
X117.75Y-74.3
X120.25Y-74.3
T5
X103.7Y-79.9
X111.3Y-79.9
X117.66Y-77.6
X120.2Y-77.6
T0
M30
