%TF.GenerationSoftware,KiCad,Pcbnew,7.0.6*%
%TF.CreationDate,2023-09-16T09:49:35+02:00*%
%TF.ProjectId,cd4069-siren,63643430-3639-42d7-9369-72656e2e6b69,0*%
%TF.SameCoordinates,Original*%
%TF.FileFunction,Copper,L2,Bot*%
%TF.FilePolarity,Positive*%
%FSLAX46Y46*%
G04 Gerber Fmt 4.6, Leading zero omitted, Abs format (unit mm)*
G04 Created by KiCad (PCBNEW 7.0.6) date 2023-09-16 09:49:35*
%MOMM*%
%LPD*%
G01*
G04 APERTURE LIST*
%TA.AperFunction,ComponentPad*%
%ADD10C,1.600000*%
%TD*%
%TA.AperFunction,ComponentPad*%
%ADD11C,1.400000*%
%TD*%
%TA.AperFunction,ComponentPad*%
%ADD12O,1.400000X1.400000*%
%TD*%
%TA.AperFunction,ComponentPad*%
%ADD13R,1.700000X1.700000*%
%TD*%
%TA.AperFunction,ComponentPad*%
%ADD14O,1.700000X1.700000*%
%TD*%
%TA.AperFunction,ComponentPad*%
%ADD15R,1.600000X1.600000*%
%TD*%
%TA.AperFunction,ComponentPad*%
%ADD16O,1.600000X1.600000*%
%TD*%
%TA.AperFunction,ComponentPad*%
%ADD17R,1.300000X1.300000*%
%TD*%
%TA.AperFunction,ComponentPad*%
%ADD18C,1.300000*%
%TD*%
%TA.AperFunction,ComponentPad*%
%ADD19R,2.000000X2.000000*%
%TD*%
%TA.AperFunction,ComponentPad*%
%ADD20C,2.000000*%
%TD*%
%TA.AperFunction,ViaPad*%
%ADD21C,0.800000*%
%TD*%
%TA.AperFunction,Conductor*%
%ADD22C,0.600000*%
%TD*%
%TA.AperFunction,Conductor*%
%ADD23C,0.250000*%
%TD*%
G04 APERTURE END LIST*
D10*
%TO.P,C1,1*%
%TO.N,/I0*%
X94050000Y-67300000D03*
%TO.P,C1,2*%
%TO.N,Net-(C1-Pad2)*%
X91550000Y-67300000D03*
%TD*%
D11*
%TO.P,R6,1*%
%TO.N,Net-(R6-Pad1)*%
X114290000Y-58875000D03*
D12*
%TO.P,R6,2*%
%TO.N,Net-(C3-Pad2)*%
X121910000Y-58875000D03*
%TD*%
D13*
%TO.P,BT1,1,+*%
%TO.N,+6V*%
X120200000Y-77600000D03*
D14*
%TO.P,BT1,2,-*%
%TO.N,GND*%
X117660000Y-77600000D03*
%TD*%
D11*
%TO.P,R3,1*%
%TO.N,Net-(R3-Pad1)*%
X99250000Y-71500000D03*
D12*
%TO.P,R3,2*%
%TO.N,Net-(Piezo1-Pad1)*%
X91630000Y-71500000D03*
%TD*%
D10*
%TO.P,C3,1*%
%TO.N,Net-(C3-Pad1)*%
X114300000Y-66375000D03*
%TO.P,C3,2*%
%TO.N,Net-(C3-Pad2)*%
X116800000Y-66375000D03*
%TD*%
D11*
%TO.P,R4,1*%
%TO.N,Net-(C3-Pad1)*%
X114380000Y-70175000D03*
D12*
%TO.P,R4,2*%
%TO.N,Net-(BC546-B)*%
X122000000Y-70175000D03*
%TD*%
D10*
%TO.P,C4,1*%
%TO.N,+6V*%
X120250000Y-74300000D03*
%TO.P,C4,2*%
%TO.N,GND*%
X117750000Y-74300000D03*
%TD*%
D11*
%TO.P,R2,1*%
%TO.N,Net-(R2-Pad1)*%
X99170000Y-63600000D03*
D12*
%TO.P,R2,2*%
%TO.N,Net-(C1-Pad2)*%
X91550000Y-63600000D03*
%TD*%
D11*
%TO.P,R5,1*%
%TO.N,Net-(R5-Pad1)*%
X114280000Y-62875000D03*
D12*
%TO.P,R5,2*%
%TO.N,Net-(C3-Pad2)*%
X121900000Y-62875000D03*
%TD*%
D15*
%TO.P,CD4069,1*%
%TO.N,Net-(R1-Pad1)*%
X103600000Y-54975000D03*
D16*
%TO.P,CD4069,2*%
%TO.N,Net-(R2-Pad1)*%
X103600000Y-57515000D03*
%TO.P,CD4069,3*%
X103600000Y-60055000D03*
%TO.P,CD4069,4*%
%TO.N,/I0*%
X103600000Y-62595000D03*
%TO.P,CD4069,5*%
X103600000Y-65135000D03*
%TO.P,CD4069,6*%
%TO.N,Net-(R3-Pad1)*%
X103600000Y-67675000D03*
%TO.P,CD4069,7,VSS*%
%TO.N,GND*%
X103600000Y-70215000D03*
%TO.P,CD4069,8*%
%TO.N,Net-(C3-Pad1)*%
X111220000Y-70215000D03*
%TO.P,CD4069,9*%
%TO.N,Net-(R5-Pad1)*%
X111220000Y-67675000D03*
%TO.P,CD4069,10*%
X111220000Y-65135000D03*
%TO.P,CD4069,11*%
%TO.N,Net-(R6-Pad1)*%
X111220000Y-62595000D03*
%TO.P,CD4069,12*%
%TO.N,unconnected-(U1-Pad12)*%
X111220000Y-60055000D03*
%TO.P,CD4069,13*%
%TO.N,+6V*%
X111220000Y-57515000D03*
%TO.P,CD4069,14,VDD*%
X111220000Y-54975000D03*
%TD*%
D11*
%TO.P,R7,1*%
%TO.N,Net-(BC546-E)*%
X91830000Y-75600000D03*
D12*
%TO.P,R7,2*%
%TO.N,GND*%
X99450000Y-75600000D03*
%TD*%
D10*
%TO.P,C2,1*%
%TO.N,Net-(C1-Pad2)*%
X96550000Y-67300000D03*
%TO.P,C2,2*%
%TO.N,/I1*%
X99050000Y-67300000D03*
%TD*%
D11*
%TO.P,R1,1*%
%TO.N,Net-(R1-Pad1)*%
X99350000Y-59100000D03*
D12*
%TO.P,R1,2*%
%TO.N,Net-(C1-Pad2)*%
X91730000Y-59100000D03*
%TD*%
D17*
%TO.P,BC546,1,C*%
%TO.N,/I1*%
X98970000Y-79230000D03*
D18*
%TO.P,BC546,2,B*%
%TO.N,Net-(BC546-B)*%
X97700000Y-80500000D03*
%TO.P,BC546,3,E*%
%TO.N,Net-(BC546-E)*%
X96430000Y-79230000D03*
%TD*%
D19*
%TO.P,Piezo1,1,1*%
%TO.N,Net-(Piezo1-Pad1)*%
X103700000Y-79900000D03*
D20*
%TO.P,Piezo1,2,2*%
%TO.N,/I0*%
X111300000Y-79900000D03*
%TD*%
D21*
%TO.N,GND*%
X107200000Y-67600000D03*
X121100000Y-55400000D03*
X115100000Y-84200000D03*
X107400000Y-55800000D03*
X112600000Y-74100000D03*
X90100000Y-78300000D03*
X122400000Y-67200000D03*
X122300000Y-72500000D03*
X97900000Y-54200000D03*
X99400000Y-69600000D03*
X98400000Y-61200000D03*
X107600000Y-63100000D03*
X115300000Y-61100000D03*
X101400000Y-63800000D03*
X90900000Y-69500000D03*
X115300000Y-53500000D03*
X100500000Y-84900000D03*
X103600000Y-72800000D03*
%TD*%
D22*
%TO.N,+6V*%
X111220000Y-57515000D02*
X111260000Y-57475000D01*
X111260000Y-57475000D02*
X116400000Y-57475000D01*
X116400000Y-57475000D02*
X120200000Y-61275000D01*
X120200000Y-74250000D02*
X120250000Y-74300000D01*
X120200000Y-61275000D02*
X120200000Y-74250000D01*
D23*
%TO.N,/I0*%
X111300000Y-79900000D02*
X110000000Y-79900000D01*
X110000000Y-79900000D02*
X109500000Y-79400000D01*
X109500000Y-79400000D02*
X109500000Y-67200000D01*
X109500000Y-67200000D02*
X107435000Y-65135000D01*
X107435000Y-65135000D02*
X103600000Y-65135000D01*
%TO.N,Net-(Piezo1-Pad1)*%
X91630000Y-71500000D02*
X91630000Y-72530000D01*
X91630000Y-72530000D02*
X92700000Y-73600000D01*
X92700000Y-73600000D02*
X102000000Y-73600000D01*
X103700000Y-75300000D02*
X103700000Y-79900000D01*
X102000000Y-73600000D02*
X103700000Y-75300000D01*
%TD*%
%TA.AperFunction,Conductor*%
%TO.N,GND*%
G36*
X121001619Y-47400584D02*
G01*
X121133628Y-47407503D01*
X121317027Y-47417803D01*
X121323212Y-47418465D01*
X121475647Y-47442608D01*
X121638194Y-47470226D01*
X121643811Y-47471453D01*
X121796693Y-47512418D01*
X121889122Y-47539046D01*
X121951724Y-47557082D01*
X121956759Y-47558769D01*
X122106183Y-47616127D01*
X122254007Y-47677358D01*
X122258412Y-47679388D01*
X122316795Y-47709136D01*
X122401921Y-47752511D01*
X122470991Y-47790684D01*
X122541480Y-47829641D01*
X122545215Y-47831882D01*
X122616449Y-47878142D01*
X122680872Y-47919980D01*
X122768357Y-47982053D01*
X122810764Y-48012142D01*
X122813886Y-48014510D01*
X122938748Y-48115621D01*
X122941034Y-48117567D01*
X123058721Y-48222738D01*
X123061248Y-48225128D01*
X123174870Y-48338750D01*
X123177260Y-48341277D01*
X123282431Y-48458964D01*
X123284385Y-48461260D01*
X123385480Y-48586102D01*
X123387862Y-48589243D01*
X123480019Y-48719127D01*
X123532215Y-48799500D01*
X123568106Y-48854767D01*
X123570364Y-48858531D01*
X123647488Y-48998078D01*
X123720604Y-49141575D01*
X123722643Y-49145997D01*
X123783877Y-49293829D01*
X123841221Y-49443217D01*
X123842916Y-49448273D01*
X123887579Y-49603297D01*
X123928541Y-49756171D01*
X123929778Y-49761835D01*
X123957394Y-49924369D01*
X123981530Y-50076758D01*
X123982196Y-50082985D01*
X123992509Y-50266618D01*
X123999414Y-50398364D01*
X123999499Y-50401649D01*
X123978180Y-83777082D01*
X123978095Y-83780288D01*
X123971202Y-83911830D01*
X123960874Y-84095715D01*
X123960208Y-84101941D01*
X123936115Y-84254070D01*
X123908451Y-84416884D01*
X123907214Y-84422548D01*
X123866328Y-84575142D01*
X123821579Y-84730465D01*
X123819884Y-84735522D01*
X123762646Y-84884635D01*
X123701289Y-85032760D01*
X123699251Y-85037182D01*
X123626276Y-85180405D01*
X123548986Y-85320250D01*
X123546719Y-85324027D01*
X123458822Y-85459380D01*
X123366460Y-85589550D01*
X123364078Y-85592691D01*
X123263173Y-85717299D01*
X123261219Y-85719595D01*
X123155849Y-85837504D01*
X123153459Y-85840031D01*
X123040031Y-85953459D01*
X123037504Y-85955849D01*
X122919595Y-86061219D01*
X122917299Y-86063173D01*
X122792691Y-86164078D01*
X122789550Y-86166460D01*
X122659380Y-86258822D01*
X122524027Y-86346719D01*
X122520250Y-86348986D01*
X122380405Y-86426276D01*
X122237182Y-86499251D01*
X122232760Y-86501289D01*
X122084635Y-86562646D01*
X121935522Y-86619884D01*
X121930465Y-86621579D01*
X121775142Y-86666328D01*
X121622548Y-86707214D01*
X121616884Y-86708451D01*
X121454070Y-86736115D01*
X121301941Y-86760208D01*
X121295715Y-86760874D01*
X121111831Y-86771202D01*
X120991333Y-86777516D01*
X120980301Y-86778095D01*
X120977057Y-86778180D01*
X91922943Y-86778180D01*
X91919698Y-86778095D01*
X91908666Y-86777516D01*
X91788169Y-86771202D01*
X91604283Y-86760874D01*
X91598057Y-86760208D01*
X91445929Y-86736115D01*
X91283114Y-86708451D01*
X91277450Y-86707214D01*
X91124857Y-86666328D01*
X90969533Y-86621579D01*
X90964476Y-86619884D01*
X90815364Y-86562646D01*
X90667238Y-86501289D01*
X90662816Y-86499250D01*
X90519594Y-86426276D01*
X90379748Y-86348986D01*
X90375971Y-86346719D01*
X90240626Y-86258826D01*
X90110448Y-86166460D01*
X90107307Y-86164078D01*
X89982680Y-86063156D01*
X89980429Y-86061241D01*
X89862475Y-85955831D01*
X89859967Y-85953459D01*
X89746539Y-85840031D01*
X89744170Y-85837527D01*
X89638752Y-85719563D01*
X89636848Y-85717327D01*
X89535910Y-85592678D01*
X89533538Y-85589550D01*
X89441169Y-85459367D01*
X89393318Y-85385683D01*
X89353276Y-85324023D01*
X89351012Y-85320249D01*
X89273723Y-85180405D01*
X89200748Y-85037182D01*
X89198709Y-85032760D01*
X89137354Y-84884635D01*
X89080107Y-84735502D01*
X89078426Y-84730491D01*
X89033671Y-84575142D01*
X88992780Y-84422531D01*
X88991552Y-84416914D01*
X88963887Y-84254087D01*
X88939788Y-84101930D01*
X88939124Y-84095715D01*
X88928797Y-83911830D01*
X88922937Y-83799999D01*
X90294551Y-83799999D01*
X90314317Y-84051151D01*
X90373126Y-84296110D01*
X90469533Y-84528859D01*
X90601160Y-84743653D01*
X90601161Y-84743656D01*
X90601164Y-84743659D01*
X90764776Y-84935224D01*
X90913066Y-85061875D01*
X90956343Y-85098838D01*
X90956346Y-85098839D01*
X91171140Y-85230466D01*
X91286946Y-85278434D01*
X91403889Y-85326873D01*
X91648852Y-85385683D01*
X91804950Y-85397968D01*
X91837116Y-85400500D01*
X91837118Y-85400500D01*
X91962884Y-85400500D01*
X91992518Y-85398167D01*
X92151148Y-85385683D01*
X92396111Y-85326873D01*
X92628859Y-85230466D01*
X92843659Y-85098836D01*
X93035224Y-84935224D01*
X93198836Y-84743659D01*
X93330466Y-84528859D01*
X93426873Y-84296111D01*
X93485683Y-84051148D01*
X93505449Y-83800000D01*
X93505449Y-83799999D01*
X119394551Y-83799999D01*
X119414317Y-84051151D01*
X119473126Y-84296110D01*
X119569533Y-84528859D01*
X119701160Y-84743653D01*
X119701161Y-84743656D01*
X119701164Y-84743659D01*
X119864776Y-84935224D01*
X120013066Y-85061875D01*
X120056343Y-85098838D01*
X120056346Y-85098839D01*
X120271140Y-85230466D01*
X120386946Y-85278434D01*
X120503889Y-85326873D01*
X120748852Y-85385683D01*
X120904950Y-85397968D01*
X120937116Y-85400500D01*
X120937118Y-85400500D01*
X121062884Y-85400500D01*
X121092517Y-85398167D01*
X121251148Y-85385683D01*
X121496111Y-85326873D01*
X121728859Y-85230466D01*
X121943659Y-85098836D01*
X122135224Y-84935224D01*
X122298836Y-84743659D01*
X122430466Y-84528859D01*
X122526873Y-84296111D01*
X122585683Y-84051148D01*
X122605449Y-83800000D01*
X122585683Y-83548852D01*
X122526873Y-83303889D01*
X122430466Y-83071141D01*
X122430466Y-83071140D01*
X122298839Y-82856346D01*
X122298838Y-82856343D01*
X122261875Y-82813066D01*
X122135224Y-82664776D01*
X122008571Y-82556604D01*
X121943656Y-82501161D01*
X121943653Y-82501160D01*
X121728859Y-82369533D01*
X121496110Y-82273126D01*
X121251150Y-82214317D01*
X121062884Y-82199500D01*
X121062882Y-82199500D01*
X120937118Y-82199500D01*
X120937116Y-82199500D01*
X120748849Y-82214317D01*
X120503889Y-82273126D01*
X120271140Y-82369533D01*
X120056346Y-82501160D01*
X120056343Y-82501161D01*
X119864776Y-82664776D01*
X119701161Y-82856343D01*
X119701160Y-82856346D01*
X119569533Y-83071140D01*
X119473126Y-83303889D01*
X119414317Y-83548848D01*
X119394551Y-83799999D01*
X93505449Y-83799999D01*
X93485683Y-83548852D01*
X93426873Y-83303889D01*
X93330466Y-83071141D01*
X93330466Y-83071140D01*
X93198839Y-82856346D01*
X93198838Y-82856343D01*
X93161875Y-82813066D01*
X93035224Y-82664776D01*
X92908571Y-82556604D01*
X92843656Y-82501161D01*
X92843653Y-82501160D01*
X92628859Y-82369533D01*
X92396110Y-82273126D01*
X92151150Y-82214317D01*
X91962884Y-82199500D01*
X91962882Y-82199500D01*
X91837118Y-82199500D01*
X91837116Y-82199500D01*
X91648849Y-82214317D01*
X91403889Y-82273126D01*
X91171140Y-82369533D01*
X90956346Y-82501160D01*
X90956343Y-82501161D01*
X90764776Y-82664776D01*
X90601161Y-82856343D01*
X90601160Y-82856346D01*
X90469533Y-83071140D01*
X90373126Y-83303889D01*
X90314317Y-83548848D01*
X90294551Y-83799999D01*
X88922937Y-83799999D01*
X88921905Y-83780310D01*
X88921821Y-83777032D01*
X88922627Y-82856346D01*
X88925799Y-79230000D01*
X95274570Y-79230000D01*
X95291233Y-79409814D01*
X95294244Y-79442310D01*
X95326817Y-79556792D01*
X95352596Y-79647392D01*
X95352596Y-79647394D01*
X95447632Y-79838253D01*
X95560326Y-79987482D01*
X95576128Y-80008407D01*
X95733698Y-80152052D01*
X95914981Y-80264298D01*
X96113802Y-80341321D01*
X96323390Y-80380500D01*
X96323392Y-80380500D01*
X96420571Y-80380500D01*
X96487610Y-80400185D01*
X96533365Y-80452989D01*
X96542383Y-80494445D01*
X96544042Y-80494292D01*
X96544570Y-80500000D01*
X96544571Y-80500000D01*
X96564244Y-80712310D01*
X96596246Y-80824785D01*
X96622596Y-80917392D01*
X96622596Y-80917394D01*
X96717632Y-81108253D01*
X96717634Y-81108255D01*
X96846128Y-81278407D01*
X97003698Y-81422052D01*
X97184981Y-81534298D01*
X97383802Y-81611321D01*
X97593390Y-81650500D01*
X97593392Y-81650500D01*
X97806608Y-81650500D01*
X97806610Y-81650500D01*
X98016198Y-81611321D01*
X98215019Y-81534298D01*
X98396302Y-81422052D01*
X98553872Y-81278407D01*
X98682366Y-81108255D01*
X98732544Y-81007483D01*
X98777403Y-80917394D01*
X98777403Y-80917393D01*
X98777405Y-80917389D01*
X98835756Y-80712310D01*
X98855429Y-80500000D01*
X98855958Y-80494292D01*
X98858360Y-80494514D01*
X98875114Y-80437460D01*
X98927918Y-80391705D01*
X98979429Y-80380499D01*
X99667871Y-80380499D01*
X99667872Y-80380499D01*
X99727483Y-80374091D01*
X99862331Y-80323796D01*
X99977546Y-80237546D01*
X100063796Y-80122331D01*
X100114091Y-79987483D01*
X100120500Y-79927873D01*
X100120499Y-78532128D01*
X100114091Y-78472517D01*
X100108007Y-78456206D01*
X100063797Y-78337671D01*
X100063793Y-78337664D01*
X99977547Y-78222455D01*
X99977544Y-78222452D01*
X99862335Y-78136206D01*
X99862328Y-78136202D01*
X99727482Y-78085908D01*
X99727483Y-78085908D01*
X99667883Y-78079501D01*
X99667881Y-78079500D01*
X99667873Y-78079500D01*
X99667864Y-78079500D01*
X98272129Y-78079500D01*
X98272123Y-78079501D01*
X98212516Y-78085908D01*
X98077671Y-78136202D01*
X98077664Y-78136206D01*
X97962455Y-78222452D01*
X97962452Y-78222455D01*
X97876206Y-78337664D01*
X97876202Y-78337671D01*
X97825908Y-78472517D01*
X97819791Y-78529423D01*
X97819501Y-78532123D01*
X97819500Y-78532135D01*
X97819500Y-79073946D01*
X97799815Y-79140985D01*
X97747011Y-79186740D01*
X97677853Y-79196684D01*
X97614297Y-79167659D01*
X97576523Y-79108881D01*
X97572029Y-79085387D01*
X97570969Y-79073946D01*
X97565756Y-79017690D01*
X97507405Y-78812611D01*
X97507403Y-78812606D01*
X97507403Y-78812605D01*
X97412367Y-78621746D01*
X97283872Y-78451593D01*
X97226729Y-78399500D01*
X97126302Y-78307948D01*
X96945019Y-78195702D01*
X96945017Y-78195701D01*
X96845608Y-78157190D01*
X96746198Y-78118679D01*
X96536610Y-78079500D01*
X96323390Y-78079500D01*
X96113802Y-78118679D01*
X96113799Y-78118679D01*
X96113799Y-78118680D01*
X95914982Y-78195701D01*
X95914980Y-78195702D01*
X95733699Y-78307947D01*
X95576127Y-78451593D01*
X95447632Y-78621746D01*
X95352596Y-78812605D01*
X95352596Y-78812607D01*
X95294244Y-79017689D01*
X95274570Y-79229999D01*
X95274570Y-79230000D01*
X88925799Y-79230000D01*
X88928975Y-75600000D01*
X90624357Y-75600000D01*
X90644884Y-75821535D01*
X90644885Y-75821537D01*
X90705769Y-76035523D01*
X90705775Y-76035538D01*
X90804938Y-76234683D01*
X90804943Y-76234691D01*
X90939020Y-76412238D01*
X91043706Y-76507671D01*
X91103182Y-76561891D01*
X91103437Y-76562123D01*
X91103439Y-76562125D01*
X91292595Y-76679245D01*
X91292596Y-76679245D01*
X91292599Y-76679247D01*
X91500060Y-76759618D01*
X91718757Y-76800500D01*
X91718759Y-76800500D01*
X91941241Y-76800500D01*
X91941243Y-76800500D01*
X92159940Y-76759618D01*
X92367401Y-76679247D01*
X92556562Y-76562124D01*
X92720981Y-76412236D01*
X92855058Y-76234689D01*
X92954229Y-76035528D01*
X93007016Y-75850000D01*
X98273505Y-75850000D01*
X98326239Y-76035349D01*
X98425368Y-76234425D01*
X98559391Y-76411900D01*
X98723738Y-76561721D01*
X98912820Y-76678797D01*
X98912822Y-76678798D01*
X99120195Y-76759135D01*
X99200000Y-76774052D01*
X99200000Y-75850000D01*
X98273505Y-75850000D01*
X93007016Y-75850000D01*
X93015115Y-75821536D01*
X93035643Y-75600000D01*
X93028854Y-75526739D01*
X93015115Y-75378464D01*
X93015114Y-75378462D01*
X93011880Y-75367097D01*
X92954229Y-75164472D01*
X92941615Y-75139139D01*
X92855061Y-74965316D01*
X92855056Y-74965308D01*
X92720979Y-74787761D01*
X92556562Y-74637876D01*
X92556560Y-74637874D01*
X92367404Y-74520754D01*
X92367398Y-74520752D01*
X92159940Y-74440382D01*
X91941243Y-74399500D01*
X91718757Y-74399500D01*
X91500060Y-74440382D01*
X91436186Y-74465127D01*
X91292601Y-74520752D01*
X91292595Y-74520754D01*
X91103439Y-74637874D01*
X91103437Y-74637876D01*
X90939020Y-74787761D01*
X90804943Y-74965308D01*
X90804938Y-74965316D01*
X90705775Y-75164461D01*
X90705769Y-75164476D01*
X90644885Y-75378462D01*
X90644884Y-75378464D01*
X90624357Y-75599999D01*
X90624357Y-75600000D01*
X88928975Y-75600000D01*
X88932562Y-71500000D01*
X90424357Y-71500000D01*
X90444884Y-71721535D01*
X90444885Y-71721537D01*
X90505769Y-71935523D01*
X90505775Y-71935538D01*
X90604938Y-72134683D01*
X90604943Y-72134691D01*
X90739020Y-72312238D01*
X90903433Y-72462120D01*
X90903435Y-72462121D01*
X90903438Y-72462124D01*
X90947443Y-72489371D01*
X90994079Y-72541397D01*
X91006105Y-72590901D01*
X91007290Y-72628625D01*
X91007291Y-72628627D01*
X91012880Y-72647867D01*
X91016824Y-72666911D01*
X91019336Y-72686792D01*
X91036490Y-72730119D01*
X91038382Y-72735647D01*
X91051381Y-72780388D01*
X91061580Y-72797634D01*
X91070138Y-72815103D01*
X91077514Y-72833732D01*
X91104898Y-72871423D01*
X91108106Y-72876307D01*
X91131827Y-72916416D01*
X91131833Y-72916424D01*
X91145990Y-72930580D01*
X91158627Y-72945375D01*
X91170406Y-72961587D01*
X91184169Y-72972973D01*
X91206309Y-72991288D01*
X91210620Y-72995210D01*
X91789936Y-73574526D01*
X92199194Y-73983784D01*
X92209019Y-73996048D01*
X92209240Y-73995866D01*
X92214210Y-74001873D01*
X92214213Y-74001876D01*
X92214214Y-74001877D01*
X92264651Y-74049241D01*
X92285530Y-74070120D01*
X92291004Y-74074366D01*
X92295442Y-74078156D01*
X92329418Y-74110062D01*
X92329422Y-74110064D01*
X92346973Y-74119713D01*
X92363231Y-74130392D01*
X92379064Y-74142674D01*
X92401015Y-74152172D01*
X92421837Y-74161183D01*
X92427081Y-74163752D01*
X92467908Y-74186197D01*
X92487312Y-74191179D01*
X92505710Y-74197478D01*
X92524105Y-74205438D01*
X92570129Y-74212726D01*
X92575832Y-74213907D01*
X92620981Y-74225500D01*
X92641016Y-74225500D01*
X92660413Y-74227026D01*
X92680196Y-74230160D01*
X92726583Y-74225775D01*
X92732422Y-74225500D01*
X99012774Y-74225500D01*
X99079813Y-74245185D01*
X99125568Y-74297989D01*
X99135512Y-74367147D01*
X99106487Y-74430703D01*
X99057568Y-74465127D01*
X98912822Y-74521201D01*
X98912820Y-74521202D01*
X98723738Y-74638278D01*
X98559391Y-74788099D01*
X98425368Y-74965574D01*
X98326239Y-75164650D01*
X98273505Y-75350000D01*
X99204419Y-75350000D01*
X99152940Y-75405921D01*
X99106018Y-75512892D01*
X99096372Y-75629302D01*
X99125047Y-75742538D01*
X99188936Y-75840327D01*
X99281115Y-75912072D01*
X99391595Y-75950000D01*
X99479005Y-75950000D01*
X99565216Y-75935614D01*
X99667947Y-75880019D01*
X99695581Y-75850000D01*
X99700000Y-75850000D01*
X99700000Y-76774052D01*
X99779804Y-76759135D01*
X99987177Y-76678798D01*
X99987179Y-76678797D01*
X100176261Y-76561721D01*
X100340608Y-76411900D01*
X100474631Y-76234425D01*
X100573760Y-76035349D01*
X100626495Y-75850000D01*
X99700000Y-75850000D01*
X99695581Y-75850000D01*
X99747060Y-75794079D01*
X99793982Y-75687108D01*
X99803628Y-75570698D01*
X99774953Y-75457462D01*
X99711064Y-75359673D01*
X99698636Y-75350000D01*
X100626495Y-75350000D01*
X100573760Y-75164650D01*
X100474631Y-74965574D01*
X100340608Y-74788099D01*
X100176261Y-74638278D01*
X99987179Y-74521202D01*
X99987177Y-74521201D01*
X99842432Y-74465127D01*
X99787030Y-74422554D01*
X99763440Y-74356787D01*
X99779151Y-74288707D01*
X99829175Y-74239928D01*
X99887226Y-74225500D01*
X101689548Y-74225500D01*
X101756587Y-74245185D01*
X101777228Y-74261818D01*
X103038182Y-75522772D01*
X103071666Y-75584093D01*
X103074500Y-75610451D01*
X103074500Y-78275500D01*
X103054815Y-78342539D01*
X103002011Y-78388294D01*
X102950500Y-78399500D01*
X102652130Y-78399500D01*
X102652123Y-78399501D01*
X102592516Y-78405908D01*
X102457671Y-78456202D01*
X102457664Y-78456206D01*
X102342455Y-78542452D01*
X102342452Y-78542455D01*
X102256206Y-78657664D01*
X102256202Y-78657671D01*
X102205908Y-78792517D01*
X102199501Y-78852116D01*
X102199501Y-78852123D01*
X102199500Y-78852135D01*
X102199500Y-80947870D01*
X102199501Y-80947876D01*
X102205908Y-81007483D01*
X102256202Y-81142328D01*
X102256206Y-81142335D01*
X102342452Y-81257544D01*
X102342455Y-81257547D01*
X102457664Y-81343793D01*
X102457671Y-81343797D01*
X102592517Y-81394091D01*
X102592516Y-81394091D01*
X102599444Y-81394835D01*
X102652127Y-81400500D01*
X104747872Y-81400499D01*
X104807483Y-81394091D01*
X104942331Y-81343796D01*
X105057546Y-81257546D01*
X105143796Y-81142331D01*
X105194091Y-81007483D01*
X105200500Y-80947873D01*
X105200499Y-78852128D01*
X105194091Y-78792517D01*
X105190378Y-78782563D01*
X105143797Y-78657671D01*
X105143793Y-78657664D01*
X105057547Y-78542455D01*
X105057544Y-78542452D01*
X104942335Y-78456206D01*
X104942328Y-78456202D01*
X104807482Y-78405908D01*
X104807483Y-78405908D01*
X104747883Y-78399501D01*
X104747881Y-78399500D01*
X104747873Y-78399500D01*
X104747865Y-78399500D01*
X104449500Y-78399500D01*
X104382461Y-78379815D01*
X104336706Y-78327011D01*
X104325500Y-78275500D01*
X104325500Y-75382738D01*
X104327224Y-75367124D01*
X104326938Y-75367097D01*
X104327672Y-75359334D01*
X104325500Y-75290203D01*
X104325500Y-75260651D01*
X104325500Y-75260650D01*
X104324629Y-75253759D01*
X104324172Y-75247945D01*
X104322709Y-75201372D01*
X104317122Y-75182144D01*
X104313174Y-75163084D01*
X104310663Y-75143204D01*
X104293512Y-75099887D01*
X104291619Y-75094358D01*
X104278618Y-75049609D01*
X104278616Y-75049606D01*
X104268423Y-75032371D01*
X104259861Y-75014894D01*
X104252487Y-74996270D01*
X104252486Y-74996268D01*
X104225079Y-74958545D01*
X104221888Y-74953686D01*
X104221175Y-74952481D01*
X104198170Y-74913580D01*
X104198168Y-74913578D01*
X104198165Y-74913574D01*
X104184006Y-74899415D01*
X104171368Y-74884619D01*
X104171345Y-74884587D01*
X104159594Y-74868413D01*
X104123688Y-74838709D01*
X104119376Y-74834786D01*
X102500803Y-73216212D01*
X102490980Y-73203950D01*
X102490759Y-73204134D01*
X102485786Y-73198123D01*
X102435364Y-73150773D01*
X102424919Y-73140328D01*
X102414475Y-73129883D01*
X102408986Y-73125625D01*
X102404561Y-73121847D01*
X102370582Y-73089938D01*
X102370580Y-73089936D01*
X102370577Y-73089935D01*
X102353029Y-73080288D01*
X102336763Y-73069604D01*
X102320933Y-73057325D01*
X102278168Y-73038818D01*
X102272922Y-73036248D01*
X102232093Y-73013803D01*
X102232092Y-73013802D01*
X102212693Y-73008822D01*
X102194281Y-73002518D01*
X102175898Y-72994562D01*
X102175892Y-72994560D01*
X102129874Y-72987272D01*
X102124152Y-72986087D01*
X102079021Y-72974500D01*
X102079019Y-72974500D01*
X102058984Y-72974500D01*
X102039586Y-72972973D01*
X102032162Y-72971797D01*
X102019805Y-72969840D01*
X102019804Y-72969840D01*
X101973416Y-72974225D01*
X101967578Y-72974500D01*
X93010453Y-72974500D01*
X92943414Y-72954815D01*
X92922772Y-72938181D01*
X92495550Y-72510959D01*
X92462065Y-72449636D01*
X92467049Y-72379944D01*
X92499693Y-72331641D01*
X92520981Y-72312236D01*
X92655058Y-72134689D01*
X92754229Y-71935528D01*
X92815115Y-71721536D01*
X92835643Y-71500000D01*
X98044357Y-71500000D01*
X98064884Y-71721535D01*
X98064885Y-71721537D01*
X98125769Y-71935523D01*
X98125775Y-71935538D01*
X98224938Y-72134683D01*
X98224943Y-72134691D01*
X98359020Y-72312238D01*
X98523437Y-72462123D01*
X98523439Y-72462125D01*
X98712595Y-72579245D01*
X98712596Y-72579245D01*
X98712599Y-72579247D01*
X98920060Y-72659618D01*
X99138757Y-72700500D01*
X99138759Y-72700500D01*
X99361241Y-72700500D01*
X99361243Y-72700500D01*
X99579940Y-72659618D01*
X99787401Y-72579247D01*
X99976562Y-72462124D01*
X100140981Y-72312236D01*
X100275058Y-72134689D01*
X100374229Y-71935528D01*
X100435115Y-71721536D01*
X100455643Y-71500000D01*
X100450200Y-71441265D01*
X100435115Y-71278464D01*
X100435114Y-71278462D01*
X100428224Y-71254247D01*
X100374229Y-71064472D01*
X100374224Y-71064461D01*
X100275061Y-70865316D01*
X100275056Y-70865308D01*
X100140979Y-70687761D01*
X99976562Y-70537876D01*
X99976560Y-70537874D01*
X99787404Y-70420754D01*
X99787398Y-70420752D01*
X99579940Y-70340382D01*
X99361243Y-70299500D01*
X99138757Y-70299500D01*
X98920060Y-70340382D01*
X98788864Y-70391207D01*
X98712601Y-70420752D01*
X98712595Y-70420754D01*
X98523439Y-70537874D01*
X98523437Y-70537876D01*
X98359020Y-70687761D01*
X98224943Y-70865308D01*
X98224938Y-70865316D01*
X98125775Y-71064461D01*
X98125769Y-71064476D01*
X98064885Y-71278462D01*
X98064884Y-71278464D01*
X98044357Y-71499999D01*
X98044357Y-71500000D01*
X92835643Y-71500000D01*
X92830200Y-71441265D01*
X92815115Y-71278464D01*
X92815114Y-71278462D01*
X92808224Y-71254247D01*
X92754229Y-71064472D01*
X92754224Y-71064461D01*
X92655061Y-70865316D01*
X92655056Y-70865308D01*
X92520979Y-70687761D01*
X92356562Y-70537876D01*
X92356560Y-70537874D01*
X92167404Y-70420754D01*
X92167398Y-70420752D01*
X91959940Y-70340382D01*
X91741243Y-70299500D01*
X91518757Y-70299500D01*
X91300060Y-70340382D01*
X91168864Y-70391207D01*
X91092601Y-70420752D01*
X91092595Y-70420754D01*
X90903439Y-70537874D01*
X90903437Y-70537876D01*
X90739020Y-70687761D01*
X90604943Y-70865308D01*
X90604938Y-70865316D01*
X90505775Y-71064461D01*
X90505769Y-71064476D01*
X90444885Y-71278462D01*
X90444884Y-71278464D01*
X90424357Y-71499999D01*
X90424357Y-71500000D01*
X88932562Y-71500000D01*
X88936237Y-67300001D01*
X90244532Y-67300001D01*
X90264364Y-67526686D01*
X90264366Y-67526697D01*
X90323258Y-67746488D01*
X90323261Y-67746497D01*
X90419431Y-67952732D01*
X90419432Y-67952734D01*
X90549954Y-68139141D01*
X90710858Y-68300045D01*
X90710861Y-68300047D01*
X90897266Y-68430568D01*
X91103504Y-68526739D01*
X91323308Y-68585635D01*
X91485230Y-68599801D01*
X91549998Y-68605468D01*
X91550000Y-68605468D01*
X91550002Y-68605468D01*
X91606672Y-68600509D01*
X91776692Y-68585635D01*
X91996496Y-68526739D01*
X92202734Y-68430568D01*
X92389139Y-68300047D01*
X92550047Y-68139139D01*
X92680568Y-67952734D01*
X92687618Y-67937614D01*
X92733789Y-67885176D01*
X92800982Y-67866023D01*
X92867864Y-67886238D01*
X92912381Y-67937614D01*
X92919432Y-67952733D01*
X92919432Y-67952734D01*
X93049954Y-68139141D01*
X93210858Y-68300045D01*
X93210861Y-68300047D01*
X93397266Y-68430568D01*
X93603504Y-68526739D01*
X93823308Y-68585635D01*
X93985230Y-68599801D01*
X94049998Y-68605468D01*
X94050000Y-68605468D01*
X94050002Y-68605468D01*
X94106673Y-68600509D01*
X94276692Y-68585635D01*
X94496496Y-68526739D01*
X94702734Y-68430568D01*
X94889139Y-68300047D01*
X95050047Y-68139139D01*
X95180568Y-67952734D01*
X95187618Y-67937614D01*
X95233789Y-67885176D01*
X95300982Y-67866023D01*
X95367864Y-67886238D01*
X95412381Y-67937614D01*
X95419432Y-67952733D01*
X95419432Y-67952734D01*
X95549954Y-68139141D01*
X95710858Y-68300045D01*
X95710861Y-68300047D01*
X95897266Y-68430568D01*
X96103504Y-68526739D01*
X96323308Y-68585635D01*
X96485230Y-68599801D01*
X96549998Y-68605468D01*
X96550000Y-68605468D01*
X96550002Y-68605468D01*
X96606672Y-68600509D01*
X96776692Y-68585635D01*
X96996496Y-68526739D01*
X97202734Y-68430568D01*
X97389139Y-68300047D01*
X97550047Y-68139139D01*
X97680568Y-67952734D01*
X97687618Y-67937614D01*
X97733789Y-67885176D01*
X97800982Y-67866023D01*
X97867864Y-67886238D01*
X97912381Y-67937614D01*
X97919432Y-67952733D01*
X97919432Y-67952734D01*
X98049954Y-68139141D01*
X98210858Y-68300045D01*
X98210861Y-68300047D01*
X98397266Y-68430568D01*
X98603504Y-68526739D01*
X98823308Y-68585635D01*
X98985230Y-68599801D01*
X99049998Y-68605468D01*
X99050000Y-68605468D01*
X99050002Y-68605468D01*
X99106673Y-68600509D01*
X99276692Y-68585635D01*
X99496496Y-68526739D01*
X99702734Y-68430568D01*
X99889139Y-68300047D01*
X100050047Y-68139139D01*
X100180568Y-67952734D01*
X100276739Y-67746496D01*
X100295896Y-67675001D01*
X102294532Y-67675001D01*
X102314364Y-67901686D01*
X102314366Y-67901697D01*
X102373258Y-68121488D01*
X102373261Y-68121497D01*
X102469431Y-68327732D01*
X102469432Y-68327734D01*
X102599954Y-68514141D01*
X102760858Y-68675045D01*
X102760861Y-68675047D01*
X102947266Y-68805568D01*
X103005865Y-68832893D01*
X103058305Y-68879065D01*
X103077457Y-68946258D01*
X103057242Y-69013139D01*
X103005867Y-69057657D01*
X102947515Y-69084867D01*
X102761179Y-69215342D01*
X102600342Y-69376179D01*
X102469865Y-69562517D01*
X102373734Y-69768673D01*
X102373730Y-69768682D01*
X102321127Y-69964999D01*
X102321128Y-69965000D01*
X103284314Y-69965000D01*
X103272359Y-69976955D01*
X103214835Y-70089852D01*
X103195014Y-70215000D01*
X103214835Y-70340148D01*
X103272359Y-70453045D01*
X103284314Y-70465000D01*
X102321128Y-70465000D01*
X102373730Y-70661317D01*
X102373734Y-70661326D01*
X102469865Y-70867482D01*
X102600342Y-71053820D01*
X102761179Y-71214657D01*
X102947517Y-71345134D01*
X103153673Y-71441265D01*
X103153682Y-71441269D01*
X103349999Y-71493872D01*
X103350000Y-71493871D01*
X103350000Y-70530686D01*
X103361955Y-70542641D01*
X103474852Y-70600165D01*
X103568519Y-70615000D01*
X103631481Y-70615000D01*
X103725148Y-70600165D01*
X103838045Y-70542641D01*
X103850000Y-70530686D01*
X103850000Y-71493872D01*
X104046317Y-71441269D01*
X104046326Y-71441265D01*
X104252482Y-71345134D01*
X104438820Y-71214657D01*
X104599657Y-71053820D01*
X104730134Y-70867482D01*
X104826265Y-70661326D01*
X104826269Y-70661317D01*
X104878872Y-70465000D01*
X103915686Y-70465000D01*
X103927641Y-70453045D01*
X103985165Y-70340148D01*
X104004986Y-70215000D01*
X103985165Y-70089852D01*
X103927641Y-69976955D01*
X103915686Y-69965000D01*
X104878872Y-69965000D01*
X104878872Y-69964999D01*
X104826269Y-69768682D01*
X104826265Y-69768673D01*
X104730134Y-69562517D01*
X104599657Y-69376179D01*
X104438820Y-69215342D01*
X104252482Y-69084865D01*
X104194133Y-69057657D01*
X104141694Y-69011484D01*
X104122542Y-68944291D01*
X104142758Y-68877410D01*
X104194129Y-68832895D01*
X104252734Y-68805568D01*
X104439139Y-68675047D01*
X104600047Y-68514139D01*
X104730568Y-68327734D01*
X104826739Y-68121496D01*
X104885635Y-67901692D01*
X104905468Y-67675000D01*
X104885635Y-67448308D01*
X104826739Y-67228504D01*
X104730568Y-67022266D01*
X104616284Y-66859050D01*
X104600045Y-66835858D01*
X104439141Y-66674954D01*
X104252734Y-66544432D01*
X104252728Y-66544429D01*
X104194725Y-66517382D01*
X104142285Y-66471210D01*
X104123133Y-66404017D01*
X104143348Y-66337135D01*
X104194725Y-66292618D01*
X104252734Y-66265568D01*
X104439139Y-66135047D01*
X104600047Y-65974139D01*
X104712612Y-65813377D01*
X104767189Y-65769752D01*
X104814188Y-65760500D01*
X107124548Y-65760500D01*
X107191587Y-65780185D01*
X107212229Y-65796819D01*
X108838181Y-67422771D01*
X108871666Y-67484094D01*
X108874500Y-67510452D01*
X108874500Y-79317255D01*
X108872775Y-79332872D01*
X108873061Y-79332899D01*
X108872326Y-79340665D01*
X108874500Y-79409814D01*
X108874500Y-79439343D01*
X108874501Y-79439360D01*
X108875368Y-79446231D01*
X108875826Y-79452050D01*
X108877290Y-79498624D01*
X108877291Y-79498627D01*
X108882880Y-79517867D01*
X108886824Y-79536911D01*
X108889336Y-79556791D01*
X108906490Y-79600119D01*
X108908382Y-79605647D01*
X108921381Y-79650388D01*
X108931580Y-79667634D01*
X108940138Y-79685103D01*
X108947514Y-79703732D01*
X108974898Y-79741423D01*
X108978106Y-79746307D01*
X109001827Y-79786416D01*
X109001833Y-79786424D01*
X109015990Y-79800580D01*
X109028628Y-79815376D01*
X109040405Y-79831586D01*
X109040406Y-79831587D01*
X109076309Y-79861288D01*
X109080620Y-79865210D01*
X109337738Y-80122328D01*
X109499194Y-80283784D01*
X109509019Y-80296048D01*
X109509240Y-80295866D01*
X109514210Y-80301873D01*
X109514213Y-80301876D01*
X109514214Y-80301877D01*
X109564651Y-80349241D01*
X109585529Y-80370119D01*
X109591004Y-80374366D01*
X109595446Y-80378160D01*
X109629415Y-80410060D01*
X109629417Y-80410061D01*
X109629418Y-80410062D01*
X109646976Y-80419714D01*
X109663237Y-80430396D01*
X109679064Y-80442673D01*
X109721823Y-80461176D01*
X109727073Y-80463748D01*
X109767904Y-80486195D01*
X109767908Y-80486197D01*
X109767912Y-80486198D01*
X109787311Y-80491179D01*
X109805722Y-80497483D01*
X109824097Y-80505435D01*
X109824099Y-80505435D01*
X109824105Y-80505438D01*
X109870152Y-80512730D01*
X109875848Y-80513910D01*
X109879113Y-80514749D01*
X109879364Y-80514814D01*
X109939377Y-80550592D01*
X109962001Y-80585087D01*
X109975826Y-80616606D01*
X110111833Y-80824782D01*
X110111836Y-80824785D01*
X110280256Y-81007738D01*
X110476491Y-81160474D01*
X110695190Y-81278828D01*
X110930386Y-81359571D01*
X111175665Y-81400500D01*
X111424335Y-81400500D01*
X111669614Y-81359571D01*
X111904810Y-81278828D01*
X112123509Y-81160474D01*
X112319744Y-81007738D01*
X112488164Y-80824785D01*
X112624173Y-80616607D01*
X112724063Y-80388881D01*
X112785108Y-80147821D01*
X112787220Y-80122331D01*
X112805643Y-79900005D01*
X112805643Y-79899994D01*
X112785109Y-79652187D01*
X112785107Y-79652175D01*
X112724063Y-79411118D01*
X112624173Y-79183393D01*
X112488166Y-78975217D01*
X112413213Y-78893797D01*
X112319744Y-78792262D01*
X112123509Y-78639526D01*
X112123507Y-78639525D01*
X112123506Y-78639524D01*
X111904811Y-78521172D01*
X111904802Y-78521169D01*
X111669616Y-78440429D01*
X111424335Y-78399500D01*
X111175665Y-78399500D01*
X110930383Y-78440429D01*
X110695197Y-78521169D01*
X110695188Y-78521172D01*
X110476493Y-78639524D01*
X110325662Y-78756921D01*
X110260668Y-78782563D01*
X110192128Y-78768996D01*
X110141803Y-78720528D01*
X110125500Y-78659067D01*
X110125500Y-77850000D01*
X116329364Y-77850000D01*
X116386567Y-78063486D01*
X116386570Y-78063492D01*
X116486399Y-78277578D01*
X116621894Y-78471082D01*
X116788917Y-78638105D01*
X116982421Y-78773600D01*
X117196507Y-78873429D01*
X117196516Y-78873433D01*
X117410000Y-78930634D01*
X117410000Y-78035501D01*
X117517685Y-78084680D01*
X117624237Y-78100000D01*
X117695763Y-78100000D01*
X117802315Y-78084680D01*
X117910000Y-78035501D01*
X117910000Y-78930633D01*
X118123483Y-78873433D01*
X118123492Y-78873429D01*
X118337578Y-78773600D01*
X118531078Y-78638108D01*
X118653133Y-78516053D01*
X118714456Y-78482568D01*
X118784148Y-78487552D01*
X118840082Y-78529423D01*
X118856997Y-78560401D01*
X118906202Y-78692328D01*
X118906206Y-78692335D01*
X118992452Y-78807544D01*
X118992455Y-78807547D01*
X119107664Y-78893793D01*
X119107671Y-78893797D01*
X119242517Y-78944091D01*
X119242516Y-78944091D01*
X119249444Y-78944835D01*
X119302127Y-78950500D01*
X121097872Y-78950499D01*
X121157483Y-78944091D01*
X121292331Y-78893796D01*
X121407546Y-78807546D01*
X121493796Y-78692331D01*
X121544091Y-78557483D01*
X121550500Y-78497873D01*
X121550499Y-76702128D01*
X121544091Y-76642517D01*
X121543002Y-76639598D01*
X121493797Y-76507671D01*
X121493793Y-76507664D01*
X121407547Y-76392455D01*
X121407544Y-76392452D01*
X121292335Y-76306206D01*
X121292328Y-76306202D01*
X121157482Y-76255908D01*
X121157483Y-76255908D01*
X121097883Y-76249501D01*
X121097881Y-76249500D01*
X121097873Y-76249500D01*
X121097864Y-76249500D01*
X119302129Y-76249500D01*
X119302123Y-76249501D01*
X119242516Y-76255908D01*
X119107671Y-76306202D01*
X119107664Y-76306206D01*
X118992455Y-76392452D01*
X118992452Y-76392455D01*
X118906206Y-76507664D01*
X118906202Y-76507671D01*
X118856997Y-76639598D01*
X118815126Y-76695532D01*
X118749661Y-76719949D01*
X118681388Y-76705097D01*
X118653134Y-76683946D01*
X118531082Y-76561894D01*
X118337578Y-76426399D01*
X118123492Y-76326570D01*
X118123486Y-76326567D01*
X117910000Y-76269364D01*
X117910000Y-77164498D01*
X117802315Y-77115320D01*
X117695763Y-77100000D01*
X117624237Y-77100000D01*
X117517685Y-77115320D01*
X117410000Y-77164498D01*
X117410000Y-76269364D01*
X117409999Y-76269364D01*
X117196513Y-76326567D01*
X117196507Y-76326570D01*
X116982422Y-76426399D01*
X116982420Y-76426400D01*
X116788926Y-76561886D01*
X116788920Y-76561891D01*
X116621891Y-76728920D01*
X116621886Y-76728926D01*
X116486400Y-76922420D01*
X116486399Y-76922422D01*
X116386570Y-77136507D01*
X116386567Y-77136513D01*
X116329364Y-77349999D01*
X116329364Y-77350000D01*
X117226314Y-77350000D01*
X117200507Y-77390156D01*
X117160000Y-77528111D01*
X117160000Y-77671889D01*
X117200507Y-77809844D01*
X117226314Y-77850000D01*
X116329364Y-77850000D01*
X110125500Y-77850000D01*
X110125500Y-74965308D01*
X110125500Y-71259045D01*
X110145184Y-71192010D01*
X110197988Y-71146255D01*
X110267146Y-71136311D01*
X110330702Y-71165336D01*
X110337179Y-71171367D01*
X110380858Y-71215045D01*
X110380861Y-71215047D01*
X110567266Y-71345568D01*
X110773504Y-71441739D01*
X110993308Y-71500635D01*
X111155230Y-71514801D01*
X111219998Y-71520468D01*
X111220000Y-71520468D01*
X111220002Y-71520468D01*
X111276673Y-71515509D01*
X111446692Y-71500635D01*
X111666496Y-71441739D01*
X111872734Y-71345568D01*
X112059139Y-71215047D01*
X112220047Y-71054139D01*
X112350568Y-70867734D01*
X112446739Y-70661496D01*
X112505635Y-70441692D01*
X112525468Y-70215000D01*
X112521968Y-70175000D01*
X113174357Y-70175000D01*
X113194884Y-70396535D01*
X113194885Y-70396537D01*
X113255769Y-70610523D01*
X113255775Y-70610538D01*
X113354938Y-70809683D01*
X113354943Y-70809691D01*
X113489020Y-70987238D01*
X113653437Y-71137123D01*
X113653439Y-71137125D01*
X113842595Y-71254245D01*
X113842596Y-71254245D01*
X113842599Y-71254247D01*
X114050060Y-71334618D01*
X114268757Y-71375500D01*
X114268759Y-71375500D01*
X114491241Y-71375500D01*
X114491243Y-71375500D01*
X114709940Y-71334618D01*
X114917401Y-71254247D01*
X115106562Y-71137124D01*
X115270981Y-70987236D01*
X115405058Y-70809689D01*
X115504229Y-70610528D01*
X115565115Y-70396536D01*
X115585643Y-70175000D01*
X115565115Y-69953464D01*
X115504229Y-69739472D01*
X115504224Y-69739461D01*
X115405061Y-69540316D01*
X115405056Y-69540308D01*
X115270979Y-69362761D01*
X115106562Y-69212876D01*
X115106560Y-69212874D01*
X114917404Y-69095754D01*
X114917398Y-69095752D01*
X114709940Y-69015382D01*
X114491243Y-68974500D01*
X114268757Y-68974500D01*
X114050060Y-69015382D01*
X113941646Y-69057382D01*
X113842601Y-69095752D01*
X113842595Y-69095754D01*
X113653439Y-69212874D01*
X113653437Y-69212876D01*
X113489020Y-69362761D01*
X113354943Y-69540308D01*
X113354938Y-69540316D01*
X113255775Y-69739461D01*
X113255769Y-69739476D01*
X113194885Y-69953462D01*
X113194884Y-69953464D01*
X113174357Y-70174999D01*
X113174357Y-70175000D01*
X112521968Y-70175000D01*
X112505635Y-69988313D01*
X112505635Y-69988308D01*
X112446739Y-69768504D01*
X112350568Y-69562266D01*
X112220047Y-69375861D01*
X112220045Y-69375858D01*
X112059141Y-69214954D01*
X111872734Y-69084432D01*
X111872728Y-69084429D01*
X111814725Y-69057382D01*
X111762285Y-69011210D01*
X111743133Y-68944017D01*
X111763348Y-68877135D01*
X111814725Y-68832618D01*
X111872734Y-68805568D01*
X112059139Y-68675047D01*
X112220047Y-68514139D01*
X112350568Y-68327734D01*
X112446739Y-68121496D01*
X112505635Y-67901692D01*
X112525468Y-67675000D01*
X112505635Y-67448308D01*
X112446739Y-67228504D01*
X112350568Y-67022266D01*
X112236284Y-66859050D01*
X112220045Y-66835858D01*
X112059141Y-66674954D01*
X111872734Y-66544432D01*
X111872728Y-66544429D01*
X111814725Y-66517382D01*
X111762285Y-66471210D01*
X111743133Y-66404017D01*
X111751903Y-66375001D01*
X112994532Y-66375001D01*
X113014364Y-66601686D01*
X113014366Y-66601697D01*
X113073258Y-66821488D01*
X113073261Y-66821497D01*
X113169431Y-67027732D01*
X113169432Y-67027734D01*
X113299954Y-67214141D01*
X113460858Y-67375045D01*
X113460861Y-67375047D01*
X113647266Y-67505568D01*
X113853504Y-67601739D01*
X114073308Y-67660635D01*
X114235230Y-67674801D01*
X114299998Y-67680468D01*
X114300000Y-67680468D01*
X114300002Y-67680468D01*
X114362522Y-67674998D01*
X114526692Y-67660635D01*
X114746496Y-67601739D01*
X114952734Y-67505568D01*
X115139139Y-67375047D01*
X115300047Y-67214139D01*
X115430568Y-67027734D01*
X115437618Y-67012614D01*
X115483789Y-66960176D01*
X115550982Y-66941023D01*
X115617864Y-66961238D01*
X115662381Y-67012614D01*
X115669432Y-67027733D01*
X115669432Y-67027734D01*
X115799954Y-67214141D01*
X115960858Y-67375045D01*
X115960861Y-67375047D01*
X116147266Y-67505568D01*
X116353504Y-67601739D01*
X116573308Y-67660635D01*
X116735230Y-67674801D01*
X116799998Y-67680468D01*
X116800000Y-67680468D01*
X116800002Y-67680468D01*
X116862522Y-67674998D01*
X117026692Y-67660635D01*
X117246496Y-67601739D01*
X117452734Y-67505568D01*
X117639139Y-67375047D01*
X117800047Y-67214139D01*
X117930568Y-67027734D01*
X118026739Y-66821496D01*
X118085635Y-66601692D01*
X118105468Y-66375000D01*
X118085635Y-66148308D01*
X118026739Y-65928504D01*
X117930568Y-65722266D01*
X117800047Y-65535861D01*
X117800045Y-65535858D01*
X117639141Y-65374954D01*
X117452734Y-65244432D01*
X117452732Y-65244431D01*
X117246497Y-65148261D01*
X117246488Y-65148258D01*
X117026697Y-65089366D01*
X117026693Y-65089365D01*
X117026692Y-65089365D01*
X117026691Y-65089364D01*
X117026686Y-65089364D01*
X116800002Y-65069532D01*
X116799998Y-65069532D01*
X116573313Y-65089364D01*
X116573302Y-65089366D01*
X116353511Y-65148258D01*
X116353502Y-65148261D01*
X116147267Y-65244431D01*
X116147265Y-65244432D01*
X115960858Y-65374954D01*
X115799954Y-65535858D01*
X115669433Y-65722264D01*
X115669432Y-65722266D01*
X115662380Y-65737387D01*
X115616209Y-65789825D01*
X115549015Y-65808976D01*
X115482134Y-65788760D01*
X115437619Y-65737387D01*
X115430568Y-65722266D01*
X115300047Y-65535861D01*
X115300045Y-65535858D01*
X115139141Y-65374954D01*
X114952734Y-65244432D01*
X114952732Y-65244431D01*
X114746497Y-65148261D01*
X114746488Y-65148258D01*
X114526697Y-65089366D01*
X114526693Y-65089365D01*
X114526692Y-65089365D01*
X114526691Y-65089364D01*
X114526686Y-65089364D01*
X114300002Y-65069532D01*
X114299998Y-65069532D01*
X114073313Y-65089364D01*
X114073302Y-65089366D01*
X113853511Y-65148258D01*
X113853502Y-65148261D01*
X113647267Y-65244431D01*
X113647265Y-65244432D01*
X113460858Y-65374954D01*
X113299954Y-65535858D01*
X113169432Y-65722265D01*
X113169431Y-65722267D01*
X113073261Y-65928502D01*
X113073258Y-65928511D01*
X113014366Y-66148302D01*
X113014364Y-66148313D01*
X112994532Y-66374998D01*
X112994532Y-66375001D01*
X111751903Y-66375001D01*
X111763348Y-66337135D01*
X111814725Y-66292618D01*
X111872734Y-66265568D01*
X112059139Y-66135047D01*
X112220047Y-65974139D01*
X112350568Y-65787734D01*
X112446739Y-65581496D01*
X112505635Y-65361692D01*
X112525468Y-65135000D01*
X112521475Y-65089365D01*
X112505635Y-64908313D01*
X112505635Y-64908308D01*
X112446739Y-64688504D01*
X112350568Y-64482266D01*
X112220047Y-64295861D01*
X112220045Y-64295858D01*
X112059141Y-64134954D01*
X111872734Y-64004432D01*
X111872728Y-64004429D01*
X111814725Y-63977382D01*
X111762285Y-63931210D01*
X111743133Y-63864017D01*
X111763348Y-63797135D01*
X111814725Y-63752618D01*
X111872734Y-63725568D01*
X112059139Y-63595047D01*
X112220047Y-63434139D01*
X112350568Y-63247734D01*
X112446739Y-63041496D01*
X112491351Y-62875000D01*
X113074357Y-62875000D01*
X113094884Y-63096535D01*
X113094885Y-63096537D01*
X113155769Y-63310523D01*
X113155775Y-63310538D01*
X113254938Y-63509683D01*
X113254943Y-63509691D01*
X113389020Y-63687238D01*
X113553437Y-63837123D01*
X113553439Y-63837125D01*
X113742595Y-63954245D01*
X113742596Y-63954245D01*
X113742599Y-63954247D01*
X113950060Y-64034618D01*
X114168757Y-64075500D01*
X114168759Y-64075500D01*
X114391241Y-64075500D01*
X114391243Y-64075500D01*
X114609940Y-64034618D01*
X114817401Y-63954247D01*
X115006562Y-63837124D01*
X115170981Y-63687236D01*
X115305058Y-63509689D01*
X115404229Y-63310528D01*
X115465115Y-63096536D01*
X115485643Y-62875000D01*
X115465115Y-62653464D01*
X115404229Y-62439472D01*
X115404224Y-62439461D01*
X115305061Y-62240316D01*
X115305056Y-62240308D01*
X115170979Y-62062761D01*
X115006562Y-61912876D01*
X115006560Y-61912874D01*
X114817404Y-61795754D01*
X114817398Y-61795752D01*
X114609940Y-61715382D01*
X114391243Y-61674500D01*
X114168757Y-61674500D01*
X113950060Y-61715382D01*
X113845580Y-61755858D01*
X113742601Y-61795752D01*
X113742595Y-61795754D01*
X113553439Y-61912874D01*
X113553437Y-61912876D01*
X113389020Y-62062761D01*
X113254943Y-62240308D01*
X113254938Y-62240316D01*
X113155775Y-62439461D01*
X113155769Y-62439476D01*
X113094885Y-62653462D01*
X113094884Y-62653464D01*
X113074357Y-62874999D01*
X113074357Y-62875000D01*
X112491351Y-62875000D01*
X112505635Y-62821692D01*
X112525468Y-62595000D01*
X112505635Y-62368308D01*
X112446739Y-62148504D01*
X112350568Y-61942266D01*
X112220047Y-61755861D01*
X112220045Y-61755858D01*
X112059141Y-61594954D01*
X111872734Y-61464432D01*
X111872728Y-61464429D01*
X111814725Y-61437382D01*
X111762285Y-61391210D01*
X111743133Y-61324017D01*
X111763348Y-61257135D01*
X111814725Y-61212618D01*
X111872734Y-61185568D01*
X112059139Y-61055047D01*
X112220047Y-60894139D01*
X112350568Y-60707734D01*
X112446739Y-60501496D01*
X112505635Y-60281692D01*
X112522634Y-60087384D01*
X112525468Y-60055001D01*
X112525468Y-60054998D01*
X112505635Y-59828313D01*
X112505635Y-59828308D01*
X112446739Y-59608504D01*
X112350568Y-59402266D01*
X112220047Y-59215861D01*
X112220045Y-59215858D01*
X112059141Y-59054954D01*
X111872734Y-58924432D01*
X111872728Y-58924429D01*
X111814725Y-58897382D01*
X111762285Y-58851210D01*
X111743133Y-58784017D01*
X111763348Y-58717135D01*
X111814725Y-58672618D01*
X111872734Y-58645568D01*
X112059139Y-58515047D01*
X112220047Y-58354139D01*
X112238084Y-58328377D01*
X112292663Y-58284752D01*
X112339661Y-58275500D01*
X113048277Y-58275500D01*
X113115316Y-58295185D01*
X113161071Y-58347989D01*
X113171015Y-58417147D01*
X113166661Y-58433764D01*
X113167340Y-58433958D01*
X113104885Y-58653462D01*
X113104884Y-58653464D01*
X113084357Y-58874999D01*
X113084357Y-58875000D01*
X113104884Y-59096535D01*
X113104885Y-59096537D01*
X113165769Y-59310523D01*
X113165775Y-59310538D01*
X113264938Y-59509683D01*
X113264943Y-59509691D01*
X113399020Y-59687238D01*
X113563437Y-59837123D01*
X113563439Y-59837125D01*
X113752595Y-59954245D01*
X113752596Y-59954245D01*
X113752599Y-59954247D01*
X113960060Y-60034618D01*
X114178757Y-60075500D01*
X114178759Y-60075500D01*
X114401241Y-60075500D01*
X114401243Y-60075500D01*
X114619940Y-60034618D01*
X114827401Y-59954247D01*
X115016562Y-59837124D01*
X115180981Y-59687236D01*
X115315058Y-59509689D01*
X115414229Y-59310528D01*
X115475115Y-59096536D01*
X115495643Y-58875000D01*
X115475115Y-58653464D01*
X115414229Y-58439472D01*
X115414228Y-58439471D01*
X115412660Y-58433958D01*
X115415166Y-58433244D01*
X115410234Y-58374671D01*
X115442944Y-58312931D01*
X115503840Y-58278676D01*
X115531723Y-58275500D01*
X116017060Y-58275500D01*
X116084099Y-58295185D01*
X116104741Y-58311819D01*
X119363180Y-61570258D01*
X119396665Y-61631581D01*
X119399499Y-61657939D01*
X119399499Y-73259951D01*
X119379814Y-73326990D01*
X119363181Y-73347632D01*
X119249951Y-73460862D01*
X119119432Y-73647265D01*
X119119430Y-73647269D01*
X119112105Y-73662978D01*
X119065931Y-73715417D01*
X118998737Y-73734567D01*
X118931857Y-73714350D01*
X118887341Y-73662974D01*
X118880132Y-73647515D01*
X118880131Y-73647512D01*
X118829026Y-73574526D01*
X118829025Y-73574526D01*
X118147953Y-74255598D01*
X118135165Y-74174852D01*
X118077641Y-74061955D01*
X117988045Y-73972359D01*
X117875148Y-73914835D01*
X117794400Y-73902046D01*
X118475472Y-73220974D01*
X118475471Y-73220973D01*
X118402483Y-73169866D01*
X118402481Y-73169865D01*
X118196326Y-73073734D01*
X118196317Y-73073730D01*
X117976610Y-73014860D01*
X117976599Y-73014858D01*
X117750002Y-72995034D01*
X117749998Y-72995034D01*
X117523400Y-73014858D01*
X117523389Y-73014860D01*
X117303682Y-73073730D01*
X117303673Y-73073734D01*
X117097513Y-73169868D01*
X117024527Y-73220972D01*
X117024526Y-73220973D01*
X117705600Y-73902046D01*
X117624852Y-73914835D01*
X117511955Y-73972359D01*
X117422359Y-74061955D01*
X117364835Y-74174852D01*
X117352046Y-74255599D01*
X116670973Y-73574526D01*
X116670972Y-73574527D01*
X116619868Y-73647513D01*
X116523734Y-73853673D01*
X116523730Y-73853682D01*
X116464860Y-74073389D01*
X116464858Y-74073400D01*
X116445034Y-74299997D01*
X116445034Y-74300002D01*
X116464858Y-74526599D01*
X116464860Y-74526610D01*
X116523730Y-74746317D01*
X116523734Y-74746326D01*
X116619865Y-74952481D01*
X116619866Y-74952483D01*
X116670973Y-75025471D01*
X116670974Y-75025472D01*
X117352046Y-74344399D01*
X117364835Y-74425148D01*
X117422359Y-74538045D01*
X117511955Y-74627641D01*
X117624852Y-74685165D01*
X117705599Y-74697953D01*
X117024526Y-75379025D01*
X117024526Y-75379026D01*
X117097512Y-75430131D01*
X117097516Y-75430133D01*
X117303673Y-75526265D01*
X117303682Y-75526269D01*
X117523389Y-75585139D01*
X117523400Y-75585141D01*
X117749998Y-75604966D01*
X117750002Y-75604966D01*
X117976599Y-75585141D01*
X117976610Y-75585139D01*
X118196317Y-75526269D01*
X118196331Y-75526264D01*
X118402478Y-75430136D01*
X118475472Y-75379025D01*
X117794401Y-74697953D01*
X117875148Y-74685165D01*
X117988045Y-74627641D01*
X118077641Y-74538045D01*
X118135165Y-74425148D01*
X118147953Y-74344400D01*
X118829025Y-75025472D01*
X118880134Y-74952481D01*
X118887340Y-74937028D01*
X118933511Y-74884587D01*
X119000704Y-74865433D01*
X119067585Y-74885646D01*
X119112105Y-74937022D01*
X119119430Y-74952730D01*
X119119432Y-74952734D01*
X119249954Y-75139141D01*
X119410858Y-75300045D01*
X119410861Y-75300047D01*
X119597266Y-75430568D01*
X119803504Y-75526739D01*
X120023308Y-75585635D01*
X120185230Y-75599801D01*
X120249998Y-75605468D01*
X120250000Y-75605468D01*
X120250002Y-75605468D01*
X120312511Y-75599999D01*
X120476692Y-75585635D01*
X120696496Y-75526739D01*
X120902734Y-75430568D01*
X121089139Y-75300047D01*
X121250047Y-75139139D01*
X121380568Y-74952734D01*
X121476739Y-74746496D01*
X121535635Y-74526692D01*
X121555468Y-74300000D01*
X121535635Y-74073308D01*
X121476739Y-73853504D01*
X121380568Y-73647266D01*
X121250047Y-73460861D01*
X121089139Y-73299953D01*
X121084373Y-73296615D01*
X121053375Y-73274910D01*
X121009751Y-73220332D01*
X121000500Y-73173336D01*
X121000500Y-72312235D01*
X121000500Y-71169137D01*
X121020184Y-71102102D01*
X121072987Y-71056347D01*
X121142146Y-71046403D01*
X121205702Y-71075428D01*
X121208037Y-71077504D01*
X121273436Y-71137123D01*
X121273439Y-71137125D01*
X121462595Y-71254245D01*
X121462596Y-71254245D01*
X121462599Y-71254247D01*
X121670060Y-71334618D01*
X121888757Y-71375500D01*
X121888759Y-71375500D01*
X122111241Y-71375500D01*
X122111243Y-71375500D01*
X122329940Y-71334618D01*
X122537401Y-71254247D01*
X122726562Y-71137124D01*
X122890981Y-70987236D01*
X123025058Y-70809689D01*
X123124229Y-70610528D01*
X123185115Y-70396536D01*
X123205643Y-70175000D01*
X123185115Y-69953464D01*
X123124229Y-69739472D01*
X123124224Y-69739461D01*
X123025061Y-69540316D01*
X123025056Y-69540308D01*
X122890979Y-69362761D01*
X122726562Y-69212876D01*
X122726560Y-69212874D01*
X122537404Y-69095754D01*
X122537398Y-69095752D01*
X122329940Y-69015382D01*
X122111243Y-68974500D01*
X121888757Y-68974500D01*
X121670060Y-69015382D01*
X121561646Y-69057382D01*
X121462601Y-69095752D01*
X121462595Y-69095754D01*
X121273441Y-69212873D01*
X121208038Y-69272496D01*
X121145234Y-69303112D01*
X121075846Y-69294914D01*
X121021907Y-69250504D01*
X121000539Y-69183982D01*
X121000500Y-69180858D01*
X121000500Y-63952668D01*
X121020185Y-63885629D01*
X121072989Y-63839874D01*
X121142147Y-63829930D01*
X121189777Y-63847241D01*
X121362595Y-63954245D01*
X121362596Y-63954245D01*
X121362599Y-63954247D01*
X121570060Y-64034618D01*
X121788757Y-64075500D01*
X121788759Y-64075500D01*
X122011241Y-64075500D01*
X122011243Y-64075500D01*
X122229940Y-64034618D01*
X122437401Y-63954247D01*
X122626562Y-63837124D01*
X122790981Y-63687236D01*
X122925058Y-63509689D01*
X123024229Y-63310528D01*
X123085115Y-63096536D01*
X123105643Y-62875000D01*
X123085115Y-62653464D01*
X123024229Y-62439472D01*
X123024224Y-62439461D01*
X122925061Y-62240316D01*
X122925056Y-62240308D01*
X122790979Y-62062761D01*
X122626562Y-61912876D01*
X122626560Y-61912874D01*
X122437404Y-61795754D01*
X122437398Y-61795752D01*
X122229940Y-61715382D01*
X122011243Y-61674500D01*
X121788757Y-61674500D01*
X121570060Y-61715382D01*
X121504463Y-61740794D01*
X121362602Y-61795751D01*
X121189776Y-61902759D01*
X121122415Y-61921313D01*
X121055716Y-61900505D01*
X121010855Y-61846939D01*
X121000500Y-61797335D01*
X121000500Y-61230046D01*
X121000500Y-61230045D01*
X121000500Y-61184806D01*
X120991207Y-61144093D01*
X120990042Y-61137233D01*
X120985368Y-61095745D01*
X120985367Y-61095742D01*
X120971576Y-61056328D01*
X120969650Y-61049641D01*
X120960360Y-61008939D01*
X120942238Y-60971307D01*
X120939583Y-60964899D01*
X120925789Y-60925478D01*
X120903574Y-60890123D01*
X120900208Y-60884033D01*
X120882092Y-60846415D01*
X120882090Y-60846411D01*
X120856060Y-60813770D01*
X120852033Y-60808096D01*
X120829816Y-60772738D01*
X118932078Y-58875000D01*
X120704357Y-58875000D01*
X120724884Y-59096535D01*
X120724885Y-59096537D01*
X120785769Y-59310523D01*
X120785775Y-59310538D01*
X120884938Y-59509683D01*
X120884943Y-59509691D01*
X121019020Y-59687238D01*
X121183437Y-59837123D01*
X121183439Y-59837125D01*
X121372595Y-59954245D01*
X121372596Y-59954245D01*
X121372599Y-59954247D01*
X121580060Y-60034618D01*
X121798757Y-60075500D01*
X121798759Y-60075500D01*
X122021241Y-60075500D01*
X122021243Y-60075500D01*
X122239940Y-60034618D01*
X122447401Y-59954247D01*
X122636562Y-59837124D01*
X122800981Y-59687236D01*
X122935058Y-59509689D01*
X123034229Y-59310528D01*
X123095115Y-59096536D01*
X123115643Y-58875000D01*
X123095115Y-58653464D01*
X123034229Y-58439472D01*
X123034224Y-58439461D01*
X122935061Y-58240316D01*
X122935056Y-58240308D01*
X122800979Y-58062761D01*
X122636562Y-57912876D01*
X122636560Y-57912874D01*
X122447404Y-57795754D01*
X122447398Y-57795752D01*
X122239940Y-57715382D01*
X122021243Y-57674500D01*
X121798757Y-57674500D01*
X121580060Y-57715382D01*
X121448864Y-57766207D01*
X121372601Y-57795752D01*
X121372595Y-57795754D01*
X121183439Y-57912874D01*
X121183437Y-57912876D01*
X121019020Y-58062761D01*
X120884943Y-58240308D01*
X120884938Y-58240316D01*
X120785775Y-58439461D01*
X120785769Y-58439476D01*
X120724885Y-58653462D01*
X120724884Y-58653464D01*
X120704357Y-58874999D01*
X120704357Y-58875000D01*
X118932078Y-58875000D01*
X116902262Y-56845184D01*
X116902259Y-56845182D01*
X116866904Y-56822966D01*
X116861229Y-56818940D01*
X116828589Y-56792910D01*
X116790959Y-56774787D01*
X116784872Y-56771422D01*
X116749525Y-56749212D01*
X116710114Y-56735421D01*
X116703688Y-56732759D01*
X116666061Y-56714639D01*
X116625345Y-56705345D01*
X116618662Y-56703420D01*
X116579259Y-56689632D01*
X116537763Y-56684955D01*
X116530908Y-56683791D01*
X116490200Y-56674501D01*
X116490196Y-56674500D01*
X116490194Y-56674500D01*
X116490191Y-56674500D01*
X112270048Y-56674500D01*
X112203009Y-56654815D01*
X112182371Y-56638185D01*
X112059139Y-56514953D01*
X112059138Y-56514952D01*
X112059137Y-56514951D01*
X111872734Y-56384432D01*
X111872728Y-56384429D01*
X111814725Y-56357382D01*
X111762285Y-56311210D01*
X111743133Y-56244017D01*
X111763348Y-56177135D01*
X111814725Y-56132618D01*
X111872734Y-56105568D01*
X112059139Y-55975047D01*
X112220047Y-55814139D01*
X112350568Y-55627734D01*
X112446739Y-55421496D01*
X112505635Y-55201692D01*
X112525468Y-54975000D01*
X112505635Y-54748308D01*
X112446739Y-54528504D01*
X112350568Y-54322266D01*
X112220047Y-54135861D01*
X112220045Y-54135858D01*
X112059141Y-53974954D01*
X111872734Y-53844432D01*
X111872732Y-53844431D01*
X111666497Y-53748261D01*
X111666488Y-53748258D01*
X111446697Y-53689366D01*
X111446693Y-53689365D01*
X111446692Y-53689365D01*
X111446691Y-53689364D01*
X111446686Y-53689364D01*
X111220002Y-53669532D01*
X111219998Y-53669532D01*
X110993313Y-53689364D01*
X110993302Y-53689366D01*
X110773511Y-53748258D01*
X110773502Y-53748261D01*
X110567267Y-53844431D01*
X110567265Y-53844432D01*
X110380858Y-53974954D01*
X110219954Y-54135858D01*
X110089432Y-54322265D01*
X110089431Y-54322267D01*
X109993261Y-54528502D01*
X109993258Y-54528511D01*
X109934366Y-54748302D01*
X109934364Y-54748313D01*
X109914532Y-54974998D01*
X109914532Y-54975001D01*
X109934364Y-55201686D01*
X109934366Y-55201697D01*
X109993258Y-55421488D01*
X109993261Y-55421497D01*
X110089431Y-55627732D01*
X110089432Y-55627734D01*
X110219954Y-55814141D01*
X110380858Y-55975045D01*
X110380861Y-55975047D01*
X110567266Y-56105568D01*
X110625275Y-56132618D01*
X110677714Y-56178791D01*
X110696866Y-56245984D01*
X110676650Y-56312865D01*
X110625275Y-56357382D01*
X110567267Y-56384431D01*
X110567265Y-56384432D01*
X110380858Y-56514954D01*
X110219954Y-56675858D01*
X110089432Y-56862265D01*
X110089431Y-56862267D01*
X109993261Y-57068502D01*
X109993258Y-57068511D01*
X109934366Y-57288302D01*
X109934364Y-57288313D01*
X109914532Y-57514998D01*
X109914532Y-57515001D01*
X109934364Y-57741686D01*
X109934366Y-57741697D01*
X109993258Y-57961488D01*
X109993261Y-57961497D01*
X110089431Y-58167732D01*
X110089432Y-58167734D01*
X110219954Y-58354141D01*
X110380858Y-58515045D01*
X110380861Y-58515047D01*
X110567266Y-58645568D01*
X110625275Y-58672618D01*
X110677714Y-58718791D01*
X110696866Y-58785984D01*
X110676650Y-58852865D01*
X110625275Y-58897382D01*
X110567267Y-58924431D01*
X110567265Y-58924432D01*
X110380858Y-59054954D01*
X110219954Y-59215858D01*
X110089432Y-59402265D01*
X110089431Y-59402267D01*
X109993261Y-59608502D01*
X109993258Y-59608511D01*
X109934366Y-59828302D01*
X109934364Y-59828313D01*
X109914532Y-60054998D01*
X109914532Y-60055001D01*
X109934364Y-60281686D01*
X109934366Y-60281697D01*
X109993258Y-60501488D01*
X109993261Y-60501497D01*
X110089431Y-60707732D01*
X110089432Y-60707734D01*
X110219954Y-60894141D01*
X110380858Y-61055045D01*
X110380861Y-61055047D01*
X110567266Y-61185568D01*
X110625275Y-61212618D01*
X110677714Y-61258791D01*
X110696866Y-61325984D01*
X110676650Y-61392865D01*
X110625275Y-61437382D01*
X110567267Y-61464431D01*
X110567265Y-61464432D01*
X110380858Y-61594954D01*
X110219954Y-61755858D01*
X110089432Y-61942265D01*
X110089431Y-61942267D01*
X109993261Y-62148502D01*
X109993258Y-62148511D01*
X109934366Y-62368302D01*
X109934364Y-62368313D01*
X109914532Y-62594998D01*
X109914532Y-62595001D01*
X109934364Y-62821686D01*
X109934366Y-62821697D01*
X109993258Y-63041488D01*
X109993261Y-63041497D01*
X110089431Y-63247732D01*
X110089432Y-63247734D01*
X110219954Y-63434141D01*
X110380858Y-63595045D01*
X110380861Y-63595047D01*
X110567266Y-63725568D01*
X110625275Y-63752618D01*
X110677714Y-63798791D01*
X110696866Y-63865984D01*
X110676650Y-63932865D01*
X110625275Y-63977382D01*
X110567267Y-64004431D01*
X110567265Y-64004432D01*
X110380858Y-64134954D01*
X110219954Y-64295858D01*
X110089432Y-64482265D01*
X110089431Y-64482267D01*
X109993261Y-64688502D01*
X109993258Y-64688511D01*
X109934366Y-64908302D01*
X109934364Y-64908313D01*
X109914532Y-65134998D01*
X109914532Y-65135001D01*
X109934364Y-65361686D01*
X109934366Y-65361697D01*
X109993258Y-65581488D01*
X109993261Y-65581497D01*
X110089431Y-65787732D01*
X110089432Y-65787734D01*
X110219954Y-65974141D01*
X110380858Y-66135045D01*
X110380861Y-66135047D01*
X110567266Y-66265568D01*
X110625275Y-66292618D01*
X110677714Y-66338791D01*
X110696866Y-66405984D01*
X110676650Y-66472865D01*
X110625275Y-66517382D01*
X110567267Y-66544431D01*
X110567265Y-66544432D01*
X110380858Y-66674954D01*
X110219953Y-66835859D01*
X110217223Y-66839759D01*
X110162645Y-66883382D01*
X110093147Y-66890574D01*
X110030793Y-66859050D01*
X110008917Y-66831753D01*
X109998170Y-66813580D01*
X109998165Y-66813574D01*
X109984006Y-66799415D01*
X109971368Y-66784619D01*
X109959594Y-66768413D01*
X109923688Y-66738709D01*
X109919376Y-66734786D01*
X107935803Y-64751212D01*
X107925980Y-64738950D01*
X107925759Y-64739134D01*
X107920786Y-64733123D01*
X107920785Y-64733122D01*
X107870364Y-64685773D01*
X107859919Y-64675328D01*
X107849475Y-64664883D01*
X107843986Y-64660625D01*
X107839561Y-64656847D01*
X107805582Y-64624938D01*
X107805580Y-64624936D01*
X107805577Y-64624935D01*
X107788029Y-64615288D01*
X107771763Y-64604604D01*
X107755933Y-64592325D01*
X107713168Y-64573818D01*
X107707922Y-64571248D01*
X107667093Y-64548803D01*
X107667092Y-64548802D01*
X107647693Y-64543822D01*
X107629281Y-64537518D01*
X107610898Y-64529562D01*
X107610892Y-64529560D01*
X107564874Y-64522272D01*
X107559152Y-64521087D01*
X107514021Y-64509500D01*
X107514019Y-64509500D01*
X107493984Y-64509500D01*
X107474586Y-64507973D01*
X107467162Y-64506797D01*
X107454805Y-64504840D01*
X107454804Y-64504840D01*
X107408416Y-64509225D01*
X107402578Y-64509500D01*
X104814188Y-64509500D01*
X104747149Y-64489815D01*
X104712613Y-64456623D01*
X104600045Y-64295858D01*
X104439141Y-64134954D01*
X104252734Y-64004432D01*
X104252728Y-64004429D01*
X104194725Y-63977382D01*
X104142285Y-63931210D01*
X104123133Y-63864017D01*
X104143348Y-63797135D01*
X104194725Y-63752618D01*
X104252734Y-63725568D01*
X104439139Y-63595047D01*
X104600047Y-63434139D01*
X104730568Y-63247734D01*
X104826739Y-63041496D01*
X104885635Y-62821692D01*
X104905468Y-62595000D01*
X104885635Y-62368308D01*
X104826739Y-62148504D01*
X104730568Y-61942266D01*
X104600047Y-61755861D01*
X104600045Y-61755858D01*
X104439141Y-61594954D01*
X104252734Y-61464432D01*
X104252728Y-61464429D01*
X104194725Y-61437382D01*
X104142285Y-61391210D01*
X104123133Y-61324017D01*
X104143348Y-61257135D01*
X104194725Y-61212618D01*
X104252734Y-61185568D01*
X104439139Y-61055047D01*
X104600047Y-60894139D01*
X104730568Y-60707734D01*
X104826739Y-60501496D01*
X104885635Y-60281692D01*
X104902634Y-60087384D01*
X104905468Y-60055001D01*
X104905468Y-60054998D01*
X104885635Y-59828313D01*
X104885635Y-59828308D01*
X104826739Y-59608504D01*
X104730568Y-59402266D01*
X104600047Y-59215861D01*
X104600045Y-59215858D01*
X104439141Y-59054954D01*
X104252734Y-58924432D01*
X104252728Y-58924429D01*
X104194725Y-58897382D01*
X104142285Y-58851210D01*
X104123133Y-58784017D01*
X104143348Y-58717135D01*
X104194725Y-58672618D01*
X104252734Y-58645568D01*
X104439139Y-58515047D01*
X104600047Y-58354139D01*
X104730568Y-58167734D01*
X104826739Y-57961496D01*
X104885635Y-57741692D01*
X104905468Y-57515000D01*
X104885635Y-57288308D01*
X104826739Y-57068504D01*
X104730568Y-56862266D01*
X104620692Y-56705345D01*
X104600045Y-56675858D01*
X104439143Y-56514956D01*
X104414536Y-56497726D01*
X104370912Y-56443149D01*
X104363719Y-56373650D01*
X104395241Y-56311296D01*
X104455471Y-56275882D01*
X104472404Y-56272861D01*
X104507483Y-56269091D01*
X104642331Y-56218796D01*
X104757546Y-56132546D01*
X104843796Y-56017331D01*
X104894091Y-55882483D01*
X104900500Y-55822873D01*
X104900499Y-54127128D01*
X104894091Y-54067517D01*
X104859567Y-53974954D01*
X104843797Y-53932671D01*
X104843793Y-53932664D01*
X104757547Y-53817455D01*
X104757544Y-53817452D01*
X104642335Y-53731206D01*
X104642328Y-53731202D01*
X104507482Y-53680908D01*
X104507483Y-53680908D01*
X104447883Y-53674501D01*
X104447881Y-53674500D01*
X104447873Y-53674500D01*
X104447864Y-53674500D01*
X102752129Y-53674500D01*
X102752123Y-53674501D01*
X102692516Y-53680908D01*
X102557671Y-53731202D01*
X102557664Y-53731206D01*
X102442455Y-53817452D01*
X102442452Y-53817455D01*
X102356206Y-53932664D01*
X102356202Y-53932671D01*
X102305908Y-54067517D01*
X102299501Y-54127116D01*
X102299501Y-54127123D01*
X102299500Y-54127135D01*
X102299500Y-55822870D01*
X102299501Y-55822876D01*
X102305908Y-55882483D01*
X102356202Y-56017328D01*
X102356206Y-56017335D01*
X102442452Y-56132544D01*
X102442455Y-56132547D01*
X102557664Y-56218793D01*
X102557671Y-56218797D01*
X102602618Y-56235561D01*
X102692517Y-56269091D01*
X102727596Y-56272862D01*
X102792144Y-56299599D01*
X102831993Y-56356991D01*
X102834488Y-56426816D01*
X102798836Y-56486905D01*
X102785464Y-56497725D01*
X102760858Y-56514954D01*
X102599954Y-56675858D01*
X102469432Y-56862265D01*
X102469431Y-56862267D01*
X102373261Y-57068502D01*
X102373258Y-57068511D01*
X102314366Y-57288302D01*
X102314364Y-57288313D01*
X102294532Y-57514998D01*
X102294532Y-57515001D01*
X102314364Y-57741686D01*
X102314366Y-57741697D01*
X102373258Y-57961488D01*
X102373261Y-57961497D01*
X102469431Y-58167732D01*
X102469432Y-58167734D01*
X102599954Y-58354141D01*
X102760858Y-58515045D01*
X102760861Y-58515047D01*
X102947266Y-58645568D01*
X103005278Y-58672619D01*
X103057713Y-58718788D01*
X103076866Y-58785982D01*
X103056651Y-58852863D01*
X103005277Y-58897380D01*
X102947268Y-58924430D01*
X102947265Y-58924432D01*
X102760858Y-59054954D01*
X102599954Y-59215858D01*
X102469432Y-59402265D01*
X102469431Y-59402267D01*
X102373261Y-59608502D01*
X102373258Y-59608511D01*
X102314366Y-59828302D01*
X102314364Y-59828313D01*
X102294532Y-60054998D01*
X102294532Y-60055001D01*
X102314364Y-60281686D01*
X102314366Y-60281697D01*
X102373258Y-60501488D01*
X102373261Y-60501497D01*
X102469431Y-60707732D01*
X102469432Y-60707734D01*
X102599954Y-60894141D01*
X102760858Y-61055045D01*
X102760861Y-61055047D01*
X102947266Y-61185568D01*
X103005275Y-61212618D01*
X103057714Y-61258791D01*
X103076866Y-61325984D01*
X103056650Y-61392865D01*
X103005275Y-61437382D01*
X102947267Y-61464431D01*
X102947265Y-61464432D01*
X102760858Y-61594954D01*
X102599954Y-61755858D01*
X102469432Y-61942265D01*
X102469431Y-61942267D01*
X102373261Y-62148502D01*
X102373258Y-62148511D01*
X102314366Y-62368302D01*
X102314364Y-62368313D01*
X102294532Y-62594998D01*
X102294532Y-62595001D01*
X102314364Y-62821686D01*
X102314366Y-62821697D01*
X102373258Y-63041488D01*
X102373261Y-63041497D01*
X102469431Y-63247732D01*
X102469432Y-63247734D01*
X102599954Y-63434141D01*
X102760858Y-63595045D01*
X102760861Y-63595047D01*
X102947266Y-63725568D01*
X103005275Y-63752618D01*
X103057714Y-63798791D01*
X103076866Y-63865984D01*
X103056650Y-63932865D01*
X103005275Y-63977382D01*
X102947267Y-64004431D01*
X102947265Y-64004432D01*
X102760858Y-64134954D01*
X102599954Y-64295858D01*
X102469432Y-64482265D01*
X102469431Y-64482267D01*
X102373261Y-64688502D01*
X102373258Y-64688511D01*
X102314366Y-64908302D01*
X102314364Y-64908313D01*
X102294532Y-65134998D01*
X102294532Y-65135001D01*
X102314364Y-65361686D01*
X102314366Y-65361697D01*
X102373258Y-65581488D01*
X102373261Y-65581497D01*
X102469431Y-65787732D01*
X102469432Y-65787734D01*
X102599954Y-65974141D01*
X102760858Y-66135045D01*
X102760861Y-66135047D01*
X102947266Y-66265568D01*
X103005275Y-66292618D01*
X103057714Y-66338791D01*
X103076866Y-66405984D01*
X103056650Y-66472865D01*
X103005275Y-66517382D01*
X102947267Y-66544431D01*
X102947265Y-66544432D01*
X102760858Y-66674954D01*
X102599954Y-66835858D01*
X102469432Y-67022265D01*
X102469431Y-67022267D01*
X102373261Y-67228502D01*
X102373258Y-67228511D01*
X102314366Y-67448302D01*
X102314364Y-67448313D01*
X102294532Y-67674998D01*
X102294532Y-67675001D01*
X100295896Y-67675001D01*
X100335635Y-67526692D01*
X100355468Y-67300000D01*
X100335635Y-67073308D01*
X100276739Y-66853504D01*
X100180568Y-66647266D01*
X100050047Y-66460861D01*
X100050045Y-66460858D01*
X99889141Y-66299954D01*
X99702734Y-66169432D01*
X99702732Y-66169431D01*
X99496497Y-66073261D01*
X99496488Y-66073258D01*
X99276697Y-66014366D01*
X99276693Y-66014365D01*
X99276692Y-66014365D01*
X99276691Y-66014364D01*
X99276686Y-66014364D01*
X99050002Y-65994532D01*
X99049998Y-65994532D01*
X98823313Y-66014364D01*
X98823302Y-66014366D01*
X98603511Y-66073258D01*
X98603502Y-66073261D01*
X98397267Y-66169431D01*
X98397265Y-66169432D01*
X98210858Y-66299954D01*
X98049954Y-66460858D01*
X97951339Y-66601697D01*
X97919432Y-66647266D01*
X97912380Y-66662387D01*
X97866209Y-66714825D01*
X97799015Y-66733976D01*
X97732134Y-66713760D01*
X97687619Y-66662387D01*
X97680568Y-66647266D01*
X97550047Y-66460861D01*
X97550045Y-66460858D01*
X97389141Y-66299954D01*
X97202734Y-66169432D01*
X97202732Y-66169431D01*
X96996497Y-66073261D01*
X96996488Y-66073258D01*
X96776697Y-66014366D01*
X96776693Y-66014365D01*
X96776692Y-66014365D01*
X96776691Y-66014364D01*
X96776686Y-66014364D01*
X96550002Y-65994532D01*
X96549998Y-65994532D01*
X96323313Y-66014364D01*
X96323302Y-66014366D01*
X96103511Y-66073258D01*
X96103502Y-66073261D01*
X95897267Y-66169431D01*
X95897265Y-66169432D01*
X95710858Y-66299954D01*
X95549954Y-66460858D01*
X95451339Y-66601697D01*
X95419432Y-66647266D01*
X95412380Y-66662387D01*
X95366209Y-66714825D01*
X95299015Y-66733976D01*
X95232134Y-66713760D01*
X95187619Y-66662387D01*
X95180568Y-66647266D01*
X95050047Y-66460861D01*
X95050045Y-66460858D01*
X94889141Y-66299954D01*
X94702734Y-66169432D01*
X94702732Y-66169431D01*
X94496497Y-66073261D01*
X94496488Y-66073258D01*
X94276697Y-66014366D01*
X94276693Y-66014365D01*
X94276692Y-66014365D01*
X94276691Y-66014364D01*
X94276686Y-66014364D01*
X94050002Y-65994532D01*
X94049998Y-65994532D01*
X93823313Y-66014364D01*
X93823302Y-66014366D01*
X93603511Y-66073258D01*
X93603502Y-66073261D01*
X93397267Y-66169431D01*
X93397265Y-66169432D01*
X93210858Y-66299954D01*
X93049954Y-66460858D01*
X92951339Y-66601697D01*
X92919432Y-66647266D01*
X92912380Y-66662387D01*
X92866209Y-66714825D01*
X92799015Y-66733976D01*
X92732134Y-66713760D01*
X92687619Y-66662387D01*
X92680568Y-66647266D01*
X92550047Y-66460861D01*
X92550045Y-66460858D01*
X92389141Y-66299954D01*
X92202734Y-66169432D01*
X92202732Y-66169431D01*
X91996497Y-66073261D01*
X91996488Y-66073258D01*
X91776697Y-66014366D01*
X91776693Y-66014365D01*
X91776692Y-66014365D01*
X91776691Y-66014364D01*
X91776686Y-66014364D01*
X91550002Y-65994532D01*
X91549998Y-65994532D01*
X91323313Y-66014364D01*
X91323302Y-66014366D01*
X91103511Y-66073258D01*
X91103502Y-66073261D01*
X90897267Y-66169431D01*
X90897265Y-66169432D01*
X90710858Y-66299954D01*
X90549954Y-66460858D01*
X90419432Y-66647265D01*
X90419431Y-66647267D01*
X90323261Y-66853502D01*
X90323258Y-66853511D01*
X90264366Y-67073302D01*
X90264364Y-67073313D01*
X90244532Y-67299998D01*
X90244532Y-67300001D01*
X88936237Y-67300001D01*
X88939474Y-63600000D01*
X90344357Y-63600000D01*
X90364884Y-63821535D01*
X90364885Y-63821537D01*
X90425769Y-64035523D01*
X90425775Y-64035538D01*
X90524938Y-64234683D01*
X90524943Y-64234691D01*
X90659020Y-64412238D01*
X90823437Y-64562123D01*
X90823439Y-64562125D01*
X91012595Y-64679245D01*
X91012596Y-64679245D01*
X91012599Y-64679247D01*
X91220060Y-64759618D01*
X91438757Y-64800500D01*
X91438759Y-64800500D01*
X91661241Y-64800500D01*
X91661243Y-64800500D01*
X91879940Y-64759618D01*
X92087401Y-64679247D01*
X92276562Y-64562124D01*
X92440981Y-64412236D01*
X92575058Y-64234689D01*
X92674229Y-64035528D01*
X92735115Y-63821536D01*
X92755643Y-63600000D01*
X97964357Y-63600000D01*
X97984884Y-63821535D01*
X97984885Y-63821537D01*
X98045769Y-64035523D01*
X98045775Y-64035538D01*
X98144938Y-64234683D01*
X98144943Y-64234691D01*
X98279020Y-64412238D01*
X98443437Y-64562123D01*
X98443439Y-64562125D01*
X98632595Y-64679245D01*
X98632596Y-64679245D01*
X98632599Y-64679247D01*
X98840060Y-64759618D01*
X99058757Y-64800500D01*
X99058759Y-64800500D01*
X99281241Y-64800500D01*
X99281243Y-64800500D01*
X99499940Y-64759618D01*
X99707401Y-64679247D01*
X99896562Y-64562124D01*
X100060981Y-64412236D01*
X100195058Y-64234689D01*
X100294229Y-64035528D01*
X100355115Y-63821536D01*
X100375643Y-63600000D01*
X100355115Y-63378464D01*
X100294229Y-63164472D01*
X100294224Y-63164461D01*
X100195061Y-62965316D01*
X100195056Y-62965308D01*
X100060979Y-62787761D01*
X99896562Y-62637876D01*
X99896560Y-62637874D01*
X99707404Y-62520754D01*
X99707398Y-62520752D01*
X99499940Y-62440382D01*
X99281243Y-62399500D01*
X99058757Y-62399500D01*
X98840060Y-62440382D01*
X98708864Y-62491207D01*
X98632601Y-62520752D01*
X98632595Y-62520754D01*
X98443439Y-62637874D01*
X98443437Y-62637876D01*
X98279020Y-62787761D01*
X98144943Y-62965308D01*
X98144938Y-62965316D01*
X98045775Y-63164461D01*
X98045769Y-63164476D01*
X97984885Y-63378462D01*
X97984884Y-63378464D01*
X97964357Y-63599999D01*
X97964357Y-63600000D01*
X92755643Y-63600000D01*
X92735115Y-63378464D01*
X92674229Y-63164472D01*
X92674224Y-63164461D01*
X92575061Y-62965316D01*
X92575056Y-62965308D01*
X92440979Y-62787761D01*
X92276562Y-62637876D01*
X92276560Y-62637874D01*
X92087404Y-62520754D01*
X92087398Y-62520752D01*
X91879940Y-62440382D01*
X91661243Y-62399500D01*
X91438757Y-62399500D01*
X91220060Y-62440382D01*
X91088864Y-62491207D01*
X91012601Y-62520752D01*
X91012595Y-62520754D01*
X90823439Y-62637874D01*
X90823437Y-62637876D01*
X90659020Y-62787761D01*
X90524943Y-62965308D01*
X90524938Y-62965316D01*
X90425775Y-63164461D01*
X90425769Y-63164476D01*
X90364885Y-63378462D01*
X90364884Y-63378464D01*
X90344357Y-63599999D01*
X90344357Y-63600000D01*
X88939474Y-63600000D01*
X88943411Y-59100000D01*
X90524357Y-59100000D01*
X90544884Y-59321535D01*
X90544885Y-59321537D01*
X90605769Y-59535523D01*
X90605775Y-59535538D01*
X90704938Y-59734683D01*
X90704943Y-59734691D01*
X90839020Y-59912238D01*
X91003437Y-60062123D01*
X91003439Y-60062125D01*
X91192595Y-60179245D01*
X91192596Y-60179245D01*
X91192599Y-60179247D01*
X91400060Y-60259618D01*
X91618757Y-60300500D01*
X91618759Y-60300500D01*
X91841241Y-60300500D01*
X91841243Y-60300500D01*
X92059940Y-60259618D01*
X92267401Y-60179247D01*
X92456562Y-60062124D01*
X92620981Y-59912236D01*
X92755058Y-59734689D01*
X92854229Y-59535528D01*
X92915115Y-59321536D01*
X92935643Y-59100000D01*
X98144357Y-59100000D01*
X98164884Y-59321535D01*
X98164885Y-59321537D01*
X98225769Y-59535523D01*
X98225775Y-59535538D01*
X98324938Y-59734683D01*
X98324943Y-59734691D01*
X98459020Y-59912238D01*
X98623437Y-60062123D01*
X98623439Y-60062125D01*
X98812595Y-60179245D01*
X98812596Y-60179245D01*
X98812599Y-60179247D01*
X99020060Y-60259618D01*
X99238757Y-60300500D01*
X99238759Y-60300500D01*
X99461241Y-60300500D01*
X99461243Y-60300500D01*
X99679940Y-60259618D01*
X99887401Y-60179247D01*
X100076562Y-60062124D01*
X100240981Y-59912236D01*
X100375058Y-59734689D01*
X100474229Y-59535528D01*
X100535115Y-59321536D01*
X100555643Y-59100000D01*
X100539374Y-58924432D01*
X100535115Y-58878464D01*
X100535114Y-58878462D01*
X100527830Y-58852863D01*
X100474229Y-58664472D01*
X100464816Y-58645568D01*
X100375061Y-58465316D01*
X100375056Y-58465308D01*
X100240979Y-58287761D01*
X100076562Y-58137876D01*
X100076560Y-58137874D01*
X99887404Y-58020754D01*
X99887398Y-58020752D01*
X99679940Y-57940382D01*
X99461243Y-57899500D01*
X99238757Y-57899500D01*
X99020060Y-57940382D01*
X98888864Y-57991207D01*
X98812601Y-58020752D01*
X98812595Y-58020754D01*
X98623439Y-58137874D01*
X98623437Y-58137876D01*
X98459020Y-58287761D01*
X98324943Y-58465308D01*
X98324938Y-58465316D01*
X98225775Y-58664461D01*
X98225769Y-58664476D01*
X98164885Y-58878462D01*
X98164884Y-58878464D01*
X98144357Y-59099999D01*
X98144357Y-59100000D01*
X92935643Y-59100000D01*
X92919374Y-58924432D01*
X92915115Y-58878464D01*
X92915114Y-58878462D01*
X92907830Y-58852863D01*
X92854229Y-58664472D01*
X92844816Y-58645568D01*
X92755061Y-58465316D01*
X92755056Y-58465308D01*
X92620979Y-58287761D01*
X92456562Y-58137876D01*
X92456560Y-58137874D01*
X92267404Y-58020754D01*
X92267398Y-58020752D01*
X92059940Y-57940382D01*
X91841243Y-57899500D01*
X91618757Y-57899500D01*
X91400060Y-57940382D01*
X91268864Y-57991207D01*
X91192601Y-58020752D01*
X91192595Y-58020754D01*
X91003439Y-58137874D01*
X91003437Y-58137876D01*
X90839020Y-58287761D01*
X90704943Y-58465308D01*
X90704938Y-58465316D01*
X90605775Y-58664461D01*
X90605769Y-58664476D01*
X90544885Y-58878462D01*
X90544884Y-58878464D01*
X90524357Y-59099999D01*
X90524357Y-59100000D01*
X88943411Y-59100000D01*
X88951022Y-50400000D01*
X90394551Y-50400000D01*
X90414317Y-50651151D01*
X90473126Y-50896110D01*
X90569533Y-51128859D01*
X90701160Y-51343653D01*
X90701161Y-51343656D01*
X90701164Y-51343659D01*
X90864776Y-51535224D01*
X91013066Y-51661875D01*
X91056343Y-51698838D01*
X91056346Y-51698839D01*
X91271140Y-51830466D01*
X91503888Y-51926873D01*
X91503889Y-51926873D01*
X91748852Y-51985683D01*
X91904950Y-51997968D01*
X91937116Y-52000500D01*
X91937118Y-52000500D01*
X92062884Y-52000500D01*
X92092517Y-51998167D01*
X92251148Y-51985683D01*
X92496111Y-51926873D01*
X92728859Y-51830466D01*
X92943659Y-51698836D01*
X93135224Y-51535224D01*
X93298836Y-51343659D01*
X93430466Y-51128859D01*
X93526873Y-50896111D01*
X93585683Y-50651148D01*
X93605449Y-50400000D01*
X119394551Y-50400000D01*
X119414317Y-50651151D01*
X119473126Y-50896110D01*
X119569533Y-51128859D01*
X119701160Y-51343653D01*
X119701161Y-51343656D01*
X119701164Y-51343659D01*
X119864776Y-51535224D01*
X120013066Y-51661875D01*
X120056343Y-51698838D01*
X120056346Y-51698839D01*
X120271140Y-51830466D01*
X120503888Y-51926873D01*
X120503889Y-51926873D01*
X120748852Y-51985683D01*
X120904950Y-51997968D01*
X120937116Y-52000500D01*
X120937118Y-52000500D01*
X121062884Y-52000500D01*
X121092518Y-51998167D01*
X121251148Y-51985683D01*
X121496111Y-51926873D01*
X121728859Y-51830466D01*
X121943659Y-51698836D01*
X122135224Y-51535224D01*
X122298836Y-51343659D01*
X122430466Y-51128859D01*
X122526873Y-50896111D01*
X122585683Y-50651148D01*
X122605449Y-50400000D01*
X122585683Y-50148852D01*
X122526873Y-49903889D01*
X122468033Y-49761835D01*
X122430466Y-49671140D01*
X122298839Y-49456346D01*
X122298838Y-49456343D01*
X122201484Y-49342357D01*
X122135224Y-49264776D01*
X121990974Y-49141575D01*
X121943656Y-49101161D01*
X121943653Y-49101160D01*
X121728859Y-48969533D01*
X121496110Y-48873126D01*
X121251150Y-48814317D01*
X121062884Y-48799500D01*
X121062882Y-48799500D01*
X120937118Y-48799500D01*
X120937116Y-48799500D01*
X120748849Y-48814317D01*
X120503889Y-48873126D01*
X120271140Y-48969533D01*
X120056346Y-49101160D01*
X120056343Y-49101161D01*
X119864776Y-49264776D01*
X119701161Y-49456343D01*
X119701160Y-49456346D01*
X119569533Y-49671140D01*
X119473126Y-49903889D01*
X119414317Y-50148848D01*
X119394551Y-50400000D01*
X93605449Y-50400000D01*
X93585683Y-50148852D01*
X93526873Y-49903889D01*
X93468033Y-49761835D01*
X93430466Y-49671140D01*
X93298839Y-49456346D01*
X93298838Y-49456343D01*
X93201484Y-49342357D01*
X93135224Y-49264776D01*
X92990974Y-49141575D01*
X92943656Y-49101161D01*
X92943653Y-49101160D01*
X92728859Y-48969533D01*
X92496110Y-48873126D01*
X92251150Y-48814317D01*
X92062884Y-48799500D01*
X92062882Y-48799500D01*
X91937118Y-48799500D01*
X91937116Y-48799500D01*
X91748849Y-48814317D01*
X91503889Y-48873126D01*
X91271140Y-48969533D01*
X91056346Y-49101160D01*
X91056343Y-49101161D01*
X90864776Y-49264776D01*
X90701161Y-49456343D01*
X90701160Y-49456346D01*
X90569533Y-49671140D01*
X90473126Y-49903889D01*
X90414317Y-50148848D01*
X90394551Y-50400000D01*
X88951022Y-50400000D01*
X88951064Y-50351798D01*
X88951110Y-50351642D01*
X88951110Y-50301740D01*
X88951208Y-50298263D01*
X88954325Y-50242750D01*
X88957596Y-50184487D01*
X88970547Y-49970391D01*
X88971305Y-49963799D01*
X88996758Y-49813991D01*
X89029096Y-49637536D01*
X89030496Y-49631579D01*
X89074523Y-49478758D01*
X89125942Y-49313751D01*
X89127840Y-49308508D01*
X89189873Y-49158748D01*
X89259768Y-49003449D01*
X89262017Y-48998953D01*
X89341259Y-48855576D01*
X89428771Y-48710815D01*
X89431229Y-48707066D01*
X89525791Y-48573794D01*
X89527484Y-48571524D01*
X89630690Y-48439792D01*
X89633219Y-48436770D01*
X89742328Y-48314677D01*
X89744649Y-48312223D01*
X89862825Y-48194047D01*
X89865279Y-48191726D01*
X89987390Y-48082602D01*
X89990425Y-48080062D01*
X90122096Y-47976904D01*
X90124393Y-47975192D01*
X90257704Y-47880603D01*
X90261457Y-47878142D01*
X90406113Y-47790694D01*
X90549604Y-47711390D01*
X90554109Y-47709136D01*
X90709175Y-47639345D01*
X90859177Y-47577213D01*
X90864436Y-47575308D01*
X91029082Y-47524003D01*
X91182255Y-47479874D01*
X91188219Y-47478473D01*
X91264192Y-47464550D01*
X91364086Y-47446245D01*
X91402094Y-47439786D01*
X91514491Y-47420690D01*
X91521082Y-47419932D01*
X91732782Y-47407126D01*
X91804713Y-47403087D01*
X91849052Y-47400598D01*
X91852529Y-47400500D01*
X120998378Y-47400500D01*
X121001619Y-47400584D01*
G37*
%TD.AperFunction*%
%TD*%
M02*
