%TF.GenerationSoftware,KiCad,Pcbnew,7.0.7*%
%TF.CreationDate,2023-10-16T17:48:26+02:00*%
%TF.ProjectId,cd4069-siren,63643430-3639-42d7-9369-72656e2e6b69,0*%
%TF.SameCoordinates,Original*%
%TF.FileFunction,Legend,Bot*%
%TF.FilePolarity,Positive*%
%FSLAX46Y46*%
G04 Gerber Fmt 4.6, Leading zero omitted, Abs format (unit mm)*
G04 Created by KiCad (PCBNEW 7.0.7) date 2023-10-16 17:48:26*
%MOMM*%
%LPD*%
G01*
G04 APERTURE LIST*
%ADD10C,0.300000*%
G04 APERTURE END LIST*
D10*
X107221427Y-67449757D02*
X107364285Y-67378328D01*
X107364285Y-67378328D02*
X107578570Y-67378328D01*
X107578570Y-67378328D02*
X107792856Y-67449757D01*
X107792856Y-67449757D02*
X107935713Y-67592614D01*
X107935713Y-67592614D02*
X108007142Y-67735471D01*
X108007142Y-67735471D02*
X108078570Y-68021185D01*
X108078570Y-68021185D02*
X108078570Y-68235471D01*
X108078570Y-68235471D02*
X108007142Y-68521185D01*
X108007142Y-68521185D02*
X107935713Y-68664042D01*
X107935713Y-68664042D02*
X107792856Y-68806900D01*
X107792856Y-68806900D02*
X107578570Y-68878328D01*
X107578570Y-68878328D02*
X107435713Y-68878328D01*
X107435713Y-68878328D02*
X107221427Y-68806900D01*
X107221427Y-68806900D02*
X107149999Y-68735471D01*
X107149999Y-68735471D02*
X107149999Y-68235471D01*
X107149999Y-68235471D02*
X107435713Y-68235471D01*
X106292856Y-67378328D02*
X106292856Y-67735471D01*
X106649999Y-67592614D02*
X106292856Y-67735471D01*
X106292856Y-67735471D02*
X105935713Y-67592614D01*
X106507142Y-68021185D02*
X106292856Y-67735471D01*
X106292856Y-67735471D02*
X106078570Y-68021185D01*
X105149999Y-67378328D02*
X105149999Y-67735471D01*
X105507142Y-67592614D02*
X105149999Y-67735471D01*
X105149999Y-67735471D02*
X104792856Y-67592614D01*
X105364285Y-68021185D02*
X105149999Y-67735471D01*
X105149999Y-67735471D02*
X104935713Y-68021185D01*
X104007142Y-67378328D02*
X104007142Y-67735471D01*
X104364285Y-67592614D02*
X104007142Y-67735471D01*
X104007142Y-67735471D02*
X103649999Y-67592614D01*
X104221428Y-68021185D02*
X104007142Y-67735471D01*
X104007142Y-67735471D02*
X103792856Y-68021185D01*
%TO.C,G\u002A\u002A\u002A*%
G36*
X112718792Y-78087248D02*
G01*
X110758389Y-78087248D01*
X108797987Y-78087248D01*
X108797987Y-76893960D01*
X109991275Y-76893960D01*
X110852965Y-76893960D01*
X111714654Y-76893960D01*
X111662696Y-76084228D01*
X111610738Y-75274496D01*
X110801007Y-75222539D01*
X109991275Y-75170581D01*
X109991275Y-76032270D01*
X109991275Y-76893960D01*
X108797987Y-76893960D01*
X108797987Y-76126845D01*
X108797987Y-74166443D01*
X110758389Y-74166443D01*
X112718792Y-74166443D01*
X112718792Y-76126845D01*
X112718792Y-76893960D01*
X112718792Y-78087248D01*
G37*
G36*
X107775168Y-76126845D02*
G01*
X107775168Y-78087248D01*
X105814765Y-78087248D01*
X103854363Y-78087248D01*
X103854363Y-76893960D01*
X104858501Y-76893960D01*
X105720190Y-76893960D01*
X106581879Y-76893960D01*
X106581879Y-76032270D01*
X106581879Y-75170581D01*
X105772148Y-75222539D01*
X104962416Y-75274496D01*
X104910459Y-76084228D01*
X104858501Y-76893960D01*
X103854363Y-76893960D01*
X103854363Y-76126845D01*
X103854363Y-74166443D01*
X105814765Y-74166443D01*
X107775168Y-74166443D01*
X107775168Y-75170581D01*
X107775168Y-76126845D01*
G37*
G36*
X107775168Y-71097986D02*
G01*
X107775168Y-73143624D01*
X105814765Y-73143624D01*
X103854363Y-73143624D01*
X103854363Y-71865100D01*
X104962416Y-71865100D01*
X105772148Y-71917058D01*
X106581879Y-71969016D01*
X106581879Y-71097986D01*
X106581879Y-70226957D01*
X105772148Y-70278915D01*
X104962416Y-70330872D01*
X104962416Y-71097986D01*
X104962416Y-71865100D01*
X103854363Y-71865100D01*
X103854363Y-71097986D01*
X103854363Y-69052349D01*
X105814765Y-69052349D01*
X107775168Y-69052349D01*
X107775168Y-70226957D01*
X107775168Y-71097986D01*
G37*
G36*
X107775168Y-66069127D02*
G01*
X107775168Y-68029530D01*
X105814765Y-68029530D01*
X103854363Y-68029530D01*
X103854363Y-66069127D01*
X103854363Y-65302013D01*
X104858501Y-65302013D01*
X104910459Y-66111745D01*
X104962416Y-66921476D01*
X105772148Y-66973434D01*
X106581879Y-67025392D01*
X106581879Y-66163702D01*
X106581879Y-65302013D01*
X105720190Y-65302013D01*
X104858501Y-65302013D01*
X103854363Y-65302013D01*
X103854363Y-64108725D01*
X105814765Y-64108725D01*
X107775168Y-64108725D01*
X107775168Y-65302013D01*
X107775168Y-66069127D01*
G37*
G36*
X102661074Y-78087248D02*
G01*
X100700671Y-78087248D01*
X98740269Y-78087248D01*
X98740269Y-76893960D01*
X99933557Y-76893960D01*
X100795247Y-76893960D01*
X101656936Y-76893960D01*
X101604978Y-76084228D01*
X101553020Y-75274496D01*
X100743289Y-75222539D01*
X99933557Y-75170581D01*
X99933557Y-76032270D01*
X99933557Y-76893960D01*
X98740269Y-76893960D01*
X98740269Y-76126845D01*
X98740269Y-74166443D01*
X100700671Y-74166443D01*
X102661074Y-74166443D01*
X102661074Y-76126845D01*
X102661074Y-76893960D01*
X102661074Y-78087248D01*
G37*
G36*
X112718792Y-73143624D02*
G01*
X110758389Y-73143624D01*
X108797987Y-73143624D01*
X108797987Y-71950335D01*
X109991275Y-71950335D01*
X110763740Y-71950335D01*
X111178350Y-71929945D01*
X111535994Y-71796755D01*
X111678052Y-71477417D01*
X111665367Y-70901127D01*
X111635546Y-70657363D01*
X111537271Y-70428386D01*
X111291249Y-70325386D01*
X110801007Y-70278915D01*
X109991275Y-70226957D01*
X109991275Y-71088646D01*
X109991275Y-71950335D01*
X108797987Y-71950335D01*
X108797987Y-71097986D01*
X108797987Y-69052349D01*
X110758389Y-69052349D01*
X112718792Y-69052349D01*
X112718792Y-71097986D01*
X112718792Y-71477417D01*
X112718792Y-73143624D01*
G37*
G36*
X112718792Y-66069127D02*
G01*
X112718792Y-68029530D01*
X110758389Y-68029530D01*
X108797987Y-68029530D01*
X108797987Y-67006711D01*
X109991275Y-67006711D01*
X110729978Y-67006711D01*
X110920686Y-67002999D01*
X111355292Y-66962939D01*
X111582327Y-66893065D01*
X111611095Y-66840166D01*
X111671795Y-66519079D01*
X111695973Y-66040716D01*
X111695973Y-65302013D01*
X110843624Y-65302013D01*
X109991275Y-65302013D01*
X109991275Y-66154362D01*
X109991275Y-67006711D01*
X108797987Y-67006711D01*
X108797987Y-66069127D01*
X108797987Y-64108725D01*
X110758389Y-64108725D01*
X112718792Y-64108725D01*
X112718792Y-65302013D01*
X112718792Y-66069127D01*
G37*
G36*
X102661074Y-73143624D02*
G01*
X100700671Y-73143624D01*
X98740269Y-73143624D01*
X98740269Y-71950335D01*
X99933557Y-71950335D01*
X100706022Y-71950335D01*
X101120632Y-71929945D01*
X101478276Y-71796755D01*
X101620334Y-71477417D01*
X101607649Y-70901127D01*
X101577828Y-70657363D01*
X101479553Y-70428386D01*
X101233531Y-70325386D01*
X100743289Y-70278915D01*
X99933557Y-70226957D01*
X99933557Y-71088646D01*
X99933557Y-71950335D01*
X98740269Y-71950335D01*
X98740269Y-71097986D01*
X98740269Y-69052349D01*
X100700671Y-69052349D01*
X102661074Y-69052349D01*
X102661074Y-71097986D01*
X102661074Y-71477417D01*
X102661074Y-73143624D01*
G37*
G36*
X102661074Y-66069127D02*
G01*
X102661074Y-68029530D01*
X100700671Y-68029530D01*
X98740269Y-68029530D01*
X98740269Y-67006711D01*
X99933557Y-67006711D01*
X100672260Y-67006711D01*
X100862967Y-67002999D01*
X101297574Y-66962939D01*
X101524609Y-66893065D01*
X101553377Y-66840166D01*
X101614077Y-66519079D01*
X101638255Y-66040716D01*
X101638255Y-65302013D01*
X100785906Y-65302013D01*
X99933557Y-65302013D01*
X99933557Y-66154362D01*
X99933557Y-67006711D01*
X98740269Y-67006711D01*
X98740269Y-66069127D01*
X98740269Y-64108725D01*
X100700671Y-64108725D01*
X102661074Y-64108725D01*
X102661074Y-65302013D01*
X102661074Y-66069127D01*
G37*
G36*
X112718792Y-59676510D02*
G01*
X112718792Y-62404027D01*
X105729530Y-62404027D01*
X98740269Y-62404027D01*
X98740269Y-61210738D01*
X99933557Y-61210738D01*
X105701119Y-61210738D01*
X106728482Y-61208926D01*
X108020622Y-61201169D01*
X109173194Y-61188022D01*
X110145924Y-61170262D01*
X110898539Y-61148669D01*
X111390764Y-61124019D01*
X111582327Y-61097092D01*
X111600265Y-61061352D01*
X111649106Y-60757367D01*
X111683174Y-60228641D01*
X111695973Y-59562863D01*
X111695973Y-58142282D01*
X105814765Y-58142282D01*
X99933557Y-58142282D01*
X99933557Y-59676510D01*
X99933557Y-61210738D01*
X98740269Y-61210738D01*
X98740269Y-59676510D01*
X98740269Y-56948993D01*
X105729530Y-56948993D01*
X112718792Y-56948993D01*
X112718792Y-58142282D01*
X112718792Y-59676510D01*
G37*
G36*
X116088744Y-68357753D02*
G01*
X116042953Y-81128353D01*
X115616779Y-81586846D01*
X115585324Y-81620107D01*
X115197386Y-81966249D01*
X114849665Y-82186360D01*
X114816465Y-82194351D01*
X114492410Y-82221603D01*
X113870546Y-82247326D01*
X112984413Y-82270961D01*
X111867553Y-82291947D01*
X110553509Y-82309722D01*
X109075821Y-82323728D01*
X107468032Y-82333404D01*
X105763682Y-82338188D01*
X105072288Y-82338922D01*
X103182972Y-82339185D01*
X101597678Y-82335910D01*
X100288622Y-82328362D01*
X99228021Y-82315807D01*
X98388090Y-82297513D01*
X97741045Y-82272745D01*
X97259102Y-82240769D01*
X96914477Y-82200853D01*
X96679386Y-82152261D01*
X96526044Y-82094262D01*
X96490315Y-82076051D01*
X96306601Y-81987093D01*
X96147100Y-81902319D01*
X96010106Y-81798721D01*
X95893914Y-81653291D01*
X95796818Y-81443020D01*
X95717113Y-81144902D01*
X95653092Y-80735927D01*
X95603052Y-80193088D01*
X95565286Y-79493377D01*
X95538088Y-78613785D01*
X95519754Y-77531305D01*
X95508578Y-76222928D01*
X95504291Y-75056611D01*
X96543279Y-75056611D01*
X96544080Y-76388930D01*
X96548823Y-77487886D01*
X96558071Y-78377322D01*
X96572386Y-79081084D01*
X96592332Y-79623015D01*
X96618473Y-80026961D01*
X96651371Y-80316767D01*
X96691591Y-80516275D01*
X96739694Y-80649333D01*
X96796245Y-80739783D01*
X96861807Y-80811471D01*
X96947486Y-80888486D01*
X97057015Y-80953419D01*
X97218766Y-81006884D01*
X97461610Y-81049994D01*
X97814420Y-81083862D01*
X98306066Y-81109603D01*
X98965422Y-81128329D01*
X99821358Y-81141153D01*
X100902747Y-81149189D01*
X102238460Y-81153551D01*
X103857368Y-81155352D01*
X105788345Y-81155704D01*
X106918231Y-81155549D01*
X108674077Y-81154100D01*
X110133653Y-81150290D01*
X111325535Y-81143115D01*
X112278299Y-81131570D01*
X113020521Y-81114649D01*
X113580780Y-81091347D01*
X113987650Y-81060660D01*
X114269708Y-81021583D01*
X114455530Y-80973110D01*
X114573693Y-80914238D01*
X114652774Y-80843959D01*
X114670792Y-80822057D01*
X114722470Y-80726083D01*
X114766995Y-80570850D01*
X114804892Y-80332885D01*
X114836686Y-79988716D01*
X114862903Y-79514868D01*
X114884067Y-78887868D01*
X114900706Y-78084243D01*
X114913343Y-77080520D01*
X114922504Y-75853225D01*
X114928715Y-74378885D01*
X114932501Y-72634027D01*
X114934388Y-70595176D01*
X114934900Y-68238861D01*
X114934900Y-55945507D01*
X114556029Y-55680136D01*
X114504385Y-55649196D01*
X114352010Y-55593146D01*
X114114034Y-55546615D01*
X113762089Y-55508751D01*
X113267803Y-55478701D01*
X112602806Y-55455613D01*
X111738727Y-55438635D01*
X110647195Y-55426913D01*
X109299841Y-55419596D01*
X107668293Y-55415831D01*
X105724182Y-55414765D01*
X103965918Y-55415830D01*
X102277465Y-55420037D01*
X100879011Y-55428147D01*
X99743536Y-55440903D01*
X98844024Y-55459050D01*
X98153457Y-55483331D01*
X97644819Y-55514491D01*
X97291092Y-55553273D01*
X97065258Y-55600422D01*
X96940300Y-55656683D01*
X96922037Y-55670503D01*
X96861324Y-55730743D01*
X96808855Y-55824678D01*
X96763920Y-55975942D01*
X96725806Y-56208170D01*
X96693804Y-56544994D01*
X96667202Y-57010050D01*
X96645290Y-57626972D01*
X96627356Y-58419393D01*
X96612689Y-59410948D01*
X96600579Y-60625270D01*
X96590315Y-62085994D01*
X96581185Y-63816755D01*
X96572478Y-65841185D01*
X96563485Y-68182919D01*
X96558888Y-69421022D01*
X96551246Y-71596501D01*
X96545855Y-73467083D01*
X96543279Y-75056611D01*
X95504291Y-75056611D01*
X95502854Y-74665646D01*
X95500877Y-72836452D01*
X95500942Y-70712337D01*
X95501342Y-68270293D01*
X95501411Y-66761766D01*
X95502076Y-64564366D01*
X95503944Y-62670035D01*
X95507609Y-61055304D01*
X95513665Y-59696704D01*
X95522707Y-58570765D01*
X95535329Y-57654018D01*
X95552125Y-56922994D01*
X95573691Y-56354224D01*
X95600619Y-55924239D01*
X95633504Y-55609568D01*
X95672941Y-55386744D01*
X95719524Y-55232296D01*
X95773847Y-55122756D01*
X95836504Y-55034654D01*
X95962150Y-54879841D01*
X96111757Y-54727048D01*
X96293287Y-54599747D01*
X96534833Y-54495806D01*
X96864487Y-54413091D01*
X97310340Y-54349471D01*
X97900484Y-54302811D01*
X98663010Y-54270980D01*
X99626011Y-54251844D01*
X100817579Y-54243270D01*
X102265805Y-54243126D01*
X103998780Y-54249278D01*
X106044598Y-54259594D01*
X114961286Y-54306711D01*
X115547910Y-54946932D01*
X116134535Y-55587153D01*
X116089170Y-68238861D01*
X116088744Y-68357753D01*
G37*
%TD*%
M02*
