%TF.GenerationSoftware,KiCad,Pcbnew,7.0.7*%
%TF.CreationDate,2023-10-16T17:48:52+02:00*%
%TF.ProjectId,cd4069-siren,63643430-3639-42d7-9369-72656e2e6b69,0*%
%TF.SameCoordinates,Original*%
%TF.FileFunction,Drillmap*%
%TF.FilePolarity,Positive*%
%FSLAX45Y45*%
G04 Gerber Fmt 4.5, Leading zero omitted, Abs format (unit mm)*
G04 Created by KiCad (PCBNEW 7.0.7) date 2023-10-16 17:48:52*
%MOMM*%
%LPD*%
G01*
G04 APERTURE LIST*
%ADD10C,0.100000*%
%ADD11C,0.200000*%
%ADD12C,0.270000*%
G04 APERTURE END LIST*
D10*
X9192132Y-8677868D02*
X12097868Y-8677868D01*
X12400000Y-5040000D02*
G75*
G03*
X12100000Y-4740000I-300000J0D01*
G01*
X12100000Y-4740000D02*
X9185061Y-4740000D01*
X9185061Y-4740001D02*
G75*
G03*
X8895061Y-5030000I-1J-289999D01*
G01*
X8895061Y-5030000D02*
X8892132Y-8377868D01*
X8892132Y-8377868D02*
G75*
G03*
X9192132Y-8677868I299998J-2D01*
G01*
X12397868Y-8377868D02*
X12400000Y-5040000D01*
X12097868Y-8677868D02*
G75*
G03*
X12397868Y-8377868I2J299998D01*
G01*
D11*
D12*
X9055000Y-8245000D02*
X9325000Y-8515000D01*
X9325000Y-8245000D02*
X9055000Y-8515000D01*
X9065000Y-4905000D02*
X9335000Y-5175000D01*
X9335000Y-4905000D02*
X9065000Y-5175000D01*
X11965000Y-4905000D02*
X12235000Y-5175000D01*
X12235000Y-4905000D02*
X11965000Y-5175000D01*
X11965000Y-8245000D02*
X12235000Y-8515000D01*
X12235000Y-8245000D02*
X11965000Y-8515000D01*
D11*
X9147909Y-8994352D02*
X9147909Y-8794352D01*
X9147909Y-8794352D02*
X9195528Y-8794352D01*
X9195528Y-8794352D02*
X9224099Y-8803876D01*
X9224099Y-8803876D02*
X9243147Y-8822923D01*
X9243147Y-8822923D02*
X9252671Y-8841971D01*
X9252671Y-8841971D02*
X9262195Y-8880066D01*
X9262195Y-8880066D02*
X9262195Y-8908638D01*
X9262195Y-8908638D02*
X9252671Y-8946733D01*
X9252671Y-8946733D02*
X9243147Y-8965780D01*
X9243147Y-8965780D02*
X9224099Y-8984828D01*
X9224099Y-8984828D02*
X9195528Y-8994352D01*
X9195528Y-8994352D02*
X9147909Y-8994352D01*
X9347909Y-8994352D02*
X9347909Y-8861018D01*
X9347909Y-8899114D02*
X9357433Y-8880066D01*
X9357433Y-8880066D02*
X9366956Y-8870542D01*
X9366956Y-8870542D02*
X9386004Y-8861018D01*
X9386004Y-8861018D02*
X9405052Y-8861018D01*
X9471718Y-8994352D02*
X9471718Y-8861018D01*
X9471718Y-8794352D02*
X9462195Y-8803876D01*
X9462195Y-8803876D02*
X9471718Y-8813399D01*
X9471718Y-8813399D02*
X9481242Y-8803876D01*
X9481242Y-8803876D02*
X9471718Y-8794352D01*
X9471718Y-8794352D02*
X9471718Y-8813399D01*
X9595528Y-8994352D02*
X9576480Y-8984828D01*
X9576480Y-8984828D02*
X9566956Y-8965780D01*
X9566956Y-8965780D02*
X9566956Y-8794352D01*
X9700290Y-8994352D02*
X9681242Y-8984828D01*
X9681242Y-8984828D02*
X9671718Y-8965780D01*
X9671718Y-8965780D02*
X9671718Y-8794352D01*
X9928861Y-8994352D02*
X9928861Y-8794352D01*
X9928861Y-8794352D02*
X9995528Y-8937209D01*
X9995528Y-8937209D02*
X10062195Y-8794352D01*
X10062195Y-8794352D02*
X10062195Y-8994352D01*
X10243147Y-8994352D02*
X10243147Y-8889590D01*
X10243147Y-8889590D02*
X10233623Y-8870542D01*
X10233623Y-8870542D02*
X10214576Y-8861018D01*
X10214576Y-8861018D02*
X10176480Y-8861018D01*
X10176480Y-8861018D02*
X10157433Y-8870542D01*
X10243147Y-8984828D02*
X10224099Y-8994352D01*
X10224099Y-8994352D02*
X10176480Y-8994352D01*
X10176480Y-8994352D02*
X10157433Y-8984828D01*
X10157433Y-8984828D02*
X10147909Y-8965780D01*
X10147909Y-8965780D02*
X10147909Y-8946733D01*
X10147909Y-8946733D02*
X10157433Y-8927685D01*
X10157433Y-8927685D02*
X10176480Y-8918161D01*
X10176480Y-8918161D02*
X10224099Y-8918161D01*
X10224099Y-8918161D02*
X10243147Y-8908638D01*
X10338385Y-8861018D02*
X10338385Y-9061018D01*
X10338385Y-8870542D02*
X10357433Y-8861018D01*
X10357433Y-8861018D02*
X10395528Y-8861018D01*
X10395528Y-8861018D02*
X10414576Y-8870542D01*
X10414576Y-8870542D02*
X10424099Y-8880066D01*
X10424099Y-8880066D02*
X10433623Y-8899114D01*
X10433623Y-8899114D02*
X10433623Y-8956257D01*
X10433623Y-8956257D02*
X10424099Y-8975304D01*
X10424099Y-8975304D02*
X10414576Y-8984828D01*
X10414576Y-8984828D02*
X10395528Y-8994352D01*
X10395528Y-8994352D02*
X10357433Y-8994352D01*
X10357433Y-8994352D02*
X10338385Y-8984828D01*
X10519337Y-8975304D02*
X10528861Y-8984828D01*
X10528861Y-8984828D02*
X10519337Y-8994352D01*
X10519337Y-8994352D02*
X10509814Y-8984828D01*
X10509814Y-8984828D02*
X10519337Y-8975304D01*
X10519337Y-8975304D02*
X10519337Y-8994352D01*
X10519337Y-8870542D02*
X10528861Y-8880066D01*
X10528861Y-8880066D02*
X10519337Y-8889590D01*
X10519337Y-8889590D02*
X10509814Y-8880066D01*
X10509814Y-8880066D02*
X10519337Y-8870542D01*
X10519337Y-8870542D02*
X10519337Y-8889590D01*
X8687132Y-9222868D02*
X8887132Y-9422868D01*
X8887132Y-9222868D02*
X8687132Y-9422868D01*
X9138385Y-9233399D02*
X9147909Y-9223876D01*
X9147909Y-9223876D02*
X9166956Y-9214352D01*
X9166956Y-9214352D02*
X9214576Y-9214352D01*
X9214576Y-9214352D02*
X9233623Y-9223876D01*
X9233623Y-9223876D02*
X9243147Y-9233399D01*
X9243147Y-9233399D02*
X9252671Y-9252447D01*
X9252671Y-9252447D02*
X9252671Y-9271495D01*
X9252671Y-9271495D02*
X9243147Y-9300066D01*
X9243147Y-9300066D02*
X9128861Y-9414352D01*
X9128861Y-9414352D02*
X9252671Y-9414352D01*
X9338385Y-9395304D02*
X9347909Y-9404828D01*
X9347909Y-9404828D02*
X9338385Y-9414352D01*
X9338385Y-9414352D02*
X9328861Y-9404828D01*
X9328861Y-9404828D02*
X9338385Y-9395304D01*
X9338385Y-9395304D02*
X9338385Y-9414352D01*
X9414576Y-9214352D02*
X9547909Y-9214352D01*
X9547909Y-9214352D02*
X9462195Y-9414352D01*
X9662195Y-9214352D02*
X9681242Y-9214352D01*
X9681242Y-9214352D02*
X9700290Y-9223876D01*
X9700290Y-9223876D02*
X9709814Y-9233399D01*
X9709814Y-9233399D02*
X9719337Y-9252447D01*
X9719337Y-9252447D02*
X9728861Y-9290542D01*
X9728861Y-9290542D02*
X9728861Y-9338161D01*
X9728861Y-9338161D02*
X9719337Y-9376257D01*
X9719337Y-9376257D02*
X9709814Y-9395304D01*
X9709814Y-9395304D02*
X9700290Y-9404828D01*
X9700290Y-9404828D02*
X9681242Y-9414352D01*
X9681242Y-9414352D02*
X9662195Y-9414352D01*
X9662195Y-9414352D02*
X9643147Y-9404828D01*
X9643147Y-9404828D02*
X9633623Y-9395304D01*
X9633623Y-9395304D02*
X9624099Y-9376257D01*
X9624099Y-9376257D02*
X9614576Y-9338161D01*
X9614576Y-9338161D02*
X9614576Y-9290542D01*
X9614576Y-9290542D02*
X9624099Y-9252447D01*
X9624099Y-9252447D02*
X9633623Y-9233399D01*
X9633623Y-9233399D02*
X9643147Y-9223876D01*
X9643147Y-9223876D02*
X9662195Y-9214352D01*
X9852671Y-9214352D02*
X9871718Y-9214352D01*
X9871718Y-9214352D02*
X9890766Y-9223876D01*
X9890766Y-9223876D02*
X9900290Y-9233399D01*
X9900290Y-9233399D02*
X9909814Y-9252447D01*
X9909814Y-9252447D02*
X9919337Y-9290542D01*
X9919337Y-9290542D02*
X9919337Y-9338161D01*
X9919337Y-9338161D02*
X9909814Y-9376257D01*
X9909814Y-9376257D02*
X9900290Y-9395304D01*
X9900290Y-9395304D02*
X9890766Y-9404828D01*
X9890766Y-9404828D02*
X9871718Y-9414352D01*
X9871718Y-9414352D02*
X9852671Y-9414352D01*
X9852671Y-9414352D02*
X9833623Y-9404828D01*
X9833623Y-9404828D02*
X9824099Y-9395304D01*
X9824099Y-9395304D02*
X9814576Y-9376257D01*
X9814576Y-9376257D02*
X9805052Y-9338161D01*
X9805052Y-9338161D02*
X9805052Y-9290542D01*
X9805052Y-9290542D02*
X9814576Y-9252447D01*
X9814576Y-9252447D02*
X9824099Y-9233399D01*
X9824099Y-9233399D02*
X9833623Y-9223876D01*
X9833623Y-9223876D02*
X9852671Y-9214352D01*
X10005052Y-9414352D02*
X10005052Y-9281018D01*
X10005052Y-9300066D02*
X10014576Y-9290542D01*
X10014576Y-9290542D02*
X10033623Y-9281018D01*
X10033623Y-9281018D02*
X10062195Y-9281018D01*
X10062195Y-9281018D02*
X10081242Y-9290542D01*
X10081242Y-9290542D02*
X10090766Y-9309590D01*
X10090766Y-9309590D02*
X10090766Y-9414352D01*
X10090766Y-9309590D02*
X10100290Y-9290542D01*
X10100290Y-9290542D02*
X10119337Y-9281018D01*
X10119337Y-9281018D02*
X10147909Y-9281018D01*
X10147909Y-9281018D02*
X10166957Y-9290542D01*
X10166957Y-9290542D02*
X10176480Y-9309590D01*
X10176480Y-9309590D02*
X10176480Y-9414352D01*
X10271718Y-9414352D02*
X10271718Y-9281018D01*
X10271718Y-9300066D02*
X10281242Y-9290542D01*
X10281242Y-9290542D02*
X10300290Y-9281018D01*
X10300290Y-9281018D02*
X10328861Y-9281018D01*
X10328861Y-9281018D02*
X10347909Y-9290542D01*
X10347909Y-9290542D02*
X10357433Y-9309590D01*
X10357433Y-9309590D02*
X10357433Y-9414352D01*
X10357433Y-9309590D02*
X10366957Y-9290542D01*
X10366957Y-9290542D02*
X10386004Y-9281018D01*
X10386004Y-9281018D02*
X10414576Y-9281018D01*
X10414576Y-9281018D02*
X10433623Y-9290542D01*
X10433623Y-9290542D02*
X10443147Y-9309590D01*
X10443147Y-9309590D02*
X10443147Y-9414352D01*
X10833623Y-9204828D02*
X10662195Y-9461971D01*
X11090766Y-9214352D02*
X11109814Y-9214352D01*
X11109814Y-9214352D02*
X11128861Y-9223876D01*
X11128861Y-9223876D02*
X11138385Y-9233399D01*
X11138385Y-9233399D02*
X11147909Y-9252447D01*
X11147909Y-9252447D02*
X11157433Y-9290542D01*
X11157433Y-9290542D02*
X11157433Y-9338161D01*
X11157433Y-9338161D02*
X11147909Y-9376257D01*
X11147909Y-9376257D02*
X11138385Y-9395304D01*
X11138385Y-9395304D02*
X11128861Y-9404828D01*
X11128861Y-9404828D02*
X11109814Y-9414352D01*
X11109814Y-9414352D02*
X11090766Y-9414352D01*
X11090766Y-9414352D02*
X11071719Y-9404828D01*
X11071719Y-9404828D02*
X11062195Y-9395304D01*
X11062195Y-9395304D02*
X11052671Y-9376257D01*
X11052671Y-9376257D02*
X11043147Y-9338161D01*
X11043147Y-9338161D02*
X11043147Y-9290542D01*
X11043147Y-9290542D02*
X11052671Y-9252447D01*
X11052671Y-9252447D02*
X11062195Y-9233399D01*
X11062195Y-9233399D02*
X11071719Y-9223876D01*
X11071719Y-9223876D02*
X11090766Y-9214352D01*
X11243147Y-9395304D02*
X11252671Y-9404828D01*
X11252671Y-9404828D02*
X11243147Y-9414352D01*
X11243147Y-9414352D02*
X11233623Y-9404828D01*
X11233623Y-9404828D02*
X11243147Y-9395304D01*
X11243147Y-9395304D02*
X11243147Y-9414352D01*
X11443147Y-9414352D02*
X11328861Y-9414352D01*
X11386004Y-9414352D02*
X11386004Y-9214352D01*
X11386004Y-9214352D02*
X11366957Y-9242923D01*
X11366957Y-9242923D02*
X11347909Y-9261971D01*
X11347909Y-9261971D02*
X11328861Y-9271495D01*
X11566957Y-9214352D02*
X11586004Y-9214352D01*
X11586004Y-9214352D02*
X11605052Y-9223876D01*
X11605052Y-9223876D02*
X11614576Y-9233399D01*
X11614576Y-9233399D02*
X11624099Y-9252447D01*
X11624099Y-9252447D02*
X11633623Y-9290542D01*
X11633623Y-9290542D02*
X11633623Y-9338161D01*
X11633623Y-9338161D02*
X11624099Y-9376257D01*
X11624099Y-9376257D02*
X11614576Y-9395304D01*
X11614576Y-9395304D02*
X11605052Y-9404828D01*
X11605052Y-9404828D02*
X11586004Y-9414352D01*
X11586004Y-9414352D02*
X11566957Y-9414352D01*
X11566957Y-9414352D02*
X11547909Y-9404828D01*
X11547909Y-9404828D02*
X11538385Y-9395304D01*
X11538385Y-9395304D02*
X11528861Y-9376257D01*
X11528861Y-9376257D02*
X11519338Y-9338161D01*
X11519338Y-9338161D02*
X11519338Y-9290542D01*
X11519338Y-9290542D02*
X11528861Y-9252447D01*
X11528861Y-9252447D02*
X11538385Y-9233399D01*
X11538385Y-9233399D02*
X11547909Y-9223876D01*
X11547909Y-9223876D02*
X11566957Y-9214352D01*
X11805052Y-9214352D02*
X11766957Y-9214352D01*
X11766957Y-9214352D02*
X11747909Y-9223876D01*
X11747909Y-9223876D02*
X11738385Y-9233399D01*
X11738385Y-9233399D02*
X11719338Y-9261971D01*
X11719338Y-9261971D02*
X11709814Y-9300066D01*
X11709814Y-9300066D02*
X11709814Y-9376257D01*
X11709814Y-9376257D02*
X11719338Y-9395304D01*
X11719338Y-9395304D02*
X11728861Y-9404828D01*
X11728861Y-9404828D02*
X11747909Y-9414352D01*
X11747909Y-9414352D02*
X11786004Y-9414352D01*
X11786004Y-9414352D02*
X11805052Y-9404828D01*
X11805052Y-9404828D02*
X11814576Y-9395304D01*
X11814576Y-9395304D02*
X11824099Y-9376257D01*
X11824099Y-9376257D02*
X11824099Y-9328638D01*
X11824099Y-9328638D02*
X11814576Y-9309590D01*
X11814576Y-9309590D02*
X11805052Y-9300066D01*
X11805052Y-9300066D02*
X11786004Y-9290542D01*
X11786004Y-9290542D02*
X11747909Y-9290542D01*
X11747909Y-9290542D02*
X11728861Y-9300066D01*
X11728861Y-9300066D02*
X11719338Y-9309590D01*
X11719338Y-9309590D02*
X11709814Y-9328638D01*
X11890766Y-9214352D02*
X12014576Y-9214352D01*
X12014576Y-9214352D02*
X11947909Y-9290542D01*
X11947909Y-9290542D02*
X11976480Y-9290542D01*
X11976480Y-9290542D02*
X11995528Y-9300066D01*
X11995528Y-9300066D02*
X12005052Y-9309590D01*
X12005052Y-9309590D02*
X12014576Y-9328638D01*
X12014576Y-9328638D02*
X12014576Y-9376257D01*
X12014576Y-9376257D02*
X12005052Y-9395304D01*
X12005052Y-9395304D02*
X11995528Y-9404828D01*
X11995528Y-9404828D02*
X11976480Y-9414352D01*
X11976480Y-9414352D02*
X11919338Y-9414352D01*
X11919338Y-9414352D02*
X11900290Y-9404828D01*
X11900290Y-9404828D02*
X11890766Y-9395304D01*
X12090766Y-9214352D02*
X12090766Y-9252447D01*
X12166957Y-9214352D02*
X12166957Y-9252447D01*
X12462195Y-9490542D02*
X12452671Y-9481018D01*
X12452671Y-9481018D02*
X12433623Y-9452447D01*
X12433623Y-9452447D02*
X12424100Y-9433399D01*
X12424100Y-9433399D02*
X12414576Y-9404828D01*
X12414576Y-9404828D02*
X12405052Y-9357209D01*
X12405052Y-9357209D02*
X12405052Y-9319114D01*
X12405052Y-9319114D02*
X12414576Y-9271495D01*
X12414576Y-9271495D02*
X12424100Y-9242923D01*
X12424100Y-9242923D02*
X12433623Y-9223876D01*
X12433623Y-9223876D02*
X12452671Y-9195304D01*
X12452671Y-9195304D02*
X12462195Y-9185780D01*
X12624100Y-9281018D02*
X12624100Y-9414352D01*
X12576480Y-9204828D02*
X12528861Y-9347685D01*
X12528861Y-9347685D02*
X12652671Y-9347685D01*
X12881242Y-9414352D02*
X12881242Y-9214352D01*
X12966957Y-9414352D02*
X12966957Y-9309590D01*
X12966957Y-9309590D02*
X12957433Y-9290542D01*
X12957433Y-9290542D02*
X12938385Y-9281018D01*
X12938385Y-9281018D02*
X12909814Y-9281018D01*
X12909814Y-9281018D02*
X12890766Y-9290542D01*
X12890766Y-9290542D02*
X12881242Y-9300066D01*
X13090766Y-9414352D02*
X13071719Y-9404828D01*
X13071719Y-9404828D02*
X13062195Y-9395304D01*
X13062195Y-9395304D02*
X13052671Y-9376257D01*
X13052671Y-9376257D02*
X13052671Y-9319114D01*
X13052671Y-9319114D02*
X13062195Y-9300066D01*
X13062195Y-9300066D02*
X13071719Y-9290542D01*
X13071719Y-9290542D02*
X13090766Y-9281018D01*
X13090766Y-9281018D02*
X13119338Y-9281018D01*
X13119338Y-9281018D02*
X13138385Y-9290542D01*
X13138385Y-9290542D02*
X13147909Y-9300066D01*
X13147909Y-9300066D02*
X13157433Y-9319114D01*
X13157433Y-9319114D02*
X13157433Y-9376257D01*
X13157433Y-9376257D02*
X13147909Y-9395304D01*
X13147909Y-9395304D02*
X13138385Y-9404828D01*
X13138385Y-9404828D02*
X13119338Y-9414352D01*
X13119338Y-9414352D02*
X13090766Y-9414352D01*
X13271719Y-9414352D02*
X13252671Y-9404828D01*
X13252671Y-9404828D02*
X13243147Y-9385780D01*
X13243147Y-9385780D02*
X13243147Y-9214352D01*
X13424100Y-9404828D02*
X13405052Y-9414352D01*
X13405052Y-9414352D02*
X13366957Y-9414352D01*
X13366957Y-9414352D02*
X13347909Y-9404828D01*
X13347909Y-9404828D02*
X13338385Y-9385780D01*
X13338385Y-9385780D02*
X13338385Y-9309590D01*
X13338385Y-9309590D02*
X13347909Y-9290542D01*
X13347909Y-9290542D02*
X13366957Y-9281018D01*
X13366957Y-9281018D02*
X13405052Y-9281018D01*
X13405052Y-9281018D02*
X13424100Y-9290542D01*
X13424100Y-9290542D02*
X13433623Y-9309590D01*
X13433623Y-9309590D02*
X13433623Y-9328638D01*
X13433623Y-9328638D02*
X13338385Y-9347685D01*
X13509814Y-9404828D02*
X13528862Y-9414352D01*
X13528862Y-9414352D02*
X13566957Y-9414352D01*
X13566957Y-9414352D02*
X13586004Y-9404828D01*
X13586004Y-9404828D02*
X13595528Y-9385780D01*
X13595528Y-9385780D02*
X13595528Y-9376257D01*
X13595528Y-9376257D02*
X13586004Y-9357209D01*
X13586004Y-9357209D02*
X13566957Y-9347685D01*
X13566957Y-9347685D02*
X13538385Y-9347685D01*
X13538385Y-9347685D02*
X13519338Y-9338161D01*
X13519338Y-9338161D02*
X13509814Y-9319114D01*
X13509814Y-9319114D02*
X13509814Y-9309590D01*
X13509814Y-9309590D02*
X13519338Y-9290542D01*
X13519338Y-9290542D02*
X13538385Y-9281018D01*
X13538385Y-9281018D02*
X13566957Y-9281018D01*
X13566957Y-9281018D02*
X13586004Y-9290542D01*
X13662195Y-9490542D02*
X13671719Y-9481018D01*
X13671719Y-9481018D02*
X13690766Y-9452447D01*
X13690766Y-9452447D02*
X13700290Y-9433399D01*
X13700290Y-9433399D02*
X13709814Y-9404828D01*
X13709814Y-9404828D02*
X13719338Y-9357209D01*
X13719338Y-9357209D02*
X13719338Y-9319114D01*
X13719338Y-9319114D02*
X13709814Y-9271495D01*
X13709814Y-9271495D02*
X13700290Y-9242923D01*
X13700290Y-9242923D02*
X13690766Y-9223876D01*
X13690766Y-9223876D02*
X13671719Y-9195304D01*
X13671719Y-9195304D02*
X13662195Y-9185780D01*
X14024100Y-9490542D02*
X14014576Y-9481018D01*
X14014576Y-9481018D02*
X13995528Y-9452447D01*
X13995528Y-9452447D02*
X13986004Y-9433399D01*
X13986004Y-9433399D02*
X13976481Y-9404828D01*
X13976481Y-9404828D02*
X13966957Y-9357209D01*
X13966957Y-9357209D02*
X13966957Y-9319114D01*
X13966957Y-9319114D02*
X13976481Y-9271495D01*
X13976481Y-9271495D02*
X13986004Y-9242923D01*
X13986004Y-9242923D02*
X13995528Y-9223876D01*
X13995528Y-9223876D02*
X14014576Y-9195304D01*
X14014576Y-9195304D02*
X14024100Y-9185780D01*
X14100290Y-9281018D02*
X14100290Y-9414352D01*
X14100290Y-9300066D02*
X14109814Y-9290542D01*
X14109814Y-9290542D02*
X14128862Y-9281018D01*
X14128862Y-9281018D02*
X14157433Y-9281018D01*
X14157433Y-9281018D02*
X14176481Y-9290542D01*
X14176481Y-9290542D02*
X14186004Y-9309590D01*
X14186004Y-9309590D02*
X14186004Y-9414352D01*
X14309814Y-9414352D02*
X14290766Y-9404828D01*
X14290766Y-9404828D02*
X14281243Y-9395304D01*
X14281243Y-9395304D02*
X14271719Y-9376257D01*
X14271719Y-9376257D02*
X14271719Y-9319114D01*
X14271719Y-9319114D02*
X14281243Y-9300066D01*
X14281243Y-9300066D02*
X14290766Y-9290542D01*
X14290766Y-9290542D02*
X14309814Y-9281018D01*
X14309814Y-9281018D02*
X14338385Y-9281018D01*
X14338385Y-9281018D02*
X14357433Y-9290542D01*
X14357433Y-9290542D02*
X14366957Y-9300066D01*
X14366957Y-9300066D02*
X14376481Y-9319114D01*
X14376481Y-9319114D02*
X14376481Y-9376257D01*
X14376481Y-9376257D02*
X14366957Y-9395304D01*
X14366957Y-9395304D02*
X14357433Y-9404828D01*
X14357433Y-9404828D02*
X14338385Y-9414352D01*
X14338385Y-9414352D02*
X14309814Y-9414352D01*
X14433624Y-9281018D02*
X14509814Y-9281018D01*
X14462195Y-9214352D02*
X14462195Y-9385780D01*
X14462195Y-9385780D02*
X14471719Y-9404828D01*
X14471719Y-9404828D02*
X14490766Y-9414352D01*
X14490766Y-9414352D02*
X14509814Y-9414352D01*
X14728862Y-9281018D02*
X14728862Y-9481018D01*
X14728862Y-9290542D02*
X14747909Y-9281018D01*
X14747909Y-9281018D02*
X14786005Y-9281018D01*
X14786005Y-9281018D02*
X14805052Y-9290542D01*
X14805052Y-9290542D02*
X14814576Y-9300066D01*
X14814576Y-9300066D02*
X14824100Y-9319114D01*
X14824100Y-9319114D02*
X14824100Y-9376257D01*
X14824100Y-9376257D02*
X14814576Y-9395304D01*
X14814576Y-9395304D02*
X14805052Y-9404828D01*
X14805052Y-9404828D02*
X14786005Y-9414352D01*
X14786005Y-9414352D02*
X14747909Y-9414352D01*
X14747909Y-9414352D02*
X14728862Y-9404828D01*
X14938385Y-9414352D02*
X14919338Y-9404828D01*
X14919338Y-9404828D02*
X14909814Y-9385780D01*
X14909814Y-9385780D02*
X14909814Y-9214352D01*
X15100290Y-9414352D02*
X15100290Y-9309590D01*
X15100290Y-9309590D02*
X15090766Y-9290542D01*
X15090766Y-9290542D02*
X15071719Y-9281018D01*
X15071719Y-9281018D02*
X15033624Y-9281018D01*
X15033624Y-9281018D02*
X15014576Y-9290542D01*
X15100290Y-9404828D02*
X15081243Y-9414352D01*
X15081243Y-9414352D02*
X15033624Y-9414352D01*
X15033624Y-9414352D02*
X15014576Y-9404828D01*
X15014576Y-9404828D02*
X15005052Y-9385780D01*
X15005052Y-9385780D02*
X15005052Y-9366733D01*
X15005052Y-9366733D02*
X15014576Y-9347685D01*
X15014576Y-9347685D02*
X15033624Y-9338161D01*
X15033624Y-9338161D02*
X15081243Y-9338161D01*
X15081243Y-9338161D02*
X15100290Y-9328638D01*
X15166957Y-9281018D02*
X15243147Y-9281018D01*
X15195528Y-9214352D02*
X15195528Y-9385780D01*
X15195528Y-9385780D02*
X15205052Y-9404828D01*
X15205052Y-9404828D02*
X15224100Y-9414352D01*
X15224100Y-9414352D02*
X15243147Y-9414352D01*
X15386005Y-9404828D02*
X15366957Y-9414352D01*
X15366957Y-9414352D02*
X15328862Y-9414352D01*
X15328862Y-9414352D02*
X15309814Y-9404828D01*
X15309814Y-9404828D02*
X15300290Y-9385780D01*
X15300290Y-9385780D02*
X15300290Y-9309590D01*
X15300290Y-9309590D02*
X15309814Y-9290542D01*
X15309814Y-9290542D02*
X15328862Y-9281018D01*
X15328862Y-9281018D02*
X15366957Y-9281018D01*
X15366957Y-9281018D02*
X15386005Y-9290542D01*
X15386005Y-9290542D02*
X15395528Y-9309590D01*
X15395528Y-9309590D02*
X15395528Y-9328638D01*
X15395528Y-9328638D02*
X15300290Y-9347685D01*
X15566957Y-9414352D02*
X15566957Y-9214352D01*
X15566957Y-9404828D02*
X15547909Y-9414352D01*
X15547909Y-9414352D02*
X15509814Y-9414352D01*
X15509814Y-9414352D02*
X15490766Y-9404828D01*
X15490766Y-9404828D02*
X15481243Y-9395304D01*
X15481243Y-9395304D02*
X15471719Y-9376257D01*
X15471719Y-9376257D02*
X15471719Y-9319114D01*
X15471719Y-9319114D02*
X15481243Y-9300066D01*
X15481243Y-9300066D02*
X15490766Y-9290542D01*
X15490766Y-9290542D02*
X15509814Y-9281018D01*
X15509814Y-9281018D02*
X15547909Y-9281018D01*
X15547909Y-9281018D02*
X15566957Y-9290542D01*
X15643147Y-9490542D02*
X15652671Y-9481018D01*
X15652671Y-9481018D02*
X15671719Y-9452447D01*
X15671719Y-9452447D02*
X15681243Y-9433399D01*
X15681243Y-9433399D02*
X15690766Y-9404828D01*
X15690766Y-9404828D02*
X15700290Y-9357209D01*
X15700290Y-9357209D02*
X15700290Y-9319114D01*
X15700290Y-9319114D02*
X15690766Y-9271495D01*
X15690766Y-9271495D02*
X15681243Y-9242923D01*
X15681243Y-9242923D02*
X15671719Y-9223876D01*
X15671719Y-9223876D02*
X15652671Y-9195304D01*
X15652671Y-9195304D02*
X15643147Y-9185780D01*
M02*
