M48
; DRILL file {KiCad 7.0.7} date Mon Oct 16 17:54:21 2023
; FORMAT={-:-/ absolute / metric / decimal}
; #@! TF.CreationDate,2023-10-16T17:54:21+02:00
; #@! TF.GenerationSoftware,Kicad,Pcbnew,7.0.7
; #@! TF.FileFunction,Plated,1,2,PTH
FMAT,2
METRIC
; #@! TA.AperFunction,Plated,PTH,ViaDrill
T1C0.400
; #@! TA.AperFunction,Plated,PTH,ComponentDrill
T2C0.700
; #@! TA.AperFunction,Plated,PTH,ComponentDrill
T3C1.000
%
G90
G05
T1
X95.6Y-44.5
X97.8Y-71.7
X101.1Y-57.0
X101.2Y-51.6
X101.2Y-62.7
X102.1Y-82.4
X104.4Y-73.6
X104.7Y-65.9
X104.8Y-44.9
X106.6Y-58.5
X107.5Y-39.7
X111.0Y-85.5
X112.0Y-77.1
X112.5Y-59.4
X113.5Y-48.2
X115.9Y-59.0
X116.0Y-44.8
X116.3Y-48.3
X116.7Y-81.0
X117.0Y-63.2
X118.0Y-73.5
X118.1Y-52.0
X118.6Y-75.7
X120.7Y-39.8
X122.66Y-74.07
X123.1Y-52.154
X123.9Y-47.9
X125.4Y-63.7
X126.55Y-82.25
X127.5Y-41.5
X128.8Y-50.9
X129.55Y-67.5
X131.3Y-46.3
X131.41Y-62.52
X131.61Y-43.02
X132.11Y-55.02
X133.36Y-49.77
X133.45Y-85.2
X133.65Y-75.7
X136.2Y-41.3
X138.4Y-67.2
X138.7Y-50.9
T2
X97.9Y-51.8
X105.52Y-51.8
X107.6Y-51.8
X115.22Y-51.8
T3
X98.7Y-54.8
X98.855Y-47.37
X98.9Y-42.4
X101.24Y-54.8
X101.395Y-47.37
X101.44Y-42.4
X103.78Y-54.8
X103.935Y-47.37
X103.98Y-42.4
X106.32Y-54.8
X106.475Y-47.37
X106.52Y-42.4
X108.86Y-54.8
X110.435Y-47.32
X110.96Y-42.4
X111.4Y-54.8
X113.5Y-42.4
X113.94Y-54.8
X116.48Y-54.8
X120.46Y-44.52
X120.46Y-47.06
X120.46Y-49.6
X120.46Y-52.14
X120.46Y-54.68
X120.46Y-57.22
X120.46Y-59.76
X120.46Y-62.3
X120.46Y-64.84
X120.46Y-67.38
X120.46Y-69.92
X120.46Y-72.46
X120.46Y-75.0
X120.46Y-77.54
X120.46Y-80.08
X135.7Y-44.52
X135.7Y-47.06
X135.7Y-49.6
X135.7Y-52.14
X135.7Y-54.68
X135.7Y-57.22
X135.7Y-59.76
X135.7Y-62.3
X135.7Y-64.84
X135.7Y-67.38
X135.7Y-69.92
X135.7Y-72.46
X135.7Y-75.0
X135.7Y-77.54
X135.7Y-80.08
T0
M30
