%TF.GenerationSoftware,KiCad,Pcbnew,7.0.7*%
%TF.CreationDate,2023-10-16T17:54:21+02:00*%
%TF.ProjectId,arduino-nano-drone,61726475-696e-46f2-9d6e-616e6f2d6472,0*%
%TF.SameCoordinates,Original*%
%TF.FileFunction,Drillmap*%
%TF.FilePolarity,Positive*%
%FSLAX45Y45*%
G04 Gerber Fmt 4.5, Leading zero omitted, Abs format (unit mm)*
G04 Created by KiCad (PCBNEW 7.0.7) date 2023-10-16 17:54:21*
%MOMM*%
%LPD*%
G01*
G04 APERTURE LIST*
%ADD10C,0.100000*%
%ADD11C,0.200000*%
%ADD12C,0.300000*%
G04 APERTURE END LIST*
D10*
X9430531Y-4189910D02*
G75*
G03*
X9125000Y-3940421I-295531J-50090D01*
G01*
X9600421Y-3465000D02*
G75*
G03*
X9125000Y-3940421I-475421J0D01*
G01*
X9829324Y-3816432D02*
X13617917Y-3820944D01*
X9805955Y-9206729D02*
X13625490Y-9202228D01*
X9600421Y-3465000D02*
G75*
G03*
X9829324Y-3816432I399579J10000D01*
G01*
X9425676Y-8844798D02*
X9430531Y-4189910D01*
X14345000Y-3963561D02*
G75*
G03*
X13867406Y-3515413I0J478561D01*
G01*
X13855345Y-9541188D02*
G75*
G03*
X13625490Y-9202228I-401725J-25002D01*
G01*
X9083620Y-9070769D02*
G75*
G03*
X9425676Y-8844798I-15000J394579D01*
G01*
X13997675Y-8819105D02*
G75*
G03*
X14303207Y-9068594I295535J50095D01*
G01*
X13617916Y-3820938D02*
G75*
G03*
X13867406Y-3515413I-50086J295528D01*
G01*
X9805956Y-9206731D02*
G75*
G03*
X9557712Y-9510663I49834J-294049D01*
G01*
X14345000Y-3963562D02*
G75*
G03*
X14002031Y-4190959I16430J-397118D01*
G01*
X13855343Y-9541188D02*
G75*
G03*
X14303207Y-9068594I473277J0D01*
G01*
X13997676Y-8819105D02*
X14002031Y-4190959D01*
X9083620Y-9070769D02*
G75*
G03*
X9557712Y-9510663I0J-475421D01*
G01*
D11*
D12*
X8938620Y-9391188D02*
X9238620Y-9691188D01*
X9238620Y-9391188D02*
X8938620Y-9691188D01*
X8980000Y-3315000D02*
X9280000Y-3615000D01*
X9280000Y-3315000D02*
X8980000Y-3615000D01*
X14168620Y-9386188D02*
X14468620Y-9686188D01*
X14468620Y-9386188D02*
X14168620Y-9686188D01*
X14195000Y-3330000D02*
X14495000Y-3630000D01*
X14495000Y-3330000D02*
X14195000Y-3630000D01*
D11*
X8863976Y-10338095D02*
X8863976Y-10138095D01*
X8863976Y-10138095D02*
X8911595Y-10138095D01*
X8911595Y-10138095D02*
X8940166Y-10147619D01*
X8940166Y-10147619D02*
X8959214Y-10166666D01*
X8959214Y-10166666D02*
X8968738Y-10185714D01*
X8968738Y-10185714D02*
X8978261Y-10223809D01*
X8978261Y-10223809D02*
X8978261Y-10252381D01*
X8978261Y-10252381D02*
X8968738Y-10290476D01*
X8968738Y-10290476D02*
X8959214Y-10309523D01*
X8959214Y-10309523D02*
X8940166Y-10328571D01*
X8940166Y-10328571D02*
X8911595Y-10338095D01*
X8911595Y-10338095D02*
X8863976Y-10338095D01*
X9063976Y-10338095D02*
X9063976Y-10204762D01*
X9063976Y-10242857D02*
X9073500Y-10223809D01*
X9073500Y-10223809D02*
X9083023Y-10214285D01*
X9083023Y-10214285D02*
X9102071Y-10204762D01*
X9102071Y-10204762D02*
X9121119Y-10204762D01*
X9187785Y-10338095D02*
X9187785Y-10204762D01*
X9187785Y-10138095D02*
X9178261Y-10147619D01*
X9178261Y-10147619D02*
X9187785Y-10157143D01*
X9187785Y-10157143D02*
X9197309Y-10147619D01*
X9197309Y-10147619D02*
X9187785Y-10138095D01*
X9187785Y-10138095D02*
X9187785Y-10157143D01*
X9311595Y-10338095D02*
X9292547Y-10328571D01*
X9292547Y-10328571D02*
X9283023Y-10309523D01*
X9283023Y-10309523D02*
X9283023Y-10138095D01*
X9416357Y-10338095D02*
X9397309Y-10328571D01*
X9397309Y-10328571D02*
X9387785Y-10309523D01*
X9387785Y-10309523D02*
X9387785Y-10138095D01*
X9644928Y-10338095D02*
X9644928Y-10138095D01*
X9644928Y-10138095D02*
X9711595Y-10280952D01*
X9711595Y-10280952D02*
X9778261Y-10138095D01*
X9778261Y-10138095D02*
X9778261Y-10338095D01*
X9959214Y-10338095D02*
X9959214Y-10233333D01*
X9959214Y-10233333D02*
X9949690Y-10214285D01*
X9949690Y-10214285D02*
X9930642Y-10204762D01*
X9930642Y-10204762D02*
X9892547Y-10204762D01*
X9892547Y-10204762D02*
X9873500Y-10214285D01*
X9959214Y-10328571D02*
X9940166Y-10338095D01*
X9940166Y-10338095D02*
X9892547Y-10338095D01*
X9892547Y-10338095D02*
X9873500Y-10328571D01*
X9873500Y-10328571D02*
X9863976Y-10309523D01*
X9863976Y-10309523D02*
X9863976Y-10290476D01*
X9863976Y-10290476D02*
X9873500Y-10271428D01*
X9873500Y-10271428D02*
X9892547Y-10261904D01*
X9892547Y-10261904D02*
X9940166Y-10261904D01*
X9940166Y-10261904D02*
X9959214Y-10252381D01*
X10054452Y-10204762D02*
X10054452Y-10404762D01*
X10054452Y-10214285D02*
X10073500Y-10204762D01*
X10073500Y-10204762D02*
X10111595Y-10204762D01*
X10111595Y-10204762D02*
X10130642Y-10214285D01*
X10130642Y-10214285D02*
X10140166Y-10223809D01*
X10140166Y-10223809D02*
X10149690Y-10242857D01*
X10149690Y-10242857D02*
X10149690Y-10300000D01*
X10149690Y-10300000D02*
X10140166Y-10319047D01*
X10140166Y-10319047D02*
X10130642Y-10328571D01*
X10130642Y-10328571D02*
X10111595Y-10338095D01*
X10111595Y-10338095D02*
X10073500Y-10338095D01*
X10073500Y-10338095D02*
X10054452Y-10328571D01*
X10235404Y-10319047D02*
X10244928Y-10328571D01*
X10244928Y-10328571D02*
X10235404Y-10338095D01*
X10235404Y-10338095D02*
X10225881Y-10328571D01*
X10225881Y-10328571D02*
X10235404Y-10319047D01*
X10235404Y-10319047D02*
X10235404Y-10338095D01*
X10235404Y-10214285D02*
X10244928Y-10223809D01*
X10244928Y-10223809D02*
X10235404Y-10233333D01*
X10235404Y-10233333D02*
X10225881Y-10223809D01*
X10225881Y-10223809D02*
X10235404Y-10214285D01*
X10235404Y-10214285D02*
X10235404Y-10233333D01*
X8403199Y-10566611D02*
X8603199Y-10766611D01*
X8603199Y-10566611D02*
X8403199Y-10766611D01*
X8844928Y-10558095D02*
X8968738Y-10558095D01*
X8968738Y-10558095D02*
X8902071Y-10634285D01*
X8902071Y-10634285D02*
X8930642Y-10634285D01*
X8930642Y-10634285D02*
X8949690Y-10643809D01*
X8949690Y-10643809D02*
X8959214Y-10653333D01*
X8959214Y-10653333D02*
X8968738Y-10672381D01*
X8968738Y-10672381D02*
X8968738Y-10720000D01*
X8968738Y-10720000D02*
X8959214Y-10739047D01*
X8959214Y-10739047D02*
X8949690Y-10748571D01*
X8949690Y-10748571D02*
X8930642Y-10758095D01*
X8930642Y-10758095D02*
X8873500Y-10758095D01*
X8873500Y-10758095D02*
X8854452Y-10748571D01*
X8854452Y-10748571D02*
X8844928Y-10739047D01*
X9054452Y-10739047D02*
X9063976Y-10748571D01*
X9063976Y-10748571D02*
X9054452Y-10758095D01*
X9054452Y-10758095D02*
X9044928Y-10748571D01*
X9044928Y-10748571D02*
X9054452Y-10739047D01*
X9054452Y-10739047D02*
X9054452Y-10758095D01*
X9187785Y-10558095D02*
X9206833Y-10558095D01*
X9206833Y-10558095D02*
X9225881Y-10567619D01*
X9225881Y-10567619D02*
X9235404Y-10577143D01*
X9235404Y-10577143D02*
X9244928Y-10596190D01*
X9244928Y-10596190D02*
X9254452Y-10634285D01*
X9254452Y-10634285D02*
X9254452Y-10681904D01*
X9254452Y-10681904D02*
X9244928Y-10720000D01*
X9244928Y-10720000D02*
X9235404Y-10739047D01*
X9235404Y-10739047D02*
X9225881Y-10748571D01*
X9225881Y-10748571D02*
X9206833Y-10758095D01*
X9206833Y-10758095D02*
X9187785Y-10758095D01*
X9187785Y-10758095D02*
X9168738Y-10748571D01*
X9168738Y-10748571D02*
X9159214Y-10739047D01*
X9159214Y-10739047D02*
X9149690Y-10720000D01*
X9149690Y-10720000D02*
X9140166Y-10681904D01*
X9140166Y-10681904D02*
X9140166Y-10634285D01*
X9140166Y-10634285D02*
X9149690Y-10596190D01*
X9149690Y-10596190D02*
X9159214Y-10577143D01*
X9159214Y-10577143D02*
X9168738Y-10567619D01*
X9168738Y-10567619D02*
X9187785Y-10558095D01*
X9378261Y-10558095D02*
X9397309Y-10558095D01*
X9397309Y-10558095D02*
X9416357Y-10567619D01*
X9416357Y-10567619D02*
X9425881Y-10577143D01*
X9425881Y-10577143D02*
X9435404Y-10596190D01*
X9435404Y-10596190D02*
X9444928Y-10634285D01*
X9444928Y-10634285D02*
X9444928Y-10681904D01*
X9444928Y-10681904D02*
X9435404Y-10720000D01*
X9435404Y-10720000D02*
X9425881Y-10739047D01*
X9425881Y-10739047D02*
X9416357Y-10748571D01*
X9416357Y-10748571D02*
X9397309Y-10758095D01*
X9397309Y-10758095D02*
X9378261Y-10758095D01*
X9378261Y-10758095D02*
X9359214Y-10748571D01*
X9359214Y-10748571D02*
X9349690Y-10739047D01*
X9349690Y-10739047D02*
X9340166Y-10720000D01*
X9340166Y-10720000D02*
X9330642Y-10681904D01*
X9330642Y-10681904D02*
X9330642Y-10634285D01*
X9330642Y-10634285D02*
X9340166Y-10596190D01*
X9340166Y-10596190D02*
X9349690Y-10577143D01*
X9349690Y-10577143D02*
X9359214Y-10567619D01*
X9359214Y-10567619D02*
X9378261Y-10558095D01*
X9568738Y-10558095D02*
X9587785Y-10558095D01*
X9587785Y-10558095D02*
X9606833Y-10567619D01*
X9606833Y-10567619D02*
X9616357Y-10577143D01*
X9616357Y-10577143D02*
X9625881Y-10596190D01*
X9625881Y-10596190D02*
X9635404Y-10634285D01*
X9635404Y-10634285D02*
X9635404Y-10681904D01*
X9635404Y-10681904D02*
X9625881Y-10720000D01*
X9625881Y-10720000D02*
X9616357Y-10739047D01*
X9616357Y-10739047D02*
X9606833Y-10748571D01*
X9606833Y-10748571D02*
X9587785Y-10758095D01*
X9587785Y-10758095D02*
X9568738Y-10758095D01*
X9568738Y-10758095D02*
X9549690Y-10748571D01*
X9549690Y-10748571D02*
X9540166Y-10739047D01*
X9540166Y-10739047D02*
X9530642Y-10720000D01*
X9530642Y-10720000D02*
X9521119Y-10681904D01*
X9521119Y-10681904D02*
X9521119Y-10634285D01*
X9521119Y-10634285D02*
X9530642Y-10596190D01*
X9530642Y-10596190D02*
X9540166Y-10577143D01*
X9540166Y-10577143D02*
X9549690Y-10567619D01*
X9549690Y-10567619D02*
X9568738Y-10558095D01*
X9721119Y-10758095D02*
X9721119Y-10624762D01*
X9721119Y-10643809D02*
X9730642Y-10634285D01*
X9730642Y-10634285D02*
X9749690Y-10624762D01*
X9749690Y-10624762D02*
X9778262Y-10624762D01*
X9778262Y-10624762D02*
X9797309Y-10634285D01*
X9797309Y-10634285D02*
X9806833Y-10653333D01*
X9806833Y-10653333D02*
X9806833Y-10758095D01*
X9806833Y-10653333D02*
X9816357Y-10634285D01*
X9816357Y-10634285D02*
X9835404Y-10624762D01*
X9835404Y-10624762D02*
X9863976Y-10624762D01*
X9863976Y-10624762D02*
X9883023Y-10634285D01*
X9883023Y-10634285D02*
X9892547Y-10653333D01*
X9892547Y-10653333D02*
X9892547Y-10758095D01*
X9987785Y-10758095D02*
X9987785Y-10624762D01*
X9987785Y-10643809D02*
X9997309Y-10634285D01*
X9997309Y-10634285D02*
X10016357Y-10624762D01*
X10016357Y-10624762D02*
X10044928Y-10624762D01*
X10044928Y-10624762D02*
X10063976Y-10634285D01*
X10063976Y-10634285D02*
X10073500Y-10653333D01*
X10073500Y-10653333D02*
X10073500Y-10758095D01*
X10073500Y-10653333D02*
X10083023Y-10634285D01*
X10083023Y-10634285D02*
X10102071Y-10624762D01*
X10102071Y-10624762D02*
X10130642Y-10624762D01*
X10130642Y-10624762D02*
X10149690Y-10634285D01*
X10149690Y-10634285D02*
X10159214Y-10653333D01*
X10159214Y-10653333D02*
X10159214Y-10758095D01*
X10549690Y-10548571D02*
X10378262Y-10805714D01*
X10806833Y-10558095D02*
X10825881Y-10558095D01*
X10825881Y-10558095D02*
X10844928Y-10567619D01*
X10844928Y-10567619D02*
X10854452Y-10577143D01*
X10854452Y-10577143D02*
X10863976Y-10596190D01*
X10863976Y-10596190D02*
X10873500Y-10634285D01*
X10873500Y-10634285D02*
X10873500Y-10681904D01*
X10873500Y-10681904D02*
X10863976Y-10720000D01*
X10863976Y-10720000D02*
X10854452Y-10739047D01*
X10854452Y-10739047D02*
X10844928Y-10748571D01*
X10844928Y-10748571D02*
X10825881Y-10758095D01*
X10825881Y-10758095D02*
X10806833Y-10758095D01*
X10806833Y-10758095D02*
X10787785Y-10748571D01*
X10787785Y-10748571D02*
X10778262Y-10739047D01*
X10778262Y-10739047D02*
X10768738Y-10720000D01*
X10768738Y-10720000D02*
X10759214Y-10681904D01*
X10759214Y-10681904D02*
X10759214Y-10634285D01*
X10759214Y-10634285D02*
X10768738Y-10596190D01*
X10768738Y-10596190D02*
X10778262Y-10577143D01*
X10778262Y-10577143D02*
X10787785Y-10567619D01*
X10787785Y-10567619D02*
X10806833Y-10558095D01*
X10959214Y-10739047D02*
X10968738Y-10748571D01*
X10968738Y-10748571D02*
X10959214Y-10758095D01*
X10959214Y-10758095D02*
X10949690Y-10748571D01*
X10949690Y-10748571D02*
X10959214Y-10739047D01*
X10959214Y-10739047D02*
X10959214Y-10758095D01*
X11159214Y-10758095D02*
X11044928Y-10758095D01*
X11102071Y-10758095D02*
X11102071Y-10558095D01*
X11102071Y-10558095D02*
X11083024Y-10586666D01*
X11083024Y-10586666D02*
X11063976Y-10605714D01*
X11063976Y-10605714D02*
X11044928Y-10615238D01*
X11349690Y-10758095D02*
X11235404Y-10758095D01*
X11292547Y-10758095D02*
X11292547Y-10558095D01*
X11292547Y-10558095D02*
X11273500Y-10586666D01*
X11273500Y-10586666D02*
X11254452Y-10605714D01*
X11254452Y-10605714D02*
X11235404Y-10615238D01*
X11463976Y-10643809D02*
X11444928Y-10634285D01*
X11444928Y-10634285D02*
X11435404Y-10624762D01*
X11435404Y-10624762D02*
X11425881Y-10605714D01*
X11425881Y-10605714D02*
X11425881Y-10596190D01*
X11425881Y-10596190D02*
X11435404Y-10577143D01*
X11435404Y-10577143D02*
X11444928Y-10567619D01*
X11444928Y-10567619D02*
X11463976Y-10558095D01*
X11463976Y-10558095D02*
X11502071Y-10558095D01*
X11502071Y-10558095D02*
X11521119Y-10567619D01*
X11521119Y-10567619D02*
X11530643Y-10577143D01*
X11530643Y-10577143D02*
X11540166Y-10596190D01*
X11540166Y-10596190D02*
X11540166Y-10605714D01*
X11540166Y-10605714D02*
X11530643Y-10624762D01*
X11530643Y-10624762D02*
X11521119Y-10634285D01*
X11521119Y-10634285D02*
X11502071Y-10643809D01*
X11502071Y-10643809D02*
X11463976Y-10643809D01*
X11463976Y-10643809D02*
X11444928Y-10653333D01*
X11444928Y-10653333D02*
X11435404Y-10662857D01*
X11435404Y-10662857D02*
X11425881Y-10681904D01*
X11425881Y-10681904D02*
X11425881Y-10720000D01*
X11425881Y-10720000D02*
X11435404Y-10739047D01*
X11435404Y-10739047D02*
X11444928Y-10748571D01*
X11444928Y-10748571D02*
X11463976Y-10758095D01*
X11463976Y-10758095D02*
X11502071Y-10758095D01*
X11502071Y-10758095D02*
X11521119Y-10748571D01*
X11521119Y-10748571D02*
X11530643Y-10739047D01*
X11530643Y-10739047D02*
X11540166Y-10720000D01*
X11540166Y-10720000D02*
X11540166Y-10681904D01*
X11540166Y-10681904D02*
X11530643Y-10662857D01*
X11530643Y-10662857D02*
X11521119Y-10653333D01*
X11521119Y-10653333D02*
X11502071Y-10643809D01*
X11730643Y-10758095D02*
X11616357Y-10758095D01*
X11673500Y-10758095D02*
X11673500Y-10558095D01*
X11673500Y-10558095D02*
X11654452Y-10586666D01*
X11654452Y-10586666D02*
X11635404Y-10605714D01*
X11635404Y-10605714D02*
X11616357Y-10615238D01*
X11806833Y-10558095D02*
X11806833Y-10596190D01*
X11883024Y-10558095D02*
X11883024Y-10596190D01*
X12178262Y-10834285D02*
X12168738Y-10824762D01*
X12168738Y-10824762D02*
X12149690Y-10796190D01*
X12149690Y-10796190D02*
X12140166Y-10777143D01*
X12140166Y-10777143D02*
X12130643Y-10748571D01*
X12130643Y-10748571D02*
X12121119Y-10700952D01*
X12121119Y-10700952D02*
X12121119Y-10662857D01*
X12121119Y-10662857D02*
X12130643Y-10615238D01*
X12130643Y-10615238D02*
X12140166Y-10586666D01*
X12140166Y-10586666D02*
X12149690Y-10567619D01*
X12149690Y-10567619D02*
X12168738Y-10539047D01*
X12168738Y-10539047D02*
X12178262Y-10529523D01*
X12340166Y-10624762D02*
X12340166Y-10758095D01*
X12292547Y-10548571D02*
X12244928Y-10691428D01*
X12244928Y-10691428D02*
X12368738Y-10691428D01*
X12597309Y-10758095D02*
X12597309Y-10558095D01*
X12683024Y-10758095D02*
X12683024Y-10653333D01*
X12683024Y-10653333D02*
X12673500Y-10634285D01*
X12673500Y-10634285D02*
X12654452Y-10624762D01*
X12654452Y-10624762D02*
X12625881Y-10624762D01*
X12625881Y-10624762D02*
X12606833Y-10634285D01*
X12606833Y-10634285D02*
X12597309Y-10643809D01*
X12806833Y-10758095D02*
X12787786Y-10748571D01*
X12787786Y-10748571D02*
X12778262Y-10739047D01*
X12778262Y-10739047D02*
X12768738Y-10720000D01*
X12768738Y-10720000D02*
X12768738Y-10662857D01*
X12768738Y-10662857D02*
X12778262Y-10643809D01*
X12778262Y-10643809D02*
X12787786Y-10634285D01*
X12787786Y-10634285D02*
X12806833Y-10624762D01*
X12806833Y-10624762D02*
X12835405Y-10624762D01*
X12835405Y-10624762D02*
X12854452Y-10634285D01*
X12854452Y-10634285D02*
X12863976Y-10643809D01*
X12863976Y-10643809D02*
X12873500Y-10662857D01*
X12873500Y-10662857D02*
X12873500Y-10720000D01*
X12873500Y-10720000D02*
X12863976Y-10739047D01*
X12863976Y-10739047D02*
X12854452Y-10748571D01*
X12854452Y-10748571D02*
X12835405Y-10758095D01*
X12835405Y-10758095D02*
X12806833Y-10758095D01*
X12987786Y-10758095D02*
X12968738Y-10748571D01*
X12968738Y-10748571D02*
X12959214Y-10729523D01*
X12959214Y-10729523D02*
X12959214Y-10558095D01*
X13140167Y-10748571D02*
X13121119Y-10758095D01*
X13121119Y-10758095D02*
X13083024Y-10758095D01*
X13083024Y-10758095D02*
X13063976Y-10748571D01*
X13063976Y-10748571D02*
X13054452Y-10729523D01*
X13054452Y-10729523D02*
X13054452Y-10653333D01*
X13054452Y-10653333D02*
X13063976Y-10634285D01*
X13063976Y-10634285D02*
X13083024Y-10624762D01*
X13083024Y-10624762D02*
X13121119Y-10624762D01*
X13121119Y-10624762D02*
X13140167Y-10634285D01*
X13140167Y-10634285D02*
X13149690Y-10653333D01*
X13149690Y-10653333D02*
X13149690Y-10672381D01*
X13149690Y-10672381D02*
X13054452Y-10691428D01*
X13225881Y-10748571D02*
X13244928Y-10758095D01*
X13244928Y-10758095D02*
X13283024Y-10758095D01*
X13283024Y-10758095D02*
X13302071Y-10748571D01*
X13302071Y-10748571D02*
X13311595Y-10729523D01*
X13311595Y-10729523D02*
X13311595Y-10720000D01*
X13311595Y-10720000D02*
X13302071Y-10700952D01*
X13302071Y-10700952D02*
X13283024Y-10691428D01*
X13283024Y-10691428D02*
X13254452Y-10691428D01*
X13254452Y-10691428D02*
X13235405Y-10681904D01*
X13235405Y-10681904D02*
X13225881Y-10662857D01*
X13225881Y-10662857D02*
X13225881Y-10653333D01*
X13225881Y-10653333D02*
X13235405Y-10634285D01*
X13235405Y-10634285D02*
X13254452Y-10624762D01*
X13254452Y-10624762D02*
X13283024Y-10624762D01*
X13283024Y-10624762D02*
X13302071Y-10634285D01*
X13378262Y-10834285D02*
X13387786Y-10824762D01*
X13387786Y-10824762D02*
X13406833Y-10796190D01*
X13406833Y-10796190D02*
X13416357Y-10777143D01*
X13416357Y-10777143D02*
X13425881Y-10748571D01*
X13425881Y-10748571D02*
X13435405Y-10700952D01*
X13435405Y-10700952D02*
X13435405Y-10662857D01*
X13435405Y-10662857D02*
X13425881Y-10615238D01*
X13425881Y-10615238D02*
X13416357Y-10586666D01*
X13416357Y-10586666D02*
X13406833Y-10567619D01*
X13406833Y-10567619D02*
X13387786Y-10539047D01*
X13387786Y-10539047D02*
X13378262Y-10529523D01*
X13740167Y-10834285D02*
X13730643Y-10824762D01*
X13730643Y-10824762D02*
X13711595Y-10796190D01*
X13711595Y-10796190D02*
X13702071Y-10777143D01*
X13702071Y-10777143D02*
X13692548Y-10748571D01*
X13692548Y-10748571D02*
X13683024Y-10700952D01*
X13683024Y-10700952D02*
X13683024Y-10662857D01*
X13683024Y-10662857D02*
X13692548Y-10615238D01*
X13692548Y-10615238D02*
X13702071Y-10586666D01*
X13702071Y-10586666D02*
X13711595Y-10567619D01*
X13711595Y-10567619D02*
X13730643Y-10539047D01*
X13730643Y-10539047D02*
X13740167Y-10529523D01*
X13816357Y-10624762D02*
X13816357Y-10758095D01*
X13816357Y-10643809D02*
X13825881Y-10634285D01*
X13825881Y-10634285D02*
X13844928Y-10624762D01*
X13844928Y-10624762D02*
X13873500Y-10624762D01*
X13873500Y-10624762D02*
X13892548Y-10634285D01*
X13892548Y-10634285D02*
X13902071Y-10653333D01*
X13902071Y-10653333D02*
X13902071Y-10758095D01*
X14025881Y-10758095D02*
X14006833Y-10748571D01*
X14006833Y-10748571D02*
X13997309Y-10739047D01*
X13997309Y-10739047D02*
X13987786Y-10720000D01*
X13987786Y-10720000D02*
X13987786Y-10662857D01*
X13987786Y-10662857D02*
X13997309Y-10643809D01*
X13997309Y-10643809D02*
X14006833Y-10634285D01*
X14006833Y-10634285D02*
X14025881Y-10624762D01*
X14025881Y-10624762D02*
X14054452Y-10624762D01*
X14054452Y-10624762D02*
X14073500Y-10634285D01*
X14073500Y-10634285D02*
X14083024Y-10643809D01*
X14083024Y-10643809D02*
X14092548Y-10662857D01*
X14092548Y-10662857D02*
X14092548Y-10720000D01*
X14092548Y-10720000D02*
X14083024Y-10739047D01*
X14083024Y-10739047D02*
X14073500Y-10748571D01*
X14073500Y-10748571D02*
X14054452Y-10758095D01*
X14054452Y-10758095D02*
X14025881Y-10758095D01*
X14149690Y-10624762D02*
X14225881Y-10624762D01*
X14178262Y-10558095D02*
X14178262Y-10729523D01*
X14178262Y-10729523D02*
X14187786Y-10748571D01*
X14187786Y-10748571D02*
X14206833Y-10758095D01*
X14206833Y-10758095D02*
X14225881Y-10758095D01*
X14444929Y-10624762D02*
X14444929Y-10824762D01*
X14444929Y-10634285D02*
X14463976Y-10624762D01*
X14463976Y-10624762D02*
X14502071Y-10624762D01*
X14502071Y-10624762D02*
X14521119Y-10634285D01*
X14521119Y-10634285D02*
X14530643Y-10643809D01*
X14530643Y-10643809D02*
X14540167Y-10662857D01*
X14540167Y-10662857D02*
X14540167Y-10720000D01*
X14540167Y-10720000D02*
X14530643Y-10739047D01*
X14530643Y-10739047D02*
X14521119Y-10748571D01*
X14521119Y-10748571D02*
X14502071Y-10758095D01*
X14502071Y-10758095D02*
X14463976Y-10758095D01*
X14463976Y-10758095D02*
X14444929Y-10748571D01*
X14654452Y-10758095D02*
X14635405Y-10748571D01*
X14635405Y-10748571D02*
X14625881Y-10729523D01*
X14625881Y-10729523D02*
X14625881Y-10558095D01*
X14816357Y-10758095D02*
X14816357Y-10653333D01*
X14816357Y-10653333D02*
X14806833Y-10634285D01*
X14806833Y-10634285D02*
X14787786Y-10624762D01*
X14787786Y-10624762D02*
X14749690Y-10624762D01*
X14749690Y-10624762D02*
X14730643Y-10634285D01*
X14816357Y-10748571D02*
X14797310Y-10758095D01*
X14797310Y-10758095D02*
X14749690Y-10758095D01*
X14749690Y-10758095D02*
X14730643Y-10748571D01*
X14730643Y-10748571D02*
X14721119Y-10729523D01*
X14721119Y-10729523D02*
X14721119Y-10710476D01*
X14721119Y-10710476D02*
X14730643Y-10691428D01*
X14730643Y-10691428D02*
X14749690Y-10681904D01*
X14749690Y-10681904D02*
X14797310Y-10681904D01*
X14797310Y-10681904D02*
X14816357Y-10672381D01*
X14883024Y-10624762D02*
X14959214Y-10624762D01*
X14911595Y-10558095D02*
X14911595Y-10729523D01*
X14911595Y-10729523D02*
X14921119Y-10748571D01*
X14921119Y-10748571D02*
X14940167Y-10758095D01*
X14940167Y-10758095D02*
X14959214Y-10758095D01*
X15102071Y-10748571D02*
X15083024Y-10758095D01*
X15083024Y-10758095D02*
X15044929Y-10758095D01*
X15044929Y-10758095D02*
X15025881Y-10748571D01*
X15025881Y-10748571D02*
X15016357Y-10729523D01*
X15016357Y-10729523D02*
X15016357Y-10653333D01*
X15016357Y-10653333D02*
X15025881Y-10634285D01*
X15025881Y-10634285D02*
X15044929Y-10624762D01*
X15044929Y-10624762D02*
X15083024Y-10624762D01*
X15083024Y-10624762D02*
X15102071Y-10634285D01*
X15102071Y-10634285D02*
X15111595Y-10653333D01*
X15111595Y-10653333D02*
X15111595Y-10672381D01*
X15111595Y-10672381D02*
X15016357Y-10691428D01*
X15283024Y-10758095D02*
X15283024Y-10558095D01*
X15283024Y-10748571D02*
X15263976Y-10758095D01*
X15263976Y-10758095D02*
X15225881Y-10758095D01*
X15225881Y-10758095D02*
X15206833Y-10748571D01*
X15206833Y-10748571D02*
X15197310Y-10739047D01*
X15197310Y-10739047D02*
X15187786Y-10720000D01*
X15187786Y-10720000D02*
X15187786Y-10662857D01*
X15187786Y-10662857D02*
X15197310Y-10643809D01*
X15197310Y-10643809D02*
X15206833Y-10634285D01*
X15206833Y-10634285D02*
X15225881Y-10624762D01*
X15225881Y-10624762D02*
X15263976Y-10624762D01*
X15263976Y-10624762D02*
X15283024Y-10634285D01*
X15359214Y-10834285D02*
X15368738Y-10824762D01*
X15368738Y-10824762D02*
X15387786Y-10796190D01*
X15387786Y-10796190D02*
X15397310Y-10777143D01*
X15397310Y-10777143D02*
X15406833Y-10748571D01*
X15406833Y-10748571D02*
X15416357Y-10700952D01*
X15416357Y-10700952D02*
X15416357Y-10662857D01*
X15416357Y-10662857D02*
X15406833Y-10615238D01*
X15406833Y-10615238D02*
X15397310Y-10586666D01*
X15397310Y-10586666D02*
X15387786Y-10567619D01*
X15387786Y-10567619D02*
X15368738Y-10539047D01*
X15368738Y-10539047D02*
X15359214Y-10529523D01*
M02*
