%TF.GenerationSoftware,KiCad,Pcbnew,7.0.7*%
%TF.CreationDate,2023-10-16T17:54:11+02:00*%
%TF.ProjectId,arduino-nano-drone,61726475-696e-46f2-9d6e-616e6f2d6472,0*%
%TF.SameCoordinates,Original*%
%TF.FileFunction,Legend,Top*%
%TF.FilePolarity,Positive*%
%FSLAX46Y46*%
G04 Gerber Fmt 4.6, Leading zero omitted, Abs format (unit mm)*
G04 Created by KiCad (PCBNEW 7.0.7) date 2023-10-16 17:54:11*
%MOMM*%
%LPD*%
G01*
G04 APERTURE LIST*
%ADD10C,0.150000*%
%ADD11C,0.120000*%
G04 APERTURE END LIST*
D10*
X102924874Y-88903152D02*
X102924874Y-87474580D01*
X103591541Y-88284104D02*
X104067731Y-88284104D01*
X103496303Y-88569819D02*
X103829636Y-87569819D01*
X103829636Y-87569819D02*
X104162969Y-88569819D01*
X105067731Y-88569819D02*
X104734398Y-88093628D01*
X104496303Y-88569819D02*
X104496303Y-87569819D01*
X104496303Y-87569819D02*
X104877255Y-87569819D01*
X104877255Y-87569819D02*
X104972493Y-87617438D01*
X104972493Y-87617438D02*
X105020112Y-87665057D01*
X105020112Y-87665057D02*
X105067731Y-87760295D01*
X105067731Y-87760295D02*
X105067731Y-87903152D01*
X105067731Y-87903152D02*
X105020112Y-87998390D01*
X105020112Y-87998390D02*
X104972493Y-88046009D01*
X104972493Y-88046009D02*
X104877255Y-88093628D01*
X104877255Y-88093628D02*
X104496303Y-88093628D01*
X105496303Y-88569819D02*
X105496303Y-87569819D01*
X105496303Y-87569819D02*
X105734398Y-87569819D01*
X105734398Y-87569819D02*
X105877255Y-87617438D01*
X105877255Y-87617438D02*
X105972493Y-87712676D01*
X105972493Y-87712676D02*
X106020112Y-87807914D01*
X106020112Y-87807914D02*
X106067731Y-87998390D01*
X106067731Y-87998390D02*
X106067731Y-88141247D01*
X106067731Y-88141247D02*
X106020112Y-88331723D01*
X106020112Y-88331723D02*
X105972493Y-88426961D01*
X105972493Y-88426961D02*
X105877255Y-88522200D01*
X105877255Y-88522200D02*
X105734398Y-88569819D01*
X105734398Y-88569819D02*
X105496303Y-88569819D01*
X106496303Y-87569819D02*
X106496303Y-88379342D01*
X106496303Y-88379342D02*
X106543922Y-88474580D01*
X106543922Y-88474580D02*
X106591541Y-88522200D01*
X106591541Y-88522200D02*
X106686779Y-88569819D01*
X106686779Y-88569819D02*
X106877255Y-88569819D01*
X106877255Y-88569819D02*
X106972493Y-88522200D01*
X106972493Y-88522200D02*
X107020112Y-88474580D01*
X107020112Y-88474580D02*
X107067731Y-88379342D01*
X107067731Y-88379342D02*
X107067731Y-87569819D01*
X107543922Y-88569819D02*
X107543922Y-87569819D01*
X108020112Y-88569819D02*
X108020112Y-87569819D01*
X108020112Y-87569819D02*
X108591540Y-88569819D01*
X108591540Y-88569819D02*
X108591540Y-87569819D01*
X109258207Y-87569819D02*
X109448683Y-87569819D01*
X109448683Y-87569819D02*
X109543921Y-87617438D01*
X109543921Y-87617438D02*
X109639159Y-87712676D01*
X109639159Y-87712676D02*
X109686778Y-87903152D01*
X109686778Y-87903152D02*
X109686778Y-88236485D01*
X109686778Y-88236485D02*
X109639159Y-88426961D01*
X109639159Y-88426961D02*
X109543921Y-88522200D01*
X109543921Y-88522200D02*
X109448683Y-88569819D01*
X109448683Y-88569819D02*
X109258207Y-88569819D01*
X109258207Y-88569819D02*
X109162969Y-88522200D01*
X109162969Y-88522200D02*
X109067731Y-88426961D01*
X109067731Y-88426961D02*
X109020112Y-88236485D01*
X109020112Y-88236485D02*
X109020112Y-87903152D01*
X109020112Y-87903152D02*
X109067731Y-87712676D01*
X109067731Y-87712676D02*
X109162969Y-87617438D01*
X109162969Y-87617438D02*
X109258207Y-87569819D01*
X110877255Y-88569819D02*
X110877255Y-87569819D01*
X110877255Y-87569819D02*
X111448683Y-88569819D01*
X111448683Y-88569819D02*
X111448683Y-87569819D01*
X111877255Y-88284104D02*
X112353445Y-88284104D01*
X111782017Y-88569819D02*
X112115350Y-87569819D01*
X112115350Y-87569819D02*
X112448683Y-88569819D01*
X112782017Y-88569819D02*
X112782017Y-87569819D01*
X112782017Y-87569819D02*
X113353445Y-88569819D01*
X113353445Y-88569819D02*
X113353445Y-87569819D01*
X114020112Y-87569819D02*
X114210588Y-87569819D01*
X114210588Y-87569819D02*
X114305826Y-87617438D01*
X114305826Y-87617438D02*
X114401064Y-87712676D01*
X114401064Y-87712676D02*
X114448683Y-87903152D01*
X114448683Y-87903152D02*
X114448683Y-88236485D01*
X114448683Y-88236485D02*
X114401064Y-88426961D01*
X114401064Y-88426961D02*
X114305826Y-88522200D01*
X114305826Y-88522200D02*
X114210588Y-88569819D01*
X114210588Y-88569819D02*
X114020112Y-88569819D01*
X114020112Y-88569819D02*
X113924874Y-88522200D01*
X113924874Y-88522200D02*
X113829636Y-88426961D01*
X113829636Y-88426961D02*
X113782017Y-88236485D01*
X113782017Y-88236485D02*
X113782017Y-87903152D01*
X113782017Y-87903152D02*
X113829636Y-87712676D01*
X113829636Y-87712676D02*
X113924874Y-87617438D01*
X113924874Y-87617438D02*
X114020112Y-87569819D01*
X115972493Y-88046009D02*
X115639160Y-88046009D01*
X115639160Y-88569819D02*
X115639160Y-87569819D01*
X115639160Y-87569819D02*
X116115350Y-87569819D01*
X116972493Y-88569819D02*
X116496303Y-88569819D01*
X116496303Y-88569819D02*
X116496303Y-87569819D01*
X117305827Y-88569819D02*
X117305827Y-87569819D01*
X118305826Y-87617438D02*
X118210588Y-87569819D01*
X118210588Y-87569819D02*
X118067731Y-87569819D01*
X118067731Y-87569819D02*
X117924874Y-87617438D01*
X117924874Y-87617438D02*
X117829636Y-87712676D01*
X117829636Y-87712676D02*
X117782017Y-87807914D01*
X117782017Y-87807914D02*
X117734398Y-87998390D01*
X117734398Y-87998390D02*
X117734398Y-88141247D01*
X117734398Y-88141247D02*
X117782017Y-88331723D01*
X117782017Y-88331723D02*
X117829636Y-88426961D01*
X117829636Y-88426961D02*
X117924874Y-88522200D01*
X117924874Y-88522200D02*
X118067731Y-88569819D01*
X118067731Y-88569819D02*
X118162969Y-88569819D01*
X118162969Y-88569819D02*
X118305826Y-88522200D01*
X118305826Y-88522200D02*
X118353445Y-88474580D01*
X118353445Y-88474580D02*
X118353445Y-88141247D01*
X118353445Y-88141247D02*
X118162969Y-88141247D01*
X118782017Y-88569819D02*
X118782017Y-87569819D01*
X118782017Y-88046009D02*
X119353445Y-88046009D01*
X119353445Y-88569819D02*
X119353445Y-87569819D01*
X119686779Y-87569819D02*
X120258207Y-87569819D01*
X119972493Y-88569819D02*
X119972493Y-87569819D01*
X121924874Y-88474580D02*
X121877255Y-88522200D01*
X121877255Y-88522200D02*
X121734398Y-88569819D01*
X121734398Y-88569819D02*
X121639160Y-88569819D01*
X121639160Y-88569819D02*
X121496303Y-88522200D01*
X121496303Y-88522200D02*
X121401065Y-88426961D01*
X121401065Y-88426961D02*
X121353446Y-88331723D01*
X121353446Y-88331723D02*
X121305827Y-88141247D01*
X121305827Y-88141247D02*
X121305827Y-87998390D01*
X121305827Y-87998390D02*
X121353446Y-87807914D01*
X121353446Y-87807914D02*
X121401065Y-87712676D01*
X121401065Y-87712676D02*
X121496303Y-87617438D01*
X121496303Y-87617438D02*
X121639160Y-87569819D01*
X121639160Y-87569819D02*
X121734398Y-87569819D01*
X121734398Y-87569819D02*
X121877255Y-87617438D01*
X121877255Y-87617438D02*
X121924874Y-87665057D01*
X122543922Y-87569819D02*
X122734398Y-87569819D01*
X122734398Y-87569819D02*
X122829636Y-87617438D01*
X122829636Y-87617438D02*
X122924874Y-87712676D01*
X122924874Y-87712676D02*
X122972493Y-87903152D01*
X122972493Y-87903152D02*
X122972493Y-88236485D01*
X122972493Y-88236485D02*
X122924874Y-88426961D01*
X122924874Y-88426961D02*
X122829636Y-88522200D01*
X122829636Y-88522200D02*
X122734398Y-88569819D01*
X122734398Y-88569819D02*
X122543922Y-88569819D01*
X122543922Y-88569819D02*
X122448684Y-88522200D01*
X122448684Y-88522200D02*
X122353446Y-88426961D01*
X122353446Y-88426961D02*
X122305827Y-88236485D01*
X122305827Y-88236485D02*
X122305827Y-87903152D01*
X122305827Y-87903152D02*
X122353446Y-87712676D01*
X122353446Y-87712676D02*
X122448684Y-87617438D01*
X122448684Y-87617438D02*
X122543922Y-87569819D01*
X123401065Y-88569819D02*
X123401065Y-87569819D01*
X123401065Y-87569819D02*
X123972493Y-88569819D01*
X123972493Y-88569819D02*
X123972493Y-87569819D01*
X124305827Y-87569819D02*
X124877255Y-87569819D01*
X124591541Y-88569819D02*
X124591541Y-87569819D01*
X125782017Y-88569819D02*
X125448684Y-88093628D01*
X125210589Y-88569819D02*
X125210589Y-87569819D01*
X125210589Y-87569819D02*
X125591541Y-87569819D01*
X125591541Y-87569819D02*
X125686779Y-87617438D01*
X125686779Y-87617438D02*
X125734398Y-87665057D01*
X125734398Y-87665057D02*
X125782017Y-87760295D01*
X125782017Y-87760295D02*
X125782017Y-87903152D01*
X125782017Y-87903152D02*
X125734398Y-87998390D01*
X125734398Y-87998390D02*
X125686779Y-88046009D01*
X125686779Y-88046009D02*
X125591541Y-88093628D01*
X125591541Y-88093628D02*
X125210589Y-88093628D01*
X126401065Y-87569819D02*
X126591541Y-87569819D01*
X126591541Y-87569819D02*
X126686779Y-87617438D01*
X126686779Y-87617438D02*
X126782017Y-87712676D01*
X126782017Y-87712676D02*
X126829636Y-87903152D01*
X126829636Y-87903152D02*
X126829636Y-88236485D01*
X126829636Y-88236485D02*
X126782017Y-88426961D01*
X126782017Y-88426961D02*
X126686779Y-88522200D01*
X126686779Y-88522200D02*
X126591541Y-88569819D01*
X126591541Y-88569819D02*
X126401065Y-88569819D01*
X126401065Y-88569819D02*
X126305827Y-88522200D01*
X126305827Y-88522200D02*
X126210589Y-88426961D01*
X126210589Y-88426961D02*
X126162970Y-88236485D01*
X126162970Y-88236485D02*
X126162970Y-87903152D01*
X126162970Y-87903152D02*
X126210589Y-87712676D01*
X126210589Y-87712676D02*
X126305827Y-87617438D01*
X126305827Y-87617438D02*
X126401065Y-87569819D01*
X127734398Y-88569819D02*
X127258208Y-88569819D01*
X127258208Y-88569819D02*
X127258208Y-87569819D01*
X128543922Y-88569819D02*
X128067732Y-88569819D01*
X128067732Y-88569819D02*
X128067732Y-87569819D01*
X128877256Y-88046009D02*
X129210589Y-88046009D01*
X129353446Y-88569819D02*
X128877256Y-88569819D01*
X128877256Y-88569819D02*
X128877256Y-87569819D01*
X128877256Y-87569819D02*
X129353446Y-87569819D01*
X130353446Y-88569819D02*
X130020113Y-88093628D01*
X129782018Y-88569819D02*
X129782018Y-87569819D01*
X129782018Y-87569819D02*
X130162970Y-87569819D01*
X130162970Y-87569819D02*
X130258208Y-87617438D01*
X130258208Y-87617438D02*
X130305827Y-87665057D01*
X130305827Y-87665057D02*
X130353446Y-87760295D01*
X130353446Y-87760295D02*
X130353446Y-87903152D01*
X130353446Y-87903152D02*
X130305827Y-87998390D01*
X130305827Y-87998390D02*
X130258208Y-88046009D01*
X130258208Y-88046009D02*
X130162970Y-88093628D01*
X130162970Y-88093628D02*
X129782018Y-88093628D01*
X131020113Y-88903152D02*
X131020113Y-87474580D01*
X104038095Y-57904819D02*
X104038095Y-56904819D01*
X104038095Y-56904819D02*
X104371428Y-57619104D01*
X104371428Y-57619104D02*
X104704761Y-56904819D01*
X104704761Y-56904819D02*
X104704761Y-57904819D01*
X105180952Y-57904819D02*
X105180952Y-56904819D01*
X105180952Y-56904819D02*
X105561904Y-56904819D01*
X105561904Y-56904819D02*
X105657142Y-56952438D01*
X105657142Y-56952438D02*
X105704761Y-57000057D01*
X105704761Y-57000057D02*
X105752380Y-57095295D01*
X105752380Y-57095295D02*
X105752380Y-57238152D01*
X105752380Y-57238152D02*
X105704761Y-57333390D01*
X105704761Y-57333390D02*
X105657142Y-57381009D01*
X105657142Y-57381009D02*
X105561904Y-57428628D01*
X105561904Y-57428628D02*
X105180952Y-57428628D01*
X106180952Y-56904819D02*
X106180952Y-57714342D01*
X106180952Y-57714342D02*
X106228571Y-57809580D01*
X106228571Y-57809580D02*
X106276190Y-57857200D01*
X106276190Y-57857200D02*
X106371428Y-57904819D01*
X106371428Y-57904819D02*
X106561904Y-57904819D01*
X106561904Y-57904819D02*
X106657142Y-57857200D01*
X106657142Y-57857200D02*
X106704761Y-57809580D01*
X106704761Y-57809580D02*
X106752380Y-57714342D01*
X106752380Y-57714342D02*
X106752380Y-56904819D01*
X107657142Y-56904819D02*
X107466666Y-56904819D01*
X107466666Y-56904819D02*
X107371428Y-56952438D01*
X107371428Y-56952438D02*
X107323809Y-57000057D01*
X107323809Y-57000057D02*
X107228571Y-57142914D01*
X107228571Y-57142914D02*
X107180952Y-57333390D01*
X107180952Y-57333390D02*
X107180952Y-57714342D01*
X107180952Y-57714342D02*
X107228571Y-57809580D01*
X107228571Y-57809580D02*
X107276190Y-57857200D01*
X107276190Y-57857200D02*
X107371428Y-57904819D01*
X107371428Y-57904819D02*
X107561904Y-57904819D01*
X107561904Y-57904819D02*
X107657142Y-57857200D01*
X107657142Y-57857200D02*
X107704761Y-57809580D01*
X107704761Y-57809580D02*
X107752380Y-57714342D01*
X107752380Y-57714342D02*
X107752380Y-57476247D01*
X107752380Y-57476247D02*
X107704761Y-57381009D01*
X107704761Y-57381009D02*
X107657142Y-57333390D01*
X107657142Y-57333390D02*
X107561904Y-57285771D01*
X107561904Y-57285771D02*
X107371428Y-57285771D01*
X107371428Y-57285771D02*
X107276190Y-57333390D01*
X107276190Y-57333390D02*
X107228571Y-57381009D01*
X107228571Y-57381009D02*
X107180952Y-57476247D01*
X108371428Y-56904819D02*
X108466666Y-56904819D01*
X108466666Y-56904819D02*
X108561904Y-56952438D01*
X108561904Y-56952438D02*
X108609523Y-57000057D01*
X108609523Y-57000057D02*
X108657142Y-57095295D01*
X108657142Y-57095295D02*
X108704761Y-57285771D01*
X108704761Y-57285771D02*
X108704761Y-57523866D01*
X108704761Y-57523866D02*
X108657142Y-57714342D01*
X108657142Y-57714342D02*
X108609523Y-57809580D01*
X108609523Y-57809580D02*
X108561904Y-57857200D01*
X108561904Y-57857200D02*
X108466666Y-57904819D01*
X108466666Y-57904819D02*
X108371428Y-57904819D01*
X108371428Y-57904819D02*
X108276190Y-57857200D01*
X108276190Y-57857200D02*
X108228571Y-57809580D01*
X108228571Y-57809580D02*
X108180952Y-57714342D01*
X108180952Y-57714342D02*
X108133333Y-57523866D01*
X108133333Y-57523866D02*
X108133333Y-57285771D01*
X108133333Y-57285771D02*
X108180952Y-57095295D01*
X108180952Y-57095295D02*
X108228571Y-57000057D01*
X108228571Y-57000057D02*
X108276190Y-56952438D01*
X108276190Y-56952438D02*
X108371428Y-56904819D01*
X109609523Y-56904819D02*
X109133333Y-56904819D01*
X109133333Y-56904819D02*
X109085714Y-57381009D01*
X109085714Y-57381009D02*
X109133333Y-57333390D01*
X109133333Y-57333390D02*
X109228571Y-57285771D01*
X109228571Y-57285771D02*
X109466666Y-57285771D01*
X109466666Y-57285771D02*
X109561904Y-57333390D01*
X109561904Y-57333390D02*
X109609523Y-57381009D01*
X109609523Y-57381009D02*
X109657142Y-57476247D01*
X109657142Y-57476247D02*
X109657142Y-57714342D01*
X109657142Y-57714342D02*
X109609523Y-57809580D01*
X109609523Y-57809580D02*
X109561904Y-57857200D01*
X109561904Y-57857200D02*
X109466666Y-57904819D01*
X109466666Y-57904819D02*
X109228571Y-57904819D01*
X109228571Y-57904819D02*
X109133333Y-57857200D01*
X109133333Y-57857200D02*
X109085714Y-57809580D01*
X110276190Y-56904819D02*
X110371428Y-56904819D01*
X110371428Y-56904819D02*
X110466666Y-56952438D01*
X110466666Y-56952438D02*
X110514285Y-57000057D01*
X110514285Y-57000057D02*
X110561904Y-57095295D01*
X110561904Y-57095295D02*
X110609523Y-57285771D01*
X110609523Y-57285771D02*
X110609523Y-57523866D01*
X110609523Y-57523866D02*
X110561904Y-57714342D01*
X110561904Y-57714342D02*
X110514285Y-57809580D01*
X110514285Y-57809580D02*
X110466666Y-57857200D01*
X110466666Y-57857200D02*
X110371428Y-57904819D01*
X110371428Y-57904819D02*
X110276190Y-57904819D01*
X110276190Y-57904819D02*
X110180952Y-57857200D01*
X110180952Y-57857200D02*
X110133333Y-57809580D01*
X110133333Y-57809580D02*
X110085714Y-57714342D01*
X110085714Y-57714342D02*
X110038095Y-57523866D01*
X110038095Y-57523866D02*
X110038095Y-57285771D01*
X110038095Y-57285771D02*
X110085714Y-57095295D01*
X110085714Y-57095295D02*
X110133333Y-57000057D01*
X110133333Y-57000057D02*
X110180952Y-56952438D01*
X110180952Y-56952438D02*
X110276190Y-56904819D01*
X95733333Y-52254819D02*
X95400000Y-51778628D01*
X95161905Y-52254819D02*
X95161905Y-51254819D01*
X95161905Y-51254819D02*
X95542857Y-51254819D01*
X95542857Y-51254819D02*
X95638095Y-51302438D01*
X95638095Y-51302438D02*
X95685714Y-51350057D01*
X95685714Y-51350057D02*
X95733333Y-51445295D01*
X95733333Y-51445295D02*
X95733333Y-51588152D01*
X95733333Y-51588152D02*
X95685714Y-51683390D01*
X95685714Y-51683390D02*
X95638095Y-51731009D01*
X95638095Y-51731009D02*
X95542857Y-51778628D01*
X95542857Y-51778628D02*
X95161905Y-51778628D01*
X96114286Y-51350057D02*
X96161905Y-51302438D01*
X96161905Y-51302438D02*
X96257143Y-51254819D01*
X96257143Y-51254819D02*
X96495238Y-51254819D01*
X96495238Y-51254819D02*
X96590476Y-51302438D01*
X96590476Y-51302438D02*
X96638095Y-51350057D01*
X96638095Y-51350057D02*
X96685714Y-51445295D01*
X96685714Y-51445295D02*
X96685714Y-51540533D01*
X96685714Y-51540533D02*
X96638095Y-51683390D01*
X96638095Y-51683390D02*
X96066667Y-52254819D01*
X96066667Y-52254819D02*
X96685714Y-52254819D01*
X111489285Y-39881009D02*
X111632142Y-39928628D01*
X111632142Y-39928628D02*
X111679761Y-39976247D01*
X111679761Y-39976247D02*
X111727380Y-40071485D01*
X111727380Y-40071485D02*
X111727380Y-40214342D01*
X111727380Y-40214342D02*
X111679761Y-40309580D01*
X111679761Y-40309580D02*
X111632142Y-40357200D01*
X111632142Y-40357200D02*
X111536904Y-40404819D01*
X111536904Y-40404819D02*
X111155952Y-40404819D01*
X111155952Y-40404819D02*
X111155952Y-39404819D01*
X111155952Y-39404819D02*
X111489285Y-39404819D01*
X111489285Y-39404819D02*
X111584523Y-39452438D01*
X111584523Y-39452438D02*
X111632142Y-39500057D01*
X111632142Y-39500057D02*
X111679761Y-39595295D01*
X111679761Y-39595295D02*
X111679761Y-39690533D01*
X111679761Y-39690533D02*
X111632142Y-39785771D01*
X111632142Y-39785771D02*
X111584523Y-39833390D01*
X111584523Y-39833390D02*
X111489285Y-39881009D01*
X111489285Y-39881009D02*
X111155952Y-39881009D01*
X112013095Y-39404819D02*
X112584523Y-39404819D01*
X112298809Y-40404819D02*
X112298809Y-39404819D01*
X113441666Y-40404819D02*
X112870238Y-40404819D01*
X113155952Y-40404819D02*
X113155952Y-39404819D01*
X113155952Y-39404819D02*
X113060714Y-39547676D01*
X113060714Y-39547676D02*
X112965476Y-39642914D01*
X112965476Y-39642914D02*
X112870238Y-39690533D01*
X102266667Y-45454819D02*
X102266667Y-44454819D01*
X102266667Y-44454819D02*
X102600000Y-45169104D01*
X102600000Y-45169104D02*
X102933333Y-44454819D01*
X102933333Y-44454819D02*
X102933333Y-45454819D01*
X109101667Y-45444819D02*
X109101667Y-44444819D01*
X109101667Y-44444819D02*
X109482619Y-44444819D01*
X109482619Y-44444819D02*
X109577857Y-44492438D01*
X109577857Y-44492438D02*
X109625476Y-44540057D01*
X109625476Y-44540057D02*
X109673095Y-44635295D01*
X109673095Y-44635295D02*
X109673095Y-44778152D01*
X109673095Y-44778152D02*
X109625476Y-44873390D01*
X109625476Y-44873390D02*
X109577857Y-44921009D01*
X109577857Y-44921009D02*
X109482619Y-44968628D01*
X109482619Y-44968628D02*
X109101667Y-44968628D01*
X110101667Y-45444819D02*
X110101667Y-44444819D01*
X110101667Y-44444819D02*
X110482619Y-44444819D01*
X110482619Y-44444819D02*
X110577857Y-44492438D01*
X110577857Y-44492438D02*
X110625476Y-44540057D01*
X110625476Y-44540057D02*
X110673095Y-44635295D01*
X110673095Y-44635295D02*
X110673095Y-44778152D01*
X110673095Y-44778152D02*
X110625476Y-44873390D01*
X110625476Y-44873390D02*
X110577857Y-44921009D01*
X110577857Y-44921009D02*
X110482619Y-44968628D01*
X110482619Y-44968628D02*
X110101667Y-44968628D01*
X111101667Y-45444819D02*
X111101667Y-44444819D01*
X111101667Y-44444819D02*
X111435000Y-45159104D01*
X111435000Y-45159104D02*
X111768333Y-44444819D01*
X111768333Y-44444819D02*
X111768333Y-45444819D01*
X125032381Y-39609104D02*
X125508571Y-39609104D01*
X124937143Y-39894819D02*
X125270476Y-38894819D01*
X125270476Y-38894819D02*
X125603809Y-39894819D01*
X126508571Y-39894819D02*
X126175238Y-39418628D01*
X125937143Y-39894819D02*
X125937143Y-38894819D01*
X125937143Y-38894819D02*
X126318095Y-38894819D01*
X126318095Y-38894819D02*
X126413333Y-38942438D01*
X126413333Y-38942438D02*
X126460952Y-38990057D01*
X126460952Y-38990057D02*
X126508571Y-39085295D01*
X126508571Y-39085295D02*
X126508571Y-39228152D01*
X126508571Y-39228152D02*
X126460952Y-39323390D01*
X126460952Y-39323390D02*
X126413333Y-39371009D01*
X126413333Y-39371009D02*
X126318095Y-39418628D01*
X126318095Y-39418628D02*
X125937143Y-39418628D01*
X126937143Y-39894819D02*
X126937143Y-38894819D01*
X126937143Y-38894819D02*
X127175238Y-38894819D01*
X127175238Y-38894819D02*
X127318095Y-38942438D01*
X127318095Y-38942438D02*
X127413333Y-39037676D01*
X127413333Y-39037676D02*
X127460952Y-39132914D01*
X127460952Y-39132914D02*
X127508571Y-39323390D01*
X127508571Y-39323390D02*
X127508571Y-39466247D01*
X127508571Y-39466247D02*
X127460952Y-39656723D01*
X127460952Y-39656723D02*
X127413333Y-39751961D01*
X127413333Y-39751961D02*
X127318095Y-39847200D01*
X127318095Y-39847200D02*
X127175238Y-39894819D01*
X127175238Y-39894819D02*
X126937143Y-39894819D01*
X127937143Y-38894819D02*
X127937143Y-39704342D01*
X127937143Y-39704342D02*
X127984762Y-39799580D01*
X127984762Y-39799580D02*
X128032381Y-39847200D01*
X128032381Y-39847200D02*
X128127619Y-39894819D01*
X128127619Y-39894819D02*
X128318095Y-39894819D01*
X128318095Y-39894819D02*
X128413333Y-39847200D01*
X128413333Y-39847200D02*
X128460952Y-39799580D01*
X128460952Y-39799580D02*
X128508571Y-39704342D01*
X128508571Y-39704342D02*
X128508571Y-38894819D01*
X128984762Y-39894819D02*
X128984762Y-38894819D01*
X129460952Y-39894819D02*
X129460952Y-38894819D01*
X129460952Y-38894819D02*
X130032380Y-39894819D01*
X130032380Y-39894819D02*
X130032380Y-38894819D01*
X130699047Y-38894819D02*
X130889523Y-38894819D01*
X130889523Y-38894819D02*
X130984761Y-38942438D01*
X130984761Y-38942438D02*
X131079999Y-39037676D01*
X131079999Y-39037676D02*
X131127618Y-39228152D01*
X131127618Y-39228152D02*
X131127618Y-39561485D01*
X131127618Y-39561485D02*
X131079999Y-39751961D01*
X131079999Y-39751961D02*
X130984761Y-39847200D01*
X130984761Y-39847200D02*
X130889523Y-39894819D01*
X130889523Y-39894819D02*
X130699047Y-39894819D01*
X130699047Y-39894819D02*
X130603809Y-39847200D01*
X130603809Y-39847200D02*
X130508571Y-39751961D01*
X130508571Y-39751961D02*
X130460952Y-39561485D01*
X130460952Y-39561485D02*
X130460952Y-39228152D01*
X130460952Y-39228152D02*
X130508571Y-39037676D01*
X130508571Y-39037676D02*
X130603809Y-38942438D01*
X130603809Y-38942438D02*
X130699047Y-38894819D01*
X126818095Y-79534819D02*
X126818095Y-80344342D01*
X126818095Y-80344342D02*
X126865714Y-80439580D01*
X126865714Y-80439580D02*
X126913333Y-80487200D01*
X126913333Y-80487200D02*
X127008571Y-80534819D01*
X127008571Y-80534819D02*
X127199047Y-80534819D01*
X127199047Y-80534819D02*
X127294285Y-80487200D01*
X127294285Y-80487200D02*
X127341904Y-80439580D01*
X127341904Y-80439580D02*
X127389523Y-80344342D01*
X127389523Y-80344342D02*
X127389523Y-79534819D01*
X127818095Y-80487200D02*
X127960952Y-80534819D01*
X127960952Y-80534819D02*
X128199047Y-80534819D01*
X128199047Y-80534819D02*
X128294285Y-80487200D01*
X128294285Y-80487200D02*
X128341904Y-80439580D01*
X128341904Y-80439580D02*
X128389523Y-80344342D01*
X128389523Y-80344342D02*
X128389523Y-80249104D01*
X128389523Y-80249104D02*
X128341904Y-80153866D01*
X128341904Y-80153866D02*
X128294285Y-80106247D01*
X128294285Y-80106247D02*
X128199047Y-80058628D01*
X128199047Y-80058628D02*
X128008571Y-80011009D01*
X128008571Y-80011009D02*
X127913333Y-79963390D01*
X127913333Y-79963390D02*
X127865714Y-79915771D01*
X127865714Y-79915771D02*
X127818095Y-79820533D01*
X127818095Y-79820533D02*
X127818095Y-79725295D01*
X127818095Y-79725295D02*
X127865714Y-79630057D01*
X127865714Y-79630057D02*
X127913333Y-79582438D01*
X127913333Y-79582438D02*
X128008571Y-79534819D01*
X128008571Y-79534819D02*
X128246666Y-79534819D01*
X128246666Y-79534819D02*
X128389523Y-79582438D01*
X129151428Y-80011009D02*
X129294285Y-80058628D01*
X129294285Y-80058628D02*
X129341904Y-80106247D01*
X129341904Y-80106247D02*
X129389523Y-80201485D01*
X129389523Y-80201485D02*
X129389523Y-80344342D01*
X129389523Y-80344342D02*
X129341904Y-80439580D01*
X129341904Y-80439580D02*
X129294285Y-80487200D01*
X129294285Y-80487200D02*
X129199047Y-80534819D01*
X129199047Y-80534819D02*
X128818095Y-80534819D01*
X128818095Y-80534819D02*
X128818095Y-79534819D01*
X128818095Y-79534819D02*
X129151428Y-79534819D01*
X129151428Y-79534819D02*
X129246666Y-79582438D01*
X129246666Y-79582438D02*
X129294285Y-79630057D01*
X129294285Y-79630057D02*
X129341904Y-79725295D01*
X129341904Y-79725295D02*
X129341904Y-79820533D01*
X129341904Y-79820533D02*
X129294285Y-79915771D01*
X129294285Y-79915771D02*
X129246666Y-79963390D01*
X129246666Y-79963390D02*
X129151428Y-80011009D01*
X129151428Y-80011009D02*
X128818095Y-80011009D01*
X117033333Y-52354819D02*
X116700000Y-51878628D01*
X116461905Y-52354819D02*
X116461905Y-51354819D01*
X116461905Y-51354819D02*
X116842857Y-51354819D01*
X116842857Y-51354819D02*
X116938095Y-51402438D01*
X116938095Y-51402438D02*
X116985714Y-51450057D01*
X116985714Y-51450057D02*
X117033333Y-51545295D01*
X117033333Y-51545295D02*
X117033333Y-51688152D01*
X117033333Y-51688152D02*
X116985714Y-51783390D01*
X116985714Y-51783390D02*
X116938095Y-51831009D01*
X116938095Y-51831009D02*
X116842857Y-51878628D01*
X116842857Y-51878628D02*
X116461905Y-51878628D01*
X117985714Y-52354819D02*
X117414286Y-52354819D01*
X117700000Y-52354819D02*
X117700000Y-51354819D01*
X117700000Y-51354819D02*
X117604762Y-51497676D01*
X117604762Y-51497676D02*
X117509524Y-51592914D01*
X117509524Y-51592914D02*
X117414286Y-51640533D01*
X101042857Y-40454819D02*
X101042857Y-39454819D01*
X101042857Y-39454819D02*
X101376190Y-40169104D01*
X101376190Y-40169104D02*
X101709523Y-39454819D01*
X101709523Y-39454819D02*
X101709523Y-40454819D01*
X102709523Y-39502438D02*
X102614285Y-39454819D01*
X102614285Y-39454819D02*
X102471428Y-39454819D01*
X102471428Y-39454819D02*
X102328571Y-39502438D01*
X102328571Y-39502438D02*
X102233333Y-39597676D01*
X102233333Y-39597676D02*
X102185714Y-39692914D01*
X102185714Y-39692914D02*
X102138095Y-39883390D01*
X102138095Y-39883390D02*
X102138095Y-40026247D01*
X102138095Y-40026247D02*
X102185714Y-40216723D01*
X102185714Y-40216723D02*
X102233333Y-40311961D01*
X102233333Y-40311961D02*
X102328571Y-40407200D01*
X102328571Y-40407200D02*
X102471428Y-40454819D01*
X102471428Y-40454819D02*
X102566666Y-40454819D01*
X102566666Y-40454819D02*
X102709523Y-40407200D01*
X102709523Y-40407200D02*
X102757142Y-40359580D01*
X102757142Y-40359580D02*
X102757142Y-40026247D01*
X102757142Y-40026247D02*
X102566666Y-40026247D01*
X103185714Y-40454819D02*
X103185714Y-39454819D01*
X103185714Y-39454819D02*
X103757142Y-40454819D01*
X103757142Y-40454819D02*
X103757142Y-39454819D01*
X104233333Y-40454819D02*
X104233333Y-39454819D01*
X104233333Y-39454819D02*
X104471428Y-39454819D01*
X104471428Y-39454819D02*
X104614285Y-39502438D01*
X104614285Y-39502438D02*
X104709523Y-39597676D01*
X104709523Y-39597676D02*
X104757142Y-39692914D01*
X104757142Y-39692914D02*
X104804761Y-39883390D01*
X104804761Y-39883390D02*
X104804761Y-40026247D01*
X104804761Y-40026247D02*
X104757142Y-40216723D01*
X104757142Y-40216723D02*
X104709523Y-40311961D01*
X104709523Y-40311961D02*
X104614285Y-40407200D01*
X104614285Y-40407200D02*
X104471428Y-40454819D01*
X104471428Y-40454819D02*
X104233333Y-40454819D01*
D11*
%TO.C,MPU6050*%
X99970000Y-56130000D02*
X117810000Y-56130000D01*
X99970000Y-56130000D02*
X99970000Y-53470000D01*
X117810000Y-56130000D02*
X117810000Y-53470000D01*
X97370000Y-54800000D02*
X97370000Y-53470000D01*
X97370000Y-53470000D02*
X98700000Y-53470000D01*
X99970000Y-53470000D02*
X117810000Y-53470000D01*
%TO.C,R2*%
X98840000Y-51800000D02*
X99790000Y-51800000D01*
X99790000Y-50880000D02*
X99790000Y-52720000D01*
X99790000Y-52720000D02*
X103630000Y-52720000D01*
X103630000Y-50880000D02*
X99790000Y-50880000D01*
X103630000Y-52720000D02*
X103630000Y-50880000D01*
X104580000Y-51800000D02*
X103630000Y-51800000D01*
%TO.C,BT1*%
X114830000Y-41070000D02*
X114830000Y-42400000D01*
X113500000Y-41070000D02*
X114830000Y-41070000D01*
X112230000Y-41070000D02*
X109630000Y-41070000D01*
X112230000Y-41070000D02*
X112230000Y-43730000D01*
X109630000Y-41070000D02*
X109630000Y-43730000D01*
X112230000Y-43730000D02*
X109630000Y-43730000D01*
%TO.C,G\u002A\u002A\u002A*%
G36*
X115609844Y-91056896D02*
G01*
X115609844Y-91219354D01*
X115447386Y-91219354D01*
X115284927Y-91219354D01*
X115284927Y-91120467D01*
X115368140Y-91120467D01*
X115439548Y-91120467D01*
X115510956Y-91120467D01*
X115510956Y-91049059D01*
X115510956Y-90977651D01*
X115443854Y-90981956D01*
X115376752Y-90986262D01*
X115372446Y-91053364D01*
X115368140Y-91120467D01*
X115284927Y-91120467D01*
X115284927Y-91056896D01*
X115284927Y-90894438D01*
X115447386Y-90894438D01*
X115609844Y-90894438D01*
X115609844Y-91056896D01*
G37*
G36*
X116019521Y-90223414D02*
G01*
X116019521Y-90385873D01*
X115857063Y-90385873D01*
X115694605Y-90385873D01*
X115694605Y-90223414D01*
X115694605Y-90159844D01*
X115793492Y-90159844D01*
X115793492Y-90231252D01*
X115793492Y-90302660D01*
X115860595Y-90298354D01*
X115927697Y-90294049D01*
X115932003Y-90226946D01*
X115936308Y-90159844D01*
X115864900Y-90159844D01*
X115793492Y-90159844D01*
X115694605Y-90159844D01*
X115694605Y-90060956D01*
X115857063Y-90060956D01*
X116019521Y-90060956D01*
X116019521Y-90223414D01*
G37*
G36*
X116019521Y-90640155D02*
G01*
X116019521Y-90809677D01*
X115857063Y-90809677D01*
X115694605Y-90809677D01*
X115694605Y-90640155D01*
X115694605Y-90567973D01*
X115793492Y-90567973D01*
X115793492Y-90640155D01*
X115793492Y-90712337D01*
X115860595Y-90708032D01*
X115927697Y-90703726D01*
X115927697Y-90640155D01*
X115927697Y-90576585D01*
X115860595Y-90572279D01*
X115793492Y-90567973D01*
X115694605Y-90567973D01*
X115694605Y-90470634D01*
X115857063Y-90470634D01*
X116019521Y-90470634D01*
X116019521Y-90640155D01*
G37*
G36*
X116019521Y-91056896D02*
G01*
X116019521Y-91219354D01*
X115857063Y-91219354D01*
X115694605Y-91219354D01*
X115694605Y-91056896D01*
X115694605Y-90977651D01*
X115793492Y-90977651D01*
X115793492Y-91049059D01*
X115793492Y-91120467D01*
X115864900Y-91120467D01*
X115936308Y-91120467D01*
X115932003Y-91053364D01*
X115927697Y-90986262D01*
X115860595Y-90981956D01*
X115793492Y-90977651D01*
X115694605Y-90977651D01*
X115694605Y-90894438D01*
X115857063Y-90894438D01*
X116019521Y-90894438D01*
X116019521Y-91056896D01*
G37*
G36*
X116443325Y-91056896D02*
G01*
X116443325Y-91219354D01*
X116280867Y-91219354D01*
X116118409Y-91219354D01*
X116118409Y-91120467D01*
X116201622Y-91120467D01*
X116273030Y-91120467D01*
X116344438Y-91120467D01*
X116344438Y-91049059D01*
X116344438Y-90977651D01*
X116277335Y-90981956D01*
X116210233Y-90986262D01*
X116205927Y-91053364D01*
X116201622Y-91120467D01*
X116118409Y-91120467D01*
X116118409Y-91056896D01*
X116118409Y-90894438D01*
X116280867Y-90894438D01*
X116443325Y-90894438D01*
X116443325Y-91056896D01*
G37*
G36*
X115609844Y-90223414D02*
G01*
X115609844Y-90385873D01*
X115447386Y-90385873D01*
X115284927Y-90385873D01*
X115284927Y-90223414D01*
X115284927Y-90159844D01*
X115369688Y-90159844D01*
X115369688Y-90221060D01*
X115371692Y-90260702D01*
X115376722Y-90287310D01*
X115379106Y-90291694D01*
X115397920Y-90297485D01*
X115433936Y-90300804D01*
X115449740Y-90301112D01*
X115510956Y-90301112D01*
X115510956Y-90230478D01*
X115510956Y-90159844D01*
X115440322Y-90159844D01*
X115369688Y-90159844D01*
X115284927Y-90159844D01*
X115284927Y-90060956D01*
X115447386Y-90060956D01*
X115609844Y-90060956D01*
X115609844Y-90223414D01*
G37*
G36*
X115609844Y-90640155D02*
G01*
X115609844Y-90809677D01*
X115447386Y-90809677D01*
X115284927Y-90809677D01*
X115284927Y-90671599D01*
X115371173Y-90671599D01*
X115382946Y-90698062D01*
X115412583Y-90709100D01*
X115446942Y-90710789D01*
X115510956Y-90710789D01*
X115510956Y-90639381D01*
X115510956Y-90567973D01*
X115443854Y-90572279D01*
X115403228Y-90576130D01*
X115382840Y-90584666D01*
X115374696Y-90603641D01*
X115372224Y-90623842D01*
X115371173Y-90671599D01*
X115284927Y-90671599D01*
X115284927Y-90640155D01*
X115284927Y-90470634D01*
X115447386Y-90470634D01*
X115609844Y-90470634D01*
X115609844Y-90640155D01*
G37*
G36*
X116443325Y-90223414D02*
G01*
X116443325Y-90385873D01*
X116280867Y-90385873D01*
X116118409Y-90385873D01*
X116118409Y-90223414D01*
X116118409Y-90159844D01*
X116203170Y-90159844D01*
X116203170Y-90221060D01*
X116205173Y-90260702D01*
X116210204Y-90287310D01*
X116212588Y-90291694D01*
X116231402Y-90297485D01*
X116267418Y-90300804D01*
X116283222Y-90301112D01*
X116344438Y-90301112D01*
X116344438Y-90230478D01*
X116344438Y-90159844D01*
X116273804Y-90159844D01*
X116203170Y-90159844D01*
X116118409Y-90159844D01*
X116118409Y-90060956D01*
X116280867Y-90060956D01*
X116443325Y-90060956D01*
X116443325Y-90223414D01*
G37*
G36*
X116443325Y-90640155D02*
G01*
X116443325Y-90809677D01*
X116280867Y-90809677D01*
X116118409Y-90809677D01*
X116118409Y-90671599D01*
X116204655Y-90671599D01*
X116216427Y-90698062D01*
X116246065Y-90709100D01*
X116280424Y-90710789D01*
X116344438Y-90710789D01*
X116344438Y-90639381D01*
X116344438Y-90567973D01*
X116277335Y-90572279D01*
X116236709Y-90576130D01*
X116216321Y-90584666D01*
X116208177Y-90603641D01*
X116205706Y-90623842D01*
X116204655Y-90671599D01*
X116118409Y-90671599D01*
X116118409Y-90640155D01*
X116118409Y-90470634D01*
X116280867Y-90470634D01*
X116443325Y-90470634D01*
X116443325Y-90640155D01*
G37*
G36*
X116443325Y-89693659D02*
G01*
X116443325Y-89919688D01*
X115864126Y-89919688D01*
X115284927Y-89919688D01*
X115284927Y-89693659D01*
X115284927Y-89566518D01*
X115369688Y-89566518D01*
X115369688Y-89684241D01*
X115370749Y-89739414D01*
X115373572Y-89783230D01*
X115377619Y-89808421D01*
X115379106Y-89811383D01*
X115394981Y-89813614D01*
X115435771Y-89815657D01*
X115498140Y-89817446D01*
X115578750Y-89818918D01*
X115674264Y-89820008D01*
X115781343Y-89820650D01*
X115866481Y-89820800D01*
X116344438Y-89820800D01*
X116344438Y-89693659D01*
X116344438Y-89566518D01*
X115857063Y-89566518D01*
X115369688Y-89566518D01*
X115284927Y-89566518D01*
X115284927Y-89467630D01*
X115864126Y-89467630D01*
X116443325Y-89467630D01*
X116443325Y-89693659D01*
G37*
G36*
X116271179Y-89243407D02*
G01*
X116369924Y-89244118D01*
X116449728Y-89245704D01*
X116512918Y-89248342D01*
X116561823Y-89252208D01*
X116598771Y-89257480D01*
X116626090Y-89264335D01*
X116646106Y-89272949D01*
X116661150Y-89283498D01*
X116673548Y-89296160D01*
X116683960Y-89308989D01*
X116689152Y-89316290D01*
X116693654Y-89325368D01*
X116697514Y-89338167D01*
X116700783Y-89356632D01*
X116703508Y-89382709D01*
X116705739Y-89418342D01*
X116707526Y-89465476D01*
X116708918Y-89526056D01*
X116709964Y-89602026D01*
X116710714Y-89695333D01*
X116711216Y-89807920D01*
X116711519Y-89941732D01*
X116711674Y-90098715D01*
X116711729Y-90280813D01*
X116711735Y-90405825D01*
X116711768Y-90608197D01*
X116711773Y-90784222D01*
X116711610Y-90935807D01*
X116711135Y-91064858D01*
X116710209Y-91173283D01*
X116708690Y-91262988D01*
X116706436Y-91335880D01*
X116703306Y-91393865D01*
X116699159Y-91438850D01*
X116693854Y-91472742D01*
X116687249Y-91497447D01*
X116679202Y-91514872D01*
X116669574Y-91526924D01*
X116658221Y-91535509D01*
X116645003Y-91542534D01*
X116629779Y-91549906D01*
X116626818Y-91551415D01*
X116614111Y-91556221D01*
X116594629Y-91560248D01*
X116566070Y-91563556D01*
X116526131Y-91566206D01*
X116472510Y-91568258D01*
X116402906Y-91569774D01*
X116315014Y-91570815D01*
X116206532Y-91571440D01*
X116075159Y-91571712D01*
X115918592Y-91571690D01*
X115861296Y-91571629D01*
X115720057Y-91571233D01*
X115586820Y-91570431D01*
X115464364Y-91569270D01*
X115355469Y-91567797D01*
X115262915Y-91566058D01*
X115189482Y-91564099D01*
X115137948Y-91561968D01*
X115111093Y-91559709D01*
X115108342Y-91559047D01*
X115079527Y-91540807D01*
X115047378Y-91512122D01*
X115044772Y-91509366D01*
X115009455Y-91471370D01*
X115005660Y-90413073D01*
X115005625Y-90403220D01*
X115101279Y-90403220D01*
X115101321Y-90598487D01*
X115101478Y-90767447D01*
X115101791Y-90912043D01*
X115102306Y-91034221D01*
X115103065Y-91135927D01*
X115104112Y-91219105D01*
X115105491Y-91285702D01*
X115107245Y-91337661D01*
X115109418Y-91376929D01*
X115112052Y-91405450D01*
X115115193Y-91425170D01*
X115118883Y-91438034D01*
X115123165Y-91445988D01*
X115124658Y-91447803D01*
X115131212Y-91453627D01*
X115141004Y-91458505D01*
X115156403Y-91462522D01*
X115179777Y-91465761D01*
X115213494Y-91468304D01*
X115259923Y-91470235D01*
X115321431Y-91471637D01*
X115400386Y-91472594D01*
X115499157Y-91473188D01*
X115620112Y-91473504D01*
X115765619Y-91473624D01*
X115859252Y-91473637D01*
X116019272Y-91473608D01*
X116153431Y-91473458D01*
X116264121Y-91473097D01*
X116353736Y-91472431D01*
X116424667Y-91471368D01*
X116479308Y-91469817D01*
X116520050Y-91467683D01*
X116549288Y-91464877D01*
X116569412Y-91461304D01*
X116582816Y-91456874D01*
X116591893Y-91451493D01*
X116598993Y-91445110D01*
X116604426Y-91439170D01*
X116609113Y-91431674D01*
X116613099Y-91420648D01*
X116616432Y-91404114D01*
X116619158Y-91380098D01*
X116621325Y-91346623D01*
X116622978Y-91301713D01*
X116624164Y-91243393D01*
X116624930Y-91169685D01*
X116625323Y-91078615D01*
X116625390Y-90968206D01*
X116625176Y-90836482D01*
X116624729Y-90681467D01*
X116624096Y-90501186D01*
X116623715Y-90398584D01*
X116622970Y-90204525D01*
X116622248Y-90036761D01*
X116621492Y-89893333D01*
X116620641Y-89772283D01*
X116619638Y-89671652D01*
X116618422Y-89589482D01*
X116616936Y-89523814D01*
X116615120Y-89472690D01*
X116612916Y-89434151D01*
X116610264Y-89406238D01*
X116607105Y-89386994D01*
X116603381Y-89374458D01*
X116599033Y-89366674D01*
X116594002Y-89361682D01*
X116592489Y-89360537D01*
X116582133Y-89355874D01*
X116563419Y-89351967D01*
X116534105Y-89348753D01*
X116491954Y-89346171D01*
X116434727Y-89344159D01*
X116360185Y-89342655D01*
X116266088Y-89341598D01*
X116150198Y-89340926D01*
X116010277Y-89340577D01*
X115864570Y-89340489D01*
X115703461Y-89340577D01*
X115568255Y-89340889D01*
X115456600Y-89341496D01*
X115366145Y-89342467D01*
X115294539Y-89343874D01*
X115239431Y-89345787D01*
X115198469Y-89348278D01*
X115169304Y-89351415D01*
X115149583Y-89355271D01*
X115136955Y-89359916D01*
X115132676Y-89362480D01*
X115101279Y-89384472D01*
X115101279Y-90403220D01*
X115005625Y-90403220D01*
X115001865Y-89354775D01*
X115050479Y-89301720D01*
X115099092Y-89248665D01*
X115838017Y-89244760D01*
X116007553Y-89243905D01*
X116151165Y-89243395D01*
X116271179Y-89243407D01*
G37*
%TO.C,M*%
X107805000Y-46040000D02*
X107805000Y-47370000D01*
X106475000Y-46040000D02*
X107805000Y-46040000D01*
X105205000Y-46040000D02*
X97525000Y-46040000D01*
X105205000Y-46040000D02*
X105205000Y-48700000D01*
X97525000Y-46040000D02*
X97525000Y-48700000D01*
X105205000Y-48700000D02*
X97525000Y-48700000D01*
%TO.C,PPM*%
X109105000Y-45990000D02*
X110435000Y-45990000D01*
X109105000Y-47320000D02*
X109105000Y-45990000D01*
X109105000Y-48590000D02*
X109105000Y-48650000D01*
X109105000Y-48590000D02*
X111765000Y-48590000D01*
X109105000Y-48650000D02*
X111765000Y-48650000D01*
X111765000Y-48590000D02*
X111765000Y-48650000D01*
%TO.C,ARDUINO*%
X119060000Y-40580000D02*
X119060000Y-43250000D01*
X119060000Y-45790000D02*
X119060000Y-84020000D01*
X119060000Y-84020000D02*
X124140000Y-84020000D01*
X121730000Y-43250000D02*
X119060000Y-43250000D01*
X121730000Y-45790000D02*
X119060000Y-45790000D01*
X121730000Y-45790000D02*
X121730000Y-43250000D01*
X121730000Y-45790000D02*
X121730000Y-81350000D01*
X121730000Y-81350000D02*
X119060000Y-81350000D01*
X124140000Y-76140000D02*
X132020000Y-76140000D01*
X124140000Y-86560000D02*
X124140000Y-76140000D01*
X132020000Y-76140000D02*
X132020000Y-86560000D01*
X132020000Y-86560000D02*
X124140000Y-86560000D01*
X134430000Y-43250000D02*
X134430000Y-81350000D01*
X134430000Y-43250000D02*
X137100000Y-43250000D01*
X134430000Y-81350000D02*
X137100000Y-81350000D01*
X137100000Y-40580000D02*
X119060000Y-40580000D01*
X137100000Y-84020000D02*
X132020000Y-84020000D01*
X137100000Y-84020000D02*
X137100000Y-40580000D01*
%TO.C,R1*%
X114280000Y-51800000D02*
X113330000Y-51800000D01*
X113330000Y-52720000D02*
X113330000Y-50880000D01*
X113330000Y-50880000D02*
X109490000Y-50880000D01*
X109490000Y-52720000D02*
X113330000Y-52720000D01*
X109490000Y-50880000D02*
X109490000Y-52720000D01*
X108540000Y-51800000D02*
X109490000Y-51800000D01*
%TO.C,MGND*%
X107850000Y-41070000D02*
X107850000Y-42400000D01*
X106520000Y-41070000D02*
X107850000Y-41070000D01*
X105250000Y-41070000D02*
X97570000Y-41070000D01*
X105250000Y-41070000D02*
X105250000Y-43730000D01*
X97570000Y-41070000D02*
X97570000Y-43730000D01*
X105250000Y-43730000D02*
X97570000Y-43730000D01*
%TD*%
M02*
