%TF.GenerationSoftware,KiCad,Pcbnew,7.0.7*%
%TF.CreationDate,2023-10-16T17:54:21+02:00*%
%TF.ProjectId,arduino-nano-drone,61726475-696e-46f2-9d6e-616e6f2d6472,0*%
%TF.SameCoordinates,Original*%
%TF.FileFunction,Drillmap*%
%TF.FilePolarity,Positive*%
%FSLAX45Y45*%
G04 Gerber Fmt 4.5, Leading zero omitted, Abs format (unit mm)*
G04 Created by KiCad (PCBNEW 7.0.7) date 2023-10-16 17:54:21*
%MOMM*%
%LPD*%
G01*
G04 APERTURE LIST*
%ADD10C,0.100000*%
%ADD11C,0.200000*%
%ADD12C,0.040000*%
%ADD13C,0.070000*%
G04 APERTURE END LIST*
D10*
X9430531Y-4189910D02*
G75*
G03*
X9125000Y-3940421I-295531J-50090D01*
G01*
X9600421Y-3465000D02*
G75*
G03*
X9125000Y-3940421I-475421J0D01*
G01*
X9829324Y-3816432D02*
X13617917Y-3820944D01*
X9805955Y-9206729D02*
X13625490Y-9202228D01*
X9600421Y-3465000D02*
G75*
G03*
X9829324Y-3816432I399579J10000D01*
G01*
X9425676Y-8844798D02*
X9430531Y-4189910D01*
X14345000Y-3963561D02*
G75*
G03*
X13867406Y-3515413I0J478561D01*
G01*
X13855345Y-9541188D02*
G75*
G03*
X13625490Y-9202228I-401725J-25002D01*
G01*
X9083620Y-9070769D02*
G75*
G03*
X9425676Y-8844798I-15000J394579D01*
G01*
X13997675Y-8819105D02*
G75*
G03*
X14303207Y-9068594I295535J50095D01*
G01*
X13617916Y-3820938D02*
G75*
G03*
X13867406Y-3515413I-50086J295528D01*
G01*
X9805956Y-9206731D02*
G75*
G03*
X9557712Y-9510663I49834J-294049D01*
G01*
X14345000Y-3963562D02*
G75*
G03*
X14002031Y-4190959I16430J-397118D01*
G01*
X13855343Y-9541188D02*
G75*
G03*
X14303207Y-9068594I473277J0D01*
G01*
X13997676Y-8819105D02*
X14002031Y-4190959D01*
X9083620Y-9070769D02*
G75*
G03*
X9557712Y-9510663I0J-475421D01*
G01*
D11*
D12*
X9540000Y-4430000D02*
X9580000Y-4470000D01*
X9580000Y-4430000D02*
X9540000Y-4470000D01*
X9760000Y-7150000D02*
X9800000Y-7190000D01*
X9800000Y-7150000D02*
X9760000Y-7190000D01*
X10090000Y-5680000D02*
X10130000Y-5720000D01*
X10130000Y-5680000D02*
X10090000Y-5720000D01*
X10100000Y-5140000D02*
X10140000Y-5180000D01*
X10140000Y-5140000D02*
X10100000Y-5180000D01*
X10100000Y-6250000D02*
X10140000Y-6290000D01*
X10140000Y-6250000D02*
X10100000Y-6290000D01*
X10190000Y-8220000D02*
X10230000Y-8260000D01*
X10230000Y-8220000D02*
X10190000Y-8260000D01*
X10420000Y-7340000D02*
X10460000Y-7380000D01*
X10460000Y-7340000D02*
X10420000Y-7380000D01*
X10450000Y-6570000D02*
X10490000Y-6610000D01*
X10490000Y-6570000D02*
X10450000Y-6610000D01*
X10460000Y-4470000D02*
X10500000Y-4510000D01*
X10500000Y-4470000D02*
X10460000Y-4510000D01*
X10640000Y-5830000D02*
X10680000Y-5870000D01*
X10680000Y-5830000D02*
X10640000Y-5870000D01*
X10730000Y-3950000D02*
X10770000Y-3990000D01*
X10770000Y-3950000D02*
X10730000Y-3990000D01*
X11080000Y-8530000D02*
X11120000Y-8570000D01*
X11120000Y-8530000D02*
X11080000Y-8570000D01*
X11180000Y-7690000D02*
X11220000Y-7730000D01*
X11220000Y-7690000D02*
X11180000Y-7730000D01*
X11230000Y-5920000D02*
X11270000Y-5960000D01*
X11270000Y-5920000D02*
X11230000Y-5960000D01*
X11330000Y-4800000D02*
X11370000Y-4840000D01*
X11370000Y-4800000D02*
X11330000Y-4840000D01*
X11570000Y-5880000D02*
X11610000Y-5920000D01*
X11610000Y-5880000D02*
X11570000Y-5920000D01*
X11580000Y-4460000D02*
X11620000Y-4500000D01*
X11620000Y-4460000D02*
X11580000Y-4500000D01*
X11610000Y-4810000D02*
X11650000Y-4850000D01*
X11650000Y-4810000D02*
X11610000Y-4850000D01*
X11650000Y-8080000D02*
X11690000Y-8120000D01*
X11690000Y-8080000D02*
X11650000Y-8120000D01*
X11680000Y-6300000D02*
X11720000Y-6340000D01*
X11720000Y-6300000D02*
X11680000Y-6340000D01*
X11780000Y-7330000D02*
X11820000Y-7370000D01*
X11820000Y-7330000D02*
X11780000Y-7370000D01*
X11790000Y-5180000D02*
X11830000Y-5220000D01*
X11830000Y-5180000D02*
X11790000Y-5220000D01*
X11840000Y-7550000D02*
X11880000Y-7590000D01*
X11880000Y-7550000D02*
X11840000Y-7590000D01*
X12050000Y-3960000D02*
X12090000Y-4000000D01*
X12090000Y-3960000D02*
X12050000Y-4000000D01*
X12246000Y-7387000D02*
X12286000Y-7427000D01*
X12286000Y-7387000D02*
X12246000Y-7427000D01*
X12290000Y-5195450D02*
X12330000Y-5235450D01*
X12330000Y-5195450D02*
X12290000Y-5235450D01*
X12370000Y-4770000D02*
X12410000Y-4810000D01*
X12410000Y-4770000D02*
X12370000Y-4810000D01*
X12520000Y-6350000D02*
X12560000Y-6390000D01*
X12560000Y-6350000D02*
X12520000Y-6390000D01*
X12635000Y-8205000D02*
X12675000Y-8245000D01*
X12675000Y-8205000D02*
X12635000Y-8245000D01*
X12730000Y-4130000D02*
X12770000Y-4170000D01*
X12770000Y-4130000D02*
X12730000Y-4170000D01*
X12860000Y-5070000D02*
X12900000Y-5110000D01*
X12900000Y-5070000D02*
X12860000Y-5110000D01*
X12935000Y-6730000D02*
X12975000Y-6770000D01*
X12975000Y-6730000D02*
X12935000Y-6770000D01*
X13110000Y-4610000D02*
X13150000Y-4650000D01*
X13150000Y-4610000D02*
X13110000Y-4650000D01*
X13121000Y-6232000D02*
X13161000Y-6272000D01*
X13161000Y-6232000D02*
X13121000Y-6272000D01*
X13141000Y-4282000D02*
X13181000Y-4322000D01*
X13181000Y-4282000D02*
X13141000Y-4322000D01*
X13191000Y-5482000D02*
X13231000Y-5522000D01*
X13231000Y-5482000D02*
X13191000Y-5522000D01*
X13316000Y-4957000D02*
X13356000Y-4997000D01*
X13356000Y-4957000D02*
X13316000Y-4997000D01*
X13325000Y-8500000D02*
X13365000Y-8540000D01*
X13365000Y-8500000D02*
X13325000Y-8540000D01*
X13345000Y-7550000D02*
X13385000Y-7590000D01*
X13385000Y-7550000D02*
X13345000Y-7590000D01*
X13600000Y-4110000D02*
X13640000Y-4150000D01*
X13640000Y-4110000D02*
X13600000Y-4150000D01*
X13820000Y-6700000D02*
X13860000Y-6740000D01*
X13860000Y-6700000D02*
X13820000Y-6740000D01*
X13850000Y-5070000D02*
X13890000Y-5110000D01*
X13890000Y-5070000D02*
X13850000Y-5110000D01*
D13*
X9825000Y-5180000D02*
G75*
G03*
X9825000Y-5180000I-35000J0D01*
G01*
X10587000Y-5180000D02*
G75*
G03*
X10587000Y-5180000I-35000J0D01*
G01*
X10795000Y-5180000D02*
G75*
G03*
X10795000Y-5180000I-35000J0D01*
G01*
X11557000Y-5180000D02*
G75*
G03*
X11557000Y-5180000I-35000J0D01*
G01*
D10*
X9870000Y-5430000D02*
X9870000Y-5530000D01*
X9820000Y-5480000D02*
X9920000Y-5480000D01*
X9885500Y-4687000D02*
X9885500Y-4787000D01*
X9835500Y-4737000D02*
X9935500Y-4737000D01*
X9890000Y-4190000D02*
X9890000Y-4290000D01*
X9840000Y-4240000D02*
X9940000Y-4240000D01*
X10124000Y-5430000D02*
X10124000Y-5530000D01*
X10074000Y-5480000D02*
X10174000Y-5480000D01*
X10139500Y-4687000D02*
X10139500Y-4787000D01*
X10089500Y-4737000D02*
X10189500Y-4737000D01*
X10144000Y-4190000D02*
X10144000Y-4290000D01*
X10094000Y-4240000D02*
X10194000Y-4240000D01*
X10378000Y-5430000D02*
X10378000Y-5530000D01*
X10328000Y-5480000D02*
X10428000Y-5480000D01*
X10393500Y-4687000D02*
X10393500Y-4787000D01*
X10343500Y-4737000D02*
X10443500Y-4737000D01*
X10398000Y-4190000D02*
X10398000Y-4290000D01*
X10348000Y-4240000D02*
X10448000Y-4240000D01*
X10632000Y-5430000D02*
X10632000Y-5530000D01*
X10582000Y-5480000D02*
X10682000Y-5480000D01*
X10647500Y-4687000D02*
X10647500Y-4787000D01*
X10597500Y-4737000D02*
X10697500Y-4737000D01*
X10652000Y-4190000D02*
X10652000Y-4290000D01*
X10602000Y-4240000D02*
X10702000Y-4240000D01*
X10886000Y-5430000D02*
X10886000Y-5530000D01*
X10836000Y-5480000D02*
X10936000Y-5480000D01*
X11043500Y-4682000D02*
X11043500Y-4782000D01*
X10993500Y-4732000D02*
X11093500Y-4732000D01*
X11096000Y-4190000D02*
X11096000Y-4290000D01*
X11046000Y-4240000D02*
X11146000Y-4240000D01*
X11140000Y-5430000D02*
X11140000Y-5530000D01*
X11090000Y-5480000D02*
X11190000Y-5480000D01*
X11350000Y-4190000D02*
X11350000Y-4290000D01*
X11300000Y-4240000D02*
X11400000Y-4240000D01*
X11394000Y-5430000D02*
X11394000Y-5530000D01*
X11344000Y-5480000D02*
X11444000Y-5480000D01*
X11648000Y-5430000D02*
X11648000Y-5530000D01*
X11598000Y-5480000D02*
X11698000Y-5480000D01*
X12046000Y-4402000D02*
X12046000Y-4502000D01*
X11996000Y-4452000D02*
X12096000Y-4452000D01*
X12046000Y-4656000D02*
X12046000Y-4756000D01*
X11996000Y-4706000D02*
X12096000Y-4706000D01*
X12046000Y-4910000D02*
X12046000Y-5010000D01*
X11996000Y-4960000D02*
X12096000Y-4960000D01*
X12046000Y-5164000D02*
X12046000Y-5264000D01*
X11996000Y-5214000D02*
X12096000Y-5214000D01*
X12046000Y-5418000D02*
X12046000Y-5518000D01*
X11996000Y-5468000D02*
X12096000Y-5468000D01*
X12046000Y-5672000D02*
X12046000Y-5772000D01*
X11996000Y-5722000D02*
X12096000Y-5722000D01*
X12046000Y-5926000D02*
X12046000Y-6026000D01*
X11996000Y-5976000D02*
X12096000Y-5976000D01*
X12046000Y-6180000D02*
X12046000Y-6280000D01*
X11996000Y-6230000D02*
X12096000Y-6230000D01*
X12046000Y-6434000D02*
X12046000Y-6534000D01*
X11996000Y-6484000D02*
X12096000Y-6484000D01*
X12046000Y-6688000D02*
X12046000Y-6788000D01*
X11996000Y-6738000D02*
X12096000Y-6738000D01*
X12046000Y-6942000D02*
X12046000Y-7042000D01*
X11996000Y-6992000D02*
X12096000Y-6992000D01*
X12046000Y-7196000D02*
X12046000Y-7296000D01*
X11996000Y-7246000D02*
X12096000Y-7246000D01*
X12046000Y-7450000D02*
X12046000Y-7550000D01*
X11996000Y-7500000D02*
X12096000Y-7500000D01*
X12046000Y-7704000D02*
X12046000Y-7804000D01*
X11996000Y-7754000D02*
X12096000Y-7754000D01*
X12046000Y-7958000D02*
X12046000Y-8058000D01*
X11996000Y-8008000D02*
X12096000Y-8008000D01*
X13570000Y-4402000D02*
X13570000Y-4502000D01*
X13520000Y-4452000D02*
X13620000Y-4452000D01*
X13570000Y-4656000D02*
X13570000Y-4756000D01*
X13520000Y-4706000D02*
X13620000Y-4706000D01*
X13570000Y-4910000D02*
X13570000Y-5010000D01*
X13520000Y-4960000D02*
X13620000Y-4960000D01*
X13570000Y-5164000D02*
X13570000Y-5264000D01*
X13520000Y-5214000D02*
X13620000Y-5214000D01*
X13570000Y-5418000D02*
X13570000Y-5518000D01*
X13520000Y-5468000D02*
X13620000Y-5468000D01*
X13570000Y-5672000D02*
X13570000Y-5772000D01*
X13520000Y-5722000D02*
X13620000Y-5722000D01*
X13570000Y-5926000D02*
X13570000Y-6026000D01*
X13520000Y-5976000D02*
X13620000Y-5976000D01*
X13570000Y-6180000D02*
X13570000Y-6280000D01*
X13520000Y-6230000D02*
X13620000Y-6230000D01*
X13570000Y-6434000D02*
X13570000Y-6534000D01*
X13520000Y-6484000D02*
X13620000Y-6484000D01*
X13570000Y-6688000D02*
X13570000Y-6788000D01*
X13520000Y-6738000D02*
X13620000Y-6738000D01*
X13570000Y-6942000D02*
X13570000Y-7042000D01*
X13520000Y-6992000D02*
X13620000Y-6992000D01*
X13570000Y-7196000D02*
X13570000Y-7296000D01*
X13520000Y-7246000D02*
X13620000Y-7246000D01*
X13570000Y-7450000D02*
X13570000Y-7550000D01*
X13520000Y-7500000D02*
X13620000Y-7500000D01*
X13570000Y-7704000D02*
X13570000Y-7804000D01*
X13520000Y-7754000D02*
X13620000Y-7754000D01*
X13570000Y-7958000D02*
X13570000Y-8058000D01*
X13520000Y-8008000D02*
X13620000Y-8008000D01*
D11*
X8863976Y-10338095D02*
X8863976Y-10138095D01*
X8863976Y-10138095D02*
X8911595Y-10138095D01*
X8911595Y-10138095D02*
X8940166Y-10147619D01*
X8940166Y-10147619D02*
X8959214Y-10166666D01*
X8959214Y-10166666D02*
X8968738Y-10185714D01*
X8968738Y-10185714D02*
X8978261Y-10223809D01*
X8978261Y-10223809D02*
X8978261Y-10252381D01*
X8978261Y-10252381D02*
X8968738Y-10290476D01*
X8968738Y-10290476D02*
X8959214Y-10309523D01*
X8959214Y-10309523D02*
X8940166Y-10328571D01*
X8940166Y-10328571D02*
X8911595Y-10338095D01*
X8911595Y-10338095D02*
X8863976Y-10338095D01*
X9063976Y-10338095D02*
X9063976Y-10204762D01*
X9063976Y-10242857D02*
X9073500Y-10223809D01*
X9073500Y-10223809D02*
X9083023Y-10214285D01*
X9083023Y-10214285D02*
X9102071Y-10204762D01*
X9102071Y-10204762D02*
X9121119Y-10204762D01*
X9187785Y-10338095D02*
X9187785Y-10204762D01*
X9187785Y-10138095D02*
X9178261Y-10147619D01*
X9178261Y-10147619D02*
X9187785Y-10157143D01*
X9187785Y-10157143D02*
X9197309Y-10147619D01*
X9197309Y-10147619D02*
X9187785Y-10138095D01*
X9187785Y-10138095D02*
X9187785Y-10157143D01*
X9311595Y-10338095D02*
X9292547Y-10328571D01*
X9292547Y-10328571D02*
X9283023Y-10309523D01*
X9283023Y-10309523D02*
X9283023Y-10138095D01*
X9416357Y-10338095D02*
X9397309Y-10328571D01*
X9397309Y-10328571D02*
X9387785Y-10309523D01*
X9387785Y-10309523D02*
X9387785Y-10138095D01*
X9644928Y-10338095D02*
X9644928Y-10138095D01*
X9644928Y-10138095D02*
X9711595Y-10280952D01*
X9711595Y-10280952D02*
X9778261Y-10138095D01*
X9778261Y-10138095D02*
X9778261Y-10338095D01*
X9959214Y-10338095D02*
X9959214Y-10233333D01*
X9959214Y-10233333D02*
X9949690Y-10214285D01*
X9949690Y-10214285D02*
X9930642Y-10204762D01*
X9930642Y-10204762D02*
X9892547Y-10204762D01*
X9892547Y-10204762D02*
X9873500Y-10214285D01*
X9959214Y-10328571D02*
X9940166Y-10338095D01*
X9940166Y-10338095D02*
X9892547Y-10338095D01*
X9892547Y-10338095D02*
X9873500Y-10328571D01*
X9873500Y-10328571D02*
X9863976Y-10309523D01*
X9863976Y-10309523D02*
X9863976Y-10290476D01*
X9863976Y-10290476D02*
X9873500Y-10271428D01*
X9873500Y-10271428D02*
X9892547Y-10261904D01*
X9892547Y-10261904D02*
X9940166Y-10261904D01*
X9940166Y-10261904D02*
X9959214Y-10252381D01*
X10054452Y-10204762D02*
X10054452Y-10404762D01*
X10054452Y-10214285D02*
X10073500Y-10204762D01*
X10073500Y-10204762D02*
X10111595Y-10204762D01*
X10111595Y-10204762D02*
X10130642Y-10214285D01*
X10130642Y-10214285D02*
X10140166Y-10223809D01*
X10140166Y-10223809D02*
X10149690Y-10242857D01*
X10149690Y-10242857D02*
X10149690Y-10300000D01*
X10149690Y-10300000D02*
X10140166Y-10319047D01*
X10140166Y-10319047D02*
X10130642Y-10328571D01*
X10130642Y-10328571D02*
X10111595Y-10338095D01*
X10111595Y-10338095D02*
X10073500Y-10338095D01*
X10073500Y-10338095D02*
X10054452Y-10328571D01*
X10235404Y-10319047D02*
X10244928Y-10328571D01*
X10244928Y-10328571D02*
X10235404Y-10338095D01*
X10235404Y-10338095D02*
X10225881Y-10328571D01*
X10225881Y-10328571D02*
X10235404Y-10319047D01*
X10235404Y-10319047D02*
X10235404Y-10338095D01*
X10235404Y-10214285D02*
X10244928Y-10223809D01*
X10244928Y-10223809D02*
X10235404Y-10233333D01*
X10235404Y-10233333D02*
X10225881Y-10223809D01*
X10225881Y-10223809D02*
X10235404Y-10214285D01*
X10235404Y-10214285D02*
X10235404Y-10233333D01*
D12*
X8563199Y-10646611D02*
X8603199Y-10686611D01*
X8603199Y-10646611D02*
X8563199Y-10686611D01*
D11*
X8902071Y-10558095D02*
X8921119Y-10558095D01*
X8921119Y-10558095D02*
X8940166Y-10567619D01*
X8940166Y-10567619D02*
X8949690Y-10577143D01*
X8949690Y-10577143D02*
X8959214Y-10596190D01*
X8959214Y-10596190D02*
X8968738Y-10634285D01*
X8968738Y-10634285D02*
X8968738Y-10681904D01*
X8968738Y-10681904D02*
X8959214Y-10720000D01*
X8959214Y-10720000D02*
X8949690Y-10739047D01*
X8949690Y-10739047D02*
X8940166Y-10748571D01*
X8940166Y-10748571D02*
X8921119Y-10758095D01*
X8921119Y-10758095D02*
X8902071Y-10758095D01*
X8902071Y-10758095D02*
X8883023Y-10748571D01*
X8883023Y-10748571D02*
X8873500Y-10739047D01*
X8873500Y-10739047D02*
X8863976Y-10720000D01*
X8863976Y-10720000D02*
X8854452Y-10681904D01*
X8854452Y-10681904D02*
X8854452Y-10634285D01*
X8854452Y-10634285D02*
X8863976Y-10596190D01*
X8863976Y-10596190D02*
X8873500Y-10577143D01*
X8873500Y-10577143D02*
X8883023Y-10567619D01*
X8883023Y-10567619D02*
X8902071Y-10558095D01*
X9054452Y-10739047D02*
X9063976Y-10748571D01*
X9063976Y-10748571D02*
X9054452Y-10758095D01*
X9054452Y-10758095D02*
X9044928Y-10748571D01*
X9044928Y-10748571D02*
X9054452Y-10739047D01*
X9054452Y-10739047D02*
X9054452Y-10758095D01*
X9235404Y-10624762D02*
X9235404Y-10758095D01*
X9187785Y-10548571D02*
X9140166Y-10691428D01*
X9140166Y-10691428D02*
X9263976Y-10691428D01*
X9378261Y-10558095D02*
X9397309Y-10558095D01*
X9397309Y-10558095D02*
X9416357Y-10567619D01*
X9416357Y-10567619D02*
X9425881Y-10577143D01*
X9425881Y-10577143D02*
X9435404Y-10596190D01*
X9435404Y-10596190D02*
X9444928Y-10634285D01*
X9444928Y-10634285D02*
X9444928Y-10681904D01*
X9444928Y-10681904D02*
X9435404Y-10720000D01*
X9435404Y-10720000D02*
X9425881Y-10739047D01*
X9425881Y-10739047D02*
X9416357Y-10748571D01*
X9416357Y-10748571D02*
X9397309Y-10758095D01*
X9397309Y-10758095D02*
X9378261Y-10758095D01*
X9378261Y-10758095D02*
X9359214Y-10748571D01*
X9359214Y-10748571D02*
X9349690Y-10739047D01*
X9349690Y-10739047D02*
X9340166Y-10720000D01*
X9340166Y-10720000D02*
X9330642Y-10681904D01*
X9330642Y-10681904D02*
X9330642Y-10634285D01*
X9330642Y-10634285D02*
X9340166Y-10596190D01*
X9340166Y-10596190D02*
X9349690Y-10577143D01*
X9349690Y-10577143D02*
X9359214Y-10567619D01*
X9359214Y-10567619D02*
X9378261Y-10558095D01*
X9568738Y-10558095D02*
X9587785Y-10558095D01*
X9587785Y-10558095D02*
X9606833Y-10567619D01*
X9606833Y-10567619D02*
X9616357Y-10577143D01*
X9616357Y-10577143D02*
X9625881Y-10596190D01*
X9625881Y-10596190D02*
X9635404Y-10634285D01*
X9635404Y-10634285D02*
X9635404Y-10681904D01*
X9635404Y-10681904D02*
X9625881Y-10720000D01*
X9625881Y-10720000D02*
X9616357Y-10739047D01*
X9616357Y-10739047D02*
X9606833Y-10748571D01*
X9606833Y-10748571D02*
X9587785Y-10758095D01*
X9587785Y-10758095D02*
X9568738Y-10758095D01*
X9568738Y-10758095D02*
X9549690Y-10748571D01*
X9549690Y-10748571D02*
X9540166Y-10739047D01*
X9540166Y-10739047D02*
X9530642Y-10720000D01*
X9530642Y-10720000D02*
X9521119Y-10681904D01*
X9521119Y-10681904D02*
X9521119Y-10634285D01*
X9521119Y-10634285D02*
X9530642Y-10596190D01*
X9530642Y-10596190D02*
X9540166Y-10577143D01*
X9540166Y-10577143D02*
X9549690Y-10567619D01*
X9549690Y-10567619D02*
X9568738Y-10558095D01*
X9721119Y-10758095D02*
X9721119Y-10624762D01*
X9721119Y-10643809D02*
X9730642Y-10634285D01*
X9730642Y-10634285D02*
X9749690Y-10624762D01*
X9749690Y-10624762D02*
X9778262Y-10624762D01*
X9778262Y-10624762D02*
X9797309Y-10634285D01*
X9797309Y-10634285D02*
X9806833Y-10653333D01*
X9806833Y-10653333D02*
X9806833Y-10758095D01*
X9806833Y-10653333D02*
X9816357Y-10634285D01*
X9816357Y-10634285D02*
X9835404Y-10624762D01*
X9835404Y-10624762D02*
X9863976Y-10624762D01*
X9863976Y-10624762D02*
X9883023Y-10634285D01*
X9883023Y-10634285D02*
X9892547Y-10653333D01*
X9892547Y-10653333D02*
X9892547Y-10758095D01*
X9987785Y-10758095D02*
X9987785Y-10624762D01*
X9987785Y-10643809D02*
X9997309Y-10634285D01*
X9997309Y-10634285D02*
X10016357Y-10624762D01*
X10016357Y-10624762D02*
X10044928Y-10624762D01*
X10044928Y-10624762D02*
X10063976Y-10634285D01*
X10063976Y-10634285D02*
X10073500Y-10653333D01*
X10073500Y-10653333D02*
X10073500Y-10758095D01*
X10073500Y-10653333D02*
X10083023Y-10634285D01*
X10083023Y-10634285D02*
X10102071Y-10624762D01*
X10102071Y-10624762D02*
X10130642Y-10624762D01*
X10130642Y-10624762D02*
X10149690Y-10634285D01*
X10149690Y-10634285D02*
X10159214Y-10653333D01*
X10159214Y-10653333D02*
X10159214Y-10758095D01*
X10549690Y-10548571D02*
X10378262Y-10805714D01*
X10806833Y-10558095D02*
X10825881Y-10558095D01*
X10825881Y-10558095D02*
X10844928Y-10567619D01*
X10844928Y-10567619D02*
X10854452Y-10577143D01*
X10854452Y-10577143D02*
X10863976Y-10596190D01*
X10863976Y-10596190D02*
X10873500Y-10634285D01*
X10873500Y-10634285D02*
X10873500Y-10681904D01*
X10873500Y-10681904D02*
X10863976Y-10720000D01*
X10863976Y-10720000D02*
X10854452Y-10739047D01*
X10854452Y-10739047D02*
X10844928Y-10748571D01*
X10844928Y-10748571D02*
X10825881Y-10758095D01*
X10825881Y-10758095D02*
X10806833Y-10758095D01*
X10806833Y-10758095D02*
X10787785Y-10748571D01*
X10787785Y-10748571D02*
X10778262Y-10739047D01*
X10778262Y-10739047D02*
X10768738Y-10720000D01*
X10768738Y-10720000D02*
X10759214Y-10681904D01*
X10759214Y-10681904D02*
X10759214Y-10634285D01*
X10759214Y-10634285D02*
X10768738Y-10596190D01*
X10768738Y-10596190D02*
X10778262Y-10577143D01*
X10778262Y-10577143D02*
X10787785Y-10567619D01*
X10787785Y-10567619D02*
X10806833Y-10558095D01*
X10959214Y-10739047D02*
X10968738Y-10748571D01*
X10968738Y-10748571D02*
X10959214Y-10758095D01*
X10959214Y-10758095D02*
X10949690Y-10748571D01*
X10949690Y-10748571D02*
X10959214Y-10739047D01*
X10959214Y-10739047D02*
X10959214Y-10758095D01*
X11092547Y-10558095D02*
X11111595Y-10558095D01*
X11111595Y-10558095D02*
X11130643Y-10567619D01*
X11130643Y-10567619D02*
X11140166Y-10577143D01*
X11140166Y-10577143D02*
X11149690Y-10596190D01*
X11149690Y-10596190D02*
X11159214Y-10634285D01*
X11159214Y-10634285D02*
X11159214Y-10681904D01*
X11159214Y-10681904D02*
X11149690Y-10720000D01*
X11149690Y-10720000D02*
X11140166Y-10739047D01*
X11140166Y-10739047D02*
X11130643Y-10748571D01*
X11130643Y-10748571D02*
X11111595Y-10758095D01*
X11111595Y-10758095D02*
X11092547Y-10758095D01*
X11092547Y-10758095D02*
X11073500Y-10748571D01*
X11073500Y-10748571D02*
X11063976Y-10739047D01*
X11063976Y-10739047D02*
X11054452Y-10720000D01*
X11054452Y-10720000D02*
X11044928Y-10681904D01*
X11044928Y-10681904D02*
X11044928Y-10634285D01*
X11044928Y-10634285D02*
X11054452Y-10596190D01*
X11054452Y-10596190D02*
X11063976Y-10577143D01*
X11063976Y-10577143D02*
X11073500Y-10567619D01*
X11073500Y-10567619D02*
X11092547Y-10558095D01*
X11349690Y-10758095D02*
X11235404Y-10758095D01*
X11292547Y-10758095D02*
X11292547Y-10558095D01*
X11292547Y-10558095D02*
X11273500Y-10586666D01*
X11273500Y-10586666D02*
X11254452Y-10605714D01*
X11254452Y-10605714D02*
X11235404Y-10615238D01*
X11530643Y-10558095D02*
X11435404Y-10558095D01*
X11435404Y-10558095D02*
X11425881Y-10653333D01*
X11425881Y-10653333D02*
X11435404Y-10643809D01*
X11435404Y-10643809D02*
X11454452Y-10634285D01*
X11454452Y-10634285D02*
X11502071Y-10634285D01*
X11502071Y-10634285D02*
X11521119Y-10643809D01*
X11521119Y-10643809D02*
X11530643Y-10653333D01*
X11530643Y-10653333D02*
X11540166Y-10672381D01*
X11540166Y-10672381D02*
X11540166Y-10720000D01*
X11540166Y-10720000D02*
X11530643Y-10739047D01*
X11530643Y-10739047D02*
X11521119Y-10748571D01*
X11521119Y-10748571D02*
X11502071Y-10758095D01*
X11502071Y-10758095D02*
X11454452Y-10758095D01*
X11454452Y-10758095D02*
X11435404Y-10748571D01*
X11435404Y-10748571D02*
X11425881Y-10739047D01*
X11606833Y-10558095D02*
X11740166Y-10558095D01*
X11740166Y-10558095D02*
X11654452Y-10758095D01*
X11806833Y-10558095D02*
X11806833Y-10596190D01*
X11883024Y-10558095D02*
X11883024Y-10596190D01*
X12178262Y-10834285D02*
X12168738Y-10824762D01*
X12168738Y-10824762D02*
X12149690Y-10796190D01*
X12149690Y-10796190D02*
X12140166Y-10777143D01*
X12140166Y-10777143D02*
X12130643Y-10748571D01*
X12130643Y-10748571D02*
X12121119Y-10700952D01*
X12121119Y-10700952D02*
X12121119Y-10662857D01*
X12121119Y-10662857D02*
X12130643Y-10615238D01*
X12130643Y-10615238D02*
X12140166Y-10586666D01*
X12140166Y-10586666D02*
X12149690Y-10567619D01*
X12149690Y-10567619D02*
X12168738Y-10539047D01*
X12168738Y-10539047D02*
X12178262Y-10529523D01*
X12340166Y-10624762D02*
X12340166Y-10758095D01*
X12292547Y-10548571D02*
X12244928Y-10691428D01*
X12244928Y-10691428D02*
X12368738Y-10691428D01*
X12435405Y-10577143D02*
X12444928Y-10567619D01*
X12444928Y-10567619D02*
X12463976Y-10558095D01*
X12463976Y-10558095D02*
X12511595Y-10558095D01*
X12511595Y-10558095D02*
X12530643Y-10567619D01*
X12530643Y-10567619D02*
X12540166Y-10577143D01*
X12540166Y-10577143D02*
X12549690Y-10596190D01*
X12549690Y-10596190D02*
X12549690Y-10615238D01*
X12549690Y-10615238D02*
X12540166Y-10643809D01*
X12540166Y-10643809D02*
X12425881Y-10758095D01*
X12425881Y-10758095D02*
X12549690Y-10758095D01*
X12787786Y-10758095D02*
X12787786Y-10558095D01*
X12873500Y-10758095D02*
X12873500Y-10653333D01*
X12873500Y-10653333D02*
X12863976Y-10634285D01*
X12863976Y-10634285D02*
X12844928Y-10624762D01*
X12844928Y-10624762D02*
X12816357Y-10624762D01*
X12816357Y-10624762D02*
X12797309Y-10634285D01*
X12797309Y-10634285D02*
X12787786Y-10643809D01*
X12997309Y-10758095D02*
X12978262Y-10748571D01*
X12978262Y-10748571D02*
X12968738Y-10739047D01*
X12968738Y-10739047D02*
X12959214Y-10720000D01*
X12959214Y-10720000D02*
X12959214Y-10662857D01*
X12959214Y-10662857D02*
X12968738Y-10643809D01*
X12968738Y-10643809D02*
X12978262Y-10634285D01*
X12978262Y-10634285D02*
X12997309Y-10624762D01*
X12997309Y-10624762D02*
X13025881Y-10624762D01*
X13025881Y-10624762D02*
X13044928Y-10634285D01*
X13044928Y-10634285D02*
X13054452Y-10643809D01*
X13054452Y-10643809D02*
X13063976Y-10662857D01*
X13063976Y-10662857D02*
X13063976Y-10720000D01*
X13063976Y-10720000D02*
X13054452Y-10739047D01*
X13054452Y-10739047D02*
X13044928Y-10748571D01*
X13044928Y-10748571D02*
X13025881Y-10758095D01*
X13025881Y-10758095D02*
X12997309Y-10758095D01*
X13178262Y-10758095D02*
X13159214Y-10748571D01*
X13159214Y-10748571D02*
X13149690Y-10729523D01*
X13149690Y-10729523D02*
X13149690Y-10558095D01*
X13330643Y-10748571D02*
X13311595Y-10758095D01*
X13311595Y-10758095D02*
X13273500Y-10758095D01*
X13273500Y-10758095D02*
X13254452Y-10748571D01*
X13254452Y-10748571D02*
X13244928Y-10729523D01*
X13244928Y-10729523D02*
X13244928Y-10653333D01*
X13244928Y-10653333D02*
X13254452Y-10634285D01*
X13254452Y-10634285D02*
X13273500Y-10624762D01*
X13273500Y-10624762D02*
X13311595Y-10624762D01*
X13311595Y-10624762D02*
X13330643Y-10634285D01*
X13330643Y-10634285D02*
X13340167Y-10653333D01*
X13340167Y-10653333D02*
X13340167Y-10672381D01*
X13340167Y-10672381D02*
X13244928Y-10691428D01*
X13416357Y-10748571D02*
X13435405Y-10758095D01*
X13435405Y-10758095D02*
X13473500Y-10758095D01*
X13473500Y-10758095D02*
X13492548Y-10748571D01*
X13492548Y-10748571D02*
X13502071Y-10729523D01*
X13502071Y-10729523D02*
X13502071Y-10720000D01*
X13502071Y-10720000D02*
X13492548Y-10700952D01*
X13492548Y-10700952D02*
X13473500Y-10691428D01*
X13473500Y-10691428D02*
X13444928Y-10691428D01*
X13444928Y-10691428D02*
X13425881Y-10681904D01*
X13425881Y-10681904D02*
X13416357Y-10662857D01*
X13416357Y-10662857D02*
X13416357Y-10653333D01*
X13416357Y-10653333D02*
X13425881Y-10634285D01*
X13425881Y-10634285D02*
X13444928Y-10624762D01*
X13444928Y-10624762D02*
X13473500Y-10624762D01*
X13473500Y-10624762D02*
X13492548Y-10634285D01*
X13568738Y-10834285D02*
X13578262Y-10824762D01*
X13578262Y-10824762D02*
X13597309Y-10796190D01*
X13597309Y-10796190D02*
X13606833Y-10777143D01*
X13606833Y-10777143D02*
X13616357Y-10748571D01*
X13616357Y-10748571D02*
X13625881Y-10700952D01*
X13625881Y-10700952D02*
X13625881Y-10662857D01*
X13625881Y-10662857D02*
X13616357Y-10615238D01*
X13616357Y-10615238D02*
X13606833Y-10586666D01*
X13606833Y-10586666D02*
X13597309Y-10567619D01*
X13597309Y-10567619D02*
X13578262Y-10539047D01*
X13578262Y-10539047D02*
X13568738Y-10529523D01*
D13*
X8603199Y-10930611D02*
G75*
G03*
X8603199Y-10930611I-35000J0D01*
G01*
D11*
X8902071Y-10822095D02*
X8921119Y-10822095D01*
X8921119Y-10822095D02*
X8940166Y-10831619D01*
X8940166Y-10831619D02*
X8949690Y-10841143D01*
X8949690Y-10841143D02*
X8959214Y-10860190D01*
X8959214Y-10860190D02*
X8968738Y-10898285D01*
X8968738Y-10898285D02*
X8968738Y-10945904D01*
X8968738Y-10945904D02*
X8959214Y-10984000D01*
X8959214Y-10984000D02*
X8949690Y-11003047D01*
X8949690Y-11003047D02*
X8940166Y-11012571D01*
X8940166Y-11012571D02*
X8921119Y-11022095D01*
X8921119Y-11022095D02*
X8902071Y-11022095D01*
X8902071Y-11022095D02*
X8883023Y-11012571D01*
X8883023Y-11012571D02*
X8873500Y-11003047D01*
X8873500Y-11003047D02*
X8863976Y-10984000D01*
X8863976Y-10984000D02*
X8854452Y-10945904D01*
X8854452Y-10945904D02*
X8854452Y-10898285D01*
X8854452Y-10898285D02*
X8863976Y-10860190D01*
X8863976Y-10860190D02*
X8873500Y-10841143D01*
X8873500Y-10841143D02*
X8883023Y-10831619D01*
X8883023Y-10831619D02*
X8902071Y-10822095D01*
X9054452Y-11003047D02*
X9063976Y-11012571D01*
X9063976Y-11012571D02*
X9054452Y-11022095D01*
X9054452Y-11022095D02*
X9044928Y-11012571D01*
X9044928Y-11012571D02*
X9054452Y-11003047D01*
X9054452Y-11003047D02*
X9054452Y-11022095D01*
X9130642Y-10822095D02*
X9263976Y-10822095D01*
X9263976Y-10822095D02*
X9178261Y-11022095D01*
X9378261Y-10822095D02*
X9397309Y-10822095D01*
X9397309Y-10822095D02*
X9416357Y-10831619D01*
X9416357Y-10831619D02*
X9425881Y-10841143D01*
X9425881Y-10841143D02*
X9435404Y-10860190D01*
X9435404Y-10860190D02*
X9444928Y-10898285D01*
X9444928Y-10898285D02*
X9444928Y-10945904D01*
X9444928Y-10945904D02*
X9435404Y-10984000D01*
X9435404Y-10984000D02*
X9425881Y-11003047D01*
X9425881Y-11003047D02*
X9416357Y-11012571D01*
X9416357Y-11012571D02*
X9397309Y-11022095D01*
X9397309Y-11022095D02*
X9378261Y-11022095D01*
X9378261Y-11022095D02*
X9359214Y-11012571D01*
X9359214Y-11012571D02*
X9349690Y-11003047D01*
X9349690Y-11003047D02*
X9340166Y-10984000D01*
X9340166Y-10984000D02*
X9330642Y-10945904D01*
X9330642Y-10945904D02*
X9330642Y-10898285D01*
X9330642Y-10898285D02*
X9340166Y-10860190D01*
X9340166Y-10860190D02*
X9349690Y-10841143D01*
X9349690Y-10841143D02*
X9359214Y-10831619D01*
X9359214Y-10831619D02*
X9378261Y-10822095D01*
X9568738Y-10822095D02*
X9587785Y-10822095D01*
X9587785Y-10822095D02*
X9606833Y-10831619D01*
X9606833Y-10831619D02*
X9616357Y-10841143D01*
X9616357Y-10841143D02*
X9625881Y-10860190D01*
X9625881Y-10860190D02*
X9635404Y-10898285D01*
X9635404Y-10898285D02*
X9635404Y-10945904D01*
X9635404Y-10945904D02*
X9625881Y-10984000D01*
X9625881Y-10984000D02*
X9616357Y-11003047D01*
X9616357Y-11003047D02*
X9606833Y-11012571D01*
X9606833Y-11012571D02*
X9587785Y-11022095D01*
X9587785Y-11022095D02*
X9568738Y-11022095D01*
X9568738Y-11022095D02*
X9549690Y-11012571D01*
X9549690Y-11012571D02*
X9540166Y-11003047D01*
X9540166Y-11003047D02*
X9530642Y-10984000D01*
X9530642Y-10984000D02*
X9521119Y-10945904D01*
X9521119Y-10945904D02*
X9521119Y-10898285D01*
X9521119Y-10898285D02*
X9530642Y-10860190D01*
X9530642Y-10860190D02*
X9540166Y-10841143D01*
X9540166Y-10841143D02*
X9549690Y-10831619D01*
X9549690Y-10831619D02*
X9568738Y-10822095D01*
X9721119Y-11022095D02*
X9721119Y-10888762D01*
X9721119Y-10907809D02*
X9730642Y-10898285D01*
X9730642Y-10898285D02*
X9749690Y-10888762D01*
X9749690Y-10888762D02*
X9778262Y-10888762D01*
X9778262Y-10888762D02*
X9797309Y-10898285D01*
X9797309Y-10898285D02*
X9806833Y-10917333D01*
X9806833Y-10917333D02*
X9806833Y-11022095D01*
X9806833Y-10917333D02*
X9816357Y-10898285D01*
X9816357Y-10898285D02*
X9835404Y-10888762D01*
X9835404Y-10888762D02*
X9863976Y-10888762D01*
X9863976Y-10888762D02*
X9883023Y-10898285D01*
X9883023Y-10898285D02*
X9892547Y-10917333D01*
X9892547Y-10917333D02*
X9892547Y-11022095D01*
X9987785Y-11022095D02*
X9987785Y-10888762D01*
X9987785Y-10907809D02*
X9997309Y-10898285D01*
X9997309Y-10898285D02*
X10016357Y-10888762D01*
X10016357Y-10888762D02*
X10044928Y-10888762D01*
X10044928Y-10888762D02*
X10063976Y-10898285D01*
X10063976Y-10898285D02*
X10073500Y-10917333D01*
X10073500Y-10917333D02*
X10073500Y-11022095D01*
X10073500Y-10917333D02*
X10083023Y-10898285D01*
X10083023Y-10898285D02*
X10102071Y-10888762D01*
X10102071Y-10888762D02*
X10130642Y-10888762D01*
X10130642Y-10888762D02*
X10149690Y-10898285D01*
X10149690Y-10898285D02*
X10159214Y-10917333D01*
X10159214Y-10917333D02*
X10159214Y-11022095D01*
X10549690Y-10812571D02*
X10378262Y-11069714D01*
X10806833Y-10822095D02*
X10825881Y-10822095D01*
X10825881Y-10822095D02*
X10844928Y-10831619D01*
X10844928Y-10831619D02*
X10854452Y-10841143D01*
X10854452Y-10841143D02*
X10863976Y-10860190D01*
X10863976Y-10860190D02*
X10873500Y-10898285D01*
X10873500Y-10898285D02*
X10873500Y-10945904D01*
X10873500Y-10945904D02*
X10863976Y-10984000D01*
X10863976Y-10984000D02*
X10854452Y-11003047D01*
X10854452Y-11003047D02*
X10844928Y-11012571D01*
X10844928Y-11012571D02*
X10825881Y-11022095D01*
X10825881Y-11022095D02*
X10806833Y-11022095D01*
X10806833Y-11022095D02*
X10787785Y-11012571D01*
X10787785Y-11012571D02*
X10778262Y-11003047D01*
X10778262Y-11003047D02*
X10768738Y-10984000D01*
X10768738Y-10984000D02*
X10759214Y-10945904D01*
X10759214Y-10945904D02*
X10759214Y-10898285D01*
X10759214Y-10898285D02*
X10768738Y-10860190D01*
X10768738Y-10860190D02*
X10778262Y-10841143D01*
X10778262Y-10841143D02*
X10787785Y-10831619D01*
X10787785Y-10831619D02*
X10806833Y-10822095D01*
X10959214Y-11003047D02*
X10968738Y-11012571D01*
X10968738Y-11012571D02*
X10959214Y-11022095D01*
X10959214Y-11022095D02*
X10949690Y-11012571D01*
X10949690Y-11012571D02*
X10959214Y-11003047D01*
X10959214Y-11003047D02*
X10959214Y-11022095D01*
X11092547Y-10822095D02*
X11111595Y-10822095D01*
X11111595Y-10822095D02*
X11130643Y-10831619D01*
X11130643Y-10831619D02*
X11140166Y-10841143D01*
X11140166Y-10841143D02*
X11149690Y-10860190D01*
X11149690Y-10860190D02*
X11159214Y-10898285D01*
X11159214Y-10898285D02*
X11159214Y-10945904D01*
X11159214Y-10945904D02*
X11149690Y-10984000D01*
X11149690Y-10984000D02*
X11140166Y-11003047D01*
X11140166Y-11003047D02*
X11130643Y-11012571D01*
X11130643Y-11012571D02*
X11111595Y-11022095D01*
X11111595Y-11022095D02*
X11092547Y-11022095D01*
X11092547Y-11022095D02*
X11073500Y-11012571D01*
X11073500Y-11012571D02*
X11063976Y-11003047D01*
X11063976Y-11003047D02*
X11054452Y-10984000D01*
X11054452Y-10984000D02*
X11044928Y-10945904D01*
X11044928Y-10945904D02*
X11044928Y-10898285D01*
X11044928Y-10898285D02*
X11054452Y-10860190D01*
X11054452Y-10860190D02*
X11063976Y-10841143D01*
X11063976Y-10841143D02*
X11073500Y-10831619D01*
X11073500Y-10831619D02*
X11092547Y-10822095D01*
X11235404Y-10841143D02*
X11244928Y-10831619D01*
X11244928Y-10831619D02*
X11263976Y-10822095D01*
X11263976Y-10822095D02*
X11311595Y-10822095D01*
X11311595Y-10822095D02*
X11330643Y-10831619D01*
X11330643Y-10831619D02*
X11340166Y-10841143D01*
X11340166Y-10841143D02*
X11349690Y-10860190D01*
X11349690Y-10860190D02*
X11349690Y-10879238D01*
X11349690Y-10879238D02*
X11340166Y-10907809D01*
X11340166Y-10907809D02*
X11225881Y-11022095D01*
X11225881Y-11022095D02*
X11349690Y-11022095D01*
X11416357Y-10822095D02*
X11549690Y-10822095D01*
X11549690Y-10822095D02*
X11463976Y-11022095D01*
X11711595Y-10822095D02*
X11673500Y-10822095D01*
X11673500Y-10822095D02*
X11654452Y-10831619D01*
X11654452Y-10831619D02*
X11644928Y-10841143D01*
X11644928Y-10841143D02*
X11625881Y-10869714D01*
X11625881Y-10869714D02*
X11616357Y-10907809D01*
X11616357Y-10907809D02*
X11616357Y-10984000D01*
X11616357Y-10984000D02*
X11625881Y-11003047D01*
X11625881Y-11003047D02*
X11635404Y-11012571D01*
X11635404Y-11012571D02*
X11654452Y-11022095D01*
X11654452Y-11022095D02*
X11692547Y-11022095D01*
X11692547Y-11022095D02*
X11711595Y-11012571D01*
X11711595Y-11012571D02*
X11721119Y-11003047D01*
X11721119Y-11003047D02*
X11730643Y-10984000D01*
X11730643Y-10984000D02*
X11730643Y-10936381D01*
X11730643Y-10936381D02*
X11721119Y-10917333D01*
X11721119Y-10917333D02*
X11711595Y-10907809D01*
X11711595Y-10907809D02*
X11692547Y-10898285D01*
X11692547Y-10898285D02*
X11654452Y-10898285D01*
X11654452Y-10898285D02*
X11635404Y-10907809D01*
X11635404Y-10907809D02*
X11625881Y-10917333D01*
X11625881Y-10917333D02*
X11616357Y-10936381D01*
X11806833Y-10822095D02*
X11806833Y-10860190D01*
X11883024Y-10822095D02*
X11883024Y-10860190D01*
X12178262Y-11098285D02*
X12168738Y-11088762D01*
X12168738Y-11088762D02*
X12149690Y-11060190D01*
X12149690Y-11060190D02*
X12140166Y-11041143D01*
X12140166Y-11041143D02*
X12130643Y-11012571D01*
X12130643Y-11012571D02*
X12121119Y-10964952D01*
X12121119Y-10964952D02*
X12121119Y-10926857D01*
X12121119Y-10926857D02*
X12130643Y-10879238D01*
X12130643Y-10879238D02*
X12140166Y-10850666D01*
X12140166Y-10850666D02*
X12149690Y-10831619D01*
X12149690Y-10831619D02*
X12168738Y-10803047D01*
X12168738Y-10803047D02*
X12178262Y-10793523D01*
X12340166Y-10888762D02*
X12340166Y-11022095D01*
X12292547Y-10812571D02*
X12244928Y-10955428D01*
X12244928Y-10955428D02*
X12368738Y-10955428D01*
X12597309Y-11022095D02*
X12597309Y-10822095D01*
X12683024Y-11022095D02*
X12683024Y-10917333D01*
X12683024Y-10917333D02*
X12673500Y-10898285D01*
X12673500Y-10898285D02*
X12654452Y-10888762D01*
X12654452Y-10888762D02*
X12625881Y-10888762D01*
X12625881Y-10888762D02*
X12606833Y-10898285D01*
X12606833Y-10898285D02*
X12597309Y-10907809D01*
X12806833Y-11022095D02*
X12787786Y-11012571D01*
X12787786Y-11012571D02*
X12778262Y-11003047D01*
X12778262Y-11003047D02*
X12768738Y-10984000D01*
X12768738Y-10984000D02*
X12768738Y-10926857D01*
X12768738Y-10926857D02*
X12778262Y-10907809D01*
X12778262Y-10907809D02*
X12787786Y-10898285D01*
X12787786Y-10898285D02*
X12806833Y-10888762D01*
X12806833Y-10888762D02*
X12835405Y-10888762D01*
X12835405Y-10888762D02*
X12854452Y-10898285D01*
X12854452Y-10898285D02*
X12863976Y-10907809D01*
X12863976Y-10907809D02*
X12873500Y-10926857D01*
X12873500Y-10926857D02*
X12873500Y-10984000D01*
X12873500Y-10984000D02*
X12863976Y-11003047D01*
X12863976Y-11003047D02*
X12854452Y-11012571D01*
X12854452Y-11012571D02*
X12835405Y-11022095D01*
X12835405Y-11022095D02*
X12806833Y-11022095D01*
X12987786Y-11022095D02*
X12968738Y-11012571D01*
X12968738Y-11012571D02*
X12959214Y-10993523D01*
X12959214Y-10993523D02*
X12959214Y-10822095D01*
X13140167Y-11012571D02*
X13121119Y-11022095D01*
X13121119Y-11022095D02*
X13083024Y-11022095D01*
X13083024Y-11022095D02*
X13063976Y-11012571D01*
X13063976Y-11012571D02*
X13054452Y-10993523D01*
X13054452Y-10993523D02*
X13054452Y-10917333D01*
X13054452Y-10917333D02*
X13063976Y-10898285D01*
X13063976Y-10898285D02*
X13083024Y-10888762D01*
X13083024Y-10888762D02*
X13121119Y-10888762D01*
X13121119Y-10888762D02*
X13140167Y-10898285D01*
X13140167Y-10898285D02*
X13149690Y-10917333D01*
X13149690Y-10917333D02*
X13149690Y-10936381D01*
X13149690Y-10936381D02*
X13054452Y-10955428D01*
X13225881Y-11012571D02*
X13244928Y-11022095D01*
X13244928Y-11022095D02*
X13283024Y-11022095D01*
X13283024Y-11022095D02*
X13302071Y-11012571D01*
X13302071Y-11012571D02*
X13311595Y-10993523D01*
X13311595Y-10993523D02*
X13311595Y-10984000D01*
X13311595Y-10984000D02*
X13302071Y-10964952D01*
X13302071Y-10964952D02*
X13283024Y-10955428D01*
X13283024Y-10955428D02*
X13254452Y-10955428D01*
X13254452Y-10955428D02*
X13235405Y-10945904D01*
X13235405Y-10945904D02*
X13225881Y-10926857D01*
X13225881Y-10926857D02*
X13225881Y-10917333D01*
X13225881Y-10917333D02*
X13235405Y-10898285D01*
X13235405Y-10898285D02*
X13254452Y-10888762D01*
X13254452Y-10888762D02*
X13283024Y-10888762D01*
X13283024Y-10888762D02*
X13302071Y-10898285D01*
X13378262Y-11098285D02*
X13387786Y-11088762D01*
X13387786Y-11088762D02*
X13406833Y-11060190D01*
X13406833Y-11060190D02*
X13416357Y-11041143D01*
X13416357Y-11041143D02*
X13425881Y-11012571D01*
X13425881Y-11012571D02*
X13435405Y-10964952D01*
X13435405Y-10964952D02*
X13435405Y-10926857D01*
X13435405Y-10926857D02*
X13425881Y-10879238D01*
X13425881Y-10879238D02*
X13416357Y-10850666D01*
X13416357Y-10850666D02*
X13406833Y-10831619D01*
X13406833Y-10831619D02*
X13387786Y-10803047D01*
X13387786Y-10803047D02*
X13378262Y-10793523D01*
D10*
X8553199Y-11144611D02*
X8553199Y-11244611D01*
X8503199Y-11194611D02*
X8603199Y-11194611D01*
D11*
X8968738Y-11286095D02*
X8854452Y-11286095D01*
X8911595Y-11286095D02*
X8911595Y-11086095D01*
X8911595Y-11086095D02*
X8892547Y-11114666D01*
X8892547Y-11114666D02*
X8873500Y-11133714D01*
X8873500Y-11133714D02*
X8854452Y-11143238D01*
X9054452Y-11267047D02*
X9063976Y-11276571D01*
X9063976Y-11276571D02*
X9054452Y-11286095D01*
X9054452Y-11286095D02*
X9044928Y-11276571D01*
X9044928Y-11276571D02*
X9054452Y-11267047D01*
X9054452Y-11267047D02*
X9054452Y-11286095D01*
X9187785Y-11086095D02*
X9206833Y-11086095D01*
X9206833Y-11086095D02*
X9225881Y-11095619D01*
X9225881Y-11095619D02*
X9235404Y-11105143D01*
X9235404Y-11105143D02*
X9244928Y-11124190D01*
X9244928Y-11124190D02*
X9254452Y-11162285D01*
X9254452Y-11162285D02*
X9254452Y-11209904D01*
X9254452Y-11209904D02*
X9244928Y-11248000D01*
X9244928Y-11248000D02*
X9235404Y-11267047D01*
X9235404Y-11267047D02*
X9225881Y-11276571D01*
X9225881Y-11276571D02*
X9206833Y-11286095D01*
X9206833Y-11286095D02*
X9187785Y-11286095D01*
X9187785Y-11286095D02*
X9168738Y-11276571D01*
X9168738Y-11276571D02*
X9159214Y-11267047D01*
X9159214Y-11267047D02*
X9149690Y-11248000D01*
X9149690Y-11248000D02*
X9140166Y-11209904D01*
X9140166Y-11209904D02*
X9140166Y-11162285D01*
X9140166Y-11162285D02*
X9149690Y-11124190D01*
X9149690Y-11124190D02*
X9159214Y-11105143D01*
X9159214Y-11105143D02*
X9168738Y-11095619D01*
X9168738Y-11095619D02*
X9187785Y-11086095D01*
X9378261Y-11086095D02*
X9397309Y-11086095D01*
X9397309Y-11086095D02*
X9416357Y-11095619D01*
X9416357Y-11095619D02*
X9425881Y-11105143D01*
X9425881Y-11105143D02*
X9435404Y-11124190D01*
X9435404Y-11124190D02*
X9444928Y-11162285D01*
X9444928Y-11162285D02*
X9444928Y-11209904D01*
X9444928Y-11209904D02*
X9435404Y-11248000D01*
X9435404Y-11248000D02*
X9425881Y-11267047D01*
X9425881Y-11267047D02*
X9416357Y-11276571D01*
X9416357Y-11276571D02*
X9397309Y-11286095D01*
X9397309Y-11286095D02*
X9378261Y-11286095D01*
X9378261Y-11286095D02*
X9359214Y-11276571D01*
X9359214Y-11276571D02*
X9349690Y-11267047D01*
X9349690Y-11267047D02*
X9340166Y-11248000D01*
X9340166Y-11248000D02*
X9330642Y-11209904D01*
X9330642Y-11209904D02*
X9330642Y-11162285D01*
X9330642Y-11162285D02*
X9340166Y-11124190D01*
X9340166Y-11124190D02*
X9349690Y-11105143D01*
X9349690Y-11105143D02*
X9359214Y-11095619D01*
X9359214Y-11095619D02*
X9378261Y-11086095D01*
X9568738Y-11086095D02*
X9587785Y-11086095D01*
X9587785Y-11086095D02*
X9606833Y-11095619D01*
X9606833Y-11095619D02*
X9616357Y-11105143D01*
X9616357Y-11105143D02*
X9625881Y-11124190D01*
X9625881Y-11124190D02*
X9635404Y-11162285D01*
X9635404Y-11162285D02*
X9635404Y-11209904D01*
X9635404Y-11209904D02*
X9625881Y-11248000D01*
X9625881Y-11248000D02*
X9616357Y-11267047D01*
X9616357Y-11267047D02*
X9606833Y-11276571D01*
X9606833Y-11276571D02*
X9587785Y-11286095D01*
X9587785Y-11286095D02*
X9568738Y-11286095D01*
X9568738Y-11286095D02*
X9549690Y-11276571D01*
X9549690Y-11276571D02*
X9540166Y-11267047D01*
X9540166Y-11267047D02*
X9530642Y-11248000D01*
X9530642Y-11248000D02*
X9521119Y-11209904D01*
X9521119Y-11209904D02*
X9521119Y-11162285D01*
X9521119Y-11162285D02*
X9530642Y-11124190D01*
X9530642Y-11124190D02*
X9540166Y-11105143D01*
X9540166Y-11105143D02*
X9549690Y-11095619D01*
X9549690Y-11095619D02*
X9568738Y-11086095D01*
X9721119Y-11286095D02*
X9721119Y-11152762D01*
X9721119Y-11171809D02*
X9730642Y-11162285D01*
X9730642Y-11162285D02*
X9749690Y-11152762D01*
X9749690Y-11152762D02*
X9778262Y-11152762D01*
X9778262Y-11152762D02*
X9797309Y-11162285D01*
X9797309Y-11162285D02*
X9806833Y-11181333D01*
X9806833Y-11181333D02*
X9806833Y-11286095D01*
X9806833Y-11181333D02*
X9816357Y-11162285D01*
X9816357Y-11162285D02*
X9835404Y-11152762D01*
X9835404Y-11152762D02*
X9863976Y-11152762D01*
X9863976Y-11152762D02*
X9883023Y-11162285D01*
X9883023Y-11162285D02*
X9892547Y-11181333D01*
X9892547Y-11181333D02*
X9892547Y-11286095D01*
X9987785Y-11286095D02*
X9987785Y-11152762D01*
X9987785Y-11171809D02*
X9997309Y-11162285D01*
X9997309Y-11162285D02*
X10016357Y-11152762D01*
X10016357Y-11152762D02*
X10044928Y-11152762D01*
X10044928Y-11152762D02*
X10063976Y-11162285D01*
X10063976Y-11162285D02*
X10073500Y-11181333D01*
X10073500Y-11181333D02*
X10073500Y-11286095D01*
X10073500Y-11181333D02*
X10083023Y-11162285D01*
X10083023Y-11162285D02*
X10102071Y-11152762D01*
X10102071Y-11152762D02*
X10130642Y-11152762D01*
X10130642Y-11152762D02*
X10149690Y-11162285D01*
X10149690Y-11162285D02*
X10159214Y-11181333D01*
X10159214Y-11181333D02*
X10159214Y-11286095D01*
X10549690Y-11076571D02*
X10378262Y-11333714D01*
X10806833Y-11086095D02*
X10825881Y-11086095D01*
X10825881Y-11086095D02*
X10844928Y-11095619D01*
X10844928Y-11095619D02*
X10854452Y-11105143D01*
X10854452Y-11105143D02*
X10863976Y-11124190D01*
X10863976Y-11124190D02*
X10873500Y-11162285D01*
X10873500Y-11162285D02*
X10873500Y-11209904D01*
X10873500Y-11209904D02*
X10863976Y-11248000D01*
X10863976Y-11248000D02*
X10854452Y-11267047D01*
X10854452Y-11267047D02*
X10844928Y-11276571D01*
X10844928Y-11276571D02*
X10825881Y-11286095D01*
X10825881Y-11286095D02*
X10806833Y-11286095D01*
X10806833Y-11286095D02*
X10787785Y-11276571D01*
X10787785Y-11276571D02*
X10778262Y-11267047D01*
X10778262Y-11267047D02*
X10768738Y-11248000D01*
X10768738Y-11248000D02*
X10759214Y-11209904D01*
X10759214Y-11209904D02*
X10759214Y-11162285D01*
X10759214Y-11162285D02*
X10768738Y-11124190D01*
X10768738Y-11124190D02*
X10778262Y-11105143D01*
X10778262Y-11105143D02*
X10787785Y-11095619D01*
X10787785Y-11095619D02*
X10806833Y-11086095D01*
X10959214Y-11267047D02*
X10968738Y-11276571D01*
X10968738Y-11276571D02*
X10959214Y-11286095D01*
X10959214Y-11286095D02*
X10949690Y-11276571D01*
X10949690Y-11276571D02*
X10959214Y-11267047D01*
X10959214Y-11267047D02*
X10959214Y-11286095D01*
X11092547Y-11086095D02*
X11111595Y-11086095D01*
X11111595Y-11086095D02*
X11130643Y-11095619D01*
X11130643Y-11095619D02*
X11140166Y-11105143D01*
X11140166Y-11105143D02*
X11149690Y-11124190D01*
X11149690Y-11124190D02*
X11159214Y-11162285D01*
X11159214Y-11162285D02*
X11159214Y-11209904D01*
X11159214Y-11209904D02*
X11149690Y-11248000D01*
X11149690Y-11248000D02*
X11140166Y-11267047D01*
X11140166Y-11267047D02*
X11130643Y-11276571D01*
X11130643Y-11276571D02*
X11111595Y-11286095D01*
X11111595Y-11286095D02*
X11092547Y-11286095D01*
X11092547Y-11286095D02*
X11073500Y-11276571D01*
X11073500Y-11276571D02*
X11063976Y-11267047D01*
X11063976Y-11267047D02*
X11054452Y-11248000D01*
X11054452Y-11248000D02*
X11044928Y-11209904D01*
X11044928Y-11209904D02*
X11044928Y-11162285D01*
X11044928Y-11162285D02*
X11054452Y-11124190D01*
X11054452Y-11124190D02*
X11063976Y-11105143D01*
X11063976Y-11105143D02*
X11073500Y-11095619D01*
X11073500Y-11095619D02*
X11092547Y-11086095D01*
X11225881Y-11086095D02*
X11349690Y-11086095D01*
X11349690Y-11086095D02*
X11283023Y-11162285D01*
X11283023Y-11162285D02*
X11311595Y-11162285D01*
X11311595Y-11162285D02*
X11330643Y-11171809D01*
X11330643Y-11171809D02*
X11340166Y-11181333D01*
X11340166Y-11181333D02*
X11349690Y-11200381D01*
X11349690Y-11200381D02*
X11349690Y-11248000D01*
X11349690Y-11248000D02*
X11340166Y-11267047D01*
X11340166Y-11267047D02*
X11330643Y-11276571D01*
X11330643Y-11276571D02*
X11311595Y-11286095D01*
X11311595Y-11286095D02*
X11254452Y-11286095D01*
X11254452Y-11286095D02*
X11235404Y-11276571D01*
X11235404Y-11276571D02*
X11225881Y-11267047D01*
X11444928Y-11286095D02*
X11483023Y-11286095D01*
X11483023Y-11286095D02*
X11502071Y-11276571D01*
X11502071Y-11276571D02*
X11511595Y-11267047D01*
X11511595Y-11267047D02*
X11530643Y-11238476D01*
X11530643Y-11238476D02*
X11540166Y-11200381D01*
X11540166Y-11200381D02*
X11540166Y-11124190D01*
X11540166Y-11124190D02*
X11530643Y-11105143D01*
X11530643Y-11105143D02*
X11521119Y-11095619D01*
X11521119Y-11095619D02*
X11502071Y-11086095D01*
X11502071Y-11086095D02*
X11463976Y-11086095D01*
X11463976Y-11086095D02*
X11444928Y-11095619D01*
X11444928Y-11095619D02*
X11435404Y-11105143D01*
X11435404Y-11105143D02*
X11425881Y-11124190D01*
X11425881Y-11124190D02*
X11425881Y-11171809D01*
X11425881Y-11171809D02*
X11435404Y-11190857D01*
X11435404Y-11190857D02*
X11444928Y-11200381D01*
X11444928Y-11200381D02*
X11463976Y-11209904D01*
X11463976Y-11209904D02*
X11502071Y-11209904D01*
X11502071Y-11209904D02*
X11521119Y-11200381D01*
X11521119Y-11200381D02*
X11530643Y-11190857D01*
X11530643Y-11190857D02*
X11540166Y-11171809D01*
X11711595Y-11152762D02*
X11711595Y-11286095D01*
X11663976Y-11076571D02*
X11616357Y-11219428D01*
X11616357Y-11219428D02*
X11740166Y-11219428D01*
X11806833Y-11086095D02*
X11806833Y-11124190D01*
X11883024Y-11086095D02*
X11883024Y-11124190D01*
X12178262Y-11362285D02*
X12168738Y-11352761D01*
X12168738Y-11352761D02*
X12149690Y-11324190D01*
X12149690Y-11324190D02*
X12140166Y-11305142D01*
X12140166Y-11305142D02*
X12130643Y-11276571D01*
X12130643Y-11276571D02*
X12121119Y-11228952D01*
X12121119Y-11228952D02*
X12121119Y-11190857D01*
X12121119Y-11190857D02*
X12130643Y-11143238D01*
X12130643Y-11143238D02*
X12140166Y-11114666D01*
X12140166Y-11114666D02*
X12149690Y-11095619D01*
X12149690Y-11095619D02*
X12168738Y-11067047D01*
X12168738Y-11067047D02*
X12178262Y-11057523D01*
X12340166Y-11152762D02*
X12340166Y-11286095D01*
X12292547Y-11076571D02*
X12244928Y-11219428D01*
X12244928Y-11219428D02*
X12368738Y-11219428D01*
X12454452Y-11286095D02*
X12492547Y-11286095D01*
X12492547Y-11286095D02*
X12511595Y-11276571D01*
X12511595Y-11276571D02*
X12521119Y-11267047D01*
X12521119Y-11267047D02*
X12540166Y-11238476D01*
X12540166Y-11238476D02*
X12549690Y-11200381D01*
X12549690Y-11200381D02*
X12549690Y-11124190D01*
X12549690Y-11124190D02*
X12540166Y-11105143D01*
X12540166Y-11105143D02*
X12530643Y-11095619D01*
X12530643Y-11095619D02*
X12511595Y-11086095D01*
X12511595Y-11086095D02*
X12473500Y-11086095D01*
X12473500Y-11086095D02*
X12454452Y-11095619D01*
X12454452Y-11095619D02*
X12444928Y-11105143D01*
X12444928Y-11105143D02*
X12435405Y-11124190D01*
X12435405Y-11124190D02*
X12435405Y-11171809D01*
X12435405Y-11171809D02*
X12444928Y-11190857D01*
X12444928Y-11190857D02*
X12454452Y-11200381D01*
X12454452Y-11200381D02*
X12473500Y-11209904D01*
X12473500Y-11209904D02*
X12511595Y-11209904D01*
X12511595Y-11209904D02*
X12530643Y-11200381D01*
X12530643Y-11200381D02*
X12540166Y-11190857D01*
X12540166Y-11190857D02*
X12549690Y-11171809D01*
X12787786Y-11286095D02*
X12787786Y-11086095D01*
X12873500Y-11286095D02*
X12873500Y-11181333D01*
X12873500Y-11181333D02*
X12863976Y-11162285D01*
X12863976Y-11162285D02*
X12844928Y-11152762D01*
X12844928Y-11152762D02*
X12816357Y-11152762D01*
X12816357Y-11152762D02*
X12797309Y-11162285D01*
X12797309Y-11162285D02*
X12787786Y-11171809D01*
X12997309Y-11286095D02*
X12978262Y-11276571D01*
X12978262Y-11276571D02*
X12968738Y-11267047D01*
X12968738Y-11267047D02*
X12959214Y-11248000D01*
X12959214Y-11248000D02*
X12959214Y-11190857D01*
X12959214Y-11190857D02*
X12968738Y-11171809D01*
X12968738Y-11171809D02*
X12978262Y-11162285D01*
X12978262Y-11162285D02*
X12997309Y-11152762D01*
X12997309Y-11152762D02*
X13025881Y-11152762D01*
X13025881Y-11152762D02*
X13044928Y-11162285D01*
X13044928Y-11162285D02*
X13054452Y-11171809D01*
X13054452Y-11171809D02*
X13063976Y-11190857D01*
X13063976Y-11190857D02*
X13063976Y-11248000D01*
X13063976Y-11248000D02*
X13054452Y-11267047D01*
X13054452Y-11267047D02*
X13044928Y-11276571D01*
X13044928Y-11276571D02*
X13025881Y-11286095D01*
X13025881Y-11286095D02*
X12997309Y-11286095D01*
X13178262Y-11286095D02*
X13159214Y-11276571D01*
X13159214Y-11276571D02*
X13149690Y-11257523D01*
X13149690Y-11257523D02*
X13149690Y-11086095D01*
X13330643Y-11276571D02*
X13311595Y-11286095D01*
X13311595Y-11286095D02*
X13273500Y-11286095D01*
X13273500Y-11286095D02*
X13254452Y-11276571D01*
X13254452Y-11276571D02*
X13244928Y-11257523D01*
X13244928Y-11257523D02*
X13244928Y-11181333D01*
X13244928Y-11181333D02*
X13254452Y-11162285D01*
X13254452Y-11162285D02*
X13273500Y-11152762D01*
X13273500Y-11152762D02*
X13311595Y-11152762D01*
X13311595Y-11152762D02*
X13330643Y-11162285D01*
X13330643Y-11162285D02*
X13340167Y-11181333D01*
X13340167Y-11181333D02*
X13340167Y-11200381D01*
X13340167Y-11200381D02*
X13244928Y-11219428D01*
X13416357Y-11276571D02*
X13435405Y-11286095D01*
X13435405Y-11286095D02*
X13473500Y-11286095D01*
X13473500Y-11286095D02*
X13492548Y-11276571D01*
X13492548Y-11276571D02*
X13502071Y-11257523D01*
X13502071Y-11257523D02*
X13502071Y-11248000D01*
X13502071Y-11248000D02*
X13492548Y-11228952D01*
X13492548Y-11228952D02*
X13473500Y-11219428D01*
X13473500Y-11219428D02*
X13444928Y-11219428D01*
X13444928Y-11219428D02*
X13425881Y-11209904D01*
X13425881Y-11209904D02*
X13416357Y-11190857D01*
X13416357Y-11190857D02*
X13416357Y-11181333D01*
X13416357Y-11181333D02*
X13425881Y-11162285D01*
X13425881Y-11162285D02*
X13444928Y-11152762D01*
X13444928Y-11152762D02*
X13473500Y-11152762D01*
X13473500Y-11152762D02*
X13492548Y-11162285D01*
X13568738Y-11362285D02*
X13578262Y-11352761D01*
X13578262Y-11352761D02*
X13597309Y-11324190D01*
X13597309Y-11324190D02*
X13606833Y-11305142D01*
X13606833Y-11305142D02*
X13616357Y-11276571D01*
X13616357Y-11276571D02*
X13625881Y-11228952D01*
X13625881Y-11228952D02*
X13625881Y-11190857D01*
X13625881Y-11190857D02*
X13616357Y-11143238D01*
X13616357Y-11143238D02*
X13606833Y-11114666D01*
X13606833Y-11114666D02*
X13597309Y-11095619D01*
X13597309Y-11095619D02*
X13578262Y-11067047D01*
X13578262Y-11067047D02*
X13568738Y-11057523D01*
M02*
