M48
; DRILL file {KiCad 7.0.7} date Mon Oct 16 17:55:55 2023
; FORMAT={-:-/ absolute / metric / decimal}
; #@! TF.CreationDate,2023-10-16T17:55:55+02:00
; #@! TF.GenerationSoftware,Kicad,Pcbnew,7.0.7
; #@! TF.FileFunction,Plated,1,2,PTH
FMAT,2
METRIC
; #@! TA.AperFunction,Plated,PTH,ViaDrill
T1C0.400
; #@! TA.AperFunction,Plated,PTH,ComponentDrill
T2C0.600
; #@! TA.AperFunction,Plated,PTH,ComponentDrill
T3C0.800
; #@! TA.AperFunction,Plated,PTH,ComponentDrill
T4C1.000
%
G90
G05
T1
X76.85Y-49.25
X78.5Y-66.1
X80.0Y-57.6
X80.0Y-84.3
X82.4Y-72.1
X82.462Y-66.588
X82.6Y-41.4
X82.6Y-48.6
X85.4Y-61.2
X85.7Y-63.7
X86.0Y-95.9
X86.5Y-77.7
X86.75Y-68.5
X86.8Y-88.2
X87.7Y-57.1
X87.9Y-48.45
X92.25Y-72.7
X93.7Y-48.2
X93.75Y-50.9
X94.3Y-53.7
X94.6Y-56.3
X95.25Y-70.1
X96.3Y-83.2
X96.4Y-72.7
X96.6Y-63.8
X97.0Y-66.5
X97.4Y-91.8
X98.2Y-56.25
X100.0Y-41.4
X101.7Y-95.8
X102.1Y-56.3
X104.8Y-59.75
X106.7Y-69.2
X106.9Y-78.4
X108.5Y-87.9
X109.75Y-57.8
T2
X107.027Y-59.85
X107.05Y-53.9
X108.527Y-59.85
X108.55Y-53.9
T3
X106.65Y-50.45
X109.15Y-50.45
T4
X75.16Y-51.1
X75.16Y-53.64
X75.16Y-56.18
X75.16Y-58.72
X75.16Y-61.26
X75.16Y-63.8
X75.16Y-66.34
X75.16Y-68.88
X75.16Y-71.42
X75.16Y-73.96
X75.16Y-76.5
X75.16Y-79.04
X75.16Y-81.58
X75.16Y-84.12
X75.16Y-86.66
X90.4Y-51.1
X90.4Y-53.64
X90.4Y-56.18
X90.4Y-58.72
X90.4Y-61.26
X90.4Y-63.8
X90.4Y-66.34
X90.4Y-68.88
X90.4Y-71.42
X90.4Y-73.96
X90.4Y-76.5
X90.4Y-79.04
X90.4Y-81.58
X90.4Y-84.12
X90.4Y-86.66
X96.05Y-44.9
X96.05Y-47.44
X96.05Y-49.98
X96.05Y-52.52
X96.27Y-60.25
X98.81Y-60.25
X99.65Y-44.9
X99.65Y-47.44
X99.65Y-49.98
X99.65Y-52.52
X100.37Y-63.9
X100.37Y-66.44
X101.35Y-60.25
X102.91Y-63.9
X102.91Y-66.44
X103.25Y-44.9
X103.25Y-47.44
X103.25Y-49.98
X103.25Y-52.52
X105.45Y-63.9
X105.45Y-66.44
X107.85Y-44.9
X107.85Y-47.44
X107.99Y-63.9
X107.99Y-66.44
T0
M30
