%TF.GenerationSoftware,KiCad,Pcbnew,7.0.7*%
%TF.CreationDate,2023-10-16T17:51:31+02:00*%
%TF.ProjectId,bc546b-astable-multivibrator,62633534-3662-42d6-9173-7461626c652d,0*%
%TF.SameCoordinates,Original*%
%TF.FileFunction,Copper,L2,Bot*%
%TF.FilePolarity,Positive*%
%FSLAX46Y46*%
G04 Gerber Fmt 4.6, Leading zero omitted, Abs format (unit mm)*
G04 Created by KiCad (PCBNEW 7.0.7) date 2023-10-16 17:51:31*
%MOMM*%
%LPD*%
G01*
G04 APERTURE LIST*
%TA.AperFunction,ComponentPad*%
%ADD10R,1.200000X1.200000*%
%TD*%
%TA.AperFunction,ComponentPad*%
%ADD11C,1.200000*%
%TD*%
%TA.AperFunction,ComponentPad*%
%ADD12R,1.800000X1.800000*%
%TD*%
%TA.AperFunction,ComponentPad*%
%ADD13C,1.800000*%
%TD*%
%TA.AperFunction,ComponentPad*%
%ADD14C,1.400000*%
%TD*%
%TA.AperFunction,ComponentPad*%
%ADD15O,1.400000X1.400000*%
%TD*%
%TA.AperFunction,ComponentPad*%
%ADD16R,1.700000X1.700000*%
%TD*%
%TA.AperFunction,ComponentPad*%
%ADD17O,1.700000X1.700000*%
%TD*%
%TA.AperFunction,ComponentPad*%
%ADD18R,1.300000X1.300000*%
%TD*%
%TA.AperFunction,ComponentPad*%
%ADD19C,1.300000*%
%TD*%
%TA.AperFunction,ViaPad*%
%ADD20C,0.800000*%
%TD*%
%TA.AperFunction,Conductor*%
%ADD21C,0.250000*%
%TD*%
G04 APERTURE END LIST*
D10*
%TO.P,C2,1*%
%TO.N,Net-(BC546B2-C)*%
X101100000Y-73700000D03*
D11*
%TO.P,C2,2*%
%TO.N,/I2*%
X102600000Y-73700000D03*
%TD*%
D12*
%TO.P,D2,1,K*%
%TO.N,Net-(D2-K)*%
X89425000Y-58200000D03*
D13*
%TO.P,D2,2,A*%
%TO.N,+9V*%
X91965000Y-58200000D03*
%TD*%
D14*
%TO.P,R3,1*%
%TO.N,Net-(D2-K)*%
X89390000Y-77400000D03*
D15*
%TO.P,R3,2*%
%TO.N,Net-(BC546B1-C)*%
X97010000Y-77400000D03*
%TD*%
D12*
%TO.P,D1,1,K*%
%TO.N,Net-(D1-K)*%
X100825000Y-58200000D03*
D13*
%TO.P,D1,2,A*%
%TO.N,+9V*%
X103365000Y-58200000D03*
%TD*%
D16*
%TO.P,BT1,1,+*%
%TO.N,+9V*%
X90125000Y-82000000D03*
D17*
%TO.P,BT1,2,-*%
%TO.N,GND*%
X92665000Y-82000000D03*
%TD*%
D10*
%TO.P,C1,1*%
%TO.N,Net-(BC546B1-C)*%
X101077401Y-78500000D03*
D11*
%TO.P,C1,2*%
%TO.N,/I1*%
X102577401Y-78500000D03*
%TD*%
D14*
%TO.P,R1,1*%
%TO.N,/I1*%
X97020000Y-74600000D03*
D15*
%TO.P,R1,2*%
%TO.N,+9V*%
X89400000Y-74600000D03*
%TD*%
D14*
%TO.P,R4,1*%
%TO.N,Net-(BC546B2-C)*%
X97000000Y-71900000D03*
D15*
%TO.P,R4,2*%
%TO.N,Net-(D1-K)*%
X89380000Y-71900000D03*
%TD*%
D18*
%TO.P,BC546B1,1,C*%
%TO.N,Net-(BC546B1-C)*%
X103100000Y-63900000D03*
D19*
%TO.P,BC546B1,2,B*%
%TO.N,/I2*%
X101830000Y-62630000D03*
%TO.P,BC546B1,3,E*%
%TO.N,Net-(BC546B1-E)*%
X100560000Y-63900000D03*
%TD*%
D14*
%TO.P,R6,1*%
%TO.N,Net-(BC546B2-E)*%
X97000000Y-68400000D03*
D15*
%TO.P,R6,2*%
%TO.N,GND*%
X89380000Y-68400000D03*
%TD*%
D14*
%TO.P,R5,1*%
%TO.N,Net-(BC546B1-E)*%
X96800000Y-62200000D03*
D15*
%TO.P,R5,2*%
%TO.N,GND*%
X89180000Y-62200000D03*
%TD*%
D14*
%TO.P,R2,1*%
%TO.N,/I2*%
X96810000Y-65300000D03*
D15*
%TO.P,R2,2*%
%TO.N,+9V*%
X89190000Y-65300000D03*
%TD*%
D18*
%TO.P,BC546B2,1,C*%
%TO.N,Net-(BC546B2-C)*%
X103070000Y-69070000D03*
D19*
%TO.P,BC546B2,2,B*%
%TO.N,/I1*%
X101800000Y-67800000D03*
%TO.P,BC546B2,3,E*%
%TO.N,Net-(BC546B2-E)*%
X100530000Y-69070000D03*
%TD*%
D20*
%TO.N,GND*%
X90550000Y-66900000D03*
X93350000Y-79000000D03*
X93800000Y-68600000D03*
X87050000Y-65250000D03*
X100250000Y-65750000D03*
X97850000Y-58350000D03*
X97750000Y-70200000D03*
X106500000Y-56051386D03*
X92800000Y-74900000D03*
X87150000Y-55650000D03*
X93700000Y-62200000D03*
X103550000Y-82850000D03*
X97700000Y-81300000D03*
X94300000Y-58800000D03*
X86500000Y-82050000D03*
X105200000Y-70700000D03*
X102750000Y-60750000D03*
%TD*%
D21*
%TO.N,/I2*%
X99200000Y-67690000D02*
X96810000Y-65300000D01*
X102200000Y-72400000D02*
X100450000Y-72400000D01*
X96810000Y-65300000D02*
X99480000Y-62630000D01*
X102600000Y-72800000D02*
X102200000Y-72400000D01*
X99200000Y-71150000D02*
X99200000Y-67690000D01*
X102600000Y-73700000D02*
X102600000Y-72800000D01*
X99480000Y-62630000D02*
X101830000Y-62630000D01*
X100450000Y-72400000D02*
X99200000Y-71150000D01*
%TO.N,Net-(BC546B2-C)*%
X99300000Y-71900000D02*
X101100000Y-73700000D01*
X97000000Y-71900000D02*
X99300000Y-71900000D01*
%TO.N,/I1*%
X102577401Y-77477401D02*
X102577401Y-78500000D01*
X100200000Y-75100000D02*
X102577401Y-77477401D01*
X96820000Y-74600000D02*
X97320000Y-75100000D01*
X97320000Y-75100000D02*
X100200000Y-75100000D01*
%TO.N,Net-(D2-K)*%
X89425000Y-58200000D02*
X89425000Y-58425000D01*
X91950000Y-74840000D02*
X89390000Y-77400000D01*
X91950000Y-60950000D02*
X91950000Y-74840000D01*
X89425000Y-58425000D02*
X91950000Y-60950000D01*
%TD*%
%TA.AperFunction,Conductor*%
%TO.N,GND*%
G36*
X83084004Y-46726642D02*
G01*
X83087737Y-46726822D01*
X83297794Y-46743372D01*
X83550117Y-46768980D01*
X83553903Y-46769485D01*
X83760849Y-46803735D01*
X84010972Y-46850536D01*
X84014839Y-46851388D01*
X84216995Y-46902878D01*
X84463325Y-46970734D01*
X84467213Y-46971944D01*
X84662962Y-47040040D01*
X84903956Y-47128731D01*
X84907822Y-47130305D01*
X85095545Y-47214175D01*
X85329659Y-47323382D01*
X85333437Y-47325307D01*
X85439175Y-47383836D01*
X85511615Y-47423934D01*
X85737422Y-47553312D01*
X85741116Y-47555606D01*
X85908144Y-47667668D01*
X86124309Y-47816869D01*
X86127856Y-47819511D01*
X86262361Y-47927464D01*
X86282291Y-47943460D01*
X86487545Y-48112161D01*
X86490953Y-48115180D01*
X86631245Y-48248976D01*
X86786233Y-48399804D01*
X86824576Y-48437117D01*
X86827788Y-48440488D01*
X86881794Y-48501605D01*
X86952376Y-48581481D01*
X87132953Y-48789385D01*
X87135929Y-48793091D01*
X87239691Y-48932943D01*
X87243123Y-48937568D01*
X87276816Y-48983649D01*
X87410483Y-49166464D01*
X87413196Y-49170497D01*
X87500870Y-49312559D01*
X87504516Y-49318539D01*
X87655175Y-49565651D01*
X87657577Y-49569971D01*
X87722312Y-49698186D01*
X87865277Y-49984098D01*
X87867351Y-49988706D01*
X87900483Y-50071137D01*
X87911887Y-50099703D01*
X88038653Y-50417231D01*
X88040376Y-50422135D01*
X88174992Y-50863545D01*
X88184508Y-50900094D01*
X88185360Y-50903838D01*
X88213689Y-51048985D01*
X88213696Y-51049014D01*
X88281361Y-51282068D01*
X88298532Y-51351593D01*
X88305002Y-51363494D01*
X88319428Y-51413179D01*
X88429014Y-51693665D01*
X88442586Y-51731907D01*
X88445874Y-51736817D01*
X88457431Y-51766397D01*
X88626584Y-52105801D01*
X88769346Y-52337482D01*
X88825528Y-52428657D01*
X88975121Y-52628682D01*
X89012046Y-52678056D01*
X89052644Y-52732340D01*
X89103762Y-52789228D01*
X89306102Y-53014407D01*
X89306106Y-53014411D01*
X89306109Y-53014414D01*
X89583850Y-53272576D01*
X89583864Y-53272588D01*
X89800916Y-53440692D01*
X89883678Y-53504790D01*
X89910418Y-53521896D01*
X89913486Y-53525421D01*
X89949419Y-53546844D01*
X90179611Y-53694097D01*
X90203133Y-53709144D01*
X90203138Y-53709147D01*
X90249014Y-53732984D01*
X90256758Y-53740415D01*
X90324290Y-53772097D01*
X90539633Y-53883990D01*
X90539638Y-53883992D01*
X90680201Y-53941671D01*
X90680394Y-53941825D01*
X90723650Y-53959483D01*
X90740901Y-53955987D01*
X103021680Y-53946406D01*
X103036928Y-53950870D01*
X103048445Y-53948640D01*
X103060950Y-53947439D01*
X103072376Y-53943995D01*
X103246277Y-53910053D01*
X103480614Y-53842011D01*
X103549558Y-53824983D01*
X103561363Y-53818565D01*
X103610458Y-53804310D01*
X103846852Y-53711947D01*
X103892538Y-53694097D01*
X103929945Y-53680821D01*
X103934752Y-53677602D01*
X103963676Y-53666302D01*
X104303079Y-53497143D01*
X104625927Y-53298199D01*
X104929612Y-53071077D01*
X105211683Y-52817610D01*
X105469861Y-52539846D01*
X105702063Y-52240026D01*
X105718802Y-52213858D01*
X105722251Y-52210855D01*
X105743199Y-52175718D01*
X105906412Y-51920573D01*
X105922084Y-51890411D01*
X109390399Y-51890411D01*
X109420025Y-52159661D01*
X109420027Y-52159672D01*
X109488538Y-52421730D01*
X109488540Y-52421736D01*
X109594482Y-52671038D01*
X109648257Y-52759151D01*
X109735591Y-52902253D01*
X109735598Y-52902263D01*
X109908865Y-53110467D01*
X109908871Y-53110472D01*
X110033382Y-53222034D01*
X110110610Y-53291230D01*
X110336522Y-53440692D01*
X110581788Y-53555668D01*
X110581795Y-53555670D01*
X110581797Y-53555671D01*
X110841169Y-53633705D01*
X110841176Y-53633706D01*
X110841181Y-53633708D01*
X111109173Y-53673148D01*
X111109178Y-53673148D01*
X111312248Y-53673148D01*
X111363745Y-53669378D01*
X111514768Y-53658325D01*
X111627370Y-53633241D01*
X111779158Y-53599430D01*
X111779160Y-53599429D01*
X111779165Y-53599428D01*
X112032170Y-53502662D01*
X112268389Y-53370089D01*
X112482789Y-53204536D01*
X112670798Y-53009529D01*
X112828411Y-52789227D01*
X112936033Y-52579901D01*
X112952261Y-52548338D01*
X112952263Y-52548332D01*
X112952268Y-52548323D01*
X113039730Y-52291953D01*
X113088931Y-52025581D01*
X113098824Y-51754883D01*
X113069198Y-51485630D01*
X113000684Y-51223560D01*
X112894742Y-50974258D01*
X112753630Y-50743038D01*
X112700236Y-50678878D01*
X112580358Y-50534828D01*
X112580352Y-50534823D01*
X112378614Y-50354066D01*
X112152704Y-50204605D01*
X112095398Y-50177741D01*
X111907436Y-50089628D01*
X111907431Y-50089626D01*
X111907426Y-50089624D01*
X111648054Y-50011590D01*
X111648040Y-50011587D01*
X111532403Y-49994569D01*
X111380051Y-49972148D01*
X111176981Y-49972148D01*
X111176976Y-49972148D01*
X110974456Y-49986971D01*
X110974443Y-49986973D01*
X110710065Y-50045865D01*
X110710058Y-50045868D01*
X110457051Y-50142635D01*
X110220838Y-50275205D01*
X110220836Y-50275206D01*
X110220835Y-50275207D01*
X110158505Y-50323336D01*
X110006434Y-50440760D01*
X109818434Y-50635757D01*
X109818428Y-50635764D01*
X109660814Y-50856067D01*
X109660811Y-50856072D01*
X109536962Y-51096957D01*
X109536955Y-51096975D01*
X109449496Y-51353333D01*
X109449493Y-51353347D01*
X109400293Y-51619716D01*
X109400292Y-51619723D01*
X109390399Y-51890411D01*
X105922084Y-51890411D01*
X105929987Y-51875200D01*
X105937331Y-51867547D01*
X105968735Y-51800625D01*
X106081260Y-51584064D01*
X106139411Y-51442342D01*
X106149778Y-51429288D01*
X106150955Y-51422293D01*
X106158538Y-51395740D01*
X106162055Y-51387176D01*
X106160635Y-51374468D01*
X106161485Y-51370099D01*
X106244911Y-50979799D01*
X106246244Y-50974652D01*
X106269007Y-50900094D01*
X106349087Y-50637802D01*
X106374477Y-50555373D01*
X106376167Y-50550600D01*
X106489066Y-50269630D01*
X106540812Y-50142369D01*
X106542891Y-50137799D01*
X106669611Y-49886981D01*
X106742237Y-49745271D01*
X106744641Y-49741008D01*
X106886062Y-49512181D01*
X106977219Y-49367104D01*
X106979937Y-49363131D01*
X107135857Y-49153415D01*
X107139591Y-49148489D01*
X107244028Y-49010646D01*
X107246977Y-49007049D01*
X107416853Y-48815332D01*
X107540639Y-48678612D01*
X107543819Y-48675355D01*
X107726646Y-48501594D01*
X107864780Y-48373524D01*
X107868194Y-48370583D01*
X108063014Y-48214889D01*
X108214110Y-48097572D01*
X108217690Y-48094992D01*
X108423217Y-47957831D01*
X108586001Y-47852844D01*
X108589633Y-47850678D01*
X108804686Y-47732429D01*
X108977568Y-47641231D01*
X108981344Y-47639401D01*
X109204389Y-47540601D01*
X109385971Y-47464254D01*
X109389825Y-47462782D01*
X109619403Y-47383828D01*
X109808161Y-47323235D01*
X109811981Y-47322144D01*
X110046568Y-47263371D01*
X110240940Y-47219247D01*
X110244739Y-47218511D01*
X110482660Y-47180180D01*
X110681027Y-47153069D01*
X110684789Y-47152672D01*
X110924479Y-47134905D01*
X111125199Y-47125177D01*
X111128896Y-47125110D01*
X111368651Y-47127929D01*
X111570114Y-47135785D01*
X111573657Y-47136026D01*
X111811820Y-47159323D01*
X112012389Y-47184804D01*
X112015837Y-47185342D01*
X112250758Y-47228882D01*
X112448768Y-47271867D01*
X112452079Y-47272682D01*
X112682065Y-47336086D01*
X112875983Y-47396319D01*
X112879081Y-47397372D01*
X113102572Y-47480159D01*
X113290833Y-47557229D01*
X113293745Y-47558511D01*
X113509103Y-47660029D01*
X113690178Y-47753371D01*
X113692913Y-47754869D01*
X113898651Y-47874381D01*
X114071064Y-47983283D01*
X114073551Y-47984940D01*
X114268220Y-48121578D01*
X114289811Y-48138017D01*
X114430646Y-48245249D01*
X114432922Y-48247068D01*
X114615116Y-48399829D01*
X114766237Y-48537304D01*
X114768198Y-48539171D01*
X114936689Y-48707024D01*
X114962918Y-48735448D01*
X115076181Y-48858193D01*
X115230532Y-49040869D01*
X115356302Y-49203644D01*
X115493646Y-49397747D01*
X115495217Y-49400078D01*
X115605508Y-49571975D01*
X115725726Y-49777133D01*
X115727139Y-49779680D01*
X115821943Y-49960430D01*
X115924179Y-50175192D01*
X115925409Y-50177946D01*
X116003997Y-50366099D01*
X116087495Y-50588909D01*
X116088515Y-50591856D01*
X116150316Y-50785949D01*
X116214460Y-51015218D01*
X116215247Y-51018341D01*
X116259810Y-51216813D01*
X116304124Y-51450950D01*
X116304654Y-51454230D01*
X116331673Y-51655470D01*
X116355797Y-51892796D01*
X116356050Y-51896212D01*
X116365382Y-52098653D01*
X116369097Y-52337482D01*
X116369052Y-52341010D01*
X116360698Y-52543009D01*
X116343917Y-52781673D01*
X116343557Y-52785284D01*
X116317674Y-52985239D01*
X116280446Y-53222034D01*
X116279755Y-53225701D01*
X116236656Y-53422003D01*
X116179144Y-53655303D01*
X116178112Y-53658995D01*
X116118275Y-53850043D01*
X116040782Y-54078190D01*
X116039398Y-54081876D01*
X115963445Y-54266167D01*
X115866372Y-54487578D01*
X115864631Y-54491222D01*
X115773376Y-54667227D01*
X115657237Y-54880355D01*
X115655135Y-54883923D01*
X115549540Y-55050230D01*
X115414924Y-55253611D01*
X115412462Y-55257067D01*
X115293669Y-55412327D01*
X115141247Y-55604543D01*
X115138430Y-55607851D01*
X115007802Y-55750765D01*
X114838249Y-55930525D01*
X114835083Y-55933649D01*
X114694206Y-56063030D01*
X114508196Y-56229113D01*
X114504693Y-56232016D01*
X114355392Y-56346814D01*
X114153566Y-56498061D01*
X114149741Y-56500709D01*
X113994266Y-56599945D01*
X113776993Y-56735367D01*
X113772865Y-56737726D01*
X113614062Y-56820539D01*
X113381313Y-56939240D01*
X113376904Y-56941275D01*
X113218597Y-57006960D01*
X112969465Y-57108164D01*
X112964800Y-57109845D01*
X112812979Y-57157791D01*
X112544568Y-57240855D01*
X112539677Y-57242153D01*
X112405497Y-57271947D01*
X112109748Y-57336335D01*
X112104662Y-57337222D01*
X112019091Y-57348506D01*
X111669911Y-57393668D01*
X111664613Y-57394123D01*
X111270096Y-57411047D01*
X111257260Y-57407868D01*
X111236537Y-57411269D01*
X111216461Y-57412905D01*
X111202730Y-57412905D01*
X111192863Y-57418292D01*
X111186577Y-57419490D01*
X111035839Y-57444206D01*
X110796978Y-57506482D01*
X110727176Y-57521605D01*
X110714762Y-57527917D01*
X110661911Y-57541697D01*
X110661909Y-57541697D01*
X110373946Y-57646056D01*
X110335820Y-57658490D01*
X110330736Y-57661716D01*
X110298595Y-57673364D01*
X109949014Y-57838077D01*
X109781162Y-57937095D01*
X109616168Y-58034426D01*
X109616162Y-58034430D01*
X109616161Y-58034430D01*
X109302918Y-58260720D01*
X109011948Y-58515017D01*
X108745740Y-58795156D01*
X108506593Y-59098713D01*
X108488005Y-59127420D01*
X108484388Y-59130531D01*
X108462993Y-59166048D01*
X108296562Y-59423077D01*
X108271241Y-59471479D01*
X108263573Y-59479424D01*
X108231813Y-59546848D01*
X108117422Y-59765512D01*
X108058362Y-59909408D01*
X108058206Y-59909601D01*
X108044141Y-59944058D01*
X108040919Y-59951909D01*
X108040844Y-59952077D01*
X108040840Y-59952102D01*
X108040580Y-59952734D01*
X108044071Y-59969967D01*
X108076596Y-78948354D01*
X108074031Y-78957143D01*
X108076549Y-78992919D01*
X108076698Y-78996490D01*
X108076698Y-78996525D01*
X108076948Y-78998407D01*
X108087530Y-79141353D01*
X108120414Y-79314106D01*
X108120945Y-79317365D01*
X108131476Y-79395002D01*
X108139304Y-79413345D01*
X108142518Y-79430226D01*
X108142519Y-79430230D01*
X108151200Y-79458069D01*
X108202766Y-79623434D01*
X108203547Y-79626156D01*
X108220744Y-79691692D01*
X108228020Y-79704416D01*
X108230062Y-79710965D01*
X108325798Y-79927403D01*
X108344999Y-79975701D01*
X108346221Y-79977357D01*
X108347406Y-79976751D01*
X108349018Y-79979898D01*
X108491280Y-80222350D01*
X108496814Y-80232476D01*
X108497641Y-80233265D01*
X108550782Y-80303927D01*
X108674587Y-80468552D01*
X108677935Y-80472082D01*
X108680294Y-80474937D01*
X108681518Y-80475859D01*
X108865061Y-80669364D01*
X108876961Y-80681910D01*
X108890138Y-80692956D01*
X108891872Y-80694612D01*
X108892670Y-80695079D01*
X108988722Y-80775594D01*
X109102322Y-80870820D01*
X109127203Y-80887244D01*
X109127863Y-80887741D01*
X109128136Y-80887861D01*
X109321926Y-81015786D01*
X109322055Y-81015938D01*
X109322856Y-81016400D01*
X109347739Y-81032826D01*
X109591733Y-81156546D01*
X109592185Y-81156972D01*
X109594673Y-81158037D01*
X109610016Y-81165817D01*
X109876288Y-81264558D01*
X109877113Y-81265173D01*
X109881161Y-81266366D01*
X109885728Y-81268059D01*
X109885730Y-81268059D01*
X109885737Y-81268062D01*
X110171311Y-81338228D01*
X110171322Y-81338229D01*
X110171630Y-81338305D01*
X110172349Y-81338723D01*
X110184108Y-81339858D01*
X110421839Y-81370155D01*
X110463019Y-81375403D01*
X110466552Y-81375650D01*
X110466422Y-81377500D01*
X110520368Y-81376124D01*
X110748401Y-81378993D01*
X110757061Y-81379102D01*
X110757061Y-81379101D01*
X110757063Y-81379102D01*
X110763877Y-81378407D01*
X110775391Y-81380549D01*
X110845460Y-81370155D01*
X110848255Y-81369804D01*
X111049615Y-81349276D01*
X111066381Y-81345601D01*
X111082260Y-81346711D01*
X111161855Y-81324764D01*
X111165043Y-81323975D01*
X111336863Y-81286315D01*
X111449492Y-81247738D01*
X111503552Y-81241829D01*
X111925562Y-81289392D01*
X111930795Y-81290210D01*
X112273268Y-81358976D01*
X112375142Y-81379706D01*
X112380147Y-81380944D01*
X112671626Y-81466052D01*
X112708310Y-81476934D01*
X112816399Y-81508999D01*
X112821164Y-81510627D01*
X113085523Y-81613167D01*
X113196510Y-81656987D01*
X113244747Y-81676032D01*
X113249282Y-81678034D01*
X113493968Y-81798031D01*
X113657032Y-81879570D01*
X113661235Y-81881881D01*
X113888853Y-82018903D01*
X114050053Y-82118031D01*
X114053994Y-82120668D01*
X114265096Y-82273876D01*
X114420968Y-82389681D01*
X114424545Y-82392552D01*
X114619120Y-82561062D01*
X114766893Y-82692411D01*
X114770147Y-82695523D01*
X114898991Y-82828096D01*
X114947699Y-82878214D01*
X115085281Y-83023979D01*
X115088190Y-83027290D01*
X115159696Y-83114779D01*
X115248103Y-83222948D01*
X115373730Y-83381883D01*
X115376287Y-83385360D01*
X115517918Y-83592704D01*
X115630055Y-83763405D01*
X115632245Y-83766999D01*
X115754933Y-83984620D01*
X115852356Y-84165706D01*
X115854179Y-84169381D01*
X115957286Y-84395741D01*
X116038944Y-84585730D01*
X116040403Y-84589450D01*
X116123413Y-84823006D01*
X116127209Y-84834528D01*
X116188427Y-85020327D01*
X116189528Y-85024056D01*
X116252009Y-85263193D01*
X116299686Y-85466227D01*
X116300438Y-85469934D01*
X116342061Y-85712946D01*
X116371883Y-85920082D01*
X116372299Y-85923734D01*
X116392869Y-86168911D01*
X116404479Y-86378452D01*
X116404574Y-86382021D01*
X116404027Y-86627663D01*
X116397232Y-86837915D01*
X116397024Y-86841372D01*
X116375426Y-87085730D01*
X116350204Y-87294986D01*
X116349713Y-87298307D01*
X116307270Y-87539647D01*
X116263749Y-87746264D01*
X116262996Y-87749425D01*
X116200053Y-87986024D01*
X116138532Y-88188301D01*
X116137542Y-88191284D01*
X116054570Y-88421484D01*
X115975490Y-88617820D01*
X115974288Y-88620608D01*
X115871914Y-88842732D01*
X115775857Y-89031581D01*
X115774467Y-89034161D01*
X115653441Y-89246622D01*
X115541147Y-89426456D01*
X115539598Y-89428816D01*
X115400780Y-89630112D01*
X115336362Y-89715587D01*
X115272307Y-89800579D01*
X115115837Y-89990296D01*
X114972926Y-90148871D01*
X114801741Y-90323448D01*
X114799719Y-90325418D01*
X114644531Y-90469895D01*
X114458991Y-90629138D01*
X114456723Y-90630994D01*
X114289604Y-90761238D01*
X114091018Y-90904016D01*
X114088510Y-90905728D01*
X113910797Y-91020736D01*
X113700622Y-91145984D01*
X113697882Y-91147524D01*
X113510998Y-91246422D01*
X113290672Y-91353257D01*
X113287711Y-91354598D01*
X113093205Y-91436622D01*
X112864326Y-91524229D01*
X112861160Y-91525344D01*
X112715909Y-91572102D01*
X112660528Y-91589929D01*
X112424756Y-91657632D01*
X112421402Y-91658495D01*
X112216282Y-91705179D01*
X111975235Y-91752464D01*
X111971714Y-91753050D01*
X111763806Y-91781529D01*
X111519183Y-91807997D01*
X111515518Y-91808284D01*
X111306491Y-91818427D01*
X111243205Y-91819809D01*
X111060000Y-91823812D01*
X111056226Y-91823780D01*
X110847809Y-91815614D01*
X110770838Y-91810675D01*
X110601161Y-91799787D01*
X110597299Y-91799417D01*
X110391203Y-91773141D01*
X110146121Y-91736098D01*
X110142195Y-91735374D01*
X110099643Y-91726106D01*
X109940135Y-91691364D01*
X109698265Y-91633213D01*
X109694311Y-91632123D01*
X109498019Y-91570950D01*
X109261012Y-91491916D01*
X109257066Y-91490450D01*
X109068167Y-91412857D01*
X108837618Y-91313256D01*
X108833718Y-91311407D01*
X108680169Y-91231975D01*
X108653828Y-91218348D01*
X108431302Y-91098588D01*
X108427485Y-91096355D01*
X108258206Y-90989031D01*
X108197661Y-90949394D01*
X108045049Y-90849482D01*
X108041386Y-90846887D01*
X107884295Y-90726796D01*
X107681873Y-90567877D01*
X107678348Y-90564890D01*
X107597763Y-90491258D01*
X107534977Y-90433889D01*
X107380138Y-90289204D01*
X107344421Y-90255829D01*
X107341091Y-90252469D01*
X107245961Y-90148871D01*
X107213056Y-90113037D01*
X107035249Y-89915687D01*
X107032157Y-89911972D01*
X107022197Y-89899010D01*
X106921138Y-89767486D01*
X106756727Y-89550054D01*
X106753899Y-89545986D01*
X106661925Y-89401704D01*
X106653731Y-89388678D01*
X106510890Y-89161599D01*
X106508408Y-89157270D01*
X106438716Y-89023359D01*
X106299648Y-88753318D01*
X106297502Y-88748687D01*
X106270740Y-88683989D01*
X106257733Y-88652542D01*
X106125077Y-88329491D01*
X106123267Y-88324480D01*
X106072444Y-88162315D01*
X105988933Y-87895851D01*
X105987247Y-87889196D01*
X105951591Y-87706520D01*
X105951590Y-87706517D01*
X105951587Y-87706501D01*
X105883609Y-87472386D01*
X105866558Y-87403350D01*
X105860128Y-87391519D01*
X105855207Y-87374571D01*
X105845843Y-87342322D01*
X105735733Y-87060506D01*
X105722412Y-87022970D01*
X105719178Y-87018136D01*
X105719073Y-87017868D01*
X105707835Y-86989104D01*
X105538676Y-86649702D01*
X105538675Y-86649701D01*
X105538673Y-86649696D01*
X105504317Y-86593944D01*
X109254728Y-86593944D01*
X109284354Y-86863194D01*
X109284356Y-86863205D01*
X109342532Y-87085730D01*
X109352869Y-87125269D01*
X109458811Y-87374571D01*
X109599920Y-87605786D01*
X109599927Y-87605796D01*
X109773194Y-87814000D01*
X109773200Y-87814005D01*
X109861671Y-87893275D01*
X109974939Y-87994763D01*
X110200851Y-88144225D01*
X110446117Y-88259201D01*
X110446124Y-88259203D01*
X110446126Y-88259204D01*
X110705498Y-88337238D01*
X110705505Y-88337239D01*
X110705510Y-88337241D01*
X110973502Y-88376681D01*
X110973507Y-88376681D01*
X111176577Y-88376681D01*
X111228074Y-88372911D01*
X111379097Y-88361858D01*
X111535445Y-88327030D01*
X111643487Y-88302963D01*
X111643489Y-88302962D01*
X111643494Y-88302961D01*
X111896499Y-88206195D01*
X112132718Y-88073622D01*
X112347118Y-87908069D01*
X112535127Y-87713062D01*
X112692740Y-87492760D01*
X112770086Y-87342321D01*
X112816590Y-87251871D01*
X112816592Y-87251865D01*
X112816597Y-87251856D01*
X112904059Y-86995486D01*
X112953260Y-86729114D01*
X112963153Y-86458416D01*
X112933527Y-86189163D01*
X112865013Y-85927093D01*
X112759071Y-85677791D01*
X112617959Y-85446571D01*
X112556648Y-85372898D01*
X112444687Y-85238361D01*
X112444681Y-85238356D01*
X112242943Y-85057599D01*
X112017033Y-84908138D01*
X112017031Y-84908137D01*
X111771765Y-84793161D01*
X111771760Y-84793159D01*
X111771755Y-84793157D01*
X111512383Y-84715123D01*
X111512369Y-84715120D01*
X111396732Y-84698102D01*
X111244380Y-84675681D01*
X111041310Y-84675681D01*
X111041305Y-84675681D01*
X110838785Y-84690504D01*
X110838772Y-84690506D01*
X110574394Y-84749398D01*
X110574387Y-84749401D01*
X110321380Y-84846168D01*
X110085167Y-84978738D01*
X110085165Y-84978739D01*
X110085164Y-84978740D01*
X110037699Y-85015391D01*
X109870763Y-85144293D01*
X109682763Y-85339290D01*
X109682757Y-85339297D01*
X109525143Y-85559600D01*
X109525140Y-85559605D01*
X109401291Y-85800490D01*
X109401284Y-85800508D01*
X109313825Y-86056866D01*
X109313822Y-86056880D01*
X109299758Y-86133025D01*
X109275323Y-86265316D01*
X109264622Y-86323249D01*
X109264621Y-86323256D01*
X109254728Y-86593944D01*
X105504317Y-86593944D01*
X105439523Y-86488796D01*
X105339733Y-86326855D01*
X105112611Y-86023170D01*
X105094708Y-86003247D01*
X104859144Y-85741097D01*
X104581391Y-85482926D01*
X104581383Y-85482920D01*
X104281569Y-85250721D01*
X104281568Y-85250720D01*
X104281565Y-85250718D01*
X104255301Y-85233917D01*
X104252287Y-85230454D01*
X104216967Y-85209395D01*
X103962113Y-85046367D01*
X103939471Y-85034602D01*
X103916663Y-85022751D01*
X103908993Y-85015391D01*
X103841942Y-84983926D01*
X103625611Y-84871520D01*
X103625608Y-84871519D01*
X103544406Y-84838198D01*
X103543890Y-84837785D01*
X103450189Y-84799537D01*
X103450190Y-84799537D01*
X103449727Y-84799348D01*
X103449726Y-84799348D01*
X103442614Y-84796445D01*
X103442578Y-84796429D01*
X103441781Y-84796104D01*
X103424664Y-84799548D01*
X91251587Y-84823275D01*
X91236038Y-84818742D01*
X91230061Y-84819909D01*
X91229059Y-84819815D01*
X91224961Y-84820828D01*
X91221973Y-84821488D01*
X91026525Y-84859644D01*
X90791316Y-84927946D01*
X90722766Y-84944879D01*
X90711023Y-84951263D01*
X90662348Y-84965397D01*
X90379161Y-85076052D01*
X90342341Y-85089120D01*
X90337613Y-85092286D01*
X90309143Y-85103410D01*
X89969720Y-85272589D01*
X89646889Y-85471531D01*
X89343207Y-85698655D01*
X89343196Y-85698664D01*
X89061131Y-85952129D01*
X89061129Y-85952132D01*
X88802964Y-86229883D01*
X88802951Y-86229898D01*
X88570761Y-86529700D01*
X88554279Y-86555465D01*
X88550884Y-86558418D01*
X88530239Y-86593043D01*
X88366411Y-86849145D01*
X88366406Y-86849152D01*
X88366403Y-86849159D01*
X88359108Y-86863199D01*
X88343017Y-86894166D01*
X88335733Y-86901755D01*
X88304502Y-86968288D01*
X88191552Y-87185661D01*
X88191549Y-87185666D01*
X88133365Y-87327459D01*
X88123127Y-87340367D01*
X88121819Y-87347958D01*
X88114523Y-87373514D01*
X88110774Y-87382752D01*
X88112206Y-87394958D01*
X88111228Y-87400049D01*
X88027738Y-87790535D01*
X88026402Y-87795690D01*
X87923478Y-88132573D01*
X87897914Y-88215512D01*
X87896186Y-88220387D01*
X87783173Y-88501388D01*
X87731195Y-88629101D01*
X87729094Y-88633714D01*
X87602247Y-88884511D01*
X87529304Y-89026682D01*
X87526862Y-89031006D01*
X87385283Y-89259802D01*
X87293771Y-89405259D01*
X87291022Y-89409271D01*
X87134881Y-89618986D01*
X87026350Y-89762022D01*
X87023328Y-89765702D01*
X86853245Y-89957343D01*
X86729060Y-90094276D01*
X86725803Y-90097607D01*
X86542652Y-90271355D01*
X86404137Y-90399534D01*
X86400681Y-90402504D01*
X86205514Y-90558139D01*
X86054024Y-90675503D01*
X86050407Y-90678103D01*
X85844461Y-90815194D01*
X85681339Y-90920123D01*
X85677599Y-90922347D01*
X85462234Y-91040404D01*
X85288884Y-91131555D01*
X85285057Y-91133402D01*
X85061672Y-91231975D01*
X84879627Y-91308206D01*
X84875751Y-91309678D01*
X84645814Y-91388359D01*
X84456635Y-91448759D01*
X84452744Y-91449863D01*
X84217848Y-91508298D01*
X84023076Y-91552164D01*
X84019204Y-91552907D01*
X83780962Y-91590853D01*
X83582211Y-91617647D01*
X83578392Y-91618042D01*
X83338440Y-91635366D01*
X83137344Y-91644719D01*
X83133607Y-91644780D01*
X82893618Y-91641468D01*
X82691835Y-91633181D01*
X82688209Y-91632925D01*
X82449851Y-91609089D01*
X82248992Y-91583120D01*
X82245504Y-91582568D01*
X82010473Y-91538453D01*
X81812201Y-91494927D01*
X81808873Y-91494100D01*
X81578756Y-91430063D01*
X81384679Y-91369258D01*
X81381532Y-91368178D01*
X81158004Y-91284733D01*
X80969663Y-91207063D01*
X80966714Y-91205756D01*
X80751346Y-91103532D01*
X80629690Y-91040404D01*
X80570249Y-91009559D01*
X80567532Y-91008061D01*
X80361844Y-90887812D01*
X80189472Y-90778252D01*
X80186963Y-90776570D01*
X79992435Y-90639187D01*
X79830127Y-90514846D01*
X79827862Y-90513024D01*
X79645902Y-90359520D01*
X79494978Y-90221370D01*
X79492945Y-90219422D01*
X79324818Y-90050876D01*
X79185582Y-89899010D01*
X79035178Y-89719818D01*
X79031624Y-89715583D01*
X78906207Y-89552141D01*
X78843901Y-89463450D01*
X78769325Y-89357292D01*
X78767784Y-89354988D01*
X78707176Y-89259802D01*
X78657916Y-89182438D01*
X78538255Y-88976576D01*
X78536848Y-88974019D01*
X78442537Y-88792628D01*
X78424014Y-88753350D01*
X78340961Y-88577234D01*
X78339740Y-88574472D01*
X78261722Y-88385716D01*
X78223425Y-88282342D01*
X78178948Y-88162285D01*
X78177949Y-88159360D01*
X78150159Y-88070911D01*
X78116796Y-87964725D01*
X78053441Y-87734834D01*
X78052696Y-87731830D01*
X78008837Y-87532803D01*
X77965404Y-87298175D01*
X77964896Y-87294951D01*
X77938650Y-87093220D01*
X77915478Y-86855492D01*
X77915241Y-86852108D01*
X77907619Y-86670093D01*
X81292000Y-86670093D01*
X81321626Y-86939343D01*
X81321628Y-86939354D01*
X81390139Y-87201412D01*
X81390141Y-87201418D01*
X81496083Y-87450720D01*
X81541225Y-87524687D01*
X81637192Y-87681935D01*
X81637199Y-87681945D01*
X81810466Y-87890149D01*
X81810472Y-87890154D01*
X81893654Y-87964685D01*
X82012211Y-88070912D01*
X82238123Y-88220374D01*
X82483389Y-88335350D01*
X82483396Y-88335352D01*
X82483398Y-88335353D01*
X82742770Y-88413387D01*
X82742777Y-88413388D01*
X82742782Y-88413390D01*
X83010774Y-88452830D01*
X83010779Y-88452830D01*
X83213849Y-88452830D01*
X83265346Y-88449060D01*
X83416369Y-88438007D01*
X83528971Y-88412923D01*
X83680759Y-88379112D01*
X83680761Y-88379111D01*
X83680766Y-88379110D01*
X83933771Y-88282344D01*
X84169990Y-88149771D01*
X84384390Y-87984218D01*
X84572399Y-87789211D01*
X84730012Y-87568909D01*
X84819446Y-87394958D01*
X84853862Y-87328020D01*
X84853864Y-87328014D01*
X84853869Y-87328005D01*
X84941331Y-87071635D01*
X84990532Y-86805263D01*
X85000425Y-86534565D01*
X84970799Y-86265312D01*
X84902285Y-86003242D01*
X84796343Y-85753940D01*
X84655231Y-85522720D01*
X84622114Y-85482926D01*
X84481959Y-85314510D01*
X84481953Y-85314505D01*
X84280215Y-85133748D01*
X84054305Y-84984287D01*
X84042468Y-84978738D01*
X83809037Y-84869310D01*
X83809032Y-84869308D01*
X83809027Y-84869306D01*
X83549655Y-84791272D01*
X83549641Y-84791269D01*
X83434004Y-84774251D01*
X83281652Y-84751830D01*
X83078582Y-84751830D01*
X83078577Y-84751830D01*
X82876057Y-84766653D01*
X82876044Y-84766655D01*
X82611666Y-84825547D01*
X82611659Y-84825550D01*
X82358652Y-84922317D01*
X82122439Y-85054887D01*
X82122437Y-85054888D01*
X82122436Y-85054889D01*
X82074005Y-85092286D01*
X81908035Y-85220442D01*
X81720035Y-85415439D01*
X81720029Y-85415446D01*
X81562415Y-85635749D01*
X81562412Y-85635754D01*
X81438563Y-85876639D01*
X81438556Y-85876657D01*
X81351097Y-86133015D01*
X81351094Y-86133029D01*
X81333203Y-86229889D01*
X81305104Y-86382021D01*
X81301894Y-86399398D01*
X81301893Y-86399405D01*
X81292000Y-86670093D01*
X77907619Y-86670093D01*
X77906748Y-86649282D01*
X77904045Y-86410107D01*
X77904106Y-86406602D01*
X77904435Y-86399398D01*
X77913353Y-86204279D01*
X77931200Y-85965399D01*
X77931574Y-85961815D01*
X77936226Y-85927098D01*
X77958399Y-85761611D01*
X77996746Y-85524661D01*
X77997440Y-85521065D01*
X78041520Y-85324604D01*
X78100197Y-85091227D01*
X78101207Y-85087675D01*
X78162072Y-84896509D01*
X78240765Y-84668397D01*
X78242128Y-84664817D01*
X78319117Y-84480549D01*
X78417416Y-84259279D01*
X78419141Y-84255715D01*
X78511432Y-84079857D01*
X78628817Y-83866980D01*
X78630895Y-83863493D01*
X78737519Y-83697441D01*
X78873392Y-83494426D01*
X78875819Y-83491056D01*
X78995623Y-83336159D01*
X79149295Y-83144438D01*
X79152079Y-83141204D01*
X79283715Y-82998726D01*
X79323036Y-82957483D01*
X79379871Y-82897870D01*
X88774500Y-82897870D01*
X88774501Y-82897876D01*
X88780908Y-82957483D01*
X88831202Y-83092328D01*
X88831206Y-83092335D01*
X88917452Y-83207544D01*
X88917455Y-83207547D01*
X89032664Y-83293793D01*
X89032671Y-83293797D01*
X89167517Y-83344091D01*
X89167516Y-83344091D01*
X89174444Y-83344835D01*
X89227127Y-83350500D01*
X91022872Y-83350499D01*
X91082483Y-83344091D01*
X91217331Y-83293796D01*
X91332546Y-83207546D01*
X91418796Y-83092331D01*
X91468002Y-82960401D01*
X91509872Y-82904468D01*
X91575337Y-82880050D01*
X91643610Y-82894901D01*
X91671865Y-82916053D01*
X91793917Y-83038105D01*
X91987421Y-83173600D01*
X92201507Y-83273429D01*
X92201516Y-83273433D01*
X92415000Y-83330634D01*
X92415000Y-82612301D01*
X92434685Y-82545262D01*
X92487489Y-82499507D01*
X92556647Y-82489563D01*
X92629237Y-82500000D01*
X92629238Y-82500000D01*
X92700762Y-82500000D01*
X92700763Y-82500000D01*
X92773353Y-82489563D01*
X92842512Y-82499507D01*
X92895315Y-82545262D01*
X92915000Y-82612301D01*
X92915000Y-83330633D01*
X93128483Y-83273433D01*
X93128492Y-83273429D01*
X93342578Y-83173600D01*
X93536082Y-83038105D01*
X93703105Y-82871082D01*
X93838600Y-82677578D01*
X93938429Y-82463492D01*
X93938432Y-82463486D01*
X93995636Y-82250000D01*
X93278347Y-82250000D01*
X93211308Y-82230315D01*
X93165553Y-82177511D01*
X93155609Y-82108353D01*
X93159369Y-82091067D01*
X93165000Y-82071888D01*
X93165000Y-81928111D01*
X93159369Y-81908933D01*
X93159370Y-81839064D01*
X93197145Y-81780286D01*
X93260701Y-81751262D01*
X93278347Y-81750000D01*
X93995636Y-81750000D01*
X93995635Y-81749999D01*
X93938432Y-81536513D01*
X93938429Y-81536507D01*
X93838600Y-81322422D01*
X93838599Y-81322420D01*
X93703113Y-81128926D01*
X93703108Y-81128920D01*
X93536082Y-80961894D01*
X93342578Y-80826399D01*
X93128492Y-80726570D01*
X93128486Y-80726567D01*
X92915000Y-80669364D01*
X92915000Y-81387698D01*
X92895315Y-81454737D01*
X92842511Y-81500492D01*
X92773355Y-81510436D01*
X92700766Y-81500000D01*
X92700763Y-81500000D01*
X92629237Y-81500000D01*
X92629233Y-81500000D01*
X92556645Y-81510436D01*
X92487487Y-81500492D01*
X92434684Y-81454736D01*
X92415000Y-81387698D01*
X92415000Y-80669364D01*
X92414999Y-80669364D01*
X92201513Y-80726567D01*
X92201507Y-80726570D01*
X91987422Y-80826399D01*
X91987420Y-80826400D01*
X91793926Y-80961886D01*
X91671865Y-81083947D01*
X91610542Y-81117431D01*
X91540850Y-81112447D01*
X91484917Y-81070575D01*
X91468002Y-81039598D01*
X91459177Y-81015938D01*
X91439018Y-80961886D01*
X91418797Y-80907671D01*
X91418793Y-80907664D01*
X91332547Y-80792455D01*
X91332544Y-80792452D01*
X91217335Y-80706206D01*
X91217328Y-80706202D01*
X91082482Y-80655908D01*
X91082483Y-80655908D01*
X91022883Y-80649501D01*
X91022881Y-80649500D01*
X91022873Y-80649500D01*
X91022864Y-80649500D01*
X89227129Y-80649500D01*
X89227123Y-80649501D01*
X89167516Y-80655908D01*
X89032671Y-80706202D01*
X89032664Y-80706206D01*
X88917455Y-80792452D01*
X88917452Y-80792455D01*
X88831206Y-80907664D01*
X88831202Y-80907671D01*
X88780908Y-81042517D01*
X88774501Y-81102116D01*
X88774500Y-81102135D01*
X88774500Y-82897870D01*
X79379871Y-82897870D01*
X79454489Y-82819605D01*
X79457594Y-82816574D01*
X79599467Y-82687704D01*
X79786626Y-82522432D01*
X79790098Y-82519587D01*
X79940334Y-82405403D01*
X80143275Y-82255091D01*
X80147050Y-82252509D01*
X80303403Y-82153967D01*
X80521745Y-82019611D01*
X80525836Y-82017305D01*
X80685480Y-81935238D01*
X80699659Y-81928111D01*
X80919204Y-81817758D01*
X80923528Y-81815793D01*
X81082549Y-81750925D01*
X81332632Y-81651072D01*
X81337246Y-81649441D01*
X81489664Y-81602327D01*
X81758942Y-81520792D01*
X81763787Y-81519539D01*
X81898563Y-81490492D01*
X82194960Y-81427894D01*
X82200012Y-81427045D01*
X82286065Y-81416254D01*
X82635791Y-81373279D01*
X82641076Y-81372859D01*
X83039088Y-81358366D01*
X83053618Y-81362064D01*
X83067633Y-81359306D01*
X83092400Y-81356975D01*
X83102196Y-81357039D01*
X83115266Y-81349959D01*
X83117298Y-81349542D01*
X83205850Y-81332157D01*
X83264730Y-81320598D01*
X83264731Y-81320597D01*
X83264739Y-81320596D01*
X83497342Y-81252792D01*
X83566337Y-81235672D01*
X83578140Y-81229239D01*
X83626319Y-81215196D01*
X83906300Y-81105498D01*
X83943975Y-81092087D01*
X83948812Y-81088842D01*
X83976992Y-81077801D01*
X84313933Y-80909516D01*
X84634427Y-80711698D01*
X84935894Y-80485940D01*
X85215904Y-80234060D01*
X85472202Y-79958088D01*
X85702722Y-79660247D01*
X85719027Y-79634745D01*
X85722501Y-79631721D01*
X85743638Y-79596255D01*
X85905609Y-79342937D01*
X85928735Y-79298419D01*
X85936089Y-79290753D01*
X85967542Y-79223711D01*
X86079227Y-79008713D01*
X86150657Y-78834608D01*
X86150743Y-78834402D01*
X86154271Y-78825950D01*
X86150805Y-78808595D01*
X86152040Y-78296917D01*
X86167479Y-71900000D01*
X88174357Y-71900000D01*
X88194884Y-72121535D01*
X88194885Y-72121537D01*
X88255769Y-72335523D01*
X88255775Y-72335538D01*
X88354938Y-72534683D01*
X88354943Y-72534691D01*
X88489020Y-72712238D01*
X88653437Y-72862123D01*
X88653439Y-72862125D01*
X88842595Y-72979245D01*
X88842596Y-72979245D01*
X88842599Y-72979247D01*
X89050060Y-73059618D01*
X89268757Y-73100500D01*
X89268759Y-73100500D01*
X89491241Y-73100500D01*
X89491243Y-73100500D01*
X89709940Y-73059618D01*
X89917401Y-72979247D01*
X90106562Y-72862124D01*
X90270981Y-72712236D01*
X90405058Y-72534689D01*
X90504229Y-72335528D01*
X90565115Y-72121536D01*
X90585643Y-71900000D01*
X90584710Y-71889936D01*
X90565115Y-71678464D01*
X90565114Y-71678462D01*
X90504230Y-71464476D01*
X90504229Y-71464472D01*
X90409634Y-71274500D01*
X90405061Y-71265316D01*
X90405056Y-71265308D01*
X90270979Y-71087761D01*
X90106562Y-70937876D01*
X90106560Y-70937874D01*
X89917404Y-70820754D01*
X89917398Y-70820752D01*
X89709940Y-70740382D01*
X89491243Y-70699500D01*
X89268757Y-70699500D01*
X89050060Y-70740382D01*
X88918864Y-70791207D01*
X88842601Y-70820752D01*
X88842595Y-70820754D01*
X88653439Y-70937874D01*
X88653437Y-70937876D01*
X88489020Y-71087761D01*
X88354943Y-71265308D01*
X88354938Y-71265316D01*
X88255775Y-71464461D01*
X88255769Y-71464476D01*
X88194885Y-71678462D01*
X88194884Y-71678464D01*
X88174357Y-71899999D01*
X88174357Y-71900000D01*
X86167479Y-71900000D01*
X86175323Y-68650000D01*
X88203505Y-68650000D01*
X88256239Y-68835349D01*
X88355368Y-69034425D01*
X88489391Y-69211900D01*
X88653738Y-69361721D01*
X88842820Y-69478797D01*
X88842822Y-69478798D01*
X89050195Y-69559135D01*
X89130000Y-69574052D01*
X89130000Y-68857898D01*
X89149685Y-68790859D01*
X89202489Y-68745104D01*
X89271647Y-68735160D01*
X89294259Y-68740615D01*
X89321595Y-68750000D01*
X89409004Y-68750000D01*
X89409005Y-68750000D01*
X89485590Y-68737220D01*
X89554955Y-68745602D01*
X89608777Y-68790155D01*
X89629968Y-68856733D01*
X89630000Y-68859529D01*
X89630000Y-69574052D01*
X89709804Y-69559135D01*
X89917177Y-69478798D01*
X89917179Y-69478797D01*
X90106261Y-69361721D01*
X90270608Y-69211900D01*
X90404631Y-69034425D01*
X90503760Y-68835349D01*
X90556495Y-68650000D01*
X89842047Y-68650000D01*
X89775008Y-68630315D01*
X89729253Y-68577511D01*
X89719309Y-68508353D01*
X89721842Y-68495557D01*
X89723979Y-68487114D01*
X89723982Y-68487108D01*
X89733628Y-68370698D01*
X89716849Y-68304438D01*
X89719475Y-68234619D01*
X89759431Y-68177302D01*
X89824032Y-68150686D01*
X89837055Y-68150000D01*
X90556495Y-68150000D01*
X90503760Y-67964650D01*
X90404631Y-67765574D01*
X90270608Y-67588099D01*
X90106261Y-67438278D01*
X89917179Y-67321202D01*
X89917177Y-67321201D01*
X89709799Y-67240864D01*
X89630000Y-67225946D01*
X89630000Y-67942101D01*
X89610315Y-68009140D01*
X89557511Y-68054895D01*
X89488353Y-68064839D01*
X89465738Y-68059383D01*
X89438406Y-68050000D01*
X89438405Y-68050000D01*
X89350995Y-68050000D01*
X89350994Y-68050000D01*
X89274408Y-68062779D01*
X89205043Y-68054396D01*
X89151222Y-68009843D01*
X89130031Y-67943264D01*
X89130000Y-67940470D01*
X89130000Y-67225946D01*
X89050200Y-67240864D01*
X88842822Y-67321201D01*
X88842820Y-67321202D01*
X88653738Y-67438278D01*
X88489391Y-67588099D01*
X88355368Y-67765574D01*
X88256239Y-67964650D01*
X88203505Y-68150000D01*
X88917953Y-68150000D01*
X88984992Y-68169685D01*
X89030747Y-68222489D01*
X89040691Y-68291647D01*
X89038158Y-68304443D01*
X89036017Y-68312896D01*
X89026371Y-68429299D01*
X89026371Y-68429302D01*
X89026372Y-68429302D01*
X89041010Y-68487108D01*
X89043151Y-68495560D01*
X89040525Y-68565381D01*
X89000569Y-68622698D01*
X88935968Y-68649314D01*
X88922945Y-68650000D01*
X88203505Y-68650000D01*
X86175323Y-68650000D01*
X86183409Y-65300000D01*
X87984357Y-65300000D01*
X88004884Y-65521535D01*
X88004885Y-65521537D01*
X88065769Y-65735523D01*
X88065775Y-65735538D01*
X88164938Y-65934683D01*
X88164943Y-65934691D01*
X88299020Y-66112238D01*
X88463437Y-66262123D01*
X88463439Y-66262125D01*
X88652595Y-66379245D01*
X88652596Y-66379245D01*
X88652599Y-66379247D01*
X88860060Y-66459618D01*
X89078757Y-66500500D01*
X89078759Y-66500500D01*
X89301241Y-66500500D01*
X89301243Y-66500500D01*
X89519940Y-66459618D01*
X89727401Y-66379247D01*
X89916562Y-66262124D01*
X90080981Y-66112236D01*
X90215058Y-65934689D01*
X90314229Y-65735528D01*
X90375115Y-65521536D01*
X90395643Y-65300000D01*
X90375115Y-65078464D01*
X90314229Y-64864472D01*
X90314224Y-64864461D01*
X90215061Y-64665316D01*
X90215056Y-64665308D01*
X90080979Y-64487761D01*
X89916562Y-64337876D01*
X89916560Y-64337874D01*
X89727404Y-64220754D01*
X89727398Y-64220752D01*
X89519940Y-64140382D01*
X89301243Y-64099500D01*
X89078757Y-64099500D01*
X88860060Y-64140382D01*
X88728864Y-64191207D01*
X88652601Y-64220752D01*
X88652595Y-64220754D01*
X88463439Y-64337874D01*
X88463437Y-64337876D01*
X88299020Y-64487761D01*
X88164943Y-64665308D01*
X88164938Y-64665316D01*
X88065775Y-64864461D01*
X88065769Y-64864476D01*
X88004885Y-65078462D01*
X88004884Y-65078464D01*
X87984357Y-65299999D01*
X87984357Y-65300000D01*
X86183409Y-65300000D01*
X86190287Y-62450000D01*
X88003505Y-62450000D01*
X88056239Y-62635349D01*
X88155368Y-62834425D01*
X88289391Y-63011900D01*
X88453738Y-63161721D01*
X88642820Y-63278797D01*
X88642822Y-63278798D01*
X88850195Y-63359135D01*
X88930000Y-63374052D01*
X88930000Y-62657898D01*
X88949685Y-62590859D01*
X89002489Y-62545104D01*
X89071647Y-62535160D01*
X89094259Y-62540615D01*
X89121595Y-62550000D01*
X89209004Y-62550000D01*
X89209005Y-62550000D01*
X89285590Y-62537220D01*
X89354955Y-62545602D01*
X89408777Y-62590155D01*
X89429968Y-62656733D01*
X89430000Y-62659529D01*
X89430000Y-63374052D01*
X89509804Y-63359135D01*
X89717177Y-63278798D01*
X89717179Y-63278797D01*
X89906261Y-63161721D01*
X90070608Y-63011900D01*
X90204631Y-62834425D01*
X90303760Y-62635349D01*
X90356495Y-62450000D01*
X89642047Y-62450000D01*
X89575008Y-62430315D01*
X89529253Y-62377511D01*
X89519309Y-62308353D01*
X89521842Y-62295557D01*
X89523979Y-62287114D01*
X89523982Y-62287108D01*
X89533628Y-62170698D01*
X89516849Y-62104438D01*
X89519475Y-62034619D01*
X89559431Y-61977302D01*
X89624032Y-61950686D01*
X89637055Y-61950000D01*
X90356495Y-61950000D01*
X90303760Y-61764650D01*
X90204631Y-61565574D01*
X90070608Y-61388099D01*
X89906261Y-61238278D01*
X89717179Y-61121202D01*
X89717177Y-61121201D01*
X89509799Y-61040864D01*
X89430000Y-61025946D01*
X89430000Y-61742101D01*
X89410315Y-61809140D01*
X89357511Y-61854895D01*
X89288353Y-61864839D01*
X89265738Y-61859383D01*
X89238406Y-61850000D01*
X89238405Y-61850000D01*
X89150995Y-61850000D01*
X89150994Y-61850000D01*
X89074408Y-61862779D01*
X89005043Y-61854396D01*
X88951222Y-61809843D01*
X88930031Y-61743264D01*
X88930000Y-61740470D01*
X88930000Y-61025946D01*
X88850200Y-61040864D01*
X88642822Y-61121201D01*
X88642820Y-61121202D01*
X88453738Y-61238278D01*
X88289391Y-61388099D01*
X88155368Y-61565574D01*
X88056239Y-61764650D01*
X88003505Y-61950000D01*
X88717953Y-61950000D01*
X88784992Y-61969685D01*
X88830747Y-62022489D01*
X88840691Y-62091647D01*
X88838158Y-62104443D01*
X88836017Y-62112896D01*
X88826371Y-62229299D01*
X88826371Y-62229302D01*
X88826372Y-62229302D01*
X88841010Y-62287108D01*
X88843151Y-62295560D01*
X88840525Y-62365381D01*
X88800569Y-62422698D01*
X88735968Y-62449314D01*
X88722945Y-62450000D01*
X88003505Y-62450000D01*
X86190287Y-62450000D01*
X86194123Y-60860681D01*
X86198732Y-60845124D01*
X86194383Y-60822827D01*
X86192287Y-60811435D01*
X86191865Y-60810016D01*
X86157872Y-60635858D01*
X86157870Y-60635850D01*
X86157867Y-60635834D01*
X86090026Y-60402184D01*
X86072921Y-60332932D01*
X86066473Y-60321067D01*
X86052128Y-60271660D01*
X86052122Y-60271644D01*
X85942240Y-59990409D01*
X85928817Y-59952585D01*
X85925560Y-59947717D01*
X85914120Y-59918437D01*
X85744963Y-59579034D01*
X85546022Y-59256187D01*
X85465014Y-59147870D01*
X88024500Y-59147870D01*
X88024501Y-59147876D01*
X88030908Y-59207483D01*
X88081202Y-59342328D01*
X88081206Y-59342335D01*
X88167452Y-59457544D01*
X88167455Y-59457547D01*
X88282664Y-59543793D01*
X88282671Y-59543797D01*
X88417517Y-59594091D01*
X88417516Y-59594091D01*
X88423581Y-59594743D01*
X88477127Y-59600500D01*
X89664547Y-59600499D01*
X89731586Y-59620184D01*
X89752228Y-59636817D01*
X91288182Y-61172772D01*
X91321666Y-61234093D01*
X91324500Y-61260451D01*
X91324500Y-74529546D01*
X91304815Y-74596585D01*
X91288181Y-74617227D01*
X90718926Y-75186482D01*
X90657603Y-75219967D01*
X90587911Y-75214983D01*
X90531978Y-75173111D01*
X90507561Y-75107647D01*
X90520247Y-75043526D01*
X90524223Y-75035541D01*
X90524224Y-75035536D01*
X90524229Y-75035528D01*
X90585115Y-74821536D01*
X90605643Y-74600000D01*
X90585115Y-74378464D01*
X90524229Y-74164472D01*
X90524224Y-74164461D01*
X90425061Y-73965316D01*
X90425056Y-73965308D01*
X90290979Y-73787761D01*
X90126562Y-73637876D01*
X90126560Y-73637874D01*
X89937404Y-73520754D01*
X89937398Y-73520752D01*
X89729940Y-73440382D01*
X89511243Y-73399500D01*
X89288757Y-73399500D01*
X89070060Y-73440382D01*
X88957237Y-73484090D01*
X88862601Y-73520752D01*
X88862595Y-73520754D01*
X88673439Y-73637874D01*
X88673437Y-73637876D01*
X88509020Y-73787761D01*
X88374943Y-73965308D01*
X88374938Y-73965316D01*
X88275775Y-74164461D01*
X88275769Y-74164476D01*
X88214885Y-74378462D01*
X88214884Y-74378464D01*
X88194357Y-74599999D01*
X88194357Y-74600000D01*
X88214884Y-74821535D01*
X88214885Y-74821537D01*
X88275769Y-75035523D01*
X88275775Y-75035538D01*
X88374938Y-75234683D01*
X88374943Y-75234691D01*
X88509020Y-75412238D01*
X88673437Y-75562123D01*
X88673439Y-75562125D01*
X88862595Y-75679245D01*
X88862596Y-75679245D01*
X88862599Y-75679247D01*
X89070060Y-75759618D01*
X89288757Y-75800500D01*
X89288759Y-75800500D01*
X89511241Y-75800500D01*
X89511243Y-75800500D01*
X89729940Y-75759618D01*
X89860644Y-75708982D01*
X89930264Y-75703121D01*
X89992004Y-75735831D01*
X90026259Y-75796727D01*
X90022154Y-75866476D01*
X89993116Y-75912291D01*
X89719892Y-76185515D01*
X89658569Y-76219000D01*
X89609426Y-76219722D01*
X89501243Y-76199500D01*
X89278757Y-76199500D01*
X89060060Y-76240382D01*
X88928864Y-76291207D01*
X88852601Y-76320752D01*
X88852595Y-76320754D01*
X88663439Y-76437874D01*
X88663437Y-76437876D01*
X88499020Y-76587761D01*
X88364943Y-76765308D01*
X88364938Y-76765316D01*
X88265775Y-76964461D01*
X88265769Y-76964476D01*
X88204885Y-77178462D01*
X88204884Y-77178464D01*
X88184357Y-77399999D01*
X88184357Y-77400000D01*
X88204884Y-77621535D01*
X88204885Y-77621537D01*
X88265769Y-77835523D01*
X88265775Y-77835538D01*
X88364938Y-78034683D01*
X88364943Y-78034691D01*
X88499020Y-78212238D01*
X88663437Y-78362123D01*
X88663439Y-78362125D01*
X88852595Y-78479245D01*
X88852596Y-78479245D01*
X88852599Y-78479247D01*
X89060060Y-78559618D01*
X89278757Y-78600500D01*
X89278759Y-78600500D01*
X89501241Y-78600500D01*
X89501243Y-78600500D01*
X89719940Y-78559618D01*
X89927401Y-78479247D01*
X90116562Y-78362124D01*
X90280981Y-78212236D01*
X90415058Y-78034689D01*
X90514229Y-77835528D01*
X90575115Y-77621536D01*
X90595643Y-77400000D01*
X95804357Y-77400000D01*
X95824884Y-77621535D01*
X95824885Y-77621537D01*
X95885769Y-77835523D01*
X95885775Y-77835538D01*
X95984938Y-78034683D01*
X95984943Y-78034691D01*
X96119020Y-78212238D01*
X96283437Y-78362123D01*
X96283439Y-78362125D01*
X96472595Y-78479245D01*
X96472596Y-78479245D01*
X96472599Y-78479247D01*
X96680060Y-78559618D01*
X96898757Y-78600500D01*
X96898759Y-78600500D01*
X97121241Y-78600500D01*
X97121243Y-78600500D01*
X97339940Y-78559618D01*
X97547401Y-78479247D01*
X97736562Y-78362124D01*
X97900981Y-78212236D01*
X98035058Y-78034689D01*
X98134229Y-77835528D01*
X98195115Y-77621536D01*
X98215643Y-77400000D01*
X98211893Y-77359535D01*
X98195115Y-77178464D01*
X98195114Y-77178462D01*
X98193750Y-77173669D01*
X98134229Y-76964472D01*
X98134224Y-76964461D01*
X98035061Y-76765316D01*
X98035056Y-76765308D01*
X97900979Y-76587761D01*
X97736562Y-76437876D01*
X97736560Y-76437874D01*
X97547404Y-76320754D01*
X97547398Y-76320752D01*
X97339940Y-76240382D01*
X97121243Y-76199500D01*
X96898757Y-76199500D01*
X96680060Y-76240382D01*
X96548864Y-76291207D01*
X96472601Y-76320752D01*
X96472595Y-76320754D01*
X96283439Y-76437874D01*
X96283437Y-76437876D01*
X96119020Y-76587761D01*
X95984943Y-76765308D01*
X95984938Y-76765316D01*
X95885775Y-76964461D01*
X95885769Y-76964476D01*
X95824885Y-77178462D01*
X95824884Y-77178464D01*
X95804357Y-77399999D01*
X95804357Y-77400000D01*
X90595643Y-77400000D01*
X90575115Y-77178464D01*
X90575112Y-77178454D01*
X90574685Y-77176167D01*
X90574798Y-77175046D01*
X90574586Y-77172755D01*
X90575034Y-77172713D01*
X90581713Y-77106651D01*
X90608890Y-77065698D01*
X92333786Y-75340802D01*
X92346048Y-75330980D01*
X92345865Y-75330759D01*
X92351867Y-75325792D01*
X92351877Y-75325786D01*
X92399241Y-75275348D01*
X92420120Y-75254470D01*
X92424373Y-75248986D01*
X92428150Y-75244563D01*
X92460062Y-75210582D01*
X92469714Y-75193023D01*
X92480389Y-75176772D01*
X92492674Y-75160936D01*
X92511186Y-75118152D01*
X92513742Y-75112935D01*
X92536197Y-75072092D01*
X92541180Y-75052680D01*
X92547477Y-75034291D01*
X92555438Y-75015895D01*
X92562729Y-74969853D01*
X92563908Y-74964162D01*
X92575500Y-74919019D01*
X92575500Y-74898982D01*
X92577027Y-74879582D01*
X92580160Y-74859804D01*
X92575775Y-74813415D01*
X92575500Y-74807577D01*
X92575500Y-65300000D01*
X95604357Y-65300000D01*
X95624884Y-65521535D01*
X95624885Y-65521537D01*
X95685769Y-65735523D01*
X95685775Y-65735538D01*
X95784938Y-65934683D01*
X95784943Y-65934691D01*
X95919020Y-66112238D01*
X96083437Y-66262123D01*
X96083439Y-66262125D01*
X96272595Y-66379245D01*
X96272596Y-66379245D01*
X96272599Y-66379247D01*
X96480060Y-66459618D01*
X96698757Y-66500500D01*
X96698759Y-66500500D01*
X96921241Y-66500500D01*
X96921243Y-66500500D01*
X97029429Y-66480276D01*
X97098943Y-66487307D01*
X97139894Y-66514484D01*
X97854988Y-67229578D01*
X97888473Y-67290901D01*
X97883489Y-67360593D01*
X97841617Y-67416526D01*
X97776153Y-67440943D01*
X97707880Y-67426091D01*
X97702030Y-67422686D01*
X97537404Y-67320754D01*
X97537398Y-67320752D01*
X97329940Y-67240382D01*
X97111243Y-67199500D01*
X96888757Y-67199500D01*
X96670060Y-67240382D01*
X96623517Y-67258413D01*
X96462601Y-67320752D01*
X96462595Y-67320754D01*
X96273439Y-67437874D01*
X96273437Y-67437876D01*
X96109020Y-67587761D01*
X95974943Y-67765308D01*
X95974938Y-67765316D01*
X95875775Y-67964461D01*
X95875769Y-67964476D01*
X95814885Y-68178462D01*
X95814884Y-68178464D01*
X95794357Y-68399999D01*
X95794357Y-68400000D01*
X95814884Y-68621535D01*
X95814885Y-68621537D01*
X95875769Y-68835523D01*
X95875775Y-68835538D01*
X95974938Y-69034683D01*
X95974943Y-69034691D01*
X96109020Y-69212238D01*
X96273437Y-69362123D01*
X96273439Y-69362125D01*
X96462595Y-69479245D01*
X96462596Y-69479245D01*
X96462599Y-69479247D01*
X96670060Y-69559618D01*
X96888757Y-69600500D01*
X96888759Y-69600500D01*
X97111241Y-69600500D01*
X97111243Y-69600500D01*
X97329940Y-69559618D01*
X97537401Y-69479247D01*
X97726562Y-69362124D01*
X97890981Y-69212236D01*
X98025058Y-69034689D01*
X98124229Y-68835528D01*
X98185115Y-68621536D01*
X98205643Y-68400000D01*
X98196788Y-68304443D01*
X98185115Y-68178464D01*
X98185114Y-68178462D01*
X98184888Y-68177669D01*
X98124229Y-67964472D01*
X98121345Y-67958680D01*
X98025061Y-67765316D01*
X98025056Y-67765308D01*
X97973796Y-67697429D01*
X97949104Y-67632067D01*
X97963669Y-67563733D01*
X98012867Y-67514120D01*
X98081076Y-67498982D01*
X98146643Y-67523124D01*
X98160431Y-67535021D01*
X98538181Y-67912771D01*
X98571666Y-67974094D01*
X98574500Y-68000452D01*
X98574499Y-71067255D01*
X98572776Y-71082872D01*
X98573061Y-71082899D01*
X98572326Y-71090665D01*
X98574085Y-71146605D01*
X98556516Y-71214230D01*
X98505175Y-71261621D01*
X98450146Y-71274500D01*
X98093742Y-71274500D01*
X98026703Y-71254815D01*
X97994788Y-71225227D01*
X97890979Y-71087761D01*
X97726562Y-70937876D01*
X97726560Y-70937874D01*
X97537404Y-70820754D01*
X97537398Y-70820752D01*
X97329940Y-70740382D01*
X97111243Y-70699500D01*
X96888757Y-70699500D01*
X96670060Y-70740382D01*
X96538864Y-70791207D01*
X96462601Y-70820752D01*
X96462595Y-70820754D01*
X96273439Y-70937874D01*
X96273437Y-70937876D01*
X96109020Y-71087761D01*
X95974943Y-71265308D01*
X95974938Y-71265316D01*
X95875775Y-71464461D01*
X95875769Y-71464476D01*
X95814885Y-71678462D01*
X95814884Y-71678464D01*
X95794357Y-71899999D01*
X95794357Y-71900000D01*
X95814884Y-72121535D01*
X95814885Y-72121537D01*
X95875769Y-72335523D01*
X95875775Y-72335538D01*
X95974938Y-72534683D01*
X95974943Y-72534691D01*
X96109020Y-72712238D01*
X96273437Y-72862123D01*
X96273439Y-72862125D01*
X96462595Y-72979245D01*
X96462596Y-72979245D01*
X96462599Y-72979247D01*
X96670060Y-73059618D01*
X96888757Y-73100500D01*
X96888759Y-73100500D01*
X97111241Y-73100500D01*
X97111243Y-73100500D01*
X97329940Y-73059618D01*
X97537401Y-72979247D01*
X97726562Y-72862124D01*
X97890981Y-72712236D01*
X97994788Y-72574772D01*
X98050897Y-72533137D01*
X98093742Y-72525500D01*
X98989548Y-72525500D01*
X99056587Y-72545185D01*
X99077229Y-72561819D01*
X99963181Y-73447771D01*
X99996666Y-73509094D01*
X99999500Y-73535452D01*
X99999501Y-74350500D01*
X99979817Y-74417539D01*
X99927013Y-74463294D01*
X99875501Y-74474500D01*
X98326035Y-74474500D01*
X98258996Y-74454815D01*
X98213241Y-74402011D01*
X98207466Y-74383755D01*
X98206684Y-74383978D01*
X98144230Y-74164476D01*
X98144229Y-74164472D01*
X98144224Y-74164461D01*
X98045061Y-73965316D01*
X98045056Y-73965308D01*
X97910979Y-73787761D01*
X97746562Y-73637876D01*
X97746560Y-73637874D01*
X97557404Y-73520754D01*
X97557398Y-73520752D01*
X97349940Y-73440382D01*
X97131243Y-73399500D01*
X96908757Y-73399500D01*
X96690060Y-73440382D01*
X96577237Y-73484090D01*
X96482601Y-73520752D01*
X96482595Y-73520754D01*
X96293439Y-73637874D01*
X96293437Y-73637876D01*
X96129020Y-73787761D01*
X95994943Y-73965308D01*
X95994938Y-73965316D01*
X95895775Y-74164461D01*
X95895769Y-74164476D01*
X95834885Y-74378462D01*
X95834884Y-74378464D01*
X95814357Y-74599999D01*
X95814357Y-74600000D01*
X95834884Y-74821535D01*
X95834885Y-74821537D01*
X95895769Y-75035523D01*
X95895775Y-75035538D01*
X95994938Y-75234683D01*
X95994943Y-75234691D01*
X96129020Y-75412238D01*
X96293437Y-75562123D01*
X96293439Y-75562125D01*
X96482595Y-75679245D01*
X96482596Y-75679245D01*
X96482599Y-75679247D01*
X96690060Y-75759618D01*
X96908757Y-75800500D01*
X96908759Y-75800500D01*
X97131241Y-75800500D01*
X97131243Y-75800500D01*
X97349940Y-75759618D01*
X97416395Y-75733873D01*
X97461190Y-75725500D01*
X99889548Y-75725500D01*
X99956587Y-75745185D01*
X99977229Y-75761819D01*
X101403229Y-77187819D01*
X101436714Y-77249142D01*
X101431730Y-77318834D01*
X101389858Y-77374767D01*
X101324394Y-77399184D01*
X101315548Y-77399500D01*
X100429530Y-77399500D01*
X100429524Y-77399501D01*
X100369917Y-77405908D01*
X100235072Y-77456202D01*
X100235065Y-77456206D01*
X100119856Y-77542452D01*
X100119853Y-77542455D01*
X100033607Y-77657664D01*
X100033603Y-77657671D01*
X99983309Y-77792517D01*
X99976902Y-77852116D01*
X99976901Y-77852135D01*
X99976901Y-79147870D01*
X99976902Y-79147876D01*
X99983309Y-79207483D01*
X100033603Y-79342328D01*
X100033607Y-79342335D01*
X100119853Y-79457544D01*
X100119856Y-79457547D01*
X100235065Y-79543793D01*
X100235072Y-79543797D01*
X100369918Y-79594091D01*
X100369917Y-79594091D01*
X100376845Y-79594835D01*
X100429528Y-79600500D01*
X101725273Y-79600499D01*
X101784884Y-79594091D01*
X101868179Y-79563024D01*
X101919730Y-79543797D01*
X101919730Y-79543796D01*
X101919732Y-79543796D01*
X101968922Y-79506971D01*
X102034383Y-79482554D01*
X102088023Y-79490610D01*
X102274945Y-79563024D01*
X102475425Y-79600500D01*
X102475427Y-79600500D01*
X102679375Y-79600500D01*
X102679377Y-79600500D01*
X102879857Y-79563024D01*
X103070038Y-79489348D01*
X103243442Y-79381981D01*
X103394165Y-79244579D01*
X103517074Y-79081821D01*
X103607983Y-78899250D01*
X103663798Y-78703083D01*
X103682616Y-78500000D01*
X103663798Y-78296917D01*
X103607983Y-78100750D01*
X103517074Y-77918179D01*
X103394165Y-77755421D01*
X103394163Y-77755418D01*
X103245326Y-77619736D01*
X103209044Y-77560025D01*
X103204925Y-77531993D01*
X103202901Y-77467573D01*
X103202901Y-77438057D01*
X103202901Y-77438051D01*
X103202032Y-77431180D01*
X103201574Y-77425353D01*
X103200963Y-77405908D01*
X103200111Y-77378774D01*
X103194520Y-77359531D01*
X103190574Y-77340479D01*
X103188065Y-77320609D01*
X103170905Y-77277268D01*
X103169025Y-77271780D01*
X103156019Y-77227011D01*
X103145823Y-77209771D01*
X103137262Y-77192295D01*
X103129888Y-77173671D01*
X103129887Y-77173669D01*
X103102480Y-77135946D01*
X103099289Y-77131087D01*
X103075573Y-77090984D01*
X103075566Y-77090975D01*
X103061407Y-77076816D01*
X103048769Y-77062020D01*
X103036995Y-77045814D01*
X103001089Y-77016110D01*
X102996777Y-77012187D01*
X100996771Y-75012180D01*
X100963286Y-74950857D01*
X100968270Y-74881165D01*
X101010142Y-74825232D01*
X101075606Y-74800815D01*
X101084452Y-74800499D01*
X101747871Y-74800499D01*
X101747872Y-74800499D01*
X101807483Y-74794091D01*
X101890778Y-74763024D01*
X101942329Y-74743797D01*
X101942329Y-74743796D01*
X101942331Y-74743796D01*
X101991521Y-74706971D01*
X102056982Y-74682554D01*
X102110622Y-74690610D01*
X102297544Y-74763024D01*
X102498024Y-74800500D01*
X102498026Y-74800500D01*
X102701974Y-74800500D01*
X102701976Y-74800500D01*
X102902456Y-74763024D01*
X103092637Y-74689348D01*
X103266041Y-74581981D01*
X103416764Y-74444579D01*
X103539673Y-74281821D01*
X103630582Y-74099250D01*
X103686397Y-73903083D01*
X103705215Y-73700000D01*
X103699458Y-73637876D01*
X103686397Y-73496917D01*
X103682747Y-73484090D01*
X103630582Y-73300750D01*
X103539673Y-73118179D01*
X103416764Y-72955421D01*
X103416762Y-72955418D01*
X103263958Y-72816120D01*
X103227676Y-72756409D01*
X103223557Y-72728375D01*
X103222709Y-72701373D01*
X103222709Y-72701372D01*
X103217120Y-72682137D01*
X103213174Y-72663084D01*
X103210664Y-72643208D01*
X103193501Y-72599859D01*
X103191614Y-72594346D01*
X103178617Y-72549610D01*
X103178616Y-72549608D01*
X103168421Y-72532369D01*
X103159860Y-72514893D01*
X103152486Y-72496269D01*
X103152486Y-72496267D01*
X103142474Y-72482488D01*
X103125083Y-72458550D01*
X103121900Y-72453705D01*
X103098170Y-72413579D01*
X103098165Y-72413573D01*
X103084005Y-72399413D01*
X103071370Y-72384620D01*
X103059593Y-72368412D01*
X103023693Y-72338713D01*
X103019381Y-72334790D01*
X102700803Y-72016211D01*
X102690980Y-72003950D01*
X102690759Y-72004134D01*
X102685786Y-71998123D01*
X102635364Y-71950773D01*
X102624919Y-71940328D01*
X102614475Y-71929883D01*
X102608986Y-71925625D01*
X102604561Y-71921847D01*
X102570582Y-71889938D01*
X102570580Y-71889936D01*
X102570577Y-71889935D01*
X102553029Y-71880288D01*
X102536763Y-71869604D01*
X102520933Y-71857325D01*
X102478168Y-71838818D01*
X102472922Y-71836248D01*
X102432093Y-71813803D01*
X102432092Y-71813802D01*
X102412693Y-71808822D01*
X102394281Y-71802518D01*
X102375898Y-71794562D01*
X102375892Y-71794560D01*
X102329874Y-71787272D01*
X102324152Y-71786087D01*
X102279021Y-71774500D01*
X102279019Y-71774500D01*
X102258984Y-71774500D01*
X102239586Y-71772973D01*
X102232162Y-71771797D01*
X102219805Y-71769840D01*
X102219804Y-71769840D01*
X102173416Y-71774225D01*
X102167578Y-71774500D01*
X100760452Y-71774500D01*
X100693413Y-71754815D01*
X100672771Y-71738181D01*
X99861819Y-70927228D01*
X99828334Y-70865905D01*
X99825500Y-70839547D01*
X99825500Y-70209598D01*
X99845185Y-70142559D01*
X99897989Y-70096804D01*
X99967147Y-70086860D01*
X100009580Y-70102285D01*
X100009851Y-70101743D01*
X100014615Y-70104115D01*
X100014787Y-70104177D01*
X100014981Y-70104298D01*
X100213802Y-70181321D01*
X100423390Y-70220500D01*
X100423392Y-70220500D01*
X100636608Y-70220500D01*
X100636610Y-70220500D01*
X100846198Y-70181321D01*
X101045019Y-70104298D01*
X101226302Y-69992052D01*
X101383872Y-69848407D01*
X101512366Y-69678255D01*
X101551083Y-69600500D01*
X101607403Y-69487394D01*
X101607403Y-69487393D01*
X101607405Y-69487389D01*
X101665756Y-69282310D01*
X101672029Y-69214608D01*
X101697815Y-69149671D01*
X101754615Y-69108983D01*
X101824396Y-69105463D01*
X101885002Y-69140228D01*
X101917193Y-69202240D01*
X101919500Y-69226049D01*
X101919500Y-69767870D01*
X101919501Y-69767876D01*
X101925908Y-69827483D01*
X101976202Y-69962328D01*
X101976206Y-69962335D01*
X102062452Y-70077544D01*
X102062455Y-70077547D01*
X102177664Y-70163793D01*
X102177671Y-70163797D01*
X102312517Y-70214091D01*
X102312516Y-70214091D01*
X102319444Y-70214835D01*
X102372127Y-70220500D01*
X103767872Y-70220499D01*
X103827483Y-70214091D01*
X103962331Y-70163796D01*
X104077546Y-70077546D01*
X104163796Y-69962331D01*
X104214091Y-69827483D01*
X104220500Y-69767873D01*
X104220499Y-68372128D01*
X104214091Y-68312517D01*
X104211078Y-68304440D01*
X104163797Y-68177671D01*
X104163793Y-68177664D01*
X104077547Y-68062455D01*
X104077544Y-68062452D01*
X103962335Y-67976206D01*
X103962328Y-67976202D01*
X103827482Y-67925908D01*
X103827483Y-67925908D01*
X103767883Y-67919501D01*
X103767881Y-67919500D01*
X103767873Y-67919500D01*
X103767865Y-67919500D01*
X103079429Y-67919500D01*
X103012390Y-67899815D01*
X102966635Y-67847011D01*
X102957616Y-67805554D01*
X102955958Y-67805708D01*
X102950734Y-67749332D01*
X102935756Y-67587690D01*
X102877405Y-67382611D01*
X102877403Y-67382606D01*
X102877403Y-67382605D01*
X102782367Y-67191746D01*
X102653872Y-67021593D01*
X102496302Y-66877948D01*
X102315019Y-66765702D01*
X102315017Y-66765701D01*
X102215608Y-66727190D01*
X102116198Y-66688679D01*
X101906610Y-66649500D01*
X101693390Y-66649500D01*
X101483802Y-66688679D01*
X101483799Y-66688679D01*
X101483799Y-66688680D01*
X101284982Y-66765701D01*
X101284980Y-66765702D01*
X101103699Y-66877947D01*
X100946127Y-67021593D01*
X100817632Y-67191746D01*
X100722596Y-67382605D01*
X100722596Y-67382607D01*
X100664244Y-67587689D01*
X100644042Y-67805708D01*
X100641638Y-67805485D01*
X100624886Y-67862539D01*
X100572082Y-67908294D01*
X100520571Y-67919500D01*
X100423390Y-67919500D01*
X100213802Y-67958679D01*
X100213799Y-67958679D01*
X100213799Y-67958680D01*
X100014982Y-68035701D01*
X100014972Y-68035706D01*
X100014775Y-68035829D01*
X100014667Y-68035858D01*
X100009851Y-68038257D01*
X100009381Y-68037314D01*
X99947414Y-68054383D01*
X99880715Y-68033574D01*
X99835855Y-67980008D01*
X99825500Y-67930401D01*
X99825500Y-67772737D01*
X99827224Y-67757123D01*
X99826938Y-67757096D01*
X99827672Y-67749333D01*
X99825500Y-67680202D01*
X99825500Y-67650651D01*
X99825500Y-67650650D01*
X99824629Y-67643759D01*
X99824172Y-67637945D01*
X99823987Y-67632067D01*
X99822709Y-67591372D01*
X99817120Y-67572137D01*
X99813174Y-67553084D01*
X99810664Y-67533208D01*
X99793501Y-67489859D01*
X99791614Y-67484346D01*
X99778617Y-67439610D01*
X99778616Y-67439608D01*
X99768421Y-67422369D01*
X99759860Y-67404893D01*
X99752486Y-67386269D01*
X99752486Y-67386267D01*
X99733832Y-67360593D01*
X99725083Y-67348550D01*
X99721900Y-67343705D01*
X99698170Y-67303579D01*
X99698165Y-67303573D01*
X99684005Y-67289413D01*
X99671370Y-67274620D01*
X99659593Y-67258412D01*
X99623693Y-67228713D01*
X99619381Y-67224790D01*
X98028892Y-65634301D01*
X97995407Y-65572978D01*
X97994737Y-65527259D01*
X97994586Y-65527245D01*
X97994716Y-65525836D01*
X97994687Y-65523822D01*
X97995112Y-65521545D01*
X97995115Y-65521536D01*
X98015643Y-65300000D01*
X97995115Y-65078464D01*
X97995112Y-65078454D01*
X97994685Y-65076167D01*
X97994798Y-65075046D01*
X97994586Y-65072755D01*
X97995034Y-65072713D01*
X98001713Y-65006651D01*
X98028889Y-64965699D01*
X99193390Y-63801199D01*
X99254712Y-63767715D01*
X99324404Y-63772699D01*
X99380337Y-63814571D01*
X99404754Y-63880035D01*
X99404571Y-63897462D01*
X99404570Y-63900000D01*
X99424244Y-64112310D01*
X99482596Y-64317392D01*
X99482596Y-64317394D01*
X99577632Y-64508253D01*
X99690326Y-64657482D01*
X99706128Y-64678407D01*
X99863698Y-64822052D01*
X100044981Y-64934298D01*
X100243802Y-65011321D01*
X100453390Y-65050500D01*
X100453392Y-65050500D01*
X100666608Y-65050500D01*
X100666610Y-65050500D01*
X100876198Y-65011321D01*
X101075019Y-64934298D01*
X101256302Y-64822052D01*
X101413872Y-64678407D01*
X101542366Y-64508255D01*
X101637405Y-64317389D01*
X101695756Y-64112310D01*
X101702029Y-64044608D01*
X101727815Y-63979671D01*
X101784615Y-63938983D01*
X101854396Y-63935463D01*
X101915002Y-63970228D01*
X101947193Y-64032240D01*
X101949500Y-64056049D01*
X101949500Y-64597870D01*
X101949501Y-64597876D01*
X101955908Y-64657483D01*
X102006202Y-64792328D01*
X102006206Y-64792335D01*
X102092452Y-64907544D01*
X102092455Y-64907547D01*
X102207664Y-64993793D01*
X102207671Y-64993797D01*
X102342517Y-65044091D01*
X102342516Y-65044091D01*
X102349444Y-65044835D01*
X102402127Y-65050500D01*
X103797872Y-65050499D01*
X103857483Y-65044091D01*
X103992331Y-64993796D01*
X104107546Y-64907546D01*
X104193796Y-64792331D01*
X104244091Y-64657483D01*
X104250500Y-64597873D01*
X104250499Y-63202128D01*
X104244091Y-63142517D01*
X104195499Y-63012236D01*
X104193797Y-63007671D01*
X104193793Y-63007664D01*
X104107547Y-62892455D01*
X104107544Y-62892452D01*
X103992335Y-62806206D01*
X103992328Y-62806202D01*
X103857482Y-62755908D01*
X103857483Y-62755908D01*
X103797883Y-62749501D01*
X103797881Y-62749500D01*
X103797873Y-62749500D01*
X103797865Y-62749500D01*
X103109429Y-62749500D01*
X103042390Y-62729815D01*
X102996635Y-62677011D01*
X102987616Y-62635554D01*
X102985958Y-62635708D01*
X102978016Y-62550000D01*
X102965756Y-62417690D01*
X102907405Y-62212611D01*
X102907403Y-62212606D01*
X102907403Y-62212605D01*
X102812367Y-62021746D01*
X102683872Y-61851593D01*
X102682125Y-61850000D01*
X102526302Y-61707948D01*
X102345019Y-61595702D01*
X102345017Y-61595701D01*
X102245608Y-61557190D01*
X102146198Y-61518679D01*
X101936610Y-61479500D01*
X101723390Y-61479500D01*
X101513802Y-61518679D01*
X101513799Y-61518679D01*
X101513799Y-61518680D01*
X101314982Y-61595701D01*
X101314980Y-61595702D01*
X101133699Y-61707947D01*
X100976127Y-61851593D01*
X100897867Y-61955227D01*
X100841758Y-61996863D01*
X100798913Y-62004500D01*
X99562737Y-62004500D01*
X99547120Y-62002776D01*
X99547093Y-62003062D01*
X99539331Y-62002327D01*
X99470203Y-62004500D01*
X99440650Y-62004500D01*
X99439929Y-62004590D01*
X99433757Y-62005369D01*
X99427945Y-62005826D01*
X99381373Y-62007290D01*
X99381372Y-62007290D01*
X99362129Y-62012881D01*
X99343079Y-62016825D01*
X99323211Y-62019334D01*
X99323209Y-62019335D01*
X99279884Y-62036488D01*
X99274357Y-62038380D01*
X99229610Y-62051381D01*
X99229609Y-62051382D01*
X99212367Y-62061579D01*
X99194899Y-62070137D01*
X99176269Y-62077513D01*
X99176267Y-62077514D01*
X99138576Y-62104898D01*
X99133694Y-62108105D01*
X99093579Y-62131830D01*
X99079408Y-62146000D01*
X99064623Y-62158628D01*
X99048412Y-62170407D01*
X99018709Y-62206310D01*
X99014777Y-62210631D01*
X97139892Y-64085515D01*
X97078569Y-64119000D01*
X97029426Y-64119722D01*
X96921243Y-64099500D01*
X96698757Y-64099500D01*
X96480060Y-64140382D01*
X96348864Y-64191207D01*
X96272601Y-64220752D01*
X96272595Y-64220754D01*
X96083439Y-64337874D01*
X96083437Y-64337876D01*
X95919020Y-64487761D01*
X95784943Y-64665308D01*
X95784938Y-64665316D01*
X95685775Y-64864461D01*
X95685769Y-64864476D01*
X95624885Y-65078462D01*
X95624884Y-65078464D01*
X95604357Y-65299999D01*
X95604357Y-65300000D01*
X92575500Y-65300000D01*
X92575500Y-62200000D01*
X95594357Y-62200000D01*
X95614884Y-62421535D01*
X95614885Y-62421537D01*
X95675769Y-62635523D01*
X95675775Y-62635538D01*
X95774938Y-62834683D01*
X95774943Y-62834691D01*
X95909020Y-63012238D01*
X96073437Y-63162123D01*
X96073439Y-63162125D01*
X96262595Y-63279245D01*
X96262596Y-63279245D01*
X96262599Y-63279247D01*
X96470060Y-63359618D01*
X96688757Y-63400500D01*
X96688759Y-63400500D01*
X96911241Y-63400500D01*
X96911243Y-63400500D01*
X97129940Y-63359618D01*
X97337401Y-63279247D01*
X97526562Y-63162124D01*
X97690981Y-63012236D01*
X97825058Y-62834689D01*
X97924229Y-62635528D01*
X97985115Y-62421536D01*
X98005643Y-62200000D01*
X97996788Y-62104443D01*
X97985115Y-61978464D01*
X97985114Y-61978462D01*
X97978503Y-61955227D01*
X97924229Y-61764472D01*
X97913669Y-61743264D01*
X97825061Y-61565316D01*
X97825056Y-61565308D01*
X97690979Y-61387761D01*
X97526562Y-61237876D01*
X97526560Y-61237874D01*
X97337404Y-61120754D01*
X97337398Y-61120752D01*
X97129940Y-61040382D01*
X96911243Y-60999500D01*
X96688757Y-60999500D01*
X96470060Y-61040382D01*
X96338864Y-61091207D01*
X96262601Y-61120752D01*
X96262595Y-61120754D01*
X96073439Y-61237874D01*
X96073437Y-61237876D01*
X95909020Y-61387761D01*
X95774943Y-61565308D01*
X95774938Y-61565316D01*
X95675775Y-61764461D01*
X95675769Y-61764476D01*
X95614885Y-61978462D01*
X95614884Y-61978464D01*
X95594357Y-62199999D01*
X95594357Y-62200000D01*
X92575500Y-62200000D01*
X92575500Y-61032737D01*
X92577224Y-61017123D01*
X92576938Y-61017096D01*
X92577672Y-61009333D01*
X92575500Y-60940203D01*
X92575500Y-60910651D01*
X92575500Y-60910650D01*
X92574629Y-60903759D01*
X92574172Y-60897945D01*
X92572709Y-60851372D01*
X92567122Y-60832144D01*
X92563174Y-60813084D01*
X92562966Y-60811435D01*
X92560664Y-60793208D01*
X92543507Y-60749875D01*
X92541619Y-60744359D01*
X92528619Y-60699612D01*
X92518418Y-60682363D01*
X92509860Y-60664894D01*
X92502486Y-60646268D01*
X92502483Y-60646264D01*
X92502483Y-60646263D01*
X92475098Y-60608571D01*
X92471890Y-60603687D01*
X92448172Y-60563582D01*
X92448163Y-60563571D01*
X92434005Y-60549413D01*
X92421370Y-60534620D01*
X92409593Y-60518412D01*
X92373693Y-60488713D01*
X92369381Y-60484790D01*
X91685911Y-59801320D01*
X91652426Y-59739997D01*
X91657410Y-59670305D01*
X91699282Y-59614372D01*
X91764746Y-59589955D01*
X91793996Y-59591329D01*
X91848951Y-59600500D01*
X91848953Y-59600500D01*
X92081048Y-59600500D01*
X92081049Y-59600500D01*
X92309981Y-59562298D01*
X92529503Y-59486936D01*
X92733626Y-59376470D01*
X92916784Y-59233913D01*
X92995992Y-59147870D01*
X99424500Y-59147870D01*
X99424501Y-59147876D01*
X99430908Y-59207483D01*
X99481202Y-59342328D01*
X99481206Y-59342335D01*
X99567452Y-59457544D01*
X99567455Y-59457547D01*
X99682664Y-59543793D01*
X99682671Y-59543797D01*
X99817517Y-59594091D01*
X99817516Y-59594091D01*
X99823581Y-59594743D01*
X99877127Y-59600500D01*
X101772872Y-59600499D01*
X101832483Y-59594091D01*
X101967331Y-59543796D01*
X102082546Y-59457546D01*
X102168796Y-59342331D01*
X102197454Y-59265493D01*
X102239326Y-59209559D01*
X102304790Y-59185141D01*
X102373063Y-59199992D01*
X102404866Y-59224843D01*
X102412302Y-59232920D01*
X102413215Y-59233912D01*
X102413222Y-59233918D01*
X102596365Y-59376464D01*
X102596371Y-59376468D01*
X102596374Y-59376470D01*
X102800497Y-59486936D01*
X102914487Y-59526068D01*
X103020015Y-59562297D01*
X103020017Y-59562297D01*
X103020019Y-59562298D01*
X103248951Y-59600500D01*
X103248952Y-59600500D01*
X103481048Y-59600500D01*
X103481049Y-59600500D01*
X103709981Y-59562298D01*
X103929503Y-59486936D01*
X104133626Y-59376470D01*
X104316784Y-59233913D01*
X104473979Y-59063153D01*
X104600924Y-58868849D01*
X104694157Y-58656300D01*
X104751134Y-58431305D01*
X104751135Y-58431297D01*
X104770300Y-58200006D01*
X104770300Y-58199993D01*
X104751135Y-57968702D01*
X104751133Y-57968691D01*
X104694157Y-57743699D01*
X104600924Y-57531151D01*
X104473983Y-57336852D01*
X104473980Y-57336849D01*
X104473979Y-57336847D01*
X104316784Y-57166087D01*
X104316779Y-57166083D01*
X104316777Y-57166081D01*
X104133634Y-57023535D01*
X104133628Y-57023531D01*
X103929504Y-56913064D01*
X103929495Y-56913061D01*
X103709984Y-56837702D01*
X103519450Y-56805908D01*
X103481049Y-56799500D01*
X103248951Y-56799500D01*
X103210550Y-56805908D01*
X103020015Y-56837702D01*
X102800504Y-56913061D01*
X102800495Y-56913064D01*
X102596371Y-57023531D01*
X102596365Y-57023535D01*
X102413222Y-57166081D01*
X102413218Y-57166085D01*
X102404866Y-57175158D01*
X102344979Y-57211148D01*
X102275141Y-57209047D01*
X102217525Y-57169522D01*
X102197455Y-57134507D01*
X102168797Y-57057671D01*
X102168793Y-57057664D01*
X102082547Y-56942455D01*
X102082544Y-56942452D01*
X101967335Y-56856206D01*
X101967328Y-56856202D01*
X101832482Y-56805908D01*
X101832483Y-56805908D01*
X101772883Y-56799501D01*
X101772881Y-56799500D01*
X101772873Y-56799500D01*
X101772864Y-56799500D01*
X99877129Y-56799500D01*
X99877123Y-56799501D01*
X99817516Y-56805908D01*
X99682671Y-56856202D01*
X99682664Y-56856206D01*
X99567455Y-56942452D01*
X99567452Y-56942455D01*
X99481206Y-57057664D01*
X99481202Y-57057671D01*
X99430908Y-57192517D01*
X99424501Y-57252116D01*
X99424500Y-57252135D01*
X99424500Y-59147870D01*
X92995992Y-59147870D01*
X93073979Y-59063153D01*
X93200924Y-58868849D01*
X93294157Y-58656300D01*
X93351134Y-58431305D01*
X93351135Y-58431297D01*
X93370300Y-58200006D01*
X93370300Y-58199993D01*
X93351135Y-57968702D01*
X93351133Y-57968691D01*
X93294157Y-57743699D01*
X93200924Y-57531151D01*
X93073983Y-57336852D01*
X93073980Y-57336849D01*
X93073979Y-57336847D01*
X92916784Y-57166087D01*
X92916779Y-57166083D01*
X92916777Y-57166081D01*
X92733634Y-57023535D01*
X92733628Y-57023531D01*
X92529504Y-56913064D01*
X92529495Y-56913061D01*
X92309984Y-56837702D01*
X92119450Y-56805908D01*
X92081049Y-56799500D01*
X91848951Y-56799500D01*
X91810550Y-56805908D01*
X91620015Y-56837702D01*
X91400504Y-56913061D01*
X91400495Y-56913064D01*
X91196371Y-57023531D01*
X91196365Y-57023535D01*
X91013222Y-57166081D01*
X91013218Y-57166085D01*
X91004866Y-57175158D01*
X90944979Y-57211148D01*
X90875141Y-57209047D01*
X90817525Y-57169522D01*
X90797455Y-57134507D01*
X90768797Y-57057671D01*
X90768793Y-57057664D01*
X90682547Y-56942455D01*
X90682544Y-56942452D01*
X90567335Y-56856206D01*
X90567328Y-56856202D01*
X90432482Y-56805908D01*
X90432483Y-56805908D01*
X90372883Y-56799501D01*
X90372881Y-56799500D01*
X90372873Y-56799500D01*
X90372864Y-56799500D01*
X88477129Y-56799500D01*
X88477123Y-56799501D01*
X88417516Y-56805908D01*
X88282671Y-56856202D01*
X88282664Y-56856206D01*
X88167455Y-56942452D01*
X88167452Y-56942455D01*
X88081206Y-57057664D01*
X88081202Y-57057671D01*
X88030908Y-57192517D01*
X88024501Y-57252116D01*
X88024500Y-57252135D01*
X88024500Y-59147870D01*
X85465014Y-59147870D01*
X85366718Y-59016436D01*
X85318913Y-58952515D01*
X85318909Y-58952510D01*
X85318902Y-58952501D01*
X85065438Y-58670430D01*
X85065433Y-58670425D01*
X85065430Y-58670422D01*
X84787683Y-58412255D01*
X84787668Y-58412242D01*
X84487866Y-58180051D01*
X84461383Y-58163111D01*
X84458345Y-58159620D01*
X84422758Y-58138402D01*
X84168404Y-57975693D01*
X84122767Y-57951980D01*
X84115061Y-57944585D01*
X84047781Y-57913017D01*
X83831904Y-57800847D01*
X83805609Y-57790057D01*
X83671402Y-57734986D01*
X83655789Y-57726224D01*
X83637778Y-57730879D01*
X83197557Y-57779742D01*
X83192371Y-57780098D01*
X82819642Y-57790057D01*
X82731043Y-57792218D01*
X82725990Y-57792135D01*
X82406730Y-57773879D01*
X82263487Y-57765129D01*
X82258555Y-57764629D01*
X81965026Y-57722980D01*
X81799918Y-57698636D01*
X81795140Y-57697739D01*
X81518699Y-57634531D01*
X81416753Y-57610470D01*
X81343653Y-57593218D01*
X81339065Y-57591947D01*
X81076675Y-57508297D01*
X80897927Y-57449625D01*
X80893549Y-57448003D01*
X80644292Y-57344832D01*
X80465955Y-57268897D01*
X80461817Y-57266952D01*
X80225680Y-57145131D01*
X80060872Y-57057664D01*
X80050797Y-57052317D01*
X80046930Y-57050082D01*
X80030722Y-57039918D01*
X79824427Y-56910548D01*
X79655444Y-56801445D01*
X79651851Y-56798941D01*
X79443756Y-56642725D01*
X79282719Y-56518080D01*
X79279424Y-56515343D01*
X79086559Y-56343515D01*
X79051841Y-56311554D01*
X78935284Y-56204252D01*
X78932313Y-56201325D01*
X78755591Y-56015089D01*
X78707050Y-55962071D01*
X78615583Y-55862165D01*
X78612972Y-55859118D01*
X78453239Y-55659703D01*
X78325998Y-55494376D01*
X78323665Y-55491134D01*
X78226618Y-55346670D01*
X78181795Y-55279946D01*
X78068484Y-55103385D01*
X78066498Y-55100064D01*
X77943242Y-54878513D01*
X77844963Y-54692102D01*
X77843294Y-54688686D01*
X77739319Y-54458249D01*
X77702337Y-54370732D01*
X77656978Y-54263387D01*
X77655658Y-54259983D01*
X77571528Y-54022175D01*
X77505893Y-53820342D01*
X77504885Y-53816904D01*
X77499328Y-53795690D01*
X77441110Y-53573448D01*
X77392782Y-53366133D01*
X77392088Y-53362718D01*
X77390081Y-53351192D01*
X77349002Y-53115232D01*
X77318448Y-52903985D01*
X77318064Y-52900697D01*
X77295881Y-52650780D01*
X77295045Y-52636451D01*
X77283430Y-52437314D01*
X77283327Y-52434045D01*
X77282148Y-52183456D01*
X77287709Y-51978524D01*
X80979044Y-51978524D01*
X81008670Y-52247774D01*
X81008672Y-52247785D01*
X81077183Y-52509843D01*
X81077185Y-52509849D01*
X81183127Y-52759151D01*
X81315366Y-52975832D01*
X81324236Y-52990366D01*
X81324243Y-52990376D01*
X81497510Y-53198580D01*
X81497516Y-53198585D01*
X81658906Y-53343190D01*
X81699255Y-53379343D01*
X81925167Y-53528805D01*
X82170433Y-53643781D01*
X82170440Y-53643783D01*
X82170442Y-53643784D01*
X82429814Y-53721818D01*
X82429821Y-53721819D01*
X82429826Y-53721821D01*
X82697818Y-53761261D01*
X82697823Y-53761261D01*
X82900893Y-53761261D01*
X82952390Y-53757491D01*
X83103413Y-53746438D01*
X83216015Y-53721354D01*
X83367803Y-53687543D01*
X83367805Y-53687542D01*
X83367810Y-53687541D01*
X83620815Y-53590775D01*
X83857034Y-53458202D01*
X84071434Y-53292649D01*
X84259443Y-53097642D01*
X84417056Y-52877340D01*
X84523123Y-52671038D01*
X84540906Y-52636451D01*
X84540908Y-52636445D01*
X84540913Y-52636436D01*
X84628375Y-52380066D01*
X84677576Y-52113694D01*
X84687469Y-51842996D01*
X84657843Y-51573743D01*
X84589329Y-51311673D01*
X84483387Y-51062371D01*
X84342275Y-50831151D01*
X84285726Y-50763200D01*
X84169003Y-50622941D01*
X84168997Y-50622936D01*
X83967259Y-50442179D01*
X83741349Y-50292718D01*
X83741347Y-50292717D01*
X83496081Y-50177741D01*
X83496076Y-50177739D01*
X83496071Y-50177737D01*
X83236699Y-50099703D01*
X83236685Y-50099700D01*
X83121048Y-50082682D01*
X82968696Y-50060261D01*
X82765626Y-50060261D01*
X82765621Y-50060261D01*
X82563101Y-50075084D01*
X82563088Y-50075086D01*
X82298710Y-50133978D01*
X82298703Y-50133981D01*
X82045696Y-50230748D01*
X81809483Y-50363318D01*
X81595079Y-50528873D01*
X81407079Y-50723870D01*
X81407073Y-50723877D01*
X81249459Y-50944180D01*
X81249456Y-50944185D01*
X81125607Y-51185070D01*
X81125600Y-51185088D01*
X81038141Y-51441446D01*
X81038138Y-51441460D01*
X80988938Y-51707829D01*
X80988937Y-51707836D01*
X80979044Y-51978524D01*
X77287709Y-51978524D01*
X77287960Y-51969270D01*
X77288127Y-51966134D01*
X77307915Y-51716586D01*
X77332001Y-51503410D01*
X77332427Y-51500338D01*
X77373011Y-51253507D01*
X77415251Y-51042855D01*
X77415901Y-51039979D01*
X77476976Y-50797551D01*
X77480354Y-50785949D01*
X77537095Y-50591032D01*
X77537953Y-50588326D01*
X77619087Y-50351940D01*
X77696655Y-50151155D01*
X77697699Y-50148627D01*
X77798325Y-49919902D01*
X77893365Y-49725169D01*
X78013432Y-49504492D01*
X78124733Y-49318572D01*
X78262841Y-49108746D01*
X78389626Y-48932951D01*
X78544812Y-48735435D01*
X78686101Y-48571122D01*
X78856378Y-48388263D01*
X78858285Y-48386308D01*
X79012031Y-48235661D01*
X79197084Y-48067646D01*
X79199228Y-48065790D01*
X79365110Y-47928928D01*
X79563651Y-47776944D01*
X79566015Y-47775225D01*
X79742822Y-47653107D01*
X79953530Y-47518194D01*
X79956042Y-47516674D01*
X80142402Y-47410203D01*
X80363813Y-47293330D01*
X80366625Y-47291938D01*
X80561007Y-47201924D01*
X80791642Y-47103909D01*
X80794673Y-47102716D01*
X80995678Y-47029731D01*
X81234013Y-46951274D01*
X81237204Y-46950319D01*
X81443250Y-46894864D01*
X81687693Y-46836549D01*
X81691043Y-46835850D01*
X81900592Y-46798254D01*
X82149433Y-46760554D01*
X82152939Y-46760127D01*
X82364316Y-46740595D01*
X82616005Y-46723827D01*
X82619584Y-46723695D01*
X82831202Y-46722266D01*
X83084004Y-46726642D01*
G37*
%TD.AperFunction*%
%TD*%
M02*
