%TF.GenerationSoftware,KiCad,Pcbnew,7.0.7*%
%TF.CreationDate,2023-10-16T17:51:25+02:00*%
%TF.ProjectId,bc546b-astable-multivibrator,62633534-3662-42d6-9173-7461626c652d,0*%
%TF.SameCoordinates,Original*%
%TF.FileFunction,Drillmap*%
%TF.FilePolarity,Positive*%
%FSLAX45Y45*%
G04 Gerber Fmt 4.5, Leading zero omitted, Abs format (unit mm)*
G04 Created by KiCad (PCBNEW 7.0.7) date 2023-10-16 17:51:25*
%MOMM*%
%LPD*%
G01*
G04 APERTURE LIST*
%ADD10C,0.100000*%
%ADD11C,0.200000*%
%ADD12C,0.320000*%
G04 APERTURE END LIST*
D10*
X8619370Y-6082203D02*
G75*
G03*
X8365630Y-5772933I-413740J-80727D01*
G01*
X8307986Y-8135638D02*
G75*
G03*
X8615024Y-7883430I-80746J411299D01*
G01*
X10598742Y-8789270D02*
G75*
G03*
X10345000Y-8480000I-413742J-80730D01*
G01*
X10598742Y-8789270D02*
G75*
G03*
X11147580Y-8123820I512152J136652D01*
G01*
X8817786Y-5086280D02*
G75*
G03*
X9071524Y-5395551I413734J80720D01*
G01*
X8615024Y-7883430D02*
X8619372Y-6082202D01*
X10807717Y-7899468D02*
G75*
G03*
X11147580Y-8123820I256523J18998D01*
G01*
X9071524Y-5395551D02*
X10306008Y-5394588D01*
X11122659Y-5741341D02*
G75*
G03*
X10615278Y-5140846I1J514601D01*
G01*
X10345000Y-8480000D02*
X9121273Y-8482385D01*
X8817548Y-5086342D02*
G75*
G03*
X8365630Y-5772933I-536024J-139209D01*
G01*
X9121272Y-8482381D02*
G75*
G03*
X8812003Y-8736127I80748J-413760D01*
G01*
X10306008Y-5394589D02*
G75*
G03*
X10615278Y-5140846I-80728J413739D01*
G01*
X11122660Y-5741344D02*
G75*
G03*
X10804453Y-5994444I67390J-411306D01*
G01*
X10804453Y-5994444D02*
X10807718Y-7899468D01*
X8307986Y-8135638D02*
G75*
G03*
X8812003Y-8736127I-3366J-514592D01*
G01*
D11*
D12*
X8123326Y-5031076D02*
X8443326Y-5351076D01*
X8443326Y-5031076D02*
X8123326Y-5351076D01*
X8154621Y-8500233D02*
X8474621Y-8820233D01*
X8474621Y-8500233D02*
X8154621Y-8820233D01*
X10950894Y-8492618D02*
X11270894Y-8812618D01*
X11270894Y-8492618D02*
X10950894Y-8812618D01*
X10964461Y-5022265D02*
X11284461Y-5342265D01*
X11284461Y-5022265D02*
X10964461Y-5342265D01*
D11*
X7983495Y-9499171D02*
X7983495Y-9299171D01*
X7983495Y-9299171D02*
X8031114Y-9299171D01*
X8031114Y-9299171D02*
X8059686Y-9308695D01*
X8059686Y-9308695D02*
X8078733Y-9327742D01*
X8078733Y-9327742D02*
X8088257Y-9346790D01*
X8088257Y-9346790D02*
X8097781Y-9384885D01*
X8097781Y-9384885D02*
X8097781Y-9413457D01*
X8097781Y-9413457D02*
X8088257Y-9451552D01*
X8088257Y-9451552D02*
X8078733Y-9470600D01*
X8078733Y-9470600D02*
X8059686Y-9489647D01*
X8059686Y-9489647D02*
X8031114Y-9499171D01*
X8031114Y-9499171D02*
X7983495Y-9499171D01*
X8183495Y-9499171D02*
X8183495Y-9365838D01*
X8183495Y-9403933D02*
X8193019Y-9384885D01*
X8193019Y-9384885D02*
X8202543Y-9375361D01*
X8202543Y-9375361D02*
X8221590Y-9365838D01*
X8221590Y-9365838D02*
X8240638Y-9365838D01*
X8307305Y-9499171D02*
X8307305Y-9365838D01*
X8307305Y-9299171D02*
X8297781Y-9308695D01*
X8297781Y-9308695D02*
X8307305Y-9318219D01*
X8307305Y-9318219D02*
X8316828Y-9308695D01*
X8316828Y-9308695D02*
X8307305Y-9299171D01*
X8307305Y-9299171D02*
X8307305Y-9318219D01*
X8431114Y-9499171D02*
X8412067Y-9489647D01*
X8412067Y-9489647D02*
X8402543Y-9470600D01*
X8402543Y-9470600D02*
X8402543Y-9299171D01*
X8535876Y-9499171D02*
X8516829Y-9489647D01*
X8516829Y-9489647D02*
X8507305Y-9470600D01*
X8507305Y-9470600D02*
X8507305Y-9299171D01*
X8764448Y-9499171D02*
X8764448Y-9299171D01*
X8764448Y-9299171D02*
X8831114Y-9442028D01*
X8831114Y-9442028D02*
X8897781Y-9299171D01*
X8897781Y-9299171D02*
X8897781Y-9499171D01*
X9078733Y-9499171D02*
X9078733Y-9394409D01*
X9078733Y-9394409D02*
X9069210Y-9375361D01*
X9069210Y-9375361D02*
X9050162Y-9365838D01*
X9050162Y-9365838D02*
X9012067Y-9365838D01*
X9012067Y-9365838D02*
X8993019Y-9375361D01*
X9078733Y-9489647D02*
X9059686Y-9499171D01*
X9059686Y-9499171D02*
X9012067Y-9499171D01*
X9012067Y-9499171D02*
X8993019Y-9489647D01*
X8993019Y-9489647D02*
X8983495Y-9470600D01*
X8983495Y-9470600D02*
X8983495Y-9451552D01*
X8983495Y-9451552D02*
X8993019Y-9432504D01*
X8993019Y-9432504D02*
X9012067Y-9422981D01*
X9012067Y-9422981D02*
X9059686Y-9422981D01*
X9059686Y-9422981D02*
X9078733Y-9413457D01*
X9173971Y-9365838D02*
X9173971Y-9565838D01*
X9173971Y-9375361D02*
X9193019Y-9365838D01*
X9193019Y-9365838D02*
X9231114Y-9365838D01*
X9231114Y-9365838D02*
X9250162Y-9375361D01*
X9250162Y-9375361D02*
X9259686Y-9384885D01*
X9259686Y-9384885D02*
X9269210Y-9403933D01*
X9269210Y-9403933D02*
X9269210Y-9461076D01*
X9269210Y-9461076D02*
X9259686Y-9480123D01*
X9259686Y-9480123D02*
X9250162Y-9489647D01*
X9250162Y-9489647D02*
X9231114Y-9499171D01*
X9231114Y-9499171D02*
X9193019Y-9499171D01*
X9193019Y-9499171D02*
X9173971Y-9489647D01*
X9354924Y-9480123D02*
X9364448Y-9489647D01*
X9364448Y-9489647D02*
X9354924Y-9499171D01*
X9354924Y-9499171D02*
X9345400Y-9489647D01*
X9345400Y-9489647D02*
X9354924Y-9480123D01*
X9354924Y-9480123D02*
X9354924Y-9499171D01*
X9354924Y-9375361D02*
X9364448Y-9384885D01*
X9364448Y-9384885D02*
X9354924Y-9394409D01*
X9354924Y-9394409D02*
X9345400Y-9384885D01*
X9345400Y-9384885D02*
X9354924Y-9375361D01*
X9354924Y-9375361D02*
X9354924Y-9394409D01*
X7522718Y-9727687D02*
X7722718Y-9927687D01*
X7722718Y-9727687D02*
X7522718Y-9927687D01*
X7964448Y-9719171D02*
X8088257Y-9719171D01*
X8088257Y-9719171D02*
X8021590Y-9795361D01*
X8021590Y-9795361D02*
X8050162Y-9795361D01*
X8050162Y-9795361D02*
X8069209Y-9804885D01*
X8069209Y-9804885D02*
X8078733Y-9814409D01*
X8078733Y-9814409D02*
X8088257Y-9833457D01*
X8088257Y-9833457D02*
X8088257Y-9881076D01*
X8088257Y-9881076D02*
X8078733Y-9900123D01*
X8078733Y-9900123D02*
X8069209Y-9909647D01*
X8069209Y-9909647D02*
X8050162Y-9919171D01*
X8050162Y-9919171D02*
X7993019Y-9919171D01*
X7993019Y-9919171D02*
X7973971Y-9909647D01*
X7973971Y-9909647D02*
X7964448Y-9900123D01*
X8173971Y-9900123D02*
X8183495Y-9909647D01*
X8183495Y-9909647D02*
X8173971Y-9919171D01*
X8173971Y-9919171D02*
X8164448Y-9909647D01*
X8164448Y-9909647D02*
X8173971Y-9900123D01*
X8173971Y-9900123D02*
X8173971Y-9919171D01*
X8259686Y-9738219D02*
X8269209Y-9728695D01*
X8269209Y-9728695D02*
X8288257Y-9719171D01*
X8288257Y-9719171D02*
X8335876Y-9719171D01*
X8335876Y-9719171D02*
X8354924Y-9728695D01*
X8354924Y-9728695D02*
X8364448Y-9738219D01*
X8364448Y-9738219D02*
X8373971Y-9757266D01*
X8373971Y-9757266D02*
X8373971Y-9776314D01*
X8373971Y-9776314D02*
X8364448Y-9804885D01*
X8364448Y-9804885D02*
X8250162Y-9919171D01*
X8250162Y-9919171D02*
X8373971Y-9919171D01*
X8497781Y-9719171D02*
X8516829Y-9719171D01*
X8516829Y-9719171D02*
X8535876Y-9728695D01*
X8535876Y-9728695D02*
X8545400Y-9738219D01*
X8545400Y-9738219D02*
X8554924Y-9757266D01*
X8554924Y-9757266D02*
X8564448Y-9795361D01*
X8564448Y-9795361D02*
X8564448Y-9842981D01*
X8564448Y-9842981D02*
X8554924Y-9881076D01*
X8554924Y-9881076D02*
X8545400Y-9900123D01*
X8545400Y-9900123D02*
X8535876Y-9909647D01*
X8535876Y-9909647D02*
X8516829Y-9919171D01*
X8516829Y-9919171D02*
X8497781Y-9919171D01*
X8497781Y-9919171D02*
X8478733Y-9909647D01*
X8478733Y-9909647D02*
X8469210Y-9900123D01*
X8469210Y-9900123D02*
X8459686Y-9881076D01*
X8459686Y-9881076D02*
X8450162Y-9842981D01*
X8450162Y-9842981D02*
X8450162Y-9795361D01*
X8450162Y-9795361D02*
X8459686Y-9757266D01*
X8459686Y-9757266D02*
X8469210Y-9738219D01*
X8469210Y-9738219D02*
X8478733Y-9728695D01*
X8478733Y-9728695D02*
X8497781Y-9719171D01*
X8688257Y-9719171D02*
X8707305Y-9719171D01*
X8707305Y-9719171D02*
X8726352Y-9728695D01*
X8726352Y-9728695D02*
X8735876Y-9738219D01*
X8735876Y-9738219D02*
X8745400Y-9757266D01*
X8745400Y-9757266D02*
X8754924Y-9795361D01*
X8754924Y-9795361D02*
X8754924Y-9842981D01*
X8754924Y-9842981D02*
X8745400Y-9881076D01*
X8745400Y-9881076D02*
X8735876Y-9900123D01*
X8735876Y-9900123D02*
X8726352Y-9909647D01*
X8726352Y-9909647D02*
X8707305Y-9919171D01*
X8707305Y-9919171D02*
X8688257Y-9919171D01*
X8688257Y-9919171D02*
X8669210Y-9909647D01*
X8669210Y-9909647D02*
X8659686Y-9900123D01*
X8659686Y-9900123D02*
X8650162Y-9881076D01*
X8650162Y-9881076D02*
X8640638Y-9842981D01*
X8640638Y-9842981D02*
X8640638Y-9795361D01*
X8640638Y-9795361D02*
X8650162Y-9757266D01*
X8650162Y-9757266D02*
X8659686Y-9738219D01*
X8659686Y-9738219D02*
X8669210Y-9728695D01*
X8669210Y-9728695D02*
X8688257Y-9719171D01*
X8840638Y-9919171D02*
X8840638Y-9785838D01*
X8840638Y-9804885D02*
X8850162Y-9795361D01*
X8850162Y-9795361D02*
X8869210Y-9785838D01*
X8869210Y-9785838D02*
X8897781Y-9785838D01*
X8897781Y-9785838D02*
X8916829Y-9795361D01*
X8916829Y-9795361D02*
X8926352Y-9814409D01*
X8926352Y-9814409D02*
X8926352Y-9919171D01*
X8926352Y-9814409D02*
X8935876Y-9795361D01*
X8935876Y-9795361D02*
X8954924Y-9785838D01*
X8954924Y-9785838D02*
X8983495Y-9785838D01*
X8983495Y-9785838D02*
X9002543Y-9795361D01*
X9002543Y-9795361D02*
X9012067Y-9814409D01*
X9012067Y-9814409D02*
X9012067Y-9919171D01*
X9107305Y-9919171D02*
X9107305Y-9785838D01*
X9107305Y-9804885D02*
X9116829Y-9795361D01*
X9116829Y-9795361D02*
X9135876Y-9785838D01*
X9135876Y-9785838D02*
X9164448Y-9785838D01*
X9164448Y-9785838D02*
X9183495Y-9795361D01*
X9183495Y-9795361D02*
X9193019Y-9814409D01*
X9193019Y-9814409D02*
X9193019Y-9919171D01*
X9193019Y-9814409D02*
X9202543Y-9795361D01*
X9202543Y-9795361D02*
X9221591Y-9785838D01*
X9221591Y-9785838D02*
X9250162Y-9785838D01*
X9250162Y-9785838D02*
X9269210Y-9795361D01*
X9269210Y-9795361D02*
X9278733Y-9814409D01*
X9278733Y-9814409D02*
X9278733Y-9919171D01*
X9669210Y-9709647D02*
X9497781Y-9966790D01*
X9926353Y-9719171D02*
X9945400Y-9719171D01*
X9945400Y-9719171D02*
X9964448Y-9728695D01*
X9964448Y-9728695D02*
X9973972Y-9738219D01*
X9973972Y-9738219D02*
X9983495Y-9757266D01*
X9983495Y-9757266D02*
X9993019Y-9795361D01*
X9993019Y-9795361D02*
X9993019Y-9842981D01*
X9993019Y-9842981D02*
X9983495Y-9881076D01*
X9983495Y-9881076D02*
X9973972Y-9900123D01*
X9973972Y-9900123D02*
X9964448Y-9909647D01*
X9964448Y-9909647D02*
X9945400Y-9919171D01*
X9945400Y-9919171D02*
X9926353Y-9919171D01*
X9926353Y-9919171D02*
X9907305Y-9909647D01*
X9907305Y-9909647D02*
X9897781Y-9900123D01*
X9897781Y-9900123D02*
X9888257Y-9881076D01*
X9888257Y-9881076D02*
X9878734Y-9842981D01*
X9878734Y-9842981D02*
X9878734Y-9795361D01*
X9878734Y-9795361D02*
X9888257Y-9757266D01*
X9888257Y-9757266D02*
X9897781Y-9738219D01*
X9897781Y-9738219D02*
X9907305Y-9728695D01*
X9907305Y-9728695D02*
X9926353Y-9719171D01*
X10078734Y-9900123D02*
X10088257Y-9909647D01*
X10088257Y-9909647D02*
X10078734Y-9919171D01*
X10078734Y-9919171D02*
X10069210Y-9909647D01*
X10069210Y-9909647D02*
X10078734Y-9900123D01*
X10078734Y-9900123D02*
X10078734Y-9919171D01*
X10278734Y-9919171D02*
X10164448Y-9919171D01*
X10221591Y-9919171D02*
X10221591Y-9719171D01*
X10221591Y-9719171D02*
X10202543Y-9747742D01*
X10202543Y-9747742D02*
X10183495Y-9766790D01*
X10183495Y-9766790D02*
X10164448Y-9776314D01*
X10354924Y-9738219D02*
X10364448Y-9728695D01*
X10364448Y-9728695D02*
X10383495Y-9719171D01*
X10383495Y-9719171D02*
X10431115Y-9719171D01*
X10431115Y-9719171D02*
X10450162Y-9728695D01*
X10450162Y-9728695D02*
X10459686Y-9738219D01*
X10459686Y-9738219D02*
X10469210Y-9757266D01*
X10469210Y-9757266D02*
X10469210Y-9776314D01*
X10469210Y-9776314D02*
X10459686Y-9804885D01*
X10459686Y-9804885D02*
X10345400Y-9919171D01*
X10345400Y-9919171D02*
X10469210Y-9919171D01*
X10640638Y-9719171D02*
X10602543Y-9719171D01*
X10602543Y-9719171D02*
X10583495Y-9728695D01*
X10583495Y-9728695D02*
X10573972Y-9738219D01*
X10573972Y-9738219D02*
X10554924Y-9766790D01*
X10554924Y-9766790D02*
X10545400Y-9804885D01*
X10545400Y-9804885D02*
X10545400Y-9881076D01*
X10545400Y-9881076D02*
X10554924Y-9900123D01*
X10554924Y-9900123D02*
X10564448Y-9909647D01*
X10564448Y-9909647D02*
X10583495Y-9919171D01*
X10583495Y-9919171D02*
X10621591Y-9919171D01*
X10621591Y-9919171D02*
X10640638Y-9909647D01*
X10640638Y-9909647D02*
X10650162Y-9900123D01*
X10650162Y-9900123D02*
X10659686Y-9881076D01*
X10659686Y-9881076D02*
X10659686Y-9833457D01*
X10659686Y-9833457D02*
X10650162Y-9814409D01*
X10650162Y-9814409D02*
X10640638Y-9804885D01*
X10640638Y-9804885D02*
X10621591Y-9795361D01*
X10621591Y-9795361D02*
X10583495Y-9795361D01*
X10583495Y-9795361D02*
X10564448Y-9804885D01*
X10564448Y-9804885D02*
X10554924Y-9814409D01*
X10554924Y-9814409D02*
X10545400Y-9833457D01*
X10783495Y-9719171D02*
X10802543Y-9719171D01*
X10802543Y-9719171D02*
X10821591Y-9728695D01*
X10821591Y-9728695D02*
X10831115Y-9738219D01*
X10831115Y-9738219D02*
X10840638Y-9757266D01*
X10840638Y-9757266D02*
X10850162Y-9795361D01*
X10850162Y-9795361D02*
X10850162Y-9842981D01*
X10850162Y-9842981D02*
X10840638Y-9881076D01*
X10840638Y-9881076D02*
X10831115Y-9900123D01*
X10831115Y-9900123D02*
X10821591Y-9909647D01*
X10821591Y-9909647D02*
X10802543Y-9919171D01*
X10802543Y-9919171D02*
X10783495Y-9919171D01*
X10783495Y-9919171D02*
X10764448Y-9909647D01*
X10764448Y-9909647D02*
X10754924Y-9900123D01*
X10754924Y-9900123D02*
X10745400Y-9881076D01*
X10745400Y-9881076D02*
X10735876Y-9842981D01*
X10735876Y-9842981D02*
X10735876Y-9795361D01*
X10735876Y-9795361D02*
X10745400Y-9757266D01*
X10745400Y-9757266D02*
X10754924Y-9738219D01*
X10754924Y-9738219D02*
X10764448Y-9728695D01*
X10764448Y-9728695D02*
X10783495Y-9719171D01*
X10926353Y-9719171D02*
X10926353Y-9757266D01*
X11002543Y-9719171D02*
X11002543Y-9757266D01*
X11297781Y-9995361D02*
X11288257Y-9985838D01*
X11288257Y-9985838D02*
X11269210Y-9957266D01*
X11269210Y-9957266D02*
X11259686Y-9938219D01*
X11259686Y-9938219D02*
X11250162Y-9909647D01*
X11250162Y-9909647D02*
X11240638Y-9862028D01*
X11240638Y-9862028D02*
X11240638Y-9823933D01*
X11240638Y-9823933D02*
X11250162Y-9776314D01*
X11250162Y-9776314D02*
X11259686Y-9747742D01*
X11259686Y-9747742D02*
X11269210Y-9728695D01*
X11269210Y-9728695D02*
X11288257Y-9700123D01*
X11288257Y-9700123D02*
X11297781Y-9690600D01*
X11459686Y-9785838D02*
X11459686Y-9919171D01*
X11412067Y-9709647D02*
X11364448Y-9852504D01*
X11364448Y-9852504D02*
X11488257Y-9852504D01*
X11716829Y-9919171D02*
X11716829Y-9719171D01*
X11802543Y-9919171D02*
X11802543Y-9814409D01*
X11802543Y-9814409D02*
X11793019Y-9795361D01*
X11793019Y-9795361D02*
X11773972Y-9785838D01*
X11773972Y-9785838D02*
X11745400Y-9785838D01*
X11745400Y-9785838D02*
X11726353Y-9795361D01*
X11726353Y-9795361D02*
X11716829Y-9804885D01*
X11926353Y-9919171D02*
X11907305Y-9909647D01*
X11907305Y-9909647D02*
X11897781Y-9900123D01*
X11897781Y-9900123D02*
X11888257Y-9881076D01*
X11888257Y-9881076D02*
X11888257Y-9823933D01*
X11888257Y-9823933D02*
X11897781Y-9804885D01*
X11897781Y-9804885D02*
X11907305Y-9795361D01*
X11907305Y-9795361D02*
X11926353Y-9785838D01*
X11926353Y-9785838D02*
X11954924Y-9785838D01*
X11954924Y-9785838D02*
X11973972Y-9795361D01*
X11973972Y-9795361D02*
X11983496Y-9804885D01*
X11983496Y-9804885D02*
X11993019Y-9823933D01*
X11993019Y-9823933D02*
X11993019Y-9881076D01*
X11993019Y-9881076D02*
X11983496Y-9900123D01*
X11983496Y-9900123D02*
X11973972Y-9909647D01*
X11973972Y-9909647D02*
X11954924Y-9919171D01*
X11954924Y-9919171D02*
X11926353Y-9919171D01*
X12107305Y-9919171D02*
X12088257Y-9909647D01*
X12088257Y-9909647D02*
X12078734Y-9890600D01*
X12078734Y-9890600D02*
X12078734Y-9719171D01*
X12259686Y-9909647D02*
X12240638Y-9919171D01*
X12240638Y-9919171D02*
X12202543Y-9919171D01*
X12202543Y-9919171D02*
X12183496Y-9909647D01*
X12183496Y-9909647D02*
X12173972Y-9890600D01*
X12173972Y-9890600D02*
X12173972Y-9814409D01*
X12173972Y-9814409D02*
X12183496Y-9795361D01*
X12183496Y-9795361D02*
X12202543Y-9785838D01*
X12202543Y-9785838D02*
X12240638Y-9785838D01*
X12240638Y-9785838D02*
X12259686Y-9795361D01*
X12259686Y-9795361D02*
X12269210Y-9814409D01*
X12269210Y-9814409D02*
X12269210Y-9833457D01*
X12269210Y-9833457D02*
X12173972Y-9852504D01*
X12345400Y-9909647D02*
X12364448Y-9919171D01*
X12364448Y-9919171D02*
X12402543Y-9919171D01*
X12402543Y-9919171D02*
X12421591Y-9909647D01*
X12421591Y-9909647D02*
X12431115Y-9890600D01*
X12431115Y-9890600D02*
X12431115Y-9881076D01*
X12431115Y-9881076D02*
X12421591Y-9862028D01*
X12421591Y-9862028D02*
X12402543Y-9852504D01*
X12402543Y-9852504D02*
X12373972Y-9852504D01*
X12373972Y-9852504D02*
X12354924Y-9842981D01*
X12354924Y-9842981D02*
X12345400Y-9823933D01*
X12345400Y-9823933D02*
X12345400Y-9814409D01*
X12345400Y-9814409D02*
X12354924Y-9795361D01*
X12354924Y-9795361D02*
X12373972Y-9785838D01*
X12373972Y-9785838D02*
X12402543Y-9785838D01*
X12402543Y-9785838D02*
X12421591Y-9795361D01*
X12497781Y-9995361D02*
X12507305Y-9985838D01*
X12507305Y-9985838D02*
X12526353Y-9957266D01*
X12526353Y-9957266D02*
X12535877Y-9938219D01*
X12535877Y-9938219D02*
X12545400Y-9909647D01*
X12545400Y-9909647D02*
X12554924Y-9862028D01*
X12554924Y-9862028D02*
X12554924Y-9823933D01*
X12554924Y-9823933D02*
X12545400Y-9776314D01*
X12545400Y-9776314D02*
X12535877Y-9747742D01*
X12535877Y-9747742D02*
X12526353Y-9728695D01*
X12526353Y-9728695D02*
X12507305Y-9700123D01*
X12507305Y-9700123D02*
X12497781Y-9690600D01*
X12859686Y-9995361D02*
X12850162Y-9985838D01*
X12850162Y-9985838D02*
X12831115Y-9957266D01*
X12831115Y-9957266D02*
X12821591Y-9938219D01*
X12821591Y-9938219D02*
X12812067Y-9909647D01*
X12812067Y-9909647D02*
X12802543Y-9862028D01*
X12802543Y-9862028D02*
X12802543Y-9823933D01*
X12802543Y-9823933D02*
X12812067Y-9776314D01*
X12812067Y-9776314D02*
X12821591Y-9747742D01*
X12821591Y-9747742D02*
X12831115Y-9728695D01*
X12831115Y-9728695D02*
X12850162Y-9700123D01*
X12850162Y-9700123D02*
X12859686Y-9690600D01*
X12935877Y-9785838D02*
X12935877Y-9919171D01*
X12935877Y-9804885D02*
X12945400Y-9795361D01*
X12945400Y-9795361D02*
X12964448Y-9785838D01*
X12964448Y-9785838D02*
X12993019Y-9785838D01*
X12993019Y-9785838D02*
X13012067Y-9795361D01*
X13012067Y-9795361D02*
X13021591Y-9814409D01*
X13021591Y-9814409D02*
X13021591Y-9919171D01*
X13145400Y-9919171D02*
X13126353Y-9909647D01*
X13126353Y-9909647D02*
X13116829Y-9900123D01*
X13116829Y-9900123D02*
X13107305Y-9881076D01*
X13107305Y-9881076D02*
X13107305Y-9823933D01*
X13107305Y-9823933D02*
X13116829Y-9804885D01*
X13116829Y-9804885D02*
X13126353Y-9795361D01*
X13126353Y-9795361D02*
X13145400Y-9785838D01*
X13145400Y-9785838D02*
X13173972Y-9785838D01*
X13173972Y-9785838D02*
X13193019Y-9795361D01*
X13193019Y-9795361D02*
X13202543Y-9804885D01*
X13202543Y-9804885D02*
X13212067Y-9823933D01*
X13212067Y-9823933D02*
X13212067Y-9881076D01*
X13212067Y-9881076D02*
X13202543Y-9900123D01*
X13202543Y-9900123D02*
X13193019Y-9909647D01*
X13193019Y-9909647D02*
X13173972Y-9919171D01*
X13173972Y-9919171D02*
X13145400Y-9919171D01*
X13269210Y-9785838D02*
X13345400Y-9785838D01*
X13297781Y-9719171D02*
X13297781Y-9890600D01*
X13297781Y-9890600D02*
X13307305Y-9909647D01*
X13307305Y-9909647D02*
X13326353Y-9919171D01*
X13326353Y-9919171D02*
X13345400Y-9919171D01*
X13564448Y-9785838D02*
X13564448Y-9985838D01*
X13564448Y-9795361D02*
X13583496Y-9785838D01*
X13583496Y-9785838D02*
X13621591Y-9785838D01*
X13621591Y-9785838D02*
X13640639Y-9795361D01*
X13640639Y-9795361D02*
X13650162Y-9804885D01*
X13650162Y-9804885D02*
X13659686Y-9823933D01*
X13659686Y-9823933D02*
X13659686Y-9881076D01*
X13659686Y-9881076D02*
X13650162Y-9900123D01*
X13650162Y-9900123D02*
X13640639Y-9909647D01*
X13640639Y-9909647D02*
X13621591Y-9919171D01*
X13621591Y-9919171D02*
X13583496Y-9919171D01*
X13583496Y-9919171D02*
X13564448Y-9909647D01*
X13773972Y-9919171D02*
X13754924Y-9909647D01*
X13754924Y-9909647D02*
X13745400Y-9890600D01*
X13745400Y-9890600D02*
X13745400Y-9719171D01*
X13935877Y-9919171D02*
X13935877Y-9814409D01*
X13935877Y-9814409D02*
X13926353Y-9795361D01*
X13926353Y-9795361D02*
X13907305Y-9785838D01*
X13907305Y-9785838D02*
X13869210Y-9785838D01*
X13869210Y-9785838D02*
X13850162Y-9795361D01*
X13935877Y-9909647D02*
X13916829Y-9919171D01*
X13916829Y-9919171D02*
X13869210Y-9919171D01*
X13869210Y-9919171D02*
X13850162Y-9909647D01*
X13850162Y-9909647D02*
X13840639Y-9890600D01*
X13840639Y-9890600D02*
X13840639Y-9871552D01*
X13840639Y-9871552D02*
X13850162Y-9852504D01*
X13850162Y-9852504D02*
X13869210Y-9842981D01*
X13869210Y-9842981D02*
X13916829Y-9842981D01*
X13916829Y-9842981D02*
X13935877Y-9833457D01*
X14002543Y-9785838D02*
X14078734Y-9785838D01*
X14031115Y-9719171D02*
X14031115Y-9890600D01*
X14031115Y-9890600D02*
X14040639Y-9909647D01*
X14040639Y-9909647D02*
X14059686Y-9919171D01*
X14059686Y-9919171D02*
X14078734Y-9919171D01*
X14221591Y-9909647D02*
X14202543Y-9919171D01*
X14202543Y-9919171D02*
X14164448Y-9919171D01*
X14164448Y-9919171D02*
X14145400Y-9909647D01*
X14145400Y-9909647D02*
X14135877Y-9890600D01*
X14135877Y-9890600D02*
X14135877Y-9814409D01*
X14135877Y-9814409D02*
X14145400Y-9795361D01*
X14145400Y-9795361D02*
X14164448Y-9785838D01*
X14164448Y-9785838D02*
X14202543Y-9785838D01*
X14202543Y-9785838D02*
X14221591Y-9795361D01*
X14221591Y-9795361D02*
X14231115Y-9814409D01*
X14231115Y-9814409D02*
X14231115Y-9833457D01*
X14231115Y-9833457D02*
X14135877Y-9852504D01*
X14402543Y-9919171D02*
X14402543Y-9719171D01*
X14402543Y-9909647D02*
X14383496Y-9919171D01*
X14383496Y-9919171D02*
X14345400Y-9919171D01*
X14345400Y-9919171D02*
X14326353Y-9909647D01*
X14326353Y-9909647D02*
X14316829Y-9900123D01*
X14316829Y-9900123D02*
X14307305Y-9881076D01*
X14307305Y-9881076D02*
X14307305Y-9823933D01*
X14307305Y-9823933D02*
X14316829Y-9804885D01*
X14316829Y-9804885D02*
X14326353Y-9795361D01*
X14326353Y-9795361D02*
X14345400Y-9785838D01*
X14345400Y-9785838D02*
X14383496Y-9785838D01*
X14383496Y-9785838D02*
X14402543Y-9795361D01*
X14478734Y-9995361D02*
X14488258Y-9985838D01*
X14488258Y-9985838D02*
X14507305Y-9957266D01*
X14507305Y-9957266D02*
X14516829Y-9938219D01*
X14516829Y-9938219D02*
X14526353Y-9909647D01*
X14526353Y-9909647D02*
X14535877Y-9862028D01*
X14535877Y-9862028D02*
X14535877Y-9823933D01*
X14535877Y-9823933D02*
X14526353Y-9776314D01*
X14526353Y-9776314D02*
X14516829Y-9747742D01*
X14516829Y-9747742D02*
X14507305Y-9728695D01*
X14507305Y-9728695D02*
X14488258Y-9700123D01*
X14488258Y-9700123D02*
X14478734Y-9690600D01*
M02*
