%TF.GenerationSoftware,KiCad,Pcbnew,7.0.7*%
%TF.CreationDate,2023-10-16T17:51:31+02:00*%
%TF.ProjectId,bc546b-astable-multivibrator,62633534-3662-42d6-9173-7461626c652d,0*%
%TF.SameCoordinates,Original*%
%TF.FileFunction,Legend,Top*%
%TF.FilePolarity,Positive*%
%FSLAX46Y46*%
G04 Gerber Fmt 4.6, Leading zero omitted, Abs format (unit mm)*
G04 Created by KiCad (PCBNEW 7.0.7) date 2023-10-16 17:51:31*
%MOMM*%
%LPD*%
G01*
G04 APERTURE LIST*
%ADD10C,0.150000*%
%ADD11C,0.120000*%
G04 APERTURE END LIST*
D10*
X107053152Y-82425125D02*
X105624580Y-82425125D01*
X106196009Y-81377506D02*
X106243628Y-81234649D01*
X106243628Y-81234649D02*
X106291247Y-81187030D01*
X106291247Y-81187030D02*
X106386485Y-81139411D01*
X106386485Y-81139411D02*
X106529342Y-81139411D01*
X106529342Y-81139411D02*
X106624580Y-81187030D01*
X106624580Y-81187030D02*
X106672200Y-81234649D01*
X106672200Y-81234649D02*
X106719819Y-81329887D01*
X106719819Y-81329887D02*
X106719819Y-81710839D01*
X106719819Y-81710839D02*
X105719819Y-81710839D01*
X105719819Y-81710839D02*
X105719819Y-81377506D01*
X105719819Y-81377506D02*
X105767438Y-81282268D01*
X105767438Y-81282268D02*
X105815057Y-81234649D01*
X105815057Y-81234649D02*
X105910295Y-81187030D01*
X105910295Y-81187030D02*
X106005533Y-81187030D01*
X106005533Y-81187030D02*
X106100771Y-81234649D01*
X106100771Y-81234649D02*
X106148390Y-81282268D01*
X106148390Y-81282268D02*
X106196009Y-81377506D01*
X106196009Y-81377506D02*
X106196009Y-81710839D01*
X106624580Y-80139411D02*
X106672200Y-80187030D01*
X106672200Y-80187030D02*
X106719819Y-80329887D01*
X106719819Y-80329887D02*
X106719819Y-80425125D01*
X106719819Y-80425125D02*
X106672200Y-80567982D01*
X106672200Y-80567982D02*
X106576961Y-80663220D01*
X106576961Y-80663220D02*
X106481723Y-80710839D01*
X106481723Y-80710839D02*
X106291247Y-80758458D01*
X106291247Y-80758458D02*
X106148390Y-80758458D01*
X106148390Y-80758458D02*
X105957914Y-80710839D01*
X105957914Y-80710839D02*
X105862676Y-80663220D01*
X105862676Y-80663220D02*
X105767438Y-80567982D01*
X105767438Y-80567982D02*
X105719819Y-80425125D01*
X105719819Y-80425125D02*
X105719819Y-80329887D01*
X105719819Y-80329887D02*
X105767438Y-80187030D01*
X105767438Y-80187030D02*
X105815057Y-80139411D01*
X105719819Y-79234649D02*
X105719819Y-79710839D01*
X105719819Y-79710839D02*
X106196009Y-79758458D01*
X106196009Y-79758458D02*
X106148390Y-79710839D01*
X106148390Y-79710839D02*
X106100771Y-79615601D01*
X106100771Y-79615601D02*
X106100771Y-79377506D01*
X106100771Y-79377506D02*
X106148390Y-79282268D01*
X106148390Y-79282268D02*
X106196009Y-79234649D01*
X106196009Y-79234649D02*
X106291247Y-79187030D01*
X106291247Y-79187030D02*
X106529342Y-79187030D01*
X106529342Y-79187030D02*
X106624580Y-79234649D01*
X106624580Y-79234649D02*
X106672200Y-79282268D01*
X106672200Y-79282268D02*
X106719819Y-79377506D01*
X106719819Y-79377506D02*
X106719819Y-79615601D01*
X106719819Y-79615601D02*
X106672200Y-79710839D01*
X106672200Y-79710839D02*
X106624580Y-79758458D01*
X106053152Y-78329887D02*
X106719819Y-78329887D01*
X105672200Y-78567982D02*
X106386485Y-78806077D01*
X106386485Y-78806077D02*
X106386485Y-78187030D01*
X105719819Y-77377506D02*
X105719819Y-77567982D01*
X105719819Y-77567982D02*
X105767438Y-77663220D01*
X105767438Y-77663220D02*
X105815057Y-77710839D01*
X105815057Y-77710839D02*
X105957914Y-77806077D01*
X105957914Y-77806077D02*
X106148390Y-77853696D01*
X106148390Y-77853696D02*
X106529342Y-77853696D01*
X106529342Y-77853696D02*
X106624580Y-77806077D01*
X106624580Y-77806077D02*
X106672200Y-77758458D01*
X106672200Y-77758458D02*
X106719819Y-77663220D01*
X106719819Y-77663220D02*
X106719819Y-77472744D01*
X106719819Y-77472744D02*
X106672200Y-77377506D01*
X106672200Y-77377506D02*
X106624580Y-77329887D01*
X106624580Y-77329887D02*
X106529342Y-77282268D01*
X106529342Y-77282268D02*
X106291247Y-77282268D01*
X106291247Y-77282268D02*
X106196009Y-77329887D01*
X106196009Y-77329887D02*
X106148390Y-77377506D01*
X106148390Y-77377506D02*
X106100771Y-77472744D01*
X106100771Y-77472744D02*
X106100771Y-77663220D01*
X106100771Y-77663220D02*
X106148390Y-77758458D01*
X106148390Y-77758458D02*
X106196009Y-77806077D01*
X106196009Y-77806077D02*
X106291247Y-77853696D01*
X106196009Y-76520363D02*
X106243628Y-76377506D01*
X106243628Y-76377506D02*
X106291247Y-76329887D01*
X106291247Y-76329887D02*
X106386485Y-76282268D01*
X106386485Y-76282268D02*
X106529342Y-76282268D01*
X106529342Y-76282268D02*
X106624580Y-76329887D01*
X106624580Y-76329887D02*
X106672200Y-76377506D01*
X106672200Y-76377506D02*
X106719819Y-76472744D01*
X106719819Y-76472744D02*
X106719819Y-76853696D01*
X106719819Y-76853696D02*
X105719819Y-76853696D01*
X105719819Y-76853696D02*
X105719819Y-76520363D01*
X105719819Y-76520363D02*
X105767438Y-76425125D01*
X105767438Y-76425125D02*
X105815057Y-76377506D01*
X105815057Y-76377506D02*
X105910295Y-76329887D01*
X105910295Y-76329887D02*
X106005533Y-76329887D01*
X106005533Y-76329887D02*
X106100771Y-76377506D01*
X106100771Y-76377506D02*
X106148390Y-76425125D01*
X106148390Y-76425125D02*
X106196009Y-76520363D01*
X106196009Y-76520363D02*
X106196009Y-76853696D01*
X106434104Y-75139410D02*
X106434104Y-74663220D01*
X106719819Y-75234648D02*
X105719819Y-74901315D01*
X105719819Y-74901315D02*
X106719819Y-74567982D01*
X106672200Y-74282267D02*
X106719819Y-74187029D01*
X106719819Y-74187029D02*
X106719819Y-73996553D01*
X106719819Y-73996553D02*
X106672200Y-73901315D01*
X106672200Y-73901315D02*
X106576961Y-73853696D01*
X106576961Y-73853696D02*
X106529342Y-73853696D01*
X106529342Y-73853696D02*
X106434104Y-73901315D01*
X106434104Y-73901315D02*
X106386485Y-73996553D01*
X106386485Y-73996553D02*
X106386485Y-74139410D01*
X106386485Y-74139410D02*
X106338866Y-74234648D01*
X106338866Y-74234648D02*
X106243628Y-74282267D01*
X106243628Y-74282267D02*
X106196009Y-74282267D01*
X106196009Y-74282267D02*
X106100771Y-74234648D01*
X106100771Y-74234648D02*
X106053152Y-74139410D01*
X106053152Y-74139410D02*
X106053152Y-73996553D01*
X106053152Y-73996553D02*
X106100771Y-73901315D01*
X106053152Y-73567981D02*
X106053152Y-73187029D01*
X105719819Y-73425124D02*
X106576961Y-73425124D01*
X106576961Y-73425124D02*
X106672200Y-73377505D01*
X106672200Y-73377505D02*
X106719819Y-73282267D01*
X106719819Y-73282267D02*
X106719819Y-73187029D01*
X106719819Y-72425124D02*
X106196009Y-72425124D01*
X106196009Y-72425124D02*
X106100771Y-72472743D01*
X106100771Y-72472743D02*
X106053152Y-72567981D01*
X106053152Y-72567981D02*
X106053152Y-72758457D01*
X106053152Y-72758457D02*
X106100771Y-72853695D01*
X106672200Y-72425124D02*
X106719819Y-72520362D01*
X106719819Y-72520362D02*
X106719819Y-72758457D01*
X106719819Y-72758457D02*
X106672200Y-72853695D01*
X106672200Y-72853695D02*
X106576961Y-72901314D01*
X106576961Y-72901314D02*
X106481723Y-72901314D01*
X106481723Y-72901314D02*
X106386485Y-72853695D01*
X106386485Y-72853695D02*
X106338866Y-72758457D01*
X106338866Y-72758457D02*
X106338866Y-72520362D01*
X106338866Y-72520362D02*
X106291247Y-72425124D01*
X106719819Y-71948933D02*
X105719819Y-71948933D01*
X106100771Y-71948933D02*
X106053152Y-71853695D01*
X106053152Y-71853695D02*
X106053152Y-71663219D01*
X106053152Y-71663219D02*
X106100771Y-71567981D01*
X106100771Y-71567981D02*
X106148390Y-71520362D01*
X106148390Y-71520362D02*
X106243628Y-71472743D01*
X106243628Y-71472743D02*
X106529342Y-71472743D01*
X106529342Y-71472743D02*
X106624580Y-71520362D01*
X106624580Y-71520362D02*
X106672200Y-71567981D01*
X106672200Y-71567981D02*
X106719819Y-71663219D01*
X106719819Y-71663219D02*
X106719819Y-71853695D01*
X106719819Y-71853695D02*
X106672200Y-71948933D01*
X106719819Y-70901314D02*
X106672200Y-70996552D01*
X106672200Y-70996552D02*
X106576961Y-71044171D01*
X106576961Y-71044171D02*
X105719819Y-71044171D01*
X106672200Y-70139409D02*
X106719819Y-70234647D01*
X106719819Y-70234647D02*
X106719819Y-70425123D01*
X106719819Y-70425123D02*
X106672200Y-70520361D01*
X106672200Y-70520361D02*
X106576961Y-70567980D01*
X106576961Y-70567980D02*
X106196009Y-70567980D01*
X106196009Y-70567980D02*
X106100771Y-70520361D01*
X106100771Y-70520361D02*
X106053152Y-70425123D01*
X106053152Y-70425123D02*
X106053152Y-70234647D01*
X106053152Y-70234647D02*
X106100771Y-70139409D01*
X106100771Y-70139409D02*
X106196009Y-70091790D01*
X106196009Y-70091790D02*
X106291247Y-70091790D01*
X106291247Y-70091790D02*
X106386485Y-70567980D01*
X106719819Y-68901313D02*
X105719819Y-68901313D01*
X105719819Y-68901313D02*
X106434104Y-68567980D01*
X106434104Y-68567980D02*
X105719819Y-68234647D01*
X105719819Y-68234647D02*
X106719819Y-68234647D01*
X106053152Y-67329885D02*
X106719819Y-67329885D01*
X106053152Y-67758456D02*
X106576961Y-67758456D01*
X106576961Y-67758456D02*
X106672200Y-67710837D01*
X106672200Y-67710837D02*
X106719819Y-67615599D01*
X106719819Y-67615599D02*
X106719819Y-67472742D01*
X106719819Y-67472742D02*
X106672200Y-67377504D01*
X106672200Y-67377504D02*
X106624580Y-67329885D01*
X106719819Y-66710837D02*
X106672200Y-66806075D01*
X106672200Y-66806075D02*
X106576961Y-66853694D01*
X106576961Y-66853694D02*
X105719819Y-66853694D01*
X106053152Y-66472741D02*
X106053152Y-66091789D01*
X105719819Y-66329884D02*
X106576961Y-66329884D01*
X106576961Y-66329884D02*
X106672200Y-66282265D01*
X106672200Y-66282265D02*
X106719819Y-66187027D01*
X106719819Y-66187027D02*
X106719819Y-66091789D01*
X106719819Y-65758455D02*
X106053152Y-65758455D01*
X105719819Y-65758455D02*
X105767438Y-65806074D01*
X105767438Y-65806074D02*
X105815057Y-65758455D01*
X105815057Y-65758455D02*
X105767438Y-65710836D01*
X105767438Y-65710836D02*
X105719819Y-65758455D01*
X105719819Y-65758455D02*
X105815057Y-65758455D01*
X106053152Y-65377503D02*
X106719819Y-65139408D01*
X106719819Y-65139408D02*
X106053152Y-64901313D01*
X106719819Y-64520360D02*
X106053152Y-64520360D01*
X105719819Y-64520360D02*
X105767438Y-64567979D01*
X105767438Y-64567979D02*
X105815057Y-64520360D01*
X105815057Y-64520360D02*
X105767438Y-64472741D01*
X105767438Y-64472741D02*
X105719819Y-64520360D01*
X105719819Y-64520360D02*
X105815057Y-64520360D01*
X106719819Y-64044170D02*
X105719819Y-64044170D01*
X106100771Y-64044170D02*
X106053152Y-63948932D01*
X106053152Y-63948932D02*
X106053152Y-63758456D01*
X106053152Y-63758456D02*
X106100771Y-63663218D01*
X106100771Y-63663218D02*
X106148390Y-63615599D01*
X106148390Y-63615599D02*
X106243628Y-63567980D01*
X106243628Y-63567980D02*
X106529342Y-63567980D01*
X106529342Y-63567980D02*
X106624580Y-63615599D01*
X106624580Y-63615599D02*
X106672200Y-63663218D01*
X106672200Y-63663218D02*
X106719819Y-63758456D01*
X106719819Y-63758456D02*
X106719819Y-63948932D01*
X106719819Y-63948932D02*
X106672200Y-64044170D01*
X106719819Y-63139408D02*
X106053152Y-63139408D01*
X106243628Y-63139408D02*
X106148390Y-63091789D01*
X106148390Y-63091789D02*
X106100771Y-63044170D01*
X106100771Y-63044170D02*
X106053152Y-62948932D01*
X106053152Y-62948932D02*
X106053152Y-62853694D01*
X106719819Y-62091789D02*
X106196009Y-62091789D01*
X106196009Y-62091789D02*
X106100771Y-62139408D01*
X106100771Y-62139408D02*
X106053152Y-62234646D01*
X106053152Y-62234646D02*
X106053152Y-62425122D01*
X106053152Y-62425122D02*
X106100771Y-62520360D01*
X106672200Y-62091789D02*
X106719819Y-62187027D01*
X106719819Y-62187027D02*
X106719819Y-62425122D01*
X106719819Y-62425122D02*
X106672200Y-62520360D01*
X106672200Y-62520360D02*
X106576961Y-62567979D01*
X106576961Y-62567979D02*
X106481723Y-62567979D01*
X106481723Y-62567979D02*
X106386485Y-62520360D01*
X106386485Y-62520360D02*
X106338866Y-62425122D01*
X106338866Y-62425122D02*
X106338866Y-62187027D01*
X106338866Y-62187027D02*
X106291247Y-62091789D01*
X106053152Y-61758455D02*
X106053152Y-61377503D01*
X105719819Y-61615598D02*
X106576961Y-61615598D01*
X106576961Y-61615598D02*
X106672200Y-61567979D01*
X106672200Y-61567979D02*
X106719819Y-61472741D01*
X106719819Y-61472741D02*
X106719819Y-61377503D01*
X106719819Y-60901312D02*
X106672200Y-60996550D01*
X106672200Y-60996550D02*
X106624580Y-61044169D01*
X106624580Y-61044169D02*
X106529342Y-61091788D01*
X106529342Y-61091788D02*
X106243628Y-61091788D01*
X106243628Y-61091788D02*
X106148390Y-61044169D01*
X106148390Y-61044169D02*
X106100771Y-60996550D01*
X106100771Y-60996550D02*
X106053152Y-60901312D01*
X106053152Y-60901312D02*
X106053152Y-60758455D01*
X106053152Y-60758455D02*
X106100771Y-60663217D01*
X106100771Y-60663217D02*
X106148390Y-60615598D01*
X106148390Y-60615598D02*
X106243628Y-60567979D01*
X106243628Y-60567979D02*
X106529342Y-60567979D01*
X106529342Y-60567979D02*
X106624580Y-60615598D01*
X106624580Y-60615598D02*
X106672200Y-60663217D01*
X106672200Y-60663217D02*
X106719819Y-60758455D01*
X106719819Y-60758455D02*
X106719819Y-60901312D01*
X106719819Y-60139407D02*
X106053152Y-60139407D01*
X106243628Y-60139407D02*
X106148390Y-60091788D01*
X106148390Y-60091788D02*
X106100771Y-60044169D01*
X106100771Y-60044169D02*
X106053152Y-59948931D01*
X106053152Y-59948931D02*
X106053152Y-59853693D01*
X107053152Y-59282264D02*
X105624580Y-59282264D01*
X101683333Y-70809580D02*
X101635714Y-70857200D01*
X101635714Y-70857200D02*
X101492857Y-70904819D01*
X101492857Y-70904819D02*
X101397619Y-70904819D01*
X101397619Y-70904819D02*
X101254762Y-70857200D01*
X101254762Y-70857200D02*
X101159524Y-70761961D01*
X101159524Y-70761961D02*
X101111905Y-70666723D01*
X101111905Y-70666723D02*
X101064286Y-70476247D01*
X101064286Y-70476247D02*
X101064286Y-70333390D01*
X101064286Y-70333390D02*
X101111905Y-70142914D01*
X101111905Y-70142914D02*
X101159524Y-70047676D01*
X101159524Y-70047676D02*
X101254762Y-69952438D01*
X101254762Y-69952438D02*
X101397619Y-69904819D01*
X101397619Y-69904819D02*
X101492857Y-69904819D01*
X101492857Y-69904819D02*
X101635714Y-69952438D01*
X101635714Y-69952438D02*
X101683333Y-70000057D01*
X102064286Y-70000057D02*
X102111905Y-69952438D01*
X102111905Y-69952438D02*
X102207143Y-69904819D01*
X102207143Y-69904819D02*
X102445238Y-69904819D01*
X102445238Y-69904819D02*
X102540476Y-69952438D01*
X102540476Y-69952438D02*
X102588095Y-70000057D01*
X102588095Y-70000057D02*
X102635714Y-70095295D01*
X102635714Y-70095295D02*
X102635714Y-70190533D01*
X102635714Y-70190533D02*
X102588095Y-70333390D01*
X102588095Y-70333390D02*
X102016667Y-70904819D01*
X102016667Y-70904819D02*
X102635714Y-70904819D01*
X89956905Y-55694819D02*
X89956905Y-54694819D01*
X89956905Y-54694819D02*
X90195000Y-54694819D01*
X90195000Y-54694819D02*
X90337857Y-54742438D01*
X90337857Y-54742438D02*
X90433095Y-54837676D01*
X90433095Y-54837676D02*
X90480714Y-54932914D01*
X90480714Y-54932914D02*
X90528333Y-55123390D01*
X90528333Y-55123390D02*
X90528333Y-55266247D01*
X90528333Y-55266247D02*
X90480714Y-55456723D01*
X90480714Y-55456723D02*
X90433095Y-55551961D01*
X90433095Y-55551961D02*
X90337857Y-55647200D01*
X90337857Y-55647200D02*
X90195000Y-55694819D01*
X90195000Y-55694819D02*
X89956905Y-55694819D01*
X90909286Y-54790057D02*
X90956905Y-54742438D01*
X90956905Y-54742438D02*
X91052143Y-54694819D01*
X91052143Y-54694819D02*
X91290238Y-54694819D01*
X91290238Y-54694819D02*
X91385476Y-54742438D01*
X91385476Y-54742438D02*
X91433095Y-54790057D01*
X91433095Y-54790057D02*
X91480714Y-54885295D01*
X91480714Y-54885295D02*
X91480714Y-54980533D01*
X91480714Y-54980533D02*
X91433095Y-55123390D01*
X91433095Y-55123390D02*
X90861667Y-55694819D01*
X90861667Y-55694819D02*
X91480714Y-55694819D01*
X93033333Y-75934819D02*
X92700000Y-75458628D01*
X92461905Y-75934819D02*
X92461905Y-74934819D01*
X92461905Y-74934819D02*
X92842857Y-74934819D01*
X92842857Y-74934819D02*
X92938095Y-74982438D01*
X92938095Y-74982438D02*
X92985714Y-75030057D01*
X92985714Y-75030057D02*
X93033333Y-75125295D01*
X93033333Y-75125295D02*
X93033333Y-75268152D01*
X93033333Y-75268152D02*
X92985714Y-75363390D01*
X92985714Y-75363390D02*
X92938095Y-75411009D01*
X92938095Y-75411009D02*
X92842857Y-75458628D01*
X92842857Y-75458628D02*
X92461905Y-75458628D01*
X93366667Y-74934819D02*
X93985714Y-74934819D01*
X93985714Y-74934819D02*
X93652381Y-75315771D01*
X93652381Y-75315771D02*
X93795238Y-75315771D01*
X93795238Y-75315771D02*
X93890476Y-75363390D01*
X93890476Y-75363390D02*
X93938095Y-75411009D01*
X93938095Y-75411009D02*
X93985714Y-75506247D01*
X93985714Y-75506247D02*
X93985714Y-75744342D01*
X93985714Y-75744342D02*
X93938095Y-75839580D01*
X93938095Y-75839580D02*
X93890476Y-75887200D01*
X93890476Y-75887200D02*
X93795238Y-75934819D01*
X93795238Y-75934819D02*
X93509524Y-75934819D01*
X93509524Y-75934819D02*
X93414286Y-75887200D01*
X93414286Y-75887200D02*
X93366667Y-75839580D01*
X101356905Y-55694819D02*
X101356905Y-54694819D01*
X101356905Y-54694819D02*
X101595000Y-54694819D01*
X101595000Y-54694819D02*
X101737857Y-54742438D01*
X101737857Y-54742438D02*
X101833095Y-54837676D01*
X101833095Y-54837676D02*
X101880714Y-54932914D01*
X101880714Y-54932914D02*
X101928333Y-55123390D01*
X101928333Y-55123390D02*
X101928333Y-55266247D01*
X101928333Y-55266247D02*
X101880714Y-55456723D01*
X101880714Y-55456723D02*
X101833095Y-55551961D01*
X101833095Y-55551961D02*
X101737857Y-55647200D01*
X101737857Y-55647200D02*
X101595000Y-55694819D01*
X101595000Y-55694819D02*
X101356905Y-55694819D01*
X102880714Y-55694819D02*
X102309286Y-55694819D01*
X102595000Y-55694819D02*
X102595000Y-54694819D01*
X102595000Y-54694819D02*
X102499762Y-54837676D01*
X102499762Y-54837676D02*
X102404524Y-54932914D01*
X102404524Y-54932914D02*
X102309286Y-54980533D01*
X87726009Y-82785714D02*
X87773628Y-82642857D01*
X87773628Y-82642857D02*
X87821247Y-82595238D01*
X87821247Y-82595238D02*
X87916485Y-82547619D01*
X87916485Y-82547619D02*
X88059342Y-82547619D01*
X88059342Y-82547619D02*
X88154580Y-82595238D01*
X88154580Y-82595238D02*
X88202200Y-82642857D01*
X88202200Y-82642857D02*
X88249819Y-82738095D01*
X88249819Y-82738095D02*
X88249819Y-83119047D01*
X88249819Y-83119047D02*
X87249819Y-83119047D01*
X87249819Y-83119047D02*
X87249819Y-82785714D01*
X87249819Y-82785714D02*
X87297438Y-82690476D01*
X87297438Y-82690476D02*
X87345057Y-82642857D01*
X87345057Y-82642857D02*
X87440295Y-82595238D01*
X87440295Y-82595238D02*
X87535533Y-82595238D01*
X87535533Y-82595238D02*
X87630771Y-82642857D01*
X87630771Y-82642857D02*
X87678390Y-82690476D01*
X87678390Y-82690476D02*
X87726009Y-82785714D01*
X87726009Y-82785714D02*
X87726009Y-83119047D01*
X87249819Y-82261904D02*
X87249819Y-81690476D01*
X88249819Y-81976190D02*
X87249819Y-81976190D01*
X88249819Y-80833333D02*
X88249819Y-81404761D01*
X88249819Y-81119047D02*
X87249819Y-81119047D01*
X87249819Y-81119047D02*
X87392676Y-81214285D01*
X87392676Y-81214285D02*
X87487914Y-81309523D01*
X87487914Y-81309523D02*
X87535533Y-81404761D01*
X101660734Y-75609580D02*
X101613115Y-75657200D01*
X101613115Y-75657200D02*
X101470258Y-75704819D01*
X101470258Y-75704819D02*
X101375020Y-75704819D01*
X101375020Y-75704819D02*
X101232163Y-75657200D01*
X101232163Y-75657200D02*
X101136925Y-75561961D01*
X101136925Y-75561961D02*
X101089306Y-75466723D01*
X101089306Y-75466723D02*
X101041687Y-75276247D01*
X101041687Y-75276247D02*
X101041687Y-75133390D01*
X101041687Y-75133390D02*
X101089306Y-74942914D01*
X101089306Y-74942914D02*
X101136925Y-74847676D01*
X101136925Y-74847676D02*
X101232163Y-74752438D01*
X101232163Y-74752438D02*
X101375020Y-74704819D01*
X101375020Y-74704819D02*
X101470258Y-74704819D01*
X101470258Y-74704819D02*
X101613115Y-74752438D01*
X101613115Y-74752438D02*
X101660734Y-74800057D01*
X102613115Y-75704819D02*
X102041687Y-75704819D01*
X102327401Y-75704819D02*
X102327401Y-74704819D01*
X102327401Y-74704819D02*
X102232163Y-74847676D01*
X102232163Y-74847676D02*
X102136925Y-74942914D01*
X102136925Y-74942914D02*
X102041687Y-74990533D01*
%TO.C,G\u002A\u002A\u002A*%
G36*
X107419354Y-58002614D02*
G01*
X107419354Y-58165073D01*
X107320467Y-58165073D01*
X107256896Y-58165073D01*
X107094438Y-58165073D01*
X107094438Y-58002614D01*
X107094438Y-57939044D01*
X107177651Y-57939044D01*
X107181956Y-58006146D01*
X107186262Y-58073248D01*
X107253364Y-58077554D01*
X107320467Y-58081860D01*
X107320467Y-58010452D01*
X107320467Y-57939044D01*
X107249059Y-57939044D01*
X107177651Y-57939044D01*
X107094438Y-57939044D01*
X107094438Y-57840156D01*
X107256896Y-57840156D01*
X107419354Y-57840156D01*
X107419354Y-58002614D01*
G37*
G36*
X106585873Y-57592937D02*
G01*
X106585873Y-57755395D01*
X106423414Y-57755395D01*
X106359844Y-57755395D01*
X106260956Y-57755395D01*
X106260956Y-57592937D01*
X106260956Y-57513692D01*
X106359844Y-57513692D01*
X106359844Y-57585100D01*
X106359844Y-57656508D01*
X106431252Y-57656508D01*
X106502660Y-57656508D01*
X106498354Y-57589405D01*
X106494049Y-57522303D01*
X106426946Y-57517997D01*
X106359844Y-57513692D01*
X106260956Y-57513692D01*
X106260956Y-57430479D01*
X106423414Y-57430479D01*
X106585873Y-57430479D01*
X106585873Y-57592937D01*
G37*
G36*
X107009677Y-57592937D02*
G01*
X107009677Y-57755395D01*
X106840155Y-57755395D01*
X106767973Y-57755395D01*
X106670634Y-57755395D01*
X106670634Y-57656508D01*
X106767973Y-57656508D01*
X106840155Y-57656508D01*
X106912337Y-57656508D01*
X106908032Y-57589405D01*
X106903726Y-57522303D01*
X106840155Y-57522303D01*
X106776585Y-57522303D01*
X106772279Y-57589405D01*
X106767973Y-57656508D01*
X106670634Y-57656508D01*
X106670634Y-57592937D01*
X106670634Y-57430479D01*
X106840155Y-57430479D01*
X107009677Y-57430479D01*
X107009677Y-57592937D01*
G37*
G36*
X107419354Y-57592937D02*
G01*
X107419354Y-57755395D01*
X107256896Y-57755395D01*
X107177651Y-57755395D01*
X107094438Y-57755395D01*
X107094438Y-57656508D01*
X107177651Y-57656508D01*
X107249059Y-57656508D01*
X107320467Y-57656508D01*
X107320467Y-57585100D01*
X107320467Y-57513692D01*
X107253364Y-57517997D01*
X107186262Y-57522303D01*
X107181956Y-57589405D01*
X107177651Y-57656508D01*
X107094438Y-57656508D01*
X107094438Y-57592937D01*
X107094438Y-57430479D01*
X107256896Y-57430479D01*
X107419354Y-57430479D01*
X107419354Y-57592937D01*
G37*
G36*
X107419354Y-57169133D02*
G01*
X107419354Y-57331591D01*
X107320467Y-57331591D01*
X107256896Y-57331591D01*
X107094438Y-57331591D01*
X107094438Y-57169133D01*
X107094438Y-57105562D01*
X107177651Y-57105562D01*
X107181956Y-57172665D01*
X107186262Y-57239767D01*
X107253364Y-57244073D01*
X107320467Y-57248378D01*
X107320467Y-57176970D01*
X107320467Y-57105562D01*
X107249059Y-57105562D01*
X107177651Y-57105562D01*
X107094438Y-57105562D01*
X107094438Y-57006675D01*
X107256896Y-57006675D01*
X107419354Y-57006675D01*
X107419354Y-57169133D01*
G37*
G36*
X106585873Y-58002614D02*
G01*
X106585873Y-58165073D01*
X106423414Y-58165073D01*
X106359844Y-58165073D01*
X106260956Y-58165073D01*
X106260956Y-58002614D01*
X106260956Y-57939044D01*
X106359844Y-57939044D01*
X106359844Y-58009678D01*
X106359844Y-58080312D01*
X106421060Y-58080312D01*
X106460702Y-58078308D01*
X106487310Y-58073278D01*
X106491694Y-58070894D01*
X106497485Y-58052080D01*
X106500804Y-58016064D01*
X106501112Y-58000260D01*
X106501112Y-57939044D01*
X106430478Y-57939044D01*
X106359844Y-57939044D01*
X106260956Y-57939044D01*
X106260956Y-57840156D01*
X106423414Y-57840156D01*
X106585873Y-57840156D01*
X106585873Y-58002614D01*
G37*
G36*
X107009677Y-58002614D02*
G01*
X107009677Y-58165073D01*
X106871599Y-58165073D01*
X106840155Y-58165073D01*
X106670634Y-58165073D01*
X106670634Y-58002614D01*
X106670634Y-57939044D01*
X106767973Y-57939044D01*
X106772279Y-58006146D01*
X106776130Y-58046772D01*
X106784666Y-58067160D01*
X106803641Y-58075304D01*
X106823842Y-58077776D01*
X106871599Y-58078827D01*
X106898062Y-58067054D01*
X106909100Y-58037417D01*
X106910789Y-58003058D01*
X106910789Y-57939044D01*
X106839381Y-57939044D01*
X106767973Y-57939044D01*
X106670634Y-57939044D01*
X106670634Y-57840156D01*
X106840155Y-57840156D01*
X107009677Y-57840156D01*
X107009677Y-58002614D01*
G37*
G36*
X106585873Y-57169133D02*
G01*
X106585873Y-57331591D01*
X106423414Y-57331591D01*
X106359844Y-57331591D01*
X106260956Y-57331591D01*
X106260956Y-57169133D01*
X106260956Y-57105562D01*
X106359844Y-57105562D01*
X106359844Y-57176196D01*
X106359844Y-57246830D01*
X106421060Y-57246830D01*
X106460702Y-57244827D01*
X106487310Y-57239796D01*
X106491694Y-57237412D01*
X106497485Y-57218598D01*
X106500804Y-57182582D01*
X106501112Y-57166778D01*
X106501112Y-57105562D01*
X106430478Y-57105562D01*
X106359844Y-57105562D01*
X106260956Y-57105562D01*
X106260956Y-57006675D01*
X106423414Y-57006675D01*
X106585873Y-57006675D01*
X106585873Y-57169133D01*
G37*
G36*
X107009677Y-57169133D02*
G01*
X107009677Y-57331591D01*
X106871599Y-57331591D01*
X106840155Y-57331591D01*
X106670634Y-57331591D01*
X106670634Y-57169133D01*
X106670634Y-57105562D01*
X106767973Y-57105562D01*
X106772279Y-57172665D01*
X106776130Y-57213291D01*
X106784666Y-57233679D01*
X106803641Y-57241823D01*
X106823842Y-57244294D01*
X106871599Y-57245345D01*
X106898062Y-57233573D01*
X106909100Y-57203935D01*
X106910789Y-57169576D01*
X106910789Y-57105562D01*
X106839381Y-57105562D01*
X106767973Y-57105562D01*
X106670634Y-57105562D01*
X106670634Y-57006675D01*
X106840155Y-57006675D01*
X107009677Y-57006675D01*
X107009677Y-57169133D01*
G37*
G36*
X106119688Y-57585874D02*
G01*
X106119688Y-58165073D01*
X105893659Y-58165073D01*
X105766518Y-58165073D01*
X105667630Y-58165073D01*
X105667630Y-57585874D01*
X105667630Y-57105562D01*
X105766518Y-57105562D01*
X105766518Y-57592937D01*
X105766518Y-58080312D01*
X105884241Y-58080312D01*
X105939414Y-58079251D01*
X105983230Y-58076428D01*
X106008421Y-58072381D01*
X106011383Y-58070894D01*
X106013614Y-58055019D01*
X106015657Y-58014229D01*
X106017446Y-57951860D01*
X106018918Y-57871250D01*
X106020008Y-57775736D01*
X106020650Y-57668657D01*
X106020800Y-57583519D01*
X106020800Y-57105562D01*
X105893659Y-57105562D01*
X105766518Y-57105562D01*
X105667630Y-57105562D01*
X105667630Y-57006675D01*
X105893659Y-57006675D01*
X106119688Y-57006675D01*
X106119688Y-57585874D01*
G37*
G36*
X107135807Y-56738390D02*
G01*
X107264858Y-56738865D01*
X107373283Y-56739791D01*
X107462988Y-56741310D01*
X107535880Y-56743564D01*
X107593865Y-56746694D01*
X107638850Y-56750841D01*
X107672742Y-56756146D01*
X107697447Y-56762751D01*
X107714872Y-56770798D01*
X107726924Y-56780426D01*
X107735509Y-56791779D01*
X107742534Y-56804997D01*
X107749906Y-56820221D01*
X107751415Y-56823182D01*
X107756221Y-56835889D01*
X107760248Y-56855371D01*
X107763556Y-56883930D01*
X107766206Y-56923869D01*
X107768258Y-56977490D01*
X107769774Y-57047094D01*
X107770815Y-57134986D01*
X107771440Y-57243468D01*
X107771712Y-57374841D01*
X107771690Y-57531408D01*
X107771629Y-57588704D01*
X107771233Y-57729943D01*
X107770431Y-57863180D01*
X107769270Y-57985636D01*
X107767797Y-58094531D01*
X107766058Y-58187085D01*
X107764099Y-58260518D01*
X107761968Y-58312052D01*
X107759709Y-58338907D01*
X107759047Y-58341658D01*
X107740807Y-58370473D01*
X107712122Y-58402622D01*
X107709366Y-58405228D01*
X107671370Y-58440545D01*
X106613073Y-58444340D01*
X106603220Y-58444375D01*
X105554775Y-58448135D01*
X105501720Y-58399521D01*
X105448665Y-58350908D01*
X105444760Y-57611983D01*
X105444626Y-57585430D01*
X105540489Y-57585430D01*
X105540577Y-57746539D01*
X105540889Y-57881745D01*
X105541496Y-57993400D01*
X105542467Y-58083855D01*
X105543874Y-58155461D01*
X105545787Y-58210569D01*
X105548278Y-58251531D01*
X105551415Y-58280696D01*
X105555271Y-58300417D01*
X105559916Y-58313045D01*
X105562480Y-58317324D01*
X105584472Y-58348721D01*
X106603220Y-58348721D01*
X106798487Y-58348679D01*
X106967447Y-58348522D01*
X107112043Y-58348209D01*
X107234221Y-58347694D01*
X107335927Y-58346935D01*
X107419105Y-58345888D01*
X107485702Y-58344509D01*
X107537661Y-58342755D01*
X107576929Y-58340582D01*
X107605450Y-58337948D01*
X107625170Y-58334807D01*
X107638034Y-58331117D01*
X107645988Y-58326835D01*
X107647803Y-58325342D01*
X107653627Y-58318788D01*
X107658505Y-58308996D01*
X107662522Y-58293597D01*
X107665761Y-58270223D01*
X107668304Y-58236506D01*
X107670235Y-58190077D01*
X107671637Y-58128569D01*
X107672594Y-58049614D01*
X107673188Y-57950843D01*
X107673504Y-57829888D01*
X107673624Y-57684381D01*
X107673637Y-57590748D01*
X107673608Y-57430728D01*
X107673458Y-57296569D01*
X107673097Y-57185879D01*
X107672431Y-57096264D01*
X107671368Y-57025333D01*
X107669817Y-56970692D01*
X107667683Y-56929950D01*
X107664877Y-56900712D01*
X107661304Y-56880588D01*
X107656874Y-56867184D01*
X107651493Y-56858107D01*
X107645110Y-56851007D01*
X107639170Y-56845574D01*
X107631674Y-56840887D01*
X107620648Y-56836901D01*
X107604114Y-56833568D01*
X107580098Y-56830842D01*
X107546623Y-56828675D01*
X107501713Y-56827022D01*
X107443393Y-56825836D01*
X107369685Y-56825070D01*
X107278615Y-56824677D01*
X107168206Y-56824610D01*
X107036482Y-56824824D01*
X106881467Y-56825271D01*
X106701186Y-56825904D01*
X106598584Y-56826285D01*
X106404525Y-56827030D01*
X106236761Y-56827752D01*
X106093333Y-56828508D01*
X105972283Y-56829359D01*
X105871652Y-56830362D01*
X105789482Y-56831578D01*
X105723814Y-56833064D01*
X105672690Y-56834880D01*
X105634151Y-56837084D01*
X105606238Y-56839736D01*
X105586994Y-56842895D01*
X105574458Y-56846619D01*
X105566674Y-56850967D01*
X105561682Y-56855998D01*
X105560537Y-56857511D01*
X105555874Y-56867867D01*
X105551967Y-56886581D01*
X105548753Y-56915895D01*
X105546171Y-56958046D01*
X105544159Y-57015273D01*
X105542655Y-57089815D01*
X105541598Y-57183912D01*
X105540926Y-57299802D01*
X105540577Y-57439723D01*
X105540489Y-57585430D01*
X105444626Y-57585430D01*
X105443905Y-57442447D01*
X105443395Y-57298835D01*
X105443407Y-57178821D01*
X105444118Y-57080076D01*
X105445704Y-57000272D01*
X105448342Y-56937082D01*
X105452208Y-56888177D01*
X105457480Y-56851229D01*
X105464335Y-56823910D01*
X105472949Y-56803894D01*
X105483498Y-56788850D01*
X105496160Y-56776452D01*
X105508989Y-56766040D01*
X105516290Y-56760848D01*
X105525368Y-56756346D01*
X105538167Y-56752486D01*
X105556632Y-56749217D01*
X105582709Y-56746492D01*
X105618342Y-56744261D01*
X105665476Y-56742474D01*
X105726056Y-56741082D01*
X105802026Y-56740036D01*
X105895333Y-56739286D01*
X106007920Y-56738784D01*
X106141732Y-56738481D01*
X106298715Y-56738326D01*
X106480813Y-56738271D01*
X106605825Y-56738265D01*
X106808197Y-56738232D01*
X106984222Y-56738227D01*
X107135807Y-56738390D01*
G37*
D11*
%TO.C,C2*%
X99580199Y-72505000D02*
X99980199Y-72505000D01*
X99780199Y-72305000D02*
X99780199Y-72705000D01*
X101850000Y-71620000D02*
X101850000Y-72860000D01*
X101850000Y-74540000D02*
X101850000Y-75780000D01*
X101890000Y-71620000D02*
X101890000Y-72860000D01*
X101890000Y-74540000D02*
X101890000Y-75780000D01*
X101930000Y-71621000D02*
X101930000Y-72860000D01*
X101930000Y-74540000D02*
X101930000Y-75779000D01*
X101970000Y-71623000D02*
X101970000Y-72860000D01*
X101970000Y-74540000D02*
X101970000Y-75777000D01*
X102010000Y-71626000D02*
X102010000Y-72860000D01*
X102010000Y-74540000D02*
X102010000Y-75774000D01*
X102050000Y-71629000D02*
X102050000Y-72860000D01*
X102050000Y-74540000D02*
X102050000Y-75771000D01*
X102090000Y-71633000D02*
X102090000Y-72860000D01*
X102090000Y-74540000D02*
X102090000Y-75767000D01*
X102130000Y-71638000D02*
X102130000Y-72860000D01*
X102130000Y-74540000D02*
X102130000Y-75762000D01*
X102170000Y-71644000D02*
X102170000Y-72860000D01*
X102170000Y-74540000D02*
X102170000Y-75756000D01*
X102210000Y-71650000D02*
X102210000Y-72860000D01*
X102210000Y-74540000D02*
X102210000Y-75750000D01*
X102250000Y-71658000D02*
X102250000Y-72860000D01*
X102250000Y-74540000D02*
X102250000Y-75742000D01*
X102290000Y-71666000D02*
X102290000Y-72860000D01*
X102290000Y-74540000D02*
X102290000Y-75734000D01*
X102330000Y-71675000D02*
X102330000Y-72860000D01*
X102330000Y-74540000D02*
X102330000Y-75725000D01*
X102370000Y-71684000D02*
X102370000Y-72860000D01*
X102370000Y-74540000D02*
X102370000Y-75716000D01*
X102410000Y-71695000D02*
X102410000Y-72860000D01*
X102410000Y-74540000D02*
X102410000Y-75705000D01*
X102450000Y-71706000D02*
X102450000Y-72860000D01*
X102450000Y-74540000D02*
X102450000Y-75694000D01*
X102490000Y-71718000D02*
X102490000Y-72860000D01*
X102490000Y-74540000D02*
X102490000Y-75682000D01*
X102530000Y-71732000D02*
X102530000Y-72860000D01*
X102530000Y-74540000D02*
X102530000Y-75668000D01*
X102571000Y-71746000D02*
X102571000Y-72860000D01*
X102571000Y-74540000D02*
X102571000Y-75654000D01*
X102611000Y-71760000D02*
X102611000Y-72860000D01*
X102611000Y-74540000D02*
X102611000Y-75640000D01*
X102651000Y-71776000D02*
X102651000Y-72860000D01*
X102651000Y-74540000D02*
X102651000Y-75624000D01*
X102691000Y-71793000D02*
X102691000Y-72860000D01*
X102691000Y-74540000D02*
X102691000Y-75607000D01*
X102731000Y-71811000D02*
X102731000Y-72860000D01*
X102731000Y-74540000D02*
X102731000Y-75589000D01*
X102771000Y-71830000D02*
X102771000Y-72860000D01*
X102771000Y-74540000D02*
X102771000Y-75570000D01*
X102811000Y-71849000D02*
X102811000Y-72860000D01*
X102811000Y-74540000D02*
X102811000Y-75551000D01*
X102851000Y-71870000D02*
X102851000Y-72860000D01*
X102851000Y-74540000D02*
X102851000Y-75530000D01*
X102891000Y-71892000D02*
X102891000Y-72860000D01*
X102891000Y-74540000D02*
X102891000Y-75508000D01*
X102931000Y-71915000D02*
X102931000Y-72860000D01*
X102931000Y-74540000D02*
X102931000Y-75485000D01*
X102971000Y-71940000D02*
X102971000Y-72860000D01*
X102971000Y-74540000D02*
X102971000Y-75460000D01*
X103011000Y-71965000D02*
X103011000Y-72860000D01*
X103011000Y-74540000D02*
X103011000Y-75435000D01*
X103051000Y-71992000D02*
X103051000Y-72860000D01*
X103051000Y-74540000D02*
X103051000Y-75408000D01*
X103091000Y-72020000D02*
X103091000Y-72860000D01*
X103091000Y-74540000D02*
X103091000Y-75380000D01*
X103131000Y-72050000D02*
X103131000Y-72860000D01*
X103131000Y-74540000D02*
X103131000Y-75350000D01*
X103171000Y-72081000D02*
X103171000Y-72860000D01*
X103171000Y-74540000D02*
X103171000Y-75319000D01*
X103211000Y-72113000D02*
X103211000Y-72860000D01*
X103211000Y-74540000D02*
X103211000Y-75287000D01*
X103251000Y-72148000D02*
X103251000Y-72860000D01*
X103251000Y-74540000D02*
X103251000Y-75252000D01*
X103291000Y-72184000D02*
X103291000Y-72860000D01*
X103291000Y-74540000D02*
X103291000Y-75216000D01*
X103331000Y-72222000D02*
X103331000Y-72860000D01*
X103331000Y-74540000D02*
X103331000Y-75178000D01*
X103371000Y-72262000D02*
X103371000Y-72860000D01*
X103371000Y-74540000D02*
X103371000Y-75138000D01*
X103411000Y-72304000D02*
X103411000Y-72860000D01*
X103411000Y-74540000D02*
X103411000Y-75096000D01*
X103451000Y-72349000D02*
X103451000Y-75051000D01*
X103491000Y-72396000D02*
X103491000Y-75004000D01*
X103531000Y-72446000D02*
X103531000Y-74954000D01*
X103571000Y-72500000D02*
X103571000Y-74900000D01*
X103611000Y-72558000D02*
X103611000Y-74842000D01*
X103651000Y-72620000D02*
X103651000Y-74780000D01*
X103691000Y-72687000D02*
X103691000Y-74713000D01*
X103731000Y-72760000D02*
X103731000Y-74640000D01*
X103771000Y-72841000D02*
X103771000Y-74559000D01*
X103811000Y-72932000D02*
X103811000Y-74468000D01*
X103851000Y-73036000D02*
X103851000Y-74364000D01*
X103891000Y-73163000D02*
X103891000Y-74237000D01*
X103931000Y-73330000D02*
X103931000Y-74070000D01*
X103970000Y-73700000D02*
G75*
G03*
X103970000Y-73700000I-2120000J0D01*
G01*
%TO.C,D2*%
X89135000Y-56964000D02*
X89135000Y-57120000D01*
X89135000Y-59280000D02*
X89135000Y-59436000D01*
X92367334Y-57121392D02*
G75*
G03*
X89135001Y-56964485I-1672334J-1078608D01*
G01*
X91736129Y-57120164D02*
G75*
G03*
X89654040Y-57120001I-1041129J-1079836D01*
G01*
X89654040Y-59279999D02*
G75*
G03*
X91736129Y-59279836I1040960J1079999D01*
G01*
X89135001Y-59435515D02*
G75*
G03*
X92367334Y-59278608I1559999J1235515D01*
G01*
%TO.C,R3*%
X90330000Y-77400000D02*
X91280000Y-77400000D01*
X91280000Y-76480000D02*
X91280000Y-78320000D01*
X91280000Y-78320000D02*
X95120000Y-78320000D01*
X95120000Y-76480000D02*
X91280000Y-76480000D01*
X95120000Y-78320000D02*
X95120000Y-76480000D01*
X96070000Y-77400000D02*
X95120000Y-77400000D01*
%TO.C,D1*%
X100535000Y-56964000D02*
X100535000Y-57120000D01*
X100535000Y-59280000D02*
X100535000Y-59436000D01*
X103767334Y-57121392D02*
G75*
G03*
X100535001Y-56964485I-1672334J-1078608D01*
G01*
X103136129Y-57120164D02*
G75*
G03*
X101054040Y-57120001I-1041129J-1079836D01*
G01*
X101054040Y-59279999D02*
G75*
G03*
X103136129Y-59279836I1040960J1079999D01*
G01*
X100535001Y-59435515D02*
G75*
G03*
X103767334Y-59278608I1559999J1235515D01*
G01*
%TO.C,BT1*%
X88795000Y-83330000D02*
X88795000Y-82000000D01*
X90125000Y-83330000D02*
X88795000Y-83330000D01*
X91395000Y-83330000D02*
X93995000Y-83330000D01*
X91395000Y-83330000D02*
X91395000Y-80670000D01*
X93995000Y-83330000D02*
X93995000Y-80670000D01*
X91395000Y-80670000D02*
X93995000Y-80670000D01*
%TO.C,C1*%
X99557600Y-77305000D02*
X99957600Y-77305000D01*
X99757600Y-77105000D02*
X99757600Y-77505000D01*
X101827401Y-76420000D02*
X101827401Y-77660000D01*
X101827401Y-79340000D02*
X101827401Y-80580000D01*
X101867401Y-76420000D02*
X101867401Y-77660000D01*
X101867401Y-79340000D02*
X101867401Y-80580000D01*
X101907401Y-76421000D02*
X101907401Y-77660000D01*
X101907401Y-79340000D02*
X101907401Y-80579000D01*
X101947401Y-76423000D02*
X101947401Y-77660000D01*
X101947401Y-79340000D02*
X101947401Y-80577000D01*
X101987401Y-76426000D02*
X101987401Y-77660000D01*
X101987401Y-79340000D02*
X101987401Y-80574000D01*
X102027401Y-76429000D02*
X102027401Y-77660000D01*
X102027401Y-79340000D02*
X102027401Y-80571000D01*
X102067401Y-76433000D02*
X102067401Y-77660000D01*
X102067401Y-79340000D02*
X102067401Y-80567000D01*
X102107401Y-76438000D02*
X102107401Y-77660000D01*
X102107401Y-79340000D02*
X102107401Y-80562000D01*
X102147401Y-76444000D02*
X102147401Y-77660000D01*
X102147401Y-79340000D02*
X102147401Y-80556000D01*
X102187401Y-76450000D02*
X102187401Y-77660000D01*
X102187401Y-79340000D02*
X102187401Y-80550000D01*
X102227401Y-76458000D02*
X102227401Y-77660000D01*
X102227401Y-79340000D02*
X102227401Y-80542000D01*
X102267401Y-76466000D02*
X102267401Y-77660000D01*
X102267401Y-79340000D02*
X102267401Y-80534000D01*
X102307401Y-76475000D02*
X102307401Y-77660000D01*
X102307401Y-79340000D02*
X102307401Y-80525000D01*
X102347401Y-76484000D02*
X102347401Y-77660000D01*
X102347401Y-79340000D02*
X102347401Y-80516000D01*
X102387401Y-76495000D02*
X102387401Y-77660000D01*
X102387401Y-79340000D02*
X102387401Y-80505000D01*
X102427401Y-76506000D02*
X102427401Y-77660000D01*
X102427401Y-79340000D02*
X102427401Y-80494000D01*
X102467401Y-76518000D02*
X102467401Y-77660000D01*
X102467401Y-79340000D02*
X102467401Y-80482000D01*
X102507401Y-76532000D02*
X102507401Y-77660000D01*
X102507401Y-79340000D02*
X102507401Y-80468000D01*
X102548401Y-76546000D02*
X102548401Y-77660000D01*
X102548401Y-79340000D02*
X102548401Y-80454000D01*
X102588401Y-76560000D02*
X102588401Y-77660000D01*
X102588401Y-79340000D02*
X102588401Y-80440000D01*
X102628401Y-76576000D02*
X102628401Y-77660000D01*
X102628401Y-79340000D02*
X102628401Y-80424000D01*
X102668401Y-76593000D02*
X102668401Y-77660000D01*
X102668401Y-79340000D02*
X102668401Y-80407000D01*
X102708401Y-76611000D02*
X102708401Y-77660000D01*
X102708401Y-79340000D02*
X102708401Y-80389000D01*
X102748401Y-76630000D02*
X102748401Y-77660000D01*
X102748401Y-79340000D02*
X102748401Y-80370000D01*
X102788401Y-76649000D02*
X102788401Y-77660000D01*
X102788401Y-79340000D02*
X102788401Y-80351000D01*
X102828401Y-76670000D02*
X102828401Y-77660000D01*
X102828401Y-79340000D02*
X102828401Y-80330000D01*
X102868401Y-76692000D02*
X102868401Y-77660000D01*
X102868401Y-79340000D02*
X102868401Y-80308000D01*
X102908401Y-76715000D02*
X102908401Y-77660000D01*
X102908401Y-79340000D02*
X102908401Y-80285000D01*
X102948401Y-76740000D02*
X102948401Y-77660000D01*
X102948401Y-79340000D02*
X102948401Y-80260000D01*
X102988401Y-76765000D02*
X102988401Y-77660000D01*
X102988401Y-79340000D02*
X102988401Y-80235000D01*
X103028401Y-76792000D02*
X103028401Y-77660000D01*
X103028401Y-79340000D02*
X103028401Y-80208000D01*
X103068401Y-76820000D02*
X103068401Y-77660000D01*
X103068401Y-79340000D02*
X103068401Y-80180000D01*
X103108401Y-76850000D02*
X103108401Y-77660000D01*
X103108401Y-79340000D02*
X103108401Y-80150000D01*
X103148401Y-76881000D02*
X103148401Y-77660000D01*
X103148401Y-79340000D02*
X103148401Y-80119000D01*
X103188401Y-76913000D02*
X103188401Y-77660000D01*
X103188401Y-79340000D02*
X103188401Y-80087000D01*
X103228401Y-76948000D02*
X103228401Y-77660000D01*
X103228401Y-79340000D02*
X103228401Y-80052000D01*
X103268401Y-76984000D02*
X103268401Y-77660000D01*
X103268401Y-79340000D02*
X103268401Y-80016000D01*
X103308401Y-77022000D02*
X103308401Y-77660000D01*
X103308401Y-79340000D02*
X103308401Y-79978000D01*
X103348401Y-77062000D02*
X103348401Y-77660000D01*
X103348401Y-79340000D02*
X103348401Y-79938000D01*
X103388401Y-77104000D02*
X103388401Y-77660000D01*
X103388401Y-79340000D02*
X103388401Y-79896000D01*
X103428401Y-77149000D02*
X103428401Y-79851000D01*
X103468401Y-77196000D02*
X103468401Y-79804000D01*
X103508401Y-77246000D02*
X103508401Y-79754000D01*
X103548401Y-77300000D02*
X103548401Y-79700000D01*
X103588401Y-77358000D02*
X103588401Y-79642000D01*
X103628401Y-77420000D02*
X103628401Y-79580000D01*
X103668401Y-77487000D02*
X103668401Y-79513000D01*
X103708401Y-77560000D02*
X103708401Y-79440000D01*
X103748401Y-77641000D02*
X103748401Y-79359000D01*
X103788401Y-77732000D02*
X103788401Y-79268000D01*
X103828401Y-77836000D02*
X103828401Y-79164000D01*
X103868401Y-77963000D02*
X103868401Y-79037000D01*
X103908401Y-78130000D02*
X103908401Y-78870000D01*
X103947401Y-78500000D02*
G75*
G03*
X103947401Y-78500000I-2120000J0D01*
G01*
%TD*%
M02*
