%TF.GenerationSoftware,KiCad,Pcbnew,7.0.7*%
%TF.CreationDate,2023-10-16T17:53:01+02:00*%
%TF.ProjectId,arduino-nano-line-follower,61726475-696e-46f2-9d6e-616e6f2d6c69,0*%
%TF.SameCoordinates,Original*%
%TF.FileFunction,Drillmap*%
%TF.FilePolarity,Positive*%
%FSLAX45Y45*%
G04 Gerber Fmt 4.5, Leading zero omitted, Abs format (unit mm)*
G04 Created by KiCad (PCBNEW 7.0.7) date 2023-10-16 17:53:01*
%MOMM*%
%LPD*%
G01*
G04 APERTURE LIST*
%ADD10C,0.200000*%
%ADD11C,0.320000*%
G04 APERTURE END LIST*
D10*
X8709833Y-3479500D02*
G75*
G03*
X8450000Y-3840000I120167J-360500D01*
G01*
X8450000Y-9140000D02*
G75*
G03*
X8738504Y-9500913I370000J0D01*
G01*
X12129956Y-9498580D02*
G75*
G03*
X12400000Y-9150000I-89956J348580D01*
G01*
X8738504Y-9500913D02*
X12129956Y-9498580D01*
X8450000Y-3840000D02*
X8450000Y-9140000D01*
X12400000Y-3860000D02*
G75*
G03*
X12129173Y-3482978I-370000J20000D01*
G01*
X12400000Y-9150000D02*
X12400000Y-3860000D01*
X12129173Y-3482978D02*
X8709833Y-3479500D01*
D11*
X8660000Y-8980000D02*
X8980000Y-9300000D01*
X8980000Y-8980000D02*
X8660000Y-9300000D01*
X8670000Y-3680000D02*
X8990000Y-4000000D01*
X8990000Y-3680000D02*
X8670000Y-4000000D01*
X11870000Y-3680000D02*
X12190000Y-4000000D01*
X12190000Y-3680000D02*
X11870000Y-4000000D01*
X11880000Y-8990000D02*
X12200000Y-9310000D01*
X12200000Y-8990000D02*
X11880000Y-9310000D01*
D10*
X8700777Y-9822397D02*
X8700777Y-9622397D01*
X8700777Y-9622397D02*
X8748396Y-9622397D01*
X8748396Y-9622397D02*
X8776967Y-9631921D01*
X8776967Y-9631921D02*
X8796015Y-9650968D01*
X8796015Y-9650968D02*
X8805539Y-9670016D01*
X8805539Y-9670016D02*
X8815063Y-9708111D01*
X8815063Y-9708111D02*
X8815063Y-9736683D01*
X8815063Y-9736683D02*
X8805539Y-9774778D01*
X8805539Y-9774778D02*
X8796015Y-9793826D01*
X8796015Y-9793826D02*
X8776967Y-9812873D01*
X8776967Y-9812873D02*
X8748396Y-9822397D01*
X8748396Y-9822397D02*
X8700777Y-9822397D01*
X8900777Y-9822397D02*
X8900777Y-9689064D01*
X8900777Y-9727159D02*
X8910301Y-9708111D01*
X8910301Y-9708111D02*
X8919824Y-9698587D01*
X8919824Y-9698587D02*
X8938872Y-9689064D01*
X8938872Y-9689064D02*
X8957920Y-9689064D01*
X9024586Y-9822397D02*
X9024586Y-9689064D01*
X9024586Y-9622397D02*
X9015063Y-9631921D01*
X9015063Y-9631921D02*
X9024586Y-9641445D01*
X9024586Y-9641445D02*
X9034110Y-9631921D01*
X9034110Y-9631921D02*
X9024586Y-9622397D01*
X9024586Y-9622397D02*
X9024586Y-9641445D01*
X9148396Y-9822397D02*
X9129348Y-9812873D01*
X9129348Y-9812873D02*
X9119824Y-9793826D01*
X9119824Y-9793826D02*
X9119824Y-9622397D01*
X9253158Y-9822397D02*
X9234110Y-9812873D01*
X9234110Y-9812873D02*
X9224586Y-9793826D01*
X9224586Y-9793826D02*
X9224586Y-9622397D01*
X9481729Y-9822397D02*
X9481729Y-9622397D01*
X9481729Y-9622397D02*
X9548396Y-9765254D01*
X9548396Y-9765254D02*
X9615063Y-9622397D01*
X9615063Y-9622397D02*
X9615063Y-9822397D01*
X9796015Y-9822397D02*
X9796015Y-9717635D01*
X9796015Y-9717635D02*
X9786491Y-9698587D01*
X9786491Y-9698587D02*
X9767444Y-9689064D01*
X9767444Y-9689064D02*
X9729348Y-9689064D01*
X9729348Y-9689064D02*
X9710301Y-9698587D01*
X9796015Y-9812873D02*
X9776967Y-9822397D01*
X9776967Y-9822397D02*
X9729348Y-9822397D01*
X9729348Y-9822397D02*
X9710301Y-9812873D01*
X9710301Y-9812873D02*
X9700777Y-9793826D01*
X9700777Y-9793826D02*
X9700777Y-9774778D01*
X9700777Y-9774778D02*
X9710301Y-9755730D01*
X9710301Y-9755730D02*
X9729348Y-9746207D01*
X9729348Y-9746207D02*
X9776967Y-9746207D01*
X9776967Y-9746207D02*
X9796015Y-9736683D01*
X9891253Y-9689064D02*
X9891253Y-9889064D01*
X9891253Y-9698587D02*
X9910301Y-9689064D01*
X9910301Y-9689064D02*
X9948396Y-9689064D01*
X9948396Y-9689064D02*
X9967444Y-9698587D01*
X9967444Y-9698587D02*
X9976967Y-9708111D01*
X9976967Y-9708111D02*
X9986491Y-9727159D01*
X9986491Y-9727159D02*
X9986491Y-9784302D01*
X9986491Y-9784302D02*
X9976967Y-9803349D01*
X9976967Y-9803349D02*
X9967444Y-9812873D01*
X9967444Y-9812873D02*
X9948396Y-9822397D01*
X9948396Y-9822397D02*
X9910301Y-9822397D01*
X9910301Y-9822397D02*
X9891253Y-9812873D01*
X10072205Y-9803349D02*
X10081729Y-9812873D01*
X10081729Y-9812873D02*
X10072205Y-9822397D01*
X10072205Y-9822397D02*
X10062682Y-9812873D01*
X10062682Y-9812873D02*
X10072205Y-9803349D01*
X10072205Y-9803349D02*
X10072205Y-9822397D01*
X10072205Y-9698587D02*
X10081729Y-9708111D01*
X10081729Y-9708111D02*
X10072205Y-9717635D01*
X10072205Y-9717635D02*
X10062682Y-9708111D01*
X10062682Y-9708111D02*
X10072205Y-9698587D01*
X10072205Y-9698587D02*
X10072205Y-9717635D01*
X8240000Y-10050913D02*
X8440000Y-10250913D01*
X8440000Y-10050913D02*
X8240000Y-10250913D01*
X8681729Y-10042397D02*
X8805539Y-10042397D01*
X8805539Y-10042397D02*
X8738872Y-10118587D01*
X8738872Y-10118587D02*
X8767444Y-10118587D01*
X8767444Y-10118587D02*
X8786491Y-10128111D01*
X8786491Y-10128111D02*
X8796015Y-10137635D01*
X8796015Y-10137635D02*
X8805539Y-10156683D01*
X8805539Y-10156683D02*
X8805539Y-10204302D01*
X8805539Y-10204302D02*
X8796015Y-10223349D01*
X8796015Y-10223349D02*
X8786491Y-10232873D01*
X8786491Y-10232873D02*
X8767444Y-10242397D01*
X8767444Y-10242397D02*
X8710301Y-10242397D01*
X8710301Y-10242397D02*
X8691253Y-10232873D01*
X8691253Y-10232873D02*
X8681729Y-10223349D01*
X8891253Y-10223349D02*
X8900777Y-10232873D01*
X8900777Y-10232873D02*
X8891253Y-10242397D01*
X8891253Y-10242397D02*
X8881729Y-10232873D01*
X8881729Y-10232873D02*
X8891253Y-10223349D01*
X8891253Y-10223349D02*
X8891253Y-10242397D01*
X8976967Y-10061445D02*
X8986491Y-10051921D01*
X8986491Y-10051921D02*
X9005539Y-10042397D01*
X9005539Y-10042397D02*
X9053158Y-10042397D01*
X9053158Y-10042397D02*
X9072205Y-10051921D01*
X9072205Y-10051921D02*
X9081729Y-10061445D01*
X9081729Y-10061445D02*
X9091253Y-10080492D01*
X9091253Y-10080492D02*
X9091253Y-10099540D01*
X9091253Y-10099540D02*
X9081729Y-10128111D01*
X9081729Y-10128111D02*
X8967444Y-10242397D01*
X8967444Y-10242397D02*
X9091253Y-10242397D01*
X9215063Y-10042397D02*
X9234110Y-10042397D01*
X9234110Y-10042397D02*
X9253158Y-10051921D01*
X9253158Y-10051921D02*
X9262682Y-10061445D01*
X9262682Y-10061445D02*
X9272205Y-10080492D01*
X9272205Y-10080492D02*
X9281729Y-10118587D01*
X9281729Y-10118587D02*
X9281729Y-10166207D01*
X9281729Y-10166207D02*
X9272205Y-10204302D01*
X9272205Y-10204302D02*
X9262682Y-10223349D01*
X9262682Y-10223349D02*
X9253158Y-10232873D01*
X9253158Y-10232873D02*
X9234110Y-10242397D01*
X9234110Y-10242397D02*
X9215063Y-10242397D01*
X9215063Y-10242397D02*
X9196015Y-10232873D01*
X9196015Y-10232873D02*
X9186491Y-10223349D01*
X9186491Y-10223349D02*
X9176967Y-10204302D01*
X9176967Y-10204302D02*
X9167444Y-10166207D01*
X9167444Y-10166207D02*
X9167444Y-10118587D01*
X9167444Y-10118587D02*
X9176967Y-10080492D01*
X9176967Y-10080492D02*
X9186491Y-10061445D01*
X9186491Y-10061445D02*
X9196015Y-10051921D01*
X9196015Y-10051921D02*
X9215063Y-10042397D01*
X9405539Y-10042397D02*
X9424586Y-10042397D01*
X9424586Y-10042397D02*
X9443634Y-10051921D01*
X9443634Y-10051921D02*
X9453158Y-10061445D01*
X9453158Y-10061445D02*
X9462682Y-10080492D01*
X9462682Y-10080492D02*
X9472205Y-10118587D01*
X9472205Y-10118587D02*
X9472205Y-10166207D01*
X9472205Y-10166207D02*
X9462682Y-10204302D01*
X9462682Y-10204302D02*
X9453158Y-10223349D01*
X9453158Y-10223349D02*
X9443634Y-10232873D01*
X9443634Y-10232873D02*
X9424586Y-10242397D01*
X9424586Y-10242397D02*
X9405539Y-10242397D01*
X9405539Y-10242397D02*
X9386491Y-10232873D01*
X9386491Y-10232873D02*
X9376967Y-10223349D01*
X9376967Y-10223349D02*
X9367444Y-10204302D01*
X9367444Y-10204302D02*
X9357920Y-10166207D01*
X9357920Y-10166207D02*
X9357920Y-10118587D01*
X9357920Y-10118587D02*
X9367444Y-10080492D01*
X9367444Y-10080492D02*
X9376967Y-10061445D01*
X9376967Y-10061445D02*
X9386491Y-10051921D01*
X9386491Y-10051921D02*
X9405539Y-10042397D01*
X9557920Y-10242397D02*
X9557920Y-10109064D01*
X9557920Y-10128111D02*
X9567444Y-10118587D01*
X9567444Y-10118587D02*
X9586491Y-10109064D01*
X9586491Y-10109064D02*
X9615063Y-10109064D01*
X9615063Y-10109064D02*
X9634110Y-10118587D01*
X9634110Y-10118587D02*
X9643634Y-10137635D01*
X9643634Y-10137635D02*
X9643634Y-10242397D01*
X9643634Y-10137635D02*
X9653158Y-10118587D01*
X9653158Y-10118587D02*
X9672205Y-10109064D01*
X9672205Y-10109064D02*
X9700777Y-10109064D01*
X9700777Y-10109064D02*
X9719825Y-10118587D01*
X9719825Y-10118587D02*
X9729348Y-10137635D01*
X9729348Y-10137635D02*
X9729348Y-10242397D01*
X9824586Y-10242397D02*
X9824586Y-10109064D01*
X9824586Y-10128111D02*
X9834110Y-10118587D01*
X9834110Y-10118587D02*
X9853158Y-10109064D01*
X9853158Y-10109064D02*
X9881729Y-10109064D01*
X9881729Y-10109064D02*
X9900777Y-10118587D01*
X9900777Y-10118587D02*
X9910301Y-10137635D01*
X9910301Y-10137635D02*
X9910301Y-10242397D01*
X9910301Y-10137635D02*
X9919825Y-10118587D01*
X9919825Y-10118587D02*
X9938872Y-10109064D01*
X9938872Y-10109064D02*
X9967444Y-10109064D01*
X9967444Y-10109064D02*
X9986491Y-10118587D01*
X9986491Y-10118587D02*
X9996015Y-10137635D01*
X9996015Y-10137635D02*
X9996015Y-10242397D01*
X10386491Y-10032873D02*
X10215063Y-10290016D01*
X10643634Y-10042397D02*
X10662682Y-10042397D01*
X10662682Y-10042397D02*
X10681729Y-10051921D01*
X10681729Y-10051921D02*
X10691253Y-10061445D01*
X10691253Y-10061445D02*
X10700777Y-10080492D01*
X10700777Y-10080492D02*
X10710301Y-10118587D01*
X10710301Y-10118587D02*
X10710301Y-10166207D01*
X10710301Y-10166207D02*
X10700777Y-10204302D01*
X10700777Y-10204302D02*
X10691253Y-10223349D01*
X10691253Y-10223349D02*
X10681729Y-10232873D01*
X10681729Y-10232873D02*
X10662682Y-10242397D01*
X10662682Y-10242397D02*
X10643634Y-10242397D01*
X10643634Y-10242397D02*
X10624587Y-10232873D01*
X10624587Y-10232873D02*
X10615063Y-10223349D01*
X10615063Y-10223349D02*
X10605539Y-10204302D01*
X10605539Y-10204302D02*
X10596015Y-10166207D01*
X10596015Y-10166207D02*
X10596015Y-10118587D01*
X10596015Y-10118587D02*
X10605539Y-10080492D01*
X10605539Y-10080492D02*
X10615063Y-10061445D01*
X10615063Y-10061445D02*
X10624587Y-10051921D01*
X10624587Y-10051921D02*
X10643634Y-10042397D01*
X10796015Y-10223349D02*
X10805539Y-10232873D01*
X10805539Y-10232873D02*
X10796015Y-10242397D01*
X10796015Y-10242397D02*
X10786491Y-10232873D01*
X10786491Y-10232873D02*
X10796015Y-10223349D01*
X10796015Y-10223349D02*
X10796015Y-10242397D01*
X10996015Y-10242397D02*
X10881729Y-10242397D01*
X10938872Y-10242397D02*
X10938872Y-10042397D01*
X10938872Y-10042397D02*
X10919825Y-10070968D01*
X10919825Y-10070968D02*
X10900777Y-10090016D01*
X10900777Y-10090016D02*
X10881729Y-10099540D01*
X11072206Y-10061445D02*
X11081729Y-10051921D01*
X11081729Y-10051921D02*
X11100777Y-10042397D01*
X11100777Y-10042397D02*
X11148396Y-10042397D01*
X11148396Y-10042397D02*
X11167444Y-10051921D01*
X11167444Y-10051921D02*
X11176968Y-10061445D01*
X11176968Y-10061445D02*
X11186491Y-10080492D01*
X11186491Y-10080492D02*
X11186491Y-10099540D01*
X11186491Y-10099540D02*
X11176968Y-10128111D01*
X11176968Y-10128111D02*
X11062682Y-10242397D01*
X11062682Y-10242397D02*
X11186491Y-10242397D01*
X11357920Y-10042397D02*
X11319825Y-10042397D01*
X11319825Y-10042397D02*
X11300777Y-10051921D01*
X11300777Y-10051921D02*
X11291253Y-10061445D01*
X11291253Y-10061445D02*
X11272206Y-10090016D01*
X11272206Y-10090016D02*
X11262682Y-10128111D01*
X11262682Y-10128111D02*
X11262682Y-10204302D01*
X11262682Y-10204302D02*
X11272206Y-10223349D01*
X11272206Y-10223349D02*
X11281729Y-10232873D01*
X11281729Y-10232873D02*
X11300777Y-10242397D01*
X11300777Y-10242397D02*
X11338872Y-10242397D01*
X11338872Y-10242397D02*
X11357920Y-10232873D01*
X11357920Y-10232873D02*
X11367444Y-10223349D01*
X11367444Y-10223349D02*
X11376967Y-10204302D01*
X11376967Y-10204302D02*
X11376967Y-10156683D01*
X11376967Y-10156683D02*
X11367444Y-10137635D01*
X11367444Y-10137635D02*
X11357920Y-10128111D01*
X11357920Y-10128111D02*
X11338872Y-10118587D01*
X11338872Y-10118587D02*
X11300777Y-10118587D01*
X11300777Y-10118587D02*
X11281729Y-10128111D01*
X11281729Y-10128111D02*
X11272206Y-10137635D01*
X11272206Y-10137635D02*
X11262682Y-10156683D01*
X11500777Y-10042397D02*
X11519825Y-10042397D01*
X11519825Y-10042397D02*
X11538872Y-10051921D01*
X11538872Y-10051921D02*
X11548396Y-10061445D01*
X11548396Y-10061445D02*
X11557920Y-10080492D01*
X11557920Y-10080492D02*
X11567444Y-10118587D01*
X11567444Y-10118587D02*
X11567444Y-10166207D01*
X11567444Y-10166207D02*
X11557920Y-10204302D01*
X11557920Y-10204302D02*
X11548396Y-10223349D01*
X11548396Y-10223349D02*
X11538872Y-10232873D01*
X11538872Y-10232873D02*
X11519825Y-10242397D01*
X11519825Y-10242397D02*
X11500777Y-10242397D01*
X11500777Y-10242397D02*
X11481729Y-10232873D01*
X11481729Y-10232873D02*
X11472206Y-10223349D01*
X11472206Y-10223349D02*
X11462682Y-10204302D01*
X11462682Y-10204302D02*
X11453158Y-10166207D01*
X11453158Y-10166207D02*
X11453158Y-10118587D01*
X11453158Y-10118587D02*
X11462682Y-10080492D01*
X11462682Y-10080492D02*
X11472206Y-10061445D01*
X11472206Y-10061445D02*
X11481729Y-10051921D01*
X11481729Y-10051921D02*
X11500777Y-10042397D01*
X11643634Y-10042397D02*
X11643634Y-10080492D01*
X11719825Y-10042397D02*
X11719825Y-10080492D01*
X12015063Y-10318587D02*
X12005539Y-10309064D01*
X12005539Y-10309064D02*
X11986491Y-10280492D01*
X11986491Y-10280492D02*
X11976968Y-10261445D01*
X11976968Y-10261445D02*
X11967444Y-10232873D01*
X11967444Y-10232873D02*
X11957920Y-10185254D01*
X11957920Y-10185254D02*
X11957920Y-10147159D01*
X11957920Y-10147159D02*
X11967444Y-10099540D01*
X11967444Y-10099540D02*
X11976968Y-10070968D01*
X11976968Y-10070968D02*
X11986491Y-10051921D01*
X11986491Y-10051921D02*
X12005539Y-10023349D01*
X12005539Y-10023349D02*
X12015063Y-10013826D01*
X12176968Y-10109064D02*
X12176968Y-10242397D01*
X12129348Y-10032873D02*
X12081729Y-10175730D01*
X12081729Y-10175730D02*
X12205539Y-10175730D01*
X12434110Y-10242397D02*
X12434110Y-10042397D01*
X12519825Y-10242397D02*
X12519825Y-10137635D01*
X12519825Y-10137635D02*
X12510301Y-10118587D01*
X12510301Y-10118587D02*
X12491253Y-10109064D01*
X12491253Y-10109064D02*
X12462682Y-10109064D01*
X12462682Y-10109064D02*
X12443634Y-10118587D01*
X12443634Y-10118587D02*
X12434110Y-10128111D01*
X12643634Y-10242397D02*
X12624587Y-10232873D01*
X12624587Y-10232873D02*
X12615063Y-10223349D01*
X12615063Y-10223349D02*
X12605539Y-10204302D01*
X12605539Y-10204302D02*
X12605539Y-10147159D01*
X12605539Y-10147159D02*
X12615063Y-10128111D01*
X12615063Y-10128111D02*
X12624587Y-10118587D01*
X12624587Y-10118587D02*
X12643634Y-10109064D01*
X12643634Y-10109064D02*
X12672206Y-10109064D01*
X12672206Y-10109064D02*
X12691253Y-10118587D01*
X12691253Y-10118587D02*
X12700777Y-10128111D01*
X12700777Y-10128111D02*
X12710301Y-10147159D01*
X12710301Y-10147159D02*
X12710301Y-10204302D01*
X12710301Y-10204302D02*
X12700777Y-10223349D01*
X12700777Y-10223349D02*
X12691253Y-10232873D01*
X12691253Y-10232873D02*
X12672206Y-10242397D01*
X12672206Y-10242397D02*
X12643634Y-10242397D01*
X12824587Y-10242397D02*
X12805539Y-10232873D01*
X12805539Y-10232873D02*
X12796015Y-10213826D01*
X12796015Y-10213826D02*
X12796015Y-10042397D01*
X12976968Y-10232873D02*
X12957920Y-10242397D01*
X12957920Y-10242397D02*
X12919825Y-10242397D01*
X12919825Y-10242397D02*
X12900777Y-10232873D01*
X12900777Y-10232873D02*
X12891253Y-10213826D01*
X12891253Y-10213826D02*
X12891253Y-10137635D01*
X12891253Y-10137635D02*
X12900777Y-10118587D01*
X12900777Y-10118587D02*
X12919825Y-10109064D01*
X12919825Y-10109064D02*
X12957920Y-10109064D01*
X12957920Y-10109064D02*
X12976968Y-10118587D01*
X12976968Y-10118587D02*
X12986491Y-10137635D01*
X12986491Y-10137635D02*
X12986491Y-10156683D01*
X12986491Y-10156683D02*
X12891253Y-10175730D01*
X13062682Y-10232873D02*
X13081730Y-10242397D01*
X13081730Y-10242397D02*
X13119825Y-10242397D01*
X13119825Y-10242397D02*
X13138872Y-10232873D01*
X13138872Y-10232873D02*
X13148396Y-10213826D01*
X13148396Y-10213826D02*
X13148396Y-10204302D01*
X13148396Y-10204302D02*
X13138872Y-10185254D01*
X13138872Y-10185254D02*
X13119825Y-10175730D01*
X13119825Y-10175730D02*
X13091253Y-10175730D01*
X13091253Y-10175730D02*
X13072206Y-10166207D01*
X13072206Y-10166207D02*
X13062682Y-10147159D01*
X13062682Y-10147159D02*
X13062682Y-10137635D01*
X13062682Y-10137635D02*
X13072206Y-10118587D01*
X13072206Y-10118587D02*
X13091253Y-10109064D01*
X13091253Y-10109064D02*
X13119825Y-10109064D01*
X13119825Y-10109064D02*
X13138872Y-10118587D01*
X13215063Y-10318587D02*
X13224587Y-10309064D01*
X13224587Y-10309064D02*
X13243634Y-10280492D01*
X13243634Y-10280492D02*
X13253158Y-10261445D01*
X13253158Y-10261445D02*
X13262682Y-10232873D01*
X13262682Y-10232873D02*
X13272206Y-10185254D01*
X13272206Y-10185254D02*
X13272206Y-10147159D01*
X13272206Y-10147159D02*
X13262682Y-10099540D01*
X13262682Y-10099540D02*
X13253158Y-10070968D01*
X13253158Y-10070968D02*
X13243634Y-10051921D01*
X13243634Y-10051921D02*
X13224587Y-10023349D01*
X13224587Y-10023349D02*
X13215063Y-10013826D01*
X13576968Y-10318587D02*
X13567444Y-10309064D01*
X13567444Y-10309064D02*
X13548396Y-10280492D01*
X13548396Y-10280492D02*
X13538872Y-10261445D01*
X13538872Y-10261445D02*
X13529349Y-10232873D01*
X13529349Y-10232873D02*
X13519825Y-10185254D01*
X13519825Y-10185254D02*
X13519825Y-10147159D01*
X13519825Y-10147159D02*
X13529349Y-10099540D01*
X13529349Y-10099540D02*
X13538872Y-10070968D01*
X13538872Y-10070968D02*
X13548396Y-10051921D01*
X13548396Y-10051921D02*
X13567444Y-10023349D01*
X13567444Y-10023349D02*
X13576968Y-10013826D01*
X13653158Y-10109064D02*
X13653158Y-10242397D01*
X13653158Y-10128111D02*
X13662682Y-10118587D01*
X13662682Y-10118587D02*
X13681730Y-10109064D01*
X13681730Y-10109064D02*
X13710301Y-10109064D01*
X13710301Y-10109064D02*
X13729349Y-10118587D01*
X13729349Y-10118587D02*
X13738872Y-10137635D01*
X13738872Y-10137635D02*
X13738872Y-10242397D01*
X13862682Y-10242397D02*
X13843634Y-10232873D01*
X13843634Y-10232873D02*
X13834111Y-10223349D01*
X13834111Y-10223349D02*
X13824587Y-10204302D01*
X13824587Y-10204302D02*
X13824587Y-10147159D01*
X13824587Y-10147159D02*
X13834111Y-10128111D01*
X13834111Y-10128111D02*
X13843634Y-10118587D01*
X13843634Y-10118587D02*
X13862682Y-10109064D01*
X13862682Y-10109064D02*
X13891253Y-10109064D01*
X13891253Y-10109064D02*
X13910301Y-10118587D01*
X13910301Y-10118587D02*
X13919825Y-10128111D01*
X13919825Y-10128111D02*
X13929349Y-10147159D01*
X13929349Y-10147159D02*
X13929349Y-10204302D01*
X13929349Y-10204302D02*
X13919825Y-10223349D01*
X13919825Y-10223349D02*
X13910301Y-10232873D01*
X13910301Y-10232873D02*
X13891253Y-10242397D01*
X13891253Y-10242397D02*
X13862682Y-10242397D01*
X13986492Y-10109064D02*
X14062682Y-10109064D01*
X14015063Y-10042397D02*
X14015063Y-10213826D01*
X14015063Y-10213826D02*
X14024587Y-10232873D01*
X14024587Y-10232873D02*
X14043634Y-10242397D01*
X14043634Y-10242397D02*
X14062682Y-10242397D01*
X14281730Y-10109064D02*
X14281730Y-10309064D01*
X14281730Y-10118587D02*
X14300777Y-10109064D01*
X14300777Y-10109064D02*
X14338873Y-10109064D01*
X14338873Y-10109064D02*
X14357920Y-10118587D01*
X14357920Y-10118587D02*
X14367444Y-10128111D01*
X14367444Y-10128111D02*
X14376968Y-10147159D01*
X14376968Y-10147159D02*
X14376968Y-10204302D01*
X14376968Y-10204302D02*
X14367444Y-10223349D01*
X14367444Y-10223349D02*
X14357920Y-10232873D01*
X14357920Y-10232873D02*
X14338873Y-10242397D01*
X14338873Y-10242397D02*
X14300777Y-10242397D01*
X14300777Y-10242397D02*
X14281730Y-10232873D01*
X14491253Y-10242397D02*
X14472206Y-10232873D01*
X14472206Y-10232873D02*
X14462682Y-10213826D01*
X14462682Y-10213826D02*
X14462682Y-10042397D01*
X14653158Y-10242397D02*
X14653158Y-10137635D01*
X14653158Y-10137635D02*
X14643634Y-10118587D01*
X14643634Y-10118587D02*
X14624587Y-10109064D01*
X14624587Y-10109064D02*
X14586492Y-10109064D01*
X14586492Y-10109064D02*
X14567444Y-10118587D01*
X14653158Y-10232873D02*
X14634111Y-10242397D01*
X14634111Y-10242397D02*
X14586492Y-10242397D01*
X14586492Y-10242397D02*
X14567444Y-10232873D01*
X14567444Y-10232873D02*
X14557920Y-10213826D01*
X14557920Y-10213826D02*
X14557920Y-10194778D01*
X14557920Y-10194778D02*
X14567444Y-10175730D01*
X14567444Y-10175730D02*
X14586492Y-10166207D01*
X14586492Y-10166207D02*
X14634111Y-10166207D01*
X14634111Y-10166207D02*
X14653158Y-10156683D01*
X14719825Y-10109064D02*
X14796015Y-10109064D01*
X14748396Y-10042397D02*
X14748396Y-10213826D01*
X14748396Y-10213826D02*
X14757920Y-10232873D01*
X14757920Y-10232873D02*
X14776968Y-10242397D01*
X14776968Y-10242397D02*
X14796015Y-10242397D01*
X14938873Y-10232873D02*
X14919825Y-10242397D01*
X14919825Y-10242397D02*
X14881730Y-10242397D01*
X14881730Y-10242397D02*
X14862682Y-10232873D01*
X14862682Y-10232873D02*
X14853158Y-10213826D01*
X14853158Y-10213826D02*
X14853158Y-10137635D01*
X14853158Y-10137635D02*
X14862682Y-10118587D01*
X14862682Y-10118587D02*
X14881730Y-10109064D01*
X14881730Y-10109064D02*
X14919825Y-10109064D01*
X14919825Y-10109064D02*
X14938873Y-10118587D01*
X14938873Y-10118587D02*
X14948396Y-10137635D01*
X14948396Y-10137635D02*
X14948396Y-10156683D01*
X14948396Y-10156683D02*
X14853158Y-10175730D01*
X15119825Y-10242397D02*
X15119825Y-10042397D01*
X15119825Y-10232873D02*
X15100777Y-10242397D01*
X15100777Y-10242397D02*
X15062682Y-10242397D01*
X15062682Y-10242397D02*
X15043634Y-10232873D01*
X15043634Y-10232873D02*
X15034111Y-10223349D01*
X15034111Y-10223349D02*
X15024587Y-10204302D01*
X15024587Y-10204302D02*
X15024587Y-10147159D01*
X15024587Y-10147159D02*
X15034111Y-10128111D01*
X15034111Y-10128111D02*
X15043634Y-10118587D01*
X15043634Y-10118587D02*
X15062682Y-10109064D01*
X15062682Y-10109064D02*
X15100777Y-10109064D01*
X15100777Y-10109064D02*
X15119825Y-10118587D01*
X15196015Y-10318587D02*
X15205539Y-10309064D01*
X15205539Y-10309064D02*
X15224587Y-10280492D01*
X15224587Y-10280492D02*
X15234111Y-10261445D01*
X15234111Y-10261445D02*
X15243634Y-10232873D01*
X15243634Y-10232873D02*
X15253158Y-10185254D01*
X15253158Y-10185254D02*
X15253158Y-10147159D01*
X15253158Y-10147159D02*
X15243634Y-10099540D01*
X15243634Y-10099540D02*
X15234111Y-10070968D01*
X15234111Y-10070968D02*
X15224587Y-10051921D01*
X15224587Y-10051921D02*
X15205539Y-10023349D01*
X15205539Y-10023349D02*
X15196015Y-10013826D01*
M02*
