%TF.GenerationSoftware,KiCad,Pcbnew,7.0.7*%
%TF.CreationDate,2023-10-16T17:52:53+02:00*%
%TF.ProjectId,arduino-nano-line-follower,61726475-696e-46f2-9d6e-616e6f2d6c69,0*%
%TF.SameCoordinates,Original*%
%TF.FileFunction,Copper,L2,Bot*%
%TF.FilePolarity,Positive*%
%FSLAX46Y46*%
G04 Gerber Fmt 4.6, Leading zero omitted, Abs format (unit mm)*
G04 Created by KiCad (PCBNEW 7.0.7) date 2023-10-16 17:52:53*
%MOMM*%
%LPD*%
G01*
G04 APERTURE LIST*
%TA.AperFunction,ComponentPad*%
%ADD10R,1.700000X1.700000*%
%TD*%
%TA.AperFunction,ComponentPad*%
%ADD11O,1.700000X1.700000*%
%TD*%
%TA.AperFunction,ComponentPad*%
%ADD12R,1.524000X1.524000*%
%TD*%
%TA.AperFunction,ComponentPad*%
%ADD13C,1.524000*%
%TD*%
%TA.AperFunction,ComponentPad*%
%ADD14C,1.200000*%
%TD*%
%TA.AperFunction,ComponentPad*%
%ADD15C,1.600000*%
%TD*%
%TA.AperFunction,ComponentPad*%
%ADD16R,1.600000X1.600000*%
%TD*%
%TA.AperFunction,ComponentPad*%
%ADD17O,1.600000X1.600000*%
%TD*%
G04 APERTURE END LIST*
D10*
%TO.P,9V L298N,1,Pin_1*%
%TO.N,Net-(J5-Pin_1)*%
X112800000Y-81300000D03*
D11*
%TO.P,9V L298N,2,Pin_2*%
%TO.N,GND*%
X112800000Y-83840000D03*
%TD*%
D12*
%TO.P,SW2,1*%
%TO.N,Net-(J5-Pin_1)*%
X115000000Y-76640000D03*
D13*
%TO.P,SW2,2*%
%TO.N,+9V*%
X115000000Y-74100000D03*
%TO.P,SW2,3*%
%TO.N,unconnected-(SW2-Pad3)*%
X115000000Y-71560000D03*
%TO.P,SW2,4*%
%TO.N,unconnected-(SW2-Pad4)*%
X112460000Y-71560000D03*
%TO.P,SW2,5*%
%TO.N,unconnected-(SW2-Pad5)*%
X112460000Y-74100000D03*
%TO.P,SW2,6*%
%TO.N,unconnected-(SW2-Pad6)*%
X112460000Y-76640000D03*
%TD*%
D10*
%TO.P,J6,1,Pin_1*%
%TO.N,Net-(A1-A1)*%
X112800000Y-64100000D03*
D11*
%TO.P,J6,2,Pin_2*%
%TO.N,Net-(A1-A0)*%
X112800000Y-66640000D03*
%TD*%
D10*
%TO.P,J4,1,Pin_1*%
%TO.N,GND*%
X112825000Y-51600000D03*
D11*
%TO.P,J4,2,Pin_2*%
X115365000Y-51600000D03*
%TD*%
D10*
%TO.P,BT1,1,+*%
%TO.N,+9V*%
X119300000Y-81200000D03*
D11*
%TO.P,BT1,2,-*%
%TO.N,GND*%
X119300000Y-83740000D03*
%TD*%
D14*
%TO.P,C2,1*%
%TO.N,+9V*%
X118250000Y-75860000D03*
%TO.P,C2,2*%
%TO.N,GND*%
X119750000Y-75860000D03*
%TD*%
D15*
%TO.P,C1,1*%
%TO.N,Net-(A1-+5V)*%
X112085000Y-60200000D03*
%TO.P,C1,2*%
%TO.N,GND*%
X114585000Y-60200000D03*
%TD*%
D10*
%TO.P,J1,1,Pin_1*%
%TO.N,Net-(A1-D4)*%
X89600000Y-61300000D03*
D11*
%TO.P,J1,2,Pin_2*%
%TO.N,Net-(A1-D5)*%
X89600000Y-63840000D03*
%TO.P,J1,3,Pin_3*%
%TO.N,Net-(A1-D6)*%
X89600000Y-66380000D03*
%TO.P,J1,4,Pin_4*%
%TO.N,Net-(A1-D7)*%
X89600000Y-68920000D03*
%TD*%
D16*
%TO.P,A1,1,TX1*%
%TO.N,unconnected-(A1-TX1-Pad1)*%
X93460000Y-46020000D03*
D17*
%TO.P,A1,2,RX1*%
%TO.N,unconnected-(A1-RX1-Pad2)*%
X93460000Y-48560000D03*
%TO.P,A1,3,~{RESET}*%
%TO.N,unconnected-(A1-~{RESET}-Pad3)*%
X93460000Y-51100000D03*
%TO.P,A1,4,GND*%
%TO.N,GND*%
X93460000Y-53640000D03*
%TO.P,A1,5,D2*%
%TO.N,unconnected-(A1-D2-Pad5)*%
X93460000Y-56180000D03*
%TO.P,A1,6,D3*%
%TO.N,unconnected-(A1-D3-Pad6)*%
X93460000Y-58720000D03*
%TO.P,A1,7,D4*%
%TO.N,Net-(A1-D4)*%
X93460000Y-61260000D03*
%TO.P,A1,8,D5*%
%TO.N,Net-(A1-D5)*%
X93460000Y-63800000D03*
%TO.P,A1,9,D6*%
%TO.N,Net-(A1-D6)*%
X93460000Y-66340000D03*
%TO.P,A1,10,D7*%
%TO.N,Net-(A1-D7)*%
X93460000Y-68880000D03*
%TO.P,A1,11,D8*%
%TO.N,unconnected-(A1-D8-Pad11)*%
X93460000Y-71420000D03*
%TO.P,A1,12,D9*%
%TO.N,unconnected-(A1-D9-Pad12)*%
X93460000Y-73960000D03*
%TO.P,A1,13,D10*%
%TO.N,unconnected-(A1-D10-Pad13)*%
X93460000Y-76500000D03*
%TO.P,A1,14,MOSI*%
%TO.N,unconnected-(A1-MOSI-Pad14)*%
X93460000Y-79040000D03*
%TO.P,A1,15,MISO*%
%TO.N,unconnected-(A1-MISO-Pad15)*%
X93460000Y-81580000D03*
%TO.P,A1,16,SCK*%
%TO.N,unconnected-(A1-SCK-Pad16)*%
X108700000Y-81580000D03*
%TO.P,A1,17,3V3*%
%TO.N,unconnected-(A1-3V3-Pad17)*%
X108700000Y-79040000D03*
%TO.P,A1,18,AREF*%
%TO.N,unconnected-(A1-AREF-Pad18)*%
X108700000Y-76500000D03*
%TO.P,A1,19,A0*%
%TO.N,Net-(A1-A0)*%
X108700000Y-73960000D03*
%TO.P,A1,20,A1*%
%TO.N,Net-(A1-A1)*%
X108700000Y-71420000D03*
%TO.P,A1,21,A2*%
%TO.N,unconnected-(A1-A2-Pad21)*%
X108700000Y-68880000D03*
%TO.P,A1,22,A3*%
%TO.N,unconnected-(A1-A3-Pad22)*%
X108700000Y-66340000D03*
%TO.P,A1,23,SDA/A4*%
%TO.N,unconnected-(A1-SDA{slash}A4-Pad23)*%
X108700000Y-63800000D03*
%TO.P,A1,24,SCL/A5*%
%TO.N,unconnected-(A1-SCL{slash}A5-Pad24)*%
X108700000Y-61260000D03*
%TO.P,A1,25,A6*%
%TO.N,unconnected-(A1-A6-Pad25)*%
X108700000Y-58720000D03*
%TO.P,A1,26,A7*%
%TO.N,unconnected-(A1-A7-Pad26)*%
X108700000Y-56180000D03*
%TO.P,A1,27,+5V*%
%TO.N,Net-(A1-+5V)*%
X108700000Y-53640000D03*
%TO.P,A1,28,~{RESET}*%
%TO.N,unconnected-(A1-~{RESET}-Pad28)*%
X108700000Y-51100000D03*
%TO.P,A1,29,GND*%
%TO.N,GND*%
X108700000Y-48560000D03*
%TO.P,A1,30,VIN*%
%TO.N,+5V*%
X108700000Y-46020000D03*
%TD*%
D10*
%TO.P,J2,1,Pin_1*%
%TO.N,+5V*%
X112850000Y-46475000D03*
D11*
%TO.P,J2,2,Pin_2*%
%TO.N,GND*%
X115390000Y-46475000D03*
%TD*%
D10*
%TO.P,J3,1,Pin_1*%
%TO.N,Net-(A1-+5V)*%
X112860000Y-56575000D03*
D11*
%TO.P,J3,2,Pin_2*%
X115400000Y-56575000D03*
%TD*%
%TA.AperFunction,Conductor*%
%TO.N,GND*%
G36*
X114818692Y-51369685D02*
G01*
X114864447Y-51422489D01*
X114874391Y-51491647D01*
X114870631Y-51508933D01*
X114865000Y-51528111D01*
X114865000Y-51671888D01*
X114870631Y-51691067D01*
X114870630Y-51760936D01*
X114832855Y-51819714D01*
X114769299Y-51848738D01*
X114751653Y-51850000D01*
X113438347Y-51850000D01*
X113371308Y-51830315D01*
X113325553Y-51777511D01*
X113315609Y-51708353D01*
X113319369Y-51691067D01*
X113325000Y-51671888D01*
X113325000Y-51528111D01*
X113319369Y-51508933D01*
X113319370Y-51439064D01*
X113357145Y-51380286D01*
X113420701Y-51351262D01*
X113438347Y-51350000D01*
X114751653Y-51350000D01*
X114818692Y-51369685D01*
G37*
%TD.AperFunction*%
%TA.AperFunction,Conductor*%
G36*
X121271746Y-34830258D02*
G01*
X121310533Y-34836524D01*
X121419412Y-34872520D01*
X121637106Y-34945392D01*
X121642451Y-34947462D01*
X121762612Y-35000548D01*
X121798636Y-35016463D01*
X121976790Y-35097557D01*
X121981519Y-35099959D01*
X121993137Y-35106499D01*
X122136318Y-35187098D01*
X122299521Y-35283007D01*
X122303557Y-35285597D01*
X122451639Y-35388964D01*
X122563349Y-35471349D01*
X122601997Y-35499852D01*
X122605406Y-35502556D01*
X122692609Y-35576922D01*
X122744028Y-35620772D01*
X122881242Y-35745956D01*
X122884026Y-35748664D01*
X123011234Y-35880381D01*
X123134409Y-36018836D01*
X123136629Y-36021474D01*
X123249935Y-36164118D01*
X123251724Y-36166487D01*
X123358997Y-36315823D01*
X123360686Y-36318299D01*
X123459675Y-36471192D01*
X123461463Y-36474131D01*
X123553344Y-36635060D01*
X123637554Y-36797656D01*
X123639246Y-36801192D01*
X123714061Y-36971166D01*
X123781831Y-37140271D01*
X123783316Y-37144393D01*
X123840390Y-37322261D01*
X123891068Y-37495587D01*
X123892245Y-37500285D01*
X123931029Y-37685559D01*
X123964182Y-37860055D01*
X123964948Y-37865304D01*
X123984919Y-38060003D01*
X124000444Y-38230045D01*
X124000701Y-38235805D01*
X124000260Y-38465282D01*
X123999507Y-38598542D01*
X123999418Y-38601508D01*
X123997799Y-38631447D01*
X123999091Y-38647303D01*
X123999500Y-38651130D01*
X123999500Y-91498531D01*
X123999431Y-91501449D01*
X123993011Y-91637710D01*
X123982562Y-91843598D01*
X123982024Y-91849186D01*
X123958746Y-92012908D01*
X123931300Y-92191949D01*
X123930306Y-92197017D01*
X123890537Y-92362830D01*
X123846289Y-92533612D01*
X123844934Y-92538129D01*
X123789034Y-92701564D01*
X123728335Y-92865343D01*
X123726716Y-92869289D01*
X123655196Y-93027859D01*
X123578568Y-93183964D01*
X123576782Y-93187337D01*
X123490288Y-93339148D01*
X123398397Y-93486461D01*
X123396538Y-93489269D01*
X123296729Y-93631454D01*
X123294996Y-93633803D01*
X123189512Y-93769965D01*
X123187670Y-93772230D01*
X123074926Y-93904412D01*
X123072672Y-93906914D01*
X122953001Y-94032692D01*
X122827620Y-94154376D01*
X122824800Y-94156949D01*
X122692800Y-94270148D01*
X122557121Y-94379032D01*
X122553704Y-94381586D01*
X122410307Y-94481270D01*
X122266005Y-94576248D01*
X122261971Y-94578689D01*
X122107673Y-94664201D01*
X121957050Y-94744145D01*
X121952392Y-94746374D01*
X121785907Y-94817681D01*
X121633174Y-94881141D01*
X121627897Y-94883058D01*
X121431197Y-94944608D01*
X121317329Y-94979785D01*
X121280813Y-94985310D01*
X87402001Y-95008619D01*
X87368811Y-95004118D01*
X87255069Y-94972608D01*
X87036301Y-94911130D01*
X87030849Y-94909321D01*
X86871988Y-94848328D01*
X86691300Y-94776639D01*
X86686476Y-94774483D01*
X86528224Y-94695500D01*
X86361500Y-94608394D01*
X86357313Y-94605995D01*
X86342100Y-94596473D01*
X86252495Y-94540387D01*
X86204933Y-94510617D01*
X86050148Y-94408053D01*
X86046597Y-94405515D01*
X85902848Y-94294962D01*
X85760363Y-94177616D01*
X85757428Y-94175040D01*
X85624302Y-94050539D01*
X85494982Y-93919319D01*
X85492663Y-93916831D01*
X85372749Y-93780804D01*
X85370858Y-93778551D01*
X85256692Y-93635731D01*
X85254947Y-93633437D01*
X85148656Y-93486483D01*
X85146741Y-93483674D01*
X85053980Y-93339148D01*
X85047230Y-93328631D01*
X84955112Y-93171357D01*
X84953245Y-93167927D01*
X84870160Y-93003084D01*
X84793981Y-92838508D01*
X84792288Y-92834485D01*
X84726348Y-92660943D01*
X84666868Y-92491275D01*
X84665451Y-92486665D01*
X84617205Y-92304841D01*
X84597761Y-92225675D01*
X84575017Y-92133073D01*
X84573979Y-92127905D01*
X84573631Y-92125690D01*
X84543853Y-91935886D01*
X84519342Y-91767449D01*
X84518784Y-91761781D01*
X84506989Y-91534625D01*
X84503766Y-91467763D01*
X86345787Y-91467763D01*
X86375413Y-91737013D01*
X86375415Y-91737024D01*
X86436144Y-91969314D01*
X86443928Y-91999088D01*
X86549870Y-92248390D01*
X86619712Y-92362830D01*
X86690979Y-92479605D01*
X86690986Y-92479615D01*
X86864253Y-92687819D01*
X86864259Y-92687824D01*
X87065998Y-92868582D01*
X87291910Y-93018044D01*
X87537176Y-93133020D01*
X87537183Y-93133022D01*
X87537185Y-93133023D01*
X87796557Y-93211057D01*
X87796564Y-93211058D01*
X87796569Y-93211060D01*
X88064561Y-93250500D01*
X88064566Y-93250500D01*
X88267636Y-93250500D01*
X88319133Y-93246730D01*
X88470156Y-93235677D01*
X88582758Y-93210593D01*
X88734546Y-93176782D01*
X88734548Y-93176781D01*
X88734553Y-93176780D01*
X88987558Y-93080014D01*
X89223777Y-92947441D01*
X89438177Y-92781888D01*
X89626186Y-92586881D01*
X89783799Y-92366579D01*
X89903846Y-92133086D01*
X89907649Y-92125690D01*
X89907651Y-92125684D01*
X89907656Y-92125675D01*
X89995118Y-91869305D01*
X90044319Y-91602933D01*
X90045604Y-91567763D01*
X118545787Y-91567763D01*
X118575413Y-91837013D01*
X118575415Y-91837024D01*
X118643926Y-92099082D01*
X118643928Y-92099088D01*
X118749870Y-92348390D01*
X118890979Y-92579605D01*
X118890986Y-92579615D01*
X119064253Y-92787819D01*
X119064259Y-92787824D01*
X119116336Y-92834485D01*
X119265998Y-92968582D01*
X119491910Y-93118044D01*
X119737176Y-93233020D01*
X119737183Y-93233022D01*
X119737185Y-93233023D01*
X119996557Y-93311057D01*
X119996564Y-93311058D01*
X119996569Y-93311060D01*
X120264561Y-93350500D01*
X120264566Y-93350500D01*
X120467636Y-93350500D01*
X120519133Y-93346730D01*
X120670156Y-93335677D01*
X120782758Y-93310593D01*
X120934546Y-93276782D01*
X120934548Y-93276781D01*
X120934553Y-93276780D01*
X121187558Y-93180014D01*
X121423777Y-93047441D01*
X121638177Y-92881888D01*
X121826186Y-92686881D01*
X121983799Y-92466579D01*
X122077836Y-92283676D01*
X122107649Y-92225690D01*
X122107651Y-92225684D01*
X122107656Y-92225675D01*
X122195118Y-91969305D01*
X122244319Y-91702933D01*
X122254212Y-91432235D01*
X122224586Y-91162982D01*
X122156072Y-90900912D01*
X122050130Y-90651610D01*
X121909018Y-90420390D01*
X121819747Y-90313119D01*
X121735746Y-90212180D01*
X121735740Y-90212175D01*
X121534002Y-90031418D01*
X121308092Y-89881957D01*
X121308090Y-89881956D01*
X121062824Y-89766980D01*
X121062819Y-89766978D01*
X121062814Y-89766976D01*
X120803442Y-89688942D01*
X120803428Y-89688939D01*
X120687791Y-89671921D01*
X120535439Y-89649500D01*
X120332369Y-89649500D01*
X120332364Y-89649500D01*
X120129844Y-89664323D01*
X120129831Y-89664325D01*
X119865453Y-89723217D01*
X119865446Y-89723220D01*
X119612439Y-89819987D01*
X119376226Y-89952557D01*
X119161822Y-90118112D01*
X118973822Y-90313109D01*
X118973816Y-90313116D01*
X118816202Y-90533419D01*
X118816199Y-90533424D01*
X118692350Y-90774309D01*
X118692343Y-90774327D01*
X118604884Y-91030685D01*
X118604881Y-91030699D01*
X118555681Y-91297068D01*
X118555680Y-91297075D01*
X118545787Y-91567763D01*
X90045604Y-91567763D01*
X90054212Y-91332235D01*
X90024586Y-91062982D01*
X89956072Y-90800912D01*
X89850130Y-90551610D01*
X89709018Y-90320390D01*
X89619747Y-90213119D01*
X89535746Y-90112180D01*
X89535740Y-90112175D01*
X89334002Y-89931418D01*
X89108092Y-89781957D01*
X89076143Y-89766980D01*
X88862824Y-89666980D01*
X88862819Y-89666978D01*
X88862814Y-89666976D01*
X88603442Y-89588942D01*
X88603428Y-89588939D01*
X88487791Y-89571921D01*
X88335439Y-89549500D01*
X88132369Y-89549500D01*
X88132364Y-89549500D01*
X87929844Y-89564323D01*
X87929831Y-89564325D01*
X87665453Y-89623217D01*
X87665446Y-89623220D01*
X87412439Y-89719987D01*
X87176226Y-89852557D01*
X86961822Y-90018112D01*
X86773822Y-90213109D01*
X86773816Y-90213116D01*
X86616202Y-90433419D01*
X86616199Y-90433424D01*
X86492350Y-90674309D01*
X86492343Y-90674327D01*
X86404884Y-90930685D01*
X86404881Y-90930699D01*
X86355681Y-91197068D01*
X86355680Y-91197075D01*
X86345787Y-91467763D01*
X84503766Y-91467763D01*
X84500571Y-91401492D01*
X84500500Y-91398510D01*
X84500500Y-81580001D01*
X92154532Y-81580001D01*
X92174364Y-81806686D01*
X92174366Y-81806697D01*
X92233258Y-82026488D01*
X92233261Y-82026497D01*
X92329431Y-82232732D01*
X92329432Y-82232734D01*
X92459954Y-82419141D01*
X92620858Y-82580045D01*
X92640497Y-82593796D01*
X92807266Y-82710568D01*
X93013504Y-82806739D01*
X93233308Y-82865635D01*
X93395230Y-82879801D01*
X93459998Y-82885468D01*
X93460000Y-82885468D01*
X93460002Y-82885468D01*
X93516673Y-82880509D01*
X93686692Y-82865635D01*
X93906496Y-82806739D01*
X94112734Y-82710568D01*
X94299139Y-82580047D01*
X94460047Y-82419139D01*
X94590568Y-82232734D01*
X94686739Y-82026496D01*
X94745635Y-81806692D01*
X94765468Y-81580001D01*
X107394532Y-81580001D01*
X107414364Y-81806686D01*
X107414366Y-81806697D01*
X107473258Y-82026488D01*
X107473261Y-82026497D01*
X107569431Y-82232732D01*
X107569432Y-82232734D01*
X107699954Y-82419141D01*
X107860858Y-82580045D01*
X107880497Y-82593796D01*
X108047266Y-82710568D01*
X108253504Y-82806739D01*
X108473308Y-82865635D01*
X108635230Y-82879801D01*
X108699998Y-82885468D01*
X108700000Y-82885468D01*
X108700002Y-82885468D01*
X108756673Y-82880509D01*
X108926692Y-82865635D01*
X109146496Y-82806739D01*
X109352734Y-82710568D01*
X109539139Y-82580047D01*
X109700047Y-82419139D01*
X109830568Y-82232734D01*
X109846825Y-82197870D01*
X111449500Y-82197870D01*
X111449501Y-82197876D01*
X111455908Y-82257483D01*
X111506202Y-82392328D01*
X111506206Y-82392335D01*
X111592452Y-82507544D01*
X111592455Y-82507547D01*
X111707664Y-82593793D01*
X111707671Y-82593797D01*
X111707674Y-82593798D01*
X111839598Y-82643002D01*
X111895531Y-82684873D01*
X111919949Y-82750337D01*
X111905098Y-82818610D01*
X111883947Y-82846865D01*
X111761886Y-82968926D01*
X111626400Y-83162420D01*
X111626399Y-83162422D01*
X111526570Y-83376507D01*
X111526567Y-83376513D01*
X111469364Y-83589999D01*
X111469364Y-83590000D01*
X112186653Y-83590000D01*
X112253692Y-83609685D01*
X112299447Y-83662489D01*
X112309391Y-83731647D01*
X112305631Y-83748933D01*
X112300000Y-83768111D01*
X112300000Y-83911888D01*
X112305631Y-83931067D01*
X112305630Y-84000936D01*
X112267855Y-84059714D01*
X112204299Y-84088738D01*
X112186653Y-84090000D01*
X111469364Y-84090000D01*
X111526567Y-84303486D01*
X111526570Y-84303492D01*
X111626399Y-84517578D01*
X111761894Y-84711082D01*
X111928917Y-84878105D01*
X112122421Y-85013600D01*
X112336507Y-85113429D01*
X112336516Y-85113433D01*
X112550000Y-85170634D01*
X112550000Y-84452301D01*
X112569685Y-84385262D01*
X112622489Y-84339507D01*
X112691647Y-84329563D01*
X112764237Y-84340000D01*
X112764238Y-84340000D01*
X112835762Y-84340000D01*
X112835763Y-84340000D01*
X112908353Y-84329563D01*
X112977512Y-84339507D01*
X113030315Y-84385262D01*
X113050000Y-84452301D01*
X113050000Y-85170633D01*
X113263483Y-85113433D01*
X113263492Y-85113429D01*
X113477578Y-85013600D01*
X113671082Y-84878105D01*
X113838105Y-84711082D01*
X113973600Y-84517578D01*
X114073429Y-84303492D01*
X114073432Y-84303486D01*
X114130636Y-84090000D01*
X113413347Y-84090000D01*
X113346308Y-84070315D01*
X113300553Y-84017511D01*
X113290609Y-83948353D01*
X113294369Y-83931067D01*
X113300000Y-83911888D01*
X113300000Y-83768111D01*
X113294369Y-83748933D01*
X113294370Y-83679064D01*
X113332145Y-83620286D01*
X113395701Y-83591262D01*
X113413347Y-83590000D01*
X114130636Y-83590000D01*
X114130635Y-83589999D01*
X114073432Y-83376513D01*
X114073429Y-83376507D01*
X113973600Y-83162422D01*
X113973599Y-83162420D01*
X113838113Y-82968926D01*
X113838108Y-82968920D01*
X113716053Y-82846865D01*
X113682568Y-82785542D01*
X113687552Y-82715850D01*
X113729424Y-82659917D01*
X113760400Y-82643002D01*
X113892331Y-82593796D01*
X114007546Y-82507546D01*
X114093796Y-82392331D01*
X114144091Y-82257483D01*
X114150500Y-82197873D01*
X114150500Y-82097870D01*
X117949500Y-82097870D01*
X117949501Y-82097876D01*
X117955908Y-82157483D01*
X118006202Y-82292328D01*
X118006206Y-82292335D01*
X118092452Y-82407544D01*
X118092455Y-82407547D01*
X118207664Y-82493793D01*
X118207671Y-82493797D01*
X118244537Y-82507547D01*
X118339598Y-82543002D01*
X118395531Y-82584873D01*
X118419949Y-82650337D01*
X118405098Y-82718610D01*
X118383947Y-82746865D01*
X118261886Y-82868926D01*
X118126400Y-83062420D01*
X118126399Y-83062422D01*
X118026570Y-83276507D01*
X118026567Y-83276513D01*
X117969364Y-83489999D01*
X117969364Y-83490000D01*
X118686653Y-83490000D01*
X118753692Y-83509685D01*
X118799447Y-83562489D01*
X118809391Y-83631647D01*
X118805631Y-83648933D01*
X118800000Y-83668111D01*
X118800000Y-83811888D01*
X118805631Y-83831067D01*
X118805630Y-83900936D01*
X118767855Y-83959714D01*
X118704299Y-83988738D01*
X118686653Y-83990000D01*
X117969364Y-83990000D01*
X118026567Y-84203486D01*
X118026570Y-84203492D01*
X118126399Y-84417578D01*
X118261894Y-84611082D01*
X118428917Y-84778105D01*
X118622421Y-84913600D01*
X118836507Y-85013429D01*
X118836516Y-85013433D01*
X119050000Y-85070634D01*
X119050000Y-84352301D01*
X119069685Y-84285262D01*
X119122489Y-84239507D01*
X119191647Y-84229563D01*
X119264237Y-84240000D01*
X119264238Y-84240000D01*
X119335762Y-84240000D01*
X119335763Y-84240000D01*
X119408353Y-84229563D01*
X119477512Y-84239507D01*
X119530315Y-84285262D01*
X119550000Y-84352301D01*
X119550000Y-85070633D01*
X119763483Y-85013433D01*
X119763492Y-85013429D01*
X119977578Y-84913600D01*
X120171082Y-84778105D01*
X120338105Y-84611082D01*
X120473600Y-84417578D01*
X120573429Y-84203492D01*
X120573432Y-84203486D01*
X120630636Y-83990000D01*
X119913347Y-83990000D01*
X119846308Y-83970315D01*
X119800553Y-83917511D01*
X119790609Y-83848353D01*
X119794369Y-83831067D01*
X119800000Y-83811888D01*
X119800000Y-83668111D01*
X119794369Y-83648933D01*
X119794370Y-83579064D01*
X119832145Y-83520286D01*
X119895701Y-83491262D01*
X119913347Y-83490000D01*
X120630636Y-83490000D01*
X120630635Y-83489999D01*
X120573432Y-83276513D01*
X120573429Y-83276507D01*
X120473600Y-83062422D01*
X120473599Y-83062420D01*
X120338113Y-82868926D01*
X120338108Y-82868920D01*
X120216053Y-82746865D01*
X120182568Y-82685542D01*
X120187552Y-82615850D01*
X120229424Y-82559917D01*
X120260400Y-82543002D01*
X120392331Y-82493796D01*
X120507546Y-82407546D01*
X120593796Y-82292331D01*
X120644091Y-82157483D01*
X120650500Y-82097873D01*
X120650499Y-80302128D01*
X120644091Y-80242517D01*
X120631094Y-80207671D01*
X120593797Y-80107671D01*
X120593793Y-80107664D01*
X120507547Y-79992455D01*
X120507544Y-79992452D01*
X120392335Y-79906206D01*
X120392328Y-79906202D01*
X120257482Y-79855908D01*
X120257483Y-79855908D01*
X120197883Y-79849501D01*
X120197881Y-79849500D01*
X120197873Y-79849500D01*
X120197864Y-79849500D01*
X118402129Y-79849500D01*
X118402123Y-79849501D01*
X118342516Y-79855908D01*
X118207671Y-79906202D01*
X118207664Y-79906206D01*
X118092455Y-79992452D01*
X118092452Y-79992455D01*
X118006206Y-80107664D01*
X118006202Y-80107671D01*
X117955908Y-80242517D01*
X117949501Y-80302116D01*
X117949501Y-80302123D01*
X117949500Y-80302135D01*
X117949500Y-82097870D01*
X114150500Y-82097870D01*
X114150499Y-80402128D01*
X114144091Y-80342517D01*
X114131596Y-80309017D01*
X114093797Y-80207671D01*
X114093793Y-80207664D01*
X114007547Y-80092455D01*
X114007544Y-80092452D01*
X113892335Y-80006206D01*
X113892328Y-80006202D01*
X113757482Y-79955908D01*
X113757483Y-79955908D01*
X113697883Y-79949501D01*
X113697881Y-79949500D01*
X113697873Y-79949500D01*
X113697864Y-79949500D01*
X111902129Y-79949500D01*
X111902123Y-79949501D01*
X111842516Y-79955908D01*
X111707671Y-80006202D01*
X111707664Y-80006206D01*
X111592455Y-80092452D01*
X111592452Y-80092455D01*
X111506206Y-80207664D01*
X111506202Y-80207671D01*
X111455908Y-80342517D01*
X111449501Y-80402116D01*
X111449501Y-80402123D01*
X111449500Y-80402135D01*
X111449500Y-82197870D01*
X109846825Y-82197870D01*
X109926739Y-82026496D01*
X109985635Y-81806692D01*
X110005468Y-81580000D01*
X109985635Y-81353308D01*
X109926739Y-81133504D01*
X109830568Y-80927266D01*
X109700047Y-80740861D01*
X109700045Y-80740858D01*
X109539141Y-80579954D01*
X109352734Y-80449432D01*
X109352728Y-80449429D01*
X109294725Y-80422382D01*
X109242285Y-80376210D01*
X109223133Y-80309017D01*
X109243348Y-80242135D01*
X109294725Y-80197618D01*
X109352734Y-80170568D01*
X109539139Y-80040047D01*
X109700047Y-79879139D01*
X109830568Y-79692734D01*
X109926739Y-79486496D01*
X109985635Y-79266692D01*
X110005468Y-79040000D01*
X109985635Y-78813308D01*
X109926739Y-78593504D01*
X109830568Y-78387266D01*
X109700047Y-78200861D01*
X109700045Y-78200858D01*
X109539141Y-78039954D01*
X109352734Y-77909432D01*
X109352728Y-77909429D01*
X109294725Y-77882382D01*
X109242285Y-77836210D01*
X109223133Y-77769017D01*
X109243348Y-77702135D01*
X109294725Y-77657618D01*
X109352734Y-77630568D01*
X109539139Y-77500047D01*
X109700047Y-77339139D01*
X109830568Y-77152734D01*
X109926739Y-76946496D01*
X109985635Y-76726692D01*
X109993219Y-76640002D01*
X111192677Y-76640002D01*
X111211929Y-76860062D01*
X111211930Y-76860070D01*
X111269104Y-77073445D01*
X111269105Y-77073447D01*
X111269106Y-77073450D01*
X111306076Y-77152732D01*
X111362466Y-77273662D01*
X111362468Y-77273666D01*
X111489170Y-77454615D01*
X111489175Y-77454621D01*
X111645378Y-77610824D01*
X111645384Y-77610829D01*
X111826333Y-77737531D01*
X111826335Y-77737532D01*
X111826338Y-77737534D01*
X112026550Y-77830894D01*
X112239932Y-77888070D01*
X112397123Y-77901822D01*
X112459998Y-77907323D01*
X112460000Y-77907323D01*
X112460002Y-77907323D01*
X112515151Y-77902498D01*
X112680068Y-77888070D01*
X112893450Y-77830894D01*
X113093662Y-77737534D01*
X113274620Y-77610826D01*
X113430826Y-77454620D01*
X113511927Y-77338795D01*
X113566501Y-77295172D01*
X113635999Y-77287978D01*
X113698354Y-77319500D01*
X113733769Y-77379730D01*
X113737500Y-77409917D01*
X113737500Y-77449868D01*
X113737501Y-77449876D01*
X113743908Y-77509483D01*
X113794202Y-77644328D01*
X113794206Y-77644335D01*
X113880452Y-77759544D01*
X113880455Y-77759547D01*
X113995664Y-77845793D01*
X113995671Y-77845797D01*
X114130517Y-77896091D01*
X114130516Y-77896091D01*
X114137444Y-77896835D01*
X114190127Y-77902500D01*
X115809872Y-77902499D01*
X115869483Y-77896091D01*
X116004331Y-77845796D01*
X116119546Y-77759546D01*
X116205796Y-77644331D01*
X116256091Y-77509483D01*
X116262500Y-77449873D01*
X116262499Y-75860000D01*
X117144785Y-75860000D01*
X117163602Y-76063082D01*
X117219417Y-76259247D01*
X117219422Y-76259260D01*
X117310327Y-76441821D01*
X117433237Y-76604581D01*
X117549584Y-76710644D01*
X117583172Y-76741264D01*
X117583958Y-76741980D01*
X117583960Y-76741982D01*
X117583965Y-76741985D01*
X117757363Y-76849348D01*
X117947544Y-76923024D01*
X118148024Y-76960500D01*
X118148026Y-76960500D01*
X118351974Y-76960500D01*
X118351976Y-76960500D01*
X118552456Y-76923024D01*
X118742637Y-76849348D01*
X118916041Y-76741981D01*
X118916823Y-76741267D01*
X118917281Y-76741044D01*
X118920615Y-76738527D01*
X118921107Y-76739178D01*
X118979619Y-76710644D01*
X119049007Y-76718831D01*
X119079473Y-76738409D01*
X119079688Y-76738126D01*
X119083427Y-76740950D01*
X119083916Y-76741264D01*
X119084263Y-76741580D01*
X119257584Y-76848897D01*
X119447678Y-76922539D01*
X119648072Y-76960000D01*
X119851928Y-76960000D01*
X120052321Y-76922539D01*
X120242414Y-76848897D01*
X120330688Y-76794240D01*
X119860263Y-76323816D01*
X119826778Y-76262493D01*
X119831762Y-76192802D01*
X119873633Y-76136868D01*
X119882658Y-76130713D01*
X119955610Y-76085543D01*
X120023201Y-75996038D01*
X120023200Y-75996038D01*
X120030126Y-75986868D01*
X120033540Y-75989446D01*
X120065721Y-75954673D01*
X120133368Y-75937190D01*
X120199728Y-75959056D01*
X120216995Y-75973443D01*
X120687465Y-76443912D01*
X120689247Y-76441552D01*
X120689249Y-76441550D01*
X120780113Y-76259069D01*
X120780116Y-76259063D01*
X120835902Y-76062992D01*
X120835903Y-76062989D01*
X120854713Y-75860000D01*
X120854713Y-75859999D01*
X120835903Y-75657010D01*
X120835902Y-75657007D01*
X120780116Y-75460936D01*
X120780113Y-75460930D01*
X120689244Y-75278441D01*
X120687466Y-75276086D01*
X120687465Y-75276085D01*
X120213119Y-75750432D01*
X120151796Y-75783917D01*
X120082104Y-75778933D01*
X120026171Y-75737061D01*
X120014440Y-75718028D01*
X119993552Y-75676078D01*
X119985974Y-75669170D01*
X119910667Y-75600517D01*
X119910666Y-75600516D01*
X119904511Y-75598131D01*
X119849110Y-75555561D01*
X119825518Y-75489795D01*
X119841228Y-75421714D01*
X119861623Y-75394824D01*
X120330688Y-74925758D01*
X120330687Y-74925757D01*
X120242418Y-74871104D01*
X120242411Y-74871100D01*
X120052321Y-74797460D01*
X119851928Y-74760000D01*
X119648072Y-74760000D01*
X119447678Y-74797460D01*
X119257584Y-74871102D01*
X119084260Y-74978421D01*
X119084253Y-74978426D01*
X119083895Y-74978753D01*
X119083686Y-74978854D01*
X119079688Y-74981874D01*
X119079096Y-74981091D01*
X119021086Y-75009361D01*
X118951700Y-75001152D01*
X118920767Y-74981270D01*
X118920615Y-74981473D01*
X118917946Y-74979458D01*
X118916839Y-74978746D01*
X118916041Y-74978019D01*
X118916039Y-74978017D01*
X118742642Y-74870655D01*
X118742635Y-74870651D01*
X118647546Y-74833814D01*
X118552456Y-74796976D01*
X118351976Y-74759500D01*
X118148024Y-74759500D01*
X117947544Y-74796976D01*
X117947541Y-74796976D01*
X117947541Y-74796977D01*
X117757364Y-74870651D01*
X117757357Y-74870655D01*
X117583960Y-74978017D01*
X117583958Y-74978019D01*
X117433237Y-75115418D01*
X117310327Y-75278178D01*
X117219422Y-75460739D01*
X117219417Y-75460752D01*
X117163602Y-75656917D01*
X117144785Y-75859999D01*
X117144785Y-75860000D01*
X116262499Y-75860000D01*
X116262499Y-75830128D01*
X116256091Y-75770517D01*
X116205796Y-75635669D01*
X116205795Y-75635668D01*
X116205793Y-75635664D01*
X116119547Y-75520455D01*
X116119544Y-75520452D01*
X116004335Y-75434206D01*
X116004328Y-75434202D01*
X115869482Y-75383908D01*
X115869483Y-75383908D01*
X115809883Y-75377501D01*
X115809881Y-75377500D01*
X115809873Y-75377500D01*
X115809865Y-75377500D01*
X115769921Y-75377500D01*
X115702882Y-75357815D01*
X115657127Y-75305011D01*
X115647183Y-75235853D01*
X115676208Y-75172297D01*
X115698798Y-75151925D01*
X115814620Y-75070826D01*
X115970826Y-74914620D01*
X116097534Y-74733662D01*
X116190894Y-74533450D01*
X116248070Y-74320068D01*
X116267323Y-74100000D01*
X116248070Y-73879932D01*
X116190894Y-73666550D01*
X116097534Y-73466339D01*
X116034180Y-73375859D01*
X115970827Y-73285381D01*
X115970823Y-73285377D01*
X115814620Y-73129174D01*
X115814616Y-73129171D01*
X115814615Y-73129170D01*
X115633666Y-73002468D01*
X115633658Y-73002464D01*
X115504811Y-72942382D01*
X115452371Y-72896210D01*
X115433219Y-72829017D01*
X115453435Y-72762135D01*
X115504811Y-72717618D01*
X115510802Y-72714824D01*
X115633662Y-72657534D01*
X115814620Y-72530826D01*
X115970826Y-72374620D01*
X116097534Y-72193662D01*
X116190894Y-71993450D01*
X116248070Y-71780068D01*
X116267323Y-71560000D01*
X116248070Y-71339932D01*
X116190894Y-71126550D01*
X116097534Y-70926339D01*
X116034180Y-70835859D01*
X115970827Y-70745381D01*
X115970823Y-70745377D01*
X115814620Y-70589174D01*
X115814616Y-70589171D01*
X115814615Y-70589170D01*
X115633666Y-70462468D01*
X115633662Y-70462466D01*
X115542492Y-70419953D01*
X115433450Y-70369106D01*
X115433447Y-70369105D01*
X115433445Y-70369104D01*
X115220070Y-70311930D01*
X115220062Y-70311929D01*
X115000002Y-70292677D01*
X114999998Y-70292677D01*
X114779937Y-70311929D01*
X114779929Y-70311930D01*
X114566554Y-70369104D01*
X114566548Y-70369107D01*
X114366340Y-70462465D01*
X114366338Y-70462466D01*
X114185377Y-70589175D01*
X114029175Y-70745377D01*
X113902466Y-70926338D01*
X113902465Y-70926340D01*
X113842382Y-71055189D01*
X113796209Y-71107628D01*
X113729016Y-71126780D01*
X113662135Y-71106564D01*
X113617618Y-71055189D01*
X113599059Y-71015390D01*
X113557534Y-70926339D01*
X113494179Y-70835859D01*
X113430827Y-70745381D01*
X113430823Y-70745377D01*
X113274620Y-70589174D01*
X113274616Y-70589171D01*
X113274615Y-70589170D01*
X113093666Y-70462468D01*
X113093662Y-70462466D01*
X113002492Y-70419953D01*
X112893450Y-70369106D01*
X112893447Y-70369105D01*
X112893445Y-70369104D01*
X112680070Y-70311930D01*
X112680062Y-70311929D01*
X112460002Y-70292677D01*
X112459998Y-70292677D01*
X112239937Y-70311929D01*
X112239929Y-70311930D01*
X112026554Y-70369104D01*
X112026548Y-70369107D01*
X111826340Y-70462465D01*
X111826338Y-70462466D01*
X111645377Y-70589175D01*
X111489175Y-70745377D01*
X111362466Y-70926338D01*
X111362465Y-70926340D01*
X111269107Y-71126548D01*
X111269104Y-71126554D01*
X111211930Y-71339929D01*
X111211929Y-71339937D01*
X111192677Y-71559997D01*
X111192677Y-71560002D01*
X111211929Y-71780062D01*
X111211930Y-71780070D01*
X111269104Y-71993445D01*
X111269105Y-71993447D01*
X111269106Y-71993450D01*
X111278425Y-72013434D01*
X111362466Y-72193662D01*
X111362468Y-72193666D01*
X111489170Y-72374615D01*
X111489175Y-72374621D01*
X111645378Y-72530824D01*
X111645384Y-72530829D01*
X111826333Y-72657531D01*
X111826335Y-72657532D01*
X111826338Y-72657534D01*
X111945748Y-72713215D01*
X111955189Y-72717618D01*
X112007628Y-72763790D01*
X112026780Y-72830984D01*
X112006564Y-72897865D01*
X111955189Y-72942382D01*
X111826340Y-73002465D01*
X111826338Y-73002466D01*
X111645377Y-73129175D01*
X111489175Y-73285377D01*
X111362466Y-73466338D01*
X111362465Y-73466340D01*
X111269107Y-73666548D01*
X111269104Y-73666554D01*
X111211930Y-73879929D01*
X111211929Y-73879937D01*
X111192677Y-74099997D01*
X111192677Y-74100002D01*
X111211929Y-74320062D01*
X111211930Y-74320070D01*
X111269104Y-74533445D01*
X111269105Y-74533447D01*
X111269106Y-74533450D01*
X111278425Y-74553434D01*
X111362466Y-74733662D01*
X111362468Y-74733666D01*
X111489170Y-74914615D01*
X111489175Y-74914621D01*
X111645378Y-75070824D01*
X111645384Y-75070829D01*
X111826333Y-75197531D01*
X111826335Y-75197532D01*
X111826338Y-75197534D01*
X111908514Y-75235853D01*
X111955189Y-75257618D01*
X112007628Y-75303790D01*
X112026780Y-75370984D01*
X112006564Y-75437865D01*
X111955189Y-75482382D01*
X111826340Y-75542465D01*
X111826338Y-75542466D01*
X111645377Y-75669175D01*
X111489175Y-75825377D01*
X111362466Y-76006338D01*
X111362465Y-76006340D01*
X111269107Y-76206548D01*
X111269104Y-76206554D01*
X111211930Y-76419929D01*
X111211929Y-76419937D01*
X111192677Y-76639997D01*
X111192677Y-76640002D01*
X109993219Y-76640002D01*
X110005468Y-76500000D01*
X109985635Y-76273308D01*
X109929306Y-76063083D01*
X109926741Y-76053511D01*
X109926738Y-76053502D01*
X109893803Y-75982873D01*
X109830568Y-75847266D01*
X109710701Y-75676076D01*
X109700045Y-75660858D01*
X109539141Y-75499954D01*
X109352734Y-75369432D01*
X109352728Y-75369429D01*
X109294725Y-75342382D01*
X109242285Y-75296210D01*
X109223133Y-75229017D01*
X109243348Y-75162135D01*
X109294725Y-75117618D01*
X109352734Y-75090568D01*
X109539139Y-74960047D01*
X109700047Y-74799139D01*
X109830568Y-74612734D01*
X109926739Y-74406496D01*
X109985635Y-74186692D01*
X110005468Y-73960000D01*
X109985635Y-73733308D01*
X109926739Y-73513504D01*
X109830568Y-73307266D01*
X109732839Y-73167693D01*
X109700045Y-73120858D01*
X109539141Y-72959954D01*
X109352734Y-72829432D01*
X109352728Y-72829429D01*
X109294725Y-72802382D01*
X109242285Y-72756210D01*
X109223133Y-72689017D01*
X109243348Y-72622135D01*
X109294725Y-72577618D01*
X109352734Y-72550568D01*
X109539139Y-72420047D01*
X109700047Y-72259139D01*
X109830568Y-72072734D01*
X109926739Y-71866496D01*
X109985635Y-71646692D01*
X110005468Y-71420000D01*
X109985635Y-71193308D01*
X109926739Y-70973504D01*
X109830568Y-70767266D01*
X109732839Y-70627693D01*
X109700045Y-70580858D01*
X109539141Y-70419954D01*
X109352734Y-70289432D01*
X109352728Y-70289429D01*
X109294725Y-70262382D01*
X109242285Y-70216210D01*
X109223133Y-70149017D01*
X109243348Y-70082135D01*
X109294725Y-70037618D01*
X109352734Y-70010568D01*
X109539139Y-69880047D01*
X109700047Y-69719139D01*
X109830568Y-69532734D01*
X109926739Y-69326496D01*
X109985635Y-69106692D01*
X110005468Y-68880000D01*
X109985635Y-68653308D01*
X109926739Y-68433504D01*
X109830568Y-68227266D01*
X109700047Y-68040861D01*
X109700045Y-68040858D01*
X109539141Y-67879954D01*
X109352734Y-67749432D01*
X109352728Y-67749429D01*
X109294725Y-67722382D01*
X109242285Y-67676210D01*
X109223133Y-67609017D01*
X109243348Y-67542135D01*
X109294725Y-67497618D01*
X109352734Y-67470568D01*
X109539139Y-67340047D01*
X109700047Y-67179139D01*
X109830568Y-66992734D01*
X109926739Y-66786496D01*
X109965992Y-66640000D01*
X111444341Y-66640000D01*
X111464936Y-66875403D01*
X111464938Y-66875413D01*
X111526094Y-67103655D01*
X111526096Y-67103659D01*
X111526097Y-67103663D01*
X111561292Y-67179139D01*
X111625965Y-67317830D01*
X111625967Y-67317834D01*
X111732913Y-67470567D01*
X111761505Y-67511401D01*
X111928599Y-67678495D01*
X111991276Y-67722382D01*
X112122165Y-67814032D01*
X112122167Y-67814033D01*
X112122170Y-67814035D01*
X112336337Y-67913903D01*
X112564592Y-67975063D01*
X112752918Y-67991539D01*
X112799999Y-67995659D01*
X112800000Y-67995659D01*
X112800001Y-67995659D01*
X112839234Y-67992226D01*
X113035408Y-67975063D01*
X113263663Y-67913903D01*
X113477830Y-67814035D01*
X113671401Y-67678495D01*
X113838495Y-67511401D01*
X113974035Y-67317830D01*
X114073903Y-67103663D01*
X114135063Y-66875408D01*
X114155659Y-66640000D01*
X114135063Y-66404592D01*
X114073903Y-66176337D01*
X113974035Y-65962171D01*
X113941940Y-65916335D01*
X113838496Y-65768600D01*
X113838496Y-65768599D01*
X113716567Y-65646671D01*
X113683084Y-65585351D01*
X113688068Y-65515659D01*
X113729939Y-65459725D01*
X113760915Y-65442810D01*
X113892331Y-65393796D01*
X114007546Y-65307546D01*
X114093796Y-65192331D01*
X114144091Y-65057483D01*
X114150500Y-64997873D01*
X114150499Y-63202128D01*
X114144091Y-63142517D01*
X114093796Y-63007669D01*
X114093795Y-63007668D01*
X114093793Y-63007664D01*
X114007547Y-62892455D01*
X114007544Y-62892452D01*
X113892335Y-62806206D01*
X113892328Y-62806202D01*
X113757482Y-62755908D01*
X113757483Y-62755908D01*
X113697883Y-62749501D01*
X113697881Y-62749500D01*
X113697873Y-62749500D01*
X113697864Y-62749500D01*
X111902129Y-62749500D01*
X111902123Y-62749501D01*
X111842516Y-62755908D01*
X111707671Y-62806202D01*
X111707664Y-62806206D01*
X111592455Y-62892452D01*
X111592452Y-62892455D01*
X111506206Y-63007664D01*
X111506202Y-63007671D01*
X111455908Y-63142517D01*
X111449501Y-63202116D01*
X111449501Y-63202123D01*
X111449500Y-63202135D01*
X111449500Y-64997870D01*
X111449501Y-64997876D01*
X111455908Y-65057483D01*
X111506202Y-65192328D01*
X111506206Y-65192335D01*
X111592452Y-65307544D01*
X111592455Y-65307547D01*
X111707664Y-65393793D01*
X111707671Y-65393797D01*
X111839081Y-65442810D01*
X111895015Y-65484681D01*
X111919432Y-65550145D01*
X111904580Y-65618418D01*
X111883430Y-65646673D01*
X111761503Y-65768600D01*
X111625965Y-65962169D01*
X111625964Y-65962171D01*
X111526098Y-66176335D01*
X111526094Y-66176344D01*
X111464938Y-66404586D01*
X111464936Y-66404596D01*
X111444341Y-66639999D01*
X111444341Y-66640000D01*
X109965992Y-66640000D01*
X109985635Y-66566692D01*
X110005468Y-66340000D01*
X109985635Y-66113308D01*
X109926739Y-65893504D01*
X109830568Y-65687266D01*
X109700047Y-65500861D01*
X109700045Y-65500858D01*
X109539141Y-65339954D01*
X109432546Y-65265317D01*
X109352734Y-65209432D01*
X109294722Y-65182380D01*
X109242284Y-65136208D01*
X109223133Y-65069014D01*
X109243349Y-65002133D01*
X109294721Y-64957619D01*
X109352734Y-64930568D01*
X109539139Y-64800047D01*
X109700047Y-64639139D01*
X109830568Y-64452734D01*
X109926739Y-64246496D01*
X109985635Y-64026692D01*
X110005468Y-63800000D01*
X109985635Y-63573308D01*
X109926739Y-63353504D01*
X109830568Y-63147266D01*
X109700047Y-62960861D01*
X109700045Y-62960858D01*
X109539141Y-62799954D01*
X109352734Y-62669432D01*
X109352728Y-62669429D01*
X109294725Y-62642382D01*
X109242285Y-62596210D01*
X109223133Y-62529017D01*
X109243348Y-62462135D01*
X109294725Y-62417618D01*
X109352734Y-62390568D01*
X109539139Y-62260047D01*
X109700047Y-62099139D01*
X109830568Y-61912734D01*
X109926739Y-61706496D01*
X109985635Y-61486692D01*
X110005468Y-61260000D01*
X109985635Y-61033308D01*
X109926739Y-60813504D01*
X109830568Y-60607266D01*
X109704126Y-60426686D01*
X109700045Y-60420858D01*
X109539141Y-60259954D01*
X109453518Y-60200001D01*
X110779532Y-60200001D01*
X110799364Y-60426686D01*
X110799366Y-60426697D01*
X110858258Y-60646488D01*
X110858261Y-60646497D01*
X110954431Y-60852732D01*
X110954432Y-60852734D01*
X111084954Y-61039141D01*
X111245858Y-61200045D01*
X111245861Y-61200047D01*
X111432266Y-61330568D01*
X111638504Y-61426739D01*
X111858308Y-61485635D01*
X112020230Y-61499801D01*
X112084998Y-61505468D01*
X112085000Y-61505468D01*
X112085002Y-61505468D01*
X112141672Y-61500509D01*
X112311692Y-61485635D01*
X112531496Y-61426739D01*
X112737734Y-61330568D01*
X112924139Y-61200047D01*
X113085047Y-61039139D01*
X113215568Y-60852734D01*
X113222893Y-60837023D01*
X113269062Y-60784586D01*
X113336254Y-60765432D01*
X113403136Y-60785645D01*
X113447657Y-60837023D01*
X113454865Y-60852481D01*
X113454866Y-60852483D01*
X113505973Y-60925471D01*
X113505973Y-60925472D01*
X114047580Y-60383865D01*
X114108903Y-60350380D01*
X114178594Y-60355364D01*
X114234528Y-60397235D01*
X114245742Y-60415246D01*
X114251527Y-60426599D01*
X114257358Y-60438044D01*
X114257363Y-60438050D01*
X114346949Y-60527636D01*
X114346951Y-60527637D01*
X114346955Y-60527641D01*
X114369747Y-60539254D01*
X114420542Y-60587228D01*
X114437337Y-60655049D01*
X114414799Y-60721184D01*
X114401132Y-60737419D01*
X113859526Y-61279025D01*
X113859526Y-61279026D01*
X113932512Y-61330131D01*
X113932516Y-61330133D01*
X114138673Y-61426265D01*
X114138682Y-61426269D01*
X114358389Y-61485139D01*
X114358400Y-61485141D01*
X114584998Y-61504966D01*
X114585002Y-61504966D01*
X114811599Y-61485141D01*
X114811610Y-61485139D01*
X115031317Y-61426269D01*
X115031331Y-61426264D01*
X115237478Y-61330136D01*
X115310472Y-61279025D01*
X114768866Y-60737419D01*
X114735381Y-60676096D01*
X114740365Y-60606404D01*
X114782237Y-60550471D01*
X114800245Y-60539258D01*
X114823045Y-60527641D01*
X114912641Y-60438045D01*
X114924254Y-60415252D01*
X114972225Y-60364458D01*
X115040046Y-60347661D01*
X115106181Y-60370197D01*
X115122419Y-60383866D01*
X115664025Y-60925472D01*
X115715136Y-60852478D01*
X115811264Y-60646331D01*
X115811269Y-60646317D01*
X115870139Y-60426610D01*
X115870141Y-60426599D01*
X115889966Y-60200002D01*
X115889966Y-60199997D01*
X115870141Y-59973400D01*
X115870139Y-59973389D01*
X115811269Y-59753682D01*
X115811265Y-59753673D01*
X115715133Y-59547516D01*
X115715131Y-59547512D01*
X115664026Y-59474526D01*
X115664025Y-59474526D01*
X115122419Y-60016132D01*
X115061096Y-60049617D01*
X114991404Y-60044633D01*
X114935471Y-60002761D01*
X114924256Y-59984751D01*
X114912641Y-59961955D01*
X114912637Y-59961951D01*
X114912636Y-59961949D01*
X114823050Y-59872363D01*
X114823044Y-59872358D01*
X114813109Y-59867296D01*
X114800250Y-59860744D01*
X114749456Y-59812773D01*
X114732660Y-59744952D01*
X114755197Y-59678817D01*
X114768865Y-59662580D01*
X115310472Y-59120973D01*
X115237483Y-59069866D01*
X115237481Y-59069865D01*
X115031326Y-58973734D01*
X115031317Y-58973730D01*
X114811610Y-58914860D01*
X114811599Y-58914858D01*
X114585002Y-58895034D01*
X114584998Y-58895034D01*
X114358400Y-58914858D01*
X114358389Y-58914860D01*
X114138682Y-58973730D01*
X114138673Y-58973734D01*
X113932513Y-59069868D01*
X113859526Y-59120973D01*
X114401133Y-59662580D01*
X114434618Y-59723903D01*
X114429634Y-59793595D01*
X114387762Y-59849528D01*
X114369748Y-59860745D01*
X114346956Y-59872358D01*
X114346949Y-59872363D01*
X114257363Y-59961949D01*
X114257358Y-59961956D01*
X114245745Y-59984748D01*
X114197770Y-60035544D01*
X114129949Y-60052338D01*
X114063814Y-60029800D01*
X114047580Y-60016133D01*
X113505973Y-59474526D01*
X113454868Y-59547512D01*
X113447656Y-59562979D01*
X113401482Y-59615417D01*
X113334288Y-59634567D01*
X113267407Y-59614350D01*
X113222893Y-59562976D01*
X113215568Y-59547266D01*
X113117839Y-59407693D01*
X113085045Y-59360858D01*
X112924141Y-59199954D01*
X112737734Y-59069432D01*
X112737732Y-59069431D01*
X112531497Y-58973261D01*
X112531488Y-58973258D01*
X112311697Y-58914366D01*
X112311693Y-58914365D01*
X112311692Y-58914365D01*
X112311691Y-58914364D01*
X112311686Y-58914364D01*
X112085002Y-58894532D01*
X112084998Y-58894532D01*
X111858313Y-58914364D01*
X111858302Y-58914366D01*
X111638511Y-58973258D01*
X111638502Y-58973261D01*
X111432267Y-59069431D01*
X111432265Y-59069432D01*
X111245858Y-59199954D01*
X111084954Y-59360858D01*
X110954432Y-59547265D01*
X110954431Y-59547267D01*
X110858261Y-59753502D01*
X110858258Y-59753511D01*
X110799366Y-59973302D01*
X110799364Y-59973313D01*
X110779532Y-60199998D01*
X110779532Y-60200001D01*
X109453518Y-60200001D01*
X109352734Y-60129432D01*
X109352728Y-60129429D01*
X109294725Y-60102382D01*
X109242285Y-60056210D01*
X109223133Y-59989017D01*
X109243348Y-59922135D01*
X109294725Y-59877618D01*
X109352734Y-59850568D01*
X109539139Y-59720047D01*
X109700047Y-59559139D01*
X109830568Y-59372734D01*
X109926739Y-59166496D01*
X109985635Y-58946692D01*
X110005468Y-58720000D01*
X109985635Y-58493308D01*
X109926739Y-58273504D01*
X109830568Y-58067266D01*
X109700047Y-57880861D01*
X109700045Y-57880858D01*
X109539141Y-57719954D01*
X109352734Y-57589432D01*
X109352728Y-57589429D01*
X109294725Y-57562382D01*
X109242285Y-57516210D01*
X109229932Y-57472870D01*
X111509500Y-57472870D01*
X111509501Y-57472876D01*
X111515908Y-57532483D01*
X111566202Y-57667328D01*
X111566206Y-57667335D01*
X111652452Y-57782544D01*
X111652455Y-57782547D01*
X111767664Y-57868793D01*
X111767671Y-57868797D01*
X111902517Y-57919091D01*
X111902516Y-57919091D01*
X111909444Y-57919835D01*
X111962127Y-57925500D01*
X113757872Y-57925499D01*
X113817483Y-57919091D01*
X113952331Y-57868796D01*
X114067546Y-57782546D01*
X114153796Y-57667331D01*
X114202810Y-57535916D01*
X114244681Y-57479984D01*
X114310145Y-57455566D01*
X114378418Y-57470417D01*
X114406673Y-57491569D01*
X114528599Y-57613495D01*
X114625384Y-57681264D01*
X114722165Y-57749032D01*
X114722167Y-57749033D01*
X114722170Y-57749035D01*
X114936337Y-57848903D01*
X115164592Y-57910063D01*
X115341034Y-57925500D01*
X115399999Y-57930659D01*
X115400000Y-57930659D01*
X115400001Y-57930659D01*
X115458966Y-57925500D01*
X115635408Y-57910063D01*
X115863663Y-57848903D01*
X116077830Y-57749035D01*
X116271401Y-57613495D01*
X116438495Y-57446401D01*
X116574035Y-57252830D01*
X116673903Y-57038663D01*
X116735063Y-56810408D01*
X116755659Y-56575000D01*
X116735063Y-56339592D01*
X116673903Y-56111337D01*
X116574035Y-55897171D01*
X116459434Y-55733502D01*
X116438494Y-55703597D01*
X116271402Y-55536506D01*
X116271395Y-55536501D01*
X116077834Y-55400967D01*
X116077830Y-55400965D01*
X116077828Y-55400964D01*
X115863663Y-55301097D01*
X115863659Y-55301096D01*
X115863655Y-55301094D01*
X115635413Y-55239938D01*
X115635403Y-55239936D01*
X115400001Y-55219341D01*
X115399999Y-55219341D01*
X115164596Y-55239936D01*
X115164586Y-55239938D01*
X114936344Y-55301094D01*
X114936335Y-55301098D01*
X114722171Y-55400964D01*
X114722169Y-55400965D01*
X114528600Y-55536503D01*
X114406673Y-55658430D01*
X114345350Y-55691914D01*
X114275658Y-55686930D01*
X114219725Y-55645058D01*
X114202810Y-55614081D01*
X114153797Y-55482671D01*
X114153793Y-55482664D01*
X114067547Y-55367455D01*
X114067544Y-55367452D01*
X113952335Y-55281206D01*
X113952328Y-55281202D01*
X113817482Y-55230908D01*
X113817483Y-55230908D01*
X113757883Y-55224501D01*
X113757881Y-55224500D01*
X113757873Y-55224500D01*
X113757864Y-55224500D01*
X111962129Y-55224500D01*
X111962123Y-55224501D01*
X111902516Y-55230908D01*
X111767671Y-55281202D01*
X111767664Y-55281206D01*
X111652455Y-55367452D01*
X111652452Y-55367455D01*
X111566206Y-55482664D01*
X111566202Y-55482671D01*
X111515908Y-55617517D01*
X111509501Y-55677116D01*
X111509500Y-55677135D01*
X111509500Y-57472870D01*
X109229932Y-57472870D01*
X109223133Y-57449017D01*
X109243348Y-57382135D01*
X109294725Y-57337618D01*
X109352734Y-57310568D01*
X109539139Y-57180047D01*
X109700047Y-57019139D01*
X109830568Y-56832734D01*
X109926739Y-56626496D01*
X109985635Y-56406692D01*
X110005468Y-56180000D01*
X109985635Y-55953308D01*
X109926739Y-55733504D01*
X109830568Y-55527266D01*
X109700047Y-55340861D01*
X109700045Y-55340858D01*
X109539141Y-55179954D01*
X109352734Y-55049432D01*
X109352728Y-55049429D01*
X109294725Y-55022382D01*
X109242285Y-54976210D01*
X109223133Y-54909017D01*
X109243348Y-54842135D01*
X109294725Y-54797618D01*
X109295319Y-54797341D01*
X109352734Y-54770568D01*
X109539139Y-54640047D01*
X109700047Y-54479139D01*
X109830568Y-54292734D01*
X109926739Y-54086496D01*
X109985635Y-53866692D01*
X110005468Y-53640000D01*
X109985635Y-53413308D01*
X109926739Y-53193504D01*
X109830568Y-52987266D01*
X109704479Y-52807190D01*
X109700045Y-52800858D01*
X109539141Y-52639954D01*
X109352734Y-52509432D01*
X109352728Y-52509429D01*
X109327884Y-52497844D01*
X111475000Y-52497844D01*
X111481401Y-52557372D01*
X111481403Y-52557379D01*
X111531645Y-52692086D01*
X111531649Y-52692093D01*
X111617809Y-52807187D01*
X111617812Y-52807190D01*
X111732906Y-52893350D01*
X111732913Y-52893354D01*
X111867620Y-52943596D01*
X111867627Y-52943598D01*
X111927155Y-52949999D01*
X111927172Y-52950000D01*
X112575000Y-52950000D01*
X112575000Y-52212301D01*
X112594685Y-52145262D01*
X112647489Y-52099507D01*
X112716647Y-52089563D01*
X112789237Y-52100000D01*
X112789238Y-52100000D01*
X112860762Y-52100000D01*
X112860763Y-52100000D01*
X112933353Y-52089563D01*
X113002512Y-52099507D01*
X113055315Y-52145262D01*
X113075000Y-52212301D01*
X113074999Y-52949999D01*
X113075000Y-52950000D01*
X113722828Y-52950000D01*
X113722844Y-52949999D01*
X113782372Y-52943598D01*
X113782379Y-52943596D01*
X113917086Y-52893354D01*
X113917093Y-52893350D01*
X114032187Y-52807190D01*
X114032190Y-52807187D01*
X114118350Y-52692093D01*
X114118354Y-52692086D01*
X114167614Y-52560013D01*
X114209485Y-52504079D01*
X114274949Y-52479662D01*
X114343222Y-52494513D01*
X114371477Y-52515665D01*
X114493917Y-52638105D01*
X114687421Y-52773600D01*
X114901507Y-52873429D01*
X114901516Y-52873433D01*
X115114998Y-52930635D01*
X115114999Y-52930634D01*
X115114999Y-52212301D01*
X115134684Y-52145262D01*
X115187488Y-52099507D01*
X115256646Y-52089563D01*
X115263380Y-52090531D01*
X115329237Y-52100000D01*
X115329238Y-52100000D01*
X115400762Y-52100000D01*
X115400763Y-52100000D01*
X115473353Y-52089563D01*
X115542512Y-52099507D01*
X115595315Y-52145262D01*
X115615000Y-52212301D01*
X115615000Y-52930633D01*
X115828483Y-52873433D01*
X115828492Y-52873429D01*
X116042578Y-52773600D01*
X116236082Y-52638105D01*
X116403105Y-52471082D01*
X116538600Y-52277578D01*
X116638429Y-52063492D01*
X116638432Y-52063486D01*
X116695636Y-51850000D01*
X115978347Y-51850000D01*
X115911308Y-51830315D01*
X115865553Y-51777511D01*
X115855609Y-51708353D01*
X115859369Y-51691067D01*
X115865000Y-51671888D01*
X115865000Y-51528111D01*
X115859369Y-51508933D01*
X115859370Y-51439064D01*
X115897145Y-51380286D01*
X115960701Y-51351262D01*
X115978347Y-51350000D01*
X116695636Y-51350000D01*
X116695635Y-51349999D01*
X116638432Y-51136513D01*
X116638429Y-51136507D01*
X116538600Y-50922422D01*
X116538599Y-50922420D01*
X116403113Y-50728926D01*
X116403108Y-50728920D01*
X116236082Y-50561894D01*
X116042578Y-50426399D01*
X115828492Y-50326570D01*
X115828486Y-50326567D01*
X115615000Y-50269364D01*
X115615000Y-50987698D01*
X115595315Y-51054737D01*
X115542511Y-51100492D01*
X115473355Y-51110436D01*
X115400766Y-51100000D01*
X115400763Y-51100000D01*
X115329237Y-51100000D01*
X115329233Y-51100000D01*
X115256644Y-51110436D01*
X115187486Y-51100492D01*
X115134683Y-51054736D01*
X115114999Y-50987698D01*
X115114999Y-50269364D01*
X115114998Y-50269364D01*
X114901505Y-50326570D01*
X114687422Y-50426399D01*
X114687420Y-50426400D01*
X114493926Y-50561886D01*
X114371477Y-50684335D01*
X114310154Y-50717819D01*
X114240462Y-50712835D01*
X114184529Y-50670963D01*
X114167614Y-50639986D01*
X114118354Y-50507913D01*
X114118350Y-50507906D01*
X114032190Y-50392812D01*
X114032187Y-50392809D01*
X113917093Y-50306649D01*
X113917086Y-50306645D01*
X113782379Y-50256403D01*
X113782372Y-50256401D01*
X113722844Y-50250000D01*
X113075000Y-50250000D01*
X113075000Y-50987698D01*
X113055315Y-51054737D01*
X113002511Y-51100492D01*
X112933355Y-51110436D01*
X112860766Y-51100000D01*
X112860763Y-51100000D01*
X112789237Y-51100000D01*
X112789233Y-51100000D01*
X112716645Y-51110436D01*
X112647487Y-51100492D01*
X112594684Y-51054736D01*
X112575000Y-50987698D01*
X112575000Y-50250000D01*
X111927155Y-50250000D01*
X111867627Y-50256401D01*
X111867620Y-50256403D01*
X111732913Y-50306645D01*
X111732906Y-50306649D01*
X111617812Y-50392809D01*
X111617809Y-50392812D01*
X111531649Y-50507906D01*
X111531645Y-50507913D01*
X111481403Y-50642620D01*
X111481401Y-50642627D01*
X111475000Y-50702155D01*
X111475000Y-51350000D01*
X112211653Y-51350000D01*
X112278692Y-51369685D01*
X112324447Y-51422489D01*
X112334391Y-51491647D01*
X112330631Y-51508933D01*
X112325000Y-51528111D01*
X112325000Y-51671888D01*
X112330631Y-51691067D01*
X112330630Y-51760936D01*
X112292855Y-51819714D01*
X112229299Y-51848738D01*
X112211653Y-51850000D01*
X111475000Y-51850000D01*
X111475000Y-52497844D01*
X109327884Y-52497844D01*
X109294725Y-52482382D01*
X109242285Y-52436210D01*
X109223133Y-52369017D01*
X109243348Y-52302135D01*
X109294725Y-52257618D01*
X109352734Y-52230568D01*
X109539139Y-52100047D01*
X109700047Y-51939139D01*
X109830568Y-51752734D01*
X109926739Y-51546496D01*
X109985635Y-51326692D01*
X110005468Y-51100000D01*
X109985635Y-50873308D01*
X109926739Y-50653504D01*
X109830568Y-50447266D01*
X109700047Y-50260861D01*
X109700045Y-50260858D01*
X109539141Y-50099954D01*
X109352734Y-49969432D01*
X109352732Y-49969431D01*
X109294725Y-49942382D01*
X109294132Y-49942105D01*
X109241694Y-49895934D01*
X109222542Y-49828740D01*
X109242758Y-49761859D01*
X109294134Y-49717341D01*
X109352484Y-49690132D01*
X109538820Y-49559657D01*
X109699657Y-49398820D01*
X109830134Y-49212482D01*
X109926265Y-49006326D01*
X109926269Y-49006317D01*
X109978872Y-48810000D01*
X109313347Y-48810000D01*
X109246308Y-48790315D01*
X109200553Y-48737511D01*
X109190609Y-48668353D01*
X109194369Y-48651067D01*
X109200000Y-48631888D01*
X109200000Y-48488111D01*
X109194369Y-48468933D01*
X109194370Y-48399064D01*
X109232145Y-48340286D01*
X109295701Y-48311262D01*
X109313347Y-48310000D01*
X109978872Y-48310000D01*
X109978872Y-48309999D01*
X109926269Y-48113682D01*
X109926265Y-48113673D01*
X109830134Y-47907517D01*
X109699657Y-47721179D01*
X109538820Y-47560342D01*
X109352482Y-47429865D01*
X109294133Y-47402657D01*
X109260304Y-47372870D01*
X111499500Y-47372870D01*
X111499501Y-47372876D01*
X111505908Y-47432483D01*
X111556202Y-47567328D01*
X111556206Y-47567335D01*
X111642452Y-47682544D01*
X111642455Y-47682547D01*
X111757664Y-47768793D01*
X111757671Y-47768797D01*
X111892517Y-47819091D01*
X111892516Y-47819091D01*
X111899444Y-47819835D01*
X111952127Y-47825500D01*
X113747872Y-47825499D01*
X113807483Y-47819091D01*
X113942331Y-47768796D01*
X114057546Y-47682546D01*
X114143796Y-47567331D01*
X114146548Y-47559954D01*
X114193002Y-47435402D01*
X114234872Y-47379468D01*
X114300337Y-47355050D01*
X114368610Y-47369901D01*
X114396865Y-47391053D01*
X114518917Y-47513105D01*
X114712421Y-47648600D01*
X114926507Y-47748429D01*
X114926516Y-47748433D01*
X115139998Y-47805635D01*
X115139999Y-47805634D01*
X115139999Y-47087300D01*
X115159684Y-47020261D01*
X115212488Y-46974506D01*
X115281642Y-46964562D01*
X115354237Y-46975000D01*
X115354240Y-46975000D01*
X115425762Y-46975000D01*
X115425763Y-46975000D01*
X115498353Y-46964563D01*
X115567512Y-46974507D01*
X115620315Y-47020262D01*
X115640000Y-47087301D01*
X115640000Y-47805633D01*
X115853483Y-47748433D01*
X115853492Y-47748429D01*
X116067578Y-47648600D01*
X116261082Y-47513105D01*
X116428105Y-47346082D01*
X116563600Y-47152578D01*
X116663429Y-46938492D01*
X116663432Y-46938486D01*
X116720636Y-46725000D01*
X116003347Y-46725000D01*
X115936308Y-46705315D01*
X115890553Y-46652511D01*
X115880609Y-46583353D01*
X115884369Y-46566067D01*
X115890000Y-46546888D01*
X115890000Y-46403111D01*
X115884369Y-46383933D01*
X115884370Y-46314064D01*
X115922145Y-46255286D01*
X115985701Y-46226262D01*
X116003347Y-46225000D01*
X116720636Y-46225000D01*
X116720635Y-46224999D01*
X116663432Y-46011513D01*
X116663429Y-46011507D01*
X116563600Y-45797422D01*
X116563599Y-45797420D01*
X116428113Y-45603926D01*
X116428108Y-45603920D01*
X116261082Y-45436894D01*
X116067578Y-45301399D01*
X115853492Y-45201570D01*
X115853486Y-45201567D01*
X115640000Y-45144364D01*
X115640000Y-45862698D01*
X115620315Y-45929737D01*
X115567511Y-45975492D01*
X115498355Y-45985436D01*
X115425766Y-45975000D01*
X115425763Y-45975000D01*
X115354237Y-45975000D01*
X115281646Y-45985437D01*
X115212487Y-45975493D01*
X115159683Y-45929738D01*
X115139999Y-45862699D01*
X115139999Y-45144364D01*
X115139998Y-45144364D01*
X114926505Y-45201570D01*
X114712422Y-45301399D01*
X114712420Y-45301400D01*
X114518926Y-45436886D01*
X114396865Y-45558947D01*
X114335542Y-45592431D01*
X114265850Y-45587447D01*
X114209917Y-45545575D01*
X114193002Y-45514598D01*
X114143797Y-45382671D01*
X114143793Y-45382664D01*
X114057547Y-45267455D01*
X114057544Y-45267452D01*
X113942335Y-45181206D01*
X113942328Y-45181202D01*
X113807482Y-45130908D01*
X113807483Y-45130908D01*
X113747883Y-45124501D01*
X113747881Y-45124500D01*
X113747873Y-45124500D01*
X113747864Y-45124500D01*
X111952129Y-45124500D01*
X111952123Y-45124501D01*
X111892516Y-45130908D01*
X111757671Y-45181202D01*
X111757664Y-45181206D01*
X111642455Y-45267452D01*
X111642452Y-45267455D01*
X111556206Y-45382664D01*
X111556202Y-45382671D01*
X111505908Y-45517517D01*
X111499501Y-45577116D01*
X111499500Y-45577135D01*
X111499500Y-47372870D01*
X109260304Y-47372870D01*
X109241694Y-47356484D01*
X109222542Y-47289291D01*
X109242758Y-47222410D01*
X109294129Y-47177895D01*
X109352734Y-47150568D01*
X109539139Y-47020047D01*
X109700047Y-46859139D01*
X109830568Y-46672734D01*
X109926739Y-46466496D01*
X109985635Y-46246692D01*
X110005468Y-46020000D01*
X110004725Y-46011513D01*
X109985995Y-45797422D01*
X109985635Y-45793308D01*
X109934889Y-45603920D01*
X109926741Y-45573511D01*
X109926738Y-45573502D01*
X109913715Y-45545575D01*
X109830568Y-45367266D01*
X109732839Y-45227693D01*
X109700045Y-45180858D01*
X109539141Y-45019954D01*
X109352734Y-44889432D01*
X109352732Y-44889431D01*
X109146497Y-44793261D01*
X109146488Y-44793258D01*
X108926697Y-44734366D01*
X108926693Y-44734365D01*
X108926692Y-44734365D01*
X108926691Y-44734364D01*
X108926686Y-44734364D01*
X108700002Y-44714532D01*
X108699998Y-44714532D01*
X108473313Y-44734364D01*
X108473302Y-44734366D01*
X108253511Y-44793258D01*
X108253502Y-44793261D01*
X108047267Y-44889431D01*
X108047265Y-44889432D01*
X107860858Y-45019954D01*
X107699954Y-45180858D01*
X107569432Y-45367265D01*
X107569431Y-45367267D01*
X107473261Y-45573502D01*
X107473258Y-45573511D01*
X107414366Y-45793302D01*
X107414364Y-45793313D01*
X107394532Y-46019998D01*
X107394532Y-46020001D01*
X107414364Y-46246686D01*
X107414366Y-46246697D01*
X107473258Y-46466488D01*
X107473261Y-46466497D01*
X107569431Y-46672732D01*
X107569432Y-46672734D01*
X107699954Y-46859141D01*
X107860858Y-47020045D01*
X107861168Y-47020262D01*
X108047266Y-47150568D01*
X108105865Y-47177893D01*
X108158305Y-47224065D01*
X108177457Y-47291258D01*
X108157242Y-47358139D01*
X108105867Y-47402657D01*
X108047515Y-47429867D01*
X107861179Y-47560342D01*
X107700342Y-47721179D01*
X107569865Y-47907517D01*
X107473734Y-48113673D01*
X107473730Y-48113682D01*
X107421127Y-48309999D01*
X107421128Y-48310000D01*
X108086653Y-48310000D01*
X108153692Y-48329685D01*
X108199447Y-48382489D01*
X108209391Y-48451647D01*
X108205631Y-48468933D01*
X108200000Y-48488111D01*
X108200000Y-48631888D01*
X108205631Y-48651067D01*
X108205630Y-48720936D01*
X108167855Y-48779714D01*
X108104299Y-48808738D01*
X108086653Y-48810000D01*
X107421128Y-48810000D01*
X107473730Y-49006317D01*
X107473734Y-49006326D01*
X107569865Y-49212482D01*
X107700342Y-49398820D01*
X107861179Y-49559657D01*
X108047518Y-49690134D01*
X108047520Y-49690135D01*
X108105865Y-49717342D01*
X108158305Y-49763514D01*
X108177457Y-49830707D01*
X108157242Y-49897589D01*
X108105867Y-49942105D01*
X108047268Y-49969431D01*
X108047264Y-49969433D01*
X107860858Y-50099954D01*
X107699954Y-50260858D01*
X107569432Y-50447265D01*
X107569431Y-50447267D01*
X107473261Y-50653502D01*
X107473258Y-50653511D01*
X107414366Y-50873302D01*
X107414364Y-50873313D01*
X107394532Y-51099998D01*
X107394532Y-51100000D01*
X107414364Y-51326686D01*
X107414366Y-51326697D01*
X107473258Y-51546488D01*
X107473261Y-51546497D01*
X107569431Y-51752732D01*
X107569432Y-51752734D01*
X107699954Y-51939141D01*
X107860858Y-52100045D01*
X107860861Y-52100047D01*
X108047266Y-52230568D01*
X108105275Y-52257618D01*
X108157714Y-52303791D01*
X108176866Y-52370984D01*
X108156650Y-52437865D01*
X108105275Y-52482382D01*
X108047267Y-52509431D01*
X108047265Y-52509432D01*
X107860858Y-52639954D01*
X107699954Y-52800858D01*
X107569432Y-52987265D01*
X107569431Y-52987267D01*
X107473261Y-53193502D01*
X107473258Y-53193511D01*
X107414366Y-53413302D01*
X107414364Y-53413313D01*
X107394532Y-53639998D01*
X107394532Y-53640001D01*
X107414364Y-53866686D01*
X107414366Y-53866697D01*
X107473258Y-54086488D01*
X107473261Y-54086497D01*
X107569431Y-54292732D01*
X107569432Y-54292734D01*
X107699954Y-54479141D01*
X107860858Y-54640045D01*
X107860861Y-54640047D01*
X108047266Y-54770568D01*
X108104681Y-54797341D01*
X108105275Y-54797618D01*
X108157714Y-54843791D01*
X108176866Y-54910984D01*
X108156650Y-54977865D01*
X108105275Y-55022382D01*
X108047267Y-55049431D01*
X108047265Y-55049432D01*
X107860858Y-55179954D01*
X107699954Y-55340858D01*
X107569432Y-55527265D01*
X107569431Y-55527267D01*
X107473261Y-55733502D01*
X107473258Y-55733511D01*
X107414366Y-55953302D01*
X107414364Y-55953313D01*
X107394532Y-56179998D01*
X107394532Y-56180001D01*
X107414364Y-56406686D01*
X107414366Y-56406697D01*
X107473258Y-56626488D01*
X107473261Y-56626497D01*
X107569431Y-56832732D01*
X107569432Y-56832734D01*
X107699954Y-57019141D01*
X107860858Y-57180045D01*
X107860861Y-57180047D01*
X108047266Y-57310568D01*
X108105275Y-57337618D01*
X108157714Y-57383791D01*
X108176866Y-57450984D01*
X108156650Y-57517865D01*
X108105275Y-57562382D01*
X108047267Y-57589431D01*
X108047265Y-57589432D01*
X107860858Y-57719954D01*
X107699954Y-57880858D01*
X107569432Y-58067265D01*
X107569431Y-58067267D01*
X107473261Y-58273502D01*
X107473258Y-58273511D01*
X107414366Y-58493302D01*
X107414364Y-58493313D01*
X107394532Y-58719998D01*
X107394532Y-58720001D01*
X107414364Y-58946686D01*
X107414366Y-58946697D01*
X107473258Y-59166488D01*
X107473261Y-59166497D01*
X107569431Y-59372732D01*
X107569432Y-59372734D01*
X107699954Y-59559141D01*
X107860858Y-59720045D01*
X107860861Y-59720047D01*
X108047266Y-59850568D01*
X108105275Y-59877618D01*
X108157714Y-59923791D01*
X108176866Y-59990984D01*
X108156650Y-60057865D01*
X108105275Y-60102382D01*
X108047267Y-60129431D01*
X108047265Y-60129432D01*
X107860858Y-60259954D01*
X107699954Y-60420858D01*
X107569432Y-60607265D01*
X107569431Y-60607267D01*
X107473261Y-60813502D01*
X107473258Y-60813511D01*
X107414366Y-61033302D01*
X107414364Y-61033313D01*
X107394532Y-61259998D01*
X107394532Y-61260001D01*
X107414364Y-61486686D01*
X107414366Y-61486697D01*
X107473258Y-61706488D01*
X107473261Y-61706497D01*
X107569431Y-61912732D01*
X107569432Y-61912734D01*
X107699954Y-62099141D01*
X107860858Y-62260045D01*
X107860861Y-62260047D01*
X108047266Y-62390568D01*
X108105275Y-62417618D01*
X108157714Y-62463791D01*
X108176866Y-62530984D01*
X108156650Y-62597865D01*
X108105275Y-62642382D01*
X108047267Y-62669431D01*
X108047265Y-62669432D01*
X107860858Y-62799954D01*
X107699954Y-62960858D01*
X107569432Y-63147265D01*
X107569431Y-63147267D01*
X107473261Y-63353502D01*
X107473258Y-63353511D01*
X107414366Y-63573302D01*
X107414364Y-63573313D01*
X107394532Y-63799998D01*
X107394532Y-63800001D01*
X107414364Y-64026686D01*
X107414366Y-64026697D01*
X107473258Y-64246488D01*
X107473261Y-64246497D01*
X107569431Y-64452732D01*
X107569432Y-64452734D01*
X107699954Y-64639141D01*
X107860858Y-64800045D01*
X107860861Y-64800047D01*
X108047266Y-64930568D01*
X108105275Y-64957618D01*
X108157714Y-65003791D01*
X108176866Y-65070984D01*
X108156650Y-65137865D01*
X108105275Y-65182382D01*
X108047267Y-65209431D01*
X108047265Y-65209432D01*
X107860858Y-65339954D01*
X107699954Y-65500858D01*
X107569432Y-65687265D01*
X107569431Y-65687267D01*
X107473261Y-65893502D01*
X107473258Y-65893511D01*
X107414366Y-66113302D01*
X107414364Y-66113313D01*
X107394532Y-66339998D01*
X107394532Y-66340001D01*
X107414364Y-66566686D01*
X107414366Y-66566697D01*
X107473258Y-66786488D01*
X107473261Y-66786497D01*
X107569431Y-66992732D01*
X107569432Y-66992734D01*
X107699954Y-67179141D01*
X107860858Y-67340045D01*
X107860861Y-67340047D01*
X108047266Y-67470568D01*
X108105275Y-67497618D01*
X108157714Y-67543791D01*
X108176866Y-67610984D01*
X108156650Y-67677865D01*
X108105275Y-67722382D01*
X108047267Y-67749431D01*
X108047265Y-67749432D01*
X107860858Y-67879954D01*
X107699954Y-68040858D01*
X107569432Y-68227265D01*
X107569431Y-68227267D01*
X107473261Y-68433502D01*
X107473258Y-68433511D01*
X107414366Y-68653302D01*
X107414364Y-68653313D01*
X107394532Y-68879998D01*
X107394532Y-68880001D01*
X107414364Y-69106686D01*
X107414366Y-69106697D01*
X107473258Y-69326488D01*
X107473261Y-69326497D01*
X107569431Y-69532732D01*
X107569432Y-69532734D01*
X107699954Y-69719141D01*
X107860858Y-69880045D01*
X107860861Y-69880047D01*
X108047266Y-70010568D01*
X108105275Y-70037618D01*
X108157714Y-70083791D01*
X108176866Y-70150984D01*
X108156650Y-70217865D01*
X108105275Y-70262382D01*
X108047267Y-70289431D01*
X108047265Y-70289432D01*
X107860858Y-70419954D01*
X107699954Y-70580858D01*
X107569432Y-70767265D01*
X107569431Y-70767267D01*
X107473261Y-70973502D01*
X107473258Y-70973511D01*
X107414366Y-71193302D01*
X107414364Y-71193313D01*
X107394532Y-71419998D01*
X107394532Y-71420001D01*
X107414364Y-71646686D01*
X107414366Y-71646697D01*
X107473258Y-71866488D01*
X107473261Y-71866497D01*
X107569431Y-72072732D01*
X107569432Y-72072734D01*
X107699954Y-72259141D01*
X107860858Y-72420045D01*
X107860861Y-72420047D01*
X108047266Y-72550568D01*
X108105275Y-72577618D01*
X108157714Y-72623791D01*
X108176866Y-72690984D01*
X108156650Y-72757865D01*
X108105275Y-72802382D01*
X108047267Y-72829431D01*
X108047265Y-72829432D01*
X107860858Y-72959954D01*
X107699954Y-73120858D01*
X107569432Y-73307265D01*
X107569431Y-73307267D01*
X107473261Y-73513502D01*
X107473258Y-73513511D01*
X107414366Y-73733302D01*
X107414364Y-73733313D01*
X107394532Y-73959998D01*
X107394532Y-73960001D01*
X107414364Y-74186686D01*
X107414366Y-74186697D01*
X107473258Y-74406488D01*
X107473261Y-74406497D01*
X107569431Y-74612732D01*
X107569432Y-74612734D01*
X107699954Y-74799141D01*
X107860858Y-74960045D01*
X107860861Y-74960047D01*
X108047266Y-75090568D01*
X108105275Y-75117618D01*
X108157714Y-75163791D01*
X108176866Y-75230984D01*
X108156650Y-75297865D01*
X108105275Y-75342382D01*
X108047267Y-75369431D01*
X108047265Y-75369432D01*
X107860858Y-75499954D01*
X107699954Y-75660858D01*
X107569432Y-75847265D01*
X107569431Y-75847267D01*
X107473261Y-76053502D01*
X107473258Y-76053511D01*
X107414366Y-76273302D01*
X107414364Y-76273313D01*
X107394532Y-76499998D01*
X107394532Y-76500001D01*
X107414364Y-76726686D01*
X107414366Y-76726697D01*
X107473258Y-76946488D01*
X107473261Y-76946497D01*
X107569431Y-77152732D01*
X107569432Y-77152734D01*
X107699954Y-77339141D01*
X107860858Y-77500045D01*
X107860861Y-77500047D01*
X108047266Y-77630568D01*
X108105275Y-77657618D01*
X108157714Y-77703791D01*
X108176866Y-77770984D01*
X108156650Y-77837865D01*
X108105275Y-77882382D01*
X108047267Y-77909431D01*
X108047265Y-77909432D01*
X107860858Y-78039954D01*
X107699954Y-78200858D01*
X107569432Y-78387265D01*
X107569431Y-78387267D01*
X107473261Y-78593502D01*
X107473258Y-78593511D01*
X107414366Y-78813302D01*
X107414364Y-78813313D01*
X107394532Y-79039998D01*
X107394532Y-79040001D01*
X107414364Y-79266686D01*
X107414366Y-79266697D01*
X107473258Y-79486488D01*
X107473261Y-79486497D01*
X107569431Y-79692732D01*
X107569432Y-79692734D01*
X107699954Y-79879141D01*
X107860858Y-80040045D01*
X107860861Y-80040047D01*
X108047266Y-80170568D01*
X108105275Y-80197618D01*
X108157714Y-80243791D01*
X108176866Y-80310984D01*
X108156650Y-80377865D01*
X108105275Y-80422382D01*
X108047267Y-80449431D01*
X108047265Y-80449432D01*
X107860858Y-80579954D01*
X107699954Y-80740858D01*
X107569432Y-80927265D01*
X107569431Y-80927267D01*
X107473261Y-81133502D01*
X107473258Y-81133511D01*
X107414366Y-81353302D01*
X107414364Y-81353313D01*
X107394532Y-81579998D01*
X107394532Y-81580001D01*
X94765468Y-81580001D01*
X94765468Y-81580000D01*
X94745635Y-81353308D01*
X94686739Y-81133504D01*
X94590568Y-80927266D01*
X94460047Y-80740861D01*
X94460045Y-80740858D01*
X94299141Y-80579954D01*
X94112734Y-80449432D01*
X94112728Y-80449429D01*
X94054725Y-80422382D01*
X94002285Y-80376210D01*
X93983133Y-80309017D01*
X94003348Y-80242135D01*
X94054725Y-80197618D01*
X94112734Y-80170568D01*
X94299139Y-80040047D01*
X94460047Y-79879139D01*
X94590568Y-79692734D01*
X94686739Y-79486496D01*
X94745635Y-79266692D01*
X94765468Y-79040000D01*
X94745635Y-78813308D01*
X94686739Y-78593504D01*
X94590568Y-78387266D01*
X94460047Y-78200861D01*
X94460045Y-78200858D01*
X94299141Y-78039954D01*
X94112734Y-77909432D01*
X94112728Y-77909429D01*
X94054725Y-77882382D01*
X94002285Y-77836210D01*
X93983133Y-77769017D01*
X94003348Y-77702135D01*
X94054725Y-77657618D01*
X94112734Y-77630568D01*
X94299139Y-77500047D01*
X94460047Y-77339139D01*
X94590568Y-77152734D01*
X94686739Y-76946496D01*
X94745635Y-76726692D01*
X94765468Y-76500000D01*
X94745635Y-76273308D01*
X94689306Y-76063083D01*
X94686741Y-76053511D01*
X94686738Y-76053502D01*
X94653803Y-75982873D01*
X94590568Y-75847266D01*
X94470701Y-75676076D01*
X94460045Y-75660858D01*
X94299141Y-75499954D01*
X94112734Y-75369432D01*
X94112728Y-75369429D01*
X94054725Y-75342382D01*
X94002285Y-75296210D01*
X93983133Y-75229017D01*
X94003348Y-75162135D01*
X94054725Y-75117618D01*
X94112734Y-75090568D01*
X94299139Y-74960047D01*
X94460047Y-74799139D01*
X94590568Y-74612734D01*
X94686739Y-74406496D01*
X94745635Y-74186692D01*
X94765468Y-73960000D01*
X94745635Y-73733308D01*
X94686739Y-73513504D01*
X94590568Y-73307266D01*
X94492839Y-73167693D01*
X94460045Y-73120858D01*
X94299141Y-72959954D01*
X94112734Y-72829432D01*
X94112728Y-72829429D01*
X94054725Y-72802382D01*
X94002285Y-72756210D01*
X93983133Y-72689017D01*
X94003348Y-72622135D01*
X94054725Y-72577618D01*
X94112734Y-72550568D01*
X94299139Y-72420047D01*
X94460047Y-72259139D01*
X94590568Y-72072734D01*
X94686739Y-71866496D01*
X94745635Y-71646692D01*
X94765468Y-71420000D01*
X94745635Y-71193308D01*
X94686739Y-70973504D01*
X94590568Y-70767266D01*
X94492839Y-70627693D01*
X94460045Y-70580858D01*
X94299141Y-70419954D01*
X94112734Y-70289432D01*
X94112728Y-70289429D01*
X94054725Y-70262382D01*
X94002285Y-70216210D01*
X93983133Y-70149017D01*
X94003348Y-70082135D01*
X94054725Y-70037618D01*
X94112734Y-70010568D01*
X94299139Y-69880047D01*
X94460047Y-69719139D01*
X94590568Y-69532734D01*
X94686739Y-69326496D01*
X94745635Y-69106692D01*
X94765468Y-68880000D01*
X94745635Y-68653308D01*
X94686739Y-68433504D01*
X94590568Y-68227266D01*
X94460047Y-68040861D01*
X94460045Y-68040858D01*
X94299141Y-67879954D01*
X94112734Y-67749432D01*
X94112728Y-67749429D01*
X94054725Y-67722382D01*
X94002285Y-67676210D01*
X93983133Y-67609017D01*
X94003348Y-67542135D01*
X94054725Y-67497618D01*
X94112734Y-67470568D01*
X94299139Y-67340047D01*
X94460047Y-67179139D01*
X94590568Y-66992734D01*
X94686739Y-66786496D01*
X94745635Y-66566692D01*
X94765468Y-66340000D01*
X94745635Y-66113308D01*
X94686739Y-65893504D01*
X94590568Y-65687266D01*
X94460047Y-65500861D01*
X94460045Y-65500858D01*
X94299141Y-65339954D01*
X94112734Y-65209432D01*
X94112728Y-65209429D01*
X94081474Y-65194855D01*
X94054724Y-65182381D01*
X94002285Y-65136210D01*
X93983133Y-65069017D01*
X94003348Y-65002135D01*
X94054725Y-64957618D01*
X94112734Y-64930568D01*
X94299139Y-64800047D01*
X94460047Y-64639139D01*
X94590568Y-64452734D01*
X94686739Y-64246496D01*
X94745635Y-64026692D01*
X94765468Y-63800000D01*
X94745635Y-63573308D01*
X94686739Y-63353504D01*
X94590568Y-63147266D01*
X94460047Y-62960861D01*
X94460045Y-62960858D01*
X94299141Y-62799954D01*
X94112734Y-62669432D01*
X94112728Y-62669429D01*
X94054725Y-62642382D01*
X94002285Y-62596210D01*
X93983133Y-62529017D01*
X94003348Y-62462135D01*
X94054725Y-62417618D01*
X94112734Y-62390568D01*
X94299139Y-62260047D01*
X94460047Y-62099139D01*
X94590568Y-61912734D01*
X94686739Y-61706496D01*
X94745635Y-61486692D01*
X94765468Y-61260000D01*
X94745635Y-61033308D01*
X94686739Y-60813504D01*
X94590568Y-60607266D01*
X94464126Y-60426686D01*
X94460045Y-60420858D01*
X94299141Y-60259954D01*
X94112734Y-60129432D01*
X94112728Y-60129429D01*
X94054725Y-60102382D01*
X94002285Y-60056210D01*
X93983133Y-59989017D01*
X94003348Y-59922135D01*
X94054725Y-59877618D01*
X94112734Y-59850568D01*
X94299139Y-59720047D01*
X94460047Y-59559139D01*
X94590568Y-59372734D01*
X94686739Y-59166496D01*
X94745635Y-58946692D01*
X94765468Y-58720000D01*
X94745635Y-58493308D01*
X94686739Y-58273504D01*
X94590568Y-58067266D01*
X94460047Y-57880861D01*
X94460045Y-57880858D01*
X94299141Y-57719954D01*
X94112734Y-57589432D01*
X94112728Y-57589429D01*
X94054725Y-57562382D01*
X94002285Y-57516210D01*
X93983133Y-57449017D01*
X94003348Y-57382135D01*
X94054725Y-57337618D01*
X94112734Y-57310568D01*
X94299139Y-57180047D01*
X94460047Y-57019139D01*
X94590568Y-56832734D01*
X94686739Y-56626496D01*
X94745635Y-56406692D01*
X94765468Y-56180000D01*
X94745635Y-55953308D01*
X94686739Y-55733504D01*
X94590568Y-55527266D01*
X94460047Y-55340861D01*
X94460045Y-55340858D01*
X94299141Y-55179954D01*
X94112734Y-55049432D01*
X94112732Y-55049431D01*
X94054725Y-55022382D01*
X94054132Y-55022105D01*
X94001694Y-54975934D01*
X93982542Y-54908740D01*
X94002758Y-54841859D01*
X94054134Y-54797341D01*
X94112484Y-54770132D01*
X94298820Y-54639657D01*
X94459657Y-54478820D01*
X94590134Y-54292482D01*
X94686265Y-54086326D01*
X94686269Y-54086317D01*
X94738872Y-53890000D01*
X94073347Y-53890000D01*
X94006308Y-53870315D01*
X93960553Y-53817511D01*
X93950609Y-53748353D01*
X93954369Y-53731067D01*
X93960000Y-53711888D01*
X93960000Y-53568111D01*
X93954369Y-53548933D01*
X93954370Y-53479064D01*
X93992145Y-53420286D01*
X94055701Y-53391262D01*
X94073347Y-53390000D01*
X94738872Y-53390000D01*
X94738872Y-53389999D01*
X94686269Y-53193682D01*
X94686265Y-53193673D01*
X94590134Y-52987517D01*
X94459657Y-52801179D01*
X94298820Y-52640342D01*
X94112482Y-52509865D01*
X94054133Y-52482657D01*
X94001694Y-52436484D01*
X93982542Y-52369291D01*
X94002758Y-52302410D01*
X94054129Y-52257895D01*
X94112734Y-52230568D01*
X94299139Y-52100047D01*
X94460047Y-51939139D01*
X94590568Y-51752734D01*
X94686739Y-51546496D01*
X94745635Y-51326692D01*
X94765468Y-51100000D01*
X94745635Y-50873308D01*
X94686739Y-50653504D01*
X94590568Y-50447266D01*
X94460047Y-50260861D01*
X94460045Y-50260858D01*
X94299141Y-50099954D01*
X94112734Y-49969432D01*
X94112728Y-49969429D01*
X94054725Y-49942382D01*
X94002285Y-49896210D01*
X93983133Y-49829017D01*
X94003348Y-49762135D01*
X94054725Y-49717618D01*
X94055319Y-49717341D01*
X94112734Y-49690568D01*
X94299139Y-49560047D01*
X94460047Y-49399139D01*
X94590568Y-49212734D01*
X94686739Y-49006496D01*
X94745635Y-48786692D01*
X94765468Y-48560000D01*
X94745635Y-48333308D01*
X94686739Y-48113504D01*
X94590568Y-47907266D01*
X94460047Y-47720861D01*
X94460045Y-47720858D01*
X94299143Y-47559956D01*
X94274536Y-47542726D01*
X94230912Y-47488149D01*
X94223719Y-47418650D01*
X94255241Y-47356296D01*
X94315471Y-47320882D01*
X94332404Y-47317861D01*
X94367483Y-47314091D01*
X94502331Y-47263796D01*
X94617546Y-47177546D01*
X94703796Y-47062331D01*
X94754091Y-46927483D01*
X94760500Y-46867873D01*
X94760499Y-45172128D01*
X94754091Y-45112517D01*
X94719567Y-45019954D01*
X94703797Y-44977671D01*
X94703793Y-44977664D01*
X94617547Y-44862455D01*
X94617544Y-44862452D01*
X94502335Y-44776206D01*
X94502328Y-44776202D01*
X94367482Y-44725908D01*
X94367483Y-44725908D01*
X94307883Y-44719501D01*
X94307881Y-44719500D01*
X94307873Y-44719500D01*
X94307864Y-44719500D01*
X92612129Y-44719500D01*
X92612123Y-44719501D01*
X92552516Y-44725908D01*
X92417671Y-44776202D01*
X92417664Y-44776206D01*
X92302455Y-44862452D01*
X92302452Y-44862455D01*
X92216206Y-44977664D01*
X92216202Y-44977671D01*
X92165908Y-45112517D01*
X92159501Y-45172116D01*
X92159501Y-45172123D01*
X92159500Y-45172135D01*
X92159500Y-46867870D01*
X92159501Y-46867876D01*
X92165908Y-46927483D01*
X92216202Y-47062328D01*
X92216206Y-47062335D01*
X92302452Y-47177544D01*
X92302455Y-47177547D01*
X92417664Y-47263793D01*
X92417671Y-47263797D01*
X92462618Y-47280561D01*
X92552517Y-47314091D01*
X92587596Y-47317862D01*
X92652144Y-47344599D01*
X92691993Y-47401991D01*
X92694488Y-47471816D01*
X92658836Y-47531905D01*
X92645464Y-47542725D01*
X92620858Y-47559954D01*
X92459954Y-47720858D01*
X92329432Y-47907265D01*
X92329431Y-47907267D01*
X92233261Y-48113502D01*
X92233258Y-48113511D01*
X92174366Y-48333302D01*
X92174364Y-48333313D01*
X92154532Y-48559998D01*
X92154532Y-48560001D01*
X92174364Y-48786686D01*
X92174366Y-48786697D01*
X92233258Y-49006488D01*
X92233261Y-49006497D01*
X92329431Y-49212732D01*
X92329432Y-49212734D01*
X92459954Y-49399141D01*
X92620858Y-49560045D01*
X92620861Y-49560047D01*
X92807266Y-49690568D01*
X92864681Y-49717341D01*
X92865275Y-49717618D01*
X92917714Y-49763791D01*
X92936866Y-49830984D01*
X92916650Y-49897865D01*
X92865275Y-49942382D01*
X92807267Y-49969431D01*
X92807265Y-49969432D01*
X92620858Y-50099954D01*
X92459954Y-50260858D01*
X92329432Y-50447265D01*
X92329431Y-50447267D01*
X92233261Y-50653502D01*
X92233258Y-50653511D01*
X92174366Y-50873302D01*
X92174364Y-50873313D01*
X92154532Y-51099998D01*
X92154532Y-51100000D01*
X92174364Y-51326686D01*
X92174366Y-51326697D01*
X92233258Y-51546488D01*
X92233261Y-51546497D01*
X92329431Y-51752732D01*
X92329432Y-51752734D01*
X92459954Y-51939141D01*
X92620858Y-52100045D01*
X92620861Y-52100047D01*
X92807266Y-52230568D01*
X92865865Y-52257893D01*
X92918305Y-52304065D01*
X92937457Y-52371258D01*
X92917242Y-52438139D01*
X92865867Y-52482657D01*
X92807515Y-52509867D01*
X92621179Y-52640342D01*
X92460342Y-52801179D01*
X92329865Y-52987517D01*
X92233734Y-53193673D01*
X92233730Y-53193682D01*
X92181127Y-53389999D01*
X92181128Y-53390000D01*
X92846653Y-53390000D01*
X92913692Y-53409685D01*
X92959447Y-53462489D01*
X92969391Y-53531647D01*
X92965631Y-53548933D01*
X92960000Y-53568111D01*
X92960000Y-53711888D01*
X92965631Y-53731067D01*
X92965630Y-53800936D01*
X92927855Y-53859714D01*
X92864299Y-53888738D01*
X92846653Y-53890000D01*
X92181128Y-53890000D01*
X92233730Y-54086317D01*
X92233734Y-54086326D01*
X92329865Y-54292482D01*
X92460342Y-54478820D01*
X92621179Y-54639657D01*
X92807518Y-54770134D01*
X92807520Y-54770135D01*
X92865865Y-54797342D01*
X92918305Y-54843514D01*
X92937457Y-54910707D01*
X92917242Y-54977589D01*
X92865867Y-55022105D01*
X92807268Y-55049431D01*
X92807264Y-55049433D01*
X92620858Y-55179954D01*
X92459954Y-55340858D01*
X92329432Y-55527265D01*
X92329431Y-55527267D01*
X92233261Y-55733502D01*
X92233258Y-55733511D01*
X92174366Y-55953302D01*
X92174364Y-55953313D01*
X92154532Y-56179998D01*
X92154532Y-56180001D01*
X92174364Y-56406686D01*
X92174366Y-56406697D01*
X92233258Y-56626488D01*
X92233261Y-56626497D01*
X92329431Y-56832732D01*
X92329432Y-56832734D01*
X92459954Y-57019141D01*
X92620858Y-57180045D01*
X92620861Y-57180047D01*
X92807266Y-57310568D01*
X92865275Y-57337618D01*
X92917714Y-57383791D01*
X92936866Y-57450984D01*
X92916650Y-57517865D01*
X92865275Y-57562382D01*
X92807267Y-57589431D01*
X92807265Y-57589432D01*
X92620858Y-57719954D01*
X92459954Y-57880858D01*
X92329432Y-58067265D01*
X92329431Y-58067267D01*
X92233261Y-58273502D01*
X92233258Y-58273511D01*
X92174366Y-58493302D01*
X92174364Y-58493313D01*
X92154532Y-58719998D01*
X92154532Y-58720001D01*
X92174364Y-58946686D01*
X92174366Y-58946697D01*
X92233258Y-59166488D01*
X92233261Y-59166497D01*
X92329431Y-59372732D01*
X92329432Y-59372734D01*
X92459954Y-59559141D01*
X92620858Y-59720045D01*
X92620861Y-59720047D01*
X92807266Y-59850568D01*
X92865275Y-59877618D01*
X92917714Y-59923791D01*
X92936866Y-59990984D01*
X92916650Y-60057865D01*
X92865275Y-60102382D01*
X92807267Y-60129431D01*
X92807265Y-60129432D01*
X92620858Y-60259954D01*
X92459954Y-60420858D01*
X92329432Y-60607265D01*
X92329431Y-60607267D01*
X92233261Y-60813502D01*
X92233258Y-60813511D01*
X92174366Y-61033302D01*
X92174364Y-61033313D01*
X92154532Y-61259998D01*
X92154532Y-61260001D01*
X92174364Y-61486686D01*
X92174366Y-61486697D01*
X92233258Y-61706488D01*
X92233261Y-61706497D01*
X92329431Y-61912732D01*
X92329432Y-61912734D01*
X92459954Y-62099141D01*
X92620858Y-62260045D01*
X92620861Y-62260047D01*
X92807266Y-62390568D01*
X92865275Y-62417618D01*
X92917714Y-62463791D01*
X92936866Y-62530984D01*
X92916650Y-62597865D01*
X92865275Y-62642382D01*
X92807267Y-62669431D01*
X92807265Y-62669432D01*
X92620858Y-62799954D01*
X92459954Y-62960858D01*
X92329432Y-63147265D01*
X92329431Y-63147267D01*
X92233261Y-63353502D01*
X92233258Y-63353511D01*
X92174366Y-63573302D01*
X92174364Y-63573313D01*
X92154532Y-63799998D01*
X92154532Y-63800001D01*
X92174364Y-64026686D01*
X92174366Y-64026697D01*
X92233258Y-64246488D01*
X92233261Y-64246497D01*
X92329431Y-64452732D01*
X92329432Y-64452734D01*
X92459954Y-64639141D01*
X92620858Y-64800045D01*
X92732895Y-64878493D01*
X92807266Y-64930568D01*
X92865278Y-64957619D01*
X92917713Y-65003788D01*
X92936866Y-65070982D01*
X92916651Y-65137863D01*
X92865277Y-65182380D01*
X92807268Y-65209430D01*
X92807265Y-65209432D01*
X92620858Y-65339954D01*
X92459954Y-65500858D01*
X92329432Y-65687265D01*
X92329431Y-65687267D01*
X92233261Y-65893502D01*
X92233258Y-65893511D01*
X92174366Y-66113302D01*
X92174364Y-66113313D01*
X92154532Y-66339998D01*
X92154532Y-66340001D01*
X92174364Y-66566686D01*
X92174366Y-66566697D01*
X92233258Y-66786488D01*
X92233261Y-66786497D01*
X92329431Y-66992732D01*
X92329432Y-66992734D01*
X92459954Y-67179141D01*
X92620858Y-67340045D01*
X92620861Y-67340047D01*
X92807266Y-67470568D01*
X92865275Y-67497618D01*
X92917714Y-67543791D01*
X92936866Y-67610984D01*
X92916650Y-67677865D01*
X92865275Y-67722382D01*
X92807267Y-67749431D01*
X92807265Y-67749432D01*
X92620858Y-67879954D01*
X92459954Y-68040858D01*
X92329432Y-68227265D01*
X92329431Y-68227267D01*
X92233261Y-68433502D01*
X92233258Y-68433511D01*
X92174366Y-68653302D01*
X92174364Y-68653313D01*
X92154532Y-68879998D01*
X92154532Y-68880001D01*
X92174364Y-69106686D01*
X92174366Y-69106697D01*
X92233258Y-69326488D01*
X92233261Y-69326497D01*
X92329431Y-69532732D01*
X92329432Y-69532734D01*
X92459954Y-69719141D01*
X92620858Y-69880045D01*
X92620861Y-69880047D01*
X92807266Y-70010568D01*
X92865275Y-70037618D01*
X92917714Y-70083791D01*
X92936866Y-70150984D01*
X92916650Y-70217865D01*
X92865275Y-70262382D01*
X92807267Y-70289431D01*
X92807265Y-70289432D01*
X92620858Y-70419954D01*
X92459954Y-70580858D01*
X92329432Y-70767265D01*
X92329431Y-70767267D01*
X92233261Y-70973502D01*
X92233258Y-70973511D01*
X92174366Y-71193302D01*
X92174364Y-71193313D01*
X92154532Y-71419998D01*
X92154532Y-71420001D01*
X92174364Y-71646686D01*
X92174366Y-71646697D01*
X92233258Y-71866488D01*
X92233261Y-71866497D01*
X92329431Y-72072732D01*
X92329432Y-72072734D01*
X92459954Y-72259141D01*
X92620858Y-72420045D01*
X92620861Y-72420047D01*
X92807266Y-72550568D01*
X92865275Y-72577618D01*
X92917714Y-72623791D01*
X92936866Y-72690984D01*
X92916650Y-72757865D01*
X92865275Y-72802382D01*
X92807267Y-72829431D01*
X92807265Y-72829432D01*
X92620858Y-72959954D01*
X92459954Y-73120858D01*
X92329432Y-73307265D01*
X92329431Y-73307267D01*
X92233261Y-73513502D01*
X92233258Y-73513511D01*
X92174366Y-73733302D01*
X92174364Y-73733313D01*
X92154532Y-73959998D01*
X92154532Y-73960001D01*
X92174364Y-74186686D01*
X92174366Y-74186697D01*
X92233258Y-74406488D01*
X92233261Y-74406497D01*
X92329431Y-74612732D01*
X92329432Y-74612734D01*
X92459954Y-74799141D01*
X92620858Y-74960045D01*
X92620861Y-74960047D01*
X92807266Y-75090568D01*
X92865275Y-75117618D01*
X92917714Y-75163791D01*
X92936866Y-75230984D01*
X92916650Y-75297865D01*
X92865275Y-75342382D01*
X92807267Y-75369431D01*
X92807265Y-75369432D01*
X92620858Y-75499954D01*
X92459954Y-75660858D01*
X92329432Y-75847265D01*
X92329431Y-75847267D01*
X92233261Y-76053502D01*
X92233258Y-76053511D01*
X92174366Y-76273302D01*
X92174364Y-76273313D01*
X92154532Y-76499998D01*
X92154532Y-76500001D01*
X92174364Y-76726686D01*
X92174366Y-76726697D01*
X92233258Y-76946488D01*
X92233261Y-76946497D01*
X92329431Y-77152732D01*
X92329432Y-77152734D01*
X92459954Y-77339141D01*
X92620858Y-77500045D01*
X92620861Y-77500047D01*
X92807266Y-77630568D01*
X92865275Y-77657618D01*
X92917714Y-77703791D01*
X92936866Y-77770984D01*
X92916650Y-77837865D01*
X92865275Y-77882382D01*
X92807267Y-77909431D01*
X92807265Y-77909432D01*
X92620858Y-78039954D01*
X92459954Y-78200858D01*
X92329432Y-78387265D01*
X92329431Y-78387267D01*
X92233261Y-78593502D01*
X92233258Y-78593511D01*
X92174366Y-78813302D01*
X92174364Y-78813313D01*
X92154532Y-79039998D01*
X92154532Y-79040001D01*
X92174364Y-79266686D01*
X92174366Y-79266697D01*
X92233258Y-79486488D01*
X92233261Y-79486497D01*
X92329431Y-79692732D01*
X92329432Y-79692734D01*
X92459954Y-79879141D01*
X92620858Y-80040045D01*
X92620861Y-80040047D01*
X92807266Y-80170568D01*
X92865275Y-80197618D01*
X92917714Y-80243791D01*
X92936866Y-80310984D01*
X92916650Y-80377865D01*
X92865275Y-80422382D01*
X92807267Y-80449431D01*
X92807265Y-80449432D01*
X92620858Y-80579954D01*
X92459954Y-80740858D01*
X92329432Y-80927265D01*
X92329431Y-80927267D01*
X92233261Y-81133502D01*
X92233258Y-81133511D01*
X92174366Y-81353302D01*
X92174364Y-81353313D01*
X92154532Y-81579998D01*
X92154532Y-81580001D01*
X84500500Y-81580001D01*
X84500500Y-68920000D01*
X88244341Y-68920000D01*
X88264936Y-69155403D01*
X88264938Y-69155413D01*
X88326094Y-69383655D01*
X88326096Y-69383659D01*
X88326097Y-69383663D01*
X88395609Y-69532732D01*
X88425965Y-69597830D01*
X88425967Y-69597834D01*
X88510908Y-69719141D01*
X88561505Y-69791401D01*
X88728599Y-69958495D01*
X88802967Y-70010568D01*
X88922165Y-70094032D01*
X88922167Y-70094033D01*
X88922170Y-70094035D01*
X89136337Y-70193903D01*
X89364592Y-70255063D01*
X89552918Y-70271539D01*
X89599999Y-70275659D01*
X89600000Y-70275659D01*
X89600001Y-70275659D01*
X89639234Y-70272226D01*
X89835408Y-70255063D01*
X90063663Y-70193903D01*
X90277830Y-70094035D01*
X90471401Y-69958495D01*
X90638495Y-69791401D01*
X90774035Y-69597830D01*
X90873903Y-69383663D01*
X90935063Y-69155408D01*
X90955659Y-68920000D01*
X90935063Y-68684592D01*
X90873903Y-68456337D01*
X90774035Y-68242171D01*
X90763600Y-68227267D01*
X90638494Y-68048597D01*
X90471402Y-67881506D01*
X90471396Y-67881501D01*
X90285842Y-67751575D01*
X90242217Y-67696998D01*
X90235023Y-67627500D01*
X90266546Y-67565145D01*
X90285842Y-67548425D01*
X90338716Y-67511402D01*
X90471401Y-67418495D01*
X90638495Y-67251401D01*
X90774035Y-67057830D01*
X90873903Y-66843663D01*
X90935063Y-66615408D01*
X90955659Y-66380000D01*
X90935063Y-66144592D01*
X90886184Y-65962171D01*
X90873905Y-65916344D01*
X90873904Y-65916343D01*
X90873903Y-65916337D01*
X90774035Y-65702171D01*
X90763600Y-65687267D01*
X90638494Y-65508597D01*
X90471402Y-65341506D01*
X90471396Y-65341501D01*
X90285842Y-65211575D01*
X90242217Y-65156998D01*
X90235023Y-65087500D01*
X90266546Y-65025145D01*
X90285842Y-65008425D01*
X90358402Y-64957618D01*
X90471401Y-64878495D01*
X90638495Y-64711401D01*
X90774035Y-64517830D01*
X90873903Y-64303663D01*
X90935063Y-64075408D01*
X90955659Y-63840000D01*
X90935063Y-63604592D01*
X90873903Y-63376337D01*
X90774035Y-63162171D01*
X90763599Y-63147267D01*
X90638496Y-62968600D01*
X90630754Y-62960858D01*
X90516567Y-62846671D01*
X90483084Y-62785351D01*
X90488068Y-62715659D01*
X90529939Y-62659725D01*
X90560915Y-62642810D01*
X90692331Y-62593796D01*
X90807546Y-62507546D01*
X90893796Y-62392331D01*
X90944091Y-62257483D01*
X90950500Y-62197873D01*
X90950499Y-60402128D01*
X90944091Y-60342517D01*
X90893796Y-60207669D01*
X90893795Y-60207668D01*
X90893793Y-60207664D01*
X90807547Y-60092455D01*
X90807544Y-60092452D01*
X90692335Y-60006206D01*
X90692328Y-60006202D01*
X90557482Y-59955908D01*
X90557483Y-59955908D01*
X90497883Y-59949501D01*
X90497881Y-59949500D01*
X90497873Y-59949500D01*
X90497864Y-59949500D01*
X88702129Y-59949500D01*
X88702123Y-59949501D01*
X88642516Y-59955908D01*
X88507671Y-60006202D01*
X88507664Y-60006206D01*
X88392455Y-60092452D01*
X88392452Y-60092455D01*
X88306206Y-60207664D01*
X88306202Y-60207671D01*
X88255908Y-60342517D01*
X88251463Y-60383865D01*
X88249501Y-60402123D01*
X88249500Y-60402135D01*
X88249500Y-62197870D01*
X88249501Y-62197876D01*
X88255908Y-62257483D01*
X88306202Y-62392328D01*
X88306206Y-62392335D01*
X88392452Y-62507544D01*
X88392455Y-62507547D01*
X88507664Y-62593793D01*
X88507671Y-62593797D01*
X88639081Y-62642810D01*
X88695015Y-62684681D01*
X88719432Y-62750145D01*
X88704580Y-62818418D01*
X88683430Y-62846673D01*
X88561503Y-62968600D01*
X88425965Y-63162169D01*
X88425964Y-63162171D01*
X88326098Y-63376335D01*
X88326094Y-63376344D01*
X88264938Y-63604586D01*
X88264936Y-63604596D01*
X88244341Y-63839999D01*
X88244341Y-63840000D01*
X88264936Y-64075403D01*
X88264938Y-64075413D01*
X88326094Y-64303655D01*
X88326096Y-64303659D01*
X88326097Y-64303663D01*
X88395609Y-64452732D01*
X88425965Y-64517830D01*
X88425967Y-64517834D01*
X88561501Y-64711395D01*
X88561506Y-64711402D01*
X88728597Y-64878493D01*
X88728603Y-64878498D01*
X88914158Y-65008425D01*
X88957783Y-65063002D01*
X88964977Y-65132500D01*
X88933454Y-65194855D01*
X88914158Y-65211575D01*
X88728597Y-65341505D01*
X88561505Y-65508597D01*
X88425965Y-65702169D01*
X88425964Y-65702171D01*
X88326098Y-65916335D01*
X88326094Y-65916344D01*
X88264938Y-66144586D01*
X88264936Y-66144596D01*
X88244341Y-66379999D01*
X88244341Y-66380000D01*
X88264936Y-66615403D01*
X88264938Y-66615413D01*
X88326094Y-66843655D01*
X88326096Y-66843659D01*
X88326097Y-66843663D01*
X88395609Y-66992732D01*
X88425965Y-67057830D01*
X88425967Y-67057834D01*
X88561501Y-67251395D01*
X88561506Y-67251402D01*
X88728597Y-67418493D01*
X88728603Y-67418498D01*
X88914158Y-67548425D01*
X88957783Y-67603002D01*
X88964977Y-67672500D01*
X88933454Y-67734855D01*
X88914158Y-67751575D01*
X88728597Y-67881505D01*
X88561505Y-68048597D01*
X88425965Y-68242169D01*
X88425964Y-68242171D01*
X88326098Y-68456335D01*
X88326094Y-68456344D01*
X88264938Y-68684586D01*
X88264936Y-68684596D01*
X88244341Y-68919999D01*
X88244341Y-68920000D01*
X84500500Y-68920000D01*
X84500500Y-38467763D01*
X86445787Y-38467763D01*
X86475413Y-38737013D01*
X86475415Y-38737024D01*
X86543926Y-38999082D01*
X86543928Y-38999088D01*
X86649870Y-39248390D01*
X86721998Y-39366575D01*
X86790979Y-39479605D01*
X86790986Y-39479615D01*
X86964253Y-39687819D01*
X86964259Y-39687824D01*
X87165998Y-39868582D01*
X87391910Y-40018044D01*
X87637176Y-40133020D01*
X87637183Y-40133022D01*
X87637185Y-40133023D01*
X87896557Y-40211057D01*
X87896564Y-40211058D01*
X87896569Y-40211060D01*
X88164561Y-40250500D01*
X88164566Y-40250500D01*
X88367636Y-40250500D01*
X88419133Y-40246730D01*
X88570156Y-40235677D01*
X88682758Y-40210593D01*
X88834546Y-40176782D01*
X88834548Y-40176781D01*
X88834553Y-40176780D01*
X89087558Y-40080014D01*
X89323777Y-39947441D01*
X89538177Y-39781888D01*
X89726186Y-39586881D01*
X89883799Y-39366579D01*
X89957787Y-39222669D01*
X90007649Y-39125690D01*
X90007651Y-39125684D01*
X90007656Y-39125675D01*
X90095118Y-38869305D01*
X90144319Y-38602933D01*
X90149259Y-38467763D01*
X118445787Y-38467763D01*
X118475413Y-38737013D01*
X118475415Y-38737024D01*
X118543926Y-38999082D01*
X118543928Y-38999088D01*
X118649870Y-39248390D01*
X118721998Y-39366575D01*
X118790979Y-39479605D01*
X118790986Y-39479615D01*
X118964253Y-39687819D01*
X118964259Y-39687824D01*
X119165998Y-39868582D01*
X119391910Y-40018044D01*
X119637176Y-40133020D01*
X119637183Y-40133022D01*
X119637185Y-40133023D01*
X119896557Y-40211057D01*
X119896564Y-40211058D01*
X119896569Y-40211060D01*
X120164561Y-40250500D01*
X120164566Y-40250500D01*
X120367636Y-40250500D01*
X120419133Y-40246730D01*
X120570156Y-40235677D01*
X120682758Y-40210593D01*
X120834546Y-40176782D01*
X120834548Y-40176781D01*
X120834553Y-40176780D01*
X121087558Y-40080014D01*
X121323777Y-39947441D01*
X121538177Y-39781888D01*
X121726186Y-39586881D01*
X121883799Y-39366579D01*
X121957787Y-39222669D01*
X122007649Y-39125690D01*
X122007651Y-39125684D01*
X122007656Y-39125675D01*
X122095118Y-38869305D01*
X122144319Y-38602933D01*
X122154212Y-38332235D01*
X122124586Y-38062982D01*
X122056072Y-37800912D01*
X121950130Y-37551610D01*
X121809018Y-37320390D01*
X121719747Y-37213119D01*
X121635746Y-37112180D01*
X121635740Y-37112175D01*
X121434002Y-36931418D01*
X121208092Y-36781957D01*
X121149077Y-36754292D01*
X120962824Y-36666980D01*
X120962819Y-36666978D01*
X120962814Y-36666976D01*
X120703442Y-36588942D01*
X120703428Y-36588939D01*
X120587791Y-36571921D01*
X120435439Y-36549500D01*
X120232369Y-36549500D01*
X120232364Y-36549500D01*
X120029844Y-36564323D01*
X120029831Y-36564325D01*
X119765453Y-36623217D01*
X119765446Y-36623220D01*
X119512439Y-36719987D01*
X119276226Y-36852557D01*
X119061822Y-37018112D01*
X118873822Y-37213109D01*
X118873816Y-37213116D01*
X118716202Y-37433419D01*
X118716199Y-37433424D01*
X118592350Y-37674309D01*
X118592343Y-37674327D01*
X118504884Y-37930685D01*
X118504881Y-37930699D01*
X118455681Y-38197068D01*
X118455680Y-38197075D01*
X118445787Y-38467763D01*
X90149259Y-38467763D01*
X90154212Y-38332235D01*
X90124586Y-38062982D01*
X90056072Y-37800912D01*
X89950130Y-37551610D01*
X89809018Y-37320390D01*
X89719747Y-37213119D01*
X89635746Y-37112180D01*
X89635740Y-37112175D01*
X89434002Y-36931418D01*
X89208092Y-36781957D01*
X89149077Y-36754292D01*
X88962824Y-36666980D01*
X88962819Y-36666978D01*
X88962814Y-36666976D01*
X88703442Y-36588942D01*
X88703428Y-36588939D01*
X88587791Y-36571921D01*
X88435439Y-36549500D01*
X88232369Y-36549500D01*
X88232364Y-36549500D01*
X88029844Y-36564323D01*
X88029831Y-36564325D01*
X87765453Y-36623217D01*
X87765446Y-36623220D01*
X87512439Y-36719987D01*
X87276226Y-36852557D01*
X87061822Y-37018112D01*
X86873822Y-37213109D01*
X86873816Y-37213116D01*
X86716202Y-37433419D01*
X86716199Y-37433424D01*
X86592350Y-37674309D01*
X86592343Y-37674327D01*
X86504884Y-37930685D01*
X86504881Y-37930699D01*
X86455681Y-38197068D01*
X86455680Y-38197075D01*
X86445787Y-38467763D01*
X84500500Y-38467763D01*
X84500500Y-38401489D01*
X84500572Y-38398511D01*
X84506490Y-38275400D01*
X84519379Y-38027963D01*
X84519931Y-38022361D01*
X84544378Y-37853911D01*
X84572649Y-37674309D01*
X84576203Y-37651728D01*
X84577220Y-37646660D01*
X84619771Y-37472934D01*
X84630291Y-37433424D01*
X84670342Y-37283002D01*
X84671704Y-37278568D01*
X84731934Y-37106267D01*
X84800852Y-36925537D01*
X84802461Y-36921712D01*
X84879734Y-36754269D01*
X84966463Y-36582850D01*
X84968203Y-36579653D01*
X85061722Y-36419470D01*
X85165577Y-36258324D01*
X85167341Y-36255738D01*
X85275159Y-36106148D01*
X85277047Y-36103669D01*
X85397074Y-35954194D01*
X85519462Y-35814822D01*
X85521951Y-35812153D01*
X85657131Y-35675684D01*
X85791574Y-35549401D01*
X85794668Y-35546687D01*
X85944343Y-35424144D01*
X86088754Y-35312520D01*
X86092516Y-35309835D01*
X86256681Y-35201815D01*
X86408076Y-35106486D01*
X86412557Y-35103921D01*
X86594253Y-35009817D01*
X86746366Y-34933337D01*
X86751537Y-34931028D01*
X86982061Y-34840608D01*
X87076744Y-34803907D01*
X87121678Y-34795526D01*
X121271746Y-34830258D01*
G37*
%TD.AperFunction*%
%TD*%
M02*
