%TF.GenerationSoftware,KiCad,Pcbnew,7.0.7*%
%TF.CreationDate,2023-10-16T17:53:01+02:00*%
%TF.ProjectId,arduino-nano-line-follower,61726475-696e-46f2-9d6e-616e6f2d6c69,0*%
%TF.SameCoordinates,Original*%
%TF.FileFunction,Drillmap*%
%TF.FilePolarity,Positive*%
%FSLAX45Y45*%
G04 Gerber Fmt 4.5, Leading zero omitted, Abs format (unit mm)*
G04 Created by KiCad (PCBNEW 7.0.7) date 2023-10-16 17:53:01*
%MOMM*%
%LPD*%
G01*
G04 APERTURE LIST*
%ADD10C,0.200000*%
%ADD11C,0.060000*%
%ADD12C,0.080000*%
%ADD13C,0.081280*%
%ADD14C,0.100000*%
G04 APERTURE END LIST*
D10*
X8709833Y-3479500D02*
G75*
G03*
X8450000Y-3840000I120167J-360500D01*
G01*
X8450000Y-9140000D02*
G75*
G03*
X8738504Y-9500913I370000J0D01*
G01*
X12129956Y-9498580D02*
G75*
G03*
X12400000Y-9150000I-89956J348580D01*
G01*
X8738504Y-9500913D02*
X12129956Y-9498580D01*
X8450000Y-3840000D02*
X8450000Y-9140000D01*
X12400000Y-3860000D02*
G75*
G03*
X12129173Y-3482978I-370000J20000D01*
G01*
X12400000Y-9150000D02*
X12400000Y-3860000D01*
X12129173Y-3482978D02*
X8709833Y-3479500D01*
D11*
X11795000Y-7556000D02*
X11855000Y-7616000D01*
X11855000Y-7556000D02*
X11795000Y-7616000D01*
X11945000Y-7556000D02*
X12005000Y-7616000D01*
X12005000Y-7556000D02*
X11945000Y-7616000D01*
D12*
X11248500Y-6020000D02*
G75*
G03*
X11248500Y-6020000I-40000J0D01*
G01*
X11498500Y-6020000D02*
G75*
G03*
X11498500Y-6020000I-40000J0D01*
G01*
D13*
X11246000Y-7115360D02*
X11246000Y-7196640D01*
X11205360Y-7156000D02*
X11286640Y-7156000D01*
X11246000Y-7369360D02*
X11246000Y-7450640D01*
X11205360Y-7410000D02*
X11286640Y-7410000D01*
X11246000Y-7623360D02*
X11246000Y-7704640D01*
X11205360Y-7664000D02*
X11286640Y-7664000D01*
X11500000Y-7115360D02*
X11500000Y-7196640D01*
X11459360Y-7156000D02*
X11540640Y-7156000D01*
X11500000Y-7369360D02*
X11500000Y-7450640D01*
X11459360Y-7410000D02*
X11540640Y-7410000D01*
X11500000Y-7623360D02*
X11500000Y-7704640D01*
X11459360Y-7664000D02*
X11540640Y-7664000D01*
D14*
X8995356Y-6165356D02*
X8995356Y-6094644D01*
X8924644Y-6094644D01*
X8924644Y-6165356D01*
X8995356Y-6165356D01*
X8995356Y-6419356D02*
X8995356Y-6348644D01*
X8924644Y-6348644D01*
X8924644Y-6419356D01*
X8995356Y-6419356D01*
X8995356Y-6673356D02*
X8995356Y-6602644D01*
X8924644Y-6602644D01*
X8924644Y-6673356D01*
X8995356Y-6673356D01*
X8995356Y-6927356D02*
X8995356Y-6856644D01*
X8924644Y-6856644D01*
X8924644Y-6927356D01*
X8995356Y-6927356D01*
X9381356Y-4637356D02*
X9381356Y-4566644D01*
X9310644Y-4566644D01*
X9310644Y-4637356D01*
X9381356Y-4637356D01*
X9381356Y-4891356D02*
X9381356Y-4820644D01*
X9310644Y-4820644D01*
X9310644Y-4891356D01*
X9381356Y-4891356D01*
X9381356Y-5145356D02*
X9381356Y-5074644D01*
X9310644Y-5074644D01*
X9310644Y-5145356D01*
X9381356Y-5145356D01*
X9381356Y-5399356D02*
X9381356Y-5328644D01*
X9310644Y-5328644D01*
X9310644Y-5399356D01*
X9381356Y-5399356D01*
X9381356Y-5653356D02*
X9381356Y-5582644D01*
X9310644Y-5582644D01*
X9310644Y-5653356D01*
X9381356Y-5653356D01*
X9381356Y-5907356D02*
X9381356Y-5836644D01*
X9310644Y-5836644D01*
X9310644Y-5907356D01*
X9381356Y-5907356D01*
X9381356Y-6161356D02*
X9381356Y-6090644D01*
X9310644Y-6090644D01*
X9310644Y-6161356D01*
X9381356Y-6161356D01*
X9381356Y-6415356D02*
X9381356Y-6344644D01*
X9310644Y-6344644D01*
X9310644Y-6415356D01*
X9381356Y-6415356D01*
X9381356Y-6669356D02*
X9381356Y-6598644D01*
X9310644Y-6598644D01*
X9310644Y-6669356D01*
X9381356Y-6669356D01*
X9381356Y-6923356D02*
X9381356Y-6852644D01*
X9310644Y-6852644D01*
X9310644Y-6923356D01*
X9381356Y-6923356D01*
X9381356Y-7177356D02*
X9381356Y-7106644D01*
X9310644Y-7106644D01*
X9310644Y-7177356D01*
X9381356Y-7177356D01*
X9381356Y-7431356D02*
X9381356Y-7360644D01*
X9310644Y-7360644D01*
X9310644Y-7431356D01*
X9381356Y-7431356D01*
X9381356Y-7685356D02*
X9381356Y-7614644D01*
X9310644Y-7614644D01*
X9310644Y-7685356D01*
X9381356Y-7685356D01*
X9381356Y-7939356D02*
X9381356Y-7868644D01*
X9310644Y-7868644D01*
X9310644Y-7939356D01*
X9381356Y-7939356D01*
X9381356Y-8193356D02*
X9381356Y-8122644D01*
X9310644Y-8122644D01*
X9310644Y-8193356D01*
X9381356Y-8193356D01*
X10905356Y-4637356D02*
X10905356Y-4566644D01*
X10834644Y-4566644D01*
X10834644Y-4637356D01*
X10905356Y-4637356D01*
X10905356Y-4891356D02*
X10905356Y-4820644D01*
X10834644Y-4820644D01*
X10834644Y-4891356D01*
X10905356Y-4891356D01*
X10905356Y-5145356D02*
X10905356Y-5074644D01*
X10834644Y-5074644D01*
X10834644Y-5145356D01*
X10905356Y-5145356D01*
X10905356Y-5399356D02*
X10905356Y-5328644D01*
X10834644Y-5328644D01*
X10834644Y-5399356D01*
X10905356Y-5399356D01*
X10905356Y-5653356D02*
X10905356Y-5582644D01*
X10834644Y-5582644D01*
X10834644Y-5653356D01*
X10905356Y-5653356D01*
X10905356Y-5907356D02*
X10905356Y-5836644D01*
X10834644Y-5836644D01*
X10834644Y-5907356D01*
X10905356Y-5907356D01*
X10905356Y-6161356D02*
X10905356Y-6090644D01*
X10834644Y-6090644D01*
X10834644Y-6161356D01*
X10905356Y-6161356D01*
X10905356Y-6415356D02*
X10905356Y-6344644D01*
X10834644Y-6344644D01*
X10834644Y-6415356D01*
X10905356Y-6415356D01*
X10905356Y-6669356D02*
X10905356Y-6598644D01*
X10834644Y-6598644D01*
X10834644Y-6669356D01*
X10905356Y-6669356D01*
X10905356Y-6923356D02*
X10905356Y-6852644D01*
X10834644Y-6852644D01*
X10834644Y-6923356D01*
X10905356Y-6923356D01*
X10905356Y-7177356D02*
X10905356Y-7106644D01*
X10834644Y-7106644D01*
X10834644Y-7177356D01*
X10905356Y-7177356D01*
X10905356Y-7431356D02*
X10905356Y-7360644D01*
X10834644Y-7360644D01*
X10834644Y-7431356D01*
X10905356Y-7431356D01*
X10905356Y-7685356D02*
X10905356Y-7614644D01*
X10834644Y-7614644D01*
X10834644Y-7685356D01*
X10905356Y-7685356D01*
X10905356Y-7939356D02*
X10905356Y-7868644D01*
X10834644Y-7868644D01*
X10834644Y-7939356D01*
X10905356Y-7939356D01*
X10905356Y-8193356D02*
X10905356Y-8122644D01*
X10834644Y-8122644D01*
X10834644Y-8193356D01*
X10905356Y-8193356D01*
X11315356Y-6445356D02*
X11315356Y-6374644D01*
X11244644Y-6374644D01*
X11244644Y-6445356D01*
X11315356Y-6445356D01*
X11315356Y-6699356D02*
X11315356Y-6628644D01*
X11244644Y-6628644D01*
X11244644Y-6699356D01*
X11315356Y-6699356D01*
X11315356Y-8165356D02*
X11315356Y-8094644D01*
X11244644Y-8094644D01*
X11244644Y-8165356D01*
X11315356Y-8165356D01*
X11315356Y-8419356D02*
X11315356Y-8348644D01*
X11244644Y-8348644D01*
X11244644Y-8419356D01*
X11315356Y-8419356D01*
X11317856Y-5195356D02*
X11317856Y-5124644D01*
X11247144Y-5124644D01*
X11247144Y-5195356D01*
X11317856Y-5195356D01*
X11320356Y-4682856D02*
X11320356Y-4612144D01*
X11249644Y-4612144D01*
X11249644Y-4682856D01*
X11320356Y-4682856D01*
X11321356Y-5692856D02*
X11321356Y-5622144D01*
X11250644Y-5622144D01*
X11250644Y-5692856D01*
X11321356Y-5692856D01*
X11571856Y-5195356D02*
X11571856Y-5124644D01*
X11501144Y-5124644D01*
X11501144Y-5195356D01*
X11571856Y-5195356D01*
X11574356Y-4682856D02*
X11574356Y-4612144D01*
X11503644Y-4612144D01*
X11503644Y-4682856D01*
X11574356Y-4682856D01*
X11575356Y-5692856D02*
X11575356Y-5622144D01*
X11504644Y-5622144D01*
X11504644Y-5692856D01*
X11575356Y-5692856D01*
X11965356Y-8155356D02*
X11965356Y-8084644D01*
X11894644Y-8084644D01*
X11894644Y-8155356D01*
X11965356Y-8155356D01*
X11965356Y-8409356D02*
X11965356Y-8338644D01*
X11894644Y-8338644D01*
X11894644Y-8409356D01*
X11965356Y-8409356D01*
D10*
X8700777Y-9822397D02*
X8700777Y-9622397D01*
X8700777Y-9622397D02*
X8748396Y-9622397D01*
X8748396Y-9622397D02*
X8776967Y-9631921D01*
X8776967Y-9631921D02*
X8796015Y-9650968D01*
X8796015Y-9650968D02*
X8805539Y-9670016D01*
X8805539Y-9670016D02*
X8815063Y-9708111D01*
X8815063Y-9708111D02*
X8815063Y-9736683D01*
X8815063Y-9736683D02*
X8805539Y-9774778D01*
X8805539Y-9774778D02*
X8796015Y-9793826D01*
X8796015Y-9793826D02*
X8776967Y-9812873D01*
X8776967Y-9812873D02*
X8748396Y-9822397D01*
X8748396Y-9822397D02*
X8700777Y-9822397D01*
X8900777Y-9822397D02*
X8900777Y-9689064D01*
X8900777Y-9727159D02*
X8910301Y-9708111D01*
X8910301Y-9708111D02*
X8919824Y-9698587D01*
X8919824Y-9698587D02*
X8938872Y-9689064D01*
X8938872Y-9689064D02*
X8957920Y-9689064D01*
X9024586Y-9822397D02*
X9024586Y-9689064D01*
X9024586Y-9622397D02*
X9015063Y-9631921D01*
X9015063Y-9631921D02*
X9024586Y-9641445D01*
X9024586Y-9641445D02*
X9034110Y-9631921D01*
X9034110Y-9631921D02*
X9024586Y-9622397D01*
X9024586Y-9622397D02*
X9024586Y-9641445D01*
X9148396Y-9822397D02*
X9129348Y-9812873D01*
X9129348Y-9812873D02*
X9119824Y-9793826D01*
X9119824Y-9793826D02*
X9119824Y-9622397D01*
X9253158Y-9822397D02*
X9234110Y-9812873D01*
X9234110Y-9812873D02*
X9224586Y-9793826D01*
X9224586Y-9793826D02*
X9224586Y-9622397D01*
X9481729Y-9822397D02*
X9481729Y-9622397D01*
X9481729Y-9622397D02*
X9548396Y-9765254D01*
X9548396Y-9765254D02*
X9615063Y-9622397D01*
X9615063Y-9622397D02*
X9615063Y-9822397D01*
X9796015Y-9822397D02*
X9796015Y-9717635D01*
X9796015Y-9717635D02*
X9786491Y-9698587D01*
X9786491Y-9698587D02*
X9767444Y-9689064D01*
X9767444Y-9689064D02*
X9729348Y-9689064D01*
X9729348Y-9689064D02*
X9710301Y-9698587D01*
X9796015Y-9812873D02*
X9776967Y-9822397D01*
X9776967Y-9822397D02*
X9729348Y-9822397D01*
X9729348Y-9822397D02*
X9710301Y-9812873D01*
X9710301Y-9812873D02*
X9700777Y-9793826D01*
X9700777Y-9793826D02*
X9700777Y-9774778D01*
X9700777Y-9774778D02*
X9710301Y-9755730D01*
X9710301Y-9755730D02*
X9729348Y-9746207D01*
X9729348Y-9746207D02*
X9776967Y-9746207D01*
X9776967Y-9746207D02*
X9796015Y-9736683D01*
X9891253Y-9689064D02*
X9891253Y-9889064D01*
X9891253Y-9698587D02*
X9910301Y-9689064D01*
X9910301Y-9689064D02*
X9948396Y-9689064D01*
X9948396Y-9689064D02*
X9967444Y-9698587D01*
X9967444Y-9698587D02*
X9976967Y-9708111D01*
X9976967Y-9708111D02*
X9986491Y-9727159D01*
X9986491Y-9727159D02*
X9986491Y-9784302D01*
X9986491Y-9784302D02*
X9976967Y-9803349D01*
X9976967Y-9803349D02*
X9967444Y-9812873D01*
X9967444Y-9812873D02*
X9948396Y-9822397D01*
X9948396Y-9822397D02*
X9910301Y-9822397D01*
X9910301Y-9822397D02*
X9891253Y-9812873D01*
X10072205Y-9803349D02*
X10081729Y-9812873D01*
X10081729Y-9812873D02*
X10072205Y-9822397D01*
X10072205Y-9822397D02*
X10062682Y-9812873D01*
X10062682Y-9812873D02*
X10072205Y-9803349D01*
X10072205Y-9803349D02*
X10072205Y-9822397D01*
X10072205Y-9698587D02*
X10081729Y-9708111D01*
X10081729Y-9708111D02*
X10072205Y-9717635D01*
X10072205Y-9717635D02*
X10062682Y-9708111D01*
X10062682Y-9708111D02*
X10072205Y-9698587D01*
X10072205Y-9698587D02*
X10072205Y-9717635D01*
D11*
X8380000Y-10120913D02*
X8440000Y-10180913D01*
X8440000Y-10120913D02*
X8380000Y-10180913D01*
D10*
X8738872Y-10042397D02*
X8757920Y-10042397D01*
X8757920Y-10042397D02*
X8776967Y-10051921D01*
X8776967Y-10051921D02*
X8786491Y-10061445D01*
X8786491Y-10061445D02*
X8796015Y-10080492D01*
X8796015Y-10080492D02*
X8805539Y-10118587D01*
X8805539Y-10118587D02*
X8805539Y-10166207D01*
X8805539Y-10166207D02*
X8796015Y-10204302D01*
X8796015Y-10204302D02*
X8786491Y-10223349D01*
X8786491Y-10223349D02*
X8776967Y-10232873D01*
X8776967Y-10232873D02*
X8757920Y-10242397D01*
X8757920Y-10242397D02*
X8738872Y-10242397D01*
X8738872Y-10242397D02*
X8719824Y-10232873D01*
X8719824Y-10232873D02*
X8710301Y-10223349D01*
X8710301Y-10223349D02*
X8700777Y-10204302D01*
X8700777Y-10204302D02*
X8691253Y-10166207D01*
X8691253Y-10166207D02*
X8691253Y-10118587D01*
X8691253Y-10118587D02*
X8700777Y-10080492D01*
X8700777Y-10080492D02*
X8710301Y-10061445D01*
X8710301Y-10061445D02*
X8719824Y-10051921D01*
X8719824Y-10051921D02*
X8738872Y-10042397D01*
X8891253Y-10223349D02*
X8900777Y-10232873D01*
X8900777Y-10232873D02*
X8891253Y-10242397D01*
X8891253Y-10242397D02*
X8881729Y-10232873D01*
X8881729Y-10232873D02*
X8891253Y-10223349D01*
X8891253Y-10223349D02*
X8891253Y-10242397D01*
X9072205Y-10042397D02*
X9034110Y-10042397D01*
X9034110Y-10042397D02*
X9015063Y-10051921D01*
X9015063Y-10051921D02*
X9005539Y-10061445D01*
X9005539Y-10061445D02*
X8986491Y-10090016D01*
X8986491Y-10090016D02*
X8976967Y-10128111D01*
X8976967Y-10128111D02*
X8976967Y-10204302D01*
X8976967Y-10204302D02*
X8986491Y-10223349D01*
X8986491Y-10223349D02*
X8996015Y-10232873D01*
X8996015Y-10232873D02*
X9015063Y-10242397D01*
X9015063Y-10242397D02*
X9053158Y-10242397D01*
X9053158Y-10242397D02*
X9072205Y-10232873D01*
X9072205Y-10232873D02*
X9081729Y-10223349D01*
X9081729Y-10223349D02*
X9091253Y-10204302D01*
X9091253Y-10204302D02*
X9091253Y-10156683D01*
X9091253Y-10156683D02*
X9081729Y-10137635D01*
X9081729Y-10137635D02*
X9072205Y-10128111D01*
X9072205Y-10128111D02*
X9053158Y-10118587D01*
X9053158Y-10118587D02*
X9015063Y-10118587D01*
X9015063Y-10118587D02*
X8996015Y-10128111D01*
X8996015Y-10128111D02*
X8986491Y-10137635D01*
X8986491Y-10137635D02*
X8976967Y-10156683D01*
X9215063Y-10042397D02*
X9234110Y-10042397D01*
X9234110Y-10042397D02*
X9253158Y-10051921D01*
X9253158Y-10051921D02*
X9262682Y-10061445D01*
X9262682Y-10061445D02*
X9272205Y-10080492D01*
X9272205Y-10080492D02*
X9281729Y-10118587D01*
X9281729Y-10118587D02*
X9281729Y-10166207D01*
X9281729Y-10166207D02*
X9272205Y-10204302D01*
X9272205Y-10204302D02*
X9262682Y-10223349D01*
X9262682Y-10223349D02*
X9253158Y-10232873D01*
X9253158Y-10232873D02*
X9234110Y-10242397D01*
X9234110Y-10242397D02*
X9215063Y-10242397D01*
X9215063Y-10242397D02*
X9196015Y-10232873D01*
X9196015Y-10232873D02*
X9186491Y-10223349D01*
X9186491Y-10223349D02*
X9176967Y-10204302D01*
X9176967Y-10204302D02*
X9167444Y-10166207D01*
X9167444Y-10166207D02*
X9167444Y-10118587D01*
X9167444Y-10118587D02*
X9176967Y-10080492D01*
X9176967Y-10080492D02*
X9186491Y-10061445D01*
X9186491Y-10061445D02*
X9196015Y-10051921D01*
X9196015Y-10051921D02*
X9215063Y-10042397D01*
X9405539Y-10042397D02*
X9424586Y-10042397D01*
X9424586Y-10042397D02*
X9443634Y-10051921D01*
X9443634Y-10051921D02*
X9453158Y-10061445D01*
X9453158Y-10061445D02*
X9462682Y-10080492D01*
X9462682Y-10080492D02*
X9472205Y-10118587D01*
X9472205Y-10118587D02*
X9472205Y-10166207D01*
X9472205Y-10166207D02*
X9462682Y-10204302D01*
X9462682Y-10204302D02*
X9453158Y-10223349D01*
X9453158Y-10223349D02*
X9443634Y-10232873D01*
X9443634Y-10232873D02*
X9424586Y-10242397D01*
X9424586Y-10242397D02*
X9405539Y-10242397D01*
X9405539Y-10242397D02*
X9386491Y-10232873D01*
X9386491Y-10232873D02*
X9376967Y-10223349D01*
X9376967Y-10223349D02*
X9367444Y-10204302D01*
X9367444Y-10204302D02*
X9357920Y-10166207D01*
X9357920Y-10166207D02*
X9357920Y-10118587D01*
X9357920Y-10118587D02*
X9367444Y-10080492D01*
X9367444Y-10080492D02*
X9376967Y-10061445D01*
X9376967Y-10061445D02*
X9386491Y-10051921D01*
X9386491Y-10051921D02*
X9405539Y-10042397D01*
X9557920Y-10242397D02*
X9557920Y-10109064D01*
X9557920Y-10128111D02*
X9567444Y-10118587D01*
X9567444Y-10118587D02*
X9586491Y-10109064D01*
X9586491Y-10109064D02*
X9615063Y-10109064D01*
X9615063Y-10109064D02*
X9634110Y-10118587D01*
X9634110Y-10118587D02*
X9643634Y-10137635D01*
X9643634Y-10137635D02*
X9643634Y-10242397D01*
X9643634Y-10137635D02*
X9653158Y-10118587D01*
X9653158Y-10118587D02*
X9672205Y-10109064D01*
X9672205Y-10109064D02*
X9700777Y-10109064D01*
X9700777Y-10109064D02*
X9719825Y-10118587D01*
X9719825Y-10118587D02*
X9729348Y-10137635D01*
X9729348Y-10137635D02*
X9729348Y-10242397D01*
X9824586Y-10242397D02*
X9824586Y-10109064D01*
X9824586Y-10128111D02*
X9834110Y-10118587D01*
X9834110Y-10118587D02*
X9853158Y-10109064D01*
X9853158Y-10109064D02*
X9881729Y-10109064D01*
X9881729Y-10109064D02*
X9900777Y-10118587D01*
X9900777Y-10118587D02*
X9910301Y-10137635D01*
X9910301Y-10137635D02*
X9910301Y-10242397D01*
X9910301Y-10137635D02*
X9919825Y-10118587D01*
X9919825Y-10118587D02*
X9938872Y-10109064D01*
X9938872Y-10109064D02*
X9967444Y-10109064D01*
X9967444Y-10109064D02*
X9986491Y-10118587D01*
X9986491Y-10118587D02*
X9996015Y-10137635D01*
X9996015Y-10137635D02*
X9996015Y-10242397D01*
X10386491Y-10032873D02*
X10215063Y-10290016D01*
X10643634Y-10042397D02*
X10662682Y-10042397D01*
X10662682Y-10042397D02*
X10681729Y-10051921D01*
X10681729Y-10051921D02*
X10691253Y-10061445D01*
X10691253Y-10061445D02*
X10700777Y-10080492D01*
X10700777Y-10080492D02*
X10710301Y-10118587D01*
X10710301Y-10118587D02*
X10710301Y-10166207D01*
X10710301Y-10166207D02*
X10700777Y-10204302D01*
X10700777Y-10204302D02*
X10691253Y-10223349D01*
X10691253Y-10223349D02*
X10681729Y-10232873D01*
X10681729Y-10232873D02*
X10662682Y-10242397D01*
X10662682Y-10242397D02*
X10643634Y-10242397D01*
X10643634Y-10242397D02*
X10624587Y-10232873D01*
X10624587Y-10232873D02*
X10615063Y-10223349D01*
X10615063Y-10223349D02*
X10605539Y-10204302D01*
X10605539Y-10204302D02*
X10596015Y-10166207D01*
X10596015Y-10166207D02*
X10596015Y-10118587D01*
X10596015Y-10118587D02*
X10605539Y-10080492D01*
X10605539Y-10080492D02*
X10615063Y-10061445D01*
X10615063Y-10061445D02*
X10624587Y-10051921D01*
X10624587Y-10051921D02*
X10643634Y-10042397D01*
X10796015Y-10223349D02*
X10805539Y-10232873D01*
X10805539Y-10232873D02*
X10796015Y-10242397D01*
X10796015Y-10242397D02*
X10786491Y-10232873D01*
X10786491Y-10232873D02*
X10796015Y-10223349D01*
X10796015Y-10223349D02*
X10796015Y-10242397D01*
X10929348Y-10042397D02*
X10948396Y-10042397D01*
X10948396Y-10042397D02*
X10967444Y-10051921D01*
X10967444Y-10051921D02*
X10976968Y-10061445D01*
X10976968Y-10061445D02*
X10986491Y-10080492D01*
X10986491Y-10080492D02*
X10996015Y-10118587D01*
X10996015Y-10118587D02*
X10996015Y-10166207D01*
X10996015Y-10166207D02*
X10986491Y-10204302D01*
X10986491Y-10204302D02*
X10976968Y-10223349D01*
X10976968Y-10223349D02*
X10967444Y-10232873D01*
X10967444Y-10232873D02*
X10948396Y-10242397D01*
X10948396Y-10242397D02*
X10929348Y-10242397D01*
X10929348Y-10242397D02*
X10910301Y-10232873D01*
X10910301Y-10232873D02*
X10900777Y-10223349D01*
X10900777Y-10223349D02*
X10891253Y-10204302D01*
X10891253Y-10204302D02*
X10881729Y-10166207D01*
X10881729Y-10166207D02*
X10881729Y-10118587D01*
X10881729Y-10118587D02*
X10891253Y-10080492D01*
X10891253Y-10080492D02*
X10900777Y-10061445D01*
X10900777Y-10061445D02*
X10910301Y-10051921D01*
X10910301Y-10051921D02*
X10929348Y-10042397D01*
X11072206Y-10061445D02*
X11081729Y-10051921D01*
X11081729Y-10051921D02*
X11100777Y-10042397D01*
X11100777Y-10042397D02*
X11148396Y-10042397D01*
X11148396Y-10042397D02*
X11167444Y-10051921D01*
X11167444Y-10051921D02*
X11176968Y-10061445D01*
X11176968Y-10061445D02*
X11186491Y-10080492D01*
X11186491Y-10080492D02*
X11186491Y-10099540D01*
X11186491Y-10099540D02*
X11176968Y-10128111D01*
X11176968Y-10128111D02*
X11062682Y-10242397D01*
X11062682Y-10242397D02*
X11186491Y-10242397D01*
X11253158Y-10042397D02*
X11376967Y-10042397D01*
X11376967Y-10042397D02*
X11310301Y-10118587D01*
X11310301Y-10118587D02*
X11338872Y-10118587D01*
X11338872Y-10118587D02*
X11357920Y-10128111D01*
X11357920Y-10128111D02*
X11367444Y-10137635D01*
X11367444Y-10137635D02*
X11376967Y-10156683D01*
X11376967Y-10156683D02*
X11376967Y-10204302D01*
X11376967Y-10204302D02*
X11367444Y-10223349D01*
X11367444Y-10223349D02*
X11357920Y-10232873D01*
X11357920Y-10232873D02*
X11338872Y-10242397D01*
X11338872Y-10242397D02*
X11281729Y-10242397D01*
X11281729Y-10242397D02*
X11262682Y-10232873D01*
X11262682Y-10232873D02*
X11253158Y-10223349D01*
X11548396Y-10042397D02*
X11510301Y-10042397D01*
X11510301Y-10042397D02*
X11491253Y-10051921D01*
X11491253Y-10051921D02*
X11481729Y-10061445D01*
X11481729Y-10061445D02*
X11462682Y-10090016D01*
X11462682Y-10090016D02*
X11453158Y-10128111D01*
X11453158Y-10128111D02*
X11453158Y-10204302D01*
X11453158Y-10204302D02*
X11462682Y-10223349D01*
X11462682Y-10223349D02*
X11472206Y-10232873D01*
X11472206Y-10232873D02*
X11491253Y-10242397D01*
X11491253Y-10242397D02*
X11529348Y-10242397D01*
X11529348Y-10242397D02*
X11548396Y-10232873D01*
X11548396Y-10232873D02*
X11557920Y-10223349D01*
X11557920Y-10223349D02*
X11567444Y-10204302D01*
X11567444Y-10204302D02*
X11567444Y-10156683D01*
X11567444Y-10156683D02*
X11557920Y-10137635D01*
X11557920Y-10137635D02*
X11548396Y-10128111D01*
X11548396Y-10128111D02*
X11529348Y-10118587D01*
X11529348Y-10118587D02*
X11491253Y-10118587D01*
X11491253Y-10118587D02*
X11472206Y-10128111D01*
X11472206Y-10128111D02*
X11462682Y-10137635D01*
X11462682Y-10137635D02*
X11453158Y-10156683D01*
X11643634Y-10042397D02*
X11643634Y-10080492D01*
X11719825Y-10042397D02*
X11719825Y-10080492D01*
X12015063Y-10318587D02*
X12005539Y-10309064D01*
X12005539Y-10309064D02*
X11986491Y-10280492D01*
X11986491Y-10280492D02*
X11976968Y-10261445D01*
X11976968Y-10261445D02*
X11967444Y-10232873D01*
X11967444Y-10232873D02*
X11957920Y-10185254D01*
X11957920Y-10185254D02*
X11957920Y-10147159D01*
X11957920Y-10147159D02*
X11967444Y-10099540D01*
X11967444Y-10099540D02*
X11976968Y-10070968D01*
X11976968Y-10070968D02*
X11986491Y-10051921D01*
X11986491Y-10051921D02*
X12005539Y-10023349D01*
X12005539Y-10023349D02*
X12015063Y-10013826D01*
X12081729Y-10061445D02*
X12091253Y-10051921D01*
X12091253Y-10051921D02*
X12110301Y-10042397D01*
X12110301Y-10042397D02*
X12157920Y-10042397D01*
X12157920Y-10042397D02*
X12176968Y-10051921D01*
X12176968Y-10051921D02*
X12186491Y-10061445D01*
X12186491Y-10061445D02*
X12196015Y-10080492D01*
X12196015Y-10080492D02*
X12196015Y-10099540D01*
X12196015Y-10099540D02*
X12186491Y-10128111D01*
X12186491Y-10128111D02*
X12072206Y-10242397D01*
X12072206Y-10242397D02*
X12196015Y-10242397D01*
X12434110Y-10242397D02*
X12434110Y-10042397D01*
X12519825Y-10242397D02*
X12519825Y-10137635D01*
X12519825Y-10137635D02*
X12510301Y-10118587D01*
X12510301Y-10118587D02*
X12491253Y-10109064D01*
X12491253Y-10109064D02*
X12462682Y-10109064D01*
X12462682Y-10109064D02*
X12443634Y-10118587D01*
X12443634Y-10118587D02*
X12434110Y-10128111D01*
X12643634Y-10242397D02*
X12624587Y-10232873D01*
X12624587Y-10232873D02*
X12615063Y-10223349D01*
X12615063Y-10223349D02*
X12605539Y-10204302D01*
X12605539Y-10204302D02*
X12605539Y-10147159D01*
X12605539Y-10147159D02*
X12615063Y-10128111D01*
X12615063Y-10128111D02*
X12624587Y-10118587D01*
X12624587Y-10118587D02*
X12643634Y-10109064D01*
X12643634Y-10109064D02*
X12672206Y-10109064D01*
X12672206Y-10109064D02*
X12691253Y-10118587D01*
X12691253Y-10118587D02*
X12700777Y-10128111D01*
X12700777Y-10128111D02*
X12710301Y-10147159D01*
X12710301Y-10147159D02*
X12710301Y-10204302D01*
X12710301Y-10204302D02*
X12700777Y-10223349D01*
X12700777Y-10223349D02*
X12691253Y-10232873D01*
X12691253Y-10232873D02*
X12672206Y-10242397D01*
X12672206Y-10242397D02*
X12643634Y-10242397D01*
X12824587Y-10242397D02*
X12805539Y-10232873D01*
X12805539Y-10232873D02*
X12796015Y-10213826D01*
X12796015Y-10213826D02*
X12796015Y-10042397D01*
X12976968Y-10232873D02*
X12957920Y-10242397D01*
X12957920Y-10242397D02*
X12919825Y-10242397D01*
X12919825Y-10242397D02*
X12900777Y-10232873D01*
X12900777Y-10232873D02*
X12891253Y-10213826D01*
X12891253Y-10213826D02*
X12891253Y-10137635D01*
X12891253Y-10137635D02*
X12900777Y-10118587D01*
X12900777Y-10118587D02*
X12919825Y-10109064D01*
X12919825Y-10109064D02*
X12957920Y-10109064D01*
X12957920Y-10109064D02*
X12976968Y-10118587D01*
X12976968Y-10118587D02*
X12986491Y-10137635D01*
X12986491Y-10137635D02*
X12986491Y-10156683D01*
X12986491Y-10156683D02*
X12891253Y-10175730D01*
X13062682Y-10232873D02*
X13081730Y-10242397D01*
X13081730Y-10242397D02*
X13119825Y-10242397D01*
X13119825Y-10242397D02*
X13138872Y-10232873D01*
X13138872Y-10232873D02*
X13148396Y-10213826D01*
X13148396Y-10213826D02*
X13148396Y-10204302D01*
X13148396Y-10204302D02*
X13138872Y-10185254D01*
X13138872Y-10185254D02*
X13119825Y-10175730D01*
X13119825Y-10175730D02*
X13091253Y-10175730D01*
X13091253Y-10175730D02*
X13072206Y-10166207D01*
X13072206Y-10166207D02*
X13062682Y-10147159D01*
X13062682Y-10147159D02*
X13062682Y-10137635D01*
X13062682Y-10137635D02*
X13072206Y-10118587D01*
X13072206Y-10118587D02*
X13091253Y-10109064D01*
X13091253Y-10109064D02*
X13119825Y-10109064D01*
X13119825Y-10109064D02*
X13138872Y-10118587D01*
X13215063Y-10318587D02*
X13224587Y-10309064D01*
X13224587Y-10309064D02*
X13243634Y-10280492D01*
X13243634Y-10280492D02*
X13253158Y-10261445D01*
X13253158Y-10261445D02*
X13262682Y-10232873D01*
X13262682Y-10232873D02*
X13272206Y-10185254D01*
X13272206Y-10185254D02*
X13272206Y-10147159D01*
X13272206Y-10147159D02*
X13262682Y-10099540D01*
X13262682Y-10099540D02*
X13253158Y-10070968D01*
X13253158Y-10070968D02*
X13243634Y-10051921D01*
X13243634Y-10051921D02*
X13224587Y-10023349D01*
X13224587Y-10023349D02*
X13215063Y-10013826D01*
D12*
X8440000Y-10414913D02*
G75*
G03*
X8440000Y-10414913I-40000J0D01*
G01*
D10*
X8738872Y-10306397D02*
X8757920Y-10306397D01*
X8757920Y-10306397D02*
X8776967Y-10315921D01*
X8776967Y-10315921D02*
X8786491Y-10325445D01*
X8786491Y-10325445D02*
X8796015Y-10344492D01*
X8796015Y-10344492D02*
X8805539Y-10382587D01*
X8805539Y-10382587D02*
X8805539Y-10430207D01*
X8805539Y-10430207D02*
X8796015Y-10468302D01*
X8796015Y-10468302D02*
X8786491Y-10487349D01*
X8786491Y-10487349D02*
X8776967Y-10496873D01*
X8776967Y-10496873D02*
X8757920Y-10506397D01*
X8757920Y-10506397D02*
X8738872Y-10506397D01*
X8738872Y-10506397D02*
X8719824Y-10496873D01*
X8719824Y-10496873D02*
X8710301Y-10487349D01*
X8710301Y-10487349D02*
X8700777Y-10468302D01*
X8700777Y-10468302D02*
X8691253Y-10430207D01*
X8691253Y-10430207D02*
X8691253Y-10382587D01*
X8691253Y-10382587D02*
X8700777Y-10344492D01*
X8700777Y-10344492D02*
X8710301Y-10325445D01*
X8710301Y-10325445D02*
X8719824Y-10315921D01*
X8719824Y-10315921D02*
X8738872Y-10306397D01*
X8891253Y-10487349D02*
X8900777Y-10496873D01*
X8900777Y-10496873D02*
X8891253Y-10506397D01*
X8891253Y-10506397D02*
X8881729Y-10496873D01*
X8881729Y-10496873D02*
X8891253Y-10487349D01*
X8891253Y-10487349D02*
X8891253Y-10506397D01*
X9015063Y-10392111D02*
X8996015Y-10382587D01*
X8996015Y-10382587D02*
X8986491Y-10373064D01*
X8986491Y-10373064D02*
X8976967Y-10354016D01*
X8976967Y-10354016D02*
X8976967Y-10344492D01*
X8976967Y-10344492D02*
X8986491Y-10325445D01*
X8986491Y-10325445D02*
X8996015Y-10315921D01*
X8996015Y-10315921D02*
X9015063Y-10306397D01*
X9015063Y-10306397D02*
X9053158Y-10306397D01*
X9053158Y-10306397D02*
X9072205Y-10315921D01*
X9072205Y-10315921D02*
X9081729Y-10325445D01*
X9081729Y-10325445D02*
X9091253Y-10344492D01*
X9091253Y-10344492D02*
X9091253Y-10354016D01*
X9091253Y-10354016D02*
X9081729Y-10373064D01*
X9081729Y-10373064D02*
X9072205Y-10382587D01*
X9072205Y-10382587D02*
X9053158Y-10392111D01*
X9053158Y-10392111D02*
X9015063Y-10392111D01*
X9015063Y-10392111D02*
X8996015Y-10401635D01*
X8996015Y-10401635D02*
X8986491Y-10411159D01*
X8986491Y-10411159D02*
X8976967Y-10430207D01*
X8976967Y-10430207D02*
X8976967Y-10468302D01*
X8976967Y-10468302D02*
X8986491Y-10487349D01*
X8986491Y-10487349D02*
X8996015Y-10496873D01*
X8996015Y-10496873D02*
X9015063Y-10506397D01*
X9015063Y-10506397D02*
X9053158Y-10506397D01*
X9053158Y-10506397D02*
X9072205Y-10496873D01*
X9072205Y-10496873D02*
X9081729Y-10487349D01*
X9081729Y-10487349D02*
X9091253Y-10468302D01*
X9091253Y-10468302D02*
X9091253Y-10430207D01*
X9091253Y-10430207D02*
X9081729Y-10411159D01*
X9081729Y-10411159D02*
X9072205Y-10401635D01*
X9072205Y-10401635D02*
X9053158Y-10392111D01*
X9215063Y-10306397D02*
X9234110Y-10306397D01*
X9234110Y-10306397D02*
X9253158Y-10315921D01*
X9253158Y-10315921D02*
X9262682Y-10325445D01*
X9262682Y-10325445D02*
X9272205Y-10344492D01*
X9272205Y-10344492D02*
X9281729Y-10382587D01*
X9281729Y-10382587D02*
X9281729Y-10430207D01*
X9281729Y-10430207D02*
X9272205Y-10468302D01*
X9272205Y-10468302D02*
X9262682Y-10487349D01*
X9262682Y-10487349D02*
X9253158Y-10496873D01*
X9253158Y-10496873D02*
X9234110Y-10506397D01*
X9234110Y-10506397D02*
X9215063Y-10506397D01*
X9215063Y-10506397D02*
X9196015Y-10496873D01*
X9196015Y-10496873D02*
X9186491Y-10487349D01*
X9186491Y-10487349D02*
X9176967Y-10468302D01*
X9176967Y-10468302D02*
X9167444Y-10430207D01*
X9167444Y-10430207D02*
X9167444Y-10382587D01*
X9167444Y-10382587D02*
X9176967Y-10344492D01*
X9176967Y-10344492D02*
X9186491Y-10325445D01*
X9186491Y-10325445D02*
X9196015Y-10315921D01*
X9196015Y-10315921D02*
X9215063Y-10306397D01*
X9405539Y-10306397D02*
X9424586Y-10306397D01*
X9424586Y-10306397D02*
X9443634Y-10315921D01*
X9443634Y-10315921D02*
X9453158Y-10325445D01*
X9453158Y-10325445D02*
X9462682Y-10344492D01*
X9462682Y-10344492D02*
X9472205Y-10382587D01*
X9472205Y-10382587D02*
X9472205Y-10430207D01*
X9472205Y-10430207D02*
X9462682Y-10468302D01*
X9462682Y-10468302D02*
X9453158Y-10487349D01*
X9453158Y-10487349D02*
X9443634Y-10496873D01*
X9443634Y-10496873D02*
X9424586Y-10506397D01*
X9424586Y-10506397D02*
X9405539Y-10506397D01*
X9405539Y-10506397D02*
X9386491Y-10496873D01*
X9386491Y-10496873D02*
X9376967Y-10487349D01*
X9376967Y-10487349D02*
X9367444Y-10468302D01*
X9367444Y-10468302D02*
X9357920Y-10430207D01*
X9357920Y-10430207D02*
X9357920Y-10382587D01*
X9357920Y-10382587D02*
X9367444Y-10344492D01*
X9367444Y-10344492D02*
X9376967Y-10325445D01*
X9376967Y-10325445D02*
X9386491Y-10315921D01*
X9386491Y-10315921D02*
X9405539Y-10306397D01*
X9557920Y-10506397D02*
X9557920Y-10373064D01*
X9557920Y-10392111D02*
X9567444Y-10382587D01*
X9567444Y-10382587D02*
X9586491Y-10373064D01*
X9586491Y-10373064D02*
X9615063Y-10373064D01*
X9615063Y-10373064D02*
X9634110Y-10382587D01*
X9634110Y-10382587D02*
X9643634Y-10401635D01*
X9643634Y-10401635D02*
X9643634Y-10506397D01*
X9643634Y-10401635D02*
X9653158Y-10382587D01*
X9653158Y-10382587D02*
X9672205Y-10373064D01*
X9672205Y-10373064D02*
X9700777Y-10373064D01*
X9700777Y-10373064D02*
X9719825Y-10382587D01*
X9719825Y-10382587D02*
X9729348Y-10401635D01*
X9729348Y-10401635D02*
X9729348Y-10506397D01*
X9824586Y-10506397D02*
X9824586Y-10373064D01*
X9824586Y-10392111D02*
X9834110Y-10382587D01*
X9834110Y-10382587D02*
X9853158Y-10373064D01*
X9853158Y-10373064D02*
X9881729Y-10373064D01*
X9881729Y-10373064D02*
X9900777Y-10382587D01*
X9900777Y-10382587D02*
X9910301Y-10401635D01*
X9910301Y-10401635D02*
X9910301Y-10506397D01*
X9910301Y-10401635D02*
X9919825Y-10382587D01*
X9919825Y-10382587D02*
X9938872Y-10373064D01*
X9938872Y-10373064D02*
X9967444Y-10373064D01*
X9967444Y-10373064D02*
X9986491Y-10382587D01*
X9986491Y-10382587D02*
X9996015Y-10401635D01*
X9996015Y-10401635D02*
X9996015Y-10506397D01*
X10386491Y-10296873D02*
X10215063Y-10554016D01*
X10643634Y-10306397D02*
X10662682Y-10306397D01*
X10662682Y-10306397D02*
X10681729Y-10315921D01*
X10681729Y-10315921D02*
X10691253Y-10325445D01*
X10691253Y-10325445D02*
X10700777Y-10344492D01*
X10700777Y-10344492D02*
X10710301Y-10382587D01*
X10710301Y-10382587D02*
X10710301Y-10430207D01*
X10710301Y-10430207D02*
X10700777Y-10468302D01*
X10700777Y-10468302D02*
X10691253Y-10487349D01*
X10691253Y-10487349D02*
X10681729Y-10496873D01*
X10681729Y-10496873D02*
X10662682Y-10506397D01*
X10662682Y-10506397D02*
X10643634Y-10506397D01*
X10643634Y-10506397D02*
X10624587Y-10496873D01*
X10624587Y-10496873D02*
X10615063Y-10487349D01*
X10615063Y-10487349D02*
X10605539Y-10468302D01*
X10605539Y-10468302D02*
X10596015Y-10430207D01*
X10596015Y-10430207D02*
X10596015Y-10382587D01*
X10596015Y-10382587D02*
X10605539Y-10344492D01*
X10605539Y-10344492D02*
X10615063Y-10325445D01*
X10615063Y-10325445D02*
X10624587Y-10315921D01*
X10624587Y-10315921D02*
X10643634Y-10306397D01*
X10796015Y-10487349D02*
X10805539Y-10496873D01*
X10805539Y-10496873D02*
X10796015Y-10506397D01*
X10796015Y-10506397D02*
X10786491Y-10496873D01*
X10786491Y-10496873D02*
X10796015Y-10487349D01*
X10796015Y-10487349D02*
X10796015Y-10506397D01*
X10929348Y-10306397D02*
X10948396Y-10306397D01*
X10948396Y-10306397D02*
X10967444Y-10315921D01*
X10967444Y-10315921D02*
X10976968Y-10325445D01*
X10976968Y-10325445D02*
X10986491Y-10344492D01*
X10986491Y-10344492D02*
X10996015Y-10382587D01*
X10996015Y-10382587D02*
X10996015Y-10430207D01*
X10996015Y-10430207D02*
X10986491Y-10468302D01*
X10986491Y-10468302D02*
X10976968Y-10487349D01*
X10976968Y-10487349D02*
X10967444Y-10496873D01*
X10967444Y-10496873D02*
X10948396Y-10506397D01*
X10948396Y-10506397D02*
X10929348Y-10506397D01*
X10929348Y-10506397D02*
X10910301Y-10496873D01*
X10910301Y-10496873D02*
X10900777Y-10487349D01*
X10900777Y-10487349D02*
X10891253Y-10468302D01*
X10891253Y-10468302D02*
X10881729Y-10430207D01*
X10881729Y-10430207D02*
X10881729Y-10382587D01*
X10881729Y-10382587D02*
X10891253Y-10344492D01*
X10891253Y-10344492D02*
X10900777Y-10325445D01*
X10900777Y-10325445D02*
X10910301Y-10315921D01*
X10910301Y-10315921D02*
X10929348Y-10306397D01*
X11062682Y-10306397D02*
X11186491Y-10306397D01*
X11186491Y-10306397D02*
X11119825Y-10382587D01*
X11119825Y-10382587D02*
X11148396Y-10382587D01*
X11148396Y-10382587D02*
X11167444Y-10392111D01*
X11167444Y-10392111D02*
X11176968Y-10401635D01*
X11176968Y-10401635D02*
X11186491Y-10420683D01*
X11186491Y-10420683D02*
X11186491Y-10468302D01*
X11186491Y-10468302D02*
X11176968Y-10487349D01*
X11176968Y-10487349D02*
X11167444Y-10496873D01*
X11167444Y-10496873D02*
X11148396Y-10506397D01*
X11148396Y-10506397D02*
X11091253Y-10506397D01*
X11091253Y-10506397D02*
X11072206Y-10496873D01*
X11072206Y-10496873D02*
X11062682Y-10487349D01*
X11376967Y-10506397D02*
X11262682Y-10506397D01*
X11319825Y-10506397D02*
X11319825Y-10306397D01*
X11319825Y-10306397D02*
X11300777Y-10334968D01*
X11300777Y-10334968D02*
X11281729Y-10354016D01*
X11281729Y-10354016D02*
X11262682Y-10363540D01*
X11557920Y-10306397D02*
X11462682Y-10306397D01*
X11462682Y-10306397D02*
X11453158Y-10401635D01*
X11453158Y-10401635D02*
X11462682Y-10392111D01*
X11462682Y-10392111D02*
X11481729Y-10382587D01*
X11481729Y-10382587D02*
X11529348Y-10382587D01*
X11529348Y-10382587D02*
X11548396Y-10392111D01*
X11548396Y-10392111D02*
X11557920Y-10401635D01*
X11557920Y-10401635D02*
X11567444Y-10420683D01*
X11567444Y-10420683D02*
X11567444Y-10468302D01*
X11567444Y-10468302D02*
X11557920Y-10487349D01*
X11557920Y-10487349D02*
X11548396Y-10496873D01*
X11548396Y-10496873D02*
X11529348Y-10506397D01*
X11529348Y-10506397D02*
X11481729Y-10506397D01*
X11481729Y-10506397D02*
X11462682Y-10496873D01*
X11462682Y-10496873D02*
X11453158Y-10487349D01*
X11643634Y-10306397D02*
X11643634Y-10344492D01*
X11719825Y-10306397D02*
X11719825Y-10344492D01*
X12015063Y-10582587D02*
X12005539Y-10573064D01*
X12005539Y-10573064D02*
X11986491Y-10544492D01*
X11986491Y-10544492D02*
X11976968Y-10525445D01*
X11976968Y-10525445D02*
X11967444Y-10496873D01*
X11967444Y-10496873D02*
X11957920Y-10449254D01*
X11957920Y-10449254D02*
X11957920Y-10411159D01*
X11957920Y-10411159D02*
X11967444Y-10363540D01*
X11967444Y-10363540D02*
X11976968Y-10334968D01*
X11976968Y-10334968D02*
X11986491Y-10315921D01*
X11986491Y-10315921D02*
X12005539Y-10287349D01*
X12005539Y-10287349D02*
X12015063Y-10277826D01*
X12081729Y-10325445D02*
X12091253Y-10315921D01*
X12091253Y-10315921D02*
X12110301Y-10306397D01*
X12110301Y-10306397D02*
X12157920Y-10306397D01*
X12157920Y-10306397D02*
X12176968Y-10315921D01*
X12176968Y-10315921D02*
X12186491Y-10325445D01*
X12186491Y-10325445D02*
X12196015Y-10344492D01*
X12196015Y-10344492D02*
X12196015Y-10363540D01*
X12196015Y-10363540D02*
X12186491Y-10392111D01*
X12186491Y-10392111D02*
X12072206Y-10506397D01*
X12072206Y-10506397D02*
X12196015Y-10506397D01*
X12434110Y-10506397D02*
X12434110Y-10306397D01*
X12519825Y-10506397D02*
X12519825Y-10401635D01*
X12519825Y-10401635D02*
X12510301Y-10382587D01*
X12510301Y-10382587D02*
X12491253Y-10373064D01*
X12491253Y-10373064D02*
X12462682Y-10373064D01*
X12462682Y-10373064D02*
X12443634Y-10382587D01*
X12443634Y-10382587D02*
X12434110Y-10392111D01*
X12643634Y-10506397D02*
X12624587Y-10496873D01*
X12624587Y-10496873D02*
X12615063Y-10487349D01*
X12615063Y-10487349D02*
X12605539Y-10468302D01*
X12605539Y-10468302D02*
X12605539Y-10411159D01*
X12605539Y-10411159D02*
X12615063Y-10392111D01*
X12615063Y-10392111D02*
X12624587Y-10382587D01*
X12624587Y-10382587D02*
X12643634Y-10373064D01*
X12643634Y-10373064D02*
X12672206Y-10373064D01*
X12672206Y-10373064D02*
X12691253Y-10382587D01*
X12691253Y-10382587D02*
X12700777Y-10392111D01*
X12700777Y-10392111D02*
X12710301Y-10411159D01*
X12710301Y-10411159D02*
X12710301Y-10468302D01*
X12710301Y-10468302D02*
X12700777Y-10487349D01*
X12700777Y-10487349D02*
X12691253Y-10496873D01*
X12691253Y-10496873D02*
X12672206Y-10506397D01*
X12672206Y-10506397D02*
X12643634Y-10506397D01*
X12824587Y-10506397D02*
X12805539Y-10496873D01*
X12805539Y-10496873D02*
X12796015Y-10477826D01*
X12796015Y-10477826D02*
X12796015Y-10306397D01*
X12976968Y-10496873D02*
X12957920Y-10506397D01*
X12957920Y-10506397D02*
X12919825Y-10506397D01*
X12919825Y-10506397D02*
X12900777Y-10496873D01*
X12900777Y-10496873D02*
X12891253Y-10477826D01*
X12891253Y-10477826D02*
X12891253Y-10401635D01*
X12891253Y-10401635D02*
X12900777Y-10382587D01*
X12900777Y-10382587D02*
X12919825Y-10373064D01*
X12919825Y-10373064D02*
X12957920Y-10373064D01*
X12957920Y-10373064D02*
X12976968Y-10382587D01*
X12976968Y-10382587D02*
X12986491Y-10401635D01*
X12986491Y-10401635D02*
X12986491Y-10420683D01*
X12986491Y-10420683D02*
X12891253Y-10439730D01*
X13062682Y-10496873D02*
X13081730Y-10506397D01*
X13081730Y-10506397D02*
X13119825Y-10506397D01*
X13119825Y-10506397D02*
X13138872Y-10496873D01*
X13138872Y-10496873D02*
X13148396Y-10477826D01*
X13148396Y-10477826D02*
X13148396Y-10468302D01*
X13148396Y-10468302D02*
X13138872Y-10449254D01*
X13138872Y-10449254D02*
X13119825Y-10439730D01*
X13119825Y-10439730D02*
X13091253Y-10439730D01*
X13091253Y-10439730D02*
X13072206Y-10430207D01*
X13072206Y-10430207D02*
X13062682Y-10411159D01*
X13062682Y-10411159D02*
X13062682Y-10401635D01*
X13062682Y-10401635D02*
X13072206Y-10382587D01*
X13072206Y-10382587D02*
X13091253Y-10373064D01*
X13091253Y-10373064D02*
X13119825Y-10373064D01*
X13119825Y-10373064D02*
X13138872Y-10382587D01*
X13215063Y-10582587D02*
X13224587Y-10573064D01*
X13224587Y-10573064D02*
X13243634Y-10544492D01*
X13243634Y-10544492D02*
X13253158Y-10525445D01*
X13253158Y-10525445D02*
X13262682Y-10496873D01*
X13262682Y-10496873D02*
X13272206Y-10449254D01*
X13272206Y-10449254D02*
X13272206Y-10411159D01*
X13272206Y-10411159D02*
X13262682Y-10363540D01*
X13262682Y-10363540D02*
X13253158Y-10334968D01*
X13253158Y-10334968D02*
X13243634Y-10315921D01*
X13243634Y-10315921D02*
X13224587Y-10287349D01*
X13224587Y-10287349D02*
X13215063Y-10277826D01*
D13*
X8399360Y-10638273D02*
X8399360Y-10719553D01*
X8358720Y-10678913D02*
X8440000Y-10678913D01*
D10*
X8738872Y-10570397D02*
X8757920Y-10570397D01*
X8757920Y-10570397D02*
X8776967Y-10579921D01*
X8776967Y-10579921D02*
X8786491Y-10589445D01*
X8786491Y-10589445D02*
X8796015Y-10608492D01*
X8796015Y-10608492D02*
X8805539Y-10646587D01*
X8805539Y-10646587D02*
X8805539Y-10694207D01*
X8805539Y-10694207D02*
X8796015Y-10732302D01*
X8796015Y-10732302D02*
X8786491Y-10751349D01*
X8786491Y-10751349D02*
X8776967Y-10760873D01*
X8776967Y-10760873D02*
X8757920Y-10770397D01*
X8757920Y-10770397D02*
X8738872Y-10770397D01*
X8738872Y-10770397D02*
X8719824Y-10760873D01*
X8719824Y-10760873D02*
X8710301Y-10751349D01*
X8710301Y-10751349D02*
X8700777Y-10732302D01*
X8700777Y-10732302D02*
X8691253Y-10694207D01*
X8691253Y-10694207D02*
X8691253Y-10646587D01*
X8691253Y-10646587D02*
X8700777Y-10608492D01*
X8700777Y-10608492D02*
X8710301Y-10589445D01*
X8710301Y-10589445D02*
X8719824Y-10579921D01*
X8719824Y-10579921D02*
X8738872Y-10570397D01*
X8891253Y-10751349D02*
X8900777Y-10760873D01*
X8900777Y-10760873D02*
X8891253Y-10770397D01*
X8891253Y-10770397D02*
X8881729Y-10760873D01*
X8881729Y-10760873D02*
X8891253Y-10751349D01*
X8891253Y-10751349D02*
X8891253Y-10770397D01*
X9015063Y-10656111D02*
X8996015Y-10646587D01*
X8996015Y-10646587D02*
X8986491Y-10637064D01*
X8986491Y-10637064D02*
X8976967Y-10618016D01*
X8976967Y-10618016D02*
X8976967Y-10608492D01*
X8976967Y-10608492D02*
X8986491Y-10589445D01*
X8986491Y-10589445D02*
X8996015Y-10579921D01*
X8996015Y-10579921D02*
X9015063Y-10570397D01*
X9015063Y-10570397D02*
X9053158Y-10570397D01*
X9053158Y-10570397D02*
X9072205Y-10579921D01*
X9072205Y-10579921D02*
X9081729Y-10589445D01*
X9081729Y-10589445D02*
X9091253Y-10608492D01*
X9091253Y-10608492D02*
X9091253Y-10618016D01*
X9091253Y-10618016D02*
X9081729Y-10637064D01*
X9081729Y-10637064D02*
X9072205Y-10646587D01*
X9072205Y-10646587D02*
X9053158Y-10656111D01*
X9053158Y-10656111D02*
X9015063Y-10656111D01*
X9015063Y-10656111D02*
X8996015Y-10665635D01*
X8996015Y-10665635D02*
X8986491Y-10675159D01*
X8986491Y-10675159D02*
X8976967Y-10694207D01*
X8976967Y-10694207D02*
X8976967Y-10732302D01*
X8976967Y-10732302D02*
X8986491Y-10751349D01*
X8986491Y-10751349D02*
X8996015Y-10760873D01*
X8996015Y-10760873D02*
X9015063Y-10770397D01*
X9015063Y-10770397D02*
X9053158Y-10770397D01*
X9053158Y-10770397D02*
X9072205Y-10760873D01*
X9072205Y-10760873D02*
X9081729Y-10751349D01*
X9081729Y-10751349D02*
X9091253Y-10732302D01*
X9091253Y-10732302D02*
X9091253Y-10694207D01*
X9091253Y-10694207D02*
X9081729Y-10675159D01*
X9081729Y-10675159D02*
X9072205Y-10665635D01*
X9072205Y-10665635D02*
X9053158Y-10656111D01*
X9281729Y-10770397D02*
X9167444Y-10770397D01*
X9224586Y-10770397D02*
X9224586Y-10570397D01*
X9224586Y-10570397D02*
X9205539Y-10598968D01*
X9205539Y-10598968D02*
X9186491Y-10618016D01*
X9186491Y-10618016D02*
X9167444Y-10627540D01*
X9348396Y-10570397D02*
X9472205Y-10570397D01*
X9472205Y-10570397D02*
X9405539Y-10646587D01*
X9405539Y-10646587D02*
X9434110Y-10646587D01*
X9434110Y-10646587D02*
X9453158Y-10656111D01*
X9453158Y-10656111D02*
X9462682Y-10665635D01*
X9462682Y-10665635D02*
X9472205Y-10684683D01*
X9472205Y-10684683D02*
X9472205Y-10732302D01*
X9472205Y-10732302D02*
X9462682Y-10751349D01*
X9462682Y-10751349D02*
X9453158Y-10760873D01*
X9453158Y-10760873D02*
X9434110Y-10770397D01*
X9434110Y-10770397D02*
X9376967Y-10770397D01*
X9376967Y-10770397D02*
X9357920Y-10760873D01*
X9357920Y-10760873D02*
X9348396Y-10751349D01*
X9557920Y-10770397D02*
X9557920Y-10637064D01*
X9557920Y-10656111D02*
X9567444Y-10646587D01*
X9567444Y-10646587D02*
X9586491Y-10637064D01*
X9586491Y-10637064D02*
X9615063Y-10637064D01*
X9615063Y-10637064D02*
X9634110Y-10646587D01*
X9634110Y-10646587D02*
X9643634Y-10665635D01*
X9643634Y-10665635D02*
X9643634Y-10770397D01*
X9643634Y-10665635D02*
X9653158Y-10646587D01*
X9653158Y-10646587D02*
X9672205Y-10637064D01*
X9672205Y-10637064D02*
X9700777Y-10637064D01*
X9700777Y-10637064D02*
X9719825Y-10646587D01*
X9719825Y-10646587D02*
X9729348Y-10665635D01*
X9729348Y-10665635D02*
X9729348Y-10770397D01*
X9824586Y-10770397D02*
X9824586Y-10637064D01*
X9824586Y-10656111D02*
X9834110Y-10646587D01*
X9834110Y-10646587D02*
X9853158Y-10637064D01*
X9853158Y-10637064D02*
X9881729Y-10637064D01*
X9881729Y-10637064D02*
X9900777Y-10646587D01*
X9900777Y-10646587D02*
X9910301Y-10665635D01*
X9910301Y-10665635D02*
X9910301Y-10770397D01*
X9910301Y-10665635D02*
X9919825Y-10646587D01*
X9919825Y-10646587D02*
X9938872Y-10637064D01*
X9938872Y-10637064D02*
X9967444Y-10637064D01*
X9967444Y-10637064D02*
X9986491Y-10646587D01*
X9986491Y-10646587D02*
X9996015Y-10665635D01*
X9996015Y-10665635D02*
X9996015Y-10770397D01*
X10386491Y-10560873D02*
X10215063Y-10818016D01*
X10643634Y-10570397D02*
X10662682Y-10570397D01*
X10662682Y-10570397D02*
X10681729Y-10579921D01*
X10681729Y-10579921D02*
X10691253Y-10589445D01*
X10691253Y-10589445D02*
X10700777Y-10608492D01*
X10700777Y-10608492D02*
X10710301Y-10646587D01*
X10710301Y-10646587D02*
X10710301Y-10694207D01*
X10710301Y-10694207D02*
X10700777Y-10732302D01*
X10700777Y-10732302D02*
X10691253Y-10751349D01*
X10691253Y-10751349D02*
X10681729Y-10760873D01*
X10681729Y-10760873D02*
X10662682Y-10770397D01*
X10662682Y-10770397D02*
X10643634Y-10770397D01*
X10643634Y-10770397D02*
X10624587Y-10760873D01*
X10624587Y-10760873D02*
X10615063Y-10751349D01*
X10615063Y-10751349D02*
X10605539Y-10732302D01*
X10605539Y-10732302D02*
X10596015Y-10694207D01*
X10596015Y-10694207D02*
X10596015Y-10646587D01*
X10596015Y-10646587D02*
X10605539Y-10608492D01*
X10605539Y-10608492D02*
X10615063Y-10589445D01*
X10615063Y-10589445D02*
X10624587Y-10579921D01*
X10624587Y-10579921D02*
X10643634Y-10570397D01*
X10796015Y-10751349D02*
X10805539Y-10760873D01*
X10805539Y-10760873D02*
X10796015Y-10770397D01*
X10796015Y-10770397D02*
X10786491Y-10760873D01*
X10786491Y-10760873D02*
X10796015Y-10751349D01*
X10796015Y-10751349D02*
X10796015Y-10770397D01*
X10929348Y-10570397D02*
X10948396Y-10570397D01*
X10948396Y-10570397D02*
X10967444Y-10579921D01*
X10967444Y-10579921D02*
X10976968Y-10589445D01*
X10976968Y-10589445D02*
X10986491Y-10608492D01*
X10986491Y-10608492D02*
X10996015Y-10646587D01*
X10996015Y-10646587D02*
X10996015Y-10694207D01*
X10996015Y-10694207D02*
X10986491Y-10732302D01*
X10986491Y-10732302D02*
X10976968Y-10751349D01*
X10976968Y-10751349D02*
X10967444Y-10760873D01*
X10967444Y-10760873D02*
X10948396Y-10770397D01*
X10948396Y-10770397D02*
X10929348Y-10770397D01*
X10929348Y-10770397D02*
X10910301Y-10760873D01*
X10910301Y-10760873D02*
X10900777Y-10751349D01*
X10900777Y-10751349D02*
X10891253Y-10732302D01*
X10891253Y-10732302D02*
X10881729Y-10694207D01*
X10881729Y-10694207D02*
X10881729Y-10646587D01*
X10881729Y-10646587D02*
X10891253Y-10608492D01*
X10891253Y-10608492D02*
X10900777Y-10589445D01*
X10900777Y-10589445D02*
X10910301Y-10579921D01*
X10910301Y-10579921D02*
X10929348Y-10570397D01*
X11062682Y-10570397D02*
X11186491Y-10570397D01*
X11186491Y-10570397D02*
X11119825Y-10646587D01*
X11119825Y-10646587D02*
X11148396Y-10646587D01*
X11148396Y-10646587D02*
X11167444Y-10656111D01*
X11167444Y-10656111D02*
X11176968Y-10665635D01*
X11176968Y-10665635D02*
X11186491Y-10684683D01*
X11186491Y-10684683D02*
X11186491Y-10732302D01*
X11186491Y-10732302D02*
X11176968Y-10751349D01*
X11176968Y-10751349D02*
X11167444Y-10760873D01*
X11167444Y-10760873D02*
X11148396Y-10770397D01*
X11148396Y-10770397D02*
X11091253Y-10770397D01*
X11091253Y-10770397D02*
X11072206Y-10760873D01*
X11072206Y-10760873D02*
X11062682Y-10751349D01*
X11262682Y-10589445D02*
X11272206Y-10579921D01*
X11272206Y-10579921D02*
X11291253Y-10570397D01*
X11291253Y-10570397D02*
X11338872Y-10570397D01*
X11338872Y-10570397D02*
X11357920Y-10579921D01*
X11357920Y-10579921D02*
X11367444Y-10589445D01*
X11367444Y-10589445D02*
X11376967Y-10608492D01*
X11376967Y-10608492D02*
X11376967Y-10627540D01*
X11376967Y-10627540D02*
X11367444Y-10656111D01*
X11367444Y-10656111D02*
X11253158Y-10770397D01*
X11253158Y-10770397D02*
X11376967Y-10770397D01*
X11500777Y-10570397D02*
X11519825Y-10570397D01*
X11519825Y-10570397D02*
X11538872Y-10579921D01*
X11538872Y-10579921D02*
X11548396Y-10589445D01*
X11548396Y-10589445D02*
X11557920Y-10608492D01*
X11557920Y-10608492D02*
X11567444Y-10646587D01*
X11567444Y-10646587D02*
X11567444Y-10694207D01*
X11567444Y-10694207D02*
X11557920Y-10732302D01*
X11557920Y-10732302D02*
X11548396Y-10751349D01*
X11548396Y-10751349D02*
X11538872Y-10760873D01*
X11538872Y-10760873D02*
X11519825Y-10770397D01*
X11519825Y-10770397D02*
X11500777Y-10770397D01*
X11500777Y-10770397D02*
X11481729Y-10760873D01*
X11481729Y-10760873D02*
X11472206Y-10751349D01*
X11472206Y-10751349D02*
X11462682Y-10732302D01*
X11462682Y-10732302D02*
X11453158Y-10694207D01*
X11453158Y-10694207D02*
X11453158Y-10646587D01*
X11453158Y-10646587D02*
X11462682Y-10608492D01*
X11462682Y-10608492D02*
X11472206Y-10589445D01*
X11472206Y-10589445D02*
X11481729Y-10579921D01*
X11481729Y-10579921D02*
X11500777Y-10570397D01*
X11643634Y-10570397D02*
X11643634Y-10608492D01*
X11719825Y-10570397D02*
X11719825Y-10608492D01*
X12015063Y-10846587D02*
X12005539Y-10837064D01*
X12005539Y-10837064D02*
X11986491Y-10808492D01*
X11986491Y-10808492D02*
X11976968Y-10789445D01*
X11976968Y-10789445D02*
X11967444Y-10760873D01*
X11967444Y-10760873D02*
X11957920Y-10713254D01*
X11957920Y-10713254D02*
X11957920Y-10675159D01*
X11957920Y-10675159D02*
X11967444Y-10627540D01*
X11967444Y-10627540D02*
X11976968Y-10598968D01*
X11976968Y-10598968D02*
X11986491Y-10579921D01*
X11986491Y-10579921D02*
X12005539Y-10551349D01*
X12005539Y-10551349D02*
X12015063Y-10541826D01*
X12176968Y-10570397D02*
X12138872Y-10570397D01*
X12138872Y-10570397D02*
X12119825Y-10579921D01*
X12119825Y-10579921D02*
X12110301Y-10589445D01*
X12110301Y-10589445D02*
X12091253Y-10618016D01*
X12091253Y-10618016D02*
X12081729Y-10656111D01*
X12081729Y-10656111D02*
X12081729Y-10732302D01*
X12081729Y-10732302D02*
X12091253Y-10751349D01*
X12091253Y-10751349D02*
X12100777Y-10760873D01*
X12100777Y-10760873D02*
X12119825Y-10770397D01*
X12119825Y-10770397D02*
X12157920Y-10770397D01*
X12157920Y-10770397D02*
X12176968Y-10760873D01*
X12176968Y-10760873D02*
X12186491Y-10751349D01*
X12186491Y-10751349D02*
X12196015Y-10732302D01*
X12196015Y-10732302D02*
X12196015Y-10684683D01*
X12196015Y-10684683D02*
X12186491Y-10665635D01*
X12186491Y-10665635D02*
X12176968Y-10656111D01*
X12176968Y-10656111D02*
X12157920Y-10646587D01*
X12157920Y-10646587D02*
X12119825Y-10646587D01*
X12119825Y-10646587D02*
X12100777Y-10656111D01*
X12100777Y-10656111D02*
X12091253Y-10665635D01*
X12091253Y-10665635D02*
X12081729Y-10684683D01*
X12434110Y-10770397D02*
X12434110Y-10570397D01*
X12519825Y-10770397D02*
X12519825Y-10665635D01*
X12519825Y-10665635D02*
X12510301Y-10646587D01*
X12510301Y-10646587D02*
X12491253Y-10637064D01*
X12491253Y-10637064D02*
X12462682Y-10637064D01*
X12462682Y-10637064D02*
X12443634Y-10646587D01*
X12443634Y-10646587D02*
X12434110Y-10656111D01*
X12643634Y-10770397D02*
X12624587Y-10760873D01*
X12624587Y-10760873D02*
X12615063Y-10751349D01*
X12615063Y-10751349D02*
X12605539Y-10732302D01*
X12605539Y-10732302D02*
X12605539Y-10675159D01*
X12605539Y-10675159D02*
X12615063Y-10656111D01*
X12615063Y-10656111D02*
X12624587Y-10646587D01*
X12624587Y-10646587D02*
X12643634Y-10637064D01*
X12643634Y-10637064D02*
X12672206Y-10637064D01*
X12672206Y-10637064D02*
X12691253Y-10646587D01*
X12691253Y-10646587D02*
X12700777Y-10656111D01*
X12700777Y-10656111D02*
X12710301Y-10675159D01*
X12710301Y-10675159D02*
X12710301Y-10732302D01*
X12710301Y-10732302D02*
X12700777Y-10751349D01*
X12700777Y-10751349D02*
X12691253Y-10760873D01*
X12691253Y-10760873D02*
X12672206Y-10770397D01*
X12672206Y-10770397D02*
X12643634Y-10770397D01*
X12824587Y-10770397D02*
X12805539Y-10760873D01*
X12805539Y-10760873D02*
X12796015Y-10741826D01*
X12796015Y-10741826D02*
X12796015Y-10570397D01*
X12976968Y-10760873D02*
X12957920Y-10770397D01*
X12957920Y-10770397D02*
X12919825Y-10770397D01*
X12919825Y-10770397D02*
X12900777Y-10760873D01*
X12900777Y-10760873D02*
X12891253Y-10741826D01*
X12891253Y-10741826D02*
X12891253Y-10665635D01*
X12891253Y-10665635D02*
X12900777Y-10646587D01*
X12900777Y-10646587D02*
X12919825Y-10637064D01*
X12919825Y-10637064D02*
X12957920Y-10637064D01*
X12957920Y-10637064D02*
X12976968Y-10646587D01*
X12976968Y-10646587D02*
X12986491Y-10665635D01*
X12986491Y-10665635D02*
X12986491Y-10684683D01*
X12986491Y-10684683D02*
X12891253Y-10703730D01*
X13062682Y-10760873D02*
X13081730Y-10770397D01*
X13081730Y-10770397D02*
X13119825Y-10770397D01*
X13119825Y-10770397D02*
X13138872Y-10760873D01*
X13138872Y-10760873D02*
X13148396Y-10741826D01*
X13148396Y-10741826D02*
X13148396Y-10732302D01*
X13148396Y-10732302D02*
X13138872Y-10713254D01*
X13138872Y-10713254D02*
X13119825Y-10703730D01*
X13119825Y-10703730D02*
X13091253Y-10703730D01*
X13091253Y-10703730D02*
X13072206Y-10694207D01*
X13072206Y-10694207D02*
X13062682Y-10675159D01*
X13062682Y-10675159D02*
X13062682Y-10665635D01*
X13062682Y-10665635D02*
X13072206Y-10646587D01*
X13072206Y-10646587D02*
X13091253Y-10637064D01*
X13091253Y-10637064D02*
X13119825Y-10637064D01*
X13119825Y-10637064D02*
X13138872Y-10646587D01*
X13215063Y-10846587D02*
X13224587Y-10837064D01*
X13224587Y-10837064D02*
X13243634Y-10808492D01*
X13243634Y-10808492D02*
X13253158Y-10789445D01*
X13253158Y-10789445D02*
X13262682Y-10760873D01*
X13262682Y-10760873D02*
X13272206Y-10713254D01*
X13272206Y-10713254D02*
X13272206Y-10675159D01*
X13272206Y-10675159D02*
X13262682Y-10627540D01*
X13262682Y-10627540D02*
X13253158Y-10598968D01*
X13253158Y-10598968D02*
X13243634Y-10579921D01*
X13243634Y-10579921D02*
X13224587Y-10551349D01*
X13224587Y-10551349D02*
X13215063Y-10541826D01*
D14*
X8425356Y-10978269D02*
X8425356Y-10907558D01*
X8354644Y-10907558D01*
X8354644Y-10978269D01*
X8425356Y-10978269D01*
D10*
X8805539Y-11034397D02*
X8691253Y-11034397D01*
X8748396Y-11034397D02*
X8748396Y-10834397D01*
X8748396Y-10834397D02*
X8729348Y-10862968D01*
X8729348Y-10862968D02*
X8710301Y-10882016D01*
X8710301Y-10882016D02*
X8691253Y-10891540D01*
X8891253Y-11015349D02*
X8900777Y-11024873D01*
X8900777Y-11024873D02*
X8891253Y-11034397D01*
X8891253Y-11034397D02*
X8881729Y-11024873D01*
X8881729Y-11024873D02*
X8891253Y-11015349D01*
X8891253Y-11015349D02*
X8891253Y-11034397D01*
X9024586Y-10834397D02*
X9043634Y-10834397D01*
X9043634Y-10834397D02*
X9062682Y-10843921D01*
X9062682Y-10843921D02*
X9072205Y-10853445D01*
X9072205Y-10853445D02*
X9081729Y-10872492D01*
X9081729Y-10872492D02*
X9091253Y-10910587D01*
X9091253Y-10910587D02*
X9091253Y-10958207D01*
X9091253Y-10958207D02*
X9081729Y-10996302D01*
X9081729Y-10996302D02*
X9072205Y-11015349D01*
X9072205Y-11015349D02*
X9062682Y-11024873D01*
X9062682Y-11024873D02*
X9043634Y-11034397D01*
X9043634Y-11034397D02*
X9024586Y-11034397D01*
X9024586Y-11034397D02*
X9005539Y-11024873D01*
X9005539Y-11024873D02*
X8996015Y-11015349D01*
X8996015Y-11015349D02*
X8986491Y-10996302D01*
X8986491Y-10996302D02*
X8976967Y-10958207D01*
X8976967Y-10958207D02*
X8976967Y-10910587D01*
X8976967Y-10910587D02*
X8986491Y-10872492D01*
X8986491Y-10872492D02*
X8996015Y-10853445D01*
X8996015Y-10853445D02*
X9005539Y-10843921D01*
X9005539Y-10843921D02*
X9024586Y-10834397D01*
X9215063Y-10834397D02*
X9234110Y-10834397D01*
X9234110Y-10834397D02*
X9253158Y-10843921D01*
X9253158Y-10843921D02*
X9262682Y-10853445D01*
X9262682Y-10853445D02*
X9272205Y-10872492D01*
X9272205Y-10872492D02*
X9281729Y-10910587D01*
X9281729Y-10910587D02*
X9281729Y-10958207D01*
X9281729Y-10958207D02*
X9272205Y-10996302D01*
X9272205Y-10996302D02*
X9262682Y-11015349D01*
X9262682Y-11015349D02*
X9253158Y-11024873D01*
X9253158Y-11024873D02*
X9234110Y-11034397D01*
X9234110Y-11034397D02*
X9215063Y-11034397D01*
X9215063Y-11034397D02*
X9196015Y-11024873D01*
X9196015Y-11024873D02*
X9186491Y-11015349D01*
X9186491Y-11015349D02*
X9176967Y-10996302D01*
X9176967Y-10996302D02*
X9167444Y-10958207D01*
X9167444Y-10958207D02*
X9167444Y-10910587D01*
X9167444Y-10910587D02*
X9176967Y-10872492D01*
X9176967Y-10872492D02*
X9186491Y-10853445D01*
X9186491Y-10853445D02*
X9196015Y-10843921D01*
X9196015Y-10843921D02*
X9215063Y-10834397D01*
X9405539Y-10834397D02*
X9424586Y-10834397D01*
X9424586Y-10834397D02*
X9443634Y-10843921D01*
X9443634Y-10843921D02*
X9453158Y-10853445D01*
X9453158Y-10853445D02*
X9462682Y-10872492D01*
X9462682Y-10872492D02*
X9472205Y-10910587D01*
X9472205Y-10910587D02*
X9472205Y-10958207D01*
X9472205Y-10958207D02*
X9462682Y-10996302D01*
X9462682Y-10996302D02*
X9453158Y-11015349D01*
X9453158Y-11015349D02*
X9443634Y-11024873D01*
X9443634Y-11024873D02*
X9424586Y-11034397D01*
X9424586Y-11034397D02*
X9405539Y-11034397D01*
X9405539Y-11034397D02*
X9386491Y-11024873D01*
X9386491Y-11024873D02*
X9376967Y-11015349D01*
X9376967Y-11015349D02*
X9367444Y-10996302D01*
X9367444Y-10996302D02*
X9357920Y-10958207D01*
X9357920Y-10958207D02*
X9357920Y-10910587D01*
X9357920Y-10910587D02*
X9367444Y-10872492D01*
X9367444Y-10872492D02*
X9376967Y-10853445D01*
X9376967Y-10853445D02*
X9386491Y-10843921D01*
X9386491Y-10843921D02*
X9405539Y-10834397D01*
X9557920Y-11034397D02*
X9557920Y-10901064D01*
X9557920Y-10920111D02*
X9567444Y-10910587D01*
X9567444Y-10910587D02*
X9586491Y-10901064D01*
X9586491Y-10901064D02*
X9615063Y-10901064D01*
X9615063Y-10901064D02*
X9634110Y-10910587D01*
X9634110Y-10910587D02*
X9643634Y-10929635D01*
X9643634Y-10929635D02*
X9643634Y-11034397D01*
X9643634Y-10929635D02*
X9653158Y-10910587D01*
X9653158Y-10910587D02*
X9672205Y-10901064D01*
X9672205Y-10901064D02*
X9700777Y-10901064D01*
X9700777Y-10901064D02*
X9719825Y-10910587D01*
X9719825Y-10910587D02*
X9729348Y-10929635D01*
X9729348Y-10929635D02*
X9729348Y-11034397D01*
X9824586Y-11034397D02*
X9824586Y-10901064D01*
X9824586Y-10920111D02*
X9834110Y-10910587D01*
X9834110Y-10910587D02*
X9853158Y-10901064D01*
X9853158Y-10901064D02*
X9881729Y-10901064D01*
X9881729Y-10901064D02*
X9900777Y-10910587D01*
X9900777Y-10910587D02*
X9910301Y-10929635D01*
X9910301Y-10929635D02*
X9910301Y-11034397D01*
X9910301Y-10929635D02*
X9919825Y-10910587D01*
X9919825Y-10910587D02*
X9938872Y-10901064D01*
X9938872Y-10901064D02*
X9967444Y-10901064D01*
X9967444Y-10901064D02*
X9986491Y-10910587D01*
X9986491Y-10910587D02*
X9996015Y-10929635D01*
X9996015Y-10929635D02*
X9996015Y-11034397D01*
X10386491Y-10824873D02*
X10215063Y-11082016D01*
X10643634Y-10834397D02*
X10662682Y-10834397D01*
X10662682Y-10834397D02*
X10681729Y-10843921D01*
X10681729Y-10843921D02*
X10691253Y-10853445D01*
X10691253Y-10853445D02*
X10700777Y-10872492D01*
X10700777Y-10872492D02*
X10710301Y-10910587D01*
X10710301Y-10910587D02*
X10710301Y-10958207D01*
X10710301Y-10958207D02*
X10700777Y-10996302D01*
X10700777Y-10996302D02*
X10691253Y-11015349D01*
X10691253Y-11015349D02*
X10681729Y-11024873D01*
X10681729Y-11024873D02*
X10662682Y-11034397D01*
X10662682Y-11034397D02*
X10643634Y-11034397D01*
X10643634Y-11034397D02*
X10624587Y-11024873D01*
X10624587Y-11024873D02*
X10615063Y-11015349D01*
X10615063Y-11015349D02*
X10605539Y-10996302D01*
X10605539Y-10996302D02*
X10596015Y-10958207D01*
X10596015Y-10958207D02*
X10596015Y-10910587D01*
X10596015Y-10910587D02*
X10605539Y-10872492D01*
X10605539Y-10872492D02*
X10615063Y-10853445D01*
X10615063Y-10853445D02*
X10624587Y-10843921D01*
X10624587Y-10843921D02*
X10643634Y-10834397D01*
X10796015Y-11015349D02*
X10805539Y-11024873D01*
X10805539Y-11024873D02*
X10796015Y-11034397D01*
X10796015Y-11034397D02*
X10786491Y-11024873D01*
X10786491Y-11024873D02*
X10796015Y-11015349D01*
X10796015Y-11015349D02*
X10796015Y-11034397D01*
X10929348Y-10834397D02*
X10948396Y-10834397D01*
X10948396Y-10834397D02*
X10967444Y-10843921D01*
X10967444Y-10843921D02*
X10976968Y-10853445D01*
X10976968Y-10853445D02*
X10986491Y-10872492D01*
X10986491Y-10872492D02*
X10996015Y-10910587D01*
X10996015Y-10910587D02*
X10996015Y-10958207D01*
X10996015Y-10958207D02*
X10986491Y-10996302D01*
X10986491Y-10996302D02*
X10976968Y-11015349D01*
X10976968Y-11015349D02*
X10967444Y-11024873D01*
X10967444Y-11024873D02*
X10948396Y-11034397D01*
X10948396Y-11034397D02*
X10929348Y-11034397D01*
X10929348Y-11034397D02*
X10910301Y-11024873D01*
X10910301Y-11024873D02*
X10900777Y-11015349D01*
X10900777Y-11015349D02*
X10891253Y-10996302D01*
X10891253Y-10996302D02*
X10881729Y-10958207D01*
X10881729Y-10958207D02*
X10881729Y-10910587D01*
X10881729Y-10910587D02*
X10891253Y-10872492D01*
X10891253Y-10872492D02*
X10900777Y-10853445D01*
X10900777Y-10853445D02*
X10910301Y-10843921D01*
X10910301Y-10843921D02*
X10929348Y-10834397D01*
X11062682Y-10834397D02*
X11186491Y-10834397D01*
X11186491Y-10834397D02*
X11119825Y-10910587D01*
X11119825Y-10910587D02*
X11148396Y-10910587D01*
X11148396Y-10910587D02*
X11167444Y-10920111D01*
X11167444Y-10920111D02*
X11176968Y-10929635D01*
X11176968Y-10929635D02*
X11186491Y-10948683D01*
X11186491Y-10948683D02*
X11186491Y-10996302D01*
X11186491Y-10996302D02*
X11176968Y-11015349D01*
X11176968Y-11015349D02*
X11167444Y-11024873D01*
X11167444Y-11024873D02*
X11148396Y-11034397D01*
X11148396Y-11034397D02*
X11091253Y-11034397D01*
X11091253Y-11034397D02*
X11072206Y-11024873D01*
X11072206Y-11024873D02*
X11062682Y-11015349D01*
X11281729Y-11034397D02*
X11319825Y-11034397D01*
X11319825Y-11034397D02*
X11338872Y-11024873D01*
X11338872Y-11024873D02*
X11348396Y-11015349D01*
X11348396Y-11015349D02*
X11367444Y-10986778D01*
X11367444Y-10986778D02*
X11376967Y-10948683D01*
X11376967Y-10948683D02*
X11376967Y-10872492D01*
X11376967Y-10872492D02*
X11367444Y-10853445D01*
X11367444Y-10853445D02*
X11357920Y-10843921D01*
X11357920Y-10843921D02*
X11338872Y-10834397D01*
X11338872Y-10834397D02*
X11300777Y-10834397D01*
X11300777Y-10834397D02*
X11281729Y-10843921D01*
X11281729Y-10843921D02*
X11272206Y-10853445D01*
X11272206Y-10853445D02*
X11262682Y-10872492D01*
X11262682Y-10872492D02*
X11262682Y-10920111D01*
X11262682Y-10920111D02*
X11272206Y-10939159D01*
X11272206Y-10939159D02*
X11281729Y-10948683D01*
X11281729Y-10948683D02*
X11300777Y-10958207D01*
X11300777Y-10958207D02*
X11338872Y-10958207D01*
X11338872Y-10958207D02*
X11357920Y-10948683D01*
X11357920Y-10948683D02*
X11367444Y-10939159D01*
X11367444Y-10939159D02*
X11376967Y-10920111D01*
X11548396Y-10901064D02*
X11548396Y-11034397D01*
X11500777Y-10824873D02*
X11453158Y-10967730D01*
X11453158Y-10967730D02*
X11576967Y-10967730D01*
X11643634Y-10834397D02*
X11643634Y-10872492D01*
X11719825Y-10834397D02*
X11719825Y-10872492D01*
X12015063Y-11110587D02*
X12005539Y-11101064D01*
X12005539Y-11101064D02*
X11986491Y-11072492D01*
X11986491Y-11072492D02*
X11976968Y-11053445D01*
X11976968Y-11053445D02*
X11967444Y-11024873D01*
X11967444Y-11024873D02*
X11957920Y-10977254D01*
X11957920Y-10977254D02*
X11957920Y-10939159D01*
X11957920Y-10939159D02*
X11967444Y-10891540D01*
X11967444Y-10891540D02*
X11976968Y-10862968D01*
X11976968Y-10862968D02*
X11986491Y-10843921D01*
X11986491Y-10843921D02*
X12005539Y-10815349D01*
X12005539Y-10815349D02*
X12015063Y-10805826D01*
X12176968Y-10901064D02*
X12176968Y-11034397D01*
X12129348Y-10824873D02*
X12081729Y-10967730D01*
X12081729Y-10967730D02*
X12205539Y-10967730D01*
X12367444Y-10834397D02*
X12329348Y-10834397D01*
X12329348Y-10834397D02*
X12310301Y-10843921D01*
X12310301Y-10843921D02*
X12300777Y-10853445D01*
X12300777Y-10853445D02*
X12281729Y-10882016D01*
X12281729Y-10882016D02*
X12272206Y-10920111D01*
X12272206Y-10920111D02*
X12272206Y-10996302D01*
X12272206Y-10996302D02*
X12281729Y-11015349D01*
X12281729Y-11015349D02*
X12291253Y-11024873D01*
X12291253Y-11024873D02*
X12310301Y-11034397D01*
X12310301Y-11034397D02*
X12348396Y-11034397D01*
X12348396Y-11034397D02*
X12367444Y-11024873D01*
X12367444Y-11024873D02*
X12376968Y-11015349D01*
X12376968Y-11015349D02*
X12386491Y-10996302D01*
X12386491Y-10996302D02*
X12386491Y-10948683D01*
X12386491Y-10948683D02*
X12376968Y-10929635D01*
X12376968Y-10929635D02*
X12367444Y-10920111D01*
X12367444Y-10920111D02*
X12348396Y-10910587D01*
X12348396Y-10910587D02*
X12310301Y-10910587D01*
X12310301Y-10910587D02*
X12291253Y-10920111D01*
X12291253Y-10920111D02*
X12281729Y-10929635D01*
X12281729Y-10929635D02*
X12272206Y-10948683D01*
X12624587Y-11034397D02*
X12624587Y-10834397D01*
X12710301Y-11034397D02*
X12710301Y-10929635D01*
X12710301Y-10929635D02*
X12700777Y-10910587D01*
X12700777Y-10910587D02*
X12681730Y-10901064D01*
X12681730Y-10901064D02*
X12653158Y-10901064D01*
X12653158Y-10901064D02*
X12634110Y-10910587D01*
X12634110Y-10910587D02*
X12624587Y-10920111D01*
X12834110Y-11034397D02*
X12815063Y-11024873D01*
X12815063Y-11024873D02*
X12805539Y-11015349D01*
X12805539Y-11015349D02*
X12796015Y-10996302D01*
X12796015Y-10996302D02*
X12796015Y-10939159D01*
X12796015Y-10939159D02*
X12805539Y-10920111D01*
X12805539Y-10920111D02*
X12815063Y-10910587D01*
X12815063Y-10910587D02*
X12834110Y-10901064D01*
X12834110Y-10901064D02*
X12862682Y-10901064D01*
X12862682Y-10901064D02*
X12881730Y-10910587D01*
X12881730Y-10910587D02*
X12891253Y-10920111D01*
X12891253Y-10920111D02*
X12900777Y-10939159D01*
X12900777Y-10939159D02*
X12900777Y-10996302D01*
X12900777Y-10996302D02*
X12891253Y-11015349D01*
X12891253Y-11015349D02*
X12881730Y-11024873D01*
X12881730Y-11024873D02*
X12862682Y-11034397D01*
X12862682Y-11034397D02*
X12834110Y-11034397D01*
X13015063Y-11034397D02*
X12996015Y-11024873D01*
X12996015Y-11024873D02*
X12986491Y-11005826D01*
X12986491Y-11005826D02*
X12986491Y-10834397D01*
X13167444Y-11024873D02*
X13148396Y-11034397D01*
X13148396Y-11034397D02*
X13110301Y-11034397D01*
X13110301Y-11034397D02*
X13091253Y-11024873D01*
X13091253Y-11024873D02*
X13081730Y-11005826D01*
X13081730Y-11005826D02*
X13081730Y-10929635D01*
X13081730Y-10929635D02*
X13091253Y-10910587D01*
X13091253Y-10910587D02*
X13110301Y-10901064D01*
X13110301Y-10901064D02*
X13148396Y-10901064D01*
X13148396Y-10901064D02*
X13167444Y-10910587D01*
X13167444Y-10910587D02*
X13176968Y-10929635D01*
X13176968Y-10929635D02*
X13176968Y-10948683D01*
X13176968Y-10948683D02*
X13081730Y-10967730D01*
X13253158Y-11024873D02*
X13272206Y-11034397D01*
X13272206Y-11034397D02*
X13310301Y-11034397D01*
X13310301Y-11034397D02*
X13329349Y-11024873D01*
X13329349Y-11024873D02*
X13338872Y-11005826D01*
X13338872Y-11005826D02*
X13338872Y-10996302D01*
X13338872Y-10996302D02*
X13329349Y-10977254D01*
X13329349Y-10977254D02*
X13310301Y-10967730D01*
X13310301Y-10967730D02*
X13281730Y-10967730D01*
X13281730Y-10967730D02*
X13262682Y-10958207D01*
X13262682Y-10958207D02*
X13253158Y-10939159D01*
X13253158Y-10939159D02*
X13253158Y-10929635D01*
X13253158Y-10929635D02*
X13262682Y-10910587D01*
X13262682Y-10910587D02*
X13281730Y-10901064D01*
X13281730Y-10901064D02*
X13310301Y-10901064D01*
X13310301Y-10901064D02*
X13329349Y-10910587D01*
X13405539Y-11110587D02*
X13415063Y-11101064D01*
X13415063Y-11101064D02*
X13434111Y-11072492D01*
X13434111Y-11072492D02*
X13443634Y-11053445D01*
X13443634Y-11053445D02*
X13453158Y-11024873D01*
X13453158Y-11024873D02*
X13462682Y-10977254D01*
X13462682Y-10977254D02*
X13462682Y-10939159D01*
X13462682Y-10939159D02*
X13453158Y-10891540D01*
X13453158Y-10891540D02*
X13443634Y-10862968D01*
X13443634Y-10862968D02*
X13434111Y-10843921D01*
X13434111Y-10843921D02*
X13415063Y-10815349D01*
X13415063Y-10815349D02*
X13405539Y-10805826D01*
M02*
