M48
; DRILL file {KiCad 7.0.7} date Mon Oct 16 17:53:01 2023
; FORMAT={-:-/ absolute / metric / decimal}
; #@! TF.CreationDate,2023-10-16T17:53:01+02:00
; #@! TF.GenerationSoftware,Kicad,Pcbnew,7.0.7
; #@! TF.FileFunction,Plated,1,2,PTH
FMAT,2
METRIC
; #@! TA.AperFunction,Plated,PTH,ComponentDrill
T1C0.600
; #@! TA.AperFunction,Plated,PTH,ComponentDrill
T2C0.800
; #@! TA.AperFunction,Plated,PTH,ComponentDrill
T3C0.813
; #@! TA.AperFunction,Plated,PTH,ComponentDrill
T4C1.000
%
G90
G05
T1
X118.25Y-75.86
X119.75Y-75.86
T2
X112.085Y-60.2
X114.585Y-60.2
T3
X112.46Y-71.56
X112.46Y-74.1
X112.46Y-76.64
X115.0Y-71.56
X115.0Y-74.1
X115.0Y-76.64
T4
X89.6Y-61.3
X89.6Y-63.84
X89.6Y-66.38
X89.6Y-68.92
X93.46Y-46.02
X93.46Y-48.56
X93.46Y-51.1
X93.46Y-53.64
X93.46Y-56.18
X93.46Y-58.72
X93.46Y-61.26
X93.46Y-63.8
X93.46Y-66.34
X93.46Y-68.88
X93.46Y-71.42
X93.46Y-73.96
X93.46Y-76.5
X93.46Y-79.04
X93.46Y-81.58
X108.7Y-46.02
X108.7Y-48.56
X108.7Y-51.1
X108.7Y-53.64
X108.7Y-56.18
X108.7Y-58.72
X108.7Y-61.26
X108.7Y-63.8
X108.7Y-66.34
X108.7Y-68.88
X108.7Y-71.42
X108.7Y-73.96
X108.7Y-76.5
X108.7Y-79.04
X108.7Y-81.58
X112.8Y-64.1
X112.8Y-66.64
X112.8Y-81.3
X112.8Y-83.84
X112.825Y-51.6
X112.85Y-46.475
X112.86Y-56.575
X115.365Y-51.6
X115.39Y-46.475
X115.4Y-56.575
X119.3Y-81.2
X119.3Y-83.74
T0
M30
