%TF.GenerationSoftware,KiCad,Pcbnew,7.0.7*%
%TF.CreationDate,2023-10-16T17:52:53+02:00*%
%TF.ProjectId,arduino-nano-line-follower,61726475-696e-46f2-9d6e-616e6f2d6c69,0*%
%TF.SameCoordinates,Original*%
%TF.FileFunction,Legend,Top*%
%TF.FilePolarity,Positive*%
%FSLAX46Y46*%
G04 Gerber Fmt 4.6, Leading zero omitted, Abs format (unit mm)*
G04 Created by KiCad (PCBNEW 7.0.7) date 2023-10-16 17:52:53*
%MOMM*%
%LPD*%
G01*
G04 APERTURE LIST*
%ADD10C,0.150000*%
%ADD11C,0.120000*%
G04 APERTURE END LIST*
D10*
X91974874Y-37303152D02*
X91974874Y-35874580D01*
X92641541Y-36684104D02*
X93117731Y-36684104D01*
X92546303Y-36969819D02*
X92879636Y-35969819D01*
X92879636Y-35969819D02*
X93212969Y-36969819D01*
X94117731Y-36969819D02*
X93784398Y-36493628D01*
X93546303Y-36969819D02*
X93546303Y-35969819D01*
X93546303Y-35969819D02*
X93927255Y-35969819D01*
X93927255Y-35969819D02*
X94022493Y-36017438D01*
X94022493Y-36017438D02*
X94070112Y-36065057D01*
X94070112Y-36065057D02*
X94117731Y-36160295D01*
X94117731Y-36160295D02*
X94117731Y-36303152D01*
X94117731Y-36303152D02*
X94070112Y-36398390D01*
X94070112Y-36398390D02*
X94022493Y-36446009D01*
X94022493Y-36446009D02*
X93927255Y-36493628D01*
X93927255Y-36493628D02*
X93546303Y-36493628D01*
X94546303Y-36969819D02*
X94546303Y-35969819D01*
X94546303Y-35969819D02*
X94784398Y-35969819D01*
X94784398Y-35969819D02*
X94927255Y-36017438D01*
X94927255Y-36017438D02*
X95022493Y-36112676D01*
X95022493Y-36112676D02*
X95070112Y-36207914D01*
X95070112Y-36207914D02*
X95117731Y-36398390D01*
X95117731Y-36398390D02*
X95117731Y-36541247D01*
X95117731Y-36541247D02*
X95070112Y-36731723D01*
X95070112Y-36731723D02*
X95022493Y-36826961D01*
X95022493Y-36826961D02*
X94927255Y-36922200D01*
X94927255Y-36922200D02*
X94784398Y-36969819D01*
X94784398Y-36969819D02*
X94546303Y-36969819D01*
X95546303Y-35969819D02*
X95546303Y-36779342D01*
X95546303Y-36779342D02*
X95593922Y-36874580D01*
X95593922Y-36874580D02*
X95641541Y-36922200D01*
X95641541Y-36922200D02*
X95736779Y-36969819D01*
X95736779Y-36969819D02*
X95927255Y-36969819D01*
X95927255Y-36969819D02*
X96022493Y-36922200D01*
X96022493Y-36922200D02*
X96070112Y-36874580D01*
X96070112Y-36874580D02*
X96117731Y-36779342D01*
X96117731Y-36779342D02*
X96117731Y-35969819D01*
X96593922Y-36969819D02*
X96593922Y-35969819D01*
X97070112Y-36969819D02*
X97070112Y-35969819D01*
X97070112Y-35969819D02*
X97641540Y-36969819D01*
X97641540Y-36969819D02*
X97641540Y-35969819D01*
X98308207Y-35969819D02*
X98498683Y-35969819D01*
X98498683Y-35969819D02*
X98593921Y-36017438D01*
X98593921Y-36017438D02*
X98689159Y-36112676D01*
X98689159Y-36112676D02*
X98736778Y-36303152D01*
X98736778Y-36303152D02*
X98736778Y-36636485D01*
X98736778Y-36636485D02*
X98689159Y-36826961D01*
X98689159Y-36826961D02*
X98593921Y-36922200D01*
X98593921Y-36922200D02*
X98498683Y-36969819D01*
X98498683Y-36969819D02*
X98308207Y-36969819D01*
X98308207Y-36969819D02*
X98212969Y-36922200D01*
X98212969Y-36922200D02*
X98117731Y-36826961D01*
X98117731Y-36826961D02*
X98070112Y-36636485D01*
X98070112Y-36636485D02*
X98070112Y-36303152D01*
X98070112Y-36303152D02*
X98117731Y-36112676D01*
X98117731Y-36112676D02*
X98212969Y-36017438D01*
X98212969Y-36017438D02*
X98308207Y-35969819D01*
X99927255Y-36969819D02*
X99927255Y-35969819D01*
X99927255Y-35969819D02*
X100498683Y-36969819D01*
X100498683Y-36969819D02*
X100498683Y-35969819D01*
X100927255Y-36684104D02*
X101403445Y-36684104D01*
X100832017Y-36969819D02*
X101165350Y-35969819D01*
X101165350Y-35969819D02*
X101498683Y-36969819D01*
X101832017Y-36969819D02*
X101832017Y-35969819D01*
X101832017Y-35969819D02*
X102403445Y-36969819D01*
X102403445Y-36969819D02*
X102403445Y-35969819D01*
X103070112Y-35969819D02*
X103260588Y-35969819D01*
X103260588Y-35969819D02*
X103355826Y-36017438D01*
X103355826Y-36017438D02*
X103451064Y-36112676D01*
X103451064Y-36112676D02*
X103498683Y-36303152D01*
X103498683Y-36303152D02*
X103498683Y-36636485D01*
X103498683Y-36636485D02*
X103451064Y-36826961D01*
X103451064Y-36826961D02*
X103355826Y-36922200D01*
X103355826Y-36922200D02*
X103260588Y-36969819D01*
X103260588Y-36969819D02*
X103070112Y-36969819D01*
X103070112Y-36969819D02*
X102974874Y-36922200D01*
X102974874Y-36922200D02*
X102879636Y-36826961D01*
X102879636Y-36826961D02*
X102832017Y-36636485D01*
X102832017Y-36636485D02*
X102832017Y-36303152D01*
X102832017Y-36303152D02*
X102879636Y-36112676D01*
X102879636Y-36112676D02*
X102974874Y-36017438D01*
X102974874Y-36017438D02*
X103070112Y-35969819D01*
X105165350Y-36969819D02*
X104689160Y-36969819D01*
X104689160Y-36969819D02*
X104689160Y-35969819D01*
X105498684Y-36969819D02*
X105498684Y-35969819D01*
X105974874Y-36969819D02*
X105974874Y-35969819D01*
X105974874Y-35969819D02*
X106546302Y-36969819D01*
X106546302Y-36969819D02*
X106546302Y-35969819D01*
X107022493Y-36446009D02*
X107355826Y-36446009D01*
X107498683Y-36969819D02*
X107022493Y-36969819D01*
X107022493Y-36969819D02*
X107022493Y-35969819D01*
X107022493Y-35969819D02*
X107498683Y-35969819D01*
X109022493Y-36446009D02*
X108689160Y-36446009D01*
X108689160Y-36969819D02*
X108689160Y-35969819D01*
X108689160Y-35969819D02*
X109165350Y-35969819D01*
X109736779Y-35969819D02*
X109927255Y-35969819D01*
X109927255Y-35969819D02*
X110022493Y-36017438D01*
X110022493Y-36017438D02*
X110117731Y-36112676D01*
X110117731Y-36112676D02*
X110165350Y-36303152D01*
X110165350Y-36303152D02*
X110165350Y-36636485D01*
X110165350Y-36636485D02*
X110117731Y-36826961D01*
X110117731Y-36826961D02*
X110022493Y-36922200D01*
X110022493Y-36922200D02*
X109927255Y-36969819D01*
X109927255Y-36969819D02*
X109736779Y-36969819D01*
X109736779Y-36969819D02*
X109641541Y-36922200D01*
X109641541Y-36922200D02*
X109546303Y-36826961D01*
X109546303Y-36826961D02*
X109498684Y-36636485D01*
X109498684Y-36636485D02*
X109498684Y-36303152D01*
X109498684Y-36303152D02*
X109546303Y-36112676D01*
X109546303Y-36112676D02*
X109641541Y-36017438D01*
X109641541Y-36017438D02*
X109736779Y-35969819D01*
X111070112Y-36969819D02*
X110593922Y-36969819D01*
X110593922Y-36969819D02*
X110593922Y-35969819D01*
X111879636Y-36969819D02*
X111403446Y-36969819D01*
X111403446Y-36969819D02*
X111403446Y-35969819D01*
X112403446Y-35969819D02*
X112593922Y-35969819D01*
X112593922Y-35969819D02*
X112689160Y-36017438D01*
X112689160Y-36017438D02*
X112784398Y-36112676D01*
X112784398Y-36112676D02*
X112832017Y-36303152D01*
X112832017Y-36303152D02*
X112832017Y-36636485D01*
X112832017Y-36636485D02*
X112784398Y-36826961D01*
X112784398Y-36826961D02*
X112689160Y-36922200D01*
X112689160Y-36922200D02*
X112593922Y-36969819D01*
X112593922Y-36969819D02*
X112403446Y-36969819D01*
X112403446Y-36969819D02*
X112308208Y-36922200D01*
X112308208Y-36922200D02*
X112212970Y-36826961D01*
X112212970Y-36826961D02*
X112165351Y-36636485D01*
X112165351Y-36636485D02*
X112165351Y-36303152D01*
X112165351Y-36303152D02*
X112212970Y-36112676D01*
X112212970Y-36112676D02*
X112308208Y-36017438D01*
X112308208Y-36017438D02*
X112403446Y-35969819D01*
X113165351Y-35969819D02*
X113403446Y-36969819D01*
X113403446Y-36969819D02*
X113593922Y-36255533D01*
X113593922Y-36255533D02*
X113784398Y-36969819D01*
X113784398Y-36969819D02*
X114022494Y-35969819D01*
X114403446Y-36446009D02*
X114736779Y-36446009D01*
X114879636Y-36969819D02*
X114403446Y-36969819D01*
X114403446Y-36969819D02*
X114403446Y-35969819D01*
X114403446Y-35969819D02*
X114879636Y-35969819D01*
X115879636Y-36969819D02*
X115546303Y-36493628D01*
X115308208Y-36969819D02*
X115308208Y-35969819D01*
X115308208Y-35969819D02*
X115689160Y-35969819D01*
X115689160Y-35969819D02*
X115784398Y-36017438D01*
X115784398Y-36017438D02*
X115832017Y-36065057D01*
X115832017Y-36065057D02*
X115879636Y-36160295D01*
X115879636Y-36160295D02*
X115879636Y-36303152D01*
X115879636Y-36303152D02*
X115832017Y-36398390D01*
X115832017Y-36398390D02*
X115784398Y-36446009D01*
X115784398Y-36446009D02*
X115689160Y-36493628D01*
X115689160Y-36493628D02*
X115308208Y-36493628D01*
X116546303Y-37303152D02*
X116546303Y-35874580D01*
X115754819Y-86057142D02*
X115754819Y-85866666D01*
X115754819Y-85866666D02*
X115707200Y-85771428D01*
X115707200Y-85771428D02*
X115659580Y-85723809D01*
X115659580Y-85723809D02*
X115516723Y-85628571D01*
X115516723Y-85628571D02*
X115326247Y-85580952D01*
X115326247Y-85580952D02*
X114945295Y-85580952D01*
X114945295Y-85580952D02*
X114850057Y-85628571D01*
X114850057Y-85628571D02*
X114802438Y-85676190D01*
X114802438Y-85676190D02*
X114754819Y-85771428D01*
X114754819Y-85771428D02*
X114754819Y-85961904D01*
X114754819Y-85961904D02*
X114802438Y-86057142D01*
X114802438Y-86057142D02*
X114850057Y-86104761D01*
X114850057Y-86104761D02*
X114945295Y-86152380D01*
X114945295Y-86152380D02*
X115183390Y-86152380D01*
X115183390Y-86152380D02*
X115278628Y-86104761D01*
X115278628Y-86104761D02*
X115326247Y-86057142D01*
X115326247Y-86057142D02*
X115373866Y-85961904D01*
X115373866Y-85961904D02*
X115373866Y-85771428D01*
X115373866Y-85771428D02*
X115326247Y-85676190D01*
X115326247Y-85676190D02*
X115278628Y-85628571D01*
X115278628Y-85628571D02*
X115183390Y-85580952D01*
X114754819Y-85295237D02*
X115754819Y-84961904D01*
X115754819Y-84961904D02*
X114754819Y-84628571D01*
X115754819Y-83057142D02*
X115754819Y-83533332D01*
X115754819Y-83533332D02*
X114754819Y-83533332D01*
X114850057Y-82771427D02*
X114802438Y-82723808D01*
X114802438Y-82723808D02*
X114754819Y-82628570D01*
X114754819Y-82628570D02*
X114754819Y-82390475D01*
X114754819Y-82390475D02*
X114802438Y-82295237D01*
X114802438Y-82295237D02*
X114850057Y-82247618D01*
X114850057Y-82247618D02*
X114945295Y-82199999D01*
X114945295Y-82199999D02*
X115040533Y-82199999D01*
X115040533Y-82199999D02*
X115183390Y-82247618D01*
X115183390Y-82247618D02*
X115754819Y-82819046D01*
X115754819Y-82819046D02*
X115754819Y-82199999D01*
X115754819Y-81723808D02*
X115754819Y-81533332D01*
X115754819Y-81533332D02*
X115707200Y-81438094D01*
X115707200Y-81438094D02*
X115659580Y-81390475D01*
X115659580Y-81390475D02*
X115516723Y-81295237D01*
X115516723Y-81295237D02*
X115326247Y-81247618D01*
X115326247Y-81247618D02*
X114945295Y-81247618D01*
X114945295Y-81247618D02*
X114850057Y-81295237D01*
X114850057Y-81295237D02*
X114802438Y-81342856D01*
X114802438Y-81342856D02*
X114754819Y-81438094D01*
X114754819Y-81438094D02*
X114754819Y-81628570D01*
X114754819Y-81628570D02*
X114802438Y-81723808D01*
X114802438Y-81723808D02*
X114850057Y-81771427D01*
X114850057Y-81771427D02*
X114945295Y-81819046D01*
X114945295Y-81819046D02*
X115183390Y-81819046D01*
X115183390Y-81819046D02*
X115278628Y-81771427D01*
X115278628Y-81771427D02*
X115326247Y-81723808D01*
X115326247Y-81723808D02*
X115373866Y-81628570D01*
X115373866Y-81628570D02*
X115373866Y-81438094D01*
X115373866Y-81438094D02*
X115326247Y-81342856D01*
X115326247Y-81342856D02*
X115278628Y-81295237D01*
X115278628Y-81295237D02*
X115183390Y-81247618D01*
X115183390Y-80676189D02*
X115135771Y-80771427D01*
X115135771Y-80771427D02*
X115088152Y-80819046D01*
X115088152Y-80819046D02*
X114992914Y-80866665D01*
X114992914Y-80866665D02*
X114945295Y-80866665D01*
X114945295Y-80866665D02*
X114850057Y-80819046D01*
X114850057Y-80819046D02*
X114802438Y-80771427D01*
X114802438Y-80771427D02*
X114754819Y-80676189D01*
X114754819Y-80676189D02*
X114754819Y-80485713D01*
X114754819Y-80485713D02*
X114802438Y-80390475D01*
X114802438Y-80390475D02*
X114850057Y-80342856D01*
X114850057Y-80342856D02*
X114945295Y-80295237D01*
X114945295Y-80295237D02*
X114992914Y-80295237D01*
X114992914Y-80295237D02*
X115088152Y-80342856D01*
X115088152Y-80342856D02*
X115135771Y-80390475D01*
X115135771Y-80390475D02*
X115183390Y-80485713D01*
X115183390Y-80485713D02*
X115183390Y-80676189D01*
X115183390Y-80676189D02*
X115231009Y-80771427D01*
X115231009Y-80771427D02*
X115278628Y-80819046D01*
X115278628Y-80819046D02*
X115373866Y-80866665D01*
X115373866Y-80866665D02*
X115564342Y-80866665D01*
X115564342Y-80866665D02*
X115659580Y-80819046D01*
X115659580Y-80819046D02*
X115707200Y-80771427D01*
X115707200Y-80771427D02*
X115754819Y-80676189D01*
X115754819Y-80676189D02*
X115754819Y-80485713D01*
X115754819Y-80485713D02*
X115707200Y-80390475D01*
X115707200Y-80390475D02*
X115659580Y-80342856D01*
X115659580Y-80342856D02*
X115564342Y-80295237D01*
X115564342Y-80295237D02*
X115373866Y-80295237D01*
X115373866Y-80295237D02*
X115278628Y-80342856D01*
X115278628Y-80342856D02*
X115231009Y-80390475D01*
X115231009Y-80390475D02*
X115183390Y-80485713D01*
X115754819Y-79866665D02*
X114754819Y-79866665D01*
X114754819Y-79866665D02*
X115754819Y-79295237D01*
X115754819Y-79295237D02*
X114754819Y-79295237D01*
X112866667Y-69807200D02*
X113009524Y-69854819D01*
X113009524Y-69854819D02*
X113247619Y-69854819D01*
X113247619Y-69854819D02*
X113342857Y-69807200D01*
X113342857Y-69807200D02*
X113390476Y-69759580D01*
X113390476Y-69759580D02*
X113438095Y-69664342D01*
X113438095Y-69664342D02*
X113438095Y-69569104D01*
X113438095Y-69569104D02*
X113390476Y-69473866D01*
X113390476Y-69473866D02*
X113342857Y-69426247D01*
X113342857Y-69426247D02*
X113247619Y-69378628D01*
X113247619Y-69378628D02*
X113057143Y-69331009D01*
X113057143Y-69331009D02*
X112961905Y-69283390D01*
X112961905Y-69283390D02*
X112914286Y-69235771D01*
X112914286Y-69235771D02*
X112866667Y-69140533D01*
X112866667Y-69140533D02*
X112866667Y-69045295D01*
X112866667Y-69045295D02*
X112914286Y-68950057D01*
X112914286Y-68950057D02*
X112961905Y-68902438D01*
X112961905Y-68902438D02*
X113057143Y-68854819D01*
X113057143Y-68854819D02*
X113295238Y-68854819D01*
X113295238Y-68854819D02*
X113438095Y-68902438D01*
X113771429Y-68854819D02*
X114009524Y-69854819D01*
X114009524Y-69854819D02*
X114200000Y-69140533D01*
X114200000Y-69140533D02*
X114390476Y-69854819D01*
X114390476Y-69854819D02*
X114628572Y-68854819D01*
X114961905Y-68950057D02*
X115009524Y-68902438D01*
X115009524Y-68902438D02*
X115104762Y-68854819D01*
X115104762Y-68854819D02*
X115342857Y-68854819D01*
X115342857Y-68854819D02*
X115438095Y-68902438D01*
X115438095Y-68902438D02*
X115485714Y-68950057D01*
X115485714Y-68950057D02*
X115533333Y-69045295D01*
X115533333Y-69045295D02*
X115533333Y-69140533D01*
X115533333Y-69140533D02*
X115485714Y-69283390D01*
X115485714Y-69283390D02*
X114914286Y-69854819D01*
X114914286Y-69854819D02*
X115533333Y-69854819D01*
X114954819Y-65633333D02*
X115669104Y-65633333D01*
X115669104Y-65633333D02*
X115811961Y-65680952D01*
X115811961Y-65680952D02*
X115907200Y-65776190D01*
X115907200Y-65776190D02*
X115954819Y-65919047D01*
X115954819Y-65919047D02*
X115954819Y-66014285D01*
X114954819Y-64728571D02*
X114954819Y-64919047D01*
X114954819Y-64919047D02*
X115002438Y-65014285D01*
X115002438Y-65014285D02*
X115050057Y-65061904D01*
X115050057Y-65061904D02*
X115192914Y-65157142D01*
X115192914Y-65157142D02*
X115383390Y-65204761D01*
X115383390Y-65204761D02*
X115764342Y-65204761D01*
X115764342Y-65204761D02*
X115859580Y-65157142D01*
X115859580Y-65157142D02*
X115907200Y-65109523D01*
X115907200Y-65109523D02*
X115954819Y-65014285D01*
X115954819Y-65014285D02*
X115954819Y-64823809D01*
X115954819Y-64823809D02*
X115907200Y-64728571D01*
X115907200Y-64728571D02*
X115859580Y-64680952D01*
X115859580Y-64680952D02*
X115764342Y-64633333D01*
X115764342Y-64633333D02*
X115526247Y-64633333D01*
X115526247Y-64633333D02*
X115431009Y-64680952D01*
X115431009Y-64680952D02*
X115383390Y-64728571D01*
X115383390Y-64728571D02*
X115335771Y-64823809D01*
X115335771Y-64823809D02*
X115335771Y-65014285D01*
X115335771Y-65014285D02*
X115383390Y-65109523D01*
X115383390Y-65109523D02*
X115431009Y-65157142D01*
X115431009Y-65157142D02*
X115526247Y-65204761D01*
X113766666Y-48654819D02*
X113766666Y-49369104D01*
X113766666Y-49369104D02*
X113719047Y-49511961D01*
X113719047Y-49511961D02*
X113623809Y-49607200D01*
X113623809Y-49607200D02*
X113480952Y-49654819D01*
X113480952Y-49654819D02*
X113385714Y-49654819D01*
X114671428Y-48988152D02*
X114671428Y-49654819D01*
X114433333Y-48607200D02*
X114195238Y-49321485D01*
X114195238Y-49321485D02*
X114814285Y-49321485D01*
X121831009Y-83385714D02*
X121878628Y-83242857D01*
X121878628Y-83242857D02*
X121926247Y-83195238D01*
X121926247Y-83195238D02*
X122021485Y-83147619D01*
X122021485Y-83147619D02*
X122164342Y-83147619D01*
X122164342Y-83147619D02*
X122259580Y-83195238D01*
X122259580Y-83195238D02*
X122307200Y-83242857D01*
X122307200Y-83242857D02*
X122354819Y-83338095D01*
X122354819Y-83338095D02*
X122354819Y-83719047D01*
X122354819Y-83719047D02*
X121354819Y-83719047D01*
X121354819Y-83719047D02*
X121354819Y-83385714D01*
X121354819Y-83385714D02*
X121402438Y-83290476D01*
X121402438Y-83290476D02*
X121450057Y-83242857D01*
X121450057Y-83242857D02*
X121545295Y-83195238D01*
X121545295Y-83195238D02*
X121640533Y-83195238D01*
X121640533Y-83195238D02*
X121735771Y-83242857D01*
X121735771Y-83242857D02*
X121783390Y-83290476D01*
X121783390Y-83290476D02*
X121831009Y-83385714D01*
X121831009Y-83385714D02*
X121831009Y-83719047D01*
X121354819Y-82861904D02*
X121354819Y-82290476D01*
X122354819Y-82576190D02*
X121354819Y-82576190D01*
X122354819Y-81433333D02*
X122354819Y-82004761D01*
X122354819Y-81719047D02*
X121354819Y-81719047D01*
X121354819Y-81719047D02*
X121497676Y-81814285D01*
X121497676Y-81814285D02*
X121592914Y-81909523D01*
X121592914Y-81909523D02*
X121640533Y-82004761D01*
X118833333Y-72969580D02*
X118785714Y-73017200D01*
X118785714Y-73017200D02*
X118642857Y-73064819D01*
X118642857Y-73064819D02*
X118547619Y-73064819D01*
X118547619Y-73064819D02*
X118404762Y-73017200D01*
X118404762Y-73017200D02*
X118309524Y-72921961D01*
X118309524Y-72921961D02*
X118261905Y-72826723D01*
X118261905Y-72826723D02*
X118214286Y-72636247D01*
X118214286Y-72636247D02*
X118214286Y-72493390D01*
X118214286Y-72493390D02*
X118261905Y-72302914D01*
X118261905Y-72302914D02*
X118309524Y-72207676D01*
X118309524Y-72207676D02*
X118404762Y-72112438D01*
X118404762Y-72112438D02*
X118547619Y-72064819D01*
X118547619Y-72064819D02*
X118642857Y-72064819D01*
X118642857Y-72064819D02*
X118785714Y-72112438D01*
X118785714Y-72112438D02*
X118833333Y-72160057D01*
X119214286Y-72160057D02*
X119261905Y-72112438D01*
X119261905Y-72112438D02*
X119357143Y-72064819D01*
X119357143Y-72064819D02*
X119595238Y-72064819D01*
X119595238Y-72064819D02*
X119690476Y-72112438D01*
X119690476Y-72112438D02*
X119738095Y-72160057D01*
X119738095Y-72160057D02*
X119785714Y-72255295D01*
X119785714Y-72255295D02*
X119785714Y-72350533D01*
X119785714Y-72350533D02*
X119738095Y-72493390D01*
X119738095Y-72493390D02*
X119166667Y-73064819D01*
X119166667Y-73064819D02*
X119785714Y-73064819D01*
X117159580Y-60266666D02*
X117207200Y-60314285D01*
X117207200Y-60314285D02*
X117254819Y-60457142D01*
X117254819Y-60457142D02*
X117254819Y-60552380D01*
X117254819Y-60552380D02*
X117207200Y-60695237D01*
X117207200Y-60695237D02*
X117111961Y-60790475D01*
X117111961Y-60790475D02*
X117016723Y-60838094D01*
X117016723Y-60838094D02*
X116826247Y-60885713D01*
X116826247Y-60885713D02*
X116683390Y-60885713D01*
X116683390Y-60885713D02*
X116492914Y-60838094D01*
X116492914Y-60838094D02*
X116397676Y-60790475D01*
X116397676Y-60790475D02*
X116302438Y-60695237D01*
X116302438Y-60695237D02*
X116254819Y-60552380D01*
X116254819Y-60552380D02*
X116254819Y-60457142D01*
X116254819Y-60457142D02*
X116302438Y-60314285D01*
X116302438Y-60314285D02*
X116350057Y-60266666D01*
X117254819Y-59314285D02*
X117254819Y-59885713D01*
X117254819Y-59599999D02*
X116254819Y-59599999D01*
X116254819Y-59599999D02*
X116397676Y-59695237D01*
X116397676Y-59695237D02*
X116492914Y-59790475D01*
X116492914Y-59790475D02*
X116540533Y-59885713D01*
X86454819Y-65533333D02*
X87169104Y-65533333D01*
X87169104Y-65533333D02*
X87311961Y-65580952D01*
X87311961Y-65580952D02*
X87407200Y-65676190D01*
X87407200Y-65676190D02*
X87454819Y-65819047D01*
X87454819Y-65819047D02*
X87454819Y-65914285D01*
X87454819Y-64533333D02*
X87454819Y-65104761D01*
X87454819Y-64819047D02*
X86454819Y-64819047D01*
X86454819Y-64819047D02*
X86597676Y-64914285D01*
X86597676Y-64914285D02*
X86692914Y-65009523D01*
X86692914Y-65009523D02*
X86740533Y-65104761D01*
X100365714Y-41469104D02*
X100841904Y-41469104D01*
X100270476Y-41754819D02*
X100603809Y-40754819D01*
X100603809Y-40754819D02*
X100937142Y-41754819D01*
X101794285Y-41754819D02*
X101222857Y-41754819D01*
X101508571Y-41754819D02*
X101508571Y-40754819D01*
X101508571Y-40754819D02*
X101413333Y-40897676D01*
X101413333Y-40897676D02*
X101318095Y-40992914D01*
X101318095Y-40992914D02*
X101222857Y-41040533D01*
X99818095Y-81034819D02*
X99818095Y-81844342D01*
X99818095Y-81844342D02*
X99865714Y-81939580D01*
X99865714Y-81939580D02*
X99913333Y-81987200D01*
X99913333Y-81987200D02*
X100008571Y-82034819D01*
X100008571Y-82034819D02*
X100199047Y-82034819D01*
X100199047Y-82034819D02*
X100294285Y-81987200D01*
X100294285Y-81987200D02*
X100341904Y-81939580D01*
X100341904Y-81939580D02*
X100389523Y-81844342D01*
X100389523Y-81844342D02*
X100389523Y-81034819D01*
X100818095Y-81987200D02*
X100960952Y-82034819D01*
X100960952Y-82034819D02*
X101199047Y-82034819D01*
X101199047Y-82034819D02*
X101294285Y-81987200D01*
X101294285Y-81987200D02*
X101341904Y-81939580D01*
X101341904Y-81939580D02*
X101389523Y-81844342D01*
X101389523Y-81844342D02*
X101389523Y-81749104D01*
X101389523Y-81749104D02*
X101341904Y-81653866D01*
X101341904Y-81653866D02*
X101294285Y-81606247D01*
X101294285Y-81606247D02*
X101199047Y-81558628D01*
X101199047Y-81558628D02*
X101008571Y-81511009D01*
X101008571Y-81511009D02*
X100913333Y-81463390D01*
X100913333Y-81463390D02*
X100865714Y-81415771D01*
X100865714Y-81415771D02*
X100818095Y-81320533D01*
X100818095Y-81320533D02*
X100818095Y-81225295D01*
X100818095Y-81225295D02*
X100865714Y-81130057D01*
X100865714Y-81130057D02*
X100913333Y-81082438D01*
X100913333Y-81082438D02*
X101008571Y-81034819D01*
X101008571Y-81034819D02*
X101246666Y-81034819D01*
X101246666Y-81034819D02*
X101389523Y-81082438D01*
X102151428Y-81511009D02*
X102294285Y-81558628D01*
X102294285Y-81558628D02*
X102341904Y-81606247D01*
X102341904Y-81606247D02*
X102389523Y-81701485D01*
X102389523Y-81701485D02*
X102389523Y-81844342D01*
X102389523Y-81844342D02*
X102341904Y-81939580D01*
X102341904Y-81939580D02*
X102294285Y-81987200D01*
X102294285Y-81987200D02*
X102199047Y-82034819D01*
X102199047Y-82034819D02*
X101818095Y-82034819D01*
X101818095Y-82034819D02*
X101818095Y-81034819D01*
X101818095Y-81034819D02*
X102151428Y-81034819D01*
X102151428Y-81034819D02*
X102246666Y-81082438D01*
X102246666Y-81082438D02*
X102294285Y-81130057D01*
X102294285Y-81130057D02*
X102341904Y-81225295D01*
X102341904Y-81225295D02*
X102341904Y-81320533D01*
X102341904Y-81320533D02*
X102294285Y-81415771D01*
X102294285Y-81415771D02*
X102246666Y-81463390D01*
X102246666Y-81463390D02*
X102151428Y-81511009D01*
X102151428Y-81511009D02*
X101818095Y-81511009D01*
X113666666Y-43554819D02*
X113666666Y-44269104D01*
X113666666Y-44269104D02*
X113619047Y-44411961D01*
X113619047Y-44411961D02*
X113523809Y-44507200D01*
X113523809Y-44507200D02*
X113380952Y-44554819D01*
X113380952Y-44554819D02*
X113285714Y-44554819D01*
X114095238Y-43650057D02*
X114142857Y-43602438D01*
X114142857Y-43602438D02*
X114238095Y-43554819D01*
X114238095Y-43554819D02*
X114476190Y-43554819D01*
X114476190Y-43554819D02*
X114571428Y-43602438D01*
X114571428Y-43602438D02*
X114619047Y-43650057D01*
X114619047Y-43650057D02*
X114666666Y-43745295D01*
X114666666Y-43745295D02*
X114666666Y-43840533D01*
X114666666Y-43840533D02*
X114619047Y-43983390D01*
X114619047Y-43983390D02*
X114047619Y-44554819D01*
X114047619Y-44554819D02*
X114666666Y-44554819D01*
X114166666Y-53654819D02*
X114166666Y-54369104D01*
X114166666Y-54369104D02*
X114119047Y-54511961D01*
X114119047Y-54511961D02*
X114023809Y-54607200D01*
X114023809Y-54607200D02*
X113880952Y-54654819D01*
X113880952Y-54654819D02*
X113785714Y-54654819D01*
X114547619Y-53654819D02*
X115166666Y-53654819D01*
X115166666Y-53654819D02*
X114833333Y-54035771D01*
X114833333Y-54035771D02*
X114976190Y-54035771D01*
X114976190Y-54035771D02*
X115071428Y-54083390D01*
X115071428Y-54083390D02*
X115119047Y-54131009D01*
X115119047Y-54131009D02*
X115166666Y-54226247D01*
X115166666Y-54226247D02*
X115166666Y-54464342D01*
X115166666Y-54464342D02*
X115119047Y-54559580D01*
X115119047Y-54559580D02*
X115071428Y-54607200D01*
X115071428Y-54607200D02*
X114976190Y-54654819D01*
X114976190Y-54654819D02*
X114690476Y-54654819D01*
X114690476Y-54654819D02*
X114595238Y-54607200D01*
X114595238Y-54607200D02*
X114547619Y-54559580D01*
D11*
%TO.C,9V L298N*%
X111470000Y-82570000D02*
X111470000Y-85170000D01*
X111470000Y-82570000D02*
X114130000Y-82570000D01*
X111470000Y-85170000D02*
X114130000Y-85170000D01*
X112800000Y-79970000D02*
X114130000Y-79970000D01*
X114130000Y-79970000D02*
X114130000Y-81300000D01*
X114130000Y-82570000D02*
X114130000Y-85170000D01*
%TO.C,SW2*%
X116341120Y-77960800D02*
X111118880Y-77960800D01*
X116341120Y-70239200D02*
X116341120Y-77960800D01*
X116341120Y-70239200D02*
X111118880Y-70239200D01*
X111118880Y-77960800D02*
X111118880Y-70239200D01*
%TO.C,J6*%
X111470000Y-62770000D02*
X112800000Y-62770000D01*
X111470000Y-64100000D02*
X111470000Y-62770000D01*
X111470000Y-65370000D02*
X111470000Y-67970000D01*
X111470000Y-65370000D02*
X114130000Y-65370000D01*
X111470000Y-67970000D02*
X114130000Y-67970000D01*
X114130000Y-65370000D02*
X114130000Y-67970000D01*
%TO.C,J4*%
X111495000Y-52930000D02*
X111495000Y-51600000D01*
X112825000Y-52930000D02*
X111495000Y-52930000D01*
X114095000Y-52930000D02*
X116695000Y-52930000D01*
X114095000Y-52930000D02*
X114095000Y-50270000D01*
X116695000Y-52930000D02*
X116695000Y-50270000D01*
X114095000Y-50270000D02*
X116695000Y-50270000D01*
%TO.C,BT1*%
X117970000Y-82470000D02*
X117970000Y-85070000D01*
X117970000Y-82470000D02*
X120630000Y-82470000D01*
X117970000Y-85070000D02*
X120630000Y-85070000D01*
X119300000Y-79870000D02*
X120630000Y-79870000D01*
X120630000Y-79870000D02*
X120630000Y-81200000D01*
X120630000Y-82470000D02*
X120630000Y-85070000D01*
%TO.C,C2*%
X121120000Y-75860000D02*
G75*
G03*
X121120000Y-75860000I-2120000J0D01*
G01*
%TO.C,C1*%
X112706000Y-59280000D02*
X113964000Y-59280000D01*
X112706000Y-61120000D02*
X113964000Y-61120000D01*
%TO.C,J1*%
X88270000Y-59970000D02*
X89600000Y-59970000D01*
X88270000Y-61300000D02*
X88270000Y-59970000D01*
X88270000Y-62570000D02*
X88270000Y-70250000D01*
X88270000Y-62570000D02*
X90930000Y-62570000D01*
X88270000Y-70250000D02*
X90930000Y-70250000D01*
X90930000Y-62570000D02*
X90930000Y-70250000D01*
%TO.C,G\u002A\u002A\u002A*%
G36*
X103511749Y-39588452D02*
G01*
X103511749Y-39783445D01*
X103316756Y-39783445D01*
X103121763Y-39783445D01*
X103121763Y-39664753D01*
X103221640Y-39664753D01*
X103307349Y-39664753D01*
X103393058Y-39664753D01*
X103393058Y-39579045D01*
X103393058Y-39493336D01*
X103312517Y-39498504D01*
X103231976Y-39503672D01*
X103226808Y-39584213D01*
X103221640Y-39664753D01*
X103121763Y-39664753D01*
X103121763Y-39588452D01*
X103121763Y-39393458D01*
X103316756Y-39393458D01*
X103511749Y-39393458D01*
X103511749Y-39588452D01*
G37*
G36*
X104003472Y-38588051D02*
G01*
X104003472Y-38783044D01*
X103808478Y-38783044D01*
X103613485Y-38783044D01*
X103613485Y-38588051D01*
X103613485Y-38511749D01*
X103732177Y-38511749D01*
X103732177Y-38597458D01*
X103732177Y-38683167D01*
X103812717Y-38677999D01*
X103893258Y-38672831D01*
X103898426Y-38592290D01*
X103903594Y-38511749D01*
X103817885Y-38511749D01*
X103732177Y-38511749D01*
X103613485Y-38511749D01*
X103613485Y-38393058D01*
X103808478Y-38393058D01*
X104003472Y-38393058D01*
X104003472Y-38588051D01*
G37*
G36*
X104003472Y-39088251D02*
G01*
X104003472Y-39291723D01*
X103808478Y-39291723D01*
X103613485Y-39291723D01*
X103613485Y-39088251D01*
X103613485Y-39001614D01*
X103732177Y-39001614D01*
X103732177Y-39088251D01*
X103732177Y-39174889D01*
X103812717Y-39169721D01*
X103893258Y-39164553D01*
X103893258Y-39088251D01*
X103893258Y-39011950D01*
X103812717Y-39006782D01*
X103732177Y-39001614D01*
X103613485Y-39001614D01*
X103613485Y-38884780D01*
X103808478Y-38884780D01*
X104003472Y-38884780D01*
X104003472Y-39088251D01*
G37*
G36*
X104003472Y-39588452D02*
G01*
X104003472Y-39783445D01*
X103808478Y-39783445D01*
X103613485Y-39783445D01*
X103613485Y-39588452D01*
X103613485Y-39493336D01*
X103732177Y-39493336D01*
X103732177Y-39579045D01*
X103732177Y-39664753D01*
X103817885Y-39664753D01*
X103903594Y-39664753D01*
X103898426Y-39584213D01*
X103893258Y-39503672D01*
X103812717Y-39498504D01*
X103732177Y-39493336D01*
X103613485Y-39493336D01*
X103613485Y-39393458D01*
X103808478Y-39393458D01*
X104003472Y-39393458D01*
X104003472Y-39588452D01*
G37*
G36*
X104512150Y-39588452D02*
G01*
X104512150Y-39783445D01*
X104317157Y-39783445D01*
X104122163Y-39783445D01*
X104122163Y-39664753D01*
X104222041Y-39664753D01*
X104307750Y-39664753D01*
X104393458Y-39664753D01*
X104393458Y-39579045D01*
X104393458Y-39493336D01*
X104312918Y-39498504D01*
X104232377Y-39503672D01*
X104227209Y-39584213D01*
X104222041Y-39664753D01*
X104122163Y-39664753D01*
X104122163Y-39588452D01*
X104122163Y-39393458D01*
X104317157Y-39393458D01*
X104512150Y-39393458D01*
X104512150Y-39588452D01*
G37*
G36*
X103511749Y-38588051D02*
G01*
X103511749Y-38783044D01*
X103316756Y-38783044D01*
X103121763Y-38783044D01*
X103121763Y-38588051D01*
X103121763Y-38511749D01*
X103223498Y-38511749D01*
X103223498Y-38585225D01*
X103225903Y-38632806D01*
X103231941Y-38664743D01*
X103234802Y-38670005D01*
X103257385Y-38676955D01*
X103300613Y-38680939D01*
X103319582Y-38681309D01*
X103393058Y-38681309D01*
X103393058Y-38596529D01*
X103393058Y-38511749D01*
X103308278Y-38511749D01*
X103223498Y-38511749D01*
X103121763Y-38511749D01*
X103121763Y-38393058D01*
X103316756Y-38393058D01*
X103511749Y-38393058D01*
X103511749Y-38588051D01*
G37*
G36*
X103511749Y-39088251D02*
G01*
X103511749Y-39291723D01*
X103316756Y-39291723D01*
X103121763Y-39291723D01*
X103121763Y-39125992D01*
X103225281Y-39125992D01*
X103239411Y-39157755D01*
X103274984Y-39171003D01*
X103316224Y-39173031D01*
X103393058Y-39173031D01*
X103393058Y-39087322D01*
X103393058Y-39001614D01*
X103312517Y-39006782D01*
X103263755Y-39011404D01*
X103239284Y-39021649D01*
X103229509Y-39044424D01*
X103226543Y-39068671D01*
X103225281Y-39125992D01*
X103121763Y-39125992D01*
X103121763Y-39088251D01*
X103121763Y-38884780D01*
X103316756Y-38884780D01*
X103511749Y-38884780D01*
X103511749Y-39088251D01*
G37*
G36*
X104512150Y-38588051D02*
G01*
X104512150Y-38783044D01*
X104317157Y-38783044D01*
X104122163Y-38783044D01*
X104122163Y-38588051D01*
X104122163Y-38511749D01*
X104223899Y-38511749D01*
X104223899Y-38585225D01*
X104226304Y-38632806D01*
X104232341Y-38664743D01*
X104235203Y-38670005D01*
X104257785Y-38676955D01*
X104301014Y-38680939D01*
X104319983Y-38681309D01*
X104393458Y-38681309D01*
X104393458Y-38596529D01*
X104393458Y-38511749D01*
X104308679Y-38511749D01*
X104223899Y-38511749D01*
X104122163Y-38511749D01*
X104122163Y-38393058D01*
X104317157Y-38393058D01*
X104512150Y-38393058D01*
X104512150Y-38588051D01*
G37*
G36*
X104512150Y-39088251D02*
G01*
X104512150Y-39291723D01*
X104317157Y-39291723D01*
X104122163Y-39291723D01*
X104122163Y-39125992D01*
X104225681Y-39125992D01*
X104239811Y-39157755D01*
X104275385Y-39171003D01*
X104316624Y-39173031D01*
X104393458Y-39173031D01*
X104393458Y-39087322D01*
X104393458Y-39001614D01*
X104312918Y-39006782D01*
X104264155Y-39011404D01*
X104239684Y-39021649D01*
X104229909Y-39044424D01*
X104226943Y-39068671D01*
X104225681Y-39125992D01*
X104122163Y-39125992D01*
X104122163Y-39088251D01*
X104122163Y-38884780D01*
X104317157Y-38884780D01*
X104512150Y-38884780D01*
X104512150Y-39088251D01*
G37*
G36*
X104512150Y-37952203D02*
G01*
X104512150Y-38223498D01*
X103816956Y-38223498D01*
X103121763Y-38223498D01*
X103121763Y-37952203D01*
X103121763Y-37799600D01*
X103223498Y-37799600D01*
X103223498Y-37940899D01*
X103224771Y-38007121D01*
X103228160Y-38059712D01*
X103233018Y-38089948D01*
X103234802Y-38093503D01*
X103253856Y-38096181D01*
X103302816Y-38098633D01*
X103377675Y-38100781D01*
X103474429Y-38102547D01*
X103589071Y-38103855D01*
X103717595Y-38104627D01*
X103819782Y-38104807D01*
X104393458Y-38104807D01*
X104393458Y-37952203D01*
X104393458Y-37799600D01*
X103808478Y-37799600D01*
X103223498Y-37799600D01*
X103121763Y-37799600D01*
X103121763Y-37680908D01*
X103816956Y-37680908D01*
X104512150Y-37680908D01*
X104512150Y-37952203D01*
G37*
G36*
X104305528Y-37411781D02*
G01*
X104424049Y-37412634D01*
X104519834Y-37414537D01*
X104595680Y-37417703D01*
X104654379Y-37422344D01*
X104698726Y-37428672D01*
X104731516Y-37436900D01*
X104755541Y-37447238D01*
X104773597Y-37459900D01*
X104788478Y-37475098D01*
X104800976Y-37490497D01*
X104807208Y-37499260D01*
X104812611Y-37510155D01*
X104817245Y-37525518D01*
X104821167Y-37547681D01*
X104824438Y-37578980D01*
X104827117Y-37621749D01*
X104829262Y-37678322D01*
X104830932Y-37751034D01*
X104832188Y-37842219D01*
X104833087Y-37954212D01*
X104833689Y-38089346D01*
X104834054Y-38249957D01*
X104834240Y-38438379D01*
X104834306Y-38656945D01*
X104834313Y-38806992D01*
X104834353Y-39049892D01*
X104834359Y-39261169D01*
X104834162Y-39443112D01*
X104833593Y-39598009D01*
X104832481Y-39728147D01*
X104830658Y-39835817D01*
X104827953Y-39923307D01*
X104824196Y-39992904D01*
X104819219Y-40046898D01*
X104812851Y-40087577D01*
X104804923Y-40117230D01*
X104795265Y-40138145D01*
X104783708Y-40152610D01*
X104770082Y-40162915D01*
X104754217Y-40171347D01*
X104735944Y-40180195D01*
X104732390Y-40182006D01*
X104717138Y-40187775D01*
X104693754Y-40192609D01*
X104659475Y-40196579D01*
X104611539Y-40199759D01*
X104547180Y-40202223D01*
X104463635Y-40204043D01*
X104358141Y-40205291D01*
X104227935Y-40206042D01*
X104070252Y-40206368D01*
X103882330Y-40206342D01*
X103813559Y-40206269D01*
X103644035Y-40205793D01*
X103484114Y-40204830D01*
X103337135Y-40203437D01*
X103206432Y-40201669D01*
X103095342Y-40199582D01*
X103007202Y-40197231D01*
X102945348Y-40194672D01*
X102913116Y-40191962D01*
X102909813Y-40191167D01*
X102875227Y-40169273D01*
X102836640Y-40134844D01*
X102833512Y-40131536D01*
X102791122Y-40085931D01*
X102786567Y-38815691D01*
X102786525Y-38803866D01*
X102901335Y-38803866D01*
X102901386Y-39038239D01*
X102901574Y-39241035D01*
X102901951Y-39414589D01*
X102902568Y-39561236D01*
X102903480Y-39683310D01*
X102904737Y-39783146D01*
X102906392Y-39863079D01*
X102908497Y-39925444D01*
X102911104Y-39972576D01*
X102914267Y-40006809D01*
X102918036Y-40030479D01*
X102922465Y-40045919D01*
X102927605Y-40055465D01*
X102929397Y-40057644D01*
X102937263Y-40064634D01*
X102949016Y-40070490D01*
X102967499Y-40075311D01*
X102995555Y-40079198D01*
X103036024Y-40082250D01*
X103091751Y-40084568D01*
X103165577Y-40086251D01*
X103260344Y-40087400D01*
X103378896Y-40088113D01*
X103524074Y-40088492D01*
X103698721Y-40088636D01*
X103811106Y-40088652D01*
X104003173Y-40088617D01*
X104164199Y-40088438D01*
X104297057Y-40088004D01*
X104404618Y-40087204D01*
X104489755Y-40085929D01*
X104555338Y-40084066D01*
X104604240Y-40081506D01*
X104639333Y-40078137D01*
X104663488Y-40073849D01*
X104679576Y-40068531D01*
X104690471Y-40062073D01*
X104698993Y-40054412D01*
X104705514Y-40047282D01*
X104711139Y-40038285D01*
X104715924Y-40025050D01*
X104719924Y-40005206D01*
X104723196Y-39976380D01*
X104725796Y-39936201D01*
X104727780Y-39882298D01*
X104729204Y-39812297D01*
X104730124Y-39723829D01*
X104730596Y-39614520D01*
X104730676Y-39482000D01*
X104730419Y-39323896D01*
X104729883Y-39137837D01*
X104729123Y-38921450D01*
X104728666Y-38798301D01*
X104727771Y-38565379D01*
X104726905Y-38364017D01*
X104725997Y-38191865D01*
X104724976Y-38046573D01*
X104723772Y-37925789D01*
X104722313Y-37827163D01*
X104720529Y-37748344D01*
X104718349Y-37686981D01*
X104715703Y-37640724D01*
X104712520Y-37607221D01*
X104708729Y-37584123D01*
X104704260Y-37569077D01*
X104699041Y-37559734D01*
X104693002Y-37553742D01*
X104691185Y-37552367D01*
X104678756Y-37546771D01*
X104656294Y-37542082D01*
X104621110Y-37538224D01*
X104570518Y-37535125D01*
X104501830Y-37532710D01*
X104412359Y-37530905D01*
X104299418Y-37529636D01*
X104160319Y-37528829D01*
X103992376Y-37528411D01*
X103817488Y-37528305D01*
X103624115Y-37528411D01*
X103461832Y-37528785D01*
X103327816Y-37529513D01*
X103219246Y-37530679D01*
X103133299Y-37532368D01*
X103067155Y-37534664D01*
X103017990Y-37537653D01*
X102982984Y-37541419D01*
X102959313Y-37546048D01*
X102944157Y-37551623D01*
X102939020Y-37554700D01*
X102901335Y-37581095D01*
X102901335Y-38803866D01*
X102786525Y-38803866D01*
X102782013Y-37545452D01*
X102840362Y-37481771D01*
X102898711Y-37418091D01*
X103785618Y-37413405D01*
X103989107Y-37412378D01*
X104161479Y-37411767D01*
X104305528Y-37411781D01*
G37*
%TO.C,A1*%
X92060000Y-42080000D02*
X92060000Y-44750000D01*
X92060000Y-47290000D02*
X92060000Y-85520000D01*
X92060000Y-85520000D02*
X97140000Y-85520000D01*
X94730000Y-44750000D02*
X92060000Y-44750000D01*
X94730000Y-47290000D02*
X92060000Y-47290000D01*
X94730000Y-47290000D02*
X94730000Y-44750000D01*
X94730000Y-47290000D02*
X94730000Y-82850000D01*
X94730000Y-82850000D02*
X92060000Y-82850000D01*
X97140000Y-77640000D02*
X105020000Y-77640000D01*
X97140000Y-88060000D02*
X97140000Y-77640000D01*
X105020000Y-77640000D02*
X105020000Y-88060000D01*
X105020000Y-88060000D02*
X97140000Y-88060000D01*
X107430000Y-44750000D02*
X107430000Y-82850000D01*
X107430000Y-44750000D02*
X110100000Y-44750000D01*
X107430000Y-82850000D02*
X110100000Y-82850000D01*
X110100000Y-42080000D02*
X92060000Y-42080000D01*
X110100000Y-85520000D02*
X105020000Y-85520000D01*
X110100000Y-85520000D02*
X110100000Y-42080000D01*
%TO.C,J2*%
X114120000Y-47805000D02*
X116720000Y-47805000D01*
X114120000Y-47805000D02*
X114120000Y-45145000D01*
X116720000Y-47805000D02*
X116720000Y-45145000D01*
X111520000Y-46475000D02*
X111520000Y-45145000D01*
X111520000Y-45145000D02*
X112850000Y-45145000D01*
X114120000Y-45145000D02*
X116720000Y-45145000D01*
%TO.C,J3*%
X111530000Y-57905000D02*
X111530000Y-56575000D01*
X112860000Y-57905000D02*
X111530000Y-57905000D01*
X114130000Y-57905000D02*
X116730000Y-57905000D01*
X114130000Y-57905000D02*
X114130000Y-55245000D01*
X116730000Y-57905000D02*
X116730000Y-55245000D01*
X114130000Y-55245000D02*
X116730000Y-55245000D01*
%TD*%
M02*
