%TF.GenerationSoftware,KiCad,Pcbnew,7.0.6*%
%TF.CreationDate,2023-09-15T11:55:40+02:00*%
%TF.ProjectId,l293d-motor-controller,6c323933-642d-46d6-9f74-6f722d636f6e,rev?*%
%TF.SameCoordinates,Original*%
%TF.FileFunction,Drillmap*%
%TF.FilePolarity,Positive*%
%FSLAX45Y45*%
G04 Gerber Fmt 4.5, Leading zero omitted, Abs format (unit mm)*
G04 Created by KiCad (PCBNEW 7.0.6) date 2023-09-15 11:55:40*
%MOMM*%
%LPD*%
G01*
G04 APERTURE LIST*
%ADD10C,0.100000*%
%ADD11C,0.200000*%
%ADD12C,0.300000*%
G04 APERTURE END LIST*
D10*
X14224000Y-9906000D02*
G75*
G03*
X13716000Y-9398000I0J508000D01*
G01*
X13464836Y-9649897D02*
G75*
G03*
X13716000Y-9398000I-25306J276397D01*
G01*
X13716000Y-14986000D02*
G75*
G03*
X14224000Y-14478000I508000J0D01*
G01*
X11039830Y-14728144D02*
G75*
G03*
X10784000Y-14986000I25760J-281396D01*
G01*
X10276000Y-14478000D02*
G75*
G03*
X10784000Y-14986000I0J-508000D01*
G01*
X11039830Y-14728144D02*
X13456456Y-14731592D01*
X13965988Y-14220367D02*
X13965537Y-10169681D01*
X13464836Y-9649897D02*
X11043544Y-9652408D01*
X10784000Y-9398000D02*
G75*
G03*
X10276000Y-9906000I-508000J0D01*
G01*
X14224000Y-9906000D02*
G75*
G03*
X13965537Y-10169681I26000J-284000D01*
G01*
X10783998Y-9398000D02*
G75*
G03*
X11043544Y-9652408I279542J25590D01*
G01*
X10530045Y-10159996D02*
G75*
G03*
X10276000Y-9906000I-279585J-25594D01*
G01*
X13716002Y-14986000D02*
G75*
G03*
X13456456Y-14731592I-279542J-25590D01*
G01*
X10276000Y-14478002D02*
G75*
G03*
X10530408Y-14218456I-25590J279542D01*
G01*
X10530045Y-10159996D02*
X10530408Y-14218456D01*
X13965988Y-14220367D02*
G75*
G03*
X14224000Y-14478000I283552J25957D01*
G01*
D11*
D12*
X10136000Y-9250000D02*
X10436000Y-9550000D01*
X10436000Y-9250000D02*
X10136000Y-9550000D01*
X10136000Y-14850000D02*
X10436000Y-15150000D01*
X10436000Y-14850000D02*
X10136000Y-15150000D01*
X14050000Y-9250000D02*
X14350000Y-9550000D01*
X14350000Y-9250000D02*
X14050000Y-9550000D01*
X14100000Y-14850000D02*
X14400000Y-15150000D01*
X14400000Y-14850000D02*
X14100000Y-15150000D01*
D11*
X10023777Y-15810484D02*
X10023777Y-15610484D01*
X10023777Y-15610484D02*
X10071396Y-15610484D01*
X10071396Y-15610484D02*
X10099967Y-15620008D01*
X10099967Y-15620008D02*
X10119015Y-15639055D01*
X10119015Y-15639055D02*
X10128539Y-15658103D01*
X10128539Y-15658103D02*
X10138063Y-15696198D01*
X10138063Y-15696198D02*
X10138063Y-15724769D01*
X10138063Y-15724769D02*
X10128539Y-15762865D01*
X10128539Y-15762865D02*
X10119015Y-15781912D01*
X10119015Y-15781912D02*
X10099967Y-15800960D01*
X10099967Y-15800960D02*
X10071396Y-15810484D01*
X10071396Y-15810484D02*
X10023777Y-15810484D01*
X10223777Y-15810484D02*
X10223777Y-15677150D01*
X10223777Y-15715246D02*
X10233301Y-15696198D01*
X10233301Y-15696198D02*
X10242824Y-15686674D01*
X10242824Y-15686674D02*
X10261872Y-15677150D01*
X10261872Y-15677150D02*
X10280920Y-15677150D01*
X10347586Y-15810484D02*
X10347586Y-15677150D01*
X10347586Y-15610484D02*
X10338063Y-15620008D01*
X10338063Y-15620008D02*
X10347586Y-15629531D01*
X10347586Y-15629531D02*
X10357110Y-15620008D01*
X10357110Y-15620008D02*
X10347586Y-15610484D01*
X10347586Y-15610484D02*
X10347586Y-15629531D01*
X10471396Y-15810484D02*
X10452348Y-15800960D01*
X10452348Y-15800960D02*
X10442824Y-15781912D01*
X10442824Y-15781912D02*
X10442824Y-15610484D01*
X10576158Y-15810484D02*
X10557110Y-15800960D01*
X10557110Y-15800960D02*
X10547586Y-15781912D01*
X10547586Y-15781912D02*
X10547586Y-15610484D01*
X10804729Y-15810484D02*
X10804729Y-15610484D01*
X10804729Y-15610484D02*
X10871396Y-15753341D01*
X10871396Y-15753341D02*
X10938063Y-15610484D01*
X10938063Y-15610484D02*
X10938063Y-15810484D01*
X11119015Y-15810484D02*
X11119015Y-15705722D01*
X11119015Y-15705722D02*
X11109491Y-15686674D01*
X11109491Y-15686674D02*
X11090444Y-15677150D01*
X11090444Y-15677150D02*
X11052348Y-15677150D01*
X11052348Y-15677150D02*
X11033301Y-15686674D01*
X11119015Y-15800960D02*
X11099967Y-15810484D01*
X11099967Y-15810484D02*
X11052348Y-15810484D01*
X11052348Y-15810484D02*
X11033301Y-15800960D01*
X11033301Y-15800960D02*
X11023777Y-15781912D01*
X11023777Y-15781912D02*
X11023777Y-15762865D01*
X11023777Y-15762865D02*
X11033301Y-15743817D01*
X11033301Y-15743817D02*
X11052348Y-15734293D01*
X11052348Y-15734293D02*
X11099967Y-15734293D01*
X11099967Y-15734293D02*
X11119015Y-15724769D01*
X11214253Y-15677150D02*
X11214253Y-15877150D01*
X11214253Y-15686674D02*
X11233301Y-15677150D01*
X11233301Y-15677150D02*
X11271396Y-15677150D01*
X11271396Y-15677150D02*
X11290443Y-15686674D01*
X11290443Y-15686674D02*
X11299967Y-15696198D01*
X11299967Y-15696198D02*
X11309491Y-15715246D01*
X11309491Y-15715246D02*
X11309491Y-15772388D01*
X11309491Y-15772388D02*
X11299967Y-15791436D01*
X11299967Y-15791436D02*
X11290443Y-15800960D01*
X11290443Y-15800960D02*
X11271396Y-15810484D01*
X11271396Y-15810484D02*
X11233301Y-15810484D01*
X11233301Y-15810484D02*
X11214253Y-15800960D01*
X11395205Y-15791436D02*
X11404729Y-15800960D01*
X11404729Y-15800960D02*
X11395205Y-15810484D01*
X11395205Y-15810484D02*
X11385682Y-15800960D01*
X11385682Y-15800960D02*
X11395205Y-15791436D01*
X11395205Y-15791436D02*
X11395205Y-15810484D01*
X11395205Y-15686674D02*
X11404729Y-15696198D01*
X11404729Y-15696198D02*
X11395205Y-15705722D01*
X11395205Y-15705722D02*
X11385682Y-15696198D01*
X11385682Y-15696198D02*
X11395205Y-15686674D01*
X11395205Y-15686674D02*
X11395205Y-15705722D01*
X9563000Y-16039000D02*
X9763000Y-16239000D01*
X9763000Y-16039000D02*
X9563000Y-16239000D01*
X10004729Y-16030484D02*
X10128539Y-16030484D01*
X10128539Y-16030484D02*
X10061872Y-16106674D01*
X10061872Y-16106674D02*
X10090444Y-16106674D01*
X10090444Y-16106674D02*
X10109491Y-16116198D01*
X10109491Y-16116198D02*
X10119015Y-16125722D01*
X10119015Y-16125722D02*
X10128539Y-16144769D01*
X10128539Y-16144769D02*
X10128539Y-16192388D01*
X10128539Y-16192388D02*
X10119015Y-16211436D01*
X10119015Y-16211436D02*
X10109491Y-16220960D01*
X10109491Y-16220960D02*
X10090444Y-16230484D01*
X10090444Y-16230484D02*
X10033301Y-16230484D01*
X10033301Y-16230484D02*
X10014253Y-16220960D01*
X10014253Y-16220960D02*
X10004729Y-16211436D01*
X10214253Y-16211436D02*
X10223777Y-16220960D01*
X10223777Y-16220960D02*
X10214253Y-16230484D01*
X10214253Y-16230484D02*
X10204729Y-16220960D01*
X10204729Y-16220960D02*
X10214253Y-16211436D01*
X10214253Y-16211436D02*
X10214253Y-16230484D01*
X10347586Y-16030484D02*
X10366634Y-16030484D01*
X10366634Y-16030484D02*
X10385682Y-16040008D01*
X10385682Y-16040008D02*
X10395205Y-16049531D01*
X10395205Y-16049531D02*
X10404729Y-16068579D01*
X10404729Y-16068579D02*
X10414253Y-16106674D01*
X10414253Y-16106674D02*
X10414253Y-16154293D01*
X10414253Y-16154293D02*
X10404729Y-16192388D01*
X10404729Y-16192388D02*
X10395205Y-16211436D01*
X10395205Y-16211436D02*
X10385682Y-16220960D01*
X10385682Y-16220960D02*
X10366634Y-16230484D01*
X10366634Y-16230484D02*
X10347586Y-16230484D01*
X10347586Y-16230484D02*
X10328539Y-16220960D01*
X10328539Y-16220960D02*
X10319015Y-16211436D01*
X10319015Y-16211436D02*
X10309491Y-16192388D01*
X10309491Y-16192388D02*
X10299967Y-16154293D01*
X10299967Y-16154293D02*
X10299967Y-16106674D01*
X10299967Y-16106674D02*
X10309491Y-16068579D01*
X10309491Y-16068579D02*
X10319015Y-16049531D01*
X10319015Y-16049531D02*
X10328539Y-16040008D01*
X10328539Y-16040008D02*
X10347586Y-16030484D01*
X10538063Y-16030484D02*
X10557110Y-16030484D01*
X10557110Y-16030484D02*
X10576158Y-16040008D01*
X10576158Y-16040008D02*
X10585682Y-16049531D01*
X10585682Y-16049531D02*
X10595205Y-16068579D01*
X10595205Y-16068579D02*
X10604729Y-16106674D01*
X10604729Y-16106674D02*
X10604729Y-16154293D01*
X10604729Y-16154293D02*
X10595205Y-16192388D01*
X10595205Y-16192388D02*
X10585682Y-16211436D01*
X10585682Y-16211436D02*
X10576158Y-16220960D01*
X10576158Y-16220960D02*
X10557110Y-16230484D01*
X10557110Y-16230484D02*
X10538063Y-16230484D01*
X10538063Y-16230484D02*
X10519015Y-16220960D01*
X10519015Y-16220960D02*
X10509491Y-16211436D01*
X10509491Y-16211436D02*
X10499967Y-16192388D01*
X10499967Y-16192388D02*
X10490444Y-16154293D01*
X10490444Y-16154293D02*
X10490444Y-16106674D01*
X10490444Y-16106674D02*
X10499967Y-16068579D01*
X10499967Y-16068579D02*
X10509491Y-16049531D01*
X10509491Y-16049531D02*
X10519015Y-16040008D01*
X10519015Y-16040008D02*
X10538063Y-16030484D01*
X10728539Y-16030484D02*
X10747586Y-16030484D01*
X10747586Y-16030484D02*
X10766634Y-16040008D01*
X10766634Y-16040008D02*
X10776158Y-16049531D01*
X10776158Y-16049531D02*
X10785682Y-16068579D01*
X10785682Y-16068579D02*
X10795205Y-16106674D01*
X10795205Y-16106674D02*
X10795205Y-16154293D01*
X10795205Y-16154293D02*
X10785682Y-16192388D01*
X10785682Y-16192388D02*
X10776158Y-16211436D01*
X10776158Y-16211436D02*
X10766634Y-16220960D01*
X10766634Y-16220960D02*
X10747586Y-16230484D01*
X10747586Y-16230484D02*
X10728539Y-16230484D01*
X10728539Y-16230484D02*
X10709491Y-16220960D01*
X10709491Y-16220960D02*
X10699967Y-16211436D01*
X10699967Y-16211436D02*
X10690444Y-16192388D01*
X10690444Y-16192388D02*
X10680920Y-16154293D01*
X10680920Y-16154293D02*
X10680920Y-16106674D01*
X10680920Y-16106674D02*
X10690444Y-16068579D01*
X10690444Y-16068579D02*
X10699967Y-16049531D01*
X10699967Y-16049531D02*
X10709491Y-16040008D01*
X10709491Y-16040008D02*
X10728539Y-16030484D01*
X10880920Y-16230484D02*
X10880920Y-16097150D01*
X10880920Y-16116198D02*
X10890444Y-16106674D01*
X10890444Y-16106674D02*
X10909491Y-16097150D01*
X10909491Y-16097150D02*
X10938063Y-16097150D01*
X10938063Y-16097150D02*
X10957110Y-16106674D01*
X10957110Y-16106674D02*
X10966634Y-16125722D01*
X10966634Y-16125722D02*
X10966634Y-16230484D01*
X10966634Y-16125722D02*
X10976158Y-16106674D01*
X10976158Y-16106674D02*
X10995205Y-16097150D01*
X10995205Y-16097150D02*
X11023777Y-16097150D01*
X11023777Y-16097150D02*
X11042825Y-16106674D01*
X11042825Y-16106674D02*
X11052348Y-16125722D01*
X11052348Y-16125722D02*
X11052348Y-16230484D01*
X11147586Y-16230484D02*
X11147586Y-16097150D01*
X11147586Y-16116198D02*
X11157110Y-16106674D01*
X11157110Y-16106674D02*
X11176158Y-16097150D01*
X11176158Y-16097150D02*
X11204729Y-16097150D01*
X11204729Y-16097150D02*
X11223777Y-16106674D01*
X11223777Y-16106674D02*
X11233301Y-16125722D01*
X11233301Y-16125722D02*
X11233301Y-16230484D01*
X11233301Y-16125722D02*
X11242824Y-16106674D01*
X11242824Y-16106674D02*
X11261872Y-16097150D01*
X11261872Y-16097150D02*
X11290443Y-16097150D01*
X11290443Y-16097150D02*
X11309491Y-16106674D01*
X11309491Y-16106674D02*
X11319015Y-16125722D01*
X11319015Y-16125722D02*
X11319015Y-16230484D01*
X11709491Y-16020960D02*
X11538063Y-16278103D01*
X11966634Y-16030484D02*
X11985682Y-16030484D01*
X11985682Y-16030484D02*
X12004729Y-16040008D01*
X12004729Y-16040008D02*
X12014253Y-16049531D01*
X12014253Y-16049531D02*
X12023777Y-16068579D01*
X12023777Y-16068579D02*
X12033301Y-16106674D01*
X12033301Y-16106674D02*
X12033301Y-16154293D01*
X12033301Y-16154293D02*
X12023777Y-16192388D01*
X12023777Y-16192388D02*
X12014253Y-16211436D01*
X12014253Y-16211436D02*
X12004729Y-16220960D01*
X12004729Y-16220960D02*
X11985682Y-16230484D01*
X11985682Y-16230484D02*
X11966634Y-16230484D01*
X11966634Y-16230484D02*
X11947586Y-16220960D01*
X11947586Y-16220960D02*
X11938063Y-16211436D01*
X11938063Y-16211436D02*
X11928539Y-16192388D01*
X11928539Y-16192388D02*
X11919015Y-16154293D01*
X11919015Y-16154293D02*
X11919015Y-16106674D01*
X11919015Y-16106674D02*
X11928539Y-16068579D01*
X11928539Y-16068579D02*
X11938063Y-16049531D01*
X11938063Y-16049531D02*
X11947586Y-16040008D01*
X11947586Y-16040008D02*
X11966634Y-16030484D01*
X12119015Y-16211436D02*
X12128539Y-16220960D01*
X12128539Y-16220960D02*
X12119015Y-16230484D01*
X12119015Y-16230484D02*
X12109491Y-16220960D01*
X12109491Y-16220960D02*
X12119015Y-16211436D01*
X12119015Y-16211436D02*
X12119015Y-16230484D01*
X12319015Y-16230484D02*
X12204729Y-16230484D01*
X12261872Y-16230484D02*
X12261872Y-16030484D01*
X12261872Y-16030484D02*
X12242825Y-16059055D01*
X12242825Y-16059055D02*
X12223777Y-16078103D01*
X12223777Y-16078103D02*
X12204729Y-16087627D01*
X12509491Y-16230484D02*
X12395206Y-16230484D01*
X12452348Y-16230484D02*
X12452348Y-16030484D01*
X12452348Y-16030484D02*
X12433301Y-16059055D01*
X12433301Y-16059055D02*
X12414253Y-16078103D01*
X12414253Y-16078103D02*
X12395206Y-16087627D01*
X12623777Y-16116198D02*
X12604729Y-16106674D01*
X12604729Y-16106674D02*
X12595206Y-16097150D01*
X12595206Y-16097150D02*
X12585682Y-16078103D01*
X12585682Y-16078103D02*
X12585682Y-16068579D01*
X12585682Y-16068579D02*
X12595206Y-16049531D01*
X12595206Y-16049531D02*
X12604729Y-16040008D01*
X12604729Y-16040008D02*
X12623777Y-16030484D01*
X12623777Y-16030484D02*
X12661872Y-16030484D01*
X12661872Y-16030484D02*
X12680920Y-16040008D01*
X12680920Y-16040008D02*
X12690444Y-16049531D01*
X12690444Y-16049531D02*
X12699967Y-16068579D01*
X12699967Y-16068579D02*
X12699967Y-16078103D01*
X12699967Y-16078103D02*
X12690444Y-16097150D01*
X12690444Y-16097150D02*
X12680920Y-16106674D01*
X12680920Y-16106674D02*
X12661872Y-16116198D01*
X12661872Y-16116198D02*
X12623777Y-16116198D01*
X12623777Y-16116198D02*
X12604729Y-16125722D01*
X12604729Y-16125722D02*
X12595206Y-16135246D01*
X12595206Y-16135246D02*
X12585682Y-16154293D01*
X12585682Y-16154293D02*
X12585682Y-16192388D01*
X12585682Y-16192388D02*
X12595206Y-16211436D01*
X12595206Y-16211436D02*
X12604729Y-16220960D01*
X12604729Y-16220960D02*
X12623777Y-16230484D01*
X12623777Y-16230484D02*
X12661872Y-16230484D01*
X12661872Y-16230484D02*
X12680920Y-16220960D01*
X12680920Y-16220960D02*
X12690444Y-16211436D01*
X12690444Y-16211436D02*
X12699967Y-16192388D01*
X12699967Y-16192388D02*
X12699967Y-16154293D01*
X12699967Y-16154293D02*
X12690444Y-16135246D01*
X12690444Y-16135246D02*
X12680920Y-16125722D01*
X12680920Y-16125722D02*
X12661872Y-16116198D01*
X12890444Y-16230484D02*
X12776158Y-16230484D01*
X12833301Y-16230484D02*
X12833301Y-16030484D01*
X12833301Y-16030484D02*
X12814253Y-16059055D01*
X12814253Y-16059055D02*
X12795206Y-16078103D01*
X12795206Y-16078103D02*
X12776158Y-16087627D01*
X12966634Y-16030484D02*
X12966634Y-16068579D01*
X13042825Y-16030484D02*
X13042825Y-16068579D01*
X13338063Y-16306674D02*
X13328539Y-16297150D01*
X13328539Y-16297150D02*
X13309491Y-16268579D01*
X13309491Y-16268579D02*
X13299968Y-16249531D01*
X13299968Y-16249531D02*
X13290444Y-16220960D01*
X13290444Y-16220960D02*
X13280920Y-16173341D01*
X13280920Y-16173341D02*
X13280920Y-16135246D01*
X13280920Y-16135246D02*
X13290444Y-16087627D01*
X13290444Y-16087627D02*
X13299968Y-16059055D01*
X13299968Y-16059055D02*
X13309491Y-16040008D01*
X13309491Y-16040008D02*
X13328539Y-16011436D01*
X13328539Y-16011436D02*
X13338063Y-16001912D01*
X13499968Y-16097150D02*
X13499968Y-16230484D01*
X13452348Y-16020960D02*
X13404729Y-16163817D01*
X13404729Y-16163817D02*
X13528539Y-16163817D01*
X13757110Y-16230484D02*
X13757110Y-16030484D01*
X13842825Y-16230484D02*
X13842825Y-16125722D01*
X13842825Y-16125722D02*
X13833301Y-16106674D01*
X13833301Y-16106674D02*
X13814253Y-16097150D01*
X13814253Y-16097150D02*
X13785682Y-16097150D01*
X13785682Y-16097150D02*
X13766634Y-16106674D01*
X13766634Y-16106674D02*
X13757110Y-16116198D01*
X13966634Y-16230484D02*
X13947587Y-16220960D01*
X13947587Y-16220960D02*
X13938063Y-16211436D01*
X13938063Y-16211436D02*
X13928539Y-16192388D01*
X13928539Y-16192388D02*
X13928539Y-16135246D01*
X13928539Y-16135246D02*
X13938063Y-16116198D01*
X13938063Y-16116198D02*
X13947587Y-16106674D01*
X13947587Y-16106674D02*
X13966634Y-16097150D01*
X13966634Y-16097150D02*
X13995206Y-16097150D01*
X13995206Y-16097150D02*
X14014253Y-16106674D01*
X14014253Y-16106674D02*
X14023777Y-16116198D01*
X14023777Y-16116198D02*
X14033301Y-16135246D01*
X14033301Y-16135246D02*
X14033301Y-16192388D01*
X14033301Y-16192388D02*
X14023777Y-16211436D01*
X14023777Y-16211436D02*
X14014253Y-16220960D01*
X14014253Y-16220960D02*
X13995206Y-16230484D01*
X13995206Y-16230484D02*
X13966634Y-16230484D01*
X14147587Y-16230484D02*
X14128539Y-16220960D01*
X14128539Y-16220960D02*
X14119015Y-16201912D01*
X14119015Y-16201912D02*
X14119015Y-16030484D01*
X14299968Y-16220960D02*
X14280920Y-16230484D01*
X14280920Y-16230484D02*
X14242825Y-16230484D01*
X14242825Y-16230484D02*
X14223777Y-16220960D01*
X14223777Y-16220960D02*
X14214253Y-16201912D01*
X14214253Y-16201912D02*
X14214253Y-16125722D01*
X14214253Y-16125722D02*
X14223777Y-16106674D01*
X14223777Y-16106674D02*
X14242825Y-16097150D01*
X14242825Y-16097150D02*
X14280920Y-16097150D01*
X14280920Y-16097150D02*
X14299968Y-16106674D01*
X14299968Y-16106674D02*
X14309491Y-16125722D01*
X14309491Y-16125722D02*
X14309491Y-16144769D01*
X14309491Y-16144769D02*
X14214253Y-16163817D01*
X14385682Y-16220960D02*
X14404730Y-16230484D01*
X14404730Y-16230484D02*
X14442825Y-16230484D01*
X14442825Y-16230484D02*
X14461872Y-16220960D01*
X14461872Y-16220960D02*
X14471396Y-16201912D01*
X14471396Y-16201912D02*
X14471396Y-16192388D01*
X14471396Y-16192388D02*
X14461872Y-16173341D01*
X14461872Y-16173341D02*
X14442825Y-16163817D01*
X14442825Y-16163817D02*
X14414253Y-16163817D01*
X14414253Y-16163817D02*
X14395206Y-16154293D01*
X14395206Y-16154293D02*
X14385682Y-16135246D01*
X14385682Y-16135246D02*
X14385682Y-16125722D01*
X14385682Y-16125722D02*
X14395206Y-16106674D01*
X14395206Y-16106674D02*
X14414253Y-16097150D01*
X14414253Y-16097150D02*
X14442825Y-16097150D01*
X14442825Y-16097150D02*
X14461872Y-16106674D01*
X14538063Y-16306674D02*
X14547587Y-16297150D01*
X14547587Y-16297150D02*
X14566634Y-16268579D01*
X14566634Y-16268579D02*
X14576158Y-16249531D01*
X14576158Y-16249531D02*
X14585682Y-16220960D01*
X14585682Y-16220960D02*
X14595206Y-16173341D01*
X14595206Y-16173341D02*
X14595206Y-16135246D01*
X14595206Y-16135246D02*
X14585682Y-16087627D01*
X14585682Y-16087627D02*
X14576158Y-16059055D01*
X14576158Y-16059055D02*
X14566634Y-16040008D01*
X14566634Y-16040008D02*
X14547587Y-16011436D01*
X14547587Y-16011436D02*
X14538063Y-16001912D01*
X14899968Y-16306674D02*
X14890444Y-16297150D01*
X14890444Y-16297150D02*
X14871396Y-16268579D01*
X14871396Y-16268579D02*
X14861872Y-16249531D01*
X14861872Y-16249531D02*
X14852349Y-16220960D01*
X14852349Y-16220960D02*
X14842825Y-16173341D01*
X14842825Y-16173341D02*
X14842825Y-16135246D01*
X14842825Y-16135246D02*
X14852349Y-16087627D01*
X14852349Y-16087627D02*
X14861872Y-16059055D01*
X14861872Y-16059055D02*
X14871396Y-16040008D01*
X14871396Y-16040008D02*
X14890444Y-16011436D01*
X14890444Y-16011436D02*
X14899968Y-16001912D01*
X14976158Y-16097150D02*
X14976158Y-16230484D01*
X14976158Y-16116198D02*
X14985682Y-16106674D01*
X14985682Y-16106674D02*
X15004730Y-16097150D01*
X15004730Y-16097150D02*
X15033301Y-16097150D01*
X15033301Y-16097150D02*
X15052349Y-16106674D01*
X15052349Y-16106674D02*
X15061872Y-16125722D01*
X15061872Y-16125722D02*
X15061872Y-16230484D01*
X15185682Y-16230484D02*
X15166634Y-16220960D01*
X15166634Y-16220960D02*
X15157111Y-16211436D01*
X15157111Y-16211436D02*
X15147587Y-16192388D01*
X15147587Y-16192388D02*
X15147587Y-16135246D01*
X15147587Y-16135246D02*
X15157111Y-16116198D01*
X15157111Y-16116198D02*
X15166634Y-16106674D01*
X15166634Y-16106674D02*
X15185682Y-16097150D01*
X15185682Y-16097150D02*
X15214253Y-16097150D01*
X15214253Y-16097150D02*
X15233301Y-16106674D01*
X15233301Y-16106674D02*
X15242825Y-16116198D01*
X15242825Y-16116198D02*
X15252349Y-16135246D01*
X15252349Y-16135246D02*
X15252349Y-16192388D01*
X15252349Y-16192388D02*
X15242825Y-16211436D01*
X15242825Y-16211436D02*
X15233301Y-16220960D01*
X15233301Y-16220960D02*
X15214253Y-16230484D01*
X15214253Y-16230484D02*
X15185682Y-16230484D01*
X15309492Y-16097150D02*
X15385682Y-16097150D01*
X15338063Y-16030484D02*
X15338063Y-16201912D01*
X15338063Y-16201912D02*
X15347587Y-16220960D01*
X15347587Y-16220960D02*
X15366634Y-16230484D01*
X15366634Y-16230484D02*
X15385682Y-16230484D01*
X15604730Y-16097150D02*
X15604730Y-16297150D01*
X15604730Y-16106674D02*
X15623777Y-16097150D01*
X15623777Y-16097150D02*
X15661873Y-16097150D01*
X15661873Y-16097150D02*
X15680920Y-16106674D01*
X15680920Y-16106674D02*
X15690444Y-16116198D01*
X15690444Y-16116198D02*
X15699968Y-16135246D01*
X15699968Y-16135246D02*
X15699968Y-16192388D01*
X15699968Y-16192388D02*
X15690444Y-16211436D01*
X15690444Y-16211436D02*
X15680920Y-16220960D01*
X15680920Y-16220960D02*
X15661873Y-16230484D01*
X15661873Y-16230484D02*
X15623777Y-16230484D01*
X15623777Y-16230484D02*
X15604730Y-16220960D01*
X15814253Y-16230484D02*
X15795206Y-16220960D01*
X15795206Y-16220960D02*
X15785682Y-16201912D01*
X15785682Y-16201912D02*
X15785682Y-16030484D01*
X15976158Y-16230484D02*
X15976158Y-16125722D01*
X15976158Y-16125722D02*
X15966634Y-16106674D01*
X15966634Y-16106674D02*
X15947587Y-16097150D01*
X15947587Y-16097150D02*
X15909492Y-16097150D01*
X15909492Y-16097150D02*
X15890444Y-16106674D01*
X15976158Y-16220960D02*
X15957111Y-16230484D01*
X15957111Y-16230484D02*
X15909492Y-16230484D01*
X15909492Y-16230484D02*
X15890444Y-16220960D01*
X15890444Y-16220960D02*
X15880920Y-16201912D01*
X15880920Y-16201912D02*
X15880920Y-16182865D01*
X15880920Y-16182865D02*
X15890444Y-16163817D01*
X15890444Y-16163817D02*
X15909492Y-16154293D01*
X15909492Y-16154293D02*
X15957111Y-16154293D01*
X15957111Y-16154293D02*
X15976158Y-16144769D01*
X16042825Y-16097150D02*
X16119015Y-16097150D01*
X16071396Y-16030484D02*
X16071396Y-16201912D01*
X16071396Y-16201912D02*
X16080920Y-16220960D01*
X16080920Y-16220960D02*
X16099968Y-16230484D01*
X16099968Y-16230484D02*
X16119015Y-16230484D01*
X16261873Y-16220960D02*
X16242825Y-16230484D01*
X16242825Y-16230484D02*
X16204730Y-16230484D01*
X16204730Y-16230484D02*
X16185682Y-16220960D01*
X16185682Y-16220960D02*
X16176158Y-16201912D01*
X16176158Y-16201912D02*
X16176158Y-16125722D01*
X16176158Y-16125722D02*
X16185682Y-16106674D01*
X16185682Y-16106674D02*
X16204730Y-16097150D01*
X16204730Y-16097150D02*
X16242825Y-16097150D01*
X16242825Y-16097150D02*
X16261873Y-16106674D01*
X16261873Y-16106674D02*
X16271396Y-16125722D01*
X16271396Y-16125722D02*
X16271396Y-16144769D01*
X16271396Y-16144769D02*
X16176158Y-16163817D01*
X16442825Y-16230484D02*
X16442825Y-16030484D01*
X16442825Y-16220960D02*
X16423777Y-16230484D01*
X16423777Y-16230484D02*
X16385682Y-16230484D01*
X16385682Y-16230484D02*
X16366634Y-16220960D01*
X16366634Y-16220960D02*
X16357111Y-16211436D01*
X16357111Y-16211436D02*
X16347587Y-16192388D01*
X16347587Y-16192388D02*
X16347587Y-16135246D01*
X16347587Y-16135246D02*
X16357111Y-16116198D01*
X16357111Y-16116198D02*
X16366634Y-16106674D01*
X16366634Y-16106674D02*
X16385682Y-16097150D01*
X16385682Y-16097150D02*
X16423777Y-16097150D01*
X16423777Y-16097150D02*
X16442825Y-16106674D01*
X16519015Y-16306674D02*
X16528539Y-16297150D01*
X16528539Y-16297150D02*
X16547587Y-16268579D01*
X16547587Y-16268579D02*
X16557111Y-16249531D01*
X16557111Y-16249531D02*
X16566634Y-16220960D01*
X16566634Y-16220960D02*
X16576158Y-16173341D01*
X16576158Y-16173341D02*
X16576158Y-16135246D01*
X16576158Y-16135246D02*
X16566634Y-16087627D01*
X16566634Y-16087627D02*
X16557111Y-16059055D01*
X16557111Y-16059055D02*
X16547587Y-16040008D01*
X16547587Y-16040008D02*
X16528539Y-16011436D01*
X16528539Y-16011436D02*
X16519015Y-16001912D01*
M02*
