%TF.GenerationSoftware,KiCad,Pcbnew,7.0.6*%
%TF.CreationDate,2023-09-15T11:55:09+02:00*%
%TF.ProjectId,l293d-motor-controller,6c323933-642d-46d6-9f74-6f722d636f6e,rev?*%
%TF.SameCoordinates,Original*%
%TF.FileFunction,Legend,Top*%
%TF.FilePolarity,Positive*%
%FSLAX46Y46*%
G04 Gerber Fmt 4.6, Leading zero omitted, Abs format (unit mm)*
G04 Created by KiCad (PCBNEW 7.0.6) date 2023-09-15 11:55:09*
%MOMM*%
%LPD*%
G01*
G04 APERTURE LIST*
%ADD10C,0.150000*%
%ADD11C,0.120000*%
G04 APERTURE END LIST*
D10*
X112274874Y-99503152D02*
X112274874Y-98074580D01*
X113465350Y-99169819D02*
X112989160Y-99169819D01*
X112989160Y-99169819D02*
X112989160Y-98169819D01*
X113751065Y-98265057D02*
X113798684Y-98217438D01*
X113798684Y-98217438D02*
X113893922Y-98169819D01*
X113893922Y-98169819D02*
X114132017Y-98169819D01*
X114132017Y-98169819D02*
X114227255Y-98217438D01*
X114227255Y-98217438D02*
X114274874Y-98265057D01*
X114274874Y-98265057D02*
X114322493Y-98360295D01*
X114322493Y-98360295D02*
X114322493Y-98455533D01*
X114322493Y-98455533D02*
X114274874Y-98598390D01*
X114274874Y-98598390D02*
X113703446Y-99169819D01*
X113703446Y-99169819D02*
X114322493Y-99169819D01*
X114798684Y-99169819D02*
X114989160Y-99169819D01*
X114989160Y-99169819D02*
X115084398Y-99122200D01*
X115084398Y-99122200D02*
X115132017Y-99074580D01*
X115132017Y-99074580D02*
X115227255Y-98931723D01*
X115227255Y-98931723D02*
X115274874Y-98741247D01*
X115274874Y-98741247D02*
X115274874Y-98360295D01*
X115274874Y-98360295D02*
X115227255Y-98265057D01*
X115227255Y-98265057D02*
X115179636Y-98217438D01*
X115179636Y-98217438D02*
X115084398Y-98169819D01*
X115084398Y-98169819D02*
X114893922Y-98169819D01*
X114893922Y-98169819D02*
X114798684Y-98217438D01*
X114798684Y-98217438D02*
X114751065Y-98265057D01*
X114751065Y-98265057D02*
X114703446Y-98360295D01*
X114703446Y-98360295D02*
X114703446Y-98598390D01*
X114703446Y-98598390D02*
X114751065Y-98693628D01*
X114751065Y-98693628D02*
X114798684Y-98741247D01*
X114798684Y-98741247D02*
X114893922Y-98788866D01*
X114893922Y-98788866D02*
X115084398Y-98788866D01*
X115084398Y-98788866D02*
X115179636Y-98741247D01*
X115179636Y-98741247D02*
X115227255Y-98693628D01*
X115227255Y-98693628D02*
X115274874Y-98598390D01*
X115608208Y-98169819D02*
X116227255Y-98169819D01*
X116227255Y-98169819D02*
X115893922Y-98550771D01*
X115893922Y-98550771D02*
X116036779Y-98550771D01*
X116036779Y-98550771D02*
X116132017Y-98598390D01*
X116132017Y-98598390D02*
X116179636Y-98646009D01*
X116179636Y-98646009D02*
X116227255Y-98741247D01*
X116227255Y-98741247D02*
X116227255Y-98979342D01*
X116227255Y-98979342D02*
X116179636Y-99074580D01*
X116179636Y-99074580D02*
X116132017Y-99122200D01*
X116132017Y-99122200D02*
X116036779Y-99169819D01*
X116036779Y-99169819D02*
X115751065Y-99169819D01*
X115751065Y-99169819D02*
X115655827Y-99122200D01*
X115655827Y-99122200D02*
X115608208Y-99074580D01*
X116655827Y-99169819D02*
X116655827Y-98169819D01*
X116655827Y-98169819D02*
X116893922Y-98169819D01*
X116893922Y-98169819D02*
X117036779Y-98217438D01*
X117036779Y-98217438D02*
X117132017Y-98312676D01*
X117132017Y-98312676D02*
X117179636Y-98407914D01*
X117179636Y-98407914D02*
X117227255Y-98598390D01*
X117227255Y-98598390D02*
X117227255Y-98741247D01*
X117227255Y-98741247D02*
X117179636Y-98931723D01*
X117179636Y-98931723D02*
X117132017Y-99026961D01*
X117132017Y-99026961D02*
X117036779Y-99122200D01*
X117036779Y-99122200D02*
X116893922Y-99169819D01*
X116893922Y-99169819D02*
X116655827Y-99169819D01*
X118417732Y-99169819D02*
X118417732Y-98169819D01*
X118417732Y-98169819D02*
X118751065Y-98884104D01*
X118751065Y-98884104D02*
X119084398Y-98169819D01*
X119084398Y-98169819D02*
X119084398Y-99169819D01*
X119751065Y-98169819D02*
X119941541Y-98169819D01*
X119941541Y-98169819D02*
X120036779Y-98217438D01*
X120036779Y-98217438D02*
X120132017Y-98312676D01*
X120132017Y-98312676D02*
X120179636Y-98503152D01*
X120179636Y-98503152D02*
X120179636Y-98836485D01*
X120179636Y-98836485D02*
X120132017Y-99026961D01*
X120132017Y-99026961D02*
X120036779Y-99122200D01*
X120036779Y-99122200D02*
X119941541Y-99169819D01*
X119941541Y-99169819D02*
X119751065Y-99169819D01*
X119751065Y-99169819D02*
X119655827Y-99122200D01*
X119655827Y-99122200D02*
X119560589Y-99026961D01*
X119560589Y-99026961D02*
X119512970Y-98836485D01*
X119512970Y-98836485D02*
X119512970Y-98503152D01*
X119512970Y-98503152D02*
X119560589Y-98312676D01*
X119560589Y-98312676D02*
X119655827Y-98217438D01*
X119655827Y-98217438D02*
X119751065Y-98169819D01*
X120465351Y-98169819D02*
X121036779Y-98169819D01*
X120751065Y-99169819D02*
X120751065Y-98169819D01*
X121560589Y-98169819D02*
X121751065Y-98169819D01*
X121751065Y-98169819D02*
X121846303Y-98217438D01*
X121846303Y-98217438D02*
X121941541Y-98312676D01*
X121941541Y-98312676D02*
X121989160Y-98503152D01*
X121989160Y-98503152D02*
X121989160Y-98836485D01*
X121989160Y-98836485D02*
X121941541Y-99026961D01*
X121941541Y-99026961D02*
X121846303Y-99122200D01*
X121846303Y-99122200D02*
X121751065Y-99169819D01*
X121751065Y-99169819D02*
X121560589Y-99169819D01*
X121560589Y-99169819D02*
X121465351Y-99122200D01*
X121465351Y-99122200D02*
X121370113Y-99026961D01*
X121370113Y-99026961D02*
X121322494Y-98836485D01*
X121322494Y-98836485D02*
X121322494Y-98503152D01*
X121322494Y-98503152D02*
X121370113Y-98312676D01*
X121370113Y-98312676D02*
X121465351Y-98217438D01*
X121465351Y-98217438D02*
X121560589Y-98169819D01*
X122989160Y-99169819D02*
X122655827Y-98693628D01*
X122417732Y-99169819D02*
X122417732Y-98169819D01*
X122417732Y-98169819D02*
X122798684Y-98169819D01*
X122798684Y-98169819D02*
X122893922Y-98217438D01*
X122893922Y-98217438D02*
X122941541Y-98265057D01*
X122941541Y-98265057D02*
X122989160Y-98360295D01*
X122989160Y-98360295D02*
X122989160Y-98503152D01*
X122989160Y-98503152D02*
X122941541Y-98598390D01*
X122941541Y-98598390D02*
X122893922Y-98646009D01*
X122893922Y-98646009D02*
X122798684Y-98693628D01*
X122798684Y-98693628D02*
X122417732Y-98693628D01*
X124751065Y-99074580D02*
X124703446Y-99122200D01*
X124703446Y-99122200D02*
X124560589Y-99169819D01*
X124560589Y-99169819D02*
X124465351Y-99169819D01*
X124465351Y-99169819D02*
X124322494Y-99122200D01*
X124322494Y-99122200D02*
X124227256Y-99026961D01*
X124227256Y-99026961D02*
X124179637Y-98931723D01*
X124179637Y-98931723D02*
X124132018Y-98741247D01*
X124132018Y-98741247D02*
X124132018Y-98598390D01*
X124132018Y-98598390D02*
X124179637Y-98407914D01*
X124179637Y-98407914D02*
X124227256Y-98312676D01*
X124227256Y-98312676D02*
X124322494Y-98217438D01*
X124322494Y-98217438D02*
X124465351Y-98169819D01*
X124465351Y-98169819D02*
X124560589Y-98169819D01*
X124560589Y-98169819D02*
X124703446Y-98217438D01*
X124703446Y-98217438D02*
X124751065Y-98265057D01*
X125370113Y-98169819D02*
X125560589Y-98169819D01*
X125560589Y-98169819D02*
X125655827Y-98217438D01*
X125655827Y-98217438D02*
X125751065Y-98312676D01*
X125751065Y-98312676D02*
X125798684Y-98503152D01*
X125798684Y-98503152D02*
X125798684Y-98836485D01*
X125798684Y-98836485D02*
X125751065Y-99026961D01*
X125751065Y-99026961D02*
X125655827Y-99122200D01*
X125655827Y-99122200D02*
X125560589Y-99169819D01*
X125560589Y-99169819D02*
X125370113Y-99169819D01*
X125370113Y-99169819D02*
X125274875Y-99122200D01*
X125274875Y-99122200D02*
X125179637Y-99026961D01*
X125179637Y-99026961D02*
X125132018Y-98836485D01*
X125132018Y-98836485D02*
X125132018Y-98503152D01*
X125132018Y-98503152D02*
X125179637Y-98312676D01*
X125179637Y-98312676D02*
X125274875Y-98217438D01*
X125274875Y-98217438D02*
X125370113Y-98169819D01*
X126227256Y-99169819D02*
X126227256Y-98169819D01*
X126227256Y-98169819D02*
X126798684Y-99169819D01*
X126798684Y-99169819D02*
X126798684Y-98169819D01*
X127132018Y-98169819D02*
X127703446Y-98169819D01*
X127417732Y-99169819D02*
X127417732Y-98169819D01*
X128608208Y-99169819D02*
X128274875Y-98693628D01*
X128036780Y-99169819D02*
X128036780Y-98169819D01*
X128036780Y-98169819D02*
X128417732Y-98169819D01*
X128417732Y-98169819D02*
X128512970Y-98217438D01*
X128512970Y-98217438D02*
X128560589Y-98265057D01*
X128560589Y-98265057D02*
X128608208Y-98360295D01*
X128608208Y-98360295D02*
X128608208Y-98503152D01*
X128608208Y-98503152D02*
X128560589Y-98598390D01*
X128560589Y-98598390D02*
X128512970Y-98646009D01*
X128512970Y-98646009D02*
X128417732Y-98693628D01*
X128417732Y-98693628D02*
X128036780Y-98693628D01*
X129227256Y-98169819D02*
X129417732Y-98169819D01*
X129417732Y-98169819D02*
X129512970Y-98217438D01*
X129512970Y-98217438D02*
X129608208Y-98312676D01*
X129608208Y-98312676D02*
X129655827Y-98503152D01*
X129655827Y-98503152D02*
X129655827Y-98836485D01*
X129655827Y-98836485D02*
X129608208Y-99026961D01*
X129608208Y-99026961D02*
X129512970Y-99122200D01*
X129512970Y-99122200D02*
X129417732Y-99169819D01*
X129417732Y-99169819D02*
X129227256Y-99169819D01*
X129227256Y-99169819D02*
X129132018Y-99122200D01*
X129132018Y-99122200D02*
X129036780Y-99026961D01*
X129036780Y-99026961D02*
X128989161Y-98836485D01*
X128989161Y-98836485D02*
X128989161Y-98503152D01*
X128989161Y-98503152D02*
X129036780Y-98312676D01*
X129036780Y-98312676D02*
X129132018Y-98217438D01*
X129132018Y-98217438D02*
X129227256Y-98169819D01*
X130560589Y-99169819D02*
X130084399Y-99169819D01*
X130084399Y-99169819D02*
X130084399Y-98169819D01*
X131370113Y-99169819D02*
X130893923Y-99169819D01*
X130893923Y-99169819D02*
X130893923Y-98169819D01*
X131703447Y-98646009D02*
X132036780Y-98646009D01*
X132179637Y-99169819D02*
X131703447Y-99169819D01*
X131703447Y-99169819D02*
X131703447Y-98169819D01*
X131703447Y-98169819D02*
X132179637Y-98169819D01*
X133179637Y-99169819D02*
X132846304Y-98693628D01*
X132608209Y-99169819D02*
X132608209Y-98169819D01*
X132608209Y-98169819D02*
X132989161Y-98169819D01*
X132989161Y-98169819D02*
X133084399Y-98217438D01*
X133084399Y-98217438D02*
X133132018Y-98265057D01*
X133132018Y-98265057D02*
X133179637Y-98360295D01*
X133179637Y-98360295D02*
X133179637Y-98503152D01*
X133179637Y-98503152D02*
X133132018Y-98598390D01*
X133132018Y-98598390D02*
X133084399Y-98646009D01*
X133084399Y-98646009D02*
X132989161Y-98693628D01*
X132989161Y-98693628D02*
X132608209Y-98693628D01*
X133846304Y-99503152D02*
X133846304Y-98074580D01*
X112298095Y-134484819D02*
X112298095Y-135294342D01*
X112298095Y-135294342D02*
X112345714Y-135389580D01*
X112345714Y-135389580D02*
X112393333Y-135437200D01*
X112393333Y-135437200D02*
X112488571Y-135484819D01*
X112488571Y-135484819D02*
X112679047Y-135484819D01*
X112679047Y-135484819D02*
X112774285Y-135437200D01*
X112774285Y-135437200D02*
X112821904Y-135389580D01*
X112821904Y-135389580D02*
X112869523Y-135294342D01*
X112869523Y-135294342D02*
X112869523Y-134484819D01*
X113869523Y-135484819D02*
X113298095Y-135484819D01*
X113583809Y-135484819D02*
X113583809Y-134484819D01*
X113583809Y-134484819D02*
X113488571Y-134627676D01*
X113488571Y-134627676D02*
X113393333Y-134722914D01*
X113393333Y-134722914D02*
X113298095Y-134770533D01*
X137734819Y-145209523D02*
X136734819Y-145209523D01*
X136734819Y-145209523D02*
X137449104Y-144876190D01*
X137449104Y-144876190D02*
X136734819Y-144542857D01*
X136734819Y-144542857D02*
X137734819Y-144542857D01*
X136830057Y-144114285D02*
X136782438Y-144066666D01*
X136782438Y-144066666D02*
X136734819Y-143971428D01*
X136734819Y-143971428D02*
X136734819Y-143733333D01*
X136734819Y-143733333D02*
X136782438Y-143638095D01*
X136782438Y-143638095D02*
X136830057Y-143590476D01*
X136830057Y-143590476D02*
X136925295Y-143542857D01*
X136925295Y-143542857D02*
X137020533Y-143542857D01*
X137020533Y-143542857D02*
X137163390Y-143590476D01*
X137163390Y-143590476D02*
X137734819Y-144161904D01*
X137734819Y-144161904D02*
X137734819Y-143542857D01*
X119711009Y-145085714D02*
X119758628Y-144942857D01*
X119758628Y-144942857D02*
X119806247Y-144895238D01*
X119806247Y-144895238D02*
X119901485Y-144847619D01*
X119901485Y-144847619D02*
X120044342Y-144847619D01*
X120044342Y-144847619D02*
X120139580Y-144895238D01*
X120139580Y-144895238D02*
X120187200Y-144942857D01*
X120187200Y-144942857D02*
X120234819Y-145038095D01*
X120234819Y-145038095D02*
X120234819Y-145419047D01*
X120234819Y-145419047D02*
X119234819Y-145419047D01*
X119234819Y-145419047D02*
X119234819Y-145085714D01*
X119234819Y-145085714D02*
X119282438Y-144990476D01*
X119282438Y-144990476D02*
X119330057Y-144942857D01*
X119330057Y-144942857D02*
X119425295Y-144895238D01*
X119425295Y-144895238D02*
X119520533Y-144895238D01*
X119520533Y-144895238D02*
X119615771Y-144942857D01*
X119615771Y-144942857D02*
X119663390Y-144990476D01*
X119663390Y-144990476D02*
X119711009Y-145085714D01*
X119711009Y-145085714D02*
X119711009Y-145419047D01*
X119234819Y-144561904D02*
X119234819Y-143990476D01*
X120234819Y-144276190D02*
X119234819Y-144276190D01*
X120234819Y-143133333D02*
X120234819Y-143704761D01*
X120234819Y-143419047D02*
X119234819Y-143419047D01*
X119234819Y-143419047D02*
X119377676Y-143514285D01*
X119377676Y-143514285D02*
X119472914Y-143609523D01*
X119472914Y-143609523D02*
X119520533Y-143704761D01*
X109633333Y-148459580D02*
X109585714Y-148507200D01*
X109585714Y-148507200D02*
X109442857Y-148554819D01*
X109442857Y-148554819D02*
X109347619Y-148554819D01*
X109347619Y-148554819D02*
X109204762Y-148507200D01*
X109204762Y-148507200D02*
X109109524Y-148411961D01*
X109109524Y-148411961D02*
X109061905Y-148316723D01*
X109061905Y-148316723D02*
X109014286Y-148126247D01*
X109014286Y-148126247D02*
X109014286Y-147983390D01*
X109014286Y-147983390D02*
X109061905Y-147792914D01*
X109061905Y-147792914D02*
X109109524Y-147697676D01*
X109109524Y-147697676D02*
X109204762Y-147602438D01*
X109204762Y-147602438D02*
X109347619Y-147554819D01*
X109347619Y-147554819D02*
X109442857Y-147554819D01*
X109442857Y-147554819D02*
X109585714Y-147602438D01*
X109585714Y-147602438D02*
X109633333Y-147650057D01*
X110538095Y-147554819D02*
X110061905Y-147554819D01*
X110061905Y-147554819D02*
X110014286Y-148031009D01*
X110014286Y-148031009D02*
X110061905Y-147983390D01*
X110061905Y-147983390D02*
X110157143Y-147935771D01*
X110157143Y-147935771D02*
X110395238Y-147935771D01*
X110395238Y-147935771D02*
X110490476Y-147983390D01*
X110490476Y-147983390D02*
X110538095Y-148031009D01*
X110538095Y-148031009D02*
X110585714Y-148126247D01*
X110585714Y-148126247D02*
X110585714Y-148364342D01*
X110585714Y-148364342D02*
X110538095Y-148459580D01*
X110538095Y-148459580D02*
X110490476Y-148507200D01*
X110490476Y-148507200D02*
X110395238Y-148554819D01*
X110395238Y-148554819D02*
X110157143Y-148554819D01*
X110157143Y-148554819D02*
X110061905Y-148507200D01*
X110061905Y-148507200D02*
X110014286Y-148459580D01*
X128834819Y-145109523D02*
X127834819Y-145109523D01*
X127834819Y-145109523D02*
X128549104Y-144776190D01*
X128549104Y-144776190D02*
X127834819Y-144442857D01*
X127834819Y-144442857D02*
X128834819Y-144442857D01*
X128834819Y-143442857D02*
X128834819Y-144014285D01*
X128834819Y-143728571D02*
X127834819Y-143728571D01*
X127834819Y-143728571D02*
X127977676Y-143823809D01*
X127977676Y-143823809D02*
X128072914Y-143919047D01*
X128072914Y-143919047D02*
X128120533Y-144014285D01*
X114083333Y-131559580D02*
X114035714Y-131607200D01*
X114035714Y-131607200D02*
X113892857Y-131654819D01*
X113892857Y-131654819D02*
X113797619Y-131654819D01*
X113797619Y-131654819D02*
X113654762Y-131607200D01*
X113654762Y-131607200D02*
X113559524Y-131511961D01*
X113559524Y-131511961D02*
X113511905Y-131416723D01*
X113511905Y-131416723D02*
X113464286Y-131226247D01*
X113464286Y-131226247D02*
X113464286Y-131083390D01*
X113464286Y-131083390D02*
X113511905Y-130892914D01*
X113511905Y-130892914D02*
X113559524Y-130797676D01*
X113559524Y-130797676D02*
X113654762Y-130702438D01*
X113654762Y-130702438D02*
X113797619Y-130654819D01*
X113797619Y-130654819D02*
X113892857Y-130654819D01*
X113892857Y-130654819D02*
X114035714Y-130702438D01*
X114035714Y-130702438D02*
X114083333Y-130750057D01*
X115035714Y-131654819D02*
X114464286Y-131654819D01*
X114750000Y-131654819D02*
X114750000Y-130654819D01*
X114750000Y-130654819D02*
X114654762Y-130797676D01*
X114654762Y-130797676D02*
X114559524Y-130892914D01*
X114559524Y-130892914D02*
X114464286Y-130940533D01*
X126428095Y-103807200D02*
X126570952Y-103854819D01*
X126570952Y-103854819D02*
X126809047Y-103854819D01*
X126809047Y-103854819D02*
X126904285Y-103807200D01*
X126904285Y-103807200D02*
X126951904Y-103759580D01*
X126951904Y-103759580D02*
X126999523Y-103664342D01*
X126999523Y-103664342D02*
X126999523Y-103569104D01*
X126999523Y-103569104D02*
X126951904Y-103473866D01*
X126951904Y-103473866D02*
X126904285Y-103426247D01*
X126904285Y-103426247D02*
X126809047Y-103378628D01*
X126809047Y-103378628D02*
X126618571Y-103331009D01*
X126618571Y-103331009D02*
X126523333Y-103283390D01*
X126523333Y-103283390D02*
X126475714Y-103235771D01*
X126475714Y-103235771D02*
X126428095Y-103140533D01*
X126428095Y-103140533D02*
X126428095Y-103045295D01*
X126428095Y-103045295D02*
X126475714Y-102950057D01*
X126475714Y-102950057D02*
X126523333Y-102902438D01*
X126523333Y-102902438D02*
X126618571Y-102854819D01*
X126618571Y-102854819D02*
X126856666Y-102854819D01*
X126856666Y-102854819D02*
X126999523Y-102902438D01*
X127951904Y-103854819D02*
X127380476Y-103854819D01*
X127666190Y-103854819D02*
X127666190Y-102854819D01*
X127666190Y-102854819D02*
X127570952Y-102997676D01*
X127570952Y-102997676D02*
X127475714Y-103092914D01*
X127475714Y-103092914D02*
X127380476Y-103140533D01*
X121659580Y-118166666D02*
X121707200Y-118214285D01*
X121707200Y-118214285D02*
X121754819Y-118357142D01*
X121754819Y-118357142D02*
X121754819Y-118452380D01*
X121754819Y-118452380D02*
X121707200Y-118595237D01*
X121707200Y-118595237D02*
X121611961Y-118690475D01*
X121611961Y-118690475D02*
X121516723Y-118738094D01*
X121516723Y-118738094D02*
X121326247Y-118785713D01*
X121326247Y-118785713D02*
X121183390Y-118785713D01*
X121183390Y-118785713D02*
X120992914Y-118738094D01*
X120992914Y-118738094D02*
X120897676Y-118690475D01*
X120897676Y-118690475D02*
X120802438Y-118595237D01*
X120802438Y-118595237D02*
X120754819Y-118452380D01*
X120754819Y-118452380D02*
X120754819Y-118357142D01*
X120754819Y-118357142D02*
X120802438Y-118214285D01*
X120802438Y-118214285D02*
X120850057Y-118166666D01*
X120850057Y-117785713D02*
X120802438Y-117738094D01*
X120802438Y-117738094D02*
X120754819Y-117642856D01*
X120754819Y-117642856D02*
X120754819Y-117404761D01*
X120754819Y-117404761D02*
X120802438Y-117309523D01*
X120802438Y-117309523D02*
X120850057Y-117261904D01*
X120850057Y-117261904D02*
X120945295Y-117214285D01*
X120945295Y-117214285D02*
X121040533Y-117214285D01*
X121040533Y-117214285D02*
X121183390Y-117261904D01*
X121183390Y-117261904D02*
X121754819Y-117833332D01*
X121754819Y-117833332D02*
X121754819Y-117214285D01*
X110738095Y-111154819D02*
X110738095Y-111964342D01*
X110738095Y-111964342D02*
X110785714Y-112059580D01*
X110785714Y-112059580D02*
X110833333Y-112107200D01*
X110833333Y-112107200D02*
X110928571Y-112154819D01*
X110928571Y-112154819D02*
X111119047Y-112154819D01*
X111119047Y-112154819D02*
X111214285Y-112107200D01*
X111214285Y-112107200D02*
X111261904Y-112059580D01*
X111261904Y-112059580D02*
X111309523Y-111964342D01*
X111309523Y-111964342D02*
X111309523Y-111154819D01*
X111690476Y-111154819D02*
X112309523Y-111154819D01*
X112309523Y-111154819D02*
X111976190Y-111535771D01*
X111976190Y-111535771D02*
X112119047Y-111535771D01*
X112119047Y-111535771D02*
X112214285Y-111583390D01*
X112214285Y-111583390D02*
X112261904Y-111631009D01*
X112261904Y-111631009D02*
X112309523Y-111726247D01*
X112309523Y-111726247D02*
X112309523Y-111964342D01*
X112309523Y-111964342D02*
X112261904Y-112059580D01*
X112261904Y-112059580D02*
X112214285Y-112107200D01*
X112214285Y-112107200D02*
X112119047Y-112154819D01*
X112119047Y-112154819D02*
X111833333Y-112154819D01*
X111833333Y-112154819D02*
X111738095Y-112107200D01*
X111738095Y-112107200D02*
X111690476Y-112059580D01*
X106333333Y-133159580D02*
X106285714Y-133207200D01*
X106285714Y-133207200D02*
X106142857Y-133254819D01*
X106142857Y-133254819D02*
X106047619Y-133254819D01*
X106047619Y-133254819D02*
X105904762Y-133207200D01*
X105904762Y-133207200D02*
X105809524Y-133111961D01*
X105809524Y-133111961D02*
X105761905Y-133016723D01*
X105761905Y-133016723D02*
X105714286Y-132826247D01*
X105714286Y-132826247D02*
X105714286Y-132683390D01*
X105714286Y-132683390D02*
X105761905Y-132492914D01*
X105761905Y-132492914D02*
X105809524Y-132397676D01*
X105809524Y-132397676D02*
X105904762Y-132302438D01*
X105904762Y-132302438D02*
X106047619Y-132254819D01*
X106047619Y-132254819D02*
X106142857Y-132254819D01*
X106142857Y-132254819D02*
X106285714Y-132302438D01*
X106285714Y-132302438D02*
X106333333Y-132350057D01*
X107190476Y-132588152D02*
X107190476Y-133254819D01*
X106952381Y-132207200D02*
X106714286Y-132921485D01*
X106714286Y-132921485D02*
X107333333Y-132921485D01*
X127548095Y-108384819D02*
X127548095Y-109194342D01*
X127548095Y-109194342D02*
X127595714Y-109289580D01*
X127595714Y-109289580D02*
X127643333Y-109337200D01*
X127643333Y-109337200D02*
X127738571Y-109384819D01*
X127738571Y-109384819D02*
X127929047Y-109384819D01*
X127929047Y-109384819D02*
X128024285Y-109337200D01*
X128024285Y-109337200D02*
X128071904Y-109289580D01*
X128071904Y-109289580D02*
X128119523Y-109194342D01*
X128119523Y-109194342D02*
X128119523Y-108384819D01*
X128548095Y-108480057D02*
X128595714Y-108432438D01*
X128595714Y-108432438D02*
X128690952Y-108384819D01*
X128690952Y-108384819D02*
X128929047Y-108384819D01*
X128929047Y-108384819D02*
X129024285Y-108432438D01*
X129024285Y-108432438D02*
X129071904Y-108480057D01*
X129071904Y-108480057D02*
X129119523Y-108575295D01*
X129119523Y-108575295D02*
X129119523Y-108670533D01*
X129119523Y-108670533D02*
X129071904Y-108813390D01*
X129071904Y-108813390D02*
X128500476Y-109384819D01*
X128500476Y-109384819D02*
X129119523Y-109384819D01*
X106568095Y-103807200D02*
X106710952Y-103854819D01*
X106710952Y-103854819D02*
X106949047Y-103854819D01*
X106949047Y-103854819D02*
X107044285Y-103807200D01*
X107044285Y-103807200D02*
X107091904Y-103759580D01*
X107091904Y-103759580D02*
X107139523Y-103664342D01*
X107139523Y-103664342D02*
X107139523Y-103569104D01*
X107139523Y-103569104D02*
X107091904Y-103473866D01*
X107091904Y-103473866D02*
X107044285Y-103426247D01*
X107044285Y-103426247D02*
X106949047Y-103378628D01*
X106949047Y-103378628D02*
X106758571Y-103331009D01*
X106758571Y-103331009D02*
X106663333Y-103283390D01*
X106663333Y-103283390D02*
X106615714Y-103235771D01*
X106615714Y-103235771D02*
X106568095Y-103140533D01*
X106568095Y-103140533D02*
X106568095Y-103045295D01*
X106568095Y-103045295D02*
X106615714Y-102950057D01*
X106615714Y-102950057D02*
X106663333Y-102902438D01*
X106663333Y-102902438D02*
X106758571Y-102854819D01*
X106758571Y-102854819D02*
X106996666Y-102854819D01*
X106996666Y-102854819D02*
X107139523Y-102902438D01*
X107758571Y-102854819D02*
X107853809Y-102854819D01*
X107853809Y-102854819D02*
X107949047Y-102902438D01*
X107949047Y-102902438D02*
X107996666Y-102950057D01*
X107996666Y-102950057D02*
X108044285Y-103045295D01*
X108044285Y-103045295D02*
X108091904Y-103235771D01*
X108091904Y-103235771D02*
X108091904Y-103473866D01*
X108091904Y-103473866D02*
X108044285Y-103664342D01*
X108044285Y-103664342D02*
X107996666Y-103759580D01*
X107996666Y-103759580D02*
X107949047Y-103807200D01*
X107949047Y-103807200D02*
X107853809Y-103854819D01*
X107853809Y-103854819D02*
X107758571Y-103854819D01*
X107758571Y-103854819D02*
X107663333Y-103807200D01*
X107663333Y-103807200D02*
X107615714Y-103759580D01*
X107615714Y-103759580D02*
X107568095Y-103664342D01*
X107568095Y-103664342D02*
X107520476Y-103473866D01*
X107520476Y-103473866D02*
X107520476Y-103235771D01*
X107520476Y-103235771D02*
X107568095Y-103045295D01*
X107568095Y-103045295D02*
X107615714Y-102950057D01*
X107615714Y-102950057D02*
X107663333Y-102902438D01*
X107663333Y-102902438D02*
X107758571Y-102854819D01*
X137439580Y-122881666D02*
X137487200Y-122929285D01*
X137487200Y-122929285D02*
X137534819Y-123072142D01*
X137534819Y-123072142D02*
X137534819Y-123167380D01*
X137534819Y-123167380D02*
X137487200Y-123310237D01*
X137487200Y-123310237D02*
X137391961Y-123405475D01*
X137391961Y-123405475D02*
X137296723Y-123453094D01*
X137296723Y-123453094D02*
X137106247Y-123500713D01*
X137106247Y-123500713D02*
X136963390Y-123500713D01*
X136963390Y-123500713D02*
X136772914Y-123453094D01*
X136772914Y-123453094D02*
X136677676Y-123405475D01*
X136677676Y-123405475D02*
X136582438Y-123310237D01*
X136582438Y-123310237D02*
X136534819Y-123167380D01*
X136534819Y-123167380D02*
X136534819Y-123072142D01*
X136534819Y-123072142D02*
X136582438Y-122929285D01*
X136582438Y-122929285D02*
X136630057Y-122881666D01*
X136534819Y-122548332D02*
X136534819Y-121929285D01*
X136534819Y-121929285D02*
X136915771Y-122262618D01*
X136915771Y-122262618D02*
X136915771Y-122119761D01*
X136915771Y-122119761D02*
X136963390Y-122024523D01*
X136963390Y-122024523D02*
X137011009Y-121976904D01*
X137011009Y-121976904D02*
X137106247Y-121929285D01*
X137106247Y-121929285D02*
X137344342Y-121929285D01*
X137344342Y-121929285D02*
X137439580Y-121976904D01*
X137439580Y-121976904D02*
X137487200Y-122024523D01*
X137487200Y-122024523D02*
X137534819Y-122119761D01*
X137534819Y-122119761D02*
X137534819Y-122405475D01*
X137534819Y-122405475D02*
X137487200Y-122500713D01*
X137487200Y-122500713D02*
X137439580Y-122548332D01*
X111833333Y-110159580D02*
X111785714Y-110207200D01*
X111785714Y-110207200D02*
X111642857Y-110254819D01*
X111642857Y-110254819D02*
X111547619Y-110254819D01*
X111547619Y-110254819D02*
X111404762Y-110207200D01*
X111404762Y-110207200D02*
X111309524Y-110111961D01*
X111309524Y-110111961D02*
X111261905Y-110016723D01*
X111261905Y-110016723D02*
X111214286Y-109826247D01*
X111214286Y-109826247D02*
X111214286Y-109683390D01*
X111214286Y-109683390D02*
X111261905Y-109492914D01*
X111261905Y-109492914D02*
X111309524Y-109397676D01*
X111309524Y-109397676D02*
X111404762Y-109302438D01*
X111404762Y-109302438D02*
X111547619Y-109254819D01*
X111547619Y-109254819D02*
X111642857Y-109254819D01*
X111642857Y-109254819D02*
X111785714Y-109302438D01*
X111785714Y-109302438D02*
X111833333Y-109350057D01*
X112690476Y-109254819D02*
X112500000Y-109254819D01*
X112500000Y-109254819D02*
X112404762Y-109302438D01*
X112404762Y-109302438D02*
X112357143Y-109350057D01*
X112357143Y-109350057D02*
X112261905Y-109492914D01*
X112261905Y-109492914D02*
X112214286Y-109683390D01*
X112214286Y-109683390D02*
X112214286Y-110064342D01*
X112214286Y-110064342D02*
X112261905Y-110159580D01*
X112261905Y-110159580D02*
X112309524Y-110207200D01*
X112309524Y-110207200D02*
X112404762Y-110254819D01*
X112404762Y-110254819D02*
X112595238Y-110254819D01*
X112595238Y-110254819D02*
X112690476Y-110207200D01*
X112690476Y-110207200D02*
X112738095Y-110159580D01*
X112738095Y-110159580D02*
X112785714Y-110064342D01*
X112785714Y-110064342D02*
X112785714Y-109826247D01*
X112785714Y-109826247D02*
X112738095Y-109731009D01*
X112738095Y-109731009D02*
X112690476Y-109683390D01*
X112690476Y-109683390D02*
X112595238Y-109635771D01*
X112595238Y-109635771D02*
X112404762Y-109635771D01*
X112404762Y-109635771D02*
X112309524Y-109683390D01*
X112309524Y-109683390D02*
X112261905Y-109731009D01*
X112261905Y-109731009D02*
X112214286Y-109826247D01*
D11*
%TO.C,U1*%
X107940000Y-136030000D02*
X107940000Y-140671000D01*
X107940000Y-136030000D02*
X118180000Y-136030000D01*
X107940000Y-137540000D02*
X118180000Y-137540000D01*
X107940000Y-140671000D02*
X118180000Y-140671000D01*
X111210000Y-136030000D02*
X111210000Y-137540000D01*
X114911000Y-136030000D02*
X114911000Y-137540000D01*
X118180000Y-136030000D02*
X118180000Y-140671000D01*
%TO.C,M2*%
X130870000Y-145730000D02*
X130870000Y-144400000D01*
X132200000Y-145730000D02*
X130870000Y-145730000D01*
X133470000Y-145730000D02*
X136070000Y-145730000D01*
X133470000Y-145730000D02*
X133470000Y-143070000D01*
X136070000Y-145730000D02*
X136070000Y-143070000D01*
X133470000Y-143070000D02*
X136070000Y-143070000D01*
%TO.C,BT1*%
X113370000Y-145630000D02*
X113370000Y-144300000D01*
X114700000Y-145630000D02*
X113370000Y-145630000D01*
X115970000Y-145630000D02*
X118570000Y-145630000D01*
X115970000Y-145630000D02*
X115970000Y-142970000D01*
X118570000Y-145630000D02*
X118570000Y-142970000D01*
X115970000Y-142970000D02*
X118570000Y-142970000D01*
%TO.C,C5*%
X112142401Y-145195000D02*
X111742401Y-145195000D01*
X111942401Y-145395000D02*
X111942401Y-144995000D01*
X109872600Y-146080000D02*
X109872600Y-144840000D01*
X109872600Y-143160000D02*
X109872600Y-141920000D01*
X109832600Y-146080000D02*
X109832600Y-144840000D01*
X109832600Y-143160000D02*
X109832600Y-141920000D01*
X109792600Y-146079000D02*
X109792600Y-144840000D01*
X109792600Y-143160000D02*
X109792600Y-141921000D01*
X109752600Y-146077000D02*
X109752600Y-144840000D01*
X109752600Y-143160000D02*
X109752600Y-141923000D01*
X109712600Y-146074000D02*
X109712600Y-144840000D01*
X109712600Y-143160000D02*
X109712600Y-141926000D01*
X109672600Y-146071000D02*
X109672600Y-144840000D01*
X109672600Y-143160000D02*
X109672600Y-141929000D01*
X109632600Y-146067000D02*
X109632600Y-144840000D01*
X109632600Y-143160000D02*
X109632600Y-141933000D01*
X109592600Y-146062000D02*
X109592600Y-144840000D01*
X109592600Y-143160000D02*
X109592600Y-141938000D01*
X109552600Y-146056000D02*
X109552600Y-144840000D01*
X109552600Y-143160000D02*
X109552600Y-141944000D01*
X109512600Y-146050000D02*
X109512600Y-144840000D01*
X109512600Y-143160000D02*
X109512600Y-141950000D01*
X109472600Y-146042000D02*
X109472600Y-144840000D01*
X109472600Y-143160000D02*
X109472600Y-141958000D01*
X109432600Y-146034000D02*
X109432600Y-144840000D01*
X109432600Y-143160000D02*
X109432600Y-141966000D01*
X109392600Y-146025000D02*
X109392600Y-144840000D01*
X109392600Y-143160000D02*
X109392600Y-141975000D01*
X109352600Y-146016000D02*
X109352600Y-144840000D01*
X109352600Y-143160000D02*
X109352600Y-141984000D01*
X109312600Y-146005000D02*
X109312600Y-144840000D01*
X109312600Y-143160000D02*
X109312600Y-141995000D01*
X109272600Y-145994000D02*
X109272600Y-144840000D01*
X109272600Y-143160000D02*
X109272600Y-142006000D01*
X109232600Y-145982000D02*
X109232600Y-144840000D01*
X109232600Y-143160000D02*
X109232600Y-142018000D01*
X109192600Y-145968000D02*
X109192600Y-144840000D01*
X109192600Y-143160000D02*
X109192600Y-142032000D01*
X109151600Y-145954000D02*
X109151600Y-144840000D01*
X109151600Y-143160000D02*
X109151600Y-142046000D01*
X109111600Y-145940000D02*
X109111600Y-144840000D01*
X109111600Y-143160000D02*
X109111600Y-142060000D01*
X109071600Y-145924000D02*
X109071600Y-144840000D01*
X109071600Y-143160000D02*
X109071600Y-142076000D01*
X109031600Y-145907000D02*
X109031600Y-144840000D01*
X109031600Y-143160000D02*
X109031600Y-142093000D01*
X108991600Y-145889000D02*
X108991600Y-144840000D01*
X108991600Y-143160000D02*
X108991600Y-142111000D01*
X108951600Y-145870000D02*
X108951600Y-144840000D01*
X108951600Y-143160000D02*
X108951600Y-142130000D01*
X108911600Y-145851000D02*
X108911600Y-144840000D01*
X108911600Y-143160000D02*
X108911600Y-142149000D01*
X108871600Y-145830000D02*
X108871600Y-144840000D01*
X108871600Y-143160000D02*
X108871600Y-142170000D01*
X108831600Y-145808000D02*
X108831600Y-144840000D01*
X108831600Y-143160000D02*
X108831600Y-142192000D01*
X108791600Y-145785000D02*
X108791600Y-144840000D01*
X108791600Y-143160000D02*
X108791600Y-142215000D01*
X108751600Y-145760000D02*
X108751600Y-144840000D01*
X108751600Y-143160000D02*
X108751600Y-142240000D01*
X108711600Y-145735000D02*
X108711600Y-144840000D01*
X108711600Y-143160000D02*
X108711600Y-142265000D01*
X108671600Y-145708000D02*
X108671600Y-144840000D01*
X108671600Y-143160000D02*
X108671600Y-142292000D01*
X108631600Y-145680000D02*
X108631600Y-144840000D01*
X108631600Y-143160000D02*
X108631600Y-142320000D01*
X108591600Y-145650000D02*
X108591600Y-144840000D01*
X108591600Y-143160000D02*
X108591600Y-142350000D01*
X108551600Y-145619000D02*
X108551600Y-144840000D01*
X108551600Y-143160000D02*
X108551600Y-142381000D01*
X108511600Y-145587000D02*
X108511600Y-144840000D01*
X108511600Y-143160000D02*
X108511600Y-142413000D01*
X108471600Y-145552000D02*
X108471600Y-144840000D01*
X108471600Y-143160000D02*
X108471600Y-142448000D01*
X108431600Y-145516000D02*
X108431600Y-144840000D01*
X108431600Y-143160000D02*
X108431600Y-142484000D01*
X108391600Y-145478000D02*
X108391600Y-144840000D01*
X108391600Y-143160000D02*
X108391600Y-142522000D01*
X108351600Y-145438000D02*
X108351600Y-144840000D01*
X108351600Y-143160000D02*
X108351600Y-142562000D01*
X108311600Y-145396000D02*
X108311600Y-144840000D01*
X108311600Y-143160000D02*
X108311600Y-142604000D01*
X108271600Y-145351000D02*
X108271600Y-142649000D01*
X108231600Y-145304000D02*
X108231600Y-142696000D01*
X108191600Y-145254000D02*
X108191600Y-142746000D01*
X108151600Y-145200000D02*
X108151600Y-142800000D01*
X108111600Y-145142000D02*
X108111600Y-142858000D01*
X108071600Y-145080000D02*
X108071600Y-142920000D01*
X108031600Y-145013000D02*
X108031600Y-142987000D01*
X107991600Y-144940000D02*
X107991600Y-143060000D01*
X107951600Y-144859000D02*
X107951600Y-143141000D01*
X107911600Y-144768000D02*
X107911600Y-143232000D01*
X107871600Y-144664000D02*
X107871600Y-143336000D01*
X107831600Y-144537000D02*
X107831600Y-143463000D01*
X107791600Y-144370000D02*
X107791600Y-143630000D01*
X111992600Y-144000000D02*
G75*
G03*
X111992600Y-144000000I-2120000J0D01*
G01*
%TO.C,M1*%
X121970000Y-145630000D02*
X121970000Y-144300000D01*
X123300000Y-145630000D02*
X121970000Y-145630000D01*
X124570000Y-145630000D02*
X127170000Y-145630000D01*
X124570000Y-145630000D02*
X124570000Y-142970000D01*
X127170000Y-145630000D02*
X127170000Y-142970000D01*
X124570000Y-142970000D02*
X127170000Y-142970000D01*
%TO.C,C1*%
X113671000Y-132180000D02*
X114929000Y-132180000D01*
X113671000Y-134020000D02*
X114929000Y-134020000D01*
%TO.C,G\u002A\u002A\u002A*%
G36*
X122019688Y-104413793D02*
G01*
X122019688Y-104738709D01*
X121694772Y-104738709D01*
X121369855Y-104738709D01*
X121369855Y-104540934D01*
X121536281Y-104540934D01*
X121679097Y-104540934D01*
X121821913Y-104540934D01*
X121821913Y-104398118D01*
X121821913Y-104255302D01*
X121687708Y-104263913D01*
X121553504Y-104272525D01*
X121544892Y-104406729D01*
X121536281Y-104540934D01*
X121369855Y-104540934D01*
X121369855Y-104413793D01*
X121369855Y-104088876D01*
X121694772Y-104088876D01*
X122019688Y-104088876D01*
X122019688Y-104413793D01*
G37*
G36*
X122839043Y-102746829D02*
G01*
X122839043Y-103071746D01*
X122514126Y-103071746D01*
X122189210Y-103071746D01*
X122189210Y-102746829D01*
X122189210Y-102619688D01*
X122386985Y-102619688D01*
X122386985Y-102762504D01*
X122386985Y-102905320D01*
X122521190Y-102896709D01*
X122655395Y-102888098D01*
X122664006Y-102753893D01*
X122672617Y-102619688D01*
X122529801Y-102619688D01*
X122386985Y-102619688D01*
X122189210Y-102619688D01*
X122189210Y-102421913D01*
X122514126Y-102421913D01*
X122839043Y-102421913D01*
X122839043Y-102746829D01*
G37*
G36*
X122839043Y-103580311D02*
G01*
X122839043Y-103919354D01*
X122514126Y-103919354D01*
X122189210Y-103919354D01*
X122189210Y-103580311D01*
X122189210Y-103435947D01*
X122386985Y-103435947D01*
X122386985Y-103580311D01*
X122386985Y-103724675D01*
X122521190Y-103716064D01*
X122655395Y-103707452D01*
X122655395Y-103580311D01*
X122655395Y-103453170D01*
X122521190Y-103444558D01*
X122386985Y-103435947D01*
X122189210Y-103435947D01*
X122189210Y-103241268D01*
X122514126Y-103241268D01*
X122839043Y-103241268D01*
X122839043Y-103580311D01*
G37*
G36*
X122839043Y-104413793D02*
G01*
X122839043Y-104738709D01*
X122514126Y-104738709D01*
X122189210Y-104738709D01*
X122189210Y-104413793D01*
X122189210Y-104255302D01*
X122386985Y-104255302D01*
X122386985Y-104398118D01*
X122386985Y-104540934D01*
X122529801Y-104540934D01*
X122672617Y-104540934D01*
X122664006Y-104406729D01*
X122655395Y-104272525D01*
X122521190Y-104263913D01*
X122386985Y-104255302D01*
X122189210Y-104255302D01*
X122189210Y-104088876D01*
X122514126Y-104088876D01*
X122839043Y-104088876D01*
X122839043Y-104413793D01*
G37*
G36*
X123686651Y-104413793D02*
G01*
X123686651Y-104738709D01*
X123361735Y-104738709D01*
X123036818Y-104738709D01*
X123036818Y-104540934D01*
X123203244Y-104540934D01*
X123346060Y-104540934D01*
X123488876Y-104540934D01*
X123488876Y-104398118D01*
X123488876Y-104255302D01*
X123354671Y-104263913D01*
X123220467Y-104272525D01*
X123211855Y-104406729D01*
X123203244Y-104540934D01*
X123036818Y-104540934D01*
X123036818Y-104413793D01*
X123036818Y-104088876D01*
X123361735Y-104088876D01*
X123686651Y-104088876D01*
X123686651Y-104413793D01*
G37*
G36*
X122019688Y-102746829D02*
G01*
X122019688Y-103071746D01*
X121694772Y-103071746D01*
X121369855Y-103071746D01*
X121369855Y-102746829D01*
X121369855Y-102619688D01*
X121539377Y-102619688D01*
X121539377Y-102742121D01*
X121543384Y-102821404D01*
X121553444Y-102874621D01*
X121558212Y-102883389D01*
X121595841Y-102894970D01*
X121667873Y-102901609D01*
X121699481Y-102902224D01*
X121821913Y-102902224D01*
X121821913Y-102760956D01*
X121821913Y-102619688D01*
X121680645Y-102619688D01*
X121539377Y-102619688D01*
X121369855Y-102619688D01*
X121369855Y-102421913D01*
X121694772Y-102421913D01*
X122019688Y-102421913D01*
X122019688Y-102746829D01*
G37*
G36*
X122019688Y-103580311D02*
G01*
X122019688Y-103919354D01*
X121694772Y-103919354D01*
X121369855Y-103919354D01*
X121369855Y-103643198D01*
X121542347Y-103643198D01*
X121565892Y-103696125D01*
X121625167Y-103718200D01*
X121693885Y-103721579D01*
X121821913Y-103721579D01*
X121821913Y-103578763D01*
X121821913Y-103435947D01*
X121687708Y-103444558D01*
X121606456Y-103452261D01*
X121565680Y-103469332D01*
X121549392Y-103507282D01*
X121544449Y-103547684D01*
X121542347Y-103643198D01*
X121369855Y-103643198D01*
X121369855Y-103580311D01*
X121369855Y-103241268D01*
X121694772Y-103241268D01*
X122019688Y-103241268D01*
X122019688Y-103580311D01*
G37*
G36*
X123686651Y-102746829D02*
G01*
X123686651Y-103071746D01*
X123361735Y-103071746D01*
X123036818Y-103071746D01*
X123036818Y-102746829D01*
X123036818Y-102619688D01*
X123206340Y-102619688D01*
X123206340Y-102742121D01*
X123210347Y-102821404D01*
X123220408Y-102874621D01*
X123225176Y-102883389D01*
X123262804Y-102894970D01*
X123334836Y-102901609D01*
X123366444Y-102902224D01*
X123488876Y-102902224D01*
X123488876Y-102760956D01*
X123488876Y-102619688D01*
X123347608Y-102619688D01*
X123206340Y-102619688D01*
X123036818Y-102619688D01*
X123036818Y-102421913D01*
X123361735Y-102421913D01*
X123686651Y-102421913D01*
X123686651Y-102746829D01*
G37*
G36*
X123686651Y-103580311D02*
G01*
X123686651Y-103919354D01*
X123361735Y-103919354D01*
X123036818Y-103919354D01*
X123036818Y-103643198D01*
X123209310Y-103643198D01*
X123232855Y-103696125D01*
X123292131Y-103718200D01*
X123360848Y-103721579D01*
X123488876Y-103721579D01*
X123488876Y-103578763D01*
X123488876Y-103435947D01*
X123354671Y-103444558D01*
X123273419Y-103452261D01*
X123232643Y-103469332D01*
X123216355Y-103507282D01*
X123211413Y-103547684D01*
X123209310Y-103643198D01*
X123036818Y-103643198D01*
X123036818Y-103580311D01*
X123036818Y-103241268D01*
X123361735Y-103241268D01*
X123686651Y-103241268D01*
X123686651Y-103580311D01*
G37*
G36*
X123686651Y-101687319D02*
G01*
X123686651Y-102139377D01*
X122528253Y-102139377D01*
X121369855Y-102139377D01*
X121369855Y-101687319D01*
X121369855Y-101433036D01*
X121539377Y-101433036D01*
X121539377Y-101668483D01*
X121541498Y-101778829D01*
X121547145Y-101866460D01*
X121555239Y-101916842D01*
X121558212Y-101922766D01*
X121589962Y-101927229D01*
X121671543Y-101931314D01*
X121796281Y-101934893D01*
X121957501Y-101937836D01*
X122148528Y-101940016D01*
X122362687Y-101941301D01*
X122532962Y-101941601D01*
X123488876Y-101941601D01*
X123488876Y-101687319D01*
X123488876Y-101433036D01*
X122514126Y-101433036D01*
X121539377Y-101433036D01*
X121369855Y-101433036D01*
X121369855Y-101235261D01*
X122528253Y-101235261D01*
X123686651Y-101235261D01*
X123686651Y-101687319D01*
G37*
G36*
X123342359Y-100786815D02*
G01*
X123539849Y-100788236D01*
X123699456Y-100791408D01*
X123825837Y-100796684D01*
X123923647Y-100804417D01*
X123997543Y-100814961D01*
X124052180Y-100828670D01*
X124092213Y-100845898D01*
X124122300Y-100866996D01*
X124147096Y-100892320D01*
X124167921Y-100917979D01*
X124178305Y-100932581D01*
X124187309Y-100950736D01*
X124195029Y-100976334D01*
X124201566Y-101013265D01*
X124207016Y-101065419D01*
X124211479Y-101136684D01*
X124215053Y-101230952D01*
X124217837Y-101352112D01*
X124219929Y-101504053D01*
X124221428Y-101690666D01*
X124222432Y-101915840D01*
X124223039Y-102183465D01*
X124223349Y-102497431D01*
X124223459Y-102861627D01*
X124223470Y-103111650D01*
X124223537Y-103516394D01*
X124223547Y-103868444D01*
X124223220Y-104171614D01*
X124222271Y-104429717D01*
X124220419Y-104646567D01*
X124217380Y-104825977D01*
X124212872Y-104971761D01*
X124206613Y-105087731D01*
X124198319Y-105177701D01*
X124187708Y-105245484D01*
X124174498Y-105294894D01*
X124158405Y-105329744D01*
X124139148Y-105353848D01*
X124116442Y-105371018D01*
X124090007Y-105385069D01*
X124059558Y-105399812D01*
X124053636Y-105402831D01*
X124028222Y-105412443D01*
X123989258Y-105420497D01*
X123932140Y-105427113D01*
X123852262Y-105432412D01*
X123745021Y-105436517D01*
X123605812Y-105439549D01*
X123430028Y-105441630D01*
X123213065Y-105442881D01*
X122950319Y-105443424D01*
X122637184Y-105443380D01*
X122522593Y-105443259D01*
X122240115Y-105442466D01*
X121973640Y-105440862D01*
X121728728Y-105438541D01*
X121510939Y-105435595D01*
X121325831Y-105432117D01*
X121178964Y-105428199D01*
X121075896Y-105423936D01*
X121022187Y-105419419D01*
X121016685Y-105418095D01*
X120959054Y-105381614D01*
X120894757Y-105324244D01*
X120889544Y-105318732D01*
X120818910Y-105242741D01*
X120811320Y-103126146D01*
X120811249Y-103106440D01*
X121002558Y-103106440D01*
X121002643Y-103496975D01*
X121002956Y-103834894D01*
X121003583Y-104124086D01*
X121004612Y-104368443D01*
X121006131Y-104571855D01*
X121008225Y-104738211D01*
X121010983Y-104871404D01*
X121014491Y-104975323D01*
X121018836Y-105053858D01*
X121024105Y-105110901D01*
X121030386Y-105150341D01*
X121037766Y-105176069D01*
X121046331Y-105191976D01*
X121049317Y-105195606D01*
X121062424Y-105207254D01*
X121082009Y-105217011D01*
X121112807Y-105225045D01*
X121159555Y-105231522D01*
X121226989Y-105236608D01*
X121319846Y-105240470D01*
X121442862Y-105243274D01*
X121600773Y-105245188D01*
X121798315Y-105246377D01*
X122040225Y-105247008D01*
X122331238Y-105247249D01*
X122518505Y-105247274D01*
X122838545Y-105247216D01*
X123106862Y-105246917D01*
X123328243Y-105246195D01*
X123507472Y-105244863D01*
X123649335Y-105242737D01*
X123758616Y-105239634D01*
X123840101Y-105235367D01*
X123898576Y-105229754D01*
X123938825Y-105222609D01*
X123965633Y-105213748D01*
X123983787Y-105202986D01*
X123997987Y-105190221D01*
X124008853Y-105178340D01*
X124018226Y-105163348D01*
X124026199Y-105141296D01*
X124032865Y-105108229D01*
X124038317Y-105060197D01*
X124042650Y-104993247D01*
X124045956Y-104903427D01*
X124048328Y-104786786D01*
X124049861Y-104639371D01*
X124050647Y-104457231D01*
X124050780Y-104236412D01*
X124050353Y-103972964D01*
X124049459Y-103662935D01*
X124048193Y-103302372D01*
X124047431Y-103097169D01*
X124045940Y-102709050D01*
X124044497Y-102373522D01*
X124042984Y-102086666D01*
X124041283Y-101844566D01*
X124039276Y-101643305D01*
X124036845Y-101478965D01*
X124033873Y-101347629D01*
X124030241Y-101245381D01*
X124025832Y-101168302D01*
X124020528Y-101112477D01*
X124014211Y-101073988D01*
X124006763Y-101048917D01*
X123998067Y-101033349D01*
X123988005Y-101023365D01*
X123984978Y-101021074D01*
X123964267Y-101011749D01*
X123926838Y-101003935D01*
X123868211Y-100997507D01*
X123783909Y-100992343D01*
X123669455Y-100988318D01*
X123520370Y-100985311D01*
X123332177Y-100983196D01*
X123100397Y-100981852D01*
X122820554Y-100981155D01*
X122529140Y-100980978D01*
X122206923Y-100981155D01*
X121936511Y-100981779D01*
X121713201Y-100982992D01*
X121532291Y-100984935D01*
X121389079Y-100987749D01*
X121278862Y-100991575D01*
X121196939Y-100996556D01*
X121138608Y-101002831D01*
X121099166Y-101010543D01*
X121073911Y-101019833D01*
X121065352Y-101024961D01*
X121002558Y-101068944D01*
X121002558Y-103106440D01*
X120811249Y-103106440D01*
X120803731Y-101009550D01*
X120900958Y-100903440D01*
X120998185Y-100797330D01*
X122476034Y-100789521D01*
X122815107Y-100787811D01*
X123102330Y-100786791D01*
X123342359Y-100786815D01*
G37*
%TO.C,S1*%
X128190000Y-104730000D02*
X128190000Y-103400000D01*
X129520000Y-104730000D02*
X128190000Y-104730000D01*
X130790000Y-104730000D02*
X135930000Y-104730000D01*
X130790000Y-104730000D02*
X130790000Y-102070000D01*
X135930000Y-104730000D02*
X135930000Y-102070000D01*
X130790000Y-102070000D02*
X135930000Y-102070000D01*
%TO.C,C2*%
X122720000Y-122086000D02*
X122720000Y-123344000D01*
X120880000Y-122086000D02*
X120880000Y-123344000D01*
%TO.C,U3*%
X110060000Y-112345000D02*
X110060000Y-130245000D01*
X110060000Y-130245000D02*
X115360000Y-130245000D01*
X111710000Y-112345000D02*
X110060000Y-112345000D01*
X115360000Y-112345000D02*
X113710000Y-112345000D01*
X115360000Y-130245000D02*
X115360000Y-112345000D01*
X111710000Y-112345000D02*
G75*
G03*
X113710000Y-112345000I1000000J0D01*
G01*
%TO.C,C4*%
X112019801Y-134095000D02*
X111619801Y-134095000D01*
X111819801Y-134295000D02*
X111819801Y-133895000D01*
X109750000Y-134980000D02*
X109750000Y-133740000D01*
X109750000Y-132060000D02*
X109750000Y-130820000D01*
X109710000Y-134980000D02*
X109710000Y-133740000D01*
X109710000Y-132060000D02*
X109710000Y-130820000D01*
X109670000Y-134979000D02*
X109670000Y-133740000D01*
X109670000Y-132060000D02*
X109670000Y-130821000D01*
X109630000Y-134977000D02*
X109630000Y-133740000D01*
X109630000Y-132060000D02*
X109630000Y-130823000D01*
X109590000Y-134974000D02*
X109590000Y-133740000D01*
X109590000Y-132060000D02*
X109590000Y-130826000D01*
X109550000Y-134971000D02*
X109550000Y-133740000D01*
X109550000Y-132060000D02*
X109550000Y-130829000D01*
X109510000Y-134967000D02*
X109510000Y-133740000D01*
X109510000Y-132060000D02*
X109510000Y-130833000D01*
X109470000Y-134962000D02*
X109470000Y-133740000D01*
X109470000Y-132060000D02*
X109470000Y-130838000D01*
X109430000Y-134956000D02*
X109430000Y-133740000D01*
X109430000Y-132060000D02*
X109430000Y-130844000D01*
X109390000Y-134950000D02*
X109390000Y-133740000D01*
X109390000Y-132060000D02*
X109390000Y-130850000D01*
X109350000Y-134942000D02*
X109350000Y-133740000D01*
X109350000Y-132060000D02*
X109350000Y-130858000D01*
X109310000Y-134934000D02*
X109310000Y-133740000D01*
X109310000Y-132060000D02*
X109310000Y-130866000D01*
X109270000Y-134925000D02*
X109270000Y-133740000D01*
X109270000Y-132060000D02*
X109270000Y-130875000D01*
X109230000Y-134916000D02*
X109230000Y-133740000D01*
X109230000Y-132060000D02*
X109230000Y-130884000D01*
X109190000Y-134905000D02*
X109190000Y-133740000D01*
X109190000Y-132060000D02*
X109190000Y-130895000D01*
X109150000Y-134894000D02*
X109150000Y-133740000D01*
X109150000Y-132060000D02*
X109150000Y-130906000D01*
X109110000Y-134882000D02*
X109110000Y-133740000D01*
X109110000Y-132060000D02*
X109110000Y-130918000D01*
X109070000Y-134868000D02*
X109070000Y-133740000D01*
X109070000Y-132060000D02*
X109070000Y-130932000D01*
X109029000Y-134854000D02*
X109029000Y-133740000D01*
X109029000Y-132060000D02*
X109029000Y-130946000D01*
X108989000Y-134840000D02*
X108989000Y-133740000D01*
X108989000Y-132060000D02*
X108989000Y-130960000D01*
X108949000Y-134824000D02*
X108949000Y-133740000D01*
X108949000Y-132060000D02*
X108949000Y-130976000D01*
X108909000Y-134807000D02*
X108909000Y-133740000D01*
X108909000Y-132060000D02*
X108909000Y-130993000D01*
X108869000Y-134789000D02*
X108869000Y-133740000D01*
X108869000Y-132060000D02*
X108869000Y-131011000D01*
X108829000Y-134770000D02*
X108829000Y-133740000D01*
X108829000Y-132060000D02*
X108829000Y-131030000D01*
X108789000Y-134751000D02*
X108789000Y-133740000D01*
X108789000Y-132060000D02*
X108789000Y-131049000D01*
X108749000Y-134730000D02*
X108749000Y-133740000D01*
X108749000Y-132060000D02*
X108749000Y-131070000D01*
X108709000Y-134708000D02*
X108709000Y-133740000D01*
X108709000Y-132060000D02*
X108709000Y-131092000D01*
X108669000Y-134685000D02*
X108669000Y-133740000D01*
X108669000Y-132060000D02*
X108669000Y-131115000D01*
X108629000Y-134660000D02*
X108629000Y-133740000D01*
X108629000Y-132060000D02*
X108629000Y-131140000D01*
X108589000Y-134635000D02*
X108589000Y-133740000D01*
X108589000Y-132060000D02*
X108589000Y-131165000D01*
X108549000Y-134608000D02*
X108549000Y-133740000D01*
X108549000Y-132060000D02*
X108549000Y-131192000D01*
X108509000Y-134580000D02*
X108509000Y-133740000D01*
X108509000Y-132060000D02*
X108509000Y-131220000D01*
X108469000Y-134550000D02*
X108469000Y-133740000D01*
X108469000Y-132060000D02*
X108469000Y-131250000D01*
X108429000Y-134519000D02*
X108429000Y-133740000D01*
X108429000Y-132060000D02*
X108429000Y-131281000D01*
X108389000Y-134487000D02*
X108389000Y-133740000D01*
X108389000Y-132060000D02*
X108389000Y-131313000D01*
X108349000Y-134452000D02*
X108349000Y-133740000D01*
X108349000Y-132060000D02*
X108349000Y-131348000D01*
X108309000Y-134416000D02*
X108309000Y-133740000D01*
X108309000Y-132060000D02*
X108309000Y-131384000D01*
X108269000Y-134378000D02*
X108269000Y-133740000D01*
X108269000Y-132060000D02*
X108269000Y-131422000D01*
X108229000Y-134338000D02*
X108229000Y-133740000D01*
X108229000Y-132060000D02*
X108229000Y-131462000D01*
X108189000Y-134296000D02*
X108189000Y-133740000D01*
X108189000Y-132060000D02*
X108189000Y-131504000D01*
X108149000Y-134251000D02*
X108149000Y-131549000D01*
X108109000Y-134204000D02*
X108109000Y-131596000D01*
X108069000Y-134154000D02*
X108069000Y-131646000D01*
X108029000Y-134100000D02*
X108029000Y-131700000D01*
X107989000Y-134042000D02*
X107989000Y-131758000D01*
X107949000Y-133980000D02*
X107949000Y-131820000D01*
X107909000Y-133913000D02*
X107909000Y-131887000D01*
X107869000Y-133840000D02*
X107869000Y-131960000D01*
X107829000Y-133759000D02*
X107829000Y-132041000D01*
X107789000Y-133668000D02*
X107789000Y-132132000D01*
X107749000Y-133564000D02*
X107749000Y-132236000D01*
X107709000Y-133437000D02*
X107709000Y-132363000D01*
X107669000Y-133270000D02*
X107669000Y-132530000D01*
X111870000Y-132900000D02*
G75*
G03*
X111870000Y-132900000I-2120000J0D01*
G01*
%TO.C,U2*%
X125660000Y-109930000D02*
X125660000Y-130370000D01*
X125660000Y-130370000D02*
X130960000Y-130370000D01*
X127310000Y-109930000D02*
X125660000Y-109930000D01*
X130960000Y-109930000D02*
X129310000Y-109930000D01*
X130960000Y-130370000D02*
X130960000Y-109930000D01*
X127310000Y-109930000D02*
G75*
G03*
X129310000Y-109930000I1000000J0D01*
G01*
%TO.C,S0*%
X108330000Y-104730000D02*
X108330000Y-103400000D01*
X109660000Y-104730000D02*
X108330000Y-104730000D01*
X110930000Y-104730000D02*
X116070000Y-104730000D01*
X110930000Y-104730000D02*
X110930000Y-102070000D01*
X116070000Y-104730000D02*
X116070000Y-102070000D01*
X110930000Y-102070000D02*
X116070000Y-102070000D01*
%TO.C,C3*%
X133980000Y-123344000D02*
X133980000Y-122086000D01*
X135820000Y-123344000D02*
X135820000Y-122086000D01*
%TO.C,C6*%
X115979000Y-111620000D02*
X114721000Y-111620000D01*
X115979000Y-109780000D02*
X114721000Y-109780000D01*
%TD*%
M02*
