M48
; DRILL file {KiCad 7.0.6} date Fri 15 Sep 2023 11:55:38 AM CEST
; FORMAT={-:-/ absolute / metric / decimal}
; #@! TF.CreationDate,2023-09-15T11:55:38+02:00
; #@! TF.GenerationSoftware,Kicad,Pcbnew,7.0.6
; #@! TF.FileFunction,Plated,1,2,PTH
FMAT,2
METRIC
; #@! TA.AperFunction,Plated,PTH,ViaDrill
T1C0.400
; #@! TA.AperFunction,Plated,PTH,ComponentDrill
T2C0.600
; #@! TA.AperFunction,Plated,PTH,ComponentDrill
T3C0.800
; #@! TA.AperFunction,Plated,PTH,ComponentDrill
T4C1.000
; #@! TA.AperFunction,Plated,PTH,ComponentDrill
T5C1.100
%
G90
G05
T1
X105.9Y-116.4
X106.0Y-144.9
X106.7Y-133.6
X108.3Y-109.0
X110.0Y-98.3
X111.3Y-108.1
X111.7Y-113.7
X112.0Y-123.5
X114.2Y-122.1
X114.6Y-116.0
X115.85Y-108.15
X117.9Y-141.5
X118.8Y-102.2
X119.6Y-125.8
X119.6Y-137.7
X119.7Y-121.3
X120.4Y-133.1
X120.6Y-129.5
X121.0Y-106.7
X122.3Y-115.215
X126.1Y-139.0
X127.1Y-131.7
X127.6Y-113.0
X128.1Y-123.9
X128.5Y-107.7
X129.0Y-144.6
X130.9Y-137.7
X131.2Y-132.0
X134.1Y-119.5
X135.2Y-99.9
X135.8Y-132.4
X135.92Y-112.515
X137.0Y-139.4
X137.1Y-128.2
X137.1Y-135.9
X138.0Y-144.0
T2
X109.0Y-132.9
X109.123Y-144.0
X110.5Y-132.9
X110.623Y-144.0
T3
X108.9Y-113.675
X108.9Y-116.215
X108.9Y-118.755
X108.9Y-121.295
X108.9Y-123.835
X108.9Y-126.375
X108.9Y-128.915
X113.05Y-133.1
X114.1Y-110.7
X115.55Y-133.1
X116.52Y-113.675
X116.52Y-116.215
X116.52Y-118.755
X116.52Y-121.295
X116.52Y-123.835
X116.52Y-126.375
X116.52Y-128.915
X116.6Y-110.7
X121.8Y-121.465
X121.8Y-123.965
X124.5Y-111.26
X124.5Y-113.8
X124.5Y-116.34
X124.5Y-118.88
X124.5Y-121.42
X124.5Y-123.96
X124.5Y-126.5
X124.5Y-129.04
X132.12Y-111.26
X132.12Y-113.8
X132.12Y-116.34
X132.12Y-118.88
X132.12Y-121.42
X132.12Y-123.96
X132.12Y-126.5
X132.12Y-129.04
X134.9Y-121.465
X134.9Y-123.965
T4
X109.66Y-103.4
X112.2Y-103.4
X114.7Y-144.3
X114.74Y-103.4
X117.24Y-144.3
X123.3Y-144.3
X125.84Y-144.3
X129.52Y-103.4
X132.06Y-103.4
X132.2Y-144.4
X134.6Y-103.4
X134.74Y-144.4
T5
X110.52Y-139.3
X113.06Y-139.3
X115.6Y-139.3
T0
M30
