%TF.GenerationSoftware,KiCad,Pcbnew,7.0.6*%
%TF.CreationDate,2023-09-30T16:03:16+02:00*%
%TF.ProjectId,bc546b-astable-multivibrator,62633534-3662-42d6-9173-7461626c652d,0*%
%TF.SameCoordinates,Original*%
%TF.FileFunction,Legend,Top*%
%TF.FilePolarity,Positive*%
%FSLAX46Y46*%
G04 Gerber Fmt 4.6, Leading zero omitted, Abs format (unit mm)*
G04 Created by KiCad (PCBNEW 7.0.6) date 2023-09-30 16:03:16*
%MOMM*%
%LPD*%
G01*
G04 APERTURE LIST*
%ADD10C,0.150000*%
%ADD11C,0.120000*%
G04 APERTURE END LIST*
D10*
X86274874Y-87103152D02*
X86274874Y-85674580D01*
X87322493Y-86246009D02*
X87465350Y-86293628D01*
X87465350Y-86293628D02*
X87512969Y-86341247D01*
X87512969Y-86341247D02*
X87560588Y-86436485D01*
X87560588Y-86436485D02*
X87560588Y-86579342D01*
X87560588Y-86579342D02*
X87512969Y-86674580D01*
X87512969Y-86674580D02*
X87465350Y-86722200D01*
X87465350Y-86722200D02*
X87370112Y-86769819D01*
X87370112Y-86769819D02*
X86989160Y-86769819D01*
X86989160Y-86769819D02*
X86989160Y-85769819D01*
X86989160Y-85769819D02*
X87322493Y-85769819D01*
X87322493Y-85769819D02*
X87417731Y-85817438D01*
X87417731Y-85817438D02*
X87465350Y-85865057D01*
X87465350Y-85865057D02*
X87512969Y-85960295D01*
X87512969Y-85960295D02*
X87512969Y-86055533D01*
X87512969Y-86055533D02*
X87465350Y-86150771D01*
X87465350Y-86150771D02*
X87417731Y-86198390D01*
X87417731Y-86198390D02*
X87322493Y-86246009D01*
X87322493Y-86246009D02*
X86989160Y-86246009D01*
X88560588Y-86674580D02*
X88512969Y-86722200D01*
X88512969Y-86722200D02*
X88370112Y-86769819D01*
X88370112Y-86769819D02*
X88274874Y-86769819D01*
X88274874Y-86769819D02*
X88132017Y-86722200D01*
X88132017Y-86722200D02*
X88036779Y-86626961D01*
X88036779Y-86626961D02*
X87989160Y-86531723D01*
X87989160Y-86531723D02*
X87941541Y-86341247D01*
X87941541Y-86341247D02*
X87941541Y-86198390D01*
X87941541Y-86198390D02*
X87989160Y-86007914D01*
X87989160Y-86007914D02*
X88036779Y-85912676D01*
X88036779Y-85912676D02*
X88132017Y-85817438D01*
X88132017Y-85817438D02*
X88274874Y-85769819D01*
X88274874Y-85769819D02*
X88370112Y-85769819D01*
X88370112Y-85769819D02*
X88512969Y-85817438D01*
X88512969Y-85817438D02*
X88560588Y-85865057D01*
X89465350Y-85769819D02*
X88989160Y-85769819D01*
X88989160Y-85769819D02*
X88941541Y-86246009D01*
X88941541Y-86246009D02*
X88989160Y-86198390D01*
X88989160Y-86198390D02*
X89084398Y-86150771D01*
X89084398Y-86150771D02*
X89322493Y-86150771D01*
X89322493Y-86150771D02*
X89417731Y-86198390D01*
X89417731Y-86198390D02*
X89465350Y-86246009D01*
X89465350Y-86246009D02*
X89512969Y-86341247D01*
X89512969Y-86341247D02*
X89512969Y-86579342D01*
X89512969Y-86579342D02*
X89465350Y-86674580D01*
X89465350Y-86674580D02*
X89417731Y-86722200D01*
X89417731Y-86722200D02*
X89322493Y-86769819D01*
X89322493Y-86769819D02*
X89084398Y-86769819D01*
X89084398Y-86769819D02*
X88989160Y-86722200D01*
X88989160Y-86722200D02*
X88941541Y-86674580D01*
X90370112Y-86103152D02*
X90370112Y-86769819D01*
X90132017Y-85722200D02*
X89893922Y-86436485D01*
X89893922Y-86436485D02*
X90512969Y-86436485D01*
X91322493Y-85769819D02*
X91132017Y-85769819D01*
X91132017Y-85769819D02*
X91036779Y-85817438D01*
X91036779Y-85817438D02*
X90989160Y-85865057D01*
X90989160Y-85865057D02*
X90893922Y-86007914D01*
X90893922Y-86007914D02*
X90846303Y-86198390D01*
X90846303Y-86198390D02*
X90846303Y-86579342D01*
X90846303Y-86579342D02*
X90893922Y-86674580D01*
X90893922Y-86674580D02*
X90941541Y-86722200D01*
X90941541Y-86722200D02*
X91036779Y-86769819D01*
X91036779Y-86769819D02*
X91227255Y-86769819D01*
X91227255Y-86769819D02*
X91322493Y-86722200D01*
X91322493Y-86722200D02*
X91370112Y-86674580D01*
X91370112Y-86674580D02*
X91417731Y-86579342D01*
X91417731Y-86579342D02*
X91417731Y-86341247D01*
X91417731Y-86341247D02*
X91370112Y-86246009D01*
X91370112Y-86246009D02*
X91322493Y-86198390D01*
X91322493Y-86198390D02*
X91227255Y-86150771D01*
X91227255Y-86150771D02*
X91036779Y-86150771D01*
X91036779Y-86150771D02*
X90941541Y-86198390D01*
X90941541Y-86198390D02*
X90893922Y-86246009D01*
X90893922Y-86246009D02*
X90846303Y-86341247D01*
X92179636Y-86246009D02*
X92322493Y-86293628D01*
X92322493Y-86293628D02*
X92370112Y-86341247D01*
X92370112Y-86341247D02*
X92417731Y-86436485D01*
X92417731Y-86436485D02*
X92417731Y-86579342D01*
X92417731Y-86579342D02*
X92370112Y-86674580D01*
X92370112Y-86674580D02*
X92322493Y-86722200D01*
X92322493Y-86722200D02*
X92227255Y-86769819D01*
X92227255Y-86769819D02*
X91846303Y-86769819D01*
X91846303Y-86769819D02*
X91846303Y-85769819D01*
X91846303Y-85769819D02*
X92179636Y-85769819D01*
X92179636Y-85769819D02*
X92274874Y-85817438D01*
X92274874Y-85817438D02*
X92322493Y-85865057D01*
X92322493Y-85865057D02*
X92370112Y-85960295D01*
X92370112Y-85960295D02*
X92370112Y-86055533D01*
X92370112Y-86055533D02*
X92322493Y-86150771D01*
X92322493Y-86150771D02*
X92274874Y-86198390D01*
X92274874Y-86198390D02*
X92179636Y-86246009D01*
X92179636Y-86246009D02*
X91846303Y-86246009D01*
X93560589Y-86484104D02*
X94036779Y-86484104D01*
X93465351Y-86769819D02*
X93798684Y-85769819D01*
X93798684Y-85769819D02*
X94132017Y-86769819D01*
X94417732Y-86722200D02*
X94512970Y-86769819D01*
X94512970Y-86769819D02*
X94703446Y-86769819D01*
X94703446Y-86769819D02*
X94798684Y-86722200D01*
X94798684Y-86722200D02*
X94846303Y-86626961D01*
X94846303Y-86626961D02*
X94846303Y-86579342D01*
X94846303Y-86579342D02*
X94798684Y-86484104D01*
X94798684Y-86484104D02*
X94703446Y-86436485D01*
X94703446Y-86436485D02*
X94560589Y-86436485D01*
X94560589Y-86436485D02*
X94465351Y-86388866D01*
X94465351Y-86388866D02*
X94417732Y-86293628D01*
X94417732Y-86293628D02*
X94417732Y-86246009D01*
X94417732Y-86246009D02*
X94465351Y-86150771D01*
X94465351Y-86150771D02*
X94560589Y-86103152D01*
X94560589Y-86103152D02*
X94703446Y-86103152D01*
X94703446Y-86103152D02*
X94798684Y-86150771D01*
X95132018Y-86103152D02*
X95512970Y-86103152D01*
X95274875Y-85769819D02*
X95274875Y-86626961D01*
X95274875Y-86626961D02*
X95322494Y-86722200D01*
X95322494Y-86722200D02*
X95417732Y-86769819D01*
X95417732Y-86769819D02*
X95512970Y-86769819D01*
X96274875Y-86769819D02*
X96274875Y-86246009D01*
X96274875Y-86246009D02*
X96227256Y-86150771D01*
X96227256Y-86150771D02*
X96132018Y-86103152D01*
X96132018Y-86103152D02*
X95941542Y-86103152D01*
X95941542Y-86103152D02*
X95846304Y-86150771D01*
X96274875Y-86722200D02*
X96179637Y-86769819D01*
X96179637Y-86769819D02*
X95941542Y-86769819D01*
X95941542Y-86769819D02*
X95846304Y-86722200D01*
X95846304Y-86722200D02*
X95798685Y-86626961D01*
X95798685Y-86626961D02*
X95798685Y-86531723D01*
X95798685Y-86531723D02*
X95846304Y-86436485D01*
X95846304Y-86436485D02*
X95941542Y-86388866D01*
X95941542Y-86388866D02*
X96179637Y-86388866D01*
X96179637Y-86388866D02*
X96274875Y-86341247D01*
X96751066Y-86769819D02*
X96751066Y-85769819D01*
X96751066Y-86150771D02*
X96846304Y-86103152D01*
X96846304Y-86103152D02*
X97036780Y-86103152D01*
X97036780Y-86103152D02*
X97132018Y-86150771D01*
X97132018Y-86150771D02*
X97179637Y-86198390D01*
X97179637Y-86198390D02*
X97227256Y-86293628D01*
X97227256Y-86293628D02*
X97227256Y-86579342D01*
X97227256Y-86579342D02*
X97179637Y-86674580D01*
X97179637Y-86674580D02*
X97132018Y-86722200D01*
X97132018Y-86722200D02*
X97036780Y-86769819D01*
X97036780Y-86769819D02*
X96846304Y-86769819D01*
X96846304Y-86769819D02*
X96751066Y-86722200D01*
X97798685Y-86769819D02*
X97703447Y-86722200D01*
X97703447Y-86722200D02*
X97655828Y-86626961D01*
X97655828Y-86626961D02*
X97655828Y-85769819D01*
X98560590Y-86722200D02*
X98465352Y-86769819D01*
X98465352Y-86769819D02*
X98274876Y-86769819D01*
X98274876Y-86769819D02*
X98179638Y-86722200D01*
X98179638Y-86722200D02*
X98132019Y-86626961D01*
X98132019Y-86626961D02*
X98132019Y-86246009D01*
X98132019Y-86246009D02*
X98179638Y-86150771D01*
X98179638Y-86150771D02*
X98274876Y-86103152D01*
X98274876Y-86103152D02*
X98465352Y-86103152D01*
X98465352Y-86103152D02*
X98560590Y-86150771D01*
X98560590Y-86150771D02*
X98608209Y-86246009D01*
X98608209Y-86246009D02*
X98608209Y-86341247D01*
X98608209Y-86341247D02*
X98132019Y-86436485D01*
X99798686Y-86769819D02*
X99798686Y-85769819D01*
X99798686Y-85769819D02*
X100132019Y-86484104D01*
X100132019Y-86484104D02*
X100465352Y-85769819D01*
X100465352Y-85769819D02*
X100465352Y-86769819D01*
X101370114Y-86103152D02*
X101370114Y-86769819D01*
X100941543Y-86103152D02*
X100941543Y-86626961D01*
X100941543Y-86626961D02*
X100989162Y-86722200D01*
X100989162Y-86722200D02*
X101084400Y-86769819D01*
X101084400Y-86769819D02*
X101227257Y-86769819D01*
X101227257Y-86769819D02*
X101322495Y-86722200D01*
X101322495Y-86722200D02*
X101370114Y-86674580D01*
X101989162Y-86769819D02*
X101893924Y-86722200D01*
X101893924Y-86722200D02*
X101846305Y-86626961D01*
X101846305Y-86626961D02*
X101846305Y-85769819D01*
X102227258Y-86103152D02*
X102608210Y-86103152D01*
X102370115Y-85769819D02*
X102370115Y-86626961D01*
X102370115Y-86626961D02*
X102417734Y-86722200D01*
X102417734Y-86722200D02*
X102512972Y-86769819D01*
X102512972Y-86769819D02*
X102608210Y-86769819D01*
X102941544Y-86769819D02*
X102941544Y-86103152D01*
X102941544Y-85769819D02*
X102893925Y-85817438D01*
X102893925Y-85817438D02*
X102941544Y-85865057D01*
X102941544Y-85865057D02*
X102989163Y-85817438D01*
X102989163Y-85817438D02*
X102941544Y-85769819D01*
X102941544Y-85769819D02*
X102941544Y-85865057D01*
X103322496Y-86103152D02*
X103560591Y-86769819D01*
X103560591Y-86769819D02*
X103798686Y-86103152D01*
X104179639Y-86769819D02*
X104179639Y-86103152D01*
X104179639Y-85769819D02*
X104132020Y-85817438D01*
X104132020Y-85817438D02*
X104179639Y-85865057D01*
X104179639Y-85865057D02*
X104227258Y-85817438D01*
X104227258Y-85817438D02*
X104179639Y-85769819D01*
X104179639Y-85769819D02*
X104179639Y-85865057D01*
X104655829Y-86769819D02*
X104655829Y-85769819D01*
X104655829Y-86150771D02*
X104751067Y-86103152D01*
X104751067Y-86103152D02*
X104941543Y-86103152D01*
X104941543Y-86103152D02*
X105036781Y-86150771D01*
X105036781Y-86150771D02*
X105084400Y-86198390D01*
X105084400Y-86198390D02*
X105132019Y-86293628D01*
X105132019Y-86293628D02*
X105132019Y-86579342D01*
X105132019Y-86579342D02*
X105084400Y-86674580D01*
X105084400Y-86674580D02*
X105036781Y-86722200D01*
X105036781Y-86722200D02*
X104941543Y-86769819D01*
X104941543Y-86769819D02*
X104751067Y-86769819D01*
X104751067Y-86769819D02*
X104655829Y-86722200D01*
X105560591Y-86769819D02*
X105560591Y-86103152D01*
X105560591Y-86293628D02*
X105608210Y-86198390D01*
X105608210Y-86198390D02*
X105655829Y-86150771D01*
X105655829Y-86150771D02*
X105751067Y-86103152D01*
X105751067Y-86103152D02*
X105846305Y-86103152D01*
X106608210Y-86769819D02*
X106608210Y-86246009D01*
X106608210Y-86246009D02*
X106560591Y-86150771D01*
X106560591Y-86150771D02*
X106465353Y-86103152D01*
X106465353Y-86103152D02*
X106274877Y-86103152D01*
X106274877Y-86103152D02*
X106179639Y-86150771D01*
X106608210Y-86722200D02*
X106512972Y-86769819D01*
X106512972Y-86769819D02*
X106274877Y-86769819D01*
X106274877Y-86769819D02*
X106179639Y-86722200D01*
X106179639Y-86722200D02*
X106132020Y-86626961D01*
X106132020Y-86626961D02*
X106132020Y-86531723D01*
X106132020Y-86531723D02*
X106179639Y-86436485D01*
X106179639Y-86436485D02*
X106274877Y-86388866D01*
X106274877Y-86388866D02*
X106512972Y-86388866D01*
X106512972Y-86388866D02*
X106608210Y-86341247D01*
X106941544Y-86103152D02*
X107322496Y-86103152D01*
X107084401Y-85769819D02*
X107084401Y-86626961D01*
X107084401Y-86626961D02*
X107132020Y-86722200D01*
X107132020Y-86722200D02*
X107227258Y-86769819D01*
X107227258Y-86769819D02*
X107322496Y-86769819D01*
X107798687Y-86769819D02*
X107703449Y-86722200D01*
X107703449Y-86722200D02*
X107655830Y-86674580D01*
X107655830Y-86674580D02*
X107608211Y-86579342D01*
X107608211Y-86579342D02*
X107608211Y-86293628D01*
X107608211Y-86293628D02*
X107655830Y-86198390D01*
X107655830Y-86198390D02*
X107703449Y-86150771D01*
X107703449Y-86150771D02*
X107798687Y-86103152D01*
X107798687Y-86103152D02*
X107941544Y-86103152D01*
X107941544Y-86103152D02*
X108036782Y-86150771D01*
X108036782Y-86150771D02*
X108084401Y-86198390D01*
X108084401Y-86198390D02*
X108132020Y-86293628D01*
X108132020Y-86293628D02*
X108132020Y-86579342D01*
X108132020Y-86579342D02*
X108084401Y-86674580D01*
X108084401Y-86674580D02*
X108036782Y-86722200D01*
X108036782Y-86722200D02*
X107941544Y-86769819D01*
X107941544Y-86769819D02*
X107798687Y-86769819D01*
X108560592Y-86769819D02*
X108560592Y-86103152D01*
X108560592Y-86293628D02*
X108608211Y-86198390D01*
X108608211Y-86198390D02*
X108655830Y-86150771D01*
X108655830Y-86150771D02*
X108751068Y-86103152D01*
X108751068Y-86103152D02*
X108846306Y-86103152D01*
X109417735Y-87103152D02*
X109417735Y-85674580D01*
X100233333Y-73059580D02*
X100185714Y-73107200D01*
X100185714Y-73107200D02*
X100042857Y-73154819D01*
X100042857Y-73154819D02*
X99947619Y-73154819D01*
X99947619Y-73154819D02*
X99804762Y-73107200D01*
X99804762Y-73107200D02*
X99709524Y-73011961D01*
X99709524Y-73011961D02*
X99661905Y-72916723D01*
X99661905Y-72916723D02*
X99614286Y-72726247D01*
X99614286Y-72726247D02*
X99614286Y-72583390D01*
X99614286Y-72583390D02*
X99661905Y-72392914D01*
X99661905Y-72392914D02*
X99709524Y-72297676D01*
X99709524Y-72297676D02*
X99804762Y-72202438D01*
X99804762Y-72202438D02*
X99947619Y-72154819D01*
X99947619Y-72154819D02*
X100042857Y-72154819D01*
X100042857Y-72154819D02*
X100185714Y-72202438D01*
X100185714Y-72202438D02*
X100233333Y-72250057D01*
X100614286Y-72250057D02*
X100661905Y-72202438D01*
X100661905Y-72202438D02*
X100757143Y-72154819D01*
X100757143Y-72154819D02*
X100995238Y-72154819D01*
X100995238Y-72154819D02*
X101090476Y-72202438D01*
X101090476Y-72202438D02*
X101138095Y-72250057D01*
X101138095Y-72250057D02*
X101185714Y-72345295D01*
X101185714Y-72345295D02*
X101185714Y-72440533D01*
X101185714Y-72440533D02*
X101138095Y-72583390D01*
X101138095Y-72583390D02*
X100566667Y-73154819D01*
X100566667Y-73154819D02*
X101185714Y-73154819D01*
X91233333Y-82654819D02*
X90900000Y-82178628D01*
X90661905Y-82654819D02*
X90661905Y-81654819D01*
X90661905Y-81654819D02*
X91042857Y-81654819D01*
X91042857Y-81654819D02*
X91138095Y-81702438D01*
X91138095Y-81702438D02*
X91185714Y-81750057D01*
X91185714Y-81750057D02*
X91233333Y-81845295D01*
X91233333Y-81845295D02*
X91233333Y-81988152D01*
X91233333Y-81988152D02*
X91185714Y-82083390D01*
X91185714Y-82083390D02*
X91138095Y-82131009D01*
X91138095Y-82131009D02*
X91042857Y-82178628D01*
X91042857Y-82178628D02*
X90661905Y-82178628D01*
X92090476Y-81654819D02*
X91900000Y-81654819D01*
X91900000Y-81654819D02*
X91804762Y-81702438D01*
X91804762Y-81702438D02*
X91757143Y-81750057D01*
X91757143Y-81750057D02*
X91661905Y-81892914D01*
X91661905Y-81892914D02*
X91614286Y-82083390D01*
X91614286Y-82083390D02*
X91614286Y-82464342D01*
X91614286Y-82464342D02*
X91661905Y-82559580D01*
X91661905Y-82559580D02*
X91709524Y-82607200D01*
X91709524Y-82607200D02*
X91804762Y-82654819D01*
X91804762Y-82654819D02*
X91995238Y-82654819D01*
X91995238Y-82654819D02*
X92090476Y-82607200D01*
X92090476Y-82607200D02*
X92138095Y-82559580D01*
X92138095Y-82559580D02*
X92185714Y-82464342D01*
X92185714Y-82464342D02*
X92185714Y-82226247D01*
X92185714Y-82226247D02*
X92138095Y-82131009D01*
X92138095Y-82131009D02*
X92090476Y-82083390D01*
X92090476Y-82083390D02*
X91995238Y-82035771D01*
X91995238Y-82035771D02*
X91804762Y-82035771D01*
X91804762Y-82035771D02*
X91709524Y-82083390D01*
X91709524Y-82083390D02*
X91661905Y-82131009D01*
X91661905Y-82131009D02*
X91614286Y-82226247D01*
X106133333Y-73459580D02*
X106085714Y-73507200D01*
X106085714Y-73507200D02*
X105942857Y-73554819D01*
X105942857Y-73554819D02*
X105847619Y-73554819D01*
X105847619Y-73554819D02*
X105704762Y-73507200D01*
X105704762Y-73507200D02*
X105609524Y-73411961D01*
X105609524Y-73411961D02*
X105561905Y-73316723D01*
X105561905Y-73316723D02*
X105514286Y-73126247D01*
X105514286Y-73126247D02*
X105514286Y-72983390D01*
X105514286Y-72983390D02*
X105561905Y-72792914D01*
X105561905Y-72792914D02*
X105609524Y-72697676D01*
X105609524Y-72697676D02*
X105704762Y-72602438D01*
X105704762Y-72602438D02*
X105847619Y-72554819D01*
X105847619Y-72554819D02*
X105942857Y-72554819D01*
X105942857Y-72554819D02*
X106085714Y-72602438D01*
X106085714Y-72602438D02*
X106133333Y-72650057D01*
X107085714Y-73554819D02*
X106514286Y-73554819D01*
X106800000Y-73554819D02*
X106800000Y-72554819D01*
X106800000Y-72554819D02*
X106704762Y-72697676D01*
X106704762Y-72697676D02*
X106609524Y-72792914D01*
X106609524Y-72792914D02*
X106514286Y-72840533D01*
X91999847Y-67156339D02*
X91666514Y-66680148D01*
X91428419Y-67156339D02*
X91428419Y-66156339D01*
X91428419Y-66156339D02*
X91809371Y-66156339D01*
X91809371Y-66156339D02*
X91904609Y-66203958D01*
X91904609Y-66203958D02*
X91952228Y-66251577D01*
X91952228Y-66251577D02*
X91999847Y-66346815D01*
X91999847Y-66346815D02*
X91999847Y-66489672D01*
X91999847Y-66489672D02*
X91952228Y-66584910D01*
X91952228Y-66584910D02*
X91904609Y-66632529D01*
X91904609Y-66632529D02*
X91809371Y-66680148D01*
X91809371Y-66680148D02*
X91428419Y-66680148D01*
X92333181Y-66156339D02*
X92952228Y-66156339D01*
X92952228Y-66156339D02*
X92618895Y-66537291D01*
X92618895Y-66537291D02*
X92761752Y-66537291D01*
X92761752Y-66537291D02*
X92856990Y-66584910D01*
X92856990Y-66584910D02*
X92904609Y-66632529D01*
X92904609Y-66632529D02*
X92952228Y-66727767D01*
X92952228Y-66727767D02*
X92952228Y-66965862D01*
X92952228Y-66965862D02*
X92904609Y-67061100D01*
X92904609Y-67061100D02*
X92856990Y-67108720D01*
X92856990Y-67108720D02*
X92761752Y-67156339D01*
X92761752Y-67156339D02*
X92476038Y-67156339D01*
X92476038Y-67156339D02*
X92380800Y-67108720D01*
X92380800Y-67108720D02*
X92333181Y-67061100D01*
X102563180Y-56992529D02*
X102706037Y-57040148D01*
X102706037Y-57040148D02*
X102753656Y-57087767D01*
X102753656Y-57087767D02*
X102801275Y-57183005D01*
X102801275Y-57183005D02*
X102801275Y-57325862D01*
X102801275Y-57325862D02*
X102753656Y-57421100D01*
X102753656Y-57421100D02*
X102706037Y-57468720D01*
X102706037Y-57468720D02*
X102610799Y-57516339D01*
X102610799Y-57516339D02*
X102229847Y-57516339D01*
X102229847Y-57516339D02*
X102229847Y-56516339D01*
X102229847Y-56516339D02*
X102563180Y-56516339D01*
X102563180Y-56516339D02*
X102658418Y-56563958D01*
X102658418Y-56563958D02*
X102706037Y-56611577D01*
X102706037Y-56611577D02*
X102753656Y-56706815D01*
X102753656Y-56706815D02*
X102753656Y-56802053D01*
X102753656Y-56802053D02*
X102706037Y-56897291D01*
X102706037Y-56897291D02*
X102658418Y-56944910D01*
X102658418Y-56944910D02*
X102563180Y-56992529D01*
X102563180Y-56992529D02*
X102229847Y-56992529D01*
X103801275Y-57421100D02*
X103753656Y-57468720D01*
X103753656Y-57468720D02*
X103610799Y-57516339D01*
X103610799Y-57516339D02*
X103515561Y-57516339D01*
X103515561Y-57516339D02*
X103372704Y-57468720D01*
X103372704Y-57468720D02*
X103277466Y-57373481D01*
X103277466Y-57373481D02*
X103229847Y-57278243D01*
X103229847Y-57278243D02*
X103182228Y-57087767D01*
X103182228Y-57087767D02*
X103182228Y-56944910D01*
X103182228Y-56944910D02*
X103229847Y-56754434D01*
X103229847Y-56754434D02*
X103277466Y-56659196D01*
X103277466Y-56659196D02*
X103372704Y-56563958D01*
X103372704Y-56563958D02*
X103515561Y-56516339D01*
X103515561Y-56516339D02*
X103610799Y-56516339D01*
X103610799Y-56516339D02*
X103753656Y-56563958D01*
X103753656Y-56563958D02*
X103801275Y-56611577D01*
X104706037Y-56516339D02*
X104229847Y-56516339D01*
X104229847Y-56516339D02*
X104182228Y-56992529D01*
X104182228Y-56992529D02*
X104229847Y-56944910D01*
X104229847Y-56944910D02*
X104325085Y-56897291D01*
X104325085Y-56897291D02*
X104563180Y-56897291D01*
X104563180Y-56897291D02*
X104658418Y-56944910D01*
X104658418Y-56944910D02*
X104706037Y-56992529D01*
X104706037Y-56992529D02*
X104753656Y-57087767D01*
X104753656Y-57087767D02*
X104753656Y-57325862D01*
X104753656Y-57325862D02*
X104706037Y-57421100D01*
X104706037Y-57421100D02*
X104658418Y-57468720D01*
X104658418Y-57468720D02*
X104563180Y-57516339D01*
X104563180Y-57516339D02*
X104325085Y-57516339D01*
X104325085Y-57516339D02*
X104229847Y-57468720D01*
X104229847Y-57468720D02*
X104182228Y-57421100D01*
X105610799Y-56849672D02*
X105610799Y-57516339D01*
X105372704Y-56468720D02*
X105134609Y-57183005D01*
X105134609Y-57183005D02*
X105753656Y-57183005D01*
X106563180Y-56516339D02*
X106372704Y-56516339D01*
X106372704Y-56516339D02*
X106277466Y-56563958D01*
X106277466Y-56563958D02*
X106229847Y-56611577D01*
X106229847Y-56611577D02*
X106134609Y-56754434D01*
X106134609Y-56754434D02*
X106086990Y-56944910D01*
X106086990Y-56944910D02*
X106086990Y-57325862D01*
X106086990Y-57325862D02*
X106134609Y-57421100D01*
X106134609Y-57421100D02*
X106182228Y-57468720D01*
X106182228Y-57468720D02*
X106277466Y-57516339D01*
X106277466Y-57516339D02*
X106467942Y-57516339D01*
X106467942Y-57516339D02*
X106563180Y-57468720D01*
X106563180Y-57468720D02*
X106610799Y-57421100D01*
X106610799Y-57421100D02*
X106658418Y-57325862D01*
X106658418Y-57325862D02*
X106658418Y-57087767D01*
X106658418Y-57087767D02*
X106610799Y-56992529D01*
X106610799Y-56992529D02*
X106563180Y-56944910D01*
X106563180Y-56944910D02*
X106467942Y-56897291D01*
X106467942Y-56897291D02*
X106277466Y-56897291D01*
X106277466Y-56897291D02*
X106182228Y-56944910D01*
X106182228Y-56944910D02*
X106134609Y-56992529D01*
X106134609Y-56992529D02*
X106086990Y-57087767D01*
X107420323Y-56992529D02*
X107563180Y-57040148D01*
X107563180Y-57040148D02*
X107610799Y-57087767D01*
X107610799Y-57087767D02*
X107658418Y-57183005D01*
X107658418Y-57183005D02*
X107658418Y-57325862D01*
X107658418Y-57325862D02*
X107610799Y-57421100D01*
X107610799Y-57421100D02*
X107563180Y-57468720D01*
X107563180Y-57468720D02*
X107467942Y-57516339D01*
X107467942Y-57516339D02*
X107086990Y-57516339D01*
X107086990Y-57516339D02*
X107086990Y-56516339D01*
X107086990Y-56516339D02*
X107420323Y-56516339D01*
X107420323Y-56516339D02*
X107515561Y-56563958D01*
X107515561Y-56563958D02*
X107563180Y-56611577D01*
X107563180Y-56611577D02*
X107610799Y-56706815D01*
X107610799Y-56706815D02*
X107610799Y-56802053D01*
X107610799Y-56802053D02*
X107563180Y-56897291D01*
X107563180Y-56897291D02*
X107515561Y-56944910D01*
X107515561Y-56944910D02*
X107420323Y-56992529D01*
X107420323Y-56992529D02*
X107086990Y-56992529D01*
X108610799Y-57516339D02*
X108039371Y-57516339D01*
X108325085Y-57516339D02*
X108325085Y-56516339D01*
X108325085Y-56516339D02*
X108229847Y-56659196D01*
X108229847Y-56659196D02*
X108134609Y-56754434D01*
X108134609Y-56754434D02*
X108039371Y-56802053D01*
X90733333Y-57654819D02*
X90400000Y-57178628D01*
X90161905Y-57654819D02*
X90161905Y-56654819D01*
X90161905Y-56654819D02*
X90542857Y-56654819D01*
X90542857Y-56654819D02*
X90638095Y-56702438D01*
X90638095Y-56702438D02*
X90685714Y-56750057D01*
X90685714Y-56750057D02*
X90733333Y-56845295D01*
X90733333Y-56845295D02*
X90733333Y-56988152D01*
X90733333Y-56988152D02*
X90685714Y-57083390D01*
X90685714Y-57083390D02*
X90638095Y-57131009D01*
X90638095Y-57131009D02*
X90542857Y-57178628D01*
X90542857Y-57178628D02*
X90161905Y-57178628D01*
X91685714Y-57654819D02*
X91114286Y-57654819D01*
X91400000Y-57654819D02*
X91400000Y-56654819D01*
X91400000Y-56654819D02*
X91304762Y-56797676D01*
X91304762Y-56797676D02*
X91209524Y-56892914D01*
X91209524Y-56892914D02*
X91114286Y-56940533D01*
X92133333Y-77454819D02*
X91800000Y-76978628D01*
X91561905Y-77454819D02*
X91561905Y-76454819D01*
X91561905Y-76454819D02*
X91942857Y-76454819D01*
X91942857Y-76454819D02*
X92038095Y-76502438D01*
X92038095Y-76502438D02*
X92085714Y-76550057D01*
X92085714Y-76550057D02*
X92133333Y-76645295D01*
X92133333Y-76645295D02*
X92133333Y-76788152D01*
X92133333Y-76788152D02*
X92085714Y-76883390D01*
X92085714Y-76883390D02*
X92038095Y-76931009D01*
X92038095Y-76931009D02*
X91942857Y-76978628D01*
X91942857Y-76978628D02*
X91561905Y-76978628D01*
X93038095Y-76454819D02*
X92561905Y-76454819D01*
X92561905Y-76454819D02*
X92514286Y-76931009D01*
X92514286Y-76931009D02*
X92561905Y-76883390D01*
X92561905Y-76883390D02*
X92657143Y-76835771D01*
X92657143Y-76835771D02*
X92895238Y-76835771D01*
X92895238Y-76835771D02*
X92990476Y-76883390D01*
X92990476Y-76883390D02*
X93038095Y-76931009D01*
X93038095Y-76931009D02*
X93085714Y-77026247D01*
X93085714Y-77026247D02*
X93085714Y-77264342D01*
X93085714Y-77264342D02*
X93038095Y-77359580D01*
X93038095Y-77359580D02*
X92990476Y-77407200D01*
X92990476Y-77407200D02*
X92895238Y-77454819D01*
X92895238Y-77454819D02*
X92657143Y-77454819D01*
X92657143Y-77454819D02*
X92561905Y-77407200D01*
X92561905Y-77407200D02*
X92514286Y-77359580D01*
X92099847Y-72256339D02*
X91766514Y-71780148D01*
X91528419Y-72256339D02*
X91528419Y-71256339D01*
X91528419Y-71256339D02*
X91909371Y-71256339D01*
X91909371Y-71256339D02*
X92004609Y-71303958D01*
X92004609Y-71303958D02*
X92052228Y-71351577D01*
X92052228Y-71351577D02*
X92099847Y-71446815D01*
X92099847Y-71446815D02*
X92099847Y-71589672D01*
X92099847Y-71589672D02*
X92052228Y-71684910D01*
X92052228Y-71684910D02*
X92004609Y-71732529D01*
X92004609Y-71732529D02*
X91909371Y-71780148D01*
X91909371Y-71780148D02*
X91528419Y-71780148D01*
X92956990Y-71589672D02*
X92956990Y-72256339D01*
X92718895Y-71208720D02*
X92480800Y-71923005D01*
X92480800Y-71923005D02*
X93099847Y-71923005D01*
X101192523Y-84007234D02*
X101240142Y-83864377D01*
X101240142Y-83864377D02*
X101287761Y-83816758D01*
X101287761Y-83816758D02*
X101382999Y-83769139D01*
X101382999Y-83769139D02*
X101525856Y-83769139D01*
X101525856Y-83769139D02*
X101621094Y-83816758D01*
X101621094Y-83816758D02*
X101668714Y-83864377D01*
X101668714Y-83864377D02*
X101716333Y-83959615D01*
X101716333Y-83959615D02*
X101716333Y-84340567D01*
X101716333Y-84340567D02*
X100716333Y-84340567D01*
X100716333Y-84340567D02*
X100716333Y-84007234D01*
X100716333Y-84007234D02*
X100763952Y-83911996D01*
X100763952Y-83911996D02*
X100811571Y-83864377D01*
X100811571Y-83864377D02*
X100906809Y-83816758D01*
X100906809Y-83816758D02*
X101002047Y-83816758D01*
X101002047Y-83816758D02*
X101097285Y-83864377D01*
X101097285Y-83864377D02*
X101144904Y-83911996D01*
X101144904Y-83911996D02*
X101192523Y-84007234D01*
X101192523Y-84007234D02*
X101192523Y-84340567D01*
X100716333Y-83483424D02*
X100716333Y-82911996D01*
X101716333Y-83197710D02*
X100716333Y-83197710D01*
X101716333Y-82054853D02*
X101716333Y-82626281D01*
X101716333Y-82340567D02*
X100716333Y-82340567D01*
X100716333Y-82340567D02*
X100859190Y-82435805D01*
X100859190Y-82435805D02*
X100954428Y-82531043D01*
X100954428Y-82531043D02*
X101002047Y-82626281D01*
X102463180Y-65092529D02*
X102606037Y-65140148D01*
X102606037Y-65140148D02*
X102653656Y-65187767D01*
X102653656Y-65187767D02*
X102701275Y-65283005D01*
X102701275Y-65283005D02*
X102701275Y-65425862D01*
X102701275Y-65425862D02*
X102653656Y-65521100D01*
X102653656Y-65521100D02*
X102606037Y-65568720D01*
X102606037Y-65568720D02*
X102510799Y-65616339D01*
X102510799Y-65616339D02*
X102129847Y-65616339D01*
X102129847Y-65616339D02*
X102129847Y-64616339D01*
X102129847Y-64616339D02*
X102463180Y-64616339D01*
X102463180Y-64616339D02*
X102558418Y-64663958D01*
X102558418Y-64663958D02*
X102606037Y-64711577D01*
X102606037Y-64711577D02*
X102653656Y-64806815D01*
X102653656Y-64806815D02*
X102653656Y-64902053D01*
X102653656Y-64902053D02*
X102606037Y-64997291D01*
X102606037Y-64997291D02*
X102558418Y-65044910D01*
X102558418Y-65044910D02*
X102463180Y-65092529D01*
X102463180Y-65092529D02*
X102129847Y-65092529D01*
X103701275Y-65521100D02*
X103653656Y-65568720D01*
X103653656Y-65568720D02*
X103510799Y-65616339D01*
X103510799Y-65616339D02*
X103415561Y-65616339D01*
X103415561Y-65616339D02*
X103272704Y-65568720D01*
X103272704Y-65568720D02*
X103177466Y-65473481D01*
X103177466Y-65473481D02*
X103129847Y-65378243D01*
X103129847Y-65378243D02*
X103082228Y-65187767D01*
X103082228Y-65187767D02*
X103082228Y-65044910D01*
X103082228Y-65044910D02*
X103129847Y-64854434D01*
X103129847Y-64854434D02*
X103177466Y-64759196D01*
X103177466Y-64759196D02*
X103272704Y-64663958D01*
X103272704Y-64663958D02*
X103415561Y-64616339D01*
X103415561Y-64616339D02*
X103510799Y-64616339D01*
X103510799Y-64616339D02*
X103653656Y-64663958D01*
X103653656Y-64663958D02*
X103701275Y-64711577D01*
X104606037Y-64616339D02*
X104129847Y-64616339D01*
X104129847Y-64616339D02*
X104082228Y-65092529D01*
X104082228Y-65092529D02*
X104129847Y-65044910D01*
X104129847Y-65044910D02*
X104225085Y-64997291D01*
X104225085Y-64997291D02*
X104463180Y-64997291D01*
X104463180Y-64997291D02*
X104558418Y-65044910D01*
X104558418Y-65044910D02*
X104606037Y-65092529D01*
X104606037Y-65092529D02*
X104653656Y-65187767D01*
X104653656Y-65187767D02*
X104653656Y-65425862D01*
X104653656Y-65425862D02*
X104606037Y-65521100D01*
X104606037Y-65521100D02*
X104558418Y-65568720D01*
X104558418Y-65568720D02*
X104463180Y-65616339D01*
X104463180Y-65616339D02*
X104225085Y-65616339D01*
X104225085Y-65616339D02*
X104129847Y-65568720D01*
X104129847Y-65568720D02*
X104082228Y-65521100D01*
X105510799Y-64949672D02*
X105510799Y-65616339D01*
X105272704Y-64568720D02*
X105034609Y-65283005D01*
X105034609Y-65283005D02*
X105653656Y-65283005D01*
X106463180Y-64616339D02*
X106272704Y-64616339D01*
X106272704Y-64616339D02*
X106177466Y-64663958D01*
X106177466Y-64663958D02*
X106129847Y-64711577D01*
X106129847Y-64711577D02*
X106034609Y-64854434D01*
X106034609Y-64854434D02*
X105986990Y-65044910D01*
X105986990Y-65044910D02*
X105986990Y-65425862D01*
X105986990Y-65425862D02*
X106034609Y-65521100D01*
X106034609Y-65521100D02*
X106082228Y-65568720D01*
X106082228Y-65568720D02*
X106177466Y-65616339D01*
X106177466Y-65616339D02*
X106367942Y-65616339D01*
X106367942Y-65616339D02*
X106463180Y-65568720D01*
X106463180Y-65568720D02*
X106510799Y-65521100D01*
X106510799Y-65521100D02*
X106558418Y-65425862D01*
X106558418Y-65425862D02*
X106558418Y-65187767D01*
X106558418Y-65187767D02*
X106510799Y-65092529D01*
X106510799Y-65092529D02*
X106463180Y-65044910D01*
X106463180Y-65044910D02*
X106367942Y-64997291D01*
X106367942Y-64997291D02*
X106177466Y-64997291D01*
X106177466Y-64997291D02*
X106082228Y-65044910D01*
X106082228Y-65044910D02*
X106034609Y-65092529D01*
X106034609Y-65092529D02*
X105986990Y-65187767D01*
X107320323Y-65092529D02*
X107463180Y-65140148D01*
X107463180Y-65140148D02*
X107510799Y-65187767D01*
X107510799Y-65187767D02*
X107558418Y-65283005D01*
X107558418Y-65283005D02*
X107558418Y-65425862D01*
X107558418Y-65425862D02*
X107510799Y-65521100D01*
X107510799Y-65521100D02*
X107463180Y-65568720D01*
X107463180Y-65568720D02*
X107367942Y-65616339D01*
X107367942Y-65616339D02*
X106986990Y-65616339D01*
X106986990Y-65616339D02*
X106986990Y-64616339D01*
X106986990Y-64616339D02*
X107320323Y-64616339D01*
X107320323Y-64616339D02*
X107415561Y-64663958D01*
X107415561Y-64663958D02*
X107463180Y-64711577D01*
X107463180Y-64711577D02*
X107510799Y-64806815D01*
X107510799Y-64806815D02*
X107510799Y-64902053D01*
X107510799Y-64902053D02*
X107463180Y-64997291D01*
X107463180Y-64997291D02*
X107415561Y-65044910D01*
X107415561Y-65044910D02*
X107320323Y-65092529D01*
X107320323Y-65092529D02*
X106986990Y-65092529D01*
X107939371Y-64711577D02*
X107986990Y-64663958D01*
X107986990Y-64663958D02*
X108082228Y-64616339D01*
X108082228Y-64616339D02*
X108320323Y-64616339D01*
X108320323Y-64616339D02*
X108415561Y-64663958D01*
X108415561Y-64663958D02*
X108463180Y-64711577D01*
X108463180Y-64711577D02*
X108510799Y-64806815D01*
X108510799Y-64806815D02*
X108510799Y-64902053D01*
X108510799Y-64902053D02*
X108463180Y-65044910D01*
X108463180Y-65044910D02*
X107891752Y-65616339D01*
X107891752Y-65616339D02*
X108510799Y-65616339D01*
X88791905Y-54814819D02*
X88791905Y-53814819D01*
X88791905Y-53814819D02*
X89030000Y-53814819D01*
X89030000Y-53814819D02*
X89172857Y-53862438D01*
X89172857Y-53862438D02*
X89268095Y-53957676D01*
X89268095Y-53957676D02*
X89315714Y-54052914D01*
X89315714Y-54052914D02*
X89363333Y-54243390D01*
X89363333Y-54243390D02*
X89363333Y-54386247D01*
X89363333Y-54386247D02*
X89315714Y-54576723D01*
X89315714Y-54576723D02*
X89268095Y-54671961D01*
X89268095Y-54671961D02*
X89172857Y-54767200D01*
X89172857Y-54767200D02*
X89030000Y-54814819D01*
X89030000Y-54814819D02*
X88791905Y-54814819D01*
X90315714Y-54814819D02*
X89744286Y-54814819D01*
X90030000Y-54814819D02*
X90030000Y-53814819D01*
X90030000Y-53814819D02*
X89934762Y-53957676D01*
X89934762Y-53957676D02*
X89839524Y-54052914D01*
X89839524Y-54052914D02*
X89744286Y-54100533D01*
X104998419Y-48716339D02*
X104998419Y-47716339D01*
X104998419Y-47716339D02*
X105236514Y-47716339D01*
X105236514Y-47716339D02*
X105379371Y-47763958D01*
X105379371Y-47763958D02*
X105474609Y-47859196D01*
X105474609Y-47859196D02*
X105522228Y-47954434D01*
X105522228Y-47954434D02*
X105569847Y-48144910D01*
X105569847Y-48144910D02*
X105569847Y-48287767D01*
X105569847Y-48287767D02*
X105522228Y-48478243D01*
X105522228Y-48478243D02*
X105474609Y-48573481D01*
X105474609Y-48573481D02*
X105379371Y-48668720D01*
X105379371Y-48668720D02*
X105236514Y-48716339D01*
X105236514Y-48716339D02*
X104998419Y-48716339D01*
X105950800Y-47811577D02*
X105998419Y-47763958D01*
X105998419Y-47763958D02*
X106093657Y-47716339D01*
X106093657Y-47716339D02*
X106331752Y-47716339D01*
X106331752Y-47716339D02*
X106426990Y-47763958D01*
X106426990Y-47763958D02*
X106474609Y-47811577D01*
X106474609Y-47811577D02*
X106522228Y-47906815D01*
X106522228Y-47906815D02*
X106522228Y-48002053D01*
X106522228Y-48002053D02*
X106474609Y-48144910D01*
X106474609Y-48144910D02*
X105903181Y-48716339D01*
X105903181Y-48716339D02*
X106522228Y-48716339D01*
X91833333Y-62554819D02*
X91500000Y-62078628D01*
X91261905Y-62554819D02*
X91261905Y-61554819D01*
X91261905Y-61554819D02*
X91642857Y-61554819D01*
X91642857Y-61554819D02*
X91738095Y-61602438D01*
X91738095Y-61602438D02*
X91785714Y-61650057D01*
X91785714Y-61650057D02*
X91833333Y-61745295D01*
X91833333Y-61745295D02*
X91833333Y-61888152D01*
X91833333Y-61888152D02*
X91785714Y-61983390D01*
X91785714Y-61983390D02*
X91738095Y-62031009D01*
X91738095Y-62031009D02*
X91642857Y-62078628D01*
X91642857Y-62078628D02*
X91261905Y-62078628D01*
X92214286Y-61650057D02*
X92261905Y-61602438D01*
X92261905Y-61602438D02*
X92357143Y-61554819D01*
X92357143Y-61554819D02*
X92595238Y-61554819D01*
X92595238Y-61554819D02*
X92690476Y-61602438D01*
X92690476Y-61602438D02*
X92738095Y-61650057D01*
X92738095Y-61650057D02*
X92785714Y-61745295D01*
X92785714Y-61745295D02*
X92785714Y-61840533D01*
X92785714Y-61840533D02*
X92738095Y-61983390D01*
X92738095Y-61983390D02*
X92166667Y-62554819D01*
X92166667Y-62554819D02*
X92785714Y-62554819D01*
D11*
%TO.C,C2*%
X97924114Y-75026520D02*
X98324114Y-75026520D01*
X98124114Y-74826520D02*
X98124114Y-75226520D01*
X100193915Y-74141520D02*
X100193915Y-75381520D01*
X100193915Y-77061520D02*
X100193915Y-78301520D01*
X100233915Y-74141520D02*
X100233915Y-75381520D01*
X100233915Y-77061520D02*
X100233915Y-78301520D01*
X100273915Y-74142520D02*
X100273915Y-75381520D01*
X100273915Y-77061520D02*
X100273915Y-78300520D01*
X100313915Y-74144520D02*
X100313915Y-75381520D01*
X100313915Y-77061520D02*
X100313915Y-78298520D01*
X100353915Y-74147520D02*
X100353915Y-75381520D01*
X100353915Y-77061520D02*
X100353915Y-78295520D01*
X100393915Y-74150520D02*
X100393915Y-75381520D01*
X100393915Y-77061520D02*
X100393915Y-78292520D01*
X100433915Y-74154520D02*
X100433915Y-75381520D01*
X100433915Y-77061520D02*
X100433915Y-78288520D01*
X100473915Y-74159520D02*
X100473915Y-75381520D01*
X100473915Y-77061520D02*
X100473915Y-78283520D01*
X100513915Y-74165520D02*
X100513915Y-75381520D01*
X100513915Y-77061520D02*
X100513915Y-78277520D01*
X100553915Y-74171520D02*
X100553915Y-75381520D01*
X100553915Y-77061520D02*
X100553915Y-78271520D01*
X100593915Y-74179520D02*
X100593915Y-75381520D01*
X100593915Y-77061520D02*
X100593915Y-78263520D01*
X100633915Y-74187520D02*
X100633915Y-75381520D01*
X100633915Y-77061520D02*
X100633915Y-78255520D01*
X100673915Y-74196520D02*
X100673915Y-75381520D01*
X100673915Y-77061520D02*
X100673915Y-78246520D01*
X100713915Y-74205520D02*
X100713915Y-75381520D01*
X100713915Y-77061520D02*
X100713915Y-78237520D01*
X100753915Y-74216520D02*
X100753915Y-75381520D01*
X100753915Y-77061520D02*
X100753915Y-78226520D01*
X100793915Y-74227520D02*
X100793915Y-75381520D01*
X100793915Y-77061520D02*
X100793915Y-78215520D01*
X100833915Y-74239520D02*
X100833915Y-75381520D01*
X100833915Y-77061520D02*
X100833915Y-78203520D01*
X100873915Y-74253520D02*
X100873915Y-75381520D01*
X100873915Y-77061520D02*
X100873915Y-78189520D01*
X100914915Y-74267520D02*
X100914915Y-75381520D01*
X100914915Y-77061520D02*
X100914915Y-78175520D01*
X100954915Y-74281520D02*
X100954915Y-75381520D01*
X100954915Y-77061520D02*
X100954915Y-78161520D01*
X100994915Y-74297520D02*
X100994915Y-75381520D01*
X100994915Y-77061520D02*
X100994915Y-78145520D01*
X101034915Y-74314520D02*
X101034915Y-75381520D01*
X101034915Y-77061520D02*
X101034915Y-78128520D01*
X101074915Y-74332520D02*
X101074915Y-75381520D01*
X101074915Y-77061520D02*
X101074915Y-78110520D01*
X101114915Y-74351520D02*
X101114915Y-75381520D01*
X101114915Y-77061520D02*
X101114915Y-78091520D01*
X101154915Y-74370520D02*
X101154915Y-75381520D01*
X101154915Y-77061520D02*
X101154915Y-78072520D01*
X101194915Y-74391520D02*
X101194915Y-75381520D01*
X101194915Y-77061520D02*
X101194915Y-78051520D01*
X101234915Y-74413520D02*
X101234915Y-75381520D01*
X101234915Y-77061520D02*
X101234915Y-78029520D01*
X101274915Y-74436520D02*
X101274915Y-75381520D01*
X101274915Y-77061520D02*
X101274915Y-78006520D01*
X101314915Y-74461520D02*
X101314915Y-75381520D01*
X101314915Y-77061520D02*
X101314915Y-77981520D01*
X101354915Y-74486520D02*
X101354915Y-75381520D01*
X101354915Y-77061520D02*
X101354915Y-77956520D01*
X101394915Y-74513520D02*
X101394915Y-75381520D01*
X101394915Y-77061520D02*
X101394915Y-77929520D01*
X101434915Y-74541520D02*
X101434915Y-75381520D01*
X101434915Y-77061520D02*
X101434915Y-77901520D01*
X101474915Y-74571520D02*
X101474915Y-75381520D01*
X101474915Y-77061520D02*
X101474915Y-77871520D01*
X101514915Y-74602520D02*
X101514915Y-75381520D01*
X101514915Y-77061520D02*
X101514915Y-77840520D01*
X101554915Y-74634520D02*
X101554915Y-75381520D01*
X101554915Y-77061520D02*
X101554915Y-77808520D01*
X101594915Y-74669520D02*
X101594915Y-75381520D01*
X101594915Y-77061520D02*
X101594915Y-77773520D01*
X101634915Y-74705520D02*
X101634915Y-75381520D01*
X101634915Y-77061520D02*
X101634915Y-77737520D01*
X101674915Y-74743520D02*
X101674915Y-75381520D01*
X101674915Y-77061520D02*
X101674915Y-77699520D01*
X101714915Y-74783520D02*
X101714915Y-75381520D01*
X101714915Y-77061520D02*
X101714915Y-77659520D01*
X101754915Y-74825520D02*
X101754915Y-75381520D01*
X101754915Y-77061520D02*
X101754915Y-77617520D01*
X101794915Y-74870520D02*
X101794915Y-77572520D01*
X101834915Y-74917520D02*
X101834915Y-77525520D01*
X101874915Y-74967520D02*
X101874915Y-77475520D01*
X101914915Y-75021520D02*
X101914915Y-77421520D01*
X101954915Y-75079520D02*
X101954915Y-77363520D01*
X101994915Y-75141520D02*
X101994915Y-77301520D01*
X102034915Y-75208520D02*
X102034915Y-77234520D01*
X102074915Y-75281520D02*
X102074915Y-77161520D01*
X102114915Y-75362520D02*
X102114915Y-77080520D01*
X102154915Y-75453520D02*
X102154915Y-76989520D01*
X102194915Y-75557520D02*
X102194915Y-76885520D01*
X102234915Y-75684520D02*
X102234915Y-76758520D01*
X102274915Y-75851520D02*
X102274915Y-76591520D01*
X102313915Y-76221520D02*
G75*
G03*
X102313915Y-76221520I-2120000J0D01*
G01*
%TO.C,G\u002A\u002A\u002A*%
G36*
X97459844Y-89156896D02*
G01*
X97459844Y-89319354D01*
X97297386Y-89319354D01*
X97134927Y-89319354D01*
X97134927Y-89220467D01*
X97218140Y-89220467D01*
X97289548Y-89220467D01*
X97360956Y-89220467D01*
X97360956Y-89149059D01*
X97360956Y-89077651D01*
X97293854Y-89081956D01*
X97226752Y-89086262D01*
X97222446Y-89153364D01*
X97218140Y-89220467D01*
X97134927Y-89220467D01*
X97134927Y-89156896D01*
X97134927Y-88994438D01*
X97297386Y-88994438D01*
X97459844Y-88994438D01*
X97459844Y-89156896D01*
G37*
G36*
X97869521Y-88323414D02*
G01*
X97869521Y-88485873D01*
X97707063Y-88485873D01*
X97544605Y-88485873D01*
X97544605Y-88323414D01*
X97544605Y-88259844D01*
X97643492Y-88259844D01*
X97643492Y-88331252D01*
X97643492Y-88402660D01*
X97710595Y-88398354D01*
X97777697Y-88394049D01*
X97782003Y-88326946D01*
X97786308Y-88259844D01*
X97714900Y-88259844D01*
X97643492Y-88259844D01*
X97544605Y-88259844D01*
X97544605Y-88160956D01*
X97707063Y-88160956D01*
X97869521Y-88160956D01*
X97869521Y-88323414D01*
G37*
G36*
X97869521Y-88740155D02*
G01*
X97869521Y-88909677D01*
X97707063Y-88909677D01*
X97544605Y-88909677D01*
X97544605Y-88740155D01*
X97544605Y-88667973D01*
X97643492Y-88667973D01*
X97643492Y-88740155D01*
X97643492Y-88812337D01*
X97710595Y-88808032D01*
X97777697Y-88803726D01*
X97777697Y-88740155D01*
X97777697Y-88676585D01*
X97710595Y-88672279D01*
X97643492Y-88667973D01*
X97544605Y-88667973D01*
X97544605Y-88570634D01*
X97707063Y-88570634D01*
X97869521Y-88570634D01*
X97869521Y-88740155D01*
G37*
G36*
X97869521Y-89156896D02*
G01*
X97869521Y-89319354D01*
X97707063Y-89319354D01*
X97544605Y-89319354D01*
X97544605Y-89156896D01*
X97544605Y-89077651D01*
X97643492Y-89077651D01*
X97643492Y-89149059D01*
X97643492Y-89220467D01*
X97714900Y-89220467D01*
X97786308Y-89220467D01*
X97782003Y-89153364D01*
X97777697Y-89086262D01*
X97710595Y-89081956D01*
X97643492Y-89077651D01*
X97544605Y-89077651D01*
X97544605Y-88994438D01*
X97707063Y-88994438D01*
X97869521Y-88994438D01*
X97869521Y-89156896D01*
G37*
G36*
X98293325Y-89156896D02*
G01*
X98293325Y-89319354D01*
X98130867Y-89319354D01*
X97968409Y-89319354D01*
X97968409Y-89220467D01*
X98051622Y-89220467D01*
X98123030Y-89220467D01*
X98194438Y-89220467D01*
X98194438Y-89149059D01*
X98194438Y-89077651D01*
X98127335Y-89081956D01*
X98060233Y-89086262D01*
X98055927Y-89153364D01*
X98051622Y-89220467D01*
X97968409Y-89220467D01*
X97968409Y-89156896D01*
X97968409Y-88994438D01*
X98130867Y-88994438D01*
X98293325Y-88994438D01*
X98293325Y-89156896D01*
G37*
G36*
X97459844Y-88323414D02*
G01*
X97459844Y-88485873D01*
X97297386Y-88485873D01*
X97134927Y-88485873D01*
X97134927Y-88323414D01*
X97134927Y-88259844D01*
X97219688Y-88259844D01*
X97219688Y-88321060D01*
X97221692Y-88360702D01*
X97226722Y-88387310D01*
X97229106Y-88391694D01*
X97247920Y-88397485D01*
X97283936Y-88400804D01*
X97299740Y-88401112D01*
X97360956Y-88401112D01*
X97360956Y-88330478D01*
X97360956Y-88259844D01*
X97290322Y-88259844D01*
X97219688Y-88259844D01*
X97134927Y-88259844D01*
X97134927Y-88160956D01*
X97297386Y-88160956D01*
X97459844Y-88160956D01*
X97459844Y-88323414D01*
G37*
G36*
X97459844Y-88740155D02*
G01*
X97459844Y-88909677D01*
X97297386Y-88909677D01*
X97134927Y-88909677D01*
X97134927Y-88771599D01*
X97221173Y-88771599D01*
X97232946Y-88798062D01*
X97262583Y-88809100D01*
X97296942Y-88810789D01*
X97360956Y-88810789D01*
X97360956Y-88739381D01*
X97360956Y-88667973D01*
X97293854Y-88672279D01*
X97253228Y-88676130D01*
X97232840Y-88684666D01*
X97224696Y-88703641D01*
X97222224Y-88723842D01*
X97221173Y-88771599D01*
X97134927Y-88771599D01*
X97134927Y-88740155D01*
X97134927Y-88570634D01*
X97297386Y-88570634D01*
X97459844Y-88570634D01*
X97459844Y-88740155D01*
G37*
G36*
X98293325Y-88323414D02*
G01*
X98293325Y-88485873D01*
X98130867Y-88485873D01*
X97968409Y-88485873D01*
X97968409Y-88323414D01*
X97968409Y-88259844D01*
X98053170Y-88259844D01*
X98053170Y-88321060D01*
X98055173Y-88360702D01*
X98060204Y-88387310D01*
X98062588Y-88391694D01*
X98081402Y-88397485D01*
X98117418Y-88400804D01*
X98133222Y-88401112D01*
X98194438Y-88401112D01*
X98194438Y-88330478D01*
X98194438Y-88259844D01*
X98123804Y-88259844D01*
X98053170Y-88259844D01*
X97968409Y-88259844D01*
X97968409Y-88160956D01*
X98130867Y-88160956D01*
X98293325Y-88160956D01*
X98293325Y-88323414D01*
G37*
G36*
X98293325Y-88740155D02*
G01*
X98293325Y-88909677D01*
X98130867Y-88909677D01*
X97968409Y-88909677D01*
X97968409Y-88771599D01*
X98054655Y-88771599D01*
X98066427Y-88798062D01*
X98096065Y-88809100D01*
X98130424Y-88810789D01*
X98194438Y-88810789D01*
X98194438Y-88739381D01*
X98194438Y-88667973D01*
X98127335Y-88672279D01*
X98086709Y-88676130D01*
X98066321Y-88684666D01*
X98058177Y-88703641D01*
X98055706Y-88723842D01*
X98054655Y-88771599D01*
X97968409Y-88771599D01*
X97968409Y-88740155D01*
X97968409Y-88570634D01*
X98130867Y-88570634D01*
X98293325Y-88570634D01*
X98293325Y-88740155D01*
G37*
G36*
X98293325Y-87793659D02*
G01*
X98293325Y-88019688D01*
X97714126Y-88019688D01*
X97134927Y-88019688D01*
X97134927Y-87793659D01*
X97134927Y-87666518D01*
X97219688Y-87666518D01*
X97219688Y-87784241D01*
X97220749Y-87839414D01*
X97223572Y-87883230D01*
X97227619Y-87908421D01*
X97229106Y-87911383D01*
X97244981Y-87913614D01*
X97285771Y-87915657D01*
X97348140Y-87917446D01*
X97428750Y-87918918D01*
X97524264Y-87920008D01*
X97631343Y-87920650D01*
X97716481Y-87920800D01*
X98194438Y-87920800D01*
X98194438Y-87793659D01*
X98194438Y-87666518D01*
X97707063Y-87666518D01*
X97219688Y-87666518D01*
X97134927Y-87666518D01*
X97134927Y-87567630D01*
X97714126Y-87567630D01*
X98293325Y-87567630D01*
X98293325Y-87793659D01*
G37*
G36*
X98121179Y-87343407D02*
G01*
X98219924Y-87344118D01*
X98299728Y-87345704D01*
X98362918Y-87348342D01*
X98411823Y-87352208D01*
X98448771Y-87357480D01*
X98476090Y-87364335D01*
X98496106Y-87372949D01*
X98511150Y-87383498D01*
X98523548Y-87396160D01*
X98533960Y-87408989D01*
X98539152Y-87416290D01*
X98543654Y-87425368D01*
X98547514Y-87438167D01*
X98550783Y-87456632D01*
X98553508Y-87482709D01*
X98555739Y-87518342D01*
X98557526Y-87565476D01*
X98558918Y-87626056D01*
X98559964Y-87702026D01*
X98560714Y-87795333D01*
X98561216Y-87907920D01*
X98561519Y-88041732D01*
X98561674Y-88198715D01*
X98561729Y-88380813D01*
X98561735Y-88505825D01*
X98561768Y-88708197D01*
X98561773Y-88884222D01*
X98561610Y-89035807D01*
X98561135Y-89164858D01*
X98560209Y-89273283D01*
X98558690Y-89362988D01*
X98556436Y-89435880D01*
X98553306Y-89493865D01*
X98549159Y-89538850D01*
X98543854Y-89572742D01*
X98537249Y-89597447D01*
X98529202Y-89614872D01*
X98519574Y-89626924D01*
X98508221Y-89635509D01*
X98495003Y-89642534D01*
X98479779Y-89649906D01*
X98476818Y-89651415D01*
X98464111Y-89656221D01*
X98444629Y-89660248D01*
X98416070Y-89663556D01*
X98376131Y-89666206D01*
X98322510Y-89668258D01*
X98252906Y-89669774D01*
X98165014Y-89670815D01*
X98056532Y-89671440D01*
X97925159Y-89671712D01*
X97768592Y-89671690D01*
X97711296Y-89671629D01*
X97570057Y-89671233D01*
X97436820Y-89670431D01*
X97314364Y-89669270D01*
X97205469Y-89667797D01*
X97112915Y-89666058D01*
X97039482Y-89664099D01*
X96987948Y-89661968D01*
X96961093Y-89659709D01*
X96958342Y-89659047D01*
X96929527Y-89640807D01*
X96897378Y-89612122D01*
X96894772Y-89609366D01*
X96859455Y-89571370D01*
X96855660Y-88513073D01*
X96855625Y-88503220D01*
X96951279Y-88503220D01*
X96951321Y-88698487D01*
X96951478Y-88867447D01*
X96951791Y-89012043D01*
X96952306Y-89134221D01*
X96953065Y-89235927D01*
X96954112Y-89319105D01*
X96955491Y-89385702D01*
X96957245Y-89437661D01*
X96959418Y-89476929D01*
X96962052Y-89505450D01*
X96965193Y-89525170D01*
X96968883Y-89538034D01*
X96973165Y-89545988D01*
X96974658Y-89547803D01*
X96981212Y-89553627D01*
X96991004Y-89558505D01*
X97006403Y-89562522D01*
X97029777Y-89565761D01*
X97063494Y-89568304D01*
X97109923Y-89570235D01*
X97171431Y-89571637D01*
X97250386Y-89572594D01*
X97349157Y-89573188D01*
X97470112Y-89573504D01*
X97615619Y-89573624D01*
X97709252Y-89573637D01*
X97869272Y-89573608D01*
X98003431Y-89573458D01*
X98114121Y-89573097D01*
X98203736Y-89572431D01*
X98274667Y-89571368D01*
X98329308Y-89569817D01*
X98370050Y-89567683D01*
X98399288Y-89564877D01*
X98419412Y-89561304D01*
X98432816Y-89556874D01*
X98441893Y-89551493D01*
X98448993Y-89545110D01*
X98454426Y-89539170D01*
X98459113Y-89531674D01*
X98463099Y-89520648D01*
X98466432Y-89504114D01*
X98469158Y-89480098D01*
X98471325Y-89446623D01*
X98472978Y-89401713D01*
X98474164Y-89343393D01*
X98474930Y-89269685D01*
X98475323Y-89178615D01*
X98475390Y-89068206D01*
X98475176Y-88936482D01*
X98474729Y-88781467D01*
X98474096Y-88601186D01*
X98473715Y-88498584D01*
X98472970Y-88304525D01*
X98472248Y-88136761D01*
X98471492Y-87993333D01*
X98470641Y-87872283D01*
X98469638Y-87771652D01*
X98468422Y-87689482D01*
X98466936Y-87623814D01*
X98465120Y-87572690D01*
X98462916Y-87534151D01*
X98460264Y-87506238D01*
X98457105Y-87486994D01*
X98453381Y-87474458D01*
X98449033Y-87466674D01*
X98444002Y-87461682D01*
X98442489Y-87460537D01*
X98432133Y-87455874D01*
X98413419Y-87451967D01*
X98384105Y-87448753D01*
X98341954Y-87446171D01*
X98284727Y-87444159D01*
X98210185Y-87442655D01*
X98116088Y-87441598D01*
X98000198Y-87440926D01*
X97860277Y-87440577D01*
X97714570Y-87440489D01*
X97553461Y-87440577D01*
X97418255Y-87440889D01*
X97306600Y-87441496D01*
X97216145Y-87442467D01*
X97144539Y-87443874D01*
X97089431Y-87445787D01*
X97048469Y-87448278D01*
X97019304Y-87451415D01*
X96999583Y-87455271D01*
X96986955Y-87459916D01*
X96982676Y-87462480D01*
X96951279Y-87484472D01*
X96951279Y-88503220D01*
X96855625Y-88503220D01*
X96851865Y-87454775D01*
X96900479Y-87401720D01*
X96949092Y-87348665D01*
X97688017Y-87344760D01*
X97857553Y-87343905D01*
X98001165Y-87343395D01*
X98121179Y-87343407D01*
G37*
%TO.C,R6*%
X95066514Y-83921520D02*
X94116514Y-83921520D01*
X94116514Y-84841520D02*
X94116514Y-83001520D01*
X94116514Y-83001520D02*
X90276514Y-83001520D01*
X90276514Y-84841520D02*
X94116514Y-84841520D01*
X90276514Y-83001520D02*
X90276514Y-84841520D01*
X89326514Y-83921520D02*
X90276514Y-83921520D01*
%TO.C,C1*%
X103424114Y-74926520D02*
X103824114Y-74926520D01*
X103624114Y-74726520D02*
X103624114Y-75126520D01*
X105693915Y-74041520D02*
X105693915Y-75281520D01*
X105693915Y-76961520D02*
X105693915Y-78201520D01*
X105733915Y-74041520D02*
X105733915Y-75281520D01*
X105733915Y-76961520D02*
X105733915Y-78201520D01*
X105773915Y-74042520D02*
X105773915Y-75281520D01*
X105773915Y-76961520D02*
X105773915Y-78200520D01*
X105813915Y-74044520D02*
X105813915Y-75281520D01*
X105813915Y-76961520D02*
X105813915Y-78198520D01*
X105853915Y-74047520D02*
X105853915Y-75281520D01*
X105853915Y-76961520D02*
X105853915Y-78195520D01*
X105893915Y-74050520D02*
X105893915Y-75281520D01*
X105893915Y-76961520D02*
X105893915Y-78192520D01*
X105933915Y-74054520D02*
X105933915Y-75281520D01*
X105933915Y-76961520D02*
X105933915Y-78188520D01*
X105973915Y-74059520D02*
X105973915Y-75281520D01*
X105973915Y-76961520D02*
X105973915Y-78183520D01*
X106013915Y-74065520D02*
X106013915Y-75281520D01*
X106013915Y-76961520D02*
X106013915Y-78177520D01*
X106053915Y-74071520D02*
X106053915Y-75281520D01*
X106053915Y-76961520D02*
X106053915Y-78171520D01*
X106093915Y-74079520D02*
X106093915Y-75281520D01*
X106093915Y-76961520D02*
X106093915Y-78163520D01*
X106133915Y-74087520D02*
X106133915Y-75281520D01*
X106133915Y-76961520D02*
X106133915Y-78155520D01*
X106173915Y-74096520D02*
X106173915Y-75281520D01*
X106173915Y-76961520D02*
X106173915Y-78146520D01*
X106213915Y-74105520D02*
X106213915Y-75281520D01*
X106213915Y-76961520D02*
X106213915Y-78137520D01*
X106253915Y-74116520D02*
X106253915Y-75281520D01*
X106253915Y-76961520D02*
X106253915Y-78126520D01*
X106293915Y-74127520D02*
X106293915Y-75281520D01*
X106293915Y-76961520D02*
X106293915Y-78115520D01*
X106333915Y-74139520D02*
X106333915Y-75281520D01*
X106333915Y-76961520D02*
X106333915Y-78103520D01*
X106373915Y-74153520D02*
X106373915Y-75281520D01*
X106373915Y-76961520D02*
X106373915Y-78089520D01*
X106414915Y-74167520D02*
X106414915Y-75281520D01*
X106414915Y-76961520D02*
X106414915Y-78075520D01*
X106454915Y-74181520D02*
X106454915Y-75281520D01*
X106454915Y-76961520D02*
X106454915Y-78061520D01*
X106494915Y-74197520D02*
X106494915Y-75281520D01*
X106494915Y-76961520D02*
X106494915Y-78045520D01*
X106534915Y-74214520D02*
X106534915Y-75281520D01*
X106534915Y-76961520D02*
X106534915Y-78028520D01*
X106574915Y-74232520D02*
X106574915Y-75281520D01*
X106574915Y-76961520D02*
X106574915Y-78010520D01*
X106614915Y-74251520D02*
X106614915Y-75281520D01*
X106614915Y-76961520D02*
X106614915Y-77991520D01*
X106654915Y-74270520D02*
X106654915Y-75281520D01*
X106654915Y-76961520D02*
X106654915Y-77972520D01*
X106694915Y-74291520D02*
X106694915Y-75281520D01*
X106694915Y-76961520D02*
X106694915Y-77951520D01*
X106734915Y-74313520D02*
X106734915Y-75281520D01*
X106734915Y-76961520D02*
X106734915Y-77929520D01*
X106774915Y-74336520D02*
X106774915Y-75281520D01*
X106774915Y-76961520D02*
X106774915Y-77906520D01*
X106814915Y-74361520D02*
X106814915Y-75281520D01*
X106814915Y-76961520D02*
X106814915Y-77881520D01*
X106854915Y-74386520D02*
X106854915Y-75281520D01*
X106854915Y-76961520D02*
X106854915Y-77856520D01*
X106894915Y-74413520D02*
X106894915Y-75281520D01*
X106894915Y-76961520D02*
X106894915Y-77829520D01*
X106934915Y-74441520D02*
X106934915Y-75281520D01*
X106934915Y-76961520D02*
X106934915Y-77801520D01*
X106974915Y-74471520D02*
X106974915Y-75281520D01*
X106974915Y-76961520D02*
X106974915Y-77771520D01*
X107014915Y-74502520D02*
X107014915Y-75281520D01*
X107014915Y-76961520D02*
X107014915Y-77740520D01*
X107054915Y-74534520D02*
X107054915Y-75281520D01*
X107054915Y-76961520D02*
X107054915Y-77708520D01*
X107094915Y-74569520D02*
X107094915Y-75281520D01*
X107094915Y-76961520D02*
X107094915Y-77673520D01*
X107134915Y-74605520D02*
X107134915Y-75281520D01*
X107134915Y-76961520D02*
X107134915Y-77637520D01*
X107174915Y-74643520D02*
X107174915Y-75281520D01*
X107174915Y-76961520D02*
X107174915Y-77599520D01*
X107214915Y-74683520D02*
X107214915Y-75281520D01*
X107214915Y-76961520D02*
X107214915Y-77559520D01*
X107254915Y-74725520D02*
X107254915Y-75281520D01*
X107254915Y-76961520D02*
X107254915Y-77517520D01*
X107294915Y-74770520D02*
X107294915Y-77472520D01*
X107334915Y-74817520D02*
X107334915Y-77425520D01*
X107374915Y-74867520D02*
X107374915Y-77375520D01*
X107414915Y-74921520D02*
X107414915Y-77321520D01*
X107454915Y-74979520D02*
X107454915Y-77263520D01*
X107494915Y-75041520D02*
X107494915Y-77201520D01*
X107534915Y-75108520D02*
X107534915Y-77134520D01*
X107574915Y-75181520D02*
X107574915Y-77061520D01*
X107614915Y-75262520D02*
X107614915Y-76980520D01*
X107654915Y-75353520D02*
X107654915Y-76889520D01*
X107694915Y-75457520D02*
X107694915Y-76785520D01*
X107734915Y-75584520D02*
X107734915Y-76658520D01*
X107774915Y-75751520D02*
X107774915Y-76491520D01*
X107813915Y-76121520D02*
G75*
G03*
X107813915Y-76121520I-2120000J0D01*
G01*
%TO.C,R3*%
X89296514Y-68621520D02*
X90246514Y-68621520D01*
X90246514Y-67701520D02*
X90246514Y-69541520D01*
X90246514Y-69541520D02*
X94086514Y-69541520D01*
X94086514Y-67701520D02*
X90246514Y-67701520D01*
X94086514Y-69541520D02*
X94086514Y-67701520D01*
X95036514Y-68621520D02*
X94086514Y-68621520D01*
%TO.C,BC546B1*%
X103596514Y-62471520D02*
X107196514Y-62471520D01*
X105396514Y-58021520D02*
G75*
G03*
X103558036Y-62459998I0J-2600000D01*
G01*
X107234992Y-62459998D02*
G75*
G03*
X105396514Y-58021520I-1838478J1838478D01*
G01*
%TO.C,R1*%
X94826514Y-58921520D02*
X93876514Y-58921520D01*
X93876514Y-59841520D02*
X93876514Y-58001520D01*
X93876514Y-58001520D02*
X90036514Y-58001520D01*
X90036514Y-59841520D02*
X93876514Y-59841520D01*
X90036514Y-58001520D02*
X90036514Y-59841520D01*
X89086514Y-58921520D02*
X90036514Y-58921520D01*
%TO.C,R5*%
X95066514Y-78841520D02*
X94116514Y-78841520D01*
X94116514Y-79761520D02*
X94116514Y-77921520D01*
X94116514Y-77921520D02*
X90276514Y-77921520D01*
X90276514Y-79761520D02*
X94116514Y-79761520D01*
X90276514Y-77921520D02*
X90276514Y-79761520D01*
X89326514Y-78841520D02*
X90276514Y-78841520D01*
%TO.C,R4*%
X89396514Y-73721520D02*
X90346514Y-73721520D01*
X90346514Y-72801520D02*
X90346514Y-74641520D01*
X90346514Y-74641520D02*
X94186514Y-74641520D01*
X94186514Y-72801520D02*
X90346514Y-72801520D01*
X94186514Y-74641520D02*
X94186514Y-72801520D01*
X95136514Y-73721520D02*
X94186514Y-73721520D01*
%TO.C,BT1*%
X102261514Y-84551520D02*
X102261514Y-83221520D01*
X103591514Y-84551520D02*
X102261514Y-84551520D01*
X104861514Y-84551520D02*
X107461514Y-84551520D01*
X104861514Y-84551520D02*
X104861514Y-81891520D01*
X107461514Y-84551520D02*
X107461514Y-81891520D01*
X104861514Y-81891520D02*
X107461514Y-81891520D01*
%TO.C,BC546B2*%
X103496514Y-70571520D02*
X107096514Y-70571520D01*
X105296514Y-66121520D02*
G75*
G03*
X103458036Y-70559998I0J-2600000D01*
G01*
X107134992Y-70559998D02*
G75*
G03*
X105296514Y-66121520I-1838478J1838478D01*
G01*
%TO.C,D1*%
X91090000Y-52636000D02*
X91090000Y-52480000D01*
X91090000Y-50320000D02*
X91090000Y-50164000D01*
X87857666Y-52478608D02*
G75*
G03*
X91089999Y-52635515I1672334J1078608D01*
G01*
X88488871Y-52479836D02*
G75*
G03*
X90570960Y-52479999I1041129J1079836D01*
G01*
X90570960Y-50320001D02*
G75*
G03*
X88488871Y-50320164I-1040960J-1079999D01*
G01*
X91089999Y-50164485D02*
G75*
G03*
X87857666Y-50321392I-1559999J-1235515D01*
G01*
%TO.C,D2*%
X104176514Y-49985520D02*
X104176514Y-50141520D01*
X104176514Y-52301520D02*
X104176514Y-52457520D01*
X107408848Y-50142912D02*
G75*
G03*
X104176515Y-49986005I-1672334J-1078608D01*
G01*
X106777643Y-50141684D02*
G75*
G03*
X104695554Y-50141521I-1041129J-1079836D01*
G01*
X104695554Y-52301519D02*
G75*
G03*
X106777643Y-52301356I1040960J1079999D01*
G01*
X104176515Y-52457035D02*
G75*
G03*
X107408848Y-52300128I1559999J1235515D01*
G01*
%TO.C,R2*%
X94926514Y-63821520D02*
X93976514Y-63821520D01*
X93976514Y-64741520D02*
X93976514Y-62901520D01*
X93976514Y-62901520D02*
X90136514Y-62901520D01*
X90136514Y-64741520D02*
X93976514Y-64741520D01*
X90136514Y-62901520D02*
X90136514Y-64741520D01*
X89186514Y-63821520D02*
X90136514Y-63821520D01*
%TD*%
M02*
