%TF.GenerationSoftware,KiCad,Pcbnew,7.0.6*%
%TF.CreationDate,2023-09-30T16:03:38+02:00*%
%TF.ProjectId,bc546b-astable-multivibrator,62633534-3662-42d6-9173-7461626c652d,0*%
%TF.SameCoordinates,Original*%
%TF.FileFunction,Drillmap*%
%TF.FilePolarity,Positive*%
%FSLAX45Y45*%
G04 Gerber Fmt 4.5, Leading zero omitted, Abs format (unit mm)*
G04 Created by KiCad (PCBNEW 7.0.6) date 2023-09-30 16:03:38*
%MOMM*%
%LPD*%
G01*
G04 APERTURE LIST*
%ADD10C,0.100000*%
%ADD11C,0.200000*%
%ADD12C,0.040000*%
%ADD13C,0.060000*%
%ADD14C,0.070000*%
%ADD15C,0.075000*%
%ADD16C,0.090000*%
G04 APERTURE END LIST*
D10*
X8624498Y-5378804D02*
G75*
G03*
X8370757Y-5069534I-413738J-80726D01*
G01*
X8310016Y-8657558D02*
G75*
G03*
X8617054Y-8405349I-80746J411298D01*
G01*
X10734498Y-9308804D02*
G75*
G03*
X10480757Y-8999534I-413738J-80726D01*
G01*
X10734499Y-9308804D02*
G75*
G03*
X11283337Y-8643354I512152J136652D01*
G01*
X8822907Y-4382883D02*
G75*
G03*
X9076651Y-4692152I413743J80733D01*
G01*
X8617054Y-8405349D02*
X8624499Y-5378804D01*
X10943475Y-8419002D02*
G75*
G03*
X11283337Y-8643354I256525J19002D01*
G01*
X9076651Y-4692152D02*
X10430000Y-4690000D01*
X11246651Y-5036749D02*
G75*
G03*
X10739270Y-4436258I-1J514599D01*
G01*
X10480757Y-8999534D02*
X9123303Y-9004304D01*
X8822675Y-4382943D02*
G75*
G03*
X8370757Y-5069534I-536024J-139209D01*
G01*
X9123304Y-9004309D02*
G75*
G03*
X8814033Y-9258046I80726J-413741D01*
G01*
X10430000Y-4690001D02*
G75*
G03*
X10739270Y-4436258I-80730J413741D01*
G01*
X11246652Y-5036758D02*
G75*
G03*
X10928445Y-5289856I67378J-411292D01*
G01*
X10928445Y-5289856D02*
X10943475Y-8419002D01*
X8310016Y-8657558D02*
G75*
G03*
X8814033Y-9258046I-3366J-514592D01*
G01*
D11*
D12*
X8690000Y-7590000D02*
X8730000Y-7630000D01*
X8730000Y-7590000D02*
X8690000Y-7630000D01*
X8760000Y-9020000D02*
X8800000Y-9060000D01*
X8800000Y-9020000D02*
X8760000Y-9060000D01*
X8860000Y-5650000D02*
X8900000Y-5690000D01*
X8900000Y-5650000D02*
X8860000Y-5690000D01*
X8860000Y-8090000D02*
X8900000Y-8130000D01*
X8900000Y-8090000D02*
X8860000Y-8130000D01*
X9330000Y-4990000D02*
X9370000Y-5030000D01*
X9370000Y-4990000D02*
X9330000Y-5030000D01*
X9370000Y-6590000D02*
X9410000Y-6630000D01*
X9410000Y-6590000D02*
X9370000Y-6630000D01*
X9390000Y-6120000D02*
X9430000Y-6160000D01*
X9430000Y-6120000D02*
X9390000Y-6160000D01*
X9420000Y-7080000D02*
X9460000Y-7120000D01*
X9460000Y-7080000D02*
X9420000Y-7120000D01*
X9480000Y-7630000D02*
X9520000Y-7670000D01*
X9520000Y-7630000D02*
X9480000Y-7670000D01*
X9720000Y-6590000D02*
X9760000Y-6630000D01*
X9760000Y-6590000D02*
X9720000Y-6630000D01*
X9770000Y-7980000D02*
X9810000Y-8020000D01*
X9810000Y-7980000D02*
X9770000Y-8020000D01*
X9920000Y-5930000D02*
X9960000Y-5970000D01*
X9960000Y-5930000D02*
X9920000Y-5970000D01*
X9950000Y-6840000D02*
X9990000Y-6880000D01*
X9990000Y-6840000D02*
X9950000Y-6880000D01*
X9990000Y-5470000D02*
X10030000Y-5510000D01*
X10030000Y-5470000D02*
X9990000Y-5510000D01*
X10000000Y-7070000D02*
X10040000Y-7110000D01*
X10040000Y-7070000D02*
X10000000Y-7110000D01*
X10120000Y-6210000D02*
X10160000Y-6250000D01*
X10160000Y-6210000D02*
X10120000Y-6250000D01*
X10160000Y-5020000D02*
X10200000Y-5060000D01*
X10200000Y-5020000D02*
X10160000Y-5060000D01*
X10230000Y-7220000D02*
X10270000Y-7260000D01*
X10270000Y-7220000D02*
X10230000Y-7260000D01*
X10370000Y-7370000D02*
X10410000Y-7410000D01*
X10410000Y-7370000D02*
X10370000Y-7410000D01*
X10620000Y-8050000D02*
X10660000Y-8090000D01*
X10660000Y-8050000D02*
X10620000Y-8090000D01*
X10690000Y-9010000D02*
X10730000Y-9050000D01*
X10730000Y-9010000D02*
X10690000Y-9050000D01*
X10740000Y-7180000D02*
X10780000Y-7220000D01*
X10780000Y-7180000D02*
X10740000Y-7220000D01*
D13*
X9974392Y-7622152D02*
G75*
G03*
X9974392Y-7622152I-30000J0D01*
G01*
X10124392Y-7622152D02*
G75*
G03*
X10124392Y-7622152I-30000J0D01*
G01*
X10524392Y-7612152D02*
G75*
G03*
X10524392Y-7612152I-30000J0D01*
G01*
X10674392Y-7612152D02*
G75*
G03*
X10674392Y-7612152I-30000J0D01*
G01*
D14*
X8814651Y-5857152D02*
X8814651Y-5927152D01*
X8779651Y-5892152D02*
X8849651Y-5892152D01*
X8824651Y-6347152D02*
X8824651Y-6417152D01*
X8789651Y-6382152D02*
X8859651Y-6382152D01*
X8835651Y-6827152D02*
X8835651Y-6897152D01*
X8800651Y-6862152D02*
X8870651Y-6862152D01*
X8838651Y-7849152D02*
X8838651Y-7919152D01*
X8803651Y-7884152D02*
X8873651Y-7884152D01*
X8838651Y-8357152D02*
X8838651Y-8427152D01*
X8803651Y-8392152D02*
X8873651Y-8392152D01*
X8845651Y-7337152D02*
X8845651Y-7407152D01*
X8810651Y-7372152D02*
X8880651Y-7372152D01*
X9576651Y-5857152D02*
X9576651Y-5927152D01*
X9541651Y-5892152D02*
X9611651Y-5892152D01*
X9586651Y-6347152D02*
X9586651Y-6417152D01*
X9551651Y-6382152D02*
X9621651Y-6382152D01*
X9597651Y-6827152D02*
X9597651Y-6897152D01*
X9562651Y-6862152D02*
X9632651Y-6862152D01*
X9600651Y-7849152D02*
X9600651Y-7919152D01*
X9565651Y-7884152D02*
X9635651Y-7884152D01*
X9600651Y-8357152D02*
X9600651Y-8427152D01*
X9565651Y-8392152D02*
X9635651Y-8392152D01*
X9607651Y-7337152D02*
X9607651Y-7407152D01*
X9572651Y-7372152D02*
X9642651Y-7372152D01*
D15*
X10429168Y-6898669D02*
X10429168Y-6845635D01*
X10376135Y-6845635D01*
X10376135Y-6898669D01*
X10429168Y-6898669D01*
X10439168Y-6088669D02*
X10439168Y-6035635D01*
X10386135Y-6035635D01*
X10386135Y-6088669D01*
X10439168Y-6088669D01*
X10556168Y-6771669D02*
X10556168Y-6718635D01*
X10503135Y-6718635D01*
X10503135Y-6771669D01*
X10556168Y-6771669D01*
X10566168Y-5961669D02*
X10566168Y-5908635D01*
X10513135Y-5908635D01*
X10513135Y-5961669D01*
X10566168Y-5961669D01*
X10683168Y-6898669D02*
X10683168Y-6845635D01*
X10630135Y-6845635D01*
X10630135Y-6898669D01*
X10683168Y-6898669D01*
X10693168Y-6088669D02*
X10693168Y-6035635D01*
X10640135Y-6035635D01*
X10640135Y-6088669D01*
X10693168Y-6088669D01*
D16*
X8826000Y-5185000D02*
X8871000Y-5140000D01*
X8826000Y-5095000D01*
X8781000Y-5140000D01*
X8826000Y-5185000D01*
X9080000Y-5185000D02*
X9125000Y-5140000D01*
X9080000Y-5095000D01*
X9035000Y-5140000D01*
X9080000Y-5185000D01*
X10446651Y-5167152D02*
X10491651Y-5122152D01*
X10446651Y-5077152D01*
X10401651Y-5122152D01*
X10446651Y-5167152D01*
X10700651Y-5167152D02*
X10745651Y-5122152D01*
X10700651Y-5077152D01*
X10655651Y-5122152D01*
X10700651Y-5167152D01*
D10*
X10309151Y-8272152D02*
X10409151Y-8372152D01*
X10409151Y-8272152D02*
X10309151Y-8372152D01*
X10409151Y-8322152D02*
G75*
G03*
X10409151Y-8322152I-50000J0D01*
G01*
X10563151Y-8272152D02*
X10663151Y-8372152D01*
X10663151Y-8272152D02*
X10563151Y-8372152D01*
X10663151Y-8322152D02*
G75*
G03*
X10663151Y-8322152I-50000J0D01*
G01*
D11*
X7988622Y-10018705D02*
X7988622Y-9818705D01*
X7988622Y-9818705D02*
X8036241Y-9818705D01*
X8036241Y-9818705D02*
X8064813Y-9828229D01*
X8064813Y-9828229D02*
X8083860Y-9847277D01*
X8083860Y-9847277D02*
X8093384Y-9866324D01*
X8093384Y-9866324D02*
X8102908Y-9904419D01*
X8102908Y-9904419D02*
X8102908Y-9932991D01*
X8102908Y-9932991D02*
X8093384Y-9971086D01*
X8093384Y-9971086D02*
X8083860Y-9990134D01*
X8083860Y-9990134D02*
X8064813Y-10009181D01*
X8064813Y-10009181D02*
X8036241Y-10018705D01*
X8036241Y-10018705D02*
X7988622Y-10018705D01*
X8188622Y-10018705D02*
X8188622Y-9885372D01*
X8188622Y-9923467D02*
X8198146Y-9904419D01*
X8198146Y-9904419D02*
X8207670Y-9894896D01*
X8207670Y-9894896D02*
X8226717Y-9885372D01*
X8226717Y-9885372D02*
X8245765Y-9885372D01*
X8312432Y-10018705D02*
X8312432Y-9885372D01*
X8312432Y-9818705D02*
X8302908Y-9828229D01*
X8302908Y-9828229D02*
X8312432Y-9837753D01*
X8312432Y-9837753D02*
X8321955Y-9828229D01*
X8321955Y-9828229D02*
X8312432Y-9818705D01*
X8312432Y-9818705D02*
X8312432Y-9837753D01*
X8436241Y-10018705D02*
X8417194Y-10009181D01*
X8417194Y-10009181D02*
X8407670Y-9990134D01*
X8407670Y-9990134D02*
X8407670Y-9818705D01*
X8541003Y-10018705D02*
X8521955Y-10009181D01*
X8521955Y-10009181D02*
X8512432Y-9990134D01*
X8512432Y-9990134D02*
X8512432Y-9818705D01*
X8769575Y-10018705D02*
X8769575Y-9818705D01*
X8769575Y-9818705D02*
X8836241Y-9961562D01*
X8836241Y-9961562D02*
X8902908Y-9818705D01*
X8902908Y-9818705D02*
X8902908Y-10018705D01*
X9083860Y-10018705D02*
X9083860Y-9913943D01*
X9083860Y-9913943D02*
X9074336Y-9894896D01*
X9074336Y-9894896D02*
X9055289Y-9885372D01*
X9055289Y-9885372D02*
X9017194Y-9885372D01*
X9017194Y-9885372D02*
X8998146Y-9894896D01*
X9083860Y-10009181D02*
X9064813Y-10018705D01*
X9064813Y-10018705D02*
X9017194Y-10018705D01*
X9017194Y-10018705D02*
X8998146Y-10009181D01*
X8998146Y-10009181D02*
X8988622Y-9990134D01*
X8988622Y-9990134D02*
X8988622Y-9971086D01*
X8988622Y-9971086D02*
X8998146Y-9952038D01*
X8998146Y-9952038D02*
X9017194Y-9942515D01*
X9017194Y-9942515D02*
X9064813Y-9942515D01*
X9064813Y-9942515D02*
X9083860Y-9932991D01*
X9179098Y-9885372D02*
X9179098Y-10085372D01*
X9179098Y-9894896D02*
X9198146Y-9885372D01*
X9198146Y-9885372D02*
X9236241Y-9885372D01*
X9236241Y-9885372D02*
X9255289Y-9894896D01*
X9255289Y-9894896D02*
X9264813Y-9904419D01*
X9264813Y-9904419D02*
X9274336Y-9923467D01*
X9274336Y-9923467D02*
X9274336Y-9980610D01*
X9274336Y-9980610D02*
X9264813Y-9999657D01*
X9264813Y-9999657D02*
X9255289Y-10009181D01*
X9255289Y-10009181D02*
X9236241Y-10018705D01*
X9236241Y-10018705D02*
X9198146Y-10018705D01*
X9198146Y-10018705D02*
X9179098Y-10009181D01*
X9360051Y-9999657D02*
X9369575Y-10009181D01*
X9369575Y-10009181D02*
X9360051Y-10018705D01*
X9360051Y-10018705D02*
X9350527Y-10009181D01*
X9350527Y-10009181D02*
X9360051Y-9999657D01*
X9360051Y-9999657D02*
X9360051Y-10018705D01*
X9360051Y-9894896D02*
X9369575Y-9904419D01*
X9369575Y-9904419D02*
X9360051Y-9913943D01*
X9360051Y-9913943D02*
X9350527Y-9904419D01*
X9350527Y-9904419D02*
X9360051Y-9894896D01*
X9360051Y-9894896D02*
X9360051Y-9913943D01*
D12*
X7687845Y-10327221D02*
X7727845Y-10367221D01*
X7727845Y-10327221D02*
X7687845Y-10367221D01*
D11*
X8026717Y-10238705D02*
X8045765Y-10238705D01*
X8045765Y-10238705D02*
X8064813Y-10248229D01*
X8064813Y-10248229D02*
X8074336Y-10257753D01*
X8074336Y-10257753D02*
X8083860Y-10276800D01*
X8083860Y-10276800D02*
X8093384Y-10314896D01*
X8093384Y-10314896D02*
X8093384Y-10362515D01*
X8093384Y-10362515D02*
X8083860Y-10400610D01*
X8083860Y-10400610D02*
X8074336Y-10419657D01*
X8074336Y-10419657D02*
X8064813Y-10429181D01*
X8064813Y-10429181D02*
X8045765Y-10438705D01*
X8045765Y-10438705D02*
X8026717Y-10438705D01*
X8026717Y-10438705D02*
X8007670Y-10429181D01*
X8007670Y-10429181D02*
X7998146Y-10419657D01*
X7998146Y-10419657D02*
X7988622Y-10400610D01*
X7988622Y-10400610D02*
X7979098Y-10362515D01*
X7979098Y-10362515D02*
X7979098Y-10314896D01*
X7979098Y-10314896D02*
X7988622Y-10276800D01*
X7988622Y-10276800D02*
X7998146Y-10257753D01*
X7998146Y-10257753D02*
X8007670Y-10248229D01*
X8007670Y-10248229D02*
X8026717Y-10238705D01*
X8179098Y-10419657D02*
X8188622Y-10429181D01*
X8188622Y-10429181D02*
X8179098Y-10438705D01*
X8179098Y-10438705D02*
X8169574Y-10429181D01*
X8169574Y-10429181D02*
X8179098Y-10419657D01*
X8179098Y-10419657D02*
X8179098Y-10438705D01*
X8360051Y-10305372D02*
X8360051Y-10438705D01*
X8312432Y-10229181D02*
X8264813Y-10372038D01*
X8264813Y-10372038D02*
X8388622Y-10372038D01*
X8502908Y-10238705D02*
X8521956Y-10238705D01*
X8521956Y-10238705D02*
X8541003Y-10248229D01*
X8541003Y-10248229D02*
X8550527Y-10257753D01*
X8550527Y-10257753D02*
X8560051Y-10276800D01*
X8560051Y-10276800D02*
X8569575Y-10314896D01*
X8569575Y-10314896D02*
X8569575Y-10362515D01*
X8569575Y-10362515D02*
X8560051Y-10400610D01*
X8560051Y-10400610D02*
X8550527Y-10419657D01*
X8550527Y-10419657D02*
X8541003Y-10429181D01*
X8541003Y-10429181D02*
X8521956Y-10438705D01*
X8521956Y-10438705D02*
X8502908Y-10438705D01*
X8502908Y-10438705D02*
X8483860Y-10429181D01*
X8483860Y-10429181D02*
X8474336Y-10419657D01*
X8474336Y-10419657D02*
X8464813Y-10400610D01*
X8464813Y-10400610D02*
X8455289Y-10362515D01*
X8455289Y-10362515D02*
X8455289Y-10314896D01*
X8455289Y-10314896D02*
X8464813Y-10276800D01*
X8464813Y-10276800D02*
X8474336Y-10257753D01*
X8474336Y-10257753D02*
X8483860Y-10248229D01*
X8483860Y-10248229D02*
X8502908Y-10238705D01*
X8693384Y-10238705D02*
X8712432Y-10238705D01*
X8712432Y-10238705D02*
X8731479Y-10248229D01*
X8731479Y-10248229D02*
X8741003Y-10257753D01*
X8741003Y-10257753D02*
X8750527Y-10276800D01*
X8750527Y-10276800D02*
X8760051Y-10314896D01*
X8760051Y-10314896D02*
X8760051Y-10362515D01*
X8760051Y-10362515D02*
X8750527Y-10400610D01*
X8750527Y-10400610D02*
X8741003Y-10419657D01*
X8741003Y-10419657D02*
X8731479Y-10429181D01*
X8731479Y-10429181D02*
X8712432Y-10438705D01*
X8712432Y-10438705D02*
X8693384Y-10438705D01*
X8693384Y-10438705D02*
X8674336Y-10429181D01*
X8674336Y-10429181D02*
X8664813Y-10419657D01*
X8664813Y-10419657D02*
X8655289Y-10400610D01*
X8655289Y-10400610D02*
X8645765Y-10362515D01*
X8645765Y-10362515D02*
X8645765Y-10314896D01*
X8645765Y-10314896D02*
X8655289Y-10276800D01*
X8655289Y-10276800D02*
X8664813Y-10257753D01*
X8664813Y-10257753D02*
X8674336Y-10248229D01*
X8674336Y-10248229D02*
X8693384Y-10238705D01*
X8845765Y-10438705D02*
X8845765Y-10305372D01*
X8845765Y-10324419D02*
X8855289Y-10314896D01*
X8855289Y-10314896D02*
X8874336Y-10305372D01*
X8874336Y-10305372D02*
X8902908Y-10305372D01*
X8902908Y-10305372D02*
X8921956Y-10314896D01*
X8921956Y-10314896D02*
X8931479Y-10333943D01*
X8931479Y-10333943D02*
X8931479Y-10438705D01*
X8931479Y-10333943D02*
X8941003Y-10314896D01*
X8941003Y-10314896D02*
X8960051Y-10305372D01*
X8960051Y-10305372D02*
X8988622Y-10305372D01*
X8988622Y-10305372D02*
X9007670Y-10314896D01*
X9007670Y-10314896D02*
X9017194Y-10333943D01*
X9017194Y-10333943D02*
X9017194Y-10438705D01*
X9112432Y-10438705D02*
X9112432Y-10305372D01*
X9112432Y-10324419D02*
X9121956Y-10314896D01*
X9121956Y-10314896D02*
X9141003Y-10305372D01*
X9141003Y-10305372D02*
X9169575Y-10305372D01*
X9169575Y-10305372D02*
X9188622Y-10314896D01*
X9188622Y-10314896D02*
X9198146Y-10333943D01*
X9198146Y-10333943D02*
X9198146Y-10438705D01*
X9198146Y-10333943D02*
X9207670Y-10314896D01*
X9207670Y-10314896D02*
X9226717Y-10305372D01*
X9226717Y-10305372D02*
X9255289Y-10305372D01*
X9255289Y-10305372D02*
X9274337Y-10314896D01*
X9274337Y-10314896D02*
X9283860Y-10333943D01*
X9283860Y-10333943D02*
X9283860Y-10438705D01*
X9674337Y-10229181D02*
X9502908Y-10486324D01*
X9931479Y-10238705D02*
X9950527Y-10238705D01*
X9950527Y-10238705D02*
X9969575Y-10248229D01*
X9969575Y-10248229D02*
X9979099Y-10257753D01*
X9979099Y-10257753D02*
X9988622Y-10276800D01*
X9988622Y-10276800D02*
X9998146Y-10314896D01*
X9998146Y-10314896D02*
X9998146Y-10362515D01*
X9998146Y-10362515D02*
X9988622Y-10400610D01*
X9988622Y-10400610D02*
X9979099Y-10419657D01*
X9979099Y-10419657D02*
X9969575Y-10429181D01*
X9969575Y-10429181D02*
X9950527Y-10438705D01*
X9950527Y-10438705D02*
X9931479Y-10438705D01*
X9931479Y-10438705D02*
X9912432Y-10429181D01*
X9912432Y-10429181D02*
X9902908Y-10419657D01*
X9902908Y-10419657D02*
X9893384Y-10400610D01*
X9893384Y-10400610D02*
X9883860Y-10362515D01*
X9883860Y-10362515D02*
X9883860Y-10314896D01*
X9883860Y-10314896D02*
X9893384Y-10276800D01*
X9893384Y-10276800D02*
X9902908Y-10257753D01*
X9902908Y-10257753D02*
X9912432Y-10248229D01*
X9912432Y-10248229D02*
X9931479Y-10238705D01*
X10083860Y-10419657D02*
X10093384Y-10429181D01*
X10093384Y-10429181D02*
X10083860Y-10438705D01*
X10083860Y-10438705D02*
X10074337Y-10429181D01*
X10074337Y-10429181D02*
X10083860Y-10419657D01*
X10083860Y-10419657D02*
X10083860Y-10438705D01*
X10217194Y-10238705D02*
X10236241Y-10238705D01*
X10236241Y-10238705D02*
X10255289Y-10248229D01*
X10255289Y-10248229D02*
X10264813Y-10257753D01*
X10264813Y-10257753D02*
X10274337Y-10276800D01*
X10274337Y-10276800D02*
X10283860Y-10314896D01*
X10283860Y-10314896D02*
X10283860Y-10362515D01*
X10283860Y-10362515D02*
X10274337Y-10400610D01*
X10274337Y-10400610D02*
X10264813Y-10419657D01*
X10264813Y-10419657D02*
X10255289Y-10429181D01*
X10255289Y-10429181D02*
X10236241Y-10438705D01*
X10236241Y-10438705D02*
X10217194Y-10438705D01*
X10217194Y-10438705D02*
X10198146Y-10429181D01*
X10198146Y-10429181D02*
X10188622Y-10419657D01*
X10188622Y-10419657D02*
X10179099Y-10400610D01*
X10179099Y-10400610D02*
X10169575Y-10362515D01*
X10169575Y-10362515D02*
X10169575Y-10314896D01*
X10169575Y-10314896D02*
X10179099Y-10276800D01*
X10179099Y-10276800D02*
X10188622Y-10257753D01*
X10188622Y-10257753D02*
X10198146Y-10248229D01*
X10198146Y-10248229D02*
X10217194Y-10238705D01*
X10474337Y-10438705D02*
X10360051Y-10438705D01*
X10417194Y-10438705D02*
X10417194Y-10238705D01*
X10417194Y-10238705D02*
X10398146Y-10267277D01*
X10398146Y-10267277D02*
X10379099Y-10286324D01*
X10379099Y-10286324D02*
X10360051Y-10295848D01*
X10655289Y-10238705D02*
X10560051Y-10238705D01*
X10560051Y-10238705D02*
X10550527Y-10333943D01*
X10550527Y-10333943D02*
X10560051Y-10324419D01*
X10560051Y-10324419D02*
X10579099Y-10314896D01*
X10579099Y-10314896D02*
X10626718Y-10314896D01*
X10626718Y-10314896D02*
X10645765Y-10324419D01*
X10645765Y-10324419D02*
X10655289Y-10333943D01*
X10655289Y-10333943D02*
X10664813Y-10352991D01*
X10664813Y-10352991D02*
X10664813Y-10400610D01*
X10664813Y-10400610D02*
X10655289Y-10419657D01*
X10655289Y-10419657D02*
X10645765Y-10429181D01*
X10645765Y-10429181D02*
X10626718Y-10438705D01*
X10626718Y-10438705D02*
X10579099Y-10438705D01*
X10579099Y-10438705D02*
X10560051Y-10429181D01*
X10560051Y-10429181D02*
X10550527Y-10419657D01*
X10731480Y-10238705D02*
X10864813Y-10238705D01*
X10864813Y-10238705D02*
X10779099Y-10438705D01*
X10931480Y-10238705D02*
X10931480Y-10276800D01*
X11007670Y-10238705D02*
X11007670Y-10276800D01*
X11302908Y-10514896D02*
X11293384Y-10505372D01*
X11293384Y-10505372D02*
X11274337Y-10476800D01*
X11274337Y-10476800D02*
X11264813Y-10457753D01*
X11264813Y-10457753D02*
X11255289Y-10429181D01*
X11255289Y-10429181D02*
X11245765Y-10381562D01*
X11245765Y-10381562D02*
X11245765Y-10343467D01*
X11245765Y-10343467D02*
X11255289Y-10295848D01*
X11255289Y-10295848D02*
X11264813Y-10267277D01*
X11264813Y-10267277D02*
X11274337Y-10248229D01*
X11274337Y-10248229D02*
X11293384Y-10219657D01*
X11293384Y-10219657D02*
X11302908Y-10210134D01*
X11369575Y-10257753D02*
X11379099Y-10248229D01*
X11379099Y-10248229D02*
X11398146Y-10238705D01*
X11398146Y-10238705D02*
X11445765Y-10238705D01*
X11445765Y-10238705D02*
X11464813Y-10248229D01*
X11464813Y-10248229D02*
X11474337Y-10257753D01*
X11474337Y-10257753D02*
X11483860Y-10276800D01*
X11483860Y-10276800D02*
X11483860Y-10295848D01*
X11483860Y-10295848D02*
X11474337Y-10324419D01*
X11474337Y-10324419D02*
X11360051Y-10438705D01*
X11360051Y-10438705D02*
X11483860Y-10438705D01*
X11560051Y-10257753D02*
X11569575Y-10248229D01*
X11569575Y-10248229D02*
X11588622Y-10238705D01*
X11588622Y-10238705D02*
X11636241Y-10238705D01*
X11636241Y-10238705D02*
X11655289Y-10248229D01*
X11655289Y-10248229D02*
X11664813Y-10257753D01*
X11664813Y-10257753D02*
X11674337Y-10276800D01*
X11674337Y-10276800D02*
X11674337Y-10295848D01*
X11674337Y-10295848D02*
X11664813Y-10324419D01*
X11664813Y-10324419D02*
X11550527Y-10438705D01*
X11550527Y-10438705D02*
X11674337Y-10438705D01*
X11912432Y-10438705D02*
X11912432Y-10238705D01*
X11998146Y-10438705D02*
X11998146Y-10333943D01*
X11998146Y-10333943D02*
X11988622Y-10314896D01*
X11988622Y-10314896D02*
X11969575Y-10305372D01*
X11969575Y-10305372D02*
X11941003Y-10305372D01*
X11941003Y-10305372D02*
X11921956Y-10314896D01*
X11921956Y-10314896D02*
X11912432Y-10324419D01*
X12121956Y-10438705D02*
X12102908Y-10429181D01*
X12102908Y-10429181D02*
X12093384Y-10419657D01*
X12093384Y-10419657D02*
X12083861Y-10400610D01*
X12083861Y-10400610D02*
X12083861Y-10343467D01*
X12083861Y-10343467D02*
X12093384Y-10324419D01*
X12093384Y-10324419D02*
X12102908Y-10314896D01*
X12102908Y-10314896D02*
X12121956Y-10305372D01*
X12121956Y-10305372D02*
X12150527Y-10305372D01*
X12150527Y-10305372D02*
X12169575Y-10314896D01*
X12169575Y-10314896D02*
X12179099Y-10324419D01*
X12179099Y-10324419D02*
X12188622Y-10343467D01*
X12188622Y-10343467D02*
X12188622Y-10400610D01*
X12188622Y-10400610D02*
X12179099Y-10419657D01*
X12179099Y-10419657D02*
X12169575Y-10429181D01*
X12169575Y-10429181D02*
X12150527Y-10438705D01*
X12150527Y-10438705D02*
X12121956Y-10438705D01*
X12302908Y-10438705D02*
X12283861Y-10429181D01*
X12283861Y-10429181D02*
X12274337Y-10410134D01*
X12274337Y-10410134D02*
X12274337Y-10238705D01*
X12455289Y-10429181D02*
X12436242Y-10438705D01*
X12436242Y-10438705D02*
X12398146Y-10438705D01*
X12398146Y-10438705D02*
X12379099Y-10429181D01*
X12379099Y-10429181D02*
X12369575Y-10410134D01*
X12369575Y-10410134D02*
X12369575Y-10333943D01*
X12369575Y-10333943D02*
X12379099Y-10314896D01*
X12379099Y-10314896D02*
X12398146Y-10305372D01*
X12398146Y-10305372D02*
X12436242Y-10305372D01*
X12436242Y-10305372D02*
X12455289Y-10314896D01*
X12455289Y-10314896D02*
X12464813Y-10333943D01*
X12464813Y-10333943D02*
X12464813Y-10352991D01*
X12464813Y-10352991D02*
X12369575Y-10372038D01*
X12541003Y-10429181D02*
X12560051Y-10438705D01*
X12560051Y-10438705D02*
X12598146Y-10438705D01*
X12598146Y-10438705D02*
X12617194Y-10429181D01*
X12617194Y-10429181D02*
X12626718Y-10410134D01*
X12626718Y-10410134D02*
X12626718Y-10400610D01*
X12626718Y-10400610D02*
X12617194Y-10381562D01*
X12617194Y-10381562D02*
X12598146Y-10372038D01*
X12598146Y-10372038D02*
X12569575Y-10372038D01*
X12569575Y-10372038D02*
X12550527Y-10362515D01*
X12550527Y-10362515D02*
X12541003Y-10343467D01*
X12541003Y-10343467D02*
X12541003Y-10333943D01*
X12541003Y-10333943D02*
X12550527Y-10314896D01*
X12550527Y-10314896D02*
X12569575Y-10305372D01*
X12569575Y-10305372D02*
X12598146Y-10305372D01*
X12598146Y-10305372D02*
X12617194Y-10314896D01*
X12693384Y-10514896D02*
X12702908Y-10505372D01*
X12702908Y-10505372D02*
X12721956Y-10476800D01*
X12721956Y-10476800D02*
X12731480Y-10457753D01*
X12731480Y-10457753D02*
X12741003Y-10429181D01*
X12741003Y-10429181D02*
X12750527Y-10381562D01*
X12750527Y-10381562D02*
X12750527Y-10343467D01*
X12750527Y-10343467D02*
X12741003Y-10295848D01*
X12741003Y-10295848D02*
X12731480Y-10267277D01*
X12731480Y-10267277D02*
X12721956Y-10248229D01*
X12721956Y-10248229D02*
X12702908Y-10219657D01*
X12702908Y-10219657D02*
X12693384Y-10210134D01*
D13*
X7727845Y-10611221D02*
G75*
G03*
X7727845Y-10611221I-30000J0D01*
G01*
D11*
X8026717Y-10502705D02*
X8045765Y-10502705D01*
X8045765Y-10502705D02*
X8064813Y-10512229D01*
X8064813Y-10512229D02*
X8074336Y-10521753D01*
X8074336Y-10521753D02*
X8083860Y-10540800D01*
X8083860Y-10540800D02*
X8093384Y-10578896D01*
X8093384Y-10578896D02*
X8093384Y-10626515D01*
X8093384Y-10626515D02*
X8083860Y-10664610D01*
X8083860Y-10664610D02*
X8074336Y-10683657D01*
X8074336Y-10683657D02*
X8064813Y-10693181D01*
X8064813Y-10693181D02*
X8045765Y-10702705D01*
X8045765Y-10702705D02*
X8026717Y-10702705D01*
X8026717Y-10702705D02*
X8007670Y-10693181D01*
X8007670Y-10693181D02*
X7998146Y-10683657D01*
X7998146Y-10683657D02*
X7988622Y-10664610D01*
X7988622Y-10664610D02*
X7979098Y-10626515D01*
X7979098Y-10626515D02*
X7979098Y-10578896D01*
X7979098Y-10578896D02*
X7988622Y-10540800D01*
X7988622Y-10540800D02*
X7998146Y-10521753D01*
X7998146Y-10521753D02*
X8007670Y-10512229D01*
X8007670Y-10512229D02*
X8026717Y-10502705D01*
X8179098Y-10683657D02*
X8188622Y-10693181D01*
X8188622Y-10693181D02*
X8179098Y-10702705D01*
X8179098Y-10702705D02*
X8169574Y-10693181D01*
X8169574Y-10693181D02*
X8179098Y-10683657D01*
X8179098Y-10683657D02*
X8179098Y-10702705D01*
X8360051Y-10502705D02*
X8321955Y-10502705D01*
X8321955Y-10502705D02*
X8302908Y-10512229D01*
X8302908Y-10512229D02*
X8293384Y-10521753D01*
X8293384Y-10521753D02*
X8274336Y-10550324D01*
X8274336Y-10550324D02*
X8264813Y-10588419D01*
X8264813Y-10588419D02*
X8264813Y-10664610D01*
X8264813Y-10664610D02*
X8274336Y-10683657D01*
X8274336Y-10683657D02*
X8283860Y-10693181D01*
X8283860Y-10693181D02*
X8302908Y-10702705D01*
X8302908Y-10702705D02*
X8341003Y-10702705D01*
X8341003Y-10702705D02*
X8360051Y-10693181D01*
X8360051Y-10693181D02*
X8369574Y-10683657D01*
X8369574Y-10683657D02*
X8379098Y-10664610D01*
X8379098Y-10664610D02*
X8379098Y-10616991D01*
X8379098Y-10616991D02*
X8369574Y-10597943D01*
X8369574Y-10597943D02*
X8360051Y-10588419D01*
X8360051Y-10588419D02*
X8341003Y-10578896D01*
X8341003Y-10578896D02*
X8302908Y-10578896D01*
X8302908Y-10578896D02*
X8283860Y-10588419D01*
X8283860Y-10588419D02*
X8274336Y-10597943D01*
X8274336Y-10597943D02*
X8264813Y-10616991D01*
X8502908Y-10502705D02*
X8521956Y-10502705D01*
X8521956Y-10502705D02*
X8541003Y-10512229D01*
X8541003Y-10512229D02*
X8550527Y-10521753D01*
X8550527Y-10521753D02*
X8560051Y-10540800D01*
X8560051Y-10540800D02*
X8569575Y-10578896D01*
X8569575Y-10578896D02*
X8569575Y-10626515D01*
X8569575Y-10626515D02*
X8560051Y-10664610D01*
X8560051Y-10664610D02*
X8550527Y-10683657D01*
X8550527Y-10683657D02*
X8541003Y-10693181D01*
X8541003Y-10693181D02*
X8521956Y-10702705D01*
X8521956Y-10702705D02*
X8502908Y-10702705D01*
X8502908Y-10702705D02*
X8483860Y-10693181D01*
X8483860Y-10693181D02*
X8474336Y-10683657D01*
X8474336Y-10683657D02*
X8464813Y-10664610D01*
X8464813Y-10664610D02*
X8455289Y-10626515D01*
X8455289Y-10626515D02*
X8455289Y-10578896D01*
X8455289Y-10578896D02*
X8464813Y-10540800D01*
X8464813Y-10540800D02*
X8474336Y-10521753D01*
X8474336Y-10521753D02*
X8483860Y-10512229D01*
X8483860Y-10512229D02*
X8502908Y-10502705D01*
X8693384Y-10502705D02*
X8712432Y-10502705D01*
X8712432Y-10502705D02*
X8731479Y-10512229D01*
X8731479Y-10512229D02*
X8741003Y-10521753D01*
X8741003Y-10521753D02*
X8750527Y-10540800D01*
X8750527Y-10540800D02*
X8760051Y-10578896D01*
X8760051Y-10578896D02*
X8760051Y-10626515D01*
X8760051Y-10626515D02*
X8750527Y-10664610D01*
X8750527Y-10664610D02*
X8741003Y-10683657D01*
X8741003Y-10683657D02*
X8731479Y-10693181D01*
X8731479Y-10693181D02*
X8712432Y-10702705D01*
X8712432Y-10702705D02*
X8693384Y-10702705D01*
X8693384Y-10702705D02*
X8674336Y-10693181D01*
X8674336Y-10693181D02*
X8664813Y-10683657D01*
X8664813Y-10683657D02*
X8655289Y-10664610D01*
X8655289Y-10664610D02*
X8645765Y-10626515D01*
X8645765Y-10626515D02*
X8645765Y-10578896D01*
X8645765Y-10578896D02*
X8655289Y-10540800D01*
X8655289Y-10540800D02*
X8664813Y-10521753D01*
X8664813Y-10521753D02*
X8674336Y-10512229D01*
X8674336Y-10512229D02*
X8693384Y-10502705D01*
X8845765Y-10702705D02*
X8845765Y-10569372D01*
X8845765Y-10588419D02*
X8855289Y-10578896D01*
X8855289Y-10578896D02*
X8874336Y-10569372D01*
X8874336Y-10569372D02*
X8902908Y-10569372D01*
X8902908Y-10569372D02*
X8921956Y-10578896D01*
X8921956Y-10578896D02*
X8931479Y-10597943D01*
X8931479Y-10597943D02*
X8931479Y-10702705D01*
X8931479Y-10597943D02*
X8941003Y-10578896D01*
X8941003Y-10578896D02*
X8960051Y-10569372D01*
X8960051Y-10569372D02*
X8988622Y-10569372D01*
X8988622Y-10569372D02*
X9007670Y-10578896D01*
X9007670Y-10578896D02*
X9017194Y-10597943D01*
X9017194Y-10597943D02*
X9017194Y-10702705D01*
X9112432Y-10702705D02*
X9112432Y-10569372D01*
X9112432Y-10588419D02*
X9121956Y-10578896D01*
X9121956Y-10578896D02*
X9141003Y-10569372D01*
X9141003Y-10569372D02*
X9169575Y-10569372D01*
X9169575Y-10569372D02*
X9188622Y-10578896D01*
X9188622Y-10578896D02*
X9198146Y-10597943D01*
X9198146Y-10597943D02*
X9198146Y-10702705D01*
X9198146Y-10597943D02*
X9207670Y-10578896D01*
X9207670Y-10578896D02*
X9226717Y-10569372D01*
X9226717Y-10569372D02*
X9255289Y-10569372D01*
X9255289Y-10569372D02*
X9274337Y-10578896D01*
X9274337Y-10578896D02*
X9283860Y-10597943D01*
X9283860Y-10597943D02*
X9283860Y-10702705D01*
X9674337Y-10493181D02*
X9502908Y-10750324D01*
X9931479Y-10502705D02*
X9950527Y-10502705D01*
X9950527Y-10502705D02*
X9969575Y-10512229D01*
X9969575Y-10512229D02*
X9979099Y-10521753D01*
X9979099Y-10521753D02*
X9988622Y-10540800D01*
X9988622Y-10540800D02*
X9998146Y-10578896D01*
X9998146Y-10578896D02*
X9998146Y-10626515D01*
X9998146Y-10626515D02*
X9988622Y-10664610D01*
X9988622Y-10664610D02*
X9979099Y-10683657D01*
X9979099Y-10683657D02*
X9969575Y-10693181D01*
X9969575Y-10693181D02*
X9950527Y-10702705D01*
X9950527Y-10702705D02*
X9931479Y-10702705D01*
X9931479Y-10702705D02*
X9912432Y-10693181D01*
X9912432Y-10693181D02*
X9902908Y-10683657D01*
X9902908Y-10683657D02*
X9893384Y-10664610D01*
X9893384Y-10664610D02*
X9883860Y-10626515D01*
X9883860Y-10626515D02*
X9883860Y-10578896D01*
X9883860Y-10578896D02*
X9893384Y-10540800D01*
X9893384Y-10540800D02*
X9902908Y-10521753D01*
X9902908Y-10521753D02*
X9912432Y-10512229D01*
X9912432Y-10512229D02*
X9931479Y-10502705D01*
X10083860Y-10683657D02*
X10093384Y-10693181D01*
X10093384Y-10693181D02*
X10083860Y-10702705D01*
X10083860Y-10702705D02*
X10074337Y-10693181D01*
X10074337Y-10693181D02*
X10083860Y-10683657D01*
X10083860Y-10683657D02*
X10083860Y-10702705D01*
X10217194Y-10502705D02*
X10236241Y-10502705D01*
X10236241Y-10502705D02*
X10255289Y-10512229D01*
X10255289Y-10512229D02*
X10264813Y-10521753D01*
X10264813Y-10521753D02*
X10274337Y-10540800D01*
X10274337Y-10540800D02*
X10283860Y-10578896D01*
X10283860Y-10578896D02*
X10283860Y-10626515D01*
X10283860Y-10626515D02*
X10274337Y-10664610D01*
X10274337Y-10664610D02*
X10264813Y-10683657D01*
X10264813Y-10683657D02*
X10255289Y-10693181D01*
X10255289Y-10693181D02*
X10236241Y-10702705D01*
X10236241Y-10702705D02*
X10217194Y-10702705D01*
X10217194Y-10702705D02*
X10198146Y-10693181D01*
X10198146Y-10693181D02*
X10188622Y-10683657D01*
X10188622Y-10683657D02*
X10179099Y-10664610D01*
X10179099Y-10664610D02*
X10169575Y-10626515D01*
X10169575Y-10626515D02*
X10169575Y-10578896D01*
X10169575Y-10578896D02*
X10179099Y-10540800D01*
X10179099Y-10540800D02*
X10188622Y-10521753D01*
X10188622Y-10521753D02*
X10198146Y-10512229D01*
X10198146Y-10512229D02*
X10217194Y-10502705D01*
X10360051Y-10521753D02*
X10369575Y-10512229D01*
X10369575Y-10512229D02*
X10388622Y-10502705D01*
X10388622Y-10502705D02*
X10436241Y-10502705D01*
X10436241Y-10502705D02*
X10455289Y-10512229D01*
X10455289Y-10512229D02*
X10464813Y-10521753D01*
X10464813Y-10521753D02*
X10474337Y-10540800D01*
X10474337Y-10540800D02*
X10474337Y-10559848D01*
X10474337Y-10559848D02*
X10464813Y-10588419D01*
X10464813Y-10588419D02*
X10350527Y-10702705D01*
X10350527Y-10702705D02*
X10474337Y-10702705D01*
X10541003Y-10502705D02*
X10664813Y-10502705D01*
X10664813Y-10502705D02*
X10598146Y-10578896D01*
X10598146Y-10578896D02*
X10626718Y-10578896D01*
X10626718Y-10578896D02*
X10645765Y-10588419D01*
X10645765Y-10588419D02*
X10655289Y-10597943D01*
X10655289Y-10597943D02*
X10664813Y-10616991D01*
X10664813Y-10616991D02*
X10664813Y-10664610D01*
X10664813Y-10664610D02*
X10655289Y-10683657D01*
X10655289Y-10683657D02*
X10645765Y-10693181D01*
X10645765Y-10693181D02*
X10626718Y-10702705D01*
X10626718Y-10702705D02*
X10569575Y-10702705D01*
X10569575Y-10702705D02*
X10550527Y-10693181D01*
X10550527Y-10693181D02*
X10541003Y-10683657D01*
X10836241Y-10502705D02*
X10798146Y-10502705D01*
X10798146Y-10502705D02*
X10779099Y-10512229D01*
X10779099Y-10512229D02*
X10769575Y-10521753D01*
X10769575Y-10521753D02*
X10750527Y-10550324D01*
X10750527Y-10550324D02*
X10741003Y-10588419D01*
X10741003Y-10588419D02*
X10741003Y-10664610D01*
X10741003Y-10664610D02*
X10750527Y-10683657D01*
X10750527Y-10683657D02*
X10760051Y-10693181D01*
X10760051Y-10693181D02*
X10779099Y-10702705D01*
X10779099Y-10702705D02*
X10817194Y-10702705D01*
X10817194Y-10702705D02*
X10836241Y-10693181D01*
X10836241Y-10693181D02*
X10845765Y-10683657D01*
X10845765Y-10683657D02*
X10855289Y-10664610D01*
X10855289Y-10664610D02*
X10855289Y-10616991D01*
X10855289Y-10616991D02*
X10845765Y-10597943D01*
X10845765Y-10597943D02*
X10836241Y-10588419D01*
X10836241Y-10588419D02*
X10817194Y-10578896D01*
X10817194Y-10578896D02*
X10779099Y-10578896D01*
X10779099Y-10578896D02*
X10760051Y-10588419D01*
X10760051Y-10588419D02*
X10750527Y-10597943D01*
X10750527Y-10597943D02*
X10741003Y-10616991D01*
X10931480Y-10502705D02*
X10931480Y-10540800D01*
X11007670Y-10502705D02*
X11007670Y-10540800D01*
X11302908Y-10778896D02*
X11293384Y-10769372D01*
X11293384Y-10769372D02*
X11274337Y-10740800D01*
X11274337Y-10740800D02*
X11264813Y-10721753D01*
X11264813Y-10721753D02*
X11255289Y-10693181D01*
X11255289Y-10693181D02*
X11245765Y-10645562D01*
X11245765Y-10645562D02*
X11245765Y-10607467D01*
X11245765Y-10607467D02*
X11255289Y-10559848D01*
X11255289Y-10559848D02*
X11264813Y-10531277D01*
X11264813Y-10531277D02*
X11274337Y-10512229D01*
X11274337Y-10512229D02*
X11293384Y-10483657D01*
X11293384Y-10483657D02*
X11302908Y-10474134D01*
X11464813Y-10569372D02*
X11464813Y-10702705D01*
X11417194Y-10493181D02*
X11369575Y-10636038D01*
X11369575Y-10636038D02*
X11493384Y-10636038D01*
X11721956Y-10702705D02*
X11721956Y-10502705D01*
X11807670Y-10702705D02*
X11807670Y-10597943D01*
X11807670Y-10597943D02*
X11798146Y-10578896D01*
X11798146Y-10578896D02*
X11779099Y-10569372D01*
X11779099Y-10569372D02*
X11750527Y-10569372D01*
X11750527Y-10569372D02*
X11731480Y-10578896D01*
X11731480Y-10578896D02*
X11721956Y-10588419D01*
X11931480Y-10702705D02*
X11912432Y-10693181D01*
X11912432Y-10693181D02*
X11902908Y-10683657D01*
X11902908Y-10683657D02*
X11893384Y-10664610D01*
X11893384Y-10664610D02*
X11893384Y-10607467D01*
X11893384Y-10607467D02*
X11902908Y-10588419D01*
X11902908Y-10588419D02*
X11912432Y-10578896D01*
X11912432Y-10578896D02*
X11931480Y-10569372D01*
X11931480Y-10569372D02*
X11960051Y-10569372D01*
X11960051Y-10569372D02*
X11979099Y-10578896D01*
X11979099Y-10578896D02*
X11988622Y-10588419D01*
X11988622Y-10588419D02*
X11998146Y-10607467D01*
X11998146Y-10607467D02*
X11998146Y-10664610D01*
X11998146Y-10664610D02*
X11988622Y-10683657D01*
X11988622Y-10683657D02*
X11979099Y-10693181D01*
X11979099Y-10693181D02*
X11960051Y-10702705D01*
X11960051Y-10702705D02*
X11931480Y-10702705D01*
X12112432Y-10702705D02*
X12093384Y-10693181D01*
X12093384Y-10693181D02*
X12083861Y-10674134D01*
X12083861Y-10674134D02*
X12083861Y-10502705D01*
X12264813Y-10693181D02*
X12245765Y-10702705D01*
X12245765Y-10702705D02*
X12207670Y-10702705D01*
X12207670Y-10702705D02*
X12188622Y-10693181D01*
X12188622Y-10693181D02*
X12179099Y-10674134D01*
X12179099Y-10674134D02*
X12179099Y-10597943D01*
X12179099Y-10597943D02*
X12188622Y-10578896D01*
X12188622Y-10578896D02*
X12207670Y-10569372D01*
X12207670Y-10569372D02*
X12245765Y-10569372D01*
X12245765Y-10569372D02*
X12264813Y-10578896D01*
X12264813Y-10578896D02*
X12274337Y-10597943D01*
X12274337Y-10597943D02*
X12274337Y-10616991D01*
X12274337Y-10616991D02*
X12179099Y-10636038D01*
X12350527Y-10693181D02*
X12369575Y-10702705D01*
X12369575Y-10702705D02*
X12407670Y-10702705D01*
X12407670Y-10702705D02*
X12426718Y-10693181D01*
X12426718Y-10693181D02*
X12436242Y-10674134D01*
X12436242Y-10674134D02*
X12436242Y-10664610D01*
X12436242Y-10664610D02*
X12426718Y-10645562D01*
X12426718Y-10645562D02*
X12407670Y-10636038D01*
X12407670Y-10636038D02*
X12379099Y-10636038D01*
X12379099Y-10636038D02*
X12360051Y-10626515D01*
X12360051Y-10626515D02*
X12350527Y-10607467D01*
X12350527Y-10607467D02*
X12350527Y-10597943D01*
X12350527Y-10597943D02*
X12360051Y-10578896D01*
X12360051Y-10578896D02*
X12379099Y-10569372D01*
X12379099Y-10569372D02*
X12407670Y-10569372D01*
X12407670Y-10569372D02*
X12426718Y-10578896D01*
X12502908Y-10778896D02*
X12512432Y-10769372D01*
X12512432Y-10769372D02*
X12531480Y-10740800D01*
X12531480Y-10740800D02*
X12541003Y-10721753D01*
X12541003Y-10721753D02*
X12550527Y-10693181D01*
X12550527Y-10693181D02*
X12560051Y-10645562D01*
X12560051Y-10645562D02*
X12560051Y-10607467D01*
X12560051Y-10607467D02*
X12550527Y-10559848D01*
X12550527Y-10559848D02*
X12541003Y-10531277D01*
X12541003Y-10531277D02*
X12531480Y-10512229D01*
X12531480Y-10512229D02*
X12512432Y-10483657D01*
X12512432Y-10483657D02*
X12502908Y-10474134D01*
D14*
X7692845Y-10840221D02*
X7692845Y-10910221D01*
X7657845Y-10875221D02*
X7727845Y-10875221D01*
D11*
X8026717Y-10766705D02*
X8045765Y-10766705D01*
X8045765Y-10766705D02*
X8064813Y-10776229D01*
X8064813Y-10776229D02*
X8074336Y-10785753D01*
X8074336Y-10785753D02*
X8083860Y-10804800D01*
X8083860Y-10804800D02*
X8093384Y-10842896D01*
X8093384Y-10842896D02*
X8093384Y-10890515D01*
X8093384Y-10890515D02*
X8083860Y-10928610D01*
X8083860Y-10928610D02*
X8074336Y-10947657D01*
X8074336Y-10947657D02*
X8064813Y-10957181D01*
X8064813Y-10957181D02*
X8045765Y-10966705D01*
X8045765Y-10966705D02*
X8026717Y-10966705D01*
X8026717Y-10966705D02*
X8007670Y-10957181D01*
X8007670Y-10957181D02*
X7998146Y-10947657D01*
X7998146Y-10947657D02*
X7988622Y-10928610D01*
X7988622Y-10928610D02*
X7979098Y-10890515D01*
X7979098Y-10890515D02*
X7979098Y-10842896D01*
X7979098Y-10842896D02*
X7988622Y-10804800D01*
X7988622Y-10804800D02*
X7998146Y-10785753D01*
X7998146Y-10785753D02*
X8007670Y-10776229D01*
X8007670Y-10776229D02*
X8026717Y-10766705D01*
X8179098Y-10947657D02*
X8188622Y-10957181D01*
X8188622Y-10957181D02*
X8179098Y-10966705D01*
X8179098Y-10966705D02*
X8169574Y-10957181D01*
X8169574Y-10957181D02*
X8179098Y-10947657D01*
X8179098Y-10947657D02*
X8179098Y-10966705D01*
X8255289Y-10766705D02*
X8388622Y-10766705D01*
X8388622Y-10766705D02*
X8302908Y-10966705D01*
X8502908Y-10766705D02*
X8521956Y-10766705D01*
X8521956Y-10766705D02*
X8541003Y-10776229D01*
X8541003Y-10776229D02*
X8550527Y-10785753D01*
X8550527Y-10785753D02*
X8560051Y-10804800D01*
X8560051Y-10804800D02*
X8569575Y-10842896D01*
X8569575Y-10842896D02*
X8569575Y-10890515D01*
X8569575Y-10890515D02*
X8560051Y-10928610D01*
X8560051Y-10928610D02*
X8550527Y-10947657D01*
X8550527Y-10947657D02*
X8541003Y-10957181D01*
X8541003Y-10957181D02*
X8521956Y-10966705D01*
X8521956Y-10966705D02*
X8502908Y-10966705D01*
X8502908Y-10966705D02*
X8483860Y-10957181D01*
X8483860Y-10957181D02*
X8474336Y-10947657D01*
X8474336Y-10947657D02*
X8464813Y-10928610D01*
X8464813Y-10928610D02*
X8455289Y-10890515D01*
X8455289Y-10890515D02*
X8455289Y-10842896D01*
X8455289Y-10842896D02*
X8464813Y-10804800D01*
X8464813Y-10804800D02*
X8474336Y-10785753D01*
X8474336Y-10785753D02*
X8483860Y-10776229D01*
X8483860Y-10776229D02*
X8502908Y-10766705D01*
X8693384Y-10766705D02*
X8712432Y-10766705D01*
X8712432Y-10766705D02*
X8731479Y-10776229D01*
X8731479Y-10776229D02*
X8741003Y-10785753D01*
X8741003Y-10785753D02*
X8750527Y-10804800D01*
X8750527Y-10804800D02*
X8760051Y-10842896D01*
X8760051Y-10842896D02*
X8760051Y-10890515D01*
X8760051Y-10890515D02*
X8750527Y-10928610D01*
X8750527Y-10928610D02*
X8741003Y-10947657D01*
X8741003Y-10947657D02*
X8731479Y-10957181D01*
X8731479Y-10957181D02*
X8712432Y-10966705D01*
X8712432Y-10966705D02*
X8693384Y-10966705D01*
X8693384Y-10966705D02*
X8674336Y-10957181D01*
X8674336Y-10957181D02*
X8664813Y-10947657D01*
X8664813Y-10947657D02*
X8655289Y-10928610D01*
X8655289Y-10928610D02*
X8645765Y-10890515D01*
X8645765Y-10890515D02*
X8645765Y-10842896D01*
X8645765Y-10842896D02*
X8655289Y-10804800D01*
X8655289Y-10804800D02*
X8664813Y-10785753D01*
X8664813Y-10785753D02*
X8674336Y-10776229D01*
X8674336Y-10776229D02*
X8693384Y-10766705D01*
X8845765Y-10966705D02*
X8845765Y-10833372D01*
X8845765Y-10852419D02*
X8855289Y-10842896D01*
X8855289Y-10842896D02*
X8874336Y-10833372D01*
X8874336Y-10833372D02*
X8902908Y-10833372D01*
X8902908Y-10833372D02*
X8921956Y-10842896D01*
X8921956Y-10842896D02*
X8931479Y-10861943D01*
X8931479Y-10861943D02*
X8931479Y-10966705D01*
X8931479Y-10861943D02*
X8941003Y-10842896D01*
X8941003Y-10842896D02*
X8960051Y-10833372D01*
X8960051Y-10833372D02*
X8988622Y-10833372D01*
X8988622Y-10833372D02*
X9007670Y-10842896D01*
X9007670Y-10842896D02*
X9017194Y-10861943D01*
X9017194Y-10861943D02*
X9017194Y-10966705D01*
X9112432Y-10966705D02*
X9112432Y-10833372D01*
X9112432Y-10852419D02*
X9121956Y-10842896D01*
X9121956Y-10842896D02*
X9141003Y-10833372D01*
X9141003Y-10833372D02*
X9169575Y-10833372D01*
X9169575Y-10833372D02*
X9188622Y-10842896D01*
X9188622Y-10842896D02*
X9198146Y-10861943D01*
X9198146Y-10861943D02*
X9198146Y-10966705D01*
X9198146Y-10861943D02*
X9207670Y-10842896D01*
X9207670Y-10842896D02*
X9226717Y-10833372D01*
X9226717Y-10833372D02*
X9255289Y-10833372D01*
X9255289Y-10833372D02*
X9274337Y-10842896D01*
X9274337Y-10842896D02*
X9283860Y-10861943D01*
X9283860Y-10861943D02*
X9283860Y-10966705D01*
X9674337Y-10757181D02*
X9502908Y-11014324D01*
X9931479Y-10766705D02*
X9950527Y-10766705D01*
X9950527Y-10766705D02*
X9969575Y-10776229D01*
X9969575Y-10776229D02*
X9979099Y-10785753D01*
X9979099Y-10785753D02*
X9988622Y-10804800D01*
X9988622Y-10804800D02*
X9998146Y-10842896D01*
X9998146Y-10842896D02*
X9998146Y-10890515D01*
X9998146Y-10890515D02*
X9988622Y-10928610D01*
X9988622Y-10928610D02*
X9979099Y-10947657D01*
X9979099Y-10947657D02*
X9969575Y-10957181D01*
X9969575Y-10957181D02*
X9950527Y-10966705D01*
X9950527Y-10966705D02*
X9931479Y-10966705D01*
X9931479Y-10966705D02*
X9912432Y-10957181D01*
X9912432Y-10957181D02*
X9902908Y-10947657D01*
X9902908Y-10947657D02*
X9893384Y-10928610D01*
X9893384Y-10928610D02*
X9883860Y-10890515D01*
X9883860Y-10890515D02*
X9883860Y-10842896D01*
X9883860Y-10842896D02*
X9893384Y-10804800D01*
X9893384Y-10804800D02*
X9902908Y-10785753D01*
X9902908Y-10785753D02*
X9912432Y-10776229D01*
X9912432Y-10776229D02*
X9931479Y-10766705D01*
X10083860Y-10947657D02*
X10093384Y-10957181D01*
X10093384Y-10957181D02*
X10083860Y-10966705D01*
X10083860Y-10966705D02*
X10074337Y-10957181D01*
X10074337Y-10957181D02*
X10083860Y-10947657D01*
X10083860Y-10947657D02*
X10083860Y-10966705D01*
X10217194Y-10766705D02*
X10236241Y-10766705D01*
X10236241Y-10766705D02*
X10255289Y-10776229D01*
X10255289Y-10776229D02*
X10264813Y-10785753D01*
X10264813Y-10785753D02*
X10274337Y-10804800D01*
X10274337Y-10804800D02*
X10283860Y-10842896D01*
X10283860Y-10842896D02*
X10283860Y-10890515D01*
X10283860Y-10890515D02*
X10274337Y-10928610D01*
X10274337Y-10928610D02*
X10264813Y-10947657D01*
X10264813Y-10947657D02*
X10255289Y-10957181D01*
X10255289Y-10957181D02*
X10236241Y-10966705D01*
X10236241Y-10966705D02*
X10217194Y-10966705D01*
X10217194Y-10966705D02*
X10198146Y-10957181D01*
X10198146Y-10957181D02*
X10188622Y-10947657D01*
X10188622Y-10947657D02*
X10179099Y-10928610D01*
X10179099Y-10928610D02*
X10169575Y-10890515D01*
X10169575Y-10890515D02*
X10169575Y-10842896D01*
X10169575Y-10842896D02*
X10179099Y-10804800D01*
X10179099Y-10804800D02*
X10188622Y-10785753D01*
X10188622Y-10785753D02*
X10198146Y-10776229D01*
X10198146Y-10776229D02*
X10217194Y-10766705D01*
X10360051Y-10785753D02*
X10369575Y-10776229D01*
X10369575Y-10776229D02*
X10388622Y-10766705D01*
X10388622Y-10766705D02*
X10436241Y-10766705D01*
X10436241Y-10766705D02*
X10455289Y-10776229D01*
X10455289Y-10776229D02*
X10464813Y-10785753D01*
X10464813Y-10785753D02*
X10474337Y-10804800D01*
X10474337Y-10804800D02*
X10474337Y-10823848D01*
X10474337Y-10823848D02*
X10464813Y-10852419D01*
X10464813Y-10852419D02*
X10350527Y-10966705D01*
X10350527Y-10966705D02*
X10474337Y-10966705D01*
X10541003Y-10766705D02*
X10674337Y-10766705D01*
X10674337Y-10766705D02*
X10588622Y-10966705D01*
X10836241Y-10766705D02*
X10798146Y-10766705D01*
X10798146Y-10766705D02*
X10779099Y-10776229D01*
X10779099Y-10776229D02*
X10769575Y-10785753D01*
X10769575Y-10785753D02*
X10750527Y-10814324D01*
X10750527Y-10814324D02*
X10741003Y-10852419D01*
X10741003Y-10852419D02*
X10741003Y-10928610D01*
X10741003Y-10928610D02*
X10750527Y-10947657D01*
X10750527Y-10947657D02*
X10760051Y-10957181D01*
X10760051Y-10957181D02*
X10779099Y-10966705D01*
X10779099Y-10966705D02*
X10817194Y-10966705D01*
X10817194Y-10966705D02*
X10836241Y-10957181D01*
X10836241Y-10957181D02*
X10845765Y-10947657D01*
X10845765Y-10947657D02*
X10855289Y-10928610D01*
X10855289Y-10928610D02*
X10855289Y-10880991D01*
X10855289Y-10880991D02*
X10845765Y-10861943D01*
X10845765Y-10861943D02*
X10836241Y-10852419D01*
X10836241Y-10852419D02*
X10817194Y-10842896D01*
X10817194Y-10842896D02*
X10779099Y-10842896D01*
X10779099Y-10842896D02*
X10760051Y-10852419D01*
X10760051Y-10852419D02*
X10750527Y-10861943D01*
X10750527Y-10861943D02*
X10741003Y-10880991D01*
X10931480Y-10766705D02*
X10931480Y-10804800D01*
X11007670Y-10766705D02*
X11007670Y-10804800D01*
X11302908Y-11042896D02*
X11293384Y-11033372D01*
X11293384Y-11033372D02*
X11274337Y-11004800D01*
X11274337Y-11004800D02*
X11264813Y-10985753D01*
X11264813Y-10985753D02*
X11255289Y-10957181D01*
X11255289Y-10957181D02*
X11245765Y-10909562D01*
X11245765Y-10909562D02*
X11245765Y-10871467D01*
X11245765Y-10871467D02*
X11255289Y-10823848D01*
X11255289Y-10823848D02*
X11264813Y-10795277D01*
X11264813Y-10795277D02*
X11274337Y-10776229D01*
X11274337Y-10776229D02*
X11293384Y-10747657D01*
X11293384Y-10747657D02*
X11302908Y-10738134D01*
X11483860Y-10966705D02*
X11369575Y-10966705D01*
X11426718Y-10966705D02*
X11426718Y-10766705D01*
X11426718Y-10766705D02*
X11407670Y-10795277D01*
X11407670Y-10795277D02*
X11388622Y-10814324D01*
X11388622Y-10814324D02*
X11369575Y-10823848D01*
X11560051Y-10785753D02*
X11569575Y-10776229D01*
X11569575Y-10776229D02*
X11588622Y-10766705D01*
X11588622Y-10766705D02*
X11636241Y-10766705D01*
X11636241Y-10766705D02*
X11655289Y-10776229D01*
X11655289Y-10776229D02*
X11664813Y-10785753D01*
X11664813Y-10785753D02*
X11674337Y-10804800D01*
X11674337Y-10804800D02*
X11674337Y-10823848D01*
X11674337Y-10823848D02*
X11664813Y-10852419D01*
X11664813Y-10852419D02*
X11550527Y-10966705D01*
X11550527Y-10966705D02*
X11674337Y-10966705D01*
X11912432Y-10966705D02*
X11912432Y-10766705D01*
X11998146Y-10966705D02*
X11998146Y-10861943D01*
X11998146Y-10861943D02*
X11988622Y-10842896D01*
X11988622Y-10842896D02*
X11969575Y-10833372D01*
X11969575Y-10833372D02*
X11941003Y-10833372D01*
X11941003Y-10833372D02*
X11921956Y-10842896D01*
X11921956Y-10842896D02*
X11912432Y-10852419D01*
X12121956Y-10966705D02*
X12102908Y-10957181D01*
X12102908Y-10957181D02*
X12093384Y-10947657D01*
X12093384Y-10947657D02*
X12083861Y-10928610D01*
X12083861Y-10928610D02*
X12083861Y-10871467D01*
X12083861Y-10871467D02*
X12093384Y-10852419D01*
X12093384Y-10852419D02*
X12102908Y-10842896D01*
X12102908Y-10842896D02*
X12121956Y-10833372D01*
X12121956Y-10833372D02*
X12150527Y-10833372D01*
X12150527Y-10833372D02*
X12169575Y-10842896D01*
X12169575Y-10842896D02*
X12179099Y-10852419D01*
X12179099Y-10852419D02*
X12188622Y-10871467D01*
X12188622Y-10871467D02*
X12188622Y-10928610D01*
X12188622Y-10928610D02*
X12179099Y-10947657D01*
X12179099Y-10947657D02*
X12169575Y-10957181D01*
X12169575Y-10957181D02*
X12150527Y-10966705D01*
X12150527Y-10966705D02*
X12121956Y-10966705D01*
X12302908Y-10966705D02*
X12283861Y-10957181D01*
X12283861Y-10957181D02*
X12274337Y-10938134D01*
X12274337Y-10938134D02*
X12274337Y-10766705D01*
X12455289Y-10957181D02*
X12436242Y-10966705D01*
X12436242Y-10966705D02*
X12398146Y-10966705D01*
X12398146Y-10966705D02*
X12379099Y-10957181D01*
X12379099Y-10957181D02*
X12369575Y-10938134D01*
X12369575Y-10938134D02*
X12369575Y-10861943D01*
X12369575Y-10861943D02*
X12379099Y-10842896D01*
X12379099Y-10842896D02*
X12398146Y-10833372D01*
X12398146Y-10833372D02*
X12436242Y-10833372D01*
X12436242Y-10833372D02*
X12455289Y-10842896D01*
X12455289Y-10842896D02*
X12464813Y-10861943D01*
X12464813Y-10861943D02*
X12464813Y-10880991D01*
X12464813Y-10880991D02*
X12369575Y-10900038D01*
X12541003Y-10957181D02*
X12560051Y-10966705D01*
X12560051Y-10966705D02*
X12598146Y-10966705D01*
X12598146Y-10966705D02*
X12617194Y-10957181D01*
X12617194Y-10957181D02*
X12626718Y-10938134D01*
X12626718Y-10938134D02*
X12626718Y-10928610D01*
X12626718Y-10928610D02*
X12617194Y-10909562D01*
X12617194Y-10909562D02*
X12598146Y-10900038D01*
X12598146Y-10900038D02*
X12569575Y-10900038D01*
X12569575Y-10900038D02*
X12550527Y-10890515D01*
X12550527Y-10890515D02*
X12541003Y-10871467D01*
X12541003Y-10871467D02*
X12541003Y-10861943D01*
X12541003Y-10861943D02*
X12550527Y-10842896D01*
X12550527Y-10842896D02*
X12569575Y-10833372D01*
X12569575Y-10833372D02*
X12598146Y-10833372D01*
X12598146Y-10833372D02*
X12617194Y-10842896D01*
X12693384Y-11042896D02*
X12702908Y-11033372D01*
X12702908Y-11033372D02*
X12721956Y-11004800D01*
X12721956Y-11004800D02*
X12731480Y-10985753D01*
X12731480Y-10985753D02*
X12741003Y-10957181D01*
X12741003Y-10957181D02*
X12750527Y-10909562D01*
X12750527Y-10909562D02*
X12750527Y-10871467D01*
X12750527Y-10871467D02*
X12741003Y-10823848D01*
X12741003Y-10823848D02*
X12731480Y-10795277D01*
X12731480Y-10795277D02*
X12721956Y-10776229D01*
X12721956Y-10776229D02*
X12702908Y-10747657D01*
X12702908Y-10747657D02*
X12693384Y-10738134D01*
D15*
X7716862Y-11165738D02*
X7716862Y-11112705D01*
X7663828Y-11112705D01*
X7663828Y-11165738D01*
X7716862Y-11165738D01*
D11*
X8026717Y-11030705D02*
X8045765Y-11030705D01*
X8045765Y-11030705D02*
X8064813Y-11040229D01*
X8064813Y-11040229D02*
X8074336Y-11049753D01*
X8074336Y-11049753D02*
X8083860Y-11068800D01*
X8083860Y-11068800D02*
X8093384Y-11106896D01*
X8093384Y-11106896D02*
X8093384Y-11154515D01*
X8093384Y-11154515D02*
X8083860Y-11192610D01*
X8083860Y-11192610D02*
X8074336Y-11211657D01*
X8074336Y-11211657D02*
X8064813Y-11221181D01*
X8064813Y-11221181D02*
X8045765Y-11230705D01*
X8045765Y-11230705D02*
X8026717Y-11230705D01*
X8026717Y-11230705D02*
X8007670Y-11221181D01*
X8007670Y-11221181D02*
X7998146Y-11211657D01*
X7998146Y-11211657D02*
X7988622Y-11192610D01*
X7988622Y-11192610D02*
X7979098Y-11154515D01*
X7979098Y-11154515D02*
X7979098Y-11106896D01*
X7979098Y-11106896D02*
X7988622Y-11068800D01*
X7988622Y-11068800D02*
X7998146Y-11049753D01*
X7998146Y-11049753D02*
X8007670Y-11040229D01*
X8007670Y-11040229D02*
X8026717Y-11030705D01*
X8179098Y-11211657D02*
X8188622Y-11221181D01*
X8188622Y-11221181D02*
X8179098Y-11230705D01*
X8179098Y-11230705D02*
X8169574Y-11221181D01*
X8169574Y-11221181D02*
X8179098Y-11211657D01*
X8179098Y-11211657D02*
X8179098Y-11230705D01*
X8255289Y-11030705D02*
X8388622Y-11030705D01*
X8388622Y-11030705D02*
X8302908Y-11230705D01*
X8560051Y-11030705D02*
X8464813Y-11030705D01*
X8464813Y-11030705D02*
X8455289Y-11125943D01*
X8455289Y-11125943D02*
X8464813Y-11116419D01*
X8464813Y-11116419D02*
X8483860Y-11106896D01*
X8483860Y-11106896D02*
X8531479Y-11106896D01*
X8531479Y-11106896D02*
X8550527Y-11116419D01*
X8550527Y-11116419D02*
X8560051Y-11125943D01*
X8560051Y-11125943D02*
X8569575Y-11144991D01*
X8569575Y-11144991D02*
X8569575Y-11192610D01*
X8569575Y-11192610D02*
X8560051Y-11211657D01*
X8560051Y-11211657D02*
X8550527Y-11221181D01*
X8550527Y-11221181D02*
X8531479Y-11230705D01*
X8531479Y-11230705D02*
X8483860Y-11230705D01*
X8483860Y-11230705D02*
X8464813Y-11221181D01*
X8464813Y-11221181D02*
X8455289Y-11211657D01*
X8693384Y-11030705D02*
X8712432Y-11030705D01*
X8712432Y-11030705D02*
X8731479Y-11040229D01*
X8731479Y-11040229D02*
X8741003Y-11049753D01*
X8741003Y-11049753D02*
X8750527Y-11068800D01*
X8750527Y-11068800D02*
X8760051Y-11106896D01*
X8760051Y-11106896D02*
X8760051Y-11154515D01*
X8760051Y-11154515D02*
X8750527Y-11192610D01*
X8750527Y-11192610D02*
X8741003Y-11211657D01*
X8741003Y-11211657D02*
X8731479Y-11221181D01*
X8731479Y-11221181D02*
X8712432Y-11230705D01*
X8712432Y-11230705D02*
X8693384Y-11230705D01*
X8693384Y-11230705D02*
X8674336Y-11221181D01*
X8674336Y-11221181D02*
X8664813Y-11211657D01*
X8664813Y-11211657D02*
X8655289Y-11192610D01*
X8655289Y-11192610D02*
X8645765Y-11154515D01*
X8645765Y-11154515D02*
X8645765Y-11106896D01*
X8645765Y-11106896D02*
X8655289Y-11068800D01*
X8655289Y-11068800D02*
X8664813Y-11049753D01*
X8664813Y-11049753D02*
X8674336Y-11040229D01*
X8674336Y-11040229D02*
X8693384Y-11030705D01*
X8845765Y-11230705D02*
X8845765Y-11097372D01*
X8845765Y-11116419D02*
X8855289Y-11106896D01*
X8855289Y-11106896D02*
X8874336Y-11097372D01*
X8874336Y-11097372D02*
X8902908Y-11097372D01*
X8902908Y-11097372D02*
X8921956Y-11106896D01*
X8921956Y-11106896D02*
X8931479Y-11125943D01*
X8931479Y-11125943D02*
X8931479Y-11230705D01*
X8931479Y-11125943D02*
X8941003Y-11106896D01*
X8941003Y-11106896D02*
X8960051Y-11097372D01*
X8960051Y-11097372D02*
X8988622Y-11097372D01*
X8988622Y-11097372D02*
X9007670Y-11106896D01*
X9007670Y-11106896D02*
X9017194Y-11125943D01*
X9017194Y-11125943D02*
X9017194Y-11230705D01*
X9112432Y-11230705D02*
X9112432Y-11097372D01*
X9112432Y-11116419D02*
X9121956Y-11106896D01*
X9121956Y-11106896D02*
X9141003Y-11097372D01*
X9141003Y-11097372D02*
X9169575Y-11097372D01*
X9169575Y-11097372D02*
X9188622Y-11106896D01*
X9188622Y-11106896D02*
X9198146Y-11125943D01*
X9198146Y-11125943D02*
X9198146Y-11230705D01*
X9198146Y-11125943D02*
X9207670Y-11106896D01*
X9207670Y-11106896D02*
X9226717Y-11097372D01*
X9226717Y-11097372D02*
X9255289Y-11097372D01*
X9255289Y-11097372D02*
X9274337Y-11106896D01*
X9274337Y-11106896D02*
X9283860Y-11125943D01*
X9283860Y-11125943D02*
X9283860Y-11230705D01*
X9674337Y-11021181D02*
X9502908Y-11278324D01*
X9931479Y-11030705D02*
X9950527Y-11030705D01*
X9950527Y-11030705D02*
X9969575Y-11040229D01*
X9969575Y-11040229D02*
X9979099Y-11049753D01*
X9979099Y-11049753D02*
X9988622Y-11068800D01*
X9988622Y-11068800D02*
X9998146Y-11106896D01*
X9998146Y-11106896D02*
X9998146Y-11154515D01*
X9998146Y-11154515D02*
X9988622Y-11192610D01*
X9988622Y-11192610D02*
X9979099Y-11211657D01*
X9979099Y-11211657D02*
X9969575Y-11221181D01*
X9969575Y-11221181D02*
X9950527Y-11230705D01*
X9950527Y-11230705D02*
X9931479Y-11230705D01*
X9931479Y-11230705D02*
X9912432Y-11221181D01*
X9912432Y-11221181D02*
X9902908Y-11211657D01*
X9902908Y-11211657D02*
X9893384Y-11192610D01*
X9893384Y-11192610D02*
X9883860Y-11154515D01*
X9883860Y-11154515D02*
X9883860Y-11106896D01*
X9883860Y-11106896D02*
X9893384Y-11068800D01*
X9893384Y-11068800D02*
X9902908Y-11049753D01*
X9902908Y-11049753D02*
X9912432Y-11040229D01*
X9912432Y-11040229D02*
X9931479Y-11030705D01*
X10083860Y-11211657D02*
X10093384Y-11221181D01*
X10093384Y-11221181D02*
X10083860Y-11230705D01*
X10083860Y-11230705D02*
X10074337Y-11221181D01*
X10074337Y-11221181D02*
X10083860Y-11211657D01*
X10083860Y-11211657D02*
X10083860Y-11230705D01*
X10217194Y-11030705D02*
X10236241Y-11030705D01*
X10236241Y-11030705D02*
X10255289Y-11040229D01*
X10255289Y-11040229D02*
X10264813Y-11049753D01*
X10264813Y-11049753D02*
X10274337Y-11068800D01*
X10274337Y-11068800D02*
X10283860Y-11106896D01*
X10283860Y-11106896D02*
X10283860Y-11154515D01*
X10283860Y-11154515D02*
X10274337Y-11192610D01*
X10274337Y-11192610D02*
X10264813Y-11211657D01*
X10264813Y-11211657D02*
X10255289Y-11221181D01*
X10255289Y-11221181D02*
X10236241Y-11230705D01*
X10236241Y-11230705D02*
X10217194Y-11230705D01*
X10217194Y-11230705D02*
X10198146Y-11221181D01*
X10198146Y-11221181D02*
X10188622Y-11211657D01*
X10188622Y-11211657D02*
X10179099Y-11192610D01*
X10179099Y-11192610D02*
X10169575Y-11154515D01*
X10169575Y-11154515D02*
X10169575Y-11106896D01*
X10169575Y-11106896D02*
X10179099Y-11068800D01*
X10179099Y-11068800D02*
X10188622Y-11049753D01*
X10188622Y-11049753D02*
X10198146Y-11040229D01*
X10198146Y-11040229D02*
X10217194Y-11030705D01*
X10360051Y-11049753D02*
X10369575Y-11040229D01*
X10369575Y-11040229D02*
X10388622Y-11030705D01*
X10388622Y-11030705D02*
X10436241Y-11030705D01*
X10436241Y-11030705D02*
X10455289Y-11040229D01*
X10455289Y-11040229D02*
X10464813Y-11049753D01*
X10464813Y-11049753D02*
X10474337Y-11068800D01*
X10474337Y-11068800D02*
X10474337Y-11087848D01*
X10474337Y-11087848D02*
X10464813Y-11116419D01*
X10464813Y-11116419D02*
X10350527Y-11230705D01*
X10350527Y-11230705D02*
X10474337Y-11230705D01*
X10569575Y-11230705D02*
X10607670Y-11230705D01*
X10607670Y-11230705D02*
X10626718Y-11221181D01*
X10626718Y-11221181D02*
X10636241Y-11211657D01*
X10636241Y-11211657D02*
X10655289Y-11183086D01*
X10655289Y-11183086D02*
X10664813Y-11144991D01*
X10664813Y-11144991D02*
X10664813Y-11068800D01*
X10664813Y-11068800D02*
X10655289Y-11049753D01*
X10655289Y-11049753D02*
X10645765Y-11040229D01*
X10645765Y-11040229D02*
X10626718Y-11030705D01*
X10626718Y-11030705D02*
X10588622Y-11030705D01*
X10588622Y-11030705D02*
X10569575Y-11040229D01*
X10569575Y-11040229D02*
X10560051Y-11049753D01*
X10560051Y-11049753D02*
X10550527Y-11068800D01*
X10550527Y-11068800D02*
X10550527Y-11116419D01*
X10550527Y-11116419D02*
X10560051Y-11135467D01*
X10560051Y-11135467D02*
X10569575Y-11144991D01*
X10569575Y-11144991D02*
X10588622Y-11154515D01*
X10588622Y-11154515D02*
X10626718Y-11154515D01*
X10626718Y-11154515D02*
X10645765Y-11144991D01*
X10645765Y-11144991D02*
X10655289Y-11135467D01*
X10655289Y-11135467D02*
X10664813Y-11116419D01*
X10845765Y-11030705D02*
X10750527Y-11030705D01*
X10750527Y-11030705D02*
X10741003Y-11125943D01*
X10741003Y-11125943D02*
X10750527Y-11116419D01*
X10750527Y-11116419D02*
X10769575Y-11106896D01*
X10769575Y-11106896D02*
X10817194Y-11106896D01*
X10817194Y-11106896D02*
X10836241Y-11116419D01*
X10836241Y-11116419D02*
X10845765Y-11125943D01*
X10845765Y-11125943D02*
X10855289Y-11144991D01*
X10855289Y-11144991D02*
X10855289Y-11192610D01*
X10855289Y-11192610D02*
X10845765Y-11211657D01*
X10845765Y-11211657D02*
X10836241Y-11221181D01*
X10836241Y-11221181D02*
X10817194Y-11230705D01*
X10817194Y-11230705D02*
X10769575Y-11230705D01*
X10769575Y-11230705D02*
X10750527Y-11221181D01*
X10750527Y-11221181D02*
X10741003Y-11211657D01*
X10931480Y-11030705D02*
X10931480Y-11068800D01*
X11007670Y-11030705D02*
X11007670Y-11068800D01*
X11302908Y-11306895D02*
X11293384Y-11297372D01*
X11293384Y-11297372D02*
X11274337Y-11268800D01*
X11274337Y-11268800D02*
X11264813Y-11249753D01*
X11264813Y-11249753D02*
X11255289Y-11221181D01*
X11255289Y-11221181D02*
X11245765Y-11173562D01*
X11245765Y-11173562D02*
X11245765Y-11135467D01*
X11245765Y-11135467D02*
X11255289Y-11087848D01*
X11255289Y-11087848D02*
X11264813Y-11059277D01*
X11264813Y-11059277D02*
X11274337Y-11040229D01*
X11274337Y-11040229D02*
X11293384Y-11011657D01*
X11293384Y-11011657D02*
X11302908Y-11002134D01*
X11464813Y-11030705D02*
X11426718Y-11030705D01*
X11426718Y-11030705D02*
X11407670Y-11040229D01*
X11407670Y-11040229D02*
X11398146Y-11049753D01*
X11398146Y-11049753D02*
X11379099Y-11078324D01*
X11379099Y-11078324D02*
X11369575Y-11116419D01*
X11369575Y-11116419D02*
X11369575Y-11192610D01*
X11369575Y-11192610D02*
X11379099Y-11211657D01*
X11379099Y-11211657D02*
X11388622Y-11221181D01*
X11388622Y-11221181D02*
X11407670Y-11230705D01*
X11407670Y-11230705D02*
X11445765Y-11230705D01*
X11445765Y-11230705D02*
X11464813Y-11221181D01*
X11464813Y-11221181D02*
X11474337Y-11211657D01*
X11474337Y-11211657D02*
X11483860Y-11192610D01*
X11483860Y-11192610D02*
X11483860Y-11144991D01*
X11483860Y-11144991D02*
X11474337Y-11125943D01*
X11474337Y-11125943D02*
X11464813Y-11116419D01*
X11464813Y-11116419D02*
X11445765Y-11106896D01*
X11445765Y-11106896D02*
X11407670Y-11106896D01*
X11407670Y-11106896D02*
X11388622Y-11116419D01*
X11388622Y-11116419D02*
X11379099Y-11125943D01*
X11379099Y-11125943D02*
X11369575Y-11144991D01*
X11721956Y-11230705D02*
X11721956Y-11030705D01*
X11807670Y-11230705D02*
X11807670Y-11125943D01*
X11807670Y-11125943D02*
X11798146Y-11106896D01*
X11798146Y-11106896D02*
X11779099Y-11097372D01*
X11779099Y-11097372D02*
X11750527Y-11097372D01*
X11750527Y-11097372D02*
X11731480Y-11106896D01*
X11731480Y-11106896D02*
X11721956Y-11116419D01*
X11931480Y-11230705D02*
X11912432Y-11221181D01*
X11912432Y-11221181D02*
X11902908Y-11211657D01*
X11902908Y-11211657D02*
X11893384Y-11192610D01*
X11893384Y-11192610D02*
X11893384Y-11135467D01*
X11893384Y-11135467D02*
X11902908Y-11116419D01*
X11902908Y-11116419D02*
X11912432Y-11106896D01*
X11912432Y-11106896D02*
X11931480Y-11097372D01*
X11931480Y-11097372D02*
X11960051Y-11097372D01*
X11960051Y-11097372D02*
X11979099Y-11106896D01*
X11979099Y-11106896D02*
X11988622Y-11116419D01*
X11988622Y-11116419D02*
X11998146Y-11135467D01*
X11998146Y-11135467D02*
X11998146Y-11192610D01*
X11998146Y-11192610D02*
X11988622Y-11211657D01*
X11988622Y-11211657D02*
X11979099Y-11221181D01*
X11979099Y-11221181D02*
X11960051Y-11230705D01*
X11960051Y-11230705D02*
X11931480Y-11230705D01*
X12112432Y-11230705D02*
X12093384Y-11221181D01*
X12093384Y-11221181D02*
X12083861Y-11202134D01*
X12083861Y-11202134D02*
X12083861Y-11030705D01*
X12264813Y-11221181D02*
X12245765Y-11230705D01*
X12245765Y-11230705D02*
X12207670Y-11230705D01*
X12207670Y-11230705D02*
X12188622Y-11221181D01*
X12188622Y-11221181D02*
X12179099Y-11202134D01*
X12179099Y-11202134D02*
X12179099Y-11125943D01*
X12179099Y-11125943D02*
X12188622Y-11106896D01*
X12188622Y-11106896D02*
X12207670Y-11097372D01*
X12207670Y-11097372D02*
X12245765Y-11097372D01*
X12245765Y-11097372D02*
X12264813Y-11106896D01*
X12264813Y-11106896D02*
X12274337Y-11125943D01*
X12274337Y-11125943D02*
X12274337Y-11144991D01*
X12274337Y-11144991D02*
X12179099Y-11164038D01*
X12350527Y-11221181D02*
X12369575Y-11230705D01*
X12369575Y-11230705D02*
X12407670Y-11230705D01*
X12407670Y-11230705D02*
X12426718Y-11221181D01*
X12426718Y-11221181D02*
X12436242Y-11202134D01*
X12436242Y-11202134D02*
X12436242Y-11192610D01*
X12436242Y-11192610D02*
X12426718Y-11173562D01*
X12426718Y-11173562D02*
X12407670Y-11164038D01*
X12407670Y-11164038D02*
X12379099Y-11164038D01*
X12379099Y-11164038D02*
X12360051Y-11154515D01*
X12360051Y-11154515D02*
X12350527Y-11135467D01*
X12350527Y-11135467D02*
X12350527Y-11125943D01*
X12350527Y-11125943D02*
X12360051Y-11106896D01*
X12360051Y-11106896D02*
X12379099Y-11097372D01*
X12379099Y-11097372D02*
X12407670Y-11097372D01*
X12407670Y-11097372D02*
X12426718Y-11106896D01*
X12502908Y-11306895D02*
X12512432Y-11297372D01*
X12512432Y-11297372D02*
X12531480Y-11268800D01*
X12531480Y-11268800D02*
X12541003Y-11249753D01*
X12541003Y-11249753D02*
X12550527Y-11221181D01*
X12550527Y-11221181D02*
X12560051Y-11173562D01*
X12560051Y-11173562D02*
X12560051Y-11135467D01*
X12560051Y-11135467D02*
X12550527Y-11087848D01*
X12550527Y-11087848D02*
X12541003Y-11059277D01*
X12541003Y-11059277D02*
X12531480Y-11040229D01*
X12531480Y-11040229D02*
X12512432Y-11011657D01*
X12512432Y-11011657D02*
X12502908Y-11002134D01*
D16*
X7682845Y-11448221D02*
X7727845Y-11403221D01*
X7682845Y-11358221D01*
X7637845Y-11403221D01*
X7682845Y-11448221D01*
D11*
X8026717Y-11294705D02*
X8045765Y-11294705D01*
X8045765Y-11294705D02*
X8064813Y-11304229D01*
X8064813Y-11304229D02*
X8074336Y-11313753D01*
X8074336Y-11313753D02*
X8083860Y-11332800D01*
X8083860Y-11332800D02*
X8093384Y-11370895D01*
X8093384Y-11370895D02*
X8093384Y-11418515D01*
X8093384Y-11418515D02*
X8083860Y-11456610D01*
X8083860Y-11456610D02*
X8074336Y-11475657D01*
X8074336Y-11475657D02*
X8064813Y-11485181D01*
X8064813Y-11485181D02*
X8045765Y-11494705D01*
X8045765Y-11494705D02*
X8026717Y-11494705D01*
X8026717Y-11494705D02*
X8007670Y-11485181D01*
X8007670Y-11485181D02*
X7998146Y-11475657D01*
X7998146Y-11475657D02*
X7988622Y-11456610D01*
X7988622Y-11456610D02*
X7979098Y-11418515D01*
X7979098Y-11418515D02*
X7979098Y-11370895D01*
X7979098Y-11370895D02*
X7988622Y-11332800D01*
X7988622Y-11332800D02*
X7998146Y-11313753D01*
X7998146Y-11313753D02*
X8007670Y-11304229D01*
X8007670Y-11304229D02*
X8026717Y-11294705D01*
X8179098Y-11475657D02*
X8188622Y-11485181D01*
X8188622Y-11485181D02*
X8179098Y-11494705D01*
X8179098Y-11494705D02*
X8169574Y-11485181D01*
X8169574Y-11485181D02*
X8179098Y-11475657D01*
X8179098Y-11475657D02*
X8179098Y-11494705D01*
X8283860Y-11494705D02*
X8321955Y-11494705D01*
X8321955Y-11494705D02*
X8341003Y-11485181D01*
X8341003Y-11485181D02*
X8350527Y-11475657D01*
X8350527Y-11475657D02*
X8369574Y-11447086D01*
X8369574Y-11447086D02*
X8379098Y-11408991D01*
X8379098Y-11408991D02*
X8379098Y-11332800D01*
X8379098Y-11332800D02*
X8369574Y-11313753D01*
X8369574Y-11313753D02*
X8360051Y-11304229D01*
X8360051Y-11304229D02*
X8341003Y-11294705D01*
X8341003Y-11294705D02*
X8302908Y-11294705D01*
X8302908Y-11294705D02*
X8283860Y-11304229D01*
X8283860Y-11304229D02*
X8274336Y-11313753D01*
X8274336Y-11313753D02*
X8264813Y-11332800D01*
X8264813Y-11332800D02*
X8264813Y-11380419D01*
X8264813Y-11380419D02*
X8274336Y-11399467D01*
X8274336Y-11399467D02*
X8283860Y-11408991D01*
X8283860Y-11408991D02*
X8302908Y-11418515D01*
X8302908Y-11418515D02*
X8341003Y-11418515D01*
X8341003Y-11418515D02*
X8360051Y-11408991D01*
X8360051Y-11408991D02*
X8369574Y-11399467D01*
X8369574Y-11399467D02*
X8379098Y-11380419D01*
X8502908Y-11294705D02*
X8521956Y-11294705D01*
X8521956Y-11294705D02*
X8541003Y-11304229D01*
X8541003Y-11304229D02*
X8550527Y-11313753D01*
X8550527Y-11313753D02*
X8560051Y-11332800D01*
X8560051Y-11332800D02*
X8569575Y-11370895D01*
X8569575Y-11370895D02*
X8569575Y-11418515D01*
X8569575Y-11418515D02*
X8560051Y-11456610D01*
X8560051Y-11456610D02*
X8550527Y-11475657D01*
X8550527Y-11475657D02*
X8541003Y-11485181D01*
X8541003Y-11485181D02*
X8521956Y-11494705D01*
X8521956Y-11494705D02*
X8502908Y-11494705D01*
X8502908Y-11494705D02*
X8483860Y-11485181D01*
X8483860Y-11485181D02*
X8474336Y-11475657D01*
X8474336Y-11475657D02*
X8464813Y-11456610D01*
X8464813Y-11456610D02*
X8455289Y-11418515D01*
X8455289Y-11418515D02*
X8455289Y-11370895D01*
X8455289Y-11370895D02*
X8464813Y-11332800D01*
X8464813Y-11332800D02*
X8474336Y-11313753D01*
X8474336Y-11313753D02*
X8483860Y-11304229D01*
X8483860Y-11304229D02*
X8502908Y-11294705D01*
X8693384Y-11294705D02*
X8712432Y-11294705D01*
X8712432Y-11294705D02*
X8731479Y-11304229D01*
X8731479Y-11304229D02*
X8741003Y-11313753D01*
X8741003Y-11313753D02*
X8750527Y-11332800D01*
X8750527Y-11332800D02*
X8760051Y-11370895D01*
X8760051Y-11370895D02*
X8760051Y-11418515D01*
X8760051Y-11418515D02*
X8750527Y-11456610D01*
X8750527Y-11456610D02*
X8741003Y-11475657D01*
X8741003Y-11475657D02*
X8731479Y-11485181D01*
X8731479Y-11485181D02*
X8712432Y-11494705D01*
X8712432Y-11494705D02*
X8693384Y-11494705D01*
X8693384Y-11494705D02*
X8674336Y-11485181D01*
X8674336Y-11485181D02*
X8664813Y-11475657D01*
X8664813Y-11475657D02*
X8655289Y-11456610D01*
X8655289Y-11456610D02*
X8645765Y-11418515D01*
X8645765Y-11418515D02*
X8645765Y-11370895D01*
X8645765Y-11370895D02*
X8655289Y-11332800D01*
X8655289Y-11332800D02*
X8664813Y-11313753D01*
X8664813Y-11313753D02*
X8674336Y-11304229D01*
X8674336Y-11304229D02*
X8693384Y-11294705D01*
X8845765Y-11494705D02*
X8845765Y-11361372D01*
X8845765Y-11380419D02*
X8855289Y-11370895D01*
X8855289Y-11370895D02*
X8874336Y-11361372D01*
X8874336Y-11361372D02*
X8902908Y-11361372D01*
X8902908Y-11361372D02*
X8921956Y-11370895D01*
X8921956Y-11370895D02*
X8931479Y-11389943D01*
X8931479Y-11389943D02*
X8931479Y-11494705D01*
X8931479Y-11389943D02*
X8941003Y-11370895D01*
X8941003Y-11370895D02*
X8960051Y-11361372D01*
X8960051Y-11361372D02*
X8988622Y-11361372D01*
X8988622Y-11361372D02*
X9007670Y-11370895D01*
X9007670Y-11370895D02*
X9017194Y-11389943D01*
X9017194Y-11389943D02*
X9017194Y-11494705D01*
X9112432Y-11494705D02*
X9112432Y-11361372D01*
X9112432Y-11380419D02*
X9121956Y-11370895D01*
X9121956Y-11370895D02*
X9141003Y-11361372D01*
X9141003Y-11361372D02*
X9169575Y-11361372D01*
X9169575Y-11361372D02*
X9188622Y-11370895D01*
X9188622Y-11370895D02*
X9198146Y-11389943D01*
X9198146Y-11389943D02*
X9198146Y-11494705D01*
X9198146Y-11389943D02*
X9207670Y-11370895D01*
X9207670Y-11370895D02*
X9226717Y-11361372D01*
X9226717Y-11361372D02*
X9255289Y-11361372D01*
X9255289Y-11361372D02*
X9274337Y-11370895D01*
X9274337Y-11370895D02*
X9283860Y-11389943D01*
X9283860Y-11389943D02*
X9283860Y-11494705D01*
X9674337Y-11285181D02*
X9502908Y-11542324D01*
X9931479Y-11294705D02*
X9950527Y-11294705D01*
X9950527Y-11294705D02*
X9969575Y-11304229D01*
X9969575Y-11304229D02*
X9979099Y-11313753D01*
X9979099Y-11313753D02*
X9988622Y-11332800D01*
X9988622Y-11332800D02*
X9998146Y-11370895D01*
X9998146Y-11370895D02*
X9998146Y-11418515D01*
X9998146Y-11418515D02*
X9988622Y-11456610D01*
X9988622Y-11456610D02*
X9979099Y-11475657D01*
X9979099Y-11475657D02*
X9969575Y-11485181D01*
X9969575Y-11485181D02*
X9950527Y-11494705D01*
X9950527Y-11494705D02*
X9931479Y-11494705D01*
X9931479Y-11494705D02*
X9912432Y-11485181D01*
X9912432Y-11485181D02*
X9902908Y-11475657D01*
X9902908Y-11475657D02*
X9893384Y-11456610D01*
X9893384Y-11456610D02*
X9883860Y-11418515D01*
X9883860Y-11418515D02*
X9883860Y-11370895D01*
X9883860Y-11370895D02*
X9893384Y-11332800D01*
X9893384Y-11332800D02*
X9902908Y-11313753D01*
X9902908Y-11313753D02*
X9912432Y-11304229D01*
X9912432Y-11304229D02*
X9931479Y-11294705D01*
X10083860Y-11475657D02*
X10093384Y-11485181D01*
X10093384Y-11485181D02*
X10083860Y-11494705D01*
X10083860Y-11494705D02*
X10074337Y-11485181D01*
X10074337Y-11485181D02*
X10083860Y-11475657D01*
X10083860Y-11475657D02*
X10083860Y-11494705D01*
X10217194Y-11294705D02*
X10236241Y-11294705D01*
X10236241Y-11294705D02*
X10255289Y-11304229D01*
X10255289Y-11304229D02*
X10264813Y-11313753D01*
X10264813Y-11313753D02*
X10274337Y-11332800D01*
X10274337Y-11332800D02*
X10283860Y-11370895D01*
X10283860Y-11370895D02*
X10283860Y-11418515D01*
X10283860Y-11418515D02*
X10274337Y-11456610D01*
X10274337Y-11456610D02*
X10264813Y-11475657D01*
X10264813Y-11475657D02*
X10255289Y-11485181D01*
X10255289Y-11485181D02*
X10236241Y-11494705D01*
X10236241Y-11494705D02*
X10217194Y-11494705D01*
X10217194Y-11494705D02*
X10198146Y-11485181D01*
X10198146Y-11485181D02*
X10188622Y-11475657D01*
X10188622Y-11475657D02*
X10179099Y-11456610D01*
X10179099Y-11456610D02*
X10169575Y-11418515D01*
X10169575Y-11418515D02*
X10169575Y-11370895D01*
X10169575Y-11370895D02*
X10179099Y-11332800D01*
X10179099Y-11332800D02*
X10188622Y-11313753D01*
X10188622Y-11313753D02*
X10198146Y-11304229D01*
X10198146Y-11304229D02*
X10217194Y-11294705D01*
X10350527Y-11294705D02*
X10474337Y-11294705D01*
X10474337Y-11294705D02*
X10407670Y-11370895D01*
X10407670Y-11370895D02*
X10436241Y-11370895D01*
X10436241Y-11370895D02*
X10455289Y-11380419D01*
X10455289Y-11380419D02*
X10464813Y-11389943D01*
X10464813Y-11389943D02*
X10474337Y-11408991D01*
X10474337Y-11408991D02*
X10474337Y-11456610D01*
X10474337Y-11456610D02*
X10464813Y-11475657D01*
X10464813Y-11475657D02*
X10455289Y-11485181D01*
X10455289Y-11485181D02*
X10436241Y-11494705D01*
X10436241Y-11494705D02*
X10379099Y-11494705D01*
X10379099Y-11494705D02*
X10360051Y-11485181D01*
X10360051Y-11485181D02*
X10350527Y-11475657D01*
X10655289Y-11294705D02*
X10560051Y-11294705D01*
X10560051Y-11294705D02*
X10550527Y-11389943D01*
X10550527Y-11389943D02*
X10560051Y-11380419D01*
X10560051Y-11380419D02*
X10579099Y-11370895D01*
X10579099Y-11370895D02*
X10626718Y-11370895D01*
X10626718Y-11370895D02*
X10645765Y-11380419D01*
X10645765Y-11380419D02*
X10655289Y-11389943D01*
X10655289Y-11389943D02*
X10664813Y-11408991D01*
X10664813Y-11408991D02*
X10664813Y-11456610D01*
X10664813Y-11456610D02*
X10655289Y-11475657D01*
X10655289Y-11475657D02*
X10645765Y-11485181D01*
X10645765Y-11485181D02*
X10626718Y-11494705D01*
X10626718Y-11494705D02*
X10579099Y-11494705D01*
X10579099Y-11494705D02*
X10560051Y-11485181D01*
X10560051Y-11485181D02*
X10550527Y-11475657D01*
X10836241Y-11361372D02*
X10836241Y-11494705D01*
X10788622Y-11285181D02*
X10741003Y-11428038D01*
X10741003Y-11428038D02*
X10864813Y-11428038D01*
X10931480Y-11294705D02*
X10931480Y-11332800D01*
X11007670Y-11294705D02*
X11007670Y-11332800D01*
X11302908Y-11570895D02*
X11293384Y-11561372D01*
X11293384Y-11561372D02*
X11274337Y-11532800D01*
X11274337Y-11532800D02*
X11264813Y-11513753D01*
X11264813Y-11513753D02*
X11255289Y-11485181D01*
X11255289Y-11485181D02*
X11245765Y-11437562D01*
X11245765Y-11437562D02*
X11245765Y-11399467D01*
X11245765Y-11399467D02*
X11255289Y-11351848D01*
X11255289Y-11351848D02*
X11264813Y-11323276D01*
X11264813Y-11323276D02*
X11274337Y-11304229D01*
X11274337Y-11304229D02*
X11293384Y-11275657D01*
X11293384Y-11275657D02*
X11302908Y-11266134D01*
X11464813Y-11361372D02*
X11464813Y-11494705D01*
X11417194Y-11285181D02*
X11369575Y-11428038D01*
X11369575Y-11428038D02*
X11493384Y-11428038D01*
X11721956Y-11494705D02*
X11721956Y-11294705D01*
X11807670Y-11494705D02*
X11807670Y-11389943D01*
X11807670Y-11389943D02*
X11798146Y-11370895D01*
X11798146Y-11370895D02*
X11779099Y-11361372D01*
X11779099Y-11361372D02*
X11750527Y-11361372D01*
X11750527Y-11361372D02*
X11731480Y-11370895D01*
X11731480Y-11370895D02*
X11721956Y-11380419D01*
X11931480Y-11494705D02*
X11912432Y-11485181D01*
X11912432Y-11485181D02*
X11902908Y-11475657D01*
X11902908Y-11475657D02*
X11893384Y-11456610D01*
X11893384Y-11456610D02*
X11893384Y-11399467D01*
X11893384Y-11399467D02*
X11902908Y-11380419D01*
X11902908Y-11380419D02*
X11912432Y-11370895D01*
X11912432Y-11370895D02*
X11931480Y-11361372D01*
X11931480Y-11361372D02*
X11960051Y-11361372D01*
X11960051Y-11361372D02*
X11979099Y-11370895D01*
X11979099Y-11370895D02*
X11988622Y-11380419D01*
X11988622Y-11380419D02*
X11998146Y-11399467D01*
X11998146Y-11399467D02*
X11998146Y-11456610D01*
X11998146Y-11456610D02*
X11988622Y-11475657D01*
X11988622Y-11475657D02*
X11979099Y-11485181D01*
X11979099Y-11485181D02*
X11960051Y-11494705D01*
X11960051Y-11494705D02*
X11931480Y-11494705D01*
X12112432Y-11494705D02*
X12093384Y-11485181D01*
X12093384Y-11485181D02*
X12083861Y-11466134D01*
X12083861Y-11466134D02*
X12083861Y-11294705D01*
X12264813Y-11485181D02*
X12245765Y-11494705D01*
X12245765Y-11494705D02*
X12207670Y-11494705D01*
X12207670Y-11494705D02*
X12188622Y-11485181D01*
X12188622Y-11485181D02*
X12179099Y-11466134D01*
X12179099Y-11466134D02*
X12179099Y-11389943D01*
X12179099Y-11389943D02*
X12188622Y-11370895D01*
X12188622Y-11370895D02*
X12207670Y-11361372D01*
X12207670Y-11361372D02*
X12245765Y-11361372D01*
X12245765Y-11361372D02*
X12264813Y-11370895D01*
X12264813Y-11370895D02*
X12274337Y-11389943D01*
X12274337Y-11389943D02*
X12274337Y-11408991D01*
X12274337Y-11408991D02*
X12179099Y-11428038D01*
X12350527Y-11485181D02*
X12369575Y-11494705D01*
X12369575Y-11494705D02*
X12407670Y-11494705D01*
X12407670Y-11494705D02*
X12426718Y-11485181D01*
X12426718Y-11485181D02*
X12436242Y-11466134D01*
X12436242Y-11466134D02*
X12436242Y-11456610D01*
X12436242Y-11456610D02*
X12426718Y-11437562D01*
X12426718Y-11437562D02*
X12407670Y-11428038D01*
X12407670Y-11428038D02*
X12379099Y-11428038D01*
X12379099Y-11428038D02*
X12360051Y-11418515D01*
X12360051Y-11418515D02*
X12350527Y-11399467D01*
X12350527Y-11399467D02*
X12350527Y-11389943D01*
X12350527Y-11389943D02*
X12360051Y-11370895D01*
X12360051Y-11370895D02*
X12379099Y-11361372D01*
X12379099Y-11361372D02*
X12407670Y-11361372D01*
X12407670Y-11361372D02*
X12426718Y-11370895D01*
X12502908Y-11570895D02*
X12512432Y-11561372D01*
X12512432Y-11561372D02*
X12531480Y-11532800D01*
X12531480Y-11532800D02*
X12541003Y-11513753D01*
X12541003Y-11513753D02*
X12550527Y-11485181D01*
X12550527Y-11485181D02*
X12560051Y-11437562D01*
X12560051Y-11437562D02*
X12560051Y-11399467D01*
X12560051Y-11399467D02*
X12550527Y-11351848D01*
X12550527Y-11351848D02*
X12541003Y-11323276D01*
X12541003Y-11323276D02*
X12531480Y-11304229D01*
X12531480Y-11304229D02*
X12512432Y-11275657D01*
X12512432Y-11275657D02*
X12502908Y-11266134D01*
D10*
X7627845Y-11617221D02*
X7727845Y-11717221D01*
X7727845Y-11617221D02*
X7627845Y-11717221D01*
X7727845Y-11667221D02*
G75*
G03*
X7727845Y-11667221I-50000J0D01*
G01*
D11*
X8093384Y-11758705D02*
X7979098Y-11758705D01*
X8036241Y-11758705D02*
X8036241Y-11558705D01*
X8036241Y-11558705D02*
X8017193Y-11587276D01*
X8017193Y-11587276D02*
X7998146Y-11606324D01*
X7998146Y-11606324D02*
X7979098Y-11615848D01*
X8179098Y-11739657D02*
X8188622Y-11749181D01*
X8188622Y-11749181D02*
X8179098Y-11758705D01*
X8179098Y-11758705D02*
X8169574Y-11749181D01*
X8169574Y-11749181D02*
X8179098Y-11739657D01*
X8179098Y-11739657D02*
X8179098Y-11758705D01*
X8312432Y-11558705D02*
X8331479Y-11558705D01*
X8331479Y-11558705D02*
X8350527Y-11568229D01*
X8350527Y-11568229D02*
X8360051Y-11577753D01*
X8360051Y-11577753D02*
X8369574Y-11596800D01*
X8369574Y-11596800D02*
X8379098Y-11634895D01*
X8379098Y-11634895D02*
X8379098Y-11682515D01*
X8379098Y-11682515D02*
X8369574Y-11720610D01*
X8369574Y-11720610D02*
X8360051Y-11739657D01*
X8360051Y-11739657D02*
X8350527Y-11749181D01*
X8350527Y-11749181D02*
X8331479Y-11758705D01*
X8331479Y-11758705D02*
X8312432Y-11758705D01*
X8312432Y-11758705D02*
X8293384Y-11749181D01*
X8293384Y-11749181D02*
X8283860Y-11739657D01*
X8283860Y-11739657D02*
X8274336Y-11720610D01*
X8274336Y-11720610D02*
X8264813Y-11682515D01*
X8264813Y-11682515D02*
X8264813Y-11634895D01*
X8264813Y-11634895D02*
X8274336Y-11596800D01*
X8274336Y-11596800D02*
X8283860Y-11577753D01*
X8283860Y-11577753D02*
X8293384Y-11568229D01*
X8293384Y-11568229D02*
X8312432Y-11558705D01*
X8502908Y-11558705D02*
X8521956Y-11558705D01*
X8521956Y-11558705D02*
X8541003Y-11568229D01*
X8541003Y-11568229D02*
X8550527Y-11577753D01*
X8550527Y-11577753D02*
X8560051Y-11596800D01*
X8560051Y-11596800D02*
X8569575Y-11634895D01*
X8569575Y-11634895D02*
X8569575Y-11682515D01*
X8569575Y-11682515D02*
X8560051Y-11720610D01*
X8560051Y-11720610D02*
X8550527Y-11739657D01*
X8550527Y-11739657D02*
X8541003Y-11749181D01*
X8541003Y-11749181D02*
X8521956Y-11758705D01*
X8521956Y-11758705D02*
X8502908Y-11758705D01*
X8502908Y-11758705D02*
X8483860Y-11749181D01*
X8483860Y-11749181D02*
X8474336Y-11739657D01*
X8474336Y-11739657D02*
X8464813Y-11720610D01*
X8464813Y-11720610D02*
X8455289Y-11682515D01*
X8455289Y-11682515D02*
X8455289Y-11634895D01*
X8455289Y-11634895D02*
X8464813Y-11596800D01*
X8464813Y-11596800D02*
X8474336Y-11577753D01*
X8474336Y-11577753D02*
X8483860Y-11568229D01*
X8483860Y-11568229D02*
X8502908Y-11558705D01*
X8693384Y-11558705D02*
X8712432Y-11558705D01*
X8712432Y-11558705D02*
X8731479Y-11568229D01*
X8731479Y-11568229D02*
X8741003Y-11577753D01*
X8741003Y-11577753D02*
X8750527Y-11596800D01*
X8750527Y-11596800D02*
X8760051Y-11634895D01*
X8760051Y-11634895D02*
X8760051Y-11682515D01*
X8760051Y-11682515D02*
X8750527Y-11720610D01*
X8750527Y-11720610D02*
X8741003Y-11739657D01*
X8741003Y-11739657D02*
X8731479Y-11749181D01*
X8731479Y-11749181D02*
X8712432Y-11758705D01*
X8712432Y-11758705D02*
X8693384Y-11758705D01*
X8693384Y-11758705D02*
X8674336Y-11749181D01*
X8674336Y-11749181D02*
X8664813Y-11739657D01*
X8664813Y-11739657D02*
X8655289Y-11720610D01*
X8655289Y-11720610D02*
X8645765Y-11682515D01*
X8645765Y-11682515D02*
X8645765Y-11634895D01*
X8645765Y-11634895D02*
X8655289Y-11596800D01*
X8655289Y-11596800D02*
X8664813Y-11577753D01*
X8664813Y-11577753D02*
X8674336Y-11568229D01*
X8674336Y-11568229D02*
X8693384Y-11558705D01*
X8845765Y-11758705D02*
X8845765Y-11625372D01*
X8845765Y-11644419D02*
X8855289Y-11634895D01*
X8855289Y-11634895D02*
X8874336Y-11625372D01*
X8874336Y-11625372D02*
X8902908Y-11625372D01*
X8902908Y-11625372D02*
X8921956Y-11634895D01*
X8921956Y-11634895D02*
X8931479Y-11653943D01*
X8931479Y-11653943D02*
X8931479Y-11758705D01*
X8931479Y-11653943D02*
X8941003Y-11634895D01*
X8941003Y-11634895D02*
X8960051Y-11625372D01*
X8960051Y-11625372D02*
X8988622Y-11625372D01*
X8988622Y-11625372D02*
X9007670Y-11634895D01*
X9007670Y-11634895D02*
X9017194Y-11653943D01*
X9017194Y-11653943D02*
X9017194Y-11758705D01*
X9112432Y-11758705D02*
X9112432Y-11625372D01*
X9112432Y-11644419D02*
X9121956Y-11634895D01*
X9121956Y-11634895D02*
X9141003Y-11625372D01*
X9141003Y-11625372D02*
X9169575Y-11625372D01*
X9169575Y-11625372D02*
X9188622Y-11634895D01*
X9188622Y-11634895D02*
X9198146Y-11653943D01*
X9198146Y-11653943D02*
X9198146Y-11758705D01*
X9198146Y-11653943D02*
X9207670Y-11634895D01*
X9207670Y-11634895D02*
X9226717Y-11625372D01*
X9226717Y-11625372D02*
X9255289Y-11625372D01*
X9255289Y-11625372D02*
X9274337Y-11634895D01*
X9274337Y-11634895D02*
X9283860Y-11653943D01*
X9283860Y-11653943D02*
X9283860Y-11758705D01*
X9674337Y-11549181D02*
X9502908Y-11806324D01*
X9931479Y-11558705D02*
X9950527Y-11558705D01*
X9950527Y-11558705D02*
X9969575Y-11568229D01*
X9969575Y-11568229D02*
X9979099Y-11577753D01*
X9979099Y-11577753D02*
X9988622Y-11596800D01*
X9988622Y-11596800D02*
X9998146Y-11634895D01*
X9998146Y-11634895D02*
X9998146Y-11682515D01*
X9998146Y-11682515D02*
X9988622Y-11720610D01*
X9988622Y-11720610D02*
X9979099Y-11739657D01*
X9979099Y-11739657D02*
X9969575Y-11749181D01*
X9969575Y-11749181D02*
X9950527Y-11758705D01*
X9950527Y-11758705D02*
X9931479Y-11758705D01*
X9931479Y-11758705D02*
X9912432Y-11749181D01*
X9912432Y-11749181D02*
X9902908Y-11739657D01*
X9902908Y-11739657D02*
X9893384Y-11720610D01*
X9893384Y-11720610D02*
X9883860Y-11682515D01*
X9883860Y-11682515D02*
X9883860Y-11634895D01*
X9883860Y-11634895D02*
X9893384Y-11596800D01*
X9893384Y-11596800D02*
X9902908Y-11577753D01*
X9902908Y-11577753D02*
X9912432Y-11568229D01*
X9912432Y-11568229D02*
X9931479Y-11558705D01*
X10083860Y-11739657D02*
X10093384Y-11749181D01*
X10093384Y-11749181D02*
X10083860Y-11758705D01*
X10083860Y-11758705D02*
X10074337Y-11749181D01*
X10074337Y-11749181D02*
X10083860Y-11739657D01*
X10083860Y-11739657D02*
X10083860Y-11758705D01*
X10217194Y-11558705D02*
X10236241Y-11558705D01*
X10236241Y-11558705D02*
X10255289Y-11568229D01*
X10255289Y-11568229D02*
X10264813Y-11577753D01*
X10264813Y-11577753D02*
X10274337Y-11596800D01*
X10274337Y-11596800D02*
X10283860Y-11634895D01*
X10283860Y-11634895D02*
X10283860Y-11682515D01*
X10283860Y-11682515D02*
X10274337Y-11720610D01*
X10274337Y-11720610D02*
X10264813Y-11739657D01*
X10264813Y-11739657D02*
X10255289Y-11749181D01*
X10255289Y-11749181D02*
X10236241Y-11758705D01*
X10236241Y-11758705D02*
X10217194Y-11758705D01*
X10217194Y-11758705D02*
X10198146Y-11749181D01*
X10198146Y-11749181D02*
X10188622Y-11739657D01*
X10188622Y-11739657D02*
X10179099Y-11720610D01*
X10179099Y-11720610D02*
X10169575Y-11682515D01*
X10169575Y-11682515D02*
X10169575Y-11634895D01*
X10169575Y-11634895D02*
X10179099Y-11596800D01*
X10179099Y-11596800D02*
X10188622Y-11577753D01*
X10188622Y-11577753D02*
X10198146Y-11568229D01*
X10198146Y-11568229D02*
X10217194Y-11558705D01*
X10350527Y-11558705D02*
X10474337Y-11558705D01*
X10474337Y-11558705D02*
X10407670Y-11634895D01*
X10407670Y-11634895D02*
X10436241Y-11634895D01*
X10436241Y-11634895D02*
X10455289Y-11644419D01*
X10455289Y-11644419D02*
X10464813Y-11653943D01*
X10464813Y-11653943D02*
X10474337Y-11672991D01*
X10474337Y-11672991D02*
X10474337Y-11720610D01*
X10474337Y-11720610D02*
X10464813Y-11739657D01*
X10464813Y-11739657D02*
X10455289Y-11749181D01*
X10455289Y-11749181D02*
X10436241Y-11758705D01*
X10436241Y-11758705D02*
X10379099Y-11758705D01*
X10379099Y-11758705D02*
X10360051Y-11749181D01*
X10360051Y-11749181D02*
X10350527Y-11739657D01*
X10569575Y-11758705D02*
X10607670Y-11758705D01*
X10607670Y-11758705D02*
X10626718Y-11749181D01*
X10626718Y-11749181D02*
X10636241Y-11739657D01*
X10636241Y-11739657D02*
X10655289Y-11711086D01*
X10655289Y-11711086D02*
X10664813Y-11672991D01*
X10664813Y-11672991D02*
X10664813Y-11596800D01*
X10664813Y-11596800D02*
X10655289Y-11577753D01*
X10655289Y-11577753D02*
X10645765Y-11568229D01*
X10645765Y-11568229D02*
X10626718Y-11558705D01*
X10626718Y-11558705D02*
X10588622Y-11558705D01*
X10588622Y-11558705D02*
X10569575Y-11568229D01*
X10569575Y-11568229D02*
X10560051Y-11577753D01*
X10560051Y-11577753D02*
X10550527Y-11596800D01*
X10550527Y-11596800D02*
X10550527Y-11644419D01*
X10550527Y-11644419D02*
X10560051Y-11663467D01*
X10560051Y-11663467D02*
X10569575Y-11672991D01*
X10569575Y-11672991D02*
X10588622Y-11682515D01*
X10588622Y-11682515D02*
X10626718Y-11682515D01*
X10626718Y-11682515D02*
X10645765Y-11672991D01*
X10645765Y-11672991D02*
X10655289Y-11663467D01*
X10655289Y-11663467D02*
X10664813Y-11644419D01*
X10836241Y-11625372D02*
X10836241Y-11758705D01*
X10788622Y-11549181D02*
X10741003Y-11692038D01*
X10741003Y-11692038D02*
X10864813Y-11692038D01*
X10931480Y-11558705D02*
X10931480Y-11596800D01*
X11007670Y-11558705D02*
X11007670Y-11596800D01*
X11302908Y-11834895D02*
X11293384Y-11825372D01*
X11293384Y-11825372D02*
X11274337Y-11796800D01*
X11274337Y-11796800D02*
X11264813Y-11777753D01*
X11264813Y-11777753D02*
X11255289Y-11749181D01*
X11255289Y-11749181D02*
X11245765Y-11701562D01*
X11245765Y-11701562D02*
X11245765Y-11663467D01*
X11245765Y-11663467D02*
X11255289Y-11615848D01*
X11255289Y-11615848D02*
X11264813Y-11587276D01*
X11264813Y-11587276D02*
X11274337Y-11568229D01*
X11274337Y-11568229D02*
X11293384Y-11539657D01*
X11293384Y-11539657D02*
X11302908Y-11530134D01*
X11369575Y-11577753D02*
X11379099Y-11568229D01*
X11379099Y-11568229D02*
X11398146Y-11558705D01*
X11398146Y-11558705D02*
X11445765Y-11558705D01*
X11445765Y-11558705D02*
X11464813Y-11568229D01*
X11464813Y-11568229D02*
X11474337Y-11577753D01*
X11474337Y-11577753D02*
X11483860Y-11596800D01*
X11483860Y-11596800D02*
X11483860Y-11615848D01*
X11483860Y-11615848D02*
X11474337Y-11644419D01*
X11474337Y-11644419D02*
X11360051Y-11758705D01*
X11360051Y-11758705D02*
X11483860Y-11758705D01*
X11721956Y-11758705D02*
X11721956Y-11558705D01*
X11807670Y-11758705D02*
X11807670Y-11653943D01*
X11807670Y-11653943D02*
X11798146Y-11634895D01*
X11798146Y-11634895D02*
X11779099Y-11625372D01*
X11779099Y-11625372D02*
X11750527Y-11625372D01*
X11750527Y-11625372D02*
X11731480Y-11634895D01*
X11731480Y-11634895D02*
X11721956Y-11644419D01*
X11931480Y-11758705D02*
X11912432Y-11749181D01*
X11912432Y-11749181D02*
X11902908Y-11739657D01*
X11902908Y-11739657D02*
X11893384Y-11720610D01*
X11893384Y-11720610D02*
X11893384Y-11663467D01*
X11893384Y-11663467D02*
X11902908Y-11644419D01*
X11902908Y-11644419D02*
X11912432Y-11634895D01*
X11912432Y-11634895D02*
X11931480Y-11625372D01*
X11931480Y-11625372D02*
X11960051Y-11625372D01*
X11960051Y-11625372D02*
X11979099Y-11634895D01*
X11979099Y-11634895D02*
X11988622Y-11644419D01*
X11988622Y-11644419D02*
X11998146Y-11663467D01*
X11998146Y-11663467D02*
X11998146Y-11720610D01*
X11998146Y-11720610D02*
X11988622Y-11739657D01*
X11988622Y-11739657D02*
X11979099Y-11749181D01*
X11979099Y-11749181D02*
X11960051Y-11758705D01*
X11960051Y-11758705D02*
X11931480Y-11758705D01*
X12112432Y-11758705D02*
X12093384Y-11749181D01*
X12093384Y-11749181D02*
X12083861Y-11730134D01*
X12083861Y-11730134D02*
X12083861Y-11558705D01*
X12264813Y-11749181D02*
X12245765Y-11758705D01*
X12245765Y-11758705D02*
X12207670Y-11758705D01*
X12207670Y-11758705D02*
X12188622Y-11749181D01*
X12188622Y-11749181D02*
X12179099Y-11730134D01*
X12179099Y-11730134D02*
X12179099Y-11653943D01*
X12179099Y-11653943D02*
X12188622Y-11634895D01*
X12188622Y-11634895D02*
X12207670Y-11625372D01*
X12207670Y-11625372D02*
X12245765Y-11625372D01*
X12245765Y-11625372D02*
X12264813Y-11634895D01*
X12264813Y-11634895D02*
X12274337Y-11653943D01*
X12274337Y-11653943D02*
X12274337Y-11672991D01*
X12274337Y-11672991D02*
X12179099Y-11692038D01*
X12350527Y-11749181D02*
X12369575Y-11758705D01*
X12369575Y-11758705D02*
X12407670Y-11758705D01*
X12407670Y-11758705D02*
X12426718Y-11749181D01*
X12426718Y-11749181D02*
X12436242Y-11730134D01*
X12436242Y-11730134D02*
X12436242Y-11720610D01*
X12436242Y-11720610D02*
X12426718Y-11701562D01*
X12426718Y-11701562D02*
X12407670Y-11692038D01*
X12407670Y-11692038D02*
X12379099Y-11692038D01*
X12379099Y-11692038D02*
X12360051Y-11682515D01*
X12360051Y-11682515D02*
X12350527Y-11663467D01*
X12350527Y-11663467D02*
X12350527Y-11653943D01*
X12350527Y-11653943D02*
X12360051Y-11634895D01*
X12360051Y-11634895D02*
X12379099Y-11625372D01*
X12379099Y-11625372D02*
X12407670Y-11625372D01*
X12407670Y-11625372D02*
X12426718Y-11634895D01*
X12502908Y-11834895D02*
X12512432Y-11825372D01*
X12512432Y-11825372D02*
X12531480Y-11796800D01*
X12531480Y-11796800D02*
X12541003Y-11777753D01*
X12541003Y-11777753D02*
X12550527Y-11749181D01*
X12550527Y-11749181D02*
X12560051Y-11701562D01*
X12560051Y-11701562D02*
X12560051Y-11663467D01*
X12560051Y-11663467D02*
X12550527Y-11615848D01*
X12550527Y-11615848D02*
X12541003Y-11587276D01*
X12541003Y-11587276D02*
X12531480Y-11568229D01*
X12531480Y-11568229D02*
X12512432Y-11539657D01*
X12512432Y-11539657D02*
X12502908Y-11530134D01*
M02*
