%TF.GenerationSoftware,KiCad,Pcbnew,7.0.6*%
%TF.CreationDate,2023-09-30T16:03:16+02:00*%
%TF.ProjectId,bc546b-astable-multivibrator,62633534-3662-42d6-9173-7461626c652d,0*%
%TF.SameCoordinates,Original*%
%TF.FileFunction,Copper,L2,Bot*%
%TF.FilePolarity,Positive*%
%FSLAX46Y46*%
G04 Gerber Fmt 4.6, Leading zero omitted, Abs format (unit mm)*
G04 Created by KiCad (PCBNEW 7.0.6) date 2023-09-30 16:03:16*
%MOMM*%
%LPD*%
G01*
G04 APERTURE LIST*
%TA.AperFunction,ComponentPad*%
%ADD10R,1.200000X1.200000*%
%TD*%
%TA.AperFunction,ComponentPad*%
%ADD11C,1.200000*%
%TD*%
%TA.AperFunction,ComponentPad*%
%ADD12C,1.400000*%
%TD*%
%TA.AperFunction,ComponentPad*%
%ADD13O,1.400000X1.400000*%
%TD*%
%TA.AperFunction,ComponentPad*%
%ADD14R,1.300000X1.300000*%
%TD*%
%TA.AperFunction,ComponentPad*%
%ADD15C,1.300000*%
%TD*%
%TA.AperFunction,ComponentPad*%
%ADD16R,1.700000X1.700000*%
%TD*%
%TA.AperFunction,ComponentPad*%
%ADD17O,1.700000X1.700000*%
%TD*%
%TA.AperFunction,ComponentPad*%
%ADD18R,1.800000X1.800000*%
%TD*%
%TA.AperFunction,ComponentPad*%
%ADD19C,1.800000*%
%TD*%
%TA.AperFunction,ViaPad*%
%ADD20C,0.800000*%
%TD*%
%TA.AperFunction,Conductor*%
%ADD21C,0.250000*%
%TD*%
%TA.AperFunction,Conductor*%
%ADD22C,0.600000*%
%TD*%
G04 APERTURE END LIST*
D10*
%TO.P,C2,1*%
%TO.N,Net-(D1-A)*%
X99443915Y-76221520D03*
D11*
%TO.P,C2,2*%
%TO.N,Net-(BC546B2-C)*%
X100943915Y-76221520D03*
%TD*%
D12*
%TO.P,R6,1*%
%TO.N,Net-(BC546B2-E)*%
X96006514Y-83921520D03*
D13*
%TO.P,R6,2*%
%TO.N,GND*%
X88386514Y-83921520D03*
%TD*%
D10*
%TO.P,C1,1*%
%TO.N,Net-(D2-A)*%
X104943915Y-76121520D03*
D11*
%TO.P,C1,2*%
%TO.N,Net-(BC546B1-C)*%
X106443915Y-76121520D03*
%TD*%
D12*
%TO.P,R3,1*%
%TO.N,+9V*%
X88356514Y-68621520D03*
D13*
%TO.P,R3,2*%
%TO.N,Net-(BC546B1-C)*%
X95976514Y-68621520D03*
%TD*%
D14*
%TO.P,BC546B1,1,C*%
%TO.N,Net-(BC546B1-C)*%
X104126514Y-60621520D03*
D15*
%TO.P,BC546B1,2,B*%
%TO.N,/I2*%
X105396514Y-59351520D03*
%TO.P,BC546B1,3,E*%
%TO.N,Net-(BC546B1-E)*%
X106666514Y-60621520D03*
%TD*%
D12*
%TO.P,R1,1*%
%TO.N,Net-(D1-A)*%
X95766514Y-58921520D03*
D13*
%TO.P,R1,2*%
%TO.N,+9V*%
X88146514Y-58921520D03*
%TD*%
D12*
%TO.P,R5,1*%
%TO.N,Net-(BC546B1-E)*%
X96006514Y-78841520D03*
D13*
%TO.P,R5,2*%
%TO.N,GND*%
X88386514Y-78841520D03*
%TD*%
D12*
%TO.P,R4,1*%
%TO.N,+9V*%
X88456514Y-73721520D03*
D13*
%TO.P,R4,2*%
%TO.N,Net-(BC546B2-C)*%
X96076514Y-73721520D03*
%TD*%
D16*
%TO.P,BT1,1,+*%
%TO.N,+9V*%
X103591514Y-83221520D03*
D17*
%TO.P,BT1,2,-*%
%TO.N,GND*%
X106131514Y-83221520D03*
%TD*%
D14*
%TO.P,BC546B2,1,C*%
%TO.N,Net-(BC546B2-C)*%
X104026514Y-68721520D03*
D15*
%TO.P,BC546B2,2,B*%
%TO.N,/I1*%
X105296514Y-67451520D03*
%TO.P,BC546B2,3,E*%
%TO.N,Net-(BC546B2-E)*%
X106566514Y-68721520D03*
%TD*%
D18*
%TO.P,D1,1,K*%
%TO.N,/I2*%
X90800000Y-51400000D03*
D19*
%TO.P,D1,2,A*%
%TO.N,Net-(D1-A)*%
X88260000Y-51400000D03*
%TD*%
D18*
%TO.P,D2,1,K*%
%TO.N,/I1*%
X104466514Y-51221520D03*
D19*
%TO.P,D2,2,A*%
%TO.N,Net-(D2-A)*%
X107006514Y-51221520D03*
%TD*%
D12*
%TO.P,R2,1*%
%TO.N,Net-(D2-A)*%
X95866514Y-63821520D03*
D13*
%TO.P,R2,2*%
%TO.N,+9V*%
X88246514Y-63821520D03*
%TD*%
D20*
%TO.N,Net-(BC546B1-C)*%
X99700000Y-68600000D03*
X103900000Y-73900000D03*
%TO.N,Net-(BC546B1-E)*%
X102500000Y-72400000D03*
%TO.N,GND*%
X100200000Y-70900000D03*
X106400000Y-80700000D03*
X101800000Y-50400000D03*
X100100000Y-54900000D03*
X88800000Y-81100000D03*
X94400000Y-71000000D03*
X101400000Y-62300000D03*
X87100000Y-76100000D03*
X107100000Y-90300000D03*
X94100000Y-61400000D03*
X93500000Y-50100000D03*
X99400000Y-59500000D03*
X95000000Y-76500000D03*
X93900000Y-66100000D03*
X107600000Y-72000000D03*
X97900000Y-80000000D03*
X87800000Y-90400000D03*
X88800000Y-56700000D03*
%TO.N,Net-(D1-A)*%
X97400000Y-66100000D03*
%TD*%
D21*
%TO.N,Net-(BC546B1-C)*%
X103900000Y-71181402D02*
X101318598Y-68600000D01*
X103900000Y-73900000D02*
X103900000Y-71181402D01*
X101318598Y-68600000D02*
X99700000Y-68600000D01*
%TO.N,Net-(BC546B1-E)*%
X102500000Y-72400000D02*
X102500000Y-78000000D01*
X102500000Y-78000000D02*
X101658480Y-78841520D01*
X101658480Y-78841520D02*
X96006514Y-78841520D01*
D22*
%TO.N,+9V*%
X103000000Y-81100000D02*
X92800000Y-81100000D01*
X92800000Y-81100000D02*
X88456514Y-76756514D01*
X88456514Y-76756514D02*
X88456514Y-73721520D01*
X103591514Y-81691514D02*
X103000000Y-81100000D01*
X103591514Y-83221520D02*
X103591514Y-81691514D01*
D21*
%TO.N,Net-(D2-A)*%
X95866514Y-63821520D02*
X97378480Y-63821520D01*
X103253480Y-69696520D02*
X104943915Y-71386955D01*
X97378480Y-63821520D02*
X103051514Y-69494554D01*
X103051514Y-69494554D02*
X103051514Y-69696520D01*
X103051514Y-69696520D02*
X103253480Y-69696520D01*
X97378480Y-63821520D02*
X107006514Y-54193486D01*
X104943915Y-71386955D02*
X104943915Y-76121520D01*
X107006514Y-54193486D02*
X107006514Y-51221520D01*
%TO.N,Net-(D1-A)*%
X97400000Y-75300000D02*
X98321520Y-76221520D01*
X98321520Y-76221520D02*
X99443915Y-76221520D01*
X97400000Y-66100000D02*
X97400000Y-75300000D01*
%TD*%
%TA.AperFunction,Conductor*%
%TO.N,GND*%
G36*
X98481506Y-65811848D02*
G01*
X98498225Y-65825855D01*
X100284379Y-67612009D01*
X100317864Y-67673332D01*
X100312880Y-67743024D01*
X100271008Y-67798957D01*
X100205544Y-67823374D01*
X100146262Y-67812969D01*
X99979807Y-67738857D01*
X99979802Y-67738855D01*
X99834000Y-67707865D01*
X99794646Y-67699500D01*
X99605354Y-67699500D01*
X99572897Y-67706398D01*
X99420197Y-67738855D01*
X99420192Y-67738857D01*
X99247270Y-67815848D01*
X99247265Y-67815851D01*
X99094129Y-67927111D01*
X98967466Y-68067785D01*
X98872821Y-68231715D01*
X98872818Y-68231722D01*
X98818147Y-68399984D01*
X98814326Y-68411744D01*
X98794540Y-68600000D01*
X98814326Y-68788256D01*
X98814327Y-68788259D01*
X98872818Y-68968277D01*
X98872821Y-68968284D01*
X98967467Y-69132216D01*
X99069185Y-69245185D01*
X99094129Y-69272888D01*
X99247265Y-69384148D01*
X99247270Y-69384151D01*
X99420192Y-69461142D01*
X99420197Y-69461144D01*
X99605354Y-69500500D01*
X99605355Y-69500500D01*
X99794644Y-69500500D01*
X99794646Y-69500500D01*
X99979803Y-69461144D01*
X100152730Y-69384151D01*
X100305871Y-69272888D01*
X100308788Y-69269647D01*
X100311600Y-69266526D01*
X100371087Y-69229879D01*
X100403748Y-69225500D01*
X101008146Y-69225500D01*
X101075185Y-69245185D01*
X101095827Y-69261819D01*
X103238181Y-71404173D01*
X103271666Y-71465496D01*
X103274500Y-71491854D01*
X103274500Y-71606264D01*
X103254815Y-71673303D01*
X103202011Y-71719058D01*
X103132853Y-71729002D01*
X103077615Y-71706582D01*
X102952734Y-71615851D01*
X102952729Y-71615848D01*
X102779807Y-71538857D01*
X102779802Y-71538855D01*
X102634001Y-71507865D01*
X102594646Y-71499500D01*
X102405354Y-71499500D01*
X102372897Y-71506398D01*
X102220197Y-71538855D01*
X102220192Y-71538857D01*
X102047270Y-71615848D01*
X102047265Y-71615851D01*
X101894129Y-71727111D01*
X101767466Y-71867785D01*
X101672821Y-72031715D01*
X101672818Y-72031722D01*
X101614327Y-72211740D01*
X101614326Y-72211744D01*
X101594540Y-72400000D01*
X101614326Y-72588256D01*
X101614327Y-72588259D01*
X101672818Y-72768277D01*
X101672821Y-72768284D01*
X101767467Y-72932216D01*
X101842649Y-73015714D01*
X101872879Y-73078705D01*
X101874499Y-73098686D01*
X101874499Y-75299869D01*
X101854814Y-75366908D01*
X101802010Y-75412663D01*
X101732852Y-75422607D01*
X101669296Y-75393582D01*
X101667005Y-75391546D01*
X101609956Y-75339539D01*
X101609953Y-75339537D01*
X101609952Y-75339536D01*
X101436557Y-75232175D01*
X101436550Y-75232171D01*
X101341461Y-75195334D01*
X101246371Y-75158496D01*
X101045891Y-75121020D01*
X100841939Y-75121020D01*
X100641459Y-75158496D01*
X100641456Y-75158496D01*
X100641456Y-75158497D01*
X100591825Y-75177724D01*
X100489784Y-75217255D01*
X100454541Y-75230908D01*
X100384917Y-75236770D01*
X100335436Y-75214547D01*
X100286250Y-75177726D01*
X100286243Y-75177722D01*
X100151397Y-75127428D01*
X100151398Y-75127428D01*
X100091798Y-75121021D01*
X100091796Y-75121020D01*
X100091788Y-75121020D01*
X100091779Y-75121020D01*
X98796044Y-75121020D01*
X98796038Y-75121021D01*
X98736431Y-75127428D01*
X98601586Y-75177722D01*
X98601579Y-75177726D01*
X98486370Y-75263972D01*
X98486367Y-75263975D01*
X98470320Y-75285412D01*
X98414386Y-75327283D01*
X98344695Y-75332267D01*
X98283373Y-75298782D01*
X98061819Y-75077228D01*
X98028334Y-75015905D01*
X98025500Y-74989547D01*
X98025500Y-66798687D01*
X98045185Y-66731648D01*
X98057350Y-66715715D01*
X98075891Y-66695122D01*
X98132533Y-66632216D01*
X98227179Y-66468284D01*
X98285674Y-66288256D01*
X98305460Y-66100000D01*
X98287224Y-65926492D01*
X98299792Y-65857768D01*
X98347524Y-65806744D01*
X98415264Y-65789626D01*
X98481506Y-65811848D01*
G37*
%TD.AperFunction*%
%TA.AperFunction,Conductor*%
G36*
X83135272Y-39692651D02*
G01*
X83139007Y-39692831D01*
X83349073Y-39709382D01*
X83601339Y-39734984D01*
X83605189Y-39735497D01*
X83812175Y-39769754D01*
X83983753Y-39801858D01*
X84062204Y-39816537D01*
X84066089Y-39817393D01*
X84223394Y-39857459D01*
X84268336Y-39868906D01*
X84298336Y-39877170D01*
X84514580Y-39936739D01*
X84518476Y-39937951D01*
X84714261Y-40006060D01*
X84955228Y-40094741D01*
X84959044Y-40096293D01*
X85146801Y-40180177D01*
X85380942Y-40289397D01*
X85384693Y-40291308D01*
X85562860Y-40389928D01*
X85703696Y-40470622D01*
X85788671Y-40519310D01*
X85792392Y-40521620D01*
X85959420Y-40633681D01*
X86175567Y-40782869D01*
X86179138Y-40785529D01*
X86315439Y-40894924D01*
X86333569Y-40909475D01*
X86538806Y-41078163D01*
X86542229Y-41081194D01*
X86682540Y-41215009D01*
X86875843Y-41403123D01*
X86879042Y-41406479D01*
X86951579Y-41488567D01*
X87003677Y-41547526D01*
X87184223Y-41755395D01*
X87187207Y-41759110D01*
X87294415Y-41903606D01*
X87461754Y-42132474D01*
X87464467Y-42136507D01*
X87552111Y-42278520D01*
X87706455Y-42531676D01*
X87708851Y-42535986D01*
X87773531Y-42664093D01*
X87916547Y-42950108D01*
X87918621Y-42954716D01*
X87951816Y-43037303D01*
X88089924Y-43383242D01*
X88091647Y-43388146D01*
X88226293Y-43829654D01*
X88226394Y-43830040D01*
X88235518Y-43865090D01*
X88236369Y-43868832D01*
X88264902Y-44015005D01*
X88264903Y-44015012D01*
X88333026Y-44249622D01*
X88350029Y-44318465D01*
X88356439Y-44330254D01*
X88370649Y-44379194D01*
X88370652Y-44379202D01*
X88481020Y-44661673D01*
X88494222Y-44698875D01*
X88497420Y-44703649D01*
X88508663Y-44732423D01*
X88508665Y-44732428D01*
X88677821Y-45071818D01*
X88677827Y-45071829D01*
X88876766Y-45394665D01*
X88876775Y-45394678D01*
X89103888Y-45698350D01*
X89103893Y-45698356D01*
X89169831Y-45771734D01*
X89357360Y-45980424D01*
X89357363Y-45980427D01*
X89357366Y-45980430D01*
X89357367Y-45980431D01*
X89429213Y-46047210D01*
X89635125Y-46238602D01*
X89842304Y-46399056D01*
X89934945Y-46470804D01*
X89960958Y-46487444D01*
X89963942Y-46490873D01*
X89998906Y-46511719D01*
X90254398Y-46675153D01*
X90254401Y-46675155D01*
X90254405Y-46675157D01*
X90299633Y-46698657D01*
X90307264Y-46705980D01*
X90374068Y-46737333D01*
X90590906Y-46850001D01*
X90590911Y-46850003D01*
X90590913Y-46850004D01*
X90731476Y-46907681D01*
X90731667Y-46907834D01*
X90754727Y-46917247D01*
X90754904Y-46917341D01*
X90765758Y-46921750D01*
X90773909Y-46925077D01*
X90773947Y-46925093D01*
X90774886Y-46925477D01*
X90792121Y-46921976D01*
X104261545Y-46900560D01*
X104276872Y-46905034D01*
X104290930Y-46902290D01*
X104290971Y-46902293D01*
X104291436Y-46902191D01*
X104300097Y-46900500D01*
X104300098Y-46900501D01*
X104486197Y-46864176D01*
X104720563Y-46796125D01*
X104789483Y-46779102D01*
X104801290Y-46772684D01*
X104850377Y-46758432D01*
X105132502Y-46648200D01*
X105169874Y-46634937D01*
X105174676Y-46631722D01*
X105203595Y-46620423D01*
X105542998Y-46451264D01*
X105865845Y-46252320D01*
X106169530Y-46025198D01*
X106451601Y-45771731D01*
X106709779Y-45493967D01*
X106790854Y-45389283D01*
X110612301Y-45389283D01*
X110641927Y-45658533D01*
X110641929Y-45658544D01*
X110710440Y-45920602D01*
X110710442Y-45920608D01*
X110816384Y-46169910D01*
X110915396Y-46332146D01*
X110957493Y-46401125D01*
X110957500Y-46401135D01*
X111130767Y-46609339D01*
X111130773Y-46609344D01*
X111159337Y-46634937D01*
X111332512Y-46790102D01*
X111558424Y-46939564D01*
X111803690Y-47054540D01*
X111803697Y-47054542D01*
X111803699Y-47054543D01*
X112063071Y-47132577D01*
X112063078Y-47132578D01*
X112063083Y-47132580D01*
X112331075Y-47172020D01*
X112331080Y-47172020D01*
X112534150Y-47172020D01*
X112585647Y-47168250D01*
X112736670Y-47157197D01*
X112849272Y-47132113D01*
X113001060Y-47098302D01*
X113001062Y-47098301D01*
X113001067Y-47098300D01*
X113254072Y-47001534D01*
X113490291Y-46868961D01*
X113704691Y-46703408D01*
X113892700Y-46508401D01*
X114050313Y-46288099D01*
X114124301Y-46144189D01*
X114174163Y-46047210D01*
X114174165Y-46047204D01*
X114174170Y-46047195D01*
X114261632Y-45790825D01*
X114310833Y-45524453D01*
X114320726Y-45253755D01*
X114291100Y-44984502D01*
X114222586Y-44722432D01*
X114116644Y-44473130D01*
X113975532Y-44241910D01*
X113938021Y-44196836D01*
X113802260Y-44033700D01*
X113802254Y-44033695D01*
X113600516Y-43852938D01*
X113374606Y-43703477D01*
X113342657Y-43688500D01*
X113129338Y-43588500D01*
X113129333Y-43588498D01*
X113129328Y-43588496D01*
X112869956Y-43510462D01*
X112869942Y-43510459D01*
X112754305Y-43493441D01*
X112601953Y-43471020D01*
X112398883Y-43471020D01*
X112398878Y-43471020D01*
X112196358Y-43485843D01*
X112196345Y-43485845D01*
X111931967Y-43544737D01*
X111931960Y-43544740D01*
X111678953Y-43641507D01*
X111442740Y-43774077D01*
X111228336Y-43939632D01*
X111040336Y-44134629D01*
X111040330Y-44134636D01*
X110882716Y-44354939D01*
X110882713Y-44354944D01*
X110758864Y-44595829D01*
X110758857Y-44595847D01*
X110671398Y-44852205D01*
X110671395Y-44852219D01*
X110622195Y-45118588D01*
X110622194Y-45118595D01*
X110612301Y-45389283D01*
X106790854Y-45389283D01*
X106941981Y-45194148D01*
X106958710Y-45167995D01*
X106962152Y-45165000D01*
X106983077Y-45129903D01*
X107146331Y-44874695D01*
X107169896Y-44829341D01*
X107177240Y-44821687D01*
X107208646Y-44754764D01*
X107321179Y-44538187D01*
X107379329Y-44396469D01*
X107389698Y-44383412D01*
X107390875Y-44376416D01*
X107398459Y-44349864D01*
X107401978Y-44341295D01*
X107400574Y-44328455D01*
X107401384Y-44324326D01*
X107414380Y-44263523D01*
X107484830Y-43933915D01*
X107486161Y-43928778D01*
X107502861Y-43874079D01*
X107589053Y-43591764D01*
X107614387Y-43509517D01*
X107616083Y-43504727D01*
X107729039Y-43223610D01*
X107780724Y-43096501D01*
X107782803Y-43091929D01*
X107909620Y-42840919D01*
X107982152Y-42699392D01*
X107984544Y-42695150D01*
X108125988Y-42466284D01*
X108217125Y-42321237D01*
X108219865Y-42317235D01*
X108248649Y-42278520D01*
X108375812Y-42107482D01*
X108483925Y-41964788D01*
X108486897Y-41961164D01*
X108656752Y-41769468D01*
X108780532Y-41632754D01*
X108783713Y-41629495D01*
X108966602Y-41455673D01*
X109104688Y-41327648D01*
X109108107Y-41324703D01*
X109302925Y-41169011D01*
X109454022Y-41051691D01*
X109457566Y-41049138D01*
X109663191Y-40911911D01*
X109825879Y-40806985D01*
X109829522Y-40804812D01*
X110044594Y-40686552D01*
X110217495Y-40595343D01*
X110221198Y-40593548D01*
X110444290Y-40494726D01*
X110625908Y-40418363D01*
X110629678Y-40416924D01*
X110859299Y-40337955D01*
X111048068Y-40277357D01*
X111051862Y-40276274D01*
X111286431Y-40217504D01*
X111480830Y-40173373D01*
X111484606Y-40172641D01*
X111722597Y-40134297D01*
X111920912Y-40107194D01*
X111924652Y-40106800D01*
X112164352Y-40089031D01*
X112365081Y-40079301D01*
X112368785Y-40079234D01*
X112608527Y-40082052D01*
X112809991Y-40089907D01*
X112813526Y-40090148D01*
X113051737Y-40113449D01*
X113252274Y-40138926D01*
X113255698Y-40139460D01*
X113490648Y-40183004D01*
X113688664Y-40225990D01*
X113691895Y-40226784D01*
X113921963Y-40290210D01*
X114115846Y-40350432D01*
X114118964Y-40351493D01*
X114342468Y-40434283D01*
X114530682Y-40511332D01*
X114533615Y-40512624D01*
X114749008Y-40614158D01*
X114930057Y-40707485D01*
X114932747Y-40708959D01*
X115138537Y-40828501D01*
X115310934Y-40937392D01*
X115313401Y-40939035D01*
X115497042Y-41067932D01*
X115508115Y-41075704D01*
X115670495Y-41199339D01*
X115672772Y-41201158D01*
X115854991Y-41353939D01*
X116006069Y-41491374D01*
X116008105Y-41493313D01*
X116176564Y-41661132D01*
X116316041Y-41812283D01*
X116387503Y-41896858D01*
X116470417Y-41994988D01*
X116596164Y-42157732D01*
X116722196Y-42335846D01*
X116733509Y-42351833D01*
X116735081Y-42354165D01*
X116845374Y-42526066D01*
X116965597Y-42731228D01*
X116967011Y-42733776D01*
X117061808Y-42914513D01*
X117164057Y-43129300D01*
X117165287Y-43132054D01*
X117243861Y-43320173D01*
X117327369Y-43543008D01*
X117328390Y-43545954D01*
X117390184Y-43740024D01*
X117454336Y-43969316D01*
X117455123Y-43972438D01*
X117499678Y-44170875D01*
X117543998Y-44405041D01*
X117544528Y-44408321D01*
X117571547Y-44609552D01*
X117595672Y-44846886D01*
X117595925Y-44850302D01*
X117605257Y-45052721D01*
X117608973Y-45291561D01*
X117608928Y-45295088D01*
X117600575Y-45497090D01*
X117583794Y-45735761D01*
X117583434Y-45739372D01*
X117557555Y-45939296D01*
X117520324Y-46176118D01*
X117519633Y-46179786D01*
X117476538Y-46376071D01*
X117419027Y-46609375D01*
X117417995Y-46613067D01*
X117358163Y-46804105D01*
X117280658Y-47032286D01*
X117279274Y-47035971D01*
X117203351Y-47220193D01*
X117106256Y-47441656D01*
X117104515Y-47445300D01*
X117013275Y-47621277D01*
X116897120Y-47834435D01*
X116895019Y-47838002D01*
X116789437Y-48004290D01*
X116654807Y-48207695D01*
X116652345Y-48211152D01*
X116533586Y-48366365D01*
X116381126Y-48558633D01*
X116378308Y-48561941D01*
X116247729Y-48704802D01*
X116078144Y-48884597D01*
X116074979Y-48887721D01*
X115934118Y-49017088D01*
X115748095Y-49183184D01*
X115744592Y-49186088D01*
X115595329Y-49300855D01*
X115393464Y-49452133D01*
X115389639Y-49454782D01*
X115234207Y-49553991D01*
X115016910Y-49689430D01*
X115012782Y-49691788D01*
X114853965Y-49774611D01*
X114621230Y-49893307D01*
X114616821Y-49895342D01*
X114458541Y-49961016D01*
X114348033Y-50005909D01*
X114209390Y-50062231D01*
X114204725Y-50063912D01*
X114052908Y-50111857D01*
X113784481Y-50194928D01*
X113779588Y-50196226D01*
X113645430Y-50226015D01*
X113349666Y-50290408D01*
X113344580Y-50291295D01*
X113259022Y-50302578D01*
X112909827Y-50347742D01*
X112904529Y-50348197D01*
X112511468Y-50365061D01*
X112498565Y-50361866D01*
X112476252Y-50365455D01*
X112456563Y-50367028D01*
X112443099Y-50367028D01*
X112434494Y-50371977D01*
X112425527Y-50373789D01*
X112275773Y-50398341D01*
X112212417Y-50414858D01*
X112037354Y-50460496D01*
X111967335Y-50475664D01*
X111954879Y-50481997D01*
X111901837Y-50495824D01*
X111901816Y-50495831D01*
X111614435Y-50599975D01*
X111575987Y-50612513D01*
X111570859Y-50615766D01*
X111538509Y-50627489D01*
X111538506Y-50627491D01*
X111316818Y-50731942D01*
X111188912Y-50792206D01*
X110856084Y-50988540D01*
X110856079Y-50988543D01*
X110542827Y-51214836D01*
X110251858Y-51469132D01*
X109985652Y-51749269D01*
X109985646Y-51749276D01*
X109746509Y-52052824D01*
X109727801Y-52081715D01*
X109724163Y-52084845D01*
X109702617Y-52120610D01*
X109536474Y-52377201D01*
X109536464Y-52377218D01*
X109511068Y-52425765D01*
X109503374Y-52433737D01*
X109471535Y-52501338D01*
X109357349Y-52719614D01*
X109298284Y-52863528D01*
X109298128Y-52863722D01*
X109288687Y-52886850D01*
X109288444Y-52887310D01*
X109284065Y-52898173D01*
X109281264Y-52905030D01*
X109281264Y-52905034D01*
X109280574Y-52906722D01*
X109284069Y-52923862D01*
X109434025Y-84143691D01*
X109431564Y-84152223D01*
X109434118Y-84188218D01*
X109434261Y-84191697D01*
X109434513Y-84193624D01*
X109445106Y-84336682D01*
X109445106Y-84336684D01*
X109477984Y-84509400D01*
X109478515Y-84512660D01*
X109489049Y-84590311D01*
X109496882Y-84608667D01*
X109500099Y-84625566D01*
X109500102Y-84625576D01*
X109560339Y-84818741D01*
X109561120Y-84821463D01*
X109578319Y-84887006D01*
X109585593Y-84899726D01*
X109587640Y-84906290D01*
X109587644Y-84906299D01*
X109664982Y-85081138D01*
X109683387Y-85122745D01*
X109702328Y-85170389D01*
X109703972Y-85172598D01*
X109704988Y-85172078D01*
X109706600Y-85175223D01*
X109706603Y-85175230D01*
X109707807Y-85177282D01*
X109848831Y-85417620D01*
X109854393Y-85427795D01*
X109855218Y-85428583D01*
X109967928Y-85578452D01*
X110032173Y-85663878D01*
X110035504Y-85667390D01*
X110037865Y-85670248D01*
X110039091Y-85671172D01*
X110234542Y-85877231D01*
X110234545Y-85877234D01*
X110247715Y-85888274D01*
X110249436Y-85889917D01*
X110250231Y-85890383D01*
X110427170Y-86038701D01*
X110427169Y-86038701D01*
X110449273Y-86057229D01*
X110459907Y-86066143D01*
X110484778Y-86082561D01*
X110485428Y-86083050D01*
X110485696Y-86083167D01*
X110554689Y-86128711D01*
X110679537Y-86211127D01*
X110679663Y-86211277D01*
X110680452Y-86211731D01*
X110705323Y-86228149D01*
X110949342Y-86351883D01*
X110949792Y-86352306D01*
X110952264Y-86353365D01*
X110967592Y-86361137D01*
X110967598Y-86361140D01*
X111233885Y-86459887D01*
X111234710Y-86460502D01*
X111238767Y-86461698D01*
X111241750Y-86462803D01*
X111243317Y-86463385D01*
X111528889Y-86533553D01*
X111528893Y-86533553D01*
X111529225Y-86533635D01*
X111529938Y-86534049D01*
X111541703Y-86535186D01*
X111820595Y-86570730D01*
X111820596Y-86570730D01*
X111824127Y-86570977D01*
X111823997Y-86572828D01*
X111877992Y-86571452D01*
X112086260Y-86574073D01*
X112114631Y-86574431D01*
X112114631Y-86574430D01*
X112114638Y-86574431D01*
X112121470Y-86573734D01*
X112132983Y-86575876D01*
X112203053Y-86565482D01*
X112205832Y-86565134D01*
X112407188Y-86544609D01*
X112423968Y-86540931D01*
X112439853Y-86542041D01*
X112519457Y-86520092D01*
X112522644Y-86519303D01*
X112694436Y-86481652D01*
X112807060Y-86443078D01*
X112861121Y-86437169D01*
X113283155Y-86484733D01*
X113288371Y-86485550D01*
X113630960Y-86554340D01*
X113732726Y-86575048D01*
X113737716Y-86576282D01*
X114029131Y-86661371D01*
X114145535Y-86695903D01*
X114173957Y-86704335D01*
X114178747Y-86705971D01*
X114263226Y-86738739D01*
X114443266Y-86808574D01*
X114566067Y-86857058D01*
X114602305Y-86871366D01*
X114606837Y-86873367D01*
X114851716Y-86993458D01*
X115014584Y-87074899D01*
X115018809Y-87077223D01*
X115182151Y-87175552D01*
X115246417Y-87214239D01*
X115407631Y-87313376D01*
X115411573Y-87316013D01*
X115484214Y-87368732D01*
X115622688Y-87469230D01*
X115773653Y-87581390D01*
X115778515Y-87585003D01*
X115782129Y-87587903D01*
X115976661Y-87756376D01*
X116124458Y-87887745D01*
X116127723Y-87890867D01*
X116247660Y-88014276D01*
X116305287Y-88073571D01*
X116442841Y-88219306D01*
X116445759Y-88222628D01*
X116605719Y-88418343D01*
X116731291Y-88577208D01*
X116733839Y-88580672D01*
X116822356Y-88710259D01*
X116875503Y-88788065D01*
X116987629Y-88958750D01*
X116989820Y-88962344D01*
X117112505Y-89179962D01*
X117209919Y-89361030D01*
X117211742Y-89364705D01*
X117314863Y-89591094D01*
X117396516Y-89781071D01*
X117397975Y-89784791D01*
X117442640Y-89910459D01*
X117478181Y-90010459D01*
X117480984Y-90018344D01*
X117546000Y-90215671D01*
X117547101Y-90219401D01*
X117609577Y-90458517D01*
X117657262Y-90661595D01*
X117658014Y-90665301D01*
X117699630Y-90908276D01*
X117729454Y-91115424D01*
X117729870Y-91119076D01*
X117750440Y-91364253D01*
X117762050Y-91573794D01*
X117762145Y-91577363D01*
X117761598Y-91823005D01*
X117754803Y-92033257D01*
X117754595Y-92036714D01*
X117732997Y-92281072D01*
X117707775Y-92490328D01*
X117707284Y-92493649D01*
X117664841Y-92734989D01*
X117621320Y-92941606D01*
X117620567Y-92944767D01*
X117557624Y-93181366D01*
X117496103Y-93383643D01*
X117495113Y-93386626D01*
X117412141Y-93616826D01*
X117333062Y-93813158D01*
X117331860Y-93815946D01*
X117229477Y-94038090D01*
X117133436Y-94226908D01*
X117132046Y-94229487D01*
X117011003Y-94441978D01*
X116898713Y-94621804D01*
X116897164Y-94624163D01*
X116758350Y-94825454D01*
X116709065Y-94890848D01*
X116629881Y-94995915D01*
X116473390Y-95185656D01*
X116330516Y-95344191D01*
X116159297Y-95518803D01*
X116157274Y-95520773D01*
X116002112Y-95665226D01*
X115816542Y-95824496D01*
X115814274Y-95826351D01*
X115647178Y-95956576D01*
X115448584Y-96099360D01*
X115446076Y-96101072D01*
X115268377Y-96216071D01*
X115058178Y-96341333D01*
X115055438Y-96342873D01*
X114868581Y-96441756D01*
X114648241Y-96548599D01*
X114645280Y-96549940D01*
X114450754Y-96631972D01*
X114221887Y-96719573D01*
X114218722Y-96720687D01*
X114018099Y-96785269D01*
X113782317Y-96852975D01*
X113778963Y-96853838D01*
X113573851Y-96900520D01*
X113332804Y-96947805D01*
X113329283Y-96948391D01*
X113121375Y-96976870D01*
X112876752Y-97003338D01*
X112873087Y-97003625D01*
X112664060Y-97013768D01*
X112600774Y-97015150D01*
X112417569Y-97019153D01*
X112413795Y-97019121D01*
X112205378Y-97010955D01*
X112086673Y-97003338D01*
X111958736Y-96995128D01*
X111954870Y-96994758D01*
X111748776Y-96968482D01*
X111503684Y-96931438D01*
X111499762Y-96930715D01*
X111431839Y-96915921D01*
X111297708Y-96886706D01*
X111055836Y-96828554D01*
X111051882Y-96827464D01*
X110855556Y-96766281D01*
X110618597Y-96687263D01*
X110614652Y-96685797D01*
X110425676Y-96608172D01*
X110195199Y-96508602D01*
X110191299Y-96506753D01*
X110011385Y-96413682D01*
X109788870Y-96293928D01*
X109785053Y-96291695D01*
X109615771Y-96184369D01*
X109402646Y-96044842D01*
X109398951Y-96042224D01*
X109241877Y-95922148D01*
X109039422Y-95763200D01*
X109035886Y-95760204D01*
X109030951Y-95755695D01*
X108892614Y-95629293D01*
X108872549Y-95610544D01*
X108701962Y-95451142D01*
X108698655Y-95447806D01*
X108578361Y-95316802D01*
X108570672Y-95308428D01*
X108392829Y-95111038D01*
X108389726Y-95107312D01*
X108304131Y-94995915D01*
X108278739Y-94962869D01*
X108257519Y-94934806D01*
X108114290Y-94745386D01*
X108111466Y-94741324D01*
X108019520Y-94597086D01*
X108005127Y-94574205D01*
X107868466Y-94356950D01*
X107865971Y-94352598D01*
X107796247Y-94218626D01*
X107742363Y-94113994D01*
X107657225Y-93948674D01*
X107655068Y-93944022D01*
X107617380Y-93852909D01*
X107615359Y-93848022D01*
X107482646Y-93524831D01*
X107480836Y-93519820D01*
X107351159Y-93106048D01*
X107345484Y-93068965D01*
X107345484Y-93065695D01*
X107338755Y-93053372D01*
X107338218Y-93050768D01*
X107309155Y-92901867D01*
X107309153Y-92901859D01*
X107309150Y-92901843D01*
X107241251Y-92667997D01*
X107224169Y-92598833D01*
X107217729Y-92586984D01*
X107203409Y-92537666D01*
X107203405Y-92537654D01*
X107115385Y-92312373D01*
X107093430Y-92256182D01*
X107080048Y-92218470D01*
X107076801Y-92213620D01*
X107065402Y-92184444D01*
X106896245Y-91845041D01*
X106861886Y-91789283D01*
X110612301Y-91789283D01*
X110641927Y-92058533D01*
X110641929Y-92058544D01*
X110702658Y-92290834D01*
X110710442Y-92320608D01*
X110816384Y-92569910D01*
X110957493Y-92801125D01*
X110957500Y-92801135D01*
X111130767Y-93009339D01*
X111130773Y-93009344D01*
X111215980Y-93085689D01*
X111332512Y-93190102D01*
X111558424Y-93339564D01*
X111803690Y-93454540D01*
X111803697Y-93454542D01*
X111803699Y-93454543D01*
X112063071Y-93532577D01*
X112063078Y-93532578D01*
X112063083Y-93532580D01*
X112331075Y-93572020D01*
X112331080Y-93572020D01*
X112534150Y-93572020D01*
X112585647Y-93568250D01*
X112736670Y-93557197D01*
X112881966Y-93524831D01*
X113001060Y-93498302D01*
X113001062Y-93498301D01*
X113001067Y-93498300D01*
X113254072Y-93401534D01*
X113490291Y-93268961D01*
X113704691Y-93103408D01*
X113892700Y-92908401D01*
X114050313Y-92688099D01*
X114139764Y-92514116D01*
X114174163Y-92447210D01*
X114174165Y-92447204D01*
X114174170Y-92447195D01*
X114261632Y-92190825D01*
X114310833Y-91924453D01*
X114320726Y-91653755D01*
X114291100Y-91384502D01*
X114222586Y-91122432D01*
X114116644Y-90873130D01*
X113975532Y-90641910D01*
X113934102Y-90592126D01*
X113802260Y-90433700D01*
X113802254Y-90433695D01*
X113600516Y-90252938D01*
X113374606Y-90103477D01*
X113342657Y-90088500D01*
X113129338Y-89988500D01*
X113129333Y-89988498D01*
X113129328Y-89988496D01*
X112869956Y-89910462D01*
X112869942Y-89910459D01*
X112754305Y-89893441D01*
X112601953Y-89871020D01*
X112398883Y-89871020D01*
X112398878Y-89871020D01*
X112196358Y-89885843D01*
X112196345Y-89885845D01*
X111931967Y-89944737D01*
X111931960Y-89944740D01*
X111678953Y-90041507D01*
X111442740Y-90174077D01*
X111442738Y-90174078D01*
X111442737Y-90174079D01*
X111429042Y-90184654D01*
X111228336Y-90339632D01*
X111040336Y-90534629D01*
X111040330Y-90534636D01*
X110882716Y-90754939D01*
X110882713Y-90754944D01*
X110758864Y-90995829D01*
X110758857Y-90995847D01*
X110671398Y-91252205D01*
X110671395Y-91252219D01*
X110622195Y-91518588D01*
X110622194Y-91518595D01*
X110612301Y-91789283D01*
X106861886Y-91789283D01*
X106697303Y-91522193D01*
X106594321Y-91384495D01*
X106470194Y-91218522D01*
X106470190Y-91218517D01*
X106470183Y-91218508D01*
X106270103Y-90995847D01*
X106216716Y-90936434D01*
X105938964Y-90678263D01*
X105938956Y-90678257D01*
X105639136Y-90446053D01*
X105639135Y-90446052D01*
X105612743Y-90429170D01*
X105609715Y-90425691D01*
X105574240Y-90404540D01*
X105319686Y-90241705D01*
X105319686Y-90241704D01*
X105274113Y-90218025D01*
X105266419Y-90210642D01*
X105199216Y-90179108D01*
X104983176Y-90066854D01*
X104807989Y-89994969D01*
X104807955Y-89994955D01*
X104807763Y-89994876D01*
X104807300Y-89994687D01*
X104807299Y-89994687D01*
X104799386Y-89991457D01*
X104782260Y-89994927D01*
X91271919Y-90042403D01*
X91256713Y-90037996D01*
X91243352Y-90040554D01*
X91241523Y-90040745D01*
X91228785Y-90043405D01*
X91046851Y-90078916D01*
X91046839Y-90078919D01*
X90813869Y-90146562D01*
X90744303Y-90163743D01*
X90732389Y-90170219D01*
X90682675Y-90184654D01*
X90682674Y-90184654D01*
X90402266Y-90294211D01*
X90363972Y-90307800D01*
X90359056Y-90311093D01*
X90329465Y-90322655D01*
X90329425Y-90322672D01*
X89990054Y-90491811D01*
X89990050Y-90491813D01*
X89667190Y-90690760D01*
X89363507Y-90917876D01*
X89081445Y-91171329D01*
X88823265Y-91449087D01*
X88591052Y-91748912D01*
X88591047Y-91748920D01*
X88573926Y-91775684D01*
X88570396Y-91778754D01*
X88548929Y-91814761D01*
X88386699Y-92068362D01*
X88362841Y-92114278D01*
X88355400Y-92122031D01*
X88323688Y-92189628D01*
X88211851Y-92404856D01*
X88153686Y-92546600D01*
X88143436Y-92559512D01*
X88142120Y-92567147D01*
X88134823Y-92592704D01*
X88131072Y-92601945D01*
X88132484Y-92614342D01*
X88131578Y-92619016D01*
X88109981Y-92720028D01*
X88048323Y-93008410D01*
X88048042Y-93009723D01*
X88046706Y-93014878D01*
X87943887Y-93351416D01*
X87918212Y-93434712D01*
X87916484Y-93439585D01*
X87803588Y-93720302D01*
X87751496Y-93848297D01*
X87749395Y-93852909D01*
X87622594Y-94103617D01*
X87549612Y-94245870D01*
X87547169Y-94250194D01*
X87405605Y-94478966D01*
X87314078Y-94624449D01*
X87311328Y-94628461D01*
X87155217Y-94838137D01*
X87046649Y-94981222D01*
X87043628Y-94984902D01*
X86873603Y-95176478D01*
X86749367Y-95313471D01*
X86746109Y-95316802D01*
X86562980Y-95490528D01*
X86424442Y-95618729D01*
X86420987Y-95621699D01*
X86225850Y-95777310D01*
X86074315Y-95894708D01*
X86070698Y-95897308D01*
X85864791Y-96034374D01*
X85701637Y-96139323D01*
X85697897Y-96141548D01*
X85482541Y-96259600D01*
X85309185Y-96350755D01*
X85305358Y-96352603D01*
X85081988Y-96451167D01*
X84899944Y-96527399D01*
X84896068Y-96528872D01*
X84666151Y-96607547D01*
X84476928Y-96667961D01*
X84473037Y-96669065D01*
X84238181Y-96727490D01*
X84043379Y-96771363D01*
X84039508Y-96772106D01*
X83801280Y-96810050D01*
X83602514Y-96836846D01*
X83598695Y-96837241D01*
X83358774Y-96854564D01*
X83157634Y-96863919D01*
X83153897Y-96863980D01*
X82913961Y-96860669D01*
X82712120Y-96852379D01*
X82708494Y-96852123D01*
X82470195Y-96828294D01*
X82448264Y-96825459D01*
X82269290Y-96802320D01*
X82265802Y-96801768D01*
X82030786Y-96757655D01*
X82019553Y-96755189D01*
X81832504Y-96714127D01*
X81829176Y-96713300D01*
X81626562Y-96656918D01*
X81599079Y-96649270D01*
X81404951Y-96588448D01*
X81401831Y-96587378D01*
X81241162Y-96527399D01*
X81178330Y-96503943D01*
X80989958Y-96426260D01*
X80987010Y-96424953D01*
X80771667Y-96322743D01*
X80590551Y-96228760D01*
X80587816Y-96227252D01*
X80382170Y-96107028D01*
X80278591Y-96041194D01*
X80209766Y-95997448D01*
X80207258Y-95995766D01*
X80012748Y-95858396D01*
X79850438Y-95734054D01*
X79848164Y-95732225D01*
X79666210Y-95578726D01*
X79515273Y-95440564D01*
X79513240Y-95438616D01*
X79345130Y-95270087D01*
X79205878Y-95118204D01*
X79051944Y-94934806D01*
X78968040Y-94825465D01*
X78926497Y-94771327D01*
X78789639Y-94576512D01*
X78788097Y-94574205D01*
X78678199Y-94401609D01*
X78652252Y-94356971D01*
X78558563Y-94195789D01*
X78557169Y-94193256D01*
X78462842Y-94011838D01*
X78361277Y-93796469D01*
X78360055Y-93793706D01*
X78303630Y-93657194D01*
X78282017Y-93604906D01*
X78199256Y-93381504D01*
X78198255Y-93378578D01*
X78137092Y-93183911D01*
X78073749Y-92954067D01*
X78072994Y-92951023D01*
X78029135Y-92751992D01*
X78001360Y-92601945D01*
X77985710Y-92517403D01*
X77985192Y-92514116D01*
X77982097Y-92490328D01*
X77958950Y-92312417D01*
X77935778Y-92074699D01*
X77935543Y-92071332D01*
X77927918Y-91889283D01*
X81312301Y-91889283D01*
X81341927Y-92158533D01*
X81341929Y-92158544D01*
X81410440Y-92420602D01*
X81410442Y-92420608D01*
X81516384Y-92669910D01*
X81566469Y-92751977D01*
X81657493Y-92901125D01*
X81657500Y-92901135D01*
X81830767Y-93109339D01*
X81830773Y-93109344D01*
X82032512Y-93290102D01*
X82258424Y-93439564D01*
X82503690Y-93554540D01*
X82503697Y-93554542D01*
X82503699Y-93554543D01*
X82763071Y-93632577D01*
X82763078Y-93632578D01*
X82763083Y-93632580D01*
X83031075Y-93672020D01*
X83031080Y-93672020D01*
X83234150Y-93672020D01*
X83285647Y-93668250D01*
X83436670Y-93657197D01*
X83549272Y-93632113D01*
X83701060Y-93598302D01*
X83701062Y-93598301D01*
X83701067Y-93598300D01*
X83954072Y-93501534D01*
X84190291Y-93368961D01*
X84404691Y-93203408D01*
X84592700Y-93008401D01*
X84750313Y-92788099D01*
X84826160Y-92640576D01*
X84874163Y-92547210D01*
X84874165Y-92547204D01*
X84874170Y-92547195D01*
X84961632Y-92290825D01*
X85010833Y-92024453D01*
X85020726Y-91753755D01*
X84991100Y-91484502D01*
X84922586Y-91222432D01*
X84816644Y-90973130D01*
X84675532Y-90741910D01*
X84586261Y-90634639D01*
X84502260Y-90533700D01*
X84502254Y-90533695D01*
X84300516Y-90352938D01*
X84074606Y-90203477D01*
X84074604Y-90203476D01*
X83829338Y-90088500D01*
X83829333Y-90088498D01*
X83829328Y-90088496D01*
X83569956Y-90010462D01*
X83569942Y-90010459D01*
X83440821Y-89991457D01*
X83301953Y-89971020D01*
X83098883Y-89971020D01*
X83098878Y-89971020D01*
X82896358Y-89985843D01*
X82896345Y-89985845D01*
X82631967Y-90044737D01*
X82631960Y-90044740D01*
X82378953Y-90141507D01*
X82142740Y-90274077D01*
X82142738Y-90274078D01*
X82142737Y-90274079D01*
X82095579Y-90310493D01*
X81928336Y-90439632D01*
X81740336Y-90634629D01*
X81740330Y-90634636D01*
X81582716Y-90854939D01*
X81582713Y-90854944D01*
X81458864Y-91095829D01*
X81458857Y-91095847D01*
X81371398Y-91352205D01*
X81371395Y-91352219D01*
X81358236Y-91423462D01*
X81329810Y-91577363D01*
X81322195Y-91618588D01*
X81322194Y-91618595D01*
X81312301Y-91889283D01*
X77927918Y-91889283D01*
X77927047Y-91868475D01*
X77924345Y-91629310D01*
X77924406Y-91625805D01*
X77926783Y-91573794D01*
X77933653Y-91423482D01*
X77951500Y-91184599D01*
X77951874Y-91181017D01*
X77963286Y-91095847D01*
X77978700Y-90980805D01*
X78017046Y-90743862D01*
X78017739Y-90740273D01*
X78061820Y-90543806D01*
X78120497Y-90310429D01*
X78121507Y-90306877D01*
X78182372Y-90115711D01*
X78261065Y-89887599D01*
X78262428Y-89884019D01*
X78339430Y-89699721D01*
X78437714Y-89478482D01*
X78439427Y-89474944D01*
X78531738Y-89299045D01*
X78649105Y-89086202D01*
X78651197Y-89082690D01*
X78757836Y-88916616D01*
X78893680Y-88713644D01*
X78896118Y-88710259D01*
X79015961Y-88555313D01*
X79027010Y-88541527D01*
X79169595Y-88363638D01*
X79172376Y-88360407D01*
X79304008Y-88217932D01*
X79474758Y-88038837D01*
X79477897Y-88035773D01*
X79619772Y-87906900D01*
X79806931Y-87741629D01*
X79810388Y-87738795D01*
X79960681Y-87624568D01*
X80163557Y-87474304D01*
X80167338Y-87471717D01*
X80323781Y-87373119D01*
X80542048Y-87238809D01*
X80546111Y-87236519D01*
X80705772Y-87154441D01*
X80939469Y-87036975D01*
X80943844Y-87034988D01*
X81103019Y-86970057D01*
X81352929Y-86870273D01*
X81357526Y-86868648D01*
X81510103Y-86821485D01*
X81779238Y-86739993D01*
X81784092Y-86738739D01*
X81919007Y-86709662D01*
X82215260Y-86647094D01*
X82220315Y-86646245D01*
X82306384Y-86635452D01*
X82656092Y-86592479D01*
X82661377Y-86592059D01*
X83059836Y-86577550D01*
X83074185Y-86581201D01*
X83087934Y-86578496D01*
X83112701Y-86576165D01*
X83122505Y-86576229D01*
X83135557Y-86569159D01*
X83137606Y-86568738D01*
X83285042Y-86539792D01*
X83517808Y-86471940D01*
X83586741Y-86454835D01*
X83598529Y-86448410D01*
X83646622Y-86434392D01*
X83926784Y-86324622D01*
X83964371Y-86311242D01*
X83969189Y-86308007D01*
X83997295Y-86296996D01*
X84334236Y-86128711D01*
X84654730Y-85930892D01*
X84654733Y-85930889D01*
X84654739Y-85930886D01*
X84744515Y-85863654D01*
X84956197Y-85705133D01*
X85236207Y-85453253D01*
X85492504Y-85177281D01*
X85723024Y-84879439D01*
X85739287Y-84854003D01*
X85742750Y-84850988D01*
X85763826Y-84815625D01*
X85795791Y-84765633D01*
X85925911Y-84562128D01*
X85949003Y-84517673D01*
X85956346Y-84510019D01*
X85987765Y-84443053D01*
X86099528Y-84227903D01*
X86122660Y-84171520D01*
X87210019Y-84171520D01*
X87262753Y-84356869D01*
X87361882Y-84555945D01*
X87495905Y-84733420D01*
X87660252Y-84883241D01*
X87849334Y-85000317D01*
X87849336Y-85000318D01*
X88056709Y-85080655D01*
X88136514Y-85095572D01*
X88136514Y-84171520D01*
X87210019Y-84171520D01*
X86122660Y-84171520D01*
X86170927Y-84053874D01*
X86171044Y-84053592D01*
X86171044Y-84053591D01*
X86174566Y-84045103D01*
X86171107Y-84027782D01*
X86171296Y-83950822D01*
X88032886Y-83950822D01*
X88061561Y-84064058D01*
X88125450Y-84161847D01*
X88217629Y-84233592D01*
X88328109Y-84271520D01*
X88415519Y-84271520D01*
X88501730Y-84257134D01*
X88604461Y-84201539D01*
X88632095Y-84171520D01*
X88636514Y-84171520D01*
X88636514Y-85095572D01*
X88716318Y-85080655D01*
X88923691Y-85000318D01*
X88923693Y-85000317D01*
X89112775Y-84883241D01*
X89277122Y-84733420D01*
X89411145Y-84555945D01*
X89510274Y-84356869D01*
X89563009Y-84171520D01*
X88636514Y-84171520D01*
X88632095Y-84171520D01*
X88683574Y-84115599D01*
X88730496Y-84008628D01*
X88737714Y-83921520D01*
X94800871Y-83921520D01*
X94821398Y-84143055D01*
X94821399Y-84143057D01*
X94882283Y-84357043D01*
X94882289Y-84357058D01*
X94981452Y-84556203D01*
X94981457Y-84556211D01*
X95115534Y-84733758D01*
X95267602Y-84872386D01*
X95275329Y-84879430D01*
X95279951Y-84883643D01*
X95279953Y-84883645D01*
X95469109Y-85000765D01*
X95469110Y-85000765D01*
X95469113Y-85000767D01*
X95676574Y-85081138D01*
X95895271Y-85122020D01*
X95895273Y-85122020D01*
X96117755Y-85122020D01*
X96117757Y-85122020D01*
X96336454Y-85081138D01*
X96543915Y-85000767D01*
X96733076Y-84883644D01*
X96897495Y-84733756D01*
X97031572Y-84556209D01*
X97130743Y-84357048D01*
X97191629Y-84143056D01*
X97212157Y-83921520D01*
X97191629Y-83699984D01*
X97130743Y-83485992D01*
X97123537Y-83471520D01*
X97031575Y-83286836D01*
X97031570Y-83286828D01*
X96897493Y-83109281D01*
X96733076Y-82959396D01*
X96733074Y-82959394D01*
X96543918Y-82842274D01*
X96543912Y-82842272D01*
X96336454Y-82761902D01*
X96117757Y-82721020D01*
X95895271Y-82721020D01*
X95676574Y-82761902D01*
X95587091Y-82796568D01*
X95469115Y-82842272D01*
X95469109Y-82842274D01*
X95279953Y-82959394D01*
X95279951Y-82959396D01*
X95115534Y-83109281D01*
X94981457Y-83286828D01*
X94981452Y-83286836D01*
X94882289Y-83485981D01*
X94882283Y-83485996D01*
X94821399Y-83699982D01*
X94821398Y-83699984D01*
X94800871Y-83921519D01*
X94800871Y-83921520D01*
X88737714Y-83921520D01*
X88740142Y-83892218D01*
X88711467Y-83778982D01*
X88647578Y-83681193D01*
X88555399Y-83609448D01*
X88444919Y-83571520D01*
X88357509Y-83571520D01*
X88271298Y-83585906D01*
X88168567Y-83641501D01*
X88089454Y-83727441D01*
X88042532Y-83834412D01*
X88032886Y-83950822D01*
X86171296Y-83950822D01*
X86171983Y-83671520D01*
X87210019Y-83671520D01*
X88136514Y-83671520D01*
X88136514Y-82747466D01*
X88636514Y-82747466D01*
X88636514Y-83671520D01*
X89563009Y-83671520D01*
X89510274Y-83486170D01*
X89411145Y-83287094D01*
X89277122Y-83109619D01*
X89112775Y-82959798D01*
X88923693Y-82842722D01*
X88923691Y-82842721D01*
X88716313Y-82762384D01*
X88636514Y-82747466D01*
X88136514Y-82747466D01*
X88056714Y-82762384D01*
X87849336Y-82842721D01*
X87849334Y-82842722D01*
X87660252Y-82959798D01*
X87495905Y-83109619D01*
X87361882Y-83287094D01*
X87262753Y-83486170D01*
X87210019Y-83671520D01*
X86171983Y-83671520D01*
X86183249Y-79091520D01*
X87210019Y-79091520D01*
X87262753Y-79276869D01*
X87361882Y-79475945D01*
X87495905Y-79653420D01*
X87660252Y-79803241D01*
X87849334Y-79920317D01*
X87849336Y-79920318D01*
X88056709Y-80000655D01*
X88136514Y-80015572D01*
X88136514Y-79091520D01*
X87210019Y-79091520D01*
X86183249Y-79091520D01*
X86184479Y-78591520D01*
X87210019Y-78591520D01*
X88140933Y-78591520D01*
X88089454Y-78647441D01*
X88042532Y-78754412D01*
X88032886Y-78870822D01*
X88061561Y-78984058D01*
X88125450Y-79081847D01*
X88217629Y-79153592D01*
X88328109Y-79191520D01*
X88415519Y-79191520D01*
X88501730Y-79177134D01*
X88604461Y-79121539D01*
X88636514Y-79086720D01*
X88636514Y-80015572D01*
X88716318Y-80000655D01*
X88923691Y-79920318D01*
X88923693Y-79920317D01*
X89112775Y-79803241D01*
X89277122Y-79653420D01*
X89411145Y-79475945D01*
X89510274Y-79276868D01*
X89510275Y-79276867D01*
X89526625Y-79219400D01*
X89563903Y-79160306D01*
X89627212Y-79130747D01*
X89696452Y-79140108D01*
X89733573Y-79165651D01*
X92297739Y-81729817D01*
X92297742Y-81729819D01*
X92333089Y-81752029D01*
X92338763Y-81756055D01*
X92370957Y-81781728D01*
X92371414Y-81782092D01*
X92384359Y-81788326D01*
X92409033Y-81800209D01*
X92415122Y-81803574D01*
X92450471Y-81825785D01*
X92450474Y-81825786D01*
X92450478Y-81825789D01*
X92489899Y-81839583D01*
X92496307Y-81842238D01*
X92533939Y-81860360D01*
X92574641Y-81869650D01*
X92581328Y-81871576D01*
X92620742Y-81885367D01*
X92620745Y-81885368D01*
X92662241Y-81890043D01*
X92669093Y-81891207D01*
X92709806Y-81900500D01*
X92755046Y-81900500D01*
X102221192Y-81900500D01*
X102288231Y-81920185D01*
X102333986Y-81972989D01*
X102343930Y-82042147D01*
X102320459Y-82098811D01*
X102297718Y-82129189D01*
X102297716Y-82129191D01*
X102247422Y-82264037D01*
X102241015Y-82323636D01*
X102241014Y-82323655D01*
X102241014Y-84119390D01*
X102241015Y-84119396D01*
X102247422Y-84179003D01*
X102297716Y-84313848D01*
X102297720Y-84313855D01*
X102383966Y-84429064D01*
X102383969Y-84429067D01*
X102499178Y-84515313D01*
X102499185Y-84515317D01*
X102634031Y-84565611D01*
X102634030Y-84565611D01*
X102640958Y-84566355D01*
X102693641Y-84572020D01*
X104489386Y-84572019D01*
X104548997Y-84565611D01*
X104683845Y-84515316D01*
X104799060Y-84429066D01*
X104885310Y-84313851D01*
X104934516Y-84181921D01*
X104976386Y-84125988D01*
X105041851Y-84101570D01*
X105110124Y-84116421D01*
X105138379Y-84137573D01*
X105260431Y-84259625D01*
X105453935Y-84395120D01*
X105668021Y-84494949D01*
X105668030Y-84494953D01*
X105881514Y-84552154D01*
X105881514Y-83657021D01*
X105989199Y-83706200D01*
X106095751Y-83721520D01*
X106167277Y-83721520D01*
X106273829Y-83706200D01*
X106381514Y-83657021D01*
X106381514Y-84552153D01*
X106594997Y-84494953D01*
X106595006Y-84494949D01*
X106809092Y-84395120D01*
X107002596Y-84259625D01*
X107169619Y-84092602D01*
X107305114Y-83899098D01*
X107404943Y-83685012D01*
X107404946Y-83685006D01*
X107462150Y-83471520D01*
X106565200Y-83471520D01*
X106591007Y-83431364D01*
X106631514Y-83293409D01*
X106631514Y-83149631D01*
X106591007Y-83011676D01*
X106565200Y-82971520D01*
X107462150Y-82971520D01*
X107462149Y-82971519D01*
X107404946Y-82758033D01*
X107404943Y-82758027D01*
X107305114Y-82543942D01*
X107305113Y-82543940D01*
X107169627Y-82350446D01*
X107169622Y-82350440D01*
X107002596Y-82183414D01*
X106809092Y-82047919D01*
X106595006Y-81948090D01*
X106595000Y-81948087D01*
X106381514Y-81890884D01*
X106381514Y-82786018D01*
X106273829Y-82736840D01*
X106167277Y-82721520D01*
X106095751Y-82721520D01*
X105989199Y-82736840D01*
X105881514Y-82786018D01*
X105881514Y-81890884D01*
X105881513Y-81890884D01*
X105668027Y-81948087D01*
X105668021Y-81948090D01*
X105453936Y-82047919D01*
X105453934Y-82047920D01*
X105260440Y-82183406D01*
X105138379Y-82305467D01*
X105077056Y-82338951D01*
X105007364Y-82333967D01*
X104951431Y-82292095D01*
X104934516Y-82261118D01*
X104885311Y-82129191D01*
X104885307Y-82129184D01*
X104799061Y-82013975D01*
X104799058Y-82013972D01*
X104683849Y-81927726D01*
X104683842Y-81927722D01*
X104548996Y-81877428D01*
X104548997Y-81877428D01*
X104502757Y-81872457D01*
X104438206Y-81845719D01*
X104398358Y-81788326D01*
X104392013Y-81749170D01*
X104392014Y-81646560D01*
X104392014Y-81601320D01*
X104382721Y-81560607D01*
X104381556Y-81553747D01*
X104376882Y-81512259D01*
X104376881Y-81512256D01*
X104363090Y-81472842D01*
X104361164Y-81466155D01*
X104351875Y-81425455D01*
X104333758Y-81387834D01*
X104331095Y-81381405D01*
X104317303Y-81341991D01*
X104306091Y-81324149D01*
X104295081Y-81306626D01*
X104291720Y-81300544D01*
X104273605Y-81262926D01*
X104273604Y-81262925D01*
X104247569Y-81230279D01*
X104243542Y-81224603D01*
X104221330Y-81189252D01*
X104093776Y-81061698D01*
X103534252Y-80502174D01*
X103502261Y-80470183D01*
X103466904Y-80447967D01*
X103461230Y-80443941D01*
X103428589Y-80417910D01*
X103390959Y-80399787D01*
X103384872Y-80396422D01*
X103349525Y-80374212D01*
X103310114Y-80360421D01*
X103303688Y-80357759D01*
X103266061Y-80339639D01*
X103225345Y-80330345D01*
X103218662Y-80328420D01*
X103179259Y-80314632D01*
X103137763Y-80309955D01*
X103130908Y-80308791D01*
X103090200Y-80299501D01*
X103090196Y-80299500D01*
X103090194Y-80299500D01*
X103090191Y-80299500D01*
X93182940Y-80299500D01*
X93115901Y-80279815D01*
X93095259Y-80263181D01*
X89293333Y-76461255D01*
X89259848Y-76399932D01*
X89257014Y-76373574D01*
X89257014Y-74670991D01*
X89276699Y-74603952D01*
X89297477Y-74579353D01*
X89306643Y-74570997D01*
X89347495Y-74533756D01*
X89481572Y-74356209D01*
X89580743Y-74157048D01*
X89641629Y-73943056D01*
X89662157Y-73721520D01*
X89641629Y-73499984D01*
X89580743Y-73285992D01*
X89580738Y-73285981D01*
X89481575Y-73086836D01*
X89481570Y-73086828D01*
X89347493Y-72909281D01*
X89183076Y-72759396D01*
X89183074Y-72759394D01*
X88993918Y-72642274D01*
X88993912Y-72642272D01*
X88786454Y-72561902D01*
X88567757Y-72521020D01*
X88345271Y-72521020D01*
X88126574Y-72561902D01*
X88058547Y-72588256D01*
X87919115Y-72642272D01*
X87919109Y-72642274D01*
X87729953Y-72759394D01*
X87729951Y-72759396D01*
X87565534Y-72909281D01*
X87431457Y-73086828D01*
X87431452Y-73086836D01*
X87332289Y-73285981D01*
X87332283Y-73285996D01*
X87271399Y-73499982D01*
X87271398Y-73499984D01*
X87250871Y-73721519D01*
X87250871Y-73721520D01*
X87271398Y-73943055D01*
X87271399Y-73943057D01*
X87332283Y-74157043D01*
X87332289Y-74157058D01*
X87431452Y-74356203D01*
X87431457Y-74356211D01*
X87565534Y-74533757D01*
X87615551Y-74579353D01*
X87651833Y-74639064D01*
X87656014Y-74670991D01*
X87656014Y-76846705D01*
X87656015Y-76846714D01*
X87665305Y-76887422D01*
X87666469Y-76894277D01*
X87671146Y-76935773D01*
X87684934Y-76975176D01*
X87686859Y-76981859D01*
X87696153Y-77022575D01*
X87714273Y-77060202D01*
X87716935Y-77066628D01*
X87730726Y-77106039D01*
X87752936Y-77141386D01*
X87756301Y-77147473D01*
X87774424Y-77185103D01*
X87800454Y-77217743D01*
X87804480Y-77223418D01*
X87826696Y-77258773D01*
X87826698Y-77258776D01*
X88061686Y-77493764D01*
X88095171Y-77555087D01*
X88090187Y-77624779D01*
X88048315Y-77680712D01*
X88018799Y-77697072D01*
X87849336Y-77762721D01*
X87849334Y-77762722D01*
X87660252Y-77879798D01*
X87495905Y-78029619D01*
X87361882Y-78207094D01*
X87262753Y-78406170D01*
X87210019Y-78591520D01*
X86184479Y-78591520D01*
X86209004Y-68621520D01*
X87150871Y-68621520D01*
X87171398Y-68843055D01*
X87171399Y-68843057D01*
X87232283Y-69057043D01*
X87232289Y-69057058D01*
X87331452Y-69256203D01*
X87331457Y-69256211D01*
X87465534Y-69433758D01*
X87629951Y-69583643D01*
X87629953Y-69583645D01*
X87819109Y-69700765D01*
X87819110Y-69700765D01*
X87819113Y-69700767D01*
X88026574Y-69781138D01*
X88245271Y-69822020D01*
X88245273Y-69822020D01*
X88467755Y-69822020D01*
X88467757Y-69822020D01*
X88686454Y-69781138D01*
X88893915Y-69700767D01*
X89083076Y-69583644D01*
X89247495Y-69433756D01*
X89381572Y-69256209D01*
X89480743Y-69057048D01*
X89541629Y-68843056D01*
X89562157Y-68621520D01*
X89541629Y-68399984D01*
X89480743Y-68185992D01*
X89480738Y-68185981D01*
X89381575Y-67986836D01*
X89381570Y-67986828D01*
X89247493Y-67809281D01*
X89083076Y-67659396D01*
X89083074Y-67659394D01*
X88893918Y-67542274D01*
X88893912Y-67542272D01*
X88686454Y-67461902D01*
X88467757Y-67421020D01*
X88245271Y-67421020D01*
X88026574Y-67461902D01*
X87932024Y-67498531D01*
X87819115Y-67542272D01*
X87819109Y-67542274D01*
X87629953Y-67659394D01*
X87629951Y-67659396D01*
X87465534Y-67809281D01*
X87331457Y-67986828D01*
X87331452Y-67986836D01*
X87232289Y-68185981D01*
X87232283Y-68185996D01*
X87171399Y-68399982D01*
X87171398Y-68399984D01*
X87150871Y-68621519D01*
X87150871Y-68621520D01*
X86209004Y-68621520D01*
X86220811Y-63821520D01*
X87040871Y-63821520D01*
X87061398Y-64043055D01*
X87061399Y-64043057D01*
X87122283Y-64257043D01*
X87122289Y-64257058D01*
X87221452Y-64456203D01*
X87221457Y-64456211D01*
X87355534Y-64633758D01*
X87519951Y-64783643D01*
X87519953Y-64783645D01*
X87709109Y-64900765D01*
X87709110Y-64900765D01*
X87709113Y-64900767D01*
X87916574Y-64981138D01*
X88135271Y-65022020D01*
X88135273Y-65022020D01*
X88357755Y-65022020D01*
X88357757Y-65022020D01*
X88576454Y-64981138D01*
X88783915Y-64900767D01*
X88973076Y-64783644D01*
X89137495Y-64633756D01*
X89271572Y-64456209D01*
X89370743Y-64257048D01*
X89431629Y-64043056D01*
X89452157Y-63821520D01*
X94660871Y-63821520D01*
X94681398Y-64043055D01*
X94681399Y-64043057D01*
X94742283Y-64257043D01*
X94742289Y-64257058D01*
X94841452Y-64456203D01*
X94841457Y-64456211D01*
X94975534Y-64633758D01*
X95139951Y-64783643D01*
X95139953Y-64783645D01*
X95329109Y-64900765D01*
X95329110Y-64900765D01*
X95329113Y-64900767D01*
X95536574Y-64981138D01*
X95755271Y-65022020D01*
X95755273Y-65022020D01*
X95977755Y-65022020D01*
X95977757Y-65022020D01*
X96196454Y-64981138D01*
X96403915Y-64900767D01*
X96593076Y-64783644D01*
X96757495Y-64633756D01*
X96861302Y-64496292D01*
X96917411Y-64454657D01*
X96960256Y-64447020D01*
X97068028Y-64447020D01*
X97135067Y-64466705D01*
X97155709Y-64483339D01*
X97677688Y-65005318D01*
X97711173Y-65066641D01*
X97706189Y-65136333D01*
X97664317Y-65192266D01*
X97598853Y-65216683D01*
X97564228Y-65214290D01*
X97494646Y-65199500D01*
X97305354Y-65199500D01*
X97272897Y-65206398D01*
X97120197Y-65238855D01*
X97120192Y-65238857D01*
X96947270Y-65315848D01*
X96947265Y-65315851D01*
X96794129Y-65427111D01*
X96667466Y-65567785D01*
X96572821Y-65731715D01*
X96572818Y-65731722D01*
X96514327Y-65911740D01*
X96514326Y-65911744D01*
X96494540Y-66100000D01*
X96514326Y-66288256D01*
X96514327Y-66288259D01*
X96572818Y-66468277D01*
X96572821Y-66468284D01*
X96667467Y-66632216D01*
X96704291Y-66673113D01*
X96742649Y-66715714D01*
X96772879Y-66778705D01*
X96774499Y-66798686D01*
X96774499Y-67480997D01*
X96754814Y-67548036D01*
X96702010Y-67593791D01*
X96632852Y-67603735D01*
X96585222Y-67586424D01*
X96513918Y-67542274D01*
X96513912Y-67542272D01*
X96306454Y-67461902D01*
X96087757Y-67421020D01*
X95865271Y-67421020D01*
X95646574Y-67461902D01*
X95552024Y-67498531D01*
X95439115Y-67542272D01*
X95439109Y-67542274D01*
X95249953Y-67659394D01*
X95249951Y-67659396D01*
X95085534Y-67809281D01*
X94951457Y-67986828D01*
X94951452Y-67986836D01*
X94852289Y-68185981D01*
X94852283Y-68185996D01*
X94791399Y-68399982D01*
X94791398Y-68399984D01*
X94770871Y-68621519D01*
X94770871Y-68621520D01*
X94791398Y-68843055D01*
X94791399Y-68843057D01*
X94852283Y-69057043D01*
X94852289Y-69057058D01*
X94951452Y-69256203D01*
X94951457Y-69256211D01*
X95085534Y-69433758D01*
X95249951Y-69583643D01*
X95249953Y-69583645D01*
X95439109Y-69700765D01*
X95439110Y-69700765D01*
X95439113Y-69700767D01*
X95646574Y-69781138D01*
X95865271Y-69822020D01*
X95865273Y-69822020D01*
X96087755Y-69822020D01*
X96087757Y-69822020D01*
X96306454Y-69781138D01*
X96513915Y-69700767D01*
X96585221Y-69656616D01*
X96652582Y-69638061D01*
X96719282Y-69658869D01*
X96764143Y-69712434D01*
X96774499Y-69762043D01*
X96774499Y-72523465D01*
X96754814Y-72590504D01*
X96702010Y-72636259D01*
X96632852Y-72646203D01*
X96605706Y-72639092D01*
X96449829Y-72578705D01*
X96406454Y-72561902D01*
X96187757Y-72521020D01*
X95965271Y-72521020D01*
X95746574Y-72561902D01*
X95678547Y-72588256D01*
X95539115Y-72642272D01*
X95539109Y-72642274D01*
X95349953Y-72759394D01*
X95349951Y-72759396D01*
X95185534Y-72909281D01*
X95051457Y-73086828D01*
X95051452Y-73086836D01*
X94952289Y-73285981D01*
X94952283Y-73285996D01*
X94891399Y-73499982D01*
X94891398Y-73499984D01*
X94870871Y-73721519D01*
X94870871Y-73721520D01*
X94891398Y-73943055D01*
X94891399Y-73943057D01*
X94952283Y-74157043D01*
X94952289Y-74157058D01*
X95051452Y-74356203D01*
X95051457Y-74356211D01*
X95185534Y-74533758D01*
X95349951Y-74683643D01*
X95349953Y-74683645D01*
X95539109Y-74800765D01*
X95539110Y-74800765D01*
X95539113Y-74800767D01*
X95746574Y-74881138D01*
X95965271Y-74922020D01*
X95965273Y-74922020D01*
X96187755Y-74922020D01*
X96187757Y-74922020D01*
X96406454Y-74881138D01*
X96605706Y-74803946D01*
X96675329Y-74798085D01*
X96737069Y-74830795D01*
X96771324Y-74891692D01*
X96774499Y-74919574D01*
X96774499Y-75217255D01*
X96772776Y-75232872D01*
X96773061Y-75232899D01*
X96772326Y-75240665D01*
X96774500Y-75309814D01*
X96774500Y-75339343D01*
X96774501Y-75339360D01*
X96775368Y-75346231D01*
X96775826Y-75352050D01*
X96777290Y-75398624D01*
X96777291Y-75398627D01*
X96782880Y-75417867D01*
X96786824Y-75436911D01*
X96789336Y-75456792D01*
X96806490Y-75500119D01*
X96808382Y-75505647D01*
X96821381Y-75550388D01*
X96831580Y-75567634D01*
X96840136Y-75585100D01*
X96847514Y-75603732D01*
X96864901Y-75627664D01*
X96874898Y-75641423D01*
X96878106Y-75646307D01*
X96901827Y-75686416D01*
X96901833Y-75686424D01*
X96915990Y-75700580D01*
X96928628Y-75715376D01*
X96940405Y-75731586D01*
X96940406Y-75731587D01*
X96976309Y-75761288D01*
X96980620Y-75765210D01*
X97615341Y-76399932D01*
X97820717Y-76605308D01*
X97830542Y-76617571D01*
X97830763Y-76617389D01*
X97835734Y-76623398D01*
X97861737Y-76647815D01*
X97886155Y-76670746D01*
X97907049Y-76691640D01*
X97912531Y-76695893D01*
X97916963Y-76699677D01*
X97950938Y-76731582D01*
X97968496Y-76741234D01*
X97984755Y-76751915D01*
X98000584Y-76764193D01*
X98043358Y-76782702D01*
X98048576Y-76785258D01*
X98089428Y-76807717D01*
X98108836Y-76812700D01*
X98127237Y-76819000D01*
X98145624Y-76826957D01*
X98189008Y-76833828D01*
X98191639Y-76834245D01*
X98197359Y-76835429D01*
X98242501Y-76847020D01*
X98242510Y-76847020D01*
X98248613Y-76847791D01*
X98312657Y-76875722D01*
X98349256Y-76927481D01*
X98400117Y-77063848D01*
X98400121Y-77063855D01*
X98486367Y-77179064D01*
X98486370Y-77179067D01*
X98601579Y-77265313D01*
X98601586Y-77265317D01*
X98736432Y-77315611D01*
X98736431Y-77315611D01*
X98743359Y-77316355D01*
X98796042Y-77322020D01*
X100091787Y-77322019D01*
X100151398Y-77315611D01*
X100234693Y-77284544D01*
X100286244Y-77265317D01*
X100286244Y-77265316D01*
X100286246Y-77265316D01*
X100335436Y-77228491D01*
X100400897Y-77204074D01*
X100454537Y-77212130D01*
X100641459Y-77284544D01*
X100841939Y-77322020D01*
X100841941Y-77322020D01*
X101045889Y-77322020D01*
X101045891Y-77322020D01*
X101246371Y-77284544D01*
X101436552Y-77210868D01*
X101609956Y-77103501D01*
X101666963Y-77051531D01*
X101729765Y-77020916D01*
X101799152Y-77029113D01*
X101853093Y-77073523D01*
X101874461Y-77140045D01*
X101874500Y-77143170D01*
X101874500Y-77689546D01*
X101854815Y-77756585D01*
X101838181Y-77777227D01*
X101435708Y-78179701D01*
X101374385Y-78213186D01*
X101348027Y-78216020D01*
X97100256Y-78216020D01*
X97033217Y-78196335D01*
X97001302Y-78166747D01*
X96897493Y-78029281D01*
X96733076Y-77879396D01*
X96733074Y-77879394D01*
X96543918Y-77762274D01*
X96543912Y-77762272D01*
X96336454Y-77681902D01*
X96117757Y-77641020D01*
X95895271Y-77641020D01*
X95676574Y-77681902D01*
X95545378Y-77732727D01*
X95469115Y-77762272D01*
X95469109Y-77762274D01*
X95279953Y-77879394D01*
X95279951Y-77879396D01*
X95115534Y-78029281D01*
X94981457Y-78206828D01*
X94981452Y-78206836D01*
X94882289Y-78405981D01*
X94882283Y-78405996D01*
X94821399Y-78619982D01*
X94821398Y-78619984D01*
X94800871Y-78841519D01*
X94800871Y-78841520D01*
X94821398Y-79063055D01*
X94821399Y-79063057D01*
X94882283Y-79277043D01*
X94882289Y-79277058D01*
X94981452Y-79476203D01*
X94981457Y-79476211D01*
X95115534Y-79653758D01*
X95279951Y-79803643D01*
X95279953Y-79803645D01*
X95469109Y-79920765D01*
X95469110Y-79920765D01*
X95469113Y-79920767D01*
X95676574Y-80001138D01*
X95895271Y-80042020D01*
X95895273Y-80042020D01*
X96117755Y-80042020D01*
X96117757Y-80042020D01*
X96336454Y-80001138D01*
X96543915Y-79920767D01*
X96733076Y-79803644D01*
X96897495Y-79653756D01*
X97001302Y-79516292D01*
X97057411Y-79474657D01*
X97100256Y-79467020D01*
X101575737Y-79467020D01*
X101591357Y-79468744D01*
X101591384Y-79468459D01*
X101599140Y-79469191D01*
X101599147Y-79469193D01*
X101668294Y-79467020D01*
X101697830Y-79467020D01*
X101704708Y-79466150D01*
X101710521Y-79465692D01*
X101757107Y-79464229D01*
X101776349Y-79458637D01*
X101795392Y-79454694D01*
X101815272Y-79452184D01*
X101858602Y-79435027D01*
X101864126Y-79433137D01*
X101867876Y-79432047D01*
X101908870Y-79420138D01*
X101926109Y-79409942D01*
X101943583Y-79401382D01*
X101962207Y-79394008D01*
X101962207Y-79394007D01*
X101962212Y-79394006D01*
X101999929Y-79366602D01*
X102004785Y-79363412D01*
X102044900Y-79339690D01*
X102059069Y-79325519D01*
X102073859Y-79312888D01*
X102090067Y-79301114D01*
X102119779Y-79265196D01*
X102123692Y-79260896D01*
X102883787Y-78500802D01*
X102896042Y-78490986D01*
X102895859Y-78490764D01*
X102901866Y-78485792D01*
X102901877Y-78485786D01*
X102932775Y-78452882D01*
X102949227Y-78435364D01*
X102959671Y-78424918D01*
X102970120Y-78414471D01*
X102974379Y-78408978D01*
X102978152Y-78404561D01*
X103010062Y-78370582D01*
X103019715Y-78353020D01*
X103030389Y-78336770D01*
X103042673Y-78320936D01*
X103061180Y-78278167D01*
X103063749Y-78272924D01*
X103086196Y-78232093D01*
X103086197Y-78232092D01*
X103091177Y-78212691D01*
X103097478Y-78194288D01*
X103105438Y-78175896D01*
X103112730Y-78129849D01*
X103113911Y-78124152D01*
X103125500Y-78079019D01*
X103125500Y-78058982D01*
X103127027Y-78039582D01*
X103128605Y-78029619D01*
X103130160Y-78019804D01*
X103125775Y-77973415D01*
X103125500Y-77967577D01*
X103125500Y-74693735D01*
X103145185Y-74626696D01*
X103197989Y-74580941D01*
X103267147Y-74570997D01*
X103322383Y-74593415D01*
X103368190Y-74626696D01*
X103447270Y-74684151D01*
X103620192Y-74761142D01*
X103620197Y-74761144D01*
X103805354Y-74800500D01*
X103805355Y-74800500D01*
X103994644Y-74800500D01*
X103994646Y-74800500D01*
X104168634Y-74763518D01*
X104238301Y-74768834D01*
X104294035Y-74810971D01*
X104318140Y-74876551D01*
X104318415Y-74884813D01*
X104318414Y-74910760D01*
X104298727Y-74977798D01*
X104245921Y-75023551D01*
X104237748Y-75026937D01*
X104101584Y-75077723D01*
X104101579Y-75077726D01*
X103986370Y-75163972D01*
X103986367Y-75163975D01*
X103900121Y-75279184D01*
X103900117Y-75279191D01*
X103849823Y-75414037D01*
X103843416Y-75473636D01*
X103843415Y-75473655D01*
X103843415Y-76769390D01*
X103843416Y-76769396D01*
X103849823Y-76829003D01*
X103900117Y-76963848D01*
X103900121Y-76963855D01*
X103986367Y-77079064D01*
X103986370Y-77079067D01*
X104101579Y-77165313D01*
X104101586Y-77165317D01*
X104236432Y-77215611D01*
X104236431Y-77215611D01*
X104243359Y-77216355D01*
X104296042Y-77222020D01*
X105591787Y-77222019D01*
X105651398Y-77215611D01*
X105682330Y-77204074D01*
X105786244Y-77165317D01*
X105786244Y-77165316D01*
X105786246Y-77165316D01*
X105835436Y-77128491D01*
X105900897Y-77104074D01*
X105954537Y-77112130D01*
X106141459Y-77184544D01*
X106341939Y-77222020D01*
X106341941Y-77222020D01*
X106545889Y-77222020D01*
X106545891Y-77222020D01*
X106746371Y-77184544D01*
X106936552Y-77110868D01*
X107109956Y-77003501D01*
X107260679Y-76866099D01*
X107383588Y-76703341D01*
X107474497Y-76520770D01*
X107530312Y-76324603D01*
X107549130Y-76121520D01*
X107530312Y-75918437D01*
X107474497Y-75722270D01*
X107471064Y-75715376D01*
X107406196Y-75585103D01*
X107383588Y-75539699D01*
X107320979Y-75456791D01*
X107260677Y-75376938D01*
X107109956Y-75239539D01*
X107109954Y-75239537D01*
X106936557Y-75132175D01*
X106936550Y-75132171D01*
X106841461Y-75095334D01*
X106746371Y-75058496D01*
X106545891Y-75021020D01*
X106341939Y-75021020D01*
X106141459Y-75058496D01*
X106141456Y-75058496D01*
X106141456Y-75058497D01*
X105954541Y-75130908D01*
X105884917Y-75136770D01*
X105835436Y-75114547D01*
X105786250Y-75077726D01*
X105786245Y-75077723D01*
X105650081Y-75026937D01*
X105594148Y-74985065D01*
X105569731Y-74919601D01*
X105569415Y-74910755D01*
X105569415Y-71469693D01*
X105571139Y-71454080D01*
X105570853Y-71454053D01*
X105571586Y-71446291D01*
X105571587Y-71446288D01*
X105569414Y-71377158D01*
X105569415Y-71347605D01*
X105568544Y-71340713D01*
X105568087Y-71334901D01*
X105566624Y-71288327D01*
X105561037Y-71269099D01*
X105557089Y-71250039D01*
X105554578Y-71230159D01*
X105537427Y-71186842D01*
X105535534Y-71181313D01*
X105522533Y-71136564D01*
X105522531Y-71136561D01*
X105512338Y-71119326D01*
X105503776Y-71101849D01*
X105496402Y-71083225D01*
X105496401Y-71083223D01*
X105468994Y-71045500D01*
X105465803Y-71040641D01*
X105442087Y-71000538D01*
X105442080Y-71000529D01*
X105427921Y-70986370D01*
X105415283Y-70971574D01*
X105403509Y-70955368D01*
X105367603Y-70925664D01*
X105363291Y-70921741D01*
X104525250Y-70083700D01*
X104491765Y-70022377D01*
X104496749Y-69952685D01*
X104538621Y-69896752D01*
X104604085Y-69872335D01*
X104612931Y-69872019D01*
X104724385Y-69872019D01*
X104724386Y-69872019D01*
X104783997Y-69865611D01*
X104918845Y-69815316D01*
X105034060Y-69729066D01*
X105120310Y-69613851D01*
X105170605Y-69479003D01*
X105177014Y-69419393D01*
X105177013Y-68877564D01*
X105196697Y-68810527D01*
X105249501Y-68764772D01*
X105318660Y-68754828D01*
X105382216Y-68783853D01*
X105419990Y-68842631D01*
X105424484Y-68866124D01*
X105430758Y-68933830D01*
X105489110Y-69138912D01*
X105489110Y-69138914D01*
X105584146Y-69329773D01*
X105683354Y-69461144D01*
X105712642Y-69499927D01*
X105870212Y-69643572D01*
X106051495Y-69755818D01*
X106250316Y-69832841D01*
X106459904Y-69872020D01*
X106459906Y-69872020D01*
X106673122Y-69872020D01*
X106673124Y-69872020D01*
X106882712Y-69832841D01*
X107081533Y-69755818D01*
X107262816Y-69643572D01*
X107420386Y-69499927D01*
X107548880Y-69329775D01*
X107585514Y-69256203D01*
X107643917Y-69138914D01*
X107643917Y-69138913D01*
X107643919Y-69138909D01*
X107702270Y-68933830D01*
X107721943Y-68721520D01*
X107702270Y-68509210D01*
X107643919Y-68304131D01*
X107643917Y-68304126D01*
X107643917Y-68304125D01*
X107548881Y-68113266D01*
X107420386Y-67943113D01*
X107295420Y-67829191D01*
X107262816Y-67799468D01*
X107081533Y-67687222D01*
X107081531Y-67687221D01*
X106982122Y-67648710D01*
X106882712Y-67610199D01*
X106673124Y-67571020D01*
X106575943Y-67571020D01*
X106508904Y-67551335D01*
X106463149Y-67498531D01*
X106454130Y-67457074D01*
X106452472Y-67457228D01*
X106449117Y-67421020D01*
X106432270Y-67239210D01*
X106373919Y-67034131D01*
X106373917Y-67034126D01*
X106373917Y-67034125D01*
X106278881Y-66843266D01*
X106150386Y-66673113D01*
X106105522Y-66632214D01*
X105992816Y-66529468D01*
X105811533Y-66417222D01*
X105811531Y-66417221D01*
X105712122Y-66378710D01*
X105612712Y-66340199D01*
X105403124Y-66301020D01*
X105189904Y-66301020D01*
X104980316Y-66340199D01*
X104980313Y-66340199D01*
X104980313Y-66340200D01*
X104781496Y-66417221D01*
X104781494Y-66417222D01*
X104600213Y-66529467D01*
X104442641Y-66673113D01*
X104314146Y-66843266D01*
X104219110Y-67034125D01*
X104219110Y-67034127D01*
X104160758Y-67239209D01*
X104140556Y-67457228D01*
X104138152Y-67457005D01*
X104121400Y-67514059D01*
X104068596Y-67559814D01*
X104017085Y-67571020D01*
X103328643Y-67571020D01*
X103328637Y-67571021D01*
X103269030Y-67577428D01*
X103134185Y-67627722D01*
X103134178Y-67627726D01*
X103018969Y-67713972D01*
X103018966Y-67713975D01*
X102932720Y-67829184D01*
X102932716Y-67829191D01*
X102882422Y-67964037D01*
X102876015Y-68023636D01*
X102876014Y-68023655D01*
X102876014Y-68135101D01*
X102856329Y-68202140D01*
X102803525Y-68247895D01*
X102734367Y-68257839D01*
X102670811Y-68228814D01*
X102664333Y-68222782D01*
X100537502Y-66095951D01*
X98350748Y-63909197D01*
X98317265Y-63847877D01*
X98322249Y-63778185D01*
X98350748Y-63733840D01*
X100765198Y-61319390D01*
X102976014Y-61319390D01*
X102976015Y-61319396D01*
X102982422Y-61379003D01*
X103032716Y-61513848D01*
X103032720Y-61513855D01*
X103118966Y-61629064D01*
X103118969Y-61629067D01*
X103234178Y-61715313D01*
X103234185Y-61715317D01*
X103369031Y-61765611D01*
X103369030Y-61765611D01*
X103375958Y-61766355D01*
X103428641Y-61772020D01*
X104824386Y-61772019D01*
X104883997Y-61765611D01*
X105018845Y-61715316D01*
X105134060Y-61629066D01*
X105220310Y-61513851D01*
X105270605Y-61379003D01*
X105277014Y-61319393D01*
X105277013Y-60777564D01*
X105296697Y-60710527D01*
X105349501Y-60664772D01*
X105418660Y-60654828D01*
X105482216Y-60683853D01*
X105519990Y-60742631D01*
X105524484Y-60766124D01*
X105530758Y-60833830D01*
X105589110Y-61038912D01*
X105589110Y-61038914D01*
X105684146Y-61229773D01*
X105796840Y-61379002D01*
X105812642Y-61399927D01*
X105970212Y-61543572D01*
X106151495Y-61655818D01*
X106350316Y-61732841D01*
X106559904Y-61772020D01*
X106559906Y-61772020D01*
X106773122Y-61772020D01*
X106773124Y-61772020D01*
X106982712Y-61732841D01*
X107181533Y-61655818D01*
X107362816Y-61543572D01*
X107520386Y-61399927D01*
X107648880Y-61229775D01*
X107743919Y-61038909D01*
X107802270Y-60833830D01*
X107821943Y-60621520D01*
X107802270Y-60409210D01*
X107743919Y-60204131D01*
X107743917Y-60204126D01*
X107743917Y-60204125D01*
X107648881Y-60013266D01*
X107520386Y-59843113D01*
X107362816Y-59699468D01*
X107181533Y-59587222D01*
X107181531Y-59587221D01*
X107082122Y-59548710D01*
X106982712Y-59510199D01*
X106773124Y-59471020D01*
X106675943Y-59471020D01*
X106608904Y-59451335D01*
X106563149Y-59398531D01*
X106554130Y-59357074D01*
X106552472Y-59357228D01*
X106532626Y-59143057D01*
X106532270Y-59139210D01*
X106473919Y-58934131D01*
X106473917Y-58934126D01*
X106473917Y-58934125D01*
X106378881Y-58743266D01*
X106250386Y-58573113D01*
X106092816Y-58429468D01*
X105911533Y-58317222D01*
X105911531Y-58317221D01*
X105812122Y-58278710D01*
X105712712Y-58240199D01*
X105503124Y-58201020D01*
X105289904Y-58201020D01*
X105080316Y-58240199D01*
X105080313Y-58240199D01*
X105080313Y-58240200D01*
X104881496Y-58317221D01*
X104881494Y-58317222D01*
X104700213Y-58429467D01*
X104542641Y-58573113D01*
X104414146Y-58743266D01*
X104319110Y-58934125D01*
X104319110Y-58934127D01*
X104260758Y-59139209D01*
X104240556Y-59357228D01*
X104238152Y-59357005D01*
X104221400Y-59414059D01*
X104168596Y-59459814D01*
X104117085Y-59471020D01*
X103428643Y-59471020D01*
X103428637Y-59471021D01*
X103369030Y-59477428D01*
X103234185Y-59527722D01*
X103234178Y-59527726D01*
X103118969Y-59613972D01*
X103118966Y-59613975D01*
X103032720Y-59729184D01*
X103032716Y-59729191D01*
X102982422Y-59864037D01*
X102976015Y-59923636D01*
X102976014Y-59923655D01*
X102976014Y-61319390D01*
X100765198Y-61319390D01*
X107390302Y-54694287D01*
X107402556Y-54684472D01*
X107402373Y-54684250D01*
X107408380Y-54679278D01*
X107408391Y-54679272D01*
X107439289Y-54646368D01*
X107455741Y-54628850D01*
X107466185Y-54618404D01*
X107476634Y-54607957D01*
X107480893Y-54602464D01*
X107484666Y-54598047D01*
X107516576Y-54564068D01*
X107526227Y-54546510D01*
X107536910Y-54530247D01*
X107549187Y-54514422D01*
X107567699Y-54471639D01*
X107570252Y-54466427D01*
X107592711Y-54425578D01*
X107597694Y-54406166D01*
X107603995Y-54387766D01*
X107611951Y-54369382D01*
X107619243Y-54323338D01*
X107620420Y-54317657D01*
X107632014Y-54272505D01*
X107632014Y-54252469D01*
X107633541Y-54233069D01*
X107636674Y-54213290D01*
X107632287Y-54166892D01*
X107632013Y-54161071D01*
X107632013Y-53368005D01*
X107632013Y-52549330D01*
X107651698Y-52482295D01*
X107696994Y-52440280D01*
X107775140Y-52397990D01*
X107784187Y-52390949D01*
X107839542Y-52347864D01*
X107958298Y-52255433D01*
X108115493Y-52084673D01*
X108242438Y-51890369D01*
X108335671Y-51677820D01*
X108392648Y-51452825D01*
X108397026Y-51399993D01*
X108411814Y-51221526D01*
X108411814Y-51221513D01*
X108392649Y-50990222D01*
X108392647Y-50990211D01*
X108335671Y-50765219D01*
X108242438Y-50552671D01*
X108115497Y-50358372D01*
X108115494Y-50358369D01*
X108115493Y-50358367D01*
X107958298Y-50187607D01*
X107958293Y-50187603D01*
X107958291Y-50187601D01*
X107775148Y-50045055D01*
X107775142Y-50045051D01*
X107571018Y-49934584D01*
X107571009Y-49934581D01*
X107351498Y-49859222D01*
X107160964Y-49827428D01*
X107122563Y-49821020D01*
X106890465Y-49821020D01*
X106852064Y-49827428D01*
X106661529Y-49859222D01*
X106442018Y-49934581D01*
X106442009Y-49934584D01*
X106237885Y-50045051D01*
X106237879Y-50045055D01*
X106054736Y-50187601D01*
X106054732Y-50187605D01*
X106046380Y-50196678D01*
X105986493Y-50232668D01*
X105916655Y-50230567D01*
X105859039Y-50191042D01*
X105838969Y-50156027D01*
X105810311Y-50079191D01*
X105810307Y-50079184D01*
X105724061Y-49963975D01*
X105724058Y-49963972D01*
X105608849Y-49877726D01*
X105608842Y-49877722D01*
X105473996Y-49827428D01*
X105473997Y-49827428D01*
X105414397Y-49821021D01*
X105414395Y-49821020D01*
X105414387Y-49821020D01*
X105414378Y-49821020D01*
X103518643Y-49821020D01*
X103518637Y-49821021D01*
X103459030Y-49827428D01*
X103324185Y-49877722D01*
X103324178Y-49877726D01*
X103208969Y-49963972D01*
X103208966Y-49963975D01*
X103122720Y-50079184D01*
X103122716Y-50079191D01*
X103072422Y-50214037D01*
X103066015Y-50273636D01*
X103066014Y-50273655D01*
X103066014Y-52169390D01*
X103066015Y-52169396D01*
X103072422Y-52229003D01*
X103122716Y-52363848D01*
X103122720Y-52363855D01*
X103208966Y-52479064D01*
X103208969Y-52479067D01*
X103324178Y-52565313D01*
X103324185Y-52565317D01*
X103459031Y-52615611D01*
X103459030Y-52615611D01*
X103465958Y-52616355D01*
X103518641Y-52622020D01*
X105414386Y-52622019D01*
X105473997Y-52615611D01*
X105608845Y-52565316D01*
X105724060Y-52479066D01*
X105810310Y-52363851D01*
X105816266Y-52347883D01*
X105838969Y-52287013D01*
X105880840Y-52231079D01*
X105946304Y-52206661D01*
X106014577Y-52221512D01*
X106046380Y-52246363D01*
X106053816Y-52254440D01*
X106054729Y-52255432D01*
X106054736Y-52255438D01*
X106237879Y-52397984D01*
X106237890Y-52397991D01*
X106316031Y-52440279D01*
X106365622Y-52489498D01*
X106381014Y-52549334D01*
X106381014Y-53883033D01*
X106361329Y-53950072D01*
X106344695Y-53970714D01*
X97155708Y-63159701D01*
X97094385Y-63193186D01*
X97068027Y-63196020D01*
X96960256Y-63196020D01*
X96893217Y-63176335D01*
X96861302Y-63146747D01*
X96757493Y-63009281D01*
X96593076Y-62859396D01*
X96593074Y-62859394D01*
X96403918Y-62742274D01*
X96403912Y-62742272D01*
X96196454Y-62661902D01*
X95977757Y-62621020D01*
X95755271Y-62621020D01*
X95536574Y-62661902D01*
X95405378Y-62712727D01*
X95329115Y-62742272D01*
X95329109Y-62742274D01*
X95139953Y-62859394D01*
X95139951Y-62859396D01*
X94975534Y-63009281D01*
X94841457Y-63186828D01*
X94841452Y-63186836D01*
X94742289Y-63385981D01*
X94742283Y-63385996D01*
X94681399Y-63599982D01*
X94681398Y-63599984D01*
X94660871Y-63821519D01*
X94660871Y-63821520D01*
X89452157Y-63821520D01*
X89448141Y-63778185D01*
X89431629Y-63599984D01*
X89431628Y-63599982D01*
X89370744Y-63385996D01*
X89370743Y-63385992D01*
X89276148Y-63196020D01*
X89271575Y-63186836D01*
X89271570Y-63186828D01*
X89137493Y-63009281D01*
X88973076Y-62859396D01*
X88973074Y-62859394D01*
X88783918Y-62742274D01*
X88783912Y-62742272D01*
X88576454Y-62661902D01*
X88357757Y-62621020D01*
X88135271Y-62621020D01*
X87916574Y-62661902D01*
X87785378Y-62712727D01*
X87709115Y-62742272D01*
X87709109Y-62742274D01*
X87519953Y-62859394D01*
X87519951Y-62859396D01*
X87355534Y-63009281D01*
X87221457Y-63186828D01*
X87221452Y-63186836D01*
X87122289Y-63385981D01*
X87122283Y-63385996D01*
X87061399Y-63599982D01*
X87061398Y-63599984D01*
X87040871Y-63821519D01*
X87040871Y-63821520D01*
X86220811Y-63821520D01*
X86232864Y-58921520D01*
X86940871Y-58921520D01*
X86961398Y-59143055D01*
X86961399Y-59143057D01*
X87022283Y-59357043D01*
X87022289Y-59357058D01*
X87121452Y-59556203D01*
X87121457Y-59556211D01*
X87255534Y-59733758D01*
X87419951Y-59883643D01*
X87419953Y-59883645D01*
X87609109Y-60000765D01*
X87609110Y-60000765D01*
X87609113Y-60000767D01*
X87816574Y-60081138D01*
X88035271Y-60122020D01*
X88035273Y-60122020D01*
X88257755Y-60122020D01*
X88257757Y-60122020D01*
X88476454Y-60081138D01*
X88683915Y-60000767D01*
X88873076Y-59883644D01*
X89037495Y-59733756D01*
X89171572Y-59556209D01*
X89270743Y-59357048D01*
X89331629Y-59143056D01*
X89352157Y-58921520D01*
X94560871Y-58921520D01*
X94581398Y-59143055D01*
X94581399Y-59143057D01*
X94642283Y-59357043D01*
X94642289Y-59357058D01*
X94741452Y-59556203D01*
X94741457Y-59556211D01*
X94875534Y-59733758D01*
X95039951Y-59883643D01*
X95039953Y-59883645D01*
X95229109Y-60000765D01*
X95229110Y-60000765D01*
X95229113Y-60000767D01*
X95436574Y-60081138D01*
X95655271Y-60122020D01*
X95655273Y-60122020D01*
X95877755Y-60122020D01*
X95877757Y-60122020D01*
X96096454Y-60081138D01*
X96303915Y-60000767D01*
X96493076Y-59883644D01*
X96657495Y-59733756D01*
X96791572Y-59556209D01*
X96890743Y-59357048D01*
X96951629Y-59143056D01*
X96972157Y-58921520D01*
X96951629Y-58699984D01*
X96890743Y-58485992D01*
X96890738Y-58485981D01*
X96791575Y-58286836D01*
X96791570Y-58286828D01*
X96657493Y-58109281D01*
X96493076Y-57959396D01*
X96493074Y-57959394D01*
X96303918Y-57842274D01*
X96303912Y-57842272D01*
X96096454Y-57761902D01*
X95877757Y-57721020D01*
X95655271Y-57721020D01*
X95436574Y-57761902D01*
X95305378Y-57812727D01*
X95229115Y-57842272D01*
X95229109Y-57842274D01*
X95039953Y-57959394D01*
X95039951Y-57959396D01*
X94875534Y-58109281D01*
X94741457Y-58286828D01*
X94741452Y-58286836D01*
X94642289Y-58485981D01*
X94642283Y-58485996D01*
X94581399Y-58699982D01*
X94581398Y-58699984D01*
X94560871Y-58921519D01*
X94560871Y-58921520D01*
X89352157Y-58921520D01*
X89331629Y-58699984D01*
X89270743Y-58485992D01*
X89270738Y-58485981D01*
X89171575Y-58286836D01*
X89171570Y-58286828D01*
X89037493Y-58109281D01*
X88873076Y-57959396D01*
X88873074Y-57959394D01*
X88683918Y-57842274D01*
X88683912Y-57842272D01*
X88476454Y-57761902D01*
X88257757Y-57721020D01*
X88035271Y-57721020D01*
X87816574Y-57761902D01*
X87685378Y-57812727D01*
X87609115Y-57842272D01*
X87609109Y-57842274D01*
X87419953Y-57959394D01*
X87419951Y-57959396D01*
X87255534Y-58109281D01*
X87121457Y-58286828D01*
X87121452Y-58286836D01*
X87022289Y-58485981D01*
X87022283Y-58485996D01*
X86961399Y-58699982D01*
X86961398Y-58699984D01*
X86940871Y-58921519D01*
X86940871Y-58921520D01*
X86232864Y-58921520D01*
X86245396Y-53826687D01*
X86250006Y-53811130D01*
X86245679Y-53788947D01*
X86245492Y-53787941D01*
X86245493Y-53787937D01*
X86245491Y-53787932D01*
X86243503Y-53777195D01*
X86243134Y-53775959D01*
X86209150Y-53601843D01*
X86141254Y-53368005D01*
X86124169Y-53298833D01*
X86117729Y-53286984D01*
X86103409Y-53237666D01*
X86103405Y-53237654D01*
X85993434Y-52956191D01*
X85980048Y-52918470D01*
X85976801Y-52913620D01*
X85965402Y-52884444D01*
X85796245Y-52545041D01*
X85597303Y-52222193D01*
X85492242Y-52081715D01*
X85370194Y-51918522D01*
X85370190Y-51918517D01*
X85370183Y-51918508D01*
X85214842Y-51745635D01*
X85116716Y-51636434D01*
X84862356Y-51400006D01*
X86854700Y-51400006D01*
X86873864Y-51631297D01*
X86873866Y-51631308D01*
X86930842Y-51856300D01*
X87024075Y-52068848D01*
X87151016Y-52263147D01*
X87151019Y-52263151D01*
X87151021Y-52263153D01*
X87308216Y-52433913D01*
X87308219Y-52433915D01*
X87308222Y-52433918D01*
X87491365Y-52576464D01*
X87491371Y-52576468D01*
X87491374Y-52576470D01*
X87695497Y-52686936D01*
X87809487Y-52726068D01*
X87915015Y-52762297D01*
X87915017Y-52762297D01*
X87915019Y-52762298D01*
X88143951Y-52800500D01*
X88143952Y-52800500D01*
X88376048Y-52800500D01*
X88376049Y-52800500D01*
X88604981Y-52762298D01*
X88824503Y-52686936D01*
X89028626Y-52576470D01*
X89042956Y-52565317D01*
X89140368Y-52489498D01*
X89211784Y-52433913D01*
X89220130Y-52424846D01*
X89280010Y-52388854D01*
X89349849Y-52390949D01*
X89407468Y-52430469D01*
X89427544Y-52465491D01*
X89456203Y-52542330D01*
X89456206Y-52542335D01*
X89542452Y-52657544D01*
X89542455Y-52657547D01*
X89657664Y-52743793D01*
X89657671Y-52743797D01*
X89792517Y-52794091D01*
X89792516Y-52794091D01*
X89799444Y-52794835D01*
X89852127Y-52800500D01*
X91747872Y-52800499D01*
X91807483Y-52794091D01*
X91942331Y-52743796D01*
X92057546Y-52657546D01*
X92143796Y-52542331D01*
X92194091Y-52407483D01*
X92200500Y-52347873D01*
X92200499Y-50452128D01*
X92194091Y-50392517D01*
X92184972Y-50368069D01*
X92143797Y-50257671D01*
X92143793Y-50257664D01*
X92057547Y-50142455D01*
X92057544Y-50142452D01*
X91942335Y-50056206D01*
X91942328Y-50056202D01*
X91807482Y-50005908D01*
X91807483Y-50005908D01*
X91747883Y-49999501D01*
X91747881Y-49999500D01*
X91747873Y-49999500D01*
X91747864Y-49999500D01*
X89852129Y-49999500D01*
X89852123Y-49999501D01*
X89792516Y-50005908D01*
X89657671Y-50056202D01*
X89657664Y-50056206D01*
X89542455Y-50142452D01*
X89542452Y-50142455D01*
X89456206Y-50257664D01*
X89456203Y-50257670D01*
X89427544Y-50334508D01*
X89385672Y-50390441D01*
X89320208Y-50414858D01*
X89251935Y-50400006D01*
X89220135Y-50375158D01*
X89211784Y-50366087D01*
X89211778Y-50366082D01*
X89211777Y-50366081D01*
X89028634Y-50223535D01*
X89028628Y-50223531D01*
X88824504Y-50113064D01*
X88824495Y-50113061D01*
X88604984Y-50037702D01*
X88414450Y-50005908D01*
X88376049Y-49999500D01*
X88143951Y-49999500D01*
X88105550Y-50005908D01*
X87915015Y-50037702D01*
X87695504Y-50113061D01*
X87695495Y-50113064D01*
X87491371Y-50223531D01*
X87491365Y-50223535D01*
X87308222Y-50366081D01*
X87308219Y-50366084D01*
X87308216Y-50366086D01*
X87308216Y-50366087D01*
X87272317Y-50405084D01*
X87151016Y-50536852D01*
X87024075Y-50731151D01*
X86930842Y-50943699D01*
X86873866Y-51168691D01*
X86873864Y-51168702D01*
X86854700Y-51399993D01*
X86854700Y-51400006D01*
X84862356Y-51400006D01*
X84838964Y-51378263D01*
X84838956Y-51378257D01*
X84539136Y-51146053D01*
X84539135Y-51146052D01*
X84512743Y-51129170D01*
X84509715Y-51125691D01*
X84474240Y-51104540D01*
X84219690Y-50941707D01*
X84209622Y-50936475D01*
X84174113Y-50918025D01*
X84166421Y-50910644D01*
X84099231Y-50879116D01*
X83883180Y-50766856D01*
X83722679Y-50700997D01*
X83707064Y-50692234D01*
X83689053Y-50696889D01*
X83248831Y-50745753D01*
X83243645Y-50746109D01*
X82871346Y-50756057D01*
X82782307Y-50758228D01*
X82777254Y-50758145D01*
X82458108Y-50739897D01*
X82314760Y-50731141D01*
X82309828Y-50730641D01*
X82016406Y-50689007D01*
X81851191Y-50664646D01*
X81846414Y-50663749D01*
X81570123Y-50600578D01*
X81394919Y-50559228D01*
X81390327Y-50557956D01*
X81127987Y-50474322D01*
X80949201Y-50415637D01*
X80944823Y-50414015D01*
X80695566Y-50310844D01*
X80517228Y-50234909D01*
X80513090Y-50232964D01*
X80276985Y-50111160D01*
X80102072Y-50018330D01*
X80098196Y-50016090D01*
X79875748Y-49876592D01*
X79706716Y-49767457D01*
X79703123Y-49764953D01*
X79495046Y-49608752D01*
X79333998Y-49484099D01*
X79330703Y-49481362D01*
X79137853Y-49309548D01*
X78986546Y-49170255D01*
X78983563Y-49167317D01*
X78885498Y-49063972D01*
X78806873Y-48981113D01*
X78666877Y-48828204D01*
X78664231Y-48825115D01*
X78504519Y-48625727D01*
X78377258Y-48460376D01*
X78374925Y-48457133D01*
X78351389Y-48422097D01*
X78233065Y-48245957D01*
X78119762Y-48069411D01*
X78117772Y-48066083D01*
X78083394Y-48004290D01*
X77994522Y-47844544D01*
X77896227Y-47658103D01*
X77894558Y-47654687D01*
X77879483Y-47621277D01*
X77790595Y-47424279D01*
X77708250Y-47229403D01*
X77706912Y-47225952D01*
X77697130Y-47198302D01*
X77622805Y-46988208D01*
X77557163Y-46786355D01*
X77556154Y-46782913D01*
X77555156Y-46779102D01*
X77492380Y-46539461D01*
X77444052Y-46332146D01*
X77443358Y-46328731D01*
X77415708Y-46169909D01*
X77400271Y-46081237D01*
X77395349Y-46047210D01*
X77369724Y-45870044D01*
X77369332Y-45866691D01*
X77347149Y-45616788D01*
X77339713Y-45489283D01*
X81012301Y-45489283D01*
X81041927Y-45758533D01*
X81041929Y-45758544D01*
X81099938Y-45980430D01*
X81110442Y-46020608D01*
X81216384Y-46269910D01*
X81288512Y-46388095D01*
X81357493Y-46501125D01*
X81357500Y-46501135D01*
X81530767Y-46709339D01*
X81530773Y-46709344D01*
X81616723Y-46786355D01*
X81732512Y-46890102D01*
X81958424Y-47039564D01*
X82203690Y-47154540D01*
X82203697Y-47154542D01*
X82203699Y-47154543D01*
X82463071Y-47232577D01*
X82463078Y-47232578D01*
X82463083Y-47232580D01*
X82731075Y-47272020D01*
X82731080Y-47272020D01*
X82934150Y-47272020D01*
X82985647Y-47268250D01*
X83136670Y-47257197D01*
X83261441Y-47229403D01*
X83401060Y-47198302D01*
X83401062Y-47198301D01*
X83401067Y-47198300D01*
X83654072Y-47101534D01*
X83890291Y-46968961D01*
X84104691Y-46803408D01*
X84292700Y-46608401D01*
X84450313Y-46388099D01*
X84524301Y-46244189D01*
X84574163Y-46147210D01*
X84574165Y-46147204D01*
X84574170Y-46147195D01*
X84661632Y-45890825D01*
X84710833Y-45624453D01*
X84720726Y-45353755D01*
X84691100Y-45084502D01*
X84622586Y-44822432D01*
X84516644Y-44573130D01*
X84375532Y-44341910D01*
X84286261Y-44234639D01*
X84202260Y-44133700D01*
X84202254Y-44133695D01*
X84000516Y-43952938D01*
X83774606Y-43803477D01*
X83774604Y-43803476D01*
X83529338Y-43688500D01*
X83529333Y-43688498D01*
X83529328Y-43688496D01*
X83269956Y-43610462D01*
X83269942Y-43610459D01*
X83145312Y-43592118D01*
X83001953Y-43571020D01*
X82798883Y-43571020D01*
X82798878Y-43571020D01*
X82596358Y-43585843D01*
X82596345Y-43585845D01*
X82331967Y-43644737D01*
X82331960Y-43644740D01*
X82078953Y-43741507D01*
X81842740Y-43874077D01*
X81628336Y-44039632D01*
X81440336Y-44234629D01*
X81440330Y-44234636D01*
X81282716Y-44454939D01*
X81282713Y-44454944D01*
X81158864Y-44695829D01*
X81158857Y-44695847D01*
X81071398Y-44952205D01*
X81071395Y-44952219D01*
X81022195Y-45218588D01*
X81022194Y-45218595D01*
X81012301Y-45489283D01*
X77339713Y-45489283D01*
X77334699Y-45403314D01*
X77334596Y-45400040D01*
X77333418Y-45149492D01*
X77334256Y-45118595D01*
X77339229Y-44935268D01*
X77339396Y-44932153D01*
X77359183Y-44682613D01*
X77383276Y-44469371D01*
X77383687Y-44466406D01*
X77424282Y-44219506D01*
X77434034Y-44170875D01*
X77466518Y-44008873D01*
X77467164Y-44006015D01*
X77528256Y-43763518D01*
X77588366Y-43557034D01*
X77589204Y-43554390D01*
X77670352Y-43317960D01*
X77747923Y-43117169D01*
X77748988Y-43114593D01*
X77758969Y-43091905D01*
X77849586Y-42885929D01*
X77944645Y-42691158D01*
X78064688Y-42470525D01*
X78176017Y-42284560D01*
X78314125Y-42074735D01*
X78440878Y-41898983D01*
X78596083Y-41701443D01*
X78737356Y-41537147D01*
X78907656Y-41354264D01*
X78909565Y-41352306D01*
X79063292Y-41201677D01*
X79248357Y-41033652D01*
X79250491Y-41031804D01*
X79416391Y-40894928D01*
X79614917Y-40742957D01*
X79617288Y-40741231D01*
X79794089Y-40619118D01*
X80004756Y-40484231D01*
X80007336Y-40482669D01*
X80193680Y-40376208D01*
X80415065Y-40259349D01*
X80417865Y-40257962D01*
X80612294Y-40167926D01*
X80842911Y-40069919D01*
X80845940Y-40068726D01*
X81046952Y-39995739D01*
X81285237Y-39917298D01*
X81288497Y-39916323D01*
X81494534Y-39860870D01*
X81738949Y-39802561D01*
X81742317Y-39801858D01*
X81951854Y-39764264D01*
X82200698Y-39726564D01*
X82204216Y-39726135D01*
X82415605Y-39706602D01*
X82667275Y-39689836D01*
X82670853Y-39689704D01*
X82882471Y-39688275D01*
X83135272Y-39692651D01*
G37*
%TD.AperFunction*%
%TD*%
M02*
