%TF.GenerationSoftware,KiCad,Pcbnew,7.0.7*%
%TF.CreationDate,2023-10-16T17:55:57+02:00*%
%TF.ProjectId,arduino-nano-radio-transmitter,61726475-696e-46f2-9d6e-616e6f2d7261,0*%
%TF.SameCoordinates,Original*%
%TF.FileFunction,Drillmap*%
%TF.FilePolarity,Positive*%
%FSLAX45Y45*%
G04 Gerber Fmt 4.5, Leading zero omitted, Abs format (unit mm)*
G04 Created by KiCad (PCBNEW 7.0.7) date 2023-10-16 17:55:57*
%MOMM*%
%LPD*%
G01*
G04 APERTURE LIST*
%ADD10C,0.100000*%
%ADD11C,0.200000*%
%ADD12C,0.320000*%
G04 APERTURE END LIST*
D10*
X7840000Y-3310000D02*
X10660000Y-3310000D01*
X11300000Y-3950000D02*
X11300000Y-9550000D01*
X10660000Y-10190000D02*
X7830000Y-10190000D01*
D11*
X7190000Y-9550000D02*
G75*
G03*
X7830000Y-10190000I640000J0D01*
G01*
X11300000Y-3950000D02*
G75*
G03*
X10660000Y-3310000I-640000J0D01*
G01*
D10*
X7190000Y-9550000D02*
X7200000Y-3950000D01*
D11*
X7840000Y-3310000D02*
G75*
G03*
X7200000Y-3950000I0J-640000D01*
G01*
X10660000Y-10190000D02*
G75*
G03*
X11300000Y-9550000I0J640000D01*
G01*
D12*
X7670000Y-9390000D02*
X7990000Y-9710000D01*
X7990000Y-9390000D02*
X7670000Y-9710000D01*
X7680000Y-3790000D02*
X8000000Y-4110000D01*
X8000000Y-3790000D02*
X7680000Y-4110000D01*
X10500000Y-3790000D02*
X10820000Y-4110000D01*
X10820000Y-3790000D02*
X10500000Y-4110000D01*
X10500000Y-9390000D02*
X10820000Y-9710000D01*
X10820000Y-9390000D02*
X10500000Y-9710000D01*
D11*
X7440777Y-10511484D02*
X7440777Y-10311484D01*
X7440777Y-10311484D02*
X7488396Y-10311484D01*
X7488396Y-10311484D02*
X7516967Y-10321008D01*
X7516967Y-10321008D02*
X7536015Y-10340055D01*
X7536015Y-10340055D02*
X7545539Y-10359103D01*
X7545539Y-10359103D02*
X7555062Y-10397198D01*
X7555062Y-10397198D02*
X7555062Y-10425770D01*
X7555062Y-10425770D02*
X7545539Y-10463865D01*
X7545539Y-10463865D02*
X7536015Y-10482912D01*
X7536015Y-10482912D02*
X7516967Y-10501960D01*
X7516967Y-10501960D02*
X7488396Y-10511484D01*
X7488396Y-10511484D02*
X7440777Y-10511484D01*
X7640777Y-10511484D02*
X7640777Y-10378150D01*
X7640777Y-10416246D02*
X7650301Y-10397198D01*
X7650301Y-10397198D02*
X7659824Y-10387674D01*
X7659824Y-10387674D02*
X7678872Y-10378150D01*
X7678872Y-10378150D02*
X7697920Y-10378150D01*
X7764586Y-10511484D02*
X7764586Y-10378150D01*
X7764586Y-10311484D02*
X7755062Y-10321008D01*
X7755062Y-10321008D02*
X7764586Y-10330531D01*
X7764586Y-10330531D02*
X7774110Y-10321008D01*
X7774110Y-10321008D02*
X7764586Y-10311484D01*
X7764586Y-10311484D02*
X7764586Y-10330531D01*
X7888396Y-10511484D02*
X7869348Y-10501960D01*
X7869348Y-10501960D02*
X7859824Y-10482912D01*
X7859824Y-10482912D02*
X7859824Y-10311484D01*
X7993158Y-10511484D02*
X7974110Y-10501960D01*
X7974110Y-10501960D02*
X7964586Y-10482912D01*
X7964586Y-10482912D02*
X7964586Y-10311484D01*
X8221729Y-10511484D02*
X8221729Y-10311484D01*
X8221729Y-10311484D02*
X8288396Y-10454341D01*
X8288396Y-10454341D02*
X8355062Y-10311484D01*
X8355062Y-10311484D02*
X8355062Y-10511484D01*
X8536015Y-10511484D02*
X8536015Y-10406722D01*
X8536015Y-10406722D02*
X8526491Y-10387674D01*
X8526491Y-10387674D02*
X8507444Y-10378150D01*
X8507444Y-10378150D02*
X8469348Y-10378150D01*
X8469348Y-10378150D02*
X8450301Y-10387674D01*
X8536015Y-10501960D02*
X8516967Y-10511484D01*
X8516967Y-10511484D02*
X8469348Y-10511484D01*
X8469348Y-10511484D02*
X8450301Y-10501960D01*
X8450301Y-10501960D02*
X8440777Y-10482912D01*
X8440777Y-10482912D02*
X8440777Y-10463865D01*
X8440777Y-10463865D02*
X8450301Y-10444817D01*
X8450301Y-10444817D02*
X8469348Y-10435293D01*
X8469348Y-10435293D02*
X8516967Y-10435293D01*
X8516967Y-10435293D02*
X8536015Y-10425770D01*
X8631253Y-10378150D02*
X8631253Y-10578150D01*
X8631253Y-10387674D02*
X8650301Y-10378150D01*
X8650301Y-10378150D02*
X8688396Y-10378150D01*
X8688396Y-10378150D02*
X8707444Y-10387674D01*
X8707444Y-10387674D02*
X8716967Y-10397198D01*
X8716967Y-10397198D02*
X8726491Y-10416246D01*
X8726491Y-10416246D02*
X8726491Y-10473389D01*
X8726491Y-10473389D02*
X8716967Y-10492436D01*
X8716967Y-10492436D02*
X8707444Y-10501960D01*
X8707444Y-10501960D02*
X8688396Y-10511484D01*
X8688396Y-10511484D02*
X8650301Y-10511484D01*
X8650301Y-10511484D02*
X8631253Y-10501960D01*
X8812205Y-10492436D02*
X8821729Y-10501960D01*
X8821729Y-10501960D02*
X8812205Y-10511484D01*
X8812205Y-10511484D02*
X8802682Y-10501960D01*
X8802682Y-10501960D02*
X8812205Y-10492436D01*
X8812205Y-10492436D02*
X8812205Y-10511484D01*
X8812205Y-10387674D02*
X8821729Y-10397198D01*
X8821729Y-10397198D02*
X8812205Y-10406722D01*
X8812205Y-10406722D02*
X8802682Y-10397198D01*
X8802682Y-10397198D02*
X8812205Y-10387674D01*
X8812205Y-10387674D02*
X8812205Y-10406722D01*
X6980000Y-10740000D02*
X7180000Y-10940000D01*
X7180000Y-10740000D02*
X6980000Y-10940000D01*
X7421729Y-10731484D02*
X7545539Y-10731484D01*
X7545539Y-10731484D02*
X7478872Y-10807674D01*
X7478872Y-10807674D02*
X7507443Y-10807674D01*
X7507443Y-10807674D02*
X7526491Y-10817198D01*
X7526491Y-10817198D02*
X7536015Y-10826722D01*
X7536015Y-10826722D02*
X7545539Y-10845770D01*
X7545539Y-10845770D02*
X7545539Y-10893389D01*
X7545539Y-10893389D02*
X7536015Y-10912436D01*
X7536015Y-10912436D02*
X7526491Y-10921960D01*
X7526491Y-10921960D02*
X7507443Y-10931484D01*
X7507443Y-10931484D02*
X7450301Y-10931484D01*
X7450301Y-10931484D02*
X7431253Y-10921960D01*
X7431253Y-10921960D02*
X7421729Y-10912436D01*
X7631253Y-10912436D02*
X7640777Y-10921960D01*
X7640777Y-10921960D02*
X7631253Y-10931484D01*
X7631253Y-10931484D02*
X7621729Y-10921960D01*
X7621729Y-10921960D02*
X7631253Y-10912436D01*
X7631253Y-10912436D02*
X7631253Y-10931484D01*
X7716967Y-10750531D02*
X7726491Y-10741008D01*
X7726491Y-10741008D02*
X7745539Y-10731484D01*
X7745539Y-10731484D02*
X7793158Y-10731484D01*
X7793158Y-10731484D02*
X7812205Y-10741008D01*
X7812205Y-10741008D02*
X7821729Y-10750531D01*
X7821729Y-10750531D02*
X7831253Y-10769579D01*
X7831253Y-10769579D02*
X7831253Y-10788627D01*
X7831253Y-10788627D02*
X7821729Y-10817198D01*
X7821729Y-10817198D02*
X7707443Y-10931484D01*
X7707443Y-10931484D02*
X7831253Y-10931484D01*
X7955062Y-10731484D02*
X7974110Y-10731484D01*
X7974110Y-10731484D02*
X7993158Y-10741008D01*
X7993158Y-10741008D02*
X8002682Y-10750531D01*
X8002682Y-10750531D02*
X8012205Y-10769579D01*
X8012205Y-10769579D02*
X8021729Y-10807674D01*
X8021729Y-10807674D02*
X8021729Y-10855293D01*
X8021729Y-10855293D02*
X8012205Y-10893389D01*
X8012205Y-10893389D02*
X8002682Y-10912436D01*
X8002682Y-10912436D02*
X7993158Y-10921960D01*
X7993158Y-10921960D02*
X7974110Y-10931484D01*
X7974110Y-10931484D02*
X7955062Y-10931484D01*
X7955062Y-10931484D02*
X7936015Y-10921960D01*
X7936015Y-10921960D02*
X7926491Y-10912436D01*
X7926491Y-10912436D02*
X7916967Y-10893389D01*
X7916967Y-10893389D02*
X7907443Y-10855293D01*
X7907443Y-10855293D02*
X7907443Y-10807674D01*
X7907443Y-10807674D02*
X7916967Y-10769579D01*
X7916967Y-10769579D02*
X7926491Y-10750531D01*
X7926491Y-10750531D02*
X7936015Y-10741008D01*
X7936015Y-10741008D02*
X7955062Y-10731484D01*
X8145539Y-10731484D02*
X8164586Y-10731484D01*
X8164586Y-10731484D02*
X8183634Y-10741008D01*
X8183634Y-10741008D02*
X8193158Y-10750531D01*
X8193158Y-10750531D02*
X8202682Y-10769579D01*
X8202682Y-10769579D02*
X8212205Y-10807674D01*
X8212205Y-10807674D02*
X8212205Y-10855293D01*
X8212205Y-10855293D02*
X8202682Y-10893389D01*
X8202682Y-10893389D02*
X8193158Y-10912436D01*
X8193158Y-10912436D02*
X8183634Y-10921960D01*
X8183634Y-10921960D02*
X8164586Y-10931484D01*
X8164586Y-10931484D02*
X8145539Y-10931484D01*
X8145539Y-10931484D02*
X8126491Y-10921960D01*
X8126491Y-10921960D02*
X8116967Y-10912436D01*
X8116967Y-10912436D02*
X8107443Y-10893389D01*
X8107443Y-10893389D02*
X8097920Y-10855293D01*
X8097920Y-10855293D02*
X8097920Y-10807674D01*
X8097920Y-10807674D02*
X8107443Y-10769579D01*
X8107443Y-10769579D02*
X8116967Y-10750531D01*
X8116967Y-10750531D02*
X8126491Y-10741008D01*
X8126491Y-10741008D02*
X8145539Y-10731484D01*
X8297920Y-10931484D02*
X8297920Y-10798150D01*
X8297920Y-10817198D02*
X8307443Y-10807674D01*
X8307443Y-10807674D02*
X8326491Y-10798150D01*
X8326491Y-10798150D02*
X8355063Y-10798150D01*
X8355063Y-10798150D02*
X8374110Y-10807674D01*
X8374110Y-10807674D02*
X8383634Y-10826722D01*
X8383634Y-10826722D02*
X8383634Y-10931484D01*
X8383634Y-10826722D02*
X8393158Y-10807674D01*
X8393158Y-10807674D02*
X8412205Y-10798150D01*
X8412205Y-10798150D02*
X8440777Y-10798150D01*
X8440777Y-10798150D02*
X8459825Y-10807674D01*
X8459825Y-10807674D02*
X8469348Y-10826722D01*
X8469348Y-10826722D02*
X8469348Y-10931484D01*
X8564586Y-10931484D02*
X8564586Y-10798150D01*
X8564586Y-10817198D02*
X8574110Y-10807674D01*
X8574110Y-10807674D02*
X8593158Y-10798150D01*
X8593158Y-10798150D02*
X8621729Y-10798150D01*
X8621729Y-10798150D02*
X8640777Y-10807674D01*
X8640777Y-10807674D02*
X8650301Y-10826722D01*
X8650301Y-10826722D02*
X8650301Y-10931484D01*
X8650301Y-10826722D02*
X8659825Y-10807674D01*
X8659825Y-10807674D02*
X8678872Y-10798150D01*
X8678872Y-10798150D02*
X8707444Y-10798150D01*
X8707444Y-10798150D02*
X8726491Y-10807674D01*
X8726491Y-10807674D02*
X8736015Y-10826722D01*
X8736015Y-10826722D02*
X8736015Y-10931484D01*
X9126491Y-10721960D02*
X8955063Y-10979103D01*
X9383634Y-10731484D02*
X9402682Y-10731484D01*
X9402682Y-10731484D02*
X9421729Y-10741008D01*
X9421729Y-10741008D02*
X9431253Y-10750531D01*
X9431253Y-10750531D02*
X9440777Y-10769579D01*
X9440777Y-10769579D02*
X9450301Y-10807674D01*
X9450301Y-10807674D02*
X9450301Y-10855293D01*
X9450301Y-10855293D02*
X9440777Y-10893389D01*
X9440777Y-10893389D02*
X9431253Y-10912436D01*
X9431253Y-10912436D02*
X9421729Y-10921960D01*
X9421729Y-10921960D02*
X9402682Y-10931484D01*
X9402682Y-10931484D02*
X9383634Y-10931484D01*
X9383634Y-10931484D02*
X9364587Y-10921960D01*
X9364587Y-10921960D02*
X9355063Y-10912436D01*
X9355063Y-10912436D02*
X9345539Y-10893389D01*
X9345539Y-10893389D02*
X9336015Y-10855293D01*
X9336015Y-10855293D02*
X9336015Y-10807674D01*
X9336015Y-10807674D02*
X9345539Y-10769579D01*
X9345539Y-10769579D02*
X9355063Y-10750531D01*
X9355063Y-10750531D02*
X9364587Y-10741008D01*
X9364587Y-10741008D02*
X9383634Y-10731484D01*
X9536015Y-10912436D02*
X9545539Y-10921960D01*
X9545539Y-10921960D02*
X9536015Y-10931484D01*
X9536015Y-10931484D02*
X9526491Y-10921960D01*
X9526491Y-10921960D02*
X9536015Y-10912436D01*
X9536015Y-10912436D02*
X9536015Y-10931484D01*
X9736015Y-10931484D02*
X9621729Y-10931484D01*
X9678872Y-10931484D02*
X9678872Y-10731484D01*
X9678872Y-10731484D02*
X9659825Y-10760055D01*
X9659825Y-10760055D02*
X9640777Y-10779103D01*
X9640777Y-10779103D02*
X9621729Y-10788627D01*
X9812206Y-10750531D02*
X9821729Y-10741008D01*
X9821729Y-10741008D02*
X9840777Y-10731484D01*
X9840777Y-10731484D02*
X9888396Y-10731484D01*
X9888396Y-10731484D02*
X9907444Y-10741008D01*
X9907444Y-10741008D02*
X9916968Y-10750531D01*
X9916968Y-10750531D02*
X9926491Y-10769579D01*
X9926491Y-10769579D02*
X9926491Y-10788627D01*
X9926491Y-10788627D02*
X9916968Y-10817198D01*
X9916968Y-10817198D02*
X9802682Y-10931484D01*
X9802682Y-10931484D02*
X9926491Y-10931484D01*
X10097920Y-10731484D02*
X10059825Y-10731484D01*
X10059825Y-10731484D02*
X10040777Y-10741008D01*
X10040777Y-10741008D02*
X10031253Y-10750531D01*
X10031253Y-10750531D02*
X10012206Y-10779103D01*
X10012206Y-10779103D02*
X10002682Y-10817198D01*
X10002682Y-10817198D02*
X10002682Y-10893389D01*
X10002682Y-10893389D02*
X10012206Y-10912436D01*
X10012206Y-10912436D02*
X10021729Y-10921960D01*
X10021729Y-10921960D02*
X10040777Y-10931484D01*
X10040777Y-10931484D02*
X10078872Y-10931484D01*
X10078872Y-10931484D02*
X10097920Y-10921960D01*
X10097920Y-10921960D02*
X10107444Y-10912436D01*
X10107444Y-10912436D02*
X10116968Y-10893389D01*
X10116968Y-10893389D02*
X10116968Y-10845770D01*
X10116968Y-10845770D02*
X10107444Y-10826722D01*
X10107444Y-10826722D02*
X10097920Y-10817198D01*
X10097920Y-10817198D02*
X10078872Y-10807674D01*
X10078872Y-10807674D02*
X10040777Y-10807674D01*
X10040777Y-10807674D02*
X10021729Y-10817198D01*
X10021729Y-10817198D02*
X10012206Y-10826722D01*
X10012206Y-10826722D02*
X10002682Y-10845770D01*
X10240777Y-10731484D02*
X10259825Y-10731484D01*
X10259825Y-10731484D02*
X10278872Y-10741008D01*
X10278872Y-10741008D02*
X10288396Y-10750531D01*
X10288396Y-10750531D02*
X10297920Y-10769579D01*
X10297920Y-10769579D02*
X10307444Y-10807674D01*
X10307444Y-10807674D02*
X10307444Y-10855293D01*
X10307444Y-10855293D02*
X10297920Y-10893389D01*
X10297920Y-10893389D02*
X10288396Y-10912436D01*
X10288396Y-10912436D02*
X10278872Y-10921960D01*
X10278872Y-10921960D02*
X10259825Y-10931484D01*
X10259825Y-10931484D02*
X10240777Y-10931484D01*
X10240777Y-10931484D02*
X10221729Y-10921960D01*
X10221729Y-10921960D02*
X10212206Y-10912436D01*
X10212206Y-10912436D02*
X10202682Y-10893389D01*
X10202682Y-10893389D02*
X10193158Y-10855293D01*
X10193158Y-10855293D02*
X10193158Y-10807674D01*
X10193158Y-10807674D02*
X10202682Y-10769579D01*
X10202682Y-10769579D02*
X10212206Y-10750531D01*
X10212206Y-10750531D02*
X10221729Y-10741008D01*
X10221729Y-10741008D02*
X10240777Y-10731484D01*
X10383634Y-10731484D02*
X10383634Y-10769579D01*
X10459825Y-10731484D02*
X10459825Y-10769579D01*
X10755063Y-11007674D02*
X10745539Y-10998150D01*
X10745539Y-10998150D02*
X10726491Y-10969579D01*
X10726491Y-10969579D02*
X10716968Y-10950531D01*
X10716968Y-10950531D02*
X10707444Y-10921960D01*
X10707444Y-10921960D02*
X10697920Y-10874341D01*
X10697920Y-10874341D02*
X10697920Y-10836246D01*
X10697920Y-10836246D02*
X10707444Y-10788627D01*
X10707444Y-10788627D02*
X10716968Y-10760055D01*
X10716968Y-10760055D02*
X10726491Y-10741008D01*
X10726491Y-10741008D02*
X10745539Y-10712436D01*
X10745539Y-10712436D02*
X10755063Y-10702912D01*
X10916968Y-10798150D02*
X10916968Y-10931484D01*
X10869349Y-10721960D02*
X10821730Y-10864817D01*
X10821730Y-10864817D02*
X10945539Y-10864817D01*
X11174111Y-10931484D02*
X11174111Y-10731484D01*
X11259825Y-10931484D02*
X11259825Y-10826722D01*
X11259825Y-10826722D02*
X11250301Y-10807674D01*
X11250301Y-10807674D02*
X11231253Y-10798150D01*
X11231253Y-10798150D02*
X11202682Y-10798150D01*
X11202682Y-10798150D02*
X11183634Y-10807674D01*
X11183634Y-10807674D02*
X11174111Y-10817198D01*
X11383634Y-10931484D02*
X11364587Y-10921960D01*
X11364587Y-10921960D02*
X11355063Y-10912436D01*
X11355063Y-10912436D02*
X11345539Y-10893389D01*
X11345539Y-10893389D02*
X11345539Y-10836246D01*
X11345539Y-10836246D02*
X11355063Y-10817198D01*
X11355063Y-10817198D02*
X11364587Y-10807674D01*
X11364587Y-10807674D02*
X11383634Y-10798150D01*
X11383634Y-10798150D02*
X11412206Y-10798150D01*
X11412206Y-10798150D02*
X11431253Y-10807674D01*
X11431253Y-10807674D02*
X11440777Y-10817198D01*
X11440777Y-10817198D02*
X11450301Y-10836246D01*
X11450301Y-10836246D02*
X11450301Y-10893389D01*
X11450301Y-10893389D02*
X11440777Y-10912436D01*
X11440777Y-10912436D02*
X11431253Y-10921960D01*
X11431253Y-10921960D02*
X11412206Y-10931484D01*
X11412206Y-10931484D02*
X11383634Y-10931484D01*
X11564587Y-10931484D02*
X11545539Y-10921960D01*
X11545539Y-10921960D02*
X11536015Y-10902912D01*
X11536015Y-10902912D02*
X11536015Y-10731484D01*
X11716968Y-10921960D02*
X11697920Y-10931484D01*
X11697920Y-10931484D02*
X11659825Y-10931484D01*
X11659825Y-10931484D02*
X11640777Y-10921960D01*
X11640777Y-10921960D02*
X11631253Y-10902912D01*
X11631253Y-10902912D02*
X11631253Y-10826722D01*
X11631253Y-10826722D02*
X11640777Y-10807674D01*
X11640777Y-10807674D02*
X11659825Y-10798150D01*
X11659825Y-10798150D02*
X11697920Y-10798150D01*
X11697920Y-10798150D02*
X11716968Y-10807674D01*
X11716968Y-10807674D02*
X11726491Y-10826722D01*
X11726491Y-10826722D02*
X11726491Y-10845770D01*
X11726491Y-10845770D02*
X11631253Y-10864817D01*
X11802682Y-10921960D02*
X11821730Y-10931484D01*
X11821730Y-10931484D02*
X11859825Y-10931484D01*
X11859825Y-10931484D02*
X11878872Y-10921960D01*
X11878872Y-10921960D02*
X11888396Y-10902912D01*
X11888396Y-10902912D02*
X11888396Y-10893389D01*
X11888396Y-10893389D02*
X11878872Y-10874341D01*
X11878872Y-10874341D02*
X11859825Y-10864817D01*
X11859825Y-10864817D02*
X11831253Y-10864817D01*
X11831253Y-10864817D02*
X11812206Y-10855293D01*
X11812206Y-10855293D02*
X11802682Y-10836246D01*
X11802682Y-10836246D02*
X11802682Y-10826722D01*
X11802682Y-10826722D02*
X11812206Y-10807674D01*
X11812206Y-10807674D02*
X11831253Y-10798150D01*
X11831253Y-10798150D02*
X11859825Y-10798150D01*
X11859825Y-10798150D02*
X11878872Y-10807674D01*
X11955063Y-11007674D02*
X11964587Y-10998150D01*
X11964587Y-10998150D02*
X11983634Y-10969579D01*
X11983634Y-10969579D02*
X11993158Y-10950531D01*
X11993158Y-10950531D02*
X12002682Y-10921960D01*
X12002682Y-10921960D02*
X12012206Y-10874341D01*
X12012206Y-10874341D02*
X12012206Y-10836246D01*
X12012206Y-10836246D02*
X12002682Y-10788627D01*
X12002682Y-10788627D02*
X11993158Y-10760055D01*
X11993158Y-10760055D02*
X11983634Y-10741008D01*
X11983634Y-10741008D02*
X11964587Y-10712436D01*
X11964587Y-10712436D02*
X11955063Y-10702912D01*
X12316968Y-11007674D02*
X12307444Y-10998150D01*
X12307444Y-10998150D02*
X12288396Y-10969579D01*
X12288396Y-10969579D02*
X12278872Y-10950531D01*
X12278872Y-10950531D02*
X12269349Y-10921960D01*
X12269349Y-10921960D02*
X12259825Y-10874341D01*
X12259825Y-10874341D02*
X12259825Y-10836246D01*
X12259825Y-10836246D02*
X12269349Y-10788627D01*
X12269349Y-10788627D02*
X12278872Y-10760055D01*
X12278872Y-10760055D02*
X12288396Y-10741008D01*
X12288396Y-10741008D02*
X12307444Y-10712436D01*
X12307444Y-10712436D02*
X12316968Y-10702912D01*
X12393158Y-10798150D02*
X12393158Y-10931484D01*
X12393158Y-10817198D02*
X12402682Y-10807674D01*
X12402682Y-10807674D02*
X12421730Y-10798150D01*
X12421730Y-10798150D02*
X12450301Y-10798150D01*
X12450301Y-10798150D02*
X12469349Y-10807674D01*
X12469349Y-10807674D02*
X12478872Y-10826722D01*
X12478872Y-10826722D02*
X12478872Y-10931484D01*
X12602682Y-10931484D02*
X12583634Y-10921960D01*
X12583634Y-10921960D02*
X12574111Y-10912436D01*
X12574111Y-10912436D02*
X12564587Y-10893389D01*
X12564587Y-10893389D02*
X12564587Y-10836246D01*
X12564587Y-10836246D02*
X12574111Y-10817198D01*
X12574111Y-10817198D02*
X12583634Y-10807674D01*
X12583634Y-10807674D02*
X12602682Y-10798150D01*
X12602682Y-10798150D02*
X12631253Y-10798150D01*
X12631253Y-10798150D02*
X12650301Y-10807674D01*
X12650301Y-10807674D02*
X12659825Y-10817198D01*
X12659825Y-10817198D02*
X12669349Y-10836246D01*
X12669349Y-10836246D02*
X12669349Y-10893389D01*
X12669349Y-10893389D02*
X12659825Y-10912436D01*
X12659825Y-10912436D02*
X12650301Y-10921960D01*
X12650301Y-10921960D02*
X12631253Y-10931484D01*
X12631253Y-10931484D02*
X12602682Y-10931484D01*
X12726492Y-10798150D02*
X12802682Y-10798150D01*
X12755063Y-10731484D02*
X12755063Y-10902912D01*
X12755063Y-10902912D02*
X12764587Y-10921960D01*
X12764587Y-10921960D02*
X12783634Y-10931484D01*
X12783634Y-10931484D02*
X12802682Y-10931484D01*
X13021730Y-10798150D02*
X13021730Y-10998150D01*
X13021730Y-10807674D02*
X13040777Y-10798150D01*
X13040777Y-10798150D02*
X13078873Y-10798150D01*
X13078873Y-10798150D02*
X13097920Y-10807674D01*
X13097920Y-10807674D02*
X13107444Y-10817198D01*
X13107444Y-10817198D02*
X13116968Y-10836246D01*
X13116968Y-10836246D02*
X13116968Y-10893389D01*
X13116968Y-10893389D02*
X13107444Y-10912436D01*
X13107444Y-10912436D02*
X13097920Y-10921960D01*
X13097920Y-10921960D02*
X13078873Y-10931484D01*
X13078873Y-10931484D02*
X13040777Y-10931484D01*
X13040777Y-10931484D02*
X13021730Y-10921960D01*
X13231253Y-10931484D02*
X13212206Y-10921960D01*
X13212206Y-10921960D02*
X13202682Y-10902912D01*
X13202682Y-10902912D02*
X13202682Y-10731484D01*
X13393158Y-10931484D02*
X13393158Y-10826722D01*
X13393158Y-10826722D02*
X13383634Y-10807674D01*
X13383634Y-10807674D02*
X13364587Y-10798150D01*
X13364587Y-10798150D02*
X13326492Y-10798150D01*
X13326492Y-10798150D02*
X13307444Y-10807674D01*
X13393158Y-10921960D02*
X13374111Y-10931484D01*
X13374111Y-10931484D02*
X13326492Y-10931484D01*
X13326492Y-10931484D02*
X13307444Y-10921960D01*
X13307444Y-10921960D02*
X13297920Y-10902912D01*
X13297920Y-10902912D02*
X13297920Y-10883865D01*
X13297920Y-10883865D02*
X13307444Y-10864817D01*
X13307444Y-10864817D02*
X13326492Y-10855293D01*
X13326492Y-10855293D02*
X13374111Y-10855293D01*
X13374111Y-10855293D02*
X13393158Y-10845770D01*
X13459825Y-10798150D02*
X13536015Y-10798150D01*
X13488396Y-10731484D02*
X13488396Y-10902912D01*
X13488396Y-10902912D02*
X13497920Y-10921960D01*
X13497920Y-10921960D02*
X13516968Y-10931484D01*
X13516968Y-10931484D02*
X13536015Y-10931484D01*
X13678873Y-10921960D02*
X13659825Y-10931484D01*
X13659825Y-10931484D02*
X13621730Y-10931484D01*
X13621730Y-10931484D02*
X13602682Y-10921960D01*
X13602682Y-10921960D02*
X13593158Y-10902912D01*
X13593158Y-10902912D02*
X13593158Y-10826722D01*
X13593158Y-10826722D02*
X13602682Y-10807674D01*
X13602682Y-10807674D02*
X13621730Y-10798150D01*
X13621730Y-10798150D02*
X13659825Y-10798150D01*
X13659825Y-10798150D02*
X13678873Y-10807674D01*
X13678873Y-10807674D02*
X13688396Y-10826722D01*
X13688396Y-10826722D02*
X13688396Y-10845770D01*
X13688396Y-10845770D02*
X13593158Y-10864817D01*
X13859825Y-10931484D02*
X13859825Y-10731484D01*
X13859825Y-10921960D02*
X13840777Y-10931484D01*
X13840777Y-10931484D02*
X13802682Y-10931484D01*
X13802682Y-10931484D02*
X13783634Y-10921960D01*
X13783634Y-10921960D02*
X13774111Y-10912436D01*
X13774111Y-10912436D02*
X13764587Y-10893389D01*
X13764587Y-10893389D02*
X13764587Y-10836246D01*
X13764587Y-10836246D02*
X13774111Y-10817198D01*
X13774111Y-10817198D02*
X13783634Y-10807674D01*
X13783634Y-10807674D02*
X13802682Y-10798150D01*
X13802682Y-10798150D02*
X13840777Y-10798150D01*
X13840777Y-10798150D02*
X13859825Y-10807674D01*
X13936015Y-11007674D02*
X13945539Y-10998150D01*
X13945539Y-10998150D02*
X13964587Y-10969579D01*
X13964587Y-10969579D02*
X13974111Y-10950531D01*
X13974111Y-10950531D02*
X13983634Y-10921960D01*
X13983634Y-10921960D02*
X13993158Y-10874341D01*
X13993158Y-10874341D02*
X13993158Y-10836246D01*
X13993158Y-10836246D02*
X13983634Y-10788627D01*
X13983634Y-10788627D02*
X13974111Y-10760055D01*
X13974111Y-10760055D02*
X13964587Y-10741008D01*
X13964587Y-10741008D02*
X13945539Y-10712436D01*
X13945539Y-10712436D02*
X13936015Y-10702912D01*
M02*
