%TF.GenerationSoftware,KiCad,Pcbnew,7.0.7*%
%TF.CreationDate,2023-10-16T17:56:00+02:00*%
%TF.ProjectId,arduino-nano-radio-transmitter,61726475-696e-46f2-9d6e-616e6f2d7261,0*%
%TF.SameCoordinates,Original*%
%TF.FileFunction,Copper,L1,Top*%
%TF.FilePolarity,Positive*%
%FSLAX46Y46*%
G04 Gerber Fmt 4.6, Leading zero omitted, Abs format (unit mm)*
G04 Created by KiCad (PCBNEW 7.0.7) date 2023-10-16 17:56:00*
%MOMM*%
%LPD*%
G01*
G04 APERTURE LIST*
%TA.AperFunction,ComponentPad*%
%ADD10R,1.700000X1.700000*%
%TD*%
%TA.AperFunction,ComponentPad*%
%ADD11O,1.700000X1.700000*%
%TD*%
%TA.AperFunction,ComponentPad*%
%ADD12C,1.600000*%
%TD*%
%TA.AperFunction,ComponentPad*%
%ADD13R,1.200000X1.200000*%
%TD*%
%TA.AperFunction,ComponentPad*%
%ADD14C,1.200000*%
%TD*%
%TA.AperFunction,ComponentPad*%
%ADD15C,1.700000*%
%TD*%
%TA.AperFunction,ComponentPad*%
%ADD16R,1.600000X1.600000*%
%TD*%
%TA.AperFunction,ComponentPad*%
%ADD17O,1.600000X1.600000*%
%TD*%
%TA.AperFunction,ViaPad*%
%ADD18C,0.800000*%
%TD*%
%TA.AperFunction,Conductor*%
%ADD19C,0.250000*%
%TD*%
%TA.AperFunction,Conductor*%
%ADD20C,0.500000*%
%TD*%
%TA.AperFunction,Conductor*%
%ADD21C,0.900000*%
%TD*%
G04 APERTURE END LIST*
D10*
%TO.P,BT1,1,+*%
%TO.N,+12V*%
X107850000Y-44900000D03*
D11*
%TO.P,BT1,2,-*%
%TO.N,GND*%
X107850000Y-47440000D03*
%TD*%
D10*
%TO.P,J1,1,Pin_1*%
%TO.N,Net-(A1-A0)*%
X96050000Y-44900000D03*
D11*
%TO.P,J1,2,Pin_2*%
%TO.N,Net-(A1-A1)*%
X96050000Y-47440000D03*
%TO.P,J1,3,Pin_3*%
%TO.N,Net-(A1-A2)*%
X96050000Y-49980000D03*
%TO.P,J1,4,Pin_4*%
%TO.N,Net-(A1-A3)*%
X96050000Y-52520000D03*
%TD*%
D12*
%TO.P,C3,1*%
%TO.N,GND*%
X106650000Y-50450000D03*
%TO.P,C3,2*%
%TO.N,+12V*%
X109150000Y-50450000D03*
%TD*%
D13*
%TO.P,C1,1*%
%TO.N,+3.3V*%
X107027401Y-59850000D03*
D14*
%TO.P,C1,2*%
%TO.N,GND*%
X108527401Y-59850000D03*
%TD*%
D10*
%TO.P,J2,1,Pin_1*%
%TO.N,Net-(A1-+5V)*%
X99650000Y-44900000D03*
D11*
%TO.P,J2,2,Pin_2*%
X99650000Y-47440000D03*
%TO.P,J2,3,Pin_3*%
X99650000Y-49980000D03*
%TO.P,J2,4,Pin_4*%
X99650000Y-52520000D03*
%TD*%
D10*
%TO.P,J3,1,Pin_1*%
%TO.N,GND*%
X103250000Y-44900000D03*
D11*
%TO.P,J3,2,Pin_2*%
X103250000Y-47440000D03*
%TO.P,J3,3,Pin_3*%
X103250000Y-49980000D03*
%TO.P,J3,4,Pin_4*%
X103250000Y-52520000D03*
%TD*%
D13*
%TO.P,C2,1*%
%TO.N,+3.3V*%
X107050000Y-53900000D03*
D14*
%TO.P,C2,2*%
%TO.N,GND*%
X108550000Y-53900000D03*
%TD*%
D10*
%TO.P,U2,1,GND*%
%TO.N,GND*%
X96270000Y-60250000D03*
D11*
%TO.P,U2,2,VO*%
%TO.N,+3.3V*%
X98810000Y-60250000D03*
%TO.P,U2,3,VI*%
%TO.N,+12V*%
X101350000Y-60250000D03*
%TD*%
D10*
%TO.P,U3,1,GND*%
%TO.N,GND*%
X107990000Y-63900000D03*
D15*
%TO.P,U3,2,VCC*%
%TO.N,+3.3V*%
X107990000Y-66440000D03*
%TO.P,U3,3,CE*%
%TO.N,/CE*%
X105450000Y-63900000D03*
%TO.P,U3,4,~{CSN}*%
%TO.N,/CSN*%
X105450000Y-66440000D03*
%TO.P,U3,5,SCK*%
%TO.N,/SCK*%
X102910000Y-63900000D03*
%TO.P,U3,6,MOSI*%
%TO.N,/MOSI*%
X102910000Y-66440000D03*
%TO.P,U3,7,MISO*%
%TO.N,/MISO*%
X100370000Y-63900000D03*
%TO.P,U3,8,IRQ*%
%TO.N,/IRQ*%
X100370000Y-66440000D03*
%TD*%
D16*
%TO.P,A1,1,D1/TX*%
%TO.N,unconnected-(A1-D1{slash}TX-Pad1)*%
X75160000Y-86660000D03*
D17*
%TO.P,A1,2,D0/RX*%
%TO.N,unconnected-(A1-D0{slash}RX-Pad2)*%
X75160000Y-84120000D03*
%TO.P,A1,3,~{RESET}*%
%TO.N,unconnected-(A1-~{RESET}-Pad3)*%
X75160000Y-81580000D03*
%TO.P,A1,4,GND*%
%TO.N,GND*%
X75160000Y-79040000D03*
%TO.P,A1,5,D2*%
%TO.N,unconnected-(A1-D2-Pad5)*%
X75160000Y-76500000D03*
%TO.P,A1,6,D3*%
%TO.N,unconnected-(A1-D3-Pad6)*%
X75160000Y-73960000D03*
%TO.P,A1,7,D4*%
%TO.N,unconnected-(A1-D4-Pad7)*%
X75160000Y-71420000D03*
%TO.P,A1,8,D5*%
%TO.N,unconnected-(A1-D5-Pad8)*%
X75160000Y-68880000D03*
%TO.P,A1,9,D6*%
%TO.N,unconnected-(A1-D6-Pad9)*%
X75160000Y-66340000D03*
%TO.P,A1,10,D7*%
%TO.N,unconnected-(A1-D7-Pad10)*%
X75160000Y-63800000D03*
%TO.P,A1,11,D8*%
%TO.N,/IRQ*%
X75160000Y-61260000D03*
%TO.P,A1,12,D9*%
%TO.N,/CE*%
X75160000Y-58720000D03*
%TO.P,A1,13,D10*%
%TO.N,/CSN*%
X75160000Y-56180000D03*
%TO.P,A1,14,D11*%
%TO.N,/MOSI*%
X75160000Y-53640000D03*
%TO.P,A1,15,D12*%
%TO.N,/MISO*%
X75160000Y-51100000D03*
%TO.P,A1,16,D13*%
%TO.N,/SCK*%
X90400000Y-51100000D03*
%TO.P,A1,17,3V3*%
%TO.N,unconnected-(A1-3V3-Pad17)*%
X90400000Y-53640000D03*
%TO.P,A1,18,AREF*%
%TO.N,unconnected-(A1-AREF-Pad18)*%
X90400000Y-56180000D03*
%TO.P,A1,19,A0*%
%TO.N,Net-(A1-A0)*%
X90400000Y-58720000D03*
%TO.P,A1,20,A1*%
%TO.N,Net-(A1-A1)*%
X90400000Y-61260000D03*
%TO.P,A1,21,A2*%
%TO.N,Net-(A1-A2)*%
X90400000Y-63800000D03*
%TO.P,A1,22,A3*%
%TO.N,Net-(A1-A3)*%
X90400000Y-66340000D03*
%TO.P,A1,23,A4*%
%TO.N,unconnected-(A1-A4-Pad23)*%
X90400000Y-68880000D03*
%TO.P,A1,24,A5*%
%TO.N,unconnected-(A1-A5-Pad24)*%
X90400000Y-71420000D03*
%TO.P,A1,25,A6*%
%TO.N,unconnected-(A1-A6-Pad25)*%
X90400000Y-73960000D03*
%TO.P,A1,26,A7*%
%TO.N,unconnected-(A1-A7-Pad26)*%
X90400000Y-76500000D03*
%TO.P,A1,27,+5V*%
%TO.N,Net-(A1-+5V)*%
X90400000Y-79040000D03*
%TO.P,A1,28,~{RESET}*%
%TO.N,unconnected-(A1-~{RESET}-Pad28)*%
X90400000Y-81580000D03*
%TO.P,A1,29,GND*%
%TO.N,GND*%
X90400000Y-84120000D03*
%TO.P,A1,30,VIN*%
%TO.N,+12V*%
X90400000Y-86660000D03*
%TD*%
D18*
%TO.N,*%
X109750000Y-57800000D03*
%TO.N,GND*%
X87700000Y-57100000D03*
X86000000Y-95900000D03*
X108500000Y-87900000D03*
X101700000Y-95800000D03*
X106900000Y-78400000D03*
X98200000Y-56250000D03*
X97400000Y-91800000D03*
X76850000Y-49250000D03*
X92250000Y-72700000D03*
X85400000Y-61200000D03*
X78500000Y-66100000D03*
X80000000Y-57600000D03*
X96600000Y-63800000D03*
X96400000Y-72700000D03*
X106700000Y-69200000D03*
X82600000Y-41400000D03*
X82400000Y-72100000D03*
X86800000Y-88200000D03*
X94300000Y-53700000D03*
X97000000Y-66500000D03*
X96300000Y-83200000D03*
X87900000Y-48450000D03*
X93700000Y-48200000D03*
X85700000Y-63700000D03*
X86500000Y-77700000D03*
X104800000Y-59750000D03*
X80000000Y-84300000D03*
X94600000Y-56300000D03*
X102100000Y-56300000D03*
X100000000Y-41400000D03*
X82600000Y-48600000D03*
X93750000Y-50900000D03*
%TO.N,/CSN*%
X82462347Y-66587653D03*
%TO.N,/MOSI*%
X86750000Y-68500000D03*
X95250000Y-70100000D03*
%TD*%
D19*
%TO.N,/CSN*%
X76500000Y-57520000D02*
X76500000Y-60625305D01*
X76500000Y-60625305D02*
X82462347Y-66587653D01*
X75160000Y-56180000D02*
X76500000Y-57520000D01*
%TO.N,/MOSI*%
X95250000Y-70100000D02*
X101600000Y-70100000D01*
X86750000Y-68500000D02*
X77300000Y-59050000D01*
X101600000Y-70100000D02*
X102910000Y-68790000D01*
X77300000Y-59050000D02*
X77300000Y-55780000D01*
X102910000Y-66440000D02*
X102910000Y-68790000D01*
X77300000Y-55780000D02*
X75160000Y-53640000D01*
%TO.N,Net-(A1-A0)*%
X95300000Y-44900000D02*
X91700000Y-48500000D01*
X96050000Y-44900000D02*
X95300000Y-44900000D01*
X91700000Y-57420000D02*
X90400000Y-58720000D01*
X91700000Y-48500000D02*
X91700000Y-57420000D01*
%TO.N,Net-(A1-A1)*%
X92150000Y-51050000D02*
X92150000Y-59510000D01*
X92150000Y-59510000D02*
X90400000Y-61260000D01*
X96050000Y-47440000D02*
X95760000Y-47440000D01*
X95760000Y-47440000D02*
X92150000Y-51050000D01*
%TO.N,Net-(A1-A2)*%
X92600000Y-53430000D02*
X92600000Y-61600000D01*
X92600000Y-61600000D02*
X90400000Y-63800000D01*
X96050000Y-49980000D02*
X92600000Y-53430000D01*
%TO.N,Net-(A1-A3)*%
X93050000Y-63690000D02*
X90400000Y-66340000D01*
X96050000Y-53570000D02*
X93050000Y-56570000D01*
X96050000Y-52520000D02*
X96050000Y-53570000D01*
X93050000Y-56570000D02*
X93050000Y-63690000D01*
D20*
%TO.N,Net-(A1-+5V)*%
X99650000Y-53450000D02*
X93700000Y-59400000D01*
X92160000Y-79040000D02*
X90400000Y-79040000D01*
X93700000Y-59400000D02*
X93700000Y-77500000D01*
X93700000Y-77500000D02*
X92160000Y-79040000D01*
X99650000Y-44900000D02*
X99650000Y-53450000D01*
D21*
%TO.N,+12V*%
X111200000Y-83100000D02*
X111200000Y-55800000D01*
X90400000Y-86660000D02*
X107640000Y-86660000D01*
X101350000Y-60250000D02*
X105100000Y-56500000D01*
X110350000Y-50450000D02*
X111200000Y-51300000D01*
X109650000Y-44900000D02*
X107850000Y-44900000D01*
X111200000Y-51300000D02*
X111200000Y-46450000D01*
X110500000Y-56500000D02*
X111200000Y-55800000D01*
X107640000Y-86660000D02*
X111200000Y-83100000D01*
X111200000Y-55800000D02*
X111200000Y-53550000D01*
X109150000Y-50450000D02*
X110350000Y-50450000D01*
X111200000Y-53550000D02*
X111200000Y-51300000D01*
X111200000Y-46450000D02*
X109650000Y-44900000D01*
X111200000Y-54400000D02*
X111200000Y-54850000D01*
X105100000Y-56500000D02*
X110500000Y-56500000D01*
D19*
%TO.N,+3.3V*%
X107027401Y-59850000D02*
X105227401Y-61650000D01*
X106625000Y-65075000D02*
X106625000Y-60252401D01*
X107050000Y-59827401D02*
X107027401Y-59850000D01*
X100210000Y-61650000D02*
X98810000Y-60250000D01*
X105227401Y-61650000D02*
X100210000Y-61650000D01*
X107990000Y-66440000D02*
X106625000Y-65075000D01*
X106625000Y-60252401D02*
X107027401Y-59850000D01*
%TD*%
%TA.AperFunction,Conductor*%
%TO.N,GND*%
G36*
X108813085Y-57470185D02*
G01*
X108858840Y-57522989D01*
X108868784Y-57592147D01*
X108865382Y-57606772D01*
X108864327Y-57611738D01*
X108864326Y-57611742D01*
X108864326Y-57611744D01*
X108844540Y-57800000D01*
X108864326Y-57988256D01*
X108864327Y-57988259D01*
X108922818Y-58168277D01*
X108922821Y-58168284D01*
X109017467Y-58332216D01*
X109144128Y-58472887D01*
X109144129Y-58472888D01*
X109297265Y-58584148D01*
X109297270Y-58584151D01*
X109470192Y-58661142D01*
X109470197Y-58661144D01*
X109655354Y-58700500D01*
X109655355Y-58700500D01*
X109844644Y-58700500D01*
X109844646Y-58700500D01*
X110029803Y-58661144D01*
X110075065Y-58640991D01*
X110144312Y-58631706D01*
X110207589Y-58661334D01*
X110244804Y-58720468D01*
X110249500Y-58754271D01*
X110249500Y-82654927D01*
X110229815Y-82721966D01*
X110213181Y-82742608D01*
X107282609Y-85673181D01*
X107221286Y-85706666D01*
X107194928Y-85709500D01*
X91340049Y-85709500D01*
X91273010Y-85689815D01*
X91252368Y-85673181D01*
X91239141Y-85659954D01*
X91052734Y-85529432D01*
X91052732Y-85529431D01*
X91041275Y-85524088D01*
X90994132Y-85502105D01*
X90941694Y-85455934D01*
X90922542Y-85388740D01*
X90942758Y-85321859D01*
X90994134Y-85277341D01*
X91052484Y-85250132D01*
X91238820Y-85119657D01*
X91399657Y-84958820D01*
X91530134Y-84772482D01*
X91626265Y-84566326D01*
X91626269Y-84566317D01*
X91678872Y-84370000D01*
X91013347Y-84370000D01*
X90946308Y-84350315D01*
X90900553Y-84297511D01*
X90890609Y-84228353D01*
X90894369Y-84211067D01*
X90900000Y-84191888D01*
X90900000Y-84048111D01*
X90894369Y-84028933D01*
X90894370Y-83959064D01*
X90932145Y-83900286D01*
X90995701Y-83871262D01*
X91013347Y-83870000D01*
X91678872Y-83870000D01*
X91678872Y-83869999D01*
X91626269Y-83673682D01*
X91626265Y-83673673D01*
X91530134Y-83467517D01*
X91399657Y-83281179D01*
X91238820Y-83120342D01*
X91052482Y-82989865D01*
X90994133Y-82962657D01*
X90941694Y-82916484D01*
X90922542Y-82849291D01*
X90942758Y-82782410D01*
X90994129Y-82737895D01*
X91052734Y-82710568D01*
X91239139Y-82580047D01*
X91400047Y-82419139D01*
X91530568Y-82232734D01*
X91626739Y-82026496D01*
X91685635Y-81806692D01*
X91705468Y-81580000D01*
X91685635Y-81353308D01*
X91626739Y-81133504D01*
X91530568Y-80927266D01*
X91400047Y-80740861D01*
X91400045Y-80740858D01*
X91239141Y-80579954D01*
X91052734Y-80449432D01*
X91052728Y-80449429D01*
X90994725Y-80422382D01*
X90942285Y-80376210D01*
X90923133Y-80309017D01*
X90943348Y-80242135D01*
X90994725Y-80197618D01*
X90995319Y-80197341D01*
X91052734Y-80170568D01*
X91239139Y-80040047D01*
X91400047Y-79879139D01*
X91425086Y-79843377D01*
X91479665Y-79799752D01*
X91526663Y-79790500D01*
X92096295Y-79790500D01*
X92114265Y-79791809D01*
X92138023Y-79795289D01*
X92190068Y-79790735D01*
X92195470Y-79790500D01*
X92203704Y-79790500D01*
X92203709Y-79790500D01*
X92215327Y-79789141D01*
X92236276Y-79786693D01*
X92249028Y-79785577D01*
X92312797Y-79779999D01*
X92312805Y-79779996D01*
X92319866Y-79778539D01*
X92319878Y-79778598D01*
X92327243Y-79776965D01*
X92327229Y-79776906D01*
X92334246Y-79775241D01*
X92334255Y-79775241D01*
X92406423Y-79748974D01*
X92479334Y-79724814D01*
X92479343Y-79724807D01*
X92485882Y-79721760D01*
X92485908Y-79721816D01*
X92492690Y-79718532D01*
X92492663Y-79718478D01*
X92499106Y-79715240D01*
X92499117Y-79715237D01*
X92563283Y-79673034D01*
X92628656Y-79632712D01*
X92628662Y-79632705D01*
X92634325Y-79628229D01*
X92634363Y-79628277D01*
X92640200Y-79623522D01*
X92640161Y-79623475D01*
X92645696Y-79618830D01*
X92698385Y-79562983D01*
X93721367Y-78540000D01*
X94185642Y-78075724D01*
X94199271Y-78063947D01*
X94218530Y-78049610D01*
X94252101Y-78009601D01*
X94255761Y-78005606D01*
X94261590Y-77999778D01*
X94281941Y-77974039D01*
X94287948Y-77966879D01*
X94331302Y-77915214D01*
X94331306Y-77915205D01*
X94335274Y-77909175D01*
X94335325Y-77909208D01*
X94339372Y-77902856D01*
X94339320Y-77902824D01*
X94343112Y-77896675D01*
X94375575Y-77827058D01*
X94403599Y-77771258D01*
X94410040Y-77758433D01*
X94410042Y-77758421D01*
X94412509Y-77751646D01*
X94412567Y-77751667D01*
X94415043Y-77744546D01*
X94414986Y-77744528D01*
X94417257Y-77737673D01*
X94432792Y-77662434D01*
X94433868Y-77657893D01*
X94450500Y-77587721D01*
X94450500Y-77587710D01*
X94451338Y-77580548D01*
X94451398Y-77580555D01*
X94452164Y-77573055D01*
X94452105Y-77573050D01*
X94452734Y-77565860D01*
X94450500Y-77489082D01*
X94450500Y-70875571D01*
X94470185Y-70808532D01*
X94522989Y-70762777D01*
X94592147Y-70752833D01*
X94647381Y-70775251D01*
X94785461Y-70875571D01*
X94797270Y-70884151D01*
X94970192Y-70961142D01*
X94970197Y-70961144D01*
X95155354Y-71000500D01*
X95155355Y-71000500D01*
X95344644Y-71000500D01*
X95344646Y-71000500D01*
X95529803Y-70961144D01*
X95702730Y-70884151D01*
X95855871Y-70772888D01*
X95858788Y-70769647D01*
X95861600Y-70766526D01*
X95921087Y-70729879D01*
X95953748Y-70725500D01*
X101517257Y-70725500D01*
X101532877Y-70727224D01*
X101532904Y-70726939D01*
X101540660Y-70727671D01*
X101540667Y-70727673D01*
X101609814Y-70725500D01*
X101639350Y-70725500D01*
X101646228Y-70724630D01*
X101652041Y-70724172D01*
X101698627Y-70722709D01*
X101717869Y-70717117D01*
X101736912Y-70713174D01*
X101756792Y-70710664D01*
X101800122Y-70693507D01*
X101805646Y-70691617D01*
X101809396Y-70690527D01*
X101850390Y-70678618D01*
X101867629Y-70668422D01*
X101885103Y-70659862D01*
X101903727Y-70652488D01*
X101903727Y-70652487D01*
X101903732Y-70652486D01*
X101941449Y-70625082D01*
X101946305Y-70621892D01*
X101986420Y-70598170D01*
X102000589Y-70583999D01*
X102015379Y-70571368D01*
X102031587Y-70559594D01*
X102061299Y-70523676D01*
X102065212Y-70519376D01*
X103293786Y-69290802D01*
X103306048Y-69280980D01*
X103305865Y-69280759D01*
X103311867Y-69275792D01*
X103311877Y-69275786D01*
X103359241Y-69225348D01*
X103380120Y-69204470D01*
X103384373Y-69198986D01*
X103388150Y-69194563D01*
X103420062Y-69160582D01*
X103429714Y-69143023D01*
X103440389Y-69126772D01*
X103452674Y-69110936D01*
X103471186Y-69068152D01*
X103473742Y-69062935D01*
X103496197Y-69022092D01*
X103501180Y-69002680D01*
X103507477Y-68984291D01*
X103515438Y-68965895D01*
X103522729Y-68919853D01*
X103523908Y-68914162D01*
X103535500Y-68869019D01*
X103535500Y-68848982D01*
X103537027Y-68829582D01*
X103540160Y-68809804D01*
X103535775Y-68763415D01*
X103535500Y-68757577D01*
X103535500Y-67715226D01*
X103555185Y-67648187D01*
X103588374Y-67613654D01*
X103781401Y-67478495D01*
X103948495Y-67311401D01*
X104078424Y-67125842D01*
X104133002Y-67082217D01*
X104202500Y-67075023D01*
X104264855Y-67106546D01*
X104281575Y-67125842D01*
X104411500Y-67311395D01*
X104411505Y-67311401D01*
X104578599Y-67478495D01*
X104669486Y-67542135D01*
X104772165Y-67614032D01*
X104772167Y-67614033D01*
X104772170Y-67614035D01*
X104986337Y-67713903D01*
X104986343Y-67713904D01*
X104986344Y-67713905D01*
X104993607Y-67715851D01*
X105214592Y-67775063D01*
X105402918Y-67791539D01*
X105449999Y-67795659D01*
X105450000Y-67795659D01*
X105450001Y-67795659D01*
X105489234Y-67792226D01*
X105685408Y-67775063D01*
X105913663Y-67713903D01*
X106127830Y-67614035D01*
X106321401Y-67478495D01*
X106488495Y-67311401D01*
X106618424Y-67125842D01*
X106673002Y-67082217D01*
X106742500Y-67075023D01*
X106804855Y-67106546D01*
X106821575Y-67125842D01*
X106951500Y-67311395D01*
X106951505Y-67311401D01*
X107118599Y-67478495D01*
X107209486Y-67542135D01*
X107312165Y-67614032D01*
X107312167Y-67614033D01*
X107312170Y-67614035D01*
X107526337Y-67713903D01*
X107526343Y-67713904D01*
X107526344Y-67713905D01*
X107533607Y-67715851D01*
X107754592Y-67775063D01*
X107942918Y-67791539D01*
X107989999Y-67795659D01*
X107990000Y-67795659D01*
X107990001Y-67795659D01*
X108029234Y-67792226D01*
X108225408Y-67775063D01*
X108453663Y-67713903D01*
X108667830Y-67614035D01*
X108861401Y-67478495D01*
X109028495Y-67311401D01*
X109164035Y-67117830D01*
X109263903Y-66903663D01*
X109325063Y-66675408D01*
X109345659Y-66440000D01*
X109325063Y-66204592D01*
X109263903Y-65976337D01*
X109164035Y-65762171D01*
X109158424Y-65754158D01*
X109028496Y-65568600D01*
X108994024Y-65534128D01*
X108906179Y-65446283D01*
X108872696Y-65384963D01*
X108877680Y-65315271D01*
X108919551Y-65259337D01*
X108950529Y-65242422D01*
X109082086Y-65193354D01*
X109082093Y-65193350D01*
X109197187Y-65107190D01*
X109197190Y-65107187D01*
X109283350Y-64992093D01*
X109283354Y-64992086D01*
X109333596Y-64857379D01*
X109333598Y-64857372D01*
X109339999Y-64797844D01*
X109340000Y-64797827D01*
X109340000Y-64150000D01*
X108603347Y-64150000D01*
X108536308Y-64130315D01*
X108490553Y-64077511D01*
X108480609Y-64008353D01*
X108484369Y-63991067D01*
X108490000Y-63971888D01*
X108490000Y-63828111D01*
X108484369Y-63808933D01*
X108484370Y-63739064D01*
X108522145Y-63680286D01*
X108585701Y-63651262D01*
X108603347Y-63650000D01*
X109340000Y-63650000D01*
X109340000Y-63002172D01*
X109339999Y-63002155D01*
X109333598Y-62942627D01*
X109333596Y-62942620D01*
X109283354Y-62807913D01*
X109283350Y-62807906D01*
X109197190Y-62692812D01*
X109197187Y-62692809D01*
X109082093Y-62606649D01*
X109082086Y-62606645D01*
X108947379Y-62556403D01*
X108947372Y-62556401D01*
X108887844Y-62550000D01*
X108240000Y-62550000D01*
X108240000Y-63287698D01*
X108220315Y-63354737D01*
X108167511Y-63400492D01*
X108098355Y-63410436D01*
X108025766Y-63400000D01*
X108025763Y-63400000D01*
X107954237Y-63400000D01*
X107954233Y-63400000D01*
X107881645Y-63410436D01*
X107812487Y-63400492D01*
X107759684Y-63354736D01*
X107740000Y-63287698D01*
X107740000Y-62550000D01*
X107374500Y-62550000D01*
X107307461Y-62530315D01*
X107261706Y-62477511D01*
X107250500Y-62426000D01*
X107250500Y-61074499D01*
X107270185Y-61007460D01*
X107322989Y-60961705D01*
X107374500Y-60950499D01*
X107675272Y-60950499D01*
X107675273Y-60950499D01*
X107734884Y-60944091D01*
X107778482Y-60927830D01*
X107869730Y-60893797D01*
X107869730Y-60893796D01*
X107869732Y-60893796D01*
X107919394Y-60856618D01*
X107984855Y-60832201D01*
X108038498Y-60840258D01*
X108225079Y-60912539D01*
X108425473Y-60950000D01*
X108629329Y-60950000D01*
X108829722Y-60912539D01*
X109019815Y-60838897D01*
X109108089Y-60784240D01*
X108637664Y-60313816D01*
X108604179Y-60252493D01*
X108609163Y-60182802D01*
X108651034Y-60126868D01*
X108660059Y-60120713D01*
X108733011Y-60075543D01*
X108800602Y-59986038D01*
X108800601Y-59986038D01*
X108807527Y-59976868D01*
X108810948Y-59979451D01*
X108843032Y-59944725D01*
X108910664Y-59927186D01*
X108977043Y-59948996D01*
X108994396Y-59963442D01*
X109464866Y-60433912D01*
X109466648Y-60431552D01*
X109466650Y-60431550D01*
X109557514Y-60249069D01*
X109557517Y-60249063D01*
X109613303Y-60052992D01*
X109613304Y-60052989D01*
X109632114Y-59850000D01*
X109632114Y-59849999D01*
X109613304Y-59647010D01*
X109613303Y-59647007D01*
X109557517Y-59450936D01*
X109557514Y-59450930D01*
X109466645Y-59268441D01*
X109464867Y-59266086D01*
X109464866Y-59266085D01*
X108990520Y-59740432D01*
X108929197Y-59773917D01*
X108859505Y-59768933D01*
X108803572Y-59727061D01*
X108791841Y-59708028D01*
X108770953Y-59666078D01*
X108688067Y-59590516D01*
X108681912Y-59588131D01*
X108626511Y-59545561D01*
X108602919Y-59479795D01*
X108618629Y-59411714D01*
X108639024Y-59384824D01*
X109108089Y-58915758D01*
X109108088Y-58915757D01*
X109019819Y-58861104D01*
X109019812Y-58861100D01*
X108829722Y-58787460D01*
X108629329Y-58750000D01*
X108425473Y-58750000D01*
X108225078Y-58787460D01*
X108038499Y-58859741D01*
X107968875Y-58865603D01*
X107919394Y-58843381D01*
X107897816Y-58827228D01*
X107869732Y-58806204D01*
X107869730Y-58806203D01*
X107869729Y-58806202D01*
X107734883Y-58755908D01*
X107734884Y-58755908D01*
X107675284Y-58749501D01*
X107675282Y-58749500D01*
X107675274Y-58749500D01*
X107675265Y-58749500D01*
X106379530Y-58749500D01*
X106379524Y-58749501D01*
X106319917Y-58755908D01*
X106185072Y-58806202D01*
X106185065Y-58806206D01*
X106069856Y-58892452D01*
X106069853Y-58892455D01*
X105983607Y-59007664D01*
X105983603Y-59007671D01*
X105933309Y-59142517D01*
X105926902Y-59202116D01*
X105926901Y-59202135D01*
X105926901Y-60014546D01*
X105907216Y-60081585D01*
X105890582Y-60102227D01*
X105004629Y-60988181D01*
X104943306Y-61021666D01*
X104916948Y-61024500D01*
X102673598Y-61024500D01*
X102606559Y-61004815D01*
X102560804Y-60952011D01*
X102550860Y-60882853D01*
X102561216Y-60848095D01*
X102562578Y-60845175D01*
X102623903Y-60713663D01*
X102685063Y-60485408D01*
X102702823Y-60282411D01*
X102728275Y-60217343D01*
X102738662Y-60205546D01*
X105457390Y-57486819D01*
X105518714Y-57453334D01*
X105545072Y-57450500D01*
X108746046Y-57450500D01*
X108813085Y-57470185D01*
G37*
%TD.AperFunction*%
%TA.AperFunction,Conductor*%
G36*
X92868834Y-64858269D02*
G01*
X92924767Y-64900141D01*
X92949184Y-64965605D01*
X92949500Y-64974451D01*
X92949500Y-77137770D01*
X92929815Y-77204809D01*
X92913181Y-77225451D01*
X91885451Y-78253181D01*
X91824128Y-78286666D01*
X91797770Y-78289500D01*
X91526663Y-78289500D01*
X91459624Y-78269815D01*
X91425088Y-78236623D01*
X91400045Y-78200858D01*
X91239141Y-78039954D01*
X91052734Y-77909432D01*
X91052728Y-77909429D01*
X90994725Y-77882382D01*
X90942285Y-77836210D01*
X90923133Y-77769017D01*
X90943348Y-77702135D01*
X90994725Y-77657618D01*
X91052734Y-77630568D01*
X91239139Y-77500047D01*
X91400047Y-77339139D01*
X91530568Y-77152734D01*
X91626739Y-76946496D01*
X91685635Y-76726692D01*
X91705468Y-76500000D01*
X91685635Y-76273308D01*
X91626739Y-76053504D01*
X91530568Y-75847266D01*
X91400047Y-75660861D01*
X91400045Y-75660858D01*
X91239141Y-75499954D01*
X91052734Y-75369432D01*
X91052728Y-75369429D01*
X90994725Y-75342382D01*
X90942285Y-75296210D01*
X90923133Y-75229017D01*
X90943348Y-75162135D01*
X90994725Y-75117618D01*
X91052734Y-75090568D01*
X91239139Y-74960047D01*
X91400047Y-74799139D01*
X91530568Y-74612734D01*
X91626739Y-74406496D01*
X91685635Y-74186692D01*
X91705468Y-73960000D01*
X91685635Y-73733308D01*
X91626739Y-73513504D01*
X91530568Y-73307266D01*
X91400047Y-73120861D01*
X91400045Y-73120858D01*
X91239141Y-72959954D01*
X91052734Y-72829432D01*
X91052728Y-72829429D01*
X90994725Y-72802382D01*
X90942285Y-72756210D01*
X90923133Y-72689017D01*
X90943348Y-72622135D01*
X90994725Y-72577618D01*
X91052734Y-72550568D01*
X91239139Y-72420047D01*
X91400047Y-72259139D01*
X91530568Y-72072734D01*
X91626739Y-71866496D01*
X91685635Y-71646692D01*
X91705468Y-71420000D01*
X91685635Y-71193308D01*
X91626739Y-70973504D01*
X91530568Y-70767266D01*
X91400047Y-70580861D01*
X91400045Y-70580858D01*
X91239141Y-70419954D01*
X91052734Y-70289432D01*
X91052728Y-70289429D01*
X90994725Y-70262382D01*
X90942285Y-70216210D01*
X90923133Y-70149017D01*
X90943348Y-70082135D01*
X90994725Y-70037618D01*
X91052734Y-70010568D01*
X91239139Y-69880047D01*
X91400047Y-69719139D01*
X91530568Y-69532734D01*
X91626739Y-69326496D01*
X91685635Y-69106692D01*
X91705468Y-68880000D01*
X91704507Y-68869021D01*
X91694757Y-68757577D01*
X91685635Y-68653308D01*
X91626739Y-68433504D01*
X91530568Y-68227266D01*
X91400047Y-68040861D01*
X91400045Y-68040858D01*
X91239141Y-67879954D01*
X91052734Y-67749432D01*
X91052728Y-67749429D01*
X90994725Y-67722382D01*
X90942285Y-67676210D01*
X90923133Y-67609017D01*
X90943348Y-67542135D01*
X90994725Y-67497618D01*
X91052734Y-67470568D01*
X91239139Y-67340047D01*
X91400047Y-67179139D01*
X91530568Y-66992734D01*
X91626739Y-66786496D01*
X91685635Y-66566692D01*
X91705468Y-66340000D01*
X91685635Y-66113308D01*
X91667318Y-66044948D01*
X91668981Y-65975103D01*
X91699410Y-65925179D01*
X92737821Y-64886768D01*
X92799142Y-64853285D01*
X92868834Y-64858269D01*
G37*
%TD.AperFunction*%
%TA.AperFunction,Conductor*%
G36*
X94839333Y-59424545D02*
G01*
X94895267Y-59466416D01*
X94919684Y-59531881D01*
X94920000Y-59540727D01*
X94920000Y-60000000D01*
X95656653Y-60000000D01*
X95723692Y-60019685D01*
X95769447Y-60072489D01*
X95779391Y-60141647D01*
X95775631Y-60158933D01*
X95770000Y-60178111D01*
X95770000Y-60321888D01*
X95775631Y-60341067D01*
X95775630Y-60410936D01*
X95737855Y-60469714D01*
X95674299Y-60498738D01*
X95656653Y-60500000D01*
X94920000Y-60500000D01*
X94920000Y-61147844D01*
X94926401Y-61207372D01*
X94926403Y-61207379D01*
X94976645Y-61342086D01*
X94976649Y-61342093D01*
X95062809Y-61457187D01*
X95062812Y-61457190D01*
X95177906Y-61543350D01*
X95177913Y-61543354D01*
X95312620Y-61593596D01*
X95312627Y-61593598D01*
X95372155Y-61599999D01*
X95372172Y-61600000D01*
X96019999Y-61600000D01*
X96019999Y-60862301D01*
X96039683Y-60795262D01*
X96092487Y-60749507D01*
X96161646Y-60739563D01*
X96168380Y-60740531D01*
X96234237Y-60750000D01*
X96234238Y-60750000D01*
X96305762Y-60750000D01*
X96305763Y-60750000D01*
X96378353Y-60739563D01*
X96447512Y-60749507D01*
X96500315Y-60795262D01*
X96520000Y-60862301D01*
X96520000Y-61600000D01*
X97167828Y-61600000D01*
X97167844Y-61599999D01*
X97227372Y-61593598D01*
X97227379Y-61593596D01*
X97362086Y-61543354D01*
X97362093Y-61543350D01*
X97477187Y-61457190D01*
X97477190Y-61457187D01*
X97563350Y-61342093D01*
X97563354Y-61342086D01*
X97612422Y-61210529D01*
X97654293Y-61154595D01*
X97719757Y-61130178D01*
X97788030Y-61145030D01*
X97816285Y-61166181D01*
X97938599Y-61288495D01*
X97988953Y-61323753D01*
X98132165Y-61424032D01*
X98132167Y-61424033D01*
X98132170Y-61424035D01*
X98346337Y-61523903D01*
X98574592Y-61585063D01*
X98745319Y-61600000D01*
X98809999Y-61605659D01*
X98810000Y-61605659D01*
X98810001Y-61605659D01*
X98874681Y-61600000D01*
X99045408Y-61585063D01*
X99145873Y-61558143D01*
X99215722Y-61559806D01*
X99265647Y-61590237D01*
X99709197Y-62033788D01*
X99719022Y-62046051D01*
X99719243Y-62045869D01*
X99724214Y-62051878D01*
X99745043Y-62071437D01*
X99774635Y-62099226D01*
X99795529Y-62120120D01*
X99801011Y-62124373D01*
X99805443Y-62128157D01*
X99839418Y-62160062D01*
X99856976Y-62169714D01*
X99873233Y-62180393D01*
X99889064Y-62192673D01*
X99908737Y-62201186D01*
X99931833Y-62211182D01*
X99937077Y-62213750D01*
X99977908Y-62236197D01*
X99990523Y-62239435D01*
X99997305Y-62241177D01*
X100015719Y-62247481D01*
X100034104Y-62255438D01*
X100080157Y-62262732D01*
X100085826Y-62263906D01*
X100130981Y-62275500D01*
X100151016Y-62275500D01*
X100170413Y-62277026D01*
X100190196Y-62280160D01*
X100236583Y-62275775D01*
X100242422Y-62275500D01*
X105144658Y-62275500D01*
X105160278Y-62277224D01*
X105160305Y-62276939D01*
X105168061Y-62277671D01*
X105168068Y-62277673D01*
X105237215Y-62275500D01*
X105266751Y-62275500D01*
X105273629Y-62274630D01*
X105279442Y-62274172D01*
X105326028Y-62272709D01*
X105345270Y-62267117D01*
X105364313Y-62263174D01*
X105384193Y-62260664D01*
X105427523Y-62243507D01*
X105433047Y-62241617D01*
X105436797Y-62240527D01*
X105477791Y-62228618D01*
X105495030Y-62218422D01*
X105512504Y-62209862D01*
X105531128Y-62202488D01*
X105531128Y-62202487D01*
X105531133Y-62202486D01*
X105568850Y-62175082D01*
X105573706Y-62171892D01*
X105613821Y-62148170D01*
X105627990Y-62133999D01*
X105642780Y-62121368D01*
X105658988Y-62109594D01*
X105688700Y-62073676D01*
X105692613Y-62069376D01*
X105787821Y-61974168D01*
X105849143Y-61940686D01*
X105918834Y-61945670D01*
X105974768Y-61987542D01*
X105999184Y-62053007D01*
X105999500Y-62061852D01*
X105999500Y-62487496D01*
X105979815Y-62554535D01*
X105927011Y-62600290D01*
X105857853Y-62610234D01*
X105843408Y-62607271D01*
X105685416Y-62564939D01*
X105685412Y-62564938D01*
X105685408Y-62564937D01*
X105685406Y-62564936D01*
X105685403Y-62564936D01*
X105450001Y-62544341D01*
X105449999Y-62544341D01*
X105214596Y-62564936D01*
X105214586Y-62564938D01*
X104986344Y-62626094D01*
X104986335Y-62626098D01*
X104772171Y-62725964D01*
X104772169Y-62725965D01*
X104578597Y-62861505D01*
X104411505Y-63028597D01*
X104281575Y-63214158D01*
X104226998Y-63257783D01*
X104157500Y-63264977D01*
X104095145Y-63233454D01*
X104078425Y-63214158D01*
X103948494Y-63028597D01*
X103781402Y-62861506D01*
X103781395Y-62861501D01*
X103587834Y-62725967D01*
X103587830Y-62725965D01*
X103516727Y-62692809D01*
X103373663Y-62626097D01*
X103373659Y-62626096D01*
X103373655Y-62626094D01*
X103145413Y-62564938D01*
X103145403Y-62564936D01*
X102910001Y-62544341D01*
X102909999Y-62544341D01*
X102674596Y-62564936D01*
X102674586Y-62564938D01*
X102446344Y-62626094D01*
X102446335Y-62626098D01*
X102232171Y-62725964D01*
X102232169Y-62725965D01*
X102038597Y-62861505D01*
X101871505Y-63028597D01*
X101741575Y-63214158D01*
X101686998Y-63257783D01*
X101617500Y-63264977D01*
X101555145Y-63233454D01*
X101538425Y-63214158D01*
X101408494Y-63028597D01*
X101241402Y-62861506D01*
X101241395Y-62861501D01*
X101047834Y-62725967D01*
X101047830Y-62725965D01*
X100976727Y-62692809D01*
X100833663Y-62626097D01*
X100833659Y-62626096D01*
X100833655Y-62626094D01*
X100605413Y-62564938D01*
X100605403Y-62564936D01*
X100370001Y-62544341D01*
X100369999Y-62544341D01*
X100134596Y-62564936D01*
X100134586Y-62564938D01*
X99906344Y-62626094D01*
X99906335Y-62626098D01*
X99692171Y-62725964D01*
X99692169Y-62725965D01*
X99498597Y-62861505D01*
X99331505Y-63028597D01*
X99195965Y-63222169D01*
X99195964Y-63222171D01*
X99096098Y-63436335D01*
X99096094Y-63436344D01*
X99034938Y-63664586D01*
X99034936Y-63664596D01*
X99014341Y-63899999D01*
X99014341Y-63900000D01*
X99034936Y-64135403D01*
X99034938Y-64135413D01*
X99096094Y-64363655D01*
X99096096Y-64363659D01*
X99096097Y-64363663D01*
X99137631Y-64452732D01*
X99195965Y-64577830D01*
X99195967Y-64577834D01*
X99238894Y-64639139D01*
X99331501Y-64771396D01*
X99331506Y-64771402D01*
X99498597Y-64938493D01*
X99498603Y-64938498D01*
X99684158Y-65068425D01*
X99727783Y-65123002D01*
X99734977Y-65192500D01*
X99703454Y-65254855D01*
X99684158Y-65271575D01*
X99498597Y-65401505D01*
X99331505Y-65568597D01*
X99195965Y-65762169D01*
X99195964Y-65762171D01*
X99096098Y-65976335D01*
X99096094Y-65976344D01*
X99034938Y-66204586D01*
X99034936Y-66204596D01*
X99014341Y-66439999D01*
X99014341Y-66440000D01*
X99034936Y-66675403D01*
X99034938Y-66675413D01*
X99096094Y-66903655D01*
X99096096Y-66903659D01*
X99096097Y-66903663D01*
X99100000Y-66912032D01*
X99195965Y-67117830D01*
X99195967Y-67117834D01*
X99238894Y-67179139D01*
X99331505Y-67311401D01*
X99498599Y-67478495D01*
X99589486Y-67542135D01*
X99692165Y-67614032D01*
X99692167Y-67614033D01*
X99692170Y-67614035D01*
X99906337Y-67713903D01*
X99906343Y-67713904D01*
X99906344Y-67713905D01*
X99913607Y-67715851D01*
X100134592Y-67775063D01*
X100322918Y-67791539D01*
X100369999Y-67795659D01*
X100370000Y-67795659D01*
X100370001Y-67795659D01*
X100409234Y-67792226D01*
X100605408Y-67775063D01*
X100833663Y-67713903D01*
X101047830Y-67614035D01*
X101241401Y-67478495D01*
X101408495Y-67311401D01*
X101538424Y-67125842D01*
X101593002Y-67082217D01*
X101662500Y-67075023D01*
X101724855Y-67106546D01*
X101741575Y-67125842D01*
X101871500Y-67311395D01*
X101871505Y-67311401D01*
X102038599Y-67478495D01*
X102231624Y-67613653D01*
X102275248Y-67668228D01*
X102284500Y-67715226D01*
X102284500Y-68479547D01*
X102264815Y-68546586D01*
X102248181Y-68567228D01*
X101377228Y-69438181D01*
X101315905Y-69471666D01*
X101289547Y-69474500D01*
X95953748Y-69474500D01*
X95886709Y-69454815D01*
X95861600Y-69433474D01*
X95855873Y-69427114D01*
X95855869Y-69427110D01*
X95702734Y-69315851D01*
X95702729Y-69315848D01*
X95529807Y-69238857D01*
X95529802Y-69238855D01*
X95368028Y-69204470D01*
X95344646Y-69199500D01*
X95155354Y-69199500D01*
X95131972Y-69204470D01*
X94970197Y-69238855D01*
X94970192Y-69238857D01*
X94797270Y-69315848D01*
X94797265Y-69315851D01*
X94647385Y-69424746D01*
X94581579Y-69448226D01*
X94513525Y-69432400D01*
X94464830Y-69382295D01*
X94450500Y-69324428D01*
X94450500Y-59762228D01*
X94470185Y-59695189D01*
X94486814Y-59674552D01*
X94708323Y-59453043D01*
X94769642Y-59419561D01*
X94839333Y-59424545D01*
G37*
%TD.AperFunction*%
%TA.AperFunction,Conductor*%
G36*
X94613675Y-52403427D02*
G01*
X94669608Y-52445299D01*
X94694025Y-52510763D01*
X94694341Y-52519609D01*
X94694341Y-52520000D01*
X94714936Y-52755403D01*
X94714938Y-52755413D01*
X94776094Y-52983655D01*
X94776096Y-52983659D01*
X94776097Y-52983663D01*
X94845408Y-53132301D01*
X94875965Y-53197830D01*
X94875967Y-53197834D01*
X95011501Y-53391395D01*
X95011506Y-53391402D01*
X95090075Y-53469971D01*
X95123560Y-53531294D01*
X95118576Y-53600986D01*
X95090075Y-53645333D01*
X93437180Y-55298228D01*
X93375857Y-55331713D01*
X93306165Y-55326729D01*
X93250232Y-55284857D01*
X93225815Y-55219393D01*
X93225499Y-55210570D01*
X93225499Y-53740450D01*
X93245184Y-53673412D01*
X93261813Y-53652775D01*
X94482662Y-52431926D01*
X94543983Y-52398443D01*
X94613675Y-52403427D01*
G37*
%TD.AperFunction*%
%TA.AperFunction,Conductor*%
G36*
X94655958Y-49531145D02*
G01*
X94711891Y-49573017D01*
X94736308Y-49638481D01*
X94732399Y-49679419D01*
X94714939Y-49744583D01*
X94714936Y-49744596D01*
X94694341Y-49979999D01*
X94694341Y-49980000D01*
X94714936Y-50215403D01*
X94714938Y-50215413D01*
X94741856Y-50315872D01*
X94740193Y-50385722D01*
X94709762Y-50435646D01*
X92987180Y-52158228D01*
X92925857Y-52191713D01*
X92856165Y-52186729D01*
X92800232Y-52144857D01*
X92775815Y-52079393D01*
X92775499Y-52070567D01*
X92775499Y-51360450D01*
X92795184Y-51293412D01*
X92811813Y-51272775D01*
X94524944Y-49559645D01*
X94586266Y-49526161D01*
X94655958Y-49531145D01*
G37*
%TD.AperFunction*%
%TA.AperFunction,Conductor*%
G36*
X94983624Y-46203476D02*
G01*
X95025483Y-46219089D01*
X95089082Y-46242810D01*
X95145015Y-46284682D01*
X95169432Y-46350146D01*
X95154580Y-46418419D01*
X95133430Y-46446673D01*
X95011503Y-46568600D01*
X94875965Y-46762169D01*
X94875964Y-46762171D01*
X94776098Y-46976335D01*
X94776094Y-46976344D01*
X94714938Y-47204586D01*
X94714936Y-47204596D01*
X94694341Y-47439999D01*
X94694341Y-47440002D01*
X94703868Y-47548899D01*
X94690101Y-47617399D01*
X94668021Y-47647387D01*
X92537181Y-49778228D01*
X92475858Y-49811713D01*
X92406166Y-49806729D01*
X92350233Y-49764857D01*
X92325816Y-49699393D01*
X92325500Y-49690547D01*
X92325500Y-48810451D01*
X92345185Y-48743412D01*
X92361814Y-48722775D01*
X94852613Y-46231976D01*
X94913934Y-46198493D01*
X94983624Y-46203476D01*
G37*
%TD.AperFunction*%
%TA.AperFunction,Conductor*%
G36*
X103427512Y-50479507D02*
G01*
X103480315Y-50525262D01*
X103500000Y-50592301D01*
X103500000Y-51907698D01*
X103480315Y-51974737D01*
X103427511Y-52020492D01*
X103358355Y-52030436D01*
X103285766Y-52020000D01*
X103285763Y-52020000D01*
X103214237Y-52020000D01*
X103214233Y-52020000D01*
X103141645Y-52030436D01*
X103072487Y-52020492D01*
X103019684Y-51974736D01*
X103000000Y-51907698D01*
X103000000Y-50592301D01*
X103019685Y-50525262D01*
X103072489Y-50479507D01*
X103141647Y-50469563D01*
X103214237Y-50480000D01*
X103214238Y-50480000D01*
X103285762Y-50480000D01*
X103285763Y-50480000D01*
X103358353Y-50469563D01*
X103427512Y-50479507D01*
G37*
%TD.AperFunction*%
%TA.AperFunction,Conductor*%
G36*
X103427512Y-47939507D02*
G01*
X103480315Y-47985262D01*
X103500000Y-48052301D01*
X103500000Y-49367698D01*
X103480315Y-49434737D01*
X103427511Y-49480492D01*
X103358355Y-49490436D01*
X103285766Y-49480000D01*
X103285763Y-49480000D01*
X103214237Y-49480000D01*
X103214233Y-49480000D01*
X103141645Y-49490436D01*
X103072487Y-49480492D01*
X103019684Y-49434736D01*
X103000000Y-49367698D01*
X103000000Y-48052301D01*
X103019685Y-47985262D01*
X103072489Y-47939507D01*
X103141647Y-47929563D01*
X103214237Y-47940000D01*
X103214238Y-47940000D01*
X103285762Y-47940000D01*
X103285763Y-47940000D01*
X103358353Y-47929563D01*
X103427512Y-47939507D01*
G37*
%TD.AperFunction*%
%TA.AperFunction,Conductor*%
G36*
X103427512Y-45399507D02*
G01*
X103480315Y-45445262D01*
X103500000Y-45512301D01*
X103500000Y-46827698D01*
X103480315Y-46894737D01*
X103427511Y-46940492D01*
X103358355Y-46950436D01*
X103285766Y-46940000D01*
X103285763Y-46940000D01*
X103214237Y-46940000D01*
X103214233Y-46940000D01*
X103141645Y-46950436D01*
X103072487Y-46940492D01*
X103019684Y-46894736D01*
X103000000Y-46827698D01*
X103000000Y-45512301D01*
X103019685Y-45445262D01*
X103072489Y-45399507D01*
X103141647Y-45389563D01*
X103214237Y-45400000D01*
X103214238Y-45400000D01*
X103285762Y-45400000D01*
X103285763Y-45400000D01*
X103358353Y-45389563D01*
X103427512Y-45399507D01*
G37*
%TD.AperFunction*%
%TA.AperFunction,Conductor*%
G36*
X106867139Y-33110495D02*
G01*
X107081414Y-33118914D01*
X107085852Y-33119252D01*
X107341053Y-33148006D01*
X107568742Y-33174955D01*
X107572963Y-33175603D01*
X107822573Y-33222832D01*
X108050401Y-33268150D01*
X108054251Y-33269048D01*
X108289838Y-33332174D01*
X108298601Y-33334522D01*
X108523366Y-33397912D01*
X108527005Y-33399060D01*
X108765249Y-33482425D01*
X108985066Y-33563520D01*
X108988383Y-33564855D01*
X109219434Y-33665662D01*
X109432661Y-33763961D01*
X109435650Y-33765438D01*
X109617291Y-33861438D01*
X109658408Y-33883169D01*
X109863604Y-33998084D01*
X109866250Y-33999655D01*
X109988945Y-34076749D01*
X110079542Y-34133675D01*
X110275293Y-34264472D01*
X110277650Y-34266127D01*
X110480310Y-34415697D01*
X110480326Y-34415709D01*
X110666413Y-34562408D01*
X110858400Y-34727627D01*
X111032422Y-34888492D01*
X111211507Y-35067577D01*
X111372369Y-35241596D01*
X111506647Y-35397629D01*
X111537590Y-35433585D01*
X111684290Y-35619673D01*
X111833860Y-35822333D01*
X111835526Y-35824705D01*
X111966324Y-36020457D01*
X112100326Y-36233719D01*
X112101924Y-36236411D01*
X112216830Y-36441591D01*
X112334547Y-36664322D01*
X112336037Y-36667336D01*
X112434337Y-36880565D01*
X112535143Y-37111615D01*
X112536485Y-37114950D01*
X112617580Y-37334766D01*
X112700935Y-37572984D01*
X112702086Y-37576632D01*
X112765477Y-37801398D01*
X112830941Y-38045711D01*
X112831858Y-38049642D01*
X112864188Y-38212175D01*
X112877172Y-38277451D01*
X112924393Y-38527026D01*
X112925044Y-38531266D01*
X112951994Y-38758959D01*
X112980744Y-39014123D01*
X112981087Y-39018633D01*
X112989512Y-39233083D01*
X112999500Y-39500000D01*
X112999500Y-95500000D01*
X112989512Y-95766916D01*
X112981087Y-95981365D01*
X112980744Y-95985875D01*
X112951994Y-96241040D01*
X112925044Y-96468732D01*
X112924393Y-96472972D01*
X112877172Y-96722548D01*
X112831863Y-96950334D01*
X112830941Y-96954287D01*
X112765477Y-97198601D01*
X112702086Y-97423366D01*
X112700935Y-97427014D01*
X112617580Y-97665233D01*
X112536484Y-97885048D01*
X112535143Y-97888383D01*
X112434337Y-98119434D01*
X112336037Y-98332662D01*
X112334547Y-98335676D01*
X112216830Y-98558408D01*
X112101924Y-98763587D01*
X112100326Y-98766278D01*
X111966324Y-98979542D01*
X111835526Y-99175293D01*
X111833860Y-99177665D01*
X111684290Y-99380325D01*
X111537590Y-99566414D01*
X111372376Y-99758396D01*
X111211507Y-99932422D01*
X111032422Y-100111507D01*
X110858396Y-100272376D01*
X110666414Y-100437590D01*
X110480325Y-100584290D01*
X110277665Y-100733860D01*
X110275293Y-100735526D01*
X110079542Y-100866324D01*
X109866278Y-101000326D01*
X109863587Y-101001924D01*
X109658408Y-101116830D01*
X109435676Y-101234547D01*
X109432662Y-101236037D01*
X109219434Y-101334337D01*
X108988383Y-101435143D01*
X108985048Y-101436484D01*
X108765233Y-101517580D01*
X108527014Y-101600935D01*
X108523366Y-101602086D01*
X108298601Y-101665477D01*
X108054287Y-101730941D01*
X108050343Y-101731860D01*
X107921562Y-101757477D01*
X107822548Y-101777172D01*
X107572972Y-101824393D01*
X107568732Y-101825044D01*
X107341040Y-101851994D01*
X107085875Y-101880744D01*
X107081365Y-101881087D01*
X106866916Y-101889512D01*
X106600000Y-101899500D01*
X78300000Y-101899500D01*
X78033083Y-101889512D01*
X77818633Y-101881087D01*
X77814123Y-101880744D01*
X77558959Y-101851994D01*
X77331266Y-101825044D01*
X77327026Y-101824393D01*
X77077451Y-101777172D01*
X77062664Y-101774230D01*
X76849642Y-101731858D01*
X76845711Y-101730941D01*
X76601398Y-101665477D01*
X76376632Y-101602086D01*
X76372984Y-101600935D01*
X76134766Y-101517580D01*
X75914950Y-101436485D01*
X75911615Y-101435143D01*
X75680565Y-101334337D01*
X75467336Y-101236037D01*
X75464322Y-101234547D01*
X75241591Y-101116830D01*
X75036411Y-101001924D01*
X75033719Y-101000326D01*
X74820457Y-100866324D01*
X74624705Y-100735526D01*
X74622333Y-100733860D01*
X74419673Y-100584290D01*
X74233585Y-100437590D01*
X74041610Y-100272382D01*
X73867577Y-100111507D01*
X73688492Y-99932422D01*
X73527627Y-99758400D01*
X73362408Y-99566413D01*
X73215709Y-99380326D01*
X73215708Y-99380325D01*
X73066127Y-99177650D01*
X73064472Y-99175293D01*
X72933675Y-98979542D01*
X72799655Y-98766250D01*
X72798084Y-98763604D01*
X72683169Y-98558408D01*
X72648518Y-98492846D01*
X72565438Y-98335650D01*
X72563961Y-98332661D01*
X72465662Y-98119434D01*
X72364855Y-97888383D01*
X72363520Y-97885066D01*
X72282419Y-97665233D01*
X72199060Y-97427005D01*
X72197912Y-97423366D01*
X72134522Y-97198601D01*
X72123571Y-97157731D01*
X72069048Y-96954251D01*
X72068150Y-96950401D01*
X72022828Y-96722548D01*
X71975603Y-96472963D01*
X71974954Y-96468732D01*
X71974699Y-96466580D01*
X71948003Y-96241023D01*
X71919252Y-95985852D01*
X71918914Y-95981414D01*
X71910487Y-95766916D01*
X71903035Y-95567763D01*
X76445787Y-95567763D01*
X76475413Y-95837013D01*
X76475415Y-95837024D01*
X76513151Y-95981365D01*
X76543928Y-96099088D01*
X76649870Y-96348390D01*
X76714199Y-96453796D01*
X76790979Y-96579605D01*
X76790986Y-96579615D01*
X76964253Y-96787819D01*
X76964259Y-96787824D01*
X77165998Y-96968582D01*
X77391910Y-97118044D01*
X77637176Y-97233020D01*
X77637183Y-97233022D01*
X77637185Y-97233023D01*
X77896557Y-97311057D01*
X77896564Y-97311058D01*
X77896569Y-97311060D01*
X78164561Y-97350500D01*
X78164566Y-97350500D01*
X78367636Y-97350500D01*
X78419133Y-97346730D01*
X78570156Y-97335677D01*
X78682758Y-97310593D01*
X78834546Y-97276782D01*
X78834548Y-97276781D01*
X78834553Y-97276780D01*
X79087558Y-97180014D01*
X79323777Y-97047441D01*
X79538177Y-96881888D01*
X79726186Y-96686881D01*
X79883799Y-96466579D01*
X79957787Y-96322669D01*
X80007649Y-96225690D01*
X80007651Y-96225684D01*
X80007656Y-96225675D01*
X80091004Y-95981365D01*
X80095115Y-95969314D01*
X80095115Y-95969313D01*
X80095118Y-95969305D01*
X80144319Y-95702933D01*
X80149259Y-95567763D01*
X104745787Y-95567763D01*
X104775413Y-95837013D01*
X104775415Y-95837024D01*
X104813151Y-95981365D01*
X104843928Y-96099088D01*
X104949870Y-96348390D01*
X105014199Y-96453796D01*
X105090979Y-96579605D01*
X105090986Y-96579615D01*
X105264253Y-96787819D01*
X105264259Y-96787824D01*
X105465998Y-96968582D01*
X105691910Y-97118044D01*
X105937176Y-97233020D01*
X105937183Y-97233022D01*
X105937185Y-97233023D01*
X106196557Y-97311057D01*
X106196564Y-97311058D01*
X106196569Y-97311060D01*
X106464561Y-97350500D01*
X106464566Y-97350500D01*
X106667636Y-97350500D01*
X106719133Y-97346730D01*
X106870156Y-97335677D01*
X106982758Y-97310593D01*
X107134546Y-97276782D01*
X107134548Y-97276781D01*
X107134553Y-97276780D01*
X107387558Y-97180014D01*
X107623777Y-97047441D01*
X107838177Y-96881888D01*
X108026186Y-96686881D01*
X108183799Y-96466579D01*
X108257787Y-96322669D01*
X108307649Y-96225690D01*
X108307651Y-96225684D01*
X108307656Y-96225675D01*
X108391004Y-95981365D01*
X108395115Y-95969314D01*
X108395115Y-95969313D01*
X108395118Y-95969305D01*
X108444319Y-95702933D01*
X108454212Y-95432235D01*
X108424586Y-95162982D01*
X108356072Y-94900912D01*
X108250130Y-94651610D01*
X108109018Y-94420390D01*
X108019747Y-94313119D01*
X107935746Y-94212180D01*
X107935740Y-94212175D01*
X107734002Y-94031418D01*
X107508092Y-93881957D01*
X107508090Y-93881956D01*
X107262824Y-93766980D01*
X107262819Y-93766978D01*
X107262814Y-93766976D01*
X107003442Y-93688942D01*
X107003428Y-93688939D01*
X106887791Y-93671921D01*
X106735439Y-93649500D01*
X106532369Y-93649500D01*
X106532364Y-93649500D01*
X106329844Y-93664323D01*
X106329831Y-93664325D01*
X106065453Y-93723217D01*
X106065446Y-93723220D01*
X105812439Y-93819987D01*
X105576226Y-93952557D01*
X105361822Y-94118112D01*
X105173822Y-94313109D01*
X105173816Y-94313116D01*
X105016202Y-94533419D01*
X105016199Y-94533424D01*
X104892350Y-94774309D01*
X104892343Y-94774327D01*
X104804884Y-95030685D01*
X104804881Y-95030699D01*
X104755681Y-95297068D01*
X104755680Y-95297075D01*
X104745787Y-95567763D01*
X80149259Y-95567763D01*
X80154212Y-95432235D01*
X80124586Y-95162982D01*
X80056072Y-94900912D01*
X79950130Y-94651610D01*
X79809018Y-94420390D01*
X79719747Y-94313119D01*
X79635746Y-94212180D01*
X79635740Y-94212175D01*
X79434002Y-94031418D01*
X79208092Y-93881957D01*
X79208090Y-93881956D01*
X78962824Y-93766980D01*
X78962819Y-93766978D01*
X78962814Y-93766976D01*
X78703442Y-93688942D01*
X78703428Y-93688939D01*
X78587791Y-93671921D01*
X78435439Y-93649500D01*
X78232369Y-93649500D01*
X78232364Y-93649500D01*
X78029844Y-93664323D01*
X78029831Y-93664325D01*
X77765453Y-93723217D01*
X77765446Y-93723220D01*
X77512439Y-93819987D01*
X77276226Y-93952557D01*
X77061822Y-94118112D01*
X76873822Y-94313109D01*
X76873816Y-94313116D01*
X76716202Y-94533419D01*
X76716199Y-94533424D01*
X76592350Y-94774309D01*
X76592343Y-94774327D01*
X76504884Y-95030685D01*
X76504881Y-95030699D01*
X76455681Y-95297068D01*
X76455680Y-95297075D01*
X76445787Y-95567763D01*
X71903035Y-95567763D01*
X71900500Y-95500000D01*
X71920821Y-84120001D01*
X73854532Y-84120001D01*
X73874364Y-84346686D01*
X73874366Y-84346697D01*
X73933258Y-84566488D01*
X73933261Y-84566497D01*
X74029431Y-84772732D01*
X74029432Y-84772734D01*
X74159954Y-84959141D01*
X74320858Y-85120045D01*
X74345462Y-85137273D01*
X74389087Y-85191849D01*
X74396281Y-85261348D01*
X74364758Y-85323703D01*
X74304529Y-85359117D01*
X74287593Y-85362138D01*
X74252516Y-85365908D01*
X74117671Y-85416202D01*
X74117664Y-85416206D01*
X74002455Y-85502452D01*
X74002452Y-85502455D01*
X73916206Y-85617664D01*
X73916202Y-85617671D01*
X73865908Y-85752517D01*
X73859501Y-85812116D01*
X73859501Y-85812123D01*
X73859500Y-85812135D01*
X73859500Y-87507870D01*
X73859501Y-87507876D01*
X73865908Y-87567483D01*
X73916202Y-87702328D01*
X73916206Y-87702335D01*
X74002452Y-87817544D01*
X74002455Y-87817547D01*
X74117664Y-87903793D01*
X74117671Y-87903797D01*
X74252517Y-87954091D01*
X74252516Y-87954091D01*
X74259444Y-87954835D01*
X74312127Y-87960500D01*
X76007872Y-87960499D01*
X76067483Y-87954091D01*
X76202331Y-87903796D01*
X76317546Y-87817546D01*
X76403796Y-87702331D01*
X76454091Y-87567483D01*
X76460500Y-87507873D01*
X76460500Y-86660001D01*
X89094532Y-86660001D01*
X89114364Y-86886686D01*
X89114366Y-86886697D01*
X89173258Y-87106488D01*
X89173261Y-87106497D01*
X89269431Y-87312732D01*
X89269432Y-87312734D01*
X89399954Y-87499141D01*
X89560858Y-87660045D01*
X89560861Y-87660047D01*
X89747266Y-87790568D01*
X89953504Y-87886739D01*
X90173308Y-87945635D01*
X90335230Y-87959801D01*
X90399998Y-87965468D01*
X90400000Y-87965468D01*
X90400002Y-87965468D01*
X90456807Y-87960498D01*
X90626692Y-87945635D01*
X90846496Y-87886739D01*
X91052734Y-87790568D01*
X91239139Y-87660047D01*
X91239140Y-87660045D01*
X91252368Y-87646819D01*
X91313691Y-87613334D01*
X91340049Y-87610500D01*
X107627937Y-87610500D01*
X107712539Y-87612644D01*
X107712539Y-87612643D01*
X107712546Y-87612644D01*
X107769818Y-87602378D01*
X107774432Y-87601731D01*
X107832321Y-87595845D01*
X107863286Y-87586128D01*
X107870886Y-87584263D01*
X107902828Y-87578539D01*
X107956830Y-87556967D01*
X107961267Y-87555387D01*
X107965957Y-87553915D01*
X108016768Y-87537974D01*
X108045134Y-87522228D01*
X108052214Y-87518866D01*
X108082348Y-87506830D01*
X108130917Y-87474818D01*
X108134926Y-87472389D01*
X108185791Y-87444159D01*
X108210408Y-87423023D01*
X108216672Y-87418301D01*
X108243759Y-87400451D01*
X108284906Y-87359302D01*
X108288325Y-87356134D01*
X108332468Y-87318240D01*
X108352328Y-87292581D01*
X108357499Y-87286709D01*
X111863582Y-83780627D01*
X111924919Y-83722323D01*
X111958161Y-83674562D01*
X111960962Y-83670846D01*
X111997734Y-83625751D01*
X112012752Y-83596998D01*
X112016822Y-83590282D01*
X112024940Y-83578617D01*
X112035353Y-83563658D01*
X112058296Y-83510190D01*
X112060305Y-83505959D01*
X112087236Y-83454406D01*
X112096160Y-83423216D01*
X112098787Y-83415836D01*
X112111587Y-83386012D01*
X112123299Y-83329011D01*
X112124410Y-83324485D01*
X112140416Y-83268552D01*
X112142879Y-83236195D01*
X112143965Y-83228449D01*
X112150500Y-83196656D01*
X112150500Y-83138493D01*
X112150679Y-83133783D01*
X112155095Y-83075797D01*
X112150996Y-83043615D01*
X112150500Y-83035784D01*
X112150500Y-55838483D01*
X112150679Y-55833774D01*
X112155094Y-55775799D01*
X112150997Y-55743623D01*
X112150500Y-55735784D01*
X112150500Y-51312062D01*
X112152644Y-51227456D01*
X112152445Y-51226343D01*
X112150500Y-51204466D01*
X112150500Y-46462062D01*
X112152644Y-46377458D01*
X112152643Y-46377457D01*
X112152644Y-46377454D01*
X112142382Y-46320206D01*
X112141728Y-46315539D01*
X112141720Y-46315462D01*
X112135845Y-46257679D01*
X112135844Y-46257677D01*
X112135844Y-46257674D01*
X112126132Y-46226723D01*
X112124262Y-46219105D01*
X112118539Y-46187172D01*
X112096955Y-46133140D01*
X112095387Y-46128735D01*
X112077974Y-46073232D01*
X112062232Y-46044872D01*
X112058862Y-46037776D01*
X112046831Y-46007654D01*
X112036575Y-45992093D01*
X112014826Y-45959093D01*
X112012391Y-45955075D01*
X111984159Y-45904209D01*
X111963024Y-45879590D01*
X111958299Y-45873324D01*
X111940453Y-45846243D01*
X111899332Y-45805122D01*
X111896128Y-45801666D01*
X111892832Y-45797827D01*
X111858240Y-45757532D01*
X111832590Y-45737677D01*
X111826696Y-45732486D01*
X110330627Y-44236417D01*
X110272324Y-44175082D01*
X110272320Y-44175079D01*
X110224567Y-44141841D01*
X110220833Y-44139025D01*
X110175751Y-44102266D01*
X110175747Y-44102264D01*
X110175746Y-44102263D01*
X110175745Y-44102262D01*
X110146997Y-44087246D01*
X110140277Y-44083174D01*
X110113659Y-44064647D01*
X110060209Y-44041710D01*
X110055952Y-44039688D01*
X110004409Y-44012764D01*
X110004407Y-44012763D01*
X110004406Y-44012763D01*
X109987689Y-44007979D01*
X109973221Y-44003839D01*
X109965822Y-44001205D01*
X109936011Y-43988412D01*
X109936012Y-43988412D01*
X109879038Y-43976703D01*
X109874463Y-43975580D01*
X109818556Y-43959583D01*
X109818545Y-43959582D01*
X109786208Y-43957120D01*
X109778428Y-43956029D01*
X109746657Y-43949500D01*
X109746656Y-43949500D01*
X109688497Y-43949500D01*
X109683790Y-43949321D01*
X109678850Y-43948944D01*
X109625798Y-43944904D01*
X109608176Y-43947149D01*
X109593614Y-43949003D01*
X109585785Y-43949500D01*
X109282791Y-43949500D01*
X109215752Y-43929815D01*
X109169997Y-43877011D01*
X109166609Y-43868833D01*
X109143797Y-43807671D01*
X109143793Y-43807664D01*
X109057547Y-43692455D01*
X109057544Y-43692452D01*
X108942335Y-43606206D01*
X108942328Y-43606202D01*
X108807482Y-43555908D01*
X108807483Y-43555908D01*
X108747883Y-43549501D01*
X108747881Y-43549500D01*
X108747873Y-43549500D01*
X108747864Y-43549500D01*
X106952129Y-43549500D01*
X106952123Y-43549501D01*
X106892516Y-43555908D01*
X106757671Y-43606202D01*
X106757664Y-43606206D01*
X106642455Y-43692452D01*
X106642452Y-43692455D01*
X106556206Y-43807664D01*
X106556202Y-43807671D01*
X106505908Y-43942517D01*
X106500974Y-43988413D01*
X106499501Y-44002123D01*
X106499500Y-44002135D01*
X106499500Y-45797870D01*
X106499501Y-45797876D01*
X106505908Y-45857483D01*
X106556202Y-45992328D01*
X106556206Y-45992335D01*
X106642452Y-46107544D01*
X106642455Y-46107547D01*
X106757664Y-46193793D01*
X106757671Y-46193797D01*
X106757674Y-46193798D01*
X106889598Y-46243002D01*
X106945531Y-46284873D01*
X106969949Y-46350337D01*
X106955098Y-46418610D01*
X106933947Y-46446865D01*
X106811886Y-46568926D01*
X106676400Y-46762420D01*
X106676399Y-46762422D01*
X106576570Y-46976507D01*
X106576567Y-46976513D01*
X106519364Y-47189999D01*
X106519364Y-47190000D01*
X107236653Y-47190000D01*
X107303692Y-47209685D01*
X107349447Y-47262489D01*
X107359391Y-47331647D01*
X107355631Y-47348933D01*
X107350000Y-47368111D01*
X107350000Y-47511888D01*
X107355631Y-47531067D01*
X107355630Y-47600936D01*
X107317855Y-47659714D01*
X107254299Y-47688738D01*
X107236653Y-47690000D01*
X106519364Y-47690000D01*
X106576567Y-47903486D01*
X106576570Y-47903492D01*
X106676399Y-48117578D01*
X106811894Y-48311082D01*
X106978917Y-48478105D01*
X107172421Y-48613600D01*
X107386507Y-48713429D01*
X107386516Y-48713433D01*
X107600000Y-48770634D01*
X107600000Y-48052301D01*
X107619685Y-47985262D01*
X107672489Y-47939507D01*
X107741647Y-47929563D01*
X107814237Y-47940000D01*
X107814238Y-47940000D01*
X107885762Y-47940000D01*
X107885763Y-47940000D01*
X107958352Y-47929563D01*
X108027510Y-47939507D01*
X108080314Y-47985261D01*
X108099999Y-48052301D01*
X108099999Y-48770633D01*
X108313483Y-48713433D01*
X108313492Y-48713429D01*
X108527578Y-48613600D01*
X108721082Y-48478105D01*
X108888105Y-48311082D01*
X109023600Y-48117578D01*
X109123429Y-47903492D01*
X109123432Y-47903486D01*
X109180636Y-47690000D01*
X108463347Y-47690000D01*
X108396308Y-47670315D01*
X108350553Y-47617511D01*
X108340609Y-47548353D01*
X108344369Y-47531067D01*
X108350000Y-47511888D01*
X108350000Y-47368111D01*
X108344369Y-47348933D01*
X108344370Y-47279064D01*
X108382145Y-47220286D01*
X108445701Y-47191262D01*
X108463347Y-47190000D01*
X109180636Y-47190000D01*
X109180635Y-47189999D01*
X109123432Y-46976513D01*
X109123429Y-46976507D01*
X109023600Y-46762422D01*
X109023599Y-46762420D01*
X108888113Y-46568926D01*
X108888108Y-46568920D01*
X108766053Y-46446865D01*
X108732568Y-46385542D01*
X108737552Y-46315850D01*
X108779424Y-46259917D01*
X108810400Y-46243002D01*
X108942331Y-46193796D01*
X109057546Y-46107546D01*
X109143796Y-45992331D01*
X109145456Y-45987879D01*
X109187326Y-45931946D01*
X109252790Y-45907527D01*
X109321063Y-45922377D01*
X109349320Y-45943530D01*
X110213181Y-46807391D01*
X110246666Y-46868714D01*
X110249500Y-46895072D01*
X110249500Y-49375500D01*
X110229815Y-49442539D01*
X110177011Y-49488294D01*
X110125500Y-49499500D01*
X110090049Y-49499500D01*
X110023010Y-49479815D01*
X110002368Y-49463181D01*
X109989141Y-49449954D01*
X109802734Y-49319432D01*
X109802732Y-49319431D01*
X109596497Y-49223261D01*
X109596488Y-49223258D01*
X109376697Y-49164366D01*
X109376693Y-49164365D01*
X109376692Y-49164365D01*
X109376691Y-49164364D01*
X109376686Y-49164364D01*
X109150002Y-49144532D01*
X109149998Y-49144532D01*
X108923313Y-49164364D01*
X108923302Y-49164366D01*
X108703511Y-49223258D01*
X108703502Y-49223261D01*
X108497267Y-49319431D01*
X108497265Y-49319432D01*
X108310858Y-49449954D01*
X108149954Y-49610858D01*
X108019432Y-49797265D01*
X108019430Y-49797269D01*
X108012105Y-49812978D01*
X107965931Y-49865417D01*
X107898737Y-49884567D01*
X107831857Y-49864350D01*
X107787341Y-49812974D01*
X107780132Y-49797515D01*
X107780131Y-49797512D01*
X107729026Y-49724526D01*
X107729025Y-49724526D01*
X107187419Y-50266132D01*
X107126096Y-50299617D01*
X107056404Y-50294633D01*
X107000471Y-50252761D01*
X106989256Y-50234751D01*
X106977641Y-50211955D01*
X106977637Y-50211951D01*
X106977636Y-50211949D01*
X106888050Y-50122363D01*
X106888044Y-50122358D01*
X106878109Y-50117296D01*
X106865250Y-50110744D01*
X106814456Y-50062773D01*
X106797660Y-49994952D01*
X106820197Y-49928817D01*
X106833865Y-49912580D01*
X107375472Y-49370973D01*
X107302483Y-49319866D01*
X107302481Y-49319865D01*
X107096326Y-49223734D01*
X107096317Y-49223730D01*
X106876610Y-49164860D01*
X106876599Y-49164858D01*
X106650002Y-49145034D01*
X106649998Y-49145034D01*
X106423400Y-49164858D01*
X106423389Y-49164860D01*
X106203682Y-49223730D01*
X106203673Y-49223734D01*
X105997513Y-49319868D01*
X105924526Y-49370973D01*
X106466133Y-49912580D01*
X106499618Y-49973903D01*
X106494634Y-50043595D01*
X106452762Y-50099528D01*
X106434748Y-50110745D01*
X106411956Y-50122358D01*
X106411949Y-50122363D01*
X106322363Y-50211949D01*
X106322358Y-50211956D01*
X106310745Y-50234748D01*
X106262770Y-50285544D01*
X106194949Y-50302338D01*
X106128814Y-50279800D01*
X106112580Y-50266133D01*
X105570973Y-49724526D01*
X105519868Y-49797513D01*
X105423734Y-50003673D01*
X105423730Y-50003682D01*
X105364860Y-50223389D01*
X105364858Y-50223400D01*
X105345034Y-50449997D01*
X105345034Y-50450002D01*
X105364858Y-50676599D01*
X105364860Y-50676610D01*
X105423730Y-50896317D01*
X105423734Y-50896326D01*
X105519865Y-51102481D01*
X105519866Y-51102483D01*
X105570973Y-51175471D01*
X105570973Y-51175472D01*
X106112580Y-50633865D01*
X106173903Y-50600380D01*
X106243594Y-50605364D01*
X106299528Y-50647235D01*
X106310742Y-50665246D01*
X106316527Y-50676599D01*
X106322358Y-50688044D01*
X106322363Y-50688050D01*
X106411949Y-50777636D01*
X106411951Y-50777637D01*
X106411955Y-50777641D01*
X106434747Y-50789254D01*
X106485542Y-50837228D01*
X106502337Y-50905049D01*
X106479799Y-50971184D01*
X106466132Y-50987419D01*
X105924526Y-51529025D01*
X105924526Y-51529026D01*
X105997512Y-51580131D01*
X105997516Y-51580133D01*
X106203673Y-51676265D01*
X106203682Y-51676269D01*
X106423389Y-51735139D01*
X106423400Y-51735141D01*
X106649998Y-51754966D01*
X106650002Y-51754966D01*
X106876599Y-51735141D01*
X106876610Y-51735139D01*
X107096317Y-51676269D01*
X107096331Y-51676264D01*
X107302478Y-51580136D01*
X107375472Y-51529025D01*
X106833866Y-50987419D01*
X106800381Y-50926096D01*
X106805365Y-50856404D01*
X106847237Y-50800471D01*
X106865245Y-50789258D01*
X106888045Y-50777641D01*
X106977641Y-50688045D01*
X106989254Y-50665252D01*
X107037225Y-50614458D01*
X107105046Y-50597661D01*
X107171181Y-50620197D01*
X107187419Y-50633866D01*
X107729025Y-51175472D01*
X107780134Y-51102481D01*
X107787340Y-51087028D01*
X107833511Y-51034587D01*
X107900704Y-51015433D01*
X107967585Y-51035646D01*
X108012105Y-51087022D01*
X108019430Y-51102730D01*
X108019432Y-51102734D01*
X108149954Y-51289141D01*
X108310858Y-51450045D01*
X108310861Y-51450047D01*
X108497266Y-51580568D01*
X108703504Y-51676739D01*
X108923308Y-51735635D01*
X109085230Y-51749801D01*
X109149998Y-51755468D01*
X109150000Y-51755468D01*
X109150002Y-51755468D01*
X109206672Y-51750509D01*
X109376692Y-51735635D01*
X109596496Y-51676739D01*
X109802734Y-51580568D01*
X109913733Y-51502846D01*
X109979935Y-51480521D01*
X110047702Y-51497531D01*
X110072533Y-51516742D01*
X110213181Y-51657390D01*
X110246666Y-51718713D01*
X110249500Y-51745071D01*
X110249500Y-53453344D01*
X110249499Y-55354927D01*
X110229814Y-55421967D01*
X110213181Y-55442608D01*
X110142609Y-55513181D01*
X110081286Y-55546666D01*
X110054927Y-55549500D01*
X105112064Y-55549500D01*
X105027455Y-55547356D01*
X105027450Y-55547356D01*
X104970212Y-55557614D01*
X104965548Y-55558268D01*
X104907685Y-55564154D01*
X104907681Y-55564154D01*
X104907679Y-55564155D01*
X104907676Y-55564155D01*
X104907671Y-55564157D01*
X104876733Y-55573864D01*
X104869106Y-55575735D01*
X104837176Y-55581458D01*
X104837170Y-55581460D01*
X104783154Y-55603036D01*
X104778716Y-55604616D01*
X104723233Y-55622025D01*
X104723226Y-55622028D01*
X104694875Y-55637764D01*
X104687781Y-55641133D01*
X104657650Y-55653170D01*
X104609091Y-55685173D01*
X104605062Y-55687614D01*
X104554207Y-55715841D01*
X104554206Y-55715843D01*
X104529596Y-55736970D01*
X104523324Y-55741699D01*
X104496239Y-55759549D01*
X104496236Y-55759551D01*
X104455120Y-55800668D01*
X104451666Y-55803870D01*
X104407529Y-55841762D01*
X104387675Y-55867410D01*
X104382484Y-55873304D01*
X101394459Y-58861329D01*
X101333136Y-58894814D01*
X101317586Y-58897176D01*
X101114596Y-58914936D01*
X101114586Y-58914938D01*
X100886344Y-58976094D01*
X100886335Y-58976098D01*
X100672171Y-59075964D01*
X100672169Y-59075965D01*
X100478597Y-59211505D01*
X100311505Y-59378597D01*
X100181575Y-59564158D01*
X100126998Y-59607783D01*
X100057500Y-59614977D01*
X99995145Y-59583454D01*
X99978425Y-59564158D01*
X99848494Y-59378597D01*
X99681402Y-59211506D01*
X99681395Y-59211501D01*
X99487834Y-59075967D01*
X99487830Y-59075965D01*
X99341373Y-59007671D01*
X99273663Y-58976097D01*
X99273659Y-58976096D01*
X99273655Y-58976094D01*
X99045413Y-58914938D01*
X99045403Y-58914936D01*
X98810001Y-58894341D01*
X98809999Y-58894341D01*
X98574596Y-58914936D01*
X98574586Y-58914938D01*
X98346344Y-58976094D01*
X98346335Y-58976098D01*
X98132171Y-59075964D01*
X98132169Y-59075965D01*
X97938600Y-59211503D01*
X97816284Y-59333819D01*
X97754961Y-59367303D01*
X97685269Y-59362319D01*
X97629336Y-59320447D01*
X97612421Y-59289470D01*
X97563354Y-59157913D01*
X97563350Y-59157906D01*
X97477190Y-59042812D01*
X97477187Y-59042809D01*
X97362093Y-58956649D01*
X97362086Y-58956645D01*
X97227379Y-58906403D01*
X97227372Y-58906401D01*
X97167844Y-58900000D01*
X96520000Y-58900000D01*
X96520000Y-59637698D01*
X96500315Y-59704737D01*
X96447511Y-59750492D01*
X96378355Y-59760436D01*
X96305766Y-59750000D01*
X96305763Y-59750000D01*
X96234237Y-59750000D01*
X96161646Y-59760437D01*
X96092487Y-59750493D01*
X96039683Y-59704738D01*
X96019999Y-59637699D01*
X96020000Y-58900000D01*
X95560727Y-58900000D01*
X95493688Y-58880315D01*
X95447933Y-58827511D01*
X95437989Y-58758353D01*
X95467014Y-58694797D01*
X95473021Y-58688345D01*
X99613495Y-54547870D01*
X105949500Y-54547870D01*
X105949501Y-54547876D01*
X105955908Y-54607483D01*
X106006202Y-54742328D01*
X106006206Y-54742335D01*
X106092452Y-54857544D01*
X106092455Y-54857547D01*
X106207664Y-54943793D01*
X106207671Y-54943797D01*
X106342517Y-54994091D01*
X106342516Y-54994091D01*
X106349444Y-54994835D01*
X106402127Y-55000500D01*
X107697872Y-55000499D01*
X107757483Y-54994091D01*
X107800987Y-54977865D01*
X107892329Y-54943797D01*
X107892329Y-54943796D01*
X107892331Y-54943796D01*
X107941993Y-54906618D01*
X108007454Y-54882201D01*
X108061097Y-54890258D01*
X108247678Y-54962539D01*
X108448072Y-55000000D01*
X108651928Y-55000000D01*
X108852321Y-54962539D01*
X109042414Y-54888897D01*
X109130688Y-54834240D01*
X108660263Y-54363816D01*
X108626778Y-54302493D01*
X108631762Y-54232802D01*
X108673633Y-54176868D01*
X108682658Y-54170713D01*
X108755610Y-54125543D01*
X108823201Y-54036038D01*
X108823200Y-54036038D01*
X108830126Y-54026868D01*
X108833540Y-54029446D01*
X108865721Y-53994673D01*
X108933368Y-53977190D01*
X108999728Y-53999056D01*
X109016995Y-54013443D01*
X109487465Y-54483912D01*
X109489247Y-54481552D01*
X109489249Y-54481550D01*
X109580113Y-54299069D01*
X109580116Y-54299063D01*
X109635902Y-54102992D01*
X109635903Y-54102989D01*
X109654713Y-53900000D01*
X109654713Y-53899999D01*
X109635903Y-53697010D01*
X109635902Y-53697007D01*
X109580116Y-53500936D01*
X109580113Y-53500930D01*
X109489244Y-53318441D01*
X109487466Y-53316086D01*
X109487465Y-53316085D01*
X109013119Y-53790432D01*
X108951796Y-53823917D01*
X108882104Y-53818933D01*
X108826171Y-53777061D01*
X108814440Y-53758028D01*
X108793552Y-53716078D01*
X108769372Y-53694035D01*
X108738294Y-53665703D01*
X108710666Y-53640516D01*
X108704511Y-53638131D01*
X108649110Y-53595561D01*
X108625518Y-53529795D01*
X108641228Y-53461714D01*
X108661623Y-53434824D01*
X109130688Y-52965758D01*
X109130687Y-52965757D01*
X109042418Y-52911104D01*
X109042411Y-52911100D01*
X108852321Y-52837460D01*
X108651928Y-52800000D01*
X108448072Y-52800000D01*
X108247677Y-52837460D01*
X108061098Y-52909741D01*
X107991474Y-52915603D01*
X107941993Y-52893381D01*
X107892331Y-52856204D01*
X107892329Y-52856203D01*
X107892328Y-52856202D01*
X107757482Y-52805908D01*
X107757483Y-52805908D01*
X107697883Y-52799501D01*
X107697881Y-52799500D01*
X107697873Y-52799500D01*
X107697864Y-52799500D01*
X106402129Y-52799500D01*
X106402123Y-52799501D01*
X106342516Y-52805908D01*
X106207671Y-52856202D01*
X106207664Y-52856206D01*
X106092455Y-52942452D01*
X106092452Y-52942455D01*
X106006206Y-53057664D01*
X106006202Y-53057671D01*
X105955908Y-53192517D01*
X105949501Y-53252116D01*
X105949500Y-53252135D01*
X105949500Y-54547870D01*
X99613495Y-54547870D01*
X100135638Y-54025727D01*
X100149267Y-54013950D01*
X100149948Y-54013443D01*
X100168530Y-53999610D01*
X100168532Y-53999606D01*
X100168534Y-53999606D01*
X100187767Y-53976684D01*
X100202113Y-53959585D01*
X100205767Y-53955599D01*
X100211591Y-53949776D01*
X100231930Y-53924052D01*
X100281302Y-53865214D01*
X100281306Y-53865205D01*
X100285274Y-53859175D01*
X100285325Y-53859208D01*
X100289372Y-53852856D01*
X100289320Y-53852824D01*
X100293112Y-53846675D01*
X100325575Y-53777058D01*
X100343960Y-53740451D01*
X100360040Y-53708433D01*
X100360042Y-53708421D01*
X100362509Y-53701646D01*
X100364117Y-53702231D01*
X100394258Y-53649363D01*
X100409188Y-53637067D01*
X100521401Y-53558495D01*
X100688495Y-53391401D01*
X100824035Y-53197830D01*
X100923903Y-52983663D01*
X100985063Y-52755408D01*
X101005659Y-52520000D01*
X100985063Y-52284592D01*
X100923903Y-52056337D01*
X100824035Y-51842171D01*
X100763326Y-51755468D01*
X100688494Y-51648597D01*
X100521404Y-51481507D01*
X100453375Y-51433872D01*
X100409751Y-51379294D01*
X100400500Y-51332298D01*
X100400500Y-51167700D01*
X100420185Y-51100661D01*
X100453375Y-51066126D01*
X100521401Y-51018495D01*
X100688495Y-50851401D01*
X100824035Y-50657830D01*
X100923903Y-50443663D01*
X100985063Y-50215408D01*
X101005659Y-49980000D01*
X100985063Y-49744592D01*
X100923903Y-49516337D01*
X100824035Y-49302171D01*
X100769111Y-49223730D01*
X100688494Y-49108597D01*
X100521404Y-48941507D01*
X100453375Y-48893872D01*
X100409751Y-48839294D01*
X100400500Y-48792298D01*
X100400500Y-48627700D01*
X100420185Y-48560661D01*
X100453375Y-48526126D01*
X100521401Y-48478495D01*
X100688495Y-48311401D01*
X100824035Y-48117830D01*
X100923903Y-47903663D01*
X100985063Y-47675408D01*
X101005659Y-47440000D01*
X100985063Y-47204592D01*
X100923903Y-46976337D01*
X100824035Y-46762171D01*
X100688495Y-46568599D01*
X100566567Y-46446671D01*
X100533084Y-46385351D01*
X100538068Y-46315659D01*
X100579939Y-46259725D01*
X100610915Y-46242810D01*
X100742331Y-46193796D01*
X100857546Y-46107546D01*
X100943796Y-45992331D01*
X100994091Y-45857483D01*
X101000500Y-45797873D01*
X101000499Y-44649999D01*
X101899999Y-44649999D01*
X101900000Y-44650000D01*
X102636653Y-44650000D01*
X102703692Y-44669685D01*
X102749447Y-44722489D01*
X102759391Y-44791647D01*
X102755631Y-44808933D01*
X102750000Y-44828111D01*
X102750000Y-44971888D01*
X102755631Y-44991067D01*
X102755630Y-45060936D01*
X102717855Y-45119714D01*
X102654299Y-45148738D01*
X102636653Y-45150000D01*
X101900000Y-45150000D01*
X101900000Y-45797844D01*
X101906401Y-45857372D01*
X101906403Y-45857379D01*
X101956645Y-45992086D01*
X101956649Y-45992093D01*
X102042809Y-46107187D01*
X102042812Y-46107190D01*
X102157906Y-46193350D01*
X102157913Y-46193354D01*
X102289986Y-46242614D01*
X102345920Y-46284485D01*
X102370337Y-46349949D01*
X102355486Y-46418222D01*
X102334335Y-46446477D01*
X102211886Y-46568926D01*
X102076400Y-46762420D01*
X102076399Y-46762422D01*
X101976570Y-46976507D01*
X101976567Y-46976513D01*
X101919364Y-47189999D01*
X101919364Y-47190000D01*
X102636653Y-47190000D01*
X102703692Y-47209685D01*
X102749447Y-47262489D01*
X102759391Y-47331647D01*
X102755631Y-47348933D01*
X102750000Y-47368111D01*
X102750000Y-47511888D01*
X102755631Y-47531067D01*
X102755630Y-47600936D01*
X102717855Y-47659714D01*
X102654299Y-47688738D01*
X102636653Y-47690000D01*
X101919364Y-47690000D01*
X101976567Y-47903486D01*
X101976570Y-47903492D01*
X102076399Y-48117578D01*
X102211894Y-48311082D01*
X102378917Y-48478105D01*
X102565031Y-48608425D01*
X102608656Y-48663003D01*
X102615848Y-48732501D01*
X102584326Y-48794856D01*
X102565031Y-48811575D01*
X102378922Y-48941890D01*
X102378920Y-48941891D01*
X102211891Y-49108920D01*
X102211886Y-49108926D01*
X102076400Y-49302420D01*
X102076399Y-49302422D01*
X101976570Y-49516507D01*
X101976567Y-49516513D01*
X101919364Y-49729999D01*
X101919364Y-49730000D01*
X102636653Y-49730000D01*
X102703692Y-49749685D01*
X102749447Y-49802489D01*
X102759391Y-49871647D01*
X102755631Y-49888933D01*
X102750000Y-49908111D01*
X102750000Y-50051888D01*
X102755631Y-50071067D01*
X102755630Y-50140936D01*
X102717855Y-50199714D01*
X102654299Y-50228738D01*
X102636653Y-50230000D01*
X101919364Y-50230000D01*
X101976567Y-50443486D01*
X101976570Y-50443492D01*
X102076399Y-50657578D01*
X102211894Y-50851082D01*
X102378917Y-51018105D01*
X102565031Y-51148425D01*
X102608656Y-51203003D01*
X102615848Y-51272501D01*
X102584326Y-51334856D01*
X102565031Y-51351575D01*
X102378922Y-51481890D01*
X102378920Y-51481891D01*
X102211891Y-51648920D01*
X102211886Y-51648926D01*
X102076400Y-51842420D01*
X102076399Y-51842422D01*
X101976570Y-52056507D01*
X101976567Y-52056513D01*
X101919364Y-52269999D01*
X101919364Y-52270000D01*
X102636653Y-52270000D01*
X102703692Y-52289685D01*
X102749447Y-52342489D01*
X102759391Y-52411647D01*
X102755631Y-52428933D01*
X102750000Y-52448111D01*
X102750000Y-52591888D01*
X102755631Y-52611067D01*
X102755630Y-52680936D01*
X102717855Y-52739714D01*
X102654299Y-52768738D01*
X102636653Y-52770000D01*
X101919364Y-52770000D01*
X101976567Y-52983486D01*
X101976570Y-52983492D01*
X102076399Y-53197578D01*
X102211894Y-53391082D01*
X102378917Y-53558105D01*
X102572421Y-53693600D01*
X102786507Y-53793429D01*
X102786516Y-53793433D01*
X103000000Y-53850634D01*
X103000000Y-53132301D01*
X103019685Y-53065262D01*
X103072489Y-53019507D01*
X103141647Y-53009563D01*
X103214237Y-53020000D01*
X103214238Y-53020000D01*
X103285762Y-53020000D01*
X103285763Y-53020000D01*
X103358353Y-53009563D01*
X103427512Y-53019507D01*
X103480315Y-53065262D01*
X103500000Y-53132301D01*
X103500000Y-53850633D01*
X103713483Y-53793433D01*
X103713492Y-53793429D01*
X103927578Y-53693600D01*
X104121082Y-53558105D01*
X104288105Y-53391082D01*
X104423600Y-53197578D01*
X104523429Y-52983492D01*
X104523432Y-52983486D01*
X104580636Y-52770000D01*
X103863347Y-52770000D01*
X103796308Y-52750315D01*
X103750553Y-52697511D01*
X103740609Y-52628353D01*
X103744369Y-52611067D01*
X103750000Y-52591888D01*
X103750000Y-52448111D01*
X103744369Y-52428933D01*
X103744370Y-52359064D01*
X103782145Y-52300286D01*
X103845701Y-52271262D01*
X103863347Y-52270000D01*
X104580636Y-52270000D01*
X104580635Y-52269999D01*
X104523432Y-52056513D01*
X104523429Y-52056507D01*
X104423600Y-51842422D01*
X104423599Y-51842420D01*
X104288113Y-51648926D01*
X104288108Y-51648920D01*
X104121082Y-51481894D01*
X103934968Y-51351575D01*
X103891344Y-51296998D01*
X103884151Y-51227499D01*
X103915673Y-51165145D01*
X103934968Y-51148425D01*
X104121082Y-51018105D01*
X104288105Y-50851082D01*
X104423600Y-50657578D01*
X104523429Y-50443492D01*
X104523432Y-50443486D01*
X104580636Y-50230000D01*
X103863347Y-50230000D01*
X103796308Y-50210315D01*
X103750553Y-50157511D01*
X103740609Y-50088353D01*
X103744369Y-50071067D01*
X103750000Y-50051888D01*
X103750000Y-49908111D01*
X103744369Y-49888933D01*
X103744370Y-49819064D01*
X103782145Y-49760286D01*
X103845701Y-49731262D01*
X103863347Y-49730000D01*
X104580636Y-49730000D01*
X104580635Y-49729999D01*
X104523432Y-49516513D01*
X104523429Y-49516507D01*
X104423600Y-49302422D01*
X104423599Y-49302420D01*
X104288113Y-49108926D01*
X104288108Y-49108920D01*
X104121082Y-48941894D01*
X103934968Y-48811575D01*
X103891344Y-48756998D01*
X103884151Y-48687499D01*
X103915673Y-48625145D01*
X103934968Y-48608425D01*
X104121082Y-48478105D01*
X104288105Y-48311082D01*
X104423600Y-48117578D01*
X104523429Y-47903492D01*
X104523432Y-47903486D01*
X104580636Y-47690000D01*
X103863347Y-47690000D01*
X103796308Y-47670315D01*
X103750553Y-47617511D01*
X103740609Y-47548353D01*
X103744369Y-47531067D01*
X103750000Y-47511888D01*
X103750000Y-47368111D01*
X103744369Y-47348933D01*
X103744370Y-47279064D01*
X103782145Y-47220286D01*
X103845701Y-47191262D01*
X103863347Y-47190000D01*
X104580636Y-47190000D01*
X104580635Y-47189999D01*
X104523432Y-46976513D01*
X104523429Y-46976507D01*
X104423600Y-46762422D01*
X104423599Y-46762420D01*
X104288113Y-46568926D01*
X104288108Y-46568920D01*
X104165665Y-46446477D01*
X104132180Y-46385154D01*
X104137164Y-46315462D01*
X104179036Y-46259529D01*
X104210013Y-46242614D01*
X104342086Y-46193354D01*
X104342093Y-46193350D01*
X104457187Y-46107190D01*
X104457190Y-46107187D01*
X104543350Y-45992093D01*
X104543354Y-45992086D01*
X104593596Y-45857379D01*
X104593598Y-45857372D01*
X104599999Y-45797844D01*
X104600000Y-45797827D01*
X104600000Y-45150000D01*
X103863347Y-45150000D01*
X103796308Y-45130315D01*
X103750553Y-45077511D01*
X103740609Y-45008353D01*
X103744369Y-44991067D01*
X103750000Y-44971888D01*
X103750000Y-44828111D01*
X103744369Y-44808933D01*
X103744370Y-44739064D01*
X103782145Y-44680286D01*
X103845701Y-44651262D01*
X103863347Y-44650000D01*
X104600000Y-44650000D01*
X104600000Y-44002172D01*
X104599999Y-44002155D01*
X104593598Y-43942627D01*
X104593596Y-43942620D01*
X104543354Y-43807913D01*
X104543350Y-43807906D01*
X104457190Y-43692812D01*
X104457187Y-43692809D01*
X104342093Y-43606649D01*
X104342086Y-43606645D01*
X104207379Y-43556403D01*
X104207372Y-43556401D01*
X104147844Y-43550000D01*
X103500000Y-43550000D01*
X103499999Y-44287698D01*
X103480314Y-44354738D01*
X103427510Y-44400492D01*
X103358353Y-44410436D01*
X103285764Y-44400000D01*
X103285763Y-44400000D01*
X103214237Y-44400000D01*
X103214233Y-44400000D01*
X103141645Y-44410436D01*
X103072487Y-44400492D01*
X103019684Y-44354736D01*
X103000000Y-44287698D01*
X103000000Y-43550000D01*
X102352155Y-43550000D01*
X102292627Y-43556401D01*
X102292620Y-43556403D01*
X102157913Y-43606645D01*
X102157906Y-43606649D01*
X102042812Y-43692809D01*
X102042809Y-43692812D01*
X101956649Y-43807906D01*
X101956645Y-43807913D01*
X101906403Y-43942620D01*
X101906401Y-43942627D01*
X101900000Y-44002155D01*
X101900000Y-44002172D01*
X101899999Y-44649999D01*
X101000499Y-44649999D01*
X101000499Y-44002128D01*
X100994091Y-43942517D01*
X100989353Y-43929815D01*
X100943797Y-43807671D01*
X100943793Y-43807664D01*
X100857547Y-43692455D01*
X100857544Y-43692452D01*
X100742335Y-43606206D01*
X100742328Y-43606202D01*
X100607482Y-43555908D01*
X100607483Y-43555908D01*
X100547883Y-43549501D01*
X100547881Y-43549500D01*
X100547873Y-43549500D01*
X100547864Y-43549500D01*
X98752129Y-43549500D01*
X98752123Y-43549501D01*
X98692516Y-43555908D01*
X98557671Y-43606202D01*
X98557664Y-43606206D01*
X98442455Y-43692452D01*
X98442452Y-43692455D01*
X98356206Y-43807664D01*
X98356202Y-43807671D01*
X98305908Y-43942517D01*
X98300974Y-43988413D01*
X98299501Y-44002123D01*
X98299500Y-44002135D01*
X98299500Y-45797870D01*
X98299501Y-45797876D01*
X98305908Y-45857483D01*
X98356202Y-45992328D01*
X98356206Y-45992335D01*
X98442452Y-46107544D01*
X98442455Y-46107547D01*
X98557664Y-46193793D01*
X98557671Y-46193797D01*
X98689082Y-46242810D01*
X98745016Y-46284681D01*
X98769433Y-46350145D01*
X98754582Y-46418418D01*
X98733430Y-46446673D01*
X98611505Y-46568597D01*
X98475965Y-46762169D01*
X98475964Y-46762171D01*
X98376098Y-46976335D01*
X98376094Y-46976344D01*
X98314938Y-47204586D01*
X98314936Y-47204596D01*
X98294341Y-47439999D01*
X98294341Y-47440000D01*
X98314936Y-47675403D01*
X98314938Y-47675413D01*
X98376094Y-47903655D01*
X98376096Y-47903659D01*
X98376097Y-47903663D01*
X98427648Y-48014214D01*
X98475965Y-48117830D01*
X98475967Y-48117834D01*
X98611501Y-48311395D01*
X98611506Y-48311402D01*
X98778595Y-48478492D01*
X98778598Y-48478494D01*
X98778599Y-48478495D01*
X98846623Y-48526125D01*
X98890248Y-48580701D01*
X98899500Y-48627700D01*
X98899500Y-48792298D01*
X98879815Y-48859337D01*
X98846625Y-48893872D01*
X98778595Y-48941507D01*
X98611505Y-49108597D01*
X98475965Y-49302169D01*
X98475964Y-49302171D01*
X98376098Y-49516335D01*
X98376094Y-49516344D01*
X98314938Y-49744586D01*
X98314936Y-49744596D01*
X98294341Y-49979999D01*
X98294341Y-49980000D01*
X98314936Y-50215403D01*
X98314938Y-50215413D01*
X98376094Y-50443655D01*
X98376096Y-50443659D01*
X98376097Y-50443663D01*
X98437410Y-50575148D01*
X98475965Y-50657830D01*
X98475967Y-50657834D01*
X98567988Y-50789252D01*
X98600136Y-50835165D01*
X98611501Y-50851395D01*
X98611506Y-50851402D01*
X98778595Y-51018492D01*
X98778598Y-51018494D01*
X98778599Y-51018495D01*
X98846623Y-51066125D01*
X98890248Y-51120701D01*
X98899500Y-51167700D01*
X98899500Y-51332298D01*
X98879815Y-51399337D01*
X98846625Y-51433872D01*
X98778595Y-51481507D01*
X98611505Y-51648597D01*
X98475965Y-51842169D01*
X98475964Y-51842171D01*
X98376098Y-52056335D01*
X98376094Y-52056344D01*
X98314938Y-52284586D01*
X98314936Y-52284596D01*
X98294341Y-52519999D01*
X98294341Y-52520000D01*
X98314936Y-52755403D01*
X98314938Y-52755413D01*
X98376094Y-52983655D01*
X98376096Y-52983659D01*
X98376097Y-52983663D01*
X98445408Y-53132301D01*
X98475965Y-53197830D01*
X98475967Y-53197834D01*
X98566538Y-53327183D01*
X98588865Y-53393389D01*
X98571855Y-53461156D01*
X98552644Y-53485987D01*
X93887181Y-58151450D01*
X93825858Y-58184935D01*
X93756166Y-58179951D01*
X93700233Y-58138079D01*
X93675816Y-58072615D01*
X93675500Y-58063769D01*
X93675500Y-56880450D01*
X93695185Y-56813411D01*
X93711814Y-56792774D01*
X96433786Y-54070802D01*
X96446048Y-54060980D01*
X96445865Y-54060759D01*
X96451867Y-54055792D01*
X96451877Y-54055786D01*
X96499241Y-54005348D01*
X96520120Y-53984470D01*
X96524373Y-53978986D01*
X96528150Y-53974563D01*
X96560062Y-53940582D01*
X96569714Y-53923023D01*
X96580389Y-53906772D01*
X96592674Y-53890936D01*
X96611186Y-53848152D01*
X96613742Y-53842935D01*
X96636197Y-53802092D01*
X96640674Y-53784652D01*
X96676412Y-53724614D01*
X96708379Y-53703105D01*
X96727824Y-53694038D01*
X96727824Y-53694037D01*
X96727830Y-53694035D01*
X96921401Y-53558495D01*
X97088495Y-53391401D01*
X97224035Y-53197830D01*
X97323903Y-52983663D01*
X97385063Y-52755408D01*
X97405659Y-52520000D01*
X97385063Y-52284592D01*
X97323903Y-52056337D01*
X97224035Y-51842171D01*
X97163326Y-51755468D01*
X97088494Y-51648597D01*
X96921402Y-51481506D01*
X96921396Y-51481501D01*
X96735842Y-51351575D01*
X96692217Y-51296998D01*
X96685023Y-51227500D01*
X96716546Y-51165145D01*
X96735842Y-51148425D01*
X96801454Y-51102483D01*
X96921401Y-51018495D01*
X97088495Y-50851401D01*
X97224035Y-50657830D01*
X97323903Y-50443663D01*
X97385063Y-50215408D01*
X97405659Y-49980000D01*
X97385063Y-49744592D01*
X97323903Y-49516337D01*
X97224035Y-49302171D01*
X97169111Y-49223730D01*
X97088494Y-49108597D01*
X96921402Y-48941506D01*
X96921396Y-48941501D01*
X96735842Y-48811575D01*
X96692217Y-48756998D01*
X96685023Y-48687500D01*
X96716546Y-48625145D01*
X96735842Y-48608425D01*
X96804056Y-48560661D01*
X96921401Y-48478495D01*
X97088495Y-48311401D01*
X97224035Y-48117830D01*
X97323903Y-47903663D01*
X97385063Y-47675408D01*
X97405659Y-47440000D01*
X97385063Y-47204592D01*
X97323903Y-46976337D01*
X97224035Y-46762171D01*
X97088495Y-46568599D01*
X96966567Y-46446671D01*
X96933084Y-46385351D01*
X96938068Y-46315659D01*
X96979939Y-46259725D01*
X97010915Y-46242810D01*
X97142331Y-46193796D01*
X97257546Y-46107546D01*
X97343796Y-45992331D01*
X97394091Y-45857483D01*
X97400500Y-45797873D01*
X97400499Y-44002128D01*
X97394091Y-43942517D01*
X97389353Y-43929815D01*
X97343797Y-43807671D01*
X97343793Y-43807664D01*
X97257547Y-43692455D01*
X97257544Y-43692452D01*
X97142335Y-43606206D01*
X97142328Y-43606202D01*
X97007482Y-43555908D01*
X97007483Y-43555908D01*
X96947883Y-43549501D01*
X96947881Y-43549500D01*
X96947873Y-43549500D01*
X96947864Y-43549500D01*
X95152129Y-43549500D01*
X95152123Y-43549501D01*
X95092516Y-43555908D01*
X94957671Y-43606202D01*
X94957664Y-43606206D01*
X94842455Y-43692452D01*
X94842452Y-43692455D01*
X94756206Y-43807664D01*
X94756202Y-43807671D01*
X94705908Y-43942517D01*
X94700974Y-43988413D01*
X94699501Y-44002123D01*
X94699500Y-44002135D01*
X94699500Y-44564546D01*
X94679815Y-44631585D01*
X94663181Y-44652227D01*
X91316208Y-47999199D01*
X91303951Y-48009020D01*
X91304134Y-48009241D01*
X91298123Y-48014213D01*
X91250772Y-48064636D01*
X91229889Y-48085519D01*
X91229877Y-48085532D01*
X91225621Y-48091017D01*
X91221837Y-48095447D01*
X91189937Y-48129418D01*
X91189936Y-48129420D01*
X91180284Y-48146976D01*
X91169610Y-48163226D01*
X91157329Y-48179061D01*
X91157324Y-48179068D01*
X91138815Y-48221838D01*
X91136245Y-48227084D01*
X91113803Y-48267906D01*
X91108822Y-48287307D01*
X91102521Y-48305710D01*
X91094562Y-48324102D01*
X91094561Y-48324106D01*
X91087271Y-48370127D01*
X91086087Y-48375846D01*
X91074499Y-48420983D01*
X91074499Y-48441019D01*
X91072973Y-48460407D01*
X91069840Y-48480192D01*
X91069840Y-48480195D01*
X91074225Y-48526583D01*
X91074500Y-48532421D01*
X91074500Y-49784940D01*
X91054815Y-49851979D01*
X91002011Y-49897734D01*
X90932853Y-49907678D01*
X90898096Y-49897322D01*
X90846502Y-49873263D01*
X90846488Y-49873258D01*
X90626697Y-49814366D01*
X90626693Y-49814365D01*
X90626692Y-49814365D01*
X90626691Y-49814364D01*
X90626686Y-49814364D01*
X90400002Y-49794532D01*
X90399998Y-49794532D01*
X90173313Y-49814364D01*
X90173302Y-49814366D01*
X89953511Y-49873258D01*
X89953502Y-49873261D01*
X89747267Y-49969431D01*
X89747265Y-49969432D01*
X89560858Y-50099954D01*
X89399954Y-50260858D01*
X89269432Y-50447265D01*
X89269431Y-50447267D01*
X89173261Y-50653502D01*
X89173258Y-50653511D01*
X89114366Y-50873302D01*
X89114364Y-50873313D01*
X89094532Y-51099998D01*
X89094532Y-51100001D01*
X89114364Y-51326686D01*
X89114366Y-51326697D01*
X89173258Y-51546488D01*
X89173261Y-51546497D01*
X89269431Y-51752732D01*
X89269432Y-51752734D01*
X89399954Y-51939141D01*
X89560858Y-52100045D01*
X89560861Y-52100047D01*
X89747266Y-52230568D01*
X89805275Y-52257618D01*
X89857714Y-52303791D01*
X89876866Y-52370984D01*
X89856650Y-52437865D01*
X89805275Y-52482382D01*
X89747267Y-52509431D01*
X89747265Y-52509432D01*
X89560858Y-52639954D01*
X89399954Y-52800858D01*
X89269432Y-52987265D01*
X89269431Y-52987267D01*
X89173261Y-53193502D01*
X89173258Y-53193511D01*
X89114366Y-53413302D01*
X89114364Y-53413313D01*
X89094532Y-53639998D01*
X89094532Y-53640001D01*
X89114364Y-53866686D01*
X89114366Y-53866697D01*
X89173258Y-54086488D01*
X89173261Y-54086497D01*
X89269431Y-54292732D01*
X89269432Y-54292734D01*
X89399954Y-54479141D01*
X89560858Y-54640045D01*
X89560861Y-54640047D01*
X89747266Y-54770568D01*
X89805275Y-54797618D01*
X89857714Y-54843791D01*
X89876866Y-54910984D01*
X89856650Y-54977865D01*
X89805275Y-55022382D01*
X89747267Y-55049431D01*
X89747265Y-55049432D01*
X89560858Y-55179954D01*
X89399954Y-55340858D01*
X89269432Y-55527265D01*
X89269431Y-55527267D01*
X89173261Y-55733502D01*
X89173258Y-55733511D01*
X89114366Y-55953302D01*
X89114364Y-55953313D01*
X89094532Y-56179998D01*
X89094532Y-56180001D01*
X89114364Y-56406686D01*
X89114366Y-56406697D01*
X89173258Y-56626488D01*
X89173261Y-56626497D01*
X89269431Y-56832732D01*
X89269432Y-56832734D01*
X89399954Y-57019141D01*
X89560858Y-57180045D01*
X89560861Y-57180047D01*
X89747266Y-57310568D01*
X89805275Y-57337618D01*
X89857714Y-57383791D01*
X89876866Y-57450984D01*
X89856650Y-57517865D01*
X89805275Y-57562382D01*
X89747267Y-57589431D01*
X89747265Y-57589432D01*
X89560858Y-57719954D01*
X89399954Y-57880858D01*
X89269432Y-58067265D01*
X89269431Y-58067267D01*
X89173261Y-58273502D01*
X89173258Y-58273511D01*
X89114366Y-58493302D01*
X89114364Y-58493313D01*
X89094532Y-58719998D01*
X89094532Y-58720001D01*
X89114364Y-58946686D01*
X89114366Y-58946697D01*
X89173258Y-59166488D01*
X89173261Y-59166497D01*
X89269431Y-59372732D01*
X89269432Y-59372734D01*
X89399954Y-59559141D01*
X89560858Y-59720045D01*
X89560861Y-59720047D01*
X89747266Y-59850568D01*
X89805275Y-59877618D01*
X89857714Y-59923791D01*
X89876866Y-59990984D01*
X89856650Y-60057865D01*
X89805275Y-60102382D01*
X89747267Y-60129431D01*
X89747265Y-60129432D01*
X89560858Y-60259954D01*
X89399954Y-60420858D01*
X89269432Y-60607265D01*
X89269431Y-60607267D01*
X89173261Y-60813502D01*
X89173258Y-60813511D01*
X89114366Y-61033302D01*
X89114364Y-61033313D01*
X89094532Y-61259998D01*
X89094532Y-61260001D01*
X89114364Y-61486686D01*
X89114366Y-61486697D01*
X89173258Y-61706488D01*
X89173261Y-61706497D01*
X89269431Y-61912732D01*
X89269432Y-61912734D01*
X89399954Y-62099141D01*
X89560858Y-62260045D01*
X89586032Y-62277672D01*
X89747266Y-62390568D01*
X89805275Y-62417618D01*
X89857714Y-62463791D01*
X89876866Y-62530984D01*
X89856650Y-62597865D01*
X89805275Y-62642382D01*
X89747267Y-62669431D01*
X89747265Y-62669432D01*
X89560858Y-62799954D01*
X89399954Y-62960858D01*
X89269432Y-63147265D01*
X89269431Y-63147267D01*
X89173261Y-63353502D01*
X89173258Y-63353511D01*
X89114366Y-63573302D01*
X89114364Y-63573313D01*
X89094532Y-63799998D01*
X89094532Y-63800001D01*
X89114364Y-64026686D01*
X89114366Y-64026697D01*
X89173258Y-64246488D01*
X89173261Y-64246497D01*
X89269431Y-64452732D01*
X89269432Y-64452734D01*
X89399954Y-64639141D01*
X89560858Y-64800045D01*
X89560861Y-64800047D01*
X89747266Y-64930568D01*
X89805278Y-64957619D01*
X89857713Y-65003788D01*
X89876866Y-65070982D01*
X89856651Y-65137863D01*
X89805277Y-65182380D01*
X89747268Y-65209430D01*
X89747265Y-65209432D01*
X89560858Y-65339954D01*
X89399954Y-65500858D01*
X89269432Y-65687265D01*
X89269431Y-65687267D01*
X89173261Y-65893502D01*
X89173258Y-65893511D01*
X89114366Y-66113302D01*
X89114364Y-66113313D01*
X89094532Y-66339998D01*
X89094532Y-66340001D01*
X89114364Y-66566686D01*
X89114366Y-66566697D01*
X89173258Y-66786488D01*
X89173261Y-66786497D01*
X89269431Y-66992732D01*
X89269432Y-66992734D01*
X89399954Y-67179141D01*
X89560858Y-67340045D01*
X89560861Y-67340047D01*
X89747266Y-67470568D01*
X89805275Y-67497618D01*
X89857714Y-67543791D01*
X89876866Y-67610984D01*
X89856650Y-67677865D01*
X89805275Y-67722382D01*
X89747267Y-67749431D01*
X89747265Y-67749432D01*
X89560858Y-67879954D01*
X89399954Y-68040858D01*
X89269432Y-68227265D01*
X89269431Y-68227267D01*
X89173261Y-68433502D01*
X89173258Y-68433511D01*
X89114366Y-68653302D01*
X89114364Y-68653313D01*
X89094532Y-68879998D01*
X89094532Y-68880001D01*
X89114364Y-69106686D01*
X89114366Y-69106697D01*
X89173258Y-69326488D01*
X89173261Y-69326497D01*
X89269431Y-69532732D01*
X89269432Y-69532734D01*
X89399954Y-69719141D01*
X89560858Y-69880045D01*
X89560861Y-69880047D01*
X89747266Y-70010568D01*
X89805275Y-70037618D01*
X89857714Y-70083791D01*
X89876866Y-70150984D01*
X89856650Y-70217865D01*
X89805275Y-70262382D01*
X89747267Y-70289431D01*
X89747265Y-70289432D01*
X89560858Y-70419954D01*
X89399954Y-70580858D01*
X89269432Y-70767265D01*
X89269431Y-70767267D01*
X89173261Y-70973502D01*
X89173258Y-70973511D01*
X89114366Y-71193302D01*
X89114364Y-71193313D01*
X89094532Y-71419998D01*
X89094532Y-71420001D01*
X89114364Y-71646686D01*
X89114366Y-71646697D01*
X89173258Y-71866488D01*
X89173261Y-71866497D01*
X89269431Y-72072732D01*
X89269432Y-72072734D01*
X89399954Y-72259141D01*
X89560858Y-72420045D01*
X89560861Y-72420047D01*
X89747266Y-72550568D01*
X89805275Y-72577618D01*
X89857714Y-72623791D01*
X89876866Y-72690984D01*
X89856650Y-72757865D01*
X89805275Y-72802382D01*
X89747267Y-72829431D01*
X89747265Y-72829432D01*
X89560858Y-72959954D01*
X89399954Y-73120858D01*
X89269432Y-73307265D01*
X89269431Y-73307267D01*
X89173261Y-73513502D01*
X89173258Y-73513511D01*
X89114366Y-73733302D01*
X89114364Y-73733313D01*
X89094532Y-73959998D01*
X89094532Y-73960001D01*
X89114364Y-74186686D01*
X89114366Y-74186697D01*
X89173258Y-74406488D01*
X89173261Y-74406497D01*
X89269431Y-74612732D01*
X89269432Y-74612734D01*
X89399954Y-74799141D01*
X89560858Y-74960045D01*
X89560861Y-74960047D01*
X89747266Y-75090568D01*
X89805275Y-75117618D01*
X89857714Y-75163791D01*
X89876866Y-75230984D01*
X89856650Y-75297865D01*
X89805275Y-75342382D01*
X89747267Y-75369431D01*
X89747265Y-75369432D01*
X89560858Y-75499954D01*
X89399954Y-75660858D01*
X89269432Y-75847265D01*
X89269431Y-75847267D01*
X89173261Y-76053502D01*
X89173258Y-76053511D01*
X89114366Y-76273302D01*
X89114364Y-76273313D01*
X89094532Y-76499998D01*
X89094532Y-76500001D01*
X89114364Y-76726686D01*
X89114366Y-76726697D01*
X89173258Y-76946488D01*
X89173261Y-76946497D01*
X89269431Y-77152732D01*
X89269432Y-77152734D01*
X89399954Y-77339141D01*
X89560858Y-77500045D01*
X89560861Y-77500047D01*
X89747266Y-77630568D01*
X89805275Y-77657618D01*
X89857714Y-77703791D01*
X89876866Y-77770984D01*
X89856650Y-77837865D01*
X89805275Y-77882382D01*
X89747267Y-77909431D01*
X89747265Y-77909432D01*
X89560858Y-78039954D01*
X89399954Y-78200858D01*
X89269432Y-78387265D01*
X89269431Y-78387267D01*
X89173261Y-78593502D01*
X89173258Y-78593511D01*
X89114366Y-78813302D01*
X89114364Y-78813313D01*
X89094532Y-79039998D01*
X89094532Y-79040001D01*
X89114364Y-79266686D01*
X89114366Y-79266697D01*
X89173258Y-79486488D01*
X89173261Y-79486497D01*
X89269431Y-79692732D01*
X89269432Y-79692734D01*
X89399954Y-79879141D01*
X89560858Y-80040045D01*
X89560861Y-80040047D01*
X89747266Y-80170568D01*
X89804681Y-80197341D01*
X89805275Y-80197618D01*
X89857714Y-80243791D01*
X89876866Y-80310984D01*
X89856650Y-80377865D01*
X89805275Y-80422382D01*
X89747267Y-80449431D01*
X89747265Y-80449432D01*
X89560858Y-80579954D01*
X89399954Y-80740858D01*
X89269432Y-80927265D01*
X89269431Y-80927267D01*
X89173261Y-81133502D01*
X89173258Y-81133511D01*
X89114366Y-81353302D01*
X89114364Y-81353313D01*
X89094532Y-81579998D01*
X89094532Y-81580001D01*
X89114364Y-81806686D01*
X89114366Y-81806697D01*
X89173258Y-82026488D01*
X89173261Y-82026497D01*
X89269431Y-82232732D01*
X89269432Y-82232734D01*
X89399954Y-82419141D01*
X89560858Y-82580045D01*
X89560861Y-82580047D01*
X89747266Y-82710568D01*
X89805865Y-82737893D01*
X89858305Y-82784065D01*
X89877457Y-82851258D01*
X89857242Y-82918139D01*
X89805867Y-82962657D01*
X89747515Y-82989867D01*
X89561179Y-83120342D01*
X89400342Y-83281179D01*
X89269865Y-83467517D01*
X89173734Y-83673673D01*
X89173730Y-83673682D01*
X89121127Y-83869999D01*
X89121128Y-83870000D01*
X89786653Y-83870000D01*
X89853692Y-83889685D01*
X89899447Y-83942489D01*
X89909391Y-84011647D01*
X89905631Y-84028933D01*
X89900000Y-84048111D01*
X89900000Y-84191888D01*
X89905631Y-84211067D01*
X89905630Y-84280936D01*
X89867855Y-84339714D01*
X89804299Y-84368738D01*
X89786653Y-84370000D01*
X89121128Y-84370000D01*
X89173730Y-84566317D01*
X89173734Y-84566326D01*
X89269865Y-84772482D01*
X89400342Y-84958820D01*
X89561179Y-85119657D01*
X89747518Y-85250134D01*
X89747520Y-85250135D01*
X89805865Y-85277342D01*
X89858305Y-85323514D01*
X89877457Y-85390707D01*
X89857242Y-85457589D01*
X89805867Y-85502105D01*
X89747268Y-85529431D01*
X89747264Y-85529433D01*
X89560858Y-85659954D01*
X89399954Y-85820858D01*
X89269432Y-86007265D01*
X89269431Y-86007267D01*
X89173261Y-86213502D01*
X89173258Y-86213511D01*
X89114366Y-86433302D01*
X89114364Y-86433313D01*
X89094532Y-86659998D01*
X89094532Y-86660001D01*
X76460500Y-86660001D01*
X76460499Y-85812128D01*
X76454091Y-85752517D01*
X76419567Y-85659954D01*
X76403797Y-85617671D01*
X76403793Y-85617664D01*
X76317547Y-85502455D01*
X76317544Y-85502452D01*
X76202335Y-85416206D01*
X76202328Y-85416202D01*
X76067482Y-85365908D01*
X76067483Y-85365908D01*
X76032404Y-85362137D01*
X75967853Y-85335399D01*
X75928005Y-85278006D01*
X75925512Y-85208181D01*
X75961165Y-85148092D01*
X75974539Y-85137272D01*
X75999140Y-85120046D01*
X76160045Y-84959141D01*
X76160044Y-84959141D01*
X76160047Y-84959139D01*
X76290568Y-84772734D01*
X76386739Y-84566496D01*
X76445635Y-84346692D01*
X76465468Y-84120000D01*
X76445635Y-83893308D01*
X76386739Y-83673504D01*
X76290568Y-83467266D01*
X76160047Y-83280861D01*
X76160045Y-83280858D01*
X75999141Y-83119954D01*
X75812734Y-82989432D01*
X75812728Y-82989429D01*
X75754725Y-82962382D01*
X75702285Y-82916210D01*
X75683133Y-82849017D01*
X75703348Y-82782135D01*
X75754725Y-82737618D01*
X75812734Y-82710568D01*
X75999139Y-82580047D01*
X76160047Y-82419139D01*
X76290568Y-82232734D01*
X76386739Y-82026496D01*
X76445635Y-81806692D01*
X76465468Y-81580000D01*
X76445635Y-81353308D01*
X76386739Y-81133504D01*
X76290568Y-80927266D01*
X76160047Y-80740861D01*
X76160045Y-80740858D01*
X75999141Y-80579954D01*
X75812734Y-80449432D01*
X75812732Y-80449431D01*
X75754725Y-80422382D01*
X75754132Y-80422105D01*
X75701694Y-80375934D01*
X75682542Y-80308740D01*
X75702758Y-80241859D01*
X75754134Y-80197341D01*
X75812484Y-80170132D01*
X75998820Y-80039657D01*
X76159657Y-79878820D01*
X76290134Y-79692482D01*
X76386265Y-79486326D01*
X76386269Y-79486317D01*
X76438872Y-79290000D01*
X75773347Y-79290000D01*
X75706308Y-79270315D01*
X75660553Y-79217511D01*
X75650609Y-79148353D01*
X75654369Y-79131067D01*
X75660000Y-79111888D01*
X75660000Y-78968111D01*
X75654369Y-78948933D01*
X75654370Y-78879064D01*
X75692145Y-78820286D01*
X75755701Y-78791262D01*
X75773347Y-78790000D01*
X76438872Y-78790000D01*
X76438872Y-78789999D01*
X76386269Y-78593682D01*
X76386265Y-78593673D01*
X76290134Y-78387517D01*
X76159657Y-78201179D01*
X75998820Y-78040342D01*
X75812482Y-77909865D01*
X75754133Y-77882657D01*
X75701694Y-77836484D01*
X75682542Y-77769291D01*
X75702758Y-77702410D01*
X75754129Y-77657895D01*
X75812734Y-77630568D01*
X75999139Y-77500047D01*
X76160047Y-77339139D01*
X76290568Y-77152734D01*
X76386739Y-76946496D01*
X76445635Y-76726692D01*
X76465468Y-76500000D01*
X76445635Y-76273308D01*
X76386739Y-76053504D01*
X76290568Y-75847266D01*
X76160047Y-75660861D01*
X76160045Y-75660858D01*
X75999141Y-75499954D01*
X75812734Y-75369432D01*
X75812728Y-75369429D01*
X75754725Y-75342382D01*
X75702285Y-75296210D01*
X75683133Y-75229017D01*
X75703348Y-75162135D01*
X75754725Y-75117618D01*
X75812734Y-75090568D01*
X75999139Y-74960047D01*
X76160047Y-74799139D01*
X76290568Y-74612734D01*
X76386739Y-74406496D01*
X76445635Y-74186692D01*
X76465468Y-73960000D01*
X76445635Y-73733308D01*
X76386739Y-73513504D01*
X76290568Y-73307266D01*
X76160047Y-73120861D01*
X76160045Y-73120858D01*
X75999141Y-72959954D01*
X75812734Y-72829432D01*
X75812728Y-72829429D01*
X75754725Y-72802382D01*
X75702285Y-72756210D01*
X75683133Y-72689017D01*
X75703348Y-72622135D01*
X75754725Y-72577618D01*
X75812734Y-72550568D01*
X75999139Y-72420047D01*
X76160047Y-72259139D01*
X76290568Y-72072734D01*
X76386739Y-71866496D01*
X76445635Y-71646692D01*
X76465468Y-71420000D01*
X76445635Y-71193308D01*
X76386739Y-70973504D01*
X76290568Y-70767266D01*
X76160047Y-70580861D01*
X76160045Y-70580858D01*
X75999141Y-70419954D01*
X75812734Y-70289432D01*
X75812728Y-70289429D01*
X75754725Y-70262382D01*
X75702285Y-70216210D01*
X75683133Y-70149017D01*
X75703348Y-70082135D01*
X75754725Y-70037618D01*
X75812734Y-70010568D01*
X75999139Y-69880047D01*
X76160047Y-69719139D01*
X76290568Y-69532734D01*
X76386739Y-69326496D01*
X76445635Y-69106692D01*
X76465468Y-68880000D01*
X76464507Y-68869021D01*
X76454757Y-68757577D01*
X76445635Y-68653308D01*
X76386739Y-68433504D01*
X76290568Y-68227266D01*
X76160047Y-68040861D01*
X76160045Y-68040858D01*
X75999141Y-67879954D01*
X75812734Y-67749432D01*
X75812728Y-67749429D01*
X75754725Y-67722382D01*
X75702285Y-67676210D01*
X75683133Y-67609017D01*
X75703348Y-67542135D01*
X75754725Y-67497618D01*
X75812734Y-67470568D01*
X75999139Y-67340047D01*
X76160047Y-67179139D01*
X76290568Y-66992734D01*
X76386739Y-66786496D01*
X76445635Y-66566692D01*
X76465468Y-66340000D01*
X76445635Y-66113308D01*
X76386739Y-65893504D01*
X76290568Y-65687266D01*
X76160047Y-65500861D01*
X76160045Y-65500858D01*
X75999141Y-65339954D01*
X75812734Y-65209432D01*
X75812728Y-65209429D01*
X75754725Y-65182382D01*
X75702285Y-65136210D01*
X75683133Y-65069017D01*
X75703348Y-65002135D01*
X75754725Y-64957618D01*
X75812734Y-64930568D01*
X75999139Y-64800047D01*
X76160047Y-64639139D01*
X76290568Y-64452734D01*
X76386739Y-64246496D01*
X76445635Y-64026692D01*
X76463009Y-63828111D01*
X76465468Y-63800001D01*
X76465468Y-63799998D01*
X76454994Y-63680286D01*
X76445635Y-63573308D01*
X76393717Y-63379547D01*
X76386741Y-63353511D01*
X76386738Y-63353502D01*
X76290568Y-63147267D01*
X76290567Y-63147265D01*
X76160045Y-62960858D01*
X75999141Y-62799954D01*
X75812734Y-62669432D01*
X75812728Y-62669429D01*
X75754725Y-62642382D01*
X75702285Y-62596210D01*
X75683133Y-62529017D01*
X75703348Y-62462135D01*
X75754725Y-62417618D01*
X75812734Y-62390568D01*
X75999139Y-62260047D01*
X76160047Y-62099139D01*
X76290568Y-61912734D01*
X76386739Y-61706496D01*
X76396633Y-61669570D01*
X76432995Y-61609913D01*
X76495841Y-61579382D01*
X76565217Y-61587676D01*
X76604088Y-61613984D01*
X81523385Y-66533281D01*
X81556870Y-66594604D01*
X81559025Y-66608000D01*
X81566110Y-66675403D01*
X81576673Y-66775909D01*
X81576674Y-66775912D01*
X81635165Y-66955930D01*
X81635168Y-66955937D01*
X81729814Y-67119869D01*
X81783183Y-67179141D01*
X81856476Y-67260541D01*
X82009612Y-67371801D01*
X82009617Y-67371804D01*
X82182539Y-67448795D01*
X82182544Y-67448797D01*
X82367701Y-67488153D01*
X82367702Y-67488153D01*
X82556991Y-67488153D01*
X82556993Y-67488153D01*
X82742150Y-67448797D01*
X82915077Y-67371804D01*
X83068218Y-67260541D01*
X83194880Y-67119869D01*
X83289526Y-66955937D01*
X83348021Y-66775909D01*
X83367807Y-66587653D01*
X83348021Y-66399397D01*
X83307026Y-66273227D01*
X83305031Y-66203386D01*
X83341111Y-66143553D01*
X83403812Y-66112725D01*
X83473227Y-66120690D01*
X83512635Y-66147226D01*
X84676804Y-67311395D01*
X85811038Y-68445629D01*
X85844523Y-68506952D01*
X85846678Y-68520348D01*
X85849436Y-68546586D01*
X85864326Y-68688256D01*
X85864327Y-68688259D01*
X85922818Y-68868277D01*
X85922821Y-68868284D01*
X86017467Y-69032216D01*
X86133049Y-69160582D01*
X86144129Y-69172888D01*
X86297265Y-69284148D01*
X86297270Y-69284151D01*
X86470192Y-69361142D01*
X86470197Y-69361144D01*
X86655354Y-69400500D01*
X86655355Y-69400500D01*
X86844644Y-69400500D01*
X86844646Y-69400500D01*
X87029803Y-69361144D01*
X87202730Y-69284151D01*
X87355871Y-69172888D01*
X87482533Y-69032216D01*
X87577179Y-68868284D01*
X87635674Y-68688256D01*
X87655460Y-68500000D01*
X87635674Y-68311744D01*
X87577179Y-68131716D01*
X87482533Y-67967784D01*
X87355871Y-67827112D01*
X87355870Y-67827111D01*
X87202734Y-67715851D01*
X87202729Y-67715848D01*
X87029807Y-67638857D01*
X87029802Y-67638855D01*
X86884001Y-67607865D01*
X86844646Y-67599500D01*
X86844645Y-67599500D01*
X86785453Y-67599500D01*
X86718414Y-67579815D01*
X86697772Y-67563181D01*
X77961819Y-58827228D01*
X77928334Y-58765905D01*
X77925500Y-58739547D01*
X77925500Y-55862742D01*
X77927224Y-55847122D01*
X77926939Y-55847096D01*
X77927671Y-55839340D01*
X77927673Y-55839333D01*
X77925500Y-55770185D01*
X77925500Y-55740650D01*
X77924631Y-55733772D01*
X77924172Y-55727943D01*
X77922709Y-55681372D01*
X77917122Y-55662144D01*
X77913174Y-55643084D01*
X77910663Y-55623204D01*
X77893512Y-55579887D01*
X77891619Y-55574358D01*
X77878618Y-55529609D01*
X77878616Y-55529606D01*
X77868423Y-55512371D01*
X77859861Y-55494894D01*
X77852487Y-55476270D01*
X77852486Y-55476268D01*
X77825079Y-55438545D01*
X77821888Y-55433686D01*
X77798172Y-55393583D01*
X77798165Y-55393574D01*
X77784006Y-55379415D01*
X77771368Y-55364619D01*
X77759594Y-55348413D01*
X77750465Y-55340861D01*
X77723688Y-55318709D01*
X77719376Y-55314786D01*
X76459413Y-54054822D01*
X76425928Y-53993499D01*
X76427319Y-53935048D01*
X76432831Y-53914477D01*
X76445635Y-53866692D01*
X76465468Y-53640000D01*
X76461968Y-53600000D01*
X76455826Y-53529795D01*
X76445635Y-53413308D01*
X76386739Y-53193504D01*
X76290568Y-52987266D01*
X76160047Y-52800861D01*
X76160045Y-52800858D01*
X75999141Y-52639954D01*
X75812734Y-52509432D01*
X75812728Y-52509429D01*
X75754725Y-52482382D01*
X75702285Y-52436210D01*
X75683133Y-52369017D01*
X75703348Y-52302135D01*
X75754725Y-52257618D01*
X75812734Y-52230568D01*
X75999139Y-52100047D01*
X76160047Y-51939139D01*
X76290568Y-51752734D01*
X76386739Y-51546496D01*
X76445635Y-51326692D01*
X76465468Y-51100000D01*
X76445635Y-50873308D01*
X76386739Y-50653504D01*
X76290568Y-50447266D01*
X76173308Y-50279800D01*
X76160045Y-50260858D01*
X75999141Y-50099954D01*
X75812734Y-49969432D01*
X75812732Y-49969431D01*
X75606497Y-49873261D01*
X75606488Y-49873258D01*
X75386697Y-49814366D01*
X75386693Y-49814365D01*
X75386692Y-49814365D01*
X75386691Y-49814364D01*
X75386686Y-49814364D01*
X75160002Y-49794532D01*
X75159998Y-49794532D01*
X74933313Y-49814364D01*
X74933302Y-49814366D01*
X74713511Y-49873258D01*
X74713502Y-49873261D01*
X74507267Y-49969431D01*
X74507265Y-49969432D01*
X74320858Y-50099954D01*
X74159954Y-50260858D01*
X74029432Y-50447265D01*
X74029431Y-50447267D01*
X73933261Y-50653502D01*
X73933258Y-50653511D01*
X73874366Y-50873302D01*
X73874364Y-50873313D01*
X73854532Y-51099998D01*
X73854532Y-51100001D01*
X73874364Y-51326686D01*
X73874366Y-51326697D01*
X73933258Y-51546488D01*
X73933261Y-51546497D01*
X74029431Y-51752732D01*
X74029432Y-51752734D01*
X74159954Y-51939141D01*
X74320858Y-52100045D01*
X74320861Y-52100047D01*
X74507266Y-52230568D01*
X74565275Y-52257618D01*
X74617714Y-52303791D01*
X74636866Y-52370984D01*
X74616650Y-52437865D01*
X74565275Y-52482382D01*
X74507267Y-52509431D01*
X74507265Y-52509432D01*
X74320858Y-52639954D01*
X74159954Y-52800858D01*
X74029432Y-52987265D01*
X74029431Y-52987267D01*
X73933261Y-53193502D01*
X73933258Y-53193511D01*
X73874366Y-53413302D01*
X73874364Y-53413313D01*
X73854532Y-53639998D01*
X73854532Y-53640001D01*
X73874364Y-53866686D01*
X73874366Y-53866697D01*
X73933258Y-54086488D01*
X73933261Y-54086497D01*
X74029431Y-54292732D01*
X74029432Y-54292734D01*
X74159954Y-54479141D01*
X74320858Y-54640045D01*
X74320861Y-54640047D01*
X74507266Y-54770568D01*
X74565275Y-54797618D01*
X74617714Y-54843791D01*
X74636866Y-54910984D01*
X74616650Y-54977865D01*
X74565275Y-55022382D01*
X74507267Y-55049431D01*
X74507265Y-55049432D01*
X74320858Y-55179954D01*
X74159954Y-55340858D01*
X74029432Y-55527265D01*
X74029431Y-55527267D01*
X73933261Y-55733502D01*
X73933258Y-55733511D01*
X73874366Y-55953302D01*
X73874364Y-55953313D01*
X73854532Y-56179998D01*
X73854532Y-56180001D01*
X73874364Y-56406686D01*
X73874366Y-56406697D01*
X73933258Y-56626488D01*
X73933261Y-56626497D01*
X74029431Y-56832732D01*
X74029432Y-56832734D01*
X74159954Y-57019141D01*
X74320858Y-57180045D01*
X74320861Y-57180047D01*
X74507266Y-57310568D01*
X74565275Y-57337618D01*
X74617714Y-57383791D01*
X74636866Y-57450984D01*
X74616650Y-57517865D01*
X74565275Y-57562382D01*
X74507267Y-57589431D01*
X74507265Y-57589432D01*
X74320858Y-57719954D01*
X74159954Y-57880858D01*
X74029432Y-58067265D01*
X74029431Y-58067267D01*
X73933261Y-58273502D01*
X73933258Y-58273511D01*
X73874366Y-58493302D01*
X73874364Y-58493313D01*
X73854532Y-58719998D01*
X73854532Y-58720001D01*
X73874364Y-58946686D01*
X73874366Y-58946697D01*
X73933258Y-59166488D01*
X73933261Y-59166497D01*
X74029431Y-59372732D01*
X74029432Y-59372734D01*
X74159954Y-59559141D01*
X74320858Y-59720045D01*
X74320861Y-59720047D01*
X74507266Y-59850568D01*
X74565275Y-59877618D01*
X74617714Y-59923791D01*
X74636866Y-59990984D01*
X74616650Y-60057865D01*
X74565275Y-60102382D01*
X74507267Y-60129431D01*
X74507265Y-60129432D01*
X74320858Y-60259954D01*
X74159954Y-60420858D01*
X74029432Y-60607265D01*
X74029431Y-60607267D01*
X73933261Y-60813502D01*
X73933258Y-60813511D01*
X73874366Y-61033302D01*
X73874364Y-61033313D01*
X73854532Y-61259998D01*
X73854532Y-61260001D01*
X73874364Y-61486686D01*
X73874366Y-61486697D01*
X73933258Y-61706488D01*
X73933261Y-61706497D01*
X74029431Y-61912732D01*
X74029432Y-61912734D01*
X74159954Y-62099141D01*
X74320858Y-62260045D01*
X74346032Y-62277672D01*
X74507266Y-62390568D01*
X74565275Y-62417618D01*
X74617714Y-62463791D01*
X74636866Y-62530984D01*
X74616650Y-62597865D01*
X74565275Y-62642382D01*
X74507267Y-62669431D01*
X74507265Y-62669432D01*
X74320858Y-62799954D01*
X74159954Y-62960858D01*
X74029432Y-63147265D01*
X74029431Y-63147267D01*
X73933261Y-63353502D01*
X73933258Y-63353511D01*
X73874366Y-63573302D01*
X73874364Y-63573313D01*
X73854532Y-63799998D01*
X73854532Y-63800001D01*
X73874364Y-64026686D01*
X73874366Y-64026697D01*
X73933258Y-64246488D01*
X73933261Y-64246497D01*
X74029431Y-64452732D01*
X74029432Y-64452734D01*
X74159954Y-64639141D01*
X74320858Y-64800045D01*
X74320861Y-64800047D01*
X74507266Y-64930568D01*
X74565278Y-64957619D01*
X74617713Y-65003788D01*
X74636866Y-65070982D01*
X74616651Y-65137863D01*
X74565277Y-65182380D01*
X74507268Y-65209430D01*
X74507265Y-65209432D01*
X74320858Y-65339954D01*
X74159954Y-65500858D01*
X74029432Y-65687265D01*
X74029431Y-65687267D01*
X73933261Y-65893502D01*
X73933258Y-65893511D01*
X73874366Y-66113302D01*
X73874364Y-66113313D01*
X73854532Y-66339998D01*
X73854532Y-66340001D01*
X73874364Y-66566686D01*
X73874366Y-66566697D01*
X73933258Y-66786488D01*
X73933261Y-66786497D01*
X74029431Y-66992732D01*
X74029432Y-66992734D01*
X74159954Y-67179141D01*
X74320858Y-67340045D01*
X74320861Y-67340047D01*
X74507266Y-67470568D01*
X74565275Y-67497618D01*
X74617714Y-67543791D01*
X74636866Y-67610984D01*
X74616650Y-67677865D01*
X74565275Y-67722382D01*
X74507267Y-67749431D01*
X74507265Y-67749432D01*
X74320858Y-67879954D01*
X74159954Y-68040858D01*
X74029432Y-68227265D01*
X74029431Y-68227267D01*
X73933261Y-68433502D01*
X73933258Y-68433511D01*
X73874366Y-68653302D01*
X73874364Y-68653313D01*
X73854532Y-68879998D01*
X73854532Y-68880001D01*
X73874364Y-69106686D01*
X73874366Y-69106697D01*
X73933258Y-69326488D01*
X73933261Y-69326497D01*
X74029431Y-69532732D01*
X74029432Y-69532734D01*
X74159954Y-69719141D01*
X74320858Y-69880045D01*
X74320861Y-69880047D01*
X74507266Y-70010568D01*
X74565275Y-70037618D01*
X74617714Y-70083791D01*
X74636866Y-70150984D01*
X74616650Y-70217865D01*
X74565275Y-70262382D01*
X74507267Y-70289431D01*
X74507265Y-70289432D01*
X74320858Y-70419954D01*
X74159954Y-70580858D01*
X74029432Y-70767265D01*
X74029431Y-70767267D01*
X73933261Y-70973502D01*
X73933258Y-70973511D01*
X73874366Y-71193302D01*
X73874364Y-71193313D01*
X73854532Y-71419998D01*
X73854532Y-71420001D01*
X73874364Y-71646686D01*
X73874366Y-71646697D01*
X73933258Y-71866488D01*
X73933261Y-71866497D01*
X74029431Y-72072732D01*
X74029432Y-72072734D01*
X74159954Y-72259141D01*
X74320858Y-72420045D01*
X74320861Y-72420047D01*
X74507266Y-72550568D01*
X74565275Y-72577618D01*
X74617714Y-72623791D01*
X74636866Y-72690984D01*
X74616650Y-72757865D01*
X74565275Y-72802382D01*
X74507267Y-72829431D01*
X74507265Y-72829432D01*
X74320858Y-72959954D01*
X74159954Y-73120858D01*
X74029432Y-73307265D01*
X74029431Y-73307267D01*
X73933261Y-73513502D01*
X73933258Y-73513511D01*
X73874366Y-73733302D01*
X73874364Y-73733313D01*
X73854532Y-73959998D01*
X73854532Y-73960001D01*
X73874364Y-74186686D01*
X73874366Y-74186697D01*
X73933258Y-74406488D01*
X73933261Y-74406497D01*
X74029431Y-74612732D01*
X74029432Y-74612734D01*
X74159954Y-74799141D01*
X74320858Y-74960045D01*
X74320861Y-74960047D01*
X74507266Y-75090568D01*
X74565275Y-75117618D01*
X74617714Y-75163791D01*
X74636866Y-75230984D01*
X74616650Y-75297865D01*
X74565275Y-75342382D01*
X74507267Y-75369431D01*
X74507265Y-75369432D01*
X74320858Y-75499954D01*
X74159954Y-75660858D01*
X74029432Y-75847265D01*
X74029431Y-75847267D01*
X73933261Y-76053502D01*
X73933258Y-76053511D01*
X73874366Y-76273302D01*
X73874364Y-76273313D01*
X73854532Y-76499998D01*
X73854532Y-76500001D01*
X73874364Y-76726686D01*
X73874366Y-76726697D01*
X73933258Y-76946488D01*
X73933261Y-76946497D01*
X74029431Y-77152732D01*
X74029432Y-77152734D01*
X74159954Y-77339141D01*
X74320858Y-77500045D01*
X74320861Y-77500047D01*
X74507266Y-77630568D01*
X74565865Y-77657893D01*
X74618305Y-77704065D01*
X74637457Y-77771258D01*
X74617242Y-77838139D01*
X74565867Y-77882657D01*
X74507515Y-77909867D01*
X74321179Y-78040342D01*
X74160342Y-78201179D01*
X74029865Y-78387517D01*
X73933734Y-78593673D01*
X73933730Y-78593682D01*
X73881127Y-78789999D01*
X73881128Y-78790000D01*
X74546653Y-78790000D01*
X74613692Y-78809685D01*
X74659447Y-78862489D01*
X74669391Y-78931647D01*
X74665631Y-78948933D01*
X74660000Y-78968111D01*
X74660000Y-79111888D01*
X74665631Y-79131067D01*
X74665630Y-79200936D01*
X74627855Y-79259714D01*
X74564299Y-79288738D01*
X74546653Y-79290000D01*
X73881128Y-79290000D01*
X73933730Y-79486317D01*
X73933734Y-79486326D01*
X74029865Y-79692482D01*
X74160342Y-79878820D01*
X74321179Y-80039657D01*
X74507518Y-80170134D01*
X74507520Y-80170135D01*
X74565865Y-80197342D01*
X74618305Y-80243514D01*
X74637457Y-80310707D01*
X74617242Y-80377589D01*
X74565867Y-80422105D01*
X74507268Y-80449431D01*
X74507264Y-80449433D01*
X74320858Y-80579954D01*
X74159954Y-80740858D01*
X74029432Y-80927265D01*
X74029431Y-80927267D01*
X73933261Y-81133502D01*
X73933258Y-81133511D01*
X73874366Y-81353302D01*
X73874364Y-81353313D01*
X73854532Y-81579998D01*
X73854532Y-81580001D01*
X73874364Y-81806686D01*
X73874366Y-81806697D01*
X73933258Y-82026488D01*
X73933261Y-82026497D01*
X74029431Y-82232732D01*
X74029432Y-82232734D01*
X74159954Y-82419141D01*
X74320858Y-82580045D01*
X74320861Y-82580047D01*
X74507266Y-82710568D01*
X74565275Y-82737618D01*
X74617714Y-82783791D01*
X74636866Y-82850984D01*
X74616650Y-82917865D01*
X74565275Y-82962382D01*
X74507267Y-82989431D01*
X74507265Y-82989432D01*
X74320858Y-83119954D01*
X74159954Y-83280858D01*
X74029432Y-83467265D01*
X74029431Y-83467267D01*
X73933261Y-83673502D01*
X73933258Y-83673511D01*
X73874366Y-83893302D01*
X73874364Y-83893313D01*
X73854532Y-84119998D01*
X73854532Y-84120001D01*
X71920821Y-84120001D01*
X72000378Y-39567763D01*
X76545787Y-39567763D01*
X76575413Y-39837013D01*
X76575415Y-39837024D01*
X76643926Y-40099082D01*
X76643928Y-40099088D01*
X76749870Y-40348390D01*
X76821998Y-40466575D01*
X76890979Y-40579605D01*
X76890986Y-40579615D01*
X77064253Y-40787819D01*
X77064259Y-40787824D01*
X77265998Y-40968582D01*
X77491910Y-41118044D01*
X77737176Y-41233020D01*
X77737183Y-41233022D01*
X77737185Y-41233023D01*
X77996557Y-41311057D01*
X77996564Y-41311058D01*
X77996569Y-41311060D01*
X78264561Y-41350500D01*
X78264566Y-41350500D01*
X78467636Y-41350500D01*
X78519133Y-41346730D01*
X78670156Y-41335677D01*
X78782758Y-41310593D01*
X78934546Y-41276782D01*
X78934548Y-41276781D01*
X78934553Y-41276780D01*
X79187558Y-41180014D01*
X79423777Y-41047441D01*
X79638177Y-40881888D01*
X79826186Y-40686881D01*
X79983799Y-40466579D01*
X80057787Y-40322669D01*
X80107649Y-40225690D01*
X80107651Y-40225684D01*
X80107656Y-40225675D01*
X80195118Y-39969305D01*
X80244319Y-39702933D01*
X80249259Y-39567763D01*
X104745787Y-39567763D01*
X104775413Y-39837013D01*
X104775415Y-39837024D01*
X104843926Y-40099082D01*
X104843928Y-40099088D01*
X104949870Y-40348390D01*
X105021998Y-40466575D01*
X105090979Y-40579605D01*
X105090986Y-40579615D01*
X105264253Y-40787819D01*
X105264259Y-40787824D01*
X105465998Y-40968582D01*
X105691910Y-41118044D01*
X105937176Y-41233020D01*
X105937183Y-41233022D01*
X105937185Y-41233023D01*
X106196557Y-41311057D01*
X106196564Y-41311058D01*
X106196569Y-41311060D01*
X106464561Y-41350500D01*
X106464566Y-41350500D01*
X106667636Y-41350500D01*
X106719133Y-41346730D01*
X106870156Y-41335677D01*
X106982758Y-41310593D01*
X107134546Y-41276782D01*
X107134548Y-41276781D01*
X107134553Y-41276780D01*
X107387558Y-41180014D01*
X107623777Y-41047441D01*
X107838177Y-40881888D01*
X108026186Y-40686881D01*
X108183799Y-40466579D01*
X108257787Y-40322669D01*
X108307649Y-40225690D01*
X108307651Y-40225684D01*
X108307656Y-40225675D01*
X108395118Y-39969305D01*
X108444319Y-39702933D01*
X108454212Y-39432235D01*
X108424586Y-39162982D01*
X108356072Y-38900912D01*
X108250130Y-38651610D01*
X108109018Y-38420390D01*
X108019747Y-38313119D01*
X107935746Y-38212180D01*
X107935740Y-38212175D01*
X107734002Y-38031418D01*
X107508092Y-37881957D01*
X107508090Y-37881956D01*
X107262824Y-37766980D01*
X107262819Y-37766978D01*
X107262814Y-37766976D01*
X107003442Y-37688942D01*
X107003428Y-37688939D01*
X106887791Y-37671921D01*
X106735439Y-37649500D01*
X106532369Y-37649500D01*
X106532364Y-37649500D01*
X106329844Y-37664323D01*
X106329831Y-37664325D01*
X106065453Y-37723217D01*
X106065446Y-37723220D01*
X105812439Y-37819987D01*
X105576226Y-37952557D01*
X105361822Y-38118112D01*
X105173822Y-38313109D01*
X105173816Y-38313116D01*
X105016202Y-38533419D01*
X105016199Y-38533424D01*
X104892350Y-38774309D01*
X104892343Y-38774327D01*
X104804884Y-39030685D01*
X104804881Y-39030699D01*
X104755681Y-39297068D01*
X104755680Y-39297075D01*
X104745787Y-39567763D01*
X80249259Y-39567763D01*
X80254212Y-39432235D01*
X80224586Y-39162982D01*
X80156072Y-38900912D01*
X80050130Y-38651610D01*
X79909018Y-38420390D01*
X79819747Y-38313119D01*
X79735746Y-38212180D01*
X79735740Y-38212175D01*
X79534002Y-38031418D01*
X79308092Y-37881957D01*
X79308090Y-37881956D01*
X79062824Y-37766980D01*
X79062819Y-37766978D01*
X79062814Y-37766976D01*
X78803442Y-37688942D01*
X78803428Y-37688939D01*
X78687791Y-37671921D01*
X78535439Y-37649500D01*
X78332369Y-37649500D01*
X78332364Y-37649500D01*
X78129844Y-37664323D01*
X78129831Y-37664325D01*
X77865453Y-37723217D01*
X77865446Y-37723220D01*
X77612439Y-37819987D01*
X77376226Y-37952557D01*
X77161822Y-38118112D01*
X76973822Y-38313109D01*
X76973816Y-38313116D01*
X76816202Y-38533419D01*
X76816199Y-38533424D01*
X76692350Y-38774309D01*
X76692343Y-38774327D01*
X76604884Y-39030685D01*
X76604881Y-39030699D01*
X76555681Y-39297068D01*
X76555680Y-39297075D01*
X76545787Y-39567763D01*
X72000378Y-39567763D01*
X72000407Y-39551731D01*
X72000500Y-39551418D01*
X72000500Y-39500000D01*
X72010487Y-39233083D01*
X72013241Y-39162986D01*
X72018914Y-39018581D01*
X72019251Y-39014151D01*
X72048009Y-38758923D01*
X72074956Y-38531248D01*
X72075602Y-38527045D01*
X72122840Y-38277382D01*
X72168153Y-38049584D01*
X72169045Y-38045761D01*
X72234526Y-37801382D01*
X72256571Y-37723220D01*
X72297912Y-37576630D01*
X72299050Y-37573022D01*
X72382438Y-37334712D01*
X72463529Y-37114909D01*
X72464845Y-37111639D01*
X72565668Y-36880551D01*
X72663971Y-36667315D01*
X72665423Y-36664378D01*
X72783174Y-36441580D01*
X72898104Y-36236360D01*
X72899633Y-36233783D01*
X73033682Y-36020446D01*
X73164490Y-35824678D01*
X73166098Y-35822389D01*
X73315723Y-35619654D01*
X73462410Y-35433585D01*
X73627640Y-35241584D01*
X73788479Y-35067590D01*
X73967590Y-34888479D01*
X74141584Y-34727640D01*
X74333589Y-34562405D01*
X74519654Y-34415723D01*
X74722389Y-34266098D01*
X74724678Y-34264490D01*
X74920458Y-34133675D01*
X75133783Y-33999633D01*
X75136360Y-33998104D01*
X75341567Y-33883181D01*
X75564378Y-33765423D01*
X75567315Y-33763971D01*
X75780511Y-33665685D01*
X76011639Y-33564845D01*
X76014909Y-33563529D01*
X76234712Y-33482438D01*
X76473021Y-33399050D01*
X76476633Y-33397912D01*
X76701347Y-33334535D01*
X76945761Y-33269045D01*
X76949584Y-33268153D01*
X77177382Y-33222840D01*
X77427045Y-33175602D01*
X77431248Y-33174956D01*
X77658793Y-33148023D01*
X77914151Y-33119251D01*
X77918581Y-33118914D01*
X78132724Y-33110500D01*
X78400000Y-33100500D01*
X78400500Y-33100500D01*
X106599500Y-33100500D01*
X106600000Y-33100500D01*
X106867139Y-33110495D01*
G37*
%TD.AperFunction*%
%TD*%
M02*
