%TF.GenerationSoftware,KiCad,Pcbnew,7.0.7*%
%TF.CreationDate,2023-10-16T17:56:00+02:00*%
%TF.ProjectId,arduino-nano-radio-transmitter,61726475-696e-46f2-9d6e-616e6f2d7261,0*%
%TF.SameCoordinates,Original*%
%TF.FileFunction,Legend,Top*%
%TF.FilePolarity,Positive*%
%FSLAX46Y46*%
G04 Gerber Fmt 4.6, Leading zero omitted, Abs format (unit mm)*
G04 Created by KiCad (PCBNEW 7.0.7) date 2023-10-16 17:56:00*
%MOMM*%
%LPD*%
G01*
G04 APERTURE LIST*
%ADD10C,0.150000*%
%ADD11C,0.120000*%
G04 APERTURE END LIST*
D10*
X100536779Y-92069819D02*
X100536779Y-91069819D01*
X100536779Y-91069819D02*
X101108207Y-92069819D01*
X101108207Y-92069819D02*
X101108207Y-91069819D01*
X102155826Y-92069819D02*
X101822493Y-91593628D01*
X101584398Y-92069819D02*
X101584398Y-91069819D01*
X101584398Y-91069819D02*
X101965350Y-91069819D01*
X101965350Y-91069819D02*
X102060588Y-91117438D01*
X102060588Y-91117438D02*
X102108207Y-91165057D01*
X102108207Y-91165057D02*
X102155826Y-91260295D01*
X102155826Y-91260295D02*
X102155826Y-91403152D01*
X102155826Y-91403152D02*
X102108207Y-91498390D01*
X102108207Y-91498390D02*
X102060588Y-91546009D01*
X102060588Y-91546009D02*
X101965350Y-91593628D01*
X101965350Y-91593628D02*
X101584398Y-91593628D01*
X102917731Y-91546009D02*
X102584398Y-91546009D01*
X102584398Y-92069819D02*
X102584398Y-91069819D01*
X102584398Y-91069819D02*
X103060588Y-91069819D01*
X103393922Y-91165057D02*
X103441541Y-91117438D01*
X103441541Y-91117438D02*
X103536779Y-91069819D01*
X103536779Y-91069819D02*
X103774874Y-91069819D01*
X103774874Y-91069819D02*
X103870112Y-91117438D01*
X103870112Y-91117438D02*
X103917731Y-91165057D01*
X103917731Y-91165057D02*
X103965350Y-91260295D01*
X103965350Y-91260295D02*
X103965350Y-91355533D01*
X103965350Y-91355533D02*
X103917731Y-91498390D01*
X103917731Y-91498390D02*
X103346303Y-92069819D01*
X103346303Y-92069819D02*
X103965350Y-92069819D01*
X104822493Y-91403152D02*
X104822493Y-92069819D01*
X104584398Y-91022200D02*
X104346303Y-91736485D01*
X104346303Y-91736485D02*
X104965350Y-91736485D01*
X78674874Y-35903152D02*
X78674874Y-34474580D01*
X79341541Y-35284104D02*
X79817731Y-35284104D01*
X79246303Y-35569819D02*
X79579636Y-34569819D01*
X79579636Y-34569819D02*
X79912969Y-35569819D01*
X80817731Y-35569819D02*
X80484398Y-35093628D01*
X80246303Y-35569819D02*
X80246303Y-34569819D01*
X80246303Y-34569819D02*
X80627255Y-34569819D01*
X80627255Y-34569819D02*
X80722493Y-34617438D01*
X80722493Y-34617438D02*
X80770112Y-34665057D01*
X80770112Y-34665057D02*
X80817731Y-34760295D01*
X80817731Y-34760295D02*
X80817731Y-34903152D01*
X80817731Y-34903152D02*
X80770112Y-34998390D01*
X80770112Y-34998390D02*
X80722493Y-35046009D01*
X80722493Y-35046009D02*
X80627255Y-35093628D01*
X80627255Y-35093628D02*
X80246303Y-35093628D01*
X81246303Y-35569819D02*
X81246303Y-34569819D01*
X81246303Y-34569819D02*
X81484398Y-34569819D01*
X81484398Y-34569819D02*
X81627255Y-34617438D01*
X81627255Y-34617438D02*
X81722493Y-34712676D01*
X81722493Y-34712676D02*
X81770112Y-34807914D01*
X81770112Y-34807914D02*
X81817731Y-34998390D01*
X81817731Y-34998390D02*
X81817731Y-35141247D01*
X81817731Y-35141247D02*
X81770112Y-35331723D01*
X81770112Y-35331723D02*
X81722493Y-35426961D01*
X81722493Y-35426961D02*
X81627255Y-35522200D01*
X81627255Y-35522200D02*
X81484398Y-35569819D01*
X81484398Y-35569819D02*
X81246303Y-35569819D01*
X82246303Y-34569819D02*
X82246303Y-35379342D01*
X82246303Y-35379342D02*
X82293922Y-35474580D01*
X82293922Y-35474580D02*
X82341541Y-35522200D01*
X82341541Y-35522200D02*
X82436779Y-35569819D01*
X82436779Y-35569819D02*
X82627255Y-35569819D01*
X82627255Y-35569819D02*
X82722493Y-35522200D01*
X82722493Y-35522200D02*
X82770112Y-35474580D01*
X82770112Y-35474580D02*
X82817731Y-35379342D01*
X82817731Y-35379342D02*
X82817731Y-34569819D01*
X83293922Y-35569819D02*
X83293922Y-34569819D01*
X83770112Y-35569819D02*
X83770112Y-34569819D01*
X83770112Y-34569819D02*
X84341540Y-35569819D01*
X84341540Y-35569819D02*
X84341540Y-34569819D01*
X85008207Y-34569819D02*
X85198683Y-34569819D01*
X85198683Y-34569819D02*
X85293921Y-34617438D01*
X85293921Y-34617438D02*
X85389159Y-34712676D01*
X85389159Y-34712676D02*
X85436778Y-34903152D01*
X85436778Y-34903152D02*
X85436778Y-35236485D01*
X85436778Y-35236485D02*
X85389159Y-35426961D01*
X85389159Y-35426961D02*
X85293921Y-35522200D01*
X85293921Y-35522200D02*
X85198683Y-35569819D01*
X85198683Y-35569819D02*
X85008207Y-35569819D01*
X85008207Y-35569819D02*
X84912969Y-35522200D01*
X84912969Y-35522200D02*
X84817731Y-35426961D01*
X84817731Y-35426961D02*
X84770112Y-35236485D01*
X84770112Y-35236485D02*
X84770112Y-34903152D01*
X84770112Y-34903152D02*
X84817731Y-34712676D01*
X84817731Y-34712676D02*
X84912969Y-34617438D01*
X84912969Y-34617438D02*
X85008207Y-34569819D01*
X86627255Y-35569819D02*
X86627255Y-34569819D01*
X86627255Y-34569819D02*
X87198683Y-35569819D01*
X87198683Y-35569819D02*
X87198683Y-34569819D01*
X87627255Y-35284104D02*
X88103445Y-35284104D01*
X87532017Y-35569819D02*
X87865350Y-34569819D01*
X87865350Y-34569819D02*
X88198683Y-35569819D01*
X88532017Y-35569819D02*
X88532017Y-34569819D01*
X88532017Y-34569819D02*
X89103445Y-35569819D01*
X89103445Y-35569819D02*
X89103445Y-34569819D01*
X89770112Y-34569819D02*
X89960588Y-34569819D01*
X89960588Y-34569819D02*
X90055826Y-34617438D01*
X90055826Y-34617438D02*
X90151064Y-34712676D01*
X90151064Y-34712676D02*
X90198683Y-34903152D01*
X90198683Y-34903152D02*
X90198683Y-35236485D01*
X90198683Y-35236485D02*
X90151064Y-35426961D01*
X90151064Y-35426961D02*
X90055826Y-35522200D01*
X90055826Y-35522200D02*
X89960588Y-35569819D01*
X89960588Y-35569819D02*
X89770112Y-35569819D01*
X89770112Y-35569819D02*
X89674874Y-35522200D01*
X89674874Y-35522200D02*
X89579636Y-35426961D01*
X89579636Y-35426961D02*
X89532017Y-35236485D01*
X89532017Y-35236485D02*
X89532017Y-34903152D01*
X89532017Y-34903152D02*
X89579636Y-34712676D01*
X89579636Y-34712676D02*
X89674874Y-34617438D01*
X89674874Y-34617438D02*
X89770112Y-34569819D01*
X91960588Y-35569819D02*
X91627255Y-35093628D01*
X91389160Y-35569819D02*
X91389160Y-34569819D01*
X91389160Y-34569819D02*
X91770112Y-34569819D01*
X91770112Y-34569819D02*
X91865350Y-34617438D01*
X91865350Y-34617438D02*
X91912969Y-34665057D01*
X91912969Y-34665057D02*
X91960588Y-34760295D01*
X91960588Y-34760295D02*
X91960588Y-34903152D01*
X91960588Y-34903152D02*
X91912969Y-34998390D01*
X91912969Y-34998390D02*
X91865350Y-35046009D01*
X91865350Y-35046009D02*
X91770112Y-35093628D01*
X91770112Y-35093628D02*
X91389160Y-35093628D01*
X92341541Y-35284104D02*
X92817731Y-35284104D01*
X92246303Y-35569819D02*
X92579636Y-34569819D01*
X92579636Y-34569819D02*
X92912969Y-35569819D01*
X93246303Y-35569819D02*
X93246303Y-34569819D01*
X93246303Y-34569819D02*
X93484398Y-34569819D01*
X93484398Y-34569819D02*
X93627255Y-34617438D01*
X93627255Y-34617438D02*
X93722493Y-34712676D01*
X93722493Y-34712676D02*
X93770112Y-34807914D01*
X93770112Y-34807914D02*
X93817731Y-34998390D01*
X93817731Y-34998390D02*
X93817731Y-35141247D01*
X93817731Y-35141247D02*
X93770112Y-35331723D01*
X93770112Y-35331723D02*
X93722493Y-35426961D01*
X93722493Y-35426961D02*
X93627255Y-35522200D01*
X93627255Y-35522200D02*
X93484398Y-35569819D01*
X93484398Y-35569819D02*
X93246303Y-35569819D01*
X94246303Y-35569819D02*
X94246303Y-34569819D01*
X94912969Y-34569819D02*
X95103445Y-34569819D01*
X95103445Y-34569819D02*
X95198683Y-34617438D01*
X95198683Y-34617438D02*
X95293921Y-34712676D01*
X95293921Y-34712676D02*
X95341540Y-34903152D01*
X95341540Y-34903152D02*
X95341540Y-35236485D01*
X95341540Y-35236485D02*
X95293921Y-35426961D01*
X95293921Y-35426961D02*
X95198683Y-35522200D01*
X95198683Y-35522200D02*
X95103445Y-35569819D01*
X95103445Y-35569819D02*
X94912969Y-35569819D01*
X94912969Y-35569819D02*
X94817731Y-35522200D01*
X94817731Y-35522200D02*
X94722493Y-35426961D01*
X94722493Y-35426961D02*
X94674874Y-35236485D01*
X94674874Y-35236485D02*
X94674874Y-34903152D01*
X94674874Y-34903152D02*
X94722493Y-34712676D01*
X94722493Y-34712676D02*
X94817731Y-34617438D01*
X94817731Y-34617438D02*
X94912969Y-34569819D01*
X96389160Y-34569819D02*
X96960588Y-34569819D01*
X96674874Y-35569819D02*
X96674874Y-34569819D01*
X97865350Y-35569819D02*
X97532017Y-35093628D01*
X97293922Y-35569819D02*
X97293922Y-34569819D01*
X97293922Y-34569819D02*
X97674874Y-34569819D01*
X97674874Y-34569819D02*
X97770112Y-34617438D01*
X97770112Y-34617438D02*
X97817731Y-34665057D01*
X97817731Y-34665057D02*
X97865350Y-34760295D01*
X97865350Y-34760295D02*
X97865350Y-34903152D01*
X97865350Y-34903152D02*
X97817731Y-34998390D01*
X97817731Y-34998390D02*
X97770112Y-35046009D01*
X97770112Y-35046009D02*
X97674874Y-35093628D01*
X97674874Y-35093628D02*
X97293922Y-35093628D01*
X98246303Y-35284104D02*
X98722493Y-35284104D01*
X98151065Y-35569819D02*
X98484398Y-34569819D01*
X98484398Y-34569819D02*
X98817731Y-35569819D01*
X99151065Y-35569819D02*
X99151065Y-34569819D01*
X99151065Y-34569819D02*
X99722493Y-35569819D01*
X99722493Y-35569819D02*
X99722493Y-34569819D01*
X100151065Y-35522200D02*
X100293922Y-35569819D01*
X100293922Y-35569819D02*
X100532017Y-35569819D01*
X100532017Y-35569819D02*
X100627255Y-35522200D01*
X100627255Y-35522200D02*
X100674874Y-35474580D01*
X100674874Y-35474580D02*
X100722493Y-35379342D01*
X100722493Y-35379342D02*
X100722493Y-35284104D01*
X100722493Y-35284104D02*
X100674874Y-35188866D01*
X100674874Y-35188866D02*
X100627255Y-35141247D01*
X100627255Y-35141247D02*
X100532017Y-35093628D01*
X100532017Y-35093628D02*
X100341541Y-35046009D01*
X100341541Y-35046009D02*
X100246303Y-34998390D01*
X100246303Y-34998390D02*
X100198684Y-34950771D01*
X100198684Y-34950771D02*
X100151065Y-34855533D01*
X100151065Y-34855533D02*
X100151065Y-34760295D01*
X100151065Y-34760295D02*
X100198684Y-34665057D01*
X100198684Y-34665057D02*
X100246303Y-34617438D01*
X100246303Y-34617438D02*
X100341541Y-34569819D01*
X100341541Y-34569819D02*
X100579636Y-34569819D01*
X100579636Y-34569819D02*
X100722493Y-34617438D01*
X101151065Y-35569819D02*
X101151065Y-34569819D01*
X101151065Y-34569819D02*
X101484398Y-35284104D01*
X101484398Y-35284104D02*
X101817731Y-34569819D01*
X101817731Y-34569819D02*
X101817731Y-35569819D01*
X102293922Y-35569819D02*
X102293922Y-34569819D01*
X102627255Y-34569819D02*
X103198683Y-34569819D01*
X102912969Y-35569819D02*
X102912969Y-34569819D01*
X103389160Y-34569819D02*
X103960588Y-34569819D01*
X103674874Y-35569819D02*
X103674874Y-34569819D01*
X104293922Y-35046009D02*
X104627255Y-35046009D01*
X104770112Y-35569819D02*
X104293922Y-35569819D01*
X104293922Y-35569819D02*
X104293922Y-34569819D01*
X104293922Y-34569819D02*
X104770112Y-34569819D01*
X105770112Y-35569819D02*
X105436779Y-35093628D01*
X105198684Y-35569819D02*
X105198684Y-34569819D01*
X105198684Y-34569819D02*
X105579636Y-34569819D01*
X105579636Y-34569819D02*
X105674874Y-34617438D01*
X105674874Y-34617438D02*
X105722493Y-34665057D01*
X105722493Y-34665057D02*
X105770112Y-34760295D01*
X105770112Y-34760295D02*
X105770112Y-34903152D01*
X105770112Y-34903152D02*
X105722493Y-34998390D01*
X105722493Y-34998390D02*
X105674874Y-35046009D01*
X105674874Y-35046009D02*
X105579636Y-35093628D01*
X105579636Y-35093628D02*
X105198684Y-35093628D01*
X106436779Y-35903152D02*
X106436779Y-34474580D01*
X81289160Y-91684104D02*
X81765350Y-91684104D01*
X81193922Y-91969819D02*
X81527255Y-90969819D01*
X81527255Y-90969819D02*
X81860588Y-91969819D01*
X82765350Y-91969819D02*
X82432017Y-91493628D01*
X82193922Y-91969819D02*
X82193922Y-90969819D01*
X82193922Y-90969819D02*
X82574874Y-90969819D01*
X82574874Y-90969819D02*
X82670112Y-91017438D01*
X82670112Y-91017438D02*
X82717731Y-91065057D01*
X82717731Y-91065057D02*
X82765350Y-91160295D01*
X82765350Y-91160295D02*
X82765350Y-91303152D01*
X82765350Y-91303152D02*
X82717731Y-91398390D01*
X82717731Y-91398390D02*
X82670112Y-91446009D01*
X82670112Y-91446009D02*
X82574874Y-91493628D01*
X82574874Y-91493628D02*
X82193922Y-91493628D01*
X83193922Y-91969819D02*
X83193922Y-90969819D01*
X83193922Y-90969819D02*
X83432017Y-90969819D01*
X83432017Y-90969819D02*
X83574874Y-91017438D01*
X83574874Y-91017438D02*
X83670112Y-91112676D01*
X83670112Y-91112676D02*
X83717731Y-91207914D01*
X83717731Y-91207914D02*
X83765350Y-91398390D01*
X83765350Y-91398390D02*
X83765350Y-91541247D01*
X83765350Y-91541247D02*
X83717731Y-91731723D01*
X83717731Y-91731723D02*
X83670112Y-91826961D01*
X83670112Y-91826961D02*
X83574874Y-91922200D01*
X83574874Y-91922200D02*
X83432017Y-91969819D01*
X83432017Y-91969819D02*
X83193922Y-91969819D01*
X84193922Y-90969819D02*
X84193922Y-91779342D01*
X84193922Y-91779342D02*
X84241541Y-91874580D01*
X84241541Y-91874580D02*
X84289160Y-91922200D01*
X84289160Y-91922200D02*
X84384398Y-91969819D01*
X84384398Y-91969819D02*
X84574874Y-91969819D01*
X84574874Y-91969819D02*
X84670112Y-91922200D01*
X84670112Y-91922200D02*
X84717731Y-91874580D01*
X84717731Y-91874580D02*
X84765350Y-91779342D01*
X84765350Y-91779342D02*
X84765350Y-90969819D01*
X85241541Y-91969819D02*
X85241541Y-90969819D01*
X85717731Y-91969819D02*
X85717731Y-90969819D01*
X85717731Y-90969819D02*
X86289159Y-91969819D01*
X86289159Y-91969819D02*
X86289159Y-90969819D01*
X86955826Y-90969819D02*
X87146302Y-90969819D01*
X87146302Y-90969819D02*
X87241540Y-91017438D01*
X87241540Y-91017438D02*
X87336778Y-91112676D01*
X87336778Y-91112676D02*
X87384397Y-91303152D01*
X87384397Y-91303152D02*
X87384397Y-91636485D01*
X87384397Y-91636485D02*
X87336778Y-91826961D01*
X87336778Y-91826961D02*
X87241540Y-91922200D01*
X87241540Y-91922200D02*
X87146302Y-91969819D01*
X87146302Y-91969819D02*
X86955826Y-91969819D01*
X86955826Y-91969819D02*
X86860588Y-91922200D01*
X86860588Y-91922200D02*
X86765350Y-91826961D01*
X86765350Y-91826961D02*
X86717731Y-91636485D01*
X86717731Y-91636485D02*
X86717731Y-91303152D01*
X86717731Y-91303152D02*
X86765350Y-91112676D01*
X86765350Y-91112676D02*
X86860588Y-91017438D01*
X86860588Y-91017438D02*
X86955826Y-90969819D01*
X107064285Y-42501009D02*
X107207142Y-42548628D01*
X107207142Y-42548628D02*
X107254761Y-42596247D01*
X107254761Y-42596247D02*
X107302380Y-42691485D01*
X107302380Y-42691485D02*
X107302380Y-42834342D01*
X107302380Y-42834342D02*
X107254761Y-42929580D01*
X107254761Y-42929580D02*
X107207142Y-42977200D01*
X107207142Y-42977200D02*
X107111904Y-43024819D01*
X107111904Y-43024819D02*
X106730952Y-43024819D01*
X106730952Y-43024819D02*
X106730952Y-42024819D01*
X106730952Y-42024819D02*
X107064285Y-42024819D01*
X107064285Y-42024819D02*
X107159523Y-42072438D01*
X107159523Y-42072438D02*
X107207142Y-42120057D01*
X107207142Y-42120057D02*
X107254761Y-42215295D01*
X107254761Y-42215295D02*
X107254761Y-42310533D01*
X107254761Y-42310533D02*
X107207142Y-42405771D01*
X107207142Y-42405771D02*
X107159523Y-42453390D01*
X107159523Y-42453390D02*
X107064285Y-42501009D01*
X107064285Y-42501009D02*
X106730952Y-42501009D01*
X107588095Y-42024819D02*
X108159523Y-42024819D01*
X107873809Y-43024819D02*
X107873809Y-42024819D01*
X109016666Y-43024819D02*
X108445238Y-43024819D01*
X108730952Y-43024819D02*
X108730952Y-42024819D01*
X108730952Y-42024819D02*
X108635714Y-42167676D01*
X108635714Y-42167676D02*
X108540476Y-42262914D01*
X108540476Y-42262914D02*
X108445238Y-42310533D01*
X95716666Y-42024819D02*
X95716666Y-42739104D01*
X95716666Y-42739104D02*
X95669047Y-42881961D01*
X95669047Y-42881961D02*
X95573809Y-42977200D01*
X95573809Y-42977200D02*
X95430952Y-43024819D01*
X95430952Y-43024819D02*
X95335714Y-43024819D01*
X96716666Y-43024819D02*
X96145238Y-43024819D01*
X96430952Y-43024819D02*
X96430952Y-42024819D01*
X96430952Y-42024819D02*
X96335714Y-42167676D01*
X96335714Y-42167676D02*
X96240476Y-42262914D01*
X96240476Y-42262914D02*
X96145238Y-42310533D01*
X107733333Y-48759580D02*
X107685714Y-48807200D01*
X107685714Y-48807200D02*
X107542857Y-48854819D01*
X107542857Y-48854819D02*
X107447619Y-48854819D01*
X107447619Y-48854819D02*
X107304762Y-48807200D01*
X107304762Y-48807200D02*
X107209524Y-48711961D01*
X107209524Y-48711961D02*
X107161905Y-48616723D01*
X107161905Y-48616723D02*
X107114286Y-48426247D01*
X107114286Y-48426247D02*
X107114286Y-48283390D01*
X107114286Y-48283390D02*
X107161905Y-48092914D01*
X107161905Y-48092914D02*
X107209524Y-47997676D01*
X107209524Y-47997676D02*
X107304762Y-47902438D01*
X107304762Y-47902438D02*
X107447619Y-47854819D01*
X107447619Y-47854819D02*
X107542857Y-47854819D01*
X107542857Y-47854819D02*
X107685714Y-47902438D01*
X107685714Y-47902438D02*
X107733333Y-47950057D01*
X108066667Y-47854819D02*
X108685714Y-47854819D01*
X108685714Y-47854819D02*
X108352381Y-48235771D01*
X108352381Y-48235771D02*
X108495238Y-48235771D01*
X108495238Y-48235771D02*
X108590476Y-48283390D01*
X108590476Y-48283390D02*
X108638095Y-48331009D01*
X108638095Y-48331009D02*
X108685714Y-48426247D01*
X108685714Y-48426247D02*
X108685714Y-48664342D01*
X108685714Y-48664342D02*
X108638095Y-48759580D01*
X108638095Y-48759580D02*
X108590476Y-48807200D01*
X108590476Y-48807200D02*
X108495238Y-48854819D01*
X108495238Y-48854819D02*
X108209524Y-48854819D01*
X108209524Y-48854819D02*
X108114286Y-48807200D01*
X108114286Y-48807200D02*
X108066667Y-48759580D01*
X104583333Y-60109580D02*
X104535714Y-60157200D01*
X104535714Y-60157200D02*
X104392857Y-60204819D01*
X104392857Y-60204819D02*
X104297619Y-60204819D01*
X104297619Y-60204819D02*
X104154762Y-60157200D01*
X104154762Y-60157200D02*
X104059524Y-60061961D01*
X104059524Y-60061961D02*
X104011905Y-59966723D01*
X104011905Y-59966723D02*
X103964286Y-59776247D01*
X103964286Y-59776247D02*
X103964286Y-59633390D01*
X103964286Y-59633390D02*
X104011905Y-59442914D01*
X104011905Y-59442914D02*
X104059524Y-59347676D01*
X104059524Y-59347676D02*
X104154762Y-59252438D01*
X104154762Y-59252438D02*
X104297619Y-59204819D01*
X104297619Y-59204819D02*
X104392857Y-59204819D01*
X104392857Y-59204819D02*
X104535714Y-59252438D01*
X104535714Y-59252438D02*
X104583333Y-59300057D01*
X105535714Y-60204819D02*
X104964286Y-60204819D01*
X105250000Y-60204819D02*
X105250000Y-59204819D01*
X105250000Y-59204819D02*
X105154762Y-59347676D01*
X105154762Y-59347676D02*
X105059524Y-59442914D01*
X105059524Y-59442914D02*
X104964286Y-59490533D01*
X99316666Y-42024819D02*
X99316666Y-42739104D01*
X99316666Y-42739104D02*
X99269047Y-42881961D01*
X99269047Y-42881961D02*
X99173809Y-42977200D01*
X99173809Y-42977200D02*
X99030952Y-43024819D01*
X99030952Y-43024819D02*
X98935714Y-43024819D01*
X99745238Y-42120057D02*
X99792857Y-42072438D01*
X99792857Y-42072438D02*
X99888095Y-42024819D01*
X99888095Y-42024819D02*
X100126190Y-42024819D01*
X100126190Y-42024819D02*
X100221428Y-42072438D01*
X100221428Y-42072438D02*
X100269047Y-42120057D01*
X100269047Y-42120057D02*
X100316666Y-42215295D01*
X100316666Y-42215295D02*
X100316666Y-42310533D01*
X100316666Y-42310533D02*
X100269047Y-42453390D01*
X100269047Y-42453390D02*
X99697619Y-43024819D01*
X99697619Y-43024819D02*
X100316666Y-43024819D01*
X102916666Y-42024819D02*
X102916666Y-42739104D01*
X102916666Y-42739104D02*
X102869047Y-42881961D01*
X102869047Y-42881961D02*
X102773809Y-42977200D01*
X102773809Y-42977200D02*
X102630952Y-43024819D01*
X102630952Y-43024819D02*
X102535714Y-43024819D01*
X103297619Y-42024819D02*
X103916666Y-42024819D01*
X103916666Y-42024819D02*
X103583333Y-42405771D01*
X103583333Y-42405771D02*
X103726190Y-42405771D01*
X103726190Y-42405771D02*
X103821428Y-42453390D01*
X103821428Y-42453390D02*
X103869047Y-42501009D01*
X103869047Y-42501009D02*
X103916666Y-42596247D01*
X103916666Y-42596247D02*
X103916666Y-42834342D01*
X103916666Y-42834342D02*
X103869047Y-42929580D01*
X103869047Y-42929580D02*
X103821428Y-42977200D01*
X103821428Y-42977200D02*
X103726190Y-43024819D01*
X103726190Y-43024819D02*
X103440476Y-43024819D01*
X103440476Y-43024819D02*
X103345238Y-42977200D01*
X103345238Y-42977200D02*
X103297619Y-42929580D01*
X107633333Y-51009580D02*
X107585714Y-51057200D01*
X107585714Y-51057200D02*
X107442857Y-51104819D01*
X107442857Y-51104819D02*
X107347619Y-51104819D01*
X107347619Y-51104819D02*
X107204762Y-51057200D01*
X107204762Y-51057200D02*
X107109524Y-50961961D01*
X107109524Y-50961961D02*
X107061905Y-50866723D01*
X107061905Y-50866723D02*
X107014286Y-50676247D01*
X107014286Y-50676247D02*
X107014286Y-50533390D01*
X107014286Y-50533390D02*
X107061905Y-50342914D01*
X107061905Y-50342914D02*
X107109524Y-50247676D01*
X107109524Y-50247676D02*
X107204762Y-50152438D01*
X107204762Y-50152438D02*
X107347619Y-50104819D01*
X107347619Y-50104819D02*
X107442857Y-50104819D01*
X107442857Y-50104819D02*
X107585714Y-50152438D01*
X107585714Y-50152438D02*
X107633333Y-50200057D01*
X108014286Y-50200057D02*
X108061905Y-50152438D01*
X108061905Y-50152438D02*
X108157143Y-50104819D01*
X108157143Y-50104819D02*
X108395238Y-50104819D01*
X108395238Y-50104819D02*
X108490476Y-50152438D01*
X108490476Y-50152438D02*
X108538095Y-50200057D01*
X108538095Y-50200057D02*
X108585714Y-50295295D01*
X108585714Y-50295295D02*
X108585714Y-50390533D01*
X108585714Y-50390533D02*
X108538095Y-50533390D01*
X108538095Y-50533390D02*
X107966667Y-51104819D01*
X107966667Y-51104819D02*
X108585714Y-51104819D01*
X97648095Y-57504819D02*
X97648095Y-58314342D01*
X97648095Y-58314342D02*
X97695714Y-58409580D01*
X97695714Y-58409580D02*
X97743333Y-58457200D01*
X97743333Y-58457200D02*
X97838571Y-58504819D01*
X97838571Y-58504819D02*
X98029047Y-58504819D01*
X98029047Y-58504819D02*
X98124285Y-58457200D01*
X98124285Y-58457200D02*
X98171904Y-58409580D01*
X98171904Y-58409580D02*
X98219523Y-58314342D01*
X98219523Y-58314342D02*
X98219523Y-57504819D01*
X98648095Y-57600057D02*
X98695714Y-57552438D01*
X98695714Y-57552438D02*
X98790952Y-57504819D01*
X98790952Y-57504819D02*
X99029047Y-57504819D01*
X99029047Y-57504819D02*
X99124285Y-57552438D01*
X99124285Y-57552438D02*
X99171904Y-57600057D01*
X99171904Y-57600057D02*
X99219523Y-57695295D01*
X99219523Y-57695295D02*
X99219523Y-57790533D01*
X99219523Y-57790533D02*
X99171904Y-57933390D01*
X99171904Y-57933390D02*
X98600476Y-58504819D01*
X98600476Y-58504819D02*
X99219523Y-58504819D01*
D11*
%TO.C,BT1*%
X106520000Y-43570000D02*
X107850000Y-43570000D01*
X106520000Y-44900000D02*
X106520000Y-43570000D01*
X106520000Y-46170000D02*
X106520000Y-48770000D01*
X106520000Y-46170000D02*
X109180000Y-46170000D01*
X106520000Y-48770000D02*
X109180000Y-48770000D01*
X109180000Y-46170000D02*
X109180000Y-48770000D01*
%TO.C,J1*%
X94720000Y-43570000D02*
X96050000Y-43570000D01*
X94720000Y-44900000D02*
X94720000Y-43570000D01*
X94720000Y-46170000D02*
X94720000Y-53850000D01*
X94720000Y-46170000D02*
X97380000Y-46170000D01*
X94720000Y-53850000D02*
X97380000Y-53850000D01*
X97380000Y-46170000D02*
X97380000Y-53850000D01*
%TO.C,C3*%
X107271000Y-49530000D02*
X108529000Y-49530000D01*
X107271000Y-51370000D02*
X108529000Y-51370000D01*
%TO.C,G\u002A\u002A\u002A*%
G36*
X91915495Y-39351737D02*
G01*
X91915495Y-39611844D01*
X91655388Y-39611844D01*
X91395281Y-39611844D01*
X91395281Y-39453518D01*
X91528510Y-39453518D01*
X91642839Y-39453518D01*
X91757169Y-39453518D01*
X91757169Y-39339189D01*
X91757169Y-39224859D01*
X91649733Y-39231753D01*
X91542298Y-39238647D01*
X91535404Y-39346082D01*
X91528510Y-39453518D01*
X91395281Y-39453518D01*
X91395281Y-39351737D01*
X91395281Y-39091630D01*
X91655388Y-39091630D01*
X91915495Y-39091630D01*
X91915495Y-39351737D01*
G37*
G36*
X92571416Y-38017276D02*
G01*
X92571416Y-38277382D01*
X92311309Y-38277382D01*
X92051203Y-38277382D01*
X92051203Y-38017276D01*
X92051203Y-37915495D01*
X92209528Y-37915495D01*
X92209528Y-38029824D01*
X92209528Y-38144153D01*
X92316964Y-38137259D01*
X92424399Y-38130365D01*
X92431293Y-38022930D01*
X92438187Y-37915495D01*
X92323858Y-37915495D01*
X92209528Y-37915495D01*
X92051203Y-37915495D01*
X92051203Y-37757169D01*
X92311309Y-37757169D01*
X92571416Y-37757169D01*
X92571416Y-38017276D01*
G37*
G36*
X92571416Y-38684506D02*
G01*
X92571416Y-38955922D01*
X92311309Y-38955922D01*
X92051203Y-38955922D01*
X92051203Y-38684506D01*
X92051203Y-38568938D01*
X92209528Y-38568938D01*
X92209528Y-38684506D01*
X92209528Y-38800075D01*
X92316964Y-38793181D01*
X92424399Y-38786287D01*
X92424399Y-38684506D01*
X92424399Y-38582725D01*
X92316964Y-38575831D01*
X92209528Y-38568938D01*
X92051203Y-38568938D01*
X92051203Y-38413090D01*
X92311309Y-38413090D01*
X92571416Y-38413090D01*
X92571416Y-38684506D01*
G37*
G36*
X92571416Y-39351737D02*
G01*
X92571416Y-39611844D01*
X92311309Y-39611844D01*
X92051203Y-39611844D01*
X92051203Y-39351737D01*
X92051203Y-39224859D01*
X92209528Y-39224859D01*
X92209528Y-39339189D01*
X92209528Y-39453518D01*
X92323858Y-39453518D01*
X92438187Y-39453518D01*
X92431293Y-39346082D01*
X92424399Y-39238647D01*
X92316964Y-39231753D01*
X92209528Y-39224859D01*
X92051203Y-39224859D01*
X92051203Y-39091630D01*
X92311309Y-39091630D01*
X92571416Y-39091630D01*
X92571416Y-39351737D01*
G37*
G36*
X93249956Y-39351737D02*
G01*
X93249956Y-39611844D01*
X92989849Y-39611844D01*
X92729742Y-39611844D01*
X92729742Y-39453518D01*
X92862972Y-39453518D01*
X92977301Y-39453518D01*
X93091630Y-39453518D01*
X93091630Y-39339189D01*
X93091630Y-39224859D01*
X92984195Y-39231753D01*
X92876759Y-39238647D01*
X92869865Y-39346082D01*
X92862972Y-39453518D01*
X92729742Y-39453518D01*
X92729742Y-39351737D01*
X92729742Y-39091630D01*
X92989849Y-39091630D01*
X93249956Y-39091630D01*
X93249956Y-39351737D01*
G37*
G36*
X91915495Y-38017276D02*
G01*
X91915495Y-38277382D01*
X91655388Y-38277382D01*
X91395281Y-38277382D01*
X91395281Y-38017276D01*
X91395281Y-37915495D01*
X91530989Y-37915495D01*
X91530989Y-38013506D01*
X91534197Y-38076975D01*
X91542250Y-38119577D01*
X91546067Y-38126596D01*
X91576191Y-38135867D01*
X91633854Y-38141182D01*
X91659157Y-38141674D01*
X91757169Y-38141674D01*
X91757169Y-38028585D01*
X91757169Y-37915495D01*
X91644079Y-37915495D01*
X91530989Y-37915495D01*
X91395281Y-37915495D01*
X91395281Y-37757169D01*
X91655388Y-37757169D01*
X91915495Y-37757169D01*
X91915495Y-38017276D01*
G37*
G36*
X91915495Y-38684506D02*
G01*
X91915495Y-38955922D01*
X91655388Y-38955922D01*
X91395281Y-38955922D01*
X91395281Y-38734849D01*
X91533367Y-38734849D01*
X91552215Y-38777219D01*
X91599667Y-38794891D01*
X91654678Y-38797596D01*
X91757169Y-38797596D01*
X91757169Y-38683267D01*
X91757169Y-38568938D01*
X91649733Y-38575831D01*
X91584688Y-38581997D01*
X91552046Y-38595663D01*
X91539006Y-38626044D01*
X91535050Y-38658387D01*
X91533367Y-38734849D01*
X91395281Y-38734849D01*
X91395281Y-38684506D01*
X91395281Y-38413090D01*
X91655388Y-38413090D01*
X91915495Y-38413090D01*
X91915495Y-38684506D01*
G37*
G36*
X93249956Y-38017276D02*
G01*
X93249956Y-38277382D01*
X92989849Y-38277382D01*
X92729742Y-38277382D01*
X92729742Y-38017276D01*
X92729742Y-37915495D01*
X92865450Y-37915495D01*
X92865450Y-38013506D01*
X92868658Y-38076975D01*
X92876712Y-38119577D01*
X92880529Y-38126596D01*
X92910652Y-38135867D01*
X92968316Y-38141182D01*
X92993619Y-38141674D01*
X93091630Y-38141674D01*
X93091630Y-38028585D01*
X93091630Y-37915495D01*
X92978540Y-37915495D01*
X92865450Y-37915495D01*
X92729742Y-37915495D01*
X92729742Y-37757169D01*
X92989849Y-37757169D01*
X93249956Y-37757169D01*
X93249956Y-38017276D01*
G37*
G36*
X93249956Y-38684506D02*
G01*
X93249956Y-38955922D01*
X92989849Y-38955922D01*
X92729742Y-38955922D01*
X92729742Y-38734849D01*
X92867828Y-38734849D01*
X92886676Y-38777219D01*
X92934128Y-38794891D01*
X92989139Y-38797596D01*
X93091630Y-38797596D01*
X93091630Y-38683267D01*
X93091630Y-38568938D01*
X92984195Y-38575831D01*
X92919149Y-38581997D01*
X92886507Y-38595663D01*
X92873468Y-38626044D01*
X92869511Y-38658387D01*
X92867828Y-38734849D01*
X92729742Y-38734849D01*
X92729742Y-38684506D01*
X92729742Y-38413090D01*
X92989849Y-38413090D01*
X93249956Y-38413090D01*
X93249956Y-38684506D01*
G37*
G36*
X93249956Y-37169101D02*
G01*
X93249956Y-37530989D01*
X92322618Y-37530989D01*
X91395281Y-37530989D01*
X91395281Y-37169101D01*
X91395281Y-36965539D01*
X91530989Y-36965539D01*
X91530989Y-37154022D01*
X91532687Y-37242358D01*
X91537207Y-37312510D01*
X91543687Y-37352842D01*
X91546067Y-37357584D01*
X91571484Y-37361157D01*
X91636793Y-37364428D01*
X91736650Y-37367293D01*
X91865712Y-37369649D01*
X92018636Y-37371393D01*
X92190077Y-37372423D01*
X92326388Y-37372663D01*
X93091630Y-37372663D01*
X93091630Y-37169101D01*
X93091630Y-36965539D01*
X92311309Y-36965539D01*
X91530989Y-36965539D01*
X91395281Y-36965539D01*
X91395281Y-36807213D01*
X92322618Y-36807213D01*
X93249956Y-36807213D01*
X93249956Y-37169101D01*
G37*
G36*
X92974338Y-36448217D02*
G01*
X93132435Y-36449355D01*
X93260207Y-36451894D01*
X93361379Y-36456117D01*
X93439679Y-36462308D01*
X93498835Y-36470749D01*
X93542574Y-36481724D01*
X93574622Y-36495515D01*
X93598708Y-36512405D01*
X93618558Y-36532678D01*
X93635228Y-36553218D01*
X93643542Y-36564908D01*
X93650749Y-36579441D01*
X93656930Y-36599934D01*
X93662162Y-36629498D01*
X93666526Y-36671248D01*
X93670098Y-36728299D01*
X93672960Y-36803764D01*
X93675188Y-36900756D01*
X93676863Y-37022390D01*
X93678063Y-37171780D01*
X93678866Y-37352040D01*
X93679352Y-37566283D01*
X93679600Y-37817623D01*
X93679689Y-38109175D01*
X93679698Y-38309327D01*
X93679751Y-38633338D01*
X93679759Y-38915166D01*
X93679497Y-39157864D01*
X93678738Y-39364485D01*
X93677255Y-39538081D01*
X93674822Y-39681705D01*
X93671214Y-39798409D01*
X93666203Y-39891247D01*
X93659563Y-39963271D01*
X93651069Y-40017534D01*
X93640494Y-40057089D01*
X93627611Y-40084987D01*
X93612195Y-40104283D01*
X93594018Y-40118029D01*
X93572856Y-40129276D01*
X93548480Y-40141079D01*
X93543740Y-40143496D01*
X93523394Y-40151191D01*
X93492202Y-40157638D01*
X93446478Y-40162934D01*
X93382533Y-40167177D01*
X93296683Y-40170463D01*
X93185241Y-40172890D01*
X93044520Y-40174556D01*
X92870834Y-40175557D01*
X92660497Y-40175992D01*
X92409822Y-40175957D01*
X92318087Y-40175860D01*
X92091954Y-40175225D01*
X91878631Y-40173941D01*
X91682571Y-40172083D01*
X91508224Y-40169724D01*
X91360038Y-40166940D01*
X91242466Y-40163804D01*
X91159957Y-40160391D01*
X91116961Y-40156775D01*
X91112556Y-40155715D01*
X91066420Y-40126511D01*
X91014949Y-40080584D01*
X91010775Y-40076171D01*
X90954230Y-40015339D01*
X90948155Y-38320931D01*
X90948098Y-38305156D01*
X91101247Y-38305156D01*
X91101315Y-38617793D01*
X91101565Y-38888309D01*
X91102068Y-39119817D01*
X91102892Y-39315433D01*
X91104107Y-39478271D01*
X91105784Y-39611445D01*
X91107991Y-39718070D01*
X91110800Y-39801261D01*
X91114278Y-39864131D01*
X91118497Y-39909796D01*
X91123525Y-39941369D01*
X91129432Y-39961965D01*
X91136289Y-39974699D01*
X91138680Y-39977605D01*
X91149172Y-39986930D01*
X91164850Y-39994741D01*
X91189505Y-40001172D01*
X91226928Y-40006357D01*
X91280912Y-40010428D01*
X91355247Y-40013520D01*
X91453726Y-40015765D01*
X91580139Y-40017297D01*
X91738278Y-40018249D01*
X91931935Y-40018755D01*
X92164901Y-40018947D01*
X92314815Y-40018967D01*
X92571017Y-40018921D01*
X92785815Y-40018682D01*
X92963038Y-40018103D01*
X93106517Y-40017037D01*
X93220082Y-40015335D01*
X93307566Y-40012851D01*
X93372798Y-40009435D01*
X93419609Y-40004942D01*
X93451829Y-39999222D01*
X93473291Y-39992128D01*
X93487823Y-39983513D01*
X93499191Y-39973294D01*
X93507890Y-39963783D01*
X93515393Y-39951782D01*
X93521775Y-39934128D01*
X93527111Y-39907657D01*
X93531476Y-39869205D01*
X93534945Y-39815610D01*
X93537591Y-39743706D01*
X93539491Y-39650331D01*
X93540718Y-39532320D01*
X93541347Y-39386510D01*
X93541453Y-39209738D01*
X93541111Y-38998839D01*
X93540396Y-38750649D01*
X93539382Y-38462006D01*
X93538772Y-38297734D01*
X93537579Y-37987032D01*
X93536424Y-37718430D01*
X93535212Y-37488792D01*
X93533851Y-37294983D01*
X93532244Y-37133866D01*
X93530298Y-37002306D01*
X93527918Y-36897168D01*
X93525011Y-36815314D01*
X93521481Y-36753611D01*
X93517235Y-36708921D01*
X93512179Y-36678109D01*
X93506216Y-36658039D01*
X93499255Y-36645575D01*
X93491199Y-36637583D01*
X93488776Y-36635749D01*
X93472197Y-36628284D01*
X93442233Y-36622029D01*
X93395300Y-36616883D01*
X93327814Y-36612749D01*
X93236190Y-36609527D01*
X93116842Y-36607119D01*
X92966187Y-36605427D01*
X92780639Y-36604351D01*
X92556615Y-36603793D01*
X92323328Y-36603651D01*
X92065383Y-36603793D01*
X91848908Y-36604292D01*
X91670141Y-36605263D01*
X91525316Y-36606818D01*
X91410670Y-36609071D01*
X91322438Y-36612134D01*
X91256856Y-36616121D01*
X91210160Y-36621145D01*
X91178585Y-36627319D01*
X91158368Y-36634756D01*
X91151516Y-36638861D01*
X91101247Y-36674070D01*
X91101247Y-38305156D01*
X90948098Y-38305156D01*
X90942079Y-36626524D01*
X91019913Y-36541579D01*
X91097746Y-36456634D01*
X92280815Y-36450383D01*
X92552255Y-36449014D01*
X92782187Y-36448198D01*
X92974338Y-36448217D01*
G37*
%TO.C,C1*%
X105507600Y-58655000D02*
X105907600Y-58655000D01*
X105707600Y-58455000D02*
X105707600Y-58855000D01*
X107777401Y-57770000D02*
X107777401Y-59010000D01*
X107777401Y-60690000D02*
X107777401Y-61930000D01*
X107817401Y-57770000D02*
X107817401Y-59010000D01*
X107817401Y-60690000D02*
X107817401Y-61930000D01*
X107857401Y-57771000D02*
X107857401Y-59010000D01*
X107857401Y-60690000D02*
X107857401Y-61929000D01*
X107897401Y-57773000D02*
X107897401Y-59010000D01*
X107897401Y-60690000D02*
X107897401Y-61927000D01*
X107937401Y-57776000D02*
X107937401Y-59010000D01*
X107937401Y-60690000D02*
X107937401Y-61924000D01*
X107977401Y-57779000D02*
X107977401Y-59010000D01*
X107977401Y-60690000D02*
X107977401Y-61921000D01*
X108017401Y-57783000D02*
X108017401Y-59010000D01*
X108017401Y-60690000D02*
X108017401Y-61917000D01*
X108057401Y-57788000D02*
X108057401Y-59010000D01*
X108057401Y-60690000D02*
X108057401Y-61912000D01*
X108097401Y-57794000D02*
X108097401Y-59010000D01*
X108097401Y-60690000D02*
X108097401Y-61906000D01*
X108137401Y-57800000D02*
X108137401Y-59010000D01*
X108137401Y-60690000D02*
X108137401Y-61900000D01*
X108177401Y-57808000D02*
X108177401Y-59010000D01*
X108177401Y-60690000D02*
X108177401Y-61892000D01*
X108217401Y-57816000D02*
X108217401Y-59010000D01*
X108217401Y-60690000D02*
X108217401Y-61884000D01*
X108257401Y-57825000D02*
X108257401Y-59010000D01*
X108257401Y-60690000D02*
X108257401Y-61875000D01*
X108297401Y-57834000D02*
X108297401Y-59010000D01*
X108297401Y-60690000D02*
X108297401Y-61866000D01*
X108337401Y-57845000D02*
X108337401Y-59010000D01*
X108337401Y-60690000D02*
X108337401Y-61855000D01*
X108377401Y-57856000D02*
X108377401Y-59010000D01*
X108377401Y-60690000D02*
X108377401Y-61844000D01*
X108417401Y-57868000D02*
X108417401Y-59010000D01*
X108417401Y-60690000D02*
X108417401Y-61832000D01*
X108457401Y-57882000D02*
X108457401Y-59010000D01*
X108457401Y-60690000D02*
X108457401Y-61818000D01*
X108498401Y-57896000D02*
X108498401Y-59010000D01*
X108498401Y-60690000D02*
X108498401Y-61804000D01*
X108538401Y-57910000D02*
X108538401Y-59010000D01*
X108538401Y-60690000D02*
X108538401Y-61790000D01*
X108578401Y-57926000D02*
X108578401Y-59010000D01*
X108578401Y-60690000D02*
X108578401Y-61774000D01*
X108618401Y-57943000D02*
X108618401Y-59010000D01*
X108618401Y-60690000D02*
X108618401Y-61757000D01*
X108658401Y-57961000D02*
X108658401Y-59010000D01*
X108658401Y-60690000D02*
X108658401Y-61739000D01*
X108698401Y-57980000D02*
X108698401Y-59010000D01*
X108698401Y-60690000D02*
X108698401Y-61720000D01*
X108738401Y-57999000D02*
X108738401Y-59010000D01*
X108738401Y-60690000D02*
X108738401Y-61701000D01*
X108778401Y-58020000D02*
X108778401Y-59010000D01*
X108778401Y-60690000D02*
X108778401Y-61680000D01*
X108818401Y-58042000D02*
X108818401Y-59010000D01*
X108818401Y-60690000D02*
X108818401Y-61658000D01*
X108858401Y-58065000D02*
X108858401Y-59010000D01*
X108858401Y-60690000D02*
X108858401Y-61635000D01*
X108898401Y-58090000D02*
X108898401Y-59010000D01*
X108898401Y-60690000D02*
X108898401Y-61610000D01*
X108938401Y-58115000D02*
X108938401Y-59010000D01*
X108938401Y-60690000D02*
X108938401Y-61585000D01*
X108978401Y-58142000D02*
X108978401Y-59010000D01*
X108978401Y-60690000D02*
X108978401Y-61558000D01*
X109018401Y-58170000D02*
X109018401Y-59010000D01*
X109018401Y-60690000D02*
X109018401Y-61530000D01*
X109058401Y-58200000D02*
X109058401Y-59010000D01*
X109058401Y-60690000D02*
X109058401Y-61500000D01*
X109098401Y-58231000D02*
X109098401Y-59010000D01*
X109098401Y-60690000D02*
X109098401Y-61469000D01*
X109138401Y-58263000D02*
X109138401Y-59010000D01*
X109138401Y-60690000D02*
X109138401Y-61437000D01*
X109178401Y-58298000D02*
X109178401Y-59010000D01*
X109178401Y-60690000D02*
X109178401Y-61402000D01*
X109218401Y-58334000D02*
X109218401Y-59010000D01*
X109218401Y-60690000D02*
X109218401Y-61366000D01*
X109258401Y-58372000D02*
X109258401Y-59010000D01*
X109258401Y-60690000D02*
X109258401Y-61328000D01*
X109298401Y-58412000D02*
X109298401Y-59010000D01*
X109298401Y-60690000D02*
X109298401Y-61288000D01*
X109338401Y-58454000D02*
X109338401Y-59010000D01*
X109338401Y-60690000D02*
X109338401Y-61246000D01*
X109378401Y-58499000D02*
X109378401Y-61201000D01*
X109418401Y-58546000D02*
X109418401Y-61154000D01*
X109458401Y-58596000D02*
X109458401Y-61104000D01*
X109498401Y-58650000D02*
X109498401Y-61050000D01*
X109538401Y-58708000D02*
X109538401Y-60992000D01*
X109578401Y-58770000D02*
X109578401Y-60930000D01*
X109618401Y-58837000D02*
X109618401Y-60863000D01*
X109658401Y-58910000D02*
X109658401Y-60790000D01*
X109698401Y-58991000D02*
X109698401Y-60709000D01*
X109738401Y-59082000D02*
X109738401Y-60618000D01*
X109778401Y-59186000D02*
X109778401Y-60514000D01*
X109818401Y-59313000D02*
X109818401Y-60387000D01*
X109858401Y-59480000D02*
X109858401Y-60220000D01*
X109897401Y-59850000D02*
G75*
G03*
X109897401Y-59850000I-2120000J0D01*
G01*
%TO.C,J2*%
X98320000Y-43570000D02*
X99650000Y-43570000D01*
X98320000Y-44900000D02*
X98320000Y-43570000D01*
X98320000Y-46170000D02*
X98320000Y-53850000D01*
X98320000Y-46170000D02*
X100980000Y-46170000D01*
X98320000Y-53850000D02*
X100980000Y-53850000D01*
X100980000Y-46170000D02*
X100980000Y-53850000D01*
%TO.C,J3*%
X101920000Y-43570000D02*
X103250000Y-43570000D01*
X101920000Y-44900000D02*
X101920000Y-43570000D01*
X101920000Y-46170000D02*
X101920000Y-53850000D01*
X101920000Y-46170000D02*
X104580000Y-46170000D01*
X101920000Y-53850000D02*
X104580000Y-53850000D01*
X104580000Y-46170000D02*
X104580000Y-53850000D01*
%TO.C,C2*%
X105530199Y-52705000D02*
X105930199Y-52705000D01*
X105730199Y-52505000D02*
X105730199Y-52905000D01*
X107800000Y-51820000D02*
X107800000Y-53060000D01*
X107800000Y-54740000D02*
X107800000Y-55980000D01*
X107840000Y-51820000D02*
X107840000Y-53060000D01*
X107840000Y-54740000D02*
X107840000Y-55980000D01*
X107880000Y-51821000D02*
X107880000Y-53060000D01*
X107880000Y-54740000D02*
X107880000Y-55979000D01*
X107920000Y-51823000D02*
X107920000Y-53060000D01*
X107920000Y-54740000D02*
X107920000Y-55977000D01*
X107960000Y-51826000D02*
X107960000Y-53060000D01*
X107960000Y-54740000D02*
X107960000Y-55974000D01*
X108000000Y-51829000D02*
X108000000Y-53060000D01*
X108000000Y-54740000D02*
X108000000Y-55971000D01*
X108040000Y-51833000D02*
X108040000Y-53060000D01*
X108040000Y-54740000D02*
X108040000Y-55967000D01*
X108080000Y-51838000D02*
X108080000Y-53060000D01*
X108080000Y-54740000D02*
X108080000Y-55962000D01*
X108120000Y-51844000D02*
X108120000Y-53060000D01*
X108120000Y-54740000D02*
X108120000Y-55956000D01*
X108160000Y-51850000D02*
X108160000Y-53060000D01*
X108160000Y-54740000D02*
X108160000Y-55950000D01*
X108200000Y-51858000D02*
X108200000Y-53060000D01*
X108200000Y-54740000D02*
X108200000Y-55942000D01*
X108240000Y-51866000D02*
X108240000Y-53060000D01*
X108240000Y-54740000D02*
X108240000Y-55934000D01*
X108280000Y-51875000D02*
X108280000Y-53060000D01*
X108280000Y-54740000D02*
X108280000Y-55925000D01*
X108320000Y-51884000D02*
X108320000Y-53060000D01*
X108320000Y-54740000D02*
X108320000Y-55916000D01*
X108360000Y-51895000D02*
X108360000Y-53060000D01*
X108360000Y-54740000D02*
X108360000Y-55905000D01*
X108400000Y-51906000D02*
X108400000Y-53060000D01*
X108400000Y-54740000D02*
X108400000Y-55894000D01*
X108440000Y-51918000D02*
X108440000Y-53060000D01*
X108440000Y-54740000D02*
X108440000Y-55882000D01*
X108480000Y-51932000D02*
X108480000Y-53060000D01*
X108480000Y-54740000D02*
X108480000Y-55868000D01*
X108521000Y-51946000D02*
X108521000Y-53060000D01*
X108521000Y-54740000D02*
X108521000Y-55854000D01*
X108561000Y-51960000D02*
X108561000Y-53060000D01*
X108561000Y-54740000D02*
X108561000Y-55840000D01*
X108601000Y-51976000D02*
X108601000Y-53060000D01*
X108601000Y-54740000D02*
X108601000Y-55824000D01*
X108641000Y-51993000D02*
X108641000Y-53060000D01*
X108641000Y-54740000D02*
X108641000Y-55807000D01*
X108681000Y-52011000D02*
X108681000Y-53060000D01*
X108681000Y-54740000D02*
X108681000Y-55789000D01*
X108721000Y-52030000D02*
X108721000Y-53060000D01*
X108721000Y-54740000D02*
X108721000Y-55770000D01*
X108761000Y-52049000D02*
X108761000Y-53060000D01*
X108761000Y-54740000D02*
X108761000Y-55751000D01*
X108801000Y-52070000D02*
X108801000Y-53060000D01*
X108801000Y-54740000D02*
X108801000Y-55730000D01*
X108841000Y-52092000D02*
X108841000Y-53060000D01*
X108841000Y-54740000D02*
X108841000Y-55708000D01*
X108881000Y-52115000D02*
X108881000Y-53060000D01*
X108881000Y-54740000D02*
X108881000Y-55685000D01*
X108921000Y-52140000D02*
X108921000Y-53060000D01*
X108921000Y-54740000D02*
X108921000Y-55660000D01*
X108961000Y-52165000D02*
X108961000Y-53060000D01*
X108961000Y-54740000D02*
X108961000Y-55635000D01*
X109001000Y-52192000D02*
X109001000Y-53060000D01*
X109001000Y-54740000D02*
X109001000Y-55608000D01*
X109041000Y-52220000D02*
X109041000Y-53060000D01*
X109041000Y-54740000D02*
X109041000Y-55580000D01*
X109081000Y-52250000D02*
X109081000Y-53060000D01*
X109081000Y-54740000D02*
X109081000Y-55550000D01*
X109121000Y-52281000D02*
X109121000Y-53060000D01*
X109121000Y-54740000D02*
X109121000Y-55519000D01*
X109161000Y-52313000D02*
X109161000Y-53060000D01*
X109161000Y-54740000D02*
X109161000Y-55487000D01*
X109201000Y-52348000D02*
X109201000Y-53060000D01*
X109201000Y-54740000D02*
X109201000Y-55452000D01*
X109241000Y-52384000D02*
X109241000Y-53060000D01*
X109241000Y-54740000D02*
X109241000Y-55416000D01*
X109281000Y-52422000D02*
X109281000Y-53060000D01*
X109281000Y-54740000D02*
X109281000Y-55378000D01*
X109321000Y-52462000D02*
X109321000Y-53060000D01*
X109321000Y-54740000D02*
X109321000Y-55338000D01*
X109361000Y-52504000D02*
X109361000Y-53060000D01*
X109361000Y-54740000D02*
X109361000Y-55296000D01*
X109401000Y-52549000D02*
X109401000Y-55251000D01*
X109441000Y-52596000D02*
X109441000Y-55204000D01*
X109481000Y-52646000D02*
X109481000Y-55154000D01*
X109521000Y-52700000D02*
X109521000Y-55100000D01*
X109561000Y-52758000D02*
X109561000Y-55042000D01*
X109601000Y-52820000D02*
X109601000Y-54980000D01*
X109641000Y-52887000D02*
X109641000Y-54913000D01*
X109681000Y-52960000D02*
X109681000Y-54840000D01*
X109721000Y-53041000D02*
X109721000Y-54759000D01*
X109761000Y-53132000D02*
X109761000Y-54668000D01*
X109801000Y-53236000D02*
X109801000Y-54564000D01*
X109841000Y-53363000D02*
X109841000Y-54437000D01*
X109881000Y-53530000D02*
X109881000Y-54270000D01*
X109920000Y-53900000D02*
G75*
G03*
X109920000Y-53900000I-2120000J0D01*
G01*
%TO.C,U2*%
X97540000Y-61580000D02*
X102680000Y-61580000D01*
X97540000Y-61580000D02*
X97540000Y-58920000D01*
X102680000Y-61580000D02*
X102680000Y-58920000D01*
X94940000Y-60250000D02*
X94940000Y-58920000D01*
X94940000Y-58920000D02*
X96270000Y-58920000D01*
X97540000Y-58920000D02*
X102680000Y-58920000D01*
%TO.C,U3*%
X110090000Y-62300000D02*
X110090000Y-62300000D01*
X110090000Y-62300000D02*
X110090000Y-91500000D01*
X94640000Y-62300000D02*
X110090000Y-62300000D01*
X109514000Y-62630000D02*
X109514000Y-62630000D01*
X109514000Y-62630000D02*
X109514000Y-67964000D01*
X98846000Y-62630000D02*
X109514000Y-62630000D01*
X98846000Y-62630000D02*
X98846000Y-62630000D01*
X106720000Y-62884000D02*
X106720000Y-62884000D01*
X109006000Y-65170000D02*
X106720000Y-65170000D01*
X106720000Y-65170000D02*
X106720000Y-62884000D01*
X109514000Y-67964000D02*
X98846000Y-67964000D01*
X98846000Y-67964000D02*
X98846000Y-62630000D01*
X110090000Y-91500000D02*
X94640000Y-91500000D01*
X94640000Y-91500000D02*
X94640000Y-62300000D01*
%TD*%
M02*
