%TF.GenerationSoftware,KiCad,Pcbnew,7.0.7*%
%TF.CreationDate,2023-10-16T17:56:00+02:00*%
%TF.ProjectId,arduino-nano-radio-transmitter,61726475-696e-46f2-9d6e-616e6f2d7261,0*%
%TF.SameCoordinates,Original*%
%TF.FileFunction,Copper,L2,Bot*%
%TF.FilePolarity,Positive*%
%FSLAX46Y46*%
G04 Gerber Fmt 4.6, Leading zero omitted, Abs format (unit mm)*
G04 Created by KiCad (PCBNEW 7.0.7) date 2023-10-16 17:56:00*
%MOMM*%
%LPD*%
G01*
G04 APERTURE LIST*
%TA.AperFunction,ComponentPad*%
%ADD10R,1.700000X1.700000*%
%TD*%
%TA.AperFunction,ComponentPad*%
%ADD11O,1.700000X1.700000*%
%TD*%
%TA.AperFunction,ComponentPad*%
%ADD12C,1.600000*%
%TD*%
%TA.AperFunction,ComponentPad*%
%ADD13R,1.200000X1.200000*%
%TD*%
%TA.AperFunction,ComponentPad*%
%ADD14C,1.200000*%
%TD*%
%TA.AperFunction,ComponentPad*%
%ADD15C,1.700000*%
%TD*%
%TA.AperFunction,ComponentPad*%
%ADD16R,1.600000X1.600000*%
%TD*%
%TA.AperFunction,ComponentPad*%
%ADD17O,1.600000X1.600000*%
%TD*%
%TA.AperFunction,ViaPad*%
%ADD18C,0.800000*%
%TD*%
%TA.AperFunction,Conductor*%
%ADD19C,0.250000*%
%TD*%
G04 APERTURE END LIST*
D10*
%TO.P,BT1,1,+*%
%TO.N,+12V*%
X107850000Y-44900000D03*
D11*
%TO.P,BT1,2,-*%
%TO.N,GND*%
X107850000Y-47440000D03*
%TD*%
D10*
%TO.P,J1,1,Pin_1*%
%TO.N,Net-(A1-A0)*%
X96050000Y-44900000D03*
D11*
%TO.P,J1,2,Pin_2*%
%TO.N,Net-(A1-A1)*%
X96050000Y-47440000D03*
%TO.P,J1,3,Pin_3*%
%TO.N,Net-(A1-A2)*%
X96050000Y-49980000D03*
%TO.P,J1,4,Pin_4*%
%TO.N,Net-(A1-A3)*%
X96050000Y-52520000D03*
%TD*%
D12*
%TO.P,C3,1*%
%TO.N,GND*%
X106650000Y-50450000D03*
%TO.P,C3,2*%
%TO.N,+12V*%
X109150000Y-50450000D03*
%TD*%
D13*
%TO.P,C1,1*%
%TO.N,+3.3V*%
X107027401Y-59850000D03*
D14*
%TO.P,C1,2*%
%TO.N,GND*%
X108527401Y-59850000D03*
%TD*%
D10*
%TO.P,J2,1,Pin_1*%
%TO.N,Net-(A1-+5V)*%
X99650000Y-44900000D03*
D11*
%TO.P,J2,2,Pin_2*%
X99650000Y-47440000D03*
%TO.P,J2,3,Pin_3*%
X99650000Y-49980000D03*
%TO.P,J2,4,Pin_4*%
X99650000Y-52520000D03*
%TD*%
D10*
%TO.P,J3,1,Pin_1*%
%TO.N,GND*%
X103250000Y-44900000D03*
D11*
%TO.P,J3,2,Pin_2*%
X103250000Y-47440000D03*
%TO.P,J3,3,Pin_3*%
X103250000Y-49980000D03*
%TO.P,J3,4,Pin_4*%
X103250000Y-52520000D03*
%TD*%
D13*
%TO.P,C2,1*%
%TO.N,+3.3V*%
X107050000Y-53900000D03*
D14*
%TO.P,C2,2*%
%TO.N,GND*%
X108550000Y-53900000D03*
%TD*%
D10*
%TO.P,U2,1,GND*%
%TO.N,GND*%
X96270000Y-60250000D03*
D11*
%TO.P,U2,2,VO*%
%TO.N,+3.3V*%
X98810000Y-60250000D03*
%TO.P,U2,3,VI*%
%TO.N,+12V*%
X101350000Y-60250000D03*
%TD*%
D10*
%TO.P,U3,1,GND*%
%TO.N,GND*%
X107990000Y-63900000D03*
D15*
%TO.P,U3,2,VCC*%
%TO.N,+3.3V*%
X107990000Y-66440000D03*
%TO.P,U3,3,CE*%
%TO.N,/CE*%
X105450000Y-63900000D03*
%TO.P,U3,4,~{CSN}*%
%TO.N,/CSN*%
X105450000Y-66440000D03*
%TO.P,U3,5,SCK*%
%TO.N,/SCK*%
X102910000Y-63900000D03*
%TO.P,U3,6,MOSI*%
%TO.N,/MOSI*%
X102910000Y-66440000D03*
%TO.P,U3,7,MISO*%
%TO.N,/MISO*%
X100370000Y-63900000D03*
%TO.P,U3,8,IRQ*%
%TO.N,/IRQ*%
X100370000Y-66440000D03*
%TD*%
D16*
%TO.P,A1,1,D1/TX*%
%TO.N,unconnected-(A1-D1{slash}TX-Pad1)*%
X75160000Y-86660000D03*
D17*
%TO.P,A1,2,D0/RX*%
%TO.N,unconnected-(A1-D0{slash}RX-Pad2)*%
X75160000Y-84120000D03*
%TO.P,A1,3,~{RESET}*%
%TO.N,unconnected-(A1-~{RESET}-Pad3)*%
X75160000Y-81580000D03*
%TO.P,A1,4,GND*%
%TO.N,GND*%
X75160000Y-79040000D03*
%TO.P,A1,5,D2*%
%TO.N,unconnected-(A1-D2-Pad5)*%
X75160000Y-76500000D03*
%TO.P,A1,6,D3*%
%TO.N,unconnected-(A1-D3-Pad6)*%
X75160000Y-73960000D03*
%TO.P,A1,7,D4*%
%TO.N,unconnected-(A1-D4-Pad7)*%
X75160000Y-71420000D03*
%TO.P,A1,8,D5*%
%TO.N,unconnected-(A1-D5-Pad8)*%
X75160000Y-68880000D03*
%TO.P,A1,9,D6*%
%TO.N,unconnected-(A1-D6-Pad9)*%
X75160000Y-66340000D03*
%TO.P,A1,10,D7*%
%TO.N,unconnected-(A1-D7-Pad10)*%
X75160000Y-63800000D03*
%TO.P,A1,11,D8*%
%TO.N,/IRQ*%
X75160000Y-61260000D03*
%TO.P,A1,12,D9*%
%TO.N,/CE*%
X75160000Y-58720000D03*
%TO.P,A1,13,D10*%
%TO.N,/CSN*%
X75160000Y-56180000D03*
%TO.P,A1,14,D11*%
%TO.N,/MOSI*%
X75160000Y-53640000D03*
%TO.P,A1,15,D12*%
%TO.N,/MISO*%
X75160000Y-51100000D03*
%TO.P,A1,16,D13*%
%TO.N,/SCK*%
X90400000Y-51100000D03*
%TO.P,A1,17,3V3*%
%TO.N,unconnected-(A1-3V3-Pad17)*%
X90400000Y-53640000D03*
%TO.P,A1,18,AREF*%
%TO.N,unconnected-(A1-AREF-Pad18)*%
X90400000Y-56180000D03*
%TO.P,A1,19,A0*%
%TO.N,Net-(A1-A0)*%
X90400000Y-58720000D03*
%TO.P,A1,20,A1*%
%TO.N,Net-(A1-A1)*%
X90400000Y-61260000D03*
%TO.P,A1,21,A2*%
%TO.N,Net-(A1-A2)*%
X90400000Y-63800000D03*
%TO.P,A1,22,A3*%
%TO.N,Net-(A1-A3)*%
X90400000Y-66340000D03*
%TO.P,A1,23,A4*%
%TO.N,unconnected-(A1-A4-Pad23)*%
X90400000Y-68880000D03*
%TO.P,A1,24,A5*%
%TO.N,unconnected-(A1-A5-Pad24)*%
X90400000Y-71420000D03*
%TO.P,A1,25,A6*%
%TO.N,unconnected-(A1-A6-Pad25)*%
X90400000Y-73960000D03*
%TO.P,A1,26,A7*%
%TO.N,unconnected-(A1-A7-Pad26)*%
X90400000Y-76500000D03*
%TO.P,A1,27,+5V*%
%TO.N,Net-(A1-+5V)*%
X90400000Y-79040000D03*
%TO.P,A1,28,~{RESET}*%
%TO.N,unconnected-(A1-~{RESET}-Pad28)*%
X90400000Y-81580000D03*
%TO.P,A1,29,GND*%
%TO.N,GND*%
X90400000Y-84120000D03*
%TO.P,A1,30,VIN*%
%TO.N,+12V*%
X90400000Y-86660000D03*
%TD*%
D18*
%TO.N,*%
X109750000Y-57800000D03*
%TO.N,GND*%
X87700000Y-57100000D03*
X86000000Y-95900000D03*
X108500000Y-87900000D03*
X101700000Y-95800000D03*
X106900000Y-78400000D03*
X98200000Y-56250000D03*
X97400000Y-91800000D03*
X76850000Y-49250000D03*
X92250000Y-72700000D03*
X85400000Y-61200000D03*
X78500000Y-66100000D03*
X80000000Y-57600000D03*
X96600000Y-63800000D03*
X96400000Y-72700000D03*
X106700000Y-69200000D03*
X82600000Y-41400000D03*
X82400000Y-72100000D03*
X86800000Y-88200000D03*
X94300000Y-53700000D03*
X97000000Y-66500000D03*
X96300000Y-83200000D03*
X87900000Y-48450000D03*
X93700000Y-48200000D03*
X85700000Y-63700000D03*
X86500000Y-77700000D03*
X104800000Y-59750000D03*
X80000000Y-84300000D03*
X94600000Y-56300000D03*
X102100000Y-56300000D03*
X100000000Y-41400000D03*
X82600000Y-48600000D03*
X93750000Y-50900000D03*
%TO.N,/CSN*%
X82462347Y-66587653D03*
%TO.N,/MOSI*%
X86750000Y-68500000D03*
X95250000Y-70100000D03*
%TD*%
D19*
%TO.N,/IRQ*%
X99145000Y-65215000D02*
X82265000Y-65215000D01*
X82265000Y-65215000D02*
X78310000Y-61260000D01*
X78310000Y-61260000D02*
X75160000Y-61260000D01*
X100370000Y-66440000D02*
X99145000Y-65215000D01*
%TO.N,/CE*%
X104085000Y-65265000D02*
X105450000Y-63900000D01*
X80350000Y-62500000D02*
X97066396Y-62500000D01*
X97066396Y-62500000D02*
X99831396Y-65265000D01*
X75160000Y-58720000D02*
X76570000Y-58720000D01*
X99831396Y-65265000D02*
X104085000Y-65265000D01*
X76570000Y-58720000D02*
X80350000Y-62500000D01*
%TO.N,/CSN*%
X82462347Y-66587653D02*
X83524694Y-67650000D01*
X83524694Y-67650000D02*
X104240000Y-67650000D01*
X104240000Y-67650000D02*
X105450000Y-66440000D01*
X82462347Y-66587653D02*
X82387653Y-66587653D01*
%TO.N,/MOSI*%
X86750000Y-68500000D02*
X88400000Y-70150000D01*
X95200000Y-70150000D02*
X95250000Y-70100000D01*
X88400000Y-70150000D02*
X95200000Y-70150000D01*
%TO.N,/MISO*%
X93150000Y-62050000D02*
X91235000Y-60135000D01*
X75160000Y-51100000D02*
X76100000Y-51100000D01*
X76600000Y-51600000D02*
X76600000Y-57800000D01*
X91235000Y-60135000D02*
X78935000Y-60135000D01*
X76100000Y-51100000D02*
X76600000Y-51600000D01*
X100370000Y-63900000D02*
X98520000Y-62050000D01*
X76600000Y-57800000D02*
X78935000Y-60135000D01*
X98520000Y-62050000D02*
X93150000Y-62050000D01*
%TO.N,/SCK*%
X102910000Y-63471701D02*
X102910000Y-63900000D01*
X97805000Y-57455000D02*
X100175000Y-59825000D01*
X91525000Y-57455000D02*
X97805000Y-57455000D01*
X90400000Y-51100000D02*
X91525000Y-52225000D01*
X91525000Y-52225000D02*
X91525000Y-57455000D01*
X100175000Y-60736701D02*
X102910000Y-63471701D01*
X100175000Y-59825000D02*
X100175000Y-60736701D01*
%TO.N,+3.3V*%
X107050000Y-59827401D02*
X107027401Y-59850000D01*
X107050000Y-53900000D02*
X107050000Y-59827401D01*
%TD*%
%TA.AperFunction,Conductor*%
%TO.N,GND*%
G36*
X98901587Y-65860185D02*
G01*
X98922229Y-65876819D01*
X99029762Y-65984352D01*
X99063247Y-66045675D01*
X99061856Y-66104126D01*
X99034938Y-66204586D01*
X99034936Y-66204596D01*
X99014341Y-66439999D01*
X99014341Y-66440000D01*
X99034936Y-66675403D01*
X99034938Y-66675413D01*
X99086650Y-66868407D01*
X99084987Y-66938257D01*
X99045824Y-66996119D01*
X98981596Y-67023623D01*
X98966875Y-67024500D01*
X91710397Y-67024500D01*
X91643358Y-67004815D01*
X91597603Y-66952011D01*
X91587659Y-66882853D01*
X91598015Y-66848096D01*
X91626736Y-66786502D01*
X91626739Y-66786496D01*
X91685635Y-66566692D01*
X91705468Y-66340000D01*
X91685635Y-66113308D01*
X91664646Y-66034975D01*
X91654362Y-65996593D01*
X91656025Y-65926743D01*
X91695188Y-65868881D01*
X91759417Y-65841377D01*
X91774137Y-65840500D01*
X98834548Y-65840500D01*
X98901587Y-65860185D01*
G37*
%TD.AperFunction*%
%TA.AperFunction,Conductor*%
G36*
X89151979Y-63145185D02*
G01*
X89197734Y-63197989D01*
X89207678Y-63267147D01*
X89197322Y-63301904D01*
X89173263Y-63353497D01*
X89173258Y-63353511D01*
X89114366Y-63573302D01*
X89114364Y-63573313D01*
X89094532Y-63799998D01*
X89094532Y-63800001D01*
X89114364Y-64026686D01*
X89114366Y-64026697D01*
X89173258Y-64246488D01*
X89173260Y-64246492D01*
X89173261Y-64246496D01*
X89237698Y-64384680D01*
X89250948Y-64413095D01*
X89261440Y-64482173D01*
X89232920Y-64545957D01*
X89174444Y-64584196D01*
X89138566Y-64589500D01*
X82575452Y-64589500D01*
X82508413Y-64569815D01*
X82487771Y-64553181D01*
X81271771Y-63337181D01*
X81238286Y-63275858D01*
X81243270Y-63206166D01*
X81285142Y-63150233D01*
X81350606Y-63125816D01*
X81359452Y-63125500D01*
X89084940Y-63125500D01*
X89151979Y-63145185D01*
G37*
%TD.AperFunction*%
%TA.AperFunction,Conductor*%
G36*
X96822983Y-63145185D02*
G01*
X96843625Y-63161819D01*
X98059624Y-64377819D01*
X98093109Y-64439142D01*
X98088125Y-64508834D01*
X98046253Y-64564767D01*
X97980789Y-64589184D01*
X97971943Y-64589500D01*
X91661434Y-64589500D01*
X91594395Y-64569815D01*
X91548640Y-64517011D01*
X91538696Y-64447853D01*
X91549052Y-64413095D01*
X91562302Y-64384680D01*
X91626739Y-64246496D01*
X91685635Y-64026692D01*
X91703009Y-63828111D01*
X91705468Y-63800001D01*
X91705468Y-63799998D01*
X91692455Y-63651262D01*
X91685635Y-63573308D01*
X91639198Y-63400000D01*
X91626741Y-63353511D01*
X91626736Y-63353497D01*
X91602678Y-63301904D01*
X91592186Y-63232827D01*
X91620706Y-63169043D01*
X91679183Y-63130804D01*
X91715060Y-63125500D01*
X96755944Y-63125500D01*
X96822983Y-63145185D01*
G37*
%TD.AperFunction*%
%TA.AperFunction,Conductor*%
G36*
X89092902Y-60780185D02*
G01*
X89138657Y-60832989D01*
X89148601Y-60902147D01*
X89145638Y-60916593D01*
X89114366Y-61033302D01*
X89114364Y-61033313D01*
X89094532Y-61259998D01*
X89094532Y-61260001D01*
X89114364Y-61486686D01*
X89114366Y-61486697D01*
X89173260Y-61706496D01*
X89173839Y-61708085D01*
X89173886Y-61708831D01*
X89174662Y-61711726D01*
X89174080Y-61711881D01*
X89178273Y-61777813D01*
X89144306Y-61838870D01*
X89082720Y-61871870D01*
X89057319Y-61874500D01*
X80660453Y-61874500D01*
X80593414Y-61854815D01*
X80572772Y-61838181D01*
X79706772Y-60972181D01*
X79673287Y-60910858D01*
X79678271Y-60841166D01*
X79720143Y-60785233D01*
X79785607Y-60760816D01*
X79794453Y-60760500D01*
X89025863Y-60760500D01*
X89092902Y-60780185D01*
G37*
%TD.AperFunction*%
%TA.AperFunction,Conductor*%
G36*
X97561587Y-58100185D02*
G01*
X97582229Y-58116819D01*
X98286020Y-58820610D01*
X98319505Y-58881933D01*
X98314521Y-58951625D01*
X98272649Y-59007558D01*
X98250744Y-59020673D01*
X98132171Y-59075964D01*
X98132169Y-59075965D01*
X97938600Y-59211503D01*
X97816284Y-59333819D01*
X97754961Y-59367303D01*
X97685269Y-59362319D01*
X97629336Y-59320447D01*
X97612421Y-59289470D01*
X97563354Y-59157913D01*
X97563350Y-59157906D01*
X97477190Y-59042812D01*
X97477187Y-59042809D01*
X97362093Y-58956649D01*
X97362086Y-58956645D01*
X97227379Y-58906403D01*
X97227372Y-58906401D01*
X97167844Y-58900000D01*
X96520000Y-58900000D01*
X96520000Y-59637698D01*
X96500315Y-59704737D01*
X96447511Y-59750492D01*
X96378355Y-59760436D01*
X96305766Y-59750000D01*
X96305763Y-59750000D01*
X96234237Y-59750000D01*
X96161646Y-59760437D01*
X96092487Y-59750493D01*
X96039683Y-59704738D01*
X96019999Y-59637699D01*
X96020000Y-58900000D01*
X95372155Y-58900000D01*
X95312627Y-58906401D01*
X95312620Y-58906403D01*
X95177913Y-58956645D01*
X95177906Y-58956649D01*
X95062812Y-59042809D01*
X95062809Y-59042812D01*
X94976649Y-59157906D01*
X94976645Y-59157913D01*
X94926403Y-59292620D01*
X94926401Y-59292627D01*
X94920000Y-59352155D01*
X94920000Y-60000000D01*
X95656653Y-60000000D01*
X95723692Y-60019685D01*
X95769447Y-60072489D01*
X95779391Y-60141647D01*
X95775631Y-60158933D01*
X95770000Y-60178111D01*
X95770000Y-60321888D01*
X95775631Y-60341067D01*
X95775630Y-60410936D01*
X95737855Y-60469714D01*
X95674299Y-60498738D01*
X95656653Y-60500000D01*
X94920000Y-60500000D01*
X94920000Y-61147844D01*
X94926401Y-61207372D01*
X94926402Y-61207376D01*
X94944973Y-61257166D01*
X94949957Y-61326858D01*
X94916472Y-61388181D01*
X94855149Y-61421666D01*
X94828791Y-61424500D01*
X93460452Y-61424500D01*
X93393413Y-61404815D01*
X93372771Y-61388181D01*
X92566213Y-60581623D01*
X91735803Y-59751212D01*
X91725980Y-59738950D01*
X91725759Y-59739134D01*
X91720786Y-59733123D01*
X91714331Y-59727061D01*
X91670364Y-59685773D01*
X91659919Y-59675328D01*
X91649475Y-59664883D01*
X91643986Y-59660625D01*
X91639561Y-59656847D01*
X91605582Y-59624938D01*
X91605580Y-59624936D01*
X91605577Y-59624935D01*
X91588029Y-59615288D01*
X91571763Y-59604604D01*
X91555932Y-59592324D01*
X91549219Y-59588354D01*
X91550185Y-59586719D01*
X91504288Y-59548528D01*
X91483268Y-59481895D01*
X91501609Y-59414476D01*
X91505654Y-59408313D01*
X91530568Y-59372734D01*
X91626739Y-59166496D01*
X91685635Y-58946692D01*
X91705468Y-58720000D01*
X91685635Y-58493308D01*
X91626739Y-58273504D01*
X91618998Y-58256905D01*
X91608506Y-58187830D01*
X91637024Y-58124045D01*
X91695500Y-58085805D01*
X91731380Y-58080500D01*
X97494548Y-58080500D01*
X97561587Y-58100185D01*
G37*
%TD.AperFunction*%
%TA.AperFunction,Conductor*%
G36*
X103427512Y-50479507D02*
G01*
X103480315Y-50525262D01*
X103500000Y-50592301D01*
X103500000Y-51907698D01*
X103480315Y-51974737D01*
X103427511Y-52020492D01*
X103358355Y-52030436D01*
X103285766Y-52020000D01*
X103285763Y-52020000D01*
X103214237Y-52020000D01*
X103214233Y-52020000D01*
X103141645Y-52030436D01*
X103072487Y-52020492D01*
X103019684Y-51974736D01*
X103000000Y-51907698D01*
X103000000Y-50592301D01*
X103019685Y-50525262D01*
X103072489Y-50479507D01*
X103141647Y-50469563D01*
X103214237Y-50480000D01*
X103214238Y-50480000D01*
X103285762Y-50480000D01*
X103285763Y-50480000D01*
X103358353Y-50469563D01*
X103427512Y-50479507D01*
G37*
%TD.AperFunction*%
%TA.AperFunction,Conductor*%
G36*
X103427512Y-47939507D02*
G01*
X103480315Y-47985262D01*
X103500000Y-48052301D01*
X103500000Y-49367698D01*
X103480315Y-49434737D01*
X103427511Y-49480492D01*
X103358355Y-49490436D01*
X103285766Y-49480000D01*
X103285763Y-49480000D01*
X103214237Y-49480000D01*
X103214233Y-49480000D01*
X103141645Y-49490436D01*
X103072487Y-49480492D01*
X103019684Y-49434736D01*
X103000000Y-49367698D01*
X103000000Y-48052301D01*
X103019685Y-47985262D01*
X103072489Y-47939507D01*
X103141647Y-47929563D01*
X103214237Y-47940000D01*
X103214238Y-47940000D01*
X103285762Y-47940000D01*
X103285763Y-47940000D01*
X103358353Y-47929563D01*
X103427512Y-47939507D01*
G37*
%TD.AperFunction*%
%TA.AperFunction,Conductor*%
G36*
X103427512Y-45399507D02*
G01*
X103480315Y-45445262D01*
X103500000Y-45512301D01*
X103500000Y-46827698D01*
X103480315Y-46894737D01*
X103427511Y-46940492D01*
X103358355Y-46950436D01*
X103285766Y-46940000D01*
X103285763Y-46940000D01*
X103214237Y-46940000D01*
X103214233Y-46940000D01*
X103141645Y-46950436D01*
X103072487Y-46940492D01*
X103019684Y-46894736D01*
X103000000Y-46827698D01*
X103000000Y-45512301D01*
X103019685Y-45445262D01*
X103072489Y-45399507D01*
X103141647Y-45389563D01*
X103214237Y-45400000D01*
X103214238Y-45400000D01*
X103285762Y-45400000D01*
X103285763Y-45400000D01*
X103358353Y-45389563D01*
X103427512Y-45399507D01*
G37*
%TD.AperFunction*%
%TA.AperFunction,Conductor*%
G36*
X106867139Y-33110495D02*
G01*
X107081414Y-33118914D01*
X107085852Y-33119252D01*
X107341053Y-33148006D01*
X107568742Y-33174955D01*
X107572963Y-33175603D01*
X107822573Y-33222832D01*
X108050401Y-33268150D01*
X108054251Y-33269048D01*
X108289838Y-33332174D01*
X108298601Y-33334522D01*
X108523366Y-33397912D01*
X108527005Y-33399060D01*
X108765249Y-33482425D01*
X108985066Y-33563520D01*
X108988383Y-33564855D01*
X109219434Y-33665662D01*
X109432661Y-33763961D01*
X109435650Y-33765438D01*
X109617291Y-33861438D01*
X109658408Y-33883169D01*
X109863604Y-33998084D01*
X109866250Y-33999655D01*
X109988945Y-34076749D01*
X110079542Y-34133675D01*
X110275293Y-34264472D01*
X110277650Y-34266127D01*
X110480310Y-34415697D01*
X110480326Y-34415709D01*
X110666413Y-34562408D01*
X110858400Y-34727627D01*
X111032422Y-34888492D01*
X111211507Y-35067577D01*
X111372369Y-35241596D01*
X111506647Y-35397629D01*
X111537590Y-35433585D01*
X111684290Y-35619673D01*
X111833860Y-35822333D01*
X111835526Y-35824705D01*
X111966324Y-36020457D01*
X112100326Y-36233719D01*
X112101924Y-36236411D01*
X112216830Y-36441591D01*
X112334547Y-36664322D01*
X112336037Y-36667336D01*
X112434337Y-36880565D01*
X112535143Y-37111615D01*
X112536485Y-37114950D01*
X112617580Y-37334766D01*
X112700935Y-37572984D01*
X112702086Y-37576632D01*
X112765477Y-37801398D01*
X112830941Y-38045711D01*
X112831858Y-38049642D01*
X112864188Y-38212175D01*
X112877172Y-38277451D01*
X112924393Y-38527026D01*
X112925044Y-38531266D01*
X112951994Y-38758959D01*
X112980744Y-39014123D01*
X112981087Y-39018633D01*
X112989512Y-39233083D01*
X112999500Y-39500000D01*
X112999500Y-95500000D01*
X112989512Y-95766916D01*
X112981087Y-95981365D01*
X112980744Y-95985875D01*
X112951994Y-96241040D01*
X112925044Y-96468732D01*
X112924393Y-96472972D01*
X112877172Y-96722548D01*
X112831863Y-96950334D01*
X112830941Y-96954287D01*
X112765477Y-97198601D01*
X112702086Y-97423366D01*
X112700935Y-97427014D01*
X112617580Y-97665233D01*
X112536484Y-97885048D01*
X112535143Y-97888383D01*
X112434337Y-98119434D01*
X112336037Y-98332662D01*
X112334547Y-98335676D01*
X112216830Y-98558408D01*
X112101924Y-98763587D01*
X112100326Y-98766278D01*
X111966324Y-98979542D01*
X111835526Y-99175293D01*
X111833860Y-99177665D01*
X111684290Y-99380325D01*
X111537590Y-99566414D01*
X111372376Y-99758396D01*
X111211507Y-99932422D01*
X111032422Y-100111507D01*
X110858396Y-100272376D01*
X110666414Y-100437590D01*
X110480325Y-100584290D01*
X110277665Y-100733860D01*
X110275293Y-100735526D01*
X110079542Y-100866324D01*
X109866278Y-101000326D01*
X109863587Y-101001924D01*
X109658408Y-101116830D01*
X109435676Y-101234547D01*
X109432662Y-101236037D01*
X109219434Y-101334337D01*
X108988383Y-101435143D01*
X108985048Y-101436484D01*
X108765233Y-101517580D01*
X108527014Y-101600935D01*
X108523366Y-101602086D01*
X108298601Y-101665477D01*
X108054287Y-101730941D01*
X108050343Y-101731860D01*
X107921562Y-101757477D01*
X107822548Y-101777172D01*
X107572972Y-101824393D01*
X107568732Y-101825044D01*
X107341040Y-101851994D01*
X107085875Y-101880744D01*
X107081365Y-101881087D01*
X106866916Y-101889512D01*
X106600000Y-101899500D01*
X78300000Y-101899500D01*
X78033083Y-101889512D01*
X77818633Y-101881087D01*
X77814123Y-101880744D01*
X77558959Y-101851994D01*
X77331266Y-101825044D01*
X77327026Y-101824393D01*
X77077451Y-101777172D01*
X77062664Y-101774230D01*
X76849642Y-101731858D01*
X76845711Y-101730941D01*
X76601398Y-101665477D01*
X76376632Y-101602086D01*
X76372984Y-101600935D01*
X76134766Y-101517580D01*
X75914950Y-101436485D01*
X75911615Y-101435143D01*
X75680565Y-101334337D01*
X75467336Y-101236037D01*
X75464322Y-101234547D01*
X75241591Y-101116830D01*
X75036411Y-101001924D01*
X75033719Y-101000326D01*
X74820457Y-100866324D01*
X74624705Y-100735526D01*
X74622333Y-100733860D01*
X74419673Y-100584290D01*
X74233585Y-100437590D01*
X74041610Y-100272382D01*
X73867577Y-100111507D01*
X73688492Y-99932422D01*
X73527627Y-99758400D01*
X73362408Y-99566413D01*
X73215709Y-99380326D01*
X73215708Y-99380325D01*
X73066127Y-99177650D01*
X73064472Y-99175293D01*
X72933675Y-98979542D01*
X72799655Y-98766250D01*
X72798084Y-98763604D01*
X72683169Y-98558408D01*
X72648518Y-98492846D01*
X72565438Y-98335650D01*
X72563961Y-98332661D01*
X72465662Y-98119434D01*
X72364855Y-97888383D01*
X72363520Y-97885066D01*
X72282419Y-97665233D01*
X72199060Y-97427005D01*
X72197912Y-97423366D01*
X72134522Y-97198601D01*
X72123571Y-97157731D01*
X72069048Y-96954251D01*
X72068150Y-96950401D01*
X72022828Y-96722548D01*
X71975603Y-96472963D01*
X71974954Y-96468732D01*
X71974699Y-96466580D01*
X71948003Y-96241023D01*
X71919252Y-95985852D01*
X71918914Y-95981414D01*
X71910487Y-95766916D01*
X71903035Y-95567763D01*
X76445787Y-95567763D01*
X76475413Y-95837013D01*
X76475415Y-95837024D01*
X76513151Y-95981365D01*
X76543928Y-96099088D01*
X76649870Y-96348390D01*
X76714199Y-96453796D01*
X76790979Y-96579605D01*
X76790986Y-96579615D01*
X76964253Y-96787819D01*
X76964259Y-96787824D01*
X77165998Y-96968582D01*
X77391910Y-97118044D01*
X77637176Y-97233020D01*
X77637183Y-97233022D01*
X77637185Y-97233023D01*
X77896557Y-97311057D01*
X77896564Y-97311058D01*
X77896569Y-97311060D01*
X78164561Y-97350500D01*
X78164566Y-97350500D01*
X78367636Y-97350500D01*
X78419133Y-97346730D01*
X78570156Y-97335677D01*
X78682758Y-97310593D01*
X78834546Y-97276782D01*
X78834548Y-97276781D01*
X78834553Y-97276780D01*
X79087558Y-97180014D01*
X79323777Y-97047441D01*
X79538177Y-96881888D01*
X79726186Y-96686881D01*
X79883799Y-96466579D01*
X79957787Y-96322669D01*
X80007649Y-96225690D01*
X80007651Y-96225684D01*
X80007656Y-96225675D01*
X80091004Y-95981365D01*
X80095115Y-95969314D01*
X80095115Y-95969313D01*
X80095118Y-95969305D01*
X80144319Y-95702933D01*
X80149259Y-95567763D01*
X104745787Y-95567763D01*
X104775413Y-95837013D01*
X104775415Y-95837024D01*
X104813151Y-95981365D01*
X104843928Y-96099088D01*
X104949870Y-96348390D01*
X105014199Y-96453796D01*
X105090979Y-96579605D01*
X105090986Y-96579615D01*
X105264253Y-96787819D01*
X105264259Y-96787824D01*
X105465998Y-96968582D01*
X105691910Y-97118044D01*
X105937176Y-97233020D01*
X105937183Y-97233022D01*
X105937185Y-97233023D01*
X106196557Y-97311057D01*
X106196564Y-97311058D01*
X106196569Y-97311060D01*
X106464561Y-97350500D01*
X106464566Y-97350500D01*
X106667636Y-97350500D01*
X106719133Y-97346730D01*
X106870156Y-97335677D01*
X106982758Y-97310593D01*
X107134546Y-97276782D01*
X107134548Y-97276781D01*
X107134553Y-97276780D01*
X107387558Y-97180014D01*
X107623777Y-97047441D01*
X107838177Y-96881888D01*
X108026186Y-96686881D01*
X108183799Y-96466579D01*
X108257787Y-96322669D01*
X108307649Y-96225690D01*
X108307651Y-96225684D01*
X108307656Y-96225675D01*
X108391004Y-95981365D01*
X108395115Y-95969314D01*
X108395115Y-95969313D01*
X108395118Y-95969305D01*
X108444319Y-95702933D01*
X108454212Y-95432235D01*
X108424586Y-95162982D01*
X108356072Y-94900912D01*
X108250130Y-94651610D01*
X108109018Y-94420390D01*
X108019747Y-94313119D01*
X107935746Y-94212180D01*
X107935740Y-94212175D01*
X107734002Y-94031418D01*
X107508092Y-93881957D01*
X107508090Y-93881956D01*
X107262824Y-93766980D01*
X107262819Y-93766978D01*
X107262814Y-93766976D01*
X107003442Y-93688942D01*
X107003428Y-93688939D01*
X106887791Y-93671921D01*
X106735439Y-93649500D01*
X106532369Y-93649500D01*
X106532364Y-93649500D01*
X106329844Y-93664323D01*
X106329831Y-93664325D01*
X106065453Y-93723217D01*
X106065446Y-93723220D01*
X105812439Y-93819987D01*
X105576226Y-93952557D01*
X105361822Y-94118112D01*
X105173822Y-94313109D01*
X105173816Y-94313116D01*
X105016202Y-94533419D01*
X105016199Y-94533424D01*
X104892350Y-94774309D01*
X104892343Y-94774327D01*
X104804884Y-95030685D01*
X104804881Y-95030699D01*
X104755681Y-95297068D01*
X104755680Y-95297075D01*
X104745787Y-95567763D01*
X80149259Y-95567763D01*
X80154212Y-95432235D01*
X80124586Y-95162982D01*
X80056072Y-94900912D01*
X79950130Y-94651610D01*
X79809018Y-94420390D01*
X79719747Y-94313119D01*
X79635746Y-94212180D01*
X79635740Y-94212175D01*
X79434002Y-94031418D01*
X79208092Y-93881957D01*
X79208090Y-93881956D01*
X78962824Y-93766980D01*
X78962819Y-93766978D01*
X78962814Y-93766976D01*
X78703442Y-93688942D01*
X78703428Y-93688939D01*
X78587791Y-93671921D01*
X78435439Y-93649500D01*
X78232369Y-93649500D01*
X78232364Y-93649500D01*
X78029844Y-93664323D01*
X78029831Y-93664325D01*
X77765453Y-93723217D01*
X77765446Y-93723220D01*
X77512439Y-93819987D01*
X77276226Y-93952557D01*
X77061822Y-94118112D01*
X76873822Y-94313109D01*
X76873816Y-94313116D01*
X76716202Y-94533419D01*
X76716199Y-94533424D01*
X76592350Y-94774309D01*
X76592343Y-94774327D01*
X76504884Y-95030685D01*
X76504881Y-95030699D01*
X76455681Y-95297068D01*
X76455680Y-95297075D01*
X76445787Y-95567763D01*
X71903035Y-95567763D01*
X71900500Y-95500000D01*
X71920821Y-84120001D01*
X73854532Y-84120001D01*
X73874364Y-84346686D01*
X73874366Y-84346697D01*
X73933258Y-84566488D01*
X73933261Y-84566497D01*
X74029431Y-84772732D01*
X74029432Y-84772734D01*
X74159954Y-84959141D01*
X74320858Y-85120045D01*
X74345462Y-85137273D01*
X74389087Y-85191849D01*
X74396281Y-85261348D01*
X74364758Y-85323703D01*
X74304529Y-85359117D01*
X74287593Y-85362138D01*
X74252516Y-85365908D01*
X74117671Y-85416202D01*
X74117664Y-85416206D01*
X74002455Y-85502452D01*
X74002452Y-85502455D01*
X73916206Y-85617664D01*
X73916202Y-85617671D01*
X73865908Y-85752517D01*
X73859501Y-85812116D01*
X73859501Y-85812123D01*
X73859500Y-85812135D01*
X73859500Y-87507870D01*
X73859501Y-87507876D01*
X73865908Y-87567483D01*
X73916202Y-87702328D01*
X73916206Y-87702335D01*
X74002452Y-87817544D01*
X74002455Y-87817547D01*
X74117664Y-87903793D01*
X74117671Y-87903797D01*
X74252517Y-87954091D01*
X74252516Y-87954091D01*
X74259444Y-87954835D01*
X74312127Y-87960500D01*
X76007872Y-87960499D01*
X76067483Y-87954091D01*
X76202331Y-87903796D01*
X76317546Y-87817546D01*
X76403796Y-87702331D01*
X76454091Y-87567483D01*
X76460500Y-87507873D01*
X76460499Y-85812128D01*
X76454091Y-85752517D01*
X76419567Y-85659954D01*
X76403797Y-85617671D01*
X76403793Y-85617664D01*
X76317547Y-85502455D01*
X76317544Y-85502452D01*
X76202335Y-85416206D01*
X76202328Y-85416202D01*
X76067482Y-85365908D01*
X76067483Y-85365908D01*
X76032404Y-85362137D01*
X75967853Y-85335399D01*
X75928005Y-85278006D01*
X75925512Y-85208181D01*
X75961165Y-85148092D01*
X75974539Y-85137272D01*
X75999140Y-85120046D01*
X76160045Y-84959141D01*
X76160044Y-84959141D01*
X76160047Y-84959139D01*
X76290568Y-84772734D01*
X76386739Y-84566496D01*
X76445635Y-84346692D01*
X76465468Y-84120000D01*
X76445635Y-83893308D01*
X76386739Y-83673504D01*
X76290568Y-83467266D01*
X76160047Y-83280861D01*
X76160045Y-83280858D01*
X75999141Y-83119954D01*
X75812734Y-82989432D01*
X75812728Y-82989429D01*
X75754725Y-82962382D01*
X75702285Y-82916210D01*
X75683133Y-82849017D01*
X75703348Y-82782135D01*
X75754725Y-82737618D01*
X75812734Y-82710568D01*
X75999139Y-82580047D01*
X76160047Y-82419139D01*
X76290568Y-82232734D01*
X76386739Y-82026496D01*
X76445635Y-81806692D01*
X76465468Y-81580000D01*
X76445635Y-81353308D01*
X76386739Y-81133504D01*
X76290568Y-80927266D01*
X76160047Y-80740861D01*
X76160045Y-80740858D01*
X75999141Y-80579954D01*
X75812734Y-80449432D01*
X75812732Y-80449431D01*
X75754725Y-80422382D01*
X75754132Y-80422105D01*
X75701694Y-80375934D01*
X75682542Y-80308740D01*
X75702758Y-80241859D01*
X75754134Y-80197341D01*
X75812484Y-80170132D01*
X75998820Y-80039657D01*
X76159657Y-79878820D01*
X76290134Y-79692482D01*
X76386265Y-79486326D01*
X76386269Y-79486317D01*
X76438872Y-79290000D01*
X75773347Y-79290000D01*
X75706308Y-79270315D01*
X75660553Y-79217511D01*
X75650609Y-79148353D01*
X75654369Y-79131067D01*
X75660000Y-79111888D01*
X75660000Y-78968111D01*
X75654369Y-78948933D01*
X75654370Y-78879064D01*
X75692145Y-78820286D01*
X75755701Y-78791262D01*
X75773347Y-78790000D01*
X76438872Y-78790000D01*
X76438872Y-78789999D01*
X76386269Y-78593682D01*
X76386265Y-78593673D01*
X76290134Y-78387517D01*
X76159657Y-78201179D01*
X75998820Y-78040342D01*
X75812482Y-77909865D01*
X75754133Y-77882657D01*
X75701694Y-77836484D01*
X75682542Y-77769291D01*
X75702758Y-77702410D01*
X75754129Y-77657895D01*
X75812734Y-77630568D01*
X75999139Y-77500047D01*
X76160047Y-77339139D01*
X76290568Y-77152734D01*
X76386739Y-76946496D01*
X76445635Y-76726692D01*
X76465468Y-76500000D01*
X76445635Y-76273308D01*
X76386739Y-76053504D01*
X76290568Y-75847266D01*
X76160047Y-75660861D01*
X76160045Y-75660858D01*
X75999141Y-75499954D01*
X75812734Y-75369432D01*
X75812728Y-75369429D01*
X75754725Y-75342382D01*
X75702285Y-75296210D01*
X75683133Y-75229017D01*
X75703348Y-75162135D01*
X75754725Y-75117618D01*
X75812734Y-75090568D01*
X75999139Y-74960047D01*
X76160047Y-74799139D01*
X76290568Y-74612734D01*
X76386739Y-74406496D01*
X76445635Y-74186692D01*
X76465468Y-73960000D01*
X76445635Y-73733308D01*
X76386739Y-73513504D01*
X76290568Y-73307266D01*
X76160047Y-73120861D01*
X76160045Y-73120858D01*
X75999141Y-72959954D01*
X75812734Y-72829432D01*
X75812728Y-72829429D01*
X75754725Y-72802382D01*
X75702285Y-72756210D01*
X75683133Y-72689017D01*
X75703348Y-72622135D01*
X75754725Y-72577618D01*
X75812734Y-72550568D01*
X75999139Y-72420047D01*
X76160047Y-72259139D01*
X76290568Y-72072734D01*
X76386739Y-71866496D01*
X76445635Y-71646692D01*
X76465468Y-71420000D01*
X76445635Y-71193308D01*
X76386739Y-70973504D01*
X76290568Y-70767266D01*
X76160047Y-70580861D01*
X76160045Y-70580858D01*
X75999141Y-70419954D01*
X75812734Y-70289432D01*
X75812728Y-70289429D01*
X75754725Y-70262382D01*
X75702285Y-70216210D01*
X75683133Y-70149017D01*
X75703348Y-70082135D01*
X75754725Y-70037618D01*
X75812734Y-70010568D01*
X75999139Y-69880047D01*
X76160047Y-69719139D01*
X76290568Y-69532734D01*
X76386739Y-69326496D01*
X76445635Y-69106692D01*
X76465468Y-68880000D01*
X76464442Y-68868277D01*
X76459801Y-68815230D01*
X76445635Y-68653308D01*
X76386739Y-68433504D01*
X76290568Y-68227266D01*
X76160047Y-68040861D01*
X76160045Y-68040858D01*
X75999141Y-67879954D01*
X75812734Y-67749432D01*
X75812728Y-67749429D01*
X75754725Y-67722382D01*
X75702285Y-67676210D01*
X75683133Y-67609017D01*
X75703348Y-67542135D01*
X75754725Y-67497618D01*
X75812734Y-67470568D01*
X75999139Y-67340047D01*
X76160047Y-67179139D01*
X76290568Y-66992734D01*
X76386739Y-66786496D01*
X76445635Y-66566692D01*
X76465468Y-66340000D01*
X76445635Y-66113308D01*
X76386739Y-65893504D01*
X76290568Y-65687266D01*
X76160047Y-65500861D01*
X76160045Y-65500858D01*
X75999141Y-65339954D01*
X75812734Y-65209432D01*
X75812728Y-65209429D01*
X75754725Y-65182382D01*
X75702285Y-65136210D01*
X75683133Y-65069017D01*
X75703348Y-65002135D01*
X75754725Y-64957618D01*
X75812734Y-64930568D01*
X75999139Y-64800047D01*
X76160047Y-64639139D01*
X76290568Y-64452734D01*
X76386739Y-64246496D01*
X76445635Y-64026692D01*
X76463009Y-63828111D01*
X76465468Y-63800001D01*
X76465468Y-63799998D01*
X76452455Y-63651262D01*
X76445635Y-63573308D01*
X76399198Y-63400000D01*
X76386741Y-63353511D01*
X76386738Y-63353502D01*
X76321760Y-63214158D01*
X76290568Y-63147266D01*
X76160047Y-62960861D01*
X76160045Y-62960858D01*
X75999141Y-62799954D01*
X75812734Y-62669432D01*
X75812728Y-62669429D01*
X75754725Y-62642382D01*
X75702285Y-62596210D01*
X75683133Y-62529017D01*
X75703348Y-62462135D01*
X75754725Y-62417618D01*
X75812734Y-62390568D01*
X75999139Y-62260047D01*
X76160047Y-62099139D01*
X76272612Y-61938377D01*
X76327189Y-61894752D01*
X76374188Y-61885500D01*
X77999548Y-61885500D01*
X78066587Y-61905185D01*
X78087229Y-61921819D01*
X81764194Y-65598784D01*
X81774019Y-65611048D01*
X81774240Y-65610866D01*
X81779210Y-65616873D01*
X81779213Y-65616876D01*
X81779214Y-65616877D01*
X81829651Y-65664241D01*
X81850530Y-65685120D01*
X81856004Y-65689366D01*
X81860445Y-65693159D01*
X81882497Y-65713867D01*
X81917891Y-65774108D01*
X81915099Y-65843922D01*
X81875005Y-65901143D01*
X81870499Y-65904576D01*
X81856478Y-65914762D01*
X81856476Y-65914764D01*
X81729813Y-66055438D01*
X81635168Y-66219368D01*
X81635165Y-66219375D01*
X81595972Y-66340000D01*
X81576673Y-66399397D01*
X81572406Y-66439999D01*
X81559090Y-66566697D01*
X81556887Y-66587653D01*
X81576673Y-66775909D01*
X81576674Y-66775912D01*
X81635165Y-66955930D01*
X81635168Y-66955937D01*
X81729814Y-67119869D01*
X81783183Y-67179141D01*
X81856476Y-67260541D01*
X82009612Y-67371801D01*
X82009617Y-67371804D01*
X82182539Y-67448795D01*
X82182544Y-67448797D01*
X82367701Y-67488153D01*
X82426895Y-67488153D01*
X82493934Y-67507838D01*
X82514576Y-67524472D01*
X83023888Y-68033784D01*
X83033713Y-68046048D01*
X83033934Y-68045866D01*
X83038904Y-68051873D01*
X83038907Y-68051876D01*
X83038908Y-68051877D01*
X83089345Y-68099241D01*
X83110224Y-68120120D01*
X83115698Y-68124366D01*
X83120136Y-68128156D01*
X83154112Y-68160062D01*
X83154116Y-68160064D01*
X83171667Y-68169713D01*
X83187925Y-68180392D01*
X83203758Y-68192674D01*
X83225709Y-68202172D01*
X83246531Y-68211183D01*
X83251775Y-68213752D01*
X83292602Y-68236197D01*
X83312006Y-68241179D01*
X83330404Y-68247478D01*
X83348799Y-68255438D01*
X83394823Y-68262726D01*
X83400526Y-68263907D01*
X83445675Y-68275500D01*
X83465710Y-68275500D01*
X83485107Y-68277026D01*
X83504890Y-68280160D01*
X83551277Y-68275775D01*
X83557116Y-68275500D01*
X85730420Y-68275500D01*
X85797459Y-68295185D01*
X85843214Y-68347989D01*
X85853740Y-68412459D01*
X85844540Y-68500000D01*
X85864326Y-68688256D01*
X85864327Y-68688259D01*
X85922818Y-68868277D01*
X85922821Y-68868284D01*
X86017467Y-69032216D01*
X86144128Y-69172887D01*
X86144129Y-69172888D01*
X86297265Y-69284148D01*
X86297270Y-69284151D01*
X86470192Y-69361142D01*
X86470197Y-69361144D01*
X86655354Y-69400500D01*
X86714548Y-69400500D01*
X86781587Y-69420185D01*
X86802229Y-69436819D01*
X87899197Y-70533788D01*
X87909022Y-70546051D01*
X87909243Y-70545869D01*
X87914214Y-70551878D01*
X87940217Y-70576295D01*
X87964635Y-70599226D01*
X87985529Y-70620120D01*
X87991011Y-70624373D01*
X87995443Y-70628157D01*
X88029418Y-70660062D01*
X88046976Y-70669714D01*
X88063235Y-70680395D01*
X88079064Y-70692673D01*
X88121838Y-70711182D01*
X88127056Y-70713738D01*
X88167908Y-70736197D01*
X88187316Y-70741180D01*
X88205717Y-70747480D01*
X88224104Y-70755437D01*
X88267488Y-70762308D01*
X88270119Y-70762725D01*
X88275839Y-70763909D01*
X88320981Y-70775500D01*
X88341016Y-70775500D01*
X88360414Y-70777026D01*
X88380194Y-70780159D01*
X88380195Y-70780160D01*
X88380195Y-70780159D01*
X88380196Y-70780160D01*
X88426583Y-70775775D01*
X88432422Y-70775500D01*
X89070951Y-70775500D01*
X89137990Y-70795185D01*
X89183745Y-70847989D01*
X89193689Y-70917147D01*
X89183333Y-70951905D01*
X89173262Y-70973502D01*
X89173258Y-70973511D01*
X89114366Y-71193302D01*
X89114364Y-71193313D01*
X89094532Y-71419998D01*
X89094532Y-71420001D01*
X89114364Y-71646686D01*
X89114366Y-71646697D01*
X89173258Y-71866488D01*
X89173261Y-71866497D01*
X89269431Y-72072732D01*
X89269432Y-72072734D01*
X89399954Y-72259141D01*
X89560858Y-72420045D01*
X89560861Y-72420047D01*
X89747266Y-72550568D01*
X89805275Y-72577618D01*
X89857714Y-72623791D01*
X89876866Y-72690984D01*
X89856650Y-72757865D01*
X89805275Y-72802382D01*
X89747267Y-72829431D01*
X89747265Y-72829432D01*
X89560858Y-72959954D01*
X89399954Y-73120858D01*
X89269432Y-73307265D01*
X89269431Y-73307267D01*
X89173261Y-73513502D01*
X89173258Y-73513511D01*
X89114366Y-73733302D01*
X89114364Y-73733313D01*
X89094532Y-73959998D01*
X89094532Y-73960001D01*
X89114364Y-74186686D01*
X89114366Y-74186697D01*
X89173258Y-74406488D01*
X89173261Y-74406497D01*
X89269431Y-74612732D01*
X89269432Y-74612734D01*
X89399954Y-74799141D01*
X89560858Y-74960045D01*
X89560861Y-74960047D01*
X89747266Y-75090568D01*
X89805275Y-75117618D01*
X89857714Y-75163791D01*
X89876866Y-75230984D01*
X89856650Y-75297865D01*
X89805275Y-75342382D01*
X89747267Y-75369431D01*
X89747265Y-75369432D01*
X89560858Y-75499954D01*
X89399954Y-75660858D01*
X89269432Y-75847265D01*
X89269431Y-75847267D01*
X89173261Y-76053502D01*
X89173258Y-76053511D01*
X89114366Y-76273302D01*
X89114364Y-76273313D01*
X89094532Y-76499998D01*
X89094532Y-76500001D01*
X89114364Y-76726686D01*
X89114366Y-76726697D01*
X89173258Y-76946488D01*
X89173261Y-76946497D01*
X89269431Y-77152732D01*
X89269432Y-77152734D01*
X89399954Y-77339141D01*
X89560858Y-77500045D01*
X89560861Y-77500047D01*
X89747266Y-77630568D01*
X89805275Y-77657618D01*
X89857714Y-77703791D01*
X89876866Y-77770984D01*
X89856650Y-77837865D01*
X89805275Y-77882382D01*
X89747267Y-77909431D01*
X89747265Y-77909432D01*
X89560858Y-78039954D01*
X89399954Y-78200858D01*
X89269432Y-78387265D01*
X89269431Y-78387267D01*
X89173261Y-78593502D01*
X89173258Y-78593511D01*
X89114366Y-78813302D01*
X89114364Y-78813313D01*
X89094532Y-79039998D01*
X89094532Y-79040001D01*
X89114364Y-79266686D01*
X89114366Y-79266697D01*
X89173258Y-79486488D01*
X89173261Y-79486497D01*
X89269431Y-79692732D01*
X89269432Y-79692734D01*
X89399954Y-79879141D01*
X89560858Y-80040045D01*
X89560861Y-80040047D01*
X89747266Y-80170568D01*
X89804681Y-80197341D01*
X89805275Y-80197618D01*
X89857714Y-80243791D01*
X89876866Y-80310984D01*
X89856650Y-80377865D01*
X89805275Y-80422382D01*
X89747267Y-80449431D01*
X89747265Y-80449432D01*
X89560858Y-80579954D01*
X89399954Y-80740858D01*
X89269432Y-80927265D01*
X89269431Y-80927267D01*
X89173261Y-81133502D01*
X89173258Y-81133511D01*
X89114366Y-81353302D01*
X89114364Y-81353313D01*
X89094532Y-81579998D01*
X89094532Y-81580001D01*
X89114364Y-81806686D01*
X89114366Y-81806697D01*
X89173258Y-82026488D01*
X89173261Y-82026497D01*
X89269431Y-82232732D01*
X89269432Y-82232734D01*
X89399954Y-82419141D01*
X89560858Y-82580045D01*
X89560861Y-82580047D01*
X89747266Y-82710568D01*
X89805865Y-82737893D01*
X89858305Y-82784065D01*
X89877457Y-82851258D01*
X89857242Y-82918139D01*
X89805867Y-82962657D01*
X89747515Y-82989867D01*
X89561179Y-83120342D01*
X89400342Y-83281179D01*
X89269865Y-83467517D01*
X89173734Y-83673673D01*
X89173730Y-83673682D01*
X89121127Y-83869999D01*
X89121128Y-83870000D01*
X89786653Y-83870000D01*
X89853692Y-83889685D01*
X89899447Y-83942489D01*
X89909391Y-84011647D01*
X89905631Y-84028933D01*
X89900000Y-84048111D01*
X89900000Y-84191888D01*
X89905631Y-84211067D01*
X89905630Y-84280936D01*
X89867855Y-84339714D01*
X89804299Y-84368738D01*
X89786653Y-84370000D01*
X89121128Y-84370000D01*
X89173730Y-84566317D01*
X89173734Y-84566326D01*
X89269865Y-84772482D01*
X89400342Y-84958820D01*
X89561179Y-85119657D01*
X89747518Y-85250134D01*
X89747520Y-85250135D01*
X89805865Y-85277342D01*
X89858305Y-85323514D01*
X89877457Y-85390707D01*
X89857242Y-85457589D01*
X89805867Y-85502105D01*
X89747268Y-85529431D01*
X89747264Y-85529433D01*
X89560858Y-85659954D01*
X89399954Y-85820858D01*
X89269432Y-86007265D01*
X89269431Y-86007267D01*
X89173261Y-86213502D01*
X89173258Y-86213511D01*
X89114366Y-86433302D01*
X89114364Y-86433313D01*
X89094532Y-86659998D01*
X89094532Y-86660001D01*
X89114364Y-86886686D01*
X89114366Y-86886697D01*
X89173258Y-87106488D01*
X89173261Y-87106497D01*
X89269431Y-87312732D01*
X89269432Y-87312734D01*
X89399954Y-87499141D01*
X89560858Y-87660045D01*
X89560861Y-87660047D01*
X89747266Y-87790568D01*
X89953504Y-87886739D01*
X90173308Y-87945635D01*
X90335230Y-87959801D01*
X90399998Y-87965468D01*
X90400000Y-87965468D01*
X90400002Y-87965468D01*
X90456807Y-87960498D01*
X90626692Y-87945635D01*
X90846496Y-87886739D01*
X91052734Y-87790568D01*
X91239139Y-87660047D01*
X91400047Y-87499139D01*
X91530568Y-87312734D01*
X91626739Y-87106496D01*
X91685635Y-86886692D01*
X91705468Y-86660000D01*
X91685635Y-86433308D01*
X91626739Y-86213504D01*
X91530568Y-86007266D01*
X91400047Y-85820861D01*
X91400045Y-85820858D01*
X91239141Y-85659954D01*
X91052734Y-85529432D01*
X91052732Y-85529431D01*
X91041275Y-85524088D01*
X90994132Y-85502105D01*
X90941694Y-85455934D01*
X90922542Y-85388740D01*
X90942758Y-85321859D01*
X90994134Y-85277341D01*
X91052484Y-85250132D01*
X91238820Y-85119657D01*
X91399657Y-84958820D01*
X91530134Y-84772482D01*
X91626265Y-84566326D01*
X91626269Y-84566317D01*
X91678872Y-84370000D01*
X91013347Y-84370000D01*
X90946308Y-84350315D01*
X90900553Y-84297511D01*
X90890609Y-84228353D01*
X90894369Y-84211067D01*
X90900000Y-84191888D01*
X90900000Y-84048111D01*
X90894369Y-84028933D01*
X90894370Y-83959064D01*
X90932145Y-83900286D01*
X90995701Y-83871262D01*
X91013347Y-83870000D01*
X91678872Y-83870000D01*
X91678872Y-83869999D01*
X91626269Y-83673682D01*
X91626265Y-83673673D01*
X91530134Y-83467517D01*
X91399657Y-83281179D01*
X91238820Y-83120342D01*
X91052482Y-82989865D01*
X90994133Y-82962657D01*
X90941694Y-82916484D01*
X90922542Y-82849291D01*
X90942758Y-82782410D01*
X90994129Y-82737895D01*
X91052734Y-82710568D01*
X91239139Y-82580047D01*
X91400047Y-82419139D01*
X91530568Y-82232734D01*
X91626739Y-82026496D01*
X91685635Y-81806692D01*
X91705468Y-81580000D01*
X91685635Y-81353308D01*
X91626739Y-81133504D01*
X91530568Y-80927266D01*
X91400047Y-80740861D01*
X91400045Y-80740858D01*
X91239141Y-80579954D01*
X91052734Y-80449432D01*
X91052728Y-80449429D01*
X90994725Y-80422382D01*
X90942285Y-80376210D01*
X90923133Y-80309017D01*
X90943348Y-80242135D01*
X90994725Y-80197618D01*
X90995319Y-80197341D01*
X91052734Y-80170568D01*
X91239139Y-80040047D01*
X91400047Y-79879139D01*
X91530568Y-79692734D01*
X91626739Y-79486496D01*
X91685635Y-79266692D01*
X91705468Y-79040000D01*
X91685635Y-78813308D01*
X91626739Y-78593504D01*
X91530568Y-78387266D01*
X91400047Y-78200861D01*
X91400045Y-78200858D01*
X91239141Y-78039954D01*
X91052734Y-77909432D01*
X91052728Y-77909429D01*
X90994725Y-77882382D01*
X90942285Y-77836210D01*
X90923133Y-77769017D01*
X90943348Y-77702135D01*
X90994725Y-77657618D01*
X91052734Y-77630568D01*
X91239139Y-77500047D01*
X91400047Y-77339139D01*
X91530568Y-77152734D01*
X91626739Y-76946496D01*
X91685635Y-76726692D01*
X91705468Y-76500000D01*
X91685635Y-76273308D01*
X91626739Y-76053504D01*
X91530568Y-75847266D01*
X91400047Y-75660861D01*
X91400045Y-75660858D01*
X91239141Y-75499954D01*
X91052734Y-75369432D01*
X91052728Y-75369429D01*
X90994725Y-75342382D01*
X90942285Y-75296210D01*
X90923133Y-75229017D01*
X90943348Y-75162135D01*
X90994725Y-75117618D01*
X91052734Y-75090568D01*
X91239139Y-74960047D01*
X91400047Y-74799139D01*
X91530568Y-74612734D01*
X91626739Y-74406496D01*
X91685635Y-74186692D01*
X91705468Y-73960000D01*
X91685635Y-73733308D01*
X91626739Y-73513504D01*
X91530568Y-73307266D01*
X91400047Y-73120861D01*
X91400045Y-73120858D01*
X91239141Y-72959954D01*
X91052734Y-72829432D01*
X91052728Y-72829429D01*
X90994725Y-72802382D01*
X90942285Y-72756210D01*
X90923133Y-72689017D01*
X90943348Y-72622135D01*
X90994725Y-72577618D01*
X91052734Y-72550568D01*
X91239139Y-72420047D01*
X91400047Y-72259139D01*
X91530568Y-72072734D01*
X91626739Y-71866496D01*
X91685635Y-71646692D01*
X91705468Y-71420000D01*
X91685635Y-71193308D01*
X91626739Y-70973504D01*
X91616666Y-70951904D01*
X91606175Y-70882827D01*
X91634695Y-70819043D01*
X91693171Y-70780804D01*
X91729049Y-70775500D01*
X94607434Y-70775500D01*
X94674473Y-70795185D01*
X94680319Y-70799182D01*
X94797265Y-70884148D01*
X94797270Y-70884151D01*
X94970192Y-70961142D01*
X94970197Y-70961144D01*
X95155354Y-71000500D01*
X95155355Y-71000500D01*
X95344644Y-71000500D01*
X95344646Y-71000500D01*
X95529803Y-70961144D01*
X95702730Y-70884151D01*
X95855871Y-70772888D01*
X95982533Y-70632216D01*
X96077179Y-70468284D01*
X96135674Y-70288256D01*
X96155460Y-70100000D01*
X96135674Y-69911744D01*
X96077179Y-69731716D01*
X95982533Y-69567784D01*
X95855871Y-69427112D01*
X95846337Y-69420185D01*
X95702734Y-69315851D01*
X95702729Y-69315848D01*
X95529807Y-69238857D01*
X95529802Y-69238855D01*
X95384000Y-69207865D01*
X95344646Y-69199500D01*
X95155354Y-69199500D01*
X95122897Y-69206398D01*
X94970197Y-69238855D01*
X94970192Y-69238857D01*
X94797270Y-69315848D01*
X94797265Y-69315851D01*
X94644135Y-69427106D01*
X94644129Y-69427111D01*
X94593382Y-69483472D01*
X94533895Y-69520121D01*
X94501232Y-69524500D01*
X91729049Y-69524500D01*
X91662010Y-69504815D01*
X91616255Y-69452011D01*
X91606311Y-69382853D01*
X91616667Y-69348095D01*
X91626739Y-69326496D01*
X91685635Y-69106692D01*
X91705468Y-68880000D01*
X91704442Y-68868277D01*
X91699801Y-68815230D01*
X91685635Y-68653308D01*
X91626739Y-68433504D01*
X91626227Y-68431593D01*
X91627890Y-68361743D01*
X91667053Y-68303881D01*
X91731281Y-68276377D01*
X91746002Y-68275500D01*
X104157257Y-68275500D01*
X104172877Y-68277224D01*
X104172904Y-68276939D01*
X104180660Y-68277671D01*
X104180667Y-68277673D01*
X104249814Y-68275500D01*
X104279350Y-68275500D01*
X104286228Y-68274630D01*
X104292041Y-68274172D01*
X104338627Y-68272709D01*
X104357869Y-68267117D01*
X104376912Y-68263174D01*
X104396792Y-68260664D01*
X104440122Y-68243507D01*
X104445646Y-68241617D01*
X104449396Y-68240527D01*
X104490390Y-68228618D01*
X104507629Y-68218422D01*
X104525103Y-68209862D01*
X104543727Y-68202488D01*
X104543727Y-68202487D01*
X104543732Y-68202486D01*
X104581449Y-68175082D01*
X104586305Y-68171892D01*
X104626420Y-68148170D01*
X104640589Y-68133999D01*
X104655379Y-68121368D01*
X104671587Y-68109594D01*
X104701299Y-68073676D01*
X104705212Y-68069376D01*
X104994353Y-67780235D01*
X105055674Y-67746752D01*
X105114125Y-67748143D01*
X105118936Y-67749432D01*
X105214592Y-67775063D01*
X105402918Y-67791539D01*
X105449999Y-67795659D01*
X105450000Y-67795659D01*
X105450001Y-67795659D01*
X105489234Y-67792226D01*
X105685408Y-67775063D01*
X105913663Y-67713903D01*
X106127830Y-67614035D01*
X106321401Y-67478495D01*
X106488495Y-67311401D01*
X106618424Y-67125842D01*
X106673002Y-67082217D01*
X106742500Y-67075023D01*
X106804855Y-67106546D01*
X106821575Y-67125842D01*
X106951500Y-67311395D01*
X106951505Y-67311401D01*
X107118599Y-67478495D01*
X107184261Y-67524472D01*
X107312165Y-67614032D01*
X107312167Y-67614033D01*
X107312170Y-67614035D01*
X107526337Y-67713903D01*
X107754592Y-67775063D01*
X107942918Y-67791539D01*
X107989999Y-67795659D01*
X107990000Y-67795659D01*
X107990001Y-67795659D01*
X108029234Y-67792226D01*
X108225408Y-67775063D01*
X108453663Y-67713903D01*
X108667830Y-67614035D01*
X108861401Y-67478495D01*
X109028495Y-67311401D01*
X109164035Y-67117830D01*
X109263903Y-66903663D01*
X109325063Y-66675408D01*
X109345659Y-66440000D01*
X109325063Y-66204592D01*
X109269331Y-65996593D01*
X109263905Y-65976344D01*
X109263904Y-65976343D01*
X109263903Y-65976337D01*
X109164035Y-65762171D01*
X109160886Y-65757674D01*
X109028496Y-65568600D01*
X109028493Y-65568597D01*
X108906179Y-65446283D01*
X108872696Y-65384963D01*
X108877680Y-65315271D01*
X108919551Y-65259337D01*
X108950529Y-65242422D01*
X109082086Y-65193354D01*
X109082093Y-65193350D01*
X109197187Y-65107190D01*
X109197190Y-65107187D01*
X109283350Y-64992093D01*
X109283354Y-64992086D01*
X109333596Y-64857379D01*
X109333598Y-64857372D01*
X109339999Y-64797844D01*
X109340000Y-64797827D01*
X109340000Y-64150000D01*
X108603347Y-64150000D01*
X108536308Y-64130315D01*
X108490553Y-64077511D01*
X108480609Y-64008353D01*
X108484369Y-63991067D01*
X108490000Y-63971888D01*
X108490000Y-63828111D01*
X108484369Y-63808933D01*
X108484370Y-63739064D01*
X108522145Y-63680286D01*
X108585701Y-63651262D01*
X108603347Y-63650000D01*
X109340000Y-63650000D01*
X109340000Y-63002172D01*
X109339999Y-63002155D01*
X109333598Y-62942627D01*
X109333596Y-62942620D01*
X109283354Y-62807913D01*
X109283350Y-62807906D01*
X109197190Y-62692812D01*
X109197187Y-62692809D01*
X109082093Y-62606649D01*
X109082086Y-62606645D01*
X108947379Y-62556403D01*
X108947372Y-62556401D01*
X108887844Y-62550000D01*
X108240000Y-62550000D01*
X108240000Y-63287698D01*
X108220315Y-63354737D01*
X108167511Y-63400492D01*
X108098355Y-63410436D01*
X108025766Y-63400000D01*
X108025763Y-63400000D01*
X107954237Y-63400000D01*
X107954233Y-63400000D01*
X107881645Y-63410436D01*
X107812487Y-63400492D01*
X107759684Y-63354736D01*
X107740000Y-63287698D01*
X107740000Y-62550000D01*
X107092155Y-62550000D01*
X107032627Y-62556401D01*
X107032620Y-62556403D01*
X106897913Y-62606645D01*
X106897906Y-62606649D01*
X106782812Y-62692809D01*
X106782809Y-62692812D01*
X106696649Y-62807906D01*
X106696645Y-62807913D01*
X106647578Y-62939470D01*
X106605707Y-62995404D01*
X106540242Y-63019821D01*
X106471969Y-63004969D01*
X106443715Y-62983819D01*
X106399366Y-62939470D01*
X106321401Y-62861505D01*
X106321397Y-62861502D01*
X106321396Y-62861501D01*
X106127834Y-62725967D01*
X106127830Y-62725965D01*
X106056727Y-62692809D01*
X105913663Y-62626097D01*
X105913659Y-62626096D01*
X105913655Y-62626094D01*
X105685413Y-62564938D01*
X105685403Y-62564936D01*
X105450001Y-62544341D01*
X105449999Y-62544341D01*
X105214596Y-62564936D01*
X105214586Y-62564938D01*
X104986344Y-62626094D01*
X104986335Y-62626098D01*
X104772171Y-62725964D01*
X104772169Y-62725965D01*
X104578597Y-62861505D01*
X104411505Y-63028597D01*
X104281575Y-63214158D01*
X104226998Y-63257783D01*
X104157500Y-63264977D01*
X104095145Y-63233454D01*
X104078425Y-63214158D01*
X103948494Y-63028597D01*
X103781402Y-62861506D01*
X103781395Y-62861501D01*
X103587834Y-62725967D01*
X103587830Y-62725965D01*
X103516727Y-62692809D01*
X103373663Y-62626097D01*
X103373659Y-62626096D01*
X103373655Y-62626094D01*
X103145413Y-62564938D01*
X103145403Y-62564936D01*
X102908089Y-62544173D01*
X102843020Y-62518720D01*
X102831216Y-62508326D01*
X101961477Y-61638588D01*
X101927992Y-61577265D01*
X101932976Y-61507574D01*
X101974848Y-61451640D01*
X101996741Y-61438531D01*
X102027830Y-61424035D01*
X102221401Y-61288495D01*
X102388495Y-61121401D01*
X102524035Y-60927830D01*
X102623903Y-60713663D01*
X102681724Y-60497870D01*
X105926901Y-60497870D01*
X105926902Y-60497876D01*
X105933309Y-60557483D01*
X105983603Y-60692328D01*
X105983607Y-60692335D01*
X106069853Y-60807544D01*
X106069856Y-60807547D01*
X106185065Y-60893793D01*
X106185072Y-60893797D01*
X106319918Y-60944091D01*
X106319917Y-60944091D01*
X106326845Y-60944835D01*
X106379528Y-60950500D01*
X107675273Y-60950499D01*
X107734884Y-60944091D01*
X107734883Y-60944091D01*
X107869730Y-60893797D01*
X107869730Y-60893796D01*
X107869732Y-60893796D01*
X107919394Y-60856618D01*
X107984855Y-60832201D01*
X108038498Y-60840258D01*
X108225079Y-60912539D01*
X108425473Y-60950000D01*
X108629329Y-60950000D01*
X108829722Y-60912539D01*
X109019815Y-60838897D01*
X109108089Y-60784240D01*
X108637664Y-60313816D01*
X108604179Y-60252493D01*
X108609163Y-60182802D01*
X108651034Y-60126868D01*
X108660059Y-60120713D01*
X108733011Y-60075543D01*
X108800602Y-59986038D01*
X108800601Y-59986038D01*
X108807527Y-59976868D01*
X108810948Y-59979451D01*
X108843032Y-59944725D01*
X108910664Y-59927186D01*
X108977043Y-59948996D01*
X108994396Y-59963442D01*
X109464866Y-60433912D01*
X109466648Y-60431552D01*
X109466650Y-60431550D01*
X109557514Y-60249069D01*
X109557517Y-60249063D01*
X109613303Y-60052992D01*
X109613304Y-60052989D01*
X109632114Y-59850000D01*
X109632114Y-59849999D01*
X109613304Y-59647010D01*
X109613303Y-59647007D01*
X109557517Y-59450936D01*
X109557514Y-59450930D01*
X109466645Y-59268441D01*
X109464867Y-59266086D01*
X109464866Y-59266085D01*
X108990520Y-59740432D01*
X108929197Y-59773917D01*
X108859505Y-59768933D01*
X108803572Y-59727061D01*
X108791841Y-59708028D01*
X108770953Y-59666078D01*
X108764971Y-59660625D01*
X108710081Y-59610585D01*
X108688067Y-59590516D01*
X108681912Y-59588131D01*
X108626511Y-59545561D01*
X108602919Y-59479795D01*
X108618629Y-59411714D01*
X108639024Y-59384824D01*
X109108089Y-58915758D01*
X109108088Y-58915757D01*
X109019819Y-58861104D01*
X109019812Y-58861100D01*
X108829722Y-58787460D01*
X108629329Y-58750000D01*
X108425473Y-58750000D01*
X108225078Y-58787460D01*
X108038499Y-58859741D01*
X107968875Y-58865603D01*
X107919394Y-58843381D01*
X107869732Y-58806204D01*
X107869731Y-58806203D01*
X107756166Y-58763846D01*
X107700233Y-58721974D01*
X107675816Y-58656510D01*
X107675500Y-58647664D01*
X107675500Y-57800000D01*
X108844540Y-57800000D01*
X108864326Y-57988256D01*
X108864327Y-57988259D01*
X108922818Y-58168277D01*
X108922821Y-58168284D01*
X109017467Y-58332216D01*
X109144128Y-58472887D01*
X109144129Y-58472888D01*
X109297265Y-58584148D01*
X109297270Y-58584151D01*
X109470192Y-58661142D01*
X109470197Y-58661144D01*
X109655354Y-58700500D01*
X109655355Y-58700500D01*
X109844644Y-58700500D01*
X109844646Y-58700500D01*
X110029803Y-58661144D01*
X110202730Y-58584151D01*
X110355871Y-58472888D01*
X110482533Y-58332216D01*
X110577179Y-58168284D01*
X110635674Y-57988256D01*
X110655460Y-57800000D01*
X110635674Y-57611744D01*
X110577179Y-57431716D01*
X110482533Y-57267784D01*
X110355871Y-57127112D01*
X110355870Y-57127111D01*
X110202734Y-57015851D01*
X110202729Y-57015848D01*
X110029807Y-56938857D01*
X110029802Y-56938855D01*
X109884000Y-56907865D01*
X109844646Y-56899500D01*
X109655354Y-56899500D01*
X109622897Y-56906398D01*
X109470197Y-56938855D01*
X109470192Y-56938857D01*
X109297270Y-57015848D01*
X109297265Y-57015851D01*
X109144129Y-57127111D01*
X109017466Y-57267785D01*
X108922821Y-57431715D01*
X108922818Y-57431722D01*
X108864327Y-57611740D01*
X108864326Y-57611744D01*
X108844540Y-57800000D01*
X107675500Y-57800000D01*
X107675500Y-55110764D01*
X107695185Y-55043725D01*
X107747989Y-54997970D01*
X107756167Y-54994582D01*
X107892329Y-54943797D01*
X107892329Y-54943796D01*
X107892331Y-54943796D01*
X107941993Y-54906618D01*
X108007454Y-54882201D01*
X108061097Y-54890258D01*
X108247678Y-54962539D01*
X108448072Y-55000000D01*
X108651928Y-55000000D01*
X108852321Y-54962539D01*
X109042414Y-54888897D01*
X109130688Y-54834240D01*
X108660263Y-54363816D01*
X108626778Y-54302493D01*
X108631762Y-54232802D01*
X108673633Y-54176868D01*
X108682658Y-54170713D01*
X108755610Y-54125543D01*
X108823201Y-54036038D01*
X108823200Y-54036038D01*
X108830126Y-54026868D01*
X108833540Y-54029446D01*
X108865721Y-53994673D01*
X108933368Y-53977190D01*
X108999728Y-53999056D01*
X109016995Y-54013443D01*
X109487465Y-54483912D01*
X109489247Y-54481552D01*
X109489249Y-54481550D01*
X109580113Y-54299069D01*
X109580116Y-54299063D01*
X109635902Y-54102992D01*
X109635903Y-54102989D01*
X109654713Y-53900000D01*
X109654713Y-53899999D01*
X109635903Y-53697010D01*
X109635902Y-53697007D01*
X109580116Y-53500936D01*
X109580113Y-53500930D01*
X109489244Y-53318441D01*
X109487466Y-53316086D01*
X109487465Y-53316085D01*
X109013119Y-53790432D01*
X108951796Y-53823917D01*
X108882104Y-53818933D01*
X108826171Y-53777061D01*
X108814440Y-53758028D01*
X108793552Y-53716078D01*
X108769372Y-53694035D01*
X108710667Y-53640517D01*
X108710666Y-53640516D01*
X108704511Y-53638131D01*
X108649110Y-53595561D01*
X108625518Y-53529795D01*
X108641228Y-53461714D01*
X108661623Y-53434824D01*
X109130688Y-52965758D01*
X109130687Y-52965757D01*
X109042418Y-52911104D01*
X109042411Y-52911100D01*
X108852321Y-52837460D01*
X108651928Y-52800000D01*
X108448072Y-52800000D01*
X108247677Y-52837460D01*
X108061098Y-52909741D01*
X107991474Y-52915603D01*
X107941993Y-52893381D01*
X107892331Y-52856204D01*
X107892329Y-52856203D01*
X107892328Y-52856202D01*
X107757482Y-52805908D01*
X107757483Y-52805908D01*
X107697883Y-52799501D01*
X107697881Y-52799500D01*
X107697873Y-52799500D01*
X107697864Y-52799500D01*
X106402129Y-52799500D01*
X106402123Y-52799501D01*
X106342516Y-52805908D01*
X106207671Y-52856202D01*
X106207664Y-52856206D01*
X106092455Y-52942452D01*
X106092452Y-52942455D01*
X106006206Y-53057664D01*
X106006202Y-53057671D01*
X105955908Y-53192517D01*
X105949501Y-53252116D01*
X105949500Y-53252135D01*
X105949500Y-54547870D01*
X105949501Y-54547876D01*
X105955908Y-54607483D01*
X106006202Y-54742328D01*
X106006206Y-54742335D01*
X106092452Y-54857544D01*
X106092455Y-54857547D01*
X106207664Y-54943793D01*
X106207671Y-54943797D01*
X106343833Y-54994582D01*
X106399767Y-55036453D01*
X106424184Y-55101917D01*
X106424500Y-55110764D01*
X106424500Y-58633281D01*
X106404815Y-58700320D01*
X106352011Y-58746075D01*
X106327178Y-58752892D01*
X106327469Y-58754124D01*
X106319921Y-58755907D01*
X106185072Y-58806202D01*
X106185065Y-58806206D01*
X106069856Y-58892452D01*
X106069853Y-58892455D01*
X105983607Y-59007664D01*
X105983603Y-59007671D01*
X105933309Y-59142517D01*
X105926902Y-59202116D01*
X105926901Y-59202135D01*
X105926901Y-60497870D01*
X102681724Y-60497870D01*
X102685063Y-60485408D01*
X102705659Y-60250000D01*
X102685063Y-60014592D01*
X102623903Y-59786337D01*
X102524035Y-59572171D01*
X102519303Y-59565412D01*
X102388494Y-59378597D01*
X102221402Y-59211506D01*
X102221395Y-59211501D01*
X102027834Y-59075967D01*
X102027830Y-59075965D01*
X101881373Y-59007671D01*
X101813663Y-58976097D01*
X101813659Y-58976096D01*
X101813655Y-58976094D01*
X101585413Y-58914938D01*
X101585403Y-58914936D01*
X101350001Y-58894341D01*
X101349999Y-58894341D01*
X101114596Y-58914936D01*
X101114586Y-58914938D01*
X100886344Y-58976094D01*
X100886335Y-58976098D01*
X100672171Y-59075964D01*
X100672169Y-59075965D01*
X100544712Y-59165211D01*
X100478505Y-59187538D01*
X100410738Y-59170527D01*
X100385908Y-59151317D01*
X98305803Y-57071212D01*
X98295980Y-57058950D01*
X98295759Y-57059134D01*
X98290786Y-57053123D01*
X98254599Y-57019141D01*
X98240364Y-57005773D01*
X98229919Y-56995328D01*
X98219475Y-56984883D01*
X98213986Y-56980625D01*
X98209561Y-56976847D01*
X98175582Y-56944938D01*
X98175580Y-56944936D01*
X98175577Y-56944935D01*
X98158029Y-56935288D01*
X98141763Y-56924604D01*
X98125933Y-56912325D01*
X98083168Y-56893818D01*
X98077922Y-56891248D01*
X98037093Y-56868803D01*
X98037092Y-56868802D01*
X98017693Y-56863822D01*
X97999281Y-56857518D01*
X97980898Y-56849562D01*
X97980892Y-56849560D01*
X97934874Y-56842272D01*
X97929152Y-56841087D01*
X97884021Y-56829500D01*
X97884019Y-56829500D01*
X97863984Y-56829500D01*
X97844586Y-56827973D01*
X97837162Y-56826797D01*
X97824805Y-56824840D01*
X97824804Y-56824840D01*
X97778416Y-56829225D01*
X97772578Y-56829500D01*
X92274500Y-56829500D01*
X92207461Y-56809815D01*
X92161706Y-56757011D01*
X92150500Y-56705500D01*
X92150500Y-52520000D01*
X94694341Y-52520000D01*
X94714936Y-52755403D01*
X94714938Y-52755413D01*
X94776094Y-52983655D01*
X94776096Y-52983659D01*
X94776097Y-52983663D01*
X94845408Y-53132301D01*
X94875965Y-53197830D01*
X94875967Y-53197834D01*
X94958768Y-53316085D01*
X95011505Y-53391401D01*
X95178599Y-53558495D01*
X95259885Y-53615412D01*
X95372165Y-53694032D01*
X95372167Y-53694033D01*
X95372170Y-53694035D01*
X95586337Y-53793903D01*
X95814592Y-53855063D01*
X96002918Y-53871539D01*
X96049999Y-53875659D01*
X96050000Y-53875659D01*
X96050001Y-53875659D01*
X96093650Y-53871840D01*
X96285408Y-53855063D01*
X96513663Y-53793903D01*
X96727830Y-53694035D01*
X96921401Y-53558495D01*
X97088495Y-53391401D01*
X97224035Y-53197830D01*
X97323903Y-52983663D01*
X97385063Y-52755408D01*
X97405659Y-52520000D01*
X98294341Y-52520000D01*
X98314936Y-52755403D01*
X98314938Y-52755413D01*
X98376094Y-52983655D01*
X98376096Y-52983659D01*
X98376097Y-52983663D01*
X98445408Y-53132301D01*
X98475965Y-53197830D01*
X98475967Y-53197834D01*
X98558768Y-53316085D01*
X98611505Y-53391401D01*
X98778599Y-53558495D01*
X98859885Y-53615412D01*
X98972165Y-53694032D01*
X98972167Y-53694033D01*
X98972170Y-53694035D01*
X99186337Y-53793903D01*
X99414592Y-53855063D01*
X99602918Y-53871539D01*
X99649999Y-53875659D01*
X99650000Y-53875659D01*
X99650001Y-53875659D01*
X99693650Y-53871840D01*
X99885408Y-53855063D01*
X100113663Y-53793903D01*
X100327830Y-53694035D01*
X100521401Y-53558495D01*
X100688495Y-53391401D01*
X100824035Y-53197830D01*
X100923903Y-52983663D01*
X100985063Y-52755408D01*
X101005659Y-52520000D01*
X100985063Y-52284592D01*
X100934275Y-52095048D01*
X100923905Y-52056344D01*
X100923904Y-52056343D01*
X100923903Y-52056337D01*
X100824035Y-51842171D01*
X100821515Y-51838571D01*
X100688494Y-51648597D01*
X100521402Y-51481506D01*
X100521396Y-51481501D01*
X100335842Y-51351575D01*
X100292217Y-51296998D01*
X100285023Y-51227500D01*
X100316546Y-51165145D01*
X100335842Y-51148425D01*
X100401454Y-51102483D01*
X100521401Y-51018495D01*
X100688495Y-50851401D01*
X100824035Y-50657830D01*
X100923903Y-50443663D01*
X100985063Y-50215408D01*
X101005659Y-49980000D01*
X100985063Y-49744592D01*
X100923903Y-49516337D01*
X100824035Y-49302171D01*
X100769111Y-49223730D01*
X100688494Y-49108597D01*
X100521402Y-48941506D01*
X100521396Y-48941501D01*
X100335842Y-48811575D01*
X100292217Y-48756998D01*
X100285023Y-48687500D01*
X100316546Y-48625145D01*
X100335842Y-48608425D01*
X100358026Y-48592891D01*
X100521401Y-48478495D01*
X100688495Y-48311401D01*
X100824035Y-48117830D01*
X100923903Y-47903663D01*
X100985063Y-47675408D01*
X101005659Y-47440000D01*
X100985063Y-47204592D01*
X100923903Y-46976337D01*
X100824035Y-46762171D01*
X100688495Y-46568599D01*
X100566567Y-46446671D01*
X100533084Y-46385351D01*
X100538068Y-46315659D01*
X100579939Y-46259725D01*
X100610915Y-46242810D01*
X100742331Y-46193796D01*
X100857546Y-46107546D01*
X100943796Y-45992331D01*
X100994091Y-45857483D01*
X101000500Y-45797873D01*
X101000499Y-44649999D01*
X101899999Y-44649999D01*
X101900000Y-44650000D01*
X102636653Y-44650000D01*
X102703692Y-44669685D01*
X102749447Y-44722489D01*
X102759391Y-44791647D01*
X102755631Y-44808933D01*
X102750000Y-44828111D01*
X102750000Y-44971888D01*
X102755631Y-44991067D01*
X102755630Y-45060936D01*
X102717855Y-45119714D01*
X102654299Y-45148738D01*
X102636653Y-45150000D01*
X101900000Y-45150000D01*
X101900000Y-45797844D01*
X101906401Y-45857372D01*
X101906403Y-45857379D01*
X101956645Y-45992086D01*
X101956649Y-45992093D01*
X102042809Y-46107187D01*
X102042812Y-46107190D01*
X102157906Y-46193350D01*
X102157913Y-46193354D01*
X102289986Y-46242614D01*
X102345920Y-46284485D01*
X102370337Y-46349949D01*
X102355486Y-46418222D01*
X102334335Y-46446477D01*
X102211886Y-46568926D01*
X102076400Y-46762420D01*
X102076399Y-46762422D01*
X101976570Y-46976507D01*
X101976567Y-46976513D01*
X101919364Y-47189999D01*
X101919364Y-47190000D01*
X102636653Y-47190000D01*
X102703692Y-47209685D01*
X102749447Y-47262489D01*
X102759391Y-47331647D01*
X102755631Y-47348933D01*
X102750000Y-47368111D01*
X102750000Y-47511888D01*
X102755631Y-47531067D01*
X102755630Y-47600936D01*
X102717855Y-47659714D01*
X102654299Y-47688738D01*
X102636653Y-47690000D01*
X101919364Y-47690000D01*
X101976567Y-47903486D01*
X101976570Y-47903492D01*
X102076399Y-48117578D01*
X102211894Y-48311082D01*
X102378917Y-48478105D01*
X102565031Y-48608425D01*
X102608656Y-48663003D01*
X102615848Y-48732501D01*
X102584326Y-48794856D01*
X102565031Y-48811575D01*
X102378922Y-48941890D01*
X102378920Y-48941891D01*
X102211891Y-49108920D01*
X102211886Y-49108926D01*
X102076400Y-49302420D01*
X102076399Y-49302422D01*
X101976570Y-49516507D01*
X101976567Y-49516513D01*
X101919364Y-49729999D01*
X101919364Y-49730000D01*
X102636653Y-49730000D01*
X102703692Y-49749685D01*
X102749447Y-49802489D01*
X102759391Y-49871647D01*
X102755631Y-49888933D01*
X102750000Y-49908111D01*
X102750000Y-50051888D01*
X102755631Y-50071067D01*
X102755630Y-50140936D01*
X102717855Y-50199714D01*
X102654299Y-50228738D01*
X102636653Y-50230000D01*
X101919364Y-50230000D01*
X101976567Y-50443486D01*
X101976570Y-50443492D01*
X102076399Y-50657578D01*
X102211894Y-50851082D01*
X102378917Y-51018105D01*
X102565031Y-51148425D01*
X102608656Y-51203003D01*
X102615848Y-51272501D01*
X102584326Y-51334856D01*
X102565031Y-51351575D01*
X102378922Y-51481890D01*
X102378920Y-51481891D01*
X102211891Y-51648920D01*
X102211886Y-51648926D01*
X102076400Y-51842420D01*
X102076399Y-51842422D01*
X101976570Y-52056507D01*
X101976567Y-52056513D01*
X101919364Y-52269999D01*
X101919364Y-52270000D01*
X102636653Y-52270000D01*
X102703692Y-52289685D01*
X102749447Y-52342489D01*
X102759391Y-52411647D01*
X102755631Y-52428933D01*
X102750000Y-52448111D01*
X102750000Y-52591888D01*
X102755631Y-52611067D01*
X102755630Y-52680936D01*
X102717855Y-52739714D01*
X102654299Y-52768738D01*
X102636653Y-52770000D01*
X101919364Y-52770000D01*
X101976567Y-52983486D01*
X101976570Y-52983492D01*
X102076399Y-53197578D01*
X102211894Y-53391082D01*
X102378917Y-53558105D01*
X102572421Y-53693600D01*
X102786507Y-53793429D01*
X102786516Y-53793433D01*
X103000000Y-53850634D01*
X103000000Y-53132301D01*
X103019685Y-53065262D01*
X103072489Y-53019507D01*
X103141647Y-53009563D01*
X103214237Y-53020000D01*
X103214238Y-53020000D01*
X103285762Y-53020000D01*
X103285763Y-53020000D01*
X103358353Y-53009563D01*
X103427512Y-53019507D01*
X103480315Y-53065262D01*
X103500000Y-53132301D01*
X103500000Y-53850633D01*
X103713483Y-53793433D01*
X103713492Y-53793429D01*
X103927578Y-53693600D01*
X104121082Y-53558105D01*
X104288105Y-53391082D01*
X104423600Y-53197578D01*
X104523429Y-52983492D01*
X104523432Y-52983486D01*
X104580636Y-52770000D01*
X103863347Y-52770000D01*
X103796308Y-52750315D01*
X103750553Y-52697511D01*
X103740609Y-52628353D01*
X103744369Y-52611067D01*
X103750000Y-52591888D01*
X103750000Y-52448111D01*
X103744369Y-52428933D01*
X103744370Y-52359064D01*
X103782145Y-52300286D01*
X103845701Y-52271262D01*
X103863347Y-52270000D01*
X104580636Y-52270000D01*
X104580635Y-52269999D01*
X104523432Y-52056513D01*
X104523429Y-52056507D01*
X104423600Y-51842422D01*
X104423599Y-51842420D01*
X104288113Y-51648926D01*
X104288108Y-51648920D01*
X104121082Y-51481894D01*
X103934968Y-51351575D01*
X103891344Y-51296998D01*
X103884151Y-51227499D01*
X103915673Y-51165145D01*
X103934968Y-51148425D01*
X104121082Y-51018105D01*
X104288105Y-50851082D01*
X104423600Y-50657578D01*
X104520393Y-50450002D01*
X105345034Y-50450002D01*
X105364858Y-50676599D01*
X105364860Y-50676610D01*
X105423730Y-50896317D01*
X105423734Y-50896326D01*
X105519865Y-51102481D01*
X105519866Y-51102483D01*
X105570973Y-51175471D01*
X105570973Y-51175472D01*
X106112580Y-50633865D01*
X106173903Y-50600380D01*
X106243594Y-50605364D01*
X106299528Y-50647235D01*
X106310742Y-50665246D01*
X106316527Y-50676599D01*
X106322358Y-50688044D01*
X106322363Y-50688050D01*
X106411949Y-50777636D01*
X106411951Y-50777637D01*
X106411955Y-50777641D01*
X106434747Y-50789254D01*
X106485542Y-50837228D01*
X106502337Y-50905049D01*
X106479799Y-50971184D01*
X106466132Y-50987419D01*
X105924526Y-51529025D01*
X105924526Y-51529026D01*
X105997512Y-51580131D01*
X105997516Y-51580133D01*
X106203673Y-51676265D01*
X106203682Y-51676269D01*
X106423389Y-51735139D01*
X106423400Y-51735141D01*
X106649998Y-51754966D01*
X106650002Y-51754966D01*
X106876599Y-51735141D01*
X106876610Y-51735139D01*
X107096317Y-51676269D01*
X107096331Y-51676264D01*
X107302478Y-51580136D01*
X107375472Y-51529025D01*
X106833866Y-50987419D01*
X106800381Y-50926096D01*
X106805365Y-50856404D01*
X106847237Y-50800471D01*
X106865245Y-50789258D01*
X106888045Y-50777641D01*
X106977641Y-50688045D01*
X106989254Y-50665252D01*
X107037225Y-50614458D01*
X107105046Y-50597661D01*
X107171181Y-50620197D01*
X107187419Y-50633866D01*
X107729025Y-51175472D01*
X107780134Y-51102481D01*
X107787340Y-51087028D01*
X107833511Y-51034587D01*
X107900704Y-51015433D01*
X107967585Y-51035646D01*
X108012105Y-51087022D01*
X108019430Y-51102730D01*
X108019432Y-51102734D01*
X108149954Y-51289141D01*
X108310858Y-51450045D01*
X108310861Y-51450047D01*
X108497266Y-51580568D01*
X108703504Y-51676739D01*
X108703509Y-51676740D01*
X108703511Y-51676741D01*
X108756415Y-51690916D01*
X108923308Y-51735635D01*
X109085230Y-51749801D01*
X109149998Y-51755468D01*
X109150000Y-51755468D01*
X109150002Y-51755468D01*
X109206672Y-51750509D01*
X109376692Y-51735635D01*
X109596496Y-51676739D01*
X109802734Y-51580568D01*
X109989139Y-51450047D01*
X110150047Y-51289139D01*
X110280568Y-51102734D01*
X110376739Y-50896496D01*
X110435635Y-50676692D01*
X110455468Y-50450000D01*
X110435635Y-50223308D01*
X110376739Y-50003504D01*
X110280568Y-49797266D01*
X110150047Y-49610861D01*
X110150045Y-49610858D01*
X109989141Y-49449954D01*
X109802734Y-49319432D01*
X109802732Y-49319431D01*
X109596497Y-49223261D01*
X109596488Y-49223258D01*
X109376697Y-49164366D01*
X109376693Y-49164365D01*
X109376692Y-49164365D01*
X109376691Y-49164364D01*
X109376686Y-49164364D01*
X109150002Y-49144532D01*
X109149998Y-49144532D01*
X108923313Y-49164364D01*
X108923302Y-49164366D01*
X108703511Y-49223258D01*
X108703502Y-49223261D01*
X108497267Y-49319431D01*
X108497265Y-49319432D01*
X108310858Y-49449954D01*
X108149954Y-49610858D01*
X108019432Y-49797265D01*
X108019430Y-49797269D01*
X108012105Y-49812978D01*
X107965931Y-49865417D01*
X107898737Y-49884567D01*
X107831857Y-49864350D01*
X107787341Y-49812974D01*
X107780132Y-49797515D01*
X107780131Y-49797512D01*
X107729026Y-49724526D01*
X107729025Y-49724526D01*
X107187419Y-50266132D01*
X107126096Y-50299617D01*
X107056404Y-50294633D01*
X107000471Y-50252761D01*
X106989256Y-50234751D01*
X106977641Y-50211955D01*
X106977637Y-50211951D01*
X106977636Y-50211949D01*
X106888050Y-50122363D01*
X106888044Y-50122358D01*
X106878109Y-50117296D01*
X106865250Y-50110744D01*
X106814456Y-50062773D01*
X106797660Y-49994952D01*
X106820197Y-49928817D01*
X106833865Y-49912580D01*
X107375472Y-49370973D01*
X107302483Y-49319866D01*
X107302481Y-49319865D01*
X107096326Y-49223734D01*
X107096317Y-49223730D01*
X106876610Y-49164860D01*
X106876599Y-49164858D01*
X106650002Y-49145034D01*
X106649998Y-49145034D01*
X106423400Y-49164858D01*
X106423389Y-49164860D01*
X106203682Y-49223730D01*
X106203673Y-49223734D01*
X105997513Y-49319868D01*
X105924526Y-49370973D01*
X106466133Y-49912580D01*
X106499618Y-49973903D01*
X106494634Y-50043595D01*
X106452762Y-50099528D01*
X106434748Y-50110745D01*
X106411956Y-50122358D01*
X106411949Y-50122363D01*
X106322363Y-50211949D01*
X106322358Y-50211956D01*
X106310745Y-50234748D01*
X106262770Y-50285544D01*
X106194949Y-50302338D01*
X106128814Y-50279800D01*
X106112580Y-50266133D01*
X105570973Y-49724526D01*
X105519868Y-49797513D01*
X105423734Y-50003673D01*
X105423730Y-50003682D01*
X105364860Y-50223389D01*
X105364858Y-50223400D01*
X105345034Y-50449997D01*
X105345034Y-50450002D01*
X104520393Y-50450002D01*
X104523429Y-50443492D01*
X104523432Y-50443486D01*
X104580636Y-50230000D01*
X103863347Y-50230000D01*
X103796308Y-50210315D01*
X103750553Y-50157511D01*
X103740609Y-50088353D01*
X103744369Y-50071067D01*
X103750000Y-50051888D01*
X103750000Y-49908111D01*
X103744369Y-49888933D01*
X103744370Y-49819064D01*
X103782145Y-49760286D01*
X103845701Y-49731262D01*
X103863347Y-49730000D01*
X104580636Y-49730000D01*
X104580635Y-49729999D01*
X104523432Y-49516513D01*
X104523429Y-49516507D01*
X104423600Y-49302422D01*
X104423599Y-49302420D01*
X104288113Y-49108926D01*
X104288108Y-49108920D01*
X104121082Y-48941894D01*
X103934968Y-48811575D01*
X103891344Y-48756998D01*
X103884151Y-48687499D01*
X103915673Y-48625145D01*
X103934968Y-48608425D01*
X104121082Y-48478105D01*
X104288105Y-48311082D01*
X104423600Y-48117578D01*
X104523429Y-47903492D01*
X104523432Y-47903486D01*
X104580636Y-47690000D01*
X103863347Y-47690000D01*
X103796308Y-47670315D01*
X103750553Y-47617511D01*
X103740609Y-47548353D01*
X103744369Y-47531067D01*
X103750000Y-47511888D01*
X103750000Y-47368111D01*
X103744369Y-47348933D01*
X103744370Y-47279064D01*
X103782145Y-47220286D01*
X103845701Y-47191262D01*
X103863347Y-47190000D01*
X104580636Y-47190000D01*
X104580635Y-47189999D01*
X104523432Y-46976513D01*
X104523429Y-46976507D01*
X104423600Y-46762422D01*
X104423599Y-46762420D01*
X104288113Y-46568926D01*
X104288108Y-46568920D01*
X104165665Y-46446477D01*
X104132180Y-46385154D01*
X104137164Y-46315462D01*
X104179036Y-46259529D01*
X104210013Y-46242614D01*
X104342086Y-46193354D01*
X104342093Y-46193350D01*
X104457187Y-46107190D01*
X104457190Y-46107187D01*
X104543350Y-45992093D01*
X104543354Y-45992086D01*
X104593596Y-45857379D01*
X104593598Y-45857372D01*
X104599996Y-45797870D01*
X106499500Y-45797870D01*
X106499501Y-45797876D01*
X106505908Y-45857483D01*
X106556202Y-45992328D01*
X106556206Y-45992335D01*
X106642452Y-46107544D01*
X106642455Y-46107547D01*
X106757664Y-46193793D01*
X106757671Y-46193797D01*
X106757674Y-46193798D01*
X106889598Y-46243002D01*
X106945531Y-46284873D01*
X106969949Y-46350337D01*
X106955098Y-46418610D01*
X106933947Y-46446865D01*
X106811886Y-46568926D01*
X106676400Y-46762420D01*
X106676399Y-46762422D01*
X106576570Y-46976507D01*
X106576567Y-46976513D01*
X106519364Y-47189999D01*
X106519364Y-47190000D01*
X107236653Y-47190000D01*
X107303692Y-47209685D01*
X107349447Y-47262489D01*
X107359391Y-47331647D01*
X107355631Y-47348933D01*
X107350000Y-47368111D01*
X107350000Y-47511888D01*
X107355631Y-47531067D01*
X107355630Y-47600936D01*
X107317855Y-47659714D01*
X107254299Y-47688738D01*
X107236653Y-47690000D01*
X106519364Y-47690000D01*
X106576567Y-47903486D01*
X106576570Y-47903492D01*
X106676399Y-48117578D01*
X106811894Y-48311082D01*
X106978917Y-48478105D01*
X107172421Y-48613600D01*
X107386507Y-48713429D01*
X107386516Y-48713433D01*
X107600000Y-48770634D01*
X107600000Y-48052301D01*
X107619685Y-47985262D01*
X107672489Y-47939507D01*
X107741647Y-47929563D01*
X107814237Y-47940000D01*
X107814238Y-47940000D01*
X107885762Y-47940000D01*
X107885763Y-47940000D01*
X107958352Y-47929563D01*
X108027510Y-47939507D01*
X108080314Y-47985261D01*
X108099999Y-48052301D01*
X108099999Y-48770633D01*
X108313483Y-48713433D01*
X108313492Y-48713429D01*
X108527578Y-48613600D01*
X108721082Y-48478105D01*
X108888105Y-48311082D01*
X109023600Y-48117578D01*
X109123429Y-47903492D01*
X109123432Y-47903486D01*
X109180636Y-47690000D01*
X108463347Y-47690000D01*
X108396308Y-47670315D01*
X108350553Y-47617511D01*
X108340609Y-47548353D01*
X108344369Y-47531067D01*
X108350000Y-47511888D01*
X108350000Y-47368111D01*
X108344369Y-47348933D01*
X108344370Y-47279064D01*
X108382145Y-47220286D01*
X108445701Y-47191262D01*
X108463347Y-47190000D01*
X109180636Y-47190000D01*
X109180635Y-47189999D01*
X109123432Y-46976513D01*
X109123429Y-46976507D01*
X109023600Y-46762422D01*
X109023599Y-46762420D01*
X108888113Y-46568926D01*
X108888108Y-46568920D01*
X108766053Y-46446865D01*
X108732568Y-46385542D01*
X108737552Y-46315850D01*
X108779424Y-46259917D01*
X108810400Y-46243002D01*
X108942331Y-46193796D01*
X109057546Y-46107546D01*
X109143796Y-45992331D01*
X109194091Y-45857483D01*
X109200500Y-45797873D01*
X109200499Y-44002128D01*
X109194091Y-43942517D01*
X109143884Y-43807906D01*
X109143797Y-43807671D01*
X109143793Y-43807664D01*
X109057547Y-43692455D01*
X109057544Y-43692452D01*
X108942335Y-43606206D01*
X108942328Y-43606202D01*
X108807482Y-43555908D01*
X108807483Y-43555908D01*
X108747883Y-43549501D01*
X108747881Y-43549500D01*
X108747873Y-43549500D01*
X108747864Y-43549500D01*
X106952129Y-43549500D01*
X106952123Y-43549501D01*
X106892516Y-43555908D01*
X106757671Y-43606202D01*
X106757664Y-43606206D01*
X106642455Y-43692452D01*
X106642452Y-43692455D01*
X106556206Y-43807664D01*
X106556202Y-43807671D01*
X106505908Y-43942517D01*
X106499501Y-44002116D01*
X106499501Y-44002123D01*
X106499500Y-44002135D01*
X106499500Y-45797870D01*
X104599996Y-45797870D01*
X104599999Y-45797844D01*
X104600000Y-45797827D01*
X104600000Y-45150000D01*
X103863347Y-45150000D01*
X103796308Y-45130315D01*
X103750553Y-45077511D01*
X103740609Y-45008353D01*
X103744369Y-44991067D01*
X103750000Y-44971888D01*
X103750000Y-44828111D01*
X103744369Y-44808933D01*
X103744370Y-44739064D01*
X103782145Y-44680286D01*
X103845701Y-44651262D01*
X103863347Y-44650000D01*
X104600000Y-44650000D01*
X104600000Y-44002172D01*
X104599999Y-44002155D01*
X104593598Y-43942627D01*
X104593596Y-43942620D01*
X104543354Y-43807913D01*
X104543350Y-43807906D01*
X104457190Y-43692812D01*
X104457187Y-43692809D01*
X104342093Y-43606649D01*
X104342086Y-43606645D01*
X104207379Y-43556403D01*
X104207372Y-43556401D01*
X104147844Y-43550000D01*
X103500000Y-43550000D01*
X103499999Y-44287698D01*
X103480314Y-44354738D01*
X103427510Y-44400492D01*
X103358353Y-44410436D01*
X103285764Y-44400000D01*
X103285763Y-44400000D01*
X103214237Y-44400000D01*
X103214233Y-44400000D01*
X103141645Y-44410436D01*
X103072487Y-44400492D01*
X103019684Y-44354736D01*
X103000000Y-44287698D01*
X103000000Y-43550000D01*
X102352155Y-43550000D01*
X102292627Y-43556401D01*
X102292620Y-43556403D01*
X102157913Y-43606645D01*
X102157906Y-43606649D01*
X102042812Y-43692809D01*
X102042809Y-43692812D01*
X101956649Y-43807906D01*
X101956645Y-43807913D01*
X101906403Y-43942620D01*
X101906401Y-43942627D01*
X101900000Y-44002155D01*
X101900000Y-44002172D01*
X101899999Y-44649999D01*
X101000499Y-44649999D01*
X101000499Y-44002128D01*
X100994091Y-43942517D01*
X100943884Y-43807906D01*
X100943797Y-43807671D01*
X100943793Y-43807664D01*
X100857547Y-43692455D01*
X100857544Y-43692452D01*
X100742335Y-43606206D01*
X100742328Y-43606202D01*
X100607482Y-43555908D01*
X100607483Y-43555908D01*
X100547883Y-43549501D01*
X100547881Y-43549500D01*
X100547873Y-43549500D01*
X100547864Y-43549500D01*
X98752129Y-43549500D01*
X98752123Y-43549501D01*
X98692516Y-43555908D01*
X98557671Y-43606202D01*
X98557664Y-43606206D01*
X98442455Y-43692452D01*
X98442452Y-43692455D01*
X98356206Y-43807664D01*
X98356202Y-43807671D01*
X98305908Y-43942517D01*
X98299501Y-44002116D01*
X98299501Y-44002123D01*
X98299500Y-44002135D01*
X98299500Y-45797870D01*
X98299501Y-45797876D01*
X98305908Y-45857483D01*
X98356202Y-45992328D01*
X98356206Y-45992335D01*
X98442452Y-46107544D01*
X98442455Y-46107547D01*
X98557664Y-46193793D01*
X98557671Y-46193797D01*
X98689081Y-46242810D01*
X98745015Y-46284681D01*
X98769432Y-46350145D01*
X98754580Y-46418418D01*
X98733430Y-46446673D01*
X98611503Y-46568600D01*
X98475965Y-46762169D01*
X98475964Y-46762171D01*
X98376098Y-46976335D01*
X98376094Y-46976344D01*
X98314938Y-47204586D01*
X98314936Y-47204596D01*
X98294341Y-47439999D01*
X98294341Y-47440000D01*
X98314936Y-47675403D01*
X98314938Y-47675413D01*
X98376094Y-47903655D01*
X98376096Y-47903659D01*
X98376097Y-47903663D01*
X98445408Y-48052301D01*
X98475965Y-48117830D01*
X98475967Y-48117834D01*
X98611501Y-48311395D01*
X98611506Y-48311402D01*
X98778597Y-48478493D01*
X98778603Y-48478498D01*
X98964158Y-48608425D01*
X99007783Y-48663002D01*
X99014977Y-48732500D01*
X98983454Y-48794855D01*
X98964158Y-48811575D01*
X98778597Y-48941505D01*
X98611505Y-49108597D01*
X98475965Y-49302169D01*
X98475964Y-49302171D01*
X98376098Y-49516335D01*
X98376094Y-49516344D01*
X98314938Y-49744586D01*
X98314936Y-49744596D01*
X98294341Y-49979999D01*
X98294341Y-49980000D01*
X98314936Y-50215403D01*
X98314938Y-50215413D01*
X98376094Y-50443655D01*
X98376096Y-50443659D01*
X98376097Y-50443663D01*
X98445408Y-50592301D01*
X98475965Y-50657830D01*
X98475967Y-50657834D01*
X98567988Y-50789252D01*
X98600136Y-50835165D01*
X98611501Y-50851395D01*
X98611506Y-50851402D01*
X98778597Y-51018493D01*
X98778603Y-51018498D01*
X98964158Y-51148425D01*
X99007783Y-51203002D01*
X99014977Y-51272500D01*
X98983454Y-51334855D01*
X98964158Y-51351575D01*
X98778597Y-51481505D01*
X98611505Y-51648597D01*
X98475965Y-51842169D01*
X98475964Y-51842171D01*
X98376098Y-52056335D01*
X98376094Y-52056344D01*
X98314938Y-52284586D01*
X98314936Y-52284596D01*
X98294341Y-52519999D01*
X98294341Y-52520000D01*
X97405659Y-52520000D01*
X97385063Y-52284592D01*
X97334275Y-52095048D01*
X97323905Y-52056344D01*
X97323904Y-52056343D01*
X97323903Y-52056337D01*
X97224035Y-51842171D01*
X97221515Y-51838571D01*
X97088494Y-51648597D01*
X96921402Y-51481506D01*
X96921396Y-51481501D01*
X96735842Y-51351575D01*
X96692217Y-51296998D01*
X96685023Y-51227500D01*
X96716546Y-51165145D01*
X96735842Y-51148425D01*
X96801454Y-51102483D01*
X96921401Y-51018495D01*
X97088495Y-50851401D01*
X97224035Y-50657830D01*
X97323903Y-50443663D01*
X97385063Y-50215408D01*
X97405659Y-49980000D01*
X97385063Y-49744592D01*
X97323903Y-49516337D01*
X97224035Y-49302171D01*
X97169111Y-49223730D01*
X97088494Y-49108597D01*
X96921402Y-48941506D01*
X96921396Y-48941501D01*
X96735842Y-48811575D01*
X96692217Y-48756998D01*
X96685023Y-48687500D01*
X96716546Y-48625145D01*
X96735842Y-48608425D01*
X96758026Y-48592891D01*
X96921401Y-48478495D01*
X97088495Y-48311401D01*
X97224035Y-48117830D01*
X97323903Y-47903663D01*
X97385063Y-47675408D01*
X97405659Y-47440000D01*
X97385063Y-47204592D01*
X97323903Y-46976337D01*
X97224035Y-46762171D01*
X97088495Y-46568599D01*
X96966567Y-46446671D01*
X96933084Y-46385351D01*
X96938068Y-46315659D01*
X96979939Y-46259725D01*
X97010915Y-46242810D01*
X97142331Y-46193796D01*
X97257546Y-46107546D01*
X97343796Y-45992331D01*
X97394091Y-45857483D01*
X97400500Y-45797873D01*
X97400499Y-44002128D01*
X97394091Y-43942517D01*
X97343884Y-43807906D01*
X97343797Y-43807671D01*
X97343793Y-43807664D01*
X97257547Y-43692455D01*
X97257544Y-43692452D01*
X97142335Y-43606206D01*
X97142328Y-43606202D01*
X97007482Y-43555908D01*
X97007483Y-43555908D01*
X96947883Y-43549501D01*
X96947881Y-43549500D01*
X96947873Y-43549500D01*
X96947864Y-43549500D01*
X95152129Y-43549500D01*
X95152123Y-43549501D01*
X95092516Y-43555908D01*
X94957671Y-43606202D01*
X94957664Y-43606206D01*
X94842455Y-43692452D01*
X94842452Y-43692455D01*
X94756206Y-43807664D01*
X94756202Y-43807671D01*
X94705908Y-43942517D01*
X94699501Y-44002116D01*
X94699501Y-44002123D01*
X94699500Y-44002135D01*
X94699500Y-45797870D01*
X94699501Y-45797876D01*
X94705908Y-45857483D01*
X94756202Y-45992328D01*
X94756206Y-45992335D01*
X94842452Y-46107544D01*
X94842455Y-46107547D01*
X94957664Y-46193793D01*
X94957671Y-46193797D01*
X95089081Y-46242810D01*
X95145015Y-46284681D01*
X95169432Y-46350145D01*
X95154580Y-46418418D01*
X95133430Y-46446673D01*
X95011503Y-46568600D01*
X94875965Y-46762169D01*
X94875964Y-46762171D01*
X94776098Y-46976335D01*
X94776094Y-46976344D01*
X94714938Y-47204586D01*
X94714936Y-47204596D01*
X94694341Y-47439999D01*
X94694341Y-47440000D01*
X94714936Y-47675403D01*
X94714938Y-47675413D01*
X94776094Y-47903655D01*
X94776096Y-47903659D01*
X94776097Y-47903663D01*
X94845408Y-48052301D01*
X94875965Y-48117830D01*
X94875967Y-48117834D01*
X95011501Y-48311395D01*
X95011506Y-48311402D01*
X95178597Y-48478493D01*
X95178603Y-48478498D01*
X95364158Y-48608425D01*
X95407783Y-48663002D01*
X95414977Y-48732500D01*
X95383454Y-48794855D01*
X95364158Y-48811575D01*
X95178597Y-48941505D01*
X95011505Y-49108597D01*
X94875965Y-49302169D01*
X94875964Y-49302171D01*
X94776098Y-49516335D01*
X94776094Y-49516344D01*
X94714938Y-49744586D01*
X94714936Y-49744596D01*
X94694341Y-49979999D01*
X94694341Y-49980000D01*
X94714936Y-50215403D01*
X94714938Y-50215413D01*
X94776094Y-50443655D01*
X94776096Y-50443659D01*
X94776097Y-50443663D01*
X94845408Y-50592301D01*
X94875965Y-50657830D01*
X94875967Y-50657834D01*
X94967988Y-50789252D01*
X95000136Y-50835165D01*
X95011501Y-50851395D01*
X95011506Y-50851402D01*
X95178597Y-51018493D01*
X95178603Y-51018498D01*
X95364158Y-51148425D01*
X95407783Y-51203002D01*
X95414977Y-51272500D01*
X95383454Y-51334855D01*
X95364158Y-51351575D01*
X95178597Y-51481505D01*
X95011505Y-51648597D01*
X94875965Y-51842169D01*
X94875964Y-51842171D01*
X94776098Y-52056335D01*
X94776094Y-52056344D01*
X94714938Y-52284586D01*
X94714936Y-52284596D01*
X94694341Y-52519999D01*
X94694341Y-52520000D01*
X92150500Y-52520000D01*
X92150500Y-52307737D01*
X92152224Y-52292124D01*
X92151938Y-52292097D01*
X92152671Y-52284335D01*
X92152672Y-52284332D01*
X92150499Y-52215203D01*
X92150500Y-52185650D01*
X92149629Y-52178758D01*
X92149172Y-52172946D01*
X92147709Y-52126372D01*
X92142122Y-52107144D01*
X92138174Y-52088084D01*
X92135664Y-52068208D01*
X92118507Y-52024875D01*
X92116619Y-52019359D01*
X92103619Y-51974612D01*
X92093418Y-51957363D01*
X92084860Y-51939894D01*
X92077486Y-51921268D01*
X92077483Y-51921264D01*
X92077483Y-51921263D01*
X92050098Y-51883571D01*
X92046890Y-51878687D01*
X92023172Y-51838582D01*
X92023163Y-51838571D01*
X92009005Y-51824413D01*
X91996370Y-51809620D01*
X91984593Y-51793412D01*
X91948693Y-51763713D01*
X91944381Y-51759790D01*
X91699413Y-51514822D01*
X91665928Y-51453499D01*
X91667319Y-51395048D01*
X91667504Y-51394358D01*
X91685635Y-51326692D01*
X91705468Y-51100000D01*
X91685635Y-50873308D01*
X91626739Y-50653504D01*
X91530568Y-50447266D01*
X91413308Y-50279800D01*
X91400045Y-50260858D01*
X91239141Y-50099954D01*
X91052734Y-49969432D01*
X91052732Y-49969431D01*
X90846497Y-49873261D01*
X90846488Y-49873258D01*
X90626697Y-49814366D01*
X90626693Y-49814365D01*
X90626692Y-49814365D01*
X90626691Y-49814364D01*
X90626686Y-49814364D01*
X90400002Y-49794532D01*
X90399998Y-49794532D01*
X90173313Y-49814364D01*
X90173302Y-49814366D01*
X89953511Y-49873258D01*
X89953502Y-49873261D01*
X89747267Y-49969431D01*
X89747265Y-49969432D01*
X89560858Y-50099954D01*
X89399954Y-50260858D01*
X89269432Y-50447265D01*
X89269431Y-50447267D01*
X89173261Y-50653502D01*
X89173258Y-50653511D01*
X89114366Y-50873302D01*
X89114364Y-50873313D01*
X89094532Y-51099998D01*
X89094532Y-51100001D01*
X89114364Y-51326686D01*
X89114366Y-51326697D01*
X89173258Y-51546488D01*
X89173261Y-51546497D01*
X89269431Y-51752732D01*
X89269432Y-51752734D01*
X89399954Y-51939141D01*
X89560858Y-52100045D01*
X89560861Y-52100047D01*
X89747266Y-52230568D01*
X89805275Y-52257618D01*
X89857714Y-52303791D01*
X89876866Y-52370984D01*
X89856650Y-52437865D01*
X89805275Y-52482382D01*
X89747267Y-52509431D01*
X89747265Y-52509432D01*
X89560858Y-52639954D01*
X89399954Y-52800858D01*
X89269432Y-52987265D01*
X89269431Y-52987267D01*
X89173261Y-53193502D01*
X89173258Y-53193511D01*
X89114366Y-53413302D01*
X89114364Y-53413313D01*
X89094532Y-53639998D01*
X89094532Y-53640001D01*
X89114364Y-53866686D01*
X89114366Y-53866697D01*
X89173258Y-54086488D01*
X89173261Y-54086497D01*
X89269431Y-54292732D01*
X89269432Y-54292734D01*
X89399954Y-54479141D01*
X89560858Y-54640045D01*
X89560861Y-54640047D01*
X89747266Y-54770568D01*
X89805275Y-54797618D01*
X89857714Y-54843791D01*
X89876866Y-54910984D01*
X89856650Y-54977865D01*
X89805275Y-55022382D01*
X89747267Y-55049431D01*
X89747265Y-55049432D01*
X89560858Y-55179954D01*
X89399954Y-55340858D01*
X89269432Y-55527265D01*
X89269431Y-55527267D01*
X89173261Y-55733502D01*
X89173258Y-55733511D01*
X89114366Y-55953302D01*
X89114364Y-55953313D01*
X89094532Y-56179998D01*
X89094532Y-56180001D01*
X89114364Y-56406686D01*
X89114366Y-56406697D01*
X89173258Y-56626488D01*
X89173261Y-56626497D01*
X89269431Y-56832732D01*
X89269432Y-56832734D01*
X89399954Y-57019141D01*
X89560858Y-57180045D01*
X89560861Y-57180047D01*
X89747266Y-57310568D01*
X89805275Y-57337618D01*
X89857714Y-57383791D01*
X89876866Y-57450984D01*
X89856650Y-57517865D01*
X89805275Y-57562382D01*
X89747267Y-57589431D01*
X89747265Y-57589432D01*
X89560858Y-57719954D01*
X89399954Y-57880858D01*
X89269432Y-58067265D01*
X89269431Y-58067267D01*
X89173261Y-58273502D01*
X89173258Y-58273511D01*
X89114366Y-58493302D01*
X89114364Y-58493313D01*
X89094532Y-58719998D01*
X89094532Y-58720001D01*
X89114364Y-58946686D01*
X89114366Y-58946697D01*
X89173258Y-59166488D01*
X89173260Y-59166492D01*
X89173261Y-59166496D01*
X89219701Y-59266086D01*
X89250948Y-59333095D01*
X89261440Y-59402173D01*
X89232920Y-59465957D01*
X89174444Y-59504196D01*
X89138566Y-59509500D01*
X79245452Y-59509500D01*
X79178413Y-59489815D01*
X79157771Y-59473181D01*
X77261819Y-57577228D01*
X77228334Y-57515905D01*
X77225500Y-57489547D01*
X77225500Y-51682742D01*
X77227224Y-51667123D01*
X77226939Y-51667097D01*
X77227671Y-51659339D01*
X77227673Y-51659333D01*
X77225499Y-51590185D01*
X77225500Y-51560650D01*
X77224631Y-51553770D01*
X77224172Y-51547943D01*
X77222709Y-51501372D01*
X77217122Y-51482144D01*
X77213174Y-51463084D01*
X77210664Y-51443208D01*
X77210663Y-51443206D01*
X77210663Y-51443204D01*
X77193512Y-51399887D01*
X77191619Y-51394358D01*
X77178618Y-51349609D01*
X77178616Y-51349606D01*
X77168423Y-51332371D01*
X77159861Y-51314894D01*
X77152487Y-51296270D01*
X77152486Y-51296268D01*
X77125079Y-51258545D01*
X77121888Y-51253686D01*
X77119708Y-51250000D01*
X77098170Y-51213580D01*
X77098168Y-51213578D01*
X77098165Y-51213574D01*
X77084006Y-51199415D01*
X77071368Y-51184619D01*
X77059594Y-51168413D01*
X77035432Y-51148425D01*
X77023688Y-51138709D01*
X77019376Y-51134786D01*
X76600806Y-50716216D01*
X76590981Y-50703952D01*
X76590760Y-50704136D01*
X76585785Y-50698121D01*
X76559038Y-50673004D01*
X76535364Y-50650773D01*
X76524919Y-50640328D01*
X76514475Y-50629883D01*
X76508986Y-50625625D01*
X76504561Y-50621847D01*
X76470582Y-50589938D01*
X76470580Y-50589936D01*
X76470577Y-50589935D01*
X76453029Y-50580288D01*
X76436763Y-50569604D01*
X76420933Y-50557325D01*
X76378168Y-50538819D01*
X76372917Y-50536246D01*
X76353486Y-50525563D01*
X76304224Y-50476014D01*
X76300848Y-50469310D01*
X76290571Y-50447272D01*
X76290567Y-50447265D01*
X76288039Y-50443655D01*
X76173308Y-50279800D01*
X76160045Y-50260858D01*
X75999141Y-50099954D01*
X75812734Y-49969432D01*
X75812732Y-49969431D01*
X75606497Y-49873261D01*
X75606488Y-49873258D01*
X75386697Y-49814366D01*
X75386693Y-49814365D01*
X75386692Y-49814365D01*
X75386691Y-49814364D01*
X75386686Y-49814364D01*
X75160002Y-49794532D01*
X75159998Y-49794532D01*
X74933313Y-49814364D01*
X74933302Y-49814366D01*
X74713511Y-49873258D01*
X74713502Y-49873261D01*
X74507267Y-49969431D01*
X74507265Y-49969432D01*
X74320858Y-50099954D01*
X74159954Y-50260858D01*
X74029432Y-50447265D01*
X74029431Y-50447267D01*
X73933261Y-50653502D01*
X73933258Y-50653511D01*
X73874366Y-50873302D01*
X73874364Y-50873313D01*
X73854532Y-51099998D01*
X73854532Y-51100001D01*
X73874364Y-51326686D01*
X73874366Y-51326697D01*
X73933258Y-51546488D01*
X73933261Y-51546497D01*
X74029431Y-51752732D01*
X74029432Y-51752734D01*
X74159954Y-51939141D01*
X74320858Y-52100045D01*
X74320861Y-52100047D01*
X74507266Y-52230568D01*
X74565275Y-52257618D01*
X74617714Y-52303791D01*
X74636866Y-52370984D01*
X74616650Y-52437865D01*
X74565275Y-52482382D01*
X74507267Y-52509431D01*
X74507265Y-52509432D01*
X74320858Y-52639954D01*
X74159954Y-52800858D01*
X74029432Y-52987265D01*
X74029431Y-52987267D01*
X73933261Y-53193502D01*
X73933258Y-53193511D01*
X73874366Y-53413302D01*
X73874364Y-53413313D01*
X73854532Y-53639998D01*
X73854532Y-53640001D01*
X73874364Y-53866686D01*
X73874366Y-53866697D01*
X73933258Y-54086488D01*
X73933261Y-54086497D01*
X74029431Y-54292732D01*
X74029432Y-54292734D01*
X74159954Y-54479141D01*
X74320858Y-54640045D01*
X74320861Y-54640047D01*
X74507266Y-54770568D01*
X74565275Y-54797618D01*
X74617714Y-54843791D01*
X74636866Y-54910984D01*
X74616650Y-54977865D01*
X74565275Y-55022382D01*
X74507267Y-55049431D01*
X74507265Y-55049432D01*
X74320858Y-55179954D01*
X74159954Y-55340858D01*
X74029432Y-55527265D01*
X74029431Y-55527267D01*
X73933261Y-55733502D01*
X73933258Y-55733511D01*
X73874366Y-55953302D01*
X73874364Y-55953313D01*
X73854532Y-56179998D01*
X73854532Y-56180001D01*
X73874364Y-56406686D01*
X73874366Y-56406697D01*
X73933258Y-56626488D01*
X73933261Y-56626497D01*
X74029431Y-56832732D01*
X74029432Y-56832734D01*
X74159954Y-57019141D01*
X74320858Y-57180045D01*
X74320861Y-57180047D01*
X74507266Y-57310568D01*
X74565275Y-57337618D01*
X74617714Y-57383791D01*
X74636866Y-57450984D01*
X74616650Y-57517865D01*
X74565275Y-57562382D01*
X74507267Y-57589431D01*
X74507265Y-57589432D01*
X74320858Y-57719954D01*
X74159954Y-57880858D01*
X74029432Y-58067265D01*
X74029431Y-58067267D01*
X73933261Y-58273502D01*
X73933258Y-58273511D01*
X73874366Y-58493302D01*
X73874364Y-58493313D01*
X73854532Y-58719998D01*
X73854532Y-58720001D01*
X73874364Y-58946686D01*
X73874366Y-58946697D01*
X73933258Y-59166488D01*
X73933261Y-59166497D01*
X74029431Y-59372732D01*
X74029432Y-59372734D01*
X74159954Y-59559141D01*
X74320858Y-59720045D01*
X74348120Y-59739134D01*
X74507266Y-59850568D01*
X74565275Y-59877618D01*
X74617714Y-59923791D01*
X74636866Y-59990984D01*
X74616650Y-60057865D01*
X74565275Y-60102382D01*
X74507267Y-60129431D01*
X74507265Y-60129432D01*
X74320858Y-60259954D01*
X74159954Y-60420858D01*
X74029432Y-60607265D01*
X74029431Y-60607267D01*
X73933261Y-60813502D01*
X73933258Y-60813511D01*
X73874366Y-61033302D01*
X73874364Y-61033313D01*
X73854532Y-61259998D01*
X73854532Y-61260001D01*
X73874364Y-61486686D01*
X73874366Y-61486697D01*
X73933258Y-61706488D01*
X73933261Y-61706497D01*
X74029431Y-61912732D01*
X74029432Y-61912734D01*
X74159954Y-62099141D01*
X74320858Y-62260045D01*
X74320861Y-62260047D01*
X74507266Y-62390568D01*
X74565275Y-62417618D01*
X74617714Y-62463791D01*
X74636866Y-62530984D01*
X74616650Y-62597865D01*
X74565275Y-62642382D01*
X74507267Y-62669431D01*
X74507265Y-62669432D01*
X74320858Y-62799954D01*
X74159954Y-62960858D01*
X74029432Y-63147265D01*
X74029431Y-63147267D01*
X73933261Y-63353502D01*
X73933258Y-63353511D01*
X73874366Y-63573302D01*
X73874364Y-63573313D01*
X73854532Y-63799998D01*
X73854532Y-63800001D01*
X73874364Y-64026686D01*
X73874366Y-64026697D01*
X73933258Y-64246488D01*
X73933261Y-64246497D01*
X74029431Y-64452732D01*
X74029432Y-64452734D01*
X74159954Y-64639141D01*
X74320858Y-64800045D01*
X74407238Y-64860528D01*
X74507266Y-64930568D01*
X74565278Y-64957619D01*
X74617713Y-65003788D01*
X74636866Y-65070982D01*
X74616651Y-65137863D01*
X74565277Y-65182380D01*
X74507268Y-65209430D01*
X74507265Y-65209432D01*
X74320858Y-65339954D01*
X74159954Y-65500858D01*
X74029432Y-65687265D01*
X74029431Y-65687267D01*
X73933261Y-65893502D01*
X73933258Y-65893511D01*
X73874366Y-66113302D01*
X73874364Y-66113313D01*
X73854532Y-66339998D01*
X73854532Y-66340001D01*
X73874364Y-66566686D01*
X73874366Y-66566697D01*
X73933258Y-66786488D01*
X73933261Y-66786497D01*
X74029431Y-66992732D01*
X74029432Y-66992734D01*
X74159954Y-67179141D01*
X74320858Y-67340045D01*
X74320861Y-67340047D01*
X74507266Y-67470568D01*
X74565275Y-67497618D01*
X74617714Y-67543791D01*
X74636866Y-67610984D01*
X74616650Y-67677865D01*
X74565275Y-67722382D01*
X74507267Y-67749431D01*
X74507265Y-67749432D01*
X74320858Y-67879954D01*
X74159954Y-68040858D01*
X74029432Y-68227265D01*
X74029431Y-68227267D01*
X73933261Y-68433502D01*
X73933258Y-68433511D01*
X73874366Y-68653302D01*
X73874364Y-68653313D01*
X73854532Y-68879998D01*
X73854532Y-68880001D01*
X73874364Y-69106686D01*
X73874366Y-69106697D01*
X73933258Y-69326488D01*
X73933261Y-69326497D01*
X74029431Y-69532732D01*
X74029432Y-69532734D01*
X74159954Y-69719141D01*
X74320858Y-69880045D01*
X74320861Y-69880047D01*
X74507266Y-70010568D01*
X74565275Y-70037618D01*
X74617714Y-70083791D01*
X74636866Y-70150984D01*
X74616650Y-70217865D01*
X74565275Y-70262382D01*
X74507267Y-70289431D01*
X74507265Y-70289432D01*
X74320858Y-70419954D01*
X74159954Y-70580858D01*
X74029432Y-70767265D01*
X74029431Y-70767267D01*
X73933261Y-70973502D01*
X73933258Y-70973511D01*
X73874366Y-71193302D01*
X73874364Y-71193313D01*
X73854532Y-71419998D01*
X73854532Y-71420001D01*
X73874364Y-71646686D01*
X73874366Y-71646697D01*
X73933258Y-71866488D01*
X73933261Y-71866497D01*
X74029431Y-72072732D01*
X74029432Y-72072734D01*
X74159954Y-72259141D01*
X74320858Y-72420045D01*
X74320861Y-72420047D01*
X74507266Y-72550568D01*
X74565275Y-72577618D01*
X74617714Y-72623791D01*
X74636866Y-72690984D01*
X74616650Y-72757865D01*
X74565275Y-72802382D01*
X74507267Y-72829431D01*
X74507265Y-72829432D01*
X74320858Y-72959954D01*
X74159954Y-73120858D01*
X74029432Y-73307265D01*
X74029431Y-73307267D01*
X73933261Y-73513502D01*
X73933258Y-73513511D01*
X73874366Y-73733302D01*
X73874364Y-73733313D01*
X73854532Y-73959998D01*
X73854532Y-73960001D01*
X73874364Y-74186686D01*
X73874366Y-74186697D01*
X73933258Y-74406488D01*
X73933261Y-74406497D01*
X74029431Y-74612732D01*
X74029432Y-74612734D01*
X74159954Y-74799141D01*
X74320858Y-74960045D01*
X74320861Y-74960047D01*
X74507266Y-75090568D01*
X74565275Y-75117618D01*
X74617714Y-75163791D01*
X74636866Y-75230984D01*
X74616650Y-75297865D01*
X74565275Y-75342382D01*
X74507267Y-75369431D01*
X74507265Y-75369432D01*
X74320858Y-75499954D01*
X74159954Y-75660858D01*
X74029432Y-75847265D01*
X74029431Y-75847267D01*
X73933261Y-76053502D01*
X73933258Y-76053511D01*
X73874366Y-76273302D01*
X73874364Y-76273313D01*
X73854532Y-76499998D01*
X73854532Y-76500001D01*
X73874364Y-76726686D01*
X73874366Y-76726697D01*
X73933258Y-76946488D01*
X73933261Y-76946497D01*
X74029431Y-77152732D01*
X74029432Y-77152734D01*
X74159954Y-77339141D01*
X74320858Y-77500045D01*
X74320861Y-77500047D01*
X74507266Y-77630568D01*
X74565865Y-77657893D01*
X74618305Y-77704065D01*
X74637457Y-77771258D01*
X74617242Y-77838139D01*
X74565867Y-77882657D01*
X74507515Y-77909867D01*
X74321179Y-78040342D01*
X74160342Y-78201179D01*
X74029865Y-78387517D01*
X73933734Y-78593673D01*
X73933730Y-78593682D01*
X73881127Y-78789999D01*
X73881128Y-78790000D01*
X74546653Y-78790000D01*
X74613692Y-78809685D01*
X74659447Y-78862489D01*
X74669391Y-78931647D01*
X74665631Y-78948933D01*
X74660000Y-78968111D01*
X74660000Y-79111888D01*
X74665631Y-79131067D01*
X74665630Y-79200936D01*
X74627855Y-79259714D01*
X74564299Y-79288738D01*
X74546653Y-79290000D01*
X73881128Y-79290000D01*
X73933730Y-79486317D01*
X73933734Y-79486326D01*
X74029865Y-79692482D01*
X74160342Y-79878820D01*
X74321179Y-80039657D01*
X74507518Y-80170134D01*
X74507520Y-80170135D01*
X74565865Y-80197342D01*
X74618305Y-80243514D01*
X74637457Y-80310707D01*
X74617242Y-80377589D01*
X74565867Y-80422105D01*
X74507268Y-80449431D01*
X74507264Y-80449433D01*
X74320858Y-80579954D01*
X74159954Y-80740858D01*
X74029432Y-80927265D01*
X74029431Y-80927267D01*
X73933261Y-81133502D01*
X73933258Y-81133511D01*
X73874366Y-81353302D01*
X73874364Y-81353313D01*
X73854532Y-81579998D01*
X73854532Y-81580001D01*
X73874364Y-81806686D01*
X73874366Y-81806697D01*
X73933258Y-82026488D01*
X73933261Y-82026497D01*
X74029431Y-82232732D01*
X74029432Y-82232734D01*
X74159954Y-82419141D01*
X74320858Y-82580045D01*
X74320861Y-82580047D01*
X74507266Y-82710568D01*
X74565275Y-82737618D01*
X74617714Y-82783791D01*
X74636866Y-82850984D01*
X74616650Y-82917865D01*
X74565275Y-82962382D01*
X74507267Y-82989431D01*
X74507265Y-82989432D01*
X74320858Y-83119954D01*
X74159954Y-83280858D01*
X74029432Y-83467265D01*
X74029431Y-83467267D01*
X73933261Y-83673502D01*
X73933258Y-83673511D01*
X73874366Y-83893302D01*
X73874364Y-83893313D01*
X73854532Y-84119998D01*
X73854532Y-84120001D01*
X71920821Y-84120001D01*
X72000378Y-39567763D01*
X76545787Y-39567763D01*
X76575413Y-39837013D01*
X76575415Y-39837024D01*
X76643926Y-40099082D01*
X76643928Y-40099088D01*
X76749870Y-40348390D01*
X76821998Y-40466575D01*
X76890979Y-40579605D01*
X76890986Y-40579615D01*
X77064253Y-40787819D01*
X77064259Y-40787824D01*
X77265998Y-40968582D01*
X77491910Y-41118044D01*
X77737176Y-41233020D01*
X77737183Y-41233022D01*
X77737185Y-41233023D01*
X77996557Y-41311057D01*
X77996564Y-41311058D01*
X77996569Y-41311060D01*
X78264561Y-41350500D01*
X78264566Y-41350500D01*
X78467636Y-41350500D01*
X78519133Y-41346730D01*
X78670156Y-41335677D01*
X78782758Y-41310593D01*
X78934546Y-41276782D01*
X78934548Y-41276781D01*
X78934553Y-41276780D01*
X79187558Y-41180014D01*
X79423777Y-41047441D01*
X79638177Y-40881888D01*
X79826186Y-40686881D01*
X79983799Y-40466579D01*
X80057787Y-40322669D01*
X80107649Y-40225690D01*
X80107651Y-40225684D01*
X80107656Y-40225675D01*
X80195118Y-39969305D01*
X80244319Y-39702933D01*
X80249259Y-39567763D01*
X104745787Y-39567763D01*
X104775413Y-39837013D01*
X104775415Y-39837024D01*
X104843926Y-40099082D01*
X104843928Y-40099088D01*
X104949870Y-40348390D01*
X105021998Y-40466575D01*
X105090979Y-40579605D01*
X105090986Y-40579615D01*
X105264253Y-40787819D01*
X105264259Y-40787824D01*
X105465998Y-40968582D01*
X105691910Y-41118044D01*
X105937176Y-41233020D01*
X105937183Y-41233022D01*
X105937185Y-41233023D01*
X106196557Y-41311057D01*
X106196564Y-41311058D01*
X106196569Y-41311060D01*
X106464561Y-41350500D01*
X106464566Y-41350500D01*
X106667636Y-41350500D01*
X106719133Y-41346730D01*
X106870156Y-41335677D01*
X106982758Y-41310593D01*
X107134546Y-41276782D01*
X107134548Y-41276781D01*
X107134553Y-41276780D01*
X107387558Y-41180014D01*
X107623777Y-41047441D01*
X107838177Y-40881888D01*
X108026186Y-40686881D01*
X108183799Y-40466579D01*
X108257787Y-40322669D01*
X108307649Y-40225690D01*
X108307651Y-40225684D01*
X108307656Y-40225675D01*
X108395118Y-39969305D01*
X108444319Y-39702933D01*
X108454212Y-39432235D01*
X108424586Y-39162982D01*
X108356072Y-38900912D01*
X108250130Y-38651610D01*
X108109018Y-38420390D01*
X108019747Y-38313119D01*
X107935746Y-38212180D01*
X107935740Y-38212175D01*
X107734002Y-38031418D01*
X107508092Y-37881957D01*
X107508090Y-37881956D01*
X107262824Y-37766980D01*
X107262819Y-37766978D01*
X107262814Y-37766976D01*
X107003442Y-37688942D01*
X107003428Y-37688939D01*
X106887791Y-37671921D01*
X106735439Y-37649500D01*
X106532369Y-37649500D01*
X106532364Y-37649500D01*
X106329844Y-37664323D01*
X106329831Y-37664325D01*
X106065453Y-37723217D01*
X106065446Y-37723220D01*
X105812439Y-37819987D01*
X105576226Y-37952557D01*
X105361822Y-38118112D01*
X105173822Y-38313109D01*
X105173816Y-38313116D01*
X105016202Y-38533419D01*
X105016199Y-38533424D01*
X104892350Y-38774309D01*
X104892343Y-38774327D01*
X104804884Y-39030685D01*
X104804881Y-39030699D01*
X104755681Y-39297068D01*
X104755680Y-39297075D01*
X104745787Y-39567763D01*
X80249259Y-39567763D01*
X80254212Y-39432235D01*
X80224586Y-39162982D01*
X80156072Y-38900912D01*
X80050130Y-38651610D01*
X79909018Y-38420390D01*
X79819747Y-38313119D01*
X79735746Y-38212180D01*
X79735740Y-38212175D01*
X79534002Y-38031418D01*
X79308092Y-37881957D01*
X79308090Y-37881956D01*
X79062824Y-37766980D01*
X79062819Y-37766978D01*
X79062814Y-37766976D01*
X78803442Y-37688942D01*
X78803428Y-37688939D01*
X78687791Y-37671921D01*
X78535439Y-37649500D01*
X78332369Y-37649500D01*
X78332364Y-37649500D01*
X78129844Y-37664323D01*
X78129831Y-37664325D01*
X77865453Y-37723217D01*
X77865446Y-37723220D01*
X77612439Y-37819987D01*
X77376226Y-37952557D01*
X77161822Y-38118112D01*
X76973822Y-38313109D01*
X76973816Y-38313116D01*
X76816202Y-38533419D01*
X76816199Y-38533424D01*
X76692350Y-38774309D01*
X76692343Y-38774327D01*
X76604884Y-39030685D01*
X76604881Y-39030699D01*
X76555681Y-39297068D01*
X76555680Y-39297075D01*
X76545787Y-39567763D01*
X72000378Y-39567763D01*
X72000407Y-39551731D01*
X72000500Y-39551418D01*
X72000500Y-39500000D01*
X72010487Y-39233083D01*
X72013241Y-39162986D01*
X72018914Y-39018581D01*
X72019251Y-39014151D01*
X72048009Y-38758923D01*
X72074956Y-38531248D01*
X72075602Y-38527045D01*
X72122840Y-38277382D01*
X72168153Y-38049584D01*
X72169045Y-38045761D01*
X72234526Y-37801382D01*
X72256571Y-37723220D01*
X72297912Y-37576630D01*
X72299050Y-37573022D01*
X72382438Y-37334712D01*
X72463529Y-37114909D01*
X72464845Y-37111639D01*
X72565668Y-36880551D01*
X72663971Y-36667315D01*
X72665423Y-36664378D01*
X72783174Y-36441580D01*
X72898104Y-36236360D01*
X72899633Y-36233783D01*
X73033682Y-36020446D01*
X73164490Y-35824678D01*
X73166098Y-35822389D01*
X73315723Y-35619654D01*
X73462410Y-35433585D01*
X73627640Y-35241584D01*
X73788479Y-35067590D01*
X73967590Y-34888479D01*
X74141584Y-34727640D01*
X74333589Y-34562405D01*
X74519654Y-34415723D01*
X74722389Y-34266098D01*
X74724678Y-34264490D01*
X74920458Y-34133675D01*
X75133783Y-33999633D01*
X75136360Y-33998104D01*
X75341567Y-33883181D01*
X75564378Y-33765423D01*
X75567315Y-33763971D01*
X75780511Y-33665685D01*
X76011639Y-33564845D01*
X76014909Y-33563529D01*
X76234712Y-33482438D01*
X76473021Y-33399050D01*
X76476633Y-33397912D01*
X76701347Y-33334535D01*
X76945761Y-33269045D01*
X76949584Y-33268153D01*
X77177382Y-33222840D01*
X77427045Y-33175602D01*
X77431248Y-33174956D01*
X77658793Y-33148023D01*
X77914151Y-33119251D01*
X77918581Y-33118914D01*
X78132724Y-33110500D01*
X78400000Y-33100500D01*
X78400500Y-33100500D01*
X106599500Y-33100500D01*
X106600000Y-33100500D01*
X106867139Y-33110495D01*
G37*
%TD.AperFunction*%
%TD*%
M02*
