M48
; DRILL file {KiCad 8.0.8-8.0.8-0~ubuntu22.04.1} date 2025-02-11T23:42:31+0100
; FORMAT={-:-/ absolute / metric / decimal}
; #@! TF.CreationDate,2025-02-11T23:42:31+01:00
; #@! TF.GenerationSoftware,Kicad,Pcbnew,8.0.8-8.0.8-0~ubuntu22.04.1
; #@! TF.FileFunction,Plated,1,2,PTH
FMAT,2
METRIC
; #@! TA.AperFunction,Plated,PTH,ViaDrill
T1C0.300
; #@! TA.AperFunction,Plated,PTH,ComponentDrill
T2C0.500
; #@! TA.AperFunction,Plated,PTH,ComponentDrill
T3C0.762
; #@! TA.AperFunction,Plated,PTH,ComponentDrill
T4C0.800
; #@! TA.AperFunction,Plated,PTH,ComponentDrill
T5C1.000
; #@! TA.AperFunction,Plated,PTH,ComponentDrill
T6C3.200
%
G90
G05
T1
X87.6Y-153.45
X88.552Y-154.97
X88.7Y-151.55
X89.05Y-148.95
X89.593Y-154.926
X90.1Y-157.45
X90.6Y-140.15
X90.75Y-155.0
X91.95Y-154.95
X93.6Y-144.25
X95.1Y-154.4
X96.45Y-140.6
X98.2Y-158.0
X101.9Y-143.15
X102.25Y-150.9
X102.783Y-143.15
X106.05Y-155.85
X106.4Y-143.85
X112.15Y-159.4
X112.57Y-155.07
X112.6Y-152.8
X113.925Y-139.925
X113.925Y-140.775
X114.55Y-157.0
X117.3Y-155.95
X117.4Y-153.9
X117.45Y-151.5
X118.55Y-147.6
X118.9Y-142.3
X120.6Y-156.15
X124.05Y-158.05
X124.45Y-152.3
X126.8Y-144.0
X127.0Y-140.15
X127.65Y-149.7
X129.05Y-156.938
X132.35Y-149.3
X132.45Y-156.3
X132.55Y-152.35
X132.7Y-144.35
X133.95Y-143.3
X134.1Y-148.675
X134.1Y-150.075
X134.1Y-151.95
X134.45Y-154.35
X134.45Y-157.55
X137.7Y-141.3
X137.8Y-149.45
X137.8Y-150.25
X137.85Y-147.5
X138.606Y-152.394
X138.65Y-157.95
X138.9Y-155.8
X141.4Y-141.45
X141.7Y-148.35
X144.2Y-146.1
X146.55Y-155.1
X146.65Y-158.2
X146.95Y-150.95
X147.3Y-142.2
X147.35Y-145.2
X147.4Y-144.35
X149.45Y-155.95
X149.6Y-158.05
X150.1Y-156.95
X152.95Y-146.15
X153.468Y-157.418
X153.85Y-145.0
X154.035Y-150.335
X154.65Y-154.6
X154.675Y-140.425
X154.685Y-149.685
X154.75Y-139.629
X154.85Y-153.05
X155.25Y-159.15
X155.95Y-129.0
X156.749Y-151.999
X157.15Y-140.05
X157.15Y-140.85
X157.15Y-142.05
X157.15Y-142.95
X157.35Y-152.592
X157.55Y-137.6
X157.55Y-138.45
X157.55Y-139.25
X157.7Y-156.65
X157.95Y-148.75
X158.35Y-59.65
X158.55Y-43.05
X158.6Y-63.2
X158.7Y-56.3
X158.7Y-80.15
X158.75Y-139.2
X158.886Y-156.15
X158.932Y-154.782
X158.95Y-153.65
X159.0Y-152.4
X159.15Y-51.35
X159.15Y-142.19
X159.25Y-113.75
X159.25Y-118.25
X159.7Y-125.05
X159.846Y-148.023
X159.85Y-71.0
X159.9Y-93.55
X159.912Y-141.45
X159.912Y-143.861
X159.912Y-144.661
X159.912Y-145.461
X160.15Y-135.6
X160.412Y-147.457
X160.5Y-139.45
X160.627Y-91.85
X161.05Y-155.4
X161.35Y-58.9
X161.35Y-65.0
X161.55Y-128.5
X161.6Y-102.15
X161.9Y-91.85
X161.95Y-85.15
X162.1Y-76.35
X162.412Y-128.563
X162.413Y-114.529
X162.488Y-112.3
X162.55Y-109.35
X162.835Y-145.035
X162.95Y-153.4
X163.0Y-107.1
X163.35Y-128.55
X163.4Y-141.85
X164.15Y-128.55
X164.162Y-142.25
X165.0Y-135.9
X165.4Y-119.55
X166.15Y-116.4
X166.35Y-123.7
X166.35Y-146.1
X166.4Y-104.15
X166.65Y-98.95
X166.9Y-51.35
X167.25Y-155.25
X167.5Y-128.6
X167.55Y-63.65
X167.788Y-133.85
X168.15Y-92.1
X168.157Y-141.45
X168.2Y-86.05
X168.2Y-117.675
X168.3Y-128.6
X168.6Y-72.85
X168.85Y-112.3
X169.1Y-102.8
X169.257Y-106.044
X169.5Y-119.55
X169.55Y-136.4
X169.6Y-154.45
X169.912Y-103.7
X170.346Y-136.476
X170.6Y-109.25
X170.75Y-112.8
X171.069Y-100.409
X171.15Y-96.635
X171.6Y-60.05
X171.7Y-100.9
X171.75Y-97.25
X172.1Y-153.3
X172.4Y-81.2
X172.5Y-91.8
X172.75Y-140.3
X172.8Y-54.35
X173.15Y-42.85
X173.15Y-125.5
X173.85Y-77.2
X173.95Y-120.95
X174.05Y-128.9
X175.3Y-150.8
X175.543Y-145.643
X176.057Y-146.256
X176.538Y-146.895
X177.104Y-147.461
X177.4Y-63.05
X177.55Y-138.95
X178.6Y-154.4
X179.35Y-72.05
X180.7Y-135.95
X180.706Y-152.194
X182.85Y-86.85
X182.85Y-114.1
X183.65Y-150.4
X184.15Y-142.0
X185.95Y-80.55
X186.8Y-127.45
X186.85Y-62.9
X186.9Y-75.45
X186.9Y-104.3
X187.45Y-53.95
X187.8Y-44.4
X188.1Y-118.75
X189.725Y-62.525
X190.5Y-63.35
X191.2Y-64.2
X191.4Y-126.8
X191.8Y-65.25
X191.85Y-122.85
X192.25Y-93.55
X194.5Y-153.25
X197.15Y-141.75
X197.8Y-50.15
X198.1Y-42.65
X199.15Y-149.6
X199.35Y-129.35
X200.8Y-123.975
X200.95Y-57.85
X202.2Y-123.95
X204.1Y-157.95
X206.4Y-87.8
X207.6Y-146.75
X208.15Y-108.2
X208.4Y-49.2
X208.85Y-128.45
X209.2Y-71.15
X211.4Y-137.15
X211.5Y-156.95
X212.05Y-115.85
X212.15Y-96.5
T2
X179.65Y-61.756
X179.65Y-121.35
X180.13Y-46.52
X180.353Y-60.059
X180.353Y-63.453
X180.353Y-119.653
X180.353Y-123.047
X180.833Y-44.823
X180.833Y-48.217
X182.05Y-59.356
X182.05Y-64.156
X182.05Y-118.95
X182.05Y-123.75
X182.53Y-44.12
X182.53Y-48.92
X183.747Y-60.059
X183.747Y-63.453
X183.747Y-119.653
X183.747Y-123.047
X184.227Y-44.823
X184.227Y-48.217
X184.45Y-61.756
X184.45Y-121.35
X184.93Y-46.52
X208.65Y-61.6
X208.653Y-121.253
X209.353Y-59.903
X209.353Y-63.297
X209.356Y-119.556
X209.356Y-122.95
X211.05Y-59.2
X211.05Y-64.0
X211.053Y-118.853
X211.053Y-123.653
X212.747Y-59.903
X212.747Y-63.297
X212.75Y-119.556
X212.75Y-122.95
X213.45Y-61.6
X213.453Y-121.253
T3
X86.138Y-140.0
X86.138Y-142.5
X86.138Y-145.0
X86.138Y-147.5
X86.138Y-150.0
X86.138Y-152.5
X86.138Y-155.0
X86.138Y-157.5
X111.137Y-140.0
X111.137Y-142.5
X111.137Y-145.0
X111.137Y-147.5
X111.137Y-150.0
X111.137Y-152.5
X111.137Y-155.0
X111.137Y-157.5
X115.5Y-140.5
X115.5Y-143.0
X115.5Y-145.5
X115.5Y-148.0
X115.5Y-150.5
X115.5Y-153.0
X115.5Y-155.5
X115.5Y-158.0
X131.0Y-140.5
X131.0Y-143.0
X131.0Y-145.5
X131.0Y-148.0
X131.0Y-150.5
X131.0Y-153.0
X131.0Y-155.5
X131.0Y-158.0
X135.862Y-140.5
X135.862Y-143.0
X135.862Y-145.5
X135.862Y-148.0
X135.862Y-150.5
X135.862Y-153.0
X135.862Y-155.5
X135.862Y-158.0
X151.362Y-140.5
X151.362Y-143.0
X151.362Y-145.5
X151.362Y-148.0
X151.362Y-150.5
X151.362Y-153.0
X151.362Y-155.5
X151.362Y-158.0
X158.25Y-132.088
X158.25Y-158.088
X160.75Y-132.088
X160.75Y-158.088
X162.412Y-71.112
X162.412Y-89.112
X163.25Y-132.088
X163.25Y-158.088
X164.15Y-95.85
X164.15Y-98.35
X164.15Y-100.85
X164.15Y-103.35
X164.15Y-105.85
X164.15Y-108.35
X164.15Y-110.85
X164.15Y-113.35
X164.15Y-115.85
X164.15Y-118.35
X164.15Y-120.85
X164.15Y-123.35
X164.15Y-125.85
X164.912Y-71.112
X164.912Y-89.112
X165.75Y-132.088
X165.75Y-158.088
X167.412Y-71.112
X167.412Y-89.112
X168.25Y-132.088
X168.25Y-158.088
X169.912Y-71.112
X169.912Y-89.112
X170.75Y-132.088
X170.75Y-158.088
X172.412Y-71.112
X172.412Y-89.112
X173.25Y-132.088
X173.25Y-158.088
X174.912Y-71.112
X174.912Y-89.112
X175.75Y-132.088
X175.75Y-158.088
X176.65Y-95.85
X176.65Y-98.35
X176.65Y-100.85
X176.65Y-103.35
X176.65Y-105.85
X176.65Y-108.35
X176.65Y-110.85
X176.65Y-113.35
X176.65Y-115.85
X176.65Y-118.35
X176.65Y-120.85
X176.65Y-123.35
X176.65Y-125.85
X178.25Y-132.088
X178.25Y-158.088
X180.75Y-132.088
X180.75Y-158.088
X183.25Y-132.088
X183.25Y-158.088
X185.75Y-132.088
X185.75Y-158.088
X188.25Y-132.088
X188.25Y-158.088
X190.75Y-132.088
X190.75Y-158.088
X193.25Y-132.088
X193.25Y-158.088
T4
X171.15Y-64.39
X173.65Y-64.39
T5
X156.15Y-43.14
X156.15Y-45.68
X156.15Y-48.22
X156.15Y-50.76
X156.15Y-53.3
X156.15Y-55.84
X156.15Y-58.38
X156.15Y-60.92
X156.15Y-71.08
X156.15Y-73.62
X156.15Y-76.16
X156.15Y-78.7
X156.15Y-81.24
X156.15Y-83.78
X156.15Y-86.32
X156.15Y-88.86
X156.15Y-91.4
X156.15Y-93.94
X156.15Y-96.48
X156.15Y-99.02
X156.15Y-101.56
X156.15Y-104.1
X156.15Y-106.64
X156.15Y-109.18
X156.15Y-111.72
X156.15Y-114.26
X156.15Y-116.8
X156.15Y-119.34
X156.15Y-121.88
X156.36Y-127.6
X158.9Y-127.6
X160.4Y-119.31
X160.4Y-121.85
X160.425Y-95.84
X160.425Y-98.38
X160.425Y-100.92
X160.425Y-103.46
X160.425Y-107.38
X160.425Y-109.92
X160.425Y-112.46
X160.425Y-115.0
X162.9Y-44.64
X162.9Y-49.64
X162.9Y-56.39
X162.9Y-61.39
X169.9Y-43.31
X169.9Y-45.85
X169.9Y-48.39
X169.9Y-52.1
X169.9Y-54.64
X169.9Y-57.18
X175.65Y-43.31
X175.65Y-45.85
X175.65Y-48.39
X175.65Y-52.1
X175.65Y-54.64
X175.65Y-57.18
X181.4Y-53.825
X181.4Y-127.6
X183.94Y-53.825
X183.94Y-127.6
T6
X182.05Y-61.756
X182.05Y-121.35
X182.53Y-46.52
X211.05Y-61.6
X211.053Y-121.253
M30
