G04 #@! TF.GenerationSoftware,KiCad,Pcbnew,8.0.8-8.0.8-0~ubuntu22.04.1*
G04 #@! TF.CreationDate,2025-02-11T23:42:30+01:00*
G04 #@! TF.ProjectId,aovv_rev_0,616f7676-5f72-4657-965f-302e6b696361,rev?*
G04 #@! TF.SameCoordinates,Original*
G04 #@! TF.FileFunction,Soldermask,Top*
G04 #@! TF.FilePolarity,Negative*
%FSLAX46Y46*%
G04 Gerber Fmt 4.6, Leading zero omitted, Abs format (unit mm)*
G04 Created by KiCad (PCBNEW 8.0.8-8.0.8-0~ubuntu22.04.1) date 2025-02-11 23:42:30*
%MOMM*%
%LPD*%
G01*
G04 APERTURE LIST*
%ADD10C,1.524000*%
%ADD11R,1.700000X1.700000*%
%ADD12O,1.700000X1.700000*%
%ADD13C,0.800000*%
%ADD14C,6.400000*%
%ADD15C,2.000000*%
%ADD16R,1.600000X1.600000*%
%ADD17C,1.600000*%
G04 APERTURE END LIST*
D10*
X193250000Y-158087500D03*
X190750000Y-158087500D03*
X188250000Y-158087500D03*
X185750000Y-158087500D03*
X183250000Y-158087500D03*
X180750000Y-158087500D03*
X178250000Y-158087500D03*
X175750000Y-158087500D03*
X173250000Y-158087500D03*
X170750000Y-158087500D03*
X168250000Y-158087500D03*
X165750000Y-158087500D03*
X163250000Y-158087500D03*
X160750000Y-158087500D03*
X158250000Y-158087500D03*
X158250000Y-132087500D03*
X160750000Y-132087500D03*
X163250000Y-132087500D03*
X165750000Y-132087500D03*
X168250000Y-132087500D03*
X170750000Y-132087500D03*
X173250000Y-132087500D03*
X175750000Y-132087500D03*
X178250000Y-132087500D03*
X180750000Y-132087500D03*
X183250000Y-132087500D03*
X185750000Y-132087500D03*
X188250000Y-132087500D03*
X190750000Y-132087500D03*
X193250000Y-132087500D03*
D11*
X181400000Y-127600000D03*
D12*
X183940000Y-127600000D03*
D11*
X160400000Y-121850000D03*
D12*
X160400000Y-119310000D03*
D13*
X179650000Y-121350000D03*
X180352944Y-119652944D03*
X180352944Y-123047056D03*
X182050000Y-118950000D03*
D14*
X182050000Y-121350000D03*
D13*
X182050000Y-123750000D03*
X183747056Y-119652944D03*
X183747056Y-123047056D03*
X184450000Y-121350000D03*
D11*
X160425000Y-95840000D03*
D12*
X160425000Y-98380000D03*
X160425000Y-100920000D03*
X160425000Y-103460000D03*
D11*
X158900000Y-127600000D03*
D12*
X156360000Y-127600000D03*
D15*
X162900000Y-49640000D03*
X162900000Y-44640000D03*
D13*
X180130000Y-46520000D03*
X180832944Y-44822944D03*
X180832944Y-48217056D03*
X182530000Y-44120000D03*
D14*
X182530000Y-46520000D03*
D13*
X182530000Y-48920000D03*
X184227056Y-44822944D03*
X184227056Y-48217056D03*
X184930000Y-46520000D03*
D16*
X171150000Y-64390000D03*
D17*
X173650000Y-64390000D03*
D10*
X86137500Y-157500000D03*
X86137500Y-155000000D03*
X86137500Y-152500000D03*
X86137500Y-150000000D03*
X86137500Y-147500000D03*
X86137500Y-145000000D03*
X86137500Y-142500000D03*
X86137500Y-140000000D03*
X111137500Y-140000000D03*
X111137500Y-142500000D03*
X111137500Y-145000000D03*
X111137500Y-147500000D03*
X111137500Y-150000000D03*
X111137500Y-152500000D03*
X111137500Y-155000000D03*
X111137500Y-157500000D03*
X135862500Y-158000000D03*
X135862500Y-155500000D03*
X135862500Y-153000000D03*
X135862500Y-150500000D03*
X135862500Y-148000000D03*
X135862500Y-145500000D03*
X135862500Y-143000000D03*
X135862500Y-140500000D03*
X151362500Y-140500000D03*
X151362500Y-143000000D03*
X151362500Y-145500000D03*
X151362500Y-148000000D03*
X151362500Y-150500000D03*
X151362500Y-153000000D03*
X151362500Y-155500000D03*
X151362500Y-158000000D03*
D11*
X175650000Y-52100000D03*
D12*
X175650000Y-54640000D03*
X175650000Y-57180000D03*
D11*
X169900000Y-52100000D03*
D12*
X169900000Y-54640000D03*
X169900000Y-57180000D03*
D11*
X169900000Y-43310000D03*
D12*
X169900000Y-45850000D03*
X169900000Y-48390000D03*
D11*
X181400000Y-53825000D03*
D12*
X183940000Y-53825000D03*
D13*
X211050000Y-64000000D03*
X209352944Y-63297056D03*
X212747056Y-63297056D03*
X208650000Y-61600000D03*
D14*
X211050000Y-61600000D03*
D13*
X213450000Y-61600000D03*
X209352944Y-59902944D03*
X212747056Y-59902944D03*
X211050000Y-59200000D03*
D10*
X164150000Y-125850000D03*
X164150000Y-123350000D03*
X164150000Y-120850000D03*
X164150000Y-118350000D03*
X164150000Y-115850000D03*
X164150000Y-113350000D03*
X164150000Y-110850000D03*
X164150000Y-108350000D03*
X164150000Y-105850000D03*
X164150000Y-103350000D03*
X164150000Y-100850000D03*
X164150000Y-98350000D03*
X164150000Y-95850000D03*
X176650000Y-95850000D03*
X176650000Y-98350000D03*
X176650000Y-100850000D03*
X176650000Y-103350000D03*
X176650000Y-105850000D03*
X176650000Y-108350000D03*
X176650000Y-110850000D03*
X176650000Y-113350000D03*
X176650000Y-115850000D03*
X176650000Y-118350000D03*
X176650000Y-120850000D03*
X176650000Y-123350000D03*
X176650000Y-125850000D03*
D11*
X156150000Y-60920000D03*
D12*
X156150000Y-58380000D03*
X156150000Y-55840000D03*
X156150000Y-53300000D03*
X156150000Y-50760000D03*
X156150000Y-48220000D03*
X156150000Y-45680000D03*
X156150000Y-43140000D03*
D13*
X208652944Y-121252944D03*
X209355888Y-119555888D03*
X209355888Y-122950000D03*
X211052944Y-118852944D03*
D14*
X211052944Y-121252944D03*
D13*
X211052944Y-123652944D03*
X212750000Y-119555888D03*
X212750000Y-122950000D03*
X213452944Y-121252944D03*
D15*
X162900000Y-61390000D03*
X162900000Y-56390000D03*
D10*
X115500000Y-158000000D03*
X115500000Y-155500000D03*
X115500000Y-153000000D03*
X115500000Y-150500000D03*
X115500000Y-148000000D03*
X115500000Y-145500000D03*
X115500000Y-143000000D03*
X115500000Y-140500000D03*
X131000000Y-140500000D03*
X131000000Y-143000000D03*
X131000000Y-145500000D03*
X131000000Y-148000000D03*
X131000000Y-150500000D03*
X131000000Y-153000000D03*
X131000000Y-155500000D03*
X131000000Y-158000000D03*
D13*
X184450000Y-61755888D03*
X183747056Y-63452944D03*
X183747056Y-60058832D03*
X182050000Y-64155888D03*
D14*
X182050000Y-61755888D03*
D13*
X182050000Y-59355888D03*
X180352944Y-63452944D03*
X180352944Y-60058832D03*
X179650000Y-61755888D03*
D11*
X156150000Y-71080000D03*
D12*
X156150000Y-73620000D03*
X156150000Y-76160000D03*
X156150000Y-78700000D03*
X156150000Y-81240000D03*
X156150000Y-83780000D03*
X156150000Y-86320000D03*
X156150000Y-88860000D03*
X156150000Y-91400000D03*
X156150000Y-93940000D03*
X156150000Y-96480000D03*
X156150000Y-99020000D03*
X156150000Y-101560000D03*
X156150000Y-104100000D03*
X156150000Y-106640000D03*
X156150000Y-109180000D03*
X156150000Y-111720000D03*
X156150000Y-114260000D03*
X156150000Y-116800000D03*
X156150000Y-119340000D03*
X156150000Y-121880000D03*
D11*
X175650000Y-43310000D03*
D12*
X175650000Y-45850000D03*
X175650000Y-48390000D03*
D10*
X174912500Y-89112500D03*
X172412500Y-89112500D03*
X169912500Y-89112500D03*
X167412500Y-89112500D03*
X164912500Y-89112500D03*
X162412500Y-89112500D03*
X162412500Y-71112500D03*
X164912500Y-71112500D03*
X167412500Y-71112500D03*
X169912500Y-71112500D03*
X172412500Y-71112500D03*
X174912500Y-71112500D03*
D11*
X160425000Y-107380000D03*
D12*
X160425000Y-109920000D03*
X160425000Y-112460000D03*
X160425000Y-115000000D03*
M02*
