%TF.GenerationSoftware,KiCad,Pcbnew,8.0.8-8.0.8-0~ubuntu22.04.1*%
%TF.CreationDate,2025-02-11T23:42:32+01:00*%
%TF.ProjectId,aovv_rev_0,616f7676-5f72-4657-965f-302e6b696361,rev?*%
%TF.SameCoordinates,Original*%
%TF.FileFunction,Drillmap*%
%TF.FilePolarity,Positive*%
%FSLAX45Y45*%
G04 Gerber Fmt 4.5, Leading zero omitted, Abs format (unit mm)*
G04 Created by KiCad (PCBNEW 8.0.8-8.0.8-0~ubuntu22.04.1) date 2025-02-11 23:42:32*
%MOMM*%
%LPD*%
G01*
G04 APERTURE LIST*
%ADD10C,0.050000*%
%ADD11C,0.200000*%
%ADD12C,0.100000*%
%ADD13C,0.320000*%
G04 APERTURE END LIST*
D10*
X15500000Y-3900000D02*
X19900000Y-3900000D01*
X21500000Y-15700000D02*
X21500000Y-15900000D01*
X21500000Y-15900000D02*
X21300000Y-16100000D01*
X21500000Y-4100000D02*
X21300000Y-3900000D01*
X21300000Y-3900000D02*
X19900000Y-3900000D01*
X8400000Y-13800000D02*
X8500000Y-13700000D01*
X8400000Y-16000000D02*
X8400000Y-13800000D01*
X15120000Y-13700000D02*
X8500000Y-13700000D01*
X8500000Y-16100000D02*
X8400000Y-16000000D01*
X21300000Y-16100000D02*
X8500000Y-16100000D01*
X15300000Y-4100000D02*
X15300000Y-13500000D01*
X21500000Y-4100000D02*
X21500000Y-15700000D01*
X15300000Y-4100000D02*
X15500000Y-3900000D01*
X15120000Y-13700000D02*
X15300000Y-13520000D01*
X15300000Y-13500000D02*
X15300000Y-13520000D01*
D11*
D12*
X8745000Y-15330000D02*
X8775000Y-15360000D01*
X8775000Y-15330000D02*
X8745000Y-15360000D01*
X8840200Y-15482021D02*
X8870200Y-15512021D01*
X8870200Y-15482021D02*
X8840200Y-15512021D01*
X8855000Y-15140000D02*
X8885000Y-15170000D01*
X8885000Y-15140000D02*
X8855000Y-15170000D01*
X8890000Y-14880000D02*
X8920000Y-14910000D01*
X8920000Y-14880000D02*
X8890000Y-14910000D01*
X8944347Y-15477577D02*
X8974347Y-15507577D01*
X8974347Y-15477577D02*
X8944347Y-15507577D01*
X8995000Y-15730000D02*
X9025000Y-15760000D01*
X9025000Y-15730000D02*
X8995000Y-15760000D01*
X9045000Y-14000000D02*
X9075000Y-14030000D01*
X9075000Y-14000000D02*
X9045000Y-14030000D01*
X9060000Y-15485000D02*
X9090000Y-15515000D01*
X9090000Y-15485000D02*
X9060000Y-15515000D01*
X9180000Y-15480000D02*
X9210000Y-15510000D01*
X9210000Y-15480000D02*
X9180000Y-15510000D01*
X9345000Y-14410000D02*
X9375000Y-14440000D01*
X9375000Y-14410000D02*
X9345000Y-14440000D01*
X9495000Y-15425000D02*
X9525000Y-15455000D01*
X9525000Y-15425000D02*
X9495000Y-15455000D01*
X9630000Y-14045000D02*
X9660000Y-14075000D01*
X9660000Y-14045000D02*
X9630000Y-14075000D01*
X9805000Y-15785000D02*
X9835000Y-15815000D01*
X9835000Y-15785000D02*
X9805000Y-15815000D01*
X10175000Y-14300000D02*
X10205000Y-14330000D01*
X10205000Y-14300000D02*
X10175000Y-14330000D01*
X10210000Y-15075000D02*
X10240000Y-15105000D01*
X10240000Y-15075000D02*
X10210000Y-15105000D01*
X10263315Y-14300000D02*
X10293315Y-14330000D01*
X10293315Y-14300000D02*
X10263315Y-14330000D01*
X10590000Y-15570000D02*
X10620000Y-15600000D01*
X10620000Y-15570000D02*
X10590000Y-15600000D01*
X10625000Y-14370000D02*
X10655000Y-14400000D01*
X10655000Y-14370000D02*
X10625000Y-14400000D01*
X11200000Y-15925000D02*
X11230000Y-15955000D01*
X11230000Y-15925000D02*
X11200000Y-15955000D01*
X11241970Y-15491970D02*
X11271970Y-15521970D01*
X11271970Y-15491970D02*
X11241970Y-15521970D01*
X11245000Y-15265000D02*
X11275000Y-15295000D01*
X11275000Y-15265000D02*
X11245000Y-15295000D01*
X11377500Y-13977500D02*
X11407500Y-14007500D01*
X11407500Y-13977500D02*
X11377500Y-14007500D01*
X11377500Y-14062500D02*
X11407500Y-14092500D01*
X11407500Y-14062500D02*
X11377500Y-14092500D01*
X11440000Y-15685000D02*
X11470000Y-15715000D01*
X11470000Y-15685000D02*
X11440000Y-15715000D01*
X11715000Y-15580000D02*
X11745000Y-15610000D01*
X11745000Y-15580000D02*
X11715000Y-15610000D01*
X11725000Y-15375000D02*
X11755000Y-15405000D01*
X11755000Y-15375000D02*
X11725000Y-15405000D01*
X11730000Y-15135000D02*
X11760000Y-15165000D01*
X11760000Y-15135000D02*
X11730000Y-15165000D01*
X11840000Y-14745000D02*
X11870000Y-14775000D01*
X11870000Y-14745000D02*
X11840000Y-14775000D01*
X11875000Y-14215000D02*
X11905000Y-14245000D01*
X11905000Y-14215000D02*
X11875000Y-14245000D01*
X12045000Y-15600000D02*
X12075000Y-15630000D01*
X12075000Y-15600000D02*
X12045000Y-15630000D01*
X12390000Y-15790000D02*
X12420000Y-15820000D01*
X12420000Y-15790000D02*
X12390000Y-15820000D01*
X12430000Y-15215000D02*
X12460000Y-15245000D01*
X12460000Y-15215000D02*
X12430000Y-15245000D01*
X12665000Y-14385000D02*
X12695000Y-14415000D01*
X12695000Y-14385000D02*
X12665000Y-14415000D01*
X12685000Y-14000000D02*
X12715000Y-14030000D01*
X12715000Y-14000000D02*
X12685000Y-14030000D01*
X12750000Y-14955000D02*
X12780000Y-14985000D01*
X12780000Y-14955000D02*
X12750000Y-14985000D01*
X12890000Y-15678800D02*
X12920000Y-15708800D01*
X12920000Y-15678800D02*
X12890000Y-15708800D01*
X13220000Y-14915000D02*
X13250000Y-14945000D01*
X13250000Y-14915000D02*
X13220000Y-14945000D01*
X13230000Y-15615000D02*
X13260000Y-15645000D01*
X13260000Y-15615000D02*
X13230000Y-15645000D01*
X13240000Y-15220000D02*
X13270000Y-15250000D01*
X13270000Y-15220000D02*
X13240000Y-15250000D01*
X13255000Y-14420000D02*
X13285000Y-14450000D01*
X13285000Y-14420000D02*
X13255000Y-14450000D01*
X13380000Y-14315000D02*
X13410000Y-14345000D01*
X13410000Y-14315000D02*
X13380000Y-14345000D01*
X13395000Y-14852500D02*
X13425000Y-14882500D01*
X13425000Y-14852500D02*
X13395000Y-14882500D01*
X13395000Y-14992500D02*
X13425000Y-15022500D01*
X13425000Y-14992500D02*
X13395000Y-15022500D01*
X13395000Y-15180000D02*
X13425000Y-15210000D01*
X13425000Y-15180000D02*
X13395000Y-15210000D01*
X13430000Y-15420000D02*
X13460000Y-15450000D01*
X13460000Y-15420000D02*
X13430000Y-15450000D01*
X13430000Y-15740000D02*
X13460000Y-15770000D01*
X13460000Y-15740000D02*
X13430000Y-15770000D01*
X13755000Y-14115000D02*
X13785000Y-14145000D01*
X13785000Y-14115000D02*
X13755000Y-14145000D01*
X13765000Y-14930000D02*
X13795000Y-14960000D01*
X13795000Y-14930000D02*
X13765000Y-14960000D01*
X13765000Y-15010000D02*
X13795000Y-15040000D01*
X13795000Y-15010000D02*
X13765000Y-15040000D01*
X13770000Y-14735000D02*
X13800000Y-14765000D01*
X13800000Y-14735000D02*
X13770000Y-14765000D01*
X13845551Y-15224448D02*
X13875551Y-15254448D01*
X13875551Y-15224448D02*
X13845551Y-15254448D01*
X13850000Y-15780000D02*
X13880000Y-15810000D01*
X13880000Y-15780000D02*
X13850000Y-15810000D01*
X13875000Y-15565000D02*
X13905000Y-15595000D01*
X13905000Y-15565000D02*
X13875000Y-15595000D01*
X14125000Y-14130000D02*
X14155000Y-14160000D01*
X14155000Y-14130000D02*
X14125000Y-14160000D01*
X14155000Y-14820000D02*
X14185000Y-14850000D01*
X14185000Y-14820000D02*
X14155000Y-14850000D01*
X14405000Y-14595000D02*
X14435000Y-14625000D01*
X14435000Y-14595000D02*
X14405000Y-14625000D01*
X14640000Y-15495000D02*
X14670000Y-15525000D01*
X14670000Y-15495000D02*
X14640000Y-15525000D01*
X14650000Y-15805000D02*
X14680000Y-15835000D01*
X14680000Y-15805000D02*
X14650000Y-15835000D01*
X14680000Y-15080000D02*
X14710000Y-15110000D01*
X14710000Y-15080000D02*
X14680000Y-15110000D01*
X14715000Y-14205000D02*
X14745000Y-14235000D01*
X14745000Y-14205000D02*
X14715000Y-14235000D01*
X14720000Y-14505000D02*
X14750000Y-14535000D01*
X14750000Y-14505000D02*
X14720000Y-14535000D01*
X14725000Y-14420000D02*
X14755000Y-14450000D01*
X14755000Y-14420000D02*
X14725000Y-14450000D01*
X14930000Y-15580000D02*
X14960000Y-15610000D01*
X14960000Y-15580000D02*
X14930000Y-15610000D01*
X14945000Y-15790000D02*
X14975000Y-15820000D01*
X14975000Y-15790000D02*
X14945000Y-15820000D01*
X14995000Y-15680000D02*
X15025000Y-15710000D01*
X15025000Y-15680000D02*
X14995000Y-15710000D01*
X15280000Y-14600000D02*
X15310000Y-14630000D01*
X15310000Y-14600000D02*
X15280000Y-14630000D01*
X15331789Y-15726789D02*
X15361789Y-15756789D01*
X15361789Y-15726789D02*
X15331789Y-15756789D01*
X15370000Y-14485000D02*
X15400000Y-14515000D01*
X15400000Y-14485000D02*
X15370000Y-14515000D01*
X15388505Y-15018505D02*
X15418505Y-15048505D01*
X15418505Y-15018505D02*
X15388505Y-15048505D01*
X15450000Y-15445000D02*
X15480000Y-15475000D01*
X15480000Y-15445000D02*
X15450000Y-15475000D01*
X15452500Y-14027500D02*
X15482500Y-14057500D01*
X15482500Y-14027500D02*
X15452500Y-14057500D01*
X15453505Y-14953505D02*
X15483505Y-14983505D01*
X15483505Y-14953505D02*
X15453505Y-14983505D01*
X15460000Y-13947852D02*
X15490000Y-13977852D01*
X15490000Y-13947852D02*
X15460000Y-13977852D01*
X15470000Y-15290000D02*
X15500000Y-15320000D01*
X15500000Y-15290000D02*
X15470000Y-15320000D01*
X15510000Y-15900000D02*
X15540000Y-15930000D01*
X15540000Y-15900000D02*
X15510000Y-15930000D01*
X15580000Y-12885000D02*
X15610000Y-12915000D01*
X15610000Y-12885000D02*
X15580000Y-12915000D01*
X15659926Y-15184926D02*
X15689926Y-15214926D01*
X15689926Y-15184926D02*
X15659926Y-15214926D01*
X15700000Y-13990000D02*
X15730000Y-14020000D01*
X15730000Y-13990000D02*
X15700000Y-14020000D01*
X15700000Y-14070000D02*
X15730000Y-14100000D01*
X15730000Y-14070000D02*
X15700000Y-14100000D01*
X15700000Y-14190000D02*
X15730000Y-14220000D01*
X15730000Y-14190000D02*
X15700000Y-14220000D01*
X15700000Y-14280000D02*
X15730000Y-14310000D01*
X15730000Y-14280000D02*
X15700000Y-14310000D01*
X15720000Y-15244241D02*
X15750000Y-15274241D01*
X15750000Y-15244241D02*
X15720000Y-15274241D01*
X15740000Y-13745000D02*
X15770000Y-13775000D01*
X15770000Y-13745000D02*
X15740000Y-13775000D01*
X15740000Y-13830000D02*
X15770000Y-13860000D01*
X15770000Y-13830000D02*
X15740000Y-13860000D01*
X15740000Y-13910000D02*
X15770000Y-13940000D01*
X15770000Y-13910000D02*
X15740000Y-13940000D01*
X15755000Y-15650000D02*
X15785000Y-15680000D01*
X15785000Y-15650000D02*
X15755000Y-15680000D01*
X15780000Y-14860000D02*
X15810000Y-14890000D01*
X15810000Y-14860000D02*
X15780000Y-14890000D01*
X15820000Y-5950000D02*
X15850000Y-5980000D01*
X15850000Y-5950000D02*
X15820000Y-5980000D01*
X15840000Y-4290000D02*
X15870000Y-4320000D01*
X15870000Y-4290000D02*
X15840000Y-4320000D01*
X15845000Y-6305000D02*
X15875000Y-6335000D01*
X15875000Y-6305000D02*
X15845000Y-6335000D01*
X15855000Y-5615000D02*
X15885000Y-5645000D01*
X15885000Y-5615000D02*
X15855000Y-5645000D01*
X15855000Y-8000000D02*
X15885000Y-8030000D01*
X15885000Y-8000000D02*
X15855000Y-8030000D01*
X15860000Y-13905000D02*
X15890000Y-13935000D01*
X15890000Y-13905000D02*
X15860000Y-13935000D01*
X15873578Y-15600000D02*
X15903578Y-15630000D01*
X15903578Y-15600000D02*
X15873578Y-15630000D01*
X15878211Y-15463211D02*
X15908211Y-15493211D01*
X15908211Y-15463211D02*
X15878211Y-15493211D01*
X15880000Y-15350000D02*
X15910000Y-15380000D01*
X15910000Y-15350000D02*
X15880000Y-15380000D01*
X15885000Y-15225000D02*
X15915000Y-15255000D01*
X15915000Y-15225000D02*
X15885000Y-15255000D01*
X15900000Y-5120000D02*
X15930000Y-5150000D01*
X15930000Y-5120000D02*
X15900000Y-5150000D01*
X15900000Y-14203985D02*
X15930000Y-14233985D01*
X15930000Y-14203985D02*
X15900000Y-14233985D01*
X15910000Y-11360000D02*
X15940000Y-11390000D01*
X15940000Y-11360000D02*
X15910000Y-11390000D01*
X15910000Y-11810000D02*
X15940000Y-11840000D01*
X15940000Y-11810000D02*
X15910000Y-11840000D01*
X15955000Y-12490000D02*
X15985000Y-12520000D01*
X15985000Y-12490000D02*
X15955000Y-12520000D01*
X15969631Y-14787292D02*
X15999631Y-14817292D01*
X15999631Y-14787292D02*
X15969631Y-14817292D01*
X15970000Y-7085000D02*
X16000000Y-7115000D01*
X16000000Y-7085000D02*
X15970000Y-7115000D01*
X15975000Y-9340000D02*
X16005000Y-9370000D01*
X16005000Y-9340000D02*
X15975000Y-9370000D01*
X15976200Y-14130000D02*
X16006200Y-14160000D01*
X16006200Y-14130000D02*
X15976200Y-14160000D01*
X15976200Y-14371054D02*
X16006200Y-14401054D01*
X16006200Y-14371054D02*
X15976200Y-14401054D01*
X15976200Y-14451054D02*
X16006200Y-14481054D01*
X16006200Y-14451054D02*
X15976200Y-14481054D01*
X15976200Y-14531055D02*
X16006200Y-14561055D01*
X16006200Y-14531055D02*
X15976200Y-14561055D01*
X16000000Y-13545000D02*
X16030000Y-13575000D01*
X16030000Y-13545000D02*
X16000000Y-13575000D01*
X16026200Y-14730724D02*
X16056200Y-14760724D01*
X16056200Y-14730724D02*
X16026200Y-14760724D01*
X16035000Y-13930000D02*
X16065000Y-13960000D01*
X16065000Y-13930000D02*
X16035000Y-13960000D01*
X16047711Y-9170000D02*
X16077711Y-9200000D01*
X16077711Y-9170000D02*
X16047711Y-9200000D01*
X16090000Y-15525000D02*
X16120000Y-15555000D01*
X16120000Y-15525000D02*
X16090000Y-15555000D01*
X16120000Y-5875000D02*
X16150000Y-5905000D01*
X16150000Y-5875000D02*
X16120000Y-5905000D01*
X16120000Y-6485000D02*
X16150000Y-6515000D01*
X16150000Y-6485000D02*
X16120000Y-6515000D01*
X16140000Y-12835000D02*
X16170000Y-12865000D01*
X16170000Y-12835000D02*
X16140000Y-12865000D01*
X16145000Y-10200000D02*
X16175000Y-10230000D01*
X16175000Y-10200000D02*
X16145000Y-10230000D01*
X16175000Y-9170000D02*
X16205000Y-9200000D01*
X16205000Y-9170000D02*
X16175000Y-9200000D01*
X16180000Y-8500000D02*
X16210000Y-8530000D01*
X16210000Y-8500000D02*
X16180000Y-8530000D01*
X16195000Y-7620000D02*
X16225000Y-7650000D01*
X16225000Y-7620000D02*
X16195000Y-7650000D01*
X16226190Y-12841252D02*
X16256190Y-12871252D01*
X16256190Y-12841252D02*
X16226190Y-12871252D01*
X16226292Y-11437903D02*
X16256292Y-11467903D01*
X16256292Y-11437903D02*
X16226292Y-11467903D01*
X16233800Y-11215000D02*
X16263800Y-11245000D01*
X16263800Y-11215000D02*
X16233800Y-11245000D01*
X16240000Y-10920000D02*
X16270000Y-10950000D01*
X16270000Y-10920000D02*
X16240000Y-10950000D01*
X16268462Y-14488462D02*
X16298462Y-14518462D01*
X16298462Y-14488462D02*
X16268462Y-14518462D01*
X16280000Y-15325000D02*
X16310000Y-15355000D01*
X16310000Y-15325000D02*
X16280000Y-15355000D01*
X16285000Y-10695000D02*
X16315000Y-10725000D01*
X16315000Y-10695000D02*
X16285000Y-10725000D01*
X16320000Y-12840000D02*
X16350000Y-12870000D01*
X16350000Y-12840000D02*
X16320000Y-12870000D01*
X16325000Y-14170000D02*
X16355000Y-14200000D01*
X16355000Y-14170000D02*
X16325000Y-14200000D01*
X16400000Y-12840000D02*
X16430000Y-12870000D01*
X16430000Y-12840000D02*
X16400000Y-12870000D01*
X16401180Y-14210000D02*
X16431180Y-14240000D01*
X16431180Y-14210000D02*
X16401180Y-14240000D01*
X16485000Y-13575000D02*
X16515000Y-13605000D01*
X16515000Y-13575000D02*
X16485000Y-13605000D01*
X16525000Y-11940000D02*
X16555000Y-11970000D01*
X16555000Y-11940000D02*
X16525000Y-11970000D01*
X16600000Y-11625000D02*
X16630000Y-11655000D01*
X16630000Y-11625000D02*
X16600000Y-11655000D01*
X16620000Y-12355000D02*
X16650000Y-12385000D01*
X16650000Y-12355000D02*
X16620000Y-12385000D01*
X16620000Y-14595000D02*
X16650000Y-14625000D01*
X16650000Y-14595000D02*
X16620000Y-14625000D01*
X16625000Y-10400000D02*
X16655000Y-10430000D01*
X16655000Y-10400000D02*
X16625000Y-10430000D01*
X16650000Y-9880000D02*
X16680000Y-9910000D01*
X16680000Y-9880000D02*
X16650000Y-9910000D01*
X16675000Y-5120000D02*
X16705000Y-5150000D01*
X16705000Y-5120000D02*
X16675000Y-5150000D01*
X16710000Y-15510000D02*
X16740000Y-15540000D01*
X16740000Y-15510000D02*
X16710000Y-15540000D01*
X16735000Y-12845000D02*
X16765000Y-12875000D01*
X16765000Y-12845000D02*
X16735000Y-12875000D01*
X16740000Y-6350000D02*
X16770000Y-6380000D01*
X16770000Y-6350000D02*
X16740000Y-6380000D01*
X16763800Y-13370000D02*
X16793800Y-13400000D01*
X16793800Y-13370000D02*
X16763800Y-13400000D01*
X16800000Y-9195000D02*
X16830000Y-9225000D01*
X16830000Y-9195000D02*
X16800000Y-9225000D01*
X16800699Y-14130000D02*
X16830699Y-14160000D01*
X16830699Y-14130000D02*
X16800699Y-14160000D01*
X16805000Y-8590000D02*
X16835000Y-8620000D01*
X16835000Y-8590000D02*
X16805000Y-8620000D01*
X16805000Y-11752500D02*
X16835000Y-11782500D01*
X16835000Y-11752500D02*
X16805000Y-11782500D01*
X16815000Y-12845000D02*
X16845000Y-12875000D01*
X16845000Y-12845000D02*
X16815000Y-12875000D01*
X16845000Y-7270000D02*
X16875000Y-7300000D01*
X16875000Y-7270000D02*
X16845000Y-7300000D01*
X16870000Y-11215000D02*
X16900000Y-11245000D01*
X16900000Y-11215000D02*
X16870000Y-11245000D01*
X16895000Y-10265000D02*
X16925000Y-10295000D01*
X16925000Y-10265000D02*
X16895000Y-10295000D01*
X16910699Y-10589449D02*
X16940699Y-10619449D01*
X16940699Y-10589449D02*
X16910699Y-10619449D01*
X16935000Y-11940000D02*
X16965000Y-11970000D01*
X16965000Y-11940000D02*
X16935000Y-11970000D01*
X16940000Y-13625000D02*
X16970000Y-13655000D01*
X16970000Y-13625000D02*
X16940000Y-13655000D01*
X16945000Y-15430000D02*
X16975000Y-15460000D01*
X16975000Y-15430000D02*
X16945000Y-15460000D01*
X16976250Y-10355000D02*
X17006250Y-10385000D01*
X17006250Y-10355000D02*
X16976250Y-10385000D01*
X17019635Y-13632638D02*
X17049635Y-13662638D01*
X17049635Y-13632638D02*
X17019635Y-13662638D01*
X17045000Y-10910000D02*
X17075000Y-10940000D01*
X17075000Y-10910000D02*
X17045000Y-10940000D01*
X17060000Y-11265000D02*
X17090000Y-11295000D01*
X17090000Y-11265000D02*
X17060000Y-11295000D01*
X17091852Y-10025885D02*
X17121852Y-10055885D01*
X17121852Y-10025885D02*
X17091852Y-10055885D01*
X17100000Y-9648542D02*
X17130000Y-9678542D01*
X17130000Y-9648542D02*
X17100000Y-9678542D01*
X17145000Y-5990000D02*
X17175000Y-6020000D01*
X17175000Y-5990000D02*
X17145000Y-6020000D01*
X17155000Y-10075000D02*
X17185000Y-10105000D01*
X17185000Y-10075000D02*
X17155000Y-10105000D01*
X17160000Y-9710000D02*
X17190000Y-9740000D01*
X17190000Y-9710000D02*
X17160000Y-9740000D01*
X17195000Y-15315000D02*
X17225000Y-15345000D01*
X17225000Y-15315000D02*
X17195000Y-15345000D01*
X17225000Y-8105000D02*
X17255000Y-8135000D01*
X17255000Y-8105000D02*
X17225000Y-8135000D01*
X17235000Y-9165000D02*
X17265000Y-9195000D01*
X17265000Y-9165000D02*
X17235000Y-9195000D01*
X17260000Y-14015000D02*
X17290000Y-14045000D01*
X17290000Y-14015000D02*
X17260000Y-14045000D01*
X17265000Y-5420000D02*
X17295000Y-5450000D01*
X17295000Y-5420000D02*
X17265000Y-5450000D01*
X17300000Y-4270000D02*
X17330000Y-4300000D01*
X17330000Y-4270000D02*
X17300000Y-4300000D01*
X17300000Y-12535000D02*
X17330000Y-12565000D01*
X17330000Y-12535000D02*
X17300000Y-12565000D01*
X17370000Y-7705000D02*
X17400000Y-7735000D01*
X17400000Y-7705000D02*
X17370000Y-7735000D01*
X17380000Y-12080000D02*
X17410000Y-12110000D01*
X17410000Y-12080000D02*
X17380000Y-12110000D01*
X17390000Y-12875000D02*
X17420000Y-12905000D01*
X17420000Y-12875000D02*
X17390000Y-12905000D01*
X17515000Y-15065000D02*
X17545000Y-15095000D01*
X17545000Y-15065000D02*
X17515000Y-15095000D01*
X17539302Y-14549301D02*
X17569302Y-14579301D01*
X17569302Y-14549301D02*
X17539302Y-14579301D01*
X17590654Y-14610645D02*
X17620654Y-14640645D01*
X17620654Y-14610645D02*
X17590654Y-14640645D01*
X17638786Y-14674546D02*
X17668786Y-14704546D01*
X17668786Y-14674546D02*
X17638786Y-14704546D01*
X17695355Y-14731114D02*
X17725355Y-14761114D01*
X17725355Y-14731114D02*
X17695355Y-14761114D01*
X17725000Y-6290000D02*
X17755000Y-6320000D01*
X17755000Y-6290000D02*
X17725000Y-6320000D01*
X17740000Y-13880000D02*
X17770000Y-13910000D01*
X17770000Y-13880000D02*
X17740000Y-13910000D01*
X17845000Y-15425000D02*
X17875000Y-15455000D01*
X17875000Y-15425000D02*
X17845000Y-15455000D01*
X17920000Y-7190000D02*
X17950000Y-7220000D01*
X17950000Y-7190000D02*
X17920000Y-7220000D01*
X18055000Y-13580000D02*
X18085000Y-13610000D01*
X18085000Y-13580000D02*
X18055000Y-13610000D01*
X18055552Y-15204448D02*
X18085552Y-15234448D01*
X18085552Y-15204448D02*
X18055552Y-15234448D01*
X18270000Y-8670000D02*
X18300000Y-8700000D01*
X18300000Y-8670000D02*
X18270000Y-8700000D01*
X18270000Y-11395000D02*
X18300000Y-11425000D01*
X18300000Y-11395000D02*
X18270000Y-11425000D01*
X18350000Y-15025000D02*
X18380000Y-15055000D01*
X18380000Y-15025000D02*
X18350000Y-15055000D01*
X18400000Y-14185000D02*
X18430000Y-14215000D01*
X18430000Y-14185000D02*
X18400000Y-14215000D01*
X18580000Y-8040000D02*
X18610000Y-8070000D01*
X18610000Y-8040000D02*
X18580000Y-8070000D01*
X18665000Y-12730000D02*
X18695000Y-12760000D01*
X18695000Y-12730000D02*
X18665000Y-12760000D01*
X18670000Y-6275000D02*
X18700000Y-6305000D01*
X18700000Y-6275000D02*
X18670000Y-6305000D01*
X18675000Y-7530000D02*
X18705000Y-7560000D01*
X18705000Y-7530000D02*
X18675000Y-7560000D01*
X18675000Y-10415000D02*
X18705000Y-10445000D01*
X18705000Y-10415000D02*
X18675000Y-10445000D01*
X18730000Y-5380000D02*
X18760000Y-5410000D01*
X18760000Y-5380000D02*
X18730000Y-5410000D01*
X18765000Y-4425000D02*
X18795000Y-4455000D01*
X18795000Y-4425000D02*
X18765000Y-4455000D01*
X18795000Y-11860000D02*
X18825000Y-11890000D01*
X18825000Y-11860000D02*
X18795000Y-11890000D01*
X18957500Y-6237500D02*
X18987500Y-6267500D01*
X18987500Y-6237500D02*
X18957500Y-6267500D01*
X19035000Y-6320000D02*
X19065000Y-6350000D01*
X19065000Y-6320000D02*
X19035000Y-6350000D01*
X19105000Y-6405000D02*
X19135000Y-6435000D01*
X19135000Y-6405000D02*
X19105000Y-6435000D01*
X19125000Y-12665000D02*
X19155000Y-12695000D01*
X19155000Y-12665000D02*
X19125000Y-12695000D01*
X19165000Y-6510000D02*
X19195000Y-6540000D01*
X19195000Y-6510000D02*
X19165000Y-6540000D01*
X19170000Y-12270000D02*
X19200000Y-12300000D01*
X19200000Y-12270000D02*
X19170000Y-12300000D01*
X19210000Y-9340000D02*
X19240000Y-9370000D01*
X19240000Y-9340000D02*
X19210000Y-9370000D01*
X19435000Y-15310000D02*
X19465000Y-15340000D01*
X19465000Y-15310000D02*
X19435000Y-15340000D01*
X19700000Y-14160000D02*
X19730000Y-14190000D01*
X19730000Y-14160000D02*
X19700000Y-14190000D01*
X19765000Y-5000000D02*
X19795000Y-5030000D01*
X19795000Y-5000000D02*
X19765000Y-5030000D01*
X19795000Y-4250000D02*
X19825000Y-4280000D01*
X19825000Y-4250000D02*
X19795000Y-4280000D01*
X19900000Y-14945000D02*
X19930000Y-14975000D01*
X19930000Y-14945000D02*
X19900000Y-14975000D01*
X19920000Y-12920000D02*
X19950000Y-12950000D01*
X19950000Y-12920000D02*
X19920000Y-12950000D01*
X20065000Y-12382500D02*
X20095000Y-12412500D01*
X20095000Y-12382500D02*
X20065000Y-12412500D01*
X20080000Y-5770000D02*
X20110000Y-5800000D01*
X20110000Y-5770000D02*
X20080000Y-5800000D01*
X20205000Y-12380000D02*
X20235000Y-12410000D01*
X20235000Y-12380000D02*
X20205000Y-12410000D01*
X20395000Y-15780000D02*
X20425000Y-15810000D01*
X20425000Y-15780000D02*
X20395000Y-15810000D01*
X20625000Y-8765000D02*
X20655000Y-8795000D01*
X20655000Y-8765000D02*
X20625000Y-8795000D01*
X20745000Y-14660000D02*
X20775000Y-14690000D01*
X20775000Y-14660000D02*
X20745000Y-14690000D01*
X20800000Y-10805000D02*
X20830000Y-10835000D01*
X20830000Y-10805000D02*
X20800000Y-10835000D01*
X20825000Y-4905000D02*
X20855000Y-4935000D01*
X20855000Y-4905000D02*
X20825000Y-4935000D01*
X20870000Y-12830000D02*
X20900000Y-12860000D01*
X20900000Y-12830000D02*
X20870000Y-12860000D01*
X20905000Y-7100000D02*
X20935000Y-7130000D01*
X20935000Y-7100000D02*
X20905000Y-7130000D01*
X21125000Y-13700000D02*
X21155000Y-13730000D01*
X21155000Y-13700000D02*
X21125000Y-13730000D01*
X21135000Y-15680000D02*
X21165000Y-15710000D01*
X21165000Y-15680000D02*
X21135000Y-15710000D01*
X21190000Y-11570000D02*
X21220000Y-11600000D01*
X21220000Y-11570000D02*
X21190000Y-11600000D01*
X21200000Y-9635000D02*
X21230000Y-9665000D01*
X21230000Y-9635000D02*
X21200000Y-9665000D01*
X17990000Y-6175589D02*
G75*
G02*
X17940000Y-6175589I-25000J0D01*
G01*
X17940000Y-6175589D02*
G75*
G02*
X17990000Y-6175589I25000J0D01*
G01*
X17990000Y-12135000D02*
G75*
G02*
X17940000Y-12135000I-25000J0D01*
G01*
X17940000Y-12135000D02*
G75*
G02*
X17990000Y-12135000I25000J0D01*
G01*
X18038000Y-4652000D02*
G75*
G02*
X17988000Y-4652000I-25000J0D01*
G01*
X17988000Y-4652000D02*
G75*
G02*
X18038000Y-4652000I25000J0D01*
G01*
X18060294Y-6005883D02*
G75*
G02*
X18010294Y-6005883I-25000J0D01*
G01*
X18010294Y-6005883D02*
G75*
G02*
X18060294Y-6005883I25000J0D01*
G01*
X18060294Y-6345294D02*
G75*
G02*
X18010294Y-6345294I-25000J0D01*
G01*
X18010294Y-6345294D02*
G75*
G02*
X18060294Y-6345294I25000J0D01*
G01*
X18060294Y-11965294D02*
G75*
G02*
X18010294Y-11965294I-25000J0D01*
G01*
X18010294Y-11965294D02*
G75*
G02*
X18060294Y-11965294I25000J0D01*
G01*
X18060294Y-12304706D02*
G75*
G02*
X18010294Y-12304706I-25000J0D01*
G01*
X18010294Y-12304706D02*
G75*
G02*
X18060294Y-12304706I25000J0D01*
G01*
X18108294Y-4482294D02*
G75*
G02*
X18058294Y-4482294I-25000J0D01*
G01*
X18058294Y-4482294D02*
G75*
G02*
X18108294Y-4482294I25000J0D01*
G01*
X18108294Y-4821706D02*
G75*
G02*
X18058294Y-4821706I-25000J0D01*
G01*
X18058294Y-4821706D02*
G75*
G02*
X18108294Y-4821706I25000J0D01*
G01*
X18230000Y-5935589D02*
G75*
G02*
X18180000Y-5935589I-25000J0D01*
G01*
X18180000Y-5935589D02*
G75*
G02*
X18230000Y-5935589I25000J0D01*
G01*
X18230000Y-6415589D02*
G75*
G02*
X18180000Y-6415589I-25000J0D01*
G01*
X18180000Y-6415589D02*
G75*
G02*
X18230000Y-6415589I25000J0D01*
G01*
X18230000Y-11895000D02*
G75*
G02*
X18180000Y-11895000I-25000J0D01*
G01*
X18180000Y-11895000D02*
G75*
G02*
X18230000Y-11895000I25000J0D01*
G01*
X18230000Y-12375000D02*
G75*
G02*
X18180000Y-12375000I-25000J0D01*
G01*
X18180000Y-12375000D02*
G75*
G02*
X18230000Y-12375000I25000J0D01*
G01*
X18278000Y-4412000D02*
G75*
G02*
X18228000Y-4412000I-25000J0D01*
G01*
X18228000Y-4412000D02*
G75*
G02*
X18278000Y-4412000I25000J0D01*
G01*
X18278000Y-4892000D02*
G75*
G02*
X18228000Y-4892000I-25000J0D01*
G01*
X18228000Y-4892000D02*
G75*
G02*
X18278000Y-4892000I25000J0D01*
G01*
X18399706Y-6005883D02*
G75*
G02*
X18349706Y-6005883I-25000J0D01*
G01*
X18349706Y-6005883D02*
G75*
G02*
X18399706Y-6005883I25000J0D01*
G01*
X18399706Y-6345294D02*
G75*
G02*
X18349706Y-6345294I-25000J0D01*
G01*
X18349706Y-6345294D02*
G75*
G02*
X18399706Y-6345294I25000J0D01*
G01*
X18399706Y-11965294D02*
G75*
G02*
X18349706Y-11965294I-25000J0D01*
G01*
X18349706Y-11965294D02*
G75*
G02*
X18399706Y-11965294I25000J0D01*
G01*
X18399706Y-12304706D02*
G75*
G02*
X18349706Y-12304706I-25000J0D01*
G01*
X18349706Y-12304706D02*
G75*
G02*
X18399706Y-12304706I25000J0D01*
G01*
X18447706Y-4482294D02*
G75*
G02*
X18397706Y-4482294I-25000J0D01*
G01*
X18397706Y-4482294D02*
G75*
G02*
X18447706Y-4482294I25000J0D01*
G01*
X18447706Y-4821706D02*
G75*
G02*
X18397706Y-4821706I-25000J0D01*
G01*
X18397706Y-4821706D02*
G75*
G02*
X18447706Y-4821706I25000J0D01*
G01*
X18470000Y-6175589D02*
G75*
G02*
X18420000Y-6175589I-25000J0D01*
G01*
X18420000Y-6175589D02*
G75*
G02*
X18470000Y-6175589I25000J0D01*
G01*
X18470000Y-12135000D02*
G75*
G02*
X18420000Y-12135000I-25000J0D01*
G01*
X18420000Y-12135000D02*
G75*
G02*
X18470000Y-12135000I25000J0D01*
G01*
X18518000Y-4652000D02*
G75*
G02*
X18468000Y-4652000I-25000J0D01*
G01*
X18468000Y-4652000D02*
G75*
G02*
X18518000Y-4652000I25000J0D01*
G01*
X20890000Y-6160000D02*
G75*
G02*
X20840000Y-6160000I-25000J0D01*
G01*
X20840000Y-6160000D02*
G75*
G02*
X20890000Y-6160000I25000J0D01*
G01*
X20890294Y-12125294D02*
G75*
G02*
X20840294Y-12125294I-25000J0D01*
G01*
X20840294Y-12125294D02*
G75*
G02*
X20890294Y-12125294I25000J0D01*
G01*
X20960294Y-5990294D02*
G75*
G02*
X20910294Y-5990294I-25000J0D01*
G01*
X20910294Y-5990294D02*
G75*
G02*
X20960294Y-5990294I25000J0D01*
G01*
X20960294Y-6329706D02*
G75*
G02*
X20910294Y-6329706I-25000J0D01*
G01*
X20910294Y-6329706D02*
G75*
G02*
X20960294Y-6329706I25000J0D01*
G01*
X20960589Y-11955589D02*
G75*
G02*
X20910589Y-11955589I-25000J0D01*
G01*
X20910589Y-11955589D02*
G75*
G02*
X20960589Y-11955589I25000J0D01*
G01*
X20960589Y-12295000D02*
G75*
G02*
X20910589Y-12295000I-25000J0D01*
G01*
X20910589Y-12295000D02*
G75*
G02*
X20960589Y-12295000I25000J0D01*
G01*
X21130000Y-5920000D02*
G75*
G02*
X21080000Y-5920000I-25000J0D01*
G01*
X21080000Y-5920000D02*
G75*
G02*
X21130000Y-5920000I25000J0D01*
G01*
X21130000Y-6400000D02*
G75*
G02*
X21080000Y-6400000I-25000J0D01*
G01*
X21080000Y-6400000D02*
G75*
G02*
X21130000Y-6400000I25000J0D01*
G01*
X21130294Y-11885294D02*
G75*
G02*
X21080294Y-11885294I-25000J0D01*
G01*
X21080294Y-11885294D02*
G75*
G02*
X21130294Y-11885294I25000J0D01*
G01*
X21130294Y-12365294D02*
G75*
G02*
X21080294Y-12365294I-25000J0D01*
G01*
X21080294Y-12365294D02*
G75*
G02*
X21130294Y-12365294I25000J0D01*
G01*
X21299706Y-5990294D02*
G75*
G02*
X21249706Y-5990294I-25000J0D01*
G01*
X21249706Y-5990294D02*
G75*
G02*
X21299706Y-5990294I25000J0D01*
G01*
X21299706Y-6329706D02*
G75*
G02*
X21249706Y-6329706I-25000J0D01*
G01*
X21249706Y-6329706D02*
G75*
G02*
X21299706Y-6329706I25000J0D01*
G01*
X21300000Y-11955589D02*
G75*
G02*
X21250000Y-11955589I-25000J0D01*
G01*
X21250000Y-11955589D02*
G75*
G02*
X21300000Y-11955589I25000J0D01*
G01*
X21300000Y-12295000D02*
G75*
G02*
X21250000Y-12295000I-25000J0D01*
G01*
X21250000Y-12295000D02*
G75*
G02*
X21300000Y-12295000I25000J0D01*
G01*
X21370000Y-6160000D02*
G75*
G02*
X21320000Y-6160000I-25000J0D01*
G01*
X21320000Y-6160000D02*
G75*
G02*
X21370000Y-6160000I25000J0D01*
G01*
X21370294Y-12125294D02*
G75*
G02*
X21320294Y-12125294I-25000J0D01*
G01*
X21320294Y-12125294D02*
G75*
G02*
X21370294Y-12125294I25000J0D01*
G01*
X8613750Y-13961900D02*
X8613750Y-14038100D01*
X8575650Y-14000000D02*
X8651850Y-14000000D01*
X8613750Y-14211900D02*
X8613750Y-14288100D01*
X8575650Y-14250000D02*
X8651850Y-14250000D01*
X8613750Y-14461900D02*
X8613750Y-14538100D01*
X8575650Y-14500000D02*
X8651850Y-14500000D01*
X8613750Y-14711900D02*
X8613750Y-14788100D01*
X8575650Y-14750000D02*
X8651850Y-14750000D01*
X8613750Y-14961900D02*
X8613750Y-15038100D01*
X8575650Y-15000000D02*
X8651850Y-15000000D01*
X8613750Y-15211900D02*
X8613750Y-15288100D01*
X8575650Y-15250000D02*
X8651850Y-15250000D01*
X8613750Y-15461900D02*
X8613750Y-15538100D01*
X8575650Y-15500000D02*
X8651850Y-15500000D01*
X8613750Y-15711900D02*
X8613750Y-15788100D01*
X8575650Y-15750000D02*
X8651850Y-15750000D01*
X11113750Y-13961900D02*
X11113750Y-14038100D01*
X11075650Y-14000000D02*
X11151850Y-14000000D01*
X11113750Y-14211900D02*
X11113750Y-14288100D01*
X11075650Y-14250000D02*
X11151850Y-14250000D01*
X11113750Y-14461900D02*
X11113750Y-14538100D01*
X11075650Y-14500000D02*
X11151850Y-14500000D01*
X11113750Y-14711900D02*
X11113750Y-14788100D01*
X11075650Y-14750000D02*
X11151850Y-14750000D01*
X11113750Y-14961900D02*
X11113750Y-15038100D01*
X11075650Y-15000000D02*
X11151850Y-15000000D01*
X11113750Y-15211900D02*
X11113750Y-15288100D01*
X11075650Y-15250000D02*
X11151850Y-15250000D01*
X11113750Y-15461900D02*
X11113750Y-15538100D01*
X11075650Y-15500000D02*
X11151850Y-15500000D01*
X11113750Y-15711900D02*
X11113750Y-15788100D01*
X11075650Y-15750000D02*
X11151850Y-15750000D01*
X11550000Y-14011900D02*
X11550000Y-14088100D01*
X11511900Y-14050000D02*
X11588100Y-14050000D01*
X11550000Y-14261900D02*
X11550000Y-14338100D01*
X11511900Y-14300000D02*
X11588100Y-14300000D01*
X11550000Y-14511900D02*
X11550000Y-14588100D01*
X11511900Y-14550000D02*
X11588100Y-14550000D01*
X11550000Y-14761900D02*
X11550000Y-14838100D01*
X11511900Y-14800000D02*
X11588100Y-14800000D01*
X11550000Y-15011900D02*
X11550000Y-15088100D01*
X11511900Y-15050000D02*
X11588100Y-15050000D01*
X11550000Y-15261900D02*
X11550000Y-15338100D01*
X11511900Y-15300000D02*
X11588100Y-15300000D01*
X11550000Y-15511900D02*
X11550000Y-15588100D01*
X11511900Y-15550000D02*
X11588100Y-15550000D01*
X11550000Y-15761900D02*
X11550000Y-15838100D01*
X11511900Y-15800000D02*
X11588100Y-15800000D01*
X13100000Y-14011900D02*
X13100000Y-14088100D01*
X13061900Y-14050000D02*
X13138100Y-14050000D01*
X13100000Y-14261900D02*
X13100000Y-14338100D01*
X13061900Y-14300000D02*
X13138100Y-14300000D01*
X13100000Y-14511900D02*
X13100000Y-14588100D01*
X13061900Y-14550000D02*
X13138100Y-14550000D01*
X13100000Y-14761900D02*
X13100000Y-14838100D01*
X13061900Y-14800000D02*
X13138100Y-14800000D01*
X13100000Y-15011900D02*
X13100000Y-15088100D01*
X13061900Y-15050000D02*
X13138100Y-15050000D01*
X13100000Y-15261900D02*
X13100000Y-15338100D01*
X13061900Y-15300000D02*
X13138100Y-15300000D01*
X13100000Y-15511900D02*
X13100000Y-15588100D01*
X13061900Y-15550000D02*
X13138100Y-15550000D01*
X13100000Y-15761900D02*
X13100000Y-15838100D01*
X13061900Y-15800000D02*
X13138100Y-15800000D01*
X13586250Y-14011900D02*
X13586250Y-14088100D01*
X13548150Y-14050000D02*
X13624350Y-14050000D01*
X13586250Y-14261900D02*
X13586250Y-14338100D01*
X13548150Y-14300000D02*
X13624350Y-14300000D01*
X13586250Y-14511900D02*
X13586250Y-14588100D01*
X13548150Y-14550000D02*
X13624350Y-14550000D01*
X13586250Y-14761900D02*
X13586250Y-14838100D01*
X13548150Y-14800000D02*
X13624350Y-14800000D01*
X13586250Y-15011900D02*
X13586250Y-15088100D01*
X13548150Y-15050000D02*
X13624350Y-15050000D01*
X13586250Y-15261900D02*
X13586250Y-15338100D01*
X13548150Y-15300000D02*
X13624350Y-15300000D01*
X13586250Y-15511900D02*
X13586250Y-15588100D01*
X13548150Y-15550000D02*
X13624350Y-15550000D01*
X13586250Y-15761900D02*
X13586250Y-15838100D01*
X13548150Y-15800000D02*
X13624350Y-15800000D01*
X15136250Y-14011900D02*
X15136250Y-14088100D01*
X15098150Y-14050000D02*
X15174350Y-14050000D01*
X15136250Y-14261900D02*
X15136250Y-14338100D01*
X15098150Y-14300000D02*
X15174350Y-14300000D01*
X15136250Y-14511900D02*
X15136250Y-14588100D01*
X15098150Y-14550000D02*
X15174350Y-14550000D01*
X15136250Y-14761900D02*
X15136250Y-14838100D01*
X15098150Y-14800000D02*
X15174350Y-14800000D01*
X15136250Y-15011900D02*
X15136250Y-15088100D01*
X15098150Y-15050000D02*
X15174350Y-15050000D01*
X15136250Y-15261900D02*
X15136250Y-15338100D01*
X15098150Y-15300000D02*
X15174350Y-15300000D01*
X15136250Y-15511900D02*
X15136250Y-15588100D01*
X15098150Y-15550000D02*
X15174350Y-15550000D01*
X15136250Y-15761900D02*
X15136250Y-15838100D01*
X15098150Y-15800000D02*
X15174350Y-15800000D01*
X15825000Y-13170650D02*
X15825000Y-13246850D01*
X15786900Y-13208750D02*
X15863100Y-13208750D01*
X15825000Y-15770650D02*
X15825000Y-15846850D01*
X15786900Y-15808750D02*
X15863100Y-15808750D01*
X16075000Y-13170650D02*
X16075000Y-13246850D01*
X16036900Y-13208750D02*
X16113100Y-13208750D01*
X16075000Y-15770650D02*
X16075000Y-15846850D01*
X16036900Y-15808750D02*
X16113100Y-15808750D01*
X16241250Y-7073150D02*
X16241250Y-7149350D01*
X16203150Y-7111250D02*
X16279350Y-7111250D01*
X16241250Y-8873150D02*
X16241250Y-8949350D01*
X16203150Y-8911250D02*
X16279350Y-8911250D01*
X16325000Y-13170650D02*
X16325000Y-13246850D01*
X16286900Y-13208750D02*
X16363100Y-13208750D01*
X16325000Y-15770650D02*
X16325000Y-15846850D01*
X16286900Y-15808750D02*
X16363100Y-15808750D01*
X16415000Y-9546900D02*
X16415000Y-9623100D01*
X16376900Y-9585000D02*
X16453100Y-9585000D01*
X16415000Y-9796900D02*
X16415000Y-9873100D01*
X16376900Y-9835000D02*
X16453100Y-9835000D01*
X16415000Y-10046900D02*
X16415000Y-10123100D01*
X16376900Y-10085000D02*
X16453100Y-10085000D01*
X16415000Y-10296900D02*
X16415000Y-10373100D01*
X16376900Y-10335000D02*
X16453100Y-10335000D01*
X16415000Y-10546900D02*
X16415000Y-10623100D01*
X16376900Y-10585000D02*
X16453100Y-10585000D01*
X16415000Y-10796900D02*
X16415000Y-10873100D01*
X16376900Y-10835000D02*
X16453100Y-10835000D01*
X16415000Y-11046900D02*
X16415000Y-11123100D01*
X16376900Y-11085000D02*
X16453100Y-11085000D01*
X16415000Y-11296900D02*
X16415000Y-11373100D01*
X16376900Y-11335000D02*
X16453100Y-11335000D01*
X16415000Y-11546900D02*
X16415000Y-11623100D01*
X16376900Y-11585000D02*
X16453100Y-11585000D01*
X16415000Y-11796900D02*
X16415000Y-11873100D01*
X16376900Y-11835000D02*
X16453100Y-11835000D01*
X16415000Y-12046900D02*
X16415000Y-12123100D01*
X16376900Y-12085000D02*
X16453100Y-12085000D01*
X16415000Y-12296900D02*
X16415000Y-12373100D01*
X16376900Y-12335000D02*
X16453100Y-12335000D01*
X16415000Y-12546900D02*
X16415000Y-12623100D01*
X16376900Y-12585000D02*
X16453100Y-12585000D01*
X16491250Y-7073150D02*
X16491250Y-7149350D01*
X16453150Y-7111250D02*
X16529350Y-7111250D01*
X16491250Y-8873150D02*
X16491250Y-8949350D01*
X16453150Y-8911250D02*
X16529350Y-8911250D01*
X16575000Y-13170650D02*
X16575000Y-13246850D01*
X16536900Y-13208750D02*
X16613100Y-13208750D01*
X16575000Y-15770650D02*
X16575000Y-15846850D01*
X16536900Y-15808750D02*
X16613100Y-15808750D01*
X16741250Y-7073150D02*
X16741250Y-7149350D01*
X16703150Y-7111250D02*
X16779350Y-7111250D01*
X16741250Y-8873150D02*
X16741250Y-8949350D01*
X16703150Y-8911250D02*
X16779350Y-8911250D01*
X16825000Y-13170650D02*
X16825000Y-13246850D01*
X16786900Y-13208750D02*
X16863100Y-13208750D01*
X16825000Y-15770650D02*
X16825000Y-15846850D01*
X16786900Y-15808750D02*
X16863100Y-15808750D01*
X16991250Y-7073150D02*
X16991250Y-7149350D01*
X16953150Y-7111250D02*
X17029350Y-7111250D01*
X16991250Y-8873150D02*
X16991250Y-8949350D01*
X16953150Y-8911250D02*
X17029350Y-8911250D01*
X17075000Y-13170650D02*
X17075000Y-13246850D01*
X17036900Y-13208750D02*
X17113100Y-13208750D01*
X17075000Y-15770650D02*
X17075000Y-15846850D01*
X17036900Y-15808750D02*
X17113100Y-15808750D01*
X17241250Y-7073150D02*
X17241250Y-7149350D01*
X17203150Y-7111250D02*
X17279350Y-7111250D01*
X17241250Y-8873150D02*
X17241250Y-8949350D01*
X17203150Y-8911250D02*
X17279350Y-8911250D01*
X17325000Y-13170650D02*
X17325000Y-13246850D01*
X17286900Y-13208750D02*
X17363100Y-13208750D01*
X17325000Y-15770650D02*
X17325000Y-15846850D01*
X17286900Y-15808750D02*
X17363100Y-15808750D01*
X17491250Y-7073150D02*
X17491250Y-7149350D01*
X17453150Y-7111250D02*
X17529350Y-7111250D01*
X17491250Y-8873150D02*
X17491250Y-8949350D01*
X17453150Y-8911250D02*
X17529350Y-8911250D01*
X17575000Y-13170650D02*
X17575000Y-13246850D01*
X17536900Y-13208750D02*
X17613100Y-13208750D01*
X17575000Y-15770650D02*
X17575000Y-15846850D01*
X17536900Y-15808750D02*
X17613100Y-15808750D01*
X17665000Y-9546900D02*
X17665000Y-9623100D01*
X17626900Y-9585000D02*
X17703100Y-9585000D01*
X17665000Y-9796900D02*
X17665000Y-9873100D01*
X17626900Y-9835000D02*
X17703100Y-9835000D01*
X17665000Y-10046900D02*
X17665000Y-10123100D01*
X17626900Y-10085000D02*
X17703100Y-10085000D01*
X17665000Y-10296900D02*
X17665000Y-10373100D01*
X17626900Y-10335000D02*
X17703100Y-10335000D01*
X17665000Y-10546900D02*
X17665000Y-10623100D01*
X17626900Y-10585000D02*
X17703100Y-10585000D01*
X17665000Y-10796900D02*
X17665000Y-10873100D01*
X17626900Y-10835000D02*
X17703100Y-10835000D01*
X17665000Y-11046900D02*
X17665000Y-11123100D01*
X17626900Y-11085000D02*
X17703100Y-11085000D01*
X17665000Y-11296900D02*
X17665000Y-11373100D01*
X17626900Y-11335000D02*
X17703100Y-11335000D01*
X17665000Y-11546900D02*
X17665000Y-11623100D01*
X17626900Y-11585000D02*
X17703100Y-11585000D01*
X17665000Y-11796900D02*
X17665000Y-11873100D01*
X17626900Y-11835000D02*
X17703100Y-11835000D01*
X17665000Y-12046900D02*
X17665000Y-12123100D01*
X17626900Y-12085000D02*
X17703100Y-12085000D01*
X17665000Y-12296900D02*
X17665000Y-12373100D01*
X17626900Y-12335000D02*
X17703100Y-12335000D01*
X17665000Y-12546900D02*
X17665000Y-12623100D01*
X17626900Y-12585000D02*
X17703100Y-12585000D01*
X17825000Y-13170650D02*
X17825000Y-13246850D01*
X17786900Y-13208750D02*
X17863100Y-13208750D01*
X17825000Y-15770650D02*
X17825000Y-15846850D01*
X17786900Y-15808750D02*
X17863100Y-15808750D01*
X18075000Y-13170650D02*
X18075000Y-13246850D01*
X18036900Y-13208750D02*
X18113100Y-13208750D01*
X18075000Y-15770650D02*
X18075000Y-15846850D01*
X18036900Y-15808750D02*
X18113100Y-15808750D01*
X18325000Y-13170650D02*
X18325000Y-13246850D01*
X18286900Y-13208750D02*
X18363100Y-13208750D01*
X18325000Y-15770650D02*
X18325000Y-15846850D01*
X18286900Y-15808750D02*
X18363100Y-15808750D01*
X18575000Y-13170650D02*
X18575000Y-13246850D01*
X18536900Y-13208750D02*
X18613100Y-13208750D01*
X18575000Y-15770650D02*
X18575000Y-15846850D01*
X18536900Y-15808750D02*
X18613100Y-15808750D01*
X18825000Y-13170650D02*
X18825000Y-13246850D01*
X18786900Y-13208750D02*
X18863100Y-13208750D01*
X18825000Y-15770650D02*
X18825000Y-15846850D01*
X18786900Y-15808750D02*
X18863100Y-15808750D01*
X19075000Y-13170650D02*
X19075000Y-13246850D01*
X19036900Y-13208750D02*
X19113100Y-13208750D01*
X19075000Y-15770650D02*
X19075000Y-15846850D01*
X19036900Y-15808750D02*
X19113100Y-15808750D01*
X19325000Y-13170650D02*
X19325000Y-13246850D01*
X19286900Y-13208750D02*
X19363100Y-13208750D01*
X19325000Y-15770650D02*
X19325000Y-15846850D01*
X19286900Y-15808750D02*
X19363100Y-15808750D01*
X17143285Y-6467284D02*
X17143285Y-6410715D01*
X17086716Y-6410715D01*
X17086716Y-6467284D01*
X17143285Y-6467284D01*
X17393285Y-6467284D02*
X17393285Y-6410715D01*
X17336716Y-6410715D01*
X17336716Y-6467284D01*
X17393285Y-6467284D01*
X15615000Y-4364000D02*
X15665000Y-4314000D01*
X15615000Y-4264000D01*
X15565000Y-4314000D01*
X15615000Y-4364000D01*
X15615000Y-4618000D02*
X15665000Y-4568000D01*
X15615000Y-4518000D01*
X15565000Y-4568000D01*
X15615000Y-4618000D01*
X15615000Y-4872000D02*
X15665000Y-4822000D01*
X15615000Y-4772000D01*
X15565000Y-4822000D01*
X15615000Y-4872000D01*
X15615000Y-5126000D02*
X15665000Y-5076000D01*
X15615000Y-5026000D01*
X15565000Y-5076000D01*
X15615000Y-5126000D01*
X15615000Y-5380000D02*
X15665000Y-5330000D01*
X15615000Y-5280000D01*
X15565000Y-5330000D01*
X15615000Y-5380000D01*
X15615000Y-5634000D02*
X15665000Y-5584000D01*
X15615000Y-5534000D01*
X15565000Y-5584000D01*
X15615000Y-5634000D01*
X15615000Y-5888000D02*
X15665000Y-5838000D01*
X15615000Y-5788000D01*
X15565000Y-5838000D01*
X15615000Y-5888000D01*
X15615000Y-6142000D02*
X15665000Y-6092000D01*
X15615000Y-6042000D01*
X15565000Y-6092000D01*
X15615000Y-6142000D01*
X15615000Y-7158000D02*
X15665000Y-7108000D01*
X15615000Y-7058000D01*
X15565000Y-7108000D01*
X15615000Y-7158000D01*
X15615000Y-7412000D02*
X15665000Y-7362000D01*
X15615000Y-7312000D01*
X15565000Y-7362000D01*
X15615000Y-7412000D01*
X15615000Y-7666000D02*
X15665000Y-7616000D01*
X15615000Y-7566000D01*
X15565000Y-7616000D01*
X15615000Y-7666000D01*
X15615000Y-7920000D02*
X15665000Y-7870000D01*
X15615000Y-7820000D01*
X15565000Y-7870000D01*
X15615000Y-7920000D01*
X15615000Y-8174000D02*
X15665000Y-8124000D01*
X15615000Y-8074000D01*
X15565000Y-8124000D01*
X15615000Y-8174000D01*
X15615000Y-8428000D02*
X15665000Y-8378000D01*
X15615000Y-8328000D01*
X15565000Y-8378000D01*
X15615000Y-8428000D01*
X15615000Y-8682000D02*
X15665000Y-8632000D01*
X15615000Y-8582000D01*
X15565000Y-8632000D01*
X15615000Y-8682000D01*
X15615000Y-8936000D02*
X15665000Y-8886000D01*
X15615000Y-8836000D01*
X15565000Y-8886000D01*
X15615000Y-8936000D01*
X15615000Y-9190000D02*
X15665000Y-9140000D01*
X15615000Y-9090000D01*
X15565000Y-9140000D01*
X15615000Y-9190000D01*
X15615000Y-9444000D02*
X15665000Y-9394000D01*
X15615000Y-9344000D01*
X15565000Y-9394000D01*
X15615000Y-9444000D01*
X15615000Y-9698000D02*
X15665000Y-9648000D01*
X15615000Y-9598000D01*
X15565000Y-9648000D01*
X15615000Y-9698000D01*
X15615000Y-9952000D02*
X15665000Y-9902000D01*
X15615000Y-9852000D01*
X15565000Y-9902000D01*
X15615000Y-9952000D01*
X15615000Y-10206000D02*
X15665000Y-10156000D01*
X15615000Y-10106000D01*
X15565000Y-10156000D01*
X15615000Y-10206000D01*
X15615000Y-10460000D02*
X15665000Y-10410000D01*
X15615000Y-10360000D01*
X15565000Y-10410000D01*
X15615000Y-10460000D01*
X15615000Y-10714000D02*
X15665000Y-10664000D01*
X15615000Y-10614000D01*
X15565000Y-10664000D01*
X15615000Y-10714000D01*
X15615000Y-10968000D02*
X15665000Y-10918000D01*
X15615000Y-10868000D01*
X15565000Y-10918000D01*
X15615000Y-10968000D01*
X15615000Y-11222000D02*
X15665000Y-11172000D01*
X15615000Y-11122000D01*
X15565000Y-11172000D01*
X15615000Y-11222000D01*
X15615000Y-11476000D02*
X15665000Y-11426000D01*
X15615000Y-11376000D01*
X15565000Y-11426000D01*
X15615000Y-11476000D01*
X15615000Y-11730000D02*
X15665000Y-11680000D01*
X15615000Y-11630000D01*
X15565000Y-11680000D01*
X15615000Y-11730000D01*
X15615000Y-11984000D02*
X15665000Y-11934000D01*
X15615000Y-11884000D01*
X15565000Y-11934000D01*
X15615000Y-11984000D01*
X15615000Y-12238000D02*
X15665000Y-12188000D01*
X15615000Y-12138000D01*
X15565000Y-12188000D01*
X15615000Y-12238000D01*
X15636000Y-12810000D02*
X15686000Y-12760000D01*
X15636000Y-12710000D01*
X15586000Y-12760000D01*
X15636000Y-12810000D01*
X15890000Y-12810000D02*
X15940000Y-12760000D01*
X15890000Y-12710000D01*
X15840000Y-12760000D01*
X15890000Y-12810000D01*
X16040000Y-11981000D02*
X16090000Y-11931000D01*
X16040000Y-11881000D01*
X15990000Y-11931000D01*
X16040000Y-11981000D01*
X16040000Y-12235000D02*
X16090000Y-12185000D01*
X16040000Y-12135000D01*
X15990000Y-12185000D01*
X16040000Y-12235000D01*
X16042500Y-9634000D02*
X16092500Y-9584000D01*
X16042500Y-9534000D01*
X15992500Y-9584000D01*
X16042500Y-9634000D01*
X16042500Y-9888000D02*
X16092500Y-9838000D01*
X16042500Y-9788000D01*
X15992500Y-9838000D01*
X16042500Y-9888000D01*
X16042500Y-10142000D02*
X16092500Y-10092000D01*
X16042500Y-10042000D01*
X15992500Y-10092000D01*
X16042500Y-10142000D01*
X16042500Y-10396000D02*
X16092500Y-10346000D01*
X16042500Y-10296000D01*
X15992500Y-10346000D01*
X16042500Y-10396000D01*
X16042500Y-10788000D02*
X16092500Y-10738000D01*
X16042500Y-10688000D01*
X15992500Y-10738000D01*
X16042500Y-10788000D01*
X16042500Y-11042000D02*
X16092500Y-10992000D01*
X16042500Y-10942000D01*
X15992500Y-10992000D01*
X16042500Y-11042000D01*
X16042500Y-11296000D02*
X16092500Y-11246000D01*
X16042500Y-11196000D01*
X15992500Y-11246000D01*
X16042500Y-11296000D01*
X16042500Y-11550000D02*
X16092500Y-11500000D01*
X16042500Y-11450000D01*
X15992500Y-11500000D01*
X16042500Y-11550000D01*
X16290000Y-4514000D02*
X16340000Y-4464000D01*
X16290000Y-4414000D01*
X16240000Y-4464000D01*
X16290000Y-4514000D01*
X16290000Y-5014000D02*
X16340000Y-4964000D01*
X16290000Y-4914000D01*
X16240000Y-4964000D01*
X16290000Y-5014000D01*
X16290000Y-5689000D02*
X16340000Y-5639000D01*
X16290000Y-5589000D01*
X16240000Y-5639000D01*
X16290000Y-5689000D01*
X16290000Y-6189000D02*
X16340000Y-6139000D01*
X16290000Y-6089000D01*
X16240000Y-6139000D01*
X16290000Y-6189000D01*
X16990000Y-4381000D02*
X17040000Y-4331000D01*
X16990000Y-4281000D01*
X16940000Y-4331000D01*
X16990000Y-4381000D01*
X16990000Y-4635000D02*
X17040000Y-4585000D01*
X16990000Y-4535000D01*
X16940000Y-4585000D01*
X16990000Y-4635000D01*
X16990000Y-4889000D02*
X17040000Y-4839000D01*
X16990000Y-4789000D01*
X16940000Y-4839000D01*
X16990000Y-4889000D01*
X16990000Y-5260000D02*
X17040000Y-5210000D01*
X16990000Y-5160000D01*
X16940000Y-5210000D01*
X16990000Y-5260000D01*
X16990000Y-5514000D02*
X17040000Y-5464000D01*
X16990000Y-5414000D01*
X16940000Y-5464000D01*
X16990000Y-5514000D01*
X16990000Y-5768000D02*
X17040000Y-5718000D01*
X16990000Y-5668000D01*
X16940000Y-5718000D01*
X16990000Y-5768000D01*
X17565000Y-4381000D02*
X17615000Y-4331000D01*
X17565000Y-4281000D01*
X17515000Y-4331000D01*
X17565000Y-4381000D01*
X17565000Y-4635000D02*
X17615000Y-4585000D01*
X17565000Y-4535000D01*
X17515000Y-4585000D01*
X17565000Y-4635000D01*
X17565000Y-4889000D02*
X17615000Y-4839000D01*
X17565000Y-4789000D01*
X17515000Y-4839000D01*
X17565000Y-4889000D01*
X17565000Y-5260000D02*
X17615000Y-5210000D01*
X17565000Y-5160000D01*
X17515000Y-5210000D01*
X17565000Y-5260000D01*
X17565000Y-5514000D02*
X17615000Y-5464000D01*
X17565000Y-5414000D01*
X17515000Y-5464000D01*
X17565000Y-5514000D01*
X17565000Y-5768000D02*
X17615000Y-5718000D01*
X17565000Y-5668000D01*
X17515000Y-5718000D01*
X17565000Y-5768000D01*
X18140000Y-5432500D02*
X18190000Y-5382500D01*
X18140000Y-5332500D01*
X18090000Y-5382500D01*
X18140000Y-5432500D01*
X18140000Y-12810000D02*
X18190000Y-12760000D01*
X18140000Y-12710000D01*
X18090000Y-12760000D01*
X18140000Y-12810000D01*
X18394000Y-5432500D02*
X18444000Y-5382500D01*
X18394000Y-5332500D01*
X18344000Y-5382500D01*
X18394000Y-5432500D01*
X18394000Y-12810000D02*
X18444000Y-12760000D01*
X18394000Y-12710000D01*
X18344000Y-12760000D01*
X18394000Y-12810000D01*
D13*
X18045000Y-6015589D02*
X18365000Y-6335589D01*
X18365000Y-6015589D02*
X18045000Y-6335589D01*
X18365000Y-6175589D02*
G75*
G02*
X18045000Y-6175589I-160000J0D01*
G01*
X18045000Y-6175589D02*
G75*
G02*
X18365000Y-6175589I160000J0D01*
G01*
X18045000Y-11975000D02*
X18365000Y-12295000D01*
X18365000Y-11975000D02*
X18045000Y-12295000D01*
X18365000Y-12135000D02*
G75*
G02*
X18045000Y-12135000I-160000J0D01*
G01*
X18045000Y-12135000D02*
G75*
G02*
X18365000Y-12135000I160000J0D01*
G01*
X18093000Y-4492000D02*
X18413000Y-4812000D01*
X18413000Y-4492000D02*
X18093000Y-4812000D01*
X18413000Y-4652000D02*
G75*
G02*
X18093000Y-4652000I-160000J0D01*
G01*
X18093000Y-4652000D02*
G75*
G02*
X18413000Y-4652000I160000J0D01*
G01*
X20945000Y-6000000D02*
X21265000Y-6320000D01*
X21265000Y-6000000D02*
X20945000Y-6320000D01*
X21265000Y-6160000D02*
G75*
G02*
X20945000Y-6160000I-160000J0D01*
G01*
X20945000Y-6160000D02*
G75*
G02*
X21265000Y-6160000I160000J0D01*
G01*
X20945294Y-11965294D02*
X21265294Y-12285294D01*
X21265294Y-11965294D02*
X20945294Y-12285294D01*
X21265294Y-12125294D02*
G75*
G02*
X20945294Y-12125294I-160000J0D01*
G01*
X20945294Y-12125294D02*
G75*
G02*
X21265294Y-12125294I160000J0D01*
G01*
D11*
X8658277Y-16413984D02*
X8658277Y-16213984D01*
X8658277Y-16213984D02*
X8705896Y-16213984D01*
X8705896Y-16213984D02*
X8734467Y-16223508D01*
X8734467Y-16223508D02*
X8753515Y-16242555D01*
X8753515Y-16242555D02*
X8763039Y-16261603D01*
X8763039Y-16261603D02*
X8772563Y-16299698D01*
X8772563Y-16299698D02*
X8772563Y-16328269D01*
X8772563Y-16328269D02*
X8763039Y-16366365D01*
X8763039Y-16366365D02*
X8753515Y-16385412D01*
X8753515Y-16385412D02*
X8734467Y-16404460D01*
X8734467Y-16404460D02*
X8705896Y-16413984D01*
X8705896Y-16413984D02*
X8658277Y-16413984D01*
X8858277Y-16413984D02*
X8858277Y-16280650D01*
X8858277Y-16318746D02*
X8867801Y-16299698D01*
X8867801Y-16299698D02*
X8877324Y-16290174D01*
X8877324Y-16290174D02*
X8896372Y-16280650D01*
X8896372Y-16280650D02*
X8915420Y-16280650D01*
X8982086Y-16413984D02*
X8982086Y-16280650D01*
X8982086Y-16213984D02*
X8972563Y-16223508D01*
X8972563Y-16223508D02*
X8982086Y-16233031D01*
X8982086Y-16233031D02*
X8991610Y-16223508D01*
X8991610Y-16223508D02*
X8982086Y-16213984D01*
X8982086Y-16213984D02*
X8982086Y-16233031D01*
X9105896Y-16413984D02*
X9086848Y-16404460D01*
X9086848Y-16404460D02*
X9077324Y-16385412D01*
X9077324Y-16385412D02*
X9077324Y-16213984D01*
X9210658Y-16413984D02*
X9191610Y-16404460D01*
X9191610Y-16404460D02*
X9182086Y-16385412D01*
X9182086Y-16385412D02*
X9182086Y-16213984D01*
X9439229Y-16413984D02*
X9439229Y-16213984D01*
X9439229Y-16213984D02*
X9505896Y-16356841D01*
X9505896Y-16356841D02*
X9572563Y-16213984D01*
X9572563Y-16213984D02*
X9572563Y-16413984D01*
X9753515Y-16413984D02*
X9753515Y-16309222D01*
X9753515Y-16309222D02*
X9743991Y-16290174D01*
X9743991Y-16290174D02*
X9724944Y-16280650D01*
X9724944Y-16280650D02*
X9686848Y-16280650D01*
X9686848Y-16280650D02*
X9667801Y-16290174D01*
X9753515Y-16404460D02*
X9734467Y-16413984D01*
X9734467Y-16413984D02*
X9686848Y-16413984D01*
X9686848Y-16413984D02*
X9667801Y-16404460D01*
X9667801Y-16404460D02*
X9658277Y-16385412D01*
X9658277Y-16385412D02*
X9658277Y-16366365D01*
X9658277Y-16366365D02*
X9667801Y-16347317D01*
X9667801Y-16347317D02*
X9686848Y-16337793D01*
X9686848Y-16337793D02*
X9734467Y-16337793D01*
X9734467Y-16337793D02*
X9753515Y-16328269D01*
X9848753Y-16280650D02*
X9848753Y-16480650D01*
X9848753Y-16290174D02*
X9867801Y-16280650D01*
X9867801Y-16280650D02*
X9905896Y-16280650D01*
X9905896Y-16280650D02*
X9924944Y-16290174D01*
X9924944Y-16290174D02*
X9934467Y-16299698D01*
X9934467Y-16299698D02*
X9943991Y-16318746D01*
X9943991Y-16318746D02*
X9943991Y-16375888D01*
X9943991Y-16375888D02*
X9934467Y-16394936D01*
X9934467Y-16394936D02*
X9924944Y-16404460D01*
X9924944Y-16404460D02*
X9905896Y-16413984D01*
X9905896Y-16413984D02*
X9867801Y-16413984D01*
X9867801Y-16413984D02*
X9848753Y-16404460D01*
X10029705Y-16394936D02*
X10039229Y-16404460D01*
X10039229Y-16404460D02*
X10029705Y-16413984D01*
X10029705Y-16413984D02*
X10020182Y-16404460D01*
X10020182Y-16404460D02*
X10029705Y-16394936D01*
X10029705Y-16394936D02*
X10029705Y-16413984D01*
X10029705Y-16290174D02*
X10039229Y-16299698D01*
X10039229Y-16299698D02*
X10029705Y-16309222D01*
X10029705Y-16309222D02*
X10020182Y-16299698D01*
X10020182Y-16299698D02*
X10029705Y-16290174D01*
X10029705Y-16290174D02*
X10029705Y-16309222D01*
D12*
X8367500Y-16727500D02*
X8397500Y-16757500D01*
X8397500Y-16727500D02*
X8367500Y-16757500D01*
D11*
X8696372Y-16633984D02*
X8715420Y-16633984D01*
X8715420Y-16633984D02*
X8734467Y-16643508D01*
X8734467Y-16643508D02*
X8743991Y-16653031D01*
X8743991Y-16653031D02*
X8753515Y-16672079D01*
X8753515Y-16672079D02*
X8763039Y-16710174D01*
X8763039Y-16710174D02*
X8763039Y-16757793D01*
X8763039Y-16757793D02*
X8753515Y-16795889D01*
X8753515Y-16795889D02*
X8743991Y-16814936D01*
X8743991Y-16814936D02*
X8734467Y-16824460D01*
X8734467Y-16824460D02*
X8715420Y-16833984D01*
X8715420Y-16833984D02*
X8696372Y-16833984D01*
X8696372Y-16833984D02*
X8677324Y-16824460D01*
X8677324Y-16824460D02*
X8667801Y-16814936D01*
X8667801Y-16814936D02*
X8658277Y-16795889D01*
X8658277Y-16795889D02*
X8648753Y-16757793D01*
X8648753Y-16757793D02*
X8648753Y-16710174D01*
X8648753Y-16710174D02*
X8658277Y-16672079D01*
X8658277Y-16672079D02*
X8667801Y-16653031D01*
X8667801Y-16653031D02*
X8677324Y-16643508D01*
X8677324Y-16643508D02*
X8696372Y-16633984D01*
X8848753Y-16814936D02*
X8858277Y-16824460D01*
X8858277Y-16824460D02*
X8848753Y-16833984D01*
X8848753Y-16833984D02*
X8839229Y-16824460D01*
X8839229Y-16824460D02*
X8848753Y-16814936D01*
X8848753Y-16814936D02*
X8848753Y-16833984D01*
X8924944Y-16633984D02*
X9048753Y-16633984D01*
X9048753Y-16633984D02*
X8982086Y-16710174D01*
X8982086Y-16710174D02*
X9010658Y-16710174D01*
X9010658Y-16710174D02*
X9029705Y-16719698D01*
X9029705Y-16719698D02*
X9039229Y-16729222D01*
X9039229Y-16729222D02*
X9048753Y-16748269D01*
X9048753Y-16748269D02*
X9048753Y-16795889D01*
X9048753Y-16795889D02*
X9039229Y-16814936D01*
X9039229Y-16814936D02*
X9029705Y-16824460D01*
X9029705Y-16824460D02*
X9010658Y-16833984D01*
X9010658Y-16833984D02*
X8953515Y-16833984D01*
X8953515Y-16833984D02*
X8934467Y-16824460D01*
X8934467Y-16824460D02*
X8924944Y-16814936D01*
X9172563Y-16633984D02*
X9191610Y-16633984D01*
X9191610Y-16633984D02*
X9210658Y-16643508D01*
X9210658Y-16643508D02*
X9220182Y-16653031D01*
X9220182Y-16653031D02*
X9229705Y-16672079D01*
X9229705Y-16672079D02*
X9239229Y-16710174D01*
X9239229Y-16710174D02*
X9239229Y-16757793D01*
X9239229Y-16757793D02*
X9229705Y-16795889D01*
X9229705Y-16795889D02*
X9220182Y-16814936D01*
X9220182Y-16814936D02*
X9210658Y-16824460D01*
X9210658Y-16824460D02*
X9191610Y-16833984D01*
X9191610Y-16833984D02*
X9172563Y-16833984D01*
X9172563Y-16833984D02*
X9153515Y-16824460D01*
X9153515Y-16824460D02*
X9143991Y-16814936D01*
X9143991Y-16814936D02*
X9134467Y-16795889D01*
X9134467Y-16795889D02*
X9124944Y-16757793D01*
X9124944Y-16757793D02*
X9124944Y-16710174D01*
X9124944Y-16710174D02*
X9134467Y-16672079D01*
X9134467Y-16672079D02*
X9143991Y-16653031D01*
X9143991Y-16653031D02*
X9153515Y-16643508D01*
X9153515Y-16643508D02*
X9172563Y-16633984D01*
X9363039Y-16633984D02*
X9382086Y-16633984D01*
X9382086Y-16633984D02*
X9401134Y-16643508D01*
X9401134Y-16643508D02*
X9410658Y-16653031D01*
X9410658Y-16653031D02*
X9420182Y-16672079D01*
X9420182Y-16672079D02*
X9429705Y-16710174D01*
X9429705Y-16710174D02*
X9429705Y-16757793D01*
X9429705Y-16757793D02*
X9420182Y-16795889D01*
X9420182Y-16795889D02*
X9410658Y-16814936D01*
X9410658Y-16814936D02*
X9401134Y-16824460D01*
X9401134Y-16824460D02*
X9382086Y-16833984D01*
X9382086Y-16833984D02*
X9363039Y-16833984D01*
X9363039Y-16833984D02*
X9343991Y-16824460D01*
X9343991Y-16824460D02*
X9334467Y-16814936D01*
X9334467Y-16814936D02*
X9324944Y-16795889D01*
X9324944Y-16795889D02*
X9315420Y-16757793D01*
X9315420Y-16757793D02*
X9315420Y-16710174D01*
X9315420Y-16710174D02*
X9324944Y-16672079D01*
X9324944Y-16672079D02*
X9334467Y-16653031D01*
X9334467Y-16653031D02*
X9343991Y-16643508D01*
X9343991Y-16643508D02*
X9363039Y-16633984D01*
X9515420Y-16833984D02*
X9515420Y-16700650D01*
X9515420Y-16719698D02*
X9524944Y-16710174D01*
X9524944Y-16710174D02*
X9543991Y-16700650D01*
X9543991Y-16700650D02*
X9572563Y-16700650D01*
X9572563Y-16700650D02*
X9591610Y-16710174D01*
X9591610Y-16710174D02*
X9601134Y-16729222D01*
X9601134Y-16729222D02*
X9601134Y-16833984D01*
X9601134Y-16729222D02*
X9610658Y-16710174D01*
X9610658Y-16710174D02*
X9629705Y-16700650D01*
X9629705Y-16700650D02*
X9658277Y-16700650D01*
X9658277Y-16700650D02*
X9677325Y-16710174D01*
X9677325Y-16710174D02*
X9686848Y-16729222D01*
X9686848Y-16729222D02*
X9686848Y-16833984D01*
X9782086Y-16833984D02*
X9782086Y-16700650D01*
X9782086Y-16719698D02*
X9791610Y-16710174D01*
X9791610Y-16710174D02*
X9810658Y-16700650D01*
X9810658Y-16700650D02*
X9839229Y-16700650D01*
X9839229Y-16700650D02*
X9858277Y-16710174D01*
X9858277Y-16710174D02*
X9867801Y-16729222D01*
X9867801Y-16729222D02*
X9867801Y-16833984D01*
X9867801Y-16729222D02*
X9877325Y-16710174D01*
X9877325Y-16710174D02*
X9896372Y-16700650D01*
X9896372Y-16700650D02*
X9924944Y-16700650D01*
X9924944Y-16700650D02*
X9943991Y-16710174D01*
X9943991Y-16710174D02*
X9953515Y-16729222D01*
X9953515Y-16729222D02*
X9953515Y-16833984D01*
X10343991Y-16624460D02*
X10172563Y-16881603D01*
X10601134Y-16633984D02*
X10620182Y-16633984D01*
X10620182Y-16633984D02*
X10639229Y-16643508D01*
X10639229Y-16643508D02*
X10648753Y-16653031D01*
X10648753Y-16653031D02*
X10658277Y-16672079D01*
X10658277Y-16672079D02*
X10667801Y-16710174D01*
X10667801Y-16710174D02*
X10667801Y-16757793D01*
X10667801Y-16757793D02*
X10658277Y-16795889D01*
X10658277Y-16795889D02*
X10648753Y-16814936D01*
X10648753Y-16814936D02*
X10639229Y-16824460D01*
X10639229Y-16824460D02*
X10620182Y-16833984D01*
X10620182Y-16833984D02*
X10601134Y-16833984D01*
X10601134Y-16833984D02*
X10582087Y-16824460D01*
X10582087Y-16824460D02*
X10572563Y-16814936D01*
X10572563Y-16814936D02*
X10563039Y-16795889D01*
X10563039Y-16795889D02*
X10553515Y-16757793D01*
X10553515Y-16757793D02*
X10553515Y-16710174D01*
X10553515Y-16710174D02*
X10563039Y-16672079D01*
X10563039Y-16672079D02*
X10572563Y-16653031D01*
X10572563Y-16653031D02*
X10582087Y-16643508D01*
X10582087Y-16643508D02*
X10601134Y-16633984D01*
X10753515Y-16814936D02*
X10763039Y-16824460D01*
X10763039Y-16824460D02*
X10753515Y-16833984D01*
X10753515Y-16833984D02*
X10743991Y-16824460D01*
X10743991Y-16824460D02*
X10753515Y-16814936D01*
X10753515Y-16814936D02*
X10753515Y-16833984D01*
X10886848Y-16633984D02*
X10905896Y-16633984D01*
X10905896Y-16633984D02*
X10924944Y-16643508D01*
X10924944Y-16643508D02*
X10934468Y-16653031D01*
X10934468Y-16653031D02*
X10943991Y-16672079D01*
X10943991Y-16672079D02*
X10953515Y-16710174D01*
X10953515Y-16710174D02*
X10953515Y-16757793D01*
X10953515Y-16757793D02*
X10943991Y-16795889D01*
X10943991Y-16795889D02*
X10934468Y-16814936D01*
X10934468Y-16814936D02*
X10924944Y-16824460D01*
X10924944Y-16824460D02*
X10905896Y-16833984D01*
X10905896Y-16833984D02*
X10886848Y-16833984D01*
X10886848Y-16833984D02*
X10867801Y-16824460D01*
X10867801Y-16824460D02*
X10858277Y-16814936D01*
X10858277Y-16814936D02*
X10848753Y-16795889D01*
X10848753Y-16795889D02*
X10839229Y-16757793D01*
X10839229Y-16757793D02*
X10839229Y-16710174D01*
X10839229Y-16710174D02*
X10848753Y-16672079D01*
X10848753Y-16672079D02*
X10858277Y-16653031D01*
X10858277Y-16653031D02*
X10867801Y-16643508D01*
X10867801Y-16643508D02*
X10886848Y-16633984D01*
X11143991Y-16833984D02*
X11029706Y-16833984D01*
X11086848Y-16833984D02*
X11086848Y-16633984D01*
X11086848Y-16633984D02*
X11067801Y-16662555D01*
X11067801Y-16662555D02*
X11048753Y-16681603D01*
X11048753Y-16681603D02*
X11029706Y-16691127D01*
X11334467Y-16833984D02*
X11220182Y-16833984D01*
X11277325Y-16833984D02*
X11277325Y-16633984D01*
X11277325Y-16633984D02*
X11258277Y-16662555D01*
X11258277Y-16662555D02*
X11239229Y-16681603D01*
X11239229Y-16681603D02*
X11220182Y-16691127D01*
X11448753Y-16719698D02*
X11429706Y-16710174D01*
X11429706Y-16710174D02*
X11420182Y-16700650D01*
X11420182Y-16700650D02*
X11410658Y-16681603D01*
X11410658Y-16681603D02*
X11410658Y-16672079D01*
X11410658Y-16672079D02*
X11420182Y-16653031D01*
X11420182Y-16653031D02*
X11429706Y-16643508D01*
X11429706Y-16643508D02*
X11448753Y-16633984D01*
X11448753Y-16633984D02*
X11486848Y-16633984D01*
X11486848Y-16633984D02*
X11505896Y-16643508D01*
X11505896Y-16643508D02*
X11515420Y-16653031D01*
X11515420Y-16653031D02*
X11524944Y-16672079D01*
X11524944Y-16672079D02*
X11524944Y-16681603D01*
X11524944Y-16681603D02*
X11515420Y-16700650D01*
X11515420Y-16700650D02*
X11505896Y-16710174D01*
X11505896Y-16710174D02*
X11486848Y-16719698D01*
X11486848Y-16719698D02*
X11448753Y-16719698D01*
X11448753Y-16719698D02*
X11429706Y-16729222D01*
X11429706Y-16729222D02*
X11420182Y-16738746D01*
X11420182Y-16738746D02*
X11410658Y-16757793D01*
X11410658Y-16757793D02*
X11410658Y-16795889D01*
X11410658Y-16795889D02*
X11420182Y-16814936D01*
X11420182Y-16814936D02*
X11429706Y-16824460D01*
X11429706Y-16824460D02*
X11448753Y-16833984D01*
X11448753Y-16833984D02*
X11486848Y-16833984D01*
X11486848Y-16833984D02*
X11505896Y-16824460D01*
X11505896Y-16824460D02*
X11515420Y-16814936D01*
X11515420Y-16814936D02*
X11524944Y-16795889D01*
X11524944Y-16795889D02*
X11524944Y-16757793D01*
X11524944Y-16757793D02*
X11515420Y-16738746D01*
X11515420Y-16738746D02*
X11505896Y-16729222D01*
X11505896Y-16729222D02*
X11486848Y-16719698D01*
X11601134Y-16633984D02*
X11601134Y-16672079D01*
X11677325Y-16633984D02*
X11677325Y-16672079D01*
X11972563Y-16910174D02*
X11963039Y-16900650D01*
X11963039Y-16900650D02*
X11943991Y-16872079D01*
X11943991Y-16872079D02*
X11934468Y-16853031D01*
X11934468Y-16853031D02*
X11924944Y-16824460D01*
X11924944Y-16824460D02*
X11915420Y-16776841D01*
X11915420Y-16776841D02*
X11915420Y-16738746D01*
X11915420Y-16738746D02*
X11924944Y-16691127D01*
X11924944Y-16691127D02*
X11934468Y-16662555D01*
X11934468Y-16662555D02*
X11943991Y-16643508D01*
X11943991Y-16643508D02*
X11963039Y-16614936D01*
X11963039Y-16614936D02*
X11972563Y-16605412D01*
X12039229Y-16653031D02*
X12048753Y-16643508D01*
X12048753Y-16643508D02*
X12067801Y-16633984D01*
X12067801Y-16633984D02*
X12115420Y-16633984D01*
X12115420Y-16633984D02*
X12134468Y-16643508D01*
X12134468Y-16643508D02*
X12143991Y-16653031D01*
X12143991Y-16653031D02*
X12153515Y-16672079D01*
X12153515Y-16672079D02*
X12153515Y-16691127D01*
X12153515Y-16691127D02*
X12143991Y-16719698D01*
X12143991Y-16719698D02*
X12029706Y-16833984D01*
X12029706Y-16833984D02*
X12153515Y-16833984D01*
X12229706Y-16653031D02*
X12239229Y-16643508D01*
X12239229Y-16643508D02*
X12258277Y-16633984D01*
X12258277Y-16633984D02*
X12305896Y-16633984D01*
X12305896Y-16633984D02*
X12324944Y-16643508D01*
X12324944Y-16643508D02*
X12334468Y-16653031D01*
X12334468Y-16653031D02*
X12343991Y-16672079D01*
X12343991Y-16672079D02*
X12343991Y-16691127D01*
X12343991Y-16691127D02*
X12334468Y-16719698D01*
X12334468Y-16719698D02*
X12220182Y-16833984D01*
X12220182Y-16833984D02*
X12343991Y-16833984D01*
X12524944Y-16633984D02*
X12429706Y-16633984D01*
X12429706Y-16633984D02*
X12420182Y-16729222D01*
X12420182Y-16729222D02*
X12429706Y-16719698D01*
X12429706Y-16719698D02*
X12448753Y-16710174D01*
X12448753Y-16710174D02*
X12496372Y-16710174D01*
X12496372Y-16710174D02*
X12515420Y-16719698D01*
X12515420Y-16719698D02*
X12524944Y-16729222D01*
X12524944Y-16729222D02*
X12534468Y-16748269D01*
X12534468Y-16748269D02*
X12534468Y-16795889D01*
X12534468Y-16795889D02*
X12524944Y-16814936D01*
X12524944Y-16814936D02*
X12515420Y-16824460D01*
X12515420Y-16824460D02*
X12496372Y-16833984D01*
X12496372Y-16833984D02*
X12448753Y-16833984D01*
X12448753Y-16833984D02*
X12429706Y-16824460D01*
X12429706Y-16824460D02*
X12420182Y-16814936D01*
X12772563Y-16833984D02*
X12772563Y-16633984D01*
X12858277Y-16833984D02*
X12858277Y-16729222D01*
X12858277Y-16729222D02*
X12848753Y-16710174D01*
X12848753Y-16710174D02*
X12829706Y-16700650D01*
X12829706Y-16700650D02*
X12801134Y-16700650D01*
X12801134Y-16700650D02*
X12782087Y-16710174D01*
X12782087Y-16710174D02*
X12772563Y-16719698D01*
X12982087Y-16833984D02*
X12963039Y-16824460D01*
X12963039Y-16824460D02*
X12953515Y-16814936D01*
X12953515Y-16814936D02*
X12943991Y-16795889D01*
X12943991Y-16795889D02*
X12943991Y-16738746D01*
X12943991Y-16738746D02*
X12953515Y-16719698D01*
X12953515Y-16719698D02*
X12963039Y-16710174D01*
X12963039Y-16710174D02*
X12982087Y-16700650D01*
X12982087Y-16700650D02*
X13010658Y-16700650D01*
X13010658Y-16700650D02*
X13029706Y-16710174D01*
X13029706Y-16710174D02*
X13039230Y-16719698D01*
X13039230Y-16719698D02*
X13048753Y-16738746D01*
X13048753Y-16738746D02*
X13048753Y-16795889D01*
X13048753Y-16795889D02*
X13039230Y-16814936D01*
X13039230Y-16814936D02*
X13029706Y-16824460D01*
X13029706Y-16824460D02*
X13010658Y-16833984D01*
X13010658Y-16833984D02*
X12982087Y-16833984D01*
X13163039Y-16833984D02*
X13143991Y-16824460D01*
X13143991Y-16824460D02*
X13134468Y-16805412D01*
X13134468Y-16805412D02*
X13134468Y-16633984D01*
X13315420Y-16824460D02*
X13296372Y-16833984D01*
X13296372Y-16833984D02*
X13258277Y-16833984D01*
X13258277Y-16833984D02*
X13239230Y-16824460D01*
X13239230Y-16824460D02*
X13229706Y-16805412D01*
X13229706Y-16805412D02*
X13229706Y-16729222D01*
X13229706Y-16729222D02*
X13239230Y-16710174D01*
X13239230Y-16710174D02*
X13258277Y-16700650D01*
X13258277Y-16700650D02*
X13296372Y-16700650D01*
X13296372Y-16700650D02*
X13315420Y-16710174D01*
X13315420Y-16710174D02*
X13324944Y-16729222D01*
X13324944Y-16729222D02*
X13324944Y-16748269D01*
X13324944Y-16748269D02*
X13229706Y-16767317D01*
X13401134Y-16824460D02*
X13420182Y-16833984D01*
X13420182Y-16833984D02*
X13458277Y-16833984D01*
X13458277Y-16833984D02*
X13477325Y-16824460D01*
X13477325Y-16824460D02*
X13486849Y-16805412D01*
X13486849Y-16805412D02*
X13486849Y-16795889D01*
X13486849Y-16795889D02*
X13477325Y-16776841D01*
X13477325Y-16776841D02*
X13458277Y-16767317D01*
X13458277Y-16767317D02*
X13429706Y-16767317D01*
X13429706Y-16767317D02*
X13410658Y-16757793D01*
X13410658Y-16757793D02*
X13401134Y-16738746D01*
X13401134Y-16738746D02*
X13401134Y-16729222D01*
X13401134Y-16729222D02*
X13410658Y-16710174D01*
X13410658Y-16710174D02*
X13429706Y-16700650D01*
X13429706Y-16700650D02*
X13458277Y-16700650D01*
X13458277Y-16700650D02*
X13477325Y-16710174D01*
X13553515Y-16910174D02*
X13563039Y-16900650D01*
X13563039Y-16900650D02*
X13582087Y-16872079D01*
X13582087Y-16872079D02*
X13591611Y-16853031D01*
X13591611Y-16853031D02*
X13601134Y-16824460D01*
X13601134Y-16824460D02*
X13610658Y-16776841D01*
X13610658Y-16776841D02*
X13610658Y-16738746D01*
X13610658Y-16738746D02*
X13601134Y-16691127D01*
X13601134Y-16691127D02*
X13591611Y-16662555D01*
X13591611Y-16662555D02*
X13582087Y-16643508D01*
X13582087Y-16643508D02*
X13563039Y-16614936D01*
X13563039Y-16614936D02*
X13553515Y-16605412D01*
D12*
X8397500Y-17006500D02*
G75*
G02*
X8347500Y-17006500I-25000J0D01*
G01*
X8347500Y-17006500D02*
G75*
G02*
X8397500Y-17006500I25000J0D01*
G01*
D11*
X8696372Y-16897984D02*
X8715420Y-16897984D01*
X8715420Y-16897984D02*
X8734467Y-16907508D01*
X8734467Y-16907508D02*
X8743991Y-16917031D01*
X8743991Y-16917031D02*
X8753515Y-16936079D01*
X8753515Y-16936079D02*
X8763039Y-16974174D01*
X8763039Y-16974174D02*
X8763039Y-17021793D01*
X8763039Y-17021793D02*
X8753515Y-17059889D01*
X8753515Y-17059889D02*
X8743991Y-17078936D01*
X8743991Y-17078936D02*
X8734467Y-17088460D01*
X8734467Y-17088460D02*
X8715420Y-17097984D01*
X8715420Y-17097984D02*
X8696372Y-17097984D01*
X8696372Y-17097984D02*
X8677324Y-17088460D01*
X8677324Y-17088460D02*
X8667801Y-17078936D01*
X8667801Y-17078936D02*
X8658277Y-17059889D01*
X8658277Y-17059889D02*
X8648753Y-17021793D01*
X8648753Y-17021793D02*
X8648753Y-16974174D01*
X8648753Y-16974174D02*
X8658277Y-16936079D01*
X8658277Y-16936079D02*
X8667801Y-16917031D01*
X8667801Y-16917031D02*
X8677324Y-16907508D01*
X8677324Y-16907508D02*
X8696372Y-16897984D01*
X8848753Y-17078936D02*
X8858277Y-17088460D01*
X8858277Y-17088460D02*
X8848753Y-17097984D01*
X8848753Y-17097984D02*
X8839229Y-17088460D01*
X8839229Y-17088460D02*
X8848753Y-17078936D01*
X8848753Y-17078936D02*
X8848753Y-17097984D01*
X9039229Y-16897984D02*
X8943991Y-16897984D01*
X8943991Y-16897984D02*
X8934467Y-16993222D01*
X8934467Y-16993222D02*
X8943991Y-16983698D01*
X8943991Y-16983698D02*
X8963039Y-16974174D01*
X8963039Y-16974174D02*
X9010658Y-16974174D01*
X9010658Y-16974174D02*
X9029705Y-16983698D01*
X9029705Y-16983698D02*
X9039229Y-16993222D01*
X9039229Y-16993222D02*
X9048753Y-17012270D01*
X9048753Y-17012270D02*
X9048753Y-17059889D01*
X9048753Y-17059889D02*
X9039229Y-17078936D01*
X9039229Y-17078936D02*
X9029705Y-17088460D01*
X9029705Y-17088460D02*
X9010658Y-17097984D01*
X9010658Y-17097984D02*
X8963039Y-17097984D01*
X8963039Y-17097984D02*
X8943991Y-17088460D01*
X8943991Y-17088460D02*
X8934467Y-17078936D01*
X9172563Y-16897984D02*
X9191610Y-16897984D01*
X9191610Y-16897984D02*
X9210658Y-16907508D01*
X9210658Y-16907508D02*
X9220182Y-16917031D01*
X9220182Y-16917031D02*
X9229705Y-16936079D01*
X9229705Y-16936079D02*
X9239229Y-16974174D01*
X9239229Y-16974174D02*
X9239229Y-17021793D01*
X9239229Y-17021793D02*
X9229705Y-17059889D01*
X9229705Y-17059889D02*
X9220182Y-17078936D01*
X9220182Y-17078936D02*
X9210658Y-17088460D01*
X9210658Y-17088460D02*
X9191610Y-17097984D01*
X9191610Y-17097984D02*
X9172563Y-17097984D01*
X9172563Y-17097984D02*
X9153515Y-17088460D01*
X9153515Y-17088460D02*
X9143991Y-17078936D01*
X9143991Y-17078936D02*
X9134467Y-17059889D01*
X9134467Y-17059889D02*
X9124944Y-17021793D01*
X9124944Y-17021793D02*
X9124944Y-16974174D01*
X9124944Y-16974174D02*
X9134467Y-16936079D01*
X9134467Y-16936079D02*
X9143991Y-16917031D01*
X9143991Y-16917031D02*
X9153515Y-16907508D01*
X9153515Y-16907508D02*
X9172563Y-16897984D01*
X9363039Y-16897984D02*
X9382086Y-16897984D01*
X9382086Y-16897984D02*
X9401134Y-16907508D01*
X9401134Y-16907508D02*
X9410658Y-16917031D01*
X9410658Y-16917031D02*
X9420182Y-16936079D01*
X9420182Y-16936079D02*
X9429705Y-16974174D01*
X9429705Y-16974174D02*
X9429705Y-17021793D01*
X9429705Y-17021793D02*
X9420182Y-17059889D01*
X9420182Y-17059889D02*
X9410658Y-17078936D01*
X9410658Y-17078936D02*
X9401134Y-17088460D01*
X9401134Y-17088460D02*
X9382086Y-17097984D01*
X9382086Y-17097984D02*
X9363039Y-17097984D01*
X9363039Y-17097984D02*
X9343991Y-17088460D01*
X9343991Y-17088460D02*
X9334467Y-17078936D01*
X9334467Y-17078936D02*
X9324944Y-17059889D01*
X9324944Y-17059889D02*
X9315420Y-17021793D01*
X9315420Y-17021793D02*
X9315420Y-16974174D01*
X9315420Y-16974174D02*
X9324944Y-16936079D01*
X9324944Y-16936079D02*
X9334467Y-16917031D01*
X9334467Y-16917031D02*
X9343991Y-16907508D01*
X9343991Y-16907508D02*
X9363039Y-16897984D01*
X9515420Y-17097984D02*
X9515420Y-16964650D01*
X9515420Y-16983698D02*
X9524944Y-16974174D01*
X9524944Y-16974174D02*
X9543991Y-16964650D01*
X9543991Y-16964650D02*
X9572563Y-16964650D01*
X9572563Y-16964650D02*
X9591610Y-16974174D01*
X9591610Y-16974174D02*
X9601134Y-16993222D01*
X9601134Y-16993222D02*
X9601134Y-17097984D01*
X9601134Y-16993222D02*
X9610658Y-16974174D01*
X9610658Y-16974174D02*
X9629705Y-16964650D01*
X9629705Y-16964650D02*
X9658277Y-16964650D01*
X9658277Y-16964650D02*
X9677325Y-16974174D01*
X9677325Y-16974174D02*
X9686848Y-16993222D01*
X9686848Y-16993222D02*
X9686848Y-17097984D01*
X9782086Y-17097984D02*
X9782086Y-16964650D01*
X9782086Y-16983698D02*
X9791610Y-16974174D01*
X9791610Y-16974174D02*
X9810658Y-16964650D01*
X9810658Y-16964650D02*
X9839229Y-16964650D01*
X9839229Y-16964650D02*
X9858277Y-16974174D01*
X9858277Y-16974174D02*
X9867801Y-16993222D01*
X9867801Y-16993222D02*
X9867801Y-17097984D01*
X9867801Y-16993222D02*
X9877325Y-16974174D01*
X9877325Y-16974174D02*
X9896372Y-16964650D01*
X9896372Y-16964650D02*
X9924944Y-16964650D01*
X9924944Y-16964650D02*
X9943991Y-16974174D01*
X9943991Y-16974174D02*
X9953515Y-16993222D01*
X9953515Y-16993222D02*
X9953515Y-17097984D01*
X10343991Y-16888460D02*
X10172563Y-17145603D01*
X10601134Y-16897984D02*
X10620182Y-16897984D01*
X10620182Y-16897984D02*
X10639229Y-16907508D01*
X10639229Y-16907508D02*
X10648753Y-16917031D01*
X10648753Y-16917031D02*
X10658277Y-16936079D01*
X10658277Y-16936079D02*
X10667801Y-16974174D01*
X10667801Y-16974174D02*
X10667801Y-17021793D01*
X10667801Y-17021793D02*
X10658277Y-17059889D01*
X10658277Y-17059889D02*
X10648753Y-17078936D01*
X10648753Y-17078936D02*
X10639229Y-17088460D01*
X10639229Y-17088460D02*
X10620182Y-17097984D01*
X10620182Y-17097984D02*
X10601134Y-17097984D01*
X10601134Y-17097984D02*
X10582087Y-17088460D01*
X10582087Y-17088460D02*
X10572563Y-17078936D01*
X10572563Y-17078936D02*
X10563039Y-17059889D01*
X10563039Y-17059889D02*
X10553515Y-17021793D01*
X10553515Y-17021793D02*
X10553515Y-16974174D01*
X10553515Y-16974174D02*
X10563039Y-16936079D01*
X10563039Y-16936079D02*
X10572563Y-16917031D01*
X10572563Y-16917031D02*
X10582087Y-16907508D01*
X10582087Y-16907508D02*
X10601134Y-16897984D01*
X10753515Y-17078936D02*
X10763039Y-17088460D01*
X10763039Y-17088460D02*
X10753515Y-17097984D01*
X10753515Y-17097984D02*
X10743991Y-17088460D01*
X10743991Y-17088460D02*
X10753515Y-17078936D01*
X10753515Y-17078936D02*
X10753515Y-17097984D01*
X10886848Y-16897984D02*
X10905896Y-16897984D01*
X10905896Y-16897984D02*
X10924944Y-16907508D01*
X10924944Y-16907508D02*
X10934468Y-16917031D01*
X10934468Y-16917031D02*
X10943991Y-16936079D01*
X10943991Y-16936079D02*
X10953515Y-16974174D01*
X10953515Y-16974174D02*
X10953515Y-17021793D01*
X10953515Y-17021793D02*
X10943991Y-17059889D01*
X10943991Y-17059889D02*
X10934468Y-17078936D01*
X10934468Y-17078936D02*
X10924944Y-17088460D01*
X10924944Y-17088460D02*
X10905896Y-17097984D01*
X10905896Y-17097984D02*
X10886848Y-17097984D01*
X10886848Y-17097984D02*
X10867801Y-17088460D01*
X10867801Y-17088460D02*
X10858277Y-17078936D01*
X10858277Y-17078936D02*
X10848753Y-17059889D01*
X10848753Y-17059889D02*
X10839229Y-17021793D01*
X10839229Y-17021793D02*
X10839229Y-16974174D01*
X10839229Y-16974174D02*
X10848753Y-16936079D01*
X10848753Y-16936079D02*
X10858277Y-16917031D01*
X10858277Y-16917031D02*
X10867801Y-16907508D01*
X10867801Y-16907508D02*
X10886848Y-16897984D01*
X11143991Y-17097984D02*
X11029706Y-17097984D01*
X11086848Y-17097984D02*
X11086848Y-16897984D01*
X11086848Y-16897984D02*
X11067801Y-16926555D01*
X11067801Y-16926555D02*
X11048753Y-16945603D01*
X11048753Y-16945603D02*
X11029706Y-16955127D01*
X11239229Y-17097984D02*
X11277325Y-17097984D01*
X11277325Y-17097984D02*
X11296372Y-17088460D01*
X11296372Y-17088460D02*
X11305896Y-17078936D01*
X11305896Y-17078936D02*
X11324944Y-17050365D01*
X11324944Y-17050365D02*
X11334467Y-17012270D01*
X11334467Y-17012270D02*
X11334467Y-16936079D01*
X11334467Y-16936079D02*
X11324944Y-16917031D01*
X11324944Y-16917031D02*
X11315420Y-16907508D01*
X11315420Y-16907508D02*
X11296372Y-16897984D01*
X11296372Y-16897984D02*
X11258277Y-16897984D01*
X11258277Y-16897984D02*
X11239229Y-16907508D01*
X11239229Y-16907508D02*
X11229706Y-16917031D01*
X11229706Y-16917031D02*
X11220182Y-16936079D01*
X11220182Y-16936079D02*
X11220182Y-16983698D01*
X11220182Y-16983698D02*
X11229706Y-17002746D01*
X11229706Y-17002746D02*
X11239229Y-17012270D01*
X11239229Y-17012270D02*
X11258277Y-17021793D01*
X11258277Y-17021793D02*
X11296372Y-17021793D01*
X11296372Y-17021793D02*
X11315420Y-17012270D01*
X11315420Y-17012270D02*
X11324944Y-17002746D01*
X11324944Y-17002746D02*
X11334467Y-16983698D01*
X11401134Y-16897984D02*
X11534467Y-16897984D01*
X11534467Y-16897984D02*
X11448753Y-17097984D01*
X11601134Y-16897984D02*
X11601134Y-16936079D01*
X11677325Y-16897984D02*
X11677325Y-16936079D01*
X11972563Y-17174174D02*
X11963039Y-17164650D01*
X11963039Y-17164650D02*
X11943991Y-17136079D01*
X11943991Y-17136079D02*
X11934468Y-17117031D01*
X11934468Y-17117031D02*
X11924944Y-17088460D01*
X11924944Y-17088460D02*
X11915420Y-17040841D01*
X11915420Y-17040841D02*
X11915420Y-17002746D01*
X11915420Y-17002746D02*
X11924944Y-16955127D01*
X11924944Y-16955127D02*
X11934468Y-16926555D01*
X11934468Y-16926555D02*
X11943991Y-16907508D01*
X11943991Y-16907508D02*
X11963039Y-16878936D01*
X11963039Y-16878936D02*
X11972563Y-16869412D01*
X12134468Y-16964650D02*
X12134468Y-17097984D01*
X12086848Y-16888460D02*
X12039229Y-17031317D01*
X12039229Y-17031317D02*
X12163039Y-17031317D01*
X12277325Y-16897984D02*
X12296372Y-16897984D01*
X12296372Y-16897984D02*
X12315420Y-16907508D01*
X12315420Y-16907508D02*
X12324944Y-16917031D01*
X12324944Y-16917031D02*
X12334468Y-16936079D01*
X12334468Y-16936079D02*
X12343991Y-16974174D01*
X12343991Y-16974174D02*
X12343991Y-17021793D01*
X12343991Y-17021793D02*
X12334468Y-17059889D01*
X12334468Y-17059889D02*
X12324944Y-17078936D01*
X12324944Y-17078936D02*
X12315420Y-17088460D01*
X12315420Y-17088460D02*
X12296372Y-17097984D01*
X12296372Y-17097984D02*
X12277325Y-17097984D01*
X12277325Y-17097984D02*
X12258277Y-17088460D01*
X12258277Y-17088460D02*
X12248753Y-17078936D01*
X12248753Y-17078936D02*
X12239229Y-17059889D01*
X12239229Y-17059889D02*
X12229706Y-17021793D01*
X12229706Y-17021793D02*
X12229706Y-16974174D01*
X12229706Y-16974174D02*
X12239229Y-16936079D01*
X12239229Y-16936079D02*
X12248753Y-16917031D01*
X12248753Y-16917031D02*
X12258277Y-16907508D01*
X12258277Y-16907508D02*
X12277325Y-16897984D01*
X12582087Y-17097984D02*
X12582087Y-16897984D01*
X12667801Y-17097984D02*
X12667801Y-16993222D01*
X12667801Y-16993222D02*
X12658277Y-16974174D01*
X12658277Y-16974174D02*
X12639230Y-16964650D01*
X12639230Y-16964650D02*
X12610658Y-16964650D01*
X12610658Y-16964650D02*
X12591610Y-16974174D01*
X12591610Y-16974174D02*
X12582087Y-16983698D01*
X12791610Y-17097984D02*
X12772563Y-17088460D01*
X12772563Y-17088460D02*
X12763039Y-17078936D01*
X12763039Y-17078936D02*
X12753515Y-17059889D01*
X12753515Y-17059889D02*
X12753515Y-17002746D01*
X12753515Y-17002746D02*
X12763039Y-16983698D01*
X12763039Y-16983698D02*
X12772563Y-16974174D01*
X12772563Y-16974174D02*
X12791610Y-16964650D01*
X12791610Y-16964650D02*
X12820182Y-16964650D01*
X12820182Y-16964650D02*
X12839230Y-16974174D01*
X12839230Y-16974174D02*
X12848753Y-16983698D01*
X12848753Y-16983698D02*
X12858277Y-17002746D01*
X12858277Y-17002746D02*
X12858277Y-17059889D01*
X12858277Y-17059889D02*
X12848753Y-17078936D01*
X12848753Y-17078936D02*
X12839230Y-17088460D01*
X12839230Y-17088460D02*
X12820182Y-17097984D01*
X12820182Y-17097984D02*
X12791610Y-17097984D01*
X12972563Y-17097984D02*
X12953515Y-17088460D01*
X12953515Y-17088460D02*
X12943991Y-17069412D01*
X12943991Y-17069412D02*
X12943991Y-16897984D01*
X13124944Y-17088460D02*
X13105896Y-17097984D01*
X13105896Y-17097984D02*
X13067801Y-17097984D01*
X13067801Y-17097984D02*
X13048753Y-17088460D01*
X13048753Y-17088460D02*
X13039230Y-17069412D01*
X13039230Y-17069412D02*
X13039230Y-16993222D01*
X13039230Y-16993222D02*
X13048753Y-16974174D01*
X13048753Y-16974174D02*
X13067801Y-16964650D01*
X13067801Y-16964650D02*
X13105896Y-16964650D01*
X13105896Y-16964650D02*
X13124944Y-16974174D01*
X13124944Y-16974174D02*
X13134468Y-16993222D01*
X13134468Y-16993222D02*
X13134468Y-17012270D01*
X13134468Y-17012270D02*
X13039230Y-17031317D01*
X13210658Y-17088460D02*
X13229706Y-17097984D01*
X13229706Y-17097984D02*
X13267801Y-17097984D01*
X13267801Y-17097984D02*
X13286849Y-17088460D01*
X13286849Y-17088460D02*
X13296372Y-17069412D01*
X13296372Y-17069412D02*
X13296372Y-17059889D01*
X13296372Y-17059889D02*
X13286849Y-17040841D01*
X13286849Y-17040841D02*
X13267801Y-17031317D01*
X13267801Y-17031317D02*
X13239230Y-17031317D01*
X13239230Y-17031317D02*
X13220182Y-17021793D01*
X13220182Y-17021793D02*
X13210658Y-17002746D01*
X13210658Y-17002746D02*
X13210658Y-16993222D01*
X13210658Y-16993222D02*
X13220182Y-16974174D01*
X13220182Y-16974174D02*
X13239230Y-16964650D01*
X13239230Y-16964650D02*
X13267801Y-16964650D01*
X13267801Y-16964650D02*
X13286849Y-16974174D01*
X13363039Y-17174174D02*
X13372563Y-17164650D01*
X13372563Y-17164650D02*
X13391611Y-17136079D01*
X13391611Y-17136079D02*
X13401134Y-17117031D01*
X13401134Y-17117031D02*
X13410658Y-17088460D01*
X13410658Y-17088460D02*
X13420182Y-17040841D01*
X13420182Y-17040841D02*
X13420182Y-17002746D01*
X13420182Y-17002746D02*
X13410658Y-16955127D01*
X13410658Y-16955127D02*
X13401134Y-16926555D01*
X13401134Y-16926555D02*
X13391611Y-16907508D01*
X13391611Y-16907508D02*
X13372563Y-16878936D01*
X13372563Y-16878936D02*
X13363039Y-16869412D01*
D12*
X8359400Y-17232400D02*
X8359400Y-17308600D01*
X8321300Y-17270500D02*
X8397500Y-17270500D01*
D11*
X8696372Y-17161984D02*
X8715420Y-17161984D01*
X8715420Y-17161984D02*
X8734467Y-17171508D01*
X8734467Y-17171508D02*
X8743991Y-17181031D01*
X8743991Y-17181031D02*
X8753515Y-17200079D01*
X8753515Y-17200079D02*
X8763039Y-17238174D01*
X8763039Y-17238174D02*
X8763039Y-17285793D01*
X8763039Y-17285793D02*
X8753515Y-17323889D01*
X8753515Y-17323889D02*
X8743991Y-17342936D01*
X8743991Y-17342936D02*
X8734467Y-17352460D01*
X8734467Y-17352460D02*
X8715420Y-17361984D01*
X8715420Y-17361984D02*
X8696372Y-17361984D01*
X8696372Y-17361984D02*
X8677324Y-17352460D01*
X8677324Y-17352460D02*
X8667801Y-17342936D01*
X8667801Y-17342936D02*
X8658277Y-17323889D01*
X8658277Y-17323889D02*
X8648753Y-17285793D01*
X8648753Y-17285793D02*
X8648753Y-17238174D01*
X8648753Y-17238174D02*
X8658277Y-17200079D01*
X8658277Y-17200079D02*
X8667801Y-17181031D01*
X8667801Y-17181031D02*
X8677324Y-17171508D01*
X8677324Y-17171508D02*
X8696372Y-17161984D01*
X8848753Y-17342936D02*
X8858277Y-17352460D01*
X8858277Y-17352460D02*
X8848753Y-17361984D01*
X8848753Y-17361984D02*
X8839229Y-17352460D01*
X8839229Y-17352460D02*
X8848753Y-17342936D01*
X8848753Y-17342936D02*
X8848753Y-17361984D01*
X8924944Y-17161984D02*
X9058277Y-17161984D01*
X9058277Y-17161984D02*
X8972563Y-17361984D01*
X9220182Y-17161984D02*
X9182086Y-17161984D01*
X9182086Y-17161984D02*
X9163039Y-17171508D01*
X9163039Y-17171508D02*
X9153515Y-17181031D01*
X9153515Y-17181031D02*
X9134467Y-17209603D01*
X9134467Y-17209603D02*
X9124944Y-17247698D01*
X9124944Y-17247698D02*
X9124944Y-17323889D01*
X9124944Y-17323889D02*
X9134467Y-17342936D01*
X9134467Y-17342936D02*
X9143991Y-17352460D01*
X9143991Y-17352460D02*
X9163039Y-17361984D01*
X9163039Y-17361984D02*
X9201134Y-17361984D01*
X9201134Y-17361984D02*
X9220182Y-17352460D01*
X9220182Y-17352460D02*
X9229705Y-17342936D01*
X9229705Y-17342936D02*
X9239229Y-17323889D01*
X9239229Y-17323889D02*
X9239229Y-17276270D01*
X9239229Y-17276270D02*
X9229705Y-17257222D01*
X9229705Y-17257222D02*
X9220182Y-17247698D01*
X9220182Y-17247698D02*
X9201134Y-17238174D01*
X9201134Y-17238174D02*
X9163039Y-17238174D01*
X9163039Y-17238174D02*
X9143991Y-17247698D01*
X9143991Y-17247698D02*
X9134467Y-17257222D01*
X9134467Y-17257222D02*
X9124944Y-17276270D01*
X9315420Y-17181031D02*
X9324944Y-17171508D01*
X9324944Y-17171508D02*
X9343991Y-17161984D01*
X9343991Y-17161984D02*
X9391610Y-17161984D01*
X9391610Y-17161984D02*
X9410658Y-17171508D01*
X9410658Y-17171508D02*
X9420182Y-17181031D01*
X9420182Y-17181031D02*
X9429705Y-17200079D01*
X9429705Y-17200079D02*
X9429705Y-17219127D01*
X9429705Y-17219127D02*
X9420182Y-17247698D01*
X9420182Y-17247698D02*
X9305896Y-17361984D01*
X9305896Y-17361984D02*
X9429705Y-17361984D01*
X9515420Y-17361984D02*
X9515420Y-17228650D01*
X9515420Y-17247698D02*
X9524944Y-17238174D01*
X9524944Y-17238174D02*
X9543991Y-17228650D01*
X9543991Y-17228650D02*
X9572563Y-17228650D01*
X9572563Y-17228650D02*
X9591610Y-17238174D01*
X9591610Y-17238174D02*
X9601134Y-17257222D01*
X9601134Y-17257222D02*
X9601134Y-17361984D01*
X9601134Y-17257222D02*
X9610658Y-17238174D01*
X9610658Y-17238174D02*
X9629705Y-17228650D01*
X9629705Y-17228650D02*
X9658277Y-17228650D01*
X9658277Y-17228650D02*
X9677325Y-17238174D01*
X9677325Y-17238174D02*
X9686848Y-17257222D01*
X9686848Y-17257222D02*
X9686848Y-17361984D01*
X9782086Y-17361984D02*
X9782086Y-17228650D01*
X9782086Y-17247698D02*
X9791610Y-17238174D01*
X9791610Y-17238174D02*
X9810658Y-17228650D01*
X9810658Y-17228650D02*
X9839229Y-17228650D01*
X9839229Y-17228650D02*
X9858277Y-17238174D01*
X9858277Y-17238174D02*
X9867801Y-17257222D01*
X9867801Y-17257222D02*
X9867801Y-17361984D01*
X9867801Y-17257222D02*
X9877325Y-17238174D01*
X9877325Y-17238174D02*
X9896372Y-17228650D01*
X9896372Y-17228650D02*
X9924944Y-17228650D01*
X9924944Y-17228650D02*
X9943991Y-17238174D01*
X9943991Y-17238174D02*
X9953515Y-17257222D01*
X9953515Y-17257222D02*
X9953515Y-17361984D01*
X10343991Y-17152460D02*
X10172563Y-17409603D01*
X10601134Y-17161984D02*
X10620182Y-17161984D01*
X10620182Y-17161984D02*
X10639229Y-17171508D01*
X10639229Y-17171508D02*
X10648753Y-17181031D01*
X10648753Y-17181031D02*
X10658277Y-17200079D01*
X10658277Y-17200079D02*
X10667801Y-17238174D01*
X10667801Y-17238174D02*
X10667801Y-17285793D01*
X10667801Y-17285793D02*
X10658277Y-17323889D01*
X10658277Y-17323889D02*
X10648753Y-17342936D01*
X10648753Y-17342936D02*
X10639229Y-17352460D01*
X10639229Y-17352460D02*
X10620182Y-17361984D01*
X10620182Y-17361984D02*
X10601134Y-17361984D01*
X10601134Y-17361984D02*
X10582087Y-17352460D01*
X10582087Y-17352460D02*
X10572563Y-17342936D01*
X10572563Y-17342936D02*
X10563039Y-17323889D01*
X10563039Y-17323889D02*
X10553515Y-17285793D01*
X10553515Y-17285793D02*
X10553515Y-17238174D01*
X10553515Y-17238174D02*
X10563039Y-17200079D01*
X10563039Y-17200079D02*
X10572563Y-17181031D01*
X10572563Y-17181031D02*
X10582087Y-17171508D01*
X10582087Y-17171508D02*
X10601134Y-17161984D01*
X10753515Y-17342936D02*
X10763039Y-17352460D01*
X10763039Y-17352460D02*
X10753515Y-17361984D01*
X10753515Y-17361984D02*
X10743991Y-17352460D01*
X10743991Y-17352460D02*
X10753515Y-17342936D01*
X10753515Y-17342936D02*
X10753515Y-17361984D01*
X10886848Y-17161984D02*
X10905896Y-17161984D01*
X10905896Y-17161984D02*
X10924944Y-17171508D01*
X10924944Y-17171508D02*
X10934468Y-17181031D01*
X10934468Y-17181031D02*
X10943991Y-17200079D01*
X10943991Y-17200079D02*
X10953515Y-17238174D01*
X10953515Y-17238174D02*
X10953515Y-17285793D01*
X10953515Y-17285793D02*
X10943991Y-17323889D01*
X10943991Y-17323889D02*
X10934468Y-17342936D01*
X10934468Y-17342936D02*
X10924944Y-17352460D01*
X10924944Y-17352460D02*
X10905896Y-17361984D01*
X10905896Y-17361984D02*
X10886848Y-17361984D01*
X10886848Y-17361984D02*
X10867801Y-17352460D01*
X10867801Y-17352460D02*
X10858277Y-17342936D01*
X10858277Y-17342936D02*
X10848753Y-17323889D01*
X10848753Y-17323889D02*
X10839229Y-17285793D01*
X10839229Y-17285793D02*
X10839229Y-17238174D01*
X10839229Y-17238174D02*
X10848753Y-17200079D01*
X10848753Y-17200079D02*
X10858277Y-17181031D01*
X10858277Y-17181031D02*
X10867801Y-17171508D01*
X10867801Y-17171508D02*
X10886848Y-17161984D01*
X11020182Y-17161984D02*
X11143991Y-17161984D01*
X11143991Y-17161984D02*
X11077325Y-17238174D01*
X11077325Y-17238174D02*
X11105896Y-17238174D01*
X11105896Y-17238174D02*
X11124944Y-17247698D01*
X11124944Y-17247698D02*
X11134468Y-17257222D01*
X11134468Y-17257222D02*
X11143991Y-17276270D01*
X11143991Y-17276270D02*
X11143991Y-17323889D01*
X11143991Y-17323889D02*
X11134468Y-17342936D01*
X11134468Y-17342936D02*
X11124944Y-17352460D01*
X11124944Y-17352460D02*
X11105896Y-17361984D01*
X11105896Y-17361984D02*
X11048753Y-17361984D01*
X11048753Y-17361984D02*
X11029706Y-17352460D01*
X11029706Y-17352460D02*
X11020182Y-17342936D01*
X11267801Y-17161984D02*
X11286848Y-17161984D01*
X11286848Y-17161984D02*
X11305896Y-17171508D01*
X11305896Y-17171508D02*
X11315420Y-17181031D01*
X11315420Y-17181031D02*
X11324944Y-17200079D01*
X11324944Y-17200079D02*
X11334467Y-17238174D01*
X11334467Y-17238174D02*
X11334467Y-17285793D01*
X11334467Y-17285793D02*
X11324944Y-17323889D01*
X11324944Y-17323889D02*
X11315420Y-17342936D01*
X11315420Y-17342936D02*
X11305896Y-17352460D01*
X11305896Y-17352460D02*
X11286848Y-17361984D01*
X11286848Y-17361984D02*
X11267801Y-17361984D01*
X11267801Y-17361984D02*
X11248753Y-17352460D01*
X11248753Y-17352460D02*
X11239229Y-17342936D01*
X11239229Y-17342936D02*
X11229706Y-17323889D01*
X11229706Y-17323889D02*
X11220182Y-17285793D01*
X11220182Y-17285793D02*
X11220182Y-17238174D01*
X11220182Y-17238174D02*
X11229706Y-17200079D01*
X11229706Y-17200079D02*
X11239229Y-17181031D01*
X11239229Y-17181031D02*
X11248753Y-17171508D01*
X11248753Y-17171508D02*
X11267801Y-17161984D01*
X11458277Y-17161984D02*
X11477325Y-17161984D01*
X11477325Y-17161984D02*
X11496372Y-17171508D01*
X11496372Y-17171508D02*
X11505896Y-17181031D01*
X11505896Y-17181031D02*
X11515420Y-17200079D01*
X11515420Y-17200079D02*
X11524944Y-17238174D01*
X11524944Y-17238174D02*
X11524944Y-17285793D01*
X11524944Y-17285793D02*
X11515420Y-17323889D01*
X11515420Y-17323889D02*
X11505896Y-17342936D01*
X11505896Y-17342936D02*
X11496372Y-17352460D01*
X11496372Y-17352460D02*
X11477325Y-17361984D01*
X11477325Y-17361984D02*
X11458277Y-17361984D01*
X11458277Y-17361984D02*
X11439229Y-17352460D01*
X11439229Y-17352460D02*
X11429706Y-17342936D01*
X11429706Y-17342936D02*
X11420182Y-17323889D01*
X11420182Y-17323889D02*
X11410658Y-17285793D01*
X11410658Y-17285793D02*
X11410658Y-17238174D01*
X11410658Y-17238174D02*
X11420182Y-17200079D01*
X11420182Y-17200079D02*
X11429706Y-17181031D01*
X11429706Y-17181031D02*
X11439229Y-17171508D01*
X11439229Y-17171508D02*
X11458277Y-17161984D01*
X11601134Y-17161984D02*
X11601134Y-17200079D01*
X11677325Y-17161984D02*
X11677325Y-17200079D01*
X11972563Y-17438174D02*
X11963039Y-17428650D01*
X11963039Y-17428650D02*
X11943991Y-17400079D01*
X11943991Y-17400079D02*
X11934468Y-17381031D01*
X11934468Y-17381031D02*
X11924944Y-17352460D01*
X11924944Y-17352460D02*
X11915420Y-17304841D01*
X11915420Y-17304841D02*
X11915420Y-17266746D01*
X11915420Y-17266746D02*
X11924944Y-17219127D01*
X11924944Y-17219127D02*
X11934468Y-17190555D01*
X11934468Y-17190555D02*
X11943991Y-17171508D01*
X11943991Y-17171508D02*
X11963039Y-17142936D01*
X11963039Y-17142936D02*
X11972563Y-17133412D01*
X12153515Y-17361984D02*
X12039229Y-17361984D01*
X12096372Y-17361984D02*
X12096372Y-17161984D01*
X12096372Y-17161984D02*
X12077325Y-17190555D01*
X12077325Y-17190555D02*
X12058277Y-17209603D01*
X12058277Y-17209603D02*
X12039229Y-17219127D01*
X12343991Y-17361984D02*
X12229706Y-17361984D01*
X12286848Y-17361984D02*
X12286848Y-17161984D01*
X12286848Y-17161984D02*
X12267801Y-17190555D01*
X12267801Y-17190555D02*
X12248753Y-17209603D01*
X12248753Y-17209603D02*
X12229706Y-17219127D01*
X12515420Y-17161984D02*
X12477325Y-17161984D01*
X12477325Y-17161984D02*
X12458277Y-17171508D01*
X12458277Y-17171508D02*
X12448753Y-17181031D01*
X12448753Y-17181031D02*
X12429706Y-17209603D01*
X12429706Y-17209603D02*
X12420182Y-17247698D01*
X12420182Y-17247698D02*
X12420182Y-17323889D01*
X12420182Y-17323889D02*
X12429706Y-17342936D01*
X12429706Y-17342936D02*
X12439229Y-17352460D01*
X12439229Y-17352460D02*
X12458277Y-17361984D01*
X12458277Y-17361984D02*
X12496372Y-17361984D01*
X12496372Y-17361984D02*
X12515420Y-17352460D01*
X12515420Y-17352460D02*
X12524944Y-17342936D01*
X12524944Y-17342936D02*
X12534468Y-17323889D01*
X12534468Y-17323889D02*
X12534468Y-17276270D01*
X12534468Y-17276270D02*
X12524944Y-17257222D01*
X12524944Y-17257222D02*
X12515420Y-17247698D01*
X12515420Y-17247698D02*
X12496372Y-17238174D01*
X12496372Y-17238174D02*
X12458277Y-17238174D01*
X12458277Y-17238174D02*
X12439229Y-17247698D01*
X12439229Y-17247698D02*
X12429706Y-17257222D01*
X12429706Y-17257222D02*
X12420182Y-17276270D01*
X12772563Y-17361984D02*
X12772563Y-17161984D01*
X12858277Y-17361984D02*
X12858277Y-17257222D01*
X12858277Y-17257222D02*
X12848753Y-17238174D01*
X12848753Y-17238174D02*
X12829706Y-17228650D01*
X12829706Y-17228650D02*
X12801134Y-17228650D01*
X12801134Y-17228650D02*
X12782087Y-17238174D01*
X12782087Y-17238174D02*
X12772563Y-17247698D01*
X12982087Y-17361984D02*
X12963039Y-17352460D01*
X12963039Y-17352460D02*
X12953515Y-17342936D01*
X12953515Y-17342936D02*
X12943991Y-17323889D01*
X12943991Y-17323889D02*
X12943991Y-17266746D01*
X12943991Y-17266746D02*
X12953515Y-17247698D01*
X12953515Y-17247698D02*
X12963039Y-17238174D01*
X12963039Y-17238174D02*
X12982087Y-17228650D01*
X12982087Y-17228650D02*
X13010658Y-17228650D01*
X13010658Y-17228650D02*
X13029706Y-17238174D01*
X13029706Y-17238174D02*
X13039230Y-17247698D01*
X13039230Y-17247698D02*
X13048753Y-17266746D01*
X13048753Y-17266746D02*
X13048753Y-17323889D01*
X13048753Y-17323889D02*
X13039230Y-17342936D01*
X13039230Y-17342936D02*
X13029706Y-17352460D01*
X13029706Y-17352460D02*
X13010658Y-17361984D01*
X13010658Y-17361984D02*
X12982087Y-17361984D01*
X13163039Y-17361984D02*
X13143991Y-17352460D01*
X13143991Y-17352460D02*
X13134468Y-17333412D01*
X13134468Y-17333412D02*
X13134468Y-17161984D01*
X13315420Y-17352460D02*
X13296372Y-17361984D01*
X13296372Y-17361984D02*
X13258277Y-17361984D01*
X13258277Y-17361984D02*
X13239230Y-17352460D01*
X13239230Y-17352460D02*
X13229706Y-17333412D01*
X13229706Y-17333412D02*
X13229706Y-17257222D01*
X13229706Y-17257222D02*
X13239230Y-17238174D01*
X13239230Y-17238174D02*
X13258277Y-17228650D01*
X13258277Y-17228650D02*
X13296372Y-17228650D01*
X13296372Y-17228650D02*
X13315420Y-17238174D01*
X13315420Y-17238174D02*
X13324944Y-17257222D01*
X13324944Y-17257222D02*
X13324944Y-17276270D01*
X13324944Y-17276270D02*
X13229706Y-17295317D01*
X13401134Y-17352460D02*
X13420182Y-17361984D01*
X13420182Y-17361984D02*
X13458277Y-17361984D01*
X13458277Y-17361984D02*
X13477325Y-17352460D01*
X13477325Y-17352460D02*
X13486849Y-17333412D01*
X13486849Y-17333412D02*
X13486849Y-17323889D01*
X13486849Y-17323889D02*
X13477325Y-17304841D01*
X13477325Y-17304841D02*
X13458277Y-17295317D01*
X13458277Y-17295317D02*
X13429706Y-17295317D01*
X13429706Y-17295317D02*
X13410658Y-17285793D01*
X13410658Y-17285793D02*
X13401134Y-17266746D01*
X13401134Y-17266746D02*
X13401134Y-17257222D01*
X13401134Y-17257222D02*
X13410658Y-17238174D01*
X13410658Y-17238174D02*
X13429706Y-17228650D01*
X13429706Y-17228650D02*
X13458277Y-17228650D01*
X13458277Y-17228650D02*
X13477325Y-17238174D01*
X13553515Y-17438174D02*
X13563039Y-17428650D01*
X13563039Y-17428650D02*
X13582087Y-17400079D01*
X13582087Y-17400079D02*
X13591611Y-17381031D01*
X13591611Y-17381031D02*
X13601134Y-17352460D01*
X13601134Y-17352460D02*
X13610658Y-17304841D01*
X13610658Y-17304841D02*
X13610658Y-17266746D01*
X13610658Y-17266746D02*
X13601134Y-17219127D01*
X13601134Y-17219127D02*
X13591611Y-17190555D01*
X13591611Y-17190555D02*
X13582087Y-17171508D01*
X13582087Y-17171508D02*
X13563039Y-17142936D01*
X13563039Y-17142936D02*
X13553515Y-17133412D01*
D12*
X8385784Y-17562785D02*
X8385784Y-17506216D01*
X8329215Y-17506216D01*
X8329215Y-17562785D01*
X8385784Y-17562785D01*
D11*
X8696372Y-17425984D02*
X8715420Y-17425984D01*
X8715420Y-17425984D02*
X8734467Y-17435508D01*
X8734467Y-17435508D02*
X8743991Y-17445031D01*
X8743991Y-17445031D02*
X8753515Y-17464079D01*
X8753515Y-17464079D02*
X8763039Y-17502174D01*
X8763039Y-17502174D02*
X8763039Y-17549793D01*
X8763039Y-17549793D02*
X8753515Y-17587889D01*
X8753515Y-17587889D02*
X8743991Y-17606936D01*
X8743991Y-17606936D02*
X8734467Y-17616460D01*
X8734467Y-17616460D02*
X8715420Y-17625984D01*
X8715420Y-17625984D02*
X8696372Y-17625984D01*
X8696372Y-17625984D02*
X8677324Y-17616460D01*
X8677324Y-17616460D02*
X8667801Y-17606936D01*
X8667801Y-17606936D02*
X8658277Y-17587889D01*
X8658277Y-17587889D02*
X8648753Y-17549793D01*
X8648753Y-17549793D02*
X8648753Y-17502174D01*
X8648753Y-17502174D02*
X8658277Y-17464079D01*
X8658277Y-17464079D02*
X8667801Y-17445031D01*
X8667801Y-17445031D02*
X8677324Y-17435508D01*
X8677324Y-17435508D02*
X8696372Y-17425984D01*
X8848753Y-17606936D02*
X8858277Y-17616460D01*
X8858277Y-17616460D02*
X8848753Y-17625984D01*
X8848753Y-17625984D02*
X8839229Y-17616460D01*
X8839229Y-17616460D02*
X8848753Y-17606936D01*
X8848753Y-17606936D02*
X8848753Y-17625984D01*
X8972563Y-17511698D02*
X8953515Y-17502174D01*
X8953515Y-17502174D02*
X8943991Y-17492650D01*
X8943991Y-17492650D02*
X8934467Y-17473603D01*
X8934467Y-17473603D02*
X8934467Y-17464079D01*
X8934467Y-17464079D02*
X8943991Y-17445031D01*
X8943991Y-17445031D02*
X8953515Y-17435508D01*
X8953515Y-17435508D02*
X8972563Y-17425984D01*
X8972563Y-17425984D02*
X9010658Y-17425984D01*
X9010658Y-17425984D02*
X9029705Y-17435508D01*
X9029705Y-17435508D02*
X9039229Y-17445031D01*
X9039229Y-17445031D02*
X9048753Y-17464079D01*
X9048753Y-17464079D02*
X9048753Y-17473603D01*
X9048753Y-17473603D02*
X9039229Y-17492650D01*
X9039229Y-17492650D02*
X9029705Y-17502174D01*
X9029705Y-17502174D02*
X9010658Y-17511698D01*
X9010658Y-17511698D02*
X8972563Y-17511698D01*
X8972563Y-17511698D02*
X8953515Y-17521222D01*
X8953515Y-17521222D02*
X8943991Y-17530746D01*
X8943991Y-17530746D02*
X8934467Y-17549793D01*
X8934467Y-17549793D02*
X8934467Y-17587889D01*
X8934467Y-17587889D02*
X8943991Y-17606936D01*
X8943991Y-17606936D02*
X8953515Y-17616460D01*
X8953515Y-17616460D02*
X8972563Y-17625984D01*
X8972563Y-17625984D02*
X9010658Y-17625984D01*
X9010658Y-17625984D02*
X9029705Y-17616460D01*
X9029705Y-17616460D02*
X9039229Y-17606936D01*
X9039229Y-17606936D02*
X9048753Y-17587889D01*
X9048753Y-17587889D02*
X9048753Y-17549793D01*
X9048753Y-17549793D02*
X9039229Y-17530746D01*
X9039229Y-17530746D02*
X9029705Y-17521222D01*
X9029705Y-17521222D02*
X9010658Y-17511698D01*
X9172563Y-17425984D02*
X9191610Y-17425984D01*
X9191610Y-17425984D02*
X9210658Y-17435508D01*
X9210658Y-17435508D02*
X9220182Y-17445031D01*
X9220182Y-17445031D02*
X9229705Y-17464079D01*
X9229705Y-17464079D02*
X9239229Y-17502174D01*
X9239229Y-17502174D02*
X9239229Y-17549793D01*
X9239229Y-17549793D02*
X9229705Y-17587889D01*
X9229705Y-17587889D02*
X9220182Y-17606936D01*
X9220182Y-17606936D02*
X9210658Y-17616460D01*
X9210658Y-17616460D02*
X9191610Y-17625984D01*
X9191610Y-17625984D02*
X9172563Y-17625984D01*
X9172563Y-17625984D02*
X9153515Y-17616460D01*
X9153515Y-17616460D02*
X9143991Y-17606936D01*
X9143991Y-17606936D02*
X9134467Y-17587889D01*
X9134467Y-17587889D02*
X9124944Y-17549793D01*
X9124944Y-17549793D02*
X9124944Y-17502174D01*
X9124944Y-17502174D02*
X9134467Y-17464079D01*
X9134467Y-17464079D02*
X9143991Y-17445031D01*
X9143991Y-17445031D02*
X9153515Y-17435508D01*
X9153515Y-17435508D02*
X9172563Y-17425984D01*
X9363039Y-17425984D02*
X9382086Y-17425984D01*
X9382086Y-17425984D02*
X9401134Y-17435508D01*
X9401134Y-17435508D02*
X9410658Y-17445031D01*
X9410658Y-17445031D02*
X9420182Y-17464079D01*
X9420182Y-17464079D02*
X9429705Y-17502174D01*
X9429705Y-17502174D02*
X9429705Y-17549793D01*
X9429705Y-17549793D02*
X9420182Y-17587889D01*
X9420182Y-17587889D02*
X9410658Y-17606936D01*
X9410658Y-17606936D02*
X9401134Y-17616460D01*
X9401134Y-17616460D02*
X9382086Y-17625984D01*
X9382086Y-17625984D02*
X9363039Y-17625984D01*
X9363039Y-17625984D02*
X9343991Y-17616460D01*
X9343991Y-17616460D02*
X9334467Y-17606936D01*
X9334467Y-17606936D02*
X9324944Y-17587889D01*
X9324944Y-17587889D02*
X9315420Y-17549793D01*
X9315420Y-17549793D02*
X9315420Y-17502174D01*
X9315420Y-17502174D02*
X9324944Y-17464079D01*
X9324944Y-17464079D02*
X9334467Y-17445031D01*
X9334467Y-17445031D02*
X9343991Y-17435508D01*
X9343991Y-17435508D02*
X9363039Y-17425984D01*
X9515420Y-17625984D02*
X9515420Y-17492650D01*
X9515420Y-17511698D02*
X9524944Y-17502174D01*
X9524944Y-17502174D02*
X9543991Y-17492650D01*
X9543991Y-17492650D02*
X9572563Y-17492650D01*
X9572563Y-17492650D02*
X9591610Y-17502174D01*
X9591610Y-17502174D02*
X9601134Y-17521222D01*
X9601134Y-17521222D02*
X9601134Y-17625984D01*
X9601134Y-17521222D02*
X9610658Y-17502174D01*
X9610658Y-17502174D02*
X9629705Y-17492650D01*
X9629705Y-17492650D02*
X9658277Y-17492650D01*
X9658277Y-17492650D02*
X9677325Y-17502174D01*
X9677325Y-17502174D02*
X9686848Y-17521222D01*
X9686848Y-17521222D02*
X9686848Y-17625984D01*
X9782086Y-17625984D02*
X9782086Y-17492650D01*
X9782086Y-17511698D02*
X9791610Y-17502174D01*
X9791610Y-17502174D02*
X9810658Y-17492650D01*
X9810658Y-17492650D02*
X9839229Y-17492650D01*
X9839229Y-17492650D02*
X9858277Y-17502174D01*
X9858277Y-17502174D02*
X9867801Y-17521222D01*
X9867801Y-17521222D02*
X9867801Y-17625984D01*
X9867801Y-17521222D02*
X9877325Y-17502174D01*
X9877325Y-17502174D02*
X9896372Y-17492650D01*
X9896372Y-17492650D02*
X9924944Y-17492650D01*
X9924944Y-17492650D02*
X9943991Y-17502174D01*
X9943991Y-17502174D02*
X9953515Y-17521222D01*
X9953515Y-17521222D02*
X9953515Y-17625984D01*
X10343991Y-17416460D02*
X10172563Y-17673603D01*
X10601134Y-17425984D02*
X10620182Y-17425984D01*
X10620182Y-17425984D02*
X10639229Y-17435508D01*
X10639229Y-17435508D02*
X10648753Y-17445031D01*
X10648753Y-17445031D02*
X10658277Y-17464079D01*
X10658277Y-17464079D02*
X10667801Y-17502174D01*
X10667801Y-17502174D02*
X10667801Y-17549793D01*
X10667801Y-17549793D02*
X10658277Y-17587889D01*
X10658277Y-17587889D02*
X10648753Y-17606936D01*
X10648753Y-17606936D02*
X10639229Y-17616460D01*
X10639229Y-17616460D02*
X10620182Y-17625984D01*
X10620182Y-17625984D02*
X10601134Y-17625984D01*
X10601134Y-17625984D02*
X10582087Y-17616460D01*
X10582087Y-17616460D02*
X10572563Y-17606936D01*
X10572563Y-17606936D02*
X10563039Y-17587889D01*
X10563039Y-17587889D02*
X10553515Y-17549793D01*
X10553515Y-17549793D02*
X10553515Y-17502174D01*
X10553515Y-17502174D02*
X10563039Y-17464079D01*
X10563039Y-17464079D02*
X10572563Y-17445031D01*
X10572563Y-17445031D02*
X10582087Y-17435508D01*
X10582087Y-17435508D02*
X10601134Y-17425984D01*
X10753515Y-17606936D02*
X10763039Y-17616460D01*
X10763039Y-17616460D02*
X10753515Y-17625984D01*
X10753515Y-17625984D02*
X10743991Y-17616460D01*
X10743991Y-17616460D02*
X10753515Y-17606936D01*
X10753515Y-17606936D02*
X10753515Y-17625984D01*
X10886848Y-17425984D02*
X10905896Y-17425984D01*
X10905896Y-17425984D02*
X10924944Y-17435508D01*
X10924944Y-17435508D02*
X10934468Y-17445031D01*
X10934468Y-17445031D02*
X10943991Y-17464079D01*
X10943991Y-17464079D02*
X10953515Y-17502174D01*
X10953515Y-17502174D02*
X10953515Y-17549793D01*
X10953515Y-17549793D02*
X10943991Y-17587889D01*
X10943991Y-17587889D02*
X10934468Y-17606936D01*
X10934468Y-17606936D02*
X10924944Y-17616460D01*
X10924944Y-17616460D02*
X10905896Y-17625984D01*
X10905896Y-17625984D02*
X10886848Y-17625984D01*
X10886848Y-17625984D02*
X10867801Y-17616460D01*
X10867801Y-17616460D02*
X10858277Y-17606936D01*
X10858277Y-17606936D02*
X10848753Y-17587889D01*
X10848753Y-17587889D02*
X10839229Y-17549793D01*
X10839229Y-17549793D02*
X10839229Y-17502174D01*
X10839229Y-17502174D02*
X10848753Y-17464079D01*
X10848753Y-17464079D02*
X10858277Y-17445031D01*
X10858277Y-17445031D02*
X10867801Y-17435508D01*
X10867801Y-17435508D02*
X10886848Y-17425984D01*
X11020182Y-17425984D02*
X11143991Y-17425984D01*
X11143991Y-17425984D02*
X11077325Y-17502174D01*
X11077325Y-17502174D02*
X11105896Y-17502174D01*
X11105896Y-17502174D02*
X11124944Y-17511698D01*
X11124944Y-17511698D02*
X11134468Y-17521222D01*
X11134468Y-17521222D02*
X11143991Y-17540270D01*
X11143991Y-17540270D02*
X11143991Y-17587889D01*
X11143991Y-17587889D02*
X11134468Y-17606936D01*
X11134468Y-17606936D02*
X11124944Y-17616460D01*
X11124944Y-17616460D02*
X11105896Y-17625984D01*
X11105896Y-17625984D02*
X11048753Y-17625984D01*
X11048753Y-17625984D02*
X11029706Y-17616460D01*
X11029706Y-17616460D02*
X11020182Y-17606936D01*
X11334467Y-17625984D02*
X11220182Y-17625984D01*
X11277325Y-17625984D02*
X11277325Y-17425984D01*
X11277325Y-17425984D02*
X11258277Y-17454555D01*
X11258277Y-17454555D02*
X11239229Y-17473603D01*
X11239229Y-17473603D02*
X11220182Y-17483127D01*
X11515420Y-17425984D02*
X11420182Y-17425984D01*
X11420182Y-17425984D02*
X11410658Y-17521222D01*
X11410658Y-17521222D02*
X11420182Y-17511698D01*
X11420182Y-17511698D02*
X11439229Y-17502174D01*
X11439229Y-17502174D02*
X11486848Y-17502174D01*
X11486848Y-17502174D02*
X11505896Y-17511698D01*
X11505896Y-17511698D02*
X11515420Y-17521222D01*
X11515420Y-17521222D02*
X11524944Y-17540270D01*
X11524944Y-17540270D02*
X11524944Y-17587889D01*
X11524944Y-17587889D02*
X11515420Y-17606936D01*
X11515420Y-17606936D02*
X11505896Y-17616460D01*
X11505896Y-17616460D02*
X11486848Y-17625984D01*
X11486848Y-17625984D02*
X11439229Y-17625984D01*
X11439229Y-17625984D02*
X11420182Y-17616460D01*
X11420182Y-17616460D02*
X11410658Y-17606936D01*
X11601134Y-17425984D02*
X11601134Y-17464079D01*
X11677325Y-17425984D02*
X11677325Y-17464079D01*
X11972563Y-17702174D02*
X11963039Y-17692650D01*
X11963039Y-17692650D02*
X11943991Y-17664079D01*
X11943991Y-17664079D02*
X11934468Y-17645031D01*
X11934468Y-17645031D02*
X11924944Y-17616460D01*
X11924944Y-17616460D02*
X11915420Y-17568841D01*
X11915420Y-17568841D02*
X11915420Y-17530746D01*
X11915420Y-17530746D02*
X11924944Y-17483127D01*
X11924944Y-17483127D02*
X11934468Y-17454555D01*
X11934468Y-17454555D02*
X11943991Y-17435508D01*
X11943991Y-17435508D02*
X11963039Y-17406936D01*
X11963039Y-17406936D02*
X11972563Y-17397412D01*
X12039229Y-17445031D02*
X12048753Y-17435508D01*
X12048753Y-17435508D02*
X12067801Y-17425984D01*
X12067801Y-17425984D02*
X12115420Y-17425984D01*
X12115420Y-17425984D02*
X12134468Y-17435508D01*
X12134468Y-17435508D02*
X12143991Y-17445031D01*
X12143991Y-17445031D02*
X12153515Y-17464079D01*
X12153515Y-17464079D02*
X12153515Y-17483127D01*
X12153515Y-17483127D02*
X12143991Y-17511698D01*
X12143991Y-17511698D02*
X12029706Y-17625984D01*
X12029706Y-17625984D02*
X12153515Y-17625984D01*
X12391610Y-17625984D02*
X12391610Y-17425984D01*
X12477325Y-17625984D02*
X12477325Y-17521222D01*
X12477325Y-17521222D02*
X12467801Y-17502174D01*
X12467801Y-17502174D02*
X12448753Y-17492650D01*
X12448753Y-17492650D02*
X12420182Y-17492650D01*
X12420182Y-17492650D02*
X12401134Y-17502174D01*
X12401134Y-17502174D02*
X12391610Y-17511698D01*
X12601134Y-17625984D02*
X12582087Y-17616460D01*
X12582087Y-17616460D02*
X12572563Y-17606936D01*
X12572563Y-17606936D02*
X12563039Y-17587889D01*
X12563039Y-17587889D02*
X12563039Y-17530746D01*
X12563039Y-17530746D02*
X12572563Y-17511698D01*
X12572563Y-17511698D02*
X12582087Y-17502174D01*
X12582087Y-17502174D02*
X12601134Y-17492650D01*
X12601134Y-17492650D02*
X12629706Y-17492650D01*
X12629706Y-17492650D02*
X12648753Y-17502174D01*
X12648753Y-17502174D02*
X12658277Y-17511698D01*
X12658277Y-17511698D02*
X12667801Y-17530746D01*
X12667801Y-17530746D02*
X12667801Y-17587889D01*
X12667801Y-17587889D02*
X12658277Y-17606936D01*
X12658277Y-17606936D02*
X12648753Y-17616460D01*
X12648753Y-17616460D02*
X12629706Y-17625984D01*
X12629706Y-17625984D02*
X12601134Y-17625984D01*
X12782087Y-17625984D02*
X12763039Y-17616460D01*
X12763039Y-17616460D02*
X12753515Y-17597412D01*
X12753515Y-17597412D02*
X12753515Y-17425984D01*
X12934468Y-17616460D02*
X12915420Y-17625984D01*
X12915420Y-17625984D02*
X12877325Y-17625984D01*
X12877325Y-17625984D02*
X12858277Y-17616460D01*
X12858277Y-17616460D02*
X12848753Y-17597412D01*
X12848753Y-17597412D02*
X12848753Y-17521222D01*
X12848753Y-17521222D02*
X12858277Y-17502174D01*
X12858277Y-17502174D02*
X12877325Y-17492650D01*
X12877325Y-17492650D02*
X12915420Y-17492650D01*
X12915420Y-17492650D02*
X12934468Y-17502174D01*
X12934468Y-17502174D02*
X12943991Y-17521222D01*
X12943991Y-17521222D02*
X12943991Y-17540270D01*
X12943991Y-17540270D02*
X12848753Y-17559317D01*
X13020182Y-17616460D02*
X13039230Y-17625984D01*
X13039230Y-17625984D02*
X13077325Y-17625984D01*
X13077325Y-17625984D02*
X13096372Y-17616460D01*
X13096372Y-17616460D02*
X13105896Y-17597412D01*
X13105896Y-17597412D02*
X13105896Y-17587889D01*
X13105896Y-17587889D02*
X13096372Y-17568841D01*
X13096372Y-17568841D02*
X13077325Y-17559317D01*
X13077325Y-17559317D02*
X13048753Y-17559317D01*
X13048753Y-17559317D02*
X13029706Y-17549793D01*
X13029706Y-17549793D02*
X13020182Y-17530746D01*
X13020182Y-17530746D02*
X13020182Y-17521222D01*
X13020182Y-17521222D02*
X13029706Y-17502174D01*
X13029706Y-17502174D02*
X13048753Y-17492650D01*
X13048753Y-17492650D02*
X13077325Y-17492650D01*
X13077325Y-17492650D02*
X13096372Y-17502174D01*
X13172563Y-17702174D02*
X13182087Y-17692650D01*
X13182087Y-17692650D02*
X13201134Y-17664079D01*
X13201134Y-17664079D02*
X13210658Y-17645031D01*
X13210658Y-17645031D02*
X13220182Y-17616460D01*
X13220182Y-17616460D02*
X13229706Y-17568841D01*
X13229706Y-17568841D02*
X13229706Y-17530746D01*
X13229706Y-17530746D02*
X13220182Y-17483127D01*
X13220182Y-17483127D02*
X13210658Y-17454555D01*
X13210658Y-17454555D02*
X13201134Y-17435508D01*
X13201134Y-17435508D02*
X13182087Y-17406936D01*
X13182087Y-17406936D02*
X13172563Y-17397412D01*
D12*
X8347500Y-17848500D02*
X8397500Y-17798500D01*
X8347500Y-17748500D01*
X8297500Y-17798500D01*
X8347500Y-17848500D01*
D11*
X8763039Y-17889984D02*
X8648753Y-17889984D01*
X8705896Y-17889984D02*
X8705896Y-17689984D01*
X8705896Y-17689984D02*
X8686848Y-17718555D01*
X8686848Y-17718555D02*
X8667801Y-17737603D01*
X8667801Y-17737603D02*
X8648753Y-17747127D01*
X8848753Y-17870936D02*
X8858277Y-17880460D01*
X8858277Y-17880460D02*
X8848753Y-17889984D01*
X8848753Y-17889984D02*
X8839229Y-17880460D01*
X8839229Y-17880460D02*
X8848753Y-17870936D01*
X8848753Y-17870936D02*
X8848753Y-17889984D01*
X8982086Y-17689984D02*
X9001134Y-17689984D01*
X9001134Y-17689984D02*
X9020182Y-17699508D01*
X9020182Y-17699508D02*
X9029705Y-17709031D01*
X9029705Y-17709031D02*
X9039229Y-17728079D01*
X9039229Y-17728079D02*
X9048753Y-17766174D01*
X9048753Y-17766174D02*
X9048753Y-17813793D01*
X9048753Y-17813793D02*
X9039229Y-17851889D01*
X9039229Y-17851889D02*
X9029705Y-17870936D01*
X9029705Y-17870936D02*
X9020182Y-17880460D01*
X9020182Y-17880460D02*
X9001134Y-17889984D01*
X9001134Y-17889984D02*
X8982086Y-17889984D01*
X8982086Y-17889984D02*
X8963039Y-17880460D01*
X8963039Y-17880460D02*
X8953515Y-17870936D01*
X8953515Y-17870936D02*
X8943991Y-17851889D01*
X8943991Y-17851889D02*
X8934467Y-17813793D01*
X8934467Y-17813793D02*
X8934467Y-17766174D01*
X8934467Y-17766174D02*
X8943991Y-17728079D01*
X8943991Y-17728079D02*
X8953515Y-17709031D01*
X8953515Y-17709031D02*
X8963039Y-17699508D01*
X8963039Y-17699508D02*
X8982086Y-17689984D01*
X9172563Y-17689984D02*
X9191610Y-17689984D01*
X9191610Y-17689984D02*
X9210658Y-17699508D01*
X9210658Y-17699508D02*
X9220182Y-17709031D01*
X9220182Y-17709031D02*
X9229705Y-17728079D01*
X9229705Y-17728079D02*
X9239229Y-17766174D01*
X9239229Y-17766174D02*
X9239229Y-17813793D01*
X9239229Y-17813793D02*
X9229705Y-17851889D01*
X9229705Y-17851889D02*
X9220182Y-17870936D01*
X9220182Y-17870936D02*
X9210658Y-17880460D01*
X9210658Y-17880460D02*
X9191610Y-17889984D01*
X9191610Y-17889984D02*
X9172563Y-17889984D01*
X9172563Y-17889984D02*
X9153515Y-17880460D01*
X9153515Y-17880460D02*
X9143991Y-17870936D01*
X9143991Y-17870936D02*
X9134467Y-17851889D01*
X9134467Y-17851889D02*
X9124944Y-17813793D01*
X9124944Y-17813793D02*
X9124944Y-17766174D01*
X9124944Y-17766174D02*
X9134467Y-17728079D01*
X9134467Y-17728079D02*
X9143991Y-17709031D01*
X9143991Y-17709031D02*
X9153515Y-17699508D01*
X9153515Y-17699508D02*
X9172563Y-17689984D01*
X9363039Y-17689984D02*
X9382086Y-17689984D01*
X9382086Y-17689984D02*
X9401134Y-17699508D01*
X9401134Y-17699508D02*
X9410658Y-17709031D01*
X9410658Y-17709031D02*
X9420182Y-17728079D01*
X9420182Y-17728079D02*
X9429705Y-17766174D01*
X9429705Y-17766174D02*
X9429705Y-17813793D01*
X9429705Y-17813793D02*
X9420182Y-17851889D01*
X9420182Y-17851889D02*
X9410658Y-17870936D01*
X9410658Y-17870936D02*
X9401134Y-17880460D01*
X9401134Y-17880460D02*
X9382086Y-17889984D01*
X9382086Y-17889984D02*
X9363039Y-17889984D01*
X9363039Y-17889984D02*
X9343991Y-17880460D01*
X9343991Y-17880460D02*
X9334467Y-17870936D01*
X9334467Y-17870936D02*
X9324944Y-17851889D01*
X9324944Y-17851889D02*
X9315420Y-17813793D01*
X9315420Y-17813793D02*
X9315420Y-17766174D01*
X9315420Y-17766174D02*
X9324944Y-17728079D01*
X9324944Y-17728079D02*
X9334467Y-17709031D01*
X9334467Y-17709031D02*
X9343991Y-17699508D01*
X9343991Y-17699508D02*
X9363039Y-17689984D01*
X9515420Y-17889984D02*
X9515420Y-17756650D01*
X9515420Y-17775698D02*
X9524944Y-17766174D01*
X9524944Y-17766174D02*
X9543991Y-17756650D01*
X9543991Y-17756650D02*
X9572563Y-17756650D01*
X9572563Y-17756650D02*
X9591610Y-17766174D01*
X9591610Y-17766174D02*
X9601134Y-17785222D01*
X9601134Y-17785222D02*
X9601134Y-17889984D01*
X9601134Y-17785222D02*
X9610658Y-17766174D01*
X9610658Y-17766174D02*
X9629705Y-17756650D01*
X9629705Y-17756650D02*
X9658277Y-17756650D01*
X9658277Y-17756650D02*
X9677325Y-17766174D01*
X9677325Y-17766174D02*
X9686848Y-17785222D01*
X9686848Y-17785222D02*
X9686848Y-17889984D01*
X9782086Y-17889984D02*
X9782086Y-17756650D01*
X9782086Y-17775698D02*
X9791610Y-17766174D01*
X9791610Y-17766174D02*
X9810658Y-17756650D01*
X9810658Y-17756650D02*
X9839229Y-17756650D01*
X9839229Y-17756650D02*
X9858277Y-17766174D01*
X9858277Y-17766174D02*
X9867801Y-17785222D01*
X9867801Y-17785222D02*
X9867801Y-17889984D01*
X9867801Y-17785222D02*
X9877325Y-17766174D01*
X9877325Y-17766174D02*
X9896372Y-17756650D01*
X9896372Y-17756650D02*
X9924944Y-17756650D01*
X9924944Y-17756650D02*
X9943991Y-17766174D01*
X9943991Y-17766174D02*
X9953515Y-17785222D01*
X9953515Y-17785222D02*
X9953515Y-17889984D01*
X10343991Y-17680460D02*
X10172563Y-17937603D01*
X10601134Y-17689984D02*
X10620182Y-17689984D01*
X10620182Y-17689984D02*
X10639229Y-17699508D01*
X10639229Y-17699508D02*
X10648753Y-17709031D01*
X10648753Y-17709031D02*
X10658277Y-17728079D01*
X10658277Y-17728079D02*
X10667801Y-17766174D01*
X10667801Y-17766174D02*
X10667801Y-17813793D01*
X10667801Y-17813793D02*
X10658277Y-17851889D01*
X10658277Y-17851889D02*
X10648753Y-17870936D01*
X10648753Y-17870936D02*
X10639229Y-17880460D01*
X10639229Y-17880460D02*
X10620182Y-17889984D01*
X10620182Y-17889984D02*
X10601134Y-17889984D01*
X10601134Y-17889984D02*
X10582087Y-17880460D01*
X10582087Y-17880460D02*
X10572563Y-17870936D01*
X10572563Y-17870936D02*
X10563039Y-17851889D01*
X10563039Y-17851889D02*
X10553515Y-17813793D01*
X10553515Y-17813793D02*
X10553515Y-17766174D01*
X10553515Y-17766174D02*
X10563039Y-17728079D01*
X10563039Y-17728079D02*
X10572563Y-17709031D01*
X10572563Y-17709031D02*
X10582087Y-17699508D01*
X10582087Y-17699508D02*
X10601134Y-17689984D01*
X10753515Y-17870936D02*
X10763039Y-17880460D01*
X10763039Y-17880460D02*
X10753515Y-17889984D01*
X10753515Y-17889984D02*
X10743991Y-17880460D01*
X10743991Y-17880460D02*
X10753515Y-17870936D01*
X10753515Y-17870936D02*
X10753515Y-17889984D01*
X10886848Y-17689984D02*
X10905896Y-17689984D01*
X10905896Y-17689984D02*
X10924944Y-17699508D01*
X10924944Y-17699508D02*
X10934468Y-17709031D01*
X10934468Y-17709031D02*
X10943991Y-17728079D01*
X10943991Y-17728079D02*
X10953515Y-17766174D01*
X10953515Y-17766174D02*
X10953515Y-17813793D01*
X10953515Y-17813793D02*
X10943991Y-17851889D01*
X10943991Y-17851889D02*
X10934468Y-17870936D01*
X10934468Y-17870936D02*
X10924944Y-17880460D01*
X10924944Y-17880460D02*
X10905896Y-17889984D01*
X10905896Y-17889984D02*
X10886848Y-17889984D01*
X10886848Y-17889984D02*
X10867801Y-17880460D01*
X10867801Y-17880460D02*
X10858277Y-17870936D01*
X10858277Y-17870936D02*
X10848753Y-17851889D01*
X10848753Y-17851889D02*
X10839229Y-17813793D01*
X10839229Y-17813793D02*
X10839229Y-17766174D01*
X10839229Y-17766174D02*
X10848753Y-17728079D01*
X10848753Y-17728079D02*
X10858277Y-17709031D01*
X10858277Y-17709031D02*
X10867801Y-17699508D01*
X10867801Y-17699508D02*
X10886848Y-17689984D01*
X11020182Y-17689984D02*
X11143991Y-17689984D01*
X11143991Y-17689984D02*
X11077325Y-17766174D01*
X11077325Y-17766174D02*
X11105896Y-17766174D01*
X11105896Y-17766174D02*
X11124944Y-17775698D01*
X11124944Y-17775698D02*
X11134468Y-17785222D01*
X11134468Y-17785222D02*
X11143991Y-17804270D01*
X11143991Y-17804270D02*
X11143991Y-17851889D01*
X11143991Y-17851889D02*
X11134468Y-17870936D01*
X11134468Y-17870936D02*
X11124944Y-17880460D01*
X11124944Y-17880460D02*
X11105896Y-17889984D01*
X11105896Y-17889984D02*
X11048753Y-17889984D01*
X11048753Y-17889984D02*
X11029706Y-17880460D01*
X11029706Y-17880460D02*
X11020182Y-17870936D01*
X11239229Y-17889984D02*
X11277325Y-17889984D01*
X11277325Y-17889984D02*
X11296372Y-17880460D01*
X11296372Y-17880460D02*
X11305896Y-17870936D01*
X11305896Y-17870936D02*
X11324944Y-17842365D01*
X11324944Y-17842365D02*
X11334467Y-17804270D01*
X11334467Y-17804270D02*
X11334467Y-17728079D01*
X11334467Y-17728079D02*
X11324944Y-17709031D01*
X11324944Y-17709031D02*
X11315420Y-17699508D01*
X11315420Y-17699508D02*
X11296372Y-17689984D01*
X11296372Y-17689984D02*
X11258277Y-17689984D01*
X11258277Y-17689984D02*
X11239229Y-17699508D01*
X11239229Y-17699508D02*
X11229706Y-17709031D01*
X11229706Y-17709031D02*
X11220182Y-17728079D01*
X11220182Y-17728079D02*
X11220182Y-17775698D01*
X11220182Y-17775698D02*
X11229706Y-17794746D01*
X11229706Y-17794746D02*
X11239229Y-17804270D01*
X11239229Y-17804270D02*
X11258277Y-17813793D01*
X11258277Y-17813793D02*
X11296372Y-17813793D01*
X11296372Y-17813793D02*
X11315420Y-17804270D01*
X11315420Y-17804270D02*
X11324944Y-17794746D01*
X11324944Y-17794746D02*
X11334467Y-17775698D01*
X11505896Y-17756650D02*
X11505896Y-17889984D01*
X11458277Y-17680460D02*
X11410658Y-17823317D01*
X11410658Y-17823317D02*
X11534467Y-17823317D01*
X11601134Y-17689984D02*
X11601134Y-17728079D01*
X11677325Y-17689984D02*
X11677325Y-17728079D01*
X11972563Y-17966174D02*
X11963039Y-17956650D01*
X11963039Y-17956650D02*
X11943991Y-17928079D01*
X11943991Y-17928079D02*
X11934468Y-17909031D01*
X11934468Y-17909031D02*
X11924944Y-17880460D01*
X11924944Y-17880460D02*
X11915420Y-17832841D01*
X11915420Y-17832841D02*
X11915420Y-17794746D01*
X11915420Y-17794746D02*
X11924944Y-17747127D01*
X11924944Y-17747127D02*
X11934468Y-17718555D01*
X11934468Y-17718555D02*
X11943991Y-17699508D01*
X11943991Y-17699508D02*
X11963039Y-17670936D01*
X11963039Y-17670936D02*
X11972563Y-17661412D01*
X12134468Y-17689984D02*
X12096372Y-17689984D01*
X12096372Y-17689984D02*
X12077325Y-17699508D01*
X12077325Y-17699508D02*
X12067801Y-17709031D01*
X12067801Y-17709031D02*
X12048753Y-17737603D01*
X12048753Y-17737603D02*
X12039229Y-17775698D01*
X12039229Y-17775698D02*
X12039229Y-17851889D01*
X12039229Y-17851889D02*
X12048753Y-17870936D01*
X12048753Y-17870936D02*
X12058277Y-17880460D01*
X12058277Y-17880460D02*
X12077325Y-17889984D01*
X12077325Y-17889984D02*
X12115420Y-17889984D01*
X12115420Y-17889984D02*
X12134468Y-17880460D01*
X12134468Y-17880460D02*
X12143991Y-17870936D01*
X12143991Y-17870936D02*
X12153515Y-17851889D01*
X12153515Y-17851889D02*
X12153515Y-17804270D01*
X12153515Y-17804270D02*
X12143991Y-17785222D01*
X12143991Y-17785222D02*
X12134468Y-17775698D01*
X12134468Y-17775698D02*
X12115420Y-17766174D01*
X12115420Y-17766174D02*
X12077325Y-17766174D01*
X12077325Y-17766174D02*
X12058277Y-17775698D01*
X12058277Y-17775698D02*
X12048753Y-17785222D01*
X12048753Y-17785222D02*
X12039229Y-17804270D01*
X12343991Y-17889984D02*
X12229706Y-17889984D01*
X12286848Y-17889984D02*
X12286848Y-17689984D01*
X12286848Y-17689984D02*
X12267801Y-17718555D01*
X12267801Y-17718555D02*
X12248753Y-17737603D01*
X12248753Y-17737603D02*
X12229706Y-17747127D01*
X12582087Y-17889984D02*
X12582087Y-17689984D01*
X12667801Y-17889984D02*
X12667801Y-17785222D01*
X12667801Y-17785222D02*
X12658277Y-17766174D01*
X12658277Y-17766174D02*
X12639230Y-17756650D01*
X12639230Y-17756650D02*
X12610658Y-17756650D01*
X12610658Y-17756650D02*
X12591610Y-17766174D01*
X12591610Y-17766174D02*
X12582087Y-17775698D01*
X12791610Y-17889984D02*
X12772563Y-17880460D01*
X12772563Y-17880460D02*
X12763039Y-17870936D01*
X12763039Y-17870936D02*
X12753515Y-17851889D01*
X12753515Y-17851889D02*
X12753515Y-17794746D01*
X12753515Y-17794746D02*
X12763039Y-17775698D01*
X12763039Y-17775698D02*
X12772563Y-17766174D01*
X12772563Y-17766174D02*
X12791610Y-17756650D01*
X12791610Y-17756650D02*
X12820182Y-17756650D01*
X12820182Y-17756650D02*
X12839230Y-17766174D01*
X12839230Y-17766174D02*
X12848753Y-17775698D01*
X12848753Y-17775698D02*
X12858277Y-17794746D01*
X12858277Y-17794746D02*
X12858277Y-17851889D01*
X12858277Y-17851889D02*
X12848753Y-17870936D01*
X12848753Y-17870936D02*
X12839230Y-17880460D01*
X12839230Y-17880460D02*
X12820182Y-17889984D01*
X12820182Y-17889984D02*
X12791610Y-17889984D01*
X12972563Y-17889984D02*
X12953515Y-17880460D01*
X12953515Y-17880460D02*
X12943991Y-17861412D01*
X12943991Y-17861412D02*
X12943991Y-17689984D01*
X13124944Y-17880460D02*
X13105896Y-17889984D01*
X13105896Y-17889984D02*
X13067801Y-17889984D01*
X13067801Y-17889984D02*
X13048753Y-17880460D01*
X13048753Y-17880460D02*
X13039230Y-17861412D01*
X13039230Y-17861412D02*
X13039230Y-17785222D01*
X13039230Y-17785222D02*
X13048753Y-17766174D01*
X13048753Y-17766174D02*
X13067801Y-17756650D01*
X13067801Y-17756650D02*
X13105896Y-17756650D01*
X13105896Y-17756650D02*
X13124944Y-17766174D01*
X13124944Y-17766174D02*
X13134468Y-17785222D01*
X13134468Y-17785222D02*
X13134468Y-17804270D01*
X13134468Y-17804270D02*
X13039230Y-17823317D01*
X13210658Y-17880460D02*
X13229706Y-17889984D01*
X13229706Y-17889984D02*
X13267801Y-17889984D01*
X13267801Y-17889984D02*
X13286849Y-17880460D01*
X13286849Y-17880460D02*
X13296372Y-17861412D01*
X13296372Y-17861412D02*
X13296372Y-17851889D01*
X13296372Y-17851889D02*
X13286849Y-17832841D01*
X13286849Y-17832841D02*
X13267801Y-17823317D01*
X13267801Y-17823317D02*
X13239230Y-17823317D01*
X13239230Y-17823317D02*
X13220182Y-17813793D01*
X13220182Y-17813793D02*
X13210658Y-17794746D01*
X13210658Y-17794746D02*
X13210658Y-17785222D01*
X13210658Y-17785222D02*
X13220182Y-17766174D01*
X13220182Y-17766174D02*
X13239230Y-17756650D01*
X13239230Y-17756650D02*
X13267801Y-17756650D01*
X13267801Y-17756650D02*
X13286849Y-17766174D01*
X13363039Y-17966174D02*
X13372563Y-17956650D01*
X13372563Y-17956650D02*
X13391611Y-17928079D01*
X13391611Y-17928079D02*
X13401134Y-17909031D01*
X13401134Y-17909031D02*
X13410658Y-17880460D01*
X13410658Y-17880460D02*
X13420182Y-17832841D01*
X13420182Y-17832841D02*
X13420182Y-17794746D01*
X13420182Y-17794746D02*
X13410658Y-17747127D01*
X13410658Y-17747127D02*
X13401134Y-17718555D01*
X13401134Y-17718555D02*
X13391611Y-17699508D01*
X13391611Y-17699508D02*
X13372563Y-17670936D01*
X13372563Y-17670936D02*
X13363039Y-17661412D01*
X8197500Y-17962500D02*
X8397500Y-18162500D01*
X8397500Y-17962500D02*
X8197500Y-18162500D01*
X8397500Y-18062500D02*
G75*
G02*
X8197500Y-18062500I-100000J0D01*
G01*
X8197500Y-18062500D02*
G75*
G02*
X8397500Y-18062500I100000J0D01*
G01*
X8639229Y-17953984D02*
X8763039Y-17953984D01*
X8763039Y-17953984D02*
X8696372Y-18030174D01*
X8696372Y-18030174D02*
X8724944Y-18030174D01*
X8724944Y-18030174D02*
X8743991Y-18039698D01*
X8743991Y-18039698D02*
X8753515Y-18049222D01*
X8753515Y-18049222D02*
X8763039Y-18068270D01*
X8763039Y-18068270D02*
X8763039Y-18115889D01*
X8763039Y-18115889D02*
X8753515Y-18134936D01*
X8753515Y-18134936D02*
X8743991Y-18144460D01*
X8743991Y-18144460D02*
X8724944Y-18153984D01*
X8724944Y-18153984D02*
X8667801Y-18153984D01*
X8667801Y-18153984D02*
X8648753Y-18144460D01*
X8648753Y-18144460D02*
X8639229Y-18134936D01*
X8848753Y-18134936D02*
X8858277Y-18144460D01*
X8858277Y-18144460D02*
X8848753Y-18153984D01*
X8848753Y-18153984D02*
X8839229Y-18144460D01*
X8839229Y-18144460D02*
X8848753Y-18134936D01*
X8848753Y-18134936D02*
X8848753Y-18153984D01*
X8934467Y-17973031D02*
X8943991Y-17963508D01*
X8943991Y-17963508D02*
X8963039Y-17953984D01*
X8963039Y-17953984D02*
X9010658Y-17953984D01*
X9010658Y-17953984D02*
X9029705Y-17963508D01*
X9029705Y-17963508D02*
X9039229Y-17973031D01*
X9039229Y-17973031D02*
X9048753Y-17992079D01*
X9048753Y-17992079D02*
X9048753Y-18011127D01*
X9048753Y-18011127D02*
X9039229Y-18039698D01*
X9039229Y-18039698D02*
X8924944Y-18153984D01*
X8924944Y-18153984D02*
X9048753Y-18153984D01*
X9172563Y-17953984D02*
X9191610Y-17953984D01*
X9191610Y-17953984D02*
X9210658Y-17963508D01*
X9210658Y-17963508D02*
X9220182Y-17973031D01*
X9220182Y-17973031D02*
X9229705Y-17992079D01*
X9229705Y-17992079D02*
X9239229Y-18030174D01*
X9239229Y-18030174D02*
X9239229Y-18077793D01*
X9239229Y-18077793D02*
X9229705Y-18115889D01*
X9229705Y-18115889D02*
X9220182Y-18134936D01*
X9220182Y-18134936D02*
X9210658Y-18144460D01*
X9210658Y-18144460D02*
X9191610Y-18153984D01*
X9191610Y-18153984D02*
X9172563Y-18153984D01*
X9172563Y-18153984D02*
X9153515Y-18144460D01*
X9153515Y-18144460D02*
X9143991Y-18134936D01*
X9143991Y-18134936D02*
X9134467Y-18115889D01*
X9134467Y-18115889D02*
X9124944Y-18077793D01*
X9124944Y-18077793D02*
X9124944Y-18030174D01*
X9124944Y-18030174D02*
X9134467Y-17992079D01*
X9134467Y-17992079D02*
X9143991Y-17973031D01*
X9143991Y-17973031D02*
X9153515Y-17963508D01*
X9153515Y-17963508D02*
X9172563Y-17953984D01*
X9363039Y-17953984D02*
X9382086Y-17953984D01*
X9382086Y-17953984D02*
X9401134Y-17963508D01*
X9401134Y-17963508D02*
X9410658Y-17973031D01*
X9410658Y-17973031D02*
X9420182Y-17992079D01*
X9420182Y-17992079D02*
X9429705Y-18030174D01*
X9429705Y-18030174D02*
X9429705Y-18077793D01*
X9429705Y-18077793D02*
X9420182Y-18115889D01*
X9420182Y-18115889D02*
X9410658Y-18134936D01*
X9410658Y-18134936D02*
X9401134Y-18144460D01*
X9401134Y-18144460D02*
X9382086Y-18153984D01*
X9382086Y-18153984D02*
X9363039Y-18153984D01*
X9363039Y-18153984D02*
X9343991Y-18144460D01*
X9343991Y-18144460D02*
X9334467Y-18134936D01*
X9334467Y-18134936D02*
X9324944Y-18115889D01*
X9324944Y-18115889D02*
X9315420Y-18077793D01*
X9315420Y-18077793D02*
X9315420Y-18030174D01*
X9315420Y-18030174D02*
X9324944Y-17992079D01*
X9324944Y-17992079D02*
X9334467Y-17973031D01*
X9334467Y-17973031D02*
X9343991Y-17963508D01*
X9343991Y-17963508D02*
X9363039Y-17953984D01*
X9515420Y-18153984D02*
X9515420Y-18020650D01*
X9515420Y-18039698D02*
X9524944Y-18030174D01*
X9524944Y-18030174D02*
X9543991Y-18020650D01*
X9543991Y-18020650D02*
X9572563Y-18020650D01*
X9572563Y-18020650D02*
X9591610Y-18030174D01*
X9591610Y-18030174D02*
X9601134Y-18049222D01*
X9601134Y-18049222D02*
X9601134Y-18153984D01*
X9601134Y-18049222D02*
X9610658Y-18030174D01*
X9610658Y-18030174D02*
X9629705Y-18020650D01*
X9629705Y-18020650D02*
X9658277Y-18020650D01*
X9658277Y-18020650D02*
X9677325Y-18030174D01*
X9677325Y-18030174D02*
X9686848Y-18049222D01*
X9686848Y-18049222D02*
X9686848Y-18153984D01*
X9782086Y-18153984D02*
X9782086Y-18020650D01*
X9782086Y-18039698D02*
X9791610Y-18030174D01*
X9791610Y-18030174D02*
X9810658Y-18020650D01*
X9810658Y-18020650D02*
X9839229Y-18020650D01*
X9839229Y-18020650D02*
X9858277Y-18030174D01*
X9858277Y-18030174D02*
X9867801Y-18049222D01*
X9867801Y-18049222D02*
X9867801Y-18153984D01*
X9867801Y-18049222D02*
X9877325Y-18030174D01*
X9877325Y-18030174D02*
X9896372Y-18020650D01*
X9896372Y-18020650D02*
X9924944Y-18020650D01*
X9924944Y-18020650D02*
X9943991Y-18030174D01*
X9943991Y-18030174D02*
X9953515Y-18049222D01*
X9953515Y-18049222D02*
X9953515Y-18153984D01*
X10343991Y-17944460D02*
X10172563Y-18201603D01*
X10601134Y-17953984D02*
X10620182Y-17953984D01*
X10620182Y-17953984D02*
X10639229Y-17963508D01*
X10639229Y-17963508D02*
X10648753Y-17973031D01*
X10648753Y-17973031D02*
X10658277Y-17992079D01*
X10658277Y-17992079D02*
X10667801Y-18030174D01*
X10667801Y-18030174D02*
X10667801Y-18077793D01*
X10667801Y-18077793D02*
X10658277Y-18115889D01*
X10658277Y-18115889D02*
X10648753Y-18134936D01*
X10648753Y-18134936D02*
X10639229Y-18144460D01*
X10639229Y-18144460D02*
X10620182Y-18153984D01*
X10620182Y-18153984D02*
X10601134Y-18153984D01*
X10601134Y-18153984D02*
X10582087Y-18144460D01*
X10582087Y-18144460D02*
X10572563Y-18134936D01*
X10572563Y-18134936D02*
X10563039Y-18115889D01*
X10563039Y-18115889D02*
X10553515Y-18077793D01*
X10553515Y-18077793D02*
X10553515Y-18030174D01*
X10553515Y-18030174D02*
X10563039Y-17992079D01*
X10563039Y-17992079D02*
X10572563Y-17973031D01*
X10572563Y-17973031D02*
X10582087Y-17963508D01*
X10582087Y-17963508D02*
X10601134Y-17953984D01*
X10753515Y-18134936D02*
X10763039Y-18144460D01*
X10763039Y-18144460D02*
X10753515Y-18153984D01*
X10753515Y-18153984D02*
X10743991Y-18144460D01*
X10743991Y-18144460D02*
X10753515Y-18134936D01*
X10753515Y-18134936D02*
X10753515Y-18153984D01*
X10953515Y-18153984D02*
X10839229Y-18153984D01*
X10896372Y-18153984D02*
X10896372Y-17953984D01*
X10896372Y-17953984D02*
X10877325Y-17982555D01*
X10877325Y-17982555D02*
X10858277Y-18001603D01*
X10858277Y-18001603D02*
X10839229Y-18011127D01*
X11029706Y-17973031D02*
X11039229Y-17963508D01*
X11039229Y-17963508D02*
X11058277Y-17953984D01*
X11058277Y-17953984D02*
X11105896Y-17953984D01*
X11105896Y-17953984D02*
X11124944Y-17963508D01*
X11124944Y-17963508D02*
X11134468Y-17973031D01*
X11134468Y-17973031D02*
X11143991Y-17992079D01*
X11143991Y-17992079D02*
X11143991Y-18011127D01*
X11143991Y-18011127D02*
X11134468Y-18039698D01*
X11134468Y-18039698D02*
X11020182Y-18153984D01*
X11020182Y-18153984D02*
X11143991Y-18153984D01*
X11315420Y-17953984D02*
X11277325Y-17953984D01*
X11277325Y-17953984D02*
X11258277Y-17963508D01*
X11258277Y-17963508D02*
X11248753Y-17973031D01*
X11248753Y-17973031D02*
X11229706Y-18001603D01*
X11229706Y-18001603D02*
X11220182Y-18039698D01*
X11220182Y-18039698D02*
X11220182Y-18115889D01*
X11220182Y-18115889D02*
X11229706Y-18134936D01*
X11229706Y-18134936D02*
X11239229Y-18144460D01*
X11239229Y-18144460D02*
X11258277Y-18153984D01*
X11258277Y-18153984D02*
X11296372Y-18153984D01*
X11296372Y-18153984D02*
X11315420Y-18144460D01*
X11315420Y-18144460D02*
X11324944Y-18134936D01*
X11324944Y-18134936D02*
X11334467Y-18115889D01*
X11334467Y-18115889D02*
X11334467Y-18068270D01*
X11334467Y-18068270D02*
X11324944Y-18049222D01*
X11324944Y-18049222D02*
X11315420Y-18039698D01*
X11315420Y-18039698D02*
X11296372Y-18030174D01*
X11296372Y-18030174D02*
X11258277Y-18030174D01*
X11258277Y-18030174D02*
X11239229Y-18039698D01*
X11239229Y-18039698D02*
X11229706Y-18049222D01*
X11229706Y-18049222D02*
X11220182Y-18068270D01*
X11458277Y-17953984D02*
X11477325Y-17953984D01*
X11477325Y-17953984D02*
X11496372Y-17963508D01*
X11496372Y-17963508D02*
X11505896Y-17973031D01*
X11505896Y-17973031D02*
X11515420Y-17992079D01*
X11515420Y-17992079D02*
X11524944Y-18030174D01*
X11524944Y-18030174D02*
X11524944Y-18077793D01*
X11524944Y-18077793D02*
X11515420Y-18115889D01*
X11515420Y-18115889D02*
X11505896Y-18134936D01*
X11505896Y-18134936D02*
X11496372Y-18144460D01*
X11496372Y-18144460D02*
X11477325Y-18153984D01*
X11477325Y-18153984D02*
X11458277Y-18153984D01*
X11458277Y-18153984D02*
X11439229Y-18144460D01*
X11439229Y-18144460D02*
X11429706Y-18134936D01*
X11429706Y-18134936D02*
X11420182Y-18115889D01*
X11420182Y-18115889D02*
X11410658Y-18077793D01*
X11410658Y-18077793D02*
X11410658Y-18030174D01*
X11410658Y-18030174D02*
X11420182Y-17992079D01*
X11420182Y-17992079D02*
X11429706Y-17973031D01*
X11429706Y-17973031D02*
X11439229Y-17963508D01*
X11439229Y-17963508D02*
X11458277Y-17953984D01*
X11601134Y-17953984D02*
X11601134Y-17992079D01*
X11677325Y-17953984D02*
X11677325Y-17992079D01*
X11972563Y-18230174D02*
X11963039Y-18220650D01*
X11963039Y-18220650D02*
X11943991Y-18192079D01*
X11943991Y-18192079D02*
X11934468Y-18173031D01*
X11934468Y-18173031D02*
X11924944Y-18144460D01*
X11924944Y-18144460D02*
X11915420Y-18096841D01*
X11915420Y-18096841D02*
X11915420Y-18058746D01*
X11915420Y-18058746D02*
X11924944Y-18011127D01*
X11924944Y-18011127D02*
X11934468Y-17982555D01*
X11934468Y-17982555D02*
X11943991Y-17963508D01*
X11943991Y-17963508D02*
X11963039Y-17934936D01*
X11963039Y-17934936D02*
X11972563Y-17925412D01*
X12143991Y-17953984D02*
X12048753Y-17953984D01*
X12048753Y-17953984D02*
X12039229Y-18049222D01*
X12039229Y-18049222D02*
X12048753Y-18039698D01*
X12048753Y-18039698D02*
X12067801Y-18030174D01*
X12067801Y-18030174D02*
X12115420Y-18030174D01*
X12115420Y-18030174D02*
X12134468Y-18039698D01*
X12134468Y-18039698D02*
X12143991Y-18049222D01*
X12143991Y-18049222D02*
X12153515Y-18068270D01*
X12153515Y-18068270D02*
X12153515Y-18115889D01*
X12153515Y-18115889D02*
X12143991Y-18134936D01*
X12143991Y-18134936D02*
X12134468Y-18144460D01*
X12134468Y-18144460D02*
X12115420Y-18153984D01*
X12115420Y-18153984D02*
X12067801Y-18153984D01*
X12067801Y-18153984D02*
X12048753Y-18144460D01*
X12048753Y-18144460D02*
X12039229Y-18134936D01*
X12391610Y-18153984D02*
X12391610Y-17953984D01*
X12477325Y-18153984D02*
X12477325Y-18049222D01*
X12477325Y-18049222D02*
X12467801Y-18030174D01*
X12467801Y-18030174D02*
X12448753Y-18020650D01*
X12448753Y-18020650D02*
X12420182Y-18020650D01*
X12420182Y-18020650D02*
X12401134Y-18030174D01*
X12401134Y-18030174D02*
X12391610Y-18039698D01*
X12601134Y-18153984D02*
X12582087Y-18144460D01*
X12582087Y-18144460D02*
X12572563Y-18134936D01*
X12572563Y-18134936D02*
X12563039Y-18115889D01*
X12563039Y-18115889D02*
X12563039Y-18058746D01*
X12563039Y-18058746D02*
X12572563Y-18039698D01*
X12572563Y-18039698D02*
X12582087Y-18030174D01*
X12582087Y-18030174D02*
X12601134Y-18020650D01*
X12601134Y-18020650D02*
X12629706Y-18020650D01*
X12629706Y-18020650D02*
X12648753Y-18030174D01*
X12648753Y-18030174D02*
X12658277Y-18039698D01*
X12658277Y-18039698D02*
X12667801Y-18058746D01*
X12667801Y-18058746D02*
X12667801Y-18115889D01*
X12667801Y-18115889D02*
X12658277Y-18134936D01*
X12658277Y-18134936D02*
X12648753Y-18144460D01*
X12648753Y-18144460D02*
X12629706Y-18153984D01*
X12629706Y-18153984D02*
X12601134Y-18153984D01*
X12782087Y-18153984D02*
X12763039Y-18144460D01*
X12763039Y-18144460D02*
X12753515Y-18125412D01*
X12753515Y-18125412D02*
X12753515Y-17953984D01*
X12934468Y-18144460D02*
X12915420Y-18153984D01*
X12915420Y-18153984D02*
X12877325Y-18153984D01*
X12877325Y-18153984D02*
X12858277Y-18144460D01*
X12858277Y-18144460D02*
X12848753Y-18125412D01*
X12848753Y-18125412D02*
X12848753Y-18049222D01*
X12848753Y-18049222D02*
X12858277Y-18030174D01*
X12858277Y-18030174D02*
X12877325Y-18020650D01*
X12877325Y-18020650D02*
X12915420Y-18020650D01*
X12915420Y-18020650D02*
X12934468Y-18030174D01*
X12934468Y-18030174D02*
X12943991Y-18049222D01*
X12943991Y-18049222D02*
X12943991Y-18068270D01*
X12943991Y-18068270D02*
X12848753Y-18087317D01*
X13020182Y-18144460D02*
X13039230Y-18153984D01*
X13039230Y-18153984D02*
X13077325Y-18153984D01*
X13077325Y-18153984D02*
X13096372Y-18144460D01*
X13096372Y-18144460D02*
X13105896Y-18125412D01*
X13105896Y-18125412D02*
X13105896Y-18115889D01*
X13105896Y-18115889D02*
X13096372Y-18096841D01*
X13096372Y-18096841D02*
X13077325Y-18087317D01*
X13077325Y-18087317D02*
X13048753Y-18087317D01*
X13048753Y-18087317D02*
X13029706Y-18077793D01*
X13029706Y-18077793D02*
X13020182Y-18058746D01*
X13020182Y-18058746D02*
X13020182Y-18049222D01*
X13020182Y-18049222D02*
X13029706Y-18030174D01*
X13029706Y-18030174D02*
X13048753Y-18020650D01*
X13048753Y-18020650D02*
X13077325Y-18020650D01*
X13077325Y-18020650D02*
X13096372Y-18030174D01*
X13172563Y-18230174D02*
X13182087Y-18220650D01*
X13182087Y-18220650D02*
X13201134Y-18192079D01*
X13201134Y-18192079D02*
X13210658Y-18173031D01*
X13210658Y-18173031D02*
X13220182Y-18144460D01*
X13220182Y-18144460D02*
X13229706Y-18096841D01*
X13229706Y-18096841D02*
X13229706Y-18058746D01*
X13229706Y-18058746D02*
X13220182Y-18011127D01*
X13220182Y-18011127D02*
X13210658Y-17982555D01*
X13210658Y-17982555D02*
X13201134Y-17963508D01*
X13201134Y-17963508D02*
X13182087Y-17934936D01*
X13182087Y-17934936D02*
X13172563Y-17925412D01*
M02*
