G04 #@! TF.GenerationSoftware,KiCad,Pcbnew,8.0.8-8.0.8-0~ubuntu22.04.1*
G04 #@! TF.CreationDate,2025-02-11T23:42:30+01:00*
G04 #@! TF.ProjectId,aovv_rev_0,616f7676-5f72-4657-965f-302e6b696361,rev?*
G04 #@! TF.SameCoordinates,Original*
G04 #@! TF.FileFunction,Legend,Top*
G04 #@! TF.FilePolarity,Positive*
%FSLAX46Y46*%
G04 Gerber Fmt 4.6, Leading zero omitted, Abs format (unit mm)*
G04 Created by KiCad (PCBNEW 8.0.8-8.0.8-0~ubuntu22.04.1) date 2025-02-11 23:42:30*
%MOMM*%
%LPD*%
G01*
G04 APERTURE LIST*
%ADD10C,0.150000*%
%ADD11C,0.100000*%
%ADD12C,0.120000*%
%ADD13C,0.425000*%
%ADD14C,0.550000*%
%ADD15C,0.300000*%
%ADD16C,1.524000*%
%ADD17R,1.700000X1.700000*%
%ADD18O,1.700000X1.700000*%
%ADD19C,0.800000*%
%ADD20C,6.400000*%
%ADD21C,2.000000*%
%ADD22R,1.600000X1.600000*%
%ADD23C,1.600000*%
G04 APERTURE END LIST*
D10*
X169764286Y-145031009D02*
X170097619Y-145031009D01*
X170240476Y-145554819D02*
X169764286Y-145554819D01*
X169764286Y-145554819D02*
X169764286Y-144554819D01*
X169764286Y-144554819D02*
X170240476Y-144554819D01*
X170621429Y-145507200D02*
X170764286Y-145554819D01*
X170764286Y-145554819D02*
X171002381Y-145554819D01*
X171002381Y-145554819D02*
X171097619Y-145507200D01*
X171097619Y-145507200D02*
X171145238Y-145459580D01*
X171145238Y-145459580D02*
X171192857Y-145364342D01*
X171192857Y-145364342D02*
X171192857Y-145269104D01*
X171192857Y-145269104D02*
X171145238Y-145173866D01*
X171145238Y-145173866D02*
X171097619Y-145126247D01*
X171097619Y-145126247D02*
X171002381Y-145078628D01*
X171002381Y-145078628D02*
X170811905Y-145031009D01*
X170811905Y-145031009D02*
X170716667Y-144983390D01*
X170716667Y-144983390D02*
X170669048Y-144935771D01*
X170669048Y-144935771D02*
X170621429Y-144840533D01*
X170621429Y-144840533D02*
X170621429Y-144745295D01*
X170621429Y-144745295D02*
X170669048Y-144650057D01*
X170669048Y-144650057D02*
X170716667Y-144602438D01*
X170716667Y-144602438D02*
X170811905Y-144554819D01*
X170811905Y-144554819D02*
X171050000Y-144554819D01*
X171050000Y-144554819D02*
X171192857Y-144602438D01*
X171621429Y-145554819D02*
X171621429Y-144554819D01*
X171621429Y-144554819D02*
X172002381Y-144554819D01*
X172002381Y-144554819D02*
X172097619Y-144602438D01*
X172097619Y-144602438D02*
X172145238Y-144650057D01*
X172145238Y-144650057D02*
X172192857Y-144745295D01*
X172192857Y-144745295D02*
X172192857Y-144888152D01*
X172192857Y-144888152D02*
X172145238Y-144983390D01*
X172145238Y-144983390D02*
X172097619Y-145031009D01*
X172097619Y-145031009D02*
X172002381Y-145078628D01*
X172002381Y-145078628D02*
X171621429Y-145078628D01*
X172526191Y-144554819D02*
X173145238Y-144554819D01*
X173145238Y-144554819D02*
X172811905Y-144935771D01*
X172811905Y-144935771D02*
X172954762Y-144935771D01*
X172954762Y-144935771D02*
X173050000Y-144983390D01*
X173050000Y-144983390D02*
X173097619Y-145031009D01*
X173097619Y-145031009D02*
X173145238Y-145126247D01*
X173145238Y-145126247D02*
X173145238Y-145364342D01*
X173145238Y-145364342D02*
X173097619Y-145459580D01*
X173097619Y-145459580D02*
X173050000Y-145507200D01*
X173050000Y-145507200D02*
X172954762Y-145554819D01*
X172954762Y-145554819D02*
X172669048Y-145554819D01*
X172669048Y-145554819D02*
X172573810Y-145507200D01*
X172573810Y-145507200D02*
X172526191Y-145459580D01*
X173526191Y-144650057D02*
X173573810Y-144602438D01*
X173573810Y-144602438D02*
X173669048Y-144554819D01*
X173669048Y-144554819D02*
X173907143Y-144554819D01*
X173907143Y-144554819D02*
X174002381Y-144602438D01*
X174002381Y-144602438D02*
X174050000Y-144650057D01*
X174050000Y-144650057D02*
X174097619Y-144745295D01*
X174097619Y-144745295D02*
X174097619Y-144840533D01*
X174097619Y-144840533D02*
X174050000Y-144983390D01*
X174050000Y-144983390D02*
X173478572Y-145554819D01*
X173478572Y-145554819D02*
X174097619Y-145554819D01*
X175192858Y-144554819D02*
X175430953Y-145554819D01*
X175430953Y-145554819D02*
X175621429Y-144840533D01*
X175621429Y-144840533D02*
X175811905Y-145554819D01*
X175811905Y-145554819D02*
X176050001Y-144554819D01*
X177002381Y-145554819D02*
X176669048Y-145078628D01*
X176430953Y-145554819D02*
X176430953Y-144554819D01*
X176430953Y-144554819D02*
X176811905Y-144554819D01*
X176811905Y-144554819D02*
X176907143Y-144602438D01*
X176907143Y-144602438D02*
X176954762Y-144650057D01*
X176954762Y-144650057D02*
X177002381Y-144745295D01*
X177002381Y-144745295D02*
X177002381Y-144888152D01*
X177002381Y-144888152D02*
X176954762Y-144983390D01*
X176954762Y-144983390D02*
X176907143Y-145031009D01*
X176907143Y-145031009D02*
X176811905Y-145078628D01*
X176811905Y-145078628D02*
X176430953Y-145078628D01*
X177621429Y-144554819D02*
X177811905Y-144554819D01*
X177811905Y-144554819D02*
X177907143Y-144602438D01*
X177907143Y-144602438D02*
X178002381Y-144697676D01*
X178002381Y-144697676D02*
X178050000Y-144888152D01*
X178050000Y-144888152D02*
X178050000Y-145221485D01*
X178050000Y-145221485D02*
X178002381Y-145411961D01*
X178002381Y-145411961D02*
X177907143Y-145507200D01*
X177907143Y-145507200D02*
X177811905Y-145554819D01*
X177811905Y-145554819D02*
X177621429Y-145554819D01*
X177621429Y-145554819D02*
X177526191Y-145507200D01*
X177526191Y-145507200D02*
X177430953Y-145411961D01*
X177430953Y-145411961D02*
X177383334Y-145221485D01*
X177383334Y-145221485D02*
X177383334Y-144888152D01*
X177383334Y-144888152D02*
X177430953Y-144697676D01*
X177430953Y-144697676D02*
X177526191Y-144602438D01*
X177526191Y-144602438D02*
X177621429Y-144554819D01*
X178669048Y-144554819D02*
X178859524Y-144554819D01*
X178859524Y-144554819D02*
X178954762Y-144602438D01*
X178954762Y-144602438D02*
X179050000Y-144697676D01*
X179050000Y-144697676D02*
X179097619Y-144888152D01*
X179097619Y-144888152D02*
X179097619Y-145221485D01*
X179097619Y-145221485D02*
X179050000Y-145411961D01*
X179050000Y-145411961D02*
X178954762Y-145507200D01*
X178954762Y-145507200D02*
X178859524Y-145554819D01*
X178859524Y-145554819D02*
X178669048Y-145554819D01*
X178669048Y-145554819D02*
X178573810Y-145507200D01*
X178573810Y-145507200D02*
X178478572Y-145411961D01*
X178478572Y-145411961D02*
X178430953Y-145221485D01*
X178430953Y-145221485D02*
X178430953Y-144888152D01*
X178430953Y-144888152D02*
X178478572Y-144697676D01*
X178478572Y-144697676D02*
X178573810Y-144602438D01*
X178573810Y-144602438D02*
X178669048Y-144554819D01*
X179526191Y-145554819D02*
X179526191Y-144554819D01*
X179526191Y-144554819D02*
X179859524Y-145269104D01*
X179859524Y-145269104D02*
X180192857Y-144554819D01*
X180192857Y-144554819D02*
X180192857Y-145554819D01*
X180669048Y-145173866D02*
X181430953Y-145173866D01*
X181811905Y-144554819D02*
X182430952Y-144554819D01*
X182430952Y-144554819D02*
X182097619Y-144935771D01*
X182097619Y-144935771D02*
X182240476Y-144935771D01*
X182240476Y-144935771D02*
X182335714Y-144983390D01*
X182335714Y-144983390D02*
X182383333Y-145031009D01*
X182383333Y-145031009D02*
X182430952Y-145126247D01*
X182430952Y-145126247D02*
X182430952Y-145364342D01*
X182430952Y-145364342D02*
X182383333Y-145459580D01*
X182383333Y-145459580D02*
X182335714Y-145507200D01*
X182335714Y-145507200D02*
X182240476Y-145554819D01*
X182240476Y-145554819D02*
X181954762Y-145554819D01*
X181954762Y-145554819D02*
X181859524Y-145507200D01*
X181859524Y-145507200D02*
X181811905Y-145459580D01*
X182811905Y-144650057D02*
X182859524Y-144602438D01*
X182859524Y-144602438D02*
X182954762Y-144554819D01*
X182954762Y-144554819D02*
X183192857Y-144554819D01*
X183192857Y-144554819D02*
X183288095Y-144602438D01*
X183288095Y-144602438D02*
X183335714Y-144650057D01*
X183335714Y-144650057D02*
X183383333Y-144745295D01*
X183383333Y-144745295D02*
X183383333Y-144840533D01*
X183383333Y-144840533D02*
X183335714Y-144983390D01*
X183335714Y-144983390D02*
X182764286Y-145554819D01*
X182764286Y-145554819D02*
X183383333Y-145554819D01*
D11*
X192788095Y-144807419D02*
X192788095Y-145616942D01*
X192788095Y-145616942D02*
X192835714Y-145712180D01*
X192835714Y-145712180D02*
X192883333Y-145759800D01*
X192883333Y-145759800D02*
X192978571Y-145807419D01*
X192978571Y-145807419D02*
X193169047Y-145807419D01*
X193169047Y-145807419D02*
X193264285Y-145759800D01*
X193264285Y-145759800D02*
X193311904Y-145712180D01*
X193311904Y-145712180D02*
X193359523Y-145616942D01*
X193359523Y-145616942D02*
X193359523Y-144807419D01*
X194264285Y-144807419D02*
X194073809Y-144807419D01*
X194073809Y-144807419D02*
X193978571Y-144855038D01*
X193978571Y-144855038D02*
X193930952Y-144902657D01*
X193930952Y-144902657D02*
X193835714Y-145045514D01*
X193835714Y-145045514D02*
X193788095Y-145235990D01*
X193788095Y-145235990D02*
X193788095Y-145616942D01*
X193788095Y-145616942D02*
X193835714Y-145712180D01*
X193835714Y-145712180D02*
X193883333Y-145759800D01*
X193883333Y-145759800D02*
X193978571Y-145807419D01*
X193978571Y-145807419D02*
X194169047Y-145807419D01*
X194169047Y-145807419D02*
X194264285Y-145759800D01*
X194264285Y-145759800D02*
X194311904Y-145712180D01*
X194311904Y-145712180D02*
X194359523Y-145616942D01*
X194359523Y-145616942D02*
X194359523Y-145378847D01*
X194359523Y-145378847D02*
X194311904Y-145283609D01*
X194311904Y-145283609D02*
X194264285Y-145235990D01*
X194264285Y-145235990D02*
X194169047Y-145188371D01*
X194169047Y-145188371D02*
X193978571Y-145188371D01*
X193978571Y-145188371D02*
X193883333Y-145235990D01*
X193883333Y-145235990D02*
X193835714Y-145283609D01*
X193835714Y-145283609D02*
X193788095Y-145378847D01*
D10*
X182116666Y-129604819D02*
X182116666Y-130319104D01*
X182116666Y-130319104D02*
X182069047Y-130461961D01*
X182069047Y-130461961D02*
X181973809Y-130557200D01*
X181973809Y-130557200D02*
X181830952Y-130604819D01*
X181830952Y-130604819D02*
X181735714Y-130604819D01*
X182735714Y-130033390D02*
X182640476Y-129985771D01*
X182640476Y-129985771D02*
X182592857Y-129938152D01*
X182592857Y-129938152D02*
X182545238Y-129842914D01*
X182545238Y-129842914D02*
X182545238Y-129795295D01*
X182545238Y-129795295D02*
X182592857Y-129700057D01*
X182592857Y-129700057D02*
X182640476Y-129652438D01*
X182640476Y-129652438D02*
X182735714Y-129604819D01*
X182735714Y-129604819D02*
X182926190Y-129604819D01*
X182926190Y-129604819D02*
X183021428Y-129652438D01*
X183021428Y-129652438D02*
X183069047Y-129700057D01*
X183069047Y-129700057D02*
X183116666Y-129795295D01*
X183116666Y-129795295D02*
X183116666Y-129842914D01*
X183116666Y-129842914D02*
X183069047Y-129938152D01*
X183069047Y-129938152D02*
X183021428Y-129985771D01*
X183021428Y-129985771D02*
X182926190Y-130033390D01*
X182926190Y-130033390D02*
X182735714Y-130033390D01*
X182735714Y-130033390D02*
X182640476Y-130081009D01*
X182640476Y-130081009D02*
X182592857Y-130128628D01*
X182592857Y-130128628D02*
X182545238Y-130223866D01*
X182545238Y-130223866D02*
X182545238Y-130414342D01*
X182545238Y-130414342D02*
X182592857Y-130509580D01*
X182592857Y-130509580D02*
X182640476Y-130557200D01*
X182640476Y-130557200D02*
X182735714Y-130604819D01*
X182735714Y-130604819D02*
X182926190Y-130604819D01*
X182926190Y-130604819D02*
X183021428Y-130557200D01*
X183021428Y-130557200D02*
X183069047Y-130509580D01*
X183069047Y-130509580D02*
X183116666Y-130414342D01*
X183116666Y-130414342D02*
X183116666Y-130223866D01*
X183116666Y-130223866D02*
X183069047Y-130128628D01*
X183069047Y-130128628D02*
X183021428Y-130081009D01*
X183021428Y-130081009D02*
X182926190Y-130033390D01*
X159590476Y-124074819D02*
X159590476Y-124789104D01*
X159590476Y-124789104D02*
X159542857Y-124931961D01*
X159542857Y-124931961D02*
X159447619Y-125027200D01*
X159447619Y-125027200D02*
X159304762Y-125074819D01*
X159304762Y-125074819D02*
X159209524Y-125074819D01*
X160590476Y-125074819D02*
X160019048Y-125074819D01*
X160304762Y-125074819D02*
X160304762Y-124074819D01*
X160304762Y-124074819D02*
X160209524Y-124217676D01*
X160209524Y-124217676D02*
X160114286Y-124312914D01*
X160114286Y-124312914D02*
X160019048Y-124360533D01*
X161542857Y-125074819D02*
X160971429Y-125074819D01*
X161257143Y-125074819D02*
X161257143Y-124074819D01*
X161257143Y-124074819D02*
X161161905Y-124217676D01*
X161161905Y-124217676D02*
X161066667Y-124312914D01*
X161066667Y-124312914D02*
X160971429Y-124360533D01*
X181240476Y-117604819D02*
X181240476Y-116604819D01*
X181240476Y-116604819D02*
X181573809Y-117319104D01*
X181573809Y-117319104D02*
X181907142Y-116604819D01*
X181907142Y-116604819D02*
X181907142Y-117604819D01*
X182811904Y-116938152D02*
X182811904Y-117604819D01*
X182573809Y-116557200D02*
X182335714Y-117271485D01*
X182335714Y-117271485D02*
X182954761Y-117271485D01*
X159966666Y-104904819D02*
X159966666Y-105619104D01*
X159966666Y-105619104D02*
X159919047Y-105761961D01*
X159919047Y-105761961D02*
X159823809Y-105857200D01*
X159823809Y-105857200D02*
X159680952Y-105904819D01*
X159680952Y-105904819D02*
X159585714Y-105904819D01*
X160919047Y-104904819D02*
X160442857Y-104904819D01*
X160442857Y-104904819D02*
X160395238Y-105381009D01*
X160395238Y-105381009D02*
X160442857Y-105333390D01*
X160442857Y-105333390D02*
X160538095Y-105285771D01*
X160538095Y-105285771D02*
X160776190Y-105285771D01*
X160776190Y-105285771D02*
X160871428Y-105333390D01*
X160871428Y-105333390D02*
X160919047Y-105381009D01*
X160919047Y-105381009D02*
X160966666Y-105476247D01*
X160966666Y-105476247D02*
X160966666Y-105714342D01*
X160966666Y-105714342D02*
X160919047Y-105809580D01*
X160919047Y-105809580D02*
X160871428Y-105857200D01*
X160871428Y-105857200D02*
X160776190Y-105904819D01*
X160776190Y-105904819D02*
X160538095Y-105904819D01*
X160538095Y-105904819D02*
X160442857Y-105857200D01*
X160442857Y-105857200D02*
X160395238Y-105809580D01*
X157366666Y-129054819D02*
X157366666Y-129769104D01*
X157366666Y-129769104D02*
X157319047Y-129911961D01*
X157319047Y-129911961D02*
X157223809Y-130007200D01*
X157223809Y-130007200D02*
X157080952Y-130054819D01*
X157080952Y-130054819D02*
X156985714Y-130054819D01*
X158271428Y-129388152D02*
X158271428Y-130054819D01*
X158033333Y-129007200D02*
X157795238Y-129721485D01*
X157795238Y-129721485D02*
X158414285Y-129721485D01*
X162733333Y-47499580D02*
X162685714Y-47547200D01*
X162685714Y-47547200D02*
X162542857Y-47594819D01*
X162542857Y-47594819D02*
X162447619Y-47594819D01*
X162447619Y-47594819D02*
X162304762Y-47547200D01*
X162304762Y-47547200D02*
X162209524Y-47451961D01*
X162209524Y-47451961D02*
X162161905Y-47356723D01*
X162161905Y-47356723D02*
X162114286Y-47166247D01*
X162114286Y-47166247D02*
X162114286Y-47023390D01*
X162114286Y-47023390D02*
X162161905Y-46832914D01*
X162161905Y-46832914D02*
X162209524Y-46737676D01*
X162209524Y-46737676D02*
X162304762Y-46642438D01*
X162304762Y-46642438D02*
X162447619Y-46594819D01*
X162447619Y-46594819D02*
X162542857Y-46594819D01*
X162542857Y-46594819D02*
X162685714Y-46642438D01*
X162685714Y-46642438D02*
X162733333Y-46690057D01*
X163114286Y-46690057D02*
X163161905Y-46642438D01*
X163161905Y-46642438D02*
X163257143Y-46594819D01*
X163257143Y-46594819D02*
X163495238Y-46594819D01*
X163495238Y-46594819D02*
X163590476Y-46642438D01*
X163590476Y-46642438D02*
X163638095Y-46690057D01*
X163638095Y-46690057D02*
X163685714Y-46785295D01*
X163685714Y-46785295D02*
X163685714Y-46880533D01*
X163685714Y-46880533D02*
X163638095Y-47023390D01*
X163638095Y-47023390D02*
X163066667Y-47594819D01*
X163066667Y-47594819D02*
X163685714Y-47594819D01*
X181720476Y-42774819D02*
X181720476Y-41774819D01*
X181720476Y-41774819D02*
X182053809Y-42489104D01*
X182053809Y-42489104D02*
X182387142Y-41774819D01*
X182387142Y-41774819D02*
X182387142Y-42774819D01*
X183387142Y-42774819D02*
X182815714Y-42774819D01*
X183101428Y-42774819D02*
X183101428Y-41774819D01*
X183101428Y-41774819D02*
X183006190Y-41917676D01*
X183006190Y-41917676D02*
X182910952Y-42012914D01*
X182910952Y-42012914D02*
X182815714Y-42060533D01*
X166933333Y-64709580D02*
X166885714Y-64757200D01*
X166885714Y-64757200D02*
X166742857Y-64804819D01*
X166742857Y-64804819D02*
X166647619Y-64804819D01*
X166647619Y-64804819D02*
X166504762Y-64757200D01*
X166504762Y-64757200D02*
X166409524Y-64661961D01*
X166409524Y-64661961D02*
X166361905Y-64566723D01*
X166361905Y-64566723D02*
X166314286Y-64376247D01*
X166314286Y-64376247D02*
X166314286Y-64233390D01*
X166314286Y-64233390D02*
X166361905Y-64042914D01*
X166361905Y-64042914D02*
X166409524Y-63947676D01*
X166409524Y-63947676D02*
X166504762Y-63852438D01*
X166504762Y-63852438D02*
X166647619Y-63804819D01*
X166647619Y-63804819D02*
X166742857Y-63804819D01*
X166742857Y-63804819D02*
X166885714Y-63852438D01*
X166885714Y-63852438D02*
X166933333Y-63900057D01*
X167266667Y-63804819D02*
X167885714Y-63804819D01*
X167885714Y-63804819D02*
X167552381Y-64185771D01*
X167552381Y-64185771D02*
X167695238Y-64185771D01*
X167695238Y-64185771D02*
X167790476Y-64233390D01*
X167790476Y-64233390D02*
X167838095Y-64281009D01*
X167838095Y-64281009D02*
X167885714Y-64376247D01*
X167885714Y-64376247D02*
X167885714Y-64614342D01*
X167885714Y-64614342D02*
X167838095Y-64709580D01*
X167838095Y-64709580D02*
X167790476Y-64757200D01*
X167790476Y-64757200D02*
X167695238Y-64804819D01*
X167695238Y-64804819D02*
X167409524Y-64804819D01*
X167409524Y-64804819D02*
X167314286Y-64757200D01*
X167314286Y-64757200D02*
X167266667Y-64709580D01*
D11*
X97538095Y-139007419D02*
X97538095Y-139816942D01*
X97538095Y-139816942D02*
X97585714Y-139912180D01*
X97585714Y-139912180D02*
X97633333Y-139959800D01*
X97633333Y-139959800D02*
X97728571Y-140007419D01*
X97728571Y-140007419D02*
X97919047Y-140007419D01*
X97919047Y-140007419D02*
X98014285Y-139959800D01*
X98014285Y-139959800D02*
X98061904Y-139912180D01*
X98061904Y-139912180D02*
X98109523Y-139816942D01*
X98109523Y-139816942D02*
X98109523Y-139007419D01*
X99061904Y-139007419D02*
X98585714Y-139007419D01*
X98585714Y-139007419D02*
X98538095Y-139483609D01*
X98538095Y-139483609D02*
X98585714Y-139435990D01*
X98585714Y-139435990D02*
X98680952Y-139388371D01*
X98680952Y-139388371D02*
X98919047Y-139388371D01*
X98919047Y-139388371D02*
X99014285Y-139435990D01*
X99014285Y-139435990D02*
X99061904Y-139483609D01*
X99061904Y-139483609D02*
X99109523Y-139578847D01*
X99109523Y-139578847D02*
X99109523Y-139816942D01*
X99109523Y-139816942D02*
X99061904Y-139912180D01*
X99061904Y-139912180D02*
X99014285Y-139959800D01*
X99014285Y-139959800D02*
X98919047Y-140007419D01*
X98919047Y-140007419D02*
X98680952Y-140007419D01*
X98680952Y-140007419D02*
X98585714Y-139959800D01*
X98585714Y-139959800D02*
X98538095Y-139912180D01*
D10*
X97045707Y-149119819D02*
X96712374Y-148643628D01*
X96474279Y-149119819D02*
X96474279Y-148119819D01*
X96474279Y-148119819D02*
X96855231Y-148119819D01*
X96855231Y-148119819D02*
X96950469Y-148167438D01*
X96950469Y-148167438D02*
X96998088Y-148215057D01*
X96998088Y-148215057D02*
X97045707Y-148310295D01*
X97045707Y-148310295D02*
X97045707Y-148453152D01*
X97045707Y-148453152D02*
X96998088Y-148548390D01*
X96998088Y-148548390D02*
X96950469Y-148596009D01*
X96950469Y-148596009D02*
X96855231Y-148643628D01*
X96855231Y-148643628D02*
X96474279Y-148643628D01*
X97902850Y-149119819D02*
X97902850Y-148596009D01*
X97902850Y-148596009D02*
X97855231Y-148500771D01*
X97855231Y-148500771D02*
X97759993Y-148453152D01*
X97759993Y-148453152D02*
X97569517Y-148453152D01*
X97569517Y-148453152D02*
X97474279Y-148500771D01*
X97902850Y-149072200D02*
X97807612Y-149119819D01*
X97807612Y-149119819D02*
X97569517Y-149119819D01*
X97569517Y-149119819D02*
X97474279Y-149072200D01*
X97474279Y-149072200D02*
X97426660Y-148976961D01*
X97426660Y-148976961D02*
X97426660Y-148881723D01*
X97426660Y-148881723D02*
X97474279Y-148786485D01*
X97474279Y-148786485D02*
X97569517Y-148738866D01*
X97569517Y-148738866D02*
X97807612Y-148738866D01*
X97807612Y-148738866D02*
X97902850Y-148691247D01*
X98379041Y-148738866D02*
X99140946Y-148738866D01*
X99807612Y-148119819D02*
X99902850Y-148119819D01*
X99902850Y-148119819D02*
X99998088Y-148167438D01*
X99998088Y-148167438D02*
X100045707Y-148215057D01*
X100045707Y-148215057D02*
X100093326Y-148310295D01*
X100093326Y-148310295D02*
X100140945Y-148500771D01*
X100140945Y-148500771D02*
X100140945Y-148738866D01*
X100140945Y-148738866D02*
X100093326Y-148929342D01*
X100093326Y-148929342D02*
X100045707Y-149024580D01*
X100045707Y-149024580D02*
X99998088Y-149072200D01*
X99998088Y-149072200D02*
X99902850Y-149119819D01*
X99902850Y-149119819D02*
X99807612Y-149119819D01*
X99807612Y-149119819D02*
X99712374Y-149072200D01*
X99712374Y-149072200D02*
X99664755Y-149024580D01*
X99664755Y-149024580D02*
X99617136Y-148929342D01*
X99617136Y-148929342D02*
X99569517Y-148738866D01*
X99569517Y-148738866D02*
X99569517Y-148500771D01*
X99569517Y-148500771D02*
X99617136Y-148310295D01*
X99617136Y-148310295D02*
X99664755Y-148215057D01*
X99664755Y-148215057D02*
X99712374Y-148167438D01*
X99712374Y-148167438D02*
X99807612Y-148119819D01*
X100521898Y-148215057D02*
X100569517Y-148167438D01*
X100569517Y-148167438D02*
X100664755Y-148119819D01*
X100664755Y-148119819D02*
X100902850Y-148119819D01*
X100902850Y-148119819D02*
X100998088Y-148167438D01*
X100998088Y-148167438D02*
X101045707Y-148215057D01*
X101045707Y-148215057D02*
X101093326Y-148310295D01*
X101093326Y-148310295D02*
X101093326Y-148405533D01*
X101093326Y-148405533D02*
X101045707Y-148548390D01*
X101045707Y-148548390D02*
X100474279Y-149119819D01*
X100474279Y-149119819D02*
X101093326Y-149119819D01*
D11*
X142738095Y-140057419D02*
X142738095Y-140866942D01*
X142738095Y-140866942D02*
X142785714Y-140962180D01*
X142785714Y-140962180D02*
X142833333Y-141009800D01*
X142833333Y-141009800D02*
X142928571Y-141057419D01*
X142928571Y-141057419D02*
X143119047Y-141057419D01*
X143119047Y-141057419D02*
X143214285Y-141009800D01*
X143214285Y-141009800D02*
X143261904Y-140962180D01*
X143261904Y-140962180D02*
X143309523Y-140866942D01*
X143309523Y-140866942D02*
X143309523Y-140057419D01*
X144214285Y-140390752D02*
X144214285Y-141057419D01*
X143976190Y-140009800D02*
X143738095Y-140724085D01*
X143738095Y-140724085D02*
X144357142Y-140724085D01*
D10*
X139556422Y-148619819D02*
X140127850Y-148619819D01*
X139842136Y-149619819D02*
X139842136Y-148619819D01*
X140794517Y-149096009D02*
X140937374Y-149143628D01*
X140937374Y-149143628D02*
X140984993Y-149191247D01*
X140984993Y-149191247D02*
X141032612Y-149286485D01*
X141032612Y-149286485D02*
X141032612Y-149429342D01*
X141032612Y-149429342D02*
X140984993Y-149524580D01*
X140984993Y-149524580D02*
X140937374Y-149572200D01*
X140937374Y-149572200D02*
X140842136Y-149619819D01*
X140842136Y-149619819D02*
X140461184Y-149619819D01*
X140461184Y-149619819D02*
X140461184Y-148619819D01*
X140461184Y-148619819D02*
X140794517Y-148619819D01*
X140794517Y-148619819D02*
X140889755Y-148667438D01*
X140889755Y-148667438D02*
X140937374Y-148715057D01*
X140937374Y-148715057D02*
X140984993Y-148810295D01*
X140984993Y-148810295D02*
X140984993Y-148905533D01*
X140984993Y-148905533D02*
X140937374Y-149000771D01*
X140937374Y-149000771D02*
X140889755Y-149048390D01*
X140889755Y-149048390D02*
X140794517Y-149096009D01*
X140794517Y-149096009D02*
X140461184Y-149096009D01*
X141889755Y-148619819D02*
X141699279Y-148619819D01*
X141699279Y-148619819D02*
X141604041Y-148667438D01*
X141604041Y-148667438D02*
X141556422Y-148715057D01*
X141556422Y-148715057D02*
X141461184Y-148857914D01*
X141461184Y-148857914D02*
X141413565Y-149048390D01*
X141413565Y-149048390D02*
X141413565Y-149429342D01*
X141413565Y-149429342D02*
X141461184Y-149524580D01*
X141461184Y-149524580D02*
X141508803Y-149572200D01*
X141508803Y-149572200D02*
X141604041Y-149619819D01*
X141604041Y-149619819D02*
X141794517Y-149619819D01*
X141794517Y-149619819D02*
X141889755Y-149572200D01*
X141889755Y-149572200D02*
X141937374Y-149524580D01*
X141937374Y-149524580D02*
X141984993Y-149429342D01*
X141984993Y-149429342D02*
X141984993Y-149191247D01*
X141984993Y-149191247D02*
X141937374Y-149096009D01*
X141937374Y-149096009D02*
X141889755Y-149048390D01*
X141889755Y-149048390D02*
X141794517Y-149000771D01*
X141794517Y-149000771D02*
X141604041Y-149000771D01*
X141604041Y-149000771D02*
X141508803Y-149048390D01*
X141508803Y-149048390D02*
X141461184Y-149096009D01*
X141461184Y-149096009D02*
X141413565Y-149191247D01*
X142842136Y-148619819D02*
X142651660Y-148619819D01*
X142651660Y-148619819D02*
X142556422Y-148667438D01*
X142556422Y-148667438D02*
X142508803Y-148715057D01*
X142508803Y-148715057D02*
X142413565Y-148857914D01*
X142413565Y-148857914D02*
X142365946Y-149048390D01*
X142365946Y-149048390D02*
X142365946Y-149429342D01*
X142365946Y-149429342D02*
X142413565Y-149524580D01*
X142413565Y-149524580D02*
X142461184Y-149572200D01*
X142461184Y-149572200D02*
X142556422Y-149619819D01*
X142556422Y-149619819D02*
X142746898Y-149619819D01*
X142746898Y-149619819D02*
X142842136Y-149572200D01*
X142842136Y-149572200D02*
X142889755Y-149524580D01*
X142889755Y-149524580D02*
X142937374Y-149429342D01*
X142937374Y-149429342D02*
X142937374Y-149191247D01*
X142937374Y-149191247D02*
X142889755Y-149096009D01*
X142889755Y-149096009D02*
X142842136Y-149048390D01*
X142842136Y-149048390D02*
X142746898Y-149000771D01*
X142746898Y-149000771D02*
X142556422Y-149000771D01*
X142556422Y-149000771D02*
X142461184Y-149048390D01*
X142461184Y-149048390D02*
X142413565Y-149096009D01*
X142413565Y-149096009D02*
X142365946Y-149191247D01*
X143889755Y-149619819D02*
X143318327Y-149619819D01*
X143604041Y-149619819D02*
X143604041Y-148619819D01*
X143604041Y-148619819D02*
X143508803Y-148762676D01*
X143508803Y-148762676D02*
X143413565Y-148857914D01*
X143413565Y-148857914D02*
X143318327Y-148905533D01*
X144270708Y-148715057D02*
X144318327Y-148667438D01*
X144318327Y-148667438D02*
X144413565Y-148619819D01*
X144413565Y-148619819D02*
X144651660Y-148619819D01*
X144651660Y-148619819D02*
X144746898Y-148667438D01*
X144746898Y-148667438D02*
X144794517Y-148715057D01*
X144794517Y-148715057D02*
X144842136Y-148810295D01*
X144842136Y-148810295D02*
X144842136Y-148905533D01*
X144842136Y-148905533D02*
X144794517Y-149048390D01*
X144794517Y-149048390D02*
X144223089Y-149619819D01*
X144223089Y-149619819D02*
X144842136Y-149619819D01*
X145604041Y-149096009D02*
X145270708Y-149096009D01*
X145270708Y-149619819D02*
X145270708Y-148619819D01*
X145270708Y-148619819D02*
X145746898Y-148619819D01*
X146127851Y-149619819D02*
X146127851Y-148619819D01*
X146127851Y-148619819D02*
X146699279Y-149619819D01*
X146699279Y-149619819D02*
X146699279Y-148619819D01*
X147699279Y-148667438D02*
X147604041Y-148619819D01*
X147604041Y-148619819D02*
X147461184Y-148619819D01*
X147461184Y-148619819D02*
X147318327Y-148667438D01*
X147318327Y-148667438D02*
X147223089Y-148762676D01*
X147223089Y-148762676D02*
X147175470Y-148857914D01*
X147175470Y-148857914D02*
X147127851Y-149048390D01*
X147127851Y-149048390D02*
X147127851Y-149191247D01*
X147127851Y-149191247D02*
X147175470Y-149381723D01*
X147175470Y-149381723D02*
X147223089Y-149476961D01*
X147223089Y-149476961D02*
X147318327Y-149572200D01*
X147318327Y-149572200D02*
X147461184Y-149619819D01*
X147461184Y-149619819D02*
X147556422Y-149619819D01*
X147556422Y-149619819D02*
X147699279Y-149572200D01*
X147699279Y-149572200D02*
X147746898Y-149524580D01*
X147746898Y-149524580D02*
X147746898Y-149191247D01*
X147746898Y-149191247D02*
X147556422Y-149191247D01*
X175066666Y-59004819D02*
X175066666Y-59719104D01*
X175066666Y-59719104D02*
X175019047Y-59861961D01*
X175019047Y-59861961D02*
X174923809Y-59957200D01*
X174923809Y-59957200D02*
X174780952Y-60004819D01*
X174780952Y-60004819D02*
X174685714Y-60004819D01*
X175447619Y-59004819D02*
X176066666Y-59004819D01*
X176066666Y-59004819D02*
X175733333Y-59385771D01*
X175733333Y-59385771D02*
X175876190Y-59385771D01*
X175876190Y-59385771D02*
X175971428Y-59433390D01*
X175971428Y-59433390D02*
X176019047Y-59481009D01*
X176019047Y-59481009D02*
X176066666Y-59576247D01*
X176066666Y-59576247D02*
X176066666Y-59814342D01*
X176066666Y-59814342D02*
X176019047Y-59909580D01*
X176019047Y-59909580D02*
X175971428Y-59957200D01*
X175971428Y-59957200D02*
X175876190Y-60004819D01*
X175876190Y-60004819D02*
X175590476Y-60004819D01*
X175590476Y-60004819D02*
X175495238Y-59957200D01*
X175495238Y-59957200D02*
X175447619Y-59909580D01*
X169316666Y-59004819D02*
X169316666Y-59719104D01*
X169316666Y-59719104D02*
X169269047Y-59861961D01*
X169269047Y-59861961D02*
X169173809Y-59957200D01*
X169173809Y-59957200D02*
X169030952Y-60004819D01*
X169030952Y-60004819D02*
X168935714Y-60004819D01*
X169745238Y-59100057D02*
X169792857Y-59052438D01*
X169792857Y-59052438D02*
X169888095Y-59004819D01*
X169888095Y-59004819D02*
X170126190Y-59004819D01*
X170126190Y-59004819D02*
X170221428Y-59052438D01*
X170221428Y-59052438D02*
X170269047Y-59100057D01*
X170269047Y-59100057D02*
X170316666Y-59195295D01*
X170316666Y-59195295D02*
X170316666Y-59290533D01*
X170316666Y-59290533D02*
X170269047Y-59433390D01*
X170269047Y-59433390D02*
X169697619Y-60004819D01*
X169697619Y-60004819D02*
X170316666Y-60004819D01*
X169566666Y-39994819D02*
X169566666Y-40709104D01*
X169566666Y-40709104D02*
X169519047Y-40851961D01*
X169519047Y-40851961D02*
X169423809Y-40947200D01*
X169423809Y-40947200D02*
X169280952Y-40994819D01*
X169280952Y-40994819D02*
X169185714Y-40994819D01*
X170566666Y-40994819D02*
X169995238Y-40994819D01*
X170280952Y-40994819D02*
X170280952Y-39994819D01*
X170280952Y-39994819D02*
X170185714Y-40137676D01*
X170185714Y-40137676D02*
X170090476Y-40232914D01*
X170090476Y-40232914D02*
X169995238Y-40280533D01*
X182216666Y-55854819D02*
X182216666Y-56569104D01*
X182216666Y-56569104D02*
X182169047Y-56711961D01*
X182169047Y-56711961D02*
X182073809Y-56807200D01*
X182073809Y-56807200D02*
X181930952Y-56854819D01*
X181930952Y-56854819D02*
X181835714Y-56854819D01*
X182740476Y-56854819D02*
X182930952Y-56854819D01*
X182930952Y-56854819D02*
X183026190Y-56807200D01*
X183026190Y-56807200D02*
X183073809Y-56759580D01*
X183073809Y-56759580D02*
X183169047Y-56616723D01*
X183169047Y-56616723D02*
X183216666Y-56426247D01*
X183216666Y-56426247D02*
X183216666Y-56045295D01*
X183216666Y-56045295D02*
X183169047Y-55950057D01*
X183169047Y-55950057D02*
X183121428Y-55902438D01*
X183121428Y-55902438D02*
X183026190Y-55854819D01*
X183026190Y-55854819D02*
X182835714Y-55854819D01*
X182835714Y-55854819D02*
X182740476Y-55902438D01*
X182740476Y-55902438D02*
X182692857Y-55950057D01*
X182692857Y-55950057D02*
X182645238Y-56045295D01*
X182645238Y-56045295D02*
X182645238Y-56283390D01*
X182645238Y-56283390D02*
X182692857Y-56378628D01*
X182692857Y-56378628D02*
X182740476Y-56426247D01*
X182740476Y-56426247D02*
X182835714Y-56473866D01*
X182835714Y-56473866D02*
X183026190Y-56473866D01*
X183026190Y-56473866D02*
X183121428Y-56426247D01*
X183121428Y-56426247D02*
X183169047Y-56378628D01*
X183169047Y-56378628D02*
X183216666Y-56283390D01*
X210290476Y-66354819D02*
X210290476Y-65354819D01*
X210290476Y-65354819D02*
X210623809Y-66069104D01*
X210623809Y-66069104D02*
X210957142Y-65354819D01*
X210957142Y-65354819D02*
X210957142Y-66354819D01*
X211338095Y-65354819D02*
X211957142Y-65354819D01*
X211957142Y-65354819D02*
X211623809Y-65735771D01*
X211623809Y-65735771D02*
X211766666Y-65735771D01*
X211766666Y-65735771D02*
X211861904Y-65783390D01*
X211861904Y-65783390D02*
X211909523Y-65831009D01*
X211909523Y-65831009D02*
X211957142Y-65926247D01*
X211957142Y-65926247D02*
X211957142Y-66164342D01*
X211957142Y-66164342D02*
X211909523Y-66259580D01*
X211909523Y-66259580D02*
X211861904Y-66307200D01*
X211861904Y-66307200D02*
X211766666Y-66354819D01*
X211766666Y-66354819D02*
X211480952Y-66354819D01*
X211480952Y-66354819D02*
X211385714Y-66307200D01*
X211385714Y-66307200D02*
X211338095Y-66259580D01*
D11*
X169188095Y-125807419D02*
X169188095Y-126616942D01*
X169188095Y-126616942D02*
X169235714Y-126712180D01*
X169235714Y-126712180D02*
X169283333Y-126759800D01*
X169283333Y-126759800D02*
X169378571Y-126807419D01*
X169378571Y-126807419D02*
X169569047Y-126807419D01*
X169569047Y-126807419D02*
X169664285Y-126759800D01*
X169664285Y-126759800D02*
X169711904Y-126712180D01*
X169711904Y-126712180D02*
X169759523Y-126616942D01*
X169759523Y-126616942D02*
X169759523Y-125807419D01*
X170759523Y-126807419D02*
X170188095Y-126807419D01*
X170473809Y-126807419D02*
X170473809Y-125807419D01*
X170473809Y-125807419D02*
X170378571Y-125950276D01*
X170378571Y-125950276D02*
X170283333Y-126045514D01*
X170283333Y-126045514D02*
X170188095Y-126093133D01*
D10*
X166986779Y-111719819D02*
X166986779Y-110719819D01*
X166986779Y-110719819D02*
X167320112Y-111434104D01*
X167320112Y-111434104D02*
X167653445Y-110719819D01*
X167653445Y-110719819D02*
X167653445Y-111719819D01*
X168701064Y-111624580D02*
X168653445Y-111672200D01*
X168653445Y-111672200D02*
X168510588Y-111719819D01*
X168510588Y-111719819D02*
X168415350Y-111719819D01*
X168415350Y-111719819D02*
X168272493Y-111672200D01*
X168272493Y-111672200D02*
X168177255Y-111576961D01*
X168177255Y-111576961D02*
X168129636Y-111481723D01*
X168129636Y-111481723D02*
X168082017Y-111291247D01*
X168082017Y-111291247D02*
X168082017Y-111148390D01*
X168082017Y-111148390D02*
X168129636Y-110957914D01*
X168129636Y-110957914D02*
X168177255Y-110862676D01*
X168177255Y-110862676D02*
X168272493Y-110767438D01*
X168272493Y-110767438D02*
X168415350Y-110719819D01*
X168415350Y-110719819D02*
X168510588Y-110719819D01*
X168510588Y-110719819D02*
X168653445Y-110767438D01*
X168653445Y-110767438D02*
X168701064Y-110815057D01*
X169129636Y-111719819D02*
X169129636Y-110719819D01*
X169129636Y-110719819D02*
X169510588Y-110719819D01*
X169510588Y-110719819D02*
X169605826Y-110767438D01*
X169605826Y-110767438D02*
X169653445Y-110815057D01*
X169653445Y-110815057D02*
X169701064Y-110910295D01*
X169701064Y-110910295D02*
X169701064Y-111053152D01*
X169701064Y-111053152D02*
X169653445Y-111148390D01*
X169653445Y-111148390D02*
X169605826Y-111196009D01*
X169605826Y-111196009D02*
X169510588Y-111243628D01*
X169510588Y-111243628D02*
X169129636Y-111243628D01*
X170082017Y-110815057D02*
X170129636Y-110767438D01*
X170129636Y-110767438D02*
X170224874Y-110719819D01*
X170224874Y-110719819D02*
X170462969Y-110719819D01*
X170462969Y-110719819D02*
X170558207Y-110767438D01*
X170558207Y-110767438D02*
X170605826Y-110815057D01*
X170605826Y-110815057D02*
X170653445Y-110910295D01*
X170653445Y-110910295D02*
X170653445Y-111005533D01*
X170653445Y-111005533D02*
X170605826Y-111148390D01*
X170605826Y-111148390D02*
X170034398Y-111719819D01*
X170034398Y-111719819D02*
X170653445Y-111719819D01*
X170986779Y-110719819D02*
X171605826Y-110719819D01*
X171605826Y-110719819D02*
X171272493Y-111100771D01*
X171272493Y-111100771D02*
X171415350Y-111100771D01*
X171415350Y-111100771D02*
X171510588Y-111148390D01*
X171510588Y-111148390D02*
X171558207Y-111196009D01*
X171558207Y-111196009D02*
X171605826Y-111291247D01*
X171605826Y-111291247D02*
X171605826Y-111529342D01*
X171605826Y-111529342D02*
X171558207Y-111624580D01*
X171558207Y-111624580D02*
X171510588Y-111672200D01*
X171510588Y-111672200D02*
X171415350Y-111719819D01*
X171415350Y-111719819D02*
X171129636Y-111719819D01*
X171129636Y-111719819D02*
X171034398Y-111672200D01*
X171034398Y-111672200D02*
X170986779Y-111624580D01*
X172224874Y-110719819D02*
X172320112Y-110719819D01*
X172320112Y-110719819D02*
X172415350Y-110767438D01*
X172415350Y-110767438D02*
X172462969Y-110815057D01*
X172462969Y-110815057D02*
X172510588Y-110910295D01*
X172510588Y-110910295D02*
X172558207Y-111100771D01*
X172558207Y-111100771D02*
X172558207Y-111338866D01*
X172558207Y-111338866D02*
X172510588Y-111529342D01*
X172510588Y-111529342D02*
X172462969Y-111624580D01*
X172462969Y-111624580D02*
X172415350Y-111672200D01*
X172415350Y-111672200D02*
X172320112Y-111719819D01*
X172320112Y-111719819D02*
X172224874Y-111719819D01*
X172224874Y-111719819D02*
X172129636Y-111672200D01*
X172129636Y-111672200D02*
X172082017Y-111624580D01*
X172082017Y-111624580D02*
X172034398Y-111529342D01*
X172034398Y-111529342D02*
X171986779Y-111338866D01*
X171986779Y-111338866D02*
X171986779Y-111100771D01*
X171986779Y-111100771D02*
X172034398Y-110910295D01*
X172034398Y-110910295D02*
X172082017Y-110815057D01*
X172082017Y-110815057D02*
X172129636Y-110767438D01*
X172129636Y-110767438D02*
X172224874Y-110719819D01*
X173510588Y-111719819D02*
X172939160Y-111719819D01*
X173224874Y-111719819D02*
X173224874Y-110719819D01*
X173224874Y-110719819D02*
X173129636Y-110862676D01*
X173129636Y-110862676D02*
X173034398Y-110957914D01*
X173034398Y-110957914D02*
X172939160Y-111005533D01*
X173843922Y-110719819D02*
X174510588Y-110719819D01*
X174510588Y-110719819D02*
X174082017Y-111719819D01*
X155340476Y-63144819D02*
X155340476Y-63859104D01*
X155340476Y-63859104D02*
X155292857Y-64001961D01*
X155292857Y-64001961D02*
X155197619Y-64097200D01*
X155197619Y-64097200D02*
X155054762Y-64144819D01*
X155054762Y-64144819D02*
X154959524Y-64144819D01*
X156340476Y-64144819D02*
X155769048Y-64144819D01*
X156054762Y-64144819D02*
X156054762Y-63144819D01*
X156054762Y-63144819D02*
X155959524Y-63287676D01*
X155959524Y-63287676D02*
X155864286Y-63382914D01*
X155864286Y-63382914D02*
X155769048Y-63430533D01*
X156959524Y-63144819D02*
X157054762Y-63144819D01*
X157054762Y-63144819D02*
X157150000Y-63192438D01*
X157150000Y-63192438D02*
X157197619Y-63240057D01*
X157197619Y-63240057D02*
X157245238Y-63335295D01*
X157245238Y-63335295D02*
X157292857Y-63525771D01*
X157292857Y-63525771D02*
X157292857Y-63763866D01*
X157292857Y-63763866D02*
X157245238Y-63954342D01*
X157245238Y-63954342D02*
X157197619Y-64049580D01*
X157197619Y-64049580D02*
X157150000Y-64097200D01*
X157150000Y-64097200D02*
X157054762Y-64144819D01*
X157054762Y-64144819D02*
X156959524Y-64144819D01*
X156959524Y-64144819D02*
X156864286Y-64097200D01*
X156864286Y-64097200D02*
X156816667Y-64049580D01*
X156816667Y-64049580D02*
X156769048Y-63954342D01*
X156769048Y-63954342D02*
X156721429Y-63763866D01*
X156721429Y-63763866D02*
X156721429Y-63525771D01*
X156721429Y-63525771D02*
X156769048Y-63335295D01*
X156769048Y-63335295D02*
X156816667Y-63240057D01*
X156816667Y-63240057D02*
X156864286Y-63192438D01*
X156864286Y-63192438D02*
X156959524Y-63144819D01*
X210243420Y-117507763D02*
X210243420Y-116507763D01*
X210243420Y-116507763D02*
X210576753Y-117222048D01*
X210576753Y-117222048D02*
X210910086Y-116507763D01*
X210910086Y-116507763D02*
X210910086Y-117507763D01*
X211862467Y-116507763D02*
X211386277Y-116507763D01*
X211386277Y-116507763D02*
X211338658Y-116983953D01*
X211338658Y-116983953D02*
X211386277Y-116936334D01*
X211386277Y-116936334D02*
X211481515Y-116888715D01*
X211481515Y-116888715D02*
X211719610Y-116888715D01*
X211719610Y-116888715D02*
X211814848Y-116936334D01*
X211814848Y-116936334D02*
X211862467Y-116983953D01*
X211862467Y-116983953D02*
X211910086Y-117079191D01*
X211910086Y-117079191D02*
X211910086Y-117317286D01*
X211910086Y-117317286D02*
X211862467Y-117412524D01*
X211862467Y-117412524D02*
X211814848Y-117460144D01*
X211814848Y-117460144D02*
X211719610Y-117507763D01*
X211719610Y-117507763D02*
X211481515Y-117507763D01*
X211481515Y-117507763D02*
X211386277Y-117460144D01*
X211386277Y-117460144D02*
X211338658Y-117412524D01*
X162733333Y-59249580D02*
X162685714Y-59297200D01*
X162685714Y-59297200D02*
X162542857Y-59344819D01*
X162542857Y-59344819D02*
X162447619Y-59344819D01*
X162447619Y-59344819D02*
X162304762Y-59297200D01*
X162304762Y-59297200D02*
X162209524Y-59201961D01*
X162209524Y-59201961D02*
X162161905Y-59106723D01*
X162161905Y-59106723D02*
X162114286Y-58916247D01*
X162114286Y-58916247D02*
X162114286Y-58773390D01*
X162114286Y-58773390D02*
X162161905Y-58582914D01*
X162161905Y-58582914D02*
X162209524Y-58487676D01*
X162209524Y-58487676D02*
X162304762Y-58392438D01*
X162304762Y-58392438D02*
X162447619Y-58344819D01*
X162447619Y-58344819D02*
X162542857Y-58344819D01*
X162542857Y-58344819D02*
X162685714Y-58392438D01*
X162685714Y-58392438D02*
X162733333Y-58440057D01*
X163685714Y-59344819D02*
X163114286Y-59344819D01*
X163400000Y-59344819D02*
X163400000Y-58344819D01*
X163400000Y-58344819D02*
X163304762Y-58487676D01*
X163304762Y-58487676D02*
X163209524Y-58582914D01*
X163209524Y-58582914D02*
X163114286Y-58630533D01*
D11*
X122338095Y-140157419D02*
X122338095Y-140966942D01*
X122338095Y-140966942D02*
X122385714Y-141062180D01*
X122385714Y-141062180D02*
X122433333Y-141109800D01*
X122433333Y-141109800D02*
X122528571Y-141157419D01*
X122528571Y-141157419D02*
X122719047Y-141157419D01*
X122719047Y-141157419D02*
X122814285Y-141109800D01*
X122814285Y-141109800D02*
X122861904Y-141062180D01*
X122861904Y-141062180D02*
X122909523Y-140966942D01*
X122909523Y-140966942D02*
X122909523Y-140157419D01*
X123290476Y-140157419D02*
X123909523Y-140157419D01*
X123909523Y-140157419D02*
X123576190Y-140538371D01*
X123576190Y-140538371D02*
X123719047Y-140538371D01*
X123719047Y-140538371D02*
X123814285Y-140585990D01*
X123814285Y-140585990D02*
X123861904Y-140633609D01*
X123861904Y-140633609D02*
X123909523Y-140728847D01*
X123909523Y-140728847D02*
X123909523Y-140966942D01*
X123909523Y-140966942D02*
X123861904Y-141062180D01*
X123861904Y-141062180D02*
X123814285Y-141109800D01*
X123814285Y-141109800D02*
X123719047Y-141157419D01*
X123719047Y-141157419D02*
X123433333Y-141157419D01*
X123433333Y-141157419D02*
X123338095Y-141109800D01*
X123338095Y-141109800D02*
X123290476Y-141062180D01*
D10*
X119193922Y-148619819D02*
X119765350Y-148619819D01*
X119479636Y-149619819D02*
X119479636Y-148619819D01*
X120432017Y-149096009D02*
X120574874Y-149143628D01*
X120574874Y-149143628D02*
X120622493Y-149191247D01*
X120622493Y-149191247D02*
X120670112Y-149286485D01*
X120670112Y-149286485D02*
X120670112Y-149429342D01*
X120670112Y-149429342D02*
X120622493Y-149524580D01*
X120622493Y-149524580D02*
X120574874Y-149572200D01*
X120574874Y-149572200D02*
X120479636Y-149619819D01*
X120479636Y-149619819D02*
X120098684Y-149619819D01*
X120098684Y-149619819D02*
X120098684Y-148619819D01*
X120098684Y-148619819D02*
X120432017Y-148619819D01*
X120432017Y-148619819D02*
X120527255Y-148667438D01*
X120527255Y-148667438D02*
X120574874Y-148715057D01*
X120574874Y-148715057D02*
X120622493Y-148810295D01*
X120622493Y-148810295D02*
X120622493Y-148905533D01*
X120622493Y-148905533D02*
X120574874Y-149000771D01*
X120574874Y-149000771D02*
X120527255Y-149048390D01*
X120527255Y-149048390D02*
X120432017Y-149096009D01*
X120432017Y-149096009D02*
X120098684Y-149096009D01*
X121527255Y-148619819D02*
X121336779Y-148619819D01*
X121336779Y-148619819D02*
X121241541Y-148667438D01*
X121241541Y-148667438D02*
X121193922Y-148715057D01*
X121193922Y-148715057D02*
X121098684Y-148857914D01*
X121098684Y-148857914D02*
X121051065Y-149048390D01*
X121051065Y-149048390D02*
X121051065Y-149429342D01*
X121051065Y-149429342D02*
X121098684Y-149524580D01*
X121098684Y-149524580D02*
X121146303Y-149572200D01*
X121146303Y-149572200D02*
X121241541Y-149619819D01*
X121241541Y-149619819D02*
X121432017Y-149619819D01*
X121432017Y-149619819D02*
X121527255Y-149572200D01*
X121527255Y-149572200D02*
X121574874Y-149524580D01*
X121574874Y-149524580D02*
X121622493Y-149429342D01*
X121622493Y-149429342D02*
X121622493Y-149191247D01*
X121622493Y-149191247D02*
X121574874Y-149096009D01*
X121574874Y-149096009D02*
X121527255Y-149048390D01*
X121527255Y-149048390D02*
X121432017Y-149000771D01*
X121432017Y-149000771D02*
X121241541Y-149000771D01*
X121241541Y-149000771D02*
X121146303Y-149048390D01*
X121146303Y-149048390D02*
X121098684Y-149096009D01*
X121098684Y-149096009D02*
X121051065Y-149191247D01*
X122479636Y-148619819D02*
X122289160Y-148619819D01*
X122289160Y-148619819D02*
X122193922Y-148667438D01*
X122193922Y-148667438D02*
X122146303Y-148715057D01*
X122146303Y-148715057D02*
X122051065Y-148857914D01*
X122051065Y-148857914D02*
X122003446Y-149048390D01*
X122003446Y-149048390D02*
X122003446Y-149429342D01*
X122003446Y-149429342D02*
X122051065Y-149524580D01*
X122051065Y-149524580D02*
X122098684Y-149572200D01*
X122098684Y-149572200D02*
X122193922Y-149619819D01*
X122193922Y-149619819D02*
X122384398Y-149619819D01*
X122384398Y-149619819D02*
X122479636Y-149572200D01*
X122479636Y-149572200D02*
X122527255Y-149524580D01*
X122527255Y-149524580D02*
X122574874Y-149429342D01*
X122574874Y-149429342D02*
X122574874Y-149191247D01*
X122574874Y-149191247D02*
X122527255Y-149096009D01*
X122527255Y-149096009D02*
X122479636Y-149048390D01*
X122479636Y-149048390D02*
X122384398Y-149000771D01*
X122384398Y-149000771D02*
X122193922Y-149000771D01*
X122193922Y-149000771D02*
X122098684Y-149048390D01*
X122098684Y-149048390D02*
X122051065Y-149096009D01*
X122051065Y-149096009D02*
X122003446Y-149191247D01*
X123527255Y-149619819D02*
X122955827Y-149619819D01*
X123241541Y-149619819D02*
X123241541Y-148619819D01*
X123241541Y-148619819D02*
X123146303Y-148762676D01*
X123146303Y-148762676D02*
X123051065Y-148857914D01*
X123051065Y-148857914D02*
X122955827Y-148905533D01*
X123908208Y-148715057D02*
X123955827Y-148667438D01*
X123955827Y-148667438D02*
X124051065Y-148619819D01*
X124051065Y-148619819D02*
X124289160Y-148619819D01*
X124289160Y-148619819D02*
X124384398Y-148667438D01*
X124384398Y-148667438D02*
X124432017Y-148715057D01*
X124432017Y-148715057D02*
X124479636Y-148810295D01*
X124479636Y-148810295D02*
X124479636Y-148905533D01*
X124479636Y-148905533D02*
X124432017Y-149048390D01*
X124432017Y-149048390D02*
X123860589Y-149619819D01*
X123860589Y-149619819D02*
X124479636Y-149619819D01*
X125241541Y-149096009D02*
X124908208Y-149096009D01*
X124908208Y-149619819D02*
X124908208Y-148619819D01*
X124908208Y-148619819D02*
X125384398Y-148619819D01*
X125765351Y-149619819D02*
X125765351Y-148619819D01*
X125765351Y-148619819D02*
X126336779Y-149619819D01*
X126336779Y-149619819D02*
X126336779Y-148619819D01*
X127336779Y-148667438D02*
X127241541Y-148619819D01*
X127241541Y-148619819D02*
X127098684Y-148619819D01*
X127098684Y-148619819D02*
X126955827Y-148667438D01*
X126955827Y-148667438D02*
X126860589Y-148762676D01*
X126860589Y-148762676D02*
X126812970Y-148857914D01*
X126812970Y-148857914D02*
X126765351Y-149048390D01*
X126765351Y-149048390D02*
X126765351Y-149191247D01*
X126765351Y-149191247D02*
X126812970Y-149381723D01*
X126812970Y-149381723D02*
X126860589Y-149476961D01*
X126860589Y-149476961D02*
X126955827Y-149572200D01*
X126955827Y-149572200D02*
X127098684Y-149619819D01*
X127098684Y-149619819D02*
X127193922Y-149619819D01*
X127193922Y-149619819D02*
X127336779Y-149572200D01*
X127336779Y-149572200D02*
X127384398Y-149524580D01*
X127384398Y-149524580D02*
X127384398Y-149191247D01*
X127384398Y-149191247D02*
X127193922Y-149191247D01*
X181240476Y-66410707D02*
X181240476Y-65410707D01*
X181240476Y-65410707D02*
X181573809Y-66124992D01*
X181573809Y-66124992D02*
X181907142Y-65410707D01*
X181907142Y-65410707D02*
X181907142Y-66410707D01*
X182335714Y-65505945D02*
X182383333Y-65458326D01*
X182383333Y-65458326D02*
X182478571Y-65410707D01*
X182478571Y-65410707D02*
X182716666Y-65410707D01*
X182716666Y-65410707D02*
X182811904Y-65458326D01*
X182811904Y-65458326D02*
X182859523Y-65505945D01*
X182859523Y-65505945D02*
X182907142Y-65601183D01*
X182907142Y-65601183D02*
X182907142Y-65696421D01*
X182907142Y-65696421D02*
X182859523Y-65839278D01*
X182859523Y-65839278D02*
X182288095Y-66410707D01*
X182288095Y-66410707D02*
X182907142Y-66410707D01*
X155816666Y-68204819D02*
X155816666Y-68919104D01*
X155816666Y-68919104D02*
X155769047Y-69061961D01*
X155769047Y-69061961D02*
X155673809Y-69157200D01*
X155673809Y-69157200D02*
X155530952Y-69204819D01*
X155530952Y-69204819D02*
X155435714Y-69204819D01*
X156197619Y-68204819D02*
X156864285Y-68204819D01*
X156864285Y-68204819D02*
X156435714Y-69204819D01*
X174840476Y-39994819D02*
X174840476Y-40709104D01*
X174840476Y-40709104D02*
X174792857Y-40851961D01*
X174792857Y-40851961D02*
X174697619Y-40947200D01*
X174697619Y-40947200D02*
X174554762Y-40994819D01*
X174554762Y-40994819D02*
X174459524Y-40994819D01*
X175840476Y-40994819D02*
X175269048Y-40994819D01*
X175554762Y-40994819D02*
X175554762Y-39994819D01*
X175554762Y-39994819D02*
X175459524Y-40137676D01*
X175459524Y-40137676D02*
X175364286Y-40232914D01*
X175364286Y-40232914D02*
X175269048Y-40280533D01*
X176221429Y-40090057D02*
X176269048Y-40042438D01*
X176269048Y-40042438D02*
X176364286Y-39994819D01*
X176364286Y-39994819D02*
X176602381Y-39994819D01*
X176602381Y-39994819D02*
X176697619Y-40042438D01*
X176697619Y-40042438D02*
X176745238Y-40090057D01*
X176745238Y-40090057D02*
X176792857Y-40185295D01*
X176792857Y-40185295D02*
X176792857Y-40280533D01*
X176792857Y-40280533D02*
X176745238Y-40423390D01*
X176745238Y-40423390D02*
X176173810Y-40994819D01*
X176173810Y-40994819D02*
X176792857Y-40994819D01*
D11*
X174538095Y-80007419D02*
X174538095Y-80816942D01*
X174538095Y-80816942D02*
X174585714Y-80912180D01*
X174585714Y-80912180D02*
X174633333Y-80959800D01*
X174633333Y-80959800D02*
X174728571Y-81007419D01*
X174728571Y-81007419D02*
X174919047Y-81007419D01*
X174919047Y-81007419D02*
X175014285Y-80959800D01*
X175014285Y-80959800D02*
X175061904Y-80912180D01*
X175061904Y-80912180D02*
X175109523Y-80816942D01*
X175109523Y-80816942D02*
X175109523Y-80007419D01*
X175538095Y-80102657D02*
X175585714Y-80055038D01*
X175585714Y-80055038D02*
X175680952Y-80007419D01*
X175680952Y-80007419D02*
X175919047Y-80007419D01*
X175919047Y-80007419D02*
X176014285Y-80055038D01*
X176014285Y-80055038D02*
X176061904Y-80102657D01*
X176061904Y-80102657D02*
X176109523Y-80197895D01*
X176109523Y-80197895D02*
X176109523Y-80293133D01*
X176109523Y-80293133D02*
X176061904Y-80435990D01*
X176061904Y-80435990D02*
X175490476Y-81007419D01*
X175490476Y-81007419D02*
X176109523Y-81007419D01*
X171971109Y-87725282D02*
X171971109Y-87391949D01*
X171971109Y-87391949D02*
X172471109Y-87725282D01*
X172471109Y-87725282D02*
X172471109Y-87391949D01*
X173971109Y-87725282D02*
X174471109Y-87391949D01*
X173971109Y-87391949D02*
X174471109Y-87725282D01*
D10*
X166670112Y-80546009D02*
X166812969Y-80593628D01*
X166812969Y-80593628D02*
X166860588Y-80641247D01*
X166860588Y-80641247D02*
X166908207Y-80736485D01*
X166908207Y-80736485D02*
X166908207Y-80879342D01*
X166908207Y-80879342D02*
X166860588Y-80974580D01*
X166860588Y-80974580D02*
X166812969Y-81022200D01*
X166812969Y-81022200D02*
X166717731Y-81069819D01*
X166717731Y-81069819D02*
X166336779Y-81069819D01*
X166336779Y-81069819D02*
X166336779Y-80069819D01*
X166336779Y-80069819D02*
X166670112Y-80069819D01*
X166670112Y-80069819D02*
X166765350Y-80117438D01*
X166765350Y-80117438D02*
X166812969Y-80165057D01*
X166812969Y-80165057D02*
X166860588Y-80260295D01*
X166860588Y-80260295D02*
X166860588Y-80355533D01*
X166860588Y-80355533D02*
X166812969Y-80450771D01*
X166812969Y-80450771D02*
X166765350Y-80498390D01*
X166765350Y-80498390D02*
X166670112Y-80546009D01*
X166670112Y-80546009D02*
X166336779Y-80546009D01*
X167336779Y-81069819D02*
X167336779Y-80069819D01*
X167336779Y-80069819D02*
X167908207Y-81069819D01*
X167908207Y-81069819D02*
X167908207Y-80069819D01*
X168574874Y-80069819D02*
X168765350Y-80069819D01*
X168765350Y-80069819D02*
X168860588Y-80117438D01*
X168860588Y-80117438D02*
X168955826Y-80212676D01*
X168955826Y-80212676D02*
X169003445Y-80403152D01*
X169003445Y-80403152D02*
X169003445Y-80736485D01*
X169003445Y-80736485D02*
X168955826Y-80926961D01*
X168955826Y-80926961D02*
X168860588Y-81022200D01*
X168860588Y-81022200D02*
X168765350Y-81069819D01*
X168765350Y-81069819D02*
X168574874Y-81069819D01*
X168574874Y-81069819D02*
X168479636Y-81022200D01*
X168479636Y-81022200D02*
X168384398Y-80926961D01*
X168384398Y-80926961D02*
X168336779Y-80736485D01*
X168336779Y-80736485D02*
X168336779Y-80403152D01*
X168336779Y-80403152D02*
X168384398Y-80212676D01*
X168384398Y-80212676D02*
X168479636Y-80117438D01*
X168479636Y-80117438D02*
X168574874Y-80069819D01*
X169622493Y-80069819D02*
X169717731Y-80069819D01*
X169717731Y-80069819D02*
X169812969Y-80117438D01*
X169812969Y-80117438D02*
X169860588Y-80165057D01*
X169860588Y-80165057D02*
X169908207Y-80260295D01*
X169908207Y-80260295D02*
X169955826Y-80450771D01*
X169955826Y-80450771D02*
X169955826Y-80688866D01*
X169955826Y-80688866D02*
X169908207Y-80879342D01*
X169908207Y-80879342D02*
X169860588Y-80974580D01*
X169860588Y-80974580D02*
X169812969Y-81022200D01*
X169812969Y-81022200D02*
X169717731Y-81069819D01*
X169717731Y-81069819D02*
X169622493Y-81069819D01*
X169622493Y-81069819D02*
X169527255Y-81022200D01*
X169527255Y-81022200D02*
X169479636Y-80974580D01*
X169479636Y-80974580D02*
X169432017Y-80879342D01*
X169432017Y-80879342D02*
X169384398Y-80688866D01*
X169384398Y-80688866D02*
X169384398Y-80450771D01*
X169384398Y-80450771D02*
X169432017Y-80260295D01*
X169432017Y-80260295D02*
X169479636Y-80165057D01*
X169479636Y-80165057D02*
X169527255Y-80117438D01*
X169527255Y-80117438D02*
X169622493Y-80069819D01*
X170527255Y-80498390D02*
X170432017Y-80450771D01*
X170432017Y-80450771D02*
X170384398Y-80403152D01*
X170384398Y-80403152D02*
X170336779Y-80307914D01*
X170336779Y-80307914D02*
X170336779Y-80260295D01*
X170336779Y-80260295D02*
X170384398Y-80165057D01*
X170384398Y-80165057D02*
X170432017Y-80117438D01*
X170432017Y-80117438D02*
X170527255Y-80069819D01*
X170527255Y-80069819D02*
X170717731Y-80069819D01*
X170717731Y-80069819D02*
X170812969Y-80117438D01*
X170812969Y-80117438D02*
X170860588Y-80165057D01*
X170860588Y-80165057D02*
X170908207Y-80260295D01*
X170908207Y-80260295D02*
X170908207Y-80307914D01*
X170908207Y-80307914D02*
X170860588Y-80403152D01*
X170860588Y-80403152D02*
X170812969Y-80450771D01*
X170812969Y-80450771D02*
X170717731Y-80498390D01*
X170717731Y-80498390D02*
X170527255Y-80498390D01*
X170527255Y-80498390D02*
X170432017Y-80546009D01*
X170432017Y-80546009D02*
X170384398Y-80593628D01*
X170384398Y-80593628D02*
X170336779Y-80688866D01*
X170336779Y-80688866D02*
X170336779Y-80879342D01*
X170336779Y-80879342D02*
X170384398Y-80974580D01*
X170384398Y-80974580D02*
X170432017Y-81022200D01*
X170432017Y-81022200D02*
X170527255Y-81069819D01*
X170527255Y-81069819D02*
X170717731Y-81069819D01*
X170717731Y-81069819D02*
X170812969Y-81022200D01*
X170812969Y-81022200D02*
X170860588Y-80974580D01*
X170860588Y-80974580D02*
X170908207Y-80879342D01*
X170908207Y-80879342D02*
X170908207Y-80688866D01*
X170908207Y-80688866D02*
X170860588Y-80593628D01*
X170860588Y-80593628D02*
X170812969Y-80546009D01*
X170812969Y-80546009D02*
X170717731Y-80498390D01*
X171812969Y-80069819D02*
X171336779Y-80069819D01*
X171336779Y-80069819D02*
X171289160Y-80546009D01*
X171289160Y-80546009D02*
X171336779Y-80498390D01*
X171336779Y-80498390D02*
X171432017Y-80450771D01*
X171432017Y-80450771D02*
X171670112Y-80450771D01*
X171670112Y-80450771D02*
X171765350Y-80498390D01*
X171765350Y-80498390D02*
X171812969Y-80546009D01*
X171812969Y-80546009D02*
X171860588Y-80641247D01*
X171860588Y-80641247D02*
X171860588Y-80879342D01*
X171860588Y-80879342D02*
X171812969Y-80974580D01*
X171812969Y-80974580D02*
X171765350Y-81022200D01*
X171765350Y-81022200D02*
X171670112Y-81069819D01*
X171670112Y-81069819D02*
X171432017Y-81069819D01*
X171432017Y-81069819D02*
X171336779Y-81022200D01*
X171336779Y-81022200D02*
X171289160Y-80974580D01*
D11*
X172233014Y-85332425D02*
X172471109Y-85332425D01*
X171971109Y-85499091D02*
X172233014Y-85332425D01*
X172233014Y-85332425D02*
X171971109Y-85165758D01*
D10*
X159966666Y-116454819D02*
X159966666Y-117169104D01*
X159966666Y-117169104D02*
X159919047Y-117311961D01*
X159919047Y-117311961D02*
X159823809Y-117407200D01*
X159823809Y-117407200D02*
X159680952Y-117454819D01*
X159680952Y-117454819D02*
X159585714Y-117454819D01*
X160871428Y-116454819D02*
X160680952Y-116454819D01*
X160680952Y-116454819D02*
X160585714Y-116502438D01*
X160585714Y-116502438D02*
X160538095Y-116550057D01*
X160538095Y-116550057D02*
X160442857Y-116692914D01*
X160442857Y-116692914D02*
X160395238Y-116883390D01*
X160395238Y-116883390D02*
X160395238Y-117264342D01*
X160395238Y-117264342D02*
X160442857Y-117359580D01*
X160442857Y-117359580D02*
X160490476Y-117407200D01*
X160490476Y-117407200D02*
X160585714Y-117454819D01*
X160585714Y-117454819D02*
X160776190Y-117454819D01*
X160776190Y-117454819D02*
X160871428Y-117407200D01*
X160871428Y-117407200D02*
X160919047Y-117359580D01*
X160919047Y-117359580D02*
X160966666Y-117264342D01*
X160966666Y-117264342D02*
X160966666Y-117026247D01*
X160966666Y-117026247D02*
X160919047Y-116931009D01*
X160919047Y-116931009D02*
X160871428Y-116883390D01*
X160871428Y-116883390D02*
X160776190Y-116835771D01*
X160776190Y-116835771D02*
X160585714Y-116835771D01*
X160585714Y-116835771D02*
X160490476Y-116883390D01*
X160490476Y-116883390D02*
X160442857Y-116931009D01*
X160442857Y-116931009D02*
X160395238Y-117026247D01*
D11*
X156300000Y-157287500D02*
X195025000Y-157287500D01*
X195025000Y-132887500D01*
X156300000Y-132887500D01*
X156300000Y-157287500D01*
D12*
X180070000Y-126270000D02*
X181400000Y-126270000D01*
X180070000Y-127600000D02*
X180070000Y-126270000D01*
X182670000Y-126270000D02*
X185270000Y-126270000D01*
X182670000Y-128930000D02*
X182670000Y-126270000D01*
X182670000Y-128930000D02*
X185270000Y-128930000D01*
X185270000Y-128930000D02*
X185270000Y-126270000D01*
X159070000Y-120580000D02*
X159070000Y-117980000D01*
X159070000Y-123180000D02*
X159070000Y-121850000D01*
X160400000Y-123180000D02*
X159070000Y-123180000D01*
X161730000Y-117980000D02*
X159070000Y-117980000D01*
X161730000Y-120580000D02*
X159070000Y-120580000D01*
X161730000Y-120580000D02*
X161730000Y-117980000D01*
X159095000Y-97110000D02*
X159095000Y-104790000D01*
X159095000Y-97110000D02*
X161755000Y-97110000D01*
X159095000Y-104790000D02*
X161755000Y-104790000D01*
X160425000Y-94510000D02*
X161755000Y-94510000D01*
X161755000Y-94510000D02*
X161755000Y-95840000D01*
X161755000Y-97110000D02*
X161755000Y-104790000D01*
X155030000Y-126270000D02*
X155030000Y-128930000D01*
X157630000Y-126270000D02*
X155030000Y-126270000D01*
X157630000Y-126270000D02*
X157630000Y-128930000D01*
X157630000Y-128930000D02*
X155030000Y-128930000D01*
X160230000Y-127600000D02*
X160230000Y-128930000D01*
X160230000Y-128930000D02*
X158900000Y-128930000D01*
X160280000Y-41520000D02*
X165520000Y-41520000D01*
X160280000Y-52760000D02*
X160280000Y-41520000D01*
X160280000Y-52760000D02*
X165520000Y-52760000D01*
X165520000Y-52760000D02*
X165520000Y-41520000D01*
X167990302Y-62075000D02*
X168790302Y-62075000D01*
X168390302Y-61675000D02*
X168390302Y-62475000D01*
X172400000Y-60310000D02*
X172400000Y-68470000D01*
X172440000Y-60310000D02*
X172440000Y-68470000D01*
X172480000Y-60310000D02*
X172480000Y-68470000D01*
X172520000Y-60311000D02*
X172520000Y-68469000D01*
X172560000Y-60313000D02*
X172560000Y-68467000D01*
X172600000Y-60314000D02*
X172600000Y-68466000D01*
X172640000Y-60316000D02*
X172640000Y-63350000D01*
X172640000Y-65430000D02*
X172640000Y-68464000D01*
X172680000Y-60319000D02*
X172680000Y-63350000D01*
X172680000Y-65430000D02*
X172680000Y-68461000D01*
X172720000Y-60322000D02*
X172720000Y-63350000D01*
X172720000Y-65430000D02*
X172720000Y-68458000D01*
X172760000Y-60325000D02*
X172760000Y-63350000D01*
X172760000Y-65430000D02*
X172760000Y-68455000D01*
X172800000Y-60329000D02*
X172800000Y-63350000D01*
X172800000Y-65430000D02*
X172800000Y-68451000D01*
X172840000Y-60333000D02*
X172840000Y-63350000D01*
X172840000Y-65430000D02*
X172840000Y-68447000D01*
X172880000Y-60338000D02*
X172880000Y-63350000D01*
X172880000Y-65430000D02*
X172880000Y-68442000D01*
X172920000Y-60342000D02*
X172920000Y-63350000D01*
X172920000Y-65430000D02*
X172920000Y-68438000D01*
X172960000Y-60348000D02*
X172960000Y-63350000D01*
X172960000Y-65430000D02*
X172960000Y-68432000D01*
X173000000Y-60353000D02*
X173000000Y-63350000D01*
X173000000Y-65430000D02*
X173000000Y-68427000D01*
X173040000Y-60360000D02*
X173040000Y-63350000D01*
X173040000Y-65430000D02*
X173040000Y-68420000D01*
X173080000Y-60366000D02*
X173080000Y-63350000D01*
X173080000Y-65430000D02*
X173080000Y-68414000D01*
X173121000Y-60373000D02*
X173121000Y-63350000D01*
X173121000Y-65430000D02*
X173121000Y-68407000D01*
X173161000Y-60380000D02*
X173161000Y-63350000D01*
X173161000Y-65430000D02*
X173161000Y-68400000D01*
X173201000Y-60388000D02*
X173201000Y-63350000D01*
X173201000Y-65430000D02*
X173201000Y-68392000D01*
X173241000Y-60396000D02*
X173241000Y-63350000D01*
X173241000Y-65430000D02*
X173241000Y-68384000D01*
X173281000Y-60405000D02*
X173281000Y-63350000D01*
X173281000Y-65430000D02*
X173281000Y-68375000D01*
X173321000Y-60414000D02*
X173321000Y-63350000D01*
X173321000Y-65430000D02*
X173321000Y-68366000D01*
X173361000Y-60423000D02*
X173361000Y-63350000D01*
X173361000Y-65430000D02*
X173361000Y-68357000D01*
X173401000Y-60433000D02*
X173401000Y-63350000D01*
X173401000Y-65430000D02*
X173401000Y-68347000D01*
X173441000Y-60443000D02*
X173441000Y-63350000D01*
X173441000Y-65430000D02*
X173441000Y-68337000D01*
X173481000Y-60454000D02*
X173481000Y-63350000D01*
X173481000Y-65430000D02*
X173481000Y-68326000D01*
X173521000Y-60465000D02*
X173521000Y-63350000D01*
X173521000Y-65430000D02*
X173521000Y-68315000D01*
X173561000Y-60476000D02*
X173561000Y-63350000D01*
X173561000Y-65430000D02*
X173561000Y-68304000D01*
X173601000Y-60488000D02*
X173601000Y-63350000D01*
X173601000Y-65430000D02*
X173601000Y-68292000D01*
X173641000Y-60501000D02*
X173641000Y-63350000D01*
X173641000Y-65430000D02*
X173641000Y-68279000D01*
X173681000Y-60513000D02*
X173681000Y-63350000D01*
X173681000Y-65430000D02*
X173681000Y-68267000D01*
X173721000Y-60527000D02*
X173721000Y-63350000D01*
X173721000Y-65430000D02*
X173721000Y-68253000D01*
X173761000Y-60540000D02*
X173761000Y-63350000D01*
X173761000Y-65430000D02*
X173761000Y-68240000D01*
X173801000Y-60555000D02*
X173801000Y-63350000D01*
X173801000Y-65430000D02*
X173801000Y-68225000D01*
X173841000Y-60569000D02*
X173841000Y-63350000D01*
X173841000Y-65430000D02*
X173841000Y-68211000D01*
X173881000Y-60585000D02*
X173881000Y-63350000D01*
X173881000Y-65430000D02*
X173881000Y-68195000D01*
X173921000Y-60600000D02*
X173921000Y-63350000D01*
X173921000Y-65430000D02*
X173921000Y-68180000D01*
X173961000Y-60616000D02*
X173961000Y-63350000D01*
X173961000Y-65430000D02*
X173961000Y-68164000D01*
X174001000Y-60633000D02*
X174001000Y-63350000D01*
X174001000Y-65430000D02*
X174001000Y-68147000D01*
X174041000Y-60650000D02*
X174041000Y-63350000D01*
X174041000Y-65430000D02*
X174041000Y-68130000D01*
X174081000Y-60668000D02*
X174081000Y-63350000D01*
X174081000Y-65430000D02*
X174081000Y-68112000D01*
X174121000Y-60686000D02*
X174121000Y-63350000D01*
X174121000Y-65430000D02*
X174121000Y-68094000D01*
X174161000Y-60704000D02*
X174161000Y-63350000D01*
X174161000Y-65430000D02*
X174161000Y-68076000D01*
X174201000Y-60724000D02*
X174201000Y-63350000D01*
X174201000Y-65430000D02*
X174201000Y-68056000D01*
X174241000Y-60743000D02*
X174241000Y-63350000D01*
X174241000Y-65430000D02*
X174241000Y-68037000D01*
X174281000Y-60763000D02*
X174281000Y-63350000D01*
X174281000Y-65430000D02*
X174281000Y-68017000D01*
X174321000Y-60784000D02*
X174321000Y-63350000D01*
X174321000Y-65430000D02*
X174321000Y-67996000D01*
X174361000Y-60806000D02*
X174361000Y-63350000D01*
X174361000Y-65430000D02*
X174361000Y-67974000D01*
X174401000Y-60828000D02*
X174401000Y-63350000D01*
X174401000Y-65430000D02*
X174401000Y-67952000D01*
X174441000Y-60850000D02*
X174441000Y-63350000D01*
X174441000Y-65430000D02*
X174441000Y-67930000D01*
X174481000Y-60873000D02*
X174481000Y-63350000D01*
X174481000Y-65430000D02*
X174481000Y-67907000D01*
X174521000Y-60897000D02*
X174521000Y-63350000D01*
X174521000Y-65430000D02*
X174521000Y-67883000D01*
X174561000Y-60921000D02*
X174561000Y-63350000D01*
X174561000Y-65430000D02*
X174561000Y-67859000D01*
X174601000Y-60946000D02*
X174601000Y-63350000D01*
X174601000Y-65430000D02*
X174601000Y-67834000D01*
X174641000Y-60972000D02*
X174641000Y-63350000D01*
X174641000Y-65430000D02*
X174641000Y-67808000D01*
X174681000Y-60998000D02*
X174681000Y-63350000D01*
X174681000Y-65430000D02*
X174681000Y-67782000D01*
X174721000Y-61025000D02*
X174721000Y-67755000D01*
X174761000Y-61052000D02*
X174761000Y-67728000D01*
X174801000Y-61081000D02*
X174801000Y-67699000D01*
X174841000Y-61110000D02*
X174841000Y-67670000D01*
X174881000Y-61140000D02*
X174881000Y-67640000D01*
X174921000Y-61170000D02*
X174921000Y-67610000D01*
X174961000Y-61201000D02*
X174961000Y-67579000D01*
X175001000Y-61234000D02*
X175001000Y-67546000D01*
X175041000Y-61266000D02*
X175041000Y-67514000D01*
X175081000Y-61300000D02*
X175081000Y-67480000D01*
X175121000Y-61335000D02*
X175121000Y-67445000D01*
X175161000Y-61371000D02*
X175161000Y-67409000D01*
X175201000Y-61407000D02*
X175201000Y-67373000D01*
X175241000Y-61445000D02*
X175241000Y-67335000D01*
X175281000Y-61483000D02*
X175281000Y-67297000D01*
X175321000Y-61523000D02*
X175321000Y-67257000D01*
X175361000Y-61564000D02*
X175361000Y-67216000D01*
X175401000Y-61606000D02*
X175401000Y-67174000D01*
X175441000Y-61649000D02*
X175441000Y-67131000D01*
X175481000Y-61693000D02*
X175481000Y-67087000D01*
X175521000Y-61739000D02*
X175521000Y-67041000D01*
X175561000Y-61786000D02*
X175561000Y-66994000D01*
X175601000Y-61834000D02*
X175601000Y-66946000D01*
X175641000Y-61885000D02*
X175641000Y-66895000D01*
X175681000Y-61936000D02*
X175681000Y-66844000D01*
X175721000Y-61990000D02*
X175721000Y-66790000D01*
X175761000Y-62045000D02*
X175761000Y-66735000D01*
X175801000Y-62103000D02*
X175801000Y-66677000D01*
X175841000Y-62162000D02*
X175841000Y-66618000D01*
X175881000Y-62224000D02*
X175881000Y-66556000D01*
X175921000Y-62288000D02*
X175921000Y-66492000D01*
X175961000Y-62356000D02*
X175961000Y-66424000D01*
X176001000Y-62426000D02*
X176001000Y-66354000D01*
X176041000Y-62500000D02*
X176041000Y-66280000D01*
X176081000Y-62577000D02*
X176081000Y-66203000D01*
X176121000Y-62659000D02*
X176121000Y-66121000D01*
X176161000Y-62745000D02*
X176161000Y-66035000D01*
X176201000Y-62838000D02*
X176201000Y-65942000D01*
X176241000Y-62937000D02*
X176241000Y-65843000D01*
X176281000Y-63044000D02*
X176281000Y-65736000D01*
X176321000Y-63161000D02*
X176321000Y-65619000D01*
X176361000Y-63292000D02*
X176361000Y-65488000D01*
X176401000Y-63442000D02*
X176401000Y-65338000D01*
X176441000Y-63622000D02*
X176441000Y-65158000D01*
X176481000Y-63857000D02*
X176481000Y-64923000D01*
X176520000Y-64390000D02*
G75*
G02*
X168280000Y-64390000I-4120000J0D01*
G01*
X168280000Y-64390000D02*
G75*
G02*
X176520000Y-64390000I4120000J0D01*
G01*
D11*
X89387500Y-142875000D02*
X89387500Y-140500000D01*
X86887500Y-138500000D02*
X110387500Y-138500000D01*
X110387500Y-158750000D01*
X86887500Y-158750000D01*
X86887500Y-138500000D01*
X88387501Y-141125000D02*
G75*
G02*
X88387501Y-139875000I999999J625000D01*
G01*
X90387499Y-139875000D02*
G75*
G02*
X90387499Y-141125000I-999999J-625000D01*
G01*
D13*
X89600000Y-140500000D02*
G75*
G02*
X89175000Y-140500000I-212500J0D01*
G01*
X89175000Y-140500000D02*
G75*
G02*
X89600000Y-140500000I212500J0D01*
G01*
D11*
X136612500Y-139750000D02*
X150612500Y-139750000D01*
X150612500Y-158750000D01*
X136612500Y-158750000D01*
X136612500Y-139750000D01*
D14*
X137887500Y-157750000D02*
G75*
G02*
X137337500Y-157750000I-275000J0D01*
G01*
X137337500Y-157750000D02*
G75*
G02*
X137887500Y-157750000I275000J0D01*
G01*
D12*
X174320000Y-53370000D02*
X174320000Y-58510000D01*
X174320000Y-53370000D02*
X176980000Y-53370000D01*
X174320000Y-58510000D02*
X176980000Y-58510000D01*
X175650000Y-50770000D02*
X176980000Y-50770000D01*
X176980000Y-50770000D02*
X176980000Y-52100000D01*
X176980000Y-53370000D02*
X176980000Y-58510000D01*
X168570000Y-53370000D02*
X168570000Y-58510000D01*
X168570000Y-53370000D02*
X171230000Y-53370000D01*
X168570000Y-58510000D02*
X171230000Y-58510000D01*
X169900000Y-50770000D02*
X171230000Y-50770000D01*
X171230000Y-50770000D02*
X171230000Y-52100000D01*
X171230000Y-53370000D02*
X171230000Y-58510000D01*
X168570000Y-44580000D02*
X168570000Y-49720000D01*
X168570000Y-44580000D02*
X171230000Y-44580000D01*
X168570000Y-49720000D02*
X171230000Y-49720000D01*
X169900000Y-41980000D02*
X171230000Y-41980000D01*
X171230000Y-41980000D02*
X171230000Y-43310000D01*
X171230000Y-44580000D02*
X171230000Y-49720000D01*
X180070000Y-52495000D02*
X181400000Y-52495000D01*
X180070000Y-53825000D02*
X180070000Y-52495000D01*
X182670000Y-52495000D02*
X185270000Y-52495000D01*
X182670000Y-55155000D02*
X182670000Y-52495000D01*
X182670000Y-55155000D02*
X185270000Y-55155000D01*
X185270000Y-55155000D02*
X185270000Y-52495000D01*
D11*
X164900000Y-92850000D02*
X175900000Y-92850000D01*
X175900000Y-128600000D01*
X164900000Y-128600000D01*
X164900000Y-92850000D01*
D14*
X166425000Y-127350000D02*
G75*
G02*
X165875000Y-127350000I-275000J0D01*
G01*
X165875000Y-127350000D02*
G75*
G02*
X166425000Y-127350000I275000J0D01*
G01*
D12*
X154820000Y-59650000D02*
X154820000Y-41810000D01*
X154820000Y-62250000D02*
X154820000Y-60920000D01*
X156150000Y-62250000D02*
X154820000Y-62250000D01*
X157480000Y-41810000D02*
X154820000Y-41810000D01*
X157480000Y-59650000D02*
X154820000Y-59650000D01*
X157480000Y-59650000D02*
X157480000Y-41810000D01*
X160280000Y-53270000D02*
X165520000Y-53270000D01*
X160280000Y-64510000D02*
X160280000Y-53270000D01*
X160280000Y-64510000D02*
X165520000Y-64510000D01*
X165520000Y-64510000D02*
X165520000Y-53270000D01*
D11*
X116250000Y-139750000D02*
X130250000Y-139750000D01*
X130250000Y-158750000D01*
X116250000Y-158750000D01*
X116250000Y-139750000D01*
D14*
X117525000Y-157750000D02*
G75*
G02*
X116975000Y-157750000I-275000J0D01*
G01*
X116975000Y-157750000D02*
G75*
G02*
X117525000Y-157750000I275000J0D01*
G01*
D12*
X154820000Y-69750000D02*
X156150000Y-69750000D01*
X154820000Y-71080000D02*
X154820000Y-69750000D01*
X154820000Y-72350000D02*
X154820000Y-123210000D01*
X154820000Y-72350000D02*
X157480000Y-72350000D01*
X154820000Y-123210000D02*
X157480000Y-123210000D01*
X157480000Y-72350000D02*
X157480000Y-123210000D01*
X174320000Y-44580000D02*
X174320000Y-49720000D01*
X174320000Y-44580000D02*
X176980000Y-44580000D01*
X174320000Y-49720000D02*
X176980000Y-49720000D01*
X175650000Y-41980000D02*
X176980000Y-41980000D01*
X176980000Y-41980000D02*
X176980000Y-43310000D01*
X176980000Y-44580000D02*
X176980000Y-49720000D01*
D11*
X172787500Y-85362500D02*
X172537500Y-85612500D01*
X172787500Y-85362500D02*
X173037500Y-85612500D01*
X172787500Y-87112500D02*
X172787500Y-85362500D01*
X172787500Y-87112500D02*
X174537500Y-87112500D01*
X174287500Y-86862500D02*
X174537500Y-87112500D01*
X174287500Y-87362500D02*
X174537500Y-87112500D01*
X174537500Y-87112500D02*
X174287500Y-87362500D01*
X160662500Y-88362500D02*
X176412500Y-88362500D01*
X176412500Y-71862500D01*
X160662500Y-71862500D01*
X160662500Y-88362500D01*
D15*
X172937500Y-87112500D02*
G75*
G02*
X172637500Y-87112500I-150000J0D01*
G01*
X172637500Y-87112500D02*
G75*
G02*
X172937500Y-87112500I150000J0D01*
G01*
D14*
X175687500Y-87112500D02*
G75*
G02*
X175137500Y-87112500I-275000J0D01*
G01*
X175137500Y-87112500D02*
G75*
G02*
X175687500Y-87112500I275000J0D01*
G01*
D12*
X159095000Y-108650000D02*
X159095000Y-116330000D01*
X159095000Y-108650000D02*
X161755000Y-108650000D01*
X159095000Y-116330000D02*
X161755000Y-116330000D01*
X160425000Y-106050000D02*
X161755000Y-106050000D01*
X161755000Y-106050000D02*
X161755000Y-107380000D01*
X161755000Y-108650000D02*
X161755000Y-116330000D01*
%LPC*%
D16*
X193250000Y-158087500D03*
X190750000Y-158087500D03*
X188250000Y-158087500D03*
X185750000Y-158087500D03*
X183250000Y-158087500D03*
X180750000Y-158087500D03*
X178250000Y-158087500D03*
X175750000Y-158087500D03*
X173250000Y-158087500D03*
X170750000Y-158087500D03*
X168250000Y-158087500D03*
X165750000Y-158087500D03*
X163250000Y-158087500D03*
X160750000Y-158087500D03*
X158250000Y-158087500D03*
X158250000Y-132087500D03*
X160750000Y-132087500D03*
X163250000Y-132087500D03*
X165750000Y-132087500D03*
X168250000Y-132087500D03*
X170750000Y-132087500D03*
X173250000Y-132087500D03*
X175750000Y-132087500D03*
X178250000Y-132087500D03*
X180750000Y-132087500D03*
X183250000Y-132087500D03*
X185750000Y-132087500D03*
X188250000Y-132087500D03*
X190750000Y-132087500D03*
X193250000Y-132087500D03*
D17*
X181400000Y-127600000D03*
D18*
X183940000Y-127600000D03*
D17*
X160400000Y-121850000D03*
D18*
X160400000Y-119310000D03*
D19*
X179650000Y-121350000D03*
X180352944Y-119652944D03*
X180352944Y-123047056D03*
X182050000Y-118950000D03*
D20*
X182050000Y-121350000D03*
D19*
X182050000Y-123750000D03*
X183747056Y-119652944D03*
X183747056Y-123047056D03*
X184450000Y-121350000D03*
D17*
X160425000Y-95840000D03*
D18*
X160425000Y-98380000D03*
X160425000Y-100920000D03*
X160425000Y-103460000D03*
D17*
X158900000Y-127600000D03*
D18*
X156360000Y-127600000D03*
D21*
X162900000Y-49640000D03*
X162900000Y-44640000D03*
D19*
X180130000Y-46520000D03*
X180832944Y-44822944D03*
X180832944Y-48217056D03*
X182530000Y-44120000D03*
D20*
X182530000Y-46520000D03*
D19*
X182530000Y-48920000D03*
X184227056Y-44822944D03*
X184227056Y-48217056D03*
X184930000Y-46520000D03*
D22*
X171150000Y-64390000D03*
D23*
X173650000Y-64390000D03*
D16*
X86137500Y-157500000D03*
X86137500Y-155000000D03*
X86137500Y-152500000D03*
X86137500Y-150000000D03*
X86137500Y-147500000D03*
X86137500Y-145000000D03*
X86137500Y-142500000D03*
X86137500Y-140000000D03*
X111137500Y-140000000D03*
X111137500Y-142500000D03*
X111137500Y-145000000D03*
X111137500Y-147500000D03*
X111137500Y-150000000D03*
X111137500Y-152500000D03*
X111137500Y-155000000D03*
X111137500Y-157500000D03*
X135862500Y-158000000D03*
X135862500Y-155500000D03*
X135862500Y-153000000D03*
X135862500Y-150500000D03*
X135862500Y-148000000D03*
X135862500Y-145500000D03*
X135862500Y-143000000D03*
X135862500Y-140500000D03*
X151362500Y-140500000D03*
X151362500Y-143000000D03*
X151362500Y-145500000D03*
X151362500Y-148000000D03*
X151362500Y-150500000D03*
X151362500Y-153000000D03*
X151362500Y-155500000D03*
X151362500Y-158000000D03*
D17*
X175650000Y-52100000D03*
D18*
X175650000Y-54640000D03*
X175650000Y-57180000D03*
D17*
X169900000Y-52100000D03*
D18*
X169900000Y-54640000D03*
X169900000Y-57180000D03*
D17*
X169900000Y-43310000D03*
D18*
X169900000Y-45850000D03*
X169900000Y-48390000D03*
D17*
X181400000Y-53825000D03*
D18*
X183940000Y-53825000D03*
D19*
X211050000Y-64000000D03*
X209352944Y-63297056D03*
X212747056Y-63297056D03*
X208650000Y-61600000D03*
D20*
X211050000Y-61600000D03*
D19*
X213450000Y-61600000D03*
X209352944Y-59902944D03*
X212747056Y-59902944D03*
X211050000Y-59200000D03*
D16*
X164150000Y-125850000D03*
X164150000Y-123350000D03*
X164150000Y-120850000D03*
X164150000Y-118350000D03*
X164150000Y-115850000D03*
X164150000Y-113350000D03*
X164150000Y-110850000D03*
X164150000Y-108350000D03*
X164150000Y-105850000D03*
X164150000Y-103350000D03*
X164150000Y-100850000D03*
X164150000Y-98350000D03*
X164150000Y-95850000D03*
X176650000Y-95850000D03*
X176650000Y-98350000D03*
X176650000Y-100850000D03*
X176650000Y-103350000D03*
X176650000Y-105850000D03*
X176650000Y-108350000D03*
X176650000Y-110850000D03*
X176650000Y-113350000D03*
X176650000Y-115850000D03*
X176650000Y-118350000D03*
X176650000Y-120850000D03*
X176650000Y-123350000D03*
X176650000Y-125850000D03*
D17*
X156150000Y-60920000D03*
D18*
X156150000Y-58380000D03*
X156150000Y-55840000D03*
X156150000Y-53300000D03*
X156150000Y-50760000D03*
X156150000Y-48220000D03*
X156150000Y-45680000D03*
X156150000Y-43140000D03*
D19*
X208652944Y-121252944D03*
X209355888Y-119555888D03*
X209355888Y-122950000D03*
X211052944Y-118852944D03*
D20*
X211052944Y-121252944D03*
D19*
X211052944Y-123652944D03*
X212750000Y-119555888D03*
X212750000Y-122950000D03*
X213452944Y-121252944D03*
D21*
X162900000Y-61390000D03*
X162900000Y-56390000D03*
D16*
X115500000Y-158000000D03*
X115500000Y-155500000D03*
X115500000Y-153000000D03*
X115500000Y-150500000D03*
X115500000Y-148000000D03*
X115500000Y-145500000D03*
X115500000Y-143000000D03*
X115500000Y-140500000D03*
X131000000Y-140500000D03*
X131000000Y-143000000D03*
X131000000Y-145500000D03*
X131000000Y-148000000D03*
X131000000Y-150500000D03*
X131000000Y-153000000D03*
X131000000Y-155500000D03*
X131000000Y-158000000D03*
D19*
X184450000Y-61755888D03*
X183747056Y-63452944D03*
X183747056Y-60058832D03*
X182050000Y-64155888D03*
D20*
X182050000Y-61755888D03*
D19*
X182050000Y-59355888D03*
X180352944Y-63452944D03*
X180352944Y-60058832D03*
X179650000Y-61755888D03*
D17*
X156150000Y-71080000D03*
D18*
X156150000Y-73620000D03*
X156150000Y-76160000D03*
X156150000Y-78700000D03*
X156150000Y-81240000D03*
X156150000Y-83780000D03*
X156150000Y-86320000D03*
X156150000Y-88860000D03*
X156150000Y-91400000D03*
X156150000Y-93940000D03*
X156150000Y-96480000D03*
X156150000Y-99020000D03*
X156150000Y-101560000D03*
X156150000Y-104100000D03*
X156150000Y-106640000D03*
X156150000Y-109180000D03*
X156150000Y-111720000D03*
X156150000Y-114260000D03*
X156150000Y-116800000D03*
X156150000Y-119340000D03*
X156150000Y-121880000D03*
D17*
X175650000Y-43310000D03*
D18*
X175650000Y-45850000D03*
X175650000Y-48390000D03*
D16*
X174912500Y-89112500D03*
X172412500Y-89112500D03*
X169912500Y-89112500D03*
X167412500Y-89112500D03*
X164912500Y-89112500D03*
X162412500Y-89112500D03*
X162412500Y-71112500D03*
X164912500Y-71112500D03*
X167412500Y-71112500D03*
X169912500Y-71112500D03*
X172412500Y-71112500D03*
X174912500Y-71112500D03*
D17*
X160425000Y-107380000D03*
D18*
X160425000Y-109920000D03*
X160425000Y-112460000D03*
X160425000Y-115000000D03*
%LPD*%
M02*
