G04*
G04 #@! TF.GenerationSoftware,Altium Limited,Altium Designer,24.7.2 (38)*
G04*
G04 Layer_Color=65535*
%FSLAX42Y42*%
%MOMM*%
G71*
G04*
G04 #@! TF.SameCoordinates,CE458257-ED55-464B-8F26-E5EFE0AAFCD9*
G04*
G04*
G04 #@! TF.FilePolarity,Positive*
G04*
G01*
G75*
%ADD10C,0.25*%
%ADD11C,0.50*%
%ADD12C,0.25*%
%ADD13C,0.20*%
D10*
X7360Y8823D02*
G03*
X7360Y8823I-10J0D01*
G01*
X7725Y8373D02*
Y8898D01*
X7275Y8373D02*
X7725D01*
X7275D02*
Y8848D01*
X7325Y8898D01*
X7725D01*
X10400Y3557D02*
Y5157D01*
X11700Y3982D02*
Y4632D01*
Y3701D02*
Y3788D01*
Y3982D01*
X10400Y5157D02*
X11700D01*
Y4632D02*
Y5157D01*
X10400Y3557D02*
X11650D01*
X11700Y3607D01*
Y3701D01*
X10600Y5420D02*
Y6720D01*
X10400D02*
X10600D01*
X10400Y5420D02*
Y6720D01*
Y5420D02*
X10600D01*
X6688Y7786D02*
Y8256D01*
X6892Y7786D02*
Y8256D01*
X6688D02*
X6892D01*
X6688Y7786D02*
X6892D01*
X7597Y6347D02*
X7797D01*
X7597D02*
Y7847D01*
X7797D01*
Y6347D02*
Y7847D01*
X7484Y4729D02*
X7784D01*
Y3679D02*
Y4729D01*
X7484Y3679D02*
X7784D01*
X7484D02*
Y4729D01*
X9900Y3314D02*
Y9464D01*
X8050D02*
X9900D01*
X8050Y3314D02*
Y9464D01*
Y3314D02*
X9900D01*
X9400D02*
Y3714D01*
X8550D02*
X9400D01*
X8550Y3314D02*
Y3714D01*
X10799Y5542D02*
X11099D01*
X10799D02*
Y9392D01*
X11099D01*
Y5542D02*
Y9392D01*
X12195Y4565D02*
X12093D01*
X12042Y4616D01*
X12093Y4667D01*
X12195D01*
X12118D01*
Y4565D01*
X12042Y4718D02*
X12169D01*
X12195Y4743D01*
Y4794D01*
X12169Y4819D01*
X12042D01*
Y4870D02*
Y4972D01*
Y4921D01*
X12195D01*
X12042Y5099D02*
Y5048D01*
X12068Y5022D01*
X12169D01*
X12195Y5048D01*
Y5099D01*
X12169Y5124D01*
X12068D01*
X12042Y5099D01*
X12195Y5175D02*
X12042D01*
X12195Y5276D01*
X12042D01*
Y5403D02*
Y5353D01*
X12068Y5327D01*
X12169D01*
X12195Y5353D01*
Y5403D01*
X12169Y5429D01*
X12068D01*
X12042Y5403D01*
X12195Y5480D02*
X12042D01*
X12093Y5530D01*
X12042Y5581D01*
X12195D01*
X12042Y5632D02*
Y5683D01*
Y5657D01*
X12195D01*
Y5632D01*
Y5683D01*
X12068Y5860D02*
X12042Y5835D01*
Y5784D01*
X12068Y5759D01*
X12169D01*
X12195Y5784D01*
Y5835D01*
X12169Y5860D01*
X12068Y6165D02*
X12042Y6140D01*
Y6089D01*
X12068Y6064D01*
X12169D01*
X12195Y6089D01*
Y6140D01*
X12169Y6165D01*
X12042Y6216D02*
X12195D01*
Y6317D01*
X12042Y6470D02*
Y6368D01*
X12195D01*
Y6470D01*
X12118Y6368D02*
Y6419D01*
X12195Y6521D02*
X12093D01*
X12042Y6571D01*
X12093Y6622D01*
X12195D01*
X12118D01*
Y6521D01*
X12195Y6673D02*
X12042D01*
X12195Y6774D01*
X12042D01*
Y6927D02*
Y6825D01*
X12195D01*
Y6927D01*
X12118Y6825D02*
Y6876D01*
X12195Y6978D02*
X12042D01*
Y7054D01*
X12068Y7079D01*
X12118D01*
X12144Y7054D01*
Y6978D01*
Y7028D02*
X12195Y7079D01*
X12042Y7282D02*
X12195D01*
Y7511D02*
X12042D01*
Y7587D01*
X12068Y7612D01*
X12118D01*
X12144Y7587D01*
Y7511D01*
Y7562D02*
X12195Y7612D01*
X12042Y7765D02*
Y7663D01*
X12195D01*
Y7765D01*
X12118Y7663D02*
Y7714D01*
X12042Y7816D02*
X12144D01*
X12195Y7866D01*
X12144Y7917D01*
X12042D01*
X12195Y7968D02*
X12169D01*
Y7993D01*
X12195D01*
Y7968D01*
X12068Y8095D02*
X12042Y8120D01*
Y8171D01*
X12068Y8196D01*
X12169D01*
X12195Y8171D01*
Y8120D01*
X12169Y8095D01*
X12068D01*
X10355Y3335D02*
Y3488D01*
X10432D01*
X10457Y3462D01*
Y3412D01*
X10432Y3386D01*
X10355D01*
X10406D02*
X10457Y3335D01*
X10533Y3437D02*
X10584D01*
X10609Y3412D01*
Y3335D01*
X10533D01*
X10508Y3361D01*
X10533Y3386D01*
X10609D01*
X10660Y3412D02*
X10762D01*
X10812Y3462D02*
X10838Y3488D01*
X10889D01*
X10914Y3462D01*
Y3361D01*
X10889Y3335D01*
X10838D01*
X10812Y3361D01*
Y3462D01*
X11066Y3335D02*
X10965D01*
X11066Y3437D01*
Y3462D01*
X11041Y3488D01*
X10990D01*
X10965Y3462D01*
X11270Y3488D02*
Y3335D01*
X11371D01*
X11447D02*
X11498D01*
X11523Y3361D01*
Y3412D01*
X11498Y3437D01*
X11447D01*
X11422Y3412D01*
Y3361D01*
X11447Y3335D01*
X11574D02*
Y3488D01*
X11650D01*
X11676Y3462D01*
Y3412D01*
X11650Y3386D01*
X11574D01*
X11625D02*
X11676Y3335D01*
X11752Y3437D02*
X11803D01*
X11828Y3412D01*
Y3335D01*
X11752D01*
X11727Y3361D01*
X11752Y3386D01*
X11828D01*
X10298Y6785D02*
X10145D01*
Y6683D01*
X10298Y6632D02*
Y6581D01*
Y6607D01*
X10145D01*
Y6632D01*
Y6581D01*
X10298Y6505D02*
X10145D01*
Y6429D01*
X10171Y6404D01*
X10272D01*
X10298Y6429D01*
Y6505D01*
X10145Y6353D02*
X10247D01*
X10298Y6302D01*
X10247Y6251D01*
X10145D01*
X10222D01*
Y6353D01*
X10145Y6201D02*
X10298D01*
Y6124D01*
X10272Y6099D01*
X10222D01*
X10196Y6124D01*
Y6201D01*
Y6150D02*
X10145Y6099D01*
X10272Y5794D02*
X10298Y5820D01*
Y5870D01*
X10272Y5896D01*
X10171D01*
X10145Y5870D01*
Y5820D01*
X10171Y5794D01*
X10298Y5667D02*
Y5718D01*
X10272Y5744D01*
X10171D01*
X10145Y5718D01*
Y5667D01*
X10171Y5642D01*
X10272D01*
X10298Y5667D01*
X10145Y5591D02*
X10298D01*
X10145Y5490D01*
X10298D01*
X10145Y5439D02*
X10298D01*
X10145Y5337D01*
X10298D01*
X6452Y7749D02*
X6605D01*
Y7826D01*
X6579Y7851D01*
X6554D01*
X6528Y7826D01*
Y7749D01*
Y7826D01*
X6503Y7851D01*
X6478D01*
X6452Y7826D01*
Y7749D01*
X6605Y7902D02*
X6503D01*
X6452Y7953D01*
X6503Y8003D01*
X6605D01*
X6528D01*
Y7902D01*
X6452Y8054D02*
Y8156D01*
Y8105D01*
X6605D01*
X6452Y8206D02*
Y8308D01*
Y8257D01*
X6605D01*
X8003Y7835D02*
Y7733D01*
Y7784D01*
X7851D01*
X7978Y7581D02*
X8003Y7606D01*
Y7657D01*
X7978Y7682D01*
X7876D01*
X7851Y7657D01*
Y7606D01*
X7876Y7581D01*
X7851Y7530D02*
X8003D01*
Y7454D01*
X7978Y7428D01*
X7927D01*
X7902Y7454D01*
Y7530D01*
Y7479D02*
X7851Y7428D01*
X8003Y7378D02*
Y7276D01*
Y7327D01*
X7851D01*
X7825Y7225D02*
Y7124D01*
X7978Y6971D02*
X8003Y6997D01*
Y7047D01*
X7978Y7073D01*
X7876D01*
X7851Y7047D01*
Y6997D01*
X7876Y6971D01*
X8003Y6844D02*
Y6895D01*
X7978Y6920D01*
X7876D01*
X7851Y6895D01*
Y6844D01*
X7876Y6819D01*
X7978D01*
X8003Y6844D01*
X7851Y6768D02*
X8003D01*
X7851Y6667D01*
X8003D01*
X7851Y6616D02*
X8003D01*
X7851Y6514D01*
X8003D01*
X7975Y3685D02*
X7822D01*
X7873Y3736D01*
X7822Y3787D01*
X7975D01*
X7848Y4092D02*
X7822Y4066D01*
Y4015D01*
X7848Y3990D01*
X7949D01*
X7975Y4015D01*
Y4066D01*
X7949Y4092D01*
X7822Y4219D02*
Y4168D01*
X7848Y4142D01*
X7949D01*
X7975Y4168D01*
Y4219D01*
X7949Y4244D01*
X7848D01*
X7822Y4219D01*
X7975Y4295D02*
X7822D01*
X7975Y4396D01*
X7822D01*
X7975Y4447D02*
X7822D01*
X7975Y4549D01*
X7822D01*
X8295Y3218D02*
X8397D01*
X8346D01*
Y3065D01*
X8549Y3218D02*
X8448D01*
Y3065D01*
X8549D01*
X8448Y3142D02*
X8499D01*
X8702Y3218D02*
X8600D01*
Y3065D01*
X8702D01*
X8600Y3142D02*
X8651D01*
X8752Y3065D02*
Y3218D01*
X8854Y3065D01*
Y3218D01*
X9006Y3192D02*
X8981Y3218D01*
X8930D01*
X8905Y3192D01*
Y3167D01*
X8930Y3142D01*
X8981D01*
X9006Y3116D01*
Y3091D01*
X8981Y3065D01*
X8930D01*
X8905Y3091D01*
X9057Y3218D02*
Y3192D01*
X9108Y3142D01*
X9159Y3192D01*
Y3218D01*
X9108Y3142D02*
Y3065D01*
X9362Y3192D02*
X9387Y3218D01*
X9438D01*
X9463Y3192D01*
Y3167D01*
X9438Y3142D01*
X9413D01*
X9438D01*
X9463Y3116D01*
Y3091D01*
X9438Y3065D01*
X9387D01*
X9362Y3091D01*
X9514Y3065D02*
Y3091D01*
X9540D01*
Y3065D01*
X9514D01*
X9743Y3218D02*
X9641D01*
Y3142D01*
X9692Y3167D01*
X9717D01*
X9743Y3142D01*
Y3091D01*
X9717Y3065D01*
X9667D01*
X9641Y3091D01*
X8585Y3938D02*
Y3785D01*
X8662D01*
X8687Y3811D01*
Y3836D01*
X8662Y3862D01*
X8585D01*
X8662D01*
X8687Y3887D01*
Y3912D01*
X8662Y3938D01*
X8585D01*
X8890Y3785D02*
Y3938D01*
X8941Y3887D01*
X8992Y3938D01*
Y3785D01*
X9042Y3938D02*
X9093D01*
X9068D01*
Y3785D01*
X9042D01*
X9093D01*
X9169D02*
Y3938D01*
X9271Y3785D01*
Y3938D01*
X9322D02*
X9373D01*
X9347D01*
Y3785D01*
X9322D01*
X9373D01*
X11312Y9273D02*
X11338Y9298D01*
Y9349D01*
X11312Y9375D01*
X11211D01*
X11185Y9349D01*
Y9298D01*
X11211Y9273D01*
X11338Y9146D02*
Y9197D01*
X11312Y9222D01*
X11211D01*
X11185Y9197D01*
Y9146D01*
X11211Y9121D01*
X11312D01*
X11338Y9146D01*
X11185Y9070D02*
X11338D01*
X11185Y8968D01*
X11338D01*
X11185Y8918D02*
X11338D01*
X11185Y8816D01*
X11338D01*
X11185Y8613D02*
Y8562D01*
Y8587D01*
X11338D01*
X11312Y8613D01*
X11338Y8384D02*
Y8486D01*
X11262D01*
X11287Y8435D01*
Y8410D01*
X11262Y8384D01*
X11211D01*
X11185Y8410D01*
Y8460D01*
X11211Y8486D01*
X11287Y8334D02*
X11185Y8232D01*
X11236Y8283D01*
X11287Y8232D01*
X11185Y8334D01*
Y8181D02*
Y8130D01*
Y8156D01*
X11338D01*
X11312Y8181D01*
X6452Y8537D02*
X6553Y8435D01*
X6452D02*
X6553Y8537D01*
X6452Y8486D02*
X6553D01*
X6502Y8435D02*
Y8537D01*
X6706Y8410D02*
X6604D01*
X6706Y8512D01*
Y8537D01*
X6680Y8562D01*
X6629D01*
X6604Y8537D01*
X10246Y7013D02*
X10221Y7038D01*
X10170D01*
X10145Y7013D01*
Y6911D01*
X10170Y6886D01*
X10221D01*
X10246Y6911D01*
X10399Y6886D02*
X10297D01*
X10399Y6988D01*
Y7013D01*
X10373Y7038D01*
X10323D01*
X10297Y7013D01*
X6864Y7637D02*
X7016D01*
Y7561D01*
X6991Y7535D01*
X6940D01*
X6915Y7561D01*
Y7637D01*
Y7586D02*
X6864Y7535D01*
X7016Y7383D02*
X6991Y7434D01*
X6940Y7485D01*
X6889D01*
X6864Y7459D01*
Y7408D01*
X6889Y7383D01*
X6915D01*
X6940Y7408D01*
Y7485D01*
X6854Y7047D02*
X7006D01*
Y6971D01*
X6981Y6945D01*
X6930D01*
X6905Y6971D01*
Y7047D01*
Y6996D02*
X6854Y6945D01*
X7006Y6793D02*
Y6895D01*
X6930D01*
X6955Y6844D01*
Y6818D01*
X6930Y6793D01*
X6879D01*
X6854Y6818D01*
Y6869D01*
X6879Y6895D01*
X7253Y8006D02*
Y7854D01*
X7329D01*
X7355Y7879D01*
Y7981D01*
X7329Y8006D01*
X7253D01*
X7507Y7854D02*
X7405D01*
X7507Y7955D01*
Y7981D01*
X7482Y8006D01*
X7431D01*
X7405Y7981D01*
X7308Y6556D02*
Y6404D01*
X7385D01*
X7410Y6429D01*
Y6531D01*
X7385Y6556D01*
X7308D01*
X7461Y6404D02*
X7512D01*
X7486D01*
Y6556D01*
X7461Y6531D01*
X6688Y6076D02*
Y5949D01*
X6714Y5924D01*
X6765D01*
X6790Y5949D01*
Y6076D01*
X6841Y5924D02*
X6892D01*
X6866D01*
Y6076D01*
X6841Y6051D01*
X7353Y5204D02*
Y5356D01*
X7429D01*
X7455Y5331D01*
Y5280D01*
X7429Y5255D01*
X7353D01*
X7404D02*
X7455Y5204D01*
X7607D02*
X7505D01*
X7607Y5305D01*
Y5331D01*
X7582Y5356D01*
X7531D01*
X7505Y5331D01*
X7398Y5944D02*
Y6096D01*
X7475D01*
X7500Y6071D01*
Y6020D01*
X7475Y5995D01*
X7398D01*
X7449D02*
X7500Y5944D01*
X7551D02*
X7602D01*
X7576D01*
Y6096D01*
X7551Y6071D01*
X11483Y5396D02*
Y5269D01*
X11508Y5244D01*
X11559D01*
X11585Y5269D01*
Y5396D01*
X11712Y5244D02*
Y5396D01*
X11635Y5320D01*
X11737D01*
X6786Y4537D02*
Y4410D01*
X6811Y4385D01*
X6862D01*
X6887Y4410D01*
Y4537D01*
X7040D02*
X6938D01*
Y4461D01*
X6989Y4486D01*
X7014D01*
X7040Y4461D01*
Y4410D01*
X7014Y4385D01*
X6963D01*
X6938Y4410D01*
X7353Y9136D02*
Y9009D01*
X7378Y8984D01*
X7429D01*
X7455Y9009D01*
Y9136D01*
X7505Y9111D02*
X7531Y9136D01*
X7582D01*
X7607Y9111D01*
Y9085D01*
X7582Y9060D01*
X7556D01*
X7582D01*
X7607Y9035D01*
Y9009D01*
X7582Y8984D01*
X7531D01*
X7505Y9009D01*
X8062Y9705D02*
Y9578D01*
X8087Y9553D01*
X8138D01*
X8164Y9578D01*
Y9705D01*
X8316Y9553D02*
X8214D01*
X8316Y9655D01*
Y9680D01*
X8290Y9705D01*
X8240D01*
X8214Y9680D01*
X7422Y9515D02*
Y9667D01*
X7498D01*
X7523Y9642D01*
Y9591D01*
X7498Y9566D01*
X7422D01*
X7473D02*
X7523Y9515D01*
X7650D02*
Y9667D01*
X7574Y9591D01*
X7676D01*
X7603Y7874D02*
Y8026D01*
X7679D01*
X7705Y8001D01*
Y7950D01*
X7679Y7925D01*
X7603D01*
X7654D02*
X7705Y7874D01*
X7755Y8001D02*
X7781Y8026D01*
X7832D01*
X7857Y8001D01*
Y7975D01*
X7832Y7950D01*
X7806D01*
X7832D01*
X7857Y7925D01*
Y7899D01*
X7832Y7874D01*
X7781D01*
X7755Y7899D01*
X7690Y6271D02*
X7665Y6296D01*
X7614D01*
X7588Y6271D01*
Y6169D01*
X7614Y6144D01*
X7665D01*
X7690Y6169D01*
X7741Y6144D02*
X7792D01*
X7766D01*
Y6296D01*
X7741Y6271D01*
X10810Y9606D02*
X10912Y9505D01*
X10810D02*
X10912Y9606D01*
X10810Y9555D02*
X10912D01*
X10861Y9505D02*
Y9606D01*
X10963Y9479D02*
X11013D01*
X10988D01*
Y9632D01*
X10963Y9606D01*
X7605Y4921D02*
X7579Y4946D01*
X7528D01*
X7503Y4921D01*
Y4819D01*
X7528Y4794D01*
X7579D01*
X7605Y4819D01*
X7732Y4794D02*
Y4946D01*
X7655Y4870D01*
X7757D01*
D11*
X11570Y3707D02*
G03*
X11570Y3707I-20J0D01*
G01*
X10020Y3214D02*
G03*
X10020Y3214I-20J0D01*
G01*
D12*
X7091Y5800D02*
G03*
X7091Y5800I-12J0D01*
G01*
X7388Y3742D02*
G03*
X7388Y3742I-12J0D01*
G01*
D13*
X6579Y5310D02*
Y5840D01*
X7029Y5310D02*
Y5840D01*
X7495Y6820D02*
Y6940D01*
X7325Y6820D02*
Y6940D01*
X7332Y6912D02*
X7488D01*
X7332Y7528D02*
X7488D01*
X7495Y7500D02*
Y7620D01*
X7325Y7500D02*
Y7620D01*
X7088Y7460D02*
Y7560D01*
X7232Y7460D02*
Y7560D01*
X7222Y6878D02*
Y6978D01*
X7078Y6878D02*
Y6978D01*
X7460Y5572D02*
X7560D01*
X7460Y5428D02*
X7560D01*
X7459Y5883D02*
X7559D01*
X7459Y5738D02*
X7559D01*
X6690Y4315D02*
X7190D01*
X6690Y3625D02*
X7190D01*
X7584Y8068D02*
X7684D01*
X7584Y8213D02*
X7684D01*
X7575Y9253D02*
X7675D01*
X7575Y9397D02*
X7675D01*
M02*
