M48
;Layer_Color=9474304
;FILE_FORMAT=4:2
METRIC,LZ
;TYPE=PLATED
T01F00S00C0.50
T02F00S00C0.71
T03F00S00C0.76
T04F00S00C2.90
%
T01
X01063Y00386
X01036Y005222
X009421Y0052
X0095Y00489
X011226Y00668
X011238Y006958
X00679Y0079
X00712Y00552
X00654Y005074
X00679Y008154
X007961Y0083
X00945Y00894
T02
X00631Y00373
T03
X007634Y003829
X008226Y003726
Y003472
X00975
Y003726
Y00398
Y004234
Y004488
Y004742
Y004996
Y00525
Y005504
Y005758
Y006012
Y006266
Y00652
Y006774
Y007028
Y007282
Y007536
Y00779
X010949Y007718
Y007464
Y00721
Y006956
Y006702
Y006448
Y006194
Y00594
Y005686
X0105Y00557
Y00582
Y00607
Y00632
Y00657
X008226Y00652
Y006266
Y006012
Y005758
Y005504
Y00525
Y004996
Y004742
Y004488
Y004234
Y00398
Y006774
Y007028
Y007282
Y007536
Y00779
X007697Y007747
Y007493
Y007239
Y006985
Y006731
Y006477
X007634Y004591
Y004337
Y004083
X008226Y008044
Y008298
Y008552
Y008806
Y00906
Y009314
X00975
Y00906
Y008806
Y008552
Y008298
Y008044
X010949Y007972
Y008226
Y00848
Y008734
Y008988
Y009242
T04
X00656Y00313
X01205Y0031
X0066Y009475
X01207Y0095
M30
