G04*
G04 #@! TF.GenerationSoftware,Altium Limited,Altium Designer,24.7.2 (38)*
G04*
G04 Layer_Color=16711935*
%FSLAX42Y42*%
%MOMM*%
G71*
G04*
G04 #@! TF.SameCoordinates,CE458257-ED55-464B-8F26-E5EFE0AAFCD9*
G04*
G04*
G04 #@! TF.FilePolarity,Negative*
G04*
G01*
G75*
%ADD10C,0.25*%
%ADD33C,1.73*%
%ADD34C,1.20*%
%ADD35R,1.73X1.73*%
%ADD36C,6.00*%
%ADD37C,1.47*%
D10*
X6363Y9868D02*
G03*
X6210Y9715I0J-153D01*
G01*
X12433Y9652D02*
G03*
X12217Y9868I-216J0D01*
G01*
X12243Y2743D02*
G03*
X12433Y2934I0J190D01*
G01*
X6178Y2973D02*
G03*
X6403Y2743I227J-2D01*
G01*
X6363Y9868D02*
X12217D01*
X12306Y7896D02*
X12433Y8023D01*
X12433Y9652D02*
X12433Y8023D01*
X6202Y8023D02*
X6210Y9715D01*
X12306Y4715D02*
Y7896D01*
X12433Y2934D02*
Y4588D01*
X12306Y4715D02*
X12433Y4588D01*
X6186Y4561D02*
X6327Y4701D01*
X6304Y7920D02*
X6343Y7881D01*
X6202Y8023D02*
X6236Y7989D01*
X6304Y7920D01*
X6327Y4701D02*
X6343Y7881D01*
X6403Y2743D02*
X12243Y2743D01*
X6178Y2973D02*
X6186Y4561D01*
D33*
X10500Y6320D02*
D03*
Y6070D02*
D03*
Y5820D02*
D03*
Y5570D02*
D03*
Y6570D02*
D03*
X8226Y5250D02*
D03*
X7697Y7747D02*
D03*
Y7493D02*
D03*
Y7239D02*
D03*
Y6985D02*
D03*
Y6731D02*
D03*
Y6477D02*
D03*
X7634Y3829D02*
D03*
Y4083D02*
D03*
Y4337D02*
D03*
Y4591D02*
D03*
X8226Y3472D02*
D03*
Y3980D02*
D03*
Y4234D02*
D03*
Y4488D02*
D03*
Y4742D02*
D03*
Y4996D02*
D03*
Y5504D02*
D03*
Y5758D02*
D03*
Y6012D02*
D03*
Y6266D02*
D03*
Y6520D02*
D03*
Y6774D02*
D03*
Y7282D02*
D03*
Y7536D02*
D03*
Y7790D02*
D03*
Y8044D02*
D03*
Y8298D02*
D03*
Y8552D02*
D03*
Y8806D02*
D03*
Y9060D02*
D03*
Y9314D02*
D03*
X9750Y3726D02*
D03*
Y3980D02*
D03*
Y4234D02*
D03*
Y4488D02*
D03*
Y4742D02*
D03*
Y4996D02*
D03*
Y5250D02*
D03*
Y5504D02*
D03*
Y5758D02*
D03*
Y6012D02*
D03*
Y6266D02*
D03*
Y6520D02*
D03*
Y6774D02*
D03*
Y7028D02*
D03*
Y7282D02*
D03*
Y7536D02*
D03*
Y7790D02*
D03*
Y8044D02*
D03*
Y8298D02*
D03*
Y8552D02*
D03*
Y8806D02*
D03*
Y9060D02*
D03*
Y9314D02*
D03*
X10949Y5686D02*
D03*
Y5940D02*
D03*
Y6194D02*
D03*
Y6448D02*
D03*
Y6702D02*
D03*
Y6956D02*
D03*
Y7210D02*
D03*
Y7464D02*
D03*
Y7718D02*
D03*
Y7972D02*
D03*
Y8226D02*
D03*
Y8480D02*
D03*
Y8734D02*
D03*
Y8988D02*
D03*
Y9242D02*
D03*
D34*
X6790Y7900D02*
D03*
Y8154D02*
D03*
X10630Y3860D02*
D03*
X7961Y8300D02*
D03*
X9450Y8940D02*
D03*
X6540Y5074D02*
D03*
X7120Y5520D02*
D03*
X10360Y5222D02*
D03*
X11238Y6958D02*
D03*
X11226Y6680D02*
D03*
X9500Y4890D02*
D03*
X9421Y5200D02*
D03*
D35*
X8226Y7028D02*
D03*
X9750Y3472D02*
D03*
X8226Y3726D02*
D03*
D36*
X12050Y3100D02*
D03*
X12070Y9500D02*
D03*
X6560Y3130D02*
D03*
X6600Y9475D02*
D03*
D37*
X6310Y3730D02*
D03*
M02*
