G04*
G04 #@! TF.GenerationSoftware,Altium Limited,Altium Designer,24.7.2 (38)*
G04*
G04 Layer_Color=8421504*
%FSLAX42Y42*%
%MOMM*%
G71*
G04*
G04 #@! TF.SameCoordinates,CE458257-ED55-464B-8F26-E5EFE0AAFCD9*
G04*
G04*
G04 #@! TF.FilePolarity,Positive*
G04*
G01*
G75*
%ADD14R,1.50X1.81*%
%ADD15R,0.80X0.33*%
%ADD16R,1.52X1.00*%
%ADD17R,0.25X0.48*%
%ADD18R,0.48X0.35*%
%ADD19R,1.50X1.50*%
%ADD20R,1.10X1.65*%
%ADD21R,1.65X1.10*%
%ADD22R,1.96X0.42*%
G04:AMPARAMS|DCode=23|XSize=1.96mm|YSize=0.42mm|CornerRadius=0.21mm|HoleSize=0mm|Usage=FLASHONLY|Rotation=180.000|XOffset=0mm|YOffset=0mm|HoleType=Round|Shape=RoundedRectangle|*
%AMROUNDEDRECTD23*
21,1,1.96,0.00,0,0,180.0*
21,1,1.53,0.42,0,0,180.0*
1,1,0.42,-0.77,0.00*
1,1,0.42,0.77,0.00*
1,1,0.42,0.77,0.00*
1,1,0.42,-0.77,0.00*
%
%ADD23ROUNDEDRECTD23*%
D14*
X6940Y3970D02*
D03*
D15*
X7800Y8448D02*
D03*
Y8575D02*
D03*
Y8702D02*
D03*
X7200Y8448D02*
D03*
Y8575D02*
D03*
Y8702D02*
D03*
Y8829D02*
D03*
X7800D02*
D03*
D16*
X11850Y3657D02*
D03*
Y3857D02*
D03*
Y4057D02*
D03*
Y4257D02*
D03*
Y4457D02*
D03*
Y4657D02*
D03*
Y4857D02*
D03*
Y5057D02*
D03*
X10250Y3657D02*
D03*
Y3857D02*
D03*
Y4057D02*
D03*
Y4257D02*
D03*
Y4457D02*
D03*
Y4657D02*
D03*
Y4857D02*
D03*
Y5057D02*
D03*
D17*
X6829Y5344D02*
D03*
X6779D02*
D03*
X6729D02*
D03*
Y5806D02*
D03*
X6779D02*
D03*
X6829D02*
D03*
X6879D02*
D03*
Y5344D02*
D03*
D18*
X6960Y5800D02*
D03*
Y5750D02*
D03*
Y5700D02*
D03*
Y5650D02*
D03*
Y5600D02*
D03*
Y5550D02*
D03*
Y5500D02*
D03*
Y5450D02*
D03*
Y5400D02*
D03*
Y5350D02*
D03*
X6647D02*
D03*
Y5400D02*
D03*
Y5450D02*
D03*
Y5500D02*
D03*
Y5550D02*
D03*
Y5600D02*
D03*
Y5650D02*
D03*
Y5700D02*
D03*
Y5750D02*
D03*
Y5800D02*
D03*
D19*
X7410Y7055D02*
D03*
Y6705D02*
D03*
X7410Y7735D02*
D03*
Y7385D02*
D03*
D20*
X7651Y5810D02*
D03*
X7368Y5500D02*
D03*
X7653D02*
D03*
X7366Y5810D02*
D03*
X7776Y8140D02*
D03*
X7491D02*
D03*
X7768Y9325D02*
D03*
X7482D02*
D03*
D21*
X7160Y7368D02*
D03*
Y7653D02*
D03*
X7150Y7070D02*
D03*
Y6785D02*
D03*
D22*
X7228Y3742D02*
D03*
D23*
Y3808D02*
D03*
Y3872D02*
D03*
Y3938D02*
D03*
Y4003D02*
D03*
Y4067D02*
D03*
Y4133D02*
D03*
Y4197D02*
D03*
X6652D02*
D03*
Y4133D02*
D03*
Y4067D02*
D03*
Y4003D02*
D03*
Y3938D02*
D03*
Y3872D02*
D03*
Y3808D02*
D03*
Y3742D02*
D03*
M02*
