G04*
G04 #@! TF.GenerationSoftware,Altium Limited,Altium Designer,24.7.2 (38)*
G04*
G04 Layer_Physical_Order=2*
G04 Layer_Color=16711680*
%FSLAX42Y42*%
%MOMM*%
G71*
G04*
G04 #@! TF.SameCoordinates,CE458257-ED55-464B-8F26-E5EFE0AAFCD9*
G04*
G04*
G04 #@! TF.FilePolarity,Positive*
G04*
G01*
G75*
%ADD10C,0.25*%
%ADD40C,1.52*%
%ADD41C,1.00*%
%ADD42R,1.52X1.52*%
%ADD44C,1.27*%
G36*
X10230Y8035D02*
X10280Y7985D01*
Y7840D01*
Y7760D01*
Y6770D01*
X10330Y6720D01*
X10600D01*
Y6468D01*
X10173D01*
X10130Y6500D01*
Y7710D01*
X10003Y7837D01*
X10003Y7840D01*
X9838D01*
X9831Y7852D01*
X9812Y7871D01*
X9789Y7885D01*
X9763Y7892D01*
X9737D01*
X9711Y7885D01*
X9688Y7871D01*
X9669Y7852D01*
X9662Y7840D01*
X8910D01*
X8910Y3848D01*
X8919Y3839D01*
X8459Y3380D01*
X7410D01*
X7310Y3480D01*
X6440D01*
X6227Y3693D01*
Y3817D01*
X6390Y3817D01*
Y3630D01*
X6470Y3550D01*
X8310D01*
X8640Y3880D01*
Y7610D01*
X8600Y7650D01*
X7590D01*
Y7860D01*
X8146D01*
X8148Y7855D01*
X8145Y7852D01*
X8131Y7829D01*
X8124Y7803D01*
Y7777D01*
X8131Y7751D01*
X8145Y7728D01*
X8164Y7709D01*
X8187Y7695D01*
X8213Y7688D01*
X8239D01*
X8265Y7695D01*
X8288Y7709D01*
X8307Y7728D01*
X8321Y7751D01*
X8328Y7777D01*
Y7803D01*
X8321Y7829D01*
X8307Y7852D01*
X8304Y7855D01*
X8306Y7860D01*
X8340D01*
X8550Y8036D01*
X9648D01*
Y8031D01*
X9655Y8005D01*
X9669Y7982D01*
X9688Y7963D01*
X9711Y7949D01*
X9737Y7942D01*
X9763D01*
X9789Y7949D01*
X9812Y7963D01*
X9831Y7982D01*
X9845Y8005D01*
X9852Y8031D01*
Y8036D01*
X10230D01*
Y8035D01*
D02*
G37*
D10*
X6540Y5060D02*
X7020D01*
X7120Y5160D01*
Y5520D01*
X10371Y5233D02*
X10523D01*
X10660Y5370D02*
Y5660D01*
X10523Y5233D02*
X10660Y5370D01*
X9421Y5174D02*
X9426D01*
X9480Y5120D02*
X10610D01*
X9426Y5174D02*
X9480Y5120D01*
X10360Y5222D02*
X10371Y5233D01*
X10610Y5120D02*
X11081Y5591D01*
X10500Y5820D02*
X10660Y5660D01*
X9508Y4882D02*
X10444D01*
X9421Y5174D02*
Y5200D01*
X10444Y4882D02*
X11289Y5727D01*
X11160Y3860D02*
X11342Y4042D01*
X11274Y8476D02*
X11342Y8408D01*
Y4042D02*
Y8408D01*
X7963Y8303D02*
Y8403D01*
X7960Y8300D02*
X7963Y8303D01*
X10630Y3860D02*
X11160D01*
X11240Y6664D02*
Y6680D01*
Y6664D02*
X11289Y6614D01*
Y5727D02*
Y6614D01*
X11145Y8605D02*
X11274Y8476D01*
X10806Y8605D02*
X11145D01*
X10790Y8620D02*
X10806Y8605D01*
X10350Y9060D02*
X10790Y8620D01*
X11274Y8476D02*
X11274D01*
X10340Y9060D02*
X10350Y9060D01*
X9750Y9060D02*
X10340Y9060D01*
X8320Y8420D02*
X8840Y8940D01*
X7980Y8420D02*
X8320D01*
X8840Y8940D02*
X9450D01*
X7963Y8403D02*
X7980Y8420D01*
X11081Y6801D02*
X11240Y6960D01*
X11081Y5591D02*
Y6801D01*
X9500Y4890D02*
X9508Y4882D01*
D40*
X10500Y6320D02*
D03*
Y6070D02*
D03*
Y5820D02*
D03*
Y5570D02*
D03*
Y6570D02*
D03*
X8226Y5250D02*
D03*
X7697Y7747D02*
D03*
Y7493D02*
D03*
Y7239D02*
D03*
Y6985D02*
D03*
Y6731D02*
D03*
Y6477D02*
D03*
X7634Y3829D02*
D03*
Y4083D02*
D03*
Y4337D02*
D03*
Y4591D02*
D03*
X8226Y3472D02*
D03*
Y3980D02*
D03*
Y4234D02*
D03*
Y4488D02*
D03*
Y4742D02*
D03*
Y4996D02*
D03*
Y5504D02*
D03*
Y5758D02*
D03*
Y6012D02*
D03*
Y6266D02*
D03*
Y6520D02*
D03*
Y6774D02*
D03*
Y7282D02*
D03*
Y7536D02*
D03*
Y7790D02*
D03*
Y8044D02*
D03*
Y8298D02*
D03*
Y8552D02*
D03*
Y8806D02*
D03*
Y9060D02*
D03*
Y9314D02*
D03*
X9750Y3726D02*
D03*
Y3980D02*
D03*
Y4234D02*
D03*
Y4488D02*
D03*
Y4742D02*
D03*
Y4996D02*
D03*
Y5250D02*
D03*
Y5504D02*
D03*
Y5758D02*
D03*
Y6012D02*
D03*
Y6266D02*
D03*
Y6520D02*
D03*
Y6774D02*
D03*
Y7028D02*
D03*
Y7282D02*
D03*
Y7536D02*
D03*
Y7790D02*
D03*
Y8044D02*
D03*
Y8298D02*
D03*
Y8552D02*
D03*
Y8806D02*
D03*
Y9060D02*
D03*
Y9314D02*
D03*
X10949Y5686D02*
D03*
Y5940D02*
D03*
Y6194D02*
D03*
Y6448D02*
D03*
Y6702D02*
D03*
Y6956D02*
D03*
Y7210D02*
D03*
Y7464D02*
D03*
Y7718D02*
D03*
Y7972D02*
D03*
Y8226D02*
D03*
Y8480D02*
D03*
Y8734D02*
D03*
Y8988D02*
D03*
Y9242D02*
D03*
D41*
X6790Y7900D02*
D03*
Y8154D02*
D03*
X10630Y3860D02*
D03*
X7961Y8300D02*
D03*
X9450Y8940D02*
D03*
X6540Y5074D02*
D03*
X7120Y5520D02*
D03*
X10360Y5222D02*
D03*
X11238Y6958D02*
D03*
X11226Y6680D02*
D03*
X9500Y4890D02*
D03*
X9421Y5200D02*
D03*
D42*
X8226Y7028D02*
D03*
X9750Y3472D02*
D03*
X8226Y3726D02*
D03*
D44*
X6310Y3730D02*
D03*
M02*
