  0
SECTION
  2
HEADER
  9
$ACADVER
  1
AC1015
  9
$ACADMAINTVER
 70
     6
  9
$DWGCODEPAGE
  3
ANSI_1250
  9
$INSBASE
 10
0.0
 20
0.0
 30
0.0
  9
$EXTMIN
 10
-1.3813677606
 20
-6.3873925303
 30
0.0
  9
$EXTMAX
 10
370.221005019
 20
299.8044286169
 30
0.0
  9
$LIMMIN
 10
0.0
 20
0.0
  9
$LIMMAX
 10
420.0
 20
297.0
  9
$ORTHOMODE
 70
     0
  9
$REGENMODE
 70
     1
  9
$FILLMODE
 70
     1
  9
$QTEXTMODE
 70
     0
  9
$MIRRTEXT
 70
     1
  9
$LTSCALE
 40
1.0
  9
$ATTMODE
 70
     1
  9
$TEXTSIZE
 40
3.5
  9
$TRACEWID
 40
1.0
  9
$TEXTSTYLE
  7
Standard
  9
$CLAYER
  8
0
  9
$CELTYPE
  6
ByLayer
  9
$CECOLOR
 62
   256
  9
$CELTSCALE
 40
1.0
  9
$DISPSILH
 70
     0
  9
$DIMSCALE
 40
1.0
  9
$DIMASZ
 40
3.556
  9
$DIMEXO
 40
0.0
  9
$DIMDLI
 40
3.75
  9
$DIMRND
 40
0.0
  9
$DIMDLE
 40
0.0
  9
$DIMEXE
 40
1.0
  9
$DIMTP
 40
0.0
  9
$DIMTM
 40
0.0
  9
$DIMTXT
 40
3.5
  9
$DIMCEN
 40
2.5
  9
$DIMTSZ
 40
0.0
  9
$DIMTOL
 70
     0
  9
$DIMLIM
 70
     0
  9
$DIMTIH
 70
     1
  9
$DIMTOH
 70
     1
  9
$DIMSE1
 70
     0
  9
$DIMSE2
 70
     0
  9
$DIMTAD
 70
     1
  9
$DIMZIN
 70
     1
  9
$DIMBLK
  1

  9
$DIMASO
 70
     1
  9
$DIMSHO
 70
     1
  9
$DIMPOST
  1

  9
$DIMAPOST
  1

  9
$DIMALT
 70
     0
  9
$DIMALTD
 70
     3
  9
$DIMALTF
 40
0.0393700787
  9
$DIMLFAC
 40
1.0
  9
$DIMTOFL
 70
     1
  9
$DIMTVP
 40
0.0
  9
$DIMTIX
 70
     0
  9
$DIMSOXD
 70
     0
  9
$DIMSAH
 70
     0
  9
$DIMBLK1
  1

  9
$DIMBLK2
  1

  9
$DIMSTYLE
  2
ISO-25
  9
$DIMCLRD
 70
     0
  9
$DIMCLRE
 70
     0
  9
$DIMCLRT
 70
     0
  9
$DIMTFAC
 40
1.0
  9
$DIMGAP
 40
1.524
  9
$DIMJUST
 70
     0
  9
$DIMSD1
 70
     0
  9
$DIMSD2
 70
     0
  9
$DIMTOLJ
 70
     0
  9
$DIMTZIN
 70
     1
  9
$DIMALTZ
 70
     0
  9
$DIMALTTZ
 70
     0
  9
$DIMUPT
 70
     0
  9
$DIMDEC
 70
     2
  9
$DIMTDEC
 70
     2
  9
$DIMALTU
 70
     2
  9
$DIMALTTD
 70
     3
  9
$DIMTXSTY
  7
Standard
  9
$DIMAUNIT
 70
     0
  9
$DIMADEC
 70
     2
  9
$DIMALTRND
 40
0.0
  9
$DIMAZIN
 70
     0
  9
$DIMDSEP
 70
    44
  9
$DIMATFIT
 70
     3
  9
$DIMFRAC
 70
     0
  9
$DIMLDRBLK
  1

  9
$DIMLUNIT
 70
     2
  9
$DIMLWD
 70
    -2
  9
$DIMLWE
 70
    -2
  9
$DIMTMOVE
 70
     0
  9
$LUNITS
 70
     2
  9
$LUPREC
 70
     2
  9
$SKETCHINC
 40
1.0
  9
$FILLETRAD
 40
0.0
  9
$AUNITS
 70
     0
  9
$AUPREC
 70
     2
  9
$MENU
  1
.
  9
$ELEVATION
 40
0.0
  9
$PELEVATION
 40
0.0
  9
$THICKNESS
 40
0.0
  9
$LIMCHECK
 70
     0
  9
$CHAMFERA
 40
0.0
  9
$CHAMFERB
 40
0.0
  9
$CHAMFERC
 40
0.0
  9
$CHAMFERD
 40
0.0
  9
$SKPOLY
 70
     0
  9
$TDCREATE
 40
2460525.445640174
  9
$TDUCREATE
 40
2460525.362306841
  9
$TDUPDATE
 40
2460525.445744919
  9
$TDUUPDATE
 40
2460525.362411586
  9
$TDINDWG
 40
0.0000000116
  9
$TDUSRTIMER
 40
0.0000000116
  9
$USRTIMER
 70
     1
  9
$ANGBASE
 50
0.0
  9
$ANGDIR
 70
     0
  9
$PDMODE
 70
     0
  9
$PDSIZE
 40
-1.0
  9
$PLINEWID
 40
0.0
  9
$SPLFRAME
 70
     0
  9
$SPLINETYPE
 70
     6
  9
$SPLINESEGS
 70
     8
  9
$HANDSEED
  5
F5
  9
$SURFTAB1
 70
     6
  9
$SURFTAB2
 70
     6
  9
$SURFTYPE
 70
     6
  9
$SURFU
 70
     6
  9
$SURFV
 70
     6
  9
$UCSBASE
  2

  9
$UCSNAME
  2

  9
$UCSORG
 10
0.0
 20
0.0
 30
0.0
  9
$UCSXDIR
 10
1.0
 20
0.0
 30
0.0
  9
$UCSYDIR
 10
0.0
 20
1.0
 30
0.0
  9
$UCSORTHOREF
  2

  9
$UCSORTHOVIEW
 70
     0
  9
$UCSORGTOP
 10
0.0
 20
0.0
 30
0.0
  9
$UCSORGBOTTOM
 10
0.0
 20
0.0
 30
0.0
  9
$UCSORGLEFT
 10
0.0
 20
0.0
 30
0.0
  9
$UCSORGRIGHT
 10
0.0
 20
0.0
 30
0.0
  9
$UCSORGFRONT
 10
0.0
 20
0.0
 30
0.0
  9
$UCSORGBACK
 10
0.0
 20
0.0
 30
0.0
  9
$PUCSBASE
  2

  9
$PUCSNAME
  2

  9
$PUCSORG
 10
0.0
 20
0.0
 30
0.0
  9
$PUCSXDIR
 10
1.0
 20
0.0
 30
0.0
  9
$PUCSYDIR
 10
0.0
 20
1.0
 30
0.0
  9
$PUCSORTHOREF
  2

  9
$PUCSORTHOVIEW
 70
     0
  9
$PUCSORGTOP
 10
0.0
 20
0.0
 30
0.0
  9
$PUCSORGBOTTOM
 10
0.0
 20
0.0
 30
0.0
  9
$PUCSORGLEFT
 10
0.0
 20
0.0
 30
0.0
  9
$PUCSORGRIGHT
 10
0.0
 20
0.0
 30
0.0
  9
$PUCSORGFRONT
 10
0.0
 20
0.0
 30
0.0
  9
$PUCSORGBACK
 10
0.0
 20
0.0
 30
0.0
  9
$USERI1
 70
     0
  9
$USERI2
 70
     0
  9
$USERI3
 70
     0
  9
$USERI4
 70
     0
  9
$USERI5
 70
     0
  9
$USERR1
 40
0.0
  9
$USERR2
 40
0.0
  9
$USERR3
 40
0.0
  9
$USERR4
 40
0.0
  9
$USERR5
 40
0.0
  9
$WORLDVIEW
 70
     1
  9
$SHADEDGE
 70
     3
  9
$SHADEDIF
 70
    70
  9
$TILEMODE
 70
     1
  9
$MAXACTVP
 70
    64
  9
$PINSBASE
 10
0.0
 20
0.0
 30
0.0
  9
$PLIMCHECK
 70
     0
  9
$PEXTMIN
 10
1.0000000000E+20
 20
1.0000000000E+20
 30
1.0000000000E+20
  9
$PEXTMAX
 10
-1.0000000000E+20
 20
-1.0000000000E+20
 30
-1.0000000000E+20
  9
$PLIMMIN
 10
0.0
 20
0.0
  9
$PLIMMAX
 10
420.0
 20
297.0
  9
$UNITMODE
 70
     0
  9
$VISRETAIN
 70
     1
  9
$PLINEGEN
 70
     0
  9
$PSLTSCALE
 70
     1
  9
$TREEDEPTH
 70
  3020
  9
$CMLSTYLE
  2
Standard
  9
$CMLJUST
 70
     0
  9
$CMLSCALE
 40
20.0
  9
$PROXYGRAPHICS
 70
     1
  9
$MEASUREMENT
 70
     1
  9
$CELWEIGHT
370
    -1
  9
$ENDCAPS
280
     0
  9
$JOINSTYLE
280
     0
  9
$LWDISPLAY
290
     1
  9
$INSUNITS
 70
     4
  9
$HYPERLINKBASE
  1

  9
$STYLESHEET
  1

  9
$XEDIT
290
     1
  9
$CEPSNTYPE
380
     0
  9
$PSTYLEMODE
290
     1
  9
$FINGERPRINTGUID
  2
{f63042b4-1d67-4490-bfa3-1af199e0f91f}
  9
$VERSIONGUID
  2
{FAEB1C32-E019-11D5-929B-00C0DF256EC4}
  9
$EXTNAMES
290
     1
  9
$PSVPSCALE
 40
0.0
  9
$OLESTARTUP
290
     0
  0
ENDSEC
  0
SECTION
  2
CLASSES
  0
CLASS
  1
ACDBDICTIONARYWDFLT
  2
AcDbDictionaryWithDefault
  3
ObjectDBX Classes
 90
        0
280
     0
281
     0
  0
CLASS
  1
VISUALSTYLE
  2
AcDbVisualStyle
  3
ObjectDBX Classes
 90
     4095
280
     0
281
     0
  0
CLASS
  1
MATERIAL
  2
AcDbMaterial
  3
ObjectDBX Classes
 90
     1153
280
     0
281
     0
  0
CLASS
  1
SCALE
  2
AcDbScale
  3
ObjectDBX Classes
 90
     1153
280
     0
281
     0
  0
CLASS
  1
TABLESTYLE
  2
AcDbTableStyle
  3
ObjectDBX Classes
 90
     4095
280
     0
281
     0
  0
CLASS
  1
MLEADERSTYLE
  2
AcDbMLeaderStyle
  3
ACDB_MLEADERSTYLE_CLASS
 90
     4095
280
     0
281
     0
  0
CLASS
  1
SUN
  2
AcDbSun
  3
SCENEOE
 90
     1153
280
     0
281
     0
  0
CLASS
  1
ACDBPLACEHOLDER
  2
AcDbPlaceHolder
  3
ObjectDBX Classes
 90
        0
280
     0
281
     0
  0
CLASS
  1
LAYOUT
  2
AcDbLayout
  3
ObjectDBX Classes
 90
        0
280
     0
281
     0
  0
ENDSEC
  0
SECTION
  2
TABLES
  0
TABLE
  2
VPORT
  5
8
330
0
100
AcDbSymbolTable
 70
     1
  0
VPORT
  5
29
330
8
100
AcDbSymbolTableRecord
100
AcDbViewportTableRecord
  2
*Active
 70
     0
 10
0.0
 20
0.0
 11
1.0
 21
1.0
 12
184.4198186292
 22
146.7085180433
 13
0.0
 23
0.0
 14
10.0
 24
10.0
 15
10.0
 25
10.0
 16
0.0
 26
0.0
 36
1.0
 17
0.0
 27
0.0
 37
0.0
 40
312.3156575702
 41
1.2136260576
 42
50.0
 43
0.0
 44
0.0
 50
0.0
 51
0.0
 71
     0
 72
   100
 73
     1
 74
     3
 75
     0
 76
     0
 77
     0
 78
     0
281
     0
 65
     1
110
0.0
120
0.0
130
0.0
111
1.0
121
0.0
131
0.0
112
0.0
122
1.0
132
0.0
 79
     0
146
0.0
  0
ENDTAB
  0
TABLE
  2
LTYPE
  5
5
330
0
100
AcDbSymbolTable
 70
     6
  0
LTYPE
  5
14
330
5
100
AcDbSymbolTableRecord
100
AcDbLinetypeTableRecord
  2
ByBlock
 70
     0
  3

 72
    65
 73
     0
 40
0.0
  0
LTYPE
  5
15
330
5
100
AcDbSymbolTableRecord
100
AcDbLinetypeTableRecord
  2
ByLayer
 70
     0
  3

 72
    65
 73
     0
 40
0.0
  0
LTYPE
  5
16
330
5
100
AcDbSymbolTableRecord
100
AcDbLinetypeTableRecord
  2
Continuous
 70
     0
  3
Solid line
 72
    65
 73
     0
 40
0.0
  0
LTYPE
  5
5E
330
5
100
AcDbSymbolTableRecord
100
AcDbLinetypeTableRecord
  2
HIDDEN
 70
     0
  3
Hidden __ __ __ __ __ __ __ __ __ __ __ __ __ __
 72
    65
 73
     2
 40
1.905
 49
1.27
 74
     0
 49
-0.635
 74
     0
  0
LTYPE
  5
5F
330
5
100
AcDbSymbolTableRecord
100
AcDbLinetypeTableRecord
  2
PHANTOM
 70
     0
  3
Phantom ______  __  __  ______  __  __  ______
 72
    65
 73
     6
 40
12.7
 49
6.35
 74
     0
 49
-1.27
 74
     0
 49
1.27
 74
     0
 49
-1.27
 74
     0
 49
1.27
 74
     0
 49
-1.27
 74
     0
  0
LTYPE
  5
60
330
5
100
AcDbSymbolTableRecord
100
AcDbLinetypeTableRecord
  2
CENTER
 70
     0
  3
Center ____ _ ____ _ ____ _ ____ _ ____ _ ____
 72
    65
 73
     4
 40
10.16
 49
6.35
 74
     0
 49
-1.27
 74
     0
 49
1.27
 74
     0
 49
-1.27
 74
     0
  0
LTYPE
  5
61
330
5
100
AcDbSymbolTableRecord
100
AcDbLinetypeTableRecord
  2
CENTERX2
 70
     0
  3
Center (2x) ________  __  ________  __  _____
 72
    65
 73
     4
 40
20.32
 49
12.7
 74
     0
 49
-2.54
 74
     0
 49
2.54
 74
     0
 49
-2.54
 74
     0
  0
LTYPE
  5
62
330
5
100
AcDbSymbolTableRecord
100
AcDbLinetypeTableRecord
  2
DOT2
 70
     0
  3
Dot (.5x) ........................................
 72
    65
 73
     2
 40
0.635
 49
0.0
 74
     0
 49
-0.635
 74
     0
  0
ENDTAB
  0
TABLE
  2
LAYER
  5
2
330
0
100
AcDbSymbolTable
 70
     1
  0
LAYER
  5
10
330
2
100
AcDbSymbolTableRecord
100
AcDbLayerTableRecord
  2
0
 70
     0
 62
     7
  6
Continuous
370
    -3
390
F
  0
ENDTAB
  0
TABLE
  2
STYLE
  5
3
330
0
100
AcDbSymbolTable
 70
     2
  0
STYLE
  5
11
330
3
100
AcDbSymbolTableRecord
100
AcDbTextStyleTableRecord
  2
Standard
 70
     0
 40
0.0
 41
1.0
 50
0.0
 71
     0
 42
3.5
  3
txt
  4

  0
STYLE
  5
F1
330
3
100
AcDbSymbolTableRecord
100
AcDbTextStyleTableRecord
  2
SLDTEXTSTYLE0
 70
     0
 40
0.0
 41
0.7
 50
0.0
 71
     0
 42
3.5
  3
TXT
  4

  0
ENDTAB
  0
TABLE
  2
VIEW
  5
6
330
0
100
AcDbSymbolTable
 70
     0
  0
ENDTAB
  0
TABLE
  2
UCS
  5
7
330
0
100
AcDbSymbolTable
 70
     0
  0
ENDTAB
  0
TABLE
  2
APPID
  5
9
330
0
100
AcDbSymbolTable
 70
     1
  0
APPID
  5
12
330
9
100
AcDbSymbolTableRecord
100
AcDbRegAppTableRecord
  2
ACAD
 70
     0
  0
ENDTAB
  0
TABLE
  2
DIMSTYLE
  5
A
330
0
100
AcDbSymbolTable
 70
     1
100
AcDbDimStyleTable
  0
DIMSTYLE
105
27
330
A
100
AcDbSymbolTableRecord
100
AcDbDimStyleTableRecord
  2
ISO-25
 70
     0
 41
2.5
 42
0.625
 43
3.75
 44
1.25
 73
     0
 74
     0
 77
     1
 78
     8
140
2.5
141
2.5
143
0.0393700787
147
0.625
171
     3
172
     1
178
     0
271
     2
272
     2
274
     3
278
    44
283
     0
284
     8
340
11
  0
ENDTAB
  0
TABLE
  2
BLOCK_RECORD
  5
1
330
0
100
AcDbSymbolTable
 70
     1
  0
BLOCK_RECORD
  5
1F
330
1
100
AcDbSymbolTableRecord
100
AcDbBlockTableRecord
  2
*Model_Space
340
22
  0
BLOCK_RECORD
  5
1B
330
1
100
AcDbSymbolTableRecord
100
AcDbBlockTableRecord
  2
*Paper_Space
340
1E
  0
BLOCK_RECORD
  5
23
330
1
100
AcDbSymbolTableRecord
100
AcDbBlockTableRecord
  2
*Paper_Space0
340
26
  0
ENDTAB
  0
ENDSEC
  0
SECTION
  2
BLOCKS
  0
BLOCK
  5
20
330
1F
100
AcDbEntity
  8
0
100
AcDbBlockBegin
  2
*Model_Space
 70
     0
 10
0.0
 20
0.0
 30
0.0
  3
*Model_Space
  1

  0
ENDBLK
  5
21
330
1F
100
AcDbEntity
  8
0
100
AcDbBlockEnd
  0
BLOCK
  5
1C
330
1B
100
AcDbEntity
 67
     1
  8
0
100
AcDbBlockBegin
  2
*Paper_Space
 70
     0
 10
0.0
 20
0.0
 30
0.0
  3
*Paper_Space
  1

  0
ENDBLK
  5
1D
330
1B
100
AcDbEntity
 67
     1
  8
0
100
AcDbBlockEnd
  0
BLOCK
  5
24
330
23
100
AcDbEntity
  8
0
100
AcDbBlockBegin
  2
*Paper_Space0
 70
     0
 10
0.0
 20
0.0
 30
0.0
  3
*Paper_Space0
  1

  0
ENDBLK
  5
25
330
23
100
AcDbEntity
  8
0
100
AcDbBlockEnd
  0
ENDSEC
  0
SECTION
  2
ENTITIES
  0
LWPOLYLINE
  5
63
330
1F
100
AcDbEntity
  8
0
  6
Continuous
 62
     7
100
AcDbPolyline
 90
       17
 70
   128
 43
0.0
 10
281.8618425159
 20
19.1389744622
 10
281.4866333909
 20
19.9182564196
 10
280.8727582309
 20
20.4838973487
 10
280.1136739643
 20
20.7497835455
 10
279.3249442896
 20
20.6754362469
 10
278.6266461498
 20
20.2721741551
 10
278.1250891067
 20
19.601390268
 10
277.8966306734
 20
18.7652053517
 10
277.9760515755
 20
17.8909209798
 10
278.3512607005
 20
17.1116390224
 10
278.9651358604
 20
16.5459980933
 10
279.724220127
 20
16.2801118965
 10
280.5129498018
 20
16.3544591951
 10
281.2112479416
 20
16.7577212869
 10
281.7128049847
 20
17.428505174
 10
281.941263418
 20
18.2646900903
 10
281.8618425159
 20
19.1389744622
  0
LWPOLYLINE
  5
64
330
1F
100
AcDbEntity
  8
0
  6
Continuous
 62
     7
100
AcDbPolyline
 90
       17
 70
   128
 43
0.0
 10
317.9804163283
 20
18.3360000687
 10
317.6052072033
 20
19.1152820261
 10
316.9913320433
 20
19.6809229552
 10
316.2322477767
 20
19.946809152
 10
315.4435181019
 20
19.8724618534
 10
314.7452199621
 20
19.4691997616
 10
314.243662919
 20
18.7984158745
 10
314.0152044857
 20
17.9622309582
 10
314.0946253878
 20
17.0879465863
 10
314.4698345128
 20
16.3086646289
 10
315.0837096728
 20
15.7430236998
 10
315.8427939394
 20
15.477137503
 10
316.6315236142
 20
15.5514848016
 10
317.3298217539
 20
15.9547468934
 10
317.8313787971
 20
16.6255307805
 10
318.0598372303
 20
17.4617156968
 10
317.9804163283
 20
18.3360000687
  0
LWPOLYLINE
  5
65
330
1F
100
AcDbEntity
  8
0
  6
Continuous
 62
     7
100
AcDbPolyline
 90
       17
 70
   128
 43
0.0
 10
354.0989901406
 20
17.5330256752
 10
353.7237810156
 20
18.3123076326
 10
353.1099058556
 20
18.8779485617
 10
352.350821589
 20
19.1438347585
 10
351.5620919143
 20
19.0694874599
 10
350.8637937745
 20
18.6662253681
 10
350.3622367313
 20
17.995441481
 10
350.1337782981
 20
17.1592565647
 10
350.2131992001
 20
16.2849721928
 10
350.5884083252
 20
15.5056902354
 10
351.2022834851
 20
14.9400493063
 10
351.9613677517
 20
14.6741631095
 10
352.7500974265
 20
14.7485104081
 10
353.4483955663
 20
15.1517724999
 10
353.9499526094
 20
15.822556387
 10
354.1784110427
 20
16.6587413033
 10
354.0989901406
 20
17.5330256752
  0
LWPOLYLINE
  5
66
330
1F
100
AcDbEntity
  8
0
  6
Continuous
 62
     7
100
AcDbPolyline
 90
       17
 70
   128
 43
0.0
 10
281.8618425159
 20
133.6991579025
 10
281.4866333909
 20
134.4784398599
 10
280.8727582309
 20
135.044080789
 10
280.1136739643
 20
135.3099669858
 10
279.3249442896
 20
135.2356196872
 10
278.6266461498
 20
134.8323575954
 10
278.1250891067
 20
134.1615737083
 10
277.8966306734
 20
133.325388792
 10
277.9760515755
 20
132.4511044201
 10
278.3512607005
 20
131.6718224627
 10
278.9651358604
 20
131.1061815336
 10
279.724220127
 20
130.8402953368
 10
280.5129498018
 20
130.9146426354
 10
281.2112479416
 20
131.3179047272
 10
281.7128049847
 20
131.9886886143
 10
281.941263418
 20
132.8248735306
 10
281.8618425159
 20
133.6991579025
  0
LWPOLYLINE
  5
67
330
1F
100
AcDbEntity
  8
0
  6
Continuous
 62
     7
100
AcDbPolyline
 90
       17
 70
   128
 43
0.0
 10
317.9804163283
 20
133.0786072738
 10
317.6052072033
 20
133.8578892312
 10
316.9913320433
 20
134.4235301602
 10
316.2322477767
 20
134.6894163571
 10
315.4435181019
 20
134.6150690584
 10
314.7452199621
 20
134.2118069666
 10
314.243662919
 20
133.5410230795
 10
314.0152044857
 20
132.7048381633
 10
314.0946253878
 20
131.8305537913
 10
314.4698345128
 20
131.0512718339
 10
315.0837096728
 20
130.4856309049
 10
315.8427939394
 20
130.2197447081
 10
316.6315236142
 20
130.2940920067
 10
317.3298217539
 20
130.6973540985
 10
317.8313787971
 20
131.3681379856
 10
318.0598372303
 20
132.2043229018
 10
317.9804163283
 20
133.0786072738
  0
LWPOLYLINE
  5
68
330
1F
100
AcDbEntity
  8
0
  6
Continuous
 62
     7
100
AcDbPolyline
 90
       17
 70
   128
 43
0.0
 10
354.0989901406
 20
132.458056645
 10
353.7237810156
 20
133.2373386024
 10
353.1099058556
 20
133.8029795315
 10
352.350821589
 20
134.0688657283
 10
351.5620919143
 20
133.9945184297
 10
350.8637937745
 20
133.5912563379
 10
350.3622367313
 20
132.9204724508
 10
350.1337782981
 20
132.0842875345
 10
350.2131992001
 20
131.2100031626
 10
350.5884083252
 20
130.4307212052
 10
351.2022834851
 20
129.8650802761
 10
351.9613677517
 20
129.5991940793
 10
352.7500974265
 20
129.6735413779
 10
353.4483955663
 20
130.0768034697
 10
353.9499526094
 20
130.7475873568
 10
354.1784110427
 20
131.5837722731
 10
354.0989901406
 20
132.458056645
  0
LWPOLYLINE
  5
69
330
1F
100
AcDbEntity
  8
0
  6
Continuous
 62
     7
100
AcDbPolyline
 90
       17
 70
   128
 43
0.0
 10
273.2639536118
 20
102.039467746
 10
272.8053646812
 20
102.9919234717
 10
272.055072819
 20
103.683262385
 10
271.1273031598
 20
104.0082344034
 10
270.163300224
 20
103.9173654828
 10
269.3098247198
 20
103.4244895928
 10
268.696810556
 20
102.6046426197
 10
268.417583582
 20
101.5826388332
 10
268.5146535734
 20
100.5140690452
 10
268.973242504
 20
99.5616133195
 10
269.7235343662
 20
98.8702744062
 10
270.6513040254
 20
98.5453023879
 10
271.6153069612
 20
98.6361713084
 10
272.4687824654
 20
99.1290471984
 10
273.0817966292
 20
99.9488941716
 10
273.3610236032
 20
100.9708979581
 10
273.2639536118
 20
102.039467746
  0
LWPOLYLINE
  5
6A
330
1F
100
AcDbEntity
  8
0
  6
Continuous
 62
     7
100
AcDbPolyline
 90
       17
 70
   128
 43
0.0
 10
36.8407990796
 20
106.1014370242
 10
36.382210149
 20
107.0538927499
 10
35.6319182868
 20
107.7452316632
 10
34.7041486277
 20
108.0702036815
 10
33.7401456918
 20
107.979334761
 10
32.8866701877
 20
107.486458871
 10
32.2736560238
 20
106.6666118979
 10
31.9944290498
 20
105.6446081114
 10
32.0914990413
 20
104.5760383234
 10
32.5500879718
 20
103.6235825977
 10
33.300379834
 20
102.9322436844
 10
34.2281494932
 20
102.6072716661
 10
35.192152429
 20
102.6981405866
 10
36.0456279332
 20
103.1910164766
 10
36.658642097
 20
104.0108634497
 10
36.937869071
 20
105.0328672363
 10
36.8407990796
 20
106.1014370242
  0
LWPOLYLINE
  5
6B
330
1F
100
AcDbEntity
  8
0
  6
Continuous
 62
     7
100
AcDbPolyline
 90
       17
 70
   128
 43
0.0
 10
36.8407990796
 20
212.0323351355
 10
36.382210149
 20
212.9847908612
 10
35.6319182868
 20
213.6761297745
 10
34.7041486277
 20
214.0011017928
 10
33.7401456918
 20
213.9102328723
 10
32.8866701877
 20
213.4173569823
 10
32.2736560238
 20
212.5975100092
 10
31.9944290498
 20
211.5755062227
 10
32.0914990413
 20
210.5069364347
 10
32.5500879718
 20
209.554480709
 10
33.300379834
 20
208.8631417957
 10
34.2281494932
 20
208.5381697774
 10
35.192152429
 20
208.6290386979
 10
36.0456279332
 20
209.1219145879
 10
36.658642097
 20
209.941761561
 10
36.937869071
 20
210.9637653476
 10
36.8407990796
 20
212.0323351355
  0
LWPOLYLINE
  5
6C
330
1F
100
AcDbEntity
  8
0
  6
Continuous
 62
     7
100
AcDbPolyline
 90
       17
 70
   128
 43
0.0
 10
273.2639536118
 20
207.9703658573
 10
272.8053646812
 20
208.922821583
 10
272.055072819
 20
209.6141604963
 10
271.1273031598
 20
209.9391325147
 10
270.163300224
 20
209.8482635941
 10
269.3098247198
 20
209.3553877041
 10
268.696810556
 20
208.535540731
 10
268.417583582
 20
207.5135369445
 10
268.5146535734
 20
206.4449671566
 10
268.973242504
 20
205.4925114308
 10
269.7235343662
 20
204.8011725175
 10
270.6513040254
 20
204.4762004992
 10
271.6153069612
 20
204.5670694197
 10
272.4687824654
 20
205.0599453097
 10
273.0817966292
 20
205.8797922829
 10
273.3610236032
 20
206.9017960694
 10
273.2639536118
 20
207.9703658573
  0
LWPOLYLINE
  5
6D
330
1F
100
AcDbEntity
  8
0
  6
Continuous
 62
     7
100
AcDbPolyline
 90
        9
 70
   128
 43
0.0
 10
4.5148217265
 20
-0.0775688286
 10
3.6340237021
 20
0.0335750663
 10
2.7870742517
 20
0.332469698
 10
2.0065211679
 20
0.8076287134
 10
1.3223606679
 20
1.440792018
 10
0.760884656
 20
2.2076275011
 10
0.3436703405
 20
3.0786661051
 10
0.0867510335
 20
4.020434305
 10
0.0
 20
4.9967404769
  0
LWPOLYLINE
  5
6E
330
1F
100
AcDbEntity
  8
0
  6
Continuous
 62
     7
100
AcDbPolyline
 90
        9
 70
   128
 43
0.0
 10
365.70055985
 20
-6.2830751162
 10
366.5813578745
 20
-6.2021970768
 10
367.4283073248
 20
-5.9324052007
 10
368.2088604087
 20
-5.4840674385
 10
368.8930209087
 20
-4.874413159
 10
369.4544969206
 20
-4.1268710342
 10
369.8717112361
 20
-3.2701686887
 10
370.1286305431
 20
-2.3372287132
 10
370.2153815766
 20
-1.3639034678
  0
LWPOLYLINE
  5
6F
330
1F
100
AcDbEntity
  8
0
  6
Continuous
 62
     7
100
AcDbPolyline
 90
        9
 70
   128
 43
0.0
 10
365.70055985
 20
293.5213535007
 10
366.5813578745
 20
293.4102096058
 10
367.4283073248
 20
293.1113149741
 10
368.2088604087
 20
292.6361559588
 10
368.8930209087
 20
292.0029926542
 10
369.4544969206
 20
291.2361571711
 10
369.8717112361
 20
290.365118567
 10
370.1286305431
 20
289.4233503672
 10
370.2153815766
 20
288.4470441952
  0
LWPOLYLINE
  5
70
330
1F
100
AcDbEntity
  8
0
  6
Continuous
 62
     7
100
AcDbPolyline
 90
        9
 70
   128
 43
0.0
 10
0.0
 20
294.80768814
 10
0.0867510335
 20
295.7810133853
 10
0.3436703405
 20
296.7139533608
 10
0.760884656
 20
297.5706557063
 10
1.3223606679
 20
298.3181978311
 10
2.0065211679
 20
298.9278521107
 10
2.7870742517
 20
299.3761898729
 10
3.6340237021
 20
299.6459817489
 10
4.5148217265
 20
299.7268597883
  0
LWPOLYLINE
  5
71
330
1F
100
AcDbEntity
  8
0
  6
Continuous
 62
     7
100
AcDbPolyline
 90
        9
 70
   128
 43
0.0
 10
340.4175581814
 20
149.0502651094
 10
340.9460369961
 20
149.098791933
 10
341.4542066663
 20
149.2606670586
 10
341.9225385166
 20
149.5296697159
 10
342.3330348166
 20
149.8954622837
 10
342.6699204237
 20
150.3439875586
 10
342.920249013
 20
150.8580089659
 10
343.0744005972
 20
151.4177729511
 10
343.1264512173
 20
152.0017680984
  0
LWPOLYLINE
  5
72
330
1F
100
AcDbEntity
  8
0
  6
Continuous
 62
     7
100
AcDbPolyline
 90
        9
 70
   128
 43
0.0
 10
340.4175581814
 20
169.0372270172
 10
340.9460369961
 20
168.9705406802
 10
341.4542066663
 20
168.7912039012
 10
341.9225385166
 20
168.506108492
 10
342.3330348166
 20
168.1262105092
 10
342.6699204237
 20
167.6661092194
 10
342.920249013
 20
167.1434860569
 10
343.0744005972
 20
166.578425137
 10
343.1264512173
 20
165.9926414338
  0
LWPOLYLINE
  5
73
330
1F
100
AcDbEntity
  8
0
  6
Continuous
 62
     7
100
AcDbPolyline
 90
        9
 70
   128
 43
0.0
 10
29.7978233952
 20
154.3870005167
 10
29.2693445805
 20
154.4536868536
 10
28.7611749103
 20
154.6330236326
 10
28.29284306
 20
154.9181190419
 10
27.88234676
 20
155.2980170246
 10
27.5454611528
 20
155.7581183145
 10
27.2951325635
 20
156.2807414769
 10
27.1409809794
 20
156.8458023968
 10
27.0889303593
 20
157.4315861
  0
LWPOLYLINE
  5
74
330
1F
100
AcDbEntity
  8
0
  6
Continuous
 62
     7
100
AcDbPolyline
 90
        9
 70
   128
 43
0.0
 10
27.0889303593
 20
171.4224594355
 10
27.1409809794
 20
172.0064545827
 10
27.2951325635
 20
172.566218568
 10
27.5454611528
 20
173.0802399753
 10
27.88234676
 20
173.5287652502
 10
28.29284306
 20
173.8945578179
 10
28.7611749103
 20
174.1635604752
 10
29.2693445805
 20
174.3254356008
 10
29.7978233952
 20
174.3739624245
  0
LINE
  5
75
330
1F
100
AcDbEntity
  8
0
  6
CENTERX2
 62
     7
100
AcDbLine
 10
352.1560946704
 20
-6.0503686304
 30
0.0
 11
352.1560946704
 21
293.7540599865
 31
0.0
  0
LINE
  5
76
330
1F
100
AcDbEntity
  8
0
  6
Continuous
 62
     7
100
AcDbLine
 10
4.5148217265
 20
-0.0775688286
 30
0.0
 11
365.70055985
 21
-6.2830751162
 31
0.0
  0
LINE
  5
77
330
1F
100
AcDbEntity
  8
0
  6
Continuous
 62
     7
100
AcDbLine
 10
0.0
 20
4.9967404769
 30
0.0
 11
0.0
 21
294.80768814
 31
0.0
  0
LINE
  5
78
330
1F
100
AcDbEntity
  8
0
  6
Continuous
 62
     7
100
AcDbLine
 10
4.5148217265
 20
299.7268597883
 30
0.0
 11
365.70055985
 21
293.5213535007
 31
0.0
  0
LINE
  5
79
330
1F
100
AcDbEntity
  8
0
  6
Continuous
 62
     7
100
AcDbLine
 10
370.2153815766
 20
-1.3639034678
 30
0.0
 11
370.2153815766
 21
288.4470441952
 31
0.0
  0
LINE
  5
7A
330
1F
100
AcDbEntity
  8
0
  6
CENTERX2
 62
     7
100
AcDbLine
 10
316.037520858
 20
-5.4298180016
 30
0.0
 11
316.037520858
 21
294.3746106153
 31
0.0
  0
LINE
  5
7B
330
1F
100
AcDbEntity
  8
0
  6
CENTERX2
 62
     7
100
AcDbLine
 10
279.9189470457
 20
-4.8092673729
 30
0.0
 11
279.9189470457
 21
294.995161244
 31
0.0
  0
LINE
  5
7C
330
1F
100
AcDbEntity
  8
0
  6
CENTERX2
 62
     7
100
AcDbLine
 10
0.0
 20
105.9308981113
 30
0.0
 11
370.2153815766
 21
99.5702541665
 31
0.0
  0
LINE
  5
7D
330
1F
100
AcDbEntity
  8
0
  6
CENTERX2
 62
     7
100
AcDbLine
 10
279.9189470457
 20
18.514947721
 30
0.0
 11
370.2153815766
 21
16.5075117372
 31
0.0
  0
LINE
  5
7E
330
1F
100
AcDbEntity
  8
0
  6
CENTERX2
 62
     7
100
AcDbLine
 10
352.1560946704
 20
131.8340299038
 30
0.0
 11
279.9189470457
 21
133.0751311613
 31
0.0
  0
LINE
  5
7F
330
1F
100
AcDbEntity
  8
0
  6
CENTERX2
 62
     7
100
AcDbLine
 10
0.0
 20
211.8617962226
 30
0.0
 11
370.2153815766
 21
205.5011522779
 31
0.0
  0
LINE
  5
80
330
1F
100
AcDbEntity
  8
0
  6
CENTERX2
 62
     7
100
AcDbLine
 10
34.4661490604
 20
105.3387376738
 30
0.0
 11
34.4661490604
 21
211.2696357851
 31
0.0
  0
LINE
  5
81
330
1F
100
AcDbEntity
  8
0
  6
CENTERX2
 62
     7
100
AcDbLine
 10
270.8893035926
 20
101.2767683956
 30
0.0
 11
270.8893035926
 21
207.2076665069
 31
0.0
  0
LINE
  5
82
330
1F
100
AcDbEntity
  8
0
  6
CENTERX2
 62
     7
100
AcDbLine
 10
0.0
 20
154.8989547854
 30
0.0
 11
370.2153815766
 21
148.5383108406
 31
0.0
  0
LINE
  5
83
330
1F
100
AcDbEntity
  8
0
  6
Continuous
 62
     7
100
AcDbLine
 10
29.7978233952
 20
154.3870005167
 30
0.0
 11
340.4175581814
 21
149.0502651094
 31
0.0
  0
LINE
  5
84
330
1F
100
AcDbEntity
  8
0
  6
Continuous
 62
     7
100
AcDbLine
 10
27.0889303593
 20
157.4315861
 30
0.0
 11
27.0889303593
 21
171.4224594355
 31
0.0
  0
LINE
  5
85
330
1F
100
AcDbEntity
  8
0
  6
Continuous
 62
     7
100
AcDbLine
 10
29.7978233952
 20
174.3739624245
 30
0.0
 11
340.4175581814
 21
169.0372270172
 31
0.0
  0
LINE
  5
86
330
1F
100
AcDbEntity
  8
0
  6
Continuous
 62
     7
100
AcDbLine
 10
343.1264512173
 20
152.0017680984
 30
0.0
 11
343.1264512173
 21
165.9926414338
 31
0.0
  0
POINT
  5
87
330
1F
100
AcDbEntity
  8
0
  6
Continuous
 62
     7
100
AcDbPoint
 10
0.0
 20
0.0
 30
0.0
  0
POINT
  5
88
330
1F
100
AcDbEntity
  8
0
  6
Continuous
 62
     7
100
AcDbPoint
 10
370.2153815766
 20
293.4437846721
 30
0.0
  0
POINT
  5
89
330
1F
100
AcDbEntity
  8
0
  6
Continuous
 62
     7
100
AcDbPoint
 10
0.0
 20
299.8044286169
 30
0.0
  0
POINT
  5
8A
330
1F
100
AcDbEntity
  8
0
  6
Continuous
 62
     7
100
AcDbPoint
 10
343.1264512173
 20
149.0037238122
 30
0.0
  0
POINT
  5
8B
330
1F
100
AcDbEntity
  8
0
  6
Continuous
 62
     7
100
AcDbPoint
 10
343.1264512173
 20
168.99068572
 30
0.0
  0
POINT
  5
8C
330
1F
100
AcDbEntity
  8
0
  6
Continuous
 62
     7
100
AcDbPoint
 10
27.0889303593
 20
154.4335418138
 30
0.0
  0
LWPOLYLINE
  5
9F
330
1F
100
AcDbEntity
  8
0
  6
Continuous
 62
     7
370
    25
100
AcDbPolyline
 90
       17
 70
   128
 43
0.0
 10
280.5755272965
 20
18.375724334
 10
280.4208756433
 20
19.2388578013
 10
279.980464996
 20
19.9759011405
 10
279.3213438832
 20
20.4746461845
 10
278.5438575196
 20
20.6591635215
 10
277.7663711559
 20
20.5013620595
 10
277.1072500431
 20
20.0252656407
 10
276.6668393958
 20
19.3033556291
 10
276.5121877426
 20
18.4455362797
 10
276.6668393958
 20
17.5824028124
 10
277.1072500432
 20
16.8453594732
 10
277.7663711559
 20
16.3466144292
 10
278.5438575196
 20
16.1620970922
 10
279.3213438832
 20
16.3198985542
 10
279.980464996
 20
16.7959949729
 10
280.4208756433
 20
17.5179049846
 10
280.5755272965
 20
18.375724334
  0
LWPOLYLINE
  5
A0
330
1F
100
AcDbEntity
  8
0
  6
Continuous
 62
     7
370
    25
100
AcDbPolyline
 90
       17
 70
   128
 43
0.0
 10
316.6941011089
 20
17.5727499405
 10
316.5394494556
 20
18.4358834078
 10
316.0990388083
 20
19.172926747
 10
315.4399176956
 20
19.671671791
 10
314.6624313319
 20
19.856189128
 10
313.8849449682
 20
19.698387666
 10
313.2258238555
 20
19.2222912472
 10
312.7854132082
 20
18.5003812356
 10
312.630761555
 20
17.6425618862
 10
312.7854132082
 20
16.7794284189
 10
313.2258238555
 20
16.0423850797
 10
313.8849449682
 20
15.5436400357
 10
314.6624313319
 20
15.3591226987
 10
315.4399176956
 20
15.5169241607
 10
316.0990388083
 20
15.9930205794
 10
316.5394494556
 20
16.7149305911
 10
316.6941011089
 20
17.5727499405
  0
LWPOLYLINE
  5
A1
330
1F
100
AcDbEntity
  8
0
  6
Continuous
 62
     7
370
    25
100
AcDbPolyline
 90
       17
 70
   128
 43
0.0
 10
352.8126749212
 20
16.769775547
 10
352.658023268
 20
17.6329090143
 10
352.2176126207
 20
18.3699523535
 10
351.5584915079
 20
18.8686973975
 10
350.7810051443
 20
19.0532147344
 10
350.0035187806
 20
18.8954132725
 10
349.3443976678
 20
18.4193168537
 10
348.9039870205
 20
17.6974068421
 10
348.7493353673
 20
16.8395874927
 10
348.9039870205
 20
15.9764540254
 10
349.3443976678
 20
15.2394106862
 10
350.0035187806
 20
14.7406656422
 10
350.7810051443
 20
14.5561483052
 10
351.5584915079
 20
14.7139497672
 10
352.2176126207
 20
15.1900461859
 10
352.658023268
 20
15.9119561976
 10
352.8126749212
 20
16.769775547
  0
LWPOLYLINE
  5
A2
330
1F
100
AcDbEntity
  8
0
  6
Continuous
 62
     7
370
    25
100
AcDbPolyline
 90
       17
 70
   128
 43
0.0
 10
280.5755272965
 20
132.9359077743
 10
280.4208756433
 20
133.7990412416
 10
279.980464996
 20
134.5360845808
 10
279.3213438832
 20
135.0348296248
 10
278.5438575196
 20
135.2193469618
 10
277.7663711559
 20
135.0615454998
 10
277.1072500431
 20
134.5854490811
 10
276.6668393958
 20
133.8635390694
 10
276.5121877426
 20
133.00571972
 10
276.6668393958
 20
132.1425862527
 10
277.1072500432
 20
131.4055429135
 10
277.7663711559
 20
130.9067978695
 10
278.5438575196
 20
130.7222805325
 10
279.3213438832
 20
130.8800819945
 10
279.980464996
 20
131.3561784132
 10
280.4208756433
 20
132.0780884249
 10
280.5755272965
 20
132.9359077743
  0
LWPOLYLINE
  5
A3
330
1F
100
AcDbEntity
  8
0
  6
Continuous
 62
     7
370
    25
100
AcDbPolyline
 90
       17
 70
   128
 43
0.0
 10
316.6941011089
 20
132.3153571455
 10
316.5394494556
 20
133.1784906129
 10
316.0990388083
 20
133.9155339521
 10
315.4399176956
 20
134.4142789961
 10
314.6624313319
 20
134.598796333
 10
313.8849449682
 20
134.4409948711
 10
313.2258238555
 20
133.9648984523
 10
312.7854132082
 20
133.2429884406
 10
312.630761555
 20
132.3851690913
 10
312.7854132082
 20
131.5220356239
 10
313.2258238555
 20
130.7849922847
 10
313.8849449682
 20
130.2862472407
 10
314.6624313319
 20
130.1017299038
 10
315.4399176956
 20
130.2595313657
 10
316.0990388083
 20
130.7356277845
 10
316.5394494556
 20
131.4575377961
 10
316.6941011089
 20
132.3153571455
  0
LWPOLYLINE
  5
A4
330
1F
100
AcDbEntity
  8
0
  6
Continuous
 62
     7
370
    25
100
AcDbPolyline
 90
       17
 70
   128
 43
0.0
 10
352.8126749212
 20
131.6948065168
 10
352.658023268
 20
132.5579399841
 10
352.2176126207
 20
133.2949833233
 10
351.5584915079
 20
133.7937283673
 10
350.7810051443
 20
133.9782457043
 10
350.0035187806
 20
133.8204442423
 10
349.3443976678
 20
133.3443478235
 10
348.9039870205
 20
132.6224378119
 10
348.7493353673
 20
131.7646184625
 10
348.9039870205
 20
130.9014849952
 10
349.3443976678
 20
130.164441656
 10
350.0035187806
 20
129.665696612
 10
350.7810051443
 20
129.481179275
 10
351.5584915079
 20
129.638980737
 10
352.2176126207
 20
130.1150771557
 10
352.658023268
 20
130.8369871674
 10
352.8126749212
 20
131.6948065168
  0
LWPOLYLINE
  5
A5
330
1F
100
AcDbEntity
  8
0
  6
Continuous
 62
     7
370
    25
100
AcDbPolyline
 90
       18
 70
   128
 43
0.0
 10
271.9973660161
 20
101.1297881257
 10
271.8296843009
 20
102.1254360237
 10
271.3492855
 20
102.9923780111
 10
270.6210501336
 20
103.6135287686
 10
269.7433304232
 20
103.9049984444
 10
268.8346672791
 20
103.8274224438
 10
268.0177806943
 20
103.3912778355
 10
267.4029957283
 20
102.6554683656
 10
267.0733424976
 20
101.7193691803
 10
267.0733424976
 20
100.7094056617
 10
267.4029957283
 20
99.7619789793
 10
268.0177806943
 20
99.0050443565
 10
268.8346672791
 20
98.5408300085
 10
269.7433304232
 20
98.4320306551
 10
270.6210501336
 20
98.693340252
 10
271.3492855
 20
99.2894674902
 10
271.8296843009
 20
100.1399020828
 10
271.9973660161
 20
101.1297881257
  0
LWPOLYLINE
  5
A6
330
1F
100
AcDbEntity
  8
0
  6
Continuous
 62
     7
370
    25
100
AcDbPolyline
 90
       18
 70
   128
 43
0.0
 10
35.5742114839
 20
105.1917574039
 10
35.4065297687
 20
106.1874053019
 10
34.9261309679
 20
107.0543472893
 10
34.1978956015
 20
107.6754980468
 10
33.320175891
 20
107.9669677226
 10
32.411512747
 20
107.889391722
 10
31.5946261621
 20
107.4532471137
 10
30.9798411961
 20
106.7174376438
 10
30.6501879654
 20
105.7813384585
 10
30.6501879654
 20
104.7713749399
 10
30.9798411961
 20
103.8239482575
 10
31.5946261621
 20
103.0670136347
 10
32.411512747
 20
102.6027992867
 10
33.320175891
 20
102.4939999333
 10
34.1978956015
 20
102.7553095302
 10
34.9261309679
 20
103.3514367684
 10
35.4065297687
 20
104.201871361
 10
35.5742114839
 20
105.1917574039
  0
LWPOLYLINE
  5
A7
330
1F
100
AcDbEntity
  8
0
  6
Continuous
 62
     7
370
    25
100
AcDbPolyline
 90
       18
 70
   128
 43
0.0
 10
35.5742114839
 20
211.1226555152
 10
35.4065297687
 20
212.1183034132
 10
34.9261309679
 20
212.9852454006
 10
34.1978956015
 20
213.6063961581
 10
33.320175891
 20
213.8978658339
 10
32.411512747
 20
213.8202898333
 10
31.5946261621
 20
213.384145225
 10
30.9798411961
 20
212.6483357551
 10
30.6501879654
 20
211.7122365698
 10
30.6501879654
 20
210.7022730512
 10
30.9798411961
 20
209.7548463688
 10
31.5946261621
 20
208.997911746
 10
32.411512747
 20
208.533697398
 10
33.320175891
 20
208.4248980446
 10
34.1978956015
 20
208.6862076415
 10
34.9261309679
 20
209.2823348797
 10
35.4065297687
 20
210.1327694723
 10
35.5742114839
 20
211.1226555152
  0
LWPOLYLINE
  5
A8
330
1F
100
AcDbEntity
  8
0
  6
Continuous
 62
     7
370
    25
100
AcDbPolyline
 90
       18
 70
   128
 43
0.0
 10
271.9973660161
 20
207.060686237
 10
271.8296843009
 20
208.056334135
 10
271.3492855
 20
208.9232761224
 10
270.6210501336
 20
209.5444268799
 10
269.7433304232
 20
209.8358965557
 10
268.8346672791
 20
209.7583205551
 10
268.0177806943
 20
209.3221759468
 10
267.4029957283
 20
208.5863664769
 10
267.0733424976
 20
207.6502672916
 10
267.0733424976
 20
206.640303773
 10
267.4029957283
 20
205.6928770906
 10
268.0177806943
 20
204.9359424678
 10
268.8346672791
 20
204.4717281198
 10
269.7433304232
 20
204.3629287664
 10
270.6210501336
 20
204.6242383633
 10
271.3492855
 20
205.2203656015
 10
271.8296843009
 20
206.0708001941
 10
271.9973660161
 20
207.060686237
  0
LINE
  5
C4
330
1F
100
AcDbEntity
  8
0
  6
Continuous
 62
     7
370
    25
100
AcDbLine
 10
364.7036948828
 20
-6.3763261485
 30
0.0
 11
366.0787844089
 21
-6.2720087344
 31
0.0
  0
LINE
  5
C5
330
1F
100
AcDbEntity
  8
0
  6
Continuous
 62
     7
370
    25
100
AcDbLine
 10
4.1365971676
 20
299.7157934065
 30
0.0
 11
2.7615076415
 21
299.6114759923
 31
0.0
  0
LINE
  5
C6
330
1F
100
AcDbEntity
  8
0
  6
Continuous
 62
     7
370
    25
100
AcDbLine
 10
341.7513616912
 20
151.8974506842
 30
0.0
 11
341.7513616912
 21
165.8883240197
 31
0.0
  0
LINE
  5
C7
330
1F
100
AcDbEntity
  8
0
  6
Continuous
 62
     7
370
    25
100
AcDbLine
 10
339.0424686552
 20
168.932909603
 30
0.0
 11
28.4227338691
 21
174.2696450103
 31
0.0
  0
LINE
  5
C8
330
1F
100
AcDbEntity
  8
0
  6
Continuous
 62
     7
370
    25
100
AcDbLine
 10
25.7138408331
 20
171.3181420213
 30
0.0
 11
25.7138408331
 21
157.3272686858
 31
0.0
  0
LINE
  5
C9
330
1F
100
AcDbEntity
  8
0
  6
Continuous
 62
     7
370
    25
100
AcDbLine
 10
28.4227338691
 20
154.2826831025
 30
0.0
 11
339.0424686552
 21
148.9459476952
 31
0.0
  0
LINE
  5
CA
330
1F
100
AcDbEntity
  8
0
  6
Continuous
 62
     7
370
    25
100
AcDbLine
 10
-1.3750895261
 20
294.7033707258
 30
0.0
 11
-1.3750895261
 21
4.8924230628
 31
0.0
  0
LINE
  5
CB
330
1F
100
AcDbEntity
  8
0
  6
Continuous
 62
     7
370
    25
100
AcDbLine
 10
364.3254703239
 20
293.4170360866
 30
0.0
 11
3.1397322004
 21
299.6225423741
 31
0.0
  0
LINE
  5
CC
330
1F
100
AcDbEntity
  8
0
  6
Continuous
 62
     7
370
    25
100
AcDbLine
 10
368.8402920504
 20
-1.468220882
 30
0.0
 11
368.8402920504
 21
288.342726781
 31
0.0
  0
LINE
  5
CD
330
1F
100
AcDbEntity
  8
0
  6
Continuous
 62
     7
370
    25
100
AcDbLine
 10
3.1397322004
 20
-0.1818862428
 30
0.0
 11
364.3254703239
 21
-6.3873925303
 31
0.0
  0
LINE
  5
CE
330
1F
100
AcDbEntity
  8
0
  6
Continuous
 62
     7
370
    25
100
AcDbLine
 10
368.8402920504
 20
288.342726781
 30
0.0
 11
370.2153815766
 21
288.4470441952
 31
0.0
  0
LINE
  5
CF
330
1F
100
AcDbEntity
  8
0
  6
Continuous
 62
     7
370
    25
100
AcDbLine
 10
364.3254703239
 20
293.4170360866
 30
0.0
 11
365.70055985
 21
293.5213535007
 31
0.0
  0
LINE
  5
D0
330
1F
100
AcDbEntity
  8
0
  6
Continuous
 62
     7
370
    25
100
AcDbLine
 10
368.8402920504
 20
-1.468220882
 30
0.0
 11
370.2153815766
 21
-1.3639034678
 31
0.0
  0
LINE
  5
D1
330
1F
100
AcDbEntity
  8
0
  6
Continuous
 62
     7
370
    25
100
AcDbLine
 10
370.2153815766
 20
-1.3639034678
 30
0.0
 11
370.2153815766
 21
288.4470441952
 31
0.0
  0
LINE
  5
D2
330
1F
100
AcDbEntity
  8
0
  6
Continuous
 62
     7
370
    25
100
AcDbLine
 10
3.1397322004
 20
299.6225423741
 30
0.0
 11
4.5148217265
 21
299.7268597883
 31
0.0
  0
LINE
  5
D3
330
1F
100
AcDbEntity
  8
0
  6
Continuous
 62
     7
370
    25
100
AcDbLine
 10
365.70055985
 20
293.5213535007
 30
0.0
 11
4.5148217265
 21
299.7268597883
 31
0.0
  0
LINE
  5
D4
330
1F
100
AcDbEntity
  8
0
  6
Continuous
 62
     7
370
    25
100
AcDbLine
 10
28.4227338691
 20
154.2826831025
 30
0.0
 11
29.7978233952
 21
154.3870005167
 31
0.0
  0
LINE
  5
D5
330
1F
100
AcDbEntity
  8
0
  6
Continuous
 62
     7
370
    25
100
AcDbLine
 10
29.7978233952
 20
154.3870005167
 30
0.0
 11
339.8253790639
 21
149.0604392964
 31
0.0
  0
LINE
  5
D6
330
1F
100
AcDbEntity
  8
0
  6
Continuous
 62
     7
370
    25
100
AcDbLine
 10
25.7138408331
 20
171.3181420213
 30
0.0
 11
27.0889303593
 21
171.4224594355
 31
0.0
  0
LINE
  5
D7
330
1F
100
AcDbEntity
  8
0
  6
Continuous
 62
     7
370
    25
100
AcDbLine
 10
25.7138408331
 20
157.3272686858
 30
0.0
 11
27.0889303593
 21
157.4315861
 31
0.0
  0
LINE
  5
D8
330
1F
100
AcDbEntity
  8
0
  6
Continuous
 62
     7
370
    25
100
AcDbLine
 10
27.0889303593
 20
171.4224594355
 30
0.0
 11
27.0889303593
 21
157.4315861
 31
0.0
  0
LINE
  5
D9
330
1F
100
AcDbEntity
  8
0
  6
Continuous
 62
     7
370
    25
100
AcDbLine
 10
4.5148217265
 20
299.7268597883
 30
0.0
 11
4.1365971676
 21
299.7157934065
 31
0.0
  0
LINE
  5
DA
330
1F
100
AcDbEntity
  8
0
  6
Continuous
 62
     7
370
    25
100
AcDbLine
 10
339.0424686552
 20
148.9459476952
 30
0.0
 11
339.4947426759
 21
148.9802582295
 31
0.0
  0
ARC
  5
DB
330
1F
100
AcDbEntity
  8
0
  6
Continuous
 62
     7
370
    25
100
AcDbCircle
 10
338.8314725933
 20
166.0177781518
 30
0.0
 40
2.922757382354341
100
AcDbArc
 50
357.4614373674
 51
85.8601733104
  0
ARC
  5
DC
330
1F
100
AcDbEntity
  8
0
  6
Continuous
 62
     7
370
    25
100
AcDbCircle
 10
28.5177945355
 20
171.4635340576
 30
0.0
 40
2.807720643029958
100
AcDbArc
 50
91.9402272422
 51
182.9682716154
  0
ARC
  5
DD
330
1F
100
AcDbEntity
  8
0
  6
Continuous
 62
     7
370
    25
100
AcDbCircle
 10
28.633729931
 20
157.1978145537
 30
0.0
 40
2.922757382354311
100
AcDbArc
 50
177.4614373674
 51
265.8601733104
  0
ARC
  5
DE
330
1F
100
AcDbEntity
  8
0
  6
Continuous
 62
     7
370
    25
100
AcDbCircle
 10
338.9474079888
 20
151.7520586479
 30
0.0
 40
2.807720643030192
100
AcDbArc
 50
271.9402272422
 51
2.9682716154
  0
ARC
  5
DF
330
1F
100
AcDbEntity
  8
0
  6
Continuous
 62
     7
370
    25
100
AcDbCircle
 10
3.2981666445
 20
294.9456907863
 30
0.0
 40
4.679534405050007
100
AcDbArc
 50
91.9402272422
 51
182.9682716154
  0
ARC
  5
E0
330
1F
100
AcDbEntity
  8
0
  6
Continuous
 62
     7
370
    25
100
AcDbCircle
 10
363.9738102207
 20
288.5584836679
 30
0.0
 40
4.871262303923994
100
AcDbArc
 50
357.4614373674
 51
85.8601733104
  0
ARC
  5
E1
330
1F
100
AcDbEntity
  8
0
  6
Continuous
 62
     7
370
    25
100
AcDbCircle
 10
364.1670358798
 20
-1.7105409425
 30
0.0
 40
4.679534405049977
100
AcDbArc
 50
271.9402272422
 51
2.9682716154
  0
ARC
  5
E2
330
1F
100
AcDbEntity
  8
0
  6
Continuous
 62
     7
370
    25
100
AcDbCircle
 10
3.4913923036
 20
4.676666176
 30
0.0
 40
4.871262303923768
100
AcDbArc
 50
177.4614373674
 51
265.8601733104
  0
ARC
  5
E3
330
1F
100
AcDbEntity
  8
0
  6
Continuous
 62
     7
370
    25
100
AcDbCircle
 10
365.3488997468
 20
288.662801082
 30
0.0
 40
4.871262303923774
100
AcDbArc
 50
357.4614373674
 51
85.8601733104
  0
ARC
  5
E4
330
1F
100
AcDbEntity
  8
0
  6
Continuous
 62
     7
370
    25
100
AcDbCircle
 10
365.5084084942
 20
-1.5940564771
 30
0.0
 40
4.712596524788494
100
AcDbArc
 50
276.9516773775
 51
2.7993153423
  0
ARC
  5
E5
330
1F
100
AcDbEntity
  8
0
  6
Continuous
 62
     7
370
    25
100
AcDbCircle
 10
352.4115034747
 20
131.8534057957
 30
0.0
 40
2.317952600797039
100
AcDbArc
 50
118.4158702935
 51
250.2606862987
  0
ARC
  5
E6
330
1F
100
AcDbEntity
  8
0
  6
Continuous
 62
     7
370
    25
100
AcDbCircle
 10
352.4115034747
 20
16.9283748259
 30
0.0
 40
2.317952600797826
100
AcDbArc
 50
118.4158702937
 51
250.2606862984
  0
ARC
  5
E7
330
1F
100
AcDbEntity
  8
0
  6
Continuous
 62
     7
370
    25
100
AcDbCircle
 10
316.2929296624
 20
132.4739564245
 30
0.0
 40
2.317952600798743
100
AcDbArc
 50
118.415870294
 51
250.2606862981
  0
ARC
  5
E8
330
1F
100
AcDbEntity
  8
0
  6
Continuous
 62
     7
370
    25
100
AcDbCircle
 10
316.2929296624
 20
17.7313492194
 30
0.0
 40
2.317952600798507
100
AcDbArc
 50
118.415870294
 51
250.2606862982
  0
ARC
  5
E9
330
1F
100
AcDbEntity
  8
0
  6
Continuous
 62
     7
370
    25
100
AcDbCircle
 10
280.17435585
 20
133.0945070532
 30
0.0
 40
2.31795260079764
100
AcDbArc
 50
118.4158702937
 51
250.2606862985
  0
ARC
  5
EA
330
1F
100
AcDbEntity
  8
0
  6
Continuous
 62
     7
370
    25
100
AcDbCircle
 10
271.1996045344
 20
207.231206641
 30
0.0
 40
2.824898581501345
100
AcDbArc
 50
115.0856035496
 51
253.5909530425
  0
ARC
  5
EB
330
1F
100
AcDbEntity
  8
0
  6
Continuous
 62
     7
370
    25
100
AcDbCircle
 10
280.17435585
 20
18.5343236129
 30
0.0
 40
2.317952600798348
100
AcDbArc
 50
118.4158702939
 51
250.2606862982
  0
ARC
  5
EC
330
1F
100
AcDbEntity
  8
0
  6
Continuous
 62
     7
370
    25
100
AcDbCircle
 10
271.1996045344
 20
101.3003085297
 30
0.0
 40
2.824898581503178
100
AcDbArc
 50
115.0856035501
 51
253.5909530421
  0
ARC
  5
ED
330
1F
100
AcDbEntity
  8
0
  6
Continuous
 62
     7
370
    25
100
AcDbCircle
 10
34.7764500023
 20
211.2931759192
 30
0.0
 40
2.824898581503835
100
AcDbArc
 50
115.0856035502
 51
253.5909530419
  0
ARC
  5
EE
330
1F
100
AcDbEntity
  8
0
  6
Continuous
 62
     7
370
    25
100
AcDbCircle
 10
34.7764500023
 20
105.3622778079
 30
0.0
 40
2.824898581503224
100
AcDbArc
 50
115.0856035501
 51
253.5909530421
  0
ARC
  5
EF
330
1F
100
AcDbEntity
  8
0
  6
Continuous
 62
     7
370
    25
100
AcDbCircle
 10
30.0125014173
 20
171.5099720487
 30
0.0
 40
2.924880542624041
100
AcDbArc
 50
109.9420656557
 51
181.7145492734
  0
ARC
  5
F0
330
1F
100
AcDbEntity
  8
0
  6
Continuous
 62
     7
370
    25
100
AcDbCircle
 10
30.0088194571
 20
157.3021319679
 30
0.0
 40
2.922757382354332
100
AcDbArc
 50
177.4614373674
 51
265.8601733104
  0
MTEXT
  5
F2
330
1F
100
AcDbEntity
  8
0
  6
Continuous
 62
     7
100
AcDbMText
 10
-1.3813677606
 20
-7.406958922
 30
0.0
 40
4.83362
 41
0.0
 71
     1
 72
     1
  1
SOLIDWORKS Educational Product.
  7
SLDTEXTSTYLE0
 73
     1
 44
1.0
  0
MTEXT
  5
F3
330
1F
100
AcDbEntity
  8
0
  6
Continuous
 62
     7
100
AcDbMText
 10
-1.3813677606
 20
-14.657388922
 30
0.0
 40
4.83362
 41
0.0
 71
     1
 72
     1
  1
For Instructional Use Only.
  7
SLDTEXTSTYLE0
 73
     1
 44
1.0
  0
ENDSEC
  0
SECTION
  2
OBJECTS
  0
DICTIONARY
  5
C
330
0
100
AcDbDictionary
281
     1
  3
ACAD_GROUP
350
D
  3
ACAD_LAYOUT
350
1A
  3
ACAD_MLINESTYLE
350
17
  3
ACAD_PLOTSETTINGS
350
19
  3
ACAD_PLOTSTYLENAME
350
E
  3
ACAD_SCALELIST
350
47
  3
DWGPROPS
350
F4
  0
DICTIONARY
  5
D
102
{ACAD_REACTORS
330
C
102
}
330
C
100
AcDbDictionary
281
     1
  0
DICTIONARY
  5
1A
102
{ACAD_REACTORS
330
C
102
}
330
C
100
AcDbDictionary
281
     1
  3
Layout1
350
1E
  3
Layout2
350
26
  3
Model
350
22
  0
DICTIONARY
  5
17
102
{ACAD_REACTORS
330
C
102
}
330
C
100
AcDbDictionary
281
     1
  3
Standard
350
18
  0
DICTIONARY
  5
19
102
{ACAD_REACTORS
330
C
102
}
330
C
100
AcDbDictionary
281
     1
  0
ACDBDICTIONARYWDFLT
  5
E
102
{ACAD_REACTORS
330
C
102
}
330
C
100
AcDbDictionary
281
     1
  3
Normal
350
F
100
AcDbDictionaryWithDefault
340
F
  0
DICTIONARY
  5
47
102
{ACAD_REACTORS
330
C
102
}
330
C
100
AcDbDictionary
281
     1
  3
A0
350
48
  3
A1
350
49
  3
A2
350
4A
  3
A3
350
4B
  3
A4
350
4C
  3
A5
350
4D
  3
A6
350
4E
  3
A7
350
4F
  3
A8
350
50
  3
A9
350
51
  3
B0
350
52
  3
B1
350
53
  3
B2
350
54
  3
B3
350
55
  3
B4
350
56
  3
B5
350
57
  3
B6
350
58
  0
XRECORD
  5
F4
102
{ACAD_REACTORS
330
C
102
}
330
C
100
AcDbXrecord
280
     1
  1
DWGPROPS COOKIE
  2

  3

  4

  6

  7

  8
User
  9

300
=
301
=
302
=
303
=
304
=
305
=
306
=
307
=
308
=
309
=
 40
0.0
 41
2460525.362306841
 42
2460525.362411586
  1

 90
        0
  0
LAYOUT
  5
1E
102
{ACAD_REACTORS
330
1A
102
}
330
1A
100
AcDbPlotSettings
  1

  2
none_device
  4

  6

 40
0.0
 41
0.0
 42
0.0
 43
0.0
 44
0.0
 45
0.0
 46
0.0
 47
0.0
 48
0.0
 49
0.0
140
0.0
141
0.0
142
1.0
143
1.0
 70
   688
 72
     1
 73
     0
 74
     5
  7

 75
    16
147
1.0
148
0.0
149
0.0
100
AcDbLayout
  1
Layout1
 70
     1
 71
     1
 10
0.0
 20
0.0
 11
420.0
 21
297.0
 12
0.0
 22
0.0
 32
0.0
 14
1.0000000000E+20
 24
1.0000000000E+20
 34
1.0000000000E+20
 15
-1.0000000000E+20
 25
-1.0000000000E+20
 35
-1.0000000000E+20
146
0.0
 13
0.0
 23
0.0
 33
0.0
 16
1.0
 26
0.0
 36
0.0
 17
0.0
 27
1.0
 37
0.0
 76
     0
330
1B
  0
LAYOUT
  5
26
102
{ACAD_REACTORS
330
1A
102
}
330
1A
100
AcDbPlotSettings
  1

  2
none_device
  4

  6

 40
0.0
 41
0.0
 42
0.0
 43
0.0
 44
0.0
 45
0.0
 46
0.0
 47
0.0
 48
0.0
 49
0.0
140
0.0
141
0.0
142
1.0
143
1.0
 70
   688
 72
     1
 73
     0
 74
     5
  7

 75
    16
147
1.0
148
0.0
149
0.0
100
AcDbLayout
  1
Layout2
 70
     1
 71
     2
 10
0.0
 20
0.0
 11
0.0
 21
0.0
 12
0.0
 22
0.0
 32
0.0
 14
0.0
 24
0.0
 34
0.0
 15
0.0
 25
0.0
 35
0.0
146
0.0
 13
0.0
 23
0.0
 33
0.0
 16
1.0
 26
0.0
 36
0.0
 17
0.0
 27
1.0
 37
0.0
 76
     0
330
23
  0
LAYOUT
  5
22
102
{ACAD_REACTORS
330
1A
102
}
330
1A
100
AcDbPlotSettings
  1

  2
none_device
  4
ANSI_A_(11.00_x_8.50_Inches)
  6

 40
6.35
 41
19.05
 42
6.35000508
 43
19.05000254
 44
279.4
 45
215.9
 46
4.6134547727
 47
-13.511702659
 48
0.0
 49
0.0
140
0.0
141
0.0
142
0.027482772
143
1.0
 70
  1696
 72
     0
 73
     0
 74
     0
  7

 75
     0
147
0.0179189148
148
-1300.4909072572
149
0.0
100
AcDbLayout
  1
Model
 70
     1
 71
     0
 10
0.0
 20
0.0
 11
420.0
 21
297.0
 12
0.0
 22
0.0
 32
0.0
 14
-1.3813677606
 24
-6.3873925303
 34
0.0
 15
370.221005019
 25
299.8044286169
 35
0.0
146
0.0
 13
0.0
 23
0.0
 33
0.0
 16
1.0
 26
0.0
 36
0.0
 17
0.0
 27
1.0
 37
0.0
 76
     0
330
1F
331
29
  0
MLINESTYLE
  5
18
102
{ACAD_REACTORS
330
17
102
}
330
17
100
AcDbMlineStyle
  2
Standard
 70
     0
  3

 62
   256
 51
90.0
 52
90.0
 71
     2
 49
0.5
 62
   256
  6
BYLAYER
 49
-0.5
 62
   256
  6
BYLAYER
  0
ACDBPLACEHOLDER
  5
F
102
{ACAD_REACTORS
330
E
102
}
330
E
  0
SCALE
  5
48
102
{ACAD_REACTORS
330
47
102
}
330
47
100
AcDbScale
 70
     0
300
1:1
140
1.0
141
1.0
290
     1
  0
SCALE
  5
49
102
{ACAD_REACTORS
330
47
102
}
330
47
100
AcDbScale
 70
     0
300
1:2
140
1.0
141
2.0
290
     0
  0
SCALE
  5
4A
102
{ACAD_REACTORS
330
47
102
}
330
47
100
AcDbScale
 70
     0
300
1:4
140
1.0
141
4.0
290
     0
  0
SCALE
  5
4B
102
{ACAD_REACTORS
330
47
102
}
330
47
100
AcDbScale
 70
     0
300
1:5
140
1.0
141
5.0
290
     0
  0
SCALE
  5
4C
102
{ACAD_REACTORS
330
47
102
}
330
47
100
AcDbScale
 70
     0
300
1:8
140
1.0
141
8.0
290
     0
  0
SCALE
  5
4D
102
{ACAD_REACTORS
330
47
102
}
330
47
100
AcDbScale
 70
     0
300
1:10
140
1.0
141
10.0
290
     0
  0
SCALE
  5
4E
102
{ACAD_REACTORS
330
47
102
}
330
47
100
AcDbScale
 70
     0
300
1:16
140
1.0
141
16.0
290
     0
  0
SCALE
  5
4F
102
{ACAD_REACTORS
330
47
102
}
330
47
100
AcDbScale
 70
     0
300
1:20
140
1.0
141
20.0
290
     0
  0
SCALE
  5
50
102
{ACAD_REACTORS
330
47
102
}
330
47
100
AcDbScale
 70
     0
300
1:30
140
1.0
141
30.0
290
     0
  0
SCALE
  5
51
102
{ACAD_REACTORS
330
47
102
}
330
47
100
AcDbScale
 70
     0
300
1:40
140
1.0
141
40.0
290
     0
  0
SCALE
  5
52
102
{ACAD_REACTORS
330
47
102
}
330
47
100
AcDbScale
 70
     0
300
1:50
140
1.0
141
50.0
290
     0
  0
SCALE
  5
53
102
{ACAD_REACTORS
330
47
102
}
330
47
100
AcDbScale
 70
     0
300
1:100
140
1.0
141
100.0
290
     0
  0
SCALE
  5
54
102
{ACAD_REACTORS
330
47
102
}
330
47
100
AcDbScale
 70
     0
300
2:1
140
2.0
141
1.0
290
     0
  0
SCALE
  5
55
102
{ACAD_REACTORS
330
47
102
}
330
47
100
AcDbScale
 70
     0
300
4:1
140
4.0
141
1.0
290
     0
  0
SCALE
  5
56
102
{ACAD_REACTORS
330
47
102
}
330
47
100
AcDbScale
 70
     0
300
8:1
140
8.0
141
1.0
290
     0
  0
SCALE
  5
57
102
{ACAD_REACTORS
330
47
102
}
330
47
100
AcDbScale
 70
     0
300
10:1
140
10.0
141
1.0
290
     0
  0
SCALE
  5
58
102
{ACAD_REACTORS
330
47
102
}
330
47
100
AcDbScale
 70
     0
300
100:1
140
100.0
141
1.0
290
     0
  0
ENDSEC
  0
EOF
