G04 #@! TF.GenerationSoftware,KiCad,Pcbnew,7.0.7*
G04 #@! TF.CreationDate,2024-07-30T23:44:59+02:00*
G04 #@! TF.ProjectId,linefollower_pcb,6c696e65-666f-46c6-9c6f-7765725f7063,rev?*
G04 #@! TF.SameCoordinates,Original*
G04 #@! TF.FileFunction,Legend,Bot*
G04 #@! TF.FilePolarity,Positive*
%FSLAX46Y46*%
G04 Gerber Fmt 4.6, Leading zero omitted, Abs format (unit mm)*
G04 Created by KiCad (PCBNEW 7.0.7) date 2024-07-30 23:44:59*
%MOMM*%
%LPD*%
G01*
G04 APERTURE LIST*
%ADD10C,0.300000*%
%ADD11O,0.900000X1.600000*%
%ADD12R,1.700000X1.700000*%
%ADD13O,1.700000X1.700000*%
%ADD14C,0.800000*%
%ADD15C,5.400000*%
%ADD16C,2.000000*%
G04 APERTURE END LIST*
D10*
X87771427Y-100099757D02*
X87914285Y-100028328D01*
X87914285Y-100028328D02*
X88128570Y-100028328D01*
X88128570Y-100028328D02*
X88342856Y-100099757D01*
X88342856Y-100099757D02*
X88485713Y-100242614D01*
X88485713Y-100242614D02*
X88557142Y-100385471D01*
X88557142Y-100385471D02*
X88628570Y-100671185D01*
X88628570Y-100671185D02*
X88628570Y-100885471D01*
X88628570Y-100885471D02*
X88557142Y-101171185D01*
X88557142Y-101171185D02*
X88485713Y-101314042D01*
X88485713Y-101314042D02*
X88342856Y-101456900D01*
X88342856Y-101456900D02*
X88128570Y-101528328D01*
X88128570Y-101528328D02*
X87985713Y-101528328D01*
X87985713Y-101528328D02*
X87771427Y-101456900D01*
X87771427Y-101456900D02*
X87699999Y-101385471D01*
X87699999Y-101385471D02*
X87699999Y-100885471D01*
X87699999Y-100885471D02*
X87985713Y-100885471D01*
X86842856Y-100028328D02*
X86842856Y-100385471D01*
X87199999Y-100242614D02*
X86842856Y-100385471D01*
X86842856Y-100385471D02*
X86485713Y-100242614D01*
X87057142Y-100671185D02*
X86842856Y-100385471D01*
X86842856Y-100385471D02*
X86628570Y-100671185D01*
X85699999Y-100028328D02*
X85699999Y-100385471D01*
X86057142Y-100242614D02*
X85699999Y-100385471D01*
X85699999Y-100385471D02*
X85342856Y-100242614D01*
X85914285Y-100671185D02*
X85699999Y-100385471D01*
X85699999Y-100385471D02*
X85485713Y-100671185D01*
X84557142Y-100028328D02*
X84557142Y-100385471D01*
X84914285Y-100242614D02*
X84557142Y-100385471D01*
X84557142Y-100385471D02*
X84199999Y-100242614D01*
X84771428Y-100671185D02*
X84557142Y-100385471D01*
X84557142Y-100385471D02*
X84342856Y-100671185D01*
G36*
X96712626Y-115730808D02*
G01*
X93762121Y-115730808D01*
X90811616Y-115730808D01*
X90811616Y-113934849D01*
X92607575Y-113934849D01*
X93904461Y-113934849D01*
X95201347Y-113934849D01*
X95123148Y-112716162D01*
X95044949Y-111497475D01*
X93826262Y-111419276D01*
X92607575Y-111341077D01*
X92607575Y-112637963D01*
X92607575Y-113934849D01*
X90811616Y-113934849D01*
X90811616Y-112780303D01*
X90811616Y-109829798D01*
X93762121Y-109829798D01*
X96712626Y-109829798D01*
X96712626Y-112780303D01*
X96712626Y-113934849D01*
X96712626Y-115730808D01*
G37*
G36*
X89272222Y-112780303D02*
G01*
X89272222Y-115730808D01*
X86321717Y-115730808D01*
X83371212Y-115730808D01*
X83371212Y-113934849D01*
X84882491Y-113934849D01*
X86179377Y-113934849D01*
X87476262Y-113934849D01*
X87476262Y-112637963D01*
X87476262Y-111341077D01*
X86257575Y-111419276D01*
X85038889Y-111497475D01*
X84960690Y-112716162D01*
X84882491Y-113934849D01*
X83371212Y-113934849D01*
X83371212Y-112780303D01*
X83371212Y-109829798D01*
X86321717Y-109829798D01*
X89272222Y-109829798D01*
X89272222Y-111341077D01*
X89272222Y-112780303D01*
G37*
G36*
X89272222Y-105211616D02*
G01*
X89272222Y-108290404D01*
X86321717Y-108290404D01*
X83371212Y-108290404D01*
X83371212Y-106366162D01*
X85038889Y-106366162D01*
X86257575Y-106444361D01*
X87476262Y-106522560D01*
X87476262Y-105211616D01*
X87476262Y-103900673D01*
X86257575Y-103978872D01*
X85038889Y-104057071D01*
X85038889Y-105211616D01*
X85038889Y-106366162D01*
X83371212Y-106366162D01*
X83371212Y-105211616D01*
X83371212Y-102132829D01*
X86321717Y-102132829D01*
X89272222Y-102132829D01*
X89272222Y-103900673D01*
X89272222Y-105211616D01*
G37*
G36*
X89272222Y-97642930D02*
G01*
X89272222Y-100593435D01*
X86321717Y-100593435D01*
X83371212Y-100593435D01*
X83371212Y-97642930D01*
X83371212Y-96488384D01*
X84882491Y-96488384D01*
X84960690Y-97707071D01*
X85038889Y-98925758D01*
X86257575Y-99003957D01*
X87476262Y-99082156D01*
X87476262Y-97785270D01*
X87476262Y-96488384D01*
X86179377Y-96488384D01*
X84882491Y-96488384D01*
X83371212Y-96488384D01*
X83371212Y-94692425D01*
X86321717Y-94692425D01*
X89272222Y-94692425D01*
X89272222Y-96488384D01*
X89272222Y-97642930D01*
G37*
G36*
X81575252Y-115730808D02*
G01*
X78624747Y-115730808D01*
X75674242Y-115730808D01*
X75674242Y-113934849D01*
X77470202Y-113934849D01*
X78767088Y-113934849D01*
X80063973Y-113934849D01*
X79985774Y-112716162D01*
X79907575Y-111497475D01*
X78688889Y-111419276D01*
X77470202Y-111341077D01*
X77470202Y-112637963D01*
X77470202Y-113934849D01*
X75674242Y-113934849D01*
X75674242Y-112780303D01*
X75674242Y-109829798D01*
X78624747Y-109829798D01*
X81575252Y-109829798D01*
X81575252Y-112780303D01*
X81575252Y-113934849D01*
X81575252Y-115730808D01*
G37*
G36*
X96712626Y-108290404D02*
G01*
X93762121Y-108290404D01*
X90811616Y-108290404D01*
X90811616Y-106494445D01*
X92607575Y-106494445D01*
X93770173Y-106494445D01*
X94394183Y-106463756D01*
X94932456Y-106263299D01*
X95146259Y-105782679D01*
X95127168Y-104915334D01*
X95082286Y-104548456D01*
X94934377Y-104203835D01*
X94564102Y-104048814D01*
X93826262Y-103978872D01*
X92607575Y-103900673D01*
X92607575Y-105197559D01*
X92607575Y-106494445D01*
X90811616Y-106494445D01*
X90811616Y-105211616D01*
X90811616Y-102132829D01*
X93762121Y-102132829D01*
X96712626Y-102132829D01*
X96712626Y-105211616D01*
X96712626Y-105782679D01*
X96712626Y-108290404D01*
G37*
G36*
X96712626Y-97642930D02*
G01*
X96712626Y-100593435D01*
X93762121Y-100593435D01*
X90811616Y-100593435D01*
X90811616Y-99054041D01*
X92607575Y-99054041D01*
X93719360Y-99054041D01*
X94006385Y-99048454D01*
X94660489Y-98988162D01*
X95002188Y-98882997D01*
X95045486Y-98803382D01*
X95136842Y-98320130D01*
X95173232Y-97600169D01*
X95173232Y-96488384D01*
X93890404Y-96488384D01*
X92607575Y-96488384D01*
X92607575Y-97771212D01*
X92607575Y-99054041D01*
X90811616Y-99054041D01*
X90811616Y-97642930D01*
X90811616Y-94692425D01*
X93762121Y-94692425D01*
X96712626Y-94692425D01*
X96712626Y-96488384D01*
X96712626Y-97642930D01*
G37*
G36*
X81575252Y-108290404D02*
G01*
X78624747Y-108290404D01*
X75674242Y-108290404D01*
X75674242Y-106494445D01*
X77470202Y-106494445D01*
X78632799Y-106494445D01*
X79256810Y-106463756D01*
X79795082Y-106263299D01*
X80008886Y-105782679D01*
X79989794Y-104915334D01*
X79944913Y-104548456D01*
X79797003Y-104203835D01*
X79426728Y-104048814D01*
X78688889Y-103978872D01*
X77470202Y-103900673D01*
X77470202Y-105197559D01*
X77470202Y-106494445D01*
X75674242Y-106494445D01*
X75674242Y-105211616D01*
X75674242Y-102132829D01*
X78624747Y-102132829D01*
X81575252Y-102132829D01*
X81575252Y-105211616D01*
X81575252Y-105782679D01*
X81575252Y-108290404D01*
G37*
G36*
X81575252Y-97642930D02*
G01*
X81575252Y-100593435D01*
X78624747Y-100593435D01*
X75674242Y-100593435D01*
X75674242Y-99054041D01*
X77470202Y-99054041D01*
X78581986Y-99054041D01*
X78869011Y-99048454D01*
X79523116Y-98988162D01*
X79864815Y-98882997D01*
X79908113Y-98803382D01*
X79999468Y-98320130D01*
X80035858Y-97600169D01*
X80035858Y-96488384D01*
X78753030Y-96488384D01*
X77470202Y-96488384D01*
X77470202Y-97771212D01*
X77470202Y-99054041D01*
X75674242Y-99054041D01*
X75674242Y-97642930D01*
X75674242Y-94692425D01*
X78624747Y-94692425D01*
X81575252Y-94692425D01*
X81575252Y-96488384D01*
X81575252Y-97642930D01*
G37*
G36*
X96712626Y-88021717D02*
G01*
X96712626Y-92126768D01*
X86193434Y-92126768D01*
X75674242Y-92126768D01*
X75674242Y-90330808D01*
X77470202Y-90330808D01*
X86150673Y-90330808D01*
X87696907Y-90328081D01*
X89641643Y-90316407D01*
X91376322Y-90296620D01*
X92840330Y-90269891D01*
X93973053Y-90237391D01*
X94713877Y-90200292D01*
X95002188Y-90159765D01*
X95029186Y-90105974D01*
X95102694Y-89648463D01*
X95153968Y-88852702D01*
X95173232Y-87850674D01*
X95173232Y-85712627D01*
X86321717Y-85712627D01*
X77470202Y-85712627D01*
X77470202Y-88021717D01*
X77470202Y-90330808D01*
X75674242Y-90330808D01*
X75674242Y-88021717D01*
X75674242Y-83916667D01*
X86193434Y-83916667D01*
X96712626Y-83916667D01*
X96712626Y-85712627D01*
X96712626Y-88021717D01*
G37*
G36*
X101784574Y-101087427D02*
G01*
X101715656Y-120307825D01*
X101074242Y-120997880D01*
X101026901Y-121047939D01*
X100443035Y-121568901D01*
X99919697Y-121900179D01*
X99869729Y-121912206D01*
X99382011Y-121953221D01*
X98446073Y-121991936D01*
X97112399Y-122027508D01*
X95431469Y-122059092D01*
X93453765Y-122085846D01*
X91229770Y-122106925D01*
X88809966Y-122121487D01*
X86244834Y-122128687D01*
X85204251Y-122129792D01*
X82360735Y-122130189D01*
X79974787Y-122125259D01*
X78004593Y-122113899D01*
X76408334Y-122095004D01*
X75144196Y-122067469D01*
X74170360Y-122030192D01*
X73445012Y-121982067D01*
X72926334Y-121921991D01*
X72572509Y-121848859D01*
X72341722Y-121761567D01*
X72287948Y-121734159D01*
X72011450Y-121600272D01*
X71771393Y-121472683D01*
X71565210Y-121316762D01*
X71390335Y-121097883D01*
X71244200Y-120781415D01*
X71124240Y-120332732D01*
X71027886Y-119717204D01*
X70952573Y-118900204D01*
X70895733Y-117847103D01*
X70854799Y-116523273D01*
X70827205Y-114894085D01*
X70810385Y-112924912D01*
X70803933Y-111169546D01*
X72367661Y-111169546D01*
X72368868Y-113174754D01*
X72376006Y-114828738D01*
X72389924Y-116167385D01*
X72411469Y-117226581D01*
X72441489Y-118042216D01*
X72480832Y-118650175D01*
X72530346Y-119086346D01*
X72590878Y-119386617D01*
X72663276Y-119586875D01*
X72748388Y-119723007D01*
X72847062Y-119830901D01*
X72976014Y-119946813D01*
X73140860Y-120044540D01*
X73384303Y-120125008D01*
X73749796Y-120189890D01*
X74280792Y-120240864D01*
X75020746Y-120279605D01*
X76013109Y-120307788D01*
X77301336Y-120327089D01*
X78928881Y-120339184D01*
X80939196Y-120345749D01*
X83375735Y-120348459D01*
X86281952Y-120348990D01*
X87982489Y-120348757D01*
X90625126Y-120346576D01*
X92821861Y-120340842D01*
X94615703Y-120330043D01*
X96049661Y-120312666D01*
X97166744Y-120287199D01*
X98009961Y-120252129D01*
X98622320Y-120205944D01*
X99046832Y-120147131D01*
X99326504Y-120074177D01*
X99504346Y-119985570D01*
X99623367Y-119879798D01*
X99650484Y-119846834D01*
X99728262Y-119702388D01*
X99795275Y-119468754D01*
X99852311Y-119110606D01*
X99900163Y-118592613D01*
X99939620Y-117879448D01*
X99971475Y-116935782D01*
X99996516Y-115726286D01*
X100015536Y-114215632D01*
X100029324Y-112368491D01*
X100038672Y-110149535D01*
X100044370Y-107523435D01*
X100047209Y-104454862D01*
X100047980Y-100908488D01*
X100047980Y-82406370D01*
X99477761Y-82006973D01*
X99400034Y-81960407D01*
X99170701Y-81876049D01*
X98812536Y-81806018D01*
X98282841Y-81749030D01*
X97538915Y-81703804D01*
X96538061Y-81669055D01*
X95237578Y-81643501D01*
X93594768Y-81625860D01*
X91566932Y-81614847D01*
X89111370Y-81609180D01*
X86185384Y-81607576D01*
X83539108Y-81609179D01*
X80997902Y-81615512D01*
X78893157Y-81627717D01*
X77184210Y-81646915D01*
X75830399Y-81674227D01*
X74791061Y-81710771D01*
X74025535Y-81757668D01*
X73493158Y-81816038D01*
X73153266Y-81887000D01*
X72965199Y-81971675D01*
X72937712Y-81992475D01*
X72846336Y-82083139D01*
X72767367Y-82224516D01*
X72699737Y-82452176D01*
X72642374Y-82801690D01*
X72594210Y-83308628D01*
X72554173Y-84008561D01*
X72521193Y-84937059D01*
X72494202Y-86129693D01*
X72472128Y-87622033D01*
X72453902Y-89449650D01*
X72438453Y-91648113D01*
X72424712Y-94252995D01*
X72411608Y-97299865D01*
X72398072Y-100824293D01*
X72391155Y-102687700D01*
X72379652Y-105961906D01*
X72371539Y-108777226D01*
X72367661Y-111169546D01*
X70803933Y-111169546D01*
X70801770Y-110581125D01*
X70798795Y-107828095D01*
X70798892Y-104631195D01*
X70799495Y-100955796D01*
X70799598Y-98685386D01*
X70800599Y-95378188D01*
X70803410Y-92527124D01*
X70808926Y-90096872D01*
X70818041Y-88052110D01*
X70831649Y-86357515D01*
X70850646Y-84977765D01*
X70875926Y-83877537D01*
X70908382Y-83021510D01*
X70948910Y-82374360D01*
X70998404Y-81900765D01*
X71057759Y-81565403D01*
X71127869Y-81332952D01*
X71209627Y-81168088D01*
X71303930Y-81035491D01*
X71493034Y-80802489D01*
X71718199Y-80572527D01*
X71991412Y-80380933D01*
X72354951Y-80224496D01*
X72851096Y-80100007D01*
X73522127Y-80004255D01*
X74410323Y-79934030D01*
X75557964Y-79886122D01*
X77007330Y-79857321D01*
X78800699Y-79844417D01*
X80980352Y-79844200D01*
X83588568Y-79853459D01*
X86667627Y-79868985D01*
X100087692Y-79939899D01*
X100970592Y-80903464D01*
X101853491Y-81867029D01*
X101785216Y-100908488D01*
X101784574Y-101087427D01*
G37*
%LPC*%
D11*
X90850000Y-118525000D03*
X84250000Y-118525000D03*
D12*
X94200000Y-116600000D03*
D13*
X96740000Y-116600000D03*
D12*
X78460000Y-116550000D03*
D13*
X81000000Y-116550000D03*
D12*
X74640000Y-79300000D03*
D13*
X77180000Y-79300000D03*
X79720000Y-79300000D03*
X82260000Y-79300000D03*
X84800000Y-79300000D03*
X87340000Y-79300000D03*
X89880000Y-79300000D03*
X92420000Y-79300000D03*
X94960000Y-79300000D03*
X97500000Y-79300000D03*
X100040000Y-79300000D03*
D14*
X64475000Y-78950000D03*
X65068109Y-77518109D03*
X65068109Y-80381891D03*
X66500000Y-76925000D03*
D15*
X66500000Y-78950000D03*
D14*
X66500000Y-80975000D03*
X67931891Y-77518109D03*
X67931891Y-80381891D03*
X68525000Y-78950000D03*
D16*
X99850000Y-99381128D03*
X106350000Y-99381128D03*
X99850000Y-103881128D03*
X106350000Y-103881128D03*
D14*
X104300000Y-79068109D03*
X104893109Y-77636218D03*
X104893109Y-80500000D03*
X106325000Y-77043109D03*
D15*
X106325000Y-79068109D03*
D14*
X106325000Y-81093109D03*
X107756891Y-77636218D03*
X107756891Y-80500000D03*
X108350000Y-79068109D03*
X104325000Y-122218109D03*
X104918109Y-120786218D03*
X104918109Y-123650000D03*
X106350000Y-120193109D03*
D15*
X106350000Y-122218109D03*
D14*
X106350000Y-124243109D03*
X107781891Y-120786218D03*
X107781891Y-123650000D03*
X108375000Y-122218109D03*
D16*
X99900000Y-87700000D03*
X106400000Y-87700000D03*
X99900000Y-92200000D03*
X106400000Y-92200000D03*
D14*
X64525000Y-122350000D03*
X65118109Y-120918109D03*
X65118109Y-123781891D03*
X66550000Y-120325000D03*
D15*
X66550000Y-122350000D03*
D14*
X66550000Y-124375000D03*
X67981891Y-120918109D03*
X67981891Y-123781891D03*
X68575000Y-122350000D03*
D12*
X66250000Y-102850000D03*
D13*
X66250000Y-105390000D03*
%LPD*%
M02*
