G04 #@! TF.GenerationSoftware,KiCad,Pcbnew,7.0.7*
G04 #@! TF.CreationDate,2024-07-30T23:44:59+02:00*
G04 #@! TF.ProjectId,linefollower_pcb,6c696e65-666f-46c6-9c6f-7765725f7063,rev?*
G04 #@! TF.SameCoordinates,Original*
G04 #@! TF.FileFunction,Soldermask,Bot*
G04 #@! TF.FilePolarity,Negative*
%FSLAX46Y46*%
G04 Gerber Fmt 4.6, Leading zero omitted, Abs format (unit mm)*
G04 Created by KiCad (PCBNEW 7.0.7) date 2024-07-30 23:44:59*
%MOMM*%
%LPD*%
G01*
G04 APERTURE LIST*
%ADD10O,0.900000X1.600000*%
%ADD11R,1.700000X1.700000*%
%ADD12O,1.700000X1.700000*%
%ADD13C,0.800000*%
%ADD14C,5.400000*%
%ADD15C,2.000000*%
G04 APERTURE END LIST*
D10*
X90850000Y-118525000D03*
X84250000Y-118525000D03*
D11*
X94200000Y-116600000D03*
D12*
X96740000Y-116600000D03*
D11*
X78460000Y-116550000D03*
D12*
X81000000Y-116550000D03*
D11*
X74640000Y-79300000D03*
D12*
X77180000Y-79300000D03*
X79720000Y-79300000D03*
X82260000Y-79300000D03*
X84800000Y-79300000D03*
X87340000Y-79300000D03*
X89880000Y-79300000D03*
X92420000Y-79300000D03*
X94960000Y-79300000D03*
X97500000Y-79300000D03*
X100040000Y-79300000D03*
D13*
X64475000Y-78950000D03*
X65068109Y-77518109D03*
X65068109Y-80381891D03*
X66500000Y-76925000D03*
D14*
X66500000Y-78950000D03*
D13*
X66500000Y-80975000D03*
X67931891Y-77518109D03*
X67931891Y-80381891D03*
X68525000Y-78950000D03*
D15*
X99850000Y-99381128D03*
X106350000Y-99381128D03*
X99850000Y-103881128D03*
X106350000Y-103881128D03*
D13*
X104300000Y-79068109D03*
X104893109Y-77636218D03*
X104893109Y-80500000D03*
X106325000Y-77043109D03*
D14*
X106325000Y-79068109D03*
D13*
X106325000Y-81093109D03*
X107756891Y-77636218D03*
X107756891Y-80500000D03*
X108350000Y-79068109D03*
X104325000Y-122218109D03*
X104918109Y-120786218D03*
X104918109Y-123650000D03*
X106350000Y-120193109D03*
D14*
X106350000Y-122218109D03*
D13*
X106350000Y-124243109D03*
X107781891Y-120786218D03*
X107781891Y-123650000D03*
X108375000Y-122218109D03*
D15*
X99900000Y-87700000D03*
X106400000Y-87700000D03*
X99900000Y-92200000D03*
X106400000Y-92200000D03*
D13*
X64525000Y-122350000D03*
X65118109Y-120918109D03*
X65118109Y-123781891D03*
X66550000Y-120325000D03*
D14*
X66550000Y-122350000D03*
D13*
X66550000Y-124375000D03*
X67981891Y-120918109D03*
X67981891Y-123781891D03*
X68575000Y-122350000D03*
D11*
X66250000Y-102850000D03*
D12*
X66250000Y-105390000D03*
M02*
