G04 #@! TF.GenerationSoftware,KiCad,Pcbnew,7.0.7*
G04 #@! TF.CreationDate,2024-07-30T23:44:59+02:00*
G04 #@! TF.ProjectId,linefollower_pcb,6c696e65-666f-46c6-9c6f-7765725f7063,rev?*
G04 #@! TF.SameCoordinates,Original*
G04 #@! TF.FileFunction,Soldermask,Top*
G04 #@! TF.FilePolarity,Negative*
%FSLAX46Y46*%
G04 Gerber Fmt 4.6, Leading zero omitted, Abs format (unit mm)*
G04 Created by KiCad (PCBNEW 7.0.7) date 2024-07-30 23:44:59*
%MOMM*%
%LPD*%
G01*
G04 APERTURE LIST*
G04 Aperture macros list*
%AMRoundRect*
0 Rectangle with rounded corners*
0 $1 Rounding radius*
0 $2 $3 $4 $5 $6 $7 $8 $9 X,Y pos of 4 corners*
0 Add a 4 corners polygon primitive as box body*
4,1,4,$2,$3,$4,$5,$6,$7,$8,$9,$2,$3,0*
0 Add four circle primitives for the rounded corners*
1,1,$1+$1,$2,$3*
1,1,$1+$1,$4,$5*
1,1,$1+$1,$6,$7*
1,1,$1+$1,$8,$9*
0 Add four rect primitives between the rounded corners*
20,1,$1+$1,$2,$3,$4,$5,0*
20,1,$1+$1,$4,$5,$6,$7,0*
20,1,$1+$1,$6,$7,$8,$9,0*
20,1,$1+$1,$8,$9,$2,$3,0*%
G04 Aperture macros list end*
%ADD10O,0.900000X1.600000*%
%ADD11RoundRect,0.250000X-0.550000X-0.450000X0.550000X-0.450000X0.550000X0.450000X-0.550000X0.450000X0*%
%ADD12RoundRect,0.250000X-0.700000X-0.700000X0.700000X-0.700000X0.700000X0.700000X-0.700000X0.700000X0*%
%ADD13RoundRect,0.100000X-0.100000X-0.575000X0.100000X-0.575000X0.100000X0.575000X-0.100000X0.575000X0*%
%ADD14R,1.700000X1.700000*%
%ADD15O,1.700000X1.700000*%
%ADD16RoundRect,0.250000X0.412500X0.650000X-0.412500X0.650000X-0.412500X-0.650000X0.412500X-0.650000X0*%
%ADD17C,0.800000*%
%ADD18C,5.400000*%
%ADD19RoundRect,0.250000X-0.650000X0.412500X-0.650000X-0.412500X0.650000X-0.412500X0.650000X0.412500X0*%
%ADD20RoundRect,0.250000X0.400000X0.625000X-0.400000X0.625000X-0.400000X-0.625000X0.400000X-0.625000X0*%
%ADD21R,0.450000X1.750000*%
%ADD22RoundRect,0.062500X-0.337500X-0.062500X0.337500X-0.062500X0.337500X0.062500X-0.337500X0.062500X0*%
%ADD23RoundRect,0.062500X-0.062500X-0.337500X0.062500X-0.337500X0.062500X0.337500X-0.062500X0.337500X0*%
%ADD24R,3.350000X3.350000*%
%ADD25R,1.500000X0.900000*%
%ADD26R,0.900000X1.500000*%
%ADD27C,0.600000*%
%ADD28R,4.200000X4.200000*%
%ADD29C,2.000000*%
%ADD30RoundRect,0.250000X-0.412500X-0.650000X0.412500X-0.650000X0.412500X0.650000X-0.412500X0.650000X0*%
%ADD31RoundRect,0.250000X0.300000X-2.050000X0.300000X2.050000X-0.300000X2.050000X-0.300000X-2.050000X0*%
%ADD32RoundRect,0.250002X5.149998X-4.449998X5.149998X4.449998X-5.149998X4.449998X-5.149998X-4.449998X0*%
G04 APERTURE END LIST*
D10*
X90850000Y-118525000D03*
D11*
X90750000Y-116075000D03*
D12*
X88750000Y-118525000D03*
X86350000Y-118525000D03*
D11*
X84350000Y-116075000D03*
D10*
X84250000Y-118525000D03*
D13*
X88850000Y-115850000D03*
X88200000Y-115850000D03*
X87550000Y-115850000D03*
X86900000Y-115850000D03*
X86250000Y-115850000D03*
D14*
X94200000Y-116600000D03*
D15*
X96740000Y-116600000D03*
D14*
X78460000Y-116550000D03*
D15*
X81000000Y-116550000D03*
D14*
X74640000Y-79300000D03*
D15*
X77180000Y-79300000D03*
X79720000Y-79300000D03*
X82260000Y-79300000D03*
X84800000Y-79300000D03*
X87340000Y-79300000D03*
X89880000Y-79300000D03*
X92420000Y-79300000D03*
X94960000Y-79300000D03*
X97500000Y-79300000D03*
X100040000Y-79300000D03*
D16*
X72462500Y-101750000D03*
X69337500Y-101750000D03*
D17*
X64475000Y-78950000D03*
X65068109Y-77518109D03*
X65068109Y-80381891D03*
X66500000Y-76925000D03*
D18*
X66500000Y-78950000D03*
D17*
X66500000Y-80975000D03*
X67931891Y-77518109D03*
X67931891Y-80381891D03*
X68525000Y-78950000D03*
D19*
X74700000Y-102587500D03*
X74700000Y-105712500D03*
D20*
X103712500Y-84850000D03*
X100612500Y-84850000D03*
D21*
X74975000Y-109850000D03*
X74325000Y-109850000D03*
X73675000Y-109850000D03*
X73025000Y-109850000D03*
X72375000Y-109850000D03*
X71725000Y-109850000D03*
X71075000Y-109850000D03*
X70425000Y-109850000D03*
X69775000Y-109850000D03*
X69125000Y-109850000D03*
X68475000Y-109850000D03*
X67825000Y-109850000D03*
X67825000Y-117050000D03*
X68475000Y-117050000D03*
X69125000Y-117050000D03*
X69775000Y-117050000D03*
X70425000Y-117050000D03*
X71075000Y-117050000D03*
X71725000Y-117050000D03*
X72375000Y-117050000D03*
X73025000Y-117050000D03*
X73675000Y-117050000D03*
X74325000Y-117050000D03*
X74975000Y-117050000D03*
D16*
X72475000Y-106550000D03*
X69350000Y-106550000D03*
D22*
X100600000Y-108800000D03*
X100600000Y-109300000D03*
X100600000Y-109800000D03*
X100600000Y-110300000D03*
X100600000Y-110800000D03*
X100600000Y-111300000D03*
X100600000Y-111800000D03*
D23*
X101550000Y-112750000D03*
X102050000Y-112750000D03*
X102550000Y-112750000D03*
X103050000Y-112750000D03*
X103550000Y-112750000D03*
X104050000Y-112750000D03*
X104550000Y-112750000D03*
D22*
X105500000Y-111800000D03*
X105500000Y-111300000D03*
X105500000Y-110800000D03*
X105500000Y-110300000D03*
X105500000Y-109800000D03*
X105500000Y-109300000D03*
X105500000Y-108800000D03*
D23*
X104550000Y-107850000D03*
X104050000Y-107850000D03*
X103550000Y-107850000D03*
X103050000Y-107850000D03*
X102550000Y-107850000D03*
X102050000Y-107850000D03*
X101550000Y-107850000D03*
D24*
X103050000Y-110300000D03*
D25*
X95100000Y-105400000D03*
X95100000Y-104130000D03*
X95100000Y-102860000D03*
X95100000Y-101590000D03*
X95100000Y-100320000D03*
X95100000Y-99050000D03*
X95100000Y-97780000D03*
X95100000Y-96510000D03*
X95100000Y-95240000D03*
X95100000Y-93970000D03*
X95100000Y-92700000D03*
X95100000Y-91430000D03*
X95100000Y-90160000D03*
X95100000Y-88890000D03*
D26*
X92060000Y-87640000D03*
X90790000Y-87640000D03*
X89520000Y-87640000D03*
X88250000Y-87640000D03*
X86980000Y-87640000D03*
X85710000Y-87640000D03*
X84440000Y-87640000D03*
X83170000Y-87640000D03*
X81900000Y-87640000D03*
X80630000Y-87640000D03*
D25*
X77600000Y-88890000D03*
X77600000Y-90160000D03*
X77600000Y-91430000D03*
X77600000Y-92700000D03*
X77600000Y-93970000D03*
X77600000Y-95240000D03*
X77600000Y-96510000D03*
X77600000Y-97780000D03*
X77600000Y-99050000D03*
X77600000Y-100320000D03*
X77600000Y-101590000D03*
X77600000Y-102860000D03*
X77600000Y-104130000D03*
X77600000Y-105400000D03*
D27*
X88555000Y-98822500D03*
X88555000Y-97297500D03*
X87792500Y-99585000D03*
X87792500Y-98060000D03*
X87792500Y-96535000D03*
X87030000Y-98822500D03*
D28*
X87030000Y-98060000D03*
D27*
X87030000Y-97297500D03*
X86267500Y-99585000D03*
X86267500Y-98060000D03*
X86267500Y-96535000D03*
X85505000Y-98822500D03*
X85505000Y-97297500D03*
D29*
X99850000Y-99381128D03*
X106350000Y-99381128D03*
X99850000Y-103881128D03*
X106350000Y-103881128D03*
D16*
X81875000Y-84850000D03*
X78750000Y-84850000D03*
X72462500Y-104150000D03*
X69337500Y-104150000D03*
D30*
X89600000Y-84800000D03*
X92725000Y-84800000D03*
D31*
X66350000Y-96525000D03*
X68050000Y-96525000D03*
X69750000Y-96525000D03*
D32*
X69750000Y-87375000D03*
D31*
X71450000Y-96525000D03*
X73150000Y-96525000D03*
D17*
X104300000Y-79068109D03*
X104893109Y-77636218D03*
X104893109Y-80500000D03*
X106325000Y-77043109D03*
D18*
X106325000Y-79068109D03*
D17*
X106325000Y-81093109D03*
X107756891Y-77636218D03*
X107756891Y-80500000D03*
X108350000Y-79068109D03*
X104325000Y-122218109D03*
X104918109Y-120786218D03*
X104918109Y-123650000D03*
X106350000Y-120193109D03*
D18*
X106350000Y-122218109D03*
D17*
X106350000Y-124243109D03*
X107781891Y-120786218D03*
X107781891Y-123650000D03*
X108375000Y-122218109D03*
D30*
X84250000Y-84800000D03*
X87375000Y-84800000D03*
D29*
X99900000Y-87700000D03*
X106400000Y-87700000D03*
X99900000Y-92200000D03*
X106400000Y-92200000D03*
D17*
X64525000Y-122350000D03*
X65118109Y-120918109D03*
X65118109Y-123781891D03*
X66550000Y-120325000D03*
D18*
X66550000Y-122350000D03*
D17*
X66550000Y-124375000D03*
X67981891Y-120918109D03*
X67981891Y-123781891D03*
X68575000Y-122350000D03*
D14*
X66250000Y-102850000D03*
D15*
X66250000Y-105390000D03*
D16*
X101650000Y-95800000D03*
X98525000Y-95800000D03*
X98262500Y-84850000D03*
X95137500Y-84850000D03*
D20*
X106887500Y-95800000D03*
X103787500Y-95800000D03*
M02*
