G04 #@! TF.GenerationSoftware,KiCad,Pcbnew,7.0.7*
G04 #@! TF.CreationDate,2024-07-30T23:44:58+02:00*
G04 #@! TF.ProjectId,linefollower_pcb,6c696e65-666f-46c6-9c6f-7765725f7063,rev?*
G04 #@! TF.SameCoordinates,Original*
G04 #@! TF.FileFunction,Legend,Top*
G04 #@! TF.FilePolarity,Positive*
%FSLAX46Y46*%
G04 Gerber Fmt 4.6, Leading zero omitted, Abs format (unit mm)*
G04 Created by KiCad (PCBNEW 7.0.7) date 2024-07-30 23:44:58*
%MOMM*%
%LPD*%
G01*
G04 APERTURE LIST*
G04 Aperture macros list*
%AMRoundRect*
0 Rectangle with rounded corners*
0 $1 Rounding radius*
0 $2 $3 $4 $5 $6 $7 $8 $9 X,Y pos of 4 corners*
0 Add a 4 corners polygon primitive as box body*
4,1,4,$2,$3,$4,$5,$6,$7,$8,$9,$2,$3,0*
0 Add four circle primitives for the rounded corners*
1,1,$1+$1,$2,$3*
1,1,$1+$1,$4,$5*
1,1,$1+$1,$6,$7*
1,1,$1+$1,$8,$9*
0 Add four rect primitives between the rounded corners*
20,1,$1+$1,$2,$3,$4,$5,0*
20,1,$1+$1,$4,$5,$6,$7,0*
20,1,$1+$1,$6,$7,$8,$9,0*
20,1,$1+$1,$8,$9,$2,$3,0*%
G04 Aperture macros list end*
%ADD10C,0.200000*%
%ADD11C,0.150000*%
%ADD12C,0.120000*%
%ADD13O,0.900000X1.600000*%
%ADD14RoundRect,0.250000X-0.550000X-0.450000X0.550000X-0.450000X0.550000X0.450000X-0.550000X0.450000X0*%
%ADD15RoundRect,0.250000X-0.700000X-0.700000X0.700000X-0.700000X0.700000X0.700000X-0.700000X0.700000X0*%
%ADD16RoundRect,0.100000X-0.100000X-0.575000X0.100000X-0.575000X0.100000X0.575000X-0.100000X0.575000X0*%
%ADD17R,1.700000X1.700000*%
%ADD18O,1.700000X1.700000*%
%ADD19RoundRect,0.250000X0.412500X0.650000X-0.412500X0.650000X-0.412500X-0.650000X0.412500X-0.650000X0*%
%ADD20C,0.800000*%
%ADD21C,5.400000*%
%ADD22RoundRect,0.250000X-0.650000X0.412500X-0.650000X-0.412500X0.650000X-0.412500X0.650000X0.412500X0*%
%ADD23RoundRect,0.250000X0.400000X0.625000X-0.400000X0.625000X-0.400000X-0.625000X0.400000X-0.625000X0*%
%ADD24R,0.450000X1.750000*%
%ADD25RoundRect,0.062500X-0.337500X-0.062500X0.337500X-0.062500X0.337500X0.062500X-0.337500X0.062500X0*%
%ADD26RoundRect,0.062500X-0.062500X-0.337500X0.062500X-0.337500X0.062500X0.337500X-0.062500X0.337500X0*%
%ADD27R,3.350000X3.350000*%
%ADD28R,1.500000X0.900000*%
%ADD29R,0.900000X1.500000*%
%ADD30C,0.600000*%
%ADD31R,4.200000X4.200000*%
%ADD32C,2.000000*%
%ADD33RoundRect,0.250000X-0.412500X-0.650000X0.412500X-0.650000X0.412500X0.650000X-0.412500X0.650000X0*%
%ADD34RoundRect,0.250000X0.300000X-2.050000X0.300000X2.050000X-0.300000X2.050000X-0.300000X-2.050000X0*%
%ADD35RoundRect,0.250002X5.149998X-4.449998X5.149998X4.449998X-5.149998X4.449998X-5.149998X-4.449998X0*%
G04 APERTURE END LIST*
D10*
X75045863Y-125267219D02*
X74569673Y-125267219D01*
X74569673Y-125267219D02*
X74569673Y-124267219D01*
X75379197Y-125267219D02*
X75379197Y-124267219D01*
X75855387Y-125267219D02*
X75855387Y-124267219D01*
X75855387Y-124267219D02*
X76426815Y-125267219D01*
X76426815Y-125267219D02*
X76426815Y-124267219D01*
X76903006Y-124743409D02*
X77236339Y-124743409D01*
X77379196Y-125267219D02*
X76903006Y-125267219D01*
X76903006Y-125267219D02*
X76903006Y-124267219D01*
X76903006Y-124267219D02*
X77379196Y-124267219D01*
X78141101Y-124743409D02*
X77807768Y-124743409D01*
X77807768Y-125267219D02*
X77807768Y-124267219D01*
X77807768Y-124267219D02*
X78283958Y-124267219D01*
X78855387Y-124267219D02*
X79045863Y-124267219D01*
X79045863Y-124267219D02*
X79141101Y-124314838D01*
X79141101Y-124314838D02*
X79236339Y-124410076D01*
X79236339Y-124410076D02*
X79283958Y-124600552D01*
X79283958Y-124600552D02*
X79283958Y-124933885D01*
X79283958Y-124933885D02*
X79236339Y-125124361D01*
X79236339Y-125124361D02*
X79141101Y-125219600D01*
X79141101Y-125219600D02*
X79045863Y-125267219D01*
X79045863Y-125267219D02*
X78855387Y-125267219D01*
X78855387Y-125267219D02*
X78760149Y-125219600D01*
X78760149Y-125219600D02*
X78664911Y-125124361D01*
X78664911Y-125124361D02*
X78617292Y-124933885D01*
X78617292Y-124933885D02*
X78617292Y-124600552D01*
X78617292Y-124600552D02*
X78664911Y-124410076D01*
X78664911Y-124410076D02*
X78760149Y-124314838D01*
X78760149Y-124314838D02*
X78855387Y-124267219D01*
X80188720Y-125267219D02*
X79712530Y-125267219D01*
X79712530Y-125267219D02*
X79712530Y-124267219D01*
X80998244Y-125267219D02*
X80522054Y-125267219D01*
X80522054Y-125267219D02*
X80522054Y-124267219D01*
X81522054Y-124267219D02*
X81712530Y-124267219D01*
X81712530Y-124267219D02*
X81807768Y-124314838D01*
X81807768Y-124314838D02*
X81903006Y-124410076D01*
X81903006Y-124410076D02*
X81950625Y-124600552D01*
X81950625Y-124600552D02*
X81950625Y-124933885D01*
X81950625Y-124933885D02*
X81903006Y-125124361D01*
X81903006Y-125124361D02*
X81807768Y-125219600D01*
X81807768Y-125219600D02*
X81712530Y-125267219D01*
X81712530Y-125267219D02*
X81522054Y-125267219D01*
X81522054Y-125267219D02*
X81426816Y-125219600D01*
X81426816Y-125219600D02*
X81331578Y-125124361D01*
X81331578Y-125124361D02*
X81283959Y-124933885D01*
X81283959Y-124933885D02*
X81283959Y-124600552D01*
X81283959Y-124600552D02*
X81331578Y-124410076D01*
X81331578Y-124410076D02*
X81426816Y-124314838D01*
X81426816Y-124314838D02*
X81522054Y-124267219D01*
X82283959Y-124267219D02*
X82522054Y-125267219D01*
X82522054Y-125267219D02*
X82712530Y-124552933D01*
X82712530Y-124552933D02*
X82903006Y-125267219D01*
X82903006Y-125267219D02*
X83141102Y-124267219D01*
X83522054Y-124743409D02*
X83855387Y-124743409D01*
X83998244Y-125267219D02*
X83522054Y-125267219D01*
X83522054Y-125267219D02*
X83522054Y-124267219D01*
X83522054Y-124267219D02*
X83998244Y-124267219D01*
X84998244Y-125267219D02*
X84664911Y-124791028D01*
X84426816Y-125267219D02*
X84426816Y-124267219D01*
X84426816Y-124267219D02*
X84807768Y-124267219D01*
X84807768Y-124267219D02*
X84903006Y-124314838D01*
X84903006Y-124314838D02*
X84950625Y-124362457D01*
X84950625Y-124362457D02*
X84998244Y-124457695D01*
X84998244Y-124457695D02*
X84998244Y-124600552D01*
X84998244Y-124600552D02*
X84950625Y-124695790D01*
X84950625Y-124695790D02*
X84903006Y-124743409D01*
X84903006Y-124743409D02*
X84807768Y-124791028D01*
X84807768Y-124791028D02*
X84426816Y-124791028D01*
X86188721Y-125267219D02*
X86188721Y-124267219D01*
X86188721Y-124267219D02*
X86522054Y-124981504D01*
X86522054Y-124981504D02*
X86855387Y-124267219D01*
X86855387Y-124267219D02*
X86855387Y-125267219D01*
X87522054Y-124267219D02*
X87712530Y-124267219D01*
X87712530Y-124267219D02*
X87807768Y-124314838D01*
X87807768Y-124314838D02*
X87903006Y-124410076D01*
X87903006Y-124410076D02*
X87950625Y-124600552D01*
X87950625Y-124600552D02*
X87950625Y-124933885D01*
X87950625Y-124933885D02*
X87903006Y-125124361D01*
X87903006Y-125124361D02*
X87807768Y-125219600D01*
X87807768Y-125219600D02*
X87712530Y-125267219D01*
X87712530Y-125267219D02*
X87522054Y-125267219D01*
X87522054Y-125267219D02*
X87426816Y-125219600D01*
X87426816Y-125219600D02*
X87331578Y-125124361D01*
X87331578Y-125124361D02*
X87283959Y-124933885D01*
X87283959Y-124933885D02*
X87283959Y-124600552D01*
X87283959Y-124600552D02*
X87331578Y-124410076D01*
X87331578Y-124410076D02*
X87426816Y-124314838D01*
X87426816Y-124314838D02*
X87522054Y-124267219D01*
X88379197Y-125267219D02*
X88379197Y-124267219D01*
X88379197Y-124267219D02*
X88617292Y-124267219D01*
X88617292Y-124267219D02*
X88760149Y-124314838D01*
X88760149Y-124314838D02*
X88855387Y-124410076D01*
X88855387Y-124410076D02*
X88903006Y-124505314D01*
X88903006Y-124505314D02*
X88950625Y-124695790D01*
X88950625Y-124695790D02*
X88950625Y-124838647D01*
X88950625Y-124838647D02*
X88903006Y-125029123D01*
X88903006Y-125029123D02*
X88855387Y-125124361D01*
X88855387Y-125124361D02*
X88760149Y-125219600D01*
X88760149Y-125219600D02*
X88617292Y-125267219D01*
X88617292Y-125267219D02*
X88379197Y-125267219D01*
X89379197Y-124267219D02*
X89379197Y-125076742D01*
X89379197Y-125076742D02*
X89426816Y-125171980D01*
X89426816Y-125171980D02*
X89474435Y-125219600D01*
X89474435Y-125219600D02*
X89569673Y-125267219D01*
X89569673Y-125267219D02*
X89760149Y-125267219D01*
X89760149Y-125267219D02*
X89855387Y-125219600D01*
X89855387Y-125219600D02*
X89903006Y-125171980D01*
X89903006Y-125171980D02*
X89950625Y-125076742D01*
X89950625Y-125076742D02*
X89950625Y-124267219D01*
X90903006Y-125267219D02*
X90426816Y-125267219D01*
X90426816Y-125267219D02*
X90426816Y-124267219D01*
X91236340Y-124743409D02*
X91569673Y-124743409D01*
X91712530Y-125267219D02*
X91236340Y-125267219D01*
X91236340Y-125267219D02*
X91236340Y-124267219D01*
X91236340Y-124267219D02*
X91712530Y-124267219D01*
X93141102Y-125600552D02*
X93141102Y-124171980D01*
X95188721Y-125267219D02*
X94855388Y-124791028D01*
X94617293Y-125267219D02*
X94617293Y-124267219D01*
X94617293Y-124267219D02*
X94998245Y-124267219D01*
X94998245Y-124267219D02*
X95093483Y-124314838D01*
X95093483Y-124314838D02*
X95141102Y-124362457D01*
X95141102Y-124362457D02*
X95188721Y-124457695D01*
X95188721Y-124457695D02*
X95188721Y-124600552D01*
X95188721Y-124600552D02*
X95141102Y-124695790D01*
X95141102Y-124695790D02*
X95093483Y-124743409D01*
X95093483Y-124743409D02*
X94998245Y-124791028D01*
X94998245Y-124791028D02*
X94617293Y-124791028D01*
X95617293Y-124743409D02*
X95950626Y-124743409D01*
X96093483Y-125267219D02*
X95617293Y-125267219D01*
X95617293Y-125267219D02*
X95617293Y-124267219D01*
X95617293Y-124267219D02*
X96093483Y-124267219D01*
X96379198Y-124267219D02*
X96712531Y-125267219D01*
X96712531Y-125267219D02*
X97045864Y-124267219D01*
X97379198Y-125171980D02*
X97426817Y-125219600D01*
X97426817Y-125219600D02*
X97379198Y-125267219D01*
X97379198Y-125267219D02*
X97331579Y-125219600D01*
X97331579Y-125219600D02*
X97379198Y-125171980D01*
X97379198Y-125171980D02*
X97379198Y-125267219D01*
X98379197Y-125267219D02*
X97807769Y-125267219D01*
X98093483Y-125267219D02*
X98093483Y-124267219D01*
X98093483Y-124267219D02*
X97998245Y-124410076D01*
X97998245Y-124410076D02*
X97903007Y-124505314D01*
X97903007Y-124505314D02*
X97807769Y-124552933D01*
D11*
X86138095Y-121954819D02*
X86138095Y-122764342D01*
X86138095Y-122764342D02*
X86185714Y-122859580D01*
X86185714Y-122859580D02*
X86233333Y-122907200D01*
X86233333Y-122907200D02*
X86328571Y-122954819D01*
X86328571Y-122954819D02*
X86519047Y-122954819D01*
X86519047Y-122954819D02*
X86614285Y-122907200D01*
X86614285Y-122907200D02*
X86661904Y-122859580D01*
X86661904Y-122859580D02*
X86709523Y-122764342D01*
X86709523Y-122764342D02*
X86709523Y-121954819D01*
X87138095Y-122907200D02*
X87280952Y-122954819D01*
X87280952Y-122954819D02*
X87519047Y-122954819D01*
X87519047Y-122954819D02*
X87614285Y-122907200D01*
X87614285Y-122907200D02*
X87661904Y-122859580D01*
X87661904Y-122859580D02*
X87709523Y-122764342D01*
X87709523Y-122764342D02*
X87709523Y-122669104D01*
X87709523Y-122669104D02*
X87661904Y-122573866D01*
X87661904Y-122573866D02*
X87614285Y-122526247D01*
X87614285Y-122526247D02*
X87519047Y-122478628D01*
X87519047Y-122478628D02*
X87328571Y-122431009D01*
X87328571Y-122431009D02*
X87233333Y-122383390D01*
X87233333Y-122383390D02*
X87185714Y-122335771D01*
X87185714Y-122335771D02*
X87138095Y-122240533D01*
X87138095Y-122240533D02*
X87138095Y-122145295D01*
X87138095Y-122145295D02*
X87185714Y-122050057D01*
X87185714Y-122050057D02*
X87233333Y-122002438D01*
X87233333Y-122002438D02*
X87328571Y-121954819D01*
X87328571Y-121954819D02*
X87566666Y-121954819D01*
X87566666Y-121954819D02*
X87709523Y-122002438D01*
X88471428Y-122431009D02*
X88614285Y-122478628D01*
X88614285Y-122478628D02*
X88661904Y-122526247D01*
X88661904Y-122526247D02*
X88709523Y-122621485D01*
X88709523Y-122621485D02*
X88709523Y-122764342D01*
X88709523Y-122764342D02*
X88661904Y-122859580D01*
X88661904Y-122859580D02*
X88614285Y-122907200D01*
X88614285Y-122907200D02*
X88519047Y-122954819D01*
X88519047Y-122954819D02*
X88138095Y-122954819D01*
X88138095Y-122954819D02*
X88138095Y-121954819D01*
X88138095Y-121954819D02*
X88471428Y-121954819D01*
X88471428Y-121954819D02*
X88566666Y-122002438D01*
X88566666Y-122002438D02*
X88614285Y-122050057D01*
X88614285Y-122050057D02*
X88661904Y-122145295D01*
X88661904Y-122145295D02*
X88661904Y-122240533D01*
X88661904Y-122240533D02*
X88614285Y-122335771D01*
X88614285Y-122335771D02*
X88566666Y-122383390D01*
X88566666Y-122383390D02*
X88471428Y-122431009D01*
X88471428Y-122431009D02*
X88138095Y-122431009D01*
X94740476Y-119604819D02*
X94740476Y-118604819D01*
X94740476Y-118604819D02*
X95073809Y-119319104D01*
X95073809Y-119319104D02*
X95407142Y-118604819D01*
X95407142Y-118604819D02*
X95407142Y-119604819D01*
X95835714Y-118700057D02*
X95883333Y-118652438D01*
X95883333Y-118652438D02*
X95978571Y-118604819D01*
X95978571Y-118604819D02*
X96216666Y-118604819D01*
X96216666Y-118604819D02*
X96311904Y-118652438D01*
X96311904Y-118652438D02*
X96359523Y-118700057D01*
X96359523Y-118700057D02*
X96407142Y-118795295D01*
X96407142Y-118795295D02*
X96407142Y-118890533D01*
X96407142Y-118890533D02*
X96359523Y-119033390D01*
X96359523Y-119033390D02*
X95788095Y-119604819D01*
X95788095Y-119604819D02*
X96407142Y-119604819D01*
X78950476Y-119579819D02*
X78950476Y-118579819D01*
X78950476Y-118579819D02*
X79283809Y-119294104D01*
X79283809Y-119294104D02*
X79617142Y-118579819D01*
X79617142Y-118579819D02*
X79617142Y-119579819D01*
X80617142Y-119579819D02*
X80045714Y-119579819D01*
X80331428Y-119579819D02*
X80331428Y-118579819D01*
X80331428Y-118579819D02*
X80236190Y-118722676D01*
X80236190Y-118722676D02*
X80140952Y-118817914D01*
X80140952Y-118817914D02*
X80045714Y-118865533D01*
X84128571Y-77400057D02*
X84033333Y-77352438D01*
X84033333Y-77352438D02*
X83938095Y-77257200D01*
X83938095Y-77257200D02*
X83795238Y-77114342D01*
X83795238Y-77114342D02*
X83700000Y-77066723D01*
X83700000Y-77066723D02*
X83604762Y-77066723D01*
X83652381Y-77304819D02*
X83557143Y-77257200D01*
X83557143Y-77257200D02*
X83461905Y-77161961D01*
X83461905Y-77161961D02*
X83414286Y-76971485D01*
X83414286Y-76971485D02*
X83414286Y-76638152D01*
X83414286Y-76638152D02*
X83461905Y-76447676D01*
X83461905Y-76447676D02*
X83557143Y-76352438D01*
X83557143Y-76352438D02*
X83652381Y-76304819D01*
X83652381Y-76304819D02*
X83842857Y-76304819D01*
X83842857Y-76304819D02*
X83938095Y-76352438D01*
X83938095Y-76352438D02*
X84033333Y-76447676D01*
X84033333Y-76447676D02*
X84080952Y-76638152D01*
X84080952Y-76638152D02*
X84080952Y-76971485D01*
X84080952Y-76971485D02*
X84033333Y-77161961D01*
X84033333Y-77161961D02*
X83938095Y-77257200D01*
X83938095Y-77257200D02*
X83842857Y-77304819D01*
X83842857Y-77304819D02*
X83652381Y-77304819D01*
X84366667Y-76304819D02*
X84938095Y-76304819D01*
X84652381Y-77304819D02*
X84652381Y-76304819D01*
X85842857Y-77304819D02*
X85509524Y-76828628D01*
X85271429Y-77304819D02*
X85271429Y-76304819D01*
X85271429Y-76304819D02*
X85652381Y-76304819D01*
X85652381Y-76304819D02*
X85747619Y-76352438D01*
X85747619Y-76352438D02*
X85795238Y-76400057D01*
X85795238Y-76400057D02*
X85842857Y-76495295D01*
X85842857Y-76495295D02*
X85842857Y-76638152D01*
X85842857Y-76638152D02*
X85795238Y-76733390D01*
X85795238Y-76733390D02*
X85747619Y-76781009D01*
X85747619Y-76781009D02*
X85652381Y-76828628D01*
X85652381Y-76828628D02*
X85271429Y-76828628D01*
X86271429Y-76923866D02*
X87033334Y-76923866D01*
X87652381Y-76733390D02*
X87557143Y-76685771D01*
X87557143Y-76685771D02*
X87509524Y-76638152D01*
X87509524Y-76638152D02*
X87461905Y-76542914D01*
X87461905Y-76542914D02*
X87461905Y-76495295D01*
X87461905Y-76495295D02*
X87509524Y-76400057D01*
X87509524Y-76400057D02*
X87557143Y-76352438D01*
X87557143Y-76352438D02*
X87652381Y-76304819D01*
X87652381Y-76304819D02*
X87842857Y-76304819D01*
X87842857Y-76304819D02*
X87938095Y-76352438D01*
X87938095Y-76352438D02*
X87985714Y-76400057D01*
X87985714Y-76400057D02*
X88033333Y-76495295D01*
X88033333Y-76495295D02*
X88033333Y-76542914D01*
X88033333Y-76542914D02*
X87985714Y-76638152D01*
X87985714Y-76638152D02*
X87938095Y-76685771D01*
X87938095Y-76685771D02*
X87842857Y-76733390D01*
X87842857Y-76733390D02*
X87652381Y-76733390D01*
X87652381Y-76733390D02*
X87557143Y-76781009D01*
X87557143Y-76781009D02*
X87509524Y-76828628D01*
X87509524Y-76828628D02*
X87461905Y-76923866D01*
X87461905Y-76923866D02*
X87461905Y-77114342D01*
X87461905Y-77114342D02*
X87509524Y-77209580D01*
X87509524Y-77209580D02*
X87557143Y-77257200D01*
X87557143Y-77257200D02*
X87652381Y-77304819D01*
X87652381Y-77304819D02*
X87842857Y-77304819D01*
X87842857Y-77304819D02*
X87938095Y-77257200D01*
X87938095Y-77257200D02*
X87985714Y-77209580D01*
X87985714Y-77209580D02*
X88033333Y-77114342D01*
X88033333Y-77114342D02*
X88033333Y-76923866D01*
X88033333Y-76923866D02*
X87985714Y-76828628D01*
X87985714Y-76828628D02*
X87938095Y-76781009D01*
X87938095Y-76781009D02*
X87842857Y-76733390D01*
X89033333Y-77304819D02*
X88700000Y-76828628D01*
X88461905Y-77304819D02*
X88461905Y-76304819D01*
X88461905Y-76304819D02*
X88842857Y-76304819D01*
X88842857Y-76304819D02*
X88938095Y-76352438D01*
X88938095Y-76352438D02*
X88985714Y-76400057D01*
X88985714Y-76400057D02*
X89033333Y-76495295D01*
X89033333Y-76495295D02*
X89033333Y-76638152D01*
X89033333Y-76638152D02*
X88985714Y-76733390D01*
X88985714Y-76733390D02*
X88938095Y-76781009D01*
X88938095Y-76781009D02*
X88842857Y-76828628D01*
X88842857Y-76828628D02*
X88461905Y-76828628D01*
X90033333Y-77209580D02*
X89985714Y-77257200D01*
X89985714Y-77257200D02*
X89842857Y-77304819D01*
X89842857Y-77304819D02*
X89747619Y-77304819D01*
X89747619Y-77304819D02*
X89604762Y-77257200D01*
X89604762Y-77257200D02*
X89509524Y-77161961D01*
X89509524Y-77161961D02*
X89461905Y-77066723D01*
X89461905Y-77066723D02*
X89414286Y-76876247D01*
X89414286Y-76876247D02*
X89414286Y-76733390D01*
X89414286Y-76733390D02*
X89461905Y-76542914D01*
X89461905Y-76542914D02*
X89509524Y-76447676D01*
X89509524Y-76447676D02*
X89604762Y-76352438D01*
X89604762Y-76352438D02*
X89747619Y-76304819D01*
X89747619Y-76304819D02*
X89842857Y-76304819D01*
X89842857Y-76304819D02*
X89985714Y-76352438D01*
X89985714Y-76352438D02*
X90033333Y-76400057D01*
X90985714Y-77304819D02*
X90414286Y-77304819D01*
X90700000Y-77304819D02*
X90700000Y-76304819D01*
X90700000Y-76304819D02*
X90604762Y-76447676D01*
X90604762Y-76447676D02*
X90509524Y-76542914D01*
X90509524Y-76542914D02*
X90414286Y-76590533D01*
X69166667Y-76954819D02*
X69166667Y-75954819D01*
X69166667Y-75954819D02*
X69500000Y-76669104D01*
X69500000Y-76669104D02*
X69833333Y-75954819D01*
X69833333Y-75954819D02*
X69833333Y-76954819D01*
X70309524Y-76954819D02*
X70309524Y-75954819D01*
X70309524Y-76431009D02*
X70880952Y-76431009D01*
X70880952Y-76954819D02*
X70880952Y-75954819D01*
X71785714Y-76288152D02*
X71785714Y-76954819D01*
X71547619Y-75907200D02*
X71309524Y-76621485D01*
X71309524Y-76621485D02*
X71928571Y-76621485D01*
X102033333Y-83404819D02*
X101700000Y-82928628D01*
X101461905Y-83404819D02*
X101461905Y-82404819D01*
X101461905Y-82404819D02*
X101842857Y-82404819D01*
X101842857Y-82404819D02*
X101938095Y-82452438D01*
X101938095Y-82452438D02*
X101985714Y-82500057D01*
X101985714Y-82500057D02*
X102033333Y-82595295D01*
X102033333Y-82595295D02*
X102033333Y-82738152D01*
X102033333Y-82738152D02*
X101985714Y-82833390D01*
X101985714Y-82833390D02*
X101938095Y-82881009D01*
X101938095Y-82881009D02*
X101842857Y-82928628D01*
X101842857Y-82928628D02*
X101461905Y-82928628D01*
X102985714Y-83404819D02*
X102414286Y-83404819D01*
X102700000Y-83404819D02*
X102700000Y-82404819D01*
X102700000Y-82404819D02*
X102604762Y-82547676D01*
X102604762Y-82547676D02*
X102509524Y-82642914D01*
X102509524Y-82642914D02*
X102414286Y-82690533D01*
X102288095Y-113804819D02*
X102288095Y-114614342D01*
X102288095Y-114614342D02*
X102335714Y-114709580D01*
X102335714Y-114709580D02*
X102383333Y-114757200D01*
X102383333Y-114757200D02*
X102478571Y-114804819D01*
X102478571Y-114804819D02*
X102669047Y-114804819D01*
X102669047Y-114804819D02*
X102764285Y-114757200D01*
X102764285Y-114757200D02*
X102811904Y-114709580D01*
X102811904Y-114709580D02*
X102859523Y-114614342D01*
X102859523Y-114614342D02*
X102859523Y-113804819D01*
X103764285Y-114138152D02*
X103764285Y-114804819D01*
X103526190Y-113757200D02*
X103288095Y-114471485D01*
X103288095Y-114471485D02*
X103907142Y-114471485D01*
X86388095Y-94484819D02*
X86388095Y-95294342D01*
X86388095Y-95294342D02*
X86435714Y-95389580D01*
X86435714Y-95389580D02*
X86483333Y-95437200D01*
X86483333Y-95437200D02*
X86578571Y-95484819D01*
X86578571Y-95484819D02*
X86769047Y-95484819D01*
X86769047Y-95484819D02*
X86864285Y-95437200D01*
X86864285Y-95437200D02*
X86911904Y-95389580D01*
X86911904Y-95389580D02*
X86959523Y-95294342D01*
X86959523Y-95294342D02*
X86959523Y-94484819D01*
X87388095Y-94580057D02*
X87435714Y-94532438D01*
X87435714Y-94532438D02*
X87530952Y-94484819D01*
X87530952Y-94484819D02*
X87769047Y-94484819D01*
X87769047Y-94484819D02*
X87864285Y-94532438D01*
X87864285Y-94532438D02*
X87911904Y-94580057D01*
X87911904Y-94580057D02*
X87959523Y-94675295D01*
X87959523Y-94675295D02*
X87959523Y-94770533D01*
X87959523Y-94770533D02*
X87911904Y-94913390D01*
X87911904Y-94913390D02*
X87340476Y-95484819D01*
X87340476Y-95484819D02*
X87959523Y-95484819D01*
X101666667Y-101957200D02*
X101809524Y-102004819D01*
X101809524Y-102004819D02*
X102047619Y-102004819D01*
X102047619Y-102004819D02*
X102142857Y-101957200D01*
X102142857Y-101957200D02*
X102190476Y-101909580D01*
X102190476Y-101909580D02*
X102238095Y-101814342D01*
X102238095Y-101814342D02*
X102238095Y-101719104D01*
X102238095Y-101719104D02*
X102190476Y-101623866D01*
X102190476Y-101623866D02*
X102142857Y-101576247D01*
X102142857Y-101576247D02*
X102047619Y-101528628D01*
X102047619Y-101528628D02*
X101857143Y-101481009D01*
X101857143Y-101481009D02*
X101761905Y-101433390D01*
X101761905Y-101433390D02*
X101714286Y-101385771D01*
X101714286Y-101385771D02*
X101666667Y-101290533D01*
X101666667Y-101290533D02*
X101666667Y-101195295D01*
X101666667Y-101195295D02*
X101714286Y-101100057D01*
X101714286Y-101100057D02*
X101761905Y-101052438D01*
X101761905Y-101052438D02*
X101857143Y-101004819D01*
X101857143Y-101004819D02*
X102095238Y-101004819D01*
X102095238Y-101004819D02*
X102238095Y-101052438D01*
X102571429Y-101004819D02*
X102809524Y-102004819D01*
X102809524Y-102004819D02*
X103000000Y-101290533D01*
X103000000Y-101290533D02*
X103190476Y-102004819D01*
X103190476Y-102004819D02*
X103428572Y-101004819D01*
X103761905Y-101100057D02*
X103809524Y-101052438D01*
X103809524Y-101052438D02*
X103904762Y-101004819D01*
X103904762Y-101004819D02*
X104142857Y-101004819D01*
X104142857Y-101004819D02*
X104238095Y-101052438D01*
X104238095Y-101052438D02*
X104285714Y-101100057D01*
X104285714Y-101100057D02*
X104333333Y-101195295D01*
X104333333Y-101195295D02*
X104333333Y-101290533D01*
X104333333Y-101290533D02*
X104285714Y-101433390D01*
X104285714Y-101433390D02*
X103714286Y-102004819D01*
X103714286Y-102004819D02*
X104333333Y-102004819D01*
X77352381Y-82923866D02*
X77400000Y-82876247D01*
X77400000Y-82876247D02*
X77495238Y-82828628D01*
X77495238Y-82828628D02*
X77685714Y-82923866D01*
X77685714Y-82923866D02*
X77780952Y-82876247D01*
X77780952Y-82876247D02*
X77828571Y-82828628D01*
X78733333Y-83304819D02*
X78161905Y-83304819D01*
X78447619Y-83304819D02*
X78447619Y-82304819D01*
X78447619Y-82304819D02*
X78352381Y-82447676D01*
X78352381Y-82447676D02*
X78257143Y-82542914D01*
X78257143Y-82542914D02*
X78161905Y-82590533D01*
X79352381Y-82304819D02*
X79447619Y-82304819D01*
X79447619Y-82304819D02*
X79542857Y-82352438D01*
X79542857Y-82352438D02*
X79590476Y-82400057D01*
X79590476Y-82400057D02*
X79638095Y-82495295D01*
X79638095Y-82495295D02*
X79685714Y-82685771D01*
X79685714Y-82685771D02*
X79685714Y-82923866D01*
X79685714Y-82923866D02*
X79638095Y-83114342D01*
X79638095Y-83114342D02*
X79590476Y-83209580D01*
X79590476Y-83209580D02*
X79542857Y-83257200D01*
X79542857Y-83257200D02*
X79447619Y-83304819D01*
X79447619Y-83304819D02*
X79352381Y-83304819D01*
X79352381Y-83304819D02*
X79257143Y-83257200D01*
X79257143Y-83257200D02*
X79209524Y-83209580D01*
X79209524Y-83209580D02*
X79161905Y-83114342D01*
X79161905Y-83114342D02*
X79114286Y-82923866D01*
X79114286Y-82923866D02*
X79114286Y-82685771D01*
X79114286Y-82685771D02*
X79161905Y-82495295D01*
X79161905Y-82495295D02*
X79209524Y-82400057D01*
X79209524Y-82400057D02*
X79257143Y-82352438D01*
X79257143Y-82352438D02*
X79352381Y-82304819D01*
X80304762Y-82304819D02*
X80400000Y-82304819D01*
X80400000Y-82304819D02*
X80495238Y-82352438D01*
X80495238Y-82352438D02*
X80542857Y-82400057D01*
X80542857Y-82400057D02*
X80590476Y-82495295D01*
X80590476Y-82495295D02*
X80638095Y-82685771D01*
X80638095Y-82685771D02*
X80638095Y-82923866D01*
X80638095Y-82923866D02*
X80590476Y-83114342D01*
X80590476Y-83114342D02*
X80542857Y-83209580D01*
X80542857Y-83209580D02*
X80495238Y-83257200D01*
X80495238Y-83257200D02*
X80400000Y-83304819D01*
X80400000Y-83304819D02*
X80304762Y-83304819D01*
X80304762Y-83304819D02*
X80209524Y-83257200D01*
X80209524Y-83257200D02*
X80161905Y-83209580D01*
X80161905Y-83209580D02*
X80114286Y-83114342D01*
X80114286Y-83114342D02*
X80066667Y-82923866D01*
X80066667Y-82923866D02*
X80066667Y-82685771D01*
X80066667Y-82685771D02*
X80114286Y-82495295D01*
X80114286Y-82495295D02*
X80161905Y-82400057D01*
X80161905Y-82400057D02*
X80209524Y-82352438D01*
X80209524Y-82352438D02*
X80304762Y-82304819D01*
X81066667Y-82638152D02*
X81066667Y-83304819D01*
X81066667Y-82733390D02*
X81114286Y-82685771D01*
X81114286Y-82685771D02*
X81209524Y-82638152D01*
X81209524Y-82638152D02*
X81352381Y-82638152D01*
X81352381Y-82638152D02*
X81447619Y-82685771D01*
X81447619Y-82685771D02*
X81495238Y-82781009D01*
X81495238Y-82781009D02*
X81495238Y-83304819D01*
X82304762Y-82781009D02*
X81971429Y-82781009D01*
X81971429Y-83304819D02*
X81971429Y-82304819D01*
X81971429Y-82304819D02*
X82447619Y-82304819D01*
X83352381Y-83304819D02*
X82780953Y-83304819D01*
X83066667Y-83304819D02*
X83066667Y-82304819D01*
X83066667Y-82304819D02*
X82971429Y-82447676D01*
X82971429Y-82447676D02*
X82876191Y-82542914D01*
X82876191Y-82542914D02*
X82780953Y-82590533D01*
X90995833Y-83309580D02*
X90948214Y-83357200D01*
X90948214Y-83357200D02*
X90805357Y-83404819D01*
X90805357Y-83404819D02*
X90710119Y-83404819D01*
X90710119Y-83404819D02*
X90567262Y-83357200D01*
X90567262Y-83357200D02*
X90472024Y-83261961D01*
X90472024Y-83261961D02*
X90424405Y-83166723D01*
X90424405Y-83166723D02*
X90376786Y-82976247D01*
X90376786Y-82976247D02*
X90376786Y-82833390D01*
X90376786Y-82833390D02*
X90424405Y-82642914D01*
X90424405Y-82642914D02*
X90472024Y-82547676D01*
X90472024Y-82547676D02*
X90567262Y-82452438D01*
X90567262Y-82452438D02*
X90710119Y-82404819D01*
X90710119Y-82404819D02*
X90805357Y-82404819D01*
X90805357Y-82404819D02*
X90948214Y-82452438D01*
X90948214Y-82452438D02*
X90995833Y-82500057D01*
X91900595Y-82404819D02*
X91424405Y-82404819D01*
X91424405Y-82404819D02*
X91376786Y-82881009D01*
X91376786Y-82881009D02*
X91424405Y-82833390D01*
X91424405Y-82833390D02*
X91519643Y-82785771D01*
X91519643Y-82785771D02*
X91757738Y-82785771D01*
X91757738Y-82785771D02*
X91852976Y-82833390D01*
X91852976Y-82833390D02*
X91900595Y-82881009D01*
X91900595Y-82881009D02*
X91948214Y-82976247D01*
X91948214Y-82976247D02*
X91948214Y-83214342D01*
X91948214Y-83214342D02*
X91900595Y-83309580D01*
X91900595Y-83309580D02*
X91852976Y-83357200D01*
X91852976Y-83357200D02*
X91757738Y-83404819D01*
X91757738Y-83404819D02*
X91519643Y-83404819D01*
X91519643Y-83404819D02*
X91424405Y-83357200D01*
X91424405Y-83357200D02*
X91376786Y-83309580D01*
X69088095Y-81129819D02*
X69088095Y-81939342D01*
X69088095Y-81939342D02*
X69135714Y-82034580D01*
X69135714Y-82034580D02*
X69183333Y-82082200D01*
X69183333Y-82082200D02*
X69278571Y-82129819D01*
X69278571Y-82129819D02*
X69469047Y-82129819D01*
X69469047Y-82129819D02*
X69564285Y-82082200D01*
X69564285Y-82082200D02*
X69611904Y-82034580D01*
X69611904Y-82034580D02*
X69659523Y-81939342D01*
X69659523Y-81939342D02*
X69659523Y-81129819D01*
X70611904Y-81129819D02*
X70135714Y-81129819D01*
X70135714Y-81129819D02*
X70088095Y-81606009D01*
X70088095Y-81606009D02*
X70135714Y-81558390D01*
X70135714Y-81558390D02*
X70230952Y-81510771D01*
X70230952Y-81510771D02*
X70469047Y-81510771D01*
X70469047Y-81510771D02*
X70564285Y-81558390D01*
X70564285Y-81558390D02*
X70611904Y-81606009D01*
X70611904Y-81606009D02*
X70659523Y-81701247D01*
X70659523Y-81701247D02*
X70659523Y-81939342D01*
X70659523Y-81939342D02*
X70611904Y-82034580D01*
X70611904Y-82034580D02*
X70564285Y-82082200D01*
X70564285Y-82082200D02*
X70469047Y-82129819D01*
X70469047Y-82129819D02*
X70230952Y-82129819D01*
X70230952Y-82129819D02*
X70135714Y-82082200D01*
X70135714Y-82082200D02*
X70088095Y-82034580D01*
X101166667Y-76954819D02*
X101166667Y-75954819D01*
X101166667Y-75954819D02*
X101500000Y-76669104D01*
X101500000Y-76669104D02*
X101833333Y-75954819D01*
X101833333Y-75954819D02*
X101833333Y-76954819D01*
X102309524Y-76954819D02*
X102309524Y-75954819D01*
X102309524Y-76431009D02*
X102880952Y-76431009D01*
X102880952Y-76954819D02*
X102880952Y-75954819D01*
X103880952Y-76954819D02*
X103309524Y-76954819D01*
X103595238Y-76954819D02*
X103595238Y-75954819D01*
X103595238Y-75954819D02*
X103500000Y-76097676D01*
X103500000Y-76097676D02*
X103404762Y-76192914D01*
X103404762Y-76192914D02*
X103309524Y-76240533D01*
X100666667Y-125454819D02*
X100666667Y-124454819D01*
X100666667Y-124454819D02*
X101000000Y-125169104D01*
X101000000Y-125169104D02*
X101333333Y-124454819D01*
X101333333Y-124454819D02*
X101333333Y-125454819D01*
X101809524Y-125454819D02*
X101809524Y-124454819D01*
X101809524Y-124931009D02*
X102380952Y-124931009D01*
X102380952Y-125454819D02*
X102380952Y-124454819D01*
X102809524Y-124550057D02*
X102857143Y-124502438D01*
X102857143Y-124502438D02*
X102952381Y-124454819D01*
X102952381Y-124454819D02*
X103190476Y-124454819D01*
X103190476Y-124454819D02*
X103285714Y-124502438D01*
X103285714Y-124502438D02*
X103333333Y-124550057D01*
X103333333Y-124550057D02*
X103380952Y-124645295D01*
X103380952Y-124645295D02*
X103380952Y-124740533D01*
X103380952Y-124740533D02*
X103333333Y-124883390D01*
X103333333Y-124883390D02*
X102761905Y-125454819D01*
X102761905Y-125454819D02*
X103380952Y-125454819D01*
X84217261Y-83404819D02*
X83645833Y-83404819D01*
X83931547Y-83404819D02*
X83931547Y-82404819D01*
X83931547Y-82404819D02*
X83836309Y-82547676D01*
X83836309Y-82547676D02*
X83741071Y-82642914D01*
X83741071Y-82642914D02*
X83645833Y-82690533D01*
X84836309Y-82404819D02*
X84931547Y-82404819D01*
X84931547Y-82404819D02*
X85026785Y-82452438D01*
X85026785Y-82452438D02*
X85074404Y-82500057D01*
X85074404Y-82500057D02*
X85122023Y-82595295D01*
X85122023Y-82595295D02*
X85169642Y-82785771D01*
X85169642Y-82785771D02*
X85169642Y-83023866D01*
X85169642Y-83023866D02*
X85122023Y-83214342D01*
X85122023Y-83214342D02*
X85074404Y-83309580D01*
X85074404Y-83309580D02*
X85026785Y-83357200D01*
X85026785Y-83357200D02*
X84931547Y-83404819D01*
X84931547Y-83404819D02*
X84836309Y-83404819D01*
X84836309Y-83404819D02*
X84741071Y-83357200D01*
X84741071Y-83357200D02*
X84693452Y-83309580D01*
X84693452Y-83309580D02*
X84645833Y-83214342D01*
X84645833Y-83214342D02*
X84598214Y-83023866D01*
X84598214Y-83023866D02*
X84598214Y-82785771D01*
X84598214Y-82785771D02*
X84645833Y-82595295D01*
X84645833Y-82595295D02*
X84693452Y-82500057D01*
X84693452Y-82500057D02*
X84741071Y-82452438D01*
X84741071Y-82452438D02*
X84836309Y-82404819D01*
X85788690Y-82404819D02*
X85883928Y-82404819D01*
X85883928Y-82404819D02*
X85979166Y-82452438D01*
X85979166Y-82452438D02*
X86026785Y-82500057D01*
X86026785Y-82500057D02*
X86074404Y-82595295D01*
X86074404Y-82595295D02*
X86122023Y-82785771D01*
X86122023Y-82785771D02*
X86122023Y-83023866D01*
X86122023Y-83023866D02*
X86074404Y-83214342D01*
X86074404Y-83214342D02*
X86026785Y-83309580D01*
X86026785Y-83309580D02*
X85979166Y-83357200D01*
X85979166Y-83357200D02*
X85883928Y-83404819D01*
X85883928Y-83404819D02*
X85788690Y-83404819D01*
X85788690Y-83404819D02*
X85693452Y-83357200D01*
X85693452Y-83357200D02*
X85645833Y-83309580D01*
X85645833Y-83309580D02*
X85598214Y-83214342D01*
X85598214Y-83214342D02*
X85550595Y-83023866D01*
X85550595Y-83023866D02*
X85550595Y-82785771D01*
X85550595Y-82785771D02*
X85598214Y-82595295D01*
X85598214Y-82595295D02*
X85645833Y-82500057D01*
X85645833Y-82500057D02*
X85693452Y-82452438D01*
X85693452Y-82452438D02*
X85788690Y-82404819D01*
X86550595Y-82738152D02*
X86550595Y-83404819D01*
X86550595Y-82833390D02*
X86598214Y-82785771D01*
X86598214Y-82785771D02*
X86693452Y-82738152D01*
X86693452Y-82738152D02*
X86836309Y-82738152D01*
X86836309Y-82738152D02*
X86931547Y-82785771D01*
X86931547Y-82785771D02*
X86979166Y-82881009D01*
X86979166Y-82881009D02*
X86979166Y-83404819D01*
X87979166Y-83404819D02*
X87407738Y-83404819D01*
X87693452Y-83404819D02*
X87693452Y-82404819D01*
X87693452Y-82404819D02*
X87598214Y-82547676D01*
X87598214Y-82547676D02*
X87502976Y-82642914D01*
X87502976Y-82642914D02*
X87407738Y-82690533D01*
X101666667Y-90407200D02*
X101809524Y-90454819D01*
X101809524Y-90454819D02*
X102047619Y-90454819D01*
X102047619Y-90454819D02*
X102142857Y-90407200D01*
X102142857Y-90407200D02*
X102190476Y-90359580D01*
X102190476Y-90359580D02*
X102238095Y-90264342D01*
X102238095Y-90264342D02*
X102238095Y-90169104D01*
X102238095Y-90169104D02*
X102190476Y-90073866D01*
X102190476Y-90073866D02*
X102142857Y-90026247D01*
X102142857Y-90026247D02*
X102047619Y-89978628D01*
X102047619Y-89978628D02*
X101857143Y-89931009D01*
X101857143Y-89931009D02*
X101761905Y-89883390D01*
X101761905Y-89883390D02*
X101714286Y-89835771D01*
X101714286Y-89835771D02*
X101666667Y-89740533D01*
X101666667Y-89740533D02*
X101666667Y-89645295D01*
X101666667Y-89645295D02*
X101714286Y-89550057D01*
X101714286Y-89550057D02*
X101761905Y-89502438D01*
X101761905Y-89502438D02*
X101857143Y-89454819D01*
X101857143Y-89454819D02*
X102095238Y-89454819D01*
X102095238Y-89454819D02*
X102238095Y-89502438D01*
X102571429Y-89454819D02*
X102809524Y-90454819D01*
X102809524Y-90454819D02*
X103000000Y-89740533D01*
X103000000Y-89740533D02*
X103190476Y-90454819D01*
X103190476Y-90454819D02*
X103428572Y-89454819D01*
X104333333Y-90454819D02*
X103761905Y-90454819D01*
X104047619Y-90454819D02*
X104047619Y-89454819D01*
X104047619Y-89454819D02*
X103952381Y-89597676D01*
X103952381Y-89597676D02*
X103857143Y-89692914D01*
X103857143Y-89692914D02*
X103761905Y-89740533D01*
X69716667Y-125304819D02*
X69716667Y-124304819D01*
X69716667Y-124304819D02*
X70050000Y-125019104D01*
X70050000Y-125019104D02*
X70383333Y-124304819D01*
X70383333Y-124304819D02*
X70383333Y-125304819D01*
X70859524Y-125304819D02*
X70859524Y-124304819D01*
X70859524Y-124781009D02*
X71430952Y-124781009D01*
X71430952Y-125304819D02*
X71430952Y-124304819D01*
X71811905Y-124304819D02*
X72430952Y-124304819D01*
X72430952Y-124304819D02*
X72097619Y-124685771D01*
X72097619Y-124685771D02*
X72240476Y-124685771D01*
X72240476Y-124685771D02*
X72335714Y-124733390D01*
X72335714Y-124733390D02*
X72383333Y-124781009D01*
X72383333Y-124781009D02*
X72430952Y-124876247D01*
X72430952Y-124876247D02*
X72430952Y-125114342D01*
X72430952Y-125114342D02*
X72383333Y-125209580D01*
X72383333Y-125209580D02*
X72335714Y-125257200D01*
X72335714Y-125257200D02*
X72240476Y-125304819D01*
X72240476Y-125304819D02*
X71954762Y-125304819D01*
X71954762Y-125304819D02*
X71859524Y-125257200D01*
X71859524Y-125257200D02*
X71811905Y-125209580D01*
X63781009Y-104785714D02*
X63828628Y-104642857D01*
X63828628Y-104642857D02*
X63876247Y-104595238D01*
X63876247Y-104595238D02*
X63971485Y-104547619D01*
X63971485Y-104547619D02*
X64114342Y-104547619D01*
X64114342Y-104547619D02*
X64209580Y-104595238D01*
X64209580Y-104595238D02*
X64257200Y-104642857D01*
X64257200Y-104642857D02*
X64304819Y-104738095D01*
X64304819Y-104738095D02*
X64304819Y-105119047D01*
X64304819Y-105119047D02*
X63304819Y-105119047D01*
X63304819Y-105119047D02*
X63304819Y-104785714D01*
X63304819Y-104785714D02*
X63352438Y-104690476D01*
X63352438Y-104690476D02*
X63400057Y-104642857D01*
X63400057Y-104642857D02*
X63495295Y-104595238D01*
X63495295Y-104595238D02*
X63590533Y-104595238D01*
X63590533Y-104595238D02*
X63685771Y-104642857D01*
X63685771Y-104642857D02*
X63733390Y-104690476D01*
X63733390Y-104690476D02*
X63781009Y-104785714D01*
X63781009Y-104785714D02*
X63781009Y-105119047D01*
X63304819Y-104261904D02*
X63304819Y-103690476D01*
X64304819Y-103976190D02*
X63304819Y-103976190D01*
X63400057Y-103404761D02*
X63352438Y-103357142D01*
X63352438Y-103357142D02*
X63304819Y-103261904D01*
X63304819Y-103261904D02*
X63304819Y-103023809D01*
X63304819Y-103023809D02*
X63352438Y-102928571D01*
X63352438Y-102928571D02*
X63400057Y-102880952D01*
X63400057Y-102880952D02*
X63495295Y-102833333D01*
X63495295Y-102833333D02*
X63590533Y-102833333D01*
X63590533Y-102833333D02*
X63733390Y-102880952D01*
X63733390Y-102880952D02*
X64304819Y-103452380D01*
X64304819Y-103452380D02*
X64304819Y-102833333D01*
X99920833Y-98009580D02*
X99873214Y-98057200D01*
X99873214Y-98057200D02*
X99730357Y-98104819D01*
X99730357Y-98104819D02*
X99635119Y-98104819D01*
X99635119Y-98104819D02*
X99492262Y-98057200D01*
X99492262Y-98057200D02*
X99397024Y-97961961D01*
X99397024Y-97961961D02*
X99349405Y-97866723D01*
X99349405Y-97866723D02*
X99301786Y-97676247D01*
X99301786Y-97676247D02*
X99301786Y-97533390D01*
X99301786Y-97533390D02*
X99349405Y-97342914D01*
X99349405Y-97342914D02*
X99397024Y-97247676D01*
X99397024Y-97247676D02*
X99492262Y-97152438D01*
X99492262Y-97152438D02*
X99635119Y-97104819D01*
X99635119Y-97104819D02*
X99730357Y-97104819D01*
X99730357Y-97104819D02*
X99873214Y-97152438D01*
X99873214Y-97152438D02*
X99920833Y-97200057D01*
X100777976Y-97438152D02*
X100777976Y-98104819D01*
X100539881Y-97057200D02*
X100301786Y-97771485D01*
X100301786Y-97771485D02*
X100920833Y-97771485D01*
X96383333Y-83359580D02*
X96335714Y-83407200D01*
X96335714Y-83407200D02*
X96192857Y-83454819D01*
X96192857Y-83454819D02*
X96097619Y-83454819D01*
X96097619Y-83454819D02*
X95954762Y-83407200D01*
X95954762Y-83407200D02*
X95859524Y-83311961D01*
X95859524Y-83311961D02*
X95811905Y-83216723D01*
X95811905Y-83216723D02*
X95764286Y-83026247D01*
X95764286Y-83026247D02*
X95764286Y-82883390D01*
X95764286Y-82883390D02*
X95811905Y-82692914D01*
X95811905Y-82692914D02*
X95859524Y-82597676D01*
X95859524Y-82597676D02*
X95954762Y-82502438D01*
X95954762Y-82502438D02*
X96097619Y-82454819D01*
X96097619Y-82454819D02*
X96192857Y-82454819D01*
X96192857Y-82454819D02*
X96335714Y-82502438D01*
X96335714Y-82502438D02*
X96383333Y-82550057D01*
X96716667Y-82454819D02*
X97335714Y-82454819D01*
X97335714Y-82454819D02*
X97002381Y-82835771D01*
X97002381Y-82835771D02*
X97145238Y-82835771D01*
X97145238Y-82835771D02*
X97240476Y-82883390D01*
X97240476Y-82883390D02*
X97288095Y-82931009D01*
X97288095Y-82931009D02*
X97335714Y-83026247D01*
X97335714Y-83026247D02*
X97335714Y-83264342D01*
X97335714Y-83264342D02*
X97288095Y-83359580D01*
X97288095Y-83359580D02*
X97240476Y-83407200D01*
X97240476Y-83407200D02*
X97145238Y-83454819D01*
X97145238Y-83454819D02*
X96859524Y-83454819D01*
X96859524Y-83454819D02*
X96764286Y-83407200D01*
X96764286Y-83407200D02*
X96716667Y-83359580D01*
X105020833Y-98054819D02*
X104687500Y-97578628D01*
X104449405Y-98054819D02*
X104449405Y-97054819D01*
X104449405Y-97054819D02*
X104830357Y-97054819D01*
X104830357Y-97054819D02*
X104925595Y-97102438D01*
X104925595Y-97102438D02*
X104973214Y-97150057D01*
X104973214Y-97150057D02*
X105020833Y-97245295D01*
X105020833Y-97245295D02*
X105020833Y-97388152D01*
X105020833Y-97388152D02*
X104973214Y-97483390D01*
X104973214Y-97483390D02*
X104925595Y-97531009D01*
X104925595Y-97531009D02*
X104830357Y-97578628D01*
X104830357Y-97578628D02*
X104449405Y-97578628D01*
X105354167Y-97054819D02*
X105973214Y-97054819D01*
X105973214Y-97054819D02*
X105639881Y-97435771D01*
X105639881Y-97435771D02*
X105782738Y-97435771D01*
X105782738Y-97435771D02*
X105877976Y-97483390D01*
X105877976Y-97483390D02*
X105925595Y-97531009D01*
X105925595Y-97531009D02*
X105973214Y-97626247D01*
X105973214Y-97626247D02*
X105973214Y-97864342D01*
X105973214Y-97864342D02*
X105925595Y-97959580D01*
X105925595Y-97959580D02*
X105877976Y-98007200D01*
X105877976Y-98007200D02*
X105782738Y-98054819D01*
X105782738Y-98054819D02*
X105497024Y-98054819D01*
X105497024Y-98054819D02*
X105401786Y-98007200D01*
X105401786Y-98007200D02*
X105354167Y-97959580D01*
D12*
X91810000Y-115115000D02*
X91810000Y-119475000D01*
X89310000Y-115115000D02*
X91810000Y-115115000D01*
X86450000Y-114915000D02*
X85790000Y-114915000D01*
X85790000Y-115115000D02*
X85790000Y-114915000D01*
X83290000Y-115115000D02*
X85790000Y-115115000D01*
X83290000Y-115115000D02*
X83290000Y-119475000D01*
X95470000Y-117930000D02*
X98070000Y-117930000D01*
X95470000Y-117930000D02*
X95470000Y-115270000D01*
X98070000Y-117930000D02*
X98070000Y-115270000D01*
X92870000Y-116600000D02*
X92870000Y-115270000D01*
X92870000Y-115270000D02*
X94200000Y-115270000D01*
X95470000Y-115270000D02*
X98070000Y-115270000D01*
X79730000Y-117880000D02*
X82330000Y-117880000D01*
X79730000Y-117880000D02*
X79730000Y-115220000D01*
X82330000Y-117880000D02*
X82330000Y-115220000D01*
X77130000Y-116550000D02*
X77130000Y-115220000D01*
X77130000Y-115220000D02*
X78460000Y-115220000D01*
X79730000Y-115220000D02*
X82330000Y-115220000D01*
X75910000Y-80630000D02*
X101370000Y-80630000D01*
X75910000Y-80630000D02*
X75910000Y-77970000D01*
X101370000Y-80630000D02*
X101370000Y-77970000D01*
X73310000Y-79300000D02*
X73310000Y-77970000D01*
X73310000Y-77970000D02*
X74640000Y-77970000D01*
X75910000Y-77970000D02*
X101370000Y-77970000D01*
X71611252Y-102660000D02*
X70188748Y-102660000D01*
X71611252Y-100840000D02*
X70188748Y-100840000D01*
X75610000Y-103438748D02*
X75610000Y-104861252D01*
X73790000Y-103438748D02*
X73790000Y-104861252D01*
X102889564Y-85760000D02*
X101435436Y-85760000D01*
X102889564Y-83940000D02*
X101435436Y-83940000D01*
D11*
X75725000Y-110575000D02*
X75500000Y-110575000D01*
X75725000Y-110575000D02*
X75725000Y-116325000D01*
X75500000Y-110575000D02*
X75500000Y-108975000D01*
X67075000Y-110575000D02*
X67375000Y-110575000D01*
X67075000Y-110575000D02*
X67075000Y-116325000D01*
X75725000Y-116325000D02*
X75425000Y-116325000D01*
X67075000Y-116325000D02*
X67375000Y-116325000D01*
D12*
X71623752Y-107460000D02*
X70201248Y-107460000D01*
X71623752Y-105640000D02*
X70201248Y-105640000D01*
X100440000Y-112910000D02*
X100440000Y-112185000D01*
X101165000Y-107690000D02*
X100440000Y-107690000D01*
X101165000Y-112910000D02*
X100440000Y-112910000D01*
X104935000Y-107690000D02*
X105660000Y-107690000D01*
X104935000Y-112910000D02*
X105660000Y-112910000D01*
X105660000Y-107690000D02*
X105660000Y-108415000D01*
X105660000Y-112910000D02*
X105660000Y-112185000D01*
X95470000Y-113010000D02*
X95470000Y-106595000D01*
X95470000Y-113010000D02*
X77230000Y-113010000D01*
X95470000Y-106595000D02*
X95850000Y-106595000D01*
X95470000Y-88050000D02*
X95470000Y-87270000D01*
X95470000Y-87270000D02*
X94470000Y-87270000D01*
X77230000Y-113010000D02*
X77230000Y-106595000D01*
X77230000Y-88050000D02*
X77230000Y-87270000D01*
X77230000Y-87270000D02*
X78230000Y-87270000D01*
X99600000Y-100881128D02*
X99600000Y-102381128D01*
X100850000Y-104881128D02*
X105350000Y-104881128D01*
X105350000Y-98381128D02*
X100850000Y-98381128D01*
X106600000Y-102381128D02*
X106600000Y-100881128D01*
X81023752Y-85760000D02*
X79601248Y-85760000D01*
X81023752Y-83940000D02*
X79601248Y-83940000D01*
X71611252Y-105060000D02*
X70188748Y-105060000D01*
X71611252Y-103240000D02*
X70188748Y-103240000D01*
X90451248Y-83890000D02*
X91873752Y-83890000D01*
X90451248Y-85710000D02*
X91873752Y-85710000D01*
X64550000Y-93700000D02*
X65500000Y-93700000D01*
X65500000Y-93700000D02*
X65500000Y-98825000D01*
X74000000Y-93700000D02*
X74000000Y-94800000D01*
X74950000Y-93700000D02*
X74000000Y-93700000D01*
X64550000Y-92200000D02*
X64550000Y-93700000D01*
X74950000Y-92200000D02*
X74950000Y-93700000D01*
X85101248Y-83890000D02*
X86523752Y-83890000D01*
X85101248Y-85710000D02*
X86523752Y-85710000D01*
X99650000Y-89200000D02*
X99650000Y-90700000D01*
X100900000Y-93200000D02*
X105400000Y-93200000D01*
X105400000Y-86700000D02*
X100900000Y-86700000D01*
X106650000Y-90700000D02*
X106650000Y-89200000D01*
X64920000Y-101520000D02*
X66250000Y-101520000D01*
X64920000Y-102850000D02*
X64920000Y-101520000D01*
X64920000Y-104120000D02*
X64920000Y-106720000D01*
X64920000Y-104120000D02*
X67580000Y-104120000D01*
X64920000Y-106720000D02*
X67580000Y-106720000D01*
X67580000Y-104120000D02*
X67580000Y-106720000D01*
X100798752Y-96710000D02*
X99376248Y-96710000D01*
X100798752Y-94890000D02*
X99376248Y-94890000D01*
X97411252Y-85760000D02*
X95988748Y-85760000D01*
X97411252Y-83940000D02*
X95988748Y-83940000D01*
X106064564Y-96710000D02*
X104610436Y-96710000D01*
X106064564Y-94890000D02*
X104610436Y-94890000D01*
%LPC*%
D13*
X90850000Y-118525000D03*
D14*
X90750000Y-116075000D03*
D15*
X88750000Y-118525000D03*
X86350000Y-118525000D03*
D14*
X84350000Y-116075000D03*
D13*
X84250000Y-118525000D03*
D16*
X88850000Y-115850000D03*
X88200000Y-115850000D03*
X87550000Y-115850000D03*
X86900000Y-115850000D03*
X86250000Y-115850000D03*
D17*
X94200000Y-116600000D03*
D18*
X96740000Y-116600000D03*
D17*
X78460000Y-116550000D03*
D18*
X81000000Y-116550000D03*
D17*
X74640000Y-79300000D03*
D18*
X77180000Y-79300000D03*
X79720000Y-79300000D03*
X82260000Y-79300000D03*
X84800000Y-79300000D03*
X87340000Y-79300000D03*
X89880000Y-79300000D03*
X92420000Y-79300000D03*
X94960000Y-79300000D03*
X97500000Y-79300000D03*
X100040000Y-79300000D03*
D19*
X72462500Y-101750000D03*
X69337500Y-101750000D03*
D20*
X64475000Y-78950000D03*
X65068109Y-77518109D03*
X65068109Y-80381891D03*
X66500000Y-76925000D03*
D21*
X66500000Y-78950000D03*
D20*
X66500000Y-80975000D03*
X67931891Y-77518109D03*
X67931891Y-80381891D03*
X68525000Y-78950000D03*
D22*
X74700000Y-102587500D03*
X74700000Y-105712500D03*
D23*
X103712500Y-84850000D03*
X100612500Y-84850000D03*
D24*
X74975000Y-109850000D03*
X74325000Y-109850000D03*
X73675000Y-109850000D03*
X73025000Y-109850000D03*
X72375000Y-109850000D03*
X71725000Y-109850000D03*
X71075000Y-109850000D03*
X70425000Y-109850000D03*
X69775000Y-109850000D03*
X69125000Y-109850000D03*
X68475000Y-109850000D03*
X67825000Y-109850000D03*
X67825000Y-117050000D03*
X68475000Y-117050000D03*
X69125000Y-117050000D03*
X69775000Y-117050000D03*
X70425000Y-117050000D03*
X71075000Y-117050000D03*
X71725000Y-117050000D03*
X72375000Y-117050000D03*
X73025000Y-117050000D03*
X73675000Y-117050000D03*
X74325000Y-117050000D03*
X74975000Y-117050000D03*
D19*
X72475000Y-106550000D03*
X69350000Y-106550000D03*
D25*
X100600000Y-108800000D03*
X100600000Y-109300000D03*
X100600000Y-109800000D03*
X100600000Y-110300000D03*
X100600000Y-110800000D03*
X100600000Y-111300000D03*
X100600000Y-111800000D03*
D26*
X101550000Y-112750000D03*
X102050000Y-112750000D03*
X102550000Y-112750000D03*
X103050000Y-112750000D03*
X103550000Y-112750000D03*
X104050000Y-112750000D03*
X104550000Y-112750000D03*
D25*
X105500000Y-111800000D03*
X105500000Y-111300000D03*
X105500000Y-110800000D03*
X105500000Y-110300000D03*
X105500000Y-109800000D03*
X105500000Y-109300000D03*
X105500000Y-108800000D03*
D26*
X104550000Y-107850000D03*
X104050000Y-107850000D03*
X103550000Y-107850000D03*
X103050000Y-107850000D03*
X102550000Y-107850000D03*
X102050000Y-107850000D03*
X101550000Y-107850000D03*
D27*
X103050000Y-110300000D03*
D28*
X95100000Y-105400000D03*
X95100000Y-104130000D03*
X95100000Y-102860000D03*
X95100000Y-101590000D03*
X95100000Y-100320000D03*
X95100000Y-99050000D03*
X95100000Y-97780000D03*
X95100000Y-96510000D03*
X95100000Y-95240000D03*
X95100000Y-93970000D03*
X95100000Y-92700000D03*
X95100000Y-91430000D03*
X95100000Y-90160000D03*
X95100000Y-88890000D03*
D29*
X92060000Y-87640000D03*
X90790000Y-87640000D03*
X89520000Y-87640000D03*
X88250000Y-87640000D03*
X86980000Y-87640000D03*
X85710000Y-87640000D03*
X84440000Y-87640000D03*
X83170000Y-87640000D03*
X81900000Y-87640000D03*
X80630000Y-87640000D03*
D28*
X77600000Y-88890000D03*
X77600000Y-90160000D03*
X77600000Y-91430000D03*
X77600000Y-92700000D03*
X77600000Y-93970000D03*
X77600000Y-95240000D03*
X77600000Y-96510000D03*
X77600000Y-97780000D03*
X77600000Y-99050000D03*
X77600000Y-100320000D03*
X77600000Y-101590000D03*
X77600000Y-102860000D03*
X77600000Y-104130000D03*
X77600000Y-105400000D03*
D30*
X88555000Y-98822500D03*
X88555000Y-97297500D03*
X87792500Y-99585000D03*
X87792500Y-98060000D03*
X87792500Y-96535000D03*
X87030000Y-98822500D03*
D31*
X87030000Y-98060000D03*
D30*
X87030000Y-97297500D03*
X86267500Y-99585000D03*
X86267500Y-98060000D03*
X86267500Y-96535000D03*
X85505000Y-98822500D03*
X85505000Y-97297500D03*
D32*
X99850000Y-99381128D03*
X106350000Y-99381128D03*
X99850000Y-103881128D03*
X106350000Y-103881128D03*
D19*
X81875000Y-84850000D03*
X78750000Y-84850000D03*
X72462500Y-104150000D03*
X69337500Y-104150000D03*
D33*
X89600000Y-84800000D03*
X92725000Y-84800000D03*
D34*
X66350000Y-96525000D03*
X68050000Y-96525000D03*
X69750000Y-96525000D03*
D35*
X69750000Y-87375000D03*
D34*
X71450000Y-96525000D03*
X73150000Y-96525000D03*
D20*
X104300000Y-79068109D03*
X104893109Y-77636218D03*
X104893109Y-80500000D03*
X106325000Y-77043109D03*
D21*
X106325000Y-79068109D03*
D20*
X106325000Y-81093109D03*
X107756891Y-77636218D03*
X107756891Y-80500000D03*
X108350000Y-79068109D03*
X104325000Y-122218109D03*
X104918109Y-120786218D03*
X104918109Y-123650000D03*
X106350000Y-120193109D03*
D21*
X106350000Y-122218109D03*
D20*
X106350000Y-124243109D03*
X107781891Y-120786218D03*
X107781891Y-123650000D03*
X108375000Y-122218109D03*
D33*
X84250000Y-84800000D03*
X87375000Y-84800000D03*
D32*
X99900000Y-87700000D03*
X106400000Y-87700000D03*
X99900000Y-92200000D03*
X106400000Y-92200000D03*
D20*
X64525000Y-122350000D03*
X65118109Y-120918109D03*
X65118109Y-123781891D03*
X66550000Y-120325000D03*
D21*
X66550000Y-122350000D03*
D20*
X66550000Y-124375000D03*
X67981891Y-120918109D03*
X67981891Y-123781891D03*
X68575000Y-122350000D03*
D17*
X66250000Y-102850000D03*
D18*
X66250000Y-105390000D03*
D19*
X101650000Y-95800000D03*
X98525000Y-95800000D03*
X98262500Y-84850000D03*
X95137500Y-84850000D03*
D23*
X106887500Y-95800000D03*
X103787500Y-95800000D03*
%LPD*%
M02*
