G04 #@! TF.GenerationSoftware,KiCad,Pcbnew,7.0.7*
G04 #@! TF.CreationDate,2024-07-30T23:44:58+02:00*
G04 #@! TF.ProjectId,linefollower_pcb,6c696e65-666f-46c6-9c6f-7765725f7063,rev?*
G04 #@! TF.SameCoordinates,Original*
G04 #@! TF.FileFunction,Copper,L1,Top*
G04 #@! TF.FilePolarity,Positive*
%FSLAX46Y46*%
G04 Gerber Fmt 4.6, Leading zero omitted, Abs format (unit mm)*
G04 Created by KiCad (PCBNEW 7.0.7) date 2024-07-30 23:44:58*
%MOMM*%
%LPD*%
G01*
G04 APERTURE LIST*
G04 Aperture macros list*
%AMRoundRect*
0 Rectangle with rounded corners*
0 $1 Rounding radius*
0 $2 $3 $4 $5 $6 $7 $8 $9 X,Y pos of 4 corners*
0 Add a 4 corners polygon primitive as box body*
4,1,4,$2,$3,$4,$5,$6,$7,$8,$9,$2,$3,0*
0 Add four circle primitives for the rounded corners*
1,1,$1+$1,$2,$3*
1,1,$1+$1,$4,$5*
1,1,$1+$1,$6,$7*
1,1,$1+$1,$8,$9*
0 Add four rect primitives between the rounded corners*
20,1,$1+$1,$2,$3,$4,$5,0*
20,1,$1+$1,$4,$5,$6,$7,0*
20,1,$1+$1,$6,$7,$8,$9,0*
20,1,$1+$1,$8,$9,$2,$3,0*%
G04 Aperture macros list end*
G04 #@! TA.AperFunction,ComponentPad*
%ADD10O,0.900000X1.600000*%
G04 #@! TD*
G04 #@! TA.AperFunction,SMDPad,CuDef*
%ADD11RoundRect,0.250000X-0.550000X-0.450000X0.550000X-0.450000X0.550000X0.450000X-0.550000X0.450000X0*%
G04 #@! TD*
G04 #@! TA.AperFunction,SMDPad,CuDef*
%ADD12RoundRect,0.250000X-0.700000X-0.700000X0.700000X-0.700000X0.700000X0.700000X-0.700000X0.700000X0*%
G04 #@! TD*
G04 #@! TA.AperFunction,SMDPad,CuDef*
%ADD13RoundRect,0.100000X-0.100000X-0.575000X0.100000X-0.575000X0.100000X0.575000X-0.100000X0.575000X0*%
G04 #@! TD*
G04 #@! TA.AperFunction,ComponentPad*
%ADD14R,1.700000X1.700000*%
G04 #@! TD*
G04 #@! TA.AperFunction,ComponentPad*
%ADD15O,1.700000X1.700000*%
G04 #@! TD*
G04 #@! TA.AperFunction,SMDPad,CuDef*
%ADD16RoundRect,0.250000X0.412500X0.650000X-0.412500X0.650000X-0.412500X-0.650000X0.412500X-0.650000X0*%
G04 #@! TD*
G04 #@! TA.AperFunction,ComponentPad*
%ADD17C,0.800000*%
G04 #@! TD*
G04 #@! TA.AperFunction,ComponentPad*
%ADD18C,5.400000*%
G04 #@! TD*
G04 #@! TA.AperFunction,SMDPad,CuDef*
%ADD19RoundRect,0.250000X-0.650000X0.412500X-0.650000X-0.412500X0.650000X-0.412500X0.650000X0.412500X0*%
G04 #@! TD*
G04 #@! TA.AperFunction,SMDPad,CuDef*
%ADD20RoundRect,0.250000X0.400000X0.625000X-0.400000X0.625000X-0.400000X-0.625000X0.400000X-0.625000X0*%
G04 #@! TD*
G04 #@! TA.AperFunction,SMDPad,CuDef*
%ADD21R,0.450000X1.750000*%
G04 #@! TD*
G04 #@! TA.AperFunction,SMDPad,CuDef*
%ADD22RoundRect,0.062500X-0.337500X-0.062500X0.337500X-0.062500X0.337500X0.062500X-0.337500X0.062500X0*%
G04 #@! TD*
G04 #@! TA.AperFunction,SMDPad,CuDef*
%ADD23RoundRect,0.062500X-0.062500X-0.337500X0.062500X-0.337500X0.062500X0.337500X-0.062500X0.337500X0*%
G04 #@! TD*
G04 #@! TA.AperFunction,SMDPad,CuDef*
%ADD24R,3.350000X3.350000*%
G04 #@! TD*
G04 #@! TA.AperFunction,SMDPad,CuDef*
%ADD25R,1.500000X0.900000*%
G04 #@! TD*
G04 #@! TA.AperFunction,SMDPad,CuDef*
%ADD26R,0.900000X1.500000*%
G04 #@! TD*
G04 #@! TA.AperFunction,SMDPad,CuDef*
%ADD27R,1.050000X1.050000*%
G04 #@! TD*
G04 #@! TA.AperFunction,HeatsinkPad*
%ADD28C,0.600000*%
G04 #@! TD*
G04 #@! TA.AperFunction,SMDPad,CuDef*
%ADD29R,4.200000X4.200000*%
G04 #@! TD*
G04 #@! TA.AperFunction,ComponentPad*
%ADD30C,2.000000*%
G04 #@! TD*
G04 #@! TA.AperFunction,SMDPad,CuDef*
%ADD31RoundRect,0.250000X-0.412500X-0.650000X0.412500X-0.650000X0.412500X0.650000X-0.412500X0.650000X0*%
G04 #@! TD*
G04 #@! TA.AperFunction,SMDPad,CuDef*
%ADD32RoundRect,0.250000X0.300000X-2.050000X0.300000X2.050000X-0.300000X2.050000X-0.300000X-2.050000X0*%
G04 #@! TD*
G04 #@! TA.AperFunction,SMDPad,CuDef*
%ADD33RoundRect,0.250000X2.375000X-2.025000X2.375000X2.025000X-2.375000X2.025000X-2.375000X-2.025000X0*%
G04 #@! TD*
G04 #@! TA.AperFunction,SMDPad,CuDef*
%ADD34RoundRect,0.250002X5.149998X-4.449998X5.149998X4.449998X-5.149998X4.449998X-5.149998X-4.449998X0*%
G04 #@! TD*
G04 #@! TA.AperFunction,ViaPad*
%ADD35C,0.800000*%
G04 #@! TD*
G04 #@! TA.AperFunction,Conductor*
%ADD36C,0.250000*%
G04 #@! TD*
G04 #@! TA.AperFunction,Conductor*
%ADD37C,0.200000*%
G04 #@! TD*
G04 #@! TA.AperFunction,Conductor*
%ADD38C,0.300000*%
G04 #@! TD*
G04 #@! TA.AperFunction,Conductor*
%ADD39C,0.500000*%
G04 #@! TD*
G04 #@! TA.AperFunction,Conductor*
%ADD40C,0.400000*%
G04 #@! TD*
G04 APERTURE END LIST*
D10*
X90850000Y-118525000D03*
D11*
X90750000Y-116075000D03*
D12*
X88750000Y-118525000D03*
X86350000Y-118525000D03*
D11*
X84350000Y-116075000D03*
D10*
X84250000Y-118525000D03*
D13*
X88850000Y-115850000D03*
X88200000Y-115850000D03*
X87550000Y-115850000D03*
X86900000Y-115850000D03*
X86250000Y-115850000D03*
D14*
X94200000Y-116600000D03*
D15*
X96740000Y-116600000D03*
D14*
X78460000Y-116550000D03*
D15*
X81000000Y-116550000D03*
D14*
X74640000Y-79300000D03*
D15*
X77180000Y-79300000D03*
X79720000Y-79300000D03*
X82260000Y-79300000D03*
X84800000Y-79300000D03*
X87340000Y-79300000D03*
X89880000Y-79300000D03*
X92420000Y-79300000D03*
X94960000Y-79300000D03*
X97500000Y-79300000D03*
X100040000Y-79300000D03*
D16*
X72462500Y-101750000D03*
X69337500Y-101750000D03*
D17*
X64475000Y-78950000D03*
X65068109Y-77518109D03*
X65068109Y-80381891D03*
X66500000Y-76925000D03*
D18*
X66500000Y-78950000D03*
D17*
X66500000Y-80975000D03*
X67931891Y-77518109D03*
X67931891Y-80381891D03*
X68525000Y-78950000D03*
D19*
X74700000Y-102587500D03*
X74700000Y-105712500D03*
D20*
X103712500Y-84850000D03*
X100612500Y-84850000D03*
D21*
X74975000Y-109850000D03*
X74325000Y-109850000D03*
X73675000Y-109850000D03*
X73025000Y-109850000D03*
X72375000Y-109850000D03*
X71725000Y-109850000D03*
X71075000Y-109850000D03*
X70425000Y-109850000D03*
X69775000Y-109850000D03*
X69125000Y-109850000D03*
X68475000Y-109850000D03*
X67825000Y-109850000D03*
X67825000Y-117050000D03*
X68475000Y-117050000D03*
X69125000Y-117050000D03*
X69775000Y-117050000D03*
X70425000Y-117050000D03*
X71075000Y-117050000D03*
X71725000Y-117050000D03*
X72375000Y-117050000D03*
X73025000Y-117050000D03*
X73675000Y-117050000D03*
X74325000Y-117050000D03*
X74975000Y-117050000D03*
D16*
X72475000Y-106550000D03*
X69350000Y-106550000D03*
D22*
X100600000Y-108800000D03*
X100600000Y-109300000D03*
X100600000Y-109800000D03*
X100600000Y-110300000D03*
X100600000Y-110800000D03*
X100600000Y-111300000D03*
X100600000Y-111800000D03*
D23*
X101550000Y-112750000D03*
X102050000Y-112750000D03*
X102550000Y-112750000D03*
X103050000Y-112750000D03*
X103550000Y-112750000D03*
X104050000Y-112750000D03*
X104550000Y-112750000D03*
D22*
X105500000Y-111800000D03*
X105500000Y-111300000D03*
X105500000Y-110800000D03*
X105500000Y-110300000D03*
X105500000Y-109800000D03*
X105500000Y-109300000D03*
X105500000Y-108800000D03*
D23*
X104550000Y-107850000D03*
X104050000Y-107850000D03*
X103550000Y-107850000D03*
X103050000Y-107850000D03*
X102550000Y-107850000D03*
X102050000Y-107850000D03*
X101550000Y-107850000D03*
D24*
X103050000Y-110300000D03*
D25*
X95100000Y-105400000D03*
X95100000Y-104130000D03*
X95100000Y-102860000D03*
X95100000Y-101590000D03*
X95100000Y-100320000D03*
X95100000Y-99050000D03*
X95100000Y-97780000D03*
X95100000Y-96510000D03*
X95100000Y-95240000D03*
X95100000Y-93970000D03*
X95100000Y-92700000D03*
X95100000Y-91430000D03*
X95100000Y-90160000D03*
X95100000Y-88890000D03*
D26*
X92060000Y-87640000D03*
X90790000Y-87640000D03*
X89520000Y-87640000D03*
X88250000Y-87640000D03*
X86980000Y-87640000D03*
X85710000Y-87640000D03*
X84440000Y-87640000D03*
X83170000Y-87640000D03*
X81900000Y-87640000D03*
X80630000Y-87640000D03*
D25*
X77600000Y-88890000D03*
X77600000Y-90160000D03*
X77600000Y-91430000D03*
X77600000Y-92700000D03*
X77600000Y-93970000D03*
X77600000Y-95240000D03*
X77600000Y-96510000D03*
X77600000Y-97780000D03*
X77600000Y-99050000D03*
X77600000Y-100320000D03*
X77600000Y-101590000D03*
X77600000Y-102860000D03*
X77600000Y-104130000D03*
X77600000Y-105400000D03*
D27*
X88555000Y-99585000D03*
D28*
X88555000Y-98822500D03*
D27*
X88555000Y-98060000D03*
D28*
X88555000Y-97297500D03*
D27*
X88555000Y-96535000D03*
D28*
X87792500Y-99585000D03*
X87792500Y-98060000D03*
X87792500Y-96535000D03*
D27*
X87030000Y-99585000D03*
D28*
X87030000Y-98822500D03*
D27*
X87030000Y-98060000D03*
D29*
X87030000Y-98060000D03*
D28*
X87030000Y-97297500D03*
D27*
X87030000Y-96535000D03*
D28*
X86267500Y-99585000D03*
X86267500Y-98060000D03*
X86267500Y-96535000D03*
D27*
X85505000Y-99585000D03*
D28*
X85505000Y-98822500D03*
D27*
X85505000Y-98060000D03*
D28*
X85505000Y-97297500D03*
D27*
X85505000Y-96535000D03*
D30*
X99850000Y-99381128D03*
X106350000Y-99381128D03*
X99850000Y-103881128D03*
X106350000Y-103881128D03*
D16*
X81875000Y-84850000D03*
X78750000Y-84850000D03*
X72462500Y-104150000D03*
X69337500Y-104150000D03*
D31*
X89600000Y-84800000D03*
X92725000Y-84800000D03*
D32*
X66350000Y-96525000D03*
X68050000Y-96525000D03*
X69750000Y-96525000D03*
D33*
X66975000Y-89800000D03*
X72525000Y-89800000D03*
D34*
X69750000Y-87375000D03*
D33*
X66975000Y-84950000D03*
X72525000Y-84950000D03*
D32*
X71450000Y-96525000D03*
X73150000Y-96525000D03*
D17*
X104300000Y-79068109D03*
X104893109Y-77636218D03*
X104893109Y-80500000D03*
X106325000Y-77043109D03*
D18*
X106325000Y-79068109D03*
D17*
X106325000Y-81093109D03*
X107756891Y-77636218D03*
X107756891Y-80500000D03*
X108350000Y-79068109D03*
X104325000Y-122218109D03*
X104918109Y-120786218D03*
X104918109Y-123650000D03*
X106350000Y-120193109D03*
D18*
X106350000Y-122218109D03*
D17*
X106350000Y-124243109D03*
X107781891Y-120786218D03*
X107781891Y-123650000D03*
X108375000Y-122218109D03*
D31*
X84250000Y-84800000D03*
X87375000Y-84800000D03*
D30*
X99900000Y-87700000D03*
X106400000Y-87700000D03*
X99900000Y-92200000D03*
X106400000Y-92200000D03*
D17*
X64525000Y-122350000D03*
X65118109Y-120918109D03*
X65118109Y-123781891D03*
X66550000Y-120325000D03*
D18*
X66550000Y-122350000D03*
D17*
X66550000Y-124375000D03*
X67981891Y-120918109D03*
X67981891Y-123781891D03*
X68575000Y-122350000D03*
D14*
X66250000Y-102850000D03*
D15*
X66250000Y-105390000D03*
D16*
X101650000Y-95800000D03*
X98525000Y-95800000D03*
X98262500Y-84850000D03*
X95137500Y-84850000D03*
D20*
X106887500Y-95800000D03*
X103787500Y-95800000D03*
D35*
X96900000Y-110500000D03*
X92062712Y-110350500D03*
X96850000Y-109450000D03*
X92045785Y-109351141D03*
X77100000Y-86350000D03*
X85950000Y-94050000D03*
X94750000Y-83250000D03*
X98800000Y-76500000D03*
X96290000Y-121800000D03*
X90450000Y-114150000D03*
X63900000Y-81650000D03*
X99150000Y-108100000D03*
X76050000Y-118450000D03*
X65900000Y-118450000D03*
X108500000Y-99000000D03*
X97450000Y-105100000D03*
X88250000Y-107550000D03*
X91150000Y-84800000D03*
X80800000Y-81650000D03*
X71850000Y-80900000D03*
X76250000Y-76300000D03*
X103500000Y-93604416D03*
X107300000Y-85350000D03*
X77300000Y-107450000D03*
X97800000Y-93800000D03*
X65300000Y-108950000D03*
X103000000Y-98000000D03*
X67300000Y-111600000D03*
X74600000Y-123500000D03*
X102250000Y-89950000D03*
X108600000Y-92850000D03*
X74300000Y-107350000D03*
X86150000Y-81150000D03*
X107970584Y-114104416D03*
X88700000Y-81150000D03*
X91100000Y-81200000D03*
X102250000Y-101631128D03*
X94200000Y-81400000D03*
X101150000Y-120900000D03*
X108200000Y-108650000D03*
X86550000Y-75800000D03*
X100250000Y-116400000D03*
X96700000Y-84850000D03*
X71934216Y-118819170D03*
X64000000Y-98150000D03*
X69450000Y-125350000D03*
X80050000Y-114300000D03*
X86200000Y-89800000D03*
X86950000Y-123350000D03*
X91850000Y-101450000D03*
X98950000Y-89850000D03*
X96900000Y-102950000D03*
X93350000Y-96500000D03*
X93400000Y-95250000D03*
X93550000Y-93900000D03*
X93500000Y-92650000D03*
X93400000Y-91400000D03*
X93300000Y-90150000D03*
X93350000Y-88750000D03*
X93750000Y-86850000D03*
X89937701Y-104112299D03*
X73300000Y-118700000D03*
X92950000Y-104100000D03*
X83550000Y-90650000D03*
X83503460Y-104100000D03*
X80800000Y-90850000D03*
X72734753Y-113996954D03*
X73674500Y-114424500D03*
X82437299Y-91562701D03*
X68693209Y-114749428D03*
X79550000Y-94000000D03*
X70700000Y-114750000D03*
X81400000Y-95100000D03*
X69691541Y-114797788D03*
X80374500Y-96450000D03*
X66550000Y-114100000D03*
X77210000Y-121425000D03*
X80610000Y-121425500D03*
X71800000Y-111625500D03*
X66300000Y-109850000D03*
X69262299Y-112462299D03*
D36*
X90850000Y-116175000D02*
X90750000Y-116075000D01*
X90850000Y-118525000D02*
X90850000Y-116175000D01*
X88750000Y-118525000D02*
X90850000Y-118525000D01*
X86350000Y-118525000D02*
X88750000Y-118525000D01*
X84250000Y-118525000D02*
X86350000Y-118525000D01*
X84350000Y-116075000D02*
X84350000Y-118425000D01*
X84350000Y-118425000D02*
X84250000Y-118525000D01*
X80610000Y-121425500D02*
X81000000Y-121035500D01*
X81000000Y-121035500D02*
X81000000Y-116550000D01*
X88850000Y-115750000D02*
X90450000Y-114150000D01*
X88850000Y-115850000D02*
X88850000Y-115750000D01*
X93800000Y-112750000D02*
X101550000Y-112750000D01*
X93187712Y-112137712D02*
X93800000Y-112750000D01*
X93187712Y-109467763D02*
X93187712Y-112137712D01*
X91745480Y-108626141D02*
X92346090Y-108626141D01*
X86708274Y-114850000D02*
X91320785Y-110237489D01*
X92346090Y-108626141D02*
X93187712Y-109467763D01*
X86623959Y-114850000D02*
X86708274Y-114850000D01*
X91320785Y-110237489D02*
X91320785Y-109050836D01*
X91320785Y-109050836D02*
X91745480Y-108626141D01*
X86250000Y-115223959D02*
X86623959Y-114850000D01*
X86250000Y-115850000D02*
X86250000Y-115223959D01*
D37*
X92045785Y-109351141D02*
X92345144Y-109650500D01*
X91759315Y-111050000D02*
X87550000Y-115259315D01*
X92353162Y-111050000D02*
X91759315Y-111050000D01*
X92762712Y-110640450D02*
X92353162Y-111050000D01*
X92762712Y-110060550D02*
X92762712Y-110640450D01*
X92352662Y-109650500D02*
X92762712Y-110060550D01*
X87550000Y-115259315D02*
X87550000Y-115850000D01*
X86900000Y-115259315D02*
X86900000Y-115850000D01*
X92062712Y-110350500D02*
X92200000Y-110213212D01*
X92200000Y-110213212D02*
X92200000Y-110200000D01*
X91808815Y-110350500D02*
X86900000Y-115259315D01*
X92062712Y-110350500D02*
X91808815Y-110350500D01*
X97700000Y-110300000D02*
X100600000Y-110300000D01*
X96850000Y-109450000D02*
X97700000Y-110300000D01*
D36*
X100151992Y-109800000D02*
X101700000Y-109800000D01*
X99150000Y-108798008D02*
X100151992Y-109800000D01*
X99150000Y-108100000D02*
X99150000Y-108798008D01*
X101700000Y-109800000D02*
X102200000Y-110300000D01*
D37*
X97200000Y-110800000D02*
X100600000Y-110800000D01*
X96900000Y-110500000D02*
X97200000Y-110800000D01*
D38*
X99766637Y-111650000D02*
X96550000Y-111650000D01*
X100116637Y-111300000D02*
X99766637Y-111650000D01*
X96550000Y-111650000D02*
X89850000Y-104950000D01*
X89850000Y-104950000D02*
X89850000Y-104100000D01*
X100600000Y-111300000D02*
X100116637Y-111300000D01*
D39*
X64050000Y-108450000D02*
X64450000Y-108050000D01*
X66550000Y-96950000D02*
X66350000Y-96750000D01*
X66350000Y-96750000D02*
X66350000Y-102750000D01*
X64050000Y-108500000D02*
X64050000Y-108150000D01*
D36*
X74975000Y-118325000D02*
X74900000Y-118400000D01*
D39*
X64050000Y-113800000D02*
X64050000Y-108500000D01*
D40*
X74975000Y-117050000D02*
X74975000Y-118325000D01*
D39*
X64450000Y-108050000D02*
X64600000Y-107900000D01*
D40*
X68475000Y-117050000D02*
X68475000Y-118625000D01*
D39*
X72462500Y-106637500D02*
X72462500Y-101750000D01*
X64050000Y-108150000D02*
X64050000Y-108100000D01*
X64050000Y-108100000D02*
X64275000Y-107875000D01*
X64050000Y-104300000D02*
X64050000Y-107650000D01*
X68475000Y-118625000D02*
X69850000Y-120000000D01*
X64050000Y-107250000D02*
X64050000Y-107350000D01*
D40*
X67825000Y-117050000D02*
X68475000Y-117050000D01*
D39*
X67300000Y-117050000D02*
X64050000Y-113800000D01*
X71200000Y-107900000D02*
X72462500Y-106637500D01*
X64600000Y-107900000D02*
X71200000Y-107900000D01*
D40*
X68400000Y-117125000D02*
X68475000Y-117050000D01*
D39*
X72462500Y-101750000D02*
X73862500Y-101750000D01*
X64050000Y-108150000D02*
X64050000Y-107650000D01*
X66350000Y-102750000D02*
X66250000Y-102850000D01*
X73862500Y-101750000D02*
X74700000Y-102587500D01*
X65500000Y-102850000D02*
X64050000Y-104300000D01*
X70300000Y-120000000D02*
X73300000Y-120000000D01*
X69850000Y-120000000D02*
X70300000Y-120000000D01*
X64050000Y-108500000D02*
X64050000Y-108450000D01*
X64275000Y-107875000D02*
X64450000Y-108050000D01*
X66250000Y-102850000D02*
X65500000Y-102850000D01*
X64050000Y-107350000D02*
X64600000Y-107900000D01*
X67825000Y-117050000D02*
X67300000Y-117050000D01*
X73300000Y-120000000D02*
X74900000Y-118400000D01*
D36*
X73025000Y-108650000D02*
X73100000Y-108575000D01*
X68825000Y-111250000D02*
X69150000Y-110925000D01*
X65650000Y-108600000D02*
X68950000Y-108600000D01*
X71000000Y-117884954D02*
X71000000Y-116650000D01*
X69925000Y-108575000D02*
X69775000Y-108725000D01*
X73025000Y-109850000D02*
X73675000Y-109850000D01*
X73100000Y-108575000D02*
X69925000Y-108575000D01*
X73325000Y-108575000D02*
X73100000Y-108575000D01*
X69775000Y-110975000D02*
X69775000Y-109850000D01*
X71934216Y-118819170D02*
X71000000Y-117884954D01*
X67650000Y-111250000D02*
X68700000Y-111250000D01*
X65300000Y-108950000D02*
X65650000Y-108600000D01*
X69925000Y-108575000D02*
X69325000Y-108575000D01*
X67650000Y-111250000D02*
X69500000Y-111250000D01*
X73675000Y-108225000D02*
X73325000Y-108575000D01*
X69775000Y-108725000D02*
X69775000Y-109850000D01*
X69500000Y-111250000D02*
X69775000Y-110975000D01*
X68700000Y-111250000D02*
X68825000Y-111250000D01*
X69150000Y-109850000D02*
X69650000Y-109850000D01*
X69325000Y-108575000D02*
X69125000Y-108775000D01*
X73675000Y-108225000D02*
X74300000Y-107600000D01*
X69150000Y-110925000D02*
X69150000Y-109850000D01*
X69125000Y-108775000D02*
X69125000Y-109850000D01*
X73675000Y-109850000D02*
X73675000Y-108225000D01*
X69650000Y-109850000D02*
X69700000Y-109900000D01*
X73025000Y-109850000D02*
X73025000Y-108650000D01*
X68950000Y-108600000D02*
X69125000Y-108775000D01*
X67300000Y-111600000D02*
X67650000Y-111250000D01*
X98950000Y-89850000D02*
X99000000Y-89800000D01*
X99900000Y-87700000D02*
X99900000Y-88900000D01*
X104550000Y-84850000D02*
X105500000Y-85800000D01*
X103712500Y-84850000D02*
X104550000Y-84850000D01*
X105500000Y-87700000D02*
X99900000Y-87700000D01*
X95150000Y-103010000D02*
X96840000Y-103010000D01*
X105500000Y-85800000D02*
X105500000Y-87700000D01*
X96840000Y-103010000D02*
X96900000Y-102950000D01*
X99900000Y-88900000D02*
X98950000Y-89850000D01*
X94185000Y-86075000D02*
X80365000Y-86075000D01*
X105950000Y-95500000D02*
X105600000Y-95850000D01*
X106350000Y-99381128D02*
X99000000Y-99381128D01*
X80365000Y-86075000D02*
X77600000Y-88840000D01*
X96600000Y-96981128D02*
X96600000Y-88490000D01*
X106950000Y-95500000D02*
X105950000Y-95500000D01*
X96600000Y-88490000D02*
X94185000Y-86075000D01*
X105600000Y-98631128D02*
X106350000Y-99381128D01*
X99000000Y-99381128D02*
X96600000Y-96981128D01*
X105600000Y-95850000D02*
X105600000Y-98631128D01*
X93400000Y-96500000D02*
X93350000Y-96500000D01*
X93350000Y-96500000D02*
X93350000Y-96550000D01*
X93350000Y-96550000D02*
X93350000Y-96550000D01*
X95100000Y-96460000D02*
X93440000Y-96460000D01*
X93440000Y-96460000D02*
X93400000Y-96500000D01*
X93460000Y-95190000D02*
X93400000Y-95250000D01*
X95100000Y-95190000D02*
X93460000Y-95190000D01*
X93550000Y-93900000D02*
X93550000Y-94000000D01*
X93550000Y-94000000D02*
X93550000Y-94000000D01*
X95100000Y-93920000D02*
X93630000Y-93920000D01*
X93630000Y-93920000D02*
X93650000Y-93900000D01*
X93650000Y-93900000D02*
X93550000Y-93900000D01*
X95100000Y-92650000D02*
X93500000Y-92650000D01*
X95100000Y-91380000D02*
X93400000Y-91400000D01*
X93400000Y-91400000D02*
X93420000Y-91380000D01*
X93400000Y-90150000D02*
X93300000Y-90150000D01*
X95100000Y-90110000D02*
X93360000Y-90110000D01*
X93300000Y-90150000D02*
X93300000Y-90050000D01*
X93300000Y-90050000D02*
X93350000Y-90100000D01*
X93360000Y-90110000D02*
X93400000Y-90150000D01*
X93350000Y-88750000D02*
X93410000Y-88840000D01*
X95100000Y-88840000D02*
X93350000Y-88750000D01*
X93750000Y-86800000D02*
X93750000Y-86850000D01*
X90840000Y-87790000D02*
X90840000Y-86790000D01*
X90840000Y-86790000D02*
X91105000Y-86525000D01*
X91105000Y-86525000D02*
X93475000Y-86525000D01*
X93750000Y-86850000D02*
X93800000Y-86850000D01*
X93800000Y-86850000D02*
X93700000Y-86750000D01*
X93475000Y-86525000D02*
X93750000Y-86800000D01*
D38*
X98262500Y-84850000D02*
X100612500Y-84850000D01*
X98262500Y-84850000D02*
X97400000Y-85712500D01*
X72875000Y-118700000D02*
X72375000Y-118200000D01*
X73300000Y-118700000D02*
X72875000Y-118700000D01*
X84250000Y-84800000D02*
X84250000Y-83350000D01*
X75100000Y-100400000D02*
X76200000Y-101500000D01*
X84250000Y-83350000D02*
X85250000Y-82350000D01*
X68050000Y-97150000D02*
X68050000Y-99888173D01*
X97400000Y-92050000D02*
X100850000Y-95500000D01*
X81875000Y-84850000D02*
X81875000Y-83325000D01*
X92725000Y-83425000D02*
X92725000Y-84800000D01*
X71650000Y-114021752D02*
X71650000Y-117100000D01*
X100350000Y-79610000D02*
X100350000Y-84587500D01*
X92950000Y-104100000D02*
X95080000Y-104100000D01*
X91650000Y-82350000D02*
X92725000Y-83425000D01*
X71725000Y-117050000D02*
X72375000Y-117050000D01*
X75150000Y-100400000D02*
X74650000Y-100400000D01*
X76200000Y-101500000D02*
X76200000Y-111150000D01*
X68250000Y-96950000D02*
X68050000Y-97150000D01*
X76200000Y-111150000D02*
X75350000Y-112000000D01*
X77200000Y-82400000D02*
X76200000Y-83400000D01*
X84200000Y-84850000D02*
X84250000Y-84800000D01*
X92725000Y-84800000D02*
X92725000Y-83175000D01*
X100040000Y-79300000D02*
X100350000Y-79610000D01*
X76200000Y-83400000D02*
X76200000Y-99350000D01*
X81875000Y-84850000D02*
X84200000Y-84850000D01*
X93550000Y-82350000D02*
X97300000Y-82350000D01*
X95080000Y-104100000D02*
X95100000Y-104080000D01*
X100850000Y-95500000D02*
X103850000Y-95500000D01*
X74650000Y-100400000D02*
X75100000Y-100400000D01*
X97400000Y-85712500D02*
X97400000Y-92050000D01*
X92725000Y-83175000D02*
X93550000Y-82350000D01*
X81875000Y-83325000D02*
X80950000Y-82400000D01*
X98262500Y-83312500D02*
X98262500Y-84850000D01*
X72375000Y-118200000D02*
X72375000Y-117050000D01*
X85250000Y-82350000D02*
X91650000Y-82350000D01*
X95100000Y-104080000D02*
X95570000Y-104080000D01*
X100350000Y-84587500D02*
X100612500Y-84850000D01*
X80950000Y-82400000D02*
X77200000Y-82400000D01*
X68050000Y-99888173D02*
X68561827Y-100400000D01*
X68561827Y-100400000D02*
X74650000Y-100400000D01*
X97300000Y-82350000D02*
X98262500Y-83312500D01*
X76200000Y-99350000D02*
X75150000Y-100400000D01*
X75350000Y-112000000D02*
X73671752Y-112000000D01*
X73671752Y-112000000D02*
X71650000Y-114021752D01*
D36*
X74250000Y-115350000D02*
X74250000Y-116650000D01*
X83503460Y-106096540D02*
X74250000Y-115350000D01*
X83503460Y-104100000D02*
X83503460Y-106096540D01*
X81900000Y-87590000D02*
X81900000Y-90300000D01*
X81900000Y-90300000D02*
X82250000Y-90650000D01*
X82250000Y-90650000D02*
X83550000Y-90650000D01*
X80630000Y-90680000D02*
X80630000Y-87590000D01*
X80800000Y-90850000D02*
X80630000Y-90680000D01*
X72950000Y-114212201D02*
X72950000Y-116650000D01*
X72734753Y-113996954D02*
X72950000Y-114212201D01*
X73600000Y-114499000D02*
X73600000Y-116650000D01*
X81112604Y-91562701D02*
X81100305Y-91575000D01*
X73674500Y-114424500D02*
X73600000Y-114499000D01*
X81100305Y-91575000D02*
X79645000Y-91575000D01*
X82437299Y-91562701D02*
X81112604Y-91562701D01*
X79645000Y-91575000D02*
X78180000Y-90110000D01*
X78180000Y-90110000D02*
X77600000Y-90110000D01*
X68693209Y-114749428D02*
X68693209Y-115193209D01*
X69150000Y-115650000D02*
X69150000Y-116550000D01*
X79550000Y-94000000D02*
X77680000Y-94000000D01*
X68693209Y-115193209D02*
X69150000Y-115650000D01*
X69150000Y-116550000D02*
X69050000Y-116650000D01*
X77680000Y-94000000D02*
X77600000Y-93920000D01*
X81310000Y-95190000D02*
X77600000Y-95190000D01*
X70700000Y-114750000D02*
X70350000Y-115100000D01*
X81400000Y-95100000D02*
X81310000Y-95190000D01*
X70350000Y-115100000D02*
X70350000Y-116650000D01*
X69691541Y-114797788D02*
X69700000Y-114806247D01*
X80364500Y-96460000D02*
X77600000Y-96460000D01*
X80374500Y-96450000D02*
X80364500Y-96460000D01*
X69700000Y-114806247D02*
X69700000Y-116650000D01*
X71200000Y-113800000D02*
X66850000Y-113800000D01*
X77210000Y-121425000D02*
X78460000Y-120175000D01*
X74975000Y-109525000D02*
X74975000Y-109850000D01*
X66850000Y-113800000D02*
X66550000Y-114100000D01*
X73975000Y-111525000D02*
X73475001Y-111525000D01*
X74325000Y-111175000D02*
X73975000Y-111525000D01*
X73475001Y-111525000D02*
X71200000Y-113800000D01*
X74325000Y-109850000D02*
X74325000Y-111175000D01*
X66550000Y-114150000D02*
X66550000Y-114150000D01*
X66550000Y-114100000D02*
X66550000Y-114150000D01*
X74900000Y-109450000D02*
X74975000Y-109525000D01*
X74975000Y-109850000D02*
X74325000Y-109850000D01*
X78460000Y-120175000D02*
X78460000Y-116550000D01*
X71725000Y-109850000D02*
X72375000Y-109850000D01*
X71800000Y-111625500D02*
X72375000Y-111050500D01*
X72375000Y-111050500D02*
X72375000Y-109850000D01*
X68400000Y-109850000D02*
X68400000Y-109450000D01*
X67825000Y-109850000D02*
X68400000Y-109850000D01*
X66300000Y-109850000D02*
X67825000Y-109850000D01*
X70350000Y-111650000D02*
X69537701Y-112462299D01*
X69537701Y-112462299D02*
X69262299Y-112462299D01*
X71075000Y-109850000D02*
X71025000Y-109800000D01*
X70350000Y-109800000D02*
X70350000Y-111650000D01*
X71025000Y-109800000D02*
X70350000Y-109800000D01*
X91112701Y-104054553D02*
X93608148Y-106550000D01*
X80930000Y-102600000D02*
X89486396Y-102600000D01*
X91112701Y-103625598D02*
X91112701Y-104054553D01*
X78600000Y-100270000D02*
X80930000Y-102600000D01*
X103050000Y-107013604D02*
X103050000Y-107850000D01*
X77600000Y-100270000D02*
X78600000Y-100270000D01*
X102586396Y-106550000D02*
X103050000Y-107013604D01*
X90424402Y-102937299D02*
X91112701Y-103625598D01*
X89486396Y-102600000D02*
X89823695Y-102937299D01*
X89823695Y-102937299D02*
X90424402Y-102937299D01*
X93608148Y-106550000D02*
X102586396Y-106550000D01*
X93421752Y-107000000D02*
X90662701Y-104240949D01*
X89300000Y-103050000D02*
X80743604Y-103050000D01*
X80743604Y-103050000D02*
X79233604Y-101540000D01*
X102550000Y-107850000D02*
X102550000Y-107150000D01*
X79233604Y-101540000D02*
X77600000Y-101540000D01*
X89637299Y-103387299D02*
X89300000Y-103050000D01*
X102550000Y-107150000D02*
X102400000Y-107000000D01*
X102400000Y-107000000D02*
X93421752Y-107000000D01*
X90238006Y-103387299D02*
X89637299Y-103387299D01*
X90662701Y-103811994D02*
X90238006Y-103387299D01*
X90662701Y-104240949D02*
X90662701Y-103811994D01*
G04 #@! TA.AperFunction,Conductor*
G36*
X71134426Y-118278112D02*
G01*
X71149311Y-118287679D01*
X71250311Y-118363288D01*
X71286110Y-118411110D01*
X71300000Y-118425000D01*
X71347819Y-118425000D01*
X71347833Y-118424999D01*
X71384395Y-118421068D01*
X71410905Y-118421068D01*
X71452127Y-118425500D01*
X71680380Y-118425499D01*
X71747420Y-118445183D01*
X71793175Y-118497987D01*
X71795674Y-118503853D01*
X71800432Y-118515871D01*
X71828983Y-118555170D01*
X71832188Y-118560049D01*
X71856919Y-118601865D01*
X71856923Y-118601869D01*
X71871923Y-118616869D01*
X71884558Y-118631662D01*
X71888926Y-118637673D01*
X71897037Y-118648837D01*
X71897039Y-118648838D01*
X71897041Y-118648841D01*
X71934470Y-118679805D01*
X71938781Y-118683727D01*
X72154831Y-118899776D01*
X72292874Y-119037819D01*
X72326359Y-119099142D01*
X72321375Y-119168833D01*
X72279504Y-119224767D01*
X72214039Y-119249184D01*
X72205193Y-119249500D01*
X70212229Y-119249500D01*
X70145190Y-119229815D01*
X70124548Y-119213181D01*
X69548547Y-118637180D01*
X69515062Y-118575857D01*
X69520046Y-118506165D01*
X69561918Y-118450232D01*
X69627382Y-118425815D01*
X69636206Y-118425499D01*
X70047872Y-118425499D01*
X70047885Y-118425498D01*
X70086744Y-118421320D01*
X70113252Y-118421320D01*
X70152127Y-118425500D01*
X70697872Y-118425499D01*
X70706711Y-118424548D01*
X70739094Y-118421068D01*
X70765606Y-118421068D01*
X70802166Y-118424999D01*
X70802182Y-118425000D01*
X70850000Y-118425000D01*
X70865611Y-118409388D01*
X70869685Y-118395515D01*
X70899689Y-118363288D01*
X71000689Y-118287679D01*
X71066153Y-118263261D01*
X71134426Y-118278112D01*
G37*
G04 #@! TD.AperFunction*
G04 #@! TA.AperFunction,Conductor*
G36*
X67075297Y-108670185D02*
G01*
X67121052Y-108722989D01*
X67130996Y-108792147D01*
X67124440Y-108817830D01*
X67116865Y-108838143D01*
X67105908Y-108867518D01*
X67099501Y-108927116D01*
X67099500Y-108927135D01*
X67099500Y-109074428D01*
X67079815Y-109141467D01*
X67027011Y-109187222D01*
X66957853Y-109197166D01*
X66902615Y-109174746D01*
X66752734Y-109065851D01*
X66752729Y-109065848D01*
X66579807Y-108988857D01*
X66579802Y-108988855D01*
X66434001Y-108957865D01*
X66394646Y-108949500D01*
X66205354Y-108949500D01*
X66172897Y-108956398D01*
X66020197Y-108988855D01*
X66020192Y-108988857D01*
X65847270Y-109065848D01*
X65847265Y-109065851D01*
X65694129Y-109177111D01*
X65567466Y-109317785D01*
X65472821Y-109481715D01*
X65472818Y-109481722D01*
X65419302Y-109646429D01*
X65414326Y-109661744D01*
X65394540Y-109850000D01*
X65414326Y-110038256D01*
X65414327Y-110038259D01*
X65472818Y-110218277D01*
X65472821Y-110218284D01*
X65567467Y-110382216D01*
X65651461Y-110475500D01*
X65694129Y-110522888D01*
X65847265Y-110634148D01*
X65847270Y-110634151D01*
X66020192Y-110711142D01*
X66020197Y-110711144D01*
X66205354Y-110750500D01*
X66205355Y-110750500D01*
X66394644Y-110750500D01*
X66394646Y-110750500D01*
X66579803Y-110711144D01*
X66752730Y-110634151D01*
X66902615Y-110525253D01*
X66968422Y-110501773D01*
X67036476Y-110517598D01*
X67085171Y-110567704D01*
X67099501Y-110625571D01*
X67099501Y-110772876D01*
X67105908Y-110832483D01*
X67156202Y-110967328D01*
X67156206Y-110967335D01*
X67242452Y-111082544D01*
X67242455Y-111082547D01*
X67357664Y-111168793D01*
X67357671Y-111168797D01*
X67402618Y-111185560D01*
X67492517Y-111219091D01*
X67552127Y-111225500D01*
X68097872Y-111225499D01*
X68097873Y-111225498D01*
X68097885Y-111225498D01*
X68136744Y-111221320D01*
X68163252Y-111221320D01*
X68202127Y-111225500D01*
X68747872Y-111225499D01*
X68756711Y-111224548D01*
X68789094Y-111221068D01*
X68815606Y-111221068D01*
X68852166Y-111224999D01*
X68852182Y-111225000D01*
X68900000Y-111225000D01*
X68915611Y-111209388D01*
X68919685Y-111195515D01*
X68949686Y-111163289D01*
X69057546Y-111082546D01*
X69126735Y-110990121D01*
X69182667Y-110948252D01*
X69252359Y-110943268D01*
X69313682Y-110976753D01*
X69347166Y-111038077D01*
X69350000Y-111064434D01*
X69350000Y-111225000D01*
X69397821Y-111225000D01*
X69397831Y-111224999D01*
X69436742Y-111220815D01*
X69463258Y-111220815D01*
X69502168Y-111224999D01*
X69502179Y-111225000D01*
X69591047Y-111225000D01*
X69658086Y-111244685D01*
X69703841Y-111297489D01*
X69713785Y-111366647D01*
X69684760Y-111430203D01*
X69678727Y-111436682D01*
X69566740Y-111548667D01*
X69505417Y-111582151D01*
X69453280Y-111582275D01*
X69356945Y-111561799D01*
X69167653Y-111561799D01*
X69135196Y-111568697D01*
X68982496Y-111601154D01*
X68982491Y-111601156D01*
X68809569Y-111678147D01*
X68809564Y-111678150D01*
X68656428Y-111789410D01*
X68529765Y-111930084D01*
X68435120Y-112094014D01*
X68435117Y-112094021D01*
X68379876Y-112264036D01*
X68376625Y-112274043D01*
X68356839Y-112462299D01*
X68376625Y-112650555D01*
X68376626Y-112650558D01*
X68435117Y-112830576D01*
X68435120Y-112830583D01*
X68526293Y-112988500D01*
X68542766Y-113056401D01*
X68519913Y-113122427D01*
X68464992Y-113165618D01*
X68418906Y-113174500D01*
X66932738Y-113174500D01*
X66917121Y-113172776D01*
X66917094Y-113173062D01*
X66909332Y-113172327D01*
X66840204Y-113174500D01*
X66810650Y-113174500D01*
X66809929Y-113174590D01*
X66803757Y-113175369D01*
X66797945Y-113175826D01*
X66751373Y-113177290D01*
X66751372Y-113177290D01*
X66732129Y-113182881D01*
X66713080Y-113186825D01*
X66693212Y-113189334D01*
X66693208Y-113189335D01*
X66689525Y-113190794D01*
X66643882Y-113199500D01*
X66455354Y-113199500D01*
X66440464Y-113202665D01*
X66270197Y-113238855D01*
X66270192Y-113238857D01*
X66097270Y-113315848D01*
X66097265Y-113315851D01*
X65944129Y-113427111D01*
X65817466Y-113567785D01*
X65722821Y-113731715D01*
X65722818Y-113731722D01*
X65670649Y-113892283D01*
X65664326Y-113911744D01*
X65650171Y-114046423D01*
X65649538Y-114052449D01*
X65622953Y-114117063D01*
X65565656Y-114157048D01*
X65495837Y-114159708D01*
X65438536Y-114127168D01*
X64836819Y-113525451D01*
X64803334Y-113464128D01*
X64800500Y-113437770D01*
X64800500Y-108812229D01*
X64820185Y-108745190D01*
X64836819Y-108724548D01*
X64874548Y-108686819D01*
X64935871Y-108653334D01*
X64962229Y-108650500D01*
X67008258Y-108650500D01*
X67075297Y-108670185D01*
G37*
G04 #@! TD.AperFunction*
G04 #@! TA.AperFunction,Conductor*
G36*
X79043452Y-102237225D02*
G01*
X79060417Y-102251403D01*
X80242801Y-103433788D01*
X80252626Y-103446051D01*
X80252847Y-103445869D01*
X80257818Y-103451878D01*
X80275841Y-103468802D01*
X80308239Y-103499226D01*
X80329133Y-103520120D01*
X80334615Y-103524373D01*
X80339047Y-103528157D01*
X80373022Y-103560062D01*
X80390580Y-103569714D01*
X80406839Y-103580395D01*
X80422668Y-103592673D01*
X80465442Y-103611182D01*
X80470660Y-103613738D01*
X80511512Y-103636197D01*
X80530920Y-103641180D01*
X80549321Y-103647480D01*
X80567708Y-103655437D01*
X80611092Y-103662308D01*
X80613723Y-103662725D01*
X80619443Y-103663909D01*
X80664585Y-103675500D01*
X80684620Y-103675500D01*
X80704018Y-103677026D01*
X80723798Y-103680159D01*
X80723799Y-103680160D01*
X80723799Y-103680159D01*
X80723800Y-103680160D01*
X80770187Y-103675775D01*
X80776026Y-103675500D01*
X82523875Y-103675500D01*
X82590914Y-103695185D01*
X82636669Y-103747989D01*
X82646613Y-103817147D01*
X82641806Y-103837818D01*
X82623338Y-103894658D01*
X82617786Y-103911744D01*
X82598000Y-104100000D01*
X82617786Y-104288256D01*
X82617787Y-104288259D01*
X82676278Y-104468277D01*
X82676281Y-104468284D01*
X82770927Y-104632216D01*
X82797950Y-104662228D01*
X82846110Y-104715715D01*
X82876340Y-104778706D01*
X82877960Y-104798687D01*
X82877960Y-105786086D01*
X82858275Y-105853125D01*
X82841641Y-105873767D01*
X74673600Y-114041807D01*
X74612277Y-114075292D01*
X74542585Y-114070308D01*
X74486652Y-114028436D01*
X74478542Y-114016143D01*
X74407033Y-113892284D01*
X74280371Y-113751612D01*
X74271722Y-113745328D01*
X74127234Y-113640351D01*
X74127229Y-113640348D01*
X73954307Y-113563357D01*
X73954302Y-113563355D01*
X73775972Y-113525451D01*
X73769146Y-113524000D01*
X73579854Y-113524000D01*
X73573356Y-113524000D01*
X73573356Y-113521036D01*
X73517264Y-113510740D01*
X73472607Y-113468908D01*
X73471108Y-113469998D01*
X73467287Y-113464739D01*
X73391131Y-113380160D01*
X73384776Y-113373102D01*
X73354547Y-113310112D01*
X73363172Y-113240777D01*
X73389243Y-113202453D01*
X73904878Y-112686819D01*
X73966202Y-112653334D01*
X73992560Y-112650500D01*
X75264495Y-112650500D01*
X75280505Y-112652267D01*
X75280528Y-112652026D01*
X75288289Y-112652758D01*
X75288296Y-112652760D01*
X75360203Y-112650500D01*
X75390925Y-112650500D01*
X75398190Y-112649581D01*
X75404016Y-112649122D01*
X75452569Y-112647597D01*
X75472956Y-112641673D01*
X75491996Y-112637731D01*
X75513058Y-112635071D01*
X75558235Y-112617183D01*
X75563735Y-112615300D01*
X75610398Y-112601744D01*
X75628665Y-112590939D01*
X75646136Y-112582380D01*
X75665871Y-112574568D01*
X75705177Y-112546010D01*
X75710043Y-112542813D01*
X75751865Y-112518081D01*
X75766870Y-112503075D01*
X75781668Y-112490436D01*
X75798837Y-112477963D01*
X75829809Y-112440522D01*
X75833723Y-112436221D01*
X76599513Y-111670431D01*
X76612079Y-111660365D01*
X76611925Y-111660178D01*
X76617937Y-111655204D01*
X76617937Y-111655203D01*
X76617940Y-111655202D01*
X76667190Y-111602755D01*
X76688912Y-111581034D01*
X76693402Y-111575244D01*
X76697184Y-111570814D01*
X76730448Y-111535393D01*
X76740674Y-111516789D01*
X76751347Y-111500541D01*
X76764363Y-111483763D01*
X76783651Y-111439187D01*
X76786224Y-111433936D01*
X76788276Y-111430203D01*
X76809627Y-111391368D01*
X76814904Y-111370808D01*
X76821206Y-111352403D01*
X76829636Y-111332926D01*
X76837235Y-111284945D01*
X76838417Y-111279234D01*
X76850500Y-111232177D01*
X76850500Y-111210954D01*
X76852027Y-111191555D01*
X76855347Y-111170595D01*
X76850775Y-111122227D01*
X76850500Y-111116389D01*
X76850500Y-106474000D01*
X76870185Y-106406961D01*
X76922989Y-106361206D01*
X76974500Y-106350000D01*
X77350000Y-106350000D01*
X77350000Y-105650000D01*
X77850000Y-105650000D01*
X77850000Y-106350000D01*
X78397828Y-106350000D01*
X78397844Y-106349999D01*
X78457372Y-106343598D01*
X78457379Y-106343596D01*
X78592086Y-106293354D01*
X78592093Y-106293350D01*
X78707187Y-106207190D01*
X78707190Y-106207187D01*
X78793350Y-106092093D01*
X78793354Y-106092086D01*
X78843596Y-105957379D01*
X78843598Y-105957372D01*
X78849999Y-105897844D01*
X78850000Y-105897827D01*
X78850000Y-105650000D01*
X77850000Y-105650000D01*
X77350000Y-105650000D01*
X77350000Y-105274000D01*
X77369685Y-105206961D01*
X77422489Y-105161206D01*
X77474000Y-105150000D01*
X78850000Y-105150000D01*
X78850000Y-104902172D01*
X78849999Y-104902155D01*
X78843597Y-104842622D01*
X78843597Y-104842620D01*
X78831075Y-104809048D01*
X78826089Y-104739356D01*
X78831071Y-104722390D01*
X78844091Y-104687483D01*
X78850500Y-104627873D01*
X78850499Y-103632128D01*
X78844091Y-103572517D01*
X78831340Y-103538332D01*
X78826357Y-103468642D01*
X78831338Y-103451672D01*
X78844091Y-103417483D01*
X78850500Y-103357873D01*
X78850499Y-102362128D01*
X78849447Y-102352342D01*
X78861850Y-102283583D01*
X78909459Y-102232444D01*
X78977158Y-102215163D01*
X79043452Y-102237225D01*
G37*
G04 #@! TD.AperFunction*
G04 #@! TA.AperFunction,Conductor*
G36*
X100867539Y-107645185D02*
G01*
X100913294Y-107697989D01*
X100924500Y-107749500D01*
X100924499Y-108050500D01*
X100904814Y-108117540D01*
X100852010Y-108163295D01*
X100800499Y-108174500D01*
X100225596Y-108174500D01*
X100115536Y-108188988D01*
X100115527Y-108188991D01*
X99978574Y-108245719D01*
X99978571Y-108245720D01*
X99978571Y-108245721D01*
X99860964Y-108335964D01*
X99810285Y-108402011D01*
X99770719Y-108453574D01*
X99713991Y-108590527D01*
X99713990Y-108590529D01*
X99699500Y-108700598D01*
X99699500Y-108899403D01*
X99713989Y-109009468D01*
X99716094Y-109017322D01*
X99712814Y-109018200D01*
X99718581Y-109072073D01*
X99715517Y-109082522D01*
X99716095Y-109082677D01*
X99713990Y-109090529D01*
X99699500Y-109200598D01*
X99699500Y-109399403D01*
X99713989Y-109509468D01*
X99716094Y-109517322D01*
X99713010Y-109518148D01*
X99718849Y-109572737D01*
X99716014Y-109582652D01*
X99716582Y-109582804D01*
X99714478Y-109590654D01*
X99714343Y-109591686D01*
X99713986Y-109592491D01*
X99712376Y-109598504D01*
X99711437Y-109598252D01*
X99686076Y-109655583D01*
X99627751Y-109694053D01*
X99591404Y-109699500D01*
X98000097Y-109699500D01*
X97933058Y-109679815D01*
X97912416Y-109663181D01*
X97791779Y-109542544D01*
X97758294Y-109481221D01*
X97755460Y-109454863D01*
X97755460Y-109450002D01*
X97750142Y-109399403D01*
X97735674Y-109261744D01*
X97677179Y-109081716D01*
X97582533Y-108917784D01*
X97455871Y-108777112D01*
X97427819Y-108756731D01*
X97302734Y-108665851D01*
X97302729Y-108665848D01*
X97129807Y-108588857D01*
X97129802Y-108588855D01*
X96984000Y-108557865D01*
X96944646Y-108549500D01*
X96755354Y-108549500D01*
X96722897Y-108556398D01*
X96570197Y-108588855D01*
X96570192Y-108588857D01*
X96397270Y-108665848D01*
X96397265Y-108665851D01*
X96244129Y-108777111D01*
X96117466Y-108917785D01*
X96022821Y-109081715D01*
X96022818Y-109081722D01*
X95976427Y-109224500D01*
X95964326Y-109261744D01*
X95944540Y-109450000D01*
X95964326Y-109638256D01*
X95964327Y-109638259D01*
X96022818Y-109818277D01*
X96022820Y-109818281D01*
X96022821Y-109818284D01*
X96069653Y-109899400D01*
X96077246Y-109912551D01*
X96093718Y-109980451D01*
X96070865Y-110046478D01*
X96015943Y-110089668D01*
X95946390Y-110096309D01*
X95884288Y-110064292D01*
X95882177Y-110062231D01*
X93657127Y-107837181D01*
X93623642Y-107775858D01*
X93628626Y-107706166D01*
X93670498Y-107650233D01*
X93735962Y-107625816D01*
X93744808Y-107625500D01*
X100800500Y-107625500D01*
X100867539Y-107645185D01*
G37*
G04 #@! TD.AperFunction*
G04 #@! TA.AperFunction,Conductor*
G36*
X69642539Y-109644685D02*
G01*
X69688294Y-109697489D01*
X69699500Y-109748999D01*
X69699501Y-109950999D01*
X69679817Y-110018039D01*
X69627013Y-110063794D01*
X69575501Y-110075000D01*
X69324499Y-110075000D01*
X69257460Y-110055315D01*
X69211705Y-110002511D01*
X69200499Y-109951002D01*
X69200499Y-109748998D01*
X69220184Y-109681961D01*
X69272988Y-109636206D01*
X69324499Y-109625000D01*
X69575500Y-109625000D01*
X69642539Y-109644685D01*
G37*
G04 #@! TD.AperFunction*
G04 #@! TA.AperFunction,Conductor*
G36*
X73542540Y-109644685D02*
G01*
X73588295Y-109697489D01*
X73599500Y-109748997D01*
X73599501Y-109850000D01*
X73599501Y-109951000D01*
X73579816Y-110018039D01*
X73527012Y-110063794D01*
X73475501Y-110075000D01*
X73224500Y-110075000D01*
X73157461Y-110055315D01*
X73111706Y-110002511D01*
X73100500Y-109951000D01*
X73100500Y-109749000D01*
X73120185Y-109681961D01*
X73172989Y-109636206D01*
X73224500Y-109625000D01*
X73475501Y-109625000D01*
X73542540Y-109644685D01*
G37*
G04 #@! TD.AperFunction*
G04 #@! TA.AperFunction,Conductor*
G36*
X73788486Y-103703973D02*
G01*
X73897203Y-103739999D01*
X73999991Y-103750500D01*
X75400008Y-103750499D01*
X75412897Y-103749182D01*
X75481589Y-103761950D01*
X75532474Y-103809830D01*
X75549500Y-103872540D01*
X75549500Y-104427961D01*
X75529815Y-104495000D01*
X75477011Y-104540755D01*
X75412902Y-104551319D01*
X75399998Y-104550001D01*
X75399974Y-104550000D01*
X74950000Y-104550000D01*
X74950000Y-106874999D01*
X75399972Y-106874999D01*
X75399981Y-106874998D01*
X75412896Y-106873679D01*
X75481589Y-106886448D01*
X75532474Y-106934327D01*
X75549500Y-106997037D01*
X75549500Y-108392581D01*
X75529815Y-108459620D01*
X75477011Y-108505375D01*
X75407853Y-108515319D01*
X75382168Y-108508763D01*
X75307488Y-108480910D01*
X75307484Y-108480909D01*
X75307483Y-108480909D01*
X75247873Y-108474500D01*
X75247863Y-108474500D01*
X74702130Y-108474500D01*
X74702119Y-108474501D01*
X74663253Y-108478679D01*
X74636748Y-108478679D01*
X74597874Y-108474500D01*
X74052132Y-108474500D01*
X74052117Y-108474501D01*
X74010904Y-108478931D01*
X73984402Y-108478931D01*
X73947834Y-108475000D01*
X73900000Y-108475000D01*
X73884388Y-108490611D01*
X73880315Y-108504485D01*
X73850313Y-108536710D01*
X73742454Y-108617454D01*
X73742453Y-108617455D01*
X73742452Y-108617456D01*
X73673266Y-108709876D01*
X73617332Y-108751747D01*
X73547641Y-108756731D01*
X73486318Y-108723245D01*
X73452834Y-108661922D01*
X73450000Y-108635565D01*
X73450000Y-108475000D01*
X73402164Y-108475000D01*
X73363252Y-108479183D01*
X73336748Y-108479183D01*
X73297835Y-108475000D01*
X73250000Y-108475000D01*
X73250000Y-108635565D01*
X73230315Y-108702604D01*
X73177511Y-108748359D01*
X73108353Y-108758303D01*
X73044797Y-108729278D01*
X73026734Y-108709876D01*
X72957547Y-108617456D01*
X72957548Y-108617456D01*
X72957546Y-108617454D01*
X72849687Y-108536711D01*
X72813888Y-108488888D01*
X72800000Y-108475000D01*
X72752165Y-108475000D01*
X72715598Y-108478931D01*
X72689092Y-108478931D01*
X72647873Y-108474500D01*
X72102130Y-108474500D01*
X72102119Y-108474501D01*
X72063253Y-108478679D01*
X72036748Y-108478679D01*
X71997875Y-108474500D01*
X71997873Y-108474500D01*
X71986229Y-108474500D01*
X71919190Y-108454815D01*
X71873435Y-108402011D01*
X71863491Y-108332853D01*
X71892516Y-108269297D01*
X71898548Y-108262819D01*
X72174548Y-107986818D01*
X72235871Y-107953333D01*
X72262229Y-107950499D01*
X72937502Y-107950499D01*
X72937508Y-107950499D01*
X73040297Y-107939999D01*
X73206834Y-107884814D01*
X73356156Y-107792712D01*
X73480212Y-107668656D01*
X73572314Y-107519334D01*
X73627499Y-107352797D01*
X73638000Y-107250009D01*
X73637999Y-106950297D01*
X73657683Y-106883261D01*
X73710487Y-106837506D01*
X73779646Y-106827562D01*
X73801004Y-106832594D01*
X73897305Y-106864505D01*
X73897309Y-106864506D01*
X74000019Y-106874999D01*
X74449999Y-106874999D01*
X74450000Y-106874998D01*
X74450000Y-104550000D01*
X74000028Y-104550000D01*
X74000012Y-104550001D01*
X73897302Y-104560494D01*
X73788503Y-104596547D01*
X73718675Y-104598949D01*
X73658633Y-104563217D01*
X73627440Y-104500697D01*
X73625499Y-104478848D01*
X73625499Y-103821683D01*
X73645184Y-103754645D01*
X73697988Y-103708890D01*
X73767146Y-103698946D01*
X73788486Y-103703973D01*
G37*
G04 #@! TD.AperFunction*
G04 #@! TA.AperFunction,Conductor*
G36*
X67289594Y-99172800D02*
G01*
X67340596Y-99204258D01*
X67387321Y-99256205D01*
X67399500Y-99309797D01*
X67399500Y-99802667D01*
X67397732Y-99818678D01*
X67397974Y-99818701D01*
X67397240Y-99826467D01*
X67399500Y-99898376D01*
X67399500Y-99929093D01*
X67399501Y-99929113D01*
X67400418Y-99936379D01*
X67400876Y-99942197D01*
X67402402Y-99990740D01*
X67402403Y-99990743D01*
X67408323Y-100011121D01*
X67412268Y-100030169D01*
X67414928Y-100051227D01*
X67414931Y-100051237D01*
X67432813Y-100096403D01*
X67434705Y-100101931D01*
X67448254Y-100148568D01*
X67448255Y-100148570D01*
X67459060Y-100166839D01*
X67467617Y-100184307D01*
X67473226Y-100198473D01*
X67475432Y-100204045D01*
X67503983Y-100243343D01*
X67507188Y-100248222D01*
X67531919Y-100290038D01*
X67531923Y-100290042D01*
X67546925Y-100305044D01*
X67559563Y-100319842D01*
X67572033Y-100337006D01*
X67572036Y-100337009D01*
X67572037Y-100337010D01*
X67609476Y-100367982D01*
X67613776Y-100371895D01*
X67845231Y-100603350D01*
X68041391Y-100799510D01*
X68051462Y-100812080D01*
X68051649Y-100811926D01*
X68056623Y-100817937D01*
X68056625Y-100817940D01*
X68080860Y-100840698D01*
X68109070Y-100867190D01*
X68130793Y-100888912D01*
X68132657Y-100890358D01*
X68133050Y-100890903D01*
X68133723Y-100891496D01*
X68133588Y-100891648D01*
X68173563Y-100947001D01*
X68180014Y-101000939D01*
X68175000Y-101050011D01*
X68175000Y-101500000D01*
X70499999Y-101500000D01*
X70499999Y-101174500D01*
X70519684Y-101107461D01*
X70572488Y-101061706D01*
X70623999Y-101050500D01*
X71175500Y-101050500D01*
X71242539Y-101070185D01*
X71288294Y-101122989D01*
X71299500Y-101174500D01*
X71299500Y-102450001D01*
X71299501Y-102450018D01*
X71310000Y-102552796D01*
X71310001Y-102552799D01*
X71365185Y-102719331D01*
X71365187Y-102719336D01*
X71457289Y-102868657D01*
X71460795Y-102873091D01*
X71486934Y-102937887D01*
X71473892Y-103006529D01*
X71460795Y-103026909D01*
X71457289Y-103031342D01*
X71365187Y-103180663D01*
X71365185Y-103180668D01*
X71337349Y-103264670D01*
X71310001Y-103347203D01*
X71310001Y-103347204D01*
X71310000Y-103347204D01*
X71299500Y-103449983D01*
X71299500Y-104850001D01*
X71299501Y-104850018D01*
X71310000Y-104952796D01*
X71310001Y-104952799D01*
X71365185Y-105119331D01*
X71365187Y-105119336D01*
X71377932Y-105139999D01*
X71457096Y-105268345D01*
X71457289Y-105268657D01*
X71458075Y-105269443D01*
X71458442Y-105270115D01*
X71461766Y-105274319D01*
X71461047Y-105274887D01*
X71491560Y-105330766D01*
X71486576Y-105400458D01*
X71472882Y-105424766D01*
X71473580Y-105425197D01*
X71469789Y-105431342D01*
X71469788Y-105431344D01*
X71450948Y-105461889D01*
X71377687Y-105580663D01*
X71377685Y-105580668D01*
X71358025Y-105640000D01*
X71322501Y-105747203D01*
X71322501Y-105747204D01*
X71322500Y-105747204D01*
X71312000Y-105849983D01*
X71312000Y-106675269D01*
X71292315Y-106742308D01*
X71275681Y-106762950D01*
X70925451Y-107113181D01*
X70864128Y-107146666D01*
X70837770Y-107149500D01*
X70636500Y-107149500D01*
X70569461Y-107129815D01*
X70523706Y-107077011D01*
X70512500Y-107025500D01*
X70512500Y-106800000D01*
X68187501Y-106800000D01*
X68187501Y-107025500D01*
X68167816Y-107092539D01*
X68115012Y-107138294D01*
X68063501Y-107149500D01*
X64962230Y-107149500D01*
X64895191Y-107129815D01*
X64874549Y-107113181D01*
X64836818Y-107075450D01*
X64803333Y-107014127D01*
X64800499Y-106987778D01*
X64800499Y-106035234D01*
X64820184Y-105968197D01*
X64872988Y-105922442D01*
X64942146Y-105912498D01*
X65005702Y-105941523D01*
X65036881Y-105982831D01*
X65076399Y-106067578D01*
X65211894Y-106261082D01*
X65378917Y-106428105D01*
X65572421Y-106563600D01*
X65786507Y-106663429D01*
X65786516Y-106663433D01*
X66000000Y-106720634D01*
X66000000Y-106002301D01*
X66019685Y-105935262D01*
X66072489Y-105889507D01*
X66141647Y-105879563D01*
X66214237Y-105890000D01*
X66214238Y-105890000D01*
X66285762Y-105890000D01*
X66285763Y-105890000D01*
X66358353Y-105879563D01*
X66427512Y-105889507D01*
X66480315Y-105935262D01*
X66500000Y-106002301D01*
X66500000Y-106720633D01*
X66713483Y-106663433D01*
X66713492Y-106663429D01*
X66927578Y-106563600D01*
X67121082Y-106428105D01*
X67288105Y-106261082D01*
X67423600Y-106067578D01*
X67523429Y-105853492D01*
X67523432Y-105853486D01*
X67580636Y-105640000D01*
X66863347Y-105640000D01*
X66796308Y-105620315D01*
X66750553Y-105567511D01*
X66740609Y-105498353D01*
X66744369Y-105481067D01*
X66750000Y-105461888D01*
X66750000Y-105318111D01*
X66744369Y-105298933D01*
X66744370Y-105229064D01*
X66782145Y-105170286D01*
X66845701Y-105141262D01*
X66863347Y-105140000D01*
X67580636Y-105140000D01*
X67580635Y-105139999D01*
X67523432Y-104926513D01*
X67523429Y-104926507D01*
X67423600Y-104712422D01*
X67423599Y-104712420D01*
X67288113Y-104518926D01*
X67288108Y-104518920D01*
X67169188Y-104400000D01*
X68175001Y-104400000D01*
X68175001Y-104849986D01*
X68185494Y-104952697D01*
X68240641Y-105119119D01*
X68240643Y-105119124D01*
X68332684Y-105268345D01*
X68333745Y-105269406D01*
X68334240Y-105270313D01*
X68337161Y-105274007D01*
X68336529Y-105274506D01*
X68367230Y-105330729D01*
X68362246Y-105400421D01*
X68348337Y-105425115D01*
X68348975Y-105425509D01*
X68253143Y-105580875D01*
X68253141Y-105580880D01*
X68197994Y-105747302D01*
X68197993Y-105747309D01*
X68187500Y-105850013D01*
X68187500Y-106300000D01*
X69100000Y-106300000D01*
X69100000Y-105570197D01*
X69090334Y-105552496D01*
X69087500Y-105526138D01*
X69087500Y-104400000D01*
X69587500Y-104400000D01*
X69587500Y-105129802D01*
X69597166Y-105147504D01*
X69600000Y-105173862D01*
X69600000Y-106300000D01*
X70512499Y-106300000D01*
X70512499Y-105850028D01*
X70512498Y-105850013D01*
X70502005Y-105747302D01*
X70446858Y-105580880D01*
X70446856Y-105580875D01*
X70354815Y-105431654D01*
X70353754Y-105430593D01*
X70353257Y-105429684D01*
X70350339Y-105425993D01*
X70350969Y-105425494D01*
X70320269Y-105369270D01*
X70325253Y-105299578D01*
X70339165Y-105274886D01*
X70338525Y-105274491D01*
X70434356Y-105119124D01*
X70434358Y-105119119D01*
X70489505Y-104952697D01*
X70489506Y-104952690D01*
X70499999Y-104849986D01*
X70500000Y-104849973D01*
X70500000Y-104400000D01*
X69587500Y-104400000D01*
X69087500Y-104400000D01*
X68175001Y-104400000D01*
X67169188Y-104400000D01*
X67166053Y-104396865D01*
X67132568Y-104335542D01*
X67137552Y-104265850D01*
X67179424Y-104209917D01*
X67210400Y-104193002D01*
X67342331Y-104143796D01*
X67457546Y-104057546D01*
X67543796Y-103942331D01*
X67559584Y-103900000D01*
X68175000Y-103900000D01*
X69087500Y-103900000D01*
X69087500Y-102000000D01*
X69587500Y-102000000D01*
X69587500Y-103900000D01*
X70499999Y-103900000D01*
X70499999Y-103450028D01*
X70499998Y-103450013D01*
X70489505Y-103347302D01*
X70434358Y-103180880D01*
X70434356Y-103180875D01*
X70342316Y-103031656D01*
X70338568Y-103026916D01*
X70312424Y-102962123D01*
X70325460Y-102893480D01*
X70338568Y-102873084D01*
X70342316Y-102868343D01*
X70434356Y-102719124D01*
X70434358Y-102719119D01*
X70489505Y-102552697D01*
X70489506Y-102552690D01*
X70499999Y-102449986D01*
X70500000Y-102449973D01*
X70500000Y-102000000D01*
X69587500Y-102000000D01*
X69087500Y-102000000D01*
X68175001Y-102000000D01*
X68175001Y-102449986D01*
X68185494Y-102552697D01*
X68240641Y-102719119D01*
X68240643Y-102719124D01*
X68332685Y-102868346D01*
X68336435Y-102873089D01*
X68362576Y-102937885D01*
X68349535Y-103006527D01*
X68336435Y-103026911D01*
X68332685Y-103031653D01*
X68240643Y-103180875D01*
X68240641Y-103180880D01*
X68185494Y-103347302D01*
X68185493Y-103347309D01*
X68175000Y-103450013D01*
X68175000Y-103900000D01*
X67559584Y-103900000D01*
X67594091Y-103807483D01*
X67600500Y-103747873D01*
X67600499Y-101952128D01*
X67594091Y-101892517D01*
X67543796Y-101757669D01*
X67543795Y-101757668D01*
X67543793Y-101757664D01*
X67457547Y-101642455D01*
X67457544Y-101642452D01*
X67342335Y-101556206D01*
X67342328Y-101556202D01*
X67207482Y-101505908D01*
X67199938Y-101504126D01*
X67200474Y-101501853D01*
X67146688Y-101479571D01*
X67106843Y-101422177D01*
X67100500Y-101383024D01*
X67100500Y-99278341D01*
X67120185Y-99211302D01*
X67172989Y-99165547D01*
X67242147Y-99155603D01*
X67289594Y-99172800D01*
G37*
G04 #@! TD.AperFunction*
G04 #@! TA.AperFunction,Conductor*
G36*
X93036307Y-87409685D02*
G01*
X93061416Y-87431026D01*
X93144129Y-87522888D01*
X93206690Y-87568341D01*
X93291779Y-87630162D01*
X93334444Y-87685492D01*
X93340423Y-87755106D01*
X93307817Y-87816900D01*
X93246978Y-87851258D01*
X93244674Y-87851770D01*
X93077565Y-87887290D01*
X93051784Y-87890000D01*
X92310000Y-87890000D01*
X92310000Y-88890000D01*
X92358555Y-88890000D01*
X92425594Y-88909685D01*
X92471349Y-88962489D01*
X92476486Y-88975682D01*
X92522818Y-89118277D01*
X92522821Y-89118284D01*
X92617464Y-89282212D01*
X92617465Y-89282214D01*
X92617467Y-89282216D01*
X92668833Y-89339264D01*
X92699062Y-89402253D01*
X92690437Y-89471588D01*
X92668832Y-89505206D01*
X92567466Y-89617784D01*
X92472821Y-89781715D01*
X92472818Y-89781722D01*
X92417488Y-89952011D01*
X92414326Y-89961744D01*
X92394540Y-90150000D01*
X92414326Y-90338256D01*
X92414327Y-90338259D01*
X92472818Y-90518277D01*
X92472821Y-90518284D01*
X92567466Y-90682215D01*
X92633394Y-90755436D01*
X92663624Y-90818428D01*
X92654998Y-90887763D01*
X92648632Y-90900407D01*
X92572820Y-91031718D01*
X92572818Y-91031722D01*
X92523921Y-91182214D01*
X92514326Y-91211744D01*
X92494540Y-91400000D01*
X92514326Y-91588256D01*
X92514327Y-91588259D01*
X92572818Y-91768277D01*
X92572821Y-91768284D01*
X92667466Y-91932215D01*
X92733394Y-92005436D01*
X92763624Y-92068428D01*
X92754998Y-92137763D01*
X92748632Y-92150407D01*
X92742402Y-92161198D01*
X92703126Y-92229227D01*
X92672820Y-92281718D01*
X92672818Y-92281722D01*
X92614412Y-92461479D01*
X92614326Y-92461744D01*
X92594540Y-92650000D01*
X92614326Y-92838256D01*
X92614327Y-92838259D01*
X92672818Y-93018277D01*
X92672821Y-93018284D01*
X92742432Y-93138855D01*
X92767467Y-93182216D01*
X92802930Y-93221602D01*
X92833159Y-93284591D01*
X92824534Y-93353926D01*
X92818166Y-93366571D01*
X92722823Y-93531710D01*
X92722818Y-93531722D01*
X92678500Y-93668121D01*
X92664326Y-93711744D01*
X92644540Y-93900000D01*
X92664326Y-94088256D01*
X92664327Y-94088259D01*
X92722818Y-94268277D01*
X92722821Y-94268284D01*
X92814319Y-94426764D01*
X92830792Y-94494665D01*
X92807939Y-94560691D01*
X92797998Y-94571850D01*
X92798477Y-94572282D01*
X92667466Y-94717785D01*
X92572821Y-94881715D01*
X92572818Y-94881722D01*
X92521259Y-95040406D01*
X92514326Y-95061744D01*
X92494540Y-95250000D01*
X92514326Y-95438256D01*
X92514327Y-95438259D01*
X92572818Y-95618277D01*
X92572823Y-95618289D01*
X92668165Y-95783427D01*
X92684638Y-95851327D01*
X92661785Y-95917354D01*
X92652929Y-95928397D01*
X92617470Y-95967778D01*
X92617465Y-95967785D01*
X92522821Y-96131715D01*
X92522818Y-96131722D01*
X92464327Y-96311740D01*
X92464326Y-96311744D01*
X92444540Y-96500000D01*
X92464326Y-96688256D01*
X92464327Y-96688259D01*
X92522818Y-96868277D01*
X92522821Y-96868284D01*
X92617467Y-97032216D01*
X92735238Y-97163014D01*
X92744129Y-97172888D01*
X92897265Y-97284148D01*
X92897270Y-97284151D01*
X93070192Y-97361142D01*
X93070197Y-97361144D01*
X93255354Y-97400500D01*
X93255355Y-97400500D01*
X93444644Y-97400500D01*
X93444646Y-97400500D01*
X93629803Y-97361144D01*
X93675065Y-97340991D01*
X93744312Y-97331706D01*
X93807589Y-97361334D01*
X93844804Y-97420468D01*
X93849500Y-97454271D01*
X93849500Y-98277870D01*
X93849501Y-98277876D01*
X93855908Y-98337481D01*
X93868659Y-98371669D01*
X93873642Y-98441361D01*
X93868659Y-98458331D01*
X93855908Y-98492518D01*
X93849902Y-98548389D01*
X93849501Y-98552123D01*
X93849500Y-98552135D01*
X93849500Y-99547870D01*
X93849501Y-99547876D01*
X93855908Y-99607481D01*
X93868659Y-99641669D01*
X93873642Y-99711361D01*
X93868659Y-99728331D01*
X93855908Y-99762518D01*
X93849501Y-99822116D01*
X93849501Y-99822123D01*
X93849500Y-99822135D01*
X93849500Y-100817870D01*
X93849501Y-100817876D01*
X93855908Y-100877481D01*
X93868659Y-100911669D01*
X93873642Y-100981361D01*
X93868659Y-100998331D01*
X93855908Y-101032518D01*
X93849501Y-101092116D01*
X93849501Y-101092123D01*
X93849500Y-101092135D01*
X93849500Y-102087870D01*
X93849501Y-102087876D01*
X93855908Y-102147481D01*
X93868659Y-102181669D01*
X93873642Y-102251361D01*
X93868659Y-102268331D01*
X93855908Y-102302518D01*
X93849501Y-102362116D01*
X93849500Y-102362135D01*
X93849501Y-103325500D01*
X93829817Y-103392539D01*
X93777013Y-103438294D01*
X93725501Y-103449500D01*
X93626975Y-103449500D01*
X93559936Y-103429815D01*
X93554090Y-103425818D01*
X93402734Y-103315851D01*
X93402729Y-103315848D01*
X93229807Y-103238857D01*
X93229802Y-103238855D01*
X93084000Y-103207865D01*
X93044646Y-103199500D01*
X92855354Y-103199500D01*
X92822897Y-103206398D01*
X92670197Y-103238855D01*
X92670192Y-103238857D01*
X92497270Y-103315848D01*
X92497265Y-103315851D01*
X92344129Y-103427111D01*
X92217466Y-103567785D01*
X92122821Y-103731715D01*
X92122818Y-103731722D01*
X92075394Y-103877680D01*
X92035956Y-103935356D01*
X91971598Y-103962554D01*
X91902752Y-103950639D01*
X91869782Y-103927043D01*
X91774520Y-103831781D01*
X91741035Y-103770458D01*
X91738201Y-103744100D01*
X91738201Y-103708340D01*
X91739925Y-103692720D01*
X91739640Y-103692694D01*
X91740372Y-103684938D01*
X91740374Y-103684931D01*
X91738201Y-103615783D01*
X91738201Y-103586248D01*
X91737481Y-103580553D01*
X91737332Y-103579370D01*
X91736873Y-103573541D01*
X91736849Y-103572791D01*
X91735410Y-103526971D01*
X91735175Y-103526163D01*
X91729823Y-103507742D01*
X91725875Y-103488682D01*
X91723365Y-103468806D01*
X91723364Y-103468804D01*
X91723364Y-103468802D01*
X91706213Y-103425485D01*
X91704320Y-103419956D01*
X91691319Y-103375207D01*
X91691317Y-103375204D01*
X91681124Y-103357969D01*
X91672562Y-103340492D01*
X91665188Y-103321868D01*
X91665187Y-103321866D01*
X91637780Y-103284143D01*
X91634589Y-103279284D01*
X91610873Y-103239181D01*
X91610866Y-103239172D01*
X91596707Y-103225013D01*
X91584069Y-103210217D01*
X91576283Y-103199500D01*
X91572295Y-103194011D01*
X91556422Y-103180880D01*
X91536389Y-103164307D01*
X91532077Y-103160384D01*
X90925205Y-102553511D01*
X90915382Y-102541249D01*
X90915161Y-102541433D01*
X90910188Y-102535422D01*
X90859766Y-102488072D01*
X90849321Y-102477627D01*
X90838877Y-102467182D01*
X90833388Y-102462924D01*
X90828963Y-102459146D01*
X90794984Y-102427237D01*
X90794982Y-102427235D01*
X90794979Y-102427234D01*
X90777431Y-102417587D01*
X90761165Y-102406903D01*
X90745338Y-102394626D01*
X90745337Y-102394625D01*
X90745335Y-102394624D01*
X90702570Y-102376117D01*
X90697324Y-102373547D01*
X90656495Y-102351102D01*
X90656494Y-102351101D01*
X90637095Y-102346121D01*
X90618683Y-102339817D01*
X90600300Y-102331861D01*
X90600294Y-102331859D01*
X90554276Y-102324571D01*
X90548554Y-102323386D01*
X90503423Y-102311799D01*
X90503421Y-102311799D01*
X90483386Y-102311799D01*
X90463988Y-102310272D01*
X90456564Y-102309096D01*
X90444207Y-102307139D01*
X90444206Y-102307139D01*
X90397818Y-102311524D01*
X90391980Y-102311799D01*
X90134149Y-102311799D01*
X90067110Y-102292114D01*
X90046468Y-102275481D01*
X89987200Y-102216214D01*
X89977378Y-102203952D01*
X89977156Y-102204136D01*
X89972181Y-102198121D01*
X89937813Y-102165848D01*
X89921759Y-102150772D01*
X89911314Y-102140327D01*
X89900871Y-102129883D01*
X89895382Y-102125625D01*
X89890957Y-102121847D01*
X89856978Y-102089938D01*
X89856976Y-102089936D01*
X89856973Y-102089935D01*
X89839425Y-102080288D01*
X89823159Y-102069604D01*
X89807329Y-102057325D01*
X89764564Y-102038818D01*
X89759318Y-102036248D01*
X89718489Y-102013803D01*
X89718488Y-102013802D01*
X89699089Y-102008822D01*
X89680677Y-102002518D01*
X89662294Y-101994562D01*
X89662288Y-101994560D01*
X89616270Y-101987272D01*
X89610548Y-101986087D01*
X89565417Y-101974500D01*
X89565415Y-101974500D01*
X89545380Y-101974500D01*
X89525982Y-101972973D01*
X89518558Y-101971797D01*
X89506201Y-101969840D01*
X89506200Y-101969840D01*
X89459812Y-101974225D01*
X89453974Y-101974500D01*
X81240452Y-101974500D01*
X81173413Y-101954815D01*
X81152771Y-101938181D01*
X79100803Y-99886212D01*
X79090980Y-99873950D01*
X79090759Y-99874134D01*
X79085786Y-99868123D01*
X79035364Y-99820773D01*
X79024919Y-99810328D01*
X79014475Y-99799883D01*
X79008986Y-99795625D01*
X79004561Y-99791847D01*
X78970582Y-99759938D01*
X78970580Y-99759936D01*
X78970577Y-99759935D01*
X78953029Y-99750288D01*
X78936763Y-99739604D01*
X78920936Y-99727327D01*
X78918998Y-99726488D01*
X78917719Y-99725424D01*
X78914219Y-99723354D01*
X78914552Y-99722789D01*
X78865291Y-99681799D01*
X78844270Y-99615166D01*
X78844955Y-99599442D01*
X78850500Y-99547873D01*
X78850499Y-98552128D01*
X78844091Y-98492517D01*
X78831340Y-98458332D01*
X78826357Y-98388642D01*
X78831340Y-98371669D01*
X78844091Y-98337483D01*
X78847046Y-98310000D01*
X84430000Y-98310000D01*
X84430000Y-100207844D01*
X84436401Y-100267372D01*
X84436403Y-100267379D01*
X84486645Y-100402086D01*
X84486649Y-100402093D01*
X84572809Y-100517187D01*
X84572812Y-100517190D01*
X84687906Y-100603350D01*
X84687913Y-100603354D01*
X84822620Y-100653596D01*
X84822627Y-100653598D01*
X84882155Y-100659999D01*
X84882172Y-100660000D01*
X86780000Y-100660000D01*
X87280000Y-100660000D01*
X89177828Y-100660000D01*
X89177844Y-100659999D01*
X89237372Y-100653598D01*
X89237379Y-100653596D01*
X89372086Y-100603354D01*
X89372093Y-100603350D01*
X89487187Y-100517190D01*
X89487190Y-100517187D01*
X89573350Y-100402093D01*
X89573354Y-100402086D01*
X89623596Y-100267379D01*
X89623598Y-100267372D01*
X89629999Y-100207844D01*
X89630000Y-100207827D01*
X89630000Y-98310000D01*
X88805000Y-98310000D01*
X88805000Y-98520001D01*
X88804999Y-98572750D01*
X88785313Y-98639789D01*
X88732508Y-98685543D01*
X88663350Y-98695486D01*
X88648885Y-98690480D01*
X88648414Y-98692239D01*
X88603699Y-98680258D01*
X88574746Y-98672500D01*
X88535254Y-98672500D01*
X88477356Y-98688013D01*
X88420512Y-98744856D01*
X88420512Y-98744857D01*
X88413397Y-98771410D01*
X88381872Y-98823127D01*
X88392890Y-98831375D01*
X88413397Y-98873589D01*
X88420512Y-98900144D01*
X88477353Y-98956985D01*
X88477354Y-98956985D01*
X88477355Y-98956986D01*
X88535254Y-98972500D01*
X88535256Y-98972500D01*
X88574744Y-98972500D01*
X88574746Y-98972500D01*
X88632645Y-98956986D01*
X88632645Y-98956985D01*
X88648414Y-98952761D01*
X88649664Y-98957426D01*
X88686831Y-98948388D01*
X88752871Y-98971204D01*
X88796092Y-99026101D01*
X88805000Y-99072251D01*
X88805000Y-99711000D01*
X88785315Y-99778039D01*
X88732511Y-99823794D01*
X88681000Y-99835000D01*
X88042252Y-99835000D01*
X87975213Y-99815315D01*
X87929458Y-99762511D01*
X87919514Y-99693353D01*
X87924520Y-99678886D01*
X87922761Y-99678415D01*
X87947791Y-99585000D01*
X87947791Y-99584999D01*
X87926986Y-99507354D01*
X87870145Y-99450513D01*
X87843592Y-99443399D01*
X87791871Y-99411874D01*
X87783625Y-99422891D01*
X87741408Y-99443399D01*
X87714856Y-99450513D01*
X87658013Y-99507355D01*
X87637209Y-99584999D01*
X87637209Y-99585000D01*
X87662239Y-99678414D01*
X87657573Y-99679664D01*
X87666612Y-99716831D01*
X87643796Y-99782871D01*
X87588899Y-99826092D01*
X87542749Y-99835000D01*
X87280000Y-99835000D01*
X87280000Y-100660000D01*
X86780000Y-100660000D01*
X86780000Y-99835000D01*
X86517252Y-99835000D01*
X86450213Y-99815315D01*
X86404458Y-99762511D01*
X86394514Y-99693353D01*
X86399520Y-99678886D01*
X86397761Y-99678415D01*
X86422791Y-99585000D01*
X86422791Y-99584999D01*
X86401986Y-99507354D01*
X86345145Y-99450513D01*
X86318592Y-99443399D01*
X86266871Y-99411874D01*
X86258625Y-99422891D01*
X86216408Y-99443399D01*
X86189856Y-99450513D01*
X86133013Y-99507355D01*
X86112209Y-99584999D01*
X86112209Y-99585000D01*
X86137239Y-99678414D01*
X86132573Y-99679664D01*
X86141612Y-99716831D01*
X86118796Y-99782871D01*
X86063899Y-99826092D01*
X86017749Y-99835000D01*
X85379000Y-99835000D01*
X85311961Y-99815315D01*
X85266206Y-99762511D01*
X85255000Y-99711000D01*
X85255000Y-99072251D01*
X85274685Y-99005212D01*
X85327489Y-98959457D01*
X85396647Y-98949513D01*
X85411113Y-98954524D01*
X85411586Y-98952761D01*
X85427355Y-98956986D01*
X85485254Y-98972500D01*
X85485256Y-98972500D01*
X85524744Y-98972500D01*
X85524746Y-98972500D01*
X85582645Y-98956986D01*
X85639486Y-98900146D01*
X85646600Y-98873593D01*
X85677742Y-98822499D01*
X85858552Y-98822499D01*
X86267499Y-99231446D01*
X86675818Y-98823127D01*
X86856872Y-98823127D01*
X86867890Y-98831375D01*
X86888397Y-98873589D01*
X86895512Y-98900144D01*
X86952353Y-98956985D01*
X86952354Y-98956985D01*
X86952355Y-98956986D01*
X87010254Y-98972500D01*
X87010256Y-98972500D01*
X87049744Y-98972500D01*
X87049746Y-98972500D01*
X87107645Y-98956986D01*
X87164486Y-98900146D01*
X87171600Y-98873593D01*
X87202742Y-98822499D01*
X87383552Y-98822499D01*
X87792499Y-99231446D01*
X88201446Y-98822499D01*
X87792499Y-98413552D01*
X87383552Y-98822499D01*
X87202742Y-98822499D01*
X87203125Y-98821871D01*
X87192109Y-98813624D01*
X87171601Y-98771408D01*
X87170177Y-98766096D01*
X87164486Y-98744855D01*
X87164485Y-98744854D01*
X87164485Y-98744853D01*
X87107646Y-98688014D01*
X87078695Y-98680256D01*
X87049746Y-98672500D01*
X87010254Y-98672500D01*
X86952356Y-98688013D01*
X86895512Y-98744856D01*
X86895512Y-98744857D01*
X86888397Y-98771410D01*
X86856872Y-98823127D01*
X86675818Y-98823127D01*
X86676446Y-98822499D01*
X86267499Y-98413552D01*
X85858552Y-98822499D01*
X85677742Y-98822499D01*
X85678125Y-98821871D01*
X85667109Y-98813624D01*
X85646601Y-98771408D01*
X85645177Y-98766096D01*
X85639486Y-98744855D01*
X85639485Y-98744854D01*
X85639485Y-98744853D01*
X85582646Y-98688014D01*
X85553695Y-98680256D01*
X85524746Y-98672500D01*
X85485254Y-98672500D01*
X85411586Y-98692239D01*
X85410336Y-98687577D01*
X85372980Y-98696602D01*
X85306976Y-98673686D01*
X85263838Y-98618723D01*
X85255000Y-98572748D01*
X85255000Y-98310000D01*
X84430000Y-98310000D01*
X78847046Y-98310000D01*
X78850500Y-98277873D01*
X78850500Y-98060000D01*
X86112209Y-98060000D01*
X86133013Y-98137645D01*
X86189852Y-98194484D01*
X86189853Y-98194484D01*
X86189855Y-98194486D01*
X86216409Y-98201601D01*
X86268127Y-98233123D01*
X86276374Y-98222108D01*
X86318587Y-98201601D01*
X86345145Y-98194486D01*
X86401986Y-98137646D01*
X86422791Y-98060000D01*
X87637209Y-98060000D01*
X87658013Y-98137645D01*
X87714852Y-98194484D01*
X87714853Y-98194484D01*
X87714855Y-98194486D01*
X87741409Y-98201601D01*
X87793127Y-98233123D01*
X87801374Y-98222108D01*
X87843587Y-98201601D01*
X87870145Y-98194486D01*
X87926986Y-98137646D01*
X87947791Y-98060000D01*
X87932331Y-98002300D01*
X87926986Y-97982354D01*
X87870145Y-97925513D01*
X87843592Y-97918399D01*
X87791871Y-97886874D01*
X87783625Y-97897891D01*
X87741408Y-97918399D01*
X87714856Y-97925513D01*
X87658013Y-97982355D01*
X87637209Y-98059999D01*
X87637209Y-98060000D01*
X86422791Y-98060000D01*
X86407331Y-98002300D01*
X86401986Y-97982354D01*
X86345145Y-97925513D01*
X86318592Y-97918399D01*
X86266871Y-97886874D01*
X86258625Y-97897891D01*
X86216408Y-97918399D01*
X86189856Y-97925513D01*
X86133013Y-97982355D01*
X86112209Y-98059999D01*
X86112209Y-98060000D01*
X78850500Y-98060000D01*
X78850500Y-97810000D01*
X84430000Y-97810000D01*
X85255000Y-97810000D01*
X85255000Y-97547251D01*
X85274685Y-97480212D01*
X85327489Y-97434457D01*
X85396647Y-97424513D01*
X85411113Y-97429524D01*
X85411586Y-97427761D01*
X85427355Y-97431986D01*
X85485254Y-97447500D01*
X85485256Y-97447500D01*
X85524744Y-97447500D01*
X85524746Y-97447500D01*
X85582645Y-97431986D01*
X85639486Y-97375146D01*
X85646600Y-97348593D01*
X85677742Y-97297499D01*
X85858552Y-97297499D01*
X86267499Y-97706446D01*
X86675818Y-97298127D01*
X86856872Y-97298127D01*
X86867890Y-97306375D01*
X86888397Y-97348589D01*
X86895512Y-97375144D01*
X86952353Y-97431985D01*
X86952354Y-97431985D01*
X86952355Y-97431986D01*
X87010254Y-97447500D01*
X87010256Y-97447500D01*
X87049744Y-97447500D01*
X87049746Y-97447500D01*
X87107645Y-97431986D01*
X87164486Y-97375146D01*
X87171600Y-97348593D01*
X87202742Y-97297499D01*
X87383552Y-97297499D01*
X87792499Y-97706446D01*
X88201446Y-97297499D01*
X87792499Y-96888552D01*
X87383552Y-97297499D01*
X87202742Y-97297499D01*
X87203125Y-97296871D01*
X87192109Y-97288624D01*
X87171601Y-97246408D01*
X87170177Y-97241096D01*
X87164486Y-97219855D01*
X87164485Y-97219854D01*
X87164485Y-97219853D01*
X87107646Y-97163014D01*
X87078695Y-97155256D01*
X87049746Y-97147500D01*
X87010254Y-97147500D01*
X86952356Y-97163013D01*
X86895512Y-97219856D01*
X86895512Y-97219857D01*
X86888397Y-97246410D01*
X86856872Y-97298127D01*
X86675818Y-97298127D01*
X86676446Y-97297499D01*
X86267499Y-96888552D01*
X85858552Y-97297499D01*
X85677742Y-97297499D01*
X85678125Y-97296871D01*
X85667109Y-97288624D01*
X85646601Y-97246408D01*
X85645177Y-97241096D01*
X85639486Y-97219855D01*
X85639485Y-97219854D01*
X85639485Y-97219853D01*
X85582646Y-97163014D01*
X85553695Y-97155256D01*
X85524746Y-97147500D01*
X85485254Y-97147500D01*
X85411586Y-97167239D01*
X85410336Y-97162577D01*
X85372980Y-97171602D01*
X85306976Y-97148686D01*
X85263838Y-97093723D01*
X85255000Y-97047748D01*
X85255000Y-96409000D01*
X85274685Y-96341961D01*
X85327489Y-96296206D01*
X85379000Y-96285000D01*
X86017748Y-96285000D01*
X86084787Y-96304685D01*
X86130542Y-96357489D01*
X86140486Y-96426647D01*
X86135479Y-96441113D01*
X86137239Y-96441585D01*
X86112209Y-96534999D01*
X86112209Y-96535000D01*
X86133013Y-96612645D01*
X86189852Y-96669484D01*
X86189853Y-96669484D01*
X86189855Y-96669486D01*
X86216409Y-96676601D01*
X86268127Y-96708123D01*
X86276374Y-96697108D01*
X86318587Y-96676601D01*
X86345145Y-96669486D01*
X86401986Y-96612646D01*
X86422791Y-96535000D01*
X86413406Y-96499973D01*
X86397761Y-96441586D01*
X86402426Y-96440335D01*
X86393388Y-96403169D01*
X86416204Y-96337129D01*
X86471101Y-96293908D01*
X86517251Y-96285000D01*
X86780000Y-96285000D01*
X86780000Y-95460000D01*
X87280000Y-95460000D01*
X87280000Y-96285000D01*
X87542748Y-96285000D01*
X87609787Y-96304685D01*
X87655542Y-96357489D01*
X87665486Y-96426647D01*
X87660479Y-96441113D01*
X87662239Y-96441585D01*
X87637209Y-96534999D01*
X87637209Y-96535000D01*
X87658013Y-96612645D01*
X87714852Y-96669484D01*
X87714853Y-96669484D01*
X87714855Y-96669486D01*
X87741409Y-96676601D01*
X87793127Y-96708123D01*
X87801374Y-96697108D01*
X87843587Y-96676601D01*
X87870145Y-96669486D01*
X87926986Y-96612646D01*
X87947791Y-96535000D01*
X87938406Y-96499973D01*
X87922761Y-96441586D01*
X87927426Y-96440335D01*
X87918388Y-96403169D01*
X87941204Y-96337129D01*
X87996101Y-96293908D01*
X88042251Y-96285000D01*
X88681000Y-96285000D01*
X88748039Y-96304685D01*
X88793794Y-96357489D01*
X88805000Y-96409000D01*
X88805000Y-96995001D01*
X88804999Y-97047750D01*
X88785313Y-97114789D01*
X88732508Y-97160543D01*
X88663350Y-97170486D01*
X88648885Y-97165480D01*
X88648414Y-97167239D01*
X88609905Y-97156921D01*
X88574746Y-97147500D01*
X88535254Y-97147500D01*
X88477356Y-97163013D01*
X88420512Y-97219856D01*
X88420512Y-97219857D01*
X88413397Y-97246410D01*
X88381872Y-97298127D01*
X88392890Y-97306375D01*
X88413397Y-97348589D01*
X88420512Y-97375144D01*
X88477353Y-97431985D01*
X88477354Y-97431985D01*
X88477355Y-97431986D01*
X88535254Y-97447500D01*
X88535256Y-97447500D01*
X88574744Y-97447500D01*
X88574746Y-97447500D01*
X88632645Y-97431986D01*
X88632645Y-97431985D01*
X88648414Y-97427761D01*
X88649664Y-97432426D01*
X88686831Y-97423388D01*
X88752871Y-97446204D01*
X88796092Y-97501101D01*
X88805000Y-97547251D01*
X88805000Y-97810000D01*
X89630000Y-97810000D01*
X89630000Y-95912172D01*
X89629999Y-95912155D01*
X89623598Y-95852627D01*
X89623596Y-95852620D01*
X89573354Y-95717913D01*
X89573350Y-95717906D01*
X89487190Y-95602812D01*
X89487187Y-95602809D01*
X89372093Y-95516649D01*
X89372086Y-95516645D01*
X89237379Y-95466403D01*
X89237372Y-95466401D01*
X89177844Y-95460000D01*
X87280000Y-95460000D01*
X86780000Y-95460000D01*
X84882155Y-95460000D01*
X84822627Y-95466401D01*
X84822620Y-95466403D01*
X84687913Y-95516645D01*
X84687906Y-95516649D01*
X84572812Y-95602809D01*
X84572809Y-95602812D01*
X84486649Y-95717906D01*
X84486645Y-95717913D01*
X84436403Y-95852620D01*
X84436401Y-95852627D01*
X84430000Y-95912155D01*
X84430000Y-97810000D01*
X78850500Y-97810000D01*
X78850499Y-97282128D01*
X78844116Y-97222752D01*
X78856522Y-97153995D01*
X78904133Y-97102858D01*
X78967406Y-97085500D01*
X79679756Y-97085500D01*
X79746795Y-97105185D01*
X79763240Y-97119159D01*
X79763799Y-97118539D01*
X79768630Y-97122889D01*
X79921765Y-97234148D01*
X79921770Y-97234151D01*
X80094692Y-97311142D01*
X80094697Y-97311144D01*
X80279854Y-97350500D01*
X80279855Y-97350500D01*
X80469144Y-97350500D01*
X80469146Y-97350500D01*
X80654303Y-97311144D01*
X80827230Y-97234151D01*
X80980371Y-97122888D01*
X81107033Y-96982216D01*
X81201679Y-96818284D01*
X81260174Y-96638256D01*
X81279960Y-96450000D01*
X81260174Y-96261744D01*
X81228031Y-96162818D01*
X81226036Y-96092977D01*
X81262116Y-96033144D01*
X81324817Y-96002316D01*
X81345962Y-96000500D01*
X81494644Y-96000500D01*
X81494646Y-96000500D01*
X81679803Y-95961144D01*
X81852730Y-95884151D01*
X82005871Y-95772888D01*
X82132533Y-95632216D01*
X82227179Y-95468284D01*
X82285674Y-95288256D01*
X82305460Y-95100000D01*
X82285674Y-94911744D01*
X82227179Y-94731716D01*
X82132533Y-94567784D01*
X82005871Y-94427112D01*
X82005392Y-94426764D01*
X81852734Y-94315851D01*
X81852729Y-94315848D01*
X81679807Y-94238857D01*
X81679802Y-94238855D01*
X81534000Y-94207865D01*
X81494646Y-94199500D01*
X81305354Y-94199500D01*
X81272897Y-94206398D01*
X81120197Y-94238855D01*
X81120192Y-94238857D01*
X80947270Y-94315848D01*
X80947265Y-94315851D01*
X80794129Y-94427111D01*
X80707366Y-94523472D01*
X80647879Y-94560121D01*
X80615216Y-94564500D01*
X80478668Y-94564500D01*
X80411629Y-94544815D01*
X80365874Y-94492011D01*
X80355930Y-94422853D01*
X80371279Y-94378503D01*
X80377179Y-94368284D01*
X80435674Y-94188256D01*
X80455460Y-94000000D01*
X80435674Y-93811744D01*
X80377179Y-93631716D01*
X80282533Y-93467784D01*
X80155871Y-93327112D01*
X80155870Y-93327111D01*
X80002734Y-93215851D01*
X80002729Y-93215848D01*
X79829807Y-93138857D01*
X79829802Y-93138855D01*
X79684000Y-93107865D01*
X79644646Y-93099500D01*
X79455354Y-93099500D01*
X79422897Y-93106398D01*
X79270197Y-93138855D01*
X79270192Y-93138857D01*
X79097270Y-93215848D01*
X79097266Y-93215850D01*
X79047383Y-93252093D01*
X78981577Y-93275572D01*
X78913523Y-93259746D01*
X78864829Y-93209640D01*
X78850499Y-93151777D01*
X78850499Y-92202128D01*
X78844091Y-92142517D01*
X78831340Y-92108332D01*
X78826357Y-92038642D01*
X78831338Y-92021672D01*
X78844091Y-91987483D01*
X78848305Y-91948288D01*
X78875040Y-91883741D01*
X78932432Y-91843892D01*
X79002257Y-91841397D01*
X79059274Y-91873865D01*
X79144197Y-91958788D01*
X79154022Y-91971051D01*
X79154243Y-91970869D01*
X79159214Y-91976878D01*
X79170508Y-91987483D01*
X79209635Y-92024226D01*
X79230529Y-92045120D01*
X79236011Y-92049373D01*
X79240443Y-92053157D01*
X79274418Y-92085062D01*
X79291976Y-92094714D01*
X79308233Y-92105393D01*
X79324064Y-92117673D01*
X79343737Y-92126186D01*
X79366833Y-92136182D01*
X79372077Y-92138750D01*
X79412908Y-92161197D01*
X79425523Y-92164435D01*
X79432305Y-92166177D01*
X79450719Y-92172481D01*
X79469104Y-92180438D01*
X79515157Y-92187732D01*
X79520826Y-92188906D01*
X79565981Y-92200500D01*
X79586016Y-92200500D01*
X79605413Y-92202026D01*
X79625196Y-92205160D01*
X79671583Y-92200775D01*
X79677422Y-92200500D01*
X81017562Y-92200500D01*
X81033182Y-92202224D01*
X81033209Y-92201939D01*
X81040965Y-92202671D01*
X81040972Y-92202673D01*
X81110119Y-92200500D01*
X81139655Y-92200500D01*
X81146533Y-92199630D01*
X81152346Y-92199172D01*
X81198932Y-92197709D01*
X81214705Y-92193125D01*
X81249303Y-92188201D01*
X81733551Y-92188201D01*
X81800590Y-92207886D01*
X81825699Y-92229227D01*
X81831425Y-92235586D01*
X81831429Y-92235590D01*
X81984564Y-92346849D01*
X81984569Y-92346852D01*
X82157491Y-92423843D01*
X82157496Y-92423845D01*
X82342653Y-92463201D01*
X82342654Y-92463201D01*
X82531943Y-92463201D01*
X82531945Y-92463201D01*
X82717102Y-92423845D01*
X82890029Y-92346852D01*
X83043170Y-92235589D01*
X83169832Y-92094917D01*
X83264478Y-91930985D01*
X83322973Y-91750957D01*
X83332371Y-91661535D01*
X83358954Y-91596924D01*
X83416251Y-91556939D01*
X83455691Y-91550500D01*
X83644644Y-91550500D01*
X83644646Y-91550500D01*
X83829803Y-91511144D01*
X84002730Y-91434151D01*
X84155871Y-91322888D01*
X84282533Y-91182216D01*
X84377179Y-91018284D01*
X84435674Y-90838256D01*
X84455460Y-90650000D01*
X84435674Y-90461744D01*
X84377179Y-90281716D01*
X84282533Y-90117784D01*
X84155871Y-89977112D01*
X84155870Y-89977111D01*
X84002734Y-89865851D01*
X84002729Y-89865848D01*
X83829807Y-89788857D01*
X83829802Y-89788855D01*
X83684000Y-89757865D01*
X83644646Y-89749500D01*
X83455354Y-89749500D01*
X83422897Y-89756398D01*
X83270197Y-89788855D01*
X83270192Y-89788857D01*
X83097270Y-89865848D01*
X83097265Y-89865851D01*
X82944130Y-89977110D01*
X82944126Y-89977114D01*
X82938400Y-89983474D01*
X82878913Y-90020121D01*
X82846252Y-90024500D01*
X82649500Y-90024500D01*
X82582461Y-90004815D01*
X82536706Y-89952011D01*
X82525500Y-89900500D01*
X82525500Y-89012781D01*
X82545185Y-88945742D01*
X82597989Y-88899987D01*
X82662756Y-88889492D01*
X82672127Y-88890500D01*
X83667872Y-88890499D01*
X83727483Y-88884091D01*
X83761664Y-88871341D01*
X83831356Y-88866356D01*
X83848332Y-88871341D01*
X83882517Y-88884091D01*
X83882516Y-88884091D01*
X83885679Y-88884431D01*
X83942127Y-88890500D01*
X84937872Y-88890499D01*
X84997483Y-88884091D01*
X85031664Y-88871341D01*
X85101356Y-88866356D01*
X85118332Y-88871341D01*
X85152517Y-88884091D01*
X85152516Y-88884091D01*
X85155679Y-88884431D01*
X85212127Y-88890500D01*
X86207872Y-88890499D01*
X86267483Y-88884091D01*
X86301667Y-88871340D01*
X86371358Y-88866357D01*
X86388327Y-88871338D01*
X86422517Y-88884091D01*
X86482127Y-88890500D01*
X87477872Y-88890499D01*
X87537483Y-88884091D01*
X87571667Y-88871340D01*
X87641358Y-88866357D01*
X87658327Y-88871338D01*
X87692517Y-88884091D01*
X87752127Y-88890500D01*
X88747872Y-88890499D01*
X88807483Y-88884091D01*
X88841667Y-88871340D01*
X88911358Y-88866357D01*
X88928327Y-88871338D01*
X88962517Y-88884091D01*
X89022127Y-88890500D01*
X90017872Y-88890499D01*
X90077483Y-88884091D01*
X90111667Y-88871340D01*
X90181358Y-88866357D01*
X90198327Y-88871338D01*
X90232517Y-88884091D01*
X90292127Y-88890500D01*
X91287872Y-88890499D01*
X91347483Y-88884091D01*
X91382381Y-88871074D01*
X91452069Y-88866089D01*
X91469050Y-88871075D01*
X91502623Y-88883598D01*
X91562155Y-88889999D01*
X91562172Y-88890000D01*
X91810000Y-88890000D01*
X91810000Y-87514000D01*
X91829685Y-87446961D01*
X91882489Y-87401206D01*
X91934000Y-87390000D01*
X92969268Y-87390000D01*
X93036307Y-87409685D01*
G37*
G04 #@! TD.AperFunction*
G04 #@! TA.AperFunction,Conductor*
G36*
X97430703Y-93001094D02*
G01*
X97437181Y-93007126D01*
X98738681Y-94308626D01*
X98772166Y-94369949D01*
X98775000Y-94396307D01*
X98775000Y-95550000D01*
X99687499Y-95550000D01*
X99690328Y-95547170D01*
X99707184Y-95489767D01*
X99759988Y-95444012D01*
X99829146Y-95434068D01*
X99892702Y-95463093D01*
X99899180Y-95469125D01*
X100329564Y-95899509D01*
X100339640Y-95912086D01*
X100339827Y-95911932D01*
X100344795Y-95917937D01*
X100397260Y-95967205D01*
X100418960Y-95988906D01*
X100424751Y-95993398D01*
X100429194Y-95997193D01*
X100447884Y-96014744D01*
X100483279Y-96074985D01*
X100487000Y-96105136D01*
X100487000Y-96500001D01*
X100487001Y-96500019D01*
X100497500Y-96602796D01*
X100497501Y-96602799D01*
X100537013Y-96722037D01*
X100552686Y-96769334D01*
X100644788Y-96918656D01*
X100768844Y-97042712D01*
X100918166Y-97134814D01*
X101084703Y-97189999D01*
X101187491Y-97200500D01*
X102112508Y-97200499D01*
X102112516Y-97200498D01*
X102112519Y-97200498D01*
X102173760Y-97194242D01*
X102215297Y-97189999D01*
X102381834Y-97134814D01*
X102531156Y-97042712D01*
X102649819Y-96924048D01*
X102711142Y-96890564D01*
X102780834Y-96895548D01*
X102825181Y-96924049D01*
X102918844Y-97017712D01*
X103068166Y-97109814D01*
X103234703Y-97164999D01*
X103337491Y-97175500D01*
X104237508Y-97175499D01*
X104237516Y-97175498D01*
X104237519Y-97175498D01*
X104312896Y-97167798D01*
X104340297Y-97164999D01*
X104506834Y-97109814D01*
X104656156Y-97017712D01*
X104762821Y-96911046D01*
X104824140Y-96877564D01*
X104893832Y-96882548D01*
X104949766Y-96924419D01*
X104974183Y-96989883D01*
X104974499Y-96998730D01*
X104974499Y-98548389D01*
X104972776Y-98564006D01*
X104973060Y-98564033D01*
X104972326Y-98571792D01*
X104974085Y-98627733D01*
X104956516Y-98695358D01*
X104905175Y-98742749D01*
X104850146Y-98755628D01*
X101295150Y-98755628D01*
X101228111Y-98735943D01*
X101182356Y-98683139D01*
X101181595Y-98681439D01*
X101174175Y-98664524D01*
X101038166Y-98456345D01*
X100960213Y-98371666D01*
X100869744Y-98273390D01*
X100673509Y-98120654D01*
X100673507Y-98120653D01*
X100673506Y-98120652D01*
X100454811Y-98002300D01*
X100454802Y-98002297D01*
X100219616Y-97921557D01*
X99974335Y-97880628D01*
X99725665Y-97880628D01*
X99480383Y-97921557D01*
X99245197Y-98002297D01*
X99245188Y-98002300D01*
X99026493Y-98120652D01*
X98886638Y-98229506D01*
X98821644Y-98255148D01*
X98753104Y-98241581D01*
X98722795Y-98219333D01*
X98050713Y-97547251D01*
X97909068Y-97405605D01*
X97875584Y-97344284D01*
X97880568Y-97274592D01*
X97922440Y-97218659D01*
X97987904Y-97194242D01*
X98009353Y-97194568D01*
X98062520Y-97199999D01*
X98274998Y-97199999D01*
X98274999Y-97199998D01*
X98275000Y-96050000D01*
X98775000Y-96050000D01*
X98775000Y-97199999D01*
X98987472Y-97199999D01*
X98987486Y-97199998D01*
X99090197Y-97189505D01*
X99256619Y-97134358D01*
X99256624Y-97134356D01*
X99405845Y-97042315D01*
X99529815Y-96918345D01*
X99621856Y-96769124D01*
X99621858Y-96769119D01*
X99677005Y-96602697D01*
X99677006Y-96602690D01*
X99687499Y-96499986D01*
X99687500Y-96499973D01*
X99687500Y-96050000D01*
X98775000Y-96050000D01*
X98275000Y-96050000D01*
X98274999Y-94400000D01*
X98062529Y-94400000D01*
X98062512Y-94400001D01*
X97959802Y-94410494D01*
X97793380Y-94465641D01*
X97793375Y-94465643D01*
X97644154Y-94557684D01*
X97520183Y-94681655D01*
X97520180Y-94681659D01*
X97455038Y-94787271D01*
X97403090Y-94833996D01*
X97334128Y-94845217D01*
X97270046Y-94817374D01*
X97231190Y-94759305D01*
X97225500Y-94722174D01*
X97225500Y-93094807D01*
X97245185Y-93027768D01*
X97297989Y-92982013D01*
X97367147Y-92972069D01*
X97430703Y-93001094D01*
G37*
G04 #@! TD.AperFunction*
G04 #@! TA.AperFunction,Conductor*
G36*
X98255703Y-90426098D02*
G01*
X98266649Y-90436838D01*
X98333248Y-90510803D01*
X98344129Y-90522888D01*
X98497265Y-90634148D01*
X98497270Y-90634151D01*
X98670192Y-90711142D01*
X98670197Y-90711144D01*
X98855354Y-90750500D01*
X98855355Y-90750500D01*
X98958965Y-90750500D01*
X99026004Y-90770185D01*
X99071759Y-90822989D01*
X99081703Y-90892147D01*
X99052678Y-90955703D01*
X99035125Y-90972355D01*
X99029942Y-90976388D01*
X99029942Y-90976390D01*
X99606833Y-91553280D01*
X99640318Y-91614603D01*
X99635334Y-91684294D01*
X99597408Y-91737148D01*
X99494262Y-91821064D01*
X99494258Y-91821069D01*
X99443947Y-91892343D01*
X99389204Y-91935760D01*
X99319679Y-91942689D01*
X99257444Y-91910930D01*
X99254962Y-91908515D01*
X98676564Y-91330116D01*
X98576267Y-91483632D01*
X98476411Y-91711284D01*
X98476408Y-91711292D01*
X98429924Y-91894852D01*
X98394385Y-91955007D01*
X98331964Y-91986399D01*
X98262481Y-91979061D01*
X98222038Y-91952092D01*
X98086819Y-91816873D01*
X98053334Y-91755550D01*
X98050500Y-91729192D01*
X98050500Y-90519811D01*
X98070185Y-90452772D01*
X98122989Y-90407017D01*
X98192147Y-90397073D01*
X98255703Y-90426098D01*
G37*
G04 #@! TD.AperFunction*
G04 #@! TA.AperFunction,Conductor*
G36*
X80696231Y-83070185D02*
G01*
X80716873Y-83086819D01*
X81033557Y-83403503D01*
X81067042Y-83464826D01*
X81062058Y-83534518D01*
X81020186Y-83590451D01*
X81010974Y-83596722D01*
X80993844Y-83607287D01*
X80869789Y-83731342D01*
X80777687Y-83880663D01*
X80777685Y-83880668D01*
X80749849Y-83964670D01*
X80722501Y-84047203D01*
X80722501Y-84047204D01*
X80722500Y-84047204D01*
X80712000Y-84149983D01*
X80712000Y-84149996D01*
X80712001Y-85325500D01*
X80692316Y-85392539D01*
X80639513Y-85438294D01*
X80588001Y-85449500D01*
X80447737Y-85449500D01*
X80432120Y-85447776D01*
X80432093Y-85448062D01*
X80424331Y-85447327D01*
X80355203Y-85449500D01*
X80325650Y-85449500D01*
X80324929Y-85449590D01*
X80318757Y-85450369D01*
X80312945Y-85450826D01*
X80266372Y-85452290D01*
X80266369Y-85452291D01*
X80247126Y-85457881D01*
X80228083Y-85461825D01*
X80208204Y-85464336D01*
X80208203Y-85464337D01*
X80164878Y-85481490D01*
X80159352Y-85483382D01*
X80114608Y-85496383D01*
X80114606Y-85496384D01*
X80099616Y-85505249D01*
X80031892Y-85522428D01*
X79965630Y-85500266D01*
X79921869Y-85445798D01*
X79912500Y-85398514D01*
X79912500Y-85100000D01*
X79000000Y-85100000D01*
X79000000Y-86249999D01*
X79006046Y-86249999D01*
X79073085Y-86269684D01*
X79118840Y-86322488D01*
X79128784Y-86391646D01*
X79099759Y-86455202D01*
X79093727Y-86461680D01*
X77652227Y-87903181D01*
X77590904Y-87936666D01*
X77564546Y-87939500D01*
X76974500Y-87939500D01*
X76907461Y-87919815D01*
X76861706Y-87867011D01*
X76850500Y-87815500D01*
X76850500Y-85100000D01*
X77587501Y-85100000D01*
X77587501Y-85549986D01*
X77597994Y-85652697D01*
X77653141Y-85819119D01*
X77653143Y-85819124D01*
X77745184Y-85968345D01*
X77869154Y-86092315D01*
X78018375Y-86184356D01*
X78018380Y-86184358D01*
X78184802Y-86239505D01*
X78184809Y-86239506D01*
X78287519Y-86249999D01*
X78499999Y-86249999D01*
X78500000Y-86249998D01*
X78500000Y-85100000D01*
X77587501Y-85100000D01*
X76850500Y-85100000D01*
X76850500Y-84600000D01*
X77587500Y-84600000D01*
X78500000Y-84600000D01*
X78500000Y-83450000D01*
X79000000Y-83450000D01*
X79000000Y-84600000D01*
X79912499Y-84600000D01*
X79912499Y-84150028D01*
X79912498Y-84150013D01*
X79902005Y-84047302D01*
X79846858Y-83880880D01*
X79846856Y-83880875D01*
X79754815Y-83731654D01*
X79630845Y-83607684D01*
X79481624Y-83515643D01*
X79481619Y-83515641D01*
X79315197Y-83460494D01*
X79315190Y-83460493D01*
X79212486Y-83450000D01*
X79000000Y-83450000D01*
X78500000Y-83450000D01*
X78287529Y-83450000D01*
X78287512Y-83450001D01*
X78184802Y-83460494D01*
X78018380Y-83515641D01*
X78018375Y-83515643D01*
X77869154Y-83607684D01*
X77745184Y-83731654D01*
X77653143Y-83880875D01*
X77653141Y-83880880D01*
X77597994Y-84047302D01*
X77597993Y-84047309D01*
X77587500Y-84150013D01*
X77587500Y-84600000D01*
X76850500Y-84600000D01*
X76850500Y-83720808D01*
X76870185Y-83653769D01*
X76886819Y-83633127D01*
X77433127Y-83086819D01*
X77494450Y-83053334D01*
X77520808Y-83050500D01*
X80629192Y-83050500D01*
X80696231Y-83070185D01*
G37*
G04 #@! TD.AperFunction*
G04 #@! TA.AperFunction,Conductor*
G36*
X97046231Y-83020185D02*
G01*
X97066873Y-83036819D01*
X97428788Y-83398734D01*
X97462273Y-83460057D01*
X97457289Y-83529749D01*
X97415417Y-83585682D01*
X97406206Y-83591953D01*
X97381342Y-83607289D01*
X97257289Y-83731342D01*
X97165187Y-83880663D01*
X97165185Y-83880668D01*
X97137349Y-83964670D01*
X97110001Y-84047203D01*
X97110001Y-84047204D01*
X97110000Y-84047204D01*
X97099500Y-84149983D01*
X97099500Y-85041691D01*
X97079815Y-85108730D01*
X97063185Y-85129367D01*
X97000482Y-85192070D01*
X97000483Y-85192070D01*
X96987911Y-85202143D01*
X96988065Y-85202330D01*
X96982059Y-85207298D01*
X96957434Y-85233521D01*
X96932809Y-85259744D01*
X96921949Y-85270604D01*
X96911088Y-85281465D01*
X96911078Y-85281477D01*
X96906587Y-85287265D01*
X96902801Y-85291697D01*
X96869552Y-85327106D01*
X96859322Y-85345713D01*
X96848646Y-85361964D01*
X96835640Y-85378732D01*
X96835636Y-85378738D01*
X96816348Y-85423311D01*
X96813777Y-85428558D01*
X96790372Y-85471130D01*
X96790372Y-85471131D01*
X96785091Y-85491699D01*
X96778791Y-85510101D01*
X96770364Y-85529573D01*
X96762766Y-85577547D01*
X96761581Y-85583270D01*
X96749500Y-85630318D01*
X96749500Y-85651544D01*
X96747973Y-85670944D01*
X96744653Y-85691903D01*
X96749225Y-85740267D01*
X96749500Y-85746106D01*
X96749500Y-87455547D01*
X96729815Y-87522586D01*
X96677011Y-87568341D01*
X96607853Y-87578285D01*
X96544297Y-87549260D01*
X96537819Y-87543228D01*
X95456271Y-86461680D01*
X95422786Y-86400357D01*
X95427770Y-86330665D01*
X95469642Y-86274732D01*
X95535106Y-86250315D01*
X95543952Y-86249999D01*
X95599972Y-86249999D01*
X95599986Y-86249998D01*
X95702697Y-86239505D01*
X95869119Y-86184358D01*
X95869124Y-86184356D01*
X96018345Y-86092315D01*
X96142315Y-85968345D01*
X96234356Y-85819124D01*
X96234358Y-85819119D01*
X96289505Y-85652697D01*
X96289506Y-85652690D01*
X96299999Y-85549986D01*
X96300000Y-85549973D01*
X96300000Y-85100000D01*
X95011500Y-85100000D01*
X94944461Y-85080315D01*
X94898706Y-85027511D01*
X94887500Y-84976000D01*
X94887499Y-83450000D01*
X95387500Y-83450000D01*
X95387500Y-84600000D01*
X96299999Y-84600000D01*
X96299999Y-84150028D01*
X96299998Y-84150013D01*
X96289505Y-84047302D01*
X96234358Y-83880880D01*
X96234356Y-83880875D01*
X96142315Y-83731654D01*
X96018345Y-83607684D01*
X95869124Y-83515643D01*
X95869119Y-83515641D01*
X95702697Y-83460494D01*
X95702690Y-83460493D01*
X95599986Y-83450000D01*
X95387500Y-83450000D01*
X94887499Y-83450000D01*
X94675029Y-83450000D01*
X94675012Y-83450001D01*
X94572302Y-83460494D01*
X94405880Y-83515641D01*
X94405875Y-83515643D01*
X94256654Y-83607684D01*
X94132683Y-83731655D01*
X94132680Y-83731659D01*
X94049038Y-83867264D01*
X93997090Y-83913989D01*
X93928128Y-83925210D01*
X93864046Y-83897367D01*
X93825794Y-83841170D01*
X93822314Y-83830666D01*
X93730212Y-83681344D01*
X93606156Y-83557288D01*
X93606155Y-83557287D01*
X93527176Y-83508573D01*
X93480451Y-83456625D01*
X93469228Y-83387663D01*
X93497072Y-83323580D01*
X93504566Y-83315378D01*
X93783129Y-83036816D01*
X93844450Y-83003334D01*
X93870808Y-83000500D01*
X96979192Y-83000500D01*
X97046231Y-83020185D01*
G37*
G04 #@! TD.AperFunction*
G04 #@! TA.AperFunction,Conductor*
G36*
X91396231Y-83020185D02*
G01*
X91416873Y-83036819D01*
X91802911Y-83422857D01*
X91836396Y-83484180D01*
X91831412Y-83553872D01*
X91802912Y-83598218D01*
X91719789Y-83681342D01*
X91627687Y-83830663D01*
X91627685Y-83830668D01*
X91611117Y-83880668D01*
X91572501Y-83997203D01*
X91572501Y-83997204D01*
X91572500Y-83997204D01*
X91562000Y-84099983D01*
X91562000Y-84099996D01*
X91562001Y-85325500D01*
X91542316Y-85392539D01*
X91489513Y-85438294D01*
X91438001Y-85449500D01*
X90886500Y-85449500D01*
X90819461Y-85429815D01*
X90773706Y-85377011D01*
X90762500Y-85325500D01*
X90762500Y-85050000D01*
X86212501Y-85050000D01*
X86212501Y-85325500D01*
X86192816Y-85392539D01*
X86140012Y-85438294D01*
X86088501Y-85449500D01*
X85537000Y-85449500D01*
X85469961Y-85429815D01*
X85424206Y-85377011D01*
X85413000Y-85325500D01*
X85412999Y-84550000D01*
X86212500Y-84550000D01*
X87125000Y-84550000D01*
X87125000Y-83400000D01*
X87625000Y-83400000D01*
X87625000Y-84550000D01*
X89350000Y-84550000D01*
X89350000Y-83400000D01*
X89850000Y-83400000D01*
X89850000Y-84550000D01*
X90762499Y-84550000D01*
X90762499Y-84100028D01*
X90762498Y-84100013D01*
X90752005Y-83997302D01*
X90696858Y-83830880D01*
X90696856Y-83830875D01*
X90604815Y-83681654D01*
X90480845Y-83557684D01*
X90331624Y-83465643D01*
X90331619Y-83465641D01*
X90165197Y-83410494D01*
X90165190Y-83410493D01*
X90062486Y-83400000D01*
X89850000Y-83400000D01*
X89350000Y-83400000D01*
X89137529Y-83400000D01*
X89137512Y-83400001D01*
X89034802Y-83410494D01*
X88868380Y-83465641D01*
X88868375Y-83465643D01*
X88719154Y-83557684D01*
X88595183Y-83681655D01*
X88595181Y-83681658D01*
X88593036Y-83685136D01*
X88590942Y-83687018D01*
X88590702Y-83687323D01*
X88590650Y-83687281D01*
X88541087Y-83731858D01*
X88472124Y-83743078D01*
X88408043Y-83715232D01*
X88381964Y-83685136D01*
X88379818Y-83681658D01*
X88379816Y-83681655D01*
X88255845Y-83557684D01*
X88106624Y-83465643D01*
X88106619Y-83465641D01*
X87940197Y-83410494D01*
X87940190Y-83410493D01*
X87837486Y-83400000D01*
X87625000Y-83400000D01*
X87125000Y-83400000D01*
X86912529Y-83400000D01*
X86912512Y-83400001D01*
X86809802Y-83410494D01*
X86643380Y-83465641D01*
X86643375Y-83465643D01*
X86494154Y-83557684D01*
X86370184Y-83681654D01*
X86278143Y-83830875D01*
X86278141Y-83830880D01*
X86222994Y-83997302D01*
X86222993Y-83997309D01*
X86212500Y-84100013D01*
X86212500Y-84550000D01*
X85412999Y-84550000D01*
X85412999Y-84099998D01*
X85412998Y-84099981D01*
X85402499Y-83997203D01*
X85402498Y-83997200D01*
X85375620Y-83916088D01*
X85347314Y-83830666D01*
X85255212Y-83681344D01*
X85134587Y-83560718D01*
X85101102Y-83499396D01*
X85106086Y-83429704D01*
X85134584Y-83385360D01*
X85483126Y-83036819D01*
X85544450Y-83003334D01*
X85570808Y-83000500D01*
X91329192Y-83000500D01*
X91396231Y-83020185D01*
G37*
G04 #@! TD.AperFunction*
G04 #@! TA.AperFunction,Conductor*
G36*
X106531593Y-75000737D02*
G01*
X106686958Y-75014388D01*
X106892094Y-75033062D01*
X106897737Y-75033840D01*
X107075076Y-75066719D01*
X107258423Y-75102529D01*
X107263576Y-75103769D01*
X107440314Y-75154402D01*
X107616061Y-75207798D01*
X107620702Y-75209412D01*
X107793167Y-75277238D01*
X107873175Y-75310785D01*
X107961543Y-75347837D01*
X107965669Y-75349747D01*
X108042312Y-75388717D01*
X108131633Y-75434132D01*
X108291492Y-75521275D01*
X108295066Y-75523380D01*
X108452717Y-75623559D01*
X108602728Y-75726442D01*
X108605715Y-75728626D01*
X108753416Y-75843675D01*
X108892177Y-75961320D01*
X108894658Y-75963542D01*
X109029782Y-76091316D01*
X109031887Y-76093405D01*
X109157017Y-76223615D01*
X109159020Y-76225802D01*
X109167739Y-76235790D01*
X109281325Y-76365909D01*
X109283451Y-76368483D01*
X109395482Y-76511816D01*
X109504525Y-76663922D01*
X109506620Y-76667041D01*
X109603461Y-76821037D01*
X109697261Y-76982499D01*
X109699226Y-76986158D01*
X109779963Y-77149401D01*
X109857662Y-77318554D01*
X109859408Y-77322754D01*
X109923267Y-77493843D01*
X109984162Y-77668824D01*
X109985600Y-77673555D01*
X110031976Y-77851341D01*
X110075516Y-78029868D01*
X110076557Y-78035105D01*
X110105046Y-78219723D01*
X110130840Y-78398208D01*
X110131397Y-78403916D01*
X110141757Y-78606720D01*
X110149429Y-78766968D01*
X110149500Y-78769904D01*
X110170083Y-122420975D01*
X110170008Y-122424047D01*
X110162935Y-122568020D01*
X110151799Y-122779839D01*
X110151213Y-122785684D01*
X110126582Y-122951734D01*
X110096618Y-123140917D01*
X110095523Y-123146285D01*
X110053182Y-123315320D01*
X110005164Y-123494520D01*
X110003652Y-123499363D01*
X109944022Y-123666016D01*
X109878389Y-123836996D01*
X109876554Y-123841287D01*
X109800209Y-124002706D01*
X109717581Y-124164873D01*
X109715517Y-124168601D01*
X109623226Y-124322582D01*
X109524389Y-124474778D01*
X109522190Y-124477944D01*
X109414873Y-124622647D01*
X109300789Y-124763530D01*
X109298545Y-124766149D01*
X109178318Y-124898801D01*
X109176219Y-124901005D01*
X109049047Y-125028180D01*
X109046843Y-125030278D01*
X108914194Y-125150506D01*
X108911575Y-125152751D01*
X108770690Y-125266840D01*
X108625992Y-125374156D01*
X108622827Y-125376355D01*
X108470631Y-125475196D01*
X108316647Y-125567491D01*
X108312920Y-125569555D01*
X108150761Y-125652182D01*
X107989346Y-125728528D01*
X107985056Y-125730363D01*
X107814077Y-125796000D01*
X107647409Y-125855637D01*
X107642566Y-125857150D01*
X107463353Y-125905173D01*
X107294356Y-125947508D01*
X107288987Y-125948603D01*
X107099793Y-125978573D01*
X106933769Y-126003202D01*
X106927914Y-126003789D01*
X106705158Y-126015469D01*
X106621543Y-126019578D01*
X106573298Y-126021950D01*
X106570238Y-126022024D01*
X73036770Y-126003314D01*
X66201895Y-125999501D01*
X66198115Y-125999383D01*
X66044983Y-125989946D01*
X65852113Y-125977437D01*
X65846311Y-125976785D01*
X65675157Y-125949355D01*
X65500112Y-125919550D01*
X65494800Y-125918404D01*
X65324288Y-125873721D01*
X65155750Y-125826619D01*
X65150964Y-125825069D01*
X64984344Y-125763557D01*
X64822485Y-125699587D01*
X64818247Y-125697726D01*
X64657712Y-125619975D01*
X64618077Y-125599329D01*
X64503689Y-125539742D01*
X64500009Y-125537663D01*
X64347337Y-125444395D01*
X64202573Y-125348698D01*
X64199450Y-125346493D01*
X64056278Y-125238606D01*
X63922161Y-125128371D01*
X63919579Y-125126127D01*
X63788486Y-125005669D01*
X63786314Y-125003573D01*
X63682879Y-124898801D01*
X63665300Y-124880995D01*
X63663244Y-124878807D01*
X63544477Y-124746169D01*
X63542266Y-124743559D01*
X63445464Y-124622647D01*
X63433780Y-124608053D01*
X63394605Y-124554651D01*
X63327730Y-124463490D01*
X63325584Y-124460367D01*
X63231745Y-124314365D01*
X63140446Y-124160503D01*
X63138414Y-124156797D01*
X63060179Y-124001778D01*
X63023531Y-123923563D01*
X62984483Y-123840224D01*
X62982678Y-123835964D01*
X62920801Y-123673312D01*
X62861432Y-123505906D01*
X62859944Y-123501099D01*
X62859483Y-123499363D01*
X62815022Y-123332000D01*
X62772524Y-123160884D01*
X62771453Y-123155593D01*
X62743889Y-122980098D01*
X62718670Y-122808664D01*
X62718093Y-122802856D01*
X62708167Y-122611933D01*
X62700567Y-122455940D01*
X62700495Y-122452998D01*
X62700478Y-122422525D01*
X62695556Y-113778027D01*
X63294710Y-113778027D01*
X63299263Y-113830063D01*
X63299499Y-113835462D01*
X63299499Y-113843703D01*
X63303306Y-113876275D01*
X63310000Y-113952791D01*
X63311461Y-113959867D01*
X63311403Y-113959878D01*
X63313034Y-113967237D01*
X63313092Y-113967224D01*
X63314757Y-113974250D01*
X63341025Y-114046424D01*
X63365185Y-114119331D01*
X63368236Y-114125874D01*
X63368182Y-114125898D01*
X63371470Y-114132688D01*
X63371521Y-114132663D01*
X63374761Y-114139113D01*
X63374762Y-114139114D01*
X63374763Y-114139117D01*
X63388306Y-114159708D01*
X63416965Y-114203283D01*
X63457287Y-114268655D01*
X63461766Y-114274319D01*
X63461719Y-114274356D01*
X63466482Y-114280202D01*
X63466528Y-114280164D01*
X63471173Y-114285700D01*
X63527017Y-114338385D01*
X66724270Y-117535638D01*
X66736051Y-117549270D01*
X66750388Y-117568528D01*
X66790409Y-117602111D01*
X66794397Y-117605766D01*
X66800216Y-117611585D01*
X66800220Y-117611588D01*
X66800223Y-117611591D01*
X66825959Y-117631940D01*
X66884786Y-117681302D01*
X66884787Y-117681302D01*
X66884789Y-117681304D01*
X66890818Y-117685270D01*
X66890785Y-117685319D01*
X66897147Y-117689372D01*
X66897179Y-117689321D01*
X66903319Y-117693108D01*
X66903323Y-117693111D01*
X66938132Y-117709342D01*
X66972941Y-117725575D01*
X67007199Y-117742779D01*
X67031150Y-117754808D01*
X67082225Y-117802486D01*
X67099500Y-117865618D01*
X67099500Y-117972869D01*
X67099501Y-117972876D01*
X67105908Y-118032483D01*
X67156202Y-118167328D01*
X67156206Y-118167335D01*
X67242452Y-118282544D01*
X67242455Y-118282547D01*
X67357664Y-118368793D01*
X67357671Y-118368797D01*
X67402618Y-118385560D01*
X67492517Y-118419091D01*
X67552127Y-118425500D01*
X67602228Y-118425499D01*
X67669266Y-118445182D01*
X67715021Y-118497985D01*
X67724966Y-118567144D01*
X67723690Y-118575857D01*
X67719710Y-118603027D01*
X67735000Y-118777795D01*
X67735001Y-118777797D01*
X67790186Y-118944334D01*
X67881843Y-119092935D01*
X67882289Y-119093657D01*
X68028729Y-119240097D01*
X68062214Y-119301420D01*
X68057230Y-119371112D01*
X68015358Y-119427045D01*
X67949894Y-119451462D01*
X67893595Y-119442339D01*
X67721638Y-119371112D01*
X67608724Y-119324341D01*
X67608720Y-119324339D01*
X67608718Y-119324339D01*
X67263305Y-119224828D01*
X67263296Y-119224826D01*
X66908914Y-119164614D01*
X66908902Y-119164612D01*
X66575994Y-119145916D01*
X66550000Y-119144457D01*
X66549999Y-119144457D01*
X66191097Y-119164612D01*
X66191085Y-119164614D01*
X65836703Y-119224826D01*
X65836694Y-119224828D01*
X65491281Y-119324339D01*
X65159168Y-119461905D01*
X64844545Y-119635790D01*
X64551377Y-119843805D01*
X64283339Y-120083339D01*
X64043805Y-120351377D01*
X63835790Y-120644545D01*
X63661905Y-120959168D01*
X63524339Y-121291281D01*
X63424828Y-121636694D01*
X63424826Y-121636703D01*
X63364614Y-121991085D01*
X63364612Y-121991097D01*
X63344457Y-122350000D01*
X63364612Y-122708902D01*
X63364614Y-122708914D01*
X63424826Y-123063296D01*
X63424828Y-123063305D01*
X63524339Y-123408718D01*
X63524341Y-123408724D01*
X63607274Y-123608940D01*
X63661905Y-123740831D01*
X63835790Y-124055454D01*
X64025329Y-124322582D01*
X64043806Y-124348623D01*
X64283339Y-124616661D01*
X64551377Y-124856194D01*
X64844548Y-125064211D01*
X65159167Y-125238094D01*
X65491276Y-125375659D01*
X65836700Y-125475173D01*
X66191093Y-125535387D01*
X66550000Y-125555543D01*
X66908907Y-125535387D01*
X67263300Y-125475173D01*
X67608724Y-125375659D01*
X67940833Y-125238094D01*
X68255452Y-125064211D01*
X68548623Y-124856194D01*
X68816661Y-124616661D01*
X69056194Y-124348623D01*
X69264211Y-124055452D01*
X69438094Y-123740833D01*
X69575659Y-123408724D01*
X69675173Y-123063300D01*
X69735387Y-122708907D01*
X69755543Y-122350000D01*
X69735387Y-121991093D01*
X69675173Y-121636700D01*
X69614184Y-121425000D01*
X76304540Y-121425000D01*
X76324326Y-121613256D01*
X76324327Y-121613259D01*
X76382818Y-121793277D01*
X76382821Y-121793284D01*
X76477467Y-121957216D01*
X76507974Y-121991097D01*
X76604129Y-122097888D01*
X76757265Y-122209148D01*
X76757270Y-122209151D01*
X76930192Y-122286142D01*
X76930197Y-122286144D01*
X77115354Y-122325500D01*
X77115355Y-122325500D01*
X77304644Y-122325500D01*
X77304646Y-122325500D01*
X77489803Y-122286144D01*
X77662730Y-122209151D01*
X77815871Y-122097888D01*
X77942533Y-121957216D01*
X78037179Y-121793284D01*
X78095674Y-121613256D01*
X78113321Y-121445344D01*
X78139904Y-121380734D01*
X78148951Y-121370638D01*
X78843788Y-120675801D01*
X78856042Y-120665986D01*
X78855859Y-120665764D01*
X78861866Y-120660792D01*
X78861877Y-120660786D01*
X78892775Y-120627882D01*
X78909227Y-120610364D01*
X78919671Y-120599918D01*
X78930120Y-120589471D01*
X78934379Y-120583978D01*
X78938152Y-120579561D01*
X78970062Y-120545582D01*
X78979715Y-120528020D01*
X78990389Y-120511770D01*
X79002673Y-120495936D01*
X79021180Y-120453167D01*
X79023749Y-120447924D01*
X79046196Y-120407093D01*
X79046197Y-120407092D01*
X79051177Y-120387691D01*
X79057478Y-120369288D01*
X79065438Y-120350896D01*
X79072730Y-120304849D01*
X79073911Y-120299152D01*
X79085500Y-120254019D01*
X79085500Y-120233982D01*
X79087027Y-120214582D01*
X79090160Y-120194804D01*
X79085775Y-120148415D01*
X79085500Y-120142577D01*
X79085500Y-118024499D01*
X79105185Y-117957460D01*
X79157989Y-117911705D01*
X79209500Y-117900499D01*
X79357871Y-117900499D01*
X79357872Y-117900499D01*
X79417483Y-117894091D01*
X79552331Y-117843796D01*
X79667546Y-117757546D01*
X79753796Y-117642331D01*
X79802810Y-117510916D01*
X79844681Y-117454984D01*
X79910145Y-117430566D01*
X79978418Y-117445417D01*
X80006673Y-117466569D01*
X80128597Y-117588493D01*
X80128603Y-117588498D01*
X80161036Y-117611208D01*
X80321624Y-117723653D01*
X80365248Y-117778228D01*
X80374500Y-117825226D01*
X80374500Y-120464104D01*
X80354815Y-120531143D01*
X80302011Y-120576898D01*
X80300937Y-120577383D01*
X80157267Y-120641350D01*
X80157265Y-120641351D01*
X80004129Y-120752611D01*
X79877466Y-120893285D01*
X79782821Y-121057215D01*
X79782818Y-121057222D01*
X79724488Y-121236744D01*
X79724326Y-121237244D01*
X79704540Y-121425500D01*
X79724326Y-121613756D01*
X79724327Y-121613759D01*
X79782818Y-121793777D01*
X79782821Y-121793784D01*
X79877467Y-121957716D01*
X80003679Y-122097888D01*
X80004129Y-122098388D01*
X80157265Y-122209648D01*
X80157270Y-122209651D01*
X80330192Y-122286642D01*
X80330197Y-122286644D01*
X80515354Y-122326000D01*
X80515355Y-122326000D01*
X80704644Y-122326000D01*
X80704646Y-122326000D01*
X80889803Y-122286644D01*
X81043733Y-122218109D01*
X103144457Y-122218109D01*
X103164612Y-122577011D01*
X103164614Y-122577023D01*
X103224826Y-122931405D01*
X103224828Y-122931414D01*
X103324339Y-123276827D01*
X103324341Y-123276833D01*
X103403280Y-123467408D01*
X103461905Y-123608940D01*
X103635790Y-123923563D01*
X103803909Y-124160503D01*
X103843806Y-124216732D01*
X104083339Y-124484770D01*
X104330934Y-124706034D01*
X104351377Y-124724303D01*
X104597307Y-124898801D01*
X104644548Y-124932320D01*
X104959167Y-125106203D01*
X105291276Y-125243768D01*
X105636700Y-125343282D01*
X105991093Y-125403496D01*
X106350000Y-125423652D01*
X106708907Y-125403496D01*
X107063300Y-125343282D01*
X107408724Y-125243768D01*
X107740833Y-125106203D01*
X108055452Y-124932320D01*
X108348623Y-124724303D01*
X108616661Y-124484770D01*
X108856194Y-124216732D01*
X109064211Y-123923561D01*
X109238094Y-123608942D01*
X109375659Y-123276833D01*
X109475173Y-122931409D01*
X109535387Y-122577016D01*
X109555543Y-122218109D01*
X109535387Y-121859202D01*
X109475173Y-121504809D01*
X109375659Y-121159385D01*
X109238094Y-120827276D01*
X109064211Y-120512657D01*
X108856194Y-120219486D01*
X108616661Y-119951448D01*
X108348623Y-119711915D01*
X108322891Y-119693657D01*
X108055454Y-119503899D01*
X107756471Y-119338658D01*
X107740833Y-119330015D01*
X107408724Y-119192450D01*
X107408720Y-119192448D01*
X107408718Y-119192448D01*
X107063305Y-119092937D01*
X107063296Y-119092935D01*
X106708914Y-119032723D01*
X106708902Y-119032721D01*
X106350000Y-119012566D01*
X105991097Y-119032721D01*
X105991085Y-119032723D01*
X105636703Y-119092935D01*
X105636694Y-119092937D01*
X105291281Y-119192448D01*
X104959168Y-119330014D01*
X104644545Y-119503899D01*
X104351377Y-119711914D01*
X104083339Y-119951448D01*
X103843805Y-120219486D01*
X103635790Y-120512654D01*
X103461905Y-120827277D01*
X103324339Y-121159390D01*
X103224828Y-121504803D01*
X103224826Y-121504812D01*
X103164614Y-121859194D01*
X103164612Y-121859206D01*
X103144457Y-122218109D01*
X81043733Y-122218109D01*
X81062730Y-122209651D01*
X81215871Y-122098388D01*
X81342533Y-121957716D01*
X81437179Y-121793784D01*
X81495674Y-121613756D01*
X81515460Y-121425500D01*
X81515459Y-121425494D01*
X81515898Y-121421322D01*
X81539172Y-121363433D01*
X81538700Y-121363154D01*
X81540528Y-121360062D01*
X81541247Y-121358273D01*
X81542673Y-121356436D01*
X81561185Y-121313653D01*
X81563738Y-121308441D01*
X81586197Y-121267592D01*
X81591180Y-121248180D01*
X81597481Y-121229780D01*
X81605437Y-121211396D01*
X81612729Y-121165352D01*
X81613906Y-121159671D01*
X81625500Y-121114519D01*
X81625500Y-121094482D01*
X81627027Y-121075082D01*
X81630160Y-121055304D01*
X81625775Y-121008915D01*
X81625500Y-121003077D01*
X81625500Y-117825226D01*
X81645185Y-117758187D01*
X81678374Y-117723654D01*
X81871401Y-117588495D01*
X82038495Y-117421401D01*
X82174035Y-117227830D01*
X82273903Y-117013663D01*
X82335063Y-116785408D01*
X82355659Y-116550000D01*
X82335063Y-116314592D01*
X82273903Y-116086337D01*
X82174035Y-115872171D01*
X82131396Y-115811275D01*
X82038494Y-115678597D01*
X81871402Y-115511506D01*
X81871395Y-115511501D01*
X81865922Y-115507669D01*
X81826579Y-115480120D01*
X81677834Y-115375967D01*
X81677830Y-115375965D01*
X81677828Y-115375964D01*
X81463663Y-115276097D01*
X81463659Y-115276096D01*
X81463655Y-115276094D01*
X81235413Y-115214938D01*
X81235403Y-115214936D01*
X81000001Y-115194341D01*
X80999999Y-115194341D01*
X80764596Y-115214936D01*
X80764586Y-115214938D01*
X80536344Y-115276094D01*
X80536335Y-115276098D01*
X80322171Y-115375964D01*
X80322169Y-115375965D01*
X80128600Y-115511503D01*
X80006673Y-115633430D01*
X79945350Y-115666914D01*
X79875658Y-115661930D01*
X79819725Y-115620058D01*
X79802810Y-115589081D01*
X79753797Y-115457671D01*
X79753793Y-115457664D01*
X79667547Y-115342455D01*
X79667544Y-115342452D01*
X79552335Y-115256206D01*
X79552328Y-115256202D01*
X79417482Y-115205908D01*
X79417483Y-115205908D01*
X79357883Y-115199501D01*
X79357881Y-115199500D01*
X79357873Y-115199500D01*
X79357864Y-115199500D01*
X77562129Y-115199500D01*
X77562123Y-115199501D01*
X77502516Y-115205908D01*
X77367671Y-115256202D01*
X77367664Y-115256206D01*
X77252455Y-115342452D01*
X77252452Y-115342455D01*
X77166206Y-115457664D01*
X77166202Y-115457671D01*
X77115908Y-115592517D01*
X77109501Y-115652116D01*
X77109500Y-115652135D01*
X77109500Y-117447870D01*
X77109501Y-117447876D01*
X77115908Y-117507483D01*
X77166202Y-117642328D01*
X77166206Y-117642335D01*
X77252452Y-117757544D01*
X77252455Y-117757547D01*
X77367664Y-117843793D01*
X77367671Y-117843797D01*
X77412618Y-117860561D01*
X77502517Y-117894091D01*
X77562127Y-117900500D01*
X77710500Y-117900499D01*
X77777539Y-117920183D01*
X77823294Y-117972987D01*
X77834500Y-118024499D01*
X77834500Y-119864547D01*
X77814815Y-119931586D01*
X77798181Y-119952228D01*
X77262228Y-120488181D01*
X77200905Y-120521666D01*
X77174547Y-120524500D01*
X77115354Y-120524500D01*
X77098742Y-120528031D01*
X76930197Y-120563855D01*
X76930192Y-120563857D01*
X76757270Y-120640848D01*
X76757265Y-120640851D01*
X76604129Y-120752111D01*
X76477466Y-120892785D01*
X76382821Y-121056715D01*
X76382818Y-121056722D01*
X76326591Y-121229772D01*
X76324326Y-121236744D01*
X76309272Y-121379974D01*
X76304927Y-121421322D01*
X76304540Y-121425000D01*
X69614184Y-121425000D01*
X69575659Y-121291276D01*
X69438094Y-120959167D01*
X69382277Y-120858174D01*
X69367078Y-120789980D01*
X69391161Y-120724392D01*
X69446880Y-120682236D01*
X69516546Y-120676896D01*
X69546458Y-120687385D01*
X69591567Y-120710040D01*
X69591569Y-120710040D01*
X69598361Y-120712513D01*
X69598340Y-120712570D01*
X69605455Y-120715043D01*
X69605475Y-120714986D01*
X69612330Y-120717258D01*
X69687557Y-120732790D01*
X69687558Y-120732790D01*
X69762279Y-120750500D01*
X69762289Y-120750500D01*
X69769452Y-120751338D01*
X69769444Y-120751397D01*
X69776945Y-120752164D01*
X69776951Y-120752105D01*
X69784140Y-120752734D01*
X69784144Y-120752733D01*
X69784145Y-120752734D01*
X69860918Y-120750500D01*
X70212279Y-120750500D01*
X73236295Y-120750500D01*
X73254265Y-120751809D01*
X73278023Y-120755289D01*
X73330068Y-120750735D01*
X73335470Y-120750500D01*
X73343704Y-120750500D01*
X73343709Y-120750500D01*
X73355327Y-120749141D01*
X73376276Y-120746693D01*
X73389028Y-120745577D01*
X73452797Y-120739999D01*
X73452805Y-120739996D01*
X73459866Y-120738539D01*
X73459878Y-120738598D01*
X73467243Y-120736965D01*
X73467229Y-120736906D01*
X73474246Y-120735241D01*
X73474255Y-120735241D01*
X73546423Y-120708974D01*
X73619334Y-120684814D01*
X73619343Y-120684807D01*
X73625882Y-120681760D01*
X73625908Y-120681816D01*
X73632690Y-120678532D01*
X73632663Y-120678478D01*
X73639106Y-120675240D01*
X73639117Y-120675237D01*
X73703283Y-120633034D01*
X73768656Y-120592712D01*
X73768662Y-120592705D01*
X73774325Y-120588229D01*
X73774362Y-120588277D01*
X73780204Y-120583518D01*
X73780164Y-120583471D01*
X73785691Y-120578832D01*
X73785696Y-120578830D01*
X73799352Y-120564356D01*
X73838386Y-120522981D01*
X75461585Y-118899782D01*
X75461585Y-118899781D01*
X75461591Y-118899776D01*
X75543111Y-118796677D01*
X75617257Y-118637673D01*
X75629188Y-118579883D01*
X75634684Y-118560992D01*
X75660140Y-118493872D01*
X75675500Y-118367374D01*
X75675500Y-118104700D01*
X75683318Y-118061366D01*
X75694091Y-118032483D01*
X75700500Y-117972873D01*
X75700499Y-116127128D01*
X75694091Y-116067517D01*
X75643796Y-115932669D01*
X75643795Y-115932668D01*
X75643793Y-115932664D01*
X75557547Y-115817455D01*
X75557544Y-115817452D01*
X75442335Y-115731206D01*
X75442328Y-115731202D01*
X75307482Y-115680908D01*
X75307483Y-115680908D01*
X75247883Y-115674501D01*
X75247881Y-115674500D01*
X75247873Y-115674500D01*
X75247865Y-115674500D01*
X75109452Y-115674500D01*
X75042413Y-115654815D01*
X74996658Y-115602011D01*
X74986714Y-115532853D01*
X75015739Y-115469297D01*
X75021771Y-115462819D01*
X77224531Y-113260059D01*
X83887246Y-106597342D01*
X83899508Y-106587520D01*
X83899325Y-106587299D01*
X83905327Y-106582332D01*
X83905337Y-106582326D01*
X83952701Y-106531888D01*
X83973580Y-106511010D01*
X83977833Y-106505526D01*
X83981610Y-106501103D01*
X84013522Y-106467122D01*
X84023174Y-106449563D01*
X84033849Y-106433312D01*
X84046134Y-106417476D01*
X84064646Y-106374692D01*
X84067202Y-106369475D01*
X84089657Y-106328632D01*
X84094640Y-106309220D01*
X84100937Y-106290831D01*
X84108898Y-106272435D01*
X84116189Y-106226393D01*
X84117368Y-106220702D01*
X84128960Y-106175559D01*
X84128960Y-106155523D01*
X84130487Y-106136122D01*
X84133620Y-106116344D01*
X84129235Y-106069955D01*
X84128960Y-106064117D01*
X84128960Y-104798687D01*
X84148645Y-104731648D01*
X84160810Y-104715715D01*
X84186233Y-104687479D01*
X84235993Y-104632216D01*
X84330639Y-104468284D01*
X84389134Y-104288256D01*
X84408920Y-104100000D01*
X84389134Y-103911744D01*
X84369581Y-103851568D01*
X84365114Y-103837818D01*
X84363119Y-103767977D01*
X84399199Y-103708144D01*
X84461900Y-103677316D01*
X84483045Y-103675500D01*
X88962112Y-103675500D01*
X89029151Y-103695185D01*
X89074906Y-103747989D01*
X89084850Y-103817147D01*
X89080043Y-103837817D01*
X89052029Y-103924036D01*
X89052027Y-103924042D01*
X89037996Y-104057547D01*
X89032241Y-104112299D01*
X89052027Y-104300555D01*
X89052028Y-104300558D01*
X89110519Y-104480576D01*
X89110522Y-104480583D01*
X89181010Y-104602672D01*
X89182887Y-104605922D01*
X89199500Y-104667922D01*
X89199500Y-104864494D01*
X89197732Y-104880505D01*
X89197974Y-104880528D01*
X89197240Y-104888294D01*
X89199500Y-104960203D01*
X89199500Y-104990920D01*
X89199501Y-104990940D01*
X89200418Y-104998206D01*
X89200876Y-105004024D01*
X89202402Y-105052567D01*
X89202403Y-105052570D01*
X89208323Y-105072948D01*
X89212268Y-105091996D01*
X89214928Y-105113054D01*
X89214931Y-105113064D01*
X89232813Y-105158230D01*
X89234705Y-105163758D01*
X89248254Y-105210395D01*
X89248255Y-105210397D01*
X89259060Y-105228666D01*
X89267617Y-105246134D01*
X89272906Y-105259492D01*
X89275432Y-105265872D01*
X89303983Y-105305170D01*
X89307188Y-105310049D01*
X89318503Y-105329181D01*
X89327119Y-105343750D01*
X89331919Y-105351865D01*
X89331923Y-105351869D01*
X89346925Y-105366871D01*
X89359563Y-105381669D01*
X89372033Y-105398833D01*
X89372036Y-105398836D01*
X89372037Y-105398837D01*
X89409476Y-105429809D01*
X89413776Y-105433722D01*
X90593073Y-106613019D01*
X91770609Y-107790555D01*
X91804094Y-107851878D01*
X91799110Y-107921570D01*
X91757238Y-107977503D01*
X91691774Y-108001920D01*
X91686825Y-108002175D01*
X91646852Y-108003431D01*
X91646849Y-108003432D01*
X91627606Y-108009022D01*
X91608563Y-108012966D01*
X91588684Y-108015477D01*
X91588683Y-108015478D01*
X91545358Y-108032631D01*
X91539832Y-108034523D01*
X91495088Y-108047524D01*
X91495084Y-108047526D01*
X91477845Y-108057721D01*
X91460378Y-108066278D01*
X91441749Y-108073653D01*
X91441747Y-108073654D01*
X91404044Y-108101047D01*
X91399162Y-108104253D01*
X91359060Y-108127969D01*
X91344888Y-108142141D01*
X91330103Y-108154769D01*
X91313892Y-108166548D01*
X91284189Y-108202451D01*
X91280257Y-108206772D01*
X90936993Y-108550035D01*
X90924736Y-108559856D01*
X90924919Y-108560077D01*
X90918908Y-108565049D01*
X90871557Y-108615472D01*
X90850674Y-108636355D01*
X90850662Y-108636368D01*
X90846406Y-108641853D01*
X90842622Y-108646283D01*
X90810722Y-108680254D01*
X90810721Y-108680256D01*
X90801069Y-108697812D01*
X90790395Y-108714062D01*
X90778114Y-108729897D01*
X90778109Y-108729904D01*
X90759600Y-108772674D01*
X90757030Y-108777920D01*
X90734588Y-108818742D01*
X90729607Y-108838143D01*
X90723306Y-108856546D01*
X90715347Y-108874938D01*
X90715346Y-108874941D01*
X90708056Y-108920963D01*
X90706872Y-108926682D01*
X90695286Y-108971808D01*
X90695285Y-108971818D01*
X90695285Y-108991852D01*
X90693758Y-109011251D01*
X90690625Y-109031030D01*
X90690625Y-109031031D01*
X90695010Y-109077419D01*
X90695285Y-109083257D01*
X90695285Y-109927035D01*
X90675600Y-109994074D01*
X90658966Y-110014716D01*
X86436578Y-114237103D01*
X86383495Y-114268498D01*
X86373568Y-114271382D01*
X86373563Y-114271384D01*
X86356323Y-114281579D01*
X86338865Y-114290133D01*
X86320229Y-114297513D01*
X86320221Y-114297517D01*
X86282529Y-114324902D01*
X86277646Y-114328109D01*
X86237539Y-114351829D01*
X86223374Y-114365994D01*
X86208582Y-114378628D01*
X86192371Y-114390405D01*
X86162665Y-114426313D01*
X86158733Y-114430634D01*
X85866211Y-114723156D01*
X85853952Y-114732978D01*
X85854135Y-114733199D01*
X85848124Y-114738171D01*
X85816205Y-114772160D01*
X85801304Y-114785648D01*
X85721720Y-114846715D01*
X85625463Y-114972160D01*
X85603653Y-115024815D01*
X85559812Y-115079218D01*
X85493517Y-115101283D01*
X85425818Y-115084004D01*
X85401411Y-115065043D01*
X85368657Y-115032289D01*
X85368656Y-115032288D01*
X85219334Y-114940186D01*
X85052797Y-114885001D01*
X85052795Y-114885000D01*
X84950010Y-114874500D01*
X83749998Y-114874500D01*
X83749981Y-114874501D01*
X83647203Y-114885000D01*
X83647200Y-114885001D01*
X83480668Y-114940185D01*
X83480663Y-114940187D01*
X83331342Y-115032289D01*
X83207289Y-115156342D01*
X83115187Y-115305663D01*
X83115185Y-115305668D01*
X83087349Y-115389670D01*
X83060001Y-115472203D01*
X83060001Y-115472204D01*
X83060000Y-115472204D01*
X83049500Y-115574983D01*
X83049500Y-116575001D01*
X83049501Y-116575019D01*
X83060000Y-116677796D01*
X83060001Y-116677799D01*
X83076584Y-116727841D01*
X83115186Y-116844334D01*
X83207288Y-116993656D01*
X83331344Y-117117712D01*
X83480666Y-117209814D01*
X83584704Y-117244288D01*
X83642148Y-117284061D01*
X83668971Y-117348576D01*
X83656656Y-117417352D01*
X83631131Y-117451868D01*
X83525083Y-117552673D01*
X83525082Y-117552675D01*
X83414646Y-117711342D01*
X83338413Y-117888987D01*
X83299500Y-118078343D01*
X83299500Y-118923207D01*
X83314154Y-119067322D01*
X83372022Y-119251759D01*
X83372029Y-119251774D01*
X83465839Y-119420788D01*
X83465842Y-119420793D01*
X83591758Y-119567466D01*
X83591759Y-119567468D01*
X83690503Y-119643901D01*
X83744627Y-119685796D01*
X83918184Y-119770930D01*
X83918188Y-119770931D01*
X83918186Y-119770931D01*
X84105317Y-119819383D01*
X84105320Y-119819383D01*
X84105326Y-119819385D01*
X84298390Y-119829176D01*
X84489474Y-119799903D01*
X84670753Y-119732764D01*
X84834807Y-119630509D01*
X84839745Y-119625814D01*
X84901892Y-119593889D01*
X84971435Y-119600631D01*
X85026294Y-119643901D01*
X85030718Y-119650579D01*
X85057288Y-119693656D01*
X85181344Y-119817712D01*
X85330666Y-119909814D01*
X85497203Y-119964999D01*
X85599991Y-119975500D01*
X87100008Y-119975499D01*
X87202797Y-119964999D01*
X87369334Y-119909814D01*
X87484905Y-119838529D01*
X87552296Y-119820090D01*
X87615094Y-119838529D01*
X87730666Y-119909814D01*
X87897203Y-119964999D01*
X87999991Y-119975500D01*
X89500008Y-119975499D01*
X89602797Y-119964999D01*
X89769334Y-119909814D01*
X89918656Y-119817712D01*
X90042712Y-119693656D01*
X90071166Y-119647523D01*
X90123112Y-119600800D01*
X90192074Y-119589577D01*
X90252603Y-119614564D01*
X90344627Y-119685796D01*
X90518184Y-119770930D01*
X90518188Y-119770931D01*
X90518186Y-119770931D01*
X90705317Y-119819383D01*
X90705320Y-119819383D01*
X90705326Y-119819385D01*
X90898390Y-119829176D01*
X91089474Y-119799903D01*
X91270753Y-119732764D01*
X91434807Y-119630509D01*
X91574919Y-119497323D01*
X91685353Y-119338658D01*
X91761587Y-119161012D01*
X91800500Y-118971656D01*
X91800500Y-118126794D01*
X91790910Y-118032481D01*
X91785845Y-117982677D01*
X91727977Y-117798240D01*
X91727975Y-117798236D01*
X91727974Y-117798232D01*
X91634159Y-117629209D01*
X91634158Y-117629208D01*
X91634157Y-117629206D01*
X91521408Y-117497870D01*
X92849500Y-117497870D01*
X92849501Y-117497876D01*
X92855908Y-117557483D01*
X92906202Y-117692328D01*
X92906206Y-117692335D01*
X92992452Y-117807544D01*
X92992455Y-117807547D01*
X93107664Y-117893793D01*
X93107671Y-117893797D01*
X93242517Y-117944091D01*
X93242516Y-117944091D01*
X93249444Y-117944835D01*
X93302127Y-117950500D01*
X95097872Y-117950499D01*
X95157483Y-117944091D01*
X95292331Y-117893796D01*
X95407546Y-117807546D01*
X95493796Y-117692331D01*
X95542810Y-117560916D01*
X95584681Y-117504984D01*
X95650145Y-117480566D01*
X95718418Y-117495417D01*
X95746673Y-117516569D01*
X95868599Y-117638495D01*
X95946599Y-117693111D01*
X96062165Y-117774032D01*
X96062167Y-117774033D01*
X96062170Y-117774035D01*
X96276337Y-117873903D01*
X96504592Y-117935063D01*
X96681034Y-117950500D01*
X96739999Y-117955659D01*
X96740000Y-117955659D01*
X96740001Y-117955659D01*
X96798966Y-117950500D01*
X96975408Y-117935063D01*
X97203663Y-117873903D01*
X97417830Y-117774035D01*
X97611401Y-117638495D01*
X97778495Y-117471401D01*
X97914035Y-117277830D01*
X98013903Y-117063663D01*
X98075063Y-116835408D01*
X98095659Y-116600000D01*
X98075063Y-116364592D01*
X98013903Y-116136337D01*
X97914035Y-115922171D01*
X97879024Y-115872169D01*
X97778494Y-115728597D01*
X97611402Y-115561506D01*
X97611395Y-115561501D01*
X97417834Y-115425967D01*
X97417830Y-115425965D01*
X97410005Y-115422316D01*
X97203663Y-115326097D01*
X97203659Y-115326096D01*
X97203655Y-115326094D01*
X96975413Y-115264938D01*
X96975403Y-115264936D01*
X96740001Y-115244341D01*
X96739999Y-115244341D01*
X96504596Y-115264936D01*
X96504586Y-115264938D01*
X96276344Y-115326094D01*
X96276335Y-115326098D01*
X96062171Y-115425964D01*
X96062169Y-115425965D01*
X95868600Y-115561503D01*
X95746673Y-115683430D01*
X95685350Y-115716914D01*
X95615658Y-115711930D01*
X95559725Y-115670058D01*
X95542810Y-115639081D01*
X95493797Y-115507671D01*
X95493793Y-115507664D01*
X95407547Y-115392455D01*
X95407544Y-115392452D01*
X95292335Y-115306206D01*
X95292328Y-115306202D01*
X95157482Y-115255908D01*
X95157483Y-115255908D01*
X95097883Y-115249501D01*
X95097881Y-115249500D01*
X95097873Y-115249500D01*
X95097864Y-115249500D01*
X93302129Y-115249500D01*
X93302123Y-115249501D01*
X93242516Y-115255908D01*
X93107671Y-115306202D01*
X93107664Y-115306206D01*
X92992455Y-115392452D01*
X92992452Y-115392455D01*
X92906206Y-115507664D01*
X92906202Y-115507671D01*
X92855908Y-115642517D01*
X92849501Y-115702116D01*
X92849500Y-115702135D01*
X92849500Y-117497870D01*
X91521408Y-117497870D01*
X91505414Y-117479239D01*
X91476682Y-117415551D01*
X91475500Y-117398469D01*
X91475500Y-117347016D01*
X91495185Y-117279977D01*
X91547989Y-117234222D01*
X91560488Y-117229313D01*
X91619334Y-117209814D01*
X91768656Y-117117712D01*
X91892712Y-116993656D01*
X91984814Y-116844334D01*
X92039999Y-116677797D01*
X92050500Y-116575009D01*
X92050499Y-115574992D01*
X92049121Y-115561506D01*
X92039999Y-115472203D01*
X92039998Y-115472200D01*
X92036889Y-115462819D01*
X91984814Y-115305666D01*
X91892712Y-115156344D01*
X91768656Y-115032288D01*
X91619334Y-114940186D01*
X91452797Y-114885001D01*
X91452795Y-114885000D01*
X91350010Y-114874500D01*
X90149998Y-114874500D01*
X90149981Y-114874501D01*
X90047203Y-114885000D01*
X90047200Y-114885001D01*
X89880668Y-114940185D01*
X89880663Y-114940187D01*
X89731342Y-115032289D01*
X89698204Y-115065427D01*
X89636881Y-115098912D01*
X89567189Y-115093926D01*
X89511256Y-115052054D01*
X89495962Y-115025196D01*
X89474099Y-114972412D01*
X89377924Y-114847075D01*
X89252586Y-114750899D01*
X89180131Y-114720888D01*
X89125727Y-114677047D01*
X89103662Y-114610753D01*
X89120941Y-114543054D01*
X89139898Y-114518650D01*
X91971730Y-111686819D01*
X92033054Y-111653334D01*
X92059412Y-111650500D01*
X92309734Y-111650500D01*
X92317832Y-111651030D01*
X92353162Y-111655682D01*
X92422028Y-111646615D01*
X92491060Y-111657380D01*
X92543316Y-111703759D01*
X92562211Y-111769554D01*
X92562211Y-112054967D01*
X92560488Y-112070584D01*
X92560773Y-112070611D01*
X92560038Y-112078377D01*
X92562212Y-112147526D01*
X92562212Y-112177055D01*
X92562213Y-112177072D01*
X92563080Y-112183943D01*
X92563538Y-112189762D01*
X92565002Y-112236336D01*
X92565003Y-112236339D01*
X92570592Y-112255579D01*
X92574536Y-112274623D01*
X92577048Y-112294503D01*
X92594202Y-112337831D01*
X92596094Y-112343359D01*
X92609093Y-112388100D01*
X92619292Y-112405346D01*
X92627848Y-112422812D01*
X92633154Y-112436210D01*
X92635226Y-112441444D01*
X92662610Y-112479135D01*
X92665818Y-112484019D01*
X92689539Y-112524128D01*
X92689545Y-112524136D01*
X92703702Y-112538292D01*
X92716339Y-112553087D01*
X92728118Y-112569299D01*
X92748272Y-112585972D01*
X92764021Y-112599000D01*
X92768332Y-112602922D01*
X93198262Y-113032853D01*
X93299197Y-113133788D01*
X93309022Y-113146051D01*
X93309243Y-113145869D01*
X93314214Y-113151878D01*
X93335287Y-113171666D01*
X93364635Y-113199226D01*
X93385529Y-113220120D01*
X93391011Y-113224373D01*
X93395443Y-113228157D01*
X93429418Y-113260062D01*
X93446976Y-113269714D01*
X93463233Y-113280393D01*
X93479064Y-113292673D01*
X93498737Y-113301186D01*
X93521833Y-113311182D01*
X93527077Y-113313750D01*
X93567908Y-113336197D01*
X93580523Y-113339435D01*
X93587305Y-113341177D01*
X93605719Y-113347481D01*
X93624104Y-113355438D01*
X93670157Y-113362732D01*
X93675826Y-113363906D01*
X93720981Y-113375500D01*
X93741016Y-113375500D01*
X93760413Y-113377026D01*
X93780196Y-113380160D01*
X93826583Y-113375775D01*
X93832422Y-113375500D01*
X100937695Y-113375500D01*
X101004734Y-113395185D01*
X101036068Y-113424010D01*
X101085964Y-113489036D01*
X101203571Y-113579279D01*
X101340528Y-113636009D01*
X101450599Y-113650500D01*
X101649400Y-113650499D01*
X101649401Y-113650499D01*
X101662205Y-113648813D01*
X101759472Y-113636009D01*
X101759478Y-113636006D01*
X101767329Y-113633904D01*
X101768217Y-113637218D01*
X101821851Y-113631378D01*
X101832513Y-113634505D01*
X101832674Y-113633905D01*
X101840524Y-113636008D01*
X101840526Y-113636008D01*
X101840528Y-113636009D01*
X101950599Y-113650500D01*
X102149400Y-113650499D01*
X102149401Y-113650499D01*
X102166087Y-113648302D01*
X102259472Y-113636009D01*
X102259475Y-113636007D01*
X102267326Y-113633905D01*
X102268210Y-113637207D01*
X102321925Y-113631392D01*
X102332514Y-113634501D01*
X102332674Y-113633905D01*
X102340524Y-113636008D01*
X102340526Y-113636008D01*
X102340528Y-113636009D01*
X102450599Y-113650500D01*
X102649400Y-113650499D01*
X102649401Y-113650499D01*
X102666087Y-113648302D01*
X102759472Y-113636009D01*
X102759475Y-113636007D01*
X102767326Y-113633905D01*
X102768210Y-113637207D01*
X102821925Y-113631392D01*
X102832514Y-113634501D01*
X102832674Y-113633905D01*
X102840524Y-113636008D01*
X102840526Y-113636008D01*
X102840528Y-113636009D01*
X102950599Y-113650500D01*
X103149400Y-113650499D01*
X103149401Y-113650499D01*
X103166087Y-113648302D01*
X103259472Y-113636009D01*
X103259475Y-113636007D01*
X103267326Y-113633905D01*
X103268210Y-113637207D01*
X103321925Y-113631392D01*
X103332514Y-113634501D01*
X103332674Y-113633905D01*
X103340524Y-113636008D01*
X103340526Y-113636008D01*
X103340528Y-113636009D01*
X103450599Y-113650500D01*
X103649400Y-113650499D01*
X103649401Y-113650499D01*
X103666087Y-113648302D01*
X103759472Y-113636009D01*
X103759475Y-113636007D01*
X103767326Y-113633905D01*
X103768210Y-113637207D01*
X103821925Y-113631392D01*
X103832514Y-113634501D01*
X103832674Y-113633905D01*
X103840524Y-113636008D01*
X103840526Y-113636008D01*
X103840528Y-113636009D01*
X103950599Y-113650500D01*
X104149400Y-113650499D01*
X104149401Y-113650499D01*
X104162205Y-113648813D01*
X104259472Y-113636009D01*
X104259478Y-113636006D01*
X104267329Y-113633904D01*
X104268217Y-113637218D01*
X104321851Y-113631378D01*
X104332513Y-113634505D01*
X104332674Y-113633905D01*
X104340524Y-113636008D01*
X104340526Y-113636008D01*
X104340528Y-113636009D01*
X104450599Y-113650500D01*
X104649400Y-113650499D01*
X104649403Y-113650499D01*
X104759463Y-113636011D01*
X104759467Y-113636009D01*
X104759472Y-113636009D01*
X104896429Y-113579279D01*
X105014036Y-113489036D01*
X105104279Y-113371429D01*
X105161009Y-113234472D01*
X105175500Y-113124401D01*
X105175499Y-112549498D01*
X105195183Y-112482460D01*
X105247987Y-112436705D01*
X105299499Y-112425499D01*
X105874403Y-112425499D01*
X105984463Y-112411011D01*
X105984467Y-112411009D01*
X105984472Y-112411009D01*
X106121429Y-112354279D01*
X106239036Y-112264036D01*
X106329279Y-112146429D01*
X106386009Y-112009472D01*
X106400500Y-111899401D01*
X106400499Y-111700600D01*
X106400499Y-111700599D01*
X106400499Y-111700596D01*
X106386011Y-111590536D01*
X106383906Y-111582682D01*
X106387197Y-111581800D01*
X106381405Y-111528001D01*
X106384499Y-111517486D01*
X106383905Y-111517327D01*
X106386008Y-111509476D01*
X106386009Y-111509472D01*
X106400500Y-111399401D01*
X106400499Y-111200600D01*
X106386009Y-111090528D01*
X106386008Y-111090525D01*
X106383905Y-111082674D01*
X106387207Y-111081789D01*
X106381392Y-111028075D01*
X106384501Y-111017485D01*
X106383905Y-111017326D01*
X106386008Y-111009475D01*
X106386008Y-111009474D01*
X106386009Y-111009472D01*
X106400500Y-110899401D01*
X106400499Y-110700600D01*
X106386009Y-110590528D01*
X106386008Y-110590525D01*
X106383905Y-110582674D01*
X106387207Y-110581789D01*
X106381392Y-110528075D01*
X106384501Y-110517485D01*
X106383905Y-110517326D01*
X106386008Y-110509475D01*
X106386008Y-110509474D01*
X106386009Y-110509472D01*
X106400500Y-110399401D01*
X106400499Y-110200600D01*
X106386009Y-110090528D01*
X106386008Y-110090525D01*
X106383905Y-110082674D01*
X106387207Y-110081789D01*
X106381392Y-110028075D01*
X106384501Y-110017485D01*
X106383905Y-110017326D01*
X106386008Y-110009475D01*
X106386008Y-110009474D01*
X106386009Y-110009472D01*
X106400500Y-109899401D01*
X106400499Y-109700600D01*
X106400089Y-109697489D01*
X106390547Y-109625000D01*
X106386009Y-109590528D01*
X106386008Y-109590525D01*
X106383905Y-109582674D01*
X106387207Y-109581789D01*
X106381392Y-109528075D01*
X106384501Y-109517485D01*
X106383905Y-109517326D01*
X106386008Y-109509475D01*
X106386008Y-109509474D01*
X106386009Y-109509472D01*
X106400500Y-109399401D01*
X106400499Y-109200600D01*
X106386009Y-109090528D01*
X106386008Y-109090525D01*
X106383905Y-109082674D01*
X106387207Y-109081789D01*
X106381392Y-109028075D01*
X106384501Y-109017485D01*
X106383905Y-109017326D01*
X106386008Y-109009475D01*
X106386008Y-109009474D01*
X106386009Y-109009472D01*
X106400500Y-108899401D01*
X106400499Y-108700600D01*
X106400499Y-108700598D01*
X106400499Y-108700596D01*
X106386011Y-108590536D01*
X106386009Y-108590529D01*
X106386009Y-108590528D01*
X106329279Y-108453571D01*
X106239036Y-108335964D01*
X106121429Y-108245721D01*
X106121425Y-108245719D01*
X105984472Y-108188991D01*
X105984470Y-108188990D01*
X105874410Y-108174501D01*
X105874407Y-108174500D01*
X105874401Y-108174500D01*
X105874394Y-108174500D01*
X105299499Y-108174500D01*
X105232460Y-108154815D01*
X105186705Y-108102011D01*
X105175499Y-108050500D01*
X105175499Y-107475596D01*
X105161011Y-107365536D01*
X105161009Y-107365531D01*
X105161009Y-107365528D01*
X105104279Y-107228571D01*
X105014036Y-107110964D01*
X104896429Y-107020721D01*
X104896425Y-107020719D01*
X104759472Y-106963991D01*
X104759470Y-106963990D01*
X104649401Y-106949500D01*
X104450596Y-106949500D01*
X104340529Y-106963989D01*
X104332681Y-106966093D01*
X104331808Y-106962836D01*
X104277779Y-106968554D01*
X104267476Y-106965523D01*
X104267323Y-106966095D01*
X104259470Y-106963990D01*
X104149401Y-106949500D01*
X103950596Y-106949500D01*
X103840531Y-106963989D01*
X103832678Y-106966094D01*
X103831802Y-106962824D01*
X103777853Y-106968567D01*
X103767474Y-106965517D01*
X103767320Y-106966094D01*
X103751699Y-106961908D01*
X103692039Y-106925542D01*
X103661511Y-106862694D01*
X103660772Y-106857669D01*
X103660664Y-106856812D01*
X103643512Y-106813491D01*
X103641619Y-106807962D01*
X103628618Y-106763213D01*
X103628616Y-106763210D01*
X103618423Y-106745975D01*
X103609861Y-106728498D01*
X103602487Y-106709874D01*
X103602486Y-106709872D01*
X103575079Y-106672149D01*
X103571888Y-106667290D01*
X103548172Y-106627187D01*
X103548165Y-106627178D01*
X103534006Y-106613019D01*
X103521368Y-106598223D01*
X103513592Y-106587520D01*
X103509594Y-106582017D01*
X103473688Y-106552313D01*
X103469376Y-106548390D01*
X103087202Y-106166216D01*
X103077377Y-106153952D01*
X103077156Y-106154136D01*
X103072181Y-106148121D01*
X103038341Y-106116344D01*
X103021760Y-106100773D01*
X103011315Y-106090328D01*
X103000871Y-106079883D01*
X102995382Y-106075625D01*
X102990957Y-106071847D01*
X102956978Y-106039938D01*
X102956976Y-106039936D01*
X102956973Y-106039935D01*
X102939425Y-106030288D01*
X102923159Y-106019604D01*
X102907329Y-106007325D01*
X102864564Y-105988818D01*
X102859318Y-105986248D01*
X102818489Y-105963803D01*
X102818488Y-105963802D01*
X102799089Y-105958822D01*
X102780677Y-105952518D01*
X102762294Y-105944562D01*
X102762288Y-105944560D01*
X102716270Y-105937272D01*
X102710548Y-105936087D01*
X102665417Y-105924500D01*
X102665415Y-105924500D01*
X102645380Y-105924500D01*
X102625982Y-105922973D01*
X102618558Y-105921797D01*
X102606201Y-105919840D01*
X102606200Y-105919840D01*
X102559812Y-105924225D01*
X102553974Y-105924500D01*
X96474000Y-105924500D01*
X96406961Y-105904815D01*
X96361206Y-105852011D01*
X96350000Y-105800500D01*
X96350000Y-105650000D01*
X93850000Y-105650000D01*
X93832499Y-105667500D01*
X93830315Y-105674939D01*
X93777511Y-105720694D01*
X93708353Y-105730638D01*
X93644797Y-105701613D01*
X93638319Y-105695581D01*
X93122503Y-105179765D01*
X93089018Y-105118442D01*
X93094002Y-105048750D01*
X93135874Y-104992817D01*
X93184404Y-104970794D01*
X93196316Y-104968261D01*
X93229803Y-104961144D01*
X93402730Y-104884151D01*
X93554089Y-104774182D01*
X93619896Y-104750702D01*
X93626975Y-104750500D01*
X93728260Y-104750500D01*
X93795299Y-104770185D01*
X93841054Y-104822989D01*
X93851550Y-104887755D01*
X93850000Y-104902171D01*
X93850000Y-105150000D01*
X96350000Y-105150000D01*
X96350000Y-104902172D01*
X96349999Y-104902155D01*
X96343597Y-104842622D01*
X96343597Y-104842620D01*
X96331075Y-104809048D01*
X96326089Y-104739356D01*
X96331071Y-104722390D01*
X96344091Y-104687483D01*
X96350500Y-104627873D01*
X96350499Y-103882008D01*
X96350756Y-103881133D01*
X98344858Y-103881133D01*
X98365385Y-104128857D01*
X98365387Y-104128866D01*
X98426412Y-104369845D01*
X98526266Y-104597492D01*
X98626564Y-104751010D01*
X99201482Y-104176092D01*
X99262805Y-104142607D01*
X99332496Y-104147591D01*
X99388430Y-104189462D01*
X99391514Y-104194377D01*
X99391549Y-104194353D01*
X99396441Y-104201284D01*
X99489157Y-104300558D01*
X99499638Y-104311780D01*
X99534698Y-104333101D01*
X99581749Y-104384751D01*
X99593407Y-104453641D01*
X99565970Y-104517898D01*
X99557950Y-104526729D01*
X98979942Y-105104737D01*
X99026768Y-105141183D01*
X99026770Y-105141184D01*
X99245385Y-105259492D01*
X99245396Y-105259497D01*
X99480506Y-105340211D01*
X99725707Y-105381128D01*
X99974293Y-105381128D01*
X100219493Y-105340211D01*
X100454603Y-105259497D01*
X100454614Y-105259492D01*
X100673228Y-105141185D01*
X100673231Y-105141183D01*
X100720056Y-105104737D01*
X100143165Y-104527846D01*
X100109680Y-104466523D01*
X100114664Y-104396831D01*
X100152588Y-104343981D01*
X100255739Y-104260062D01*
X100306052Y-104188783D01*
X100360793Y-104145367D01*
X100430318Y-104138438D01*
X100492553Y-104170196D01*
X100495037Y-104172612D01*
X101073434Y-104751010D01*
X101173731Y-104597497D01*
X101273587Y-104369845D01*
X101334612Y-104128866D01*
X101334614Y-104128857D01*
X101355141Y-103881133D01*
X104844858Y-103881133D01*
X104865385Y-104128857D01*
X104865387Y-104128866D01*
X104926412Y-104369845D01*
X105026266Y-104597492D01*
X105126564Y-104751010D01*
X105701482Y-104176092D01*
X105762805Y-104142607D01*
X105832496Y-104147591D01*
X105888430Y-104189462D01*
X105891514Y-104194377D01*
X105891549Y-104194353D01*
X105896441Y-104201284D01*
X105989157Y-104300558D01*
X105999638Y-104311780D01*
X106034698Y-104333101D01*
X106081749Y-104384751D01*
X106093407Y-104453641D01*
X106065970Y-104517898D01*
X106057950Y-104526729D01*
X105479942Y-105104737D01*
X105526768Y-105141183D01*
X105526770Y-105141184D01*
X105745385Y-105259492D01*
X105745396Y-105259497D01*
X105980506Y-105340211D01*
X106225707Y-105381128D01*
X106474293Y-105381128D01*
X106719493Y-105340211D01*
X106954603Y-105259497D01*
X106954614Y-105259492D01*
X107173228Y-105141185D01*
X107173231Y-105141183D01*
X107220056Y-105104737D01*
X106643165Y-104527846D01*
X106609680Y-104466523D01*
X106614664Y-104396831D01*
X106652588Y-104343981D01*
X106755739Y-104260062D01*
X106806052Y-104188783D01*
X106860793Y-104145367D01*
X106930318Y-104138438D01*
X106992553Y-104170196D01*
X106995037Y-104172612D01*
X107573434Y-104751010D01*
X107673731Y-104597497D01*
X107773587Y-104369845D01*
X107834612Y-104128866D01*
X107834614Y-104128857D01*
X107855141Y-103881133D01*
X107855141Y-103881122D01*
X107834614Y-103633398D01*
X107834612Y-103633389D01*
X107773587Y-103392410D01*
X107673731Y-103164758D01*
X107573434Y-103011244D01*
X106998517Y-103586162D01*
X106937194Y-103619647D01*
X106867502Y-103614663D01*
X106811569Y-103572791D01*
X106808486Y-103567878D01*
X106808451Y-103567903D01*
X106803558Y-103560971D01*
X106730003Y-103482214D01*
X106700362Y-103450476D01*
X106665300Y-103429154D01*
X106618248Y-103377502D01*
X106606591Y-103308612D01*
X106634029Y-103244355D01*
X106642048Y-103235525D01*
X107220056Y-102657517D01*
X107173229Y-102621071D01*
X106954614Y-102502763D01*
X106954603Y-102502758D01*
X106719493Y-102422044D01*
X106474293Y-102381128D01*
X106225707Y-102381128D01*
X105980506Y-102422044D01*
X105745396Y-102502758D01*
X105745390Y-102502760D01*
X105526761Y-102621077D01*
X105479942Y-102657516D01*
X105479942Y-102657518D01*
X106056833Y-103234408D01*
X106090318Y-103295731D01*
X106085334Y-103365422D01*
X106047408Y-103418276D01*
X105944262Y-103502192D01*
X105944258Y-103502197D01*
X105893947Y-103573471D01*
X105839204Y-103616888D01*
X105769679Y-103623817D01*
X105707444Y-103592058D01*
X105704962Y-103589643D01*
X105126564Y-103011244D01*
X105026267Y-103164760D01*
X104926412Y-103392410D01*
X104865387Y-103633389D01*
X104865385Y-103633398D01*
X104844858Y-103881122D01*
X104844858Y-103881133D01*
X101355141Y-103881133D01*
X101355141Y-103881122D01*
X101334614Y-103633398D01*
X101334612Y-103633389D01*
X101273587Y-103392410D01*
X101173731Y-103164758D01*
X101073434Y-103011244D01*
X100498517Y-103586162D01*
X100437194Y-103619647D01*
X100367502Y-103614663D01*
X100311569Y-103572791D01*
X100308486Y-103567878D01*
X100308451Y-103567903D01*
X100303558Y-103560971D01*
X100230003Y-103482214D01*
X100200362Y-103450476D01*
X100165300Y-103429154D01*
X100118248Y-103377502D01*
X100106591Y-103308612D01*
X100134029Y-103244355D01*
X100142048Y-103235525D01*
X100720056Y-102657517D01*
X100673229Y-102621071D01*
X100454614Y-102502763D01*
X100454603Y-102502758D01*
X100219493Y-102422044D01*
X99974293Y-102381128D01*
X99725707Y-102381128D01*
X99480506Y-102422044D01*
X99245396Y-102502758D01*
X99245390Y-102502760D01*
X99026761Y-102621077D01*
X98979942Y-102657516D01*
X98979942Y-102657518D01*
X99556833Y-103234408D01*
X99590318Y-103295731D01*
X99585334Y-103365422D01*
X99547408Y-103418276D01*
X99444262Y-103502192D01*
X99444258Y-103502197D01*
X99393947Y-103573471D01*
X99339204Y-103616888D01*
X99269679Y-103623817D01*
X99207444Y-103592058D01*
X99204962Y-103589643D01*
X98626564Y-103011244D01*
X98526267Y-103164760D01*
X98426412Y-103392410D01*
X98365387Y-103633389D01*
X98365385Y-103633398D01*
X98344858Y-103881122D01*
X98344858Y-103881133D01*
X96350756Y-103881133D01*
X96370183Y-103814970D01*
X96422987Y-103769215D01*
X96492146Y-103759271D01*
X96524932Y-103768728D01*
X96620197Y-103811144D01*
X96805354Y-103850500D01*
X96805355Y-103850500D01*
X96994644Y-103850500D01*
X96994646Y-103850500D01*
X97179803Y-103811144D01*
X97352730Y-103734151D01*
X97505871Y-103622888D01*
X97632533Y-103482216D01*
X97727179Y-103318284D01*
X97785674Y-103138256D01*
X97805460Y-102950000D01*
X97785674Y-102761744D01*
X97727179Y-102581716D01*
X97632533Y-102417784D01*
X97505871Y-102277112D01*
X97505870Y-102277111D01*
X97352734Y-102165851D01*
X97352729Y-102165848D01*
X97179807Y-102088857D01*
X97179802Y-102088855D01*
X97005424Y-102051791D01*
X96994646Y-102049500D01*
X96805354Y-102049500D01*
X96794576Y-102051791D01*
X96620199Y-102088855D01*
X96617771Y-102089936D01*
X96537614Y-102125625D01*
X96524935Y-102131270D01*
X96455685Y-102140554D01*
X96392408Y-102110926D01*
X96355195Y-102051791D01*
X96350499Y-102017996D01*
X96350499Y-101092128D01*
X96344091Y-101032517D01*
X96331340Y-100998332D01*
X96326357Y-100928642D01*
X96331340Y-100911669D01*
X96344091Y-100877483D01*
X96350500Y-100817873D01*
X96350499Y-99822128D01*
X96344091Y-99762517D01*
X96331340Y-99728332D01*
X96326357Y-99658642D01*
X96331340Y-99641669D01*
X96344091Y-99607483D01*
X96350500Y-99547873D01*
X96350499Y-98552128D01*
X96344091Y-98492517D01*
X96331340Y-98458332D01*
X96326357Y-98388642D01*
X96331340Y-98371669D01*
X96344091Y-98337483D01*
X96350500Y-98277873D01*
X96350499Y-97915577D01*
X96370183Y-97848540D01*
X96422987Y-97802785D01*
X96492146Y-97792841D01*
X96555701Y-97821866D01*
X96562180Y-97827898D01*
X98341311Y-99607029D01*
X98373836Y-99664269D01*
X98425937Y-99870010D01*
X98525826Y-100097734D01*
X98661833Y-100305910D01*
X98690459Y-100337006D01*
X98830256Y-100488866D01*
X99026491Y-100641602D01*
X99245190Y-100759956D01*
X99480386Y-100840699D01*
X99725665Y-100881628D01*
X99974335Y-100881628D01*
X100219614Y-100840699D01*
X100454810Y-100759956D01*
X100673509Y-100641602D01*
X100869744Y-100488866D01*
X101038164Y-100305913D01*
X101174173Y-100097735D01*
X101174175Y-100097731D01*
X101181595Y-100080817D01*
X101226551Y-100027331D01*
X101293287Y-100006642D01*
X101295150Y-100006628D01*
X104904850Y-100006628D01*
X104971889Y-100026313D01*
X105017644Y-100079117D01*
X105018405Y-100080817D01*
X105025824Y-100097731D01*
X105161833Y-100305910D01*
X105190459Y-100337006D01*
X105330256Y-100488866D01*
X105526491Y-100641602D01*
X105745190Y-100759956D01*
X105980386Y-100840699D01*
X106225665Y-100881628D01*
X106474335Y-100881628D01*
X106719614Y-100840699D01*
X106954810Y-100759956D01*
X107173509Y-100641602D01*
X107369744Y-100488866D01*
X107538164Y-100305913D01*
X107674173Y-100097735D01*
X107774063Y-99870009D01*
X107835108Y-99628949D01*
X107836887Y-99607481D01*
X107855643Y-99381133D01*
X107855643Y-99381122D01*
X107835109Y-99133315D01*
X107835107Y-99133303D01*
X107774063Y-98892246D01*
X107674173Y-98664521D01*
X107538166Y-98456345D01*
X107460213Y-98371666D01*
X107369744Y-98273390D01*
X107173509Y-98120654D01*
X107173507Y-98120653D01*
X107173506Y-98120652D01*
X106954811Y-98002300D01*
X106954802Y-98002297D01*
X106719616Y-97921557D01*
X106474335Y-97880628D01*
X106349500Y-97880628D01*
X106282461Y-97860943D01*
X106236706Y-97808139D01*
X106225500Y-97756628D01*
X106225500Y-97291156D01*
X106245185Y-97224117D01*
X106297989Y-97178362D01*
X106362102Y-97167798D01*
X106437491Y-97175500D01*
X107337508Y-97175499D01*
X107337516Y-97175498D01*
X107337519Y-97175498D01*
X107412896Y-97167798D01*
X107440297Y-97164999D01*
X107606834Y-97109814D01*
X107756156Y-97017712D01*
X107880212Y-96893656D01*
X107972314Y-96744334D01*
X108027499Y-96577797D01*
X108038000Y-96475009D01*
X108037999Y-95124992D01*
X108027499Y-95022203D01*
X107972314Y-94855666D01*
X107880212Y-94706344D01*
X107756156Y-94582288D01*
X107606834Y-94490186D01*
X107440297Y-94435001D01*
X107440295Y-94435000D01*
X107337510Y-94424500D01*
X106437498Y-94424500D01*
X106437480Y-94424501D01*
X106334703Y-94435000D01*
X106334700Y-94435001D01*
X106168168Y-94490185D01*
X106168163Y-94490187D01*
X106018842Y-94582289D01*
X105894789Y-94706342D01*
X105800882Y-94858590D01*
X105748934Y-94905315D01*
X105729942Y-94912568D01*
X105699614Y-94921379D01*
X105699610Y-94921381D01*
X105682366Y-94931579D01*
X105664905Y-94940133D01*
X105646274Y-94947510D01*
X105646262Y-94947517D01*
X105608570Y-94974902D01*
X105603687Y-94978109D01*
X105563580Y-95001829D01*
X105549415Y-95015994D01*
X105534623Y-95028628D01*
X105518412Y-95040405D01*
X105488706Y-95076312D01*
X105484774Y-95080634D01*
X105216211Y-95349197D01*
X105203952Y-95359019D01*
X105204135Y-95359240D01*
X105198125Y-95364211D01*
X105152390Y-95412914D01*
X105092149Y-95448308D01*
X105022335Y-95445514D01*
X104965114Y-95405420D01*
X104938654Y-95340754D01*
X104937999Y-95328029D01*
X104937999Y-95124998D01*
X104937998Y-95124981D01*
X104927499Y-95022203D01*
X104927498Y-95022200D01*
X104920748Y-95001829D01*
X104872314Y-94855666D01*
X104780212Y-94706344D01*
X104656156Y-94582288D01*
X104506834Y-94490186D01*
X104340297Y-94435001D01*
X104340295Y-94435000D01*
X104237510Y-94424500D01*
X103337498Y-94424500D01*
X103337480Y-94424501D01*
X103234703Y-94435000D01*
X103234700Y-94435001D01*
X103068168Y-94490185D01*
X103068163Y-94490187D01*
X102918842Y-94582289D01*
X102825181Y-94675951D01*
X102763858Y-94709436D01*
X102694166Y-94704452D01*
X102649819Y-94675951D01*
X102531157Y-94557289D01*
X102531156Y-94557288D01*
X102381834Y-94465186D01*
X102215297Y-94410001D01*
X102215295Y-94410000D01*
X102112510Y-94399500D01*
X101187498Y-94399500D01*
X101187480Y-94399501D01*
X101084703Y-94410000D01*
X101084700Y-94410001D01*
X100918166Y-94465186D01*
X100918165Y-94465186D01*
X100888403Y-94483543D01*
X100821010Y-94501981D01*
X100754347Y-94481056D01*
X100735629Y-94465683D01*
X100148057Y-93878111D01*
X100114572Y-93816788D01*
X100119556Y-93747096D01*
X100161428Y-93691163D01*
X100215330Y-93668121D01*
X100269492Y-93659083D01*
X100504603Y-93578369D01*
X100504614Y-93578364D01*
X100723228Y-93460057D01*
X100723231Y-93460055D01*
X100770056Y-93423609D01*
X100193165Y-92846718D01*
X100159680Y-92785395D01*
X100164664Y-92715703D01*
X100202588Y-92662853D01*
X100305739Y-92578934D01*
X100356052Y-92507655D01*
X100410793Y-92464239D01*
X100480318Y-92457310D01*
X100542553Y-92489068D01*
X100545037Y-92491484D01*
X101123434Y-93069882D01*
X101223731Y-92916369D01*
X101323587Y-92688717D01*
X101384612Y-92447738D01*
X101384614Y-92447729D01*
X101405141Y-92200005D01*
X104894858Y-92200005D01*
X104915385Y-92447729D01*
X104915387Y-92447738D01*
X104976412Y-92688717D01*
X105076266Y-92916364D01*
X105176564Y-93069882D01*
X105751482Y-92494964D01*
X105812805Y-92461479D01*
X105882496Y-92466463D01*
X105938430Y-92508334D01*
X105941514Y-92513249D01*
X105941549Y-92513225D01*
X105946441Y-92520156D01*
X106049637Y-92630651D01*
X106049638Y-92630652D01*
X106084698Y-92651973D01*
X106131749Y-92703623D01*
X106143407Y-92772513D01*
X106115970Y-92836770D01*
X106107950Y-92845601D01*
X105529942Y-93423609D01*
X105576768Y-93460055D01*
X105576770Y-93460056D01*
X105795385Y-93578364D01*
X105795396Y-93578369D01*
X106030506Y-93659083D01*
X106275707Y-93700000D01*
X106524293Y-93700000D01*
X106769493Y-93659083D01*
X107004603Y-93578369D01*
X107004614Y-93578364D01*
X107223228Y-93460057D01*
X107223231Y-93460055D01*
X107270056Y-93423609D01*
X106693165Y-92846718D01*
X106659680Y-92785395D01*
X106664664Y-92715703D01*
X106702588Y-92662853D01*
X106805739Y-92578934D01*
X106856052Y-92507655D01*
X106910793Y-92464239D01*
X106980318Y-92457310D01*
X107042553Y-92489068D01*
X107045037Y-92491484D01*
X107623434Y-93069882D01*
X107723731Y-92916369D01*
X107823587Y-92688717D01*
X107884612Y-92447738D01*
X107884614Y-92447729D01*
X107905141Y-92200005D01*
X107905141Y-92199994D01*
X107884614Y-91952270D01*
X107884612Y-91952261D01*
X107823587Y-91711282D01*
X107723731Y-91483630D01*
X107623434Y-91330116D01*
X107048517Y-91905034D01*
X106987194Y-91938519D01*
X106917502Y-91933535D01*
X106861569Y-91891663D01*
X106858486Y-91886750D01*
X106858451Y-91886775D01*
X106853558Y-91879843D01*
X106794747Y-91816873D01*
X106750362Y-91769348D01*
X106727672Y-91755550D01*
X106715300Y-91748026D01*
X106668248Y-91696374D01*
X106656591Y-91627484D01*
X106684029Y-91563227D01*
X106692048Y-91554397D01*
X107270056Y-90976389D01*
X107223229Y-90939943D01*
X107004614Y-90821635D01*
X107004603Y-90821630D01*
X106769493Y-90740916D01*
X106524293Y-90700000D01*
X106275707Y-90700000D01*
X106030506Y-90740916D01*
X105795396Y-90821630D01*
X105795390Y-90821632D01*
X105576761Y-90939949D01*
X105529942Y-90976388D01*
X105529942Y-90976390D01*
X106106833Y-91553280D01*
X106140318Y-91614603D01*
X106135334Y-91684294D01*
X106097408Y-91737148D01*
X105994262Y-91821064D01*
X105994258Y-91821069D01*
X105943947Y-91892343D01*
X105889204Y-91935760D01*
X105819679Y-91942689D01*
X105757444Y-91910930D01*
X105754962Y-91908515D01*
X105176564Y-91330116D01*
X105076267Y-91483632D01*
X104976412Y-91711282D01*
X104915387Y-91952261D01*
X104915385Y-91952270D01*
X104894858Y-92199994D01*
X104894858Y-92200005D01*
X101405141Y-92200005D01*
X101405141Y-92199994D01*
X101384614Y-91952270D01*
X101384612Y-91952261D01*
X101323587Y-91711282D01*
X101223731Y-91483630D01*
X101123434Y-91330116D01*
X100548517Y-91905034D01*
X100487194Y-91938519D01*
X100417502Y-91933535D01*
X100361569Y-91891663D01*
X100358486Y-91886750D01*
X100358451Y-91886775D01*
X100353558Y-91879843D01*
X100294747Y-91816873D01*
X100250362Y-91769348D01*
X100227672Y-91755550D01*
X100215300Y-91748026D01*
X100168248Y-91696374D01*
X100156591Y-91627484D01*
X100184029Y-91563227D01*
X100192048Y-91554397D01*
X100770056Y-90976389D01*
X100723229Y-90939943D01*
X100504614Y-90821635D01*
X100504603Y-90821630D01*
X100269493Y-90740916D01*
X100024293Y-90700000D01*
X99775706Y-90700000D01*
X99679309Y-90716085D01*
X99609944Y-90707703D01*
X99556122Y-90663149D01*
X99534931Y-90596571D01*
X99553100Y-90529105D01*
X99566744Y-90510812D01*
X99682533Y-90382216D01*
X99777179Y-90218284D01*
X99835674Y-90038256D01*
X99853321Y-89870344D01*
X99879904Y-89805734D01*
X99888951Y-89795638D01*
X100283788Y-89400801D01*
X100296042Y-89390986D01*
X100295859Y-89390764D01*
X100301866Y-89385792D01*
X100301877Y-89385786D01*
X100345567Y-89339261D01*
X100349227Y-89335364D01*
X100359671Y-89324918D01*
X100370120Y-89314471D01*
X100374379Y-89308978D01*
X100378152Y-89304561D01*
X100410062Y-89270582D01*
X100419715Y-89253020D01*
X100430389Y-89236770D01*
X100442673Y-89220936D01*
X100461180Y-89178167D01*
X100463749Y-89172924D01*
X100471090Y-89159571D01*
X100486197Y-89132092D01*
X100486198Y-89132087D01*
X100489067Y-89124842D01*
X100490864Y-89125553D01*
X100521338Y-89074348D01*
X100546697Y-89056160D01*
X100671062Y-88988857D01*
X100723509Y-88960474D01*
X100919744Y-88807738D01*
X101088164Y-88624785D01*
X101224173Y-88416607D01*
X101224175Y-88416603D01*
X101231595Y-88399689D01*
X101276551Y-88346203D01*
X101343287Y-88325514D01*
X101345150Y-88325500D01*
X104954850Y-88325500D01*
X105021889Y-88345185D01*
X105067644Y-88397989D01*
X105068405Y-88399689D01*
X105075824Y-88416603D01*
X105211833Y-88624782D01*
X105218786Y-88632335D01*
X105380256Y-88807738D01*
X105576491Y-88960474D01*
X105628936Y-88988856D01*
X105771210Y-89065851D01*
X105795190Y-89078828D01*
X106030386Y-89159571D01*
X106275665Y-89200500D01*
X106524335Y-89200500D01*
X106769614Y-89159571D01*
X107004810Y-89078828D01*
X107223509Y-88960474D01*
X107419744Y-88807738D01*
X107588164Y-88624785D01*
X107724173Y-88416607D01*
X107824063Y-88188881D01*
X107885108Y-87947821D01*
X107885109Y-87947812D01*
X107905643Y-87700005D01*
X107905643Y-87699994D01*
X107885109Y-87452187D01*
X107885107Y-87452175D01*
X107824063Y-87211118D01*
X107724173Y-86983393D01*
X107588166Y-86775217D01*
X107566557Y-86751744D01*
X107419744Y-86592262D01*
X107223509Y-86439526D01*
X107223507Y-86439525D01*
X107223506Y-86439524D01*
X107004811Y-86321172D01*
X107004802Y-86321169D01*
X106769616Y-86240429D01*
X106524335Y-86199500D01*
X106275665Y-86199500D01*
X106275663Y-86199500D01*
X106269902Y-86200461D01*
X106200537Y-86192075D01*
X106146718Y-86147519D01*
X106125531Y-86080939D01*
X106125500Y-86078152D01*
X106125500Y-86004410D01*
X106125500Y-85882733D01*
X106127225Y-85867123D01*
X106126939Y-85867096D01*
X106127671Y-85859340D01*
X106127673Y-85859333D01*
X106125500Y-85790185D01*
X106125500Y-85760650D01*
X106124631Y-85753772D01*
X106124172Y-85747943D01*
X106122709Y-85701372D01*
X106117122Y-85682144D01*
X106113174Y-85663084D01*
X106111862Y-85652697D01*
X106110664Y-85643208D01*
X106110663Y-85643206D01*
X106110663Y-85643204D01*
X106093512Y-85599887D01*
X106091619Y-85594358D01*
X106078618Y-85549609D01*
X106078616Y-85549606D01*
X106068423Y-85532371D01*
X106059861Y-85514894D01*
X106052487Y-85496270D01*
X106047062Y-85488803D01*
X106025079Y-85458545D01*
X106021888Y-85453686D01*
X106021062Y-85452290D01*
X105998170Y-85413580D01*
X105998168Y-85413578D01*
X105998165Y-85413574D01*
X105984006Y-85399415D01*
X105971368Y-85384619D01*
X105967091Y-85378732D01*
X105959594Y-85368413D01*
X105951798Y-85361964D01*
X105923688Y-85338709D01*
X105919376Y-85334786D01*
X105050803Y-84466212D01*
X105040980Y-84453950D01*
X105040759Y-84454134D01*
X105035786Y-84448123D01*
X104985364Y-84400773D01*
X104974919Y-84390328D01*
X104964475Y-84379883D01*
X104958986Y-84375625D01*
X104954561Y-84371847D01*
X104920582Y-84339938D01*
X104920580Y-84339936D01*
X104914271Y-84335353D01*
X104916250Y-84332628D01*
X104877799Y-84293696D01*
X104862999Y-84234947D01*
X104862999Y-84174998D01*
X104862998Y-84174981D01*
X104852499Y-84072203D01*
X104852498Y-84072200D01*
X104844215Y-84047203D01*
X104797314Y-83905666D01*
X104705212Y-83756344D01*
X104581156Y-83632288D01*
X104488388Y-83575069D01*
X104431836Y-83540187D01*
X104431831Y-83540185D01*
X104400337Y-83529749D01*
X104265297Y-83485001D01*
X104265295Y-83485000D01*
X104162510Y-83474500D01*
X103262498Y-83474500D01*
X103262480Y-83474501D01*
X103159703Y-83485000D01*
X103159700Y-83485001D01*
X102993168Y-83540185D01*
X102993163Y-83540187D01*
X102843842Y-83632289D01*
X102719789Y-83756342D01*
X102627687Y-83905663D01*
X102627685Y-83905668D01*
X102599849Y-83989670D01*
X102572501Y-84072203D01*
X102572501Y-84072204D01*
X102572500Y-84072204D01*
X102562000Y-84174983D01*
X102562000Y-85525001D01*
X102562001Y-85525018D01*
X102572500Y-85627796D01*
X102572501Y-85627799D01*
X102627685Y-85794331D01*
X102627687Y-85794336D01*
X102643106Y-85819334D01*
X102719788Y-85943656D01*
X102843844Y-86067712D01*
X102993166Y-86159814D01*
X103159703Y-86214999D01*
X103262491Y-86225500D01*
X104162508Y-86225499D01*
X104162516Y-86225498D01*
X104162519Y-86225498D01*
X104218802Y-86219748D01*
X104265297Y-86214999D01*
X104431834Y-86159814D01*
X104581156Y-86067712D01*
X104644460Y-86004407D01*
X104705779Y-85970925D01*
X104775471Y-85975909D01*
X104819819Y-86004410D01*
X104838181Y-86022772D01*
X104871666Y-86084095D01*
X104874500Y-86110453D01*
X104874500Y-86950500D01*
X104854815Y-87017539D01*
X104802011Y-87063294D01*
X104750500Y-87074500D01*
X101345150Y-87074500D01*
X101278111Y-87054815D01*
X101232356Y-87002011D01*
X101231595Y-87000311D01*
X101224175Y-86983396D01*
X101088166Y-86775217D01*
X101066557Y-86751744D01*
X100919744Y-86592262D01*
X100733562Y-86447351D01*
X100692751Y-86390642D01*
X100689076Y-86320869D01*
X100723708Y-86260186D01*
X100785649Y-86227859D01*
X100809726Y-86225499D01*
X101062502Y-86225499D01*
X101062508Y-86225499D01*
X101165297Y-86214999D01*
X101331834Y-86159814D01*
X101481156Y-86067712D01*
X101605212Y-85943656D01*
X101697314Y-85794334D01*
X101752499Y-85627797D01*
X101763000Y-85525009D01*
X101762999Y-84174992D01*
X101752499Y-84072203D01*
X101697314Y-83905666D01*
X101605212Y-83756344D01*
X101481156Y-83632288D01*
X101388388Y-83575069D01*
X101331836Y-83540187D01*
X101331831Y-83540185D01*
X101300337Y-83529749D01*
X101165297Y-83485001D01*
X101165295Y-83485000D01*
X101111896Y-83479545D01*
X101047205Y-83453148D01*
X101007054Y-83395967D01*
X101000500Y-83356187D01*
X101000500Y-80300758D01*
X101020185Y-80233719D01*
X101036819Y-80213077D01*
X101054479Y-80195417D01*
X101078495Y-80171401D01*
X101214035Y-79977830D01*
X101313903Y-79763663D01*
X101375063Y-79535408D01*
X101395659Y-79300000D01*
X101375371Y-79068109D01*
X103119457Y-79068109D01*
X103139612Y-79427011D01*
X103139614Y-79427023D01*
X103199826Y-79781405D01*
X103199828Y-79781414D01*
X103299339Y-80126827D01*
X103299341Y-80126833D01*
X103387983Y-80340833D01*
X103436905Y-80458940D01*
X103610790Y-80773563D01*
X103818805Y-81066731D01*
X103818806Y-81066732D01*
X104058339Y-81334770D01*
X104194213Y-81456194D01*
X104326377Y-81574303D01*
X104598827Y-81767618D01*
X104619548Y-81782320D01*
X104934167Y-81956203D01*
X105266276Y-82093768D01*
X105611700Y-82193282D01*
X105966093Y-82253496D01*
X106325000Y-82273652D01*
X106683907Y-82253496D01*
X107038300Y-82193282D01*
X107383724Y-82093768D01*
X107715833Y-81956203D01*
X108030452Y-81782320D01*
X108323623Y-81574303D01*
X108591661Y-81334770D01*
X108831194Y-81066732D01*
X109039211Y-80773561D01*
X109213094Y-80458942D01*
X109350659Y-80126833D01*
X109450173Y-79781409D01*
X109510387Y-79427016D01*
X109530543Y-79068109D01*
X109510387Y-78709202D01*
X109450173Y-78354809D01*
X109350659Y-78009385D01*
X109213094Y-77677276D01*
X109039211Y-77362657D01*
X108928163Y-77206151D01*
X108831194Y-77069486D01*
X108774945Y-77006543D01*
X108591661Y-76801448D01*
X108323623Y-76561915D01*
X108323622Y-76561914D01*
X108030454Y-76353899D01*
X107715831Y-76180014D01*
X107501696Y-76091316D01*
X107383724Y-76042450D01*
X107383720Y-76042448D01*
X107383718Y-76042448D01*
X107038305Y-75942937D01*
X107038296Y-75942935D01*
X106683914Y-75882723D01*
X106683902Y-75882721D01*
X106350994Y-75864025D01*
X106325000Y-75862566D01*
X106324999Y-75862566D01*
X105966097Y-75882721D01*
X105966085Y-75882723D01*
X105611703Y-75942935D01*
X105611694Y-75942937D01*
X105266281Y-76042448D01*
X104934168Y-76180014D01*
X104619545Y-76353899D01*
X104326377Y-76561914D01*
X104058339Y-76801448D01*
X103818805Y-77069486D01*
X103610790Y-77362654D01*
X103436905Y-77677277D01*
X103317752Y-77964937D01*
X103300660Y-78006202D01*
X103299339Y-78009390D01*
X103199828Y-78354803D01*
X103199826Y-78354812D01*
X103139614Y-78709194D01*
X103139612Y-78709206D01*
X103119457Y-79068109D01*
X101375371Y-79068109D01*
X101375063Y-79064592D01*
X101313903Y-78836337D01*
X101214035Y-78622171D01*
X101208731Y-78614595D01*
X101078494Y-78428597D01*
X100911402Y-78261506D01*
X100911395Y-78261501D01*
X100717834Y-78125967D01*
X100717830Y-78125965D01*
X100717830Y-78125964D01*
X100503663Y-78026097D01*
X100503659Y-78026096D01*
X100503655Y-78026094D01*
X100275413Y-77964938D01*
X100275403Y-77964936D01*
X100040001Y-77944341D01*
X100039999Y-77944341D01*
X99804596Y-77964936D01*
X99804586Y-77964938D01*
X99576344Y-78026094D01*
X99576335Y-78026098D01*
X99362171Y-78125964D01*
X99362169Y-78125965D01*
X99168597Y-78261505D01*
X99001508Y-78428594D01*
X98871269Y-78614595D01*
X98816692Y-78658219D01*
X98747193Y-78665412D01*
X98684839Y-78633890D01*
X98668119Y-78614594D01*
X98538113Y-78428926D01*
X98538108Y-78428920D01*
X98371082Y-78261894D01*
X98177578Y-78126399D01*
X97963492Y-78026570D01*
X97963486Y-78026567D01*
X97750000Y-77969364D01*
X97749999Y-77969364D01*
X97749999Y-78687698D01*
X97730314Y-78754738D01*
X97677510Y-78800492D01*
X97608353Y-78810436D01*
X97535764Y-78800000D01*
X97535763Y-78800000D01*
X97464237Y-78800000D01*
X97464233Y-78800000D01*
X97391645Y-78810436D01*
X97322487Y-78800492D01*
X97269684Y-78754736D01*
X97250000Y-78687698D01*
X97250000Y-77969364D01*
X97249999Y-77969364D01*
X97036513Y-78026567D01*
X97036507Y-78026570D01*
X96822422Y-78126399D01*
X96822420Y-78126400D01*
X96628926Y-78261886D01*
X96628920Y-78261891D01*
X96461891Y-78428920D01*
X96461890Y-78428922D01*
X96331880Y-78614595D01*
X96277303Y-78658219D01*
X96207804Y-78665412D01*
X96145450Y-78633890D01*
X96128730Y-78614594D01*
X95998494Y-78428597D01*
X95831402Y-78261506D01*
X95831395Y-78261501D01*
X95637834Y-78125967D01*
X95637830Y-78125965D01*
X95637829Y-78125964D01*
X95423663Y-78026097D01*
X95423659Y-78026096D01*
X95423655Y-78026094D01*
X95195413Y-77964938D01*
X95195403Y-77964936D01*
X94960001Y-77944341D01*
X94959999Y-77944341D01*
X94724596Y-77964936D01*
X94724586Y-77964938D01*
X94496344Y-78026094D01*
X94496335Y-78026098D01*
X94282171Y-78125964D01*
X94282169Y-78125965D01*
X94088597Y-78261505D01*
X93921505Y-78428597D01*
X93791575Y-78614158D01*
X93736998Y-78657783D01*
X93667500Y-78664977D01*
X93605145Y-78633454D01*
X93588425Y-78614158D01*
X93458494Y-78428597D01*
X93291402Y-78261506D01*
X93291395Y-78261501D01*
X93097834Y-78125967D01*
X93097830Y-78125965D01*
X93097829Y-78125964D01*
X92883663Y-78026097D01*
X92883659Y-78026096D01*
X92883655Y-78026094D01*
X92655413Y-77964938D01*
X92655403Y-77964936D01*
X92420001Y-77944341D01*
X92419999Y-77944341D01*
X92184596Y-77964936D01*
X92184586Y-77964938D01*
X91956344Y-78026094D01*
X91956335Y-78026098D01*
X91742171Y-78125964D01*
X91742169Y-78125965D01*
X91548597Y-78261505D01*
X91381505Y-78428597D01*
X91251575Y-78614158D01*
X91196998Y-78657783D01*
X91127500Y-78664977D01*
X91065145Y-78633454D01*
X91048425Y-78614158D01*
X90918494Y-78428597D01*
X90751402Y-78261506D01*
X90751395Y-78261501D01*
X90557834Y-78125967D01*
X90557830Y-78125965D01*
X90557829Y-78125964D01*
X90343663Y-78026097D01*
X90343659Y-78026096D01*
X90343655Y-78026094D01*
X90115413Y-77964938D01*
X90115403Y-77964936D01*
X89880001Y-77944341D01*
X89879999Y-77944341D01*
X89644596Y-77964936D01*
X89644586Y-77964938D01*
X89416344Y-78026094D01*
X89416335Y-78026098D01*
X89202171Y-78125964D01*
X89202169Y-78125965D01*
X89008597Y-78261505D01*
X88841505Y-78428597D01*
X88711575Y-78614158D01*
X88656998Y-78657783D01*
X88587500Y-78664977D01*
X88525145Y-78633454D01*
X88508425Y-78614158D01*
X88378494Y-78428597D01*
X88211402Y-78261506D01*
X88211395Y-78261501D01*
X88017834Y-78125967D01*
X88017830Y-78125965D01*
X88017830Y-78125964D01*
X87803663Y-78026097D01*
X87803659Y-78026096D01*
X87803655Y-78026094D01*
X87575413Y-77964938D01*
X87575403Y-77964936D01*
X87340001Y-77944341D01*
X87339999Y-77944341D01*
X87104596Y-77964936D01*
X87104586Y-77964938D01*
X86876344Y-78026094D01*
X86876335Y-78026098D01*
X86662171Y-78125964D01*
X86662169Y-78125965D01*
X86468597Y-78261505D01*
X86301505Y-78428597D01*
X86171575Y-78614158D01*
X86116998Y-78657783D01*
X86047500Y-78664977D01*
X85985145Y-78633454D01*
X85968425Y-78614158D01*
X85838494Y-78428597D01*
X85671402Y-78261506D01*
X85671395Y-78261501D01*
X85477834Y-78125967D01*
X85477830Y-78125965D01*
X85477829Y-78125964D01*
X85263663Y-78026097D01*
X85263659Y-78026096D01*
X85263655Y-78026094D01*
X85035413Y-77964938D01*
X85035403Y-77964936D01*
X84800001Y-77944341D01*
X84799999Y-77944341D01*
X84564596Y-77964936D01*
X84564586Y-77964938D01*
X84336344Y-78026094D01*
X84336335Y-78026098D01*
X84122171Y-78125964D01*
X84122169Y-78125965D01*
X83928597Y-78261505D01*
X83761505Y-78428597D01*
X83631575Y-78614158D01*
X83576998Y-78657783D01*
X83507500Y-78664977D01*
X83445145Y-78633454D01*
X83428425Y-78614158D01*
X83298494Y-78428597D01*
X83131402Y-78261506D01*
X83131395Y-78261501D01*
X82937834Y-78125967D01*
X82937830Y-78125965D01*
X82937829Y-78125964D01*
X82723663Y-78026097D01*
X82723659Y-78026096D01*
X82723655Y-78026094D01*
X82495413Y-77964938D01*
X82495403Y-77964936D01*
X82260001Y-77944341D01*
X82259999Y-77944341D01*
X82024596Y-77964936D01*
X82024586Y-77964938D01*
X81796344Y-78026094D01*
X81796335Y-78026098D01*
X81582171Y-78125964D01*
X81582169Y-78125965D01*
X81388597Y-78261505D01*
X81221505Y-78428597D01*
X81091575Y-78614158D01*
X81036998Y-78657783D01*
X80967500Y-78664977D01*
X80905145Y-78633454D01*
X80888425Y-78614158D01*
X80758494Y-78428597D01*
X80591402Y-78261506D01*
X80591395Y-78261501D01*
X80397834Y-78125967D01*
X80397830Y-78125965D01*
X80397830Y-78125964D01*
X80183663Y-78026097D01*
X80183659Y-78026096D01*
X80183655Y-78026094D01*
X79955413Y-77964938D01*
X79955403Y-77964936D01*
X79720001Y-77944341D01*
X79719999Y-77944341D01*
X79484596Y-77964936D01*
X79484586Y-77964938D01*
X79256344Y-78026094D01*
X79256335Y-78026098D01*
X79042171Y-78125964D01*
X79042169Y-78125965D01*
X78848597Y-78261505D01*
X78681505Y-78428597D01*
X78551575Y-78614158D01*
X78496998Y-78657783D01*
X78427500Y-78664977D01*
X78365145Y-78633454D01*
X78348425Y-78614158D01*
X78218494Y-78428597D01*
X78051402Y-78261506D01*
X78051395Y-78261501D01*
X77857834Y-78125967D01*
X77857830Y-78125965D01*
X77857829Y-78125964D01*
X77643663Y-78026097D01*
X77643659Y-78026096D01*
X77643655Y-78026094D01*
X77415413Y-77964938D01*
X77415403Y-77964936D01*
X77180001Y-77944341D01*
X77179999Y-77944341D01*
X76944596Y-77964936D01*
X76944586Y-77964938D01*
X76716344Y-78026094D01*
X76716335Y-78026098D01*
X76502171Y-78125964D01*
X76502169Y-78125965D01*
X76308600Y-78261503D01*
X76186673Y-78383430D01*
X76125350Y-78416914D01*
X76055658Y-78411930D01*
X75999725Y-78370058D01*
X75982810Y-78339081D01*
X75933797Y-78207671D01*
X75933793Y-78207664D01*
X75847547Y-78092455D01*
X75847544Y-78092452D01*
X75732335Y-78006206D01*
X75732328Y-78006202D01*
X75597482Y-77955908D01*
X75597483Y-77955908D01*
X75537883Y-77949501D01*
X75537881Y-77949500D01*
X75537873Y-77949500D01*
X75537864Y-77949500D01*
X73742129Y-77949500D01*
X73742123Y-77949501D01*
X73682516Y-77955908D01*
X73547671Y-78006202D01*
X73547664Y-78006206D01*
X73432455Y-78092452D01*
X73432452Y-78092455D01*
X73346206Y-78207664D01*
X73346202Y-78207671D01*
X73295908Y-78342517D01*
X73289501Y-78402116D01*
X73289500Y-78402135D01*
X73289500Y-80197870D01*
X73289501Y-80197876D01*
X73295908Y-80257483D01*
X73346202Y-80392328D01*
X73346206Y-80392335D01*
X73432452Y-80507544D01*
X73432455Y-80507547D01*
X73547664Y-80593793D01*
X73547671Y-80593797D01*
X73682517Y-80644091D01*
X73682516Y-80644091D01*
X73689444Y-80644835D01*
X73742127Y-80650500D01*
X75537872Y-80650499D01*
X75597483Y-80644091D01*
X75732331Y-80593796D01*
X75847546Y-80507546D01*
X75933796Y-80392331D01*
X75982810Y-80260916D01*
X76024681Y-80204984D01*
X76090145Y-80180566D01*
X76158418Y-80195417D01*
X76186673Y-80216569D01*
X76308599Y-80338495D01*
X76405384Y-80406264D01*
X76502165Y-80474032D01*
X76502167Y-80474033D01*
X76502170Y-80474035D01*
X76716337Y-80573903D01*
X76944592Y-80635063D01*
X77121034Y-80650500D01*
X77179999Y-80655659D01*
X77180000Y-80655659D01*
X77180001Y-80655659D01*
X77238966Y-80650500D01*
X77415408Y-80635063D01*
X77643663Y-80573903D01*
X77857830Y-80474035D01*
X78051401Y-80338495D01*
X78218495Y-80171401D01*
X78348426Y-79985841D01*
X78403002Y-79942217D01*
X78472500Y-79935023D01*
X78534855Y-79966546D01*
X78551575Y-79985842D01*
X78681500Y-80171395D01*
X78681505Y-80171401D01*
X78848599Y-80338495D01*
X78945384Y-80406264D01*
X79042165Y-80474032D01*
X79042167Y-80474033D01*
X79042170Y-80474035D01*
X79256337Y-80573903D01*
X79484592Y-80635063D01*
X79661034Y-80650500D01*
X79719999Y-80655659D01*
X79720000Y-80655659D01*
X79720001Y-80655659D01*
X79778966Y-80650500D01*
X79955408Y-80635063D01*
X80183663Y-80573903D01*
X80397830Y-80474035D01*
X80591401Y-80338495D01*
X80758495Y-80171401D01*
X80888426Y-79985840D01*
X80943001Y-79942217D01*
X81012499Y-79935023D01*
X81074854Y-79966546D01*
X81091574Y-79985841D01*
X81221505Y-80171401D01*
X81388599Y-80338495D01*
X81485384Y-80406264D01*
X81582165Y-80474032D01*
X81582167Y-80474033D01*
X81582170Y-80474035D01*
X81796337Y-80573903D01*
X82024592Y-80635063D01*
X82201034Y-80650500D01*
X82259999Y-80655659D01*
X82260000Y-80655659D01*
X82260001Y-80655659D01*
X82318966Y-80650500D01*
X82495408Y-80635063D01*
X82723663Y-80573903D01*
X82937830Y-80474035D01*
X83131401Y-80338495D01*
X83298495Y-80171401D01*
X83428426Y-79985840D01*
X83483001Y-79942217D01*
X83552499Y-79935023D01*
X83614854Y-79966546D01*
X83631574Y-79985841D01*
X83761505Y-80171401D01*
X83928599Y-80338495D01*
X84025384Y-80406264D01*
X84122165Y-80474032D01*
X84122167Y-80474033D01*
X84122170Y-80474035D01*
X84336337Y-80573903D01*
X84564592Y-80635063D01*
X84741034Y-80650500D01*
X84799999Y-80655659D01*
X84800000Y-80655659D01*
X84800001Y-80655659D01*
X84858966Y-80650500D01*
X85035408Y-80635063D01*
X85263663Y-80573903D01*
X85477830Y-80474035D01*
X85671401Y-80338495D01*
X85838495Y-80171401D01*
X85968426Y-79985840D01*
X86023001Y-79942217D01*
X86092499Y-79935023D01*
X86154854Y-79966546D01*
X86171574Y-79985841D01*
X86301505Y-80171401D01*
X86468599Y-80338495D01*
X86565384Y-80406264D01*
X86662165Y-80474032D01*
X86662167Y-80474033D01*
X86662170Y-80474035D01*
X86876337Y-80573903D01*
X87104592Y-80635063D01*
X87281034Y-80650500D01*
X87339999Y-80655659D01*
X87340000Y-80655659D01*
X87340001Y-80655659D01*
X87398966Y-80650500D01*
X87575408Y-80635063D01*
X87803663Y-80573903D01*
X88017830Y-80474035D01*
X88211401Y-80338495D01*
X88378495Y-80171401D01*
X88508426Y-79985840D01*
X88563001Y-79942217D01*
X88632499Y-79935023D01*
X88694854Y-79966546D01*
X88711574Y-79985841D01*
X88841505Y-80171401D01*
X89008599Y-80338495D01*
X89105384Y-80406264D01*
X89202165Y-80474032D01*
X89202167Y-80474033D01*
X89202170Y-80474035D01*
X89416337Y-80573903D01*
X89644592Y-80635063D01*
X89821034Y-80650500D01*
X89879999Y-80655659D01*
X89880000Y-80655659D01*
X89880001Y-80655659D01*
X89938966Y-80650500D01*
X90115408Y-80635063D01*
X90343663Y-80573903D01*
X90557830Y-80474035D01*
X90751401Y-80338495D01*
X90918495Y-80171401D01*
X91048426Y-79985840D01*
X91103001Y-79942217D01*
X91172499Y-79935023D01*
X91234854Y-79966546D01*
X91251574Y-79985841D01*
X91381505Y-80171401D01*
X91548599Y-80338495D01*
X91645384Y-80406264D01*
X91742165Y-80474032D01*
X91742167Y-80474033D01*
X91742170Y-80474035D01*
X91956337Y-80573903D01*
X92184592Y-80635063D01*
X92361034Y-80650500D01*
X92419999Y-80655659D01*
X92420000Y-80655659D01*
X92420001Y-80655659D01*
X92478966Y-80650500D01*
X92655408Y-80635063D01*
X92883663Y-80573903D01*
X93097830Y-80474035D01*
X93291401Y-80338495D01*
X93458495Y-80171401D01*
X93588426Y-79985840D01*
X93643001Y-79942217D01*
X93712499Y-79935023D01*
X93774854Y-79966546D01*
X93791574Y-79985841D01*
X93921505Y-80171401D01*
X94088599Y-80338495D01*
X94185384Y-80406264D01*
X94282165Y-80474032D01*
X94282167Y-80474033D01*
X94282170Y-80474035D01*
X94496337Y-80573903D01*
X94724592Y-80635063D01*
X94901034Y-80650500D01*
X94959999Y-80655659D01*
X94960000Y-80655659D01*
X94960001Y-80655659D01*
X95018966Y-80650500D01*
X95195408Y-80635063D01*
X95423663Y-80573903D01*
X95637830Y-80474035D01*
X95831401Y-80338495D01*
X95998495Y-80171401D01*
X96128730Y-79985405D01*
X96183307Y-79941781D01*
X96252805Y-79934587D01*
X96315160Y-79966110D01*
X96331879Y-79985405D01*
X96461890Y-80171078D01*
X96628917Y-80338105D01*
X96822421Y-80473600D01*
X97036507Y-80573429D01*
X97036516Y-80573433D01*
X97250000Y-80630634D01*
X97250000Y-79912301D01*
X97269685Y-79845262D01*
X97322489Y-79799507D01*
X97391647Y-79789563D01*
X97464237Y-79800000D01*
X97464238Y-79800000D01*
X97535762Y-79800000D01*
X97535763Y-79800000D01*
X97608352Y-79789563D01*
X97677510Y-79799507D01*
X97730314Y-79845261D01*
X97749999Y-79912301D01*
X97749999Y-80630634D01*
X97963483Y-80573433D01*
X97963492Y-80573429D01*
X98177578Y-80473600D01*
X98371082Y-80338105D01*
X98538105Y-80171082D01*
X98668119Y-79985405D01*
X98722696Y-79941781D01*
X98792195Y-79934588D01*
X98854549Y-79966110D01*
X98871269Y-79985405D01*
X99001505Y-80171401D01*
X99168599Y-80338495D01*
X99265384Y-80406264D01*
X99362165Y-80474032D01*
X99362167Y-80474033D01*
X99362170Y-80474035D01*
X99576337Y-80573903D01*
X99576342Y-80573904D01*
X99576346Y-80573906D01*
X99607592Y-80582278D01*
X99667253Y-80618642D01*
X99697783Y-80681489D01*
X99699500Y-80702053D01*
X99699500Y-83625268D01*
X99679815Y-83692307D01*
X99663182Y-83712948D01*
X99619788Y-83756342D01*
X99556998Y-83858142D01*
X99505050Y-83904867D01*
X99436088Y-83916088D01*
X99372006Y-83888245D01*
X99345921Y-83858142D01*
X99267712Y-83731344D01*
X99143656Y-83607288D01*
X98994334Y-83515186D01*
X98994332Y-83515185D01*
X98994330Y-83515184D01*
X98987789Y-83512134D01*
X98988775Y-83510019D01*
X98940538Y-83476610D01*
X98913726Y-83412089D01*
X98913000Y-83398693D01*
X98913000Y-83398003D01*
X98914768Y-83381991D01*
X98914526Y-83381969D01*
X98915260Y-83374206D01*
X98913000Y-83302282D01*
X98913000Y-83271578D01*
X98913000Y-83271575D01*
X98912079Y-83264292D01*
X98911623Y-83258487D01*
X98910098Y-83209931D01*
X98904176Y-83189550D01*
X98900231Y-83170495D01*
X98897572Y-83149449D01*
X98897571Y-83149448D01*
X98897571Y-83149442D01*
X98879689Y-83104279D01*
X98877800Y-83098759D01*
X98868299Y-83066058D01*
X98864245Y-83052102D01*
X98860828Y-83046324D01*
X98853436Y-83033824D01*
X98844878Y-83016355D01*
X98837068Y-82996629D01*
X98808506Y-82957318D01*
X98805318Y-82952464D01*
X98780581Y-82910635D01*
X98765574Y-82895628D01*
X98752935Y-82880830D01*
X98749544Y-82876163D01*
X98740463Y-82863663D01*
X98740461Y-82863660D01*
X98703028Y-82832694D01*
X98698706Y-82828760D01*
X97820434Y-81950488D01*
X97810361Y-81937914D01*
X97810174Y-81938070D01*
X97805201Y-81932059D01*
X97752756Y-81882810D01*
X97731035Y-81861089D01*
X97728761Y-81859325D01*
X97725235Y-81856589D01*
X97720798Y-81852799D01*
X97685396Y-81819554D01*
X97685388Y-81819548D01*
X97666792Y-81809325D01*
X97650531Y-81798644D01*
X97633763Y-81785637D01*
X97610180Y-81775432D01*
X97589178Y-81766343D01*
X97583956Y-81763786D01*
X97541368Y-81740373D01*
X97541365Y-81740372D01*
X97520801Y-81735092D01*
X97502396Y-81728790D01*
X97482927Y-81720365D01*
X97482921Y-81720363D01*
X97434951Y-81712766D01*
X97429236Y-81711582D01*
X97412772Y-81707355D01*
X97382180Y-81699500D01*
X97382177Y-81699500D01*
X97360955Y-81699500D01*
X97341555Y-81697973D01*
X97320596Y-81694653D01*
X97320595Y-81694653D01*
X97296786Y-81696903D01*
X97272230Y-81699225D01*
X97266392Y-81699500D01*
X93635504Y-81699500D01*
X93619493Y-81697732D01*
X93619471Y-81697974D01*
X93611704Y-81697240D01*
X93611703Y-81697240D01*
X93539796Y-81699500D01*
X93509075Y-81699500D01*
X93509071Y-81699500D01*
X93509061Y-81699501D01*
X93501793Y-81700419D01*
X93495976Y-81700876D01*
X93447435Y-81702402D01*
X93447424Y-81702404D01*
X93427048Y-81708323D01*
X93408008Y-81712266D01*
X93386947Y-81714927D01*
X93386939Y-81714929D01*
X93341775Y-81732811D01*
X93336247Y-81734703D01*
X93289602Y-81748255D01*
X93271332Y-81759060D01*
X93253863Y-81767618D01*
X93234128Y-81775432D01*
X93234126Y-81775433D01*
X93194839Y-81803977D01*
X93189956Y-81807184D01*
X93148132Y-81831919D01*
X93133126Y-81846926D01*
X93118336Y-81859558D01*
X93101167Y-81872032D01*
X93101165Y-81872034D01*
X93070194Y-81909470D01*
X93066262Y-81913791D01*
X92687680Y-82292372D01*
X92626357Y-82325857D01*
X92556665Y-82320873D01*
X92512318Y-82292372D01*
X92170434Y-81950488D01*
X92160361Y-81937914D01*
X92160174Y-81938070D01*
X92155201Y-81932059D01*
X92102756Y-81882810D01*
X92081035Y-81861089D01*
X92078761Y-81859325D01*
X92075235Y-81856589D01*
X92070798Y-81852799D01*
X92035396Y-81819554D01*
X92035388Y-81819548D01*
X92016792Y-81809325D01*
X92000531Y-81798644D01*
X91983763Y-81785637D01*
X91960180Y-81775432D01*
X91939178Y-81766343D01*
X91933956Y-81763786D01*
X91891368Y-81740373D01*
X91891365Y-81740372D01*
X91870801Y-81735092D01*
X91852396Y-81728790D01*
X91832927Y-81720365D01*
X91832921Y-81720363D01*
X91784951Y-81712766D01*
X91779236Y-81711582D01*
X91762772Y-81707355D01*
X91732180Y-81699500D01*
X91732177Y-81699500D01*
X91710955Y-81699500D01*
X91691555Y-81697973D01*
X91670596Y-81694653D01*
X91670595Y-81694653D01*
X91646786Y-81696903D01*
X91622230Y-81699225D01*
X91616392Y-81699500D01*
X85335506Y-81699500D01*
X85319495Y-81697732D01*
X85319473Y-81697974D01*
X85311706Y-81697239D01*
X85239783Y-81699500D01*
X85209075Y-81699500D01*
X85209071Y-81699500D01*
X85209060Y-81699501D01*
X85201804Y-81700417D01*
X85195986Y-81700875D01*
X85147433Y-81702401D01*
X85132873Y-81706630D01*
X85127040Y-81708325D01*
X85107996Y-81712269D01*
X85086942Y-81714929D01*
X85086940Y-81714929D01*
X85041781Y-81732808D01*
X85036255Y-81734700D01*
X84989601Y-81748254D01*
X84971325Y-81759063D01*
X84953860Y-81767619D01*
X84934124Y-81775433D01*
X84894824Y-81803986D01*
X84889942Y-81807193D01*
X84848136Y-81831917D01*
X84833124Y-81846929D01*
X84818336Y-81859558D01*
X84801167Y-81872032D01*
X84801165Y-81872034D01*
X84770194Y-81909470D01*
X84766262Y-81913791D01*
X83850483Y-82829569D01*
X83837910Y-82839643D01*
X83838065Y-82839830D01*
X83832059Y-82844798D01*
X83807434Y-82871020D01*
X83782809Y-82897244D01*
X83771949Y-82908104D01*
X83761088Y-82918965D01*
X83761078Y-82918977D01*
X83756587Y-82924765D01*
X83752801Y-82929197D01*
X83719552Y-82964606D01*
X83709322Y-82983213D01*
X83698646Y-82999464D01*
X83685640Y-83016232D01*
X83685636Y-83016238D01*
X83666348Y-83060811D01*
X83663777Y-83066058D01*
X83640372Y-83108630D01*
X83640372Y-83108631D01*
X83635091Y-83129199D01*
X83628791Y-83147601D01*
X83620364Y-83167073D01*
X83612766Y-83215047D01*
X83611581Y-83220770D01*
X83599500Y-83267818D01*
X83599500Y-83289044D01*
X83597973Y-83308444D01*
X83594653Y-83329403D01*
X83594652Y-83329406D01*
X83595485Y-83338211D01*
X83582195Y-83406805D01*
X83533931Y-83457325D01*
X83524443Y-83462259D01*
X83518167Y-83465185D01*
X83368842Y-83557289D01*
X83244788Y-83681343D01*
X83244785Y-83681347D01*
X83152617Y-83830775D01*
X83100669Y-83877500D01*
X83031707Y-83888721D01*
X82967625Y-83860878D01*
X82941541Y-83830775D01*
X82880212Y-83731344D01*
X82756156Y-83607288D01*
X82606834Y-83515186D01*
X82606832Y-83515185D01*
X82606830Y-83515184D01*
X82600289Y-83512134D01*
X82601483Y-83509572D01*
X82554676Y-83477162D01*
X82527855Y-83412645D01*
X82527679Y-83387555D01*
X82527757Y-83386714D01*
X82527760Y-83386704D01*
X82525500Y-83314782D01*
X82525500Y-83284075D01*
X82524579Y-83276792D01*
X82524123Y-83270987D01*
X82524024Y-83267823D01*
X82522598Y-83222431D01*
X82516676Y-83202050D01*
X82512731Y-83182995D01*
X82510072Y-83161949D01*
X82510071Y-83161948D01*
X82510071Y-83161942D01*
X82492189Y-83116779D01*
X82490300Y-83111259D01*
X82483199Y-83086819D01*
X82476745Y-83064602D01*
X82470081Y-83053334D01*
X82465936Y-83046324D01*
X82457378Y-83028855D01*
X82449568Y-83009129D01*
X82421006Y-82969818D01*
X82417818Y-82964964D01*
X82393081Y-82923135D01*
X82378075Y-82908129D01*
X82365435Y-82893330D01*
X82352961Y-82876160D01*
X82315528Y-82845194D01*
X82311206Y-82841260D01*
X81470434Y-82000488D01*
X81460361Y-81987914D01*
X81460174Y-81988070D01*
X81455201Y-81982059D01*
X81402756Y-81932810D01*
X81381035Y-81911089D01*
X81375240Y-81906594D01*
X81370798Y-81902799D01*
X81335396Y-81869554D01*
X81335388Y-81869548D01*
X81316792Y-81859325D01*
X81300531Y-81848644D01*
X81283763Y-81835637D01*
X81260180Y-81825432D01*
X81239178Y-81816343D01*
X81233956Y-81813786D01*
X81191368Y-81790373D01*
X81191365Y-81790372D01*
X81170801Y-81785092D01*
X81152396Y-81778790D01*
X81132927Y-81770365D01*
X81132921Y-81770363D01*
X81084951Y-81762766D01*
X81079236Y-81761582D01*
X81062772Y-81757355D01*
X81032180Y-81749500D01*
X81032177Y-81749500D01*
X81010955Y-81749500D01*
X80991555Y-81747973D01*
X80970596Y-81744653D01*
X80970595Y-81744653D01*
X80946786Y-81746903D01*
X80922230Y-81749225D01*
X80916392Y-81749500D01*
X77285506Y-81749500D01*
X77269495Y-81747732D01*
X77269473Y-81747974D01*
X77261706Y-81747239D01*
X77189783Y-81749500D01*
X77159075Y-81749500D01*
X77159071Y-81749500D01*
X77159060Y-81749501D01*
X77151804Y-81750417D01*
X77145986Y-81750875D01*
X77097433Y-81752401D01*
X77082873Y-81756630D01*
X77077040Y-81758325D01*
X77057996Y-81762269D01*
X77036942Y-81764929D01*
X77036940Y-81764929D01*
X76991781Y-81782808D01*
X76986255Y-81784700D01*
X76939601Y-81798254D01*
X76921325Y-81809063D01*
X76903860Y-81817619D01*
X76884124Y-81825433D01*
X76844824Y-81853986D01*
X76839942Y-81857193D01*
X76798136Y-81881917D01*
X76783124Y-81896929D01*
X76768336Y-81909558D01*
X76751167Y-81922032D01*
X76751165Y-81922034D01*
X76720194Y-81959470D01*
X76716262Y-81963791D01*
X75848014Y-82832038D01*
X75786691Y-82865523D01*
X75716999Y-82860539D01*
X75661066Y-82818667D01*
X75642741Y-82778364D01*
X75641636Y-82778731D01*
X75584358Y-82605880D01*
X75584356Y-82605875D01*
X75492315Y-82456654D01*
X75368345Y-82332684D01*
X75219124Y-82240643D01*
X75219119Y-82240641D01*
X75052697Y-82185494D01*
X75052690Y-82185493D01*
X74949986Y-82175000D01*
X72775000Y-82175000D01*
X72775000Y-92574999D01*
X74949972Y-92574999D01*
X74949986Y-92574998D01*
X75052697Y-92564505D01*
X75219119Y-92509358D01*
X75219130Y-92509353D01*
X75360403Y-92422215D01*
X75427795Y-92403774D01*
X75494459Y-92424696D01*
X75539229Y-92478338D01*
X75549500Y-92527753D01*
X75549500Y-99029191D01*
X75529815Y-99096230D01*
X75513181Y-99116872D01*
X74916873Y-99713181D01*
X74855550Y-99746666D01*
X74829192Y-99749500D01*
X68882635Y-99749500D01*
X68815596Y-99729815D01*
X68794954Y-99713181D01*
X68736819Y-99655046D01*
X68703334Y-99593723D01*
X68700500Y-99567365D01*
X68700500Y-99309797D01*
X68720185Y-99242758D01*
X68759403Y-99204258D01*
X68818656Y-99167712D01*
X68818660Y-99167708D01*
X68823502Y-99163881D01*
X68888299Y-99137744D01*
X68956940Y-99150789D01*
X68977317Y-99163886D01*
X68981653Y-99167314D01*
X69130875Y-99259356D01*
X69130880Y-99259358D01*
X69297302Y-99314505D01*
X69297309Y-99314506D01*
X69400019Y-99324999D01*
X70000000Y-99324999D01*
X70099972Y-99324999D01*
X70099986Y-99324998D01*
X70202697Y-99314505D01*
X70369119Y-99259358D01*
X70369124Y-99259356D01*
X70518346Y-99167314D01*
X70522683Y-99163886D01*
X70587479Y-99137745D01*
X70656121Y-99150786D01*
X70676503Y-99163884D01*
X70681342Y-99167710D01*
X70681344Y-99167712D01*
X70830666Y-99259814D01*
X70997203Y-99314999D01*
X71099991Y-99325500D01*
X71800008Y-99325499D01*
X71800016Y-99325498D01*
X71800019Y-99325498D01*
X71856302Y-99319748D01*
X71902797Y-99314999D01*
X72069334Y-99259814D01*
X72218656Y-99167712D01*
X72218664Y-99167703D01*
X72223085Y-99164209D01*
X72287879Y-99138066D01*
X72356522Y-99151103D01*
X72376915Y-99164209D01*
X72381339Y-99167707D01*
X72381344Y-99167712D01*
X72530666Y-99259814D01*
X72697203Y-99314999D01*
X72799991Y-99325500D01*
X73500008Y-99325499D01*
X73500016Y-99325498D01*
X73500019Y-99325498D01*
X73556302Y-99319748D01*
X73602797Y-99314999D01*
X73769334Y-99259814D01*
X73918656Y-99167712D01*
X74042712Y-99043656D01*
X74134814Y-98894334D01*
X74189999Y-98727797D01*
X74200500Y-98625009D01*
X74200499Y-94424992D01*
X74200280Y-94422853D01*
X74189999Y-94322203D01*
X74189998Y-94322200D01*
X74172132Y-94268284D01*
X74134814Y-94155666D01*
X74042712Y-94006344D01*
X73918656Y-93882288D01*
X73769334Y-93790186D01*
X73602797Y-93735001D01*
X73602795Y-93735000D01*
X73500010Y-93724500D01*
X72799998Y-93724500D01*
X72799980Y-93724501D01*
X72697203Y-93735000D01*
X72697200Y-93735001D01*
X72530668Y-93790185D01*
X72530663Y-93790187D01*
X72381342Y-93882289D01*
X72376909Y-93885795D01*
X72312113Y-93911934D01*
X72243471Y-93898892D01*
X72223091Y-93885795D01*
X72218657Y-93882289D01*
X72218656Y-93882288D01*
X72069334Y-93790186D01*
X71902797Y-93735001D01*
X71902795Y-93735000D01*
X71800010Y-93724500D01*
X71099998Y-93724500D01*
X71099980Y-93724501D01*
X70997203Y-93735000D01*
X70997200Y-93735001D01*
X70830668Y-93790185D01*
X70830663Y-93790187D01*
X70726157Y-93854646D01*
X70681344Y-93882288D01*
X70681343Y-93882288D01*
X70681330Y-93882297D01*
X70676487Y-93886126D01*
X70611687Y-93912256D01*
X70543047Y-93899204D01*
X70522683Y-93886114D01*
X70518346Y-93882684D01*
X70369124Y-93790643D01*
X70369119Y-93790641D01*
X70202697Y-93735494D01*
X70202690Y-93735493D01*
X70099986Y-93725000D01*
X70000000Y-93725000D01*
X70000000Y-99324999D01*
X69400019Y-99324999D01*
X69500000Y-99324998D01*
X69500000Y-93724999D01*
X69400028Y-93725000D01*
X69400012Y-93725001D01*
X69297302Y-93735494D01*
X69130880Y-93790641D01*
X69130875Y-93790643D01*
X68981649Y-93882687D01*
X68977305Y-93886122D01*
X68912507Y-93912255D01*
X68843866Y-93899207D01*
X68823497Y-93886116D01*
X68818660Y-93882292D01*
X68818656Y-93882288D01*
X68669334Y-93790186D01*
X68502797Y-93735001D01*
X68502795Y-93735000D01*
X68400010Y-93724500D01*
X67699998Y-93724500D01*
X67699980Y-93724501D01*
X67597203Y-93735000D01*
X67597200Y-93735001D01*
X67430668Y-93790185D01*
X67430663Y-93790187D01*
X67281342Y-93882289D01*
X67276909Y-93885795D01*
X67212113Y-93911934D01*
X67143471Y-93898892D01*
X67123091Y-93885795D01*
X67118657Y-93882289D01*
X67118656Y-93882288D01*
X66969334Y-93790186D01*
X66802797Y-93735001D01*
X66802795Y-93735000D01*
X66700010Y-93724500D01*
X65999998Y-93724500D01*
X65999980Y-93724501D01*
X65897203Y-93735000D01*
X65897200Y-93735001D01*
X65730668Y-93790185D01*
X65730663Y-93790187D01*
X65581342Y-93882289D01*
X65457289Y-94006342D01*
X65365187Y-94155663D01*
X65365185Y-94155666D01*
X65365186Y-94155666D01*
X65310001Y-94322203D01*
X65310001Y-94322204D01*
X65310000Y-94322204D01*
X65299500Y-94424983D01*
X65299500Y-98625001D01*
X65299501Y-98625018D01*
X65310000Y-98727796D01*
X65310001Y-98727799D01*
X65365185Y-98894331D01*
X65365187Y-98894336D01*
X65368770Y-98900145D01*
X65457288Y-99043656D01*
X65530504Y-99116872D01*
X65563181Y-99149549D01*
X65596665Y-99210872D01*
X65599499Y-99237230D01*
X65599499Y-101375500D01*
X65579814Y-101442539D01*
X65527010Y-101488294D01*
X65475500Y-101499500D01*
X65352130Y-101499500D01*
X65352123Y-101499501D01*
X65292516Y-101505908D01*
X65157671Y-101556202D01*
X65157664Y-101556206D01*
X65042455Y-101642452D01*
X65042452Y-101642455D01*
X64956206Y-101757664D01*
X64956202Y-101757671D01*
X64905908Y-101892517D01*
X64899501Y-101952116D01*
X64899499Y-101952135D01*
X64899499Y-102337769D01*
X64879814Y-102404809D01*
X64863180Y-102425450D01*
X63564358Y-103724272D01*
X63550729Y-103736051D01*
X63531468Y-103750390D01*
X63497898Y-103790397D01*
X63494253Y-103794376D01*
X63488409Y-103800222D01*
X63468059Y-103825959D01*
X63418695Y-103884789D01*
X63414729Y-103890819D01*
X63414682Y-103890788D01*
X63410630Y-103897147D01*
X63410679Y-103897177D01*
X63406889Y-103903321D01*
X63374424Y-103972941D01*
X63339960Y-104041566D01*
X63337488Y-104048357D01*
X63337432Y-104048336D01*
X63334960Y-104055450D01*
X63335015Y-104055469D01*
X63332742Y-104062327D01*
X63324974Y-104099945D01*
X63317207Y-104137565D01*
X63305068Y-104188785D01*
X63299498Y-104212286D01*
X63298661Y-104219454D01*
X63298601Y-104219447D01*
X63297835Y-104226945D01*
X63297895Y-104226951D01*
X63297265Y-104234140D01*
X63299500Y-104310916D01*
X63299499Y-107286298D01*
X63298190Y-107304268D01*
X63294711Y-107328020D01*
X63294710Y-107328027D01*
X63299264Y-107380063D01*
X63299500Y-107385470D01*
X63299500Y-107562279D01*
X63299499Y-108010655D01*
X63297836Y-108026945D01*
X63297895Y-108026951D01*
X63297265Y-108034140D01*
X63299500Y-108110916D01*
X63299500Y-108360655D01*
X63297835Y-108376946D01*
X63297895Y-108376952D01*
X63297265Y-108384141D01*
X63299499Y-108460916D01*
X63299499Y-113736294D01*
X63298191Y-113754259D01*
X63294710Y-113778027D01*
X62695556Y-113778027D01*
X62682046Y-90050000D01*
X63850001Y-90050000D01*
X63850001Y-91874986D01*
X63860494Y-91977697D01*
X63915641Y-92144119D01*
X63915643Y-92144124D01*
X64007684Y-92293345D01*
X64131654Y-92417315D01*
X64280875Y-92509356D01*
X64280880Y-92509358D01*
X64447302Y-92564505D01*
X64447310Y-92564506D01*
X64531954Y-92573154D01*
X64539263Y-92574999D01*
X64546855Y-92574999D01*
X64553166Y-92575320D01*
X64563464Y-92576372D01*
X64571420Y-92574999D01*
X66724999Y-92574999D01*
X66725000Y-92574998D01*
X66725000Y-90050000D01*
X67225000Y-90050000D01*
X67225000Y-92574999D01*
X69500000Y-92574999D01*
X69500000Y-90050000D01*
X70000000Y-90050000D01*
X70000000Y-92574999D01*
X72274999Y-92574999D01*
X72275000Y-92574998D01*
X72275000Y-90050000D01*
X70000000Y-90050000D01*
X69500000Y-90050000D01*
X67225000Y-90050000D01*
X66725000Y-90050000D01*
X63850001Y-90050000D01*
X62682046Y-90050000D01*
X62680665Y-87625000D01*
X63850000Y-87625000D01*
X63850000Y-89550000D01*
X66725000Y-89550000D01*
X66725000Y-87625000D01*
X67225000Y-87625000D01*
X67225000Y-89550000D01*
X69500000Y-89550000D01*
X69500000Y-87625000D01*
X67225000Y-87625000D01*
X66725000Y-87625000D01*
X63850000Y-87625000D01*
X62680665Y-87625000D01*
X62679284Y-85200000D01*
X63850000Y-85200000D01*
X63850000Y-87125000D01*
X66725000Y-87125000D01*
X66725000Y-85200000D01*
X67225000Y-85200000D01*
X67225000Y-87125000D01*
X69500000Y-87125000D01*
X69500000Y-85200000D01*
X70000000Y-85200000D01*
X70000000Y-89550000D01*
X72275000Y-89550000D01*
X72275000Y-85200000D01*
X70000000Y-85200000D01*
X69500000Y-85200000D01*
X67225000Y-85200000D01*
X66725000Y-85200000D01*
X63850000Y-85200000D01*
X62679284Y-85200000D01*
X62675725Y-78949999D01*
X63294457Y-78949999D01*
X63314612Y-79308902D01*
X63314614Y-79308914D01*
X63374826Y-79663296D01*
X63374828Y-79663305D01*
X63467749Y-79985842D01*
X63474341Y-80008724D01*
X63541725Y-80171402D01*
X63611905Y-80340831D01*
X63785790Y-80655454D01*
X63993805Y-80948622D01*
X63993806Y-80948623D01*
X64233339Y-81216661D01*
X64501377Y-81456194D01*
X64794548Y-81664211D01*
X65109167Y-81838094D01*
X65346594Y-81936440D01*
X65400996Y-81980280D01*
X65423061Y-82046574D01*
X65405782Y-82114273D01*
X65354645Y-82161884D01*
X65299140Y-82175000D01*
X64550028Y-82175000D01*
X64550012Y-82175001D01*
X64447302Y-82185494D01*
X64280880Y-82240641D01*
X64280875Y-82240643D01*
X64131654Y-82332684D01*
X64007684Y-82456654D01*
X63915643Y-82605875D01*
X63915641Y-82605880D01*
X63863300Y-82763835D01*
X63856503Y-82780285D01*
X63852543Y-82788204D01*
X63856832Y-82803825D01*
X63856209Y-82814241D01*
X63850000Y-82875013D01*
X63850000Y-84700000D01*
X69500000Y-84700000D01*
X69500000Y-82175000D01*
X70000000Y-82175000D01*
X70000000Y-84700000D01*
X72275000Y-84700000D01*
X72275000Y-82175000D01*
X70000000Y-82175000D01*
X69500000Y-82175000D01*
X67700860Y-82175000D01*
X67633821Y-82155315D01*
X67588066Y-82102511D01*
X67578122Y-82033353D01*
X67607147Y-81969797D01*
X67653404Y-81936440D01*
X67890833Y-81838094D01*
X68205452Y-81664211D01*
X68498623Y-81456194D01*
X68766661Y-81216661D01*
X69006194Y-80948623D01*
X69214211Y-80655452D01*
X69388094Y-80340833D01*
X69525659Y-80008724D01*
X69625173Y-79663300D01*
X69685387Y-79308907D01*
X69705543Y-78950000D01*
X69685387Y-78591093D01*
X69625173Y-78236700D01*
X69525659Y-77891276D01*
X69388094Y-77559167D01*
X69214211Y-77244548D01*
X69006194Y-76951377D01*
X68766661Y-76683339D01*
X68527127Y-76469278D01*
X68498622Y-76443805D01*
X68205454Y-76235790D01*
X67947826Y-76093405D01*
X67890833Y-76061906D01*
X67843862Y-76042450D01*
X67751980Y-76004391D01*
X67558724Y-75924341D01*
X67558720Y-75924339D01*
X67558718Y-75924339D01*
X67213305Y-75824828D01*
X67213296Y-75824826D01*
X66858914Y-75764614D01*
X66858902Y-75764612D01*
X66525994Y-75745916D01*
X66500000Y-75744457D01*
X66499999Y-75744457D01*
X66141097Y-75764612D01*
X66141085Y-75764614D01*
X65786703Y-75824826D01*
X65786694Y-75824828D01*
X65441281Y-75924339D01*
X65109168Y-76061905D01*
X64794545Y-76235790D01*
X64501377Y-76443805D01*
X64233339Y-76683339D01*
X63993805Y-76951377D01*
X63785790Y-77244545D01*
X63611905Y-77559168D01*
X63474339Y-77891281D01*
X63374828Y-78236694D01*
X63374826Y-78236703D01*
X63314614Y-78591085D01*
X63314612Y-78591097D01*
X63294457Y-78949999D01*
X62675725Y-78949999D01*
X62675496Y-78547365D01*
X62675569Y-78544364D01*
X62682913Y-78392843D01*
X62692928Y-78199284D01*
X62693495Y-78193543D01*
X62718191Y-78024757D01*
X62745761Y-77848278D01*
X62746822Y-77843006D01*
X62788583Y-77673918D01*
X62833388Y-77504324D01*
X62834844Y-77499592D01*
X62893283Y-77333856D01*
X62954922Y-77170885D01*
X62956694Y-77166679D01*
X63031278Y-77006530D01*
X63109143Y-76851286D01*
X63111116Y-76847664D01*
X63201178Y-76694898D01*
X63294526Y-76548688D01*
X63296601Y-76545647D01*
X63401267Y-76401958D01*
X63509194Y-76266155D01*
X63511327Y-76263617D01*
X63628588Y-76131634D01*
X63630592Y-76129484D01*
X63751057Y-76006445D01*
X63753126Y-76004432D01*
X63882639Y-75884371D01*
X63885100Y-75882212D01*
X64018605Y-75771427D01*
X64160038Y-75663755D01*
X64163053Y-75661602D01*
X64307281Y-75565168D01*
X64458091Y-75471908D01*
X64461638Y-75469877D01*
X64615235Y-75388729D01*
X64773768Y-75310779D01*
X64777939Y-75308917D01*
X64892521Y-75262788D01*
X64939572Y-75243847D01*
X64965684Y-75234014D01*
X65104029Y-75181919D01*
X65108725Y-75180364D01*
X65277369Y-75131975D01*
X65445511Y-75086655D01*
X65450703Y-75085495D01*
X65626632Y-75054186D01*
X65794828Y-75025933D01*
X65800547Y-75025246D01*
X65996041Y-75010988D01*
X66090346Y-75004416D01*
X66121012Y-75011145D01*
X66123926Y-75009939D01*
X66171379Y-75000500D01*
X106526169Y-75000500D01*
X106531593Y-75000737D01*
G37*
G04 #@! TD.AperFunction*
M02*
