M48
; DRILL file {KiCad 7.0.7} date Tue Jul 30 23:45:05 2024
; FORMAT={-:-/ absolute / metric / decimal}
; #@! TF.CreationDate,2024-07-30T23:45:05+02:00
; #@! TF.GenerationSoftware,Kicad,Pcbnew,7.0.7
; #@! TF.FileFunction,Plated,1,2,PTH
FMAT,2
METRIC
; #@! TA.AperFunction,Plated,PTH,ComponentDrill
T1C0.300
; #@! TA.AperFunction,Plated,PTH,ViaDrill
T2C0.400
; #@! TA.AperFunction,Plated,PTH,ComponentDrill
T3C0.500
; #@! TA.AperFunction,Plated,PTH,ComponentDrill
T4C1.000
; #@! TA.AperFunction,Plated,PTH,ComponentDrill
T5C1.100
; #@! TA.AperFunction,Plated,PTH,ComponentDrill
T6C2.700
%
G90
G05
T1
X85.505Y-97.297
X85.505Y-98.822
X86.267Y-96.535
X86.267Y-98.06
X86.267Y-99.585
X87.03Y-97.297
X87.03Y-98.822
X87.792Y-96.535
X87.792Y-98.06
X87.792Y-99.585
X88.555Y-97.297
X88.555Y-98.822
T2
X63.9Y-81.65
X64.0Y-98.15
X65.3Y-108.95
X65.9Y-118.45
X66.3Y-109.85
X66.55Y-114.1
X67.3Y-111.6
X68.693Y-114.749
X69.262Y-112.462
X69.45Y-125.35
X69.692Y-114.798
X70.7Y-114.75
X71.8Y-111.625
X71.85Y-80.9
X71.934Y-118.819
X72.735Y-113.997
X73.3Y-118.7
X73.674Y-114.424
X74.3Y-107.35
X74.6Y-123.5
X76.05Y-118.45
X76.25Y-76.3
X77.1Y-86.35
X77.21Y-121.425
X77.3Y-107.45
X79.55Y-94.0
X80.05Y-114.3
X80.374Y-96.45
X80.61Y-121.425
X80.8Y-81.65
X80.8Y-90.85
X81.4Y-95.1
X82.437Y-91.563
X83.503Y-104.1
X83.55Y-90.65
X85.95Y-94.05
X86.15Y-81.15
X86.2Y-89.8
X86.55Y-75.8
X86.95Y-123.35
X88.25Y-107.55
X88.7Y-81.15
X89.938Y-104.112
X90.45Y-114.15
X91.1Y-81.2
X91.15Y-84.8
X91.85Y-101.45
X92.046Y-109.351
X92.063Y-110.35
X92.95Y-104.1
X93.3Y-90.15
X93.35Y-88.75
X93.35Y-96.5
X93.4Y-91.4
X93.4Y-95.25
X93.5Y-92.65
X93.55Y-93.9
X93.75Y-86.85
X94.2Y-81.4
X94.75Y-83.25
X96.29Y-121.8
X96.7Y-84.85
X96.85Y-109.45
X96.9Y-102.95
X96.9Y-110.5
X97.45Y-105.1
X97.8Y-93.8
X98.8Y-76.5
X98.95Y-89.85
X99.15Y-108.1
X100.25Y-116.4
X101.15Y-120.9
X102.25Y-89.95
X102.25Y-101.631
X103.0Y-98.0
X103.5Y-93.604
X107.3Y-85.35
X107.971Y-114.104
X108.2Y-108.65
X108.5Y-99.0
X108.6Y-92.85
T3
X64.475Y-78.95
X64.525Y-122.35
X65.068Y-77.518
X65.068Y-80.382
X65.118Y-120.918
X65.118Y-123.782
X66.5Y-76.925
X66.5Y-80.975
X66.55Y-120.325
X66.55Y-124.375
X67.932Y-77.518
X67.932Y-80.382
X67.982Y-120.918
X67.982Y-123.782
X68.525Y-78.95
X68.575Y-122.35
X104.3Y-79.068
X104.325Y-122.218
X104.893Y-77.636
X104.893Y-80.5
X104.918Y-120.786
X104.918Y-123.65
X106.325Y-77.043
X106.325Y-81.093
X106.35Y-120.193
X106.35Y-124.243
X107.757Y-77.636
X107.757Y-80.5
X107.782Y-120.786
X107.782Y-123.65
X108.35Y-79.068
X108.375Y-122.218
T4
X66.25Y-102.85
X66.25Y-105.39
X74.64Y-79.3
X77.18Y-79.3
X78.46Y-116.55
X79.72Y-79.3
X81.0Y-116.55
X82.26Y-79.3
X84.8Y-79.3
X87.34Y-79.3
X89.88Y-79.3
X92.42Y-79.3
X94.2Y-116.6
X94.96Y-79.3
X96.74Y-116.6
X97.5Y-79.3
X100.04Y-79.3
T5
X99.85Y-99.381
X99.85Y-103.881
X99.9Y-87.7
X99.9Y-92.2
X106.35Y-99.381
X106.35Y-103.881
X106.4Y-87.7
X106.4Y-92.2
T6
X66.5Y-78.95
X66.55Y-122.35
X106.325Y-79.068
X106.35Y-122.218
T3
X84.25Y-118.875G85X84.25Y-118.175
G05
X90.85Y-118.875G85X90.85Y-118.175
G05
T0
M30
