M48
; DRILL file {KiCad 7.0.7} date Fri Jun  7 19:14:16 2024
; FORMAT={-:-/ absolute / metric / decimal}
; #@! TF.CreationDate,2024-06-07T19:14:16+02:00
; #@! TF.GenerationSoftware,Kicad,Pcbnew,7.0.7
; #@! TF.FileFunction,Plated,1,2,PTH
FMAT,2
METRIC
; #@! TA.AperFunction,Plated,PTH,ViaDrill
T1C0.400
; #@! TA.AperFunction,Plated,PTH,ComponentDrill
T2C0.700
; #@! TA.AperFunction,Plated,PTH,ComponentDrill
T3C0.762
; #@! TA.AperFunction,Plated,PTH,ComponentDrill
T4C0.800
; #@! TA.AperFunction,Plated,PTH,ComponentDrill
T5C0.900
; #@! TA.AperFunction,Plated,PTH,ComponentDrill
T6C1.000
%
G90
G05
T1
X96.5Y-101.05
X96.85Y-82.9
X99.15Y-131.8
X99.4Y-108.0
X100.0Y-95.45
X100.1Y-119.15
X102.05Y-73.9
X104.1Y-105.8
X105.0Y-133.55
X106.3Y-90.2
X107.05Y-81.5
X107.75Y-100.95
X108.05Y-111.9
X108.15Y-109.1
X108.35Y-131.2
X108.6Y-105.7
X112.05Y-74.25
X112.75Y-108.75
X113.2Y-116.95
X113.25Y-112.85
X113.3Y-91.3
X113.75Y-119.9
X114.5Y-109.7
X114.6Y-105.9
X115.65Y-127.15
X116.25Y-124.8
X116.55Y-109.6
X116.75Y-96.2
X116.85Y-90.9
X116.85Y-119.15
X117.05Y-113.75
X117.2Y-122.15
X117.6Y-80.95
X117.75Y-130.1
X117.8Y-131.15
X117.9Y-132.15
X117.9Y-133.2
X119.95Y-92.25
X120.15Y-96.65
X120.75Y-87.85
X121.0Y-94.3
X121.45Y-105.65
X121.5Y-114.5
X121.7Y-127.05
X121.75Y-91.8
X121.75Y-118.8
X121.75Y-122.3
X122.3Y-115.2
X122.7Y-74.05
X124.5Y-130.1
X125.35Y-117.6
X125.55Y-127.55
X125.9Y-130.45
X126.0Y-111.0
X126.1Y-107.55
X127.05Y-130.5
X127.8Y-80.95
X127.8Y-120.75
X128.487Y-112.487
X128.5Y-115.0
X128.6Y-119.6
X128.7Y-101.1
X130.25Y-130.45
X131.0Y-116.05
X131.35Y-73.2
X131.8Y-130.1
X132.5Y-89.4
X133.1Y-121.75
X133.1Y-123.95
X133.1Y-126.55
X134.45Y-112.9
X134.9Y-125.2
X135.55Y-110.45
X135.7Y-108.05
X135.95Y-102.0
X136.2Y-104.85
X136.7Y-80.7
X136.8Y-118.6
X137.5Y-128.0
X138.1Y-86.9
X138.1Y-97.2
X141.65Y-73.5
X141.7Y-107.4
X141.9Y-115.4
X142.4Y-87.0
X142.8Y-94.0
X143.7Y-84.1
X143.8Y-90.5
X144.75Y-78.15
X145.15Y-106.2
X145.3Y-115.8
X145.95Y-86.95
X146.1Y-127.2
X155.7Y-110.2
X162.2Y-87.85
X162.55Y-73.0
X162.8Y-122.8
X162.85Y-105.6
X164.2Y-82.65
T2
X149.88Y-124.72
X149.88Y-128.02
X157.5Y-124.72
X157.5Y-128.02
T3
X124.0Y-78.22
X124.0Y-80.76
X124.0Y-83.3
X124.0Y-85.84
X124.0Y-88.38
X124.0Y-90.92
X124.0Y-93.46
X124.0Y-96.0
X124.0Y-98.54
X124.0Y-101.08
X124.0Y-103.62
X124.0Y-106.16
X124.0Y-108.7
X124.0Y-111.24
X124.0Y-113.78
X124.0Y-116.32
X124.0Y-118.86
X124.0Y-121.4
X124.0Y-123.94
X124.0Y-126.48
X139.95Y-78.22
X139.95Y-80.76
X139.95Y-83.3
X139.95Y-85.84
X139.95Y-88.38
X139.95Y-90.92
X139.95Y-93.46
X139.95Y-96.0
X139.95Y-98.54
X139.95Y-101.08
X139.95Y-103.62
X139.95Y-106.16
X139.95Y-108.7
X139.95Y-111.24
X139.95Y-113.78
X139.95Y-116.32
X139.95Y-118.86
X139.95Y-121.4
X139.95Y-123.94
X139.95Y-126.48
T4
X147.1Y-91.1
X147.1Y-94.85
X147.3Y-113.02
X147.35Y-118.42
X150.4Y-73.65
X155.4Y-73.65
X159.8Y-91.1
X159.8Y-94.85
X160.0Y-113.02
X160.05Y-118.42
T5
X145.61Y-100.3
X148.15Y-100.3
X158.76Y-100.3
X161.3Y-100.3
T6
X98.84Y-99.0
X98.85Y-102.8
X101.38Y-99.0
X101.39Y-102.8
X103.92Y-99.0
X103.93Y-102.8
X105.75Y-109.27
X105.75Y-111.81
X105.75Y-114.35
X105.75Y-116.89
X105.75Y-119.43
X105.75Y-121.97
X105.75Y-124.51
X105.75Y-127.05
X106.46Y-99.0
X106.47Y-102.8
X109.0Y-99.0
X109.01Y-102.8
X110.3Y-109.35
X110.3Y-111.89
X110.3Y-114.43
X110.3Y-116.97
X110.3Y-119.51
X110.3Y-122.05
X110.3Y-124.59
X110.3Y-127.13
X111.54Y-99.0
X111.55Y-102.8
X114.08Y-99.0
X114.09Y-102.8
X116.62Y-99.0
X116.63Y-102.8
X149.0Y-79.82
X149.0Y-82.36
X149.0Y-84.9
X152.525Y-106.22
X152.65Y-79.86
X152.65Y-82.4
X152.65Y-84.94
X155.065Y-106.22
X156.2Y-79.87
X156.2Y-82.41
X156.2Y-84.95
X159.775Y-79.875
X159.775Y-82.415
X159.775Y-84.955
T0
M30
