G04 #@! TF.GenerationSoftware,KiCad,Pcbnew,7.0.7*
G04 #@! TF.CreationDate,2024-06-07T19:14:15+02:00*
G04 #@! TF.ProjectId,stm32-drone,73746d33-322d-4647-926f-6e652e6b6963,rev?*
G04 #@! TF.SameCoordinates,Original*
G04 #@! TF.FileFunction,Soldermask,Bot*
G04 #@! TF.FilePolarity,Negative*
%FSLAX46Y46*%
G04 Gerber Fmt 4.6, Leading zero omitted, Abs format (unit mm)*
G04 Created by KiCad (PCBNEW 7.0.7) date 2024-06-07 19:14:15*
%MOMM*%
%LPD*%
G01*
G04 APERTURE LIST*
%ADD10R,1.700000X1.700000*%
%ADD11O,1.700000X1.700000*%
%ADD12C,3.000000*%
%ADD13C,1.524000*%
%ADD14C,1.600000*%
%ADD15O,1.600000X1.600000*%
%ADD16R,1.800000X1.800000*%
%ADD17C,1.800000*%
%ADD18C,1.400000*%
%ADD19O,1.400000X1.400000*%
G04 APERTURE END LIST*
D10*
X98850000Y-102800000D03*
D11*
X101390000Y-102800000D03*
X103930000Y-102800000D03*
X106470000Y-102800000D03*
X109010000Y-102800000D03*
X111550000Y-102800000D03*
X114090000Y-102800000D03*
X116630000Y-102800000D03*
D10*
X98840000Y-99000000D03*
D11*
X101380000Y-99000000D03*
X103920000Y-99000000D03*
X106460000Y-99000000D03*
X109000000Y-99000000D03*
X111540000Y-99000000D03*
X114080000Y-99000000D03*
X116620000Y-99000000D03*
D10*
X159775000Y-79875000D03*
D11*
X159775000Y-82415000D03*
X159775000Y-84955000D03*
D12*
X92650000Y-65400000D03*
D10*
X149000000Y-79820000D03*
D11*
X149000000Y-82360000D03*
X149000000Y-84900000D03*
D13*
X124000000Y-78220000D03*
X124000000Y-80760000D03*
X124000000Y-83300000D03*
X124000000Y-85840000D03*
X124000000Y-118860000D03*
X124000000Y-88380000D03*
X124000000Y-90920000D03*
X124000000Y-93460000D03*
X124000000Y-96000000D03*
X124000000Y-98540000D03*
X124000000Y-101080000D03*
X124000000Y-103620000D03*
X124000000Y-106160000D03*
X124000000Y-108700000D03*
X124000000Y-111240000D03*
X124000000Y-113780000D03*
X124000000Y-116320000D03*
X139950000Y-80760000D03*
X124000000Y-126480000D03*
X124000000Y-123940000D03*
X139950000Y-83300000D03*
X139950000Y-126480000D03*
X139950000Y-123940000D03*
X139950000Y-121400000D03*
X139950000Y-118860000D03*
X139950000Y-116320000D03*
X139950000Y-113780000D03*
X139950000Y-111240000D03*
X139950000Y-108700000D03*
X139950000Y-106160000D03*
X139950000Y-78220000D03*
X139950000Y-103620000D03*
X139950000Y-101080000D03*
X139950000Y-98540000D03*
X139950000Y-96000000D03*
X139950000Y-93460000D03*
X139950000Y-90920000D03*
X139950000Y-88380000D03*
X139950000Y-85840000D03*
X124000000Y-121400000D03*
D10*
X152525000Y-106220000D03*
D11*
X155065000Y-106220000D03*
D14*
X160000000Y-113020000D03*
D15*
X147300000Y-113020000D03*
D16*
X145610000Y-100300000D03*
D17*
X148150000Y-100300000D03*
D14*
X155400000Y-73650000D03*
X150400000Y-73650000D03*
D10*
X105750000Y-109270000D03*
D11*
X105750000Y-111810000D03*
X105750000Y-114350000D03*
X105750000Y-116890000D03*
X105750000Y-119430000D03*
X105750000Y-121970000D03*
X105750000Y-124510000D03*
X105750000Y-127050000D03*
D18*
X149880000Y-128020000D03*
D19*
X157500000Y-128020000D03*
D14*
X147100000Y-94850000D03*
D15*
X159800000Y-94850000D03*
D18*
X149880000Y-124720000D03*
D19*
X157500000Y-124720000D03*
D10*
X156200000Y-79870000D03*
D11*
X156200000Y-82410000D03*
X156200000Y-84950000D03*
D14*
X147350000Y-118420000D03*
D15*
X160050000Y-118420000D03*
D10*
X152650000Y-79860000D03*
D11*
X152650000Y-82400000D03*
X152650000Y-84940000D03*
D14*
X147100000Y-91100000D03*
D15*
X159800000Y-91100000D03*
D12*
X168350000Y-65540410D03*
D10*
X110300000Y-109350000D03*
D11*
X110300000Y-111890000D03*
X110300000Y-114430000D03*
X110300000Y-116970000D03*
X110300000Y-119510000D03*
X110300000Y-122050000D03*
X110300000Y-124590000D03*
X110300000Y-127130000D03*
D12*
X168500000Y-137900000D03*
X92226651Y-137894591D03*
D16*
X158760000Y-100300000D03*
D17*
X161300000Y-100300000D03*
M02*
