G04 #@! TF.GenerationSoftware,KiCad,Pcbnew,7.0.7*
G04 #@! TF.CreationDate,2024-06-07T19:14:15+02:00*
G04 #@! TF.ProjectId,stm32-drone,73746d33-322d-4647-926f-6e652e6b6963,rev?*
G04 #@! TF.SameCoordinates,Original*
G04 #@! TF.FileFunction,Legend,Top*
G04 #@! TF.FilePolarity,Positive*
%FSLAX46Y46*%
G04 Gerber Fmt 4.6, Leading zero omitted, Abs format (unit mm)*
G04 Created by KiCad (PCBNEW 7.0.7) date 2024-06-07 19:14:15*
%MOMM*%
%LPD*%
G01*
G04 APERTURE LIST*
%ADD10C,0.150000*%
%ADD11C,0.100000*%
%ADD12C,0.120000*%
%ADD13R,1.700000X1.700000*%
%ADD14O,1.700000X1.700000*%
%ADD15C,3.000000*%
%ADD16C,1.524000*%
%ADD17C,1.600000*%
%ADD18O,1.600000X1.600000*%
%ADD19R,1.800000X1.800000*%
%ADD20C,1.800000*%
%ADD21C,1.400000*%
%ADD22O,1.400000X1.400000*%
G04 APERTURE END LIST*
D10*
X106392857Y-97004819D02*
X106392857Y-96004819D01*
X106392857Y-96004819D02*
X106726190Y-96719104D01*
X106726190Y-96719104D02*
X107059523Y-96004819D01*
X107059523Y-96004819D02*
X107059523Y-97004819D01*
X107535714Y-97004819D02*
X107535714Y-96004819D01*
X107535714Y-96004819D02*
X107916666Y-96004819D01*
X107916666Y-96004819D02*
X108011904Y-96052438D01*
X108011904Y-96052438D02*
X108059523Y-96100057D01*
X108059523Y-96100057D02*
X108107142Y-96195295D01*
X108107142Y-96195295D02*
X108107142Y-96338152D01*
X108107142Y-96338152D02*
X108059523Y-96433390D01*
X108059523Y-96433390D02*
X108011904Y-96481009D01*
X108011904Y-96481009D02*
X107916666Y-96528628D01*
X107916666Y-96528628D02*
X107535714Y-96528628D01*
X108535714Y-96004819D02*
X108535714Y-96814342D01*
X108535714Y-96814342D02*
X108583333Y-96909580D01*
X108583333Y-96909580D02*
X108630952Y-96957200D01*
X108630952Y-96957200D02*
X108726190Y-97004819D01*
X108726190Y-97004819D02*
X108916666Y-97004819D01*
X108916666Y-97004819D02*
X109011904Y-96957200D01*
X109011904Y-96957200D02*
X109059523Y-96909580D01*
X109059523Y-96909580D02*
X109107142Y-96814342D01*
X109107142Y-96814342D02*
X109107142Y-96004819D01*
X158509524Y-77131009D02*
X158842857Y-77131009D01*
X158985714Y-77654819D02*
X158509524Y-77654819D01*
X158509524Y-77654819D02*
X158509524Y-76654819D01*
X158509524Y-76654819D02*
X158985714Y-76654819D01*
X159985714Y-77559580D02*
X159938095Y-77607200D01*
X159938095Y-77607200D02*
X159795238Y-77654819D01*
X159795238Y-77654819D02*
X159700000Y-77654819D01*
X159700000Y-77654819D02*
X159557143Y-77607200D01*
X159557143Y-77607200D02*
X159461905Y-77511961D01*
X159461905Y-77511961D02*
X159414286Y-77416723D01*
X159414286Y-77416723D02*
X159366667Y-77226247D01*
X159366667Y-77226247D02*
X159366667Y-77083390D01*
X159366667Y-77083390D02*
X159414286Y-76892914D01*
X159414286Y-76892914D02*
X159461905Y-76797676D01*
X159461905Y-76797676D02*
X159557143Y-76702438D01*
X159557143Y-76702438D02*
X159700000Y-76654819D01*
X159700000Y-76654819D02*
X159795238Y-76654819D01*
X159795238Y-76654819D02*
X159938095Y-76702438D01*
X159938095Y-76702438D02*
X159985714Y-76750057D01*
X160842857Y-76988152D02*
X160842857Y-77654819D01*
X160604762Y-76607200D02*
X160366667Y-77321485D01*
X160366667Y-77321485D02*
X160985714Y-77321485D01*
X147609524Y-77131009D02*
X147942857Y-77131009D01*
X148085714Y-77654819D02*
X147609524Y-77654819D01*
X147609524Y-77654819D02*
X147609524Y-76654819D01*
X147609524Y-76654819D02*
X148085714Y-76654819D01*
X149085714Y-77559580D02*
X149038095Y-77607200D01*
X149038095Y-77607200D02*
X148895238Y-77654819D01*
X148895238Y-77654819D02*
X148800000Y-77654819D01*
X148800000Y-77654819D02*
X148657143Y-77607200D01*
X148657143Y-77607200D02*
X148561905Y-77511961D01*
X148561905Y-77511961D02*
X148514286Y-77416723D01*
X148514286Y-77416723D02*
X148466667Y-77226247D01*
X148466667Y-77226247D02*
X148466667Y-77083390D01*
X148466667Y-77083390D02*
X148514286Y-76892914D01*
X148514286Y-76892914D02*
X148561905Y-76797676D01*
X148561905Y-76797676D02*
X148657143Y-76702438D01*
X148657143Y-76702438D02*
X148800000Y-76654819D01*
X148800000Y-76654819D02*
X148895238Y-76654819D01*
X148895238Y-76654819D02*
X149038095Y-76702438D01*
X149038095Y-76702438D02*
X149085714Y-76750057D01*
X150038095Y-77654819D02*
X149466667Y-77654819D01*
X149752381Y-77654819D02*
X149752381Y-76654819D01*
X149752381Y-76654819D02*
X149657143Y-76797676D01*
X149657143Y-76797676D02*
X149561905Y-76892914D01*
X149561905Y-76892914D02*
X149466667Y-76940533D01*
D11*
X132504800Y-108273258D02*
X132600038Y-107987544D01*
X132600038Y-107987544D02*
X132600038Y-107511353D01*
X132600038Y-107511353D02*
X132504800Y-107320877D01*
X132504800Y-107320877D02*
X132409561Y-107225639D01*
X132409561Y-107225639D02*
X132219085Y-107130401D01*
X132219085Y-107130401D02*
X132028609Y-107130401D01*
X132028609Y-107130401D02*
X131838133Y-107225639D01*
X131838133Y-107225639D02*
X131742895Y-107320877D01*
X131742895Y-107320877D02*
X131647657Y-107511353D01*
X131647657Y-107511353D02*
X131552419Y-107892306D01*
X131552419Y-107892306D02*
X131457180Y-108082782D01*
X131457180Y-108082782D02*
X131361942Y-108178020D01*
X131361942Y-108178020D02*
X131171466Y-108273258D01*
X131171466Y-108273258D02*
X130980990Y-108273258D01*
X130980990Y-108273258D02*
X130790514Y-108178020D01*
X130790514Y-108178020D02*
X130695276Y-108082782D01*
X130695276Y-108082782D02*
X130600038Y-107892306D01*
X130600038Y-107892306D02*
X130600038Y-107416115D01*
X130600038Y-107416115D02*
X130695276Y-107130401D01*
X130600038Y-106558972D02*
X130600038Y-105416115D01*
X132600038Y-105987544D02*
X130600038Y-105987544D01*
X132600038Y-104749448D02*
X130600038Y-104749448D01*
X130600038Y-104749448D02*
X132028609Y-104082781D01*
X132028609Y-104082781D02*
X130600038Y-103416115D01*
X130600038Y-103416115D02*
X132600038Y-103416115D01*
X130600038Y-102654210D02*
X130600038Y-101416115D01*
X130600038Y-101416115D02*
X131361942Y-102082782D01*
X131361942Y-102082782D02*
X131361942Y-101797067D01*
X131361942Y-101797067D02*
X131457180Y-101606591D01*
X131457180Y-101606591D02*
X131552419Y-101511353D01*
X131552419Y-101511353D02*
X131742895Y-101416115D01*
X131742895Y-101416115D02*
X132219085Y-101416115D01*
X132219085Y-101416115D02*
X132409561Y-101511353D01*
X132409561Y-101511353D02*
X132504800Y-101606591D01*
X132504800Y-101606591D02*
X132600038Y-101797067D01*
X132600038Y-101797067D02*
X132600038Y-102368496D01*
X132600038Y-102368496D02*
X132504800Y-102558972D01*
X132504800Y-102558972D02*
X132409561Y-102654210D01*
X130790514Y-100654210D02*
X130695276Y-100558972D01*
X130695276Y-100558972D02*
X130600038Y-100368496D01*
X130600038Y-100368496D02*
X130600038Y-99892305D01*
X130600038Y-99892305D02*
X130695276Y-99701829D01*
X130695276Y-99701829D02*
X130790514Y-99606591D01*
X130790514Y-99606591D02*
X130980990Y-99511353D01*
X130980990Y-99511353D02*
X131171466Y-99511353D01*
X131171466Y-99511353D02*
X131457180Y-99606591D01*
X131457180Y-99606591D02*
X132600038Y-100749448D01*
X132600038Y-100749448D02*
X132600038Y-99511353D01*
X131552419Y-97987543D02*
X131552419Y-98654210D01*
X132600038Y-98654210D02*
X130600038Y-98654210D01*
X130600038Y-98654210D02*
X130600038Y-97701829D01*
X132600038Y-95892305D02*
X132600038Y-97035162D01*
X132600038Y-96463734D02*
X130600038Y-96463734D01*
X130600038Y-96463734D02*
X130885752Y-96654210D01*
X130885752Y-96654210D02*
X131076228Y-96844686D01*
X131076228Y-96844686D02*
X131171466Y-97035162D01*
X130600038Y-94654210D02*
X130600038Y-94463733D01*
X130600038Y-94463733D02*
X130695276Y-94273257D01*
X130695276Y-94273257D02*
X130790514Y-94178019D01*
X130790514Y-94178019D02*
X130980990Y-94082781D01*
X130980990Y-94082781D02*
X131361942Y-93987543D01*
X131361942Y-93987543D02*
X131838133Y-93987543D01*
X131838133Y-93987543D02*
X132219085Y-94082781D01*
X132219085Y-94082781D02*
X132409561Y-94178019D01*
X132409561Y-94178019D02*
X132504800Y-94273257D01*
X132504800Y-94273257D02*
X132600038Y-94463733D01*
X132600038Y-94463733D02*
X132600038Y-94654210D01*
X132600038Y-94654210D02*
X132504800Y-94844686D01*
X132504800Y-94844686D02*
X132409561Y-94939924D01*
X132409561Y-94939924D02*
X132219085Y-95035162D01*
X132219085Y-95035162D02*
X131838133Y-95130400D01*
X131838133Y-95130400D02*
X131361942Y-95130400D01*
X131361942Y-95130400D02*
X130980990Y-95035162D01*
X130980990Y-95035162D02*
X130790514Y-94939924D01*
X130790514Y-94939924D02*
X130695276Y-94844686D01*
X130695276Y-94844686D02*
X130600038Y-94654210D01*
X130600038Y-93320876D02*
X130600038Y-92082781D01*
X130600038Y-92082781D02*
X131361942Y-92749448D01*
X131361942Y-92749448D02*
X131361942Y-92463733D01*
X131361942Y-92463733D02*
X131457180Y-92273257D01*
X131457180Y-92273257D02*
X131552419Y-92178019D01*
X131552419Y-92178019D02*
X131742895Y-92082781D01*
X131742895Y-92082781D02*
X132219085Y-92082781D01*
X132219085Y-92082781D02*
X132409561Y-92178019D01*
X132409561Y-92178019D02*
X132504800Y-92273257D01*
X132504800Y-92273257D02*
X132600038Y-92463733D01*
X132600038Y-92463733D02*
X132600038Y-93035162D01*
X132600038Y-93035162D02*
X132504800Y-93225638D01*
X132504800Y-93225638D02*
X132409561Y-93320876D01*
X132409561Y-90082781D02*
X132504800Y-90178019D01*
X132504800Y-90178019D02*
X132600038Y-90463733D01*
X132600038Y-90463733D02*
X132600038Y-90654209D01*
X132600038Y-90654209D02*
X132504800Y-90939924D01*
X132504800Y-90939924D02*
X132314323Y-91130400D01*
X132314323Y-91130400D02*
X132123847Y-91225638D01*
X132123847Y-91225638D02*
X131742895Y-91320876D01*
X131742895Y-91320876D02*
X131457180Y-91320876D01*
X131457180Y-91320876D02*
X131076228Y-91225638D01*
X131076228Y-91225638D02*
X130885752Y-91130400D01*
X130885752Y-91130400D02*
X130695276Y-90939924D01*
X130695276Y-90939924D02*
X130600038Y-90654209D01*
X130600038Y-90654209D02*
X130600038Y-90463733D01*
X130600038Y-90463733D02*
X130695276Y-90178019D01*
X130695276Y-90178019D02*
X130790514Y-90082781D01*
X131457180Y-88939924D02*
X131361942Y-89130400D01*
X131361942Y-89130400D02*
X131266704Y-89225638D01*
X131266704Y-89225638D02*
X131076228Y-89320876D01*
X131076228Y-89320876D02*
X130980990Y-89320876D01*
X130980990Y-89320876D02*
X130790514Y-89225638D01*
X130790514Y-89225638D02*
X130695276Y-89130400D01*
X130695276Y-89130400D02*
X130600038Y-88939924D01*
X130600038Y-88939924D02*
X130600038Y-88558971D01*
X130600038Y-88558971D02*
X130695276Y-88368495D01*
X130695276Y-88368495D02*
X130790514Y-88273257D01*
X130790514Y-88273257D02*
X130980990Y-88178019D01*
X130980990Y-88178019D02*
X131076228Y-88178019D01*
X131076228Y-88178019D02*
X131266704Y-88273257D01*
X131266704Y-88273257D02*
X131361942Y-88368495D01*
X131361942Y-88368495D02*
X131457180Y-88558971D01*
X131457180Y-88558971D02*
X131457180Y-88939924D01*
X131457180Y-88939924D02*
X131552419Y-89130400D01*
X131552419Y-89130400D02*
X131647657Y-89225638D01*
X131647657Y-89225638D02*
X131838133Y-89320876D01*
X131838133Y-89320876D02*
X132219085Y-89320876D01*
X132219085Y-89320876D02*
X132409561Y-89225638D01*
X132409561Y-89225638D02*
X132504800Y-89130400D01*
X132504800Y-89130400D02*
X132600038Y-88939924D01*
X132600038Y-88939924D02*
X132600038Y-88558971D01*
X132600038Y-88558971D02*
X132504800Y-88368495D01*
X132504800Y-88368495D02*
X132409561Y-88273257D01*
X132409561Y-88273257D02*
X132219085Y-88178019D01*
X132219085Y-88178019D02*
X131838133Y-88178019D01*
X131838133Y-88178019D02*
X131647657Y-88273257D01*
X131647657Y-88273257D02*
X131552419Y-88368495D01*
X131552419Y-88368495D02*
X131457180Y-88558971D01*
X130600038Y-87606590D02*
X130600038Y-86463733D01*
X132600038Y-87035162D02*
X130600038Y-87035162D01*
X130600038Y-84939923D02*
X130600038Y-85320876D01*
X130600038Y-85320876D02*
X130695276Y-85511352D01*
X130695276Y-85511352D02*
X130790514Y-85606590D01*
X130790514Y-85606590D02*
X131076228Y-85797066D01*
X131076228Y-85797066D02*
X131457180Y-85892304D01*
X131457180Y-85892304D02*
X132219085Y-85892304D01*
X132219085Y-85892304D02*
X132409561Y-85797066D01*
X132409561Y-85797066D02*
X132504800Y-85701828D01*
X132504800Y-85701828D02*
X132600038Y-85511352D01*
X132600038Y-85511352D02*
X132600038Y-85130399D01*
X132600038Y-85130399D02*
X132504800Y-84939923D01*
X132504800Y-84939923D02*
X132409561Y-84844685D01*
X132409561Y-84844685D02*
X132219085Y-84749447D01*
X132219085Y-84749447D02*
X131742895Y-84749447D01*
X131742895Y-84749447D02*
X131552419Y-84844685D01*
X131552419Y-84844685D02*
X131457180Y-84939923D01*
X131457180Y-84939923D02*
X131361942Y-85130399D01*
X131361942Y-85130399D02*
X131361942Y-85511352D01*
X131361942Y-85511352D02*
X131457180Y-85701828D01*
X131457180Y-85701828D02*
X131552419Y-85797066D01*
X131552419Y-85797066D02*
X131742895Y-85892304D01*
X129620550Y-122406753D02*
X129620550Y-123782943D01*
X129620550Y-123782943D02*
X129701503Y-123944848D01*
X129701503Y-123944848D02*
X129782455Y-124025801D01*
X129782455Y-124025801D02*
X129944360Y-124106753D01*
X129944360Y-124106753D02*
X130268169Y-124106753D01*
X130268169Y-124106753D02*
X130430074Y-124025801D01*
X130430074Y-124025801D02*
X130511027Y-123944848D01*
X130511027Y-123944848D02*
X130591979Y-123782943D01*
X130591979Y-123782943D02*
X130591979Y-122406753D01*
X131320550Y-124025801D02*
X131563407Y-124106753D01*
X131563407Y-124106753D02*
X131968169Y-124106753D01*
X131968169Y-124106753D02*
X132130074Y-124025801D01*
X132130074Y-124025801D02*
X132211026Y-123944848D01*
X132211026Y-123944848D02*
X132291979Y-123782943D01*
X132291979Y-123782943D02*
X132291979Y-123621039D01*
X132291979Y-123621039D02*
X132211026Y-123459134D01*
X132211026Y-123459134D02*
X132130074Y-123378181D01*
X132130074Y-123378181D02*
X131968169Y-123297229D01*
X131968169Y-123297229D02*
X131644360Y-123216277D01*
X131644360Y-123216277D02*
X131482455Y-123135324D01*
X131482455Y-123135324D02*
X131401502Y-123054372D01*
X131401502Y-123054372D02*
X131320550Y-122892467D01*
X131320550Y-122892467D02*
X131320550Y-122730562D01*
X131320550Y-122730562D02*
X131401502Y-122568658D01*
X131401502Y-122568658D02*
X131482455Y-122487705D01*
X131482455Y-122487705D02*
X131644360Y-122406753D01*
X131644360Y-122406753D02*
X132049121Y-122406753D01*
X132049121Y-122406753D02*
X132291979Y-122487705D01*
X133587217Y-123216277D02*
X133830074Y-123297229D01*
X133830074Y-123297229D02*
X133911027Y-123378181D01*
X133911027Y-123378181D02*
X133991979Y-123540086D01*
X133991979Y-123540086D02*
X133991979Y-123782943D01*
X133991979Y-123782943D02*
X133911027Y-123944848D01*
X133911027Y-123944848D02*
X133830074Y-124025801D01*
X133830074Y-124025801D02*
X133668169Y-124106753D01*
X133668169Y-124106753D02*
X133020550Y-124106753D01*
X133020550Y-124106753D02*
X133020550Y-122406753D01*
X133020550Y-122406753D02*
X133587217Y-122406753D01*
X133587217Y-122406753D02*
X133749122Y-122487705D01*
X133749122Y-122487705D02*
X133830074Y-122568658D01*
X133830074Y-122568658D02*
X133911027Y-122730562D01*
X133911027Y-122730562D02*
X133911027Y-122892467D01*
X133911027Y-122892467D02*
X133830074Y-123054372D01*
X133830074Y-123054372D02*
X133749122Y-123135324D01*
X133749122Y-123135324D02*
X133587217Y-123216277D01*
X133587217Y-123216277D02*
X133020550Y-123216277D01*
D10*
X152914285Y-103731009D02*
X153057142Y-103778628D01*
X153057142Y-103778628D02*
X153104761Y-103826247D01*
X153104761Y-103826247D02*
X153152380Y-103921485D01*
X153152380Y-103921485D02*
X153152380Y-104064342D01*
X153152380Y-104064342D02*
X153104761Y-104159580D01*
X153104761Y-104159580D02*
X153057142Y-104207200D01*
X153057142Y-104207200D02*
X152961904Y-104254819D01*
X152961904Y-104254819D02*
X152580952Y-104254819D01*
X152580952Y-104254819D02*
X152580952Y-103254819D01*
X152580952Y-103254819D02*
X152914285Y-103254819D01*
X152914285Y-103254819D02*
X153009523Y-103302438D01*
X153009523Y-103302438D02*
X153057142Y-103350057D01*
X153057142Y-103350057D02*
X153104761Y-103445295D01*
X153104761Y-103445295D02*
X153104761Y-103540533D01*
X153104761Y-103540533D02*
X153057142Y-103635771D01*
X153057142Y-103635771D02*
X153009523Y-103683390D01*
X153009523Y-103683390D02*
X152914285Y-103731009D01*
X152914285Y-103731009D02*
X152580952Y-103731009D01*
X153438095Y-103254819D02*
X154009523Y-103254819D01*
X153723809Y-104254819D02*
X153723809Y-103254819D01*
X154866666Y-104254819D02*
X154295238Y-104254819D01*
X154580952Y-104254819D02*
X154580952Y-103254819D01*
X154580952Y-103254819D02*
X154485714Y-103397676D01*
X154485714Y-103397676D02*
X154390476Y-103492914D01*
X154390476Y-103492914D02*
X154295238Y-103540533D01*
X152652380Y-116054819D02*
X152319047Y-115578628D01*
X152080952Y-116054819D02*
X152080952Y-115054819D01*
X152080952Y-115054819D02*
X152461904Y-115054819D01*
X152461904Y-115054819D02*
X152557142Y-115102438D01*
X152557142Y-115102438D02*
X152604761Y-115150057D01*
X152604761Y-115150057D02*
X152652380Y-115245295D01*
X152652380Y-115245295D02*
X152652380Y-115388152D01*
X152652380Y-115388152D02*
X152604761Y-115483390D01*
X152604761Y-115483390D02*
X152557142Y-115531009D01*
X152557142Y-115531009D02*
X152461904Y-115578628D01*
X152461904Y-115578628D02*
X152080952Y-115578628D01*
X153604761Y-116054819D02*
X153033333Y-116054819D01*
X153319047Y-116054819D02*
X153319047Y-115054819D01*
X153319047Y-115054819D02*
X153223809Y-115197676D01*
X153223809Y-115197676D02*
X153128571Y-115292914D01*
X153128571Y-115292914D02*
X153033333Y-115340533D01*
X154223809Y-115054819D02*
X154319047Y-115054819D01*
X154319047Y-115054819D02*
X154414285Y-115102438D01*
X154414285Y-115102438D02*
X154461904Y-115150057D01*
X154461904Y-115150057D02*
X154509523Y-115245295D01*
X154509523Y-115245295D02*
X154557142Y-115435771D01*
X154557142Y-115435771D02*
X154557142Y-115673866D01*
X154557142Y-115673866D02*
X154509523Y-115864342D01*
X154509523Y-115864342D02*
X154461904Y-115959580D01*
X154461904Y-115959580D02*
X154414285Y-116007200D01*
X154414285Y-116007200D02*
X154319047Y-116054819D01*
X154319047Y-116054819D02*
X154223809Y-116054819D01*
X154223809Y-116054819D02*
X154128571Y-116007200D01*
X154128571Y-116007200D02*
X154080952Y-115959580D01*
X154080952Y-115959580D02*
X154033333Y-115864342D01*
X154033333Y-115864342D02*
X153985714Y-115673866D01*
X153985714Y-115673866D02*
X153985714Y-115435771D01*
X153985714Y-115435771D02*
X154033333Y-115245295D01*
X154033333Y-115245295D02*
X154080952Y-115150057D01*
X154080952Y-115150057D02*
X154128571Y-115102438D01*
X154128571Y-115102438D02*
X154223809Y-115054819D01*
X154985714Y-116054819D02*
X154985714Y-115054819D01*
X155080952Y-115673866D02*
X155366666Y-116054819D01*
X155366666Y-115388152D02*
X154985714Y-115769104D01*
X145978571Y-104754819D02*
X145978571Y-103754819D01*
X145978571Y-103754819D02*
X146216666Y-103754819D01*
X146216666Y-103754819D02*
X146359523Y-103802438D01*
X146359523Y-103802438D02*
X146454761Y-103897676D01*
X146454761Y-103897676D02*
X146502380Y-103992914D01*
X146502380Y-103992914D02*
X146549999Y-104183390D01*
X146549999Y-104183390D02*
X146549999Y-104326247D01*
X146549999Y-104326247D02*
X146502380Y-104516723D01*
X146502380Y-104516723D02*
X146454761Y-104611961D01*
X146454761Y-104611961D02*
X146359523Y-104707200D01*
X146359523Y-104707200D02*
X146216666Y-104754819D01*
X146216666Y-104754819D02*
X145978571Y-104754819D01*
X147502380Y-103802438D02*
X147407142Y-103754819D01*
X147407142Y-103754819D02*
X147264285Y-103754819D01*
X147264285Y-103754819D02*
X147121428Y-103802438D01*
X147121428Y-103802438D02*
X147026190Y-103897676D01*
X147026190Y-103897676D02*
X146978571Y-103992914D01*
X146978571Y-103992914D02*
X146930952Y-104183390D01*
X146930952Y-104183390D02*
X146930952Y-104326247D01*
X146930952Y-104326247D02*
X146978571Y-104516723D01*
X146978571Y-104516723D02*
X147026190Y-104611961D01*
X147026190Y-104611961D02*
X147121428Y-104707200D01*
X147121428Y-104707200D02*
X147264285Y-104754819D01*
X147264285Y-104754819D02*
X147359523Y-104754819D01*
X147359523Y-104754819D02*
X147502380Y-104707200D01*
X147502380Y-104707200D02*
X147549999Y-104659580D01*
X147549999Y-104659580D02*
X147549999Y-104326247D01*
X147549999Y-104326247D02*
X147359523Y-104326247D01*
X147978571Y-104754819D02*
X147978571Y-104088152D01*
X147978571Y-104278628D02*
X148026190Y-104183390D01*
X148026190Y-104183390D02*
X148073809Y-104135771D01*
X148073809Y-104135771D02*
X148169047Y-104088152D01*
X148169047Y-104088152D02*
X148264285Y-104088152D01*
X151402380Y-71054819D02*
X150830952Y-71054819D01*
X151116666Y-71054819D02*
X151116666Y-70054819D01*
X151116666Y-70054819D02*
X151021428Y-70197676D01*
X151021428Y-70197676D02*
X150926190Y-70292914D01*
X150926190Y-70292914D02*
X150830952Y-70340533D01*
X152021428Y-70054819D02*
X152116666Y-70054819D01*
X152116666Y-70054819D02*
X152211904Y-70102438D01*
X152211904Y-70102438D02*
X152259523Y-70150057D01*
X152259523Y-70150057D02*
X152307142Y-70245295D01*
X152307142Y-70245295D02*
X152354761Y-70435771D01*
X152354761Y-70435771D02*
X152354761Y-70673866D01*
X152354761Y-70673866D02*
X152307142Y-70864342D01*
X152307142Y-70864342D02*
X152259523Y-70959580D01*
X152259523Y-70959580D02*
X152211904Y-71007200D01*
X152211904Y-71007200D02*
X152116666Y-71054819D01*
X152116666Y-71054819D02*
X152021428Y-71054819D01*
X152021428Y-71054819D02*
X151926190Y-71007200D01*
X151926190Y-71007200D02*
X151878571Y-70959580D01*
X151878571Y-70959580D02*
X151830952Y-70864342D01*
X151830952Y-70864342D02*
X151783333Y-70673866D01*
X151783333Y-70673866D02*
X151783333Y-70435771D01*
X151783333Y-70435771D02*
X151830952Y-70245295D01*
X151830952Y-70245295D02*
X151878571Y-70150057D01*
X151878571Y-70150057D02*
X151926190Y-70102438D01*
X151926190Y-70102438D02*
X152021428Y-70054819D01*
X152973809Y-70054819D02*
X153069047Y-70054819D01*
X153069047Y-70054819D02*
X153164285Y-70102438D01*
X153164285Y-70102438D02*
X153211904Y-70150057D01*
X153211904Y-70150057D02*
X153259523Y-70245295D01*
X153259523Y-70245295D02*
X153307142Y-70435771D01*
X153307142Y-70435771D02*
X153307142Y-70673866D01*
X153307142Y-70673866D02*
X153259523Y-70864342D01*
X153259523Y-70864342D02*
X153211904Y-70959580D01*
X153211904Y-70959580D02*
X153164285Y-71007200D01*
X153164285Y-71007200D02*
X153069047Y-71054819D01*
X153069047Y-71054819D02*
X152973809Y-71054819D01*
X152973809Y-71054819D02*
X152878571Y-71007200D01*
X152878571Y-71007200D02*
X152830952Y-70959580D01*
X152830952Y-70959580D02*
X152783333Y-70864342D01*
X152783333Y-70864342D02*
X152735714Y-70673866D01*
X152735714Y-70673866D02*
X152735714Y-70435771D01*
X152735714Y-70435771D02*
X152783333Y-70245295D01*
X152783333Y-70245295D02*
X152830952Y-70150057D01*
X152830952Y-70150057D02*
X152878571Y-70102438D01*
X152878571Y-70102438D02*
X152973809Y-70054819D01*
X153735714Y-70388152D02*
X153735714Y-71054819D01*
X153735714Y-70483390D02*
X153783333Y-70435771D01*
X153783333Y-70435771D02*
X153878571Y-70388152D01*
X153878571Y-70388152D02*
X154021428Y-70388152D01*
X154021428Y-70388152D02*
X154116666Y-70435771D01*
X154116666Y-70435771D02*
X154164285Y-70531009D01*
X154164285Y-70531009D02*
X154164285Y-71054819D01*
X154973809Y-70531009D02*
X154640476Y-70531009D01*
X154640476Y-71054819D02*
X154640476Y-70054819D01*
X154640476Y-70054819D02*
X155116666Y-70054819D01*
X103130952Y-107107200D02*
X103273809Y-107154819D01*
X103273809Y-107154819D02*
X103511904Y-107154819D01*
X103511904Y-107154819D02*
X103607142Y-107107200D01*
X103607142Y-107107200D02*
X103654761Y-107059580D01*
X103654761Y-107059580D02*
X103702380Y-106964342D01*
X103702380Y-106964342D02*
X103702380Y-106869104D01*
X103702380Y-106869104D02*
X103654761Y-106773866D01*
X103654761Y-106773866D02*
X103607142Y-106726247D01*
X103607142Y-106726247D02*
X103511904Y-106678628D01*
X103511904Y-106678628D02*
X103321428Y-106631009D01*
X103321428Y-106631009D02*
X103226190Y-106583390D01*
X103226190Y-106583390D02*
X103178571Y-106535771D01*
X103178571Y-106535771D02*
X103130952Y-106440533D01*
X103130952Y-106440533D02*
X103130952Y-106345295D01*
X103130952Y-106345295D02*
X103178571Y-106250057D01*
X103178571Y-106250057D02*
X103226190Y-106202438D01*
X103226190Y-106202438D02*
X103321428Y-106154819D01*
X103321428Y-106154819D02*
X103559523Y-106154819D01*
X103559523Y-106154819D02*
X103702380Y-106202438D01*
X104464285Y-106631009D02*
X104607142Y-106678628D01*
X104607142Y-106678628D02*
X104654761Y-106726247D01*
X104654761Y-106726247D02*
X104702380Y-106821485D01*
X104702380Y-106821485D02*
X104702380Y-106964342D01*
X104702380Y-106964342D02*
X104654761Y-107059580D01*
X104654761Y-107059580D02*
X104607142Y-107107200D01*
X104607142Y-107107200D02*
X104511904Y-107154819D01*
X104511904Y-107154819D02*
X104130952Y-107154819D01*
X104130952Y-107154819D02*
X104130952Y-106154819D01*
X104130952Y-106154819D02*
X104464285Y-106154819D01*
X104464285Y-106154819D02*
X104559523Y-106202438D01*
X104559523Y-106202438D02*
X104607142Y-106250057D01*
X104607142Y-106250057D02*
X104654761Y-106345295D01*
X104654761Y-106345295D02*
X104654761Y-106440533D01*
X104654761Y-106440533D02*
X104607142Y-106535771D01*
X104607142Y-106535771D02*
X104559523Y-106583390D01*
X104559523Y-106583390D02*
X104464285Y-106631009D01*
X104464285Y-106631009D02*
X104130952Y-106631009D01*
X104988095Y-106154819D02*
X105559523Y-106154819D01*
X105273809Y-107154819D02*
X105273809Y-106154819D01*
X105797619Y-106154819D02*
X106464285Y-107154819D01*
X106464285Y-106154819D02*
X105797619Y-107154819D01*
X107416666Y-107154819D02*
X107083333Y-106678628D01*
X106845238Y-107154819D02*
X106845238Y-106154819D01*
X106845238Y-106154819D02*
X107226190Y-106154819D01*
X107226190Y-106154819D02*
X107321428Y-106202438D01*
X107321428Y-106202438D02*
X107369047Y-106250057D01*
X107369047Y-106250057D02*
X107416666Y-106345295D01*
X107416666Y-106345295D02*
X107416666Y-106488152D01*
X107416666Y-106488152D02*
X107369047Y-106583390D01*
X107369047Y-106583390D02*
X107321428Y-106631009D01*
X107321428Y-106631009D02*
X107226190Y-106678628D01*
X107226190Y-106678628D02*
X106845238Y-106678628D01*
X107750000Y-106154819D02*
X108416666Y-107154819D01*
X108416666Y-106154819D02*
X107750000Y-107154819D01*
X152721428Y-127838152D02*
X152721428Y-128504819D01*
X152483333Y-127457200D02*
X152245238Y-128171485D01*
X152245238Y-128171485D02*
X152864285Y-128171485D01*
X153245238Y-128409580D02*
X153292857Y-128457200D01*
X153292857Y-128457200D02*
X153245238Y-128504819D01*
X153245238Y-128504819D02*
X153197619Y-128457200D01*
X153197619Y-128457200D02*
X153245238Y-128409580D01*
X153245238Y-128409580D02*
X153245238Y-128504819D01*
X153626190Y-127504819D02*
X154292856Y-127504819D01*
X154292856Y-127504819D02*
X153864285Y-128504819D01*
X154673809Y-128504819D02*
X154673809Y-127504819D01*
X154769047Y-128123866D02*
X155054761Y-128504819D01*
X155054761Y-127838152D02*
X154673809Y-128219104D01*
X161680952Y-95404819D02*
X161347619Y-94928628D01*
X161109524Y-95404819D02*
X161109524Y-94404819D01*
X161109524Y-94404819D02*
X161490476Y-94404819D01*
X161490476Y-94404819D02*
X161585714Y-94452438D01*
X161585714Y-94452438D02*
X161633333Y-94500057D01*
X161633333Y-94500057D02*
X161680952Y-94595295D01*
X161680952Y-94595295D02*
X161680952Y-94738152D01*
X161680952Y-94738152D02*
X161633333Y-94833390D01*
X161633333Y-94833390D02*
X161585714Y-94881009D01*
X161585714Y-94881009D02*
X161490476Y-94928628D01*
X161490476Y-94928628D02*
X161109524Y-94928628D01*
X162014286Y-94404819D02*
X162633333Y-94404819D01*
X162633333Y-94404819D02*
X162300000Y-94785771D01*
X162300000Y-94785771D02*
X162442857Y-94785771D01*
X162442857Y-94785771D02*
X162538095Y-94833390D01*
X162538095Y-94833390D02*
X162585714Y-94881009D01*
X162585714Y-94881009D02*
X162633333Y-94976247D01*
X162633333Y-94976247D02*
X162633333Y-95214342D01*
X162633333Y-95214342D02*
X162585714Y-95309580D01*
X162585714Y-95309580D02*
X162538095Y-95357200D01*
X162538095Y-95357200D02*
X162442857Y-95404819D01*
X162442857Y-95404819D02*
X162157143Y-95404819D01*
X162157143Y-95404819D02*
X162061905Y-95357200D01*
X162061905Y-95357200D02*
X162014286Y-95309580D01*
X163252381Y-94404819D02*
X163347619Y-94404819D01*
X163347619Y-94404819D02*
X163442857Y-94452438D01*
X163442857Y-94452438D02*
X163490476Y-94500057D01*
X163490476Y-94500057D02*
X163538095Y-94595295D01*
X163538095Y-94595295D02*
X163585714Y-94785771D01*
X163585714Y-94785771D02*
X163585714Y-95023866D01*
X163585714Y-95023866D02*
X163538095Y-95214342D01*
X163538095Y-95214342D02*
X163490476Y-95309580D01*
X163490476Y-95309580D02*
X163442857Y-95357200D01*
X163442857Y-95357200D02*
X163347619Y-95404819D01*
X163347619Y-95404819D02*
X163252381Y-95404819D01*
X163252381Y-95404819D02*
X163157143Y-95357200D01*
X163157143Y-95357200D02*
X163109524Y-95309580D01*
X163109524Y-95309580D02*
X163061905Y-95214342D01*
X163061905Y-95214342D02*
X163014286Y-95023866D01*
X163014286Y-95023866D02*
X163014286Y-94785771D01*
X163014286Y-94785771D02*
X163061905Y-94595295D01*
X163061905Y-94595295D02*
X163109524Y-94500057D01*
X163109524Y-94500057D02*
X163157143Y-94452438D01*
X163157143Y-94452438D02*
X163252381Y-94404819D01*
X164204762Y-94404819D02*
X164300000Y-94404819D01*
X164300000Y-94404819D02*
X164395238Y-94452438D01*
X164395238Y-94452438D02*
X164442857Y-94500057D01*
X164442857Y-94500057D02*
X164490476Y-94595295D01*
X164490476Y-94595295D02*
X164538095Y-94785771D01*
X164538095Y-94785771D02*
X164538095Y-95023866D01*
X164538095Y-95023866D02*
X164490476Y-95214342D01*
X164490476Y-95214342D02*
X164442857Y-95309580D01*
X164442857Y-95309580D02*
X164395238Y-95357200D01*
X164395238Y-95357200D02*
X164300000Y-95404819D01*
X164300000Y-95404819D02*
X164204762Y-95404819D01*
X164204762Y-95404819D02*
X164109524Y-95357200D01*
X164109524Y-95357200D02*
X164061905Y-95309580D01*
X164061905Y-95309580D02*
X164014286Y-95214342D01*
X164014286Y-95214342D02*
X163966667Y-95023866D01*
X163966667Y-95023866D02*
X163966667Y-94785771D01*
X163966667Y-94785771D02*
X164014286Y-94595295D01*
X164014286Y-94595295D02*
X164061905Y-94500057D01*
X164061905Y-94500057D02*
X164109524Y-94452438D01*
X164109524Y-94452438D02*
X164204762Y-94404819D01*
X152671428Y-124538152D02*
X152671428Y-125204819D01*
X152433333Y-124157200D02*
X152195238Y-124871485D01*
X152195238Y-124871485D02*
X152814285Y-124871485D01*
X153195238Y-125109580D02*
X153242857Y-125157200D01*
X153242857Y-125157200D02*
X153195238Y-125204819D01*
X153195238Y-125204819D02*
X153147619Y-125157200D01*
X153147619Y-125157200D02*
X153195238Y-125109580D01*
X153195238Y-125109580D02*
X153195238Y-125204819D01*
X153576190Y-124204819D02*
X154242856Y-124204819D01*
X154242856Y-124204819D02*
X153814285Y-125204819D01*
X154623809Y-125204819D02*
X154623809Y-124204819D01*
X154719047Y-124823866D02*
X155004761Y-125204819D01*
X155004761Y-124538152D02*
X154623809Y-124919104D01*
X154909524Y-77131009D02*
X155242857Y-77131009D01*
X155385714Y-77654819D02*
X154909524Y-77654819D01*
X154909524Y-77654819D02*
X154909524Y-76654819D01*
X154909524Y-76654819D02*
X155385714Y-76654819D01*
X156385714Y-77559580D02*
X156338095Y-77607200D01*
X156338095Y-77607200D02*
X156195238Y-77654819D01*
X156195238Y-77654819D02*
X156100000Y-77654819D01*
X156100000Y-77654819D02*
X155957143Y-77607200D01*
X155957143Y-77607200D02*
X155861905Y-77511961D01*
X155861905Y-77511961D02*
X155814286Y-77416723D01*
X155814286Y-77416723D02*
X155766667Y-77226247D01*
X155766667Y-77226247D02*
X155766667Y-77083390D01*
X155766667Y-77083390D02*
X155814286Y-76892914D01*
X155814286Y-76892914D02*
X155861905Y-76797676D01*
X155861905Y-76797676D02*
X155957143Y-76702438D01*
X155957143Y-76702438D02*
X156100000Y-76654819D01*
X156100000Y-76654819D02*
X156195238Y-76654819D01*
X156195238Y-76654819D02*
X156338095Y-76702438D01*
X156338095Y-76702438D02*
X156385714Y-76750057D01*
X156719048Y-76654819D02*
X157338095Y-76654819D01*
X157338095Y-76654819D02*
X157004762Y-77035771D01*
X157004762Y-77035771D02*
X157147619Y-77035771D01*
X157147619Y-77035771D02*
X157242857Y-77083390D01*
X157242857Y-77083390D02*
X157290476Y-77131009D01*
X157290476Y-77131009D02*
X157338095Y-77226247D01*
X157338095Y-77226247D02*
X157338095Y-77464342D01*
X157338095Y-77464342D02*
X157290476Y-77559580D01*
X157290476Y-77559580D02*
X157242857Y-77607200D01*
X157242857Y-77607200D02*
X157147619Y-77654819D01*
X157147619Y-77654819D02*
X156861905Y-77654819D01*
X156861905Y-77654819D02*
X156766667Y-77607200D01*
X156766667Y-77607200D02*
X156719048Y-77559580D01*
X153028571Y-121454819D02*
X152695238Y-120978628D01*
X152457143Y-121454819D02*
X152457143Y-120454819D01*
X152457143Y-120454819D02*
X152838095Y-120454819D01*
X152838095Y-120454819D02*
X152933333Y-120502438D01*
X152933333Y-120502438D02*
X152980952Y-120550057D01*
X152980952Y-120550057D02*
X153028571Y-120645295D01*
X153028571Y-120645295D02*
X153028571Y-120788152D01*
X153028571Y-120788152D02*
X152980952Y-120883390D01*
X152980952Y-120883390D02*
X152933333Y-120931009D01*
X152933333Y-120931009D02*
X152838095Y-120978628D01*
X152838095Y-120978628D02*
X152457143Y-120978628D01*
X153980952Y-121454819D02*
X153409524Y-121454819D01*
X153695238Y-121454819D02*
X153695238Y-120454819D01*
X153695238Y-120454819D02*
X153600000Y-120597676D01*
X153600000Y-120597676D02*
X153504762Y-120692914D01*
X153504762Y-120692914D02*
X153409524Y-120740533D01*
X154409524Y-121454819D02*
X154409524Y-120454819D01*
X154504762Y-121073866D02*
X154790476Y-121454819D01*
X154790476Y-120788152D02*
X154409524Y-121169104D01*
X151159524Y-77131009D02*
X151492857Y-77131009D01*
X151635714Y-77654819D02*
X151159524Y-77654819D01*
X151159524Y-77654819D02*
X151159524Y-76654819D01*
X151159524Y-76654819D02*
X151635714Y-76654819D01*
X152635714Y-77559580D02*
X152588095Y-77607200D01*
X152588095Y-77607200D02*
X152445238Y-77654819D01*
X152445238Y-77654819D02*
X152350000Y-77654819D01*
X152350000Y-77654819D02*
X152207143Y-77607200D01*
X152207143Y-77607200D02*
X152111905Y-77511961D01*
X152111905Y-77511961D02*
X152064286Y-77416723D01*
X152064286Y-77416723D02*
X152016667Y-77226247D01*
X152016667Y-77226247D02*
X152016667Y-77083390D01*
X152016667Y-77083390D02*
X152064286Y-76892914D01*
X152064286Y-76892914D02*
X152111905Y-76797676D01*
X152111905Y-76797676D02*
X152207143Y-76702438D01*
X152207143Y-76702438D02*
X152350000Y-76654819D01*
X152350000Y-76654819D02*
X152445238Y-76654819D01*
X152445238Y-76654819D02*
X152588095Y-76702438D01*
X152588095Y-76702438D02*
X152635714Y-76750057D01*
X153016667Y-76750057D02*
X153064286Y-76702438D01*
X153064286Y-76702438D02*
X153159524Y-76654819D01*
X153159524Y-76654819D02*
X153397619Y-76654819D01*
X153397619Y-76654819D02*
X153492857Y-76702438D01*
X153492857Y-76702438D02*
X153540476Y-76750057D01*
X153540476Y-76750057D02*
X153588095Y-76845295D01*
X153588095Y-76845295D02*
X153588095Y-76940533D01*
X153588095Y-76940533D02*
X153540476Y-77083390D01*
X153540476Y-77083390D02*
X152969048Y-77654819D01*
X152969048Y-77654819D02*
X153588095Y-77654819D01*
X161630952Y-91654819D02*
X161297619Y-91178628D01*
X161059524Y-91654819D02*
X161059524Y-90654819D01*
X161059524Y-90654819D02*
X161440476Y-90654819D01*
X161440476Y-90654819D02*
X161535714Y-90702438D01*
X161535714Y-90702438D02*
X161583333Y-90750057D01*
X161583333Y-90750057D02*
X161630952Y-90845295D01*
X161630952Y-90845295D02*
X161630952Y-90988152D01*
X161630952Y-90988152D02*
X161583333Y-91083390D01*
X161583333Y-91083390D02*
X161535714Y-91131009D01*
X161535714Y-91131009D02*
X161440476Y-91178628D01*
X161440476Y-91178628D02*
X161059524Y-91178628D01*
X161964286Y-90654819D02*
X162583333Y-90654819D01*
X162583333Y-90654819D02*
X162250000Y-91035771D01*
X162250000Y-91035771D02*
X162392857Y-91035771D01*
X162392857Y-91035771D02*
X162488095Y-91083390D01*
X162488095Y-91083390D02*
X162535714Y-91131009D01*
X162535714Y-91131009D02*
X162583333Y-91226247D01*
X162583333Y-91226247D02*
X162583333Y-91464342D01*
X162583333Y-91464342D02*
X162535714Y-91559580D01*
X162535714Y-91559580D02*
X162488095Y-91607200D01*
X162488095Y-91607200D02*
X162392857Y-91654819D01*
X162392857Y-91654819D02*
X162107143Y-91654819D01*
X162107143Y-91654819D02*
X162011905Y-91607200D01*
X162011905Y-91607200D02*
X161964286Y-91559580D01*
X163202381Y-90654819D02*
X163297619Y-90654819D01*
X163297619Y-90654819D02*
X163392857Y-90702438D01*
X163392857Y-90702438D02*
X163440476Y-90750057D01*
X163440476Y-90750057D02*
X163488095Y-90845295D01*
X163488095Y-90845295D02*
X163535714Y-91035771D01*
X163535714Y-91035771D02*
X163535714Y-91273866D01*
X163535714Y-91273866D02*
X163488095Y-91464342D01*
X163488095Y-91464342D02*
X163440476Y-91559580D01*
X163440476Y-91559580D02*
X163392857Y-91607200D01*
X163392857Y-91607200D02*
X163297619Y-91654819D01*
X163297619Y-91654819D02*
X163202381Y-91654819D01*
X163202381Y-91654819D02*
X163107143Y-91607200D01*
X163107143Y-91607200D02*
X163059524Y-91559580D01*
X163059524Y-91559580D02*
X163011905Y-91464342D01*
X163011905Y-91464342D02*
X162964286Y-91273866D01*
X162964286Y-91273866D02*
X162964286Y-91035771D01*
X162964286Y-91035771D02*
X163011905Y-90845295D01*
X163011905Y-90845295D02*
X163059524Y-90750057D01*
X163059524Y-90750057D02*
X163107143Y-90702438D01*
X163107143Y-90702438D02*
X163202381Y-90654819D01*
X164154762Y-90654819D02*
X164250000Y-90654819D01*
X164250000Y-90654819D02*
X164345238Y-90702438D01*
X164345238Y-90702438D02*
X164392857Y-90750057D01*
X164392857Y-90750057D02*
X164440476Y-90845295D01*
X164440476Y-90845295D02*
X164488095Y-91035771D01*
X164488095Y-91035771D02*
X164488095Y-91273866D01*
X164488095Y-91273866D02*
X164440476Y-91464342D01*
X164440476Y-91464342D02*
X164392857Y-91559580D01*
X164392857Y-91559580D02*
X164345238Y-91607200D01*
X164345238Y-91607200D02*
X164250000Y-91654819D01*
X164250000Y-91654819D02*
X164154762Y-91654819D01*
X164154762Y-91654819D02*
X164059524Y-91607200D01*
X164059524Y-91607200D02*
X164011905Y-91559580D01*
X164011905Y-91559580D02*
X163964286Y-91464342D01*
X163964286Y-91464342D02*
X163916667Y-91273866D01*
X163916667Y-91273866D02*
X163916667Y-91035771D01*
X163916667Y-91035771D02*
X163964286Y-90845295D01*
X163964286Y-90845295D02*
X164011905Y-90750057D01*
X164011905Y-90750057D02*
X164059524Y-90702438D01*
X164059524Y-90702438D02*
X164154762Y-90654819D01*
X109185714Y-107057200D02*
X109328571Y-107104819D01*
X109328571Y-107104819D02*
X109566666Y-107104819D01*
X109566666Y-107104819D02*
X109661904Y-107057200D01*
X109661904Y-107057200D02*
X109709523Y-107009580D01*
X109709523Y-107009580D02*
X109757142Y-106914342D01*
X109757142Y-106914342D02*
X109757142Y-106819104D01*
X109757142Y-106819104D02*
X109709523Y-106723866D01*
X109709523Y-106723866D02*
X109661904Y-106676247D01*
X109661904Y-106676247D02*
X109566666Y-106628628D01*
X109566666Y-106628628D02*
X109376190Y-106581009D01*
X109376190Y-106581009D02*
X109280952Y-106533390D01*
X109280952Y-106533390D02*
X109233333Y-106485771D01*
X109233333Y-106485771D02*
X109185714Y-106390533D01*
X109185714Y-106390533D02*
X109185714Y-106295295D01*
X109185714Y-106295295D02*
X109233333Y-106200057D01*
X109233333Y-106200057D02*
X109280952Y-106152438D01*
X109280952Y-106152438D02*
X109376190Y-106104819D01*
X109376190Y-106104819D02*
X109614285Y-106104819D01*
X109614285Y-106104819D02*
X109757142Y-106152438D01*
X110138095Y-106819104D02*
X110614285Y-106819104D01*
X110042857Y-107104819D02*
X110376190Y-106104819D01*
X110376190Y-106104819D02*
X110709523Y-107104819D01*
X111614285Y-107009580D02*
X111566666Y-107057200D01*
X111566666Y-107057200D02*
X111423809Y-107104819D01*
X111423809Y-107104819D02*
X111328571Y-107104819D01*
X111328571Y-107104819D02*
X111185714Y-107057200D01*
X111185714Y-107057200D02*
X111090476Y-106961961D01*
X111090476Y-106961961D02*
X111042857Y-106866723D01*
X111042857Y-106866723D02*
X110995238Y-106676247D01*
X110995238Y-106676247D02*
X110995238Y-106533390D01*
X110995238Y-106533390D02*
X111042857Y-106342914D01*
X111042857Y-106342914D02*
X111090476Y-106247676D01*
X111090476Y-106247676D02*
X111185714Y-106152438D01*
X111185714Y-106152438D02*
X111328571Y-106104819D01*
X111328571Y-106104819D02*
X111423809Y-106104819D01*
X111423809Y-106104819D02*
X111566666Y-106152438D01*
X111566666Y-106152438D02*
X111614285Y-106200057D01*
X158959524Y-104754819D02*
X158959524Y-103754819D01*
X158959524Y-103754819D02*
X159197619Y-103754819D01*
X159197619Y-103754819D02*
X159340476Y-103802438D01*
X159340476Y-103802438D02*
X159435714Y-103897676D01*
X159435714Y-103897676D02*
X159483333Y-103992914D01*
X159483333Y-103992914D02*
X159530952Y-104183390D01*
X159530952Y-104183390D02*
X159530952Y-104326247D01*
X159530952Y-104326247D02*
X159483333Y-104516723D01*
X159483333Y-104516723D02*
X159435714Y-104611961D01*
X159435714Y-104611961D02*
X159340476Y-104707200D01*
X159340476Y-104707200D02*
X159197619Y-104754819D01*
X159197619Y-104754819D02*
X158959524Y-104754819D01*
X160530952Y-104754819D02*
X160197619Y-104278628D01*
X159959524Y-104754819D02*
X159959524Y-103754819D01*
X159959524Y-103754819D02*
X160340476Y-103754819D01*
X160340476Y-103754819D02*
X160435714Y-103802438D01*
X160435714Y-103802438D02*
X160483333Y-103850057D01*
X160483333Y-103850057D02*
X160530952Y-103945295D01*
X160530952Y-103945295D02*
X160530952Y-104088152D01*
X160530952Y-104088152D02*
X160483333Y-104183390D01*
X160483333Y-104183390D02*
X160435714Y-104231009D01*
X160435714Y-104231009D02*
X160340476Y-104278628D01*
X160340476Y-104278628D02*
X159959524Y-104278628D01*
X161340476Y-104707200D02*
X161245238Y-104754819D01*
X161245238Y-104754819D02*
X161054762Y-104754819D01*
X161054762Y-104754819D02*
X160959524Y-104707200D01*
X160959524Y-104707200D02*
X160911905Y-104611961D01*
X160911905Y-104611961D02*
X160911905Y-104231009D01*
X160911905Y-104231009D02*
X160959524Y-104135771D01*
X160959524Y-104135771D02*
X161054762Y-104088152D01*
X161054762Y-104088152D02*
X161245238Y-104088152D01*
X161245238Y-104088152D02*
X161340476Y-104135771D01*
X161340476Y-104135771D02*
X161388095Y-104231009D01*
X161388095Y-104231009D02*
X161388095Y-104326247D01*
X161388095Y-104326247D02*
X160911905Y-104421485D01*
D12*
X97520000Y-104130000D02*
X97520000Y-102800000D01*
X98850000Y-104130000D02*
X97520000Y-104130000D01*
X100120000Y-104130000D02*
X117960000Y-104130000D01*
X100120000Y-104130000D02*
X100120000Y-101470000D01*
X117960000Y-104130000D02*
X117960000Y-101470000D01*
X100120000Y-101470000D02*
X117960000Y-101470000D01*
X100110000Y-100330000D02*
X117950000Y-100330000D01*
X100110000Y-100330000D02*
X100110000Y-97670000D01*
X117950000Y-100330000D02*
X117950000Y-97670000D01*
X97510000Y-99000000D02*
X97510000Y-97670000D01*
X97510000Y-97670000D02*
X98840000Y-97670000D01*
X100110000Y-97670000D02*
X117950000Y-97670000D01*
X158445000Y-81145000D02*
X158445000Y-86285000D01*
X158445000Y-81145000D02*
X161105000Y-81145000D01*
X158445000Y-86285000D02*
X161105000Y-86285000D01*
X159775000Y-78545000D02*
X161105000Y-78545000D01*
X161105000Y-78545000D02*
X161105000Y-79875000D01*
X161105000Y-81145000D02*
X161105000Y-86285000D01*
X147670000Y-81090000D02*
X147670000Y-86230000D01*
X147670000Y-81090000D02*
X150330000Y-81090000D01*
X147670000Y-86230000D02*
X150330000Y-86230000D01*
X149000000Y-78490000D02*
X150330000Y-78490000D01*
X150330000Y-78490000D02*
X150330000Y-79820000D01*
X150330000Y-81090000D02*
X150330000Y-86230000D01*
D11*
X143450000Y-129020000D02*
X143450000Y-76020000D01*
X143450000Y-76020000D02*
X120450000Y-76020000D01*
X120450000Y-129020000D02*
X143450000Y-129020000D01*
X120450000Y-76020000D02*
X120450000Y-129020000D01*
X126850000Y-129020000D02*
X136650000Y-129020000D01*
X136650000Y-129020000D02*
X136650000Y-119020000D01*
X136650000Y-119020000D02*
X126850000Y-119020000D01*
X126850000Y-119020000D02*
X126850000Y-129020000D01*
X113402657Y-129352856D02*
X113355038Y-129305237D01*
X113355038Y-129305237D02*
X113307419Y-129209999D01*
X113307419Y-129209999D02*
X113307419Y-128971904D01*
X113307419Y-128971904D02*
X113355038Y-128876666D01*
X113355038Y-128876666D02*
X113402657Y-128829047D01*
X113402657Y-128829047D02*
X113497895Y-128781428D01*
X113497895Y-128781428D02*
X113593133Y-128781428D01*
X113593133Y-128781428D02*
X113735990Y-128829047D01*
X113735990Y-128829047D02*
X114307419Y-129400475D01*
X114307419Y-129400475D02*
X114307419Y-128781428D01*
X114212180Y-128352856D02*
X114259800Y-128305237D01*
X114259800Y-128305237D02*
X114307419Y-128352856D01*
X114307419Y-128352856D02*
X114259800Y-128400475D01*
X114259800Y-128400475D02*
X114212180Y-128352856D01*
X114212180Y-128352856D02*
X114307419Y-128352856D01*
X113307419Y-127400476D02*
X113307419Y-127876666D01*
X113307419Y-127876666D02*
X113783609Y-127924285D01*
X113783609Y-127924285D02*
X113735990Y-127876666D01*
X113735990Y-127876666D02*
X113688371Y-127781428D01*
X113688371Y-127781428D02*
X113688371Y-127543333D01*
X113688371Y-127543333D02*
X113735990Y-127448095D01*
X113735990Y-127448095D02*
X113783609Y-127400476D01*
X113783609Y-127400476D02*
X113878847Y-127352857D01*
X113878847Y-127352857D02*
X114116942Y-127352857D01*
X114116942Y-127352857D02*
X114212180Y-127400476D01*
X114212180Y-127400476D02*
X114259800Y-127448095D01*
X114259800Y-127448095D02*
X114307419Y-127543333D01*
X114307419Y-127543333D02*
X114307419Y-127781428D01*
X114307419Y-127781428D02*
X114259800Y-127876666D01*
X114259800Y-127876666D02*
X114212180Y-127924285D01*
X113640752Y-126495714D02*
X114307419Y-126495714D01*
X113259800Y-126733809D02*
X113974085Y-126971904D01*
X113974085Y-126971904D02*
X113974085Y-126352857D01*
X113307419Y-125781428D02*
X113307419Y-125686190D01*
X113307419Y-125686190D02*
X113355038Y-125590952D01*
X113355038Y-125590952D02*
X113402657Y-125543333D01*
X113402657Y-125543333D02*
X113497895Y-125495714D01*
X113497895Y-125495714D02*
X113688371Y-125448095D01*
X113688371Y-125448095D02*
X113926466Y-125448095D01*
X113926466Y-125448095D02*
X114116942Y-125495714D01*
X114116942Y-125495714D02*
X114212180Y-125543333D01*
X114212180Y-125543333D02*
X114259800Y-125590952D01*
X114259800Y-125590952D02*
X114307419Y-125686190D01*
X114307419Y-125686190D02*
X114307419Y-125781428D01*
X114307419Y-125781428D02*
X114259800Y-125876666D01*
X114259800Y-125876666D02*
X114212180Y-125924285D01*
X114212180Y-125924285D02*
X114116942Y-125971904D01*
X114116942Y-125971904D02*
X113926466Y-126019523D01*
X113926466Y-126019523D02*
X113688371Y-126019523D01*
X113688371Y-126019523D02*
X113497895Y-125971904D01*
X113497895Y-125971904D02*
X113402657Y-125924285D01*
X113402657Y-125924285D02*
X113355038Y-125876666D01*
X113355038Y-125876666D02*
X113307419Y-125781428D01*
X113307419Y-124829047D02*
X113307419Y-124733809D01*
X113307419Y-124733809D02*
X113355038Y-124638571D01*
X113355038Y-124638571D02*
X113402657Y-124590952D01*
X113402657Y-124590952D02*
X113497895Y-124543333D01*
X113497895Y-124543333D02*
X113688371Y-124495714D01*
X113688371Y-124495714D02*
X113926466Y-124495714D01*
X113926466Y-124495714D02*
X114116942Y-124543333D01*
X114116942Y-124543333D02*
X114212180Y-124590952D01*
X114212180Y-124590952D02*
X114259800Y-124638571D01*
X114259800Y-124638571D02*
X114307419Y-124733809D01*
X114307419Y-124733809D02*
X114307419Y-124829047D01*
X114307419Y-124829047D02*
X114259800Y-124924285D01*
X114259800Y-124924285D02*
X114212180Y-124971904D01*
X114212180Y-124971904D02*
X114116942Y-125019523D01*
X114116942Y-125019523D02*
X113926466Y-125067142D01*
X113926466Y-125067142D02*
X113688371Y-125067142D01*
X113688371Y-125067142D02*
X113497895Y-125019523D01*
X113497895Y-125019523D02*
X113402657Y-124971904D01*
X113402657Y-124971904D02*
X113355038Y-124924285D01*
X113355038Y-124924285D02*
X113307419Y-124829047D01*
X114307419Y-123305237D02*
X113640752Y-123305237D01*
X113735990Y-123305237D02*
X113688371Y-123257618D01*
X113688371Y-123257618D02*
X113640752Y-123162380D01*
X113640752Y-123162380D02*
X113640752Y-123019523D01*
X113640752Y-123019523D02*
X113688371Y-122924285D01*
X113688371Y-122924285D02*
X113783609Y-122876666D01*
X113783609Y-122876666D02*
X114307419Y-122876666D01*
X113783609Y-122876666D02*
X113688371Y-122829047D01*
X113688371Y-122829047D02*
X113640752Y-122733809D01*
X113640752Y-122733809D02*
X113640752Y-122590952D01*
X113640752Y-122590952D02*
X113688371Y-122495713D01*
X113688371Y-122495713D02*
X113783609Y-122448094D01*
X113783609Y-122448094D02*
X114307419Y-122448094D01*
X114307419Y-121971904D02*
X113640752Y-121971904D01*
X113735990Y-121971904D02*
X113688371Y-121924285D01*
X113688371Y-121924285D02*
X113640752Y-121829047D01*
X113640752Y-121829047D02*
X113640752Y-121686190D01*
X113640752Y-121686190D02*
X113688371Y-121590952D01*
X113688371Y-121590952D02*
X113783609Y-121543333D01*
X113783609Y-121543333D02*
X114307419Y-121543333D01*
X113783609Y-121543333D02*
X113688371Y-121495714D01*
X113688371Y-121495714D02*
X113640752Y-121400476D01*
X113640752Y-121400476D02*
X113640752Y-121257619D01*
X113640752Y-121257619D02*
X113688371Y-121162380D01*
X113688371Y-121162380D02*
X113783609Y-121114761D01*
X113783609Y-121114761D02*
X114307419Y-121114761D01*
X123500000Y-126480000D02*
X114363580Y-126480000D01*
X123500000Y-123940000D02*
X114363580Y-123940000D01*
X114950000Y-126480000D02*
X114950000Y-123940000D01*
X114950000Y-126480000D02*
X114950000Y-123940000D01*
X114950000Y-126480000D02*
X114363579Y-125353496D01*
X114950000Y-126480000D02*
X115536421Y-125353496D01*
X114950000Y-123940000D02*
X115536421Y-125066504D01*
X114950000Y-123940000D02*
X114363579Y-125066504D01*
X127927381Y-135677419D02*
X127355953Y-135677419D01*
X127641667Y-135677419D02*
X127641667Y-134677419D01*
X127641667Y-134677419D02*
X127546429Y-134820276D01*
X127546429Y-134820276D02*
X127451191Y-134915514D01*
X127451191Y-134915514D02*
X127355953Y-134963133D01*
X128832143Y-134677419D02*
X128355953Y-134677419D01*
X128355953Y-134677419D02*
X128308334Y-135153609D01*
X128308334Y-135153609D02*
X128355953Y-135105990D01*
X128355953Y-135105990D02*
X128451191Y-135058371D01*
X128451191Y-135058371D02*
X128689286Y-135058371D01*
X128689286Y-135058371D02*
X128784524Y-135105990D01*
X128784524Y-135105990D02*
X128832143Y-135153609D01*
X128832143Y-135153609D02*
X128879762Y-135248847D01*
X128879762Y-135248847D02*
X128879762Y-135486942D01*
X128879762Y-135486942D02*
X128832143Y-135582180D01*
X128832143Y-135582180D02*
X128784524Y-135629800D01*
X128784524Y-135629800D02*
X128689286Y-135677419D01*
X128689286Y-135677419D02*
X128451191Y-135677419D01*
X128451191Y-135677419D02*
X128355953Y-135629800D01*
X128355953Y-135629800D02*
X128308334Y-135582180D01*
X129308334Y-135582180D02*
X129355953Y-135629800D01*
X129355953Y-135629800D02*
X129308334Y-135677419D01*
X129308334Y-135677419D02*
X129260715Y-135629800D01*
X129260715Y-135629800D02*
X129308334Y-135582180D01*
X129308334Y-135582180D02*
X129308334Y-135677419D01*
X129832143Y-135677419D02*
X130022619Y-135677419D01*
X130022619Y-135677419D02*
X130117857Y-135629800D01*
X130117857Y-135629800D02*
X130165476Y-135582180D01*
X130165476Y-135582180D02*
X130260714Y-135439323D01*
X130260714Y-135439323D02*
X130308333Y-135248847D01*
X130308333Y-135248847D02*
X130308333Y-134867895D01*
X130308333Y-134867895D02*
X130260714Y-134772657D01*
X130260714Y-134772657D02*
X130213095Y-134725038D01*
X130213095Y-134725038D02*
X130117857Y-134677419D01*
X130117857Y-134677419D02*
X129927381Y-134677419D01*
X129927381Y-134677419D02*
X129832143Y-134725038D01*
X129832143Y-134725038D02*
X129784524Y-134772657D01*
X129784524Y-134772657D02*
X129736905Y-134867895D01*
X129736905Y-134867895D02*
X129736905Y-135105990D01*
X129736905Y-135105990D02*
X129784524Y-135201228D01*
X129784524Y-135201228D02*
X129832143Y-135248847D01*
X129832143Y-135248847D02*
X129927381Y-135296466D01*
X129927381Y-135296466D02*
X130117857Y-135296466D01*
X130117857Y-135296466D02*
X130213095Y-135248847D01*
X130213095Y-135248847D02*
X130260714Y-135201228D01*
X130260714Y-135201228D02*
X130308333Y-135105990D01*
X131213095Y-134677419D02*
X130736905Y-134677419D01*
X130736905Y-134677419D02*
X130689286Y-135153609D01*
X130689286Y-135153609D02*
X130736905Y-135105990D01*
X130736905Y-135105990D02*
X130832143Y-135058371D01*
X130832143Y-135058371D02*
X131070238Y-135058371D01*
X131070238Y-135058371D02*
X131165476Y-135105990D01*
X131165476Y-135105990D02*
X131213095Y-135153609D01*
X131213095Y-135153609D02*
X131260714Y-135248847D01*
X131260714Y-135248847D02*
X131260714Y-135486942D01*
X131260714Y-135486942D02*
X131213095Y-135582180D01*
X131213095Y-135582180D02*
X131165476Y-135629800D01*
X131165476Y-135629800D02*
X131070238Y-135677419D01*
X131070238Y-135677419D02*
X130832143Y-135677419D01*
X130832143Y-135677419D02*
X130736905Y-135629800D01*
X130736905Y-135629800D02*
X130689286Y-135582180D01*
X131879762Y-134677419D02*
X131975000Y-134677419D01*
X131975000Y-134677419D02*
X132070238Y-134725038D01*
X132070238Y-134725038D02*
X132117857Y-134772657D01*
X132117857Y-134772657D02*
X132165476Y-134867895D01*
X132165476Y-134867895D02*
X132213095Y-135058371D01*
X132213095Y-135058371D02*
X132213095Y-135296466D01*
X132213095Y-135296466D02*
X132165476Y-135486942D01*
X132165476Y-135486942D02*
X132117857Y-135582180D01*
X132117857Y-135582180D02*
X132070238Y-135629800D01*
X132070238Y-135629800D02*
X131975000Y-135677419D01*
X131975000Y-135677419D02*
X131879762Y-135677419D01*
X131879762Y-135677419D02*
X131784524Y-135629800D01*
X131784524Y-135629800D02*
X131736905Y-135582180D01*
X131736905Y-135582180D02*
X131689286Y-135486942D01*
X131689286Y-135486942D02*
X131641667Y-135296466D01*
X131641667Y-135296466D02*
X131641667Y-135058371D01*
X131641667Y-135058371D02*
X131689286Y-134867895D01*
X131689286Y-134867895D02*
X131736905Y-134772657D01*
X131736905Y-134772657D02*
X131784524Y-134725038D01*
X131784524Y-134725038D02*
X131879762Y-134677419D01*
X132832143Y-134677419D02*
X132927381Y-134677419D01*
X132927381Y-134677419D02*
X133022619Y-134725038D01*
X133022619Y-134725038D02*
X133070238Y-134772657D01*
X133070238Y-134772657D02*
X133117857Y-134867895D01*
X133117857Y-134867895D02*
X133165476Y-135058371D01*
X133165476Y-135058371D02*
X133165476Y-135296466D01*
X133165476Y-135296466D02*
X133117857Y-135486942D01*
X133117857Y-135486942D02*
X133070238Y-135582180D01*
X133070238Y-135582180D02*
X133022619Y-135629800D01*
X133022619Y-135629800D02*
X132927381Y-135677419D01*
X132927381Y-135677419D02*
X132832143Y-135677419D01*
X132832143Y-135677419D02*
X132736905Y-135629800D01*
X132736905Y-135629800D02*
X132689286Y-135582180D01*
X132689286Y-135582180D02*
X132641667Y-135486942D01*
X132641667Y-135486942D02*
X132594048Y-135296466D01*
X132594048Y-135296466D02*
X132594048Y-135058371D01*
X132594048Y-135058371D02*
X132641667Y-134867895D01*
X132641667Y-134867895D02*
X132689286Y-134772657D01*
X132689286Y-134772657D02*
X132736905Y-134725038D01*
X132736905Y-134725038D02*
X132832143Y-134677419D01*
X134355953Y-135677419D02*
X134355953Y-135010752D01*
X134355953Y-135105990D02*
X134403572Y-135058371D01*
X134403572Y-135058371D02*
X134498810Y-135010752D01*
X134498810Y-135010752D02*
X134641667Y-135010752D01*
X134641667Y-135010752D02*
X134736905Y-135058371D01*
X134736905Y-135058371D02*
X134784524Y-135153609D01*
X134784524Y-135153609D02*
X134784524Y-135677419D01*
X134784524Y-135153609D02*
X134832143Y-135058371D01*
X134832143Y-135058371D02*
X134927381Y-135010752D01*
X134927381Y-135010752D02*
X135070238Y-135010752D01*
X135070238Y-135010752D02*
X135165477Y-135058371D01*
X135165477Y-135058371D02*
X135213096Y-135153609D01*
X135213096Y-135153609D02*
X135213096Y-135677419D01*
X135689286Y-135677419D02*
X135689286Y-135010752D01*
X135689286Y-135105990D02*
X135736905Y-135058371D01*
X135736905Y-135058371D02*
X135832143Y-135010752D01*
X135832143Y-135010752D02*
X135975000Y-135010752D01*
X135975000Y-135010752D02*
X136070238Y-135058371D01*
X136070238Y-135058371D02*
X136117857Y-135153609D01*
X136117857Y-135153609D02*
X136117857Y-135677419D01*
X136117857Y-135153609D02*
X136165476Y-135058371D01*
X136165476Y-135058371D02*
X136260714Y-135010752D01*
X136260714Y-135010752D02*
X136403571Y-135010752D01*
X136403571Y-135010752D02*
X136498810Y-135058371D01*
X136498810Y-135058371D02*
X136546429Y-135153609D01*
X136546429Y-135153609D02*
X136546429Y-135677419D01*
X139950000Y-126980000D02*
X139950000Y-136906420D01*
X124000000Y-126980000D02*
X124000000Y-136906420D01*
X139950000Y-136320000D02*
X124000000Y-136320000D01*
X139950000Y-136320000D02*
X124000000Y-136320000D01*
X139950000Y-136320000D02*
X138823496Y-136906421D01*
X139950000Y-136320000D02*
X138823496Y-135733579D01*
X124000000Y-136320000D02*
X125126504Y-135733579D01*
X124000000Y-136320000D02*
X125126504Y-136906421D01*
D12*
X151195000Y-107550000D02*
X151195000Y-106220000D01*
X152525000Y-107550000D02*
X151195000Y-107550000D01*
X153795000Y-107550000D02*
X156395000Y-107550000D01*
X153795000Y-107550000D02*
X153795000Y-104890000D01*
X156395000Y-107550000D02*
X156395000Y-104890000D01*
X153795000Y-104890000D02*
X156395000Y-104890000D01*
X158960000Y-113020000D02*
X158270000Y-113020000D01*
X158270000Y-114740000D02*
X158270000Y-111300000D01*
X158270000Y-111300000D02*
X149030000Y-111300000D01*
X149030000Y-114740000D02*
X158270000Y-114740000D01*
X149030000Y-111300000D02*
X149030000Y-114740000D01*
X148340000Y-113020000D02*
X149030000Y-113020000D01*
X144320000Y-98755000D02*
X144320000Y-101845000D01*
X149869999Y-100300462D02*
G75*
G03*
X144320001Y-98755170I-2989999J462D01*
G01*
X144320000Y-101844830D02*
G75*
G03*
X149870000Y-100299538I2560000J1544830D01*
G01*
X149380000Y-100300000D02*
G75*
G03*
X149380000Y-100300000I-2500000J0D01*
G01*
X156020000Y-75971000D02*
X156020000Y-74575000D01*
X156020000Y-75971000D02*
X149780000Y-75971000D01*
X156020000Y-72725000D02*
X156020000Y-71329000D01*
X156020000Y-71329000D02*
X149780000Y-71329000D01*
X149780000Y-75971000D02*
X149780000Y-74575000D01*
X149780000Y-72725000D02*
X149780000Y-71329000D01*
X104420000Y-110540000D02*
X104420000Y-128380000D01*
X104420000Y-110540000D02*
X107080000Y-110540000D01*
X104420000Y-128380000D02*
X107080000Y-128380000D01*
X105750000Y-107940000D02*
X107080000Y-107940000D01*
X107080000Y-107940000D02*
X107080000Y-109270000D01*
X107080000Y-110540000D02*
X107080000Y-128380000D01*
X150820000Y-128020000D02*
X151770000Y-128020000D01*
X151770000Y-127100000D02*
X151770000Y-128940000D01*
X151770000Y-128940000D02*
X155610000Y-128940000D01*
X155610000Y-127100000D02*
X151770000Y-127100000D01*
X155610000Y-128940000D02*
X155610000Y-127100000D01*
X156560000Y-128020000D02*
X155610000Y-128020000D01*
X148140000Y-94850000D02*
X148830000Y-94850000D01*
X148830000Y-93130000D02*
X148830000Y-96570000D01*
X148830000Y-96570000D02*
X158070000Y-96570000D01*
X158070000Y-93130000D02*
X148830000Y-93130000D01*
X158070000Y-96570000D02*
X158070000Y-93130000D01*
X158760000Y-94850000D02*
X158070000Y-94850000D01*
X150820000Y-124720000D02*
X151770000Y-124720000D01*
X151770000Y-123800000D02*
X151770000Y-125640000D01*
X151770000Y-125640000D02*
X155610000Y-125640000D01*
X155610000Y-123800000D02*
X151770000Y-123800000D01*
X155610000Y-125640000D02*
X155610000Y-123800000D01*
X156560000Y-124720000D02*
X155610000Y-124720000D01*
X154870000Y-81140000D02*
X154870000Y-86280000D01*
X154870000Y-81140000D02*
X157530000Y-81140000D01*
X154870000Y-86280000D02*
X157530000Y-86280000D01*
X156200000Y-78540000D02*
X157530000Y-78540000D01*
X157530000Y-78540000D02*
X157530000Y-79870000D01*
X157530000Y-81140000D02*
X157530000Y-86280000D01*
X148390000Y-118420000D02*
X149080000Y-118420000D01*
X149080000Y-116700000D02*
X149080000Y-120140000D01*
X149080000Y-120140000D02*
X158320000Y-120140000D01*
X158320000Y-116700000D02*
X149080000Y-116700000D01*
X158320000Y-120140000D02*
X158320000Y-116700000D01*
X159010000Y-118420000D02*
X158320000Y-118420000D01*
X151320000Y-81130000D02*
X151320000Y-86270000D01*
X151320000Y-81130000D02*
X153980000Y-81130000D01*
X151320000Y-86270000D02*
X153980000Y-86270000D01*
X152650000Y-78530000D02*
X153980000Y-78530000D01*
X153980000Y-78530000D02*
X153980000Y-79860000D01*
X153980000Y-81130000D02*
X153980000Y-86270000D01*
X148140000Y-91100000D02*
X148830000Y-91100000D01*
X148830000Y-89380000D02*
X148830000Y-92820000D01*
X148830000Y-92820000D02*
X158070000Y-92820000D01*
X158070000Y-89380000D02*
X148830000Y-89380000D01*
X158070000Y-92820000D02*
X158070000Y-89380000D01*
X158760000Y-91100000D02*
X158070000Y-91100000D01*
X108970000Y-110620000D02*
X108970000Y-128460000D01*
X108970000Y-110620000D02*
X111630000Y-110620000D01*
X108970000Y-128460000D02*
X111630000Y-128460000D01*
X110300000Y-108020000D02*
X111630000Y-108020000D01*
X111630000Y-108020000D02*
X111630000Y-109350000D01*
X111630000Y-110620000D02*
X111630000Y-128460000D01*
X157470000Y-98755000D02*
X157470000Y-101845000D01*
X163019999Y-100300462D02*
G75*
G03*
X157470001Y-98755170I-2989999J462D01*
G01*
X157470000Y-101844830D02*
G75*
G03*
X163020000Y-100299538I2560000J1544830D01*
G01*
X162530000Y-100300000D02*
G75*
G03*
X162530000Y-100300000I-2500000J0D01*
G01*
%LPC*%
D13*
X98850000Y-102800000D03*
D14*
X101390000Y-102800000D03*
X103930000Y-102800000D03*
X106470000Y-102800000D03*
X109010000Y-102800000D03*
X111550000Y-102800000D03*
X114090000Y-102800000D03*
X116630000Y-102800000D03*
D13*
X98840000Y-99000000D03*
D14*
X101380000Y-99000000D03*
X103920000Y-99000000D03*
X106460000Y-99000000D03*
X109000000Y-99000000D03*
X111540000Y-99000000D03*
X114080000Y-99000000D03*
X116620000Y-99000000D03*
D13*
X159775000Y-79875000D03*
D14*
X159775000Y-82415000D03*
X159775000Y-84955000D03*
D15*
X92650000Y-65400000D03*
D13*
X149000000Y-79820000D03*
D14*
X149000000Y-82360000D03*
X149000000Y-84900000D03*
D16*
X124000000Y-78220000D03*
X124000000Y-80760000D03*
X124000000Y-83300000D03*
X124000000Y-85840000D03*
X124000000Y-118860000D03*
X124000000Y-88380000D03*
X124000000Y-90920000D03*
X124000000Y-93460000D03*
X124000000Y-96000000D03*
X124000000Y-98540000D03*
X124000000Y-101080000D03*
X124000000Y-103620000D03*
X124000000Y-106160000D03*
X124000000Y-108700000D03*
X124000000Y-111240000D03*
X124000000Y-113780000D03*
X124000000Y-116320000D03*
X139950000Y-80760000D03*
X124000000Y-126480000D03*
X124000000Y-123940000D03*
X139950000Y-83300000D03*
X139950000Y-126480000D03*
X139950000Y-123940000D03*
X139950000Y-121400000D03*
X139950000Y-118860000D03*
X139950000Y-116320000D03*
X139950000Y-113780000D03*
X139950000Y-111240000D03*
X139950000Y-108700000D03*
X139950000Y-106160000D03*
X139950000Y-78220000D03*
X139950000Y-103620000D03*
X139950000Y-101080000D03*
X139950000Y-98540000D03*
X139950000Y-96000000D03*
X139950000Y-93460000D03*
X139950000Y-90920000D03*
X139950000Y-88380000D03*
X139950000Y-85840000D03*
X124000000Y-121400000D03*
D13*
X152525000Y-106220000D03*
D14*
X155065000Y-106220000D03*
D17*
X160000000Y-113020000D03*
D18*
X147300000Y-113020000D03*
D19*
X145610000Y-100300000D03*
D20*
X148150000Y-100300000D03*
D17*
X155400000Y-73650000D03*
X150400000Y-73650000D03*
D13*
X105750000Y-109270000D03*
D14*
X105750000Y-111810000D03*
X105750000Y-114350000D03*
X105750000Y-116890000D03*
X105750000Y-119430000D03*
X105750000Y-121970000D03*
X105750000Y-124510000D03*
X105750000Y-127050000D03*
D21*
X149880000Y-128020000D03*
D22*
X157500000Y-128020000D03*
D17*
X147100000Y-94850000D03*
D18*
X159800000Y-94850000D03*
D21*
X149880000Y-124720000D03*
D22*
X157500000Y-124720000D03*
D13*
X156200000Y-79870000D03*
D14*
X156200000Y-82410000D03*
X156200000Y-84950000D03*
D17*
X147350000Y-118420000D03*
D18*
X160050000Y-118420000D03*
D13*
X152650000Y-79860000D03*
D14*
X152650000Y-82400000D03*
X152650000Y-84940000D03*
D17*
X147100000Y-91100000D03*
D18*
X159800000Y-91100000D03*
D15*
X168350000Y-65540410D03*
D13*
X110300000Y-109350000D03*
D14*
X110300000Y-111890000D03*
X110300000Y-114430000D03*
X110300000Y-116970000D03*
X110300000Y-119510000D03*
X110300000Y-122050000D03*
X110300000Y-124590000D03*
X110300000Y-127130000D03*
D15*
X168500000Y-137900000D03*
X92226651Y-137894591D03*
D19*
X158760000Y-100300000D03*
D20*
X161300000Y-100300000D03*
%LPD*%
M02*
