G04 #@! TF.GenerationSoftware,KiCad,Pcbnew,7.0.7*
G04 #@! TF.CreationDate,2024-06-07T19:14:15+02:00*
G04 #@! TF.ProjectId,stm32-drone,73746d33-322d-4647-926f-6e652e6b6963,rev?*
G04 #@! TF.SameCoordinates,Original*
G04 #@! TF.FileFunction,Legend,Bot*
G04 #@! TF.FilePolarity,Positive*
%FSLAX46Y46*%
G04 Gerber Fmt 4.6, Leading zero omitted, Abs format (unit mm)*
G04 Created by KiCad (PCBNEW 7.0.7) date 2024-06-07 19:14:15*
%MOMM*%
%LPD*%
G01*
G04 APERTURE LIST*
%ADD10C,0.150000*%
%ADD11R,1.700000X1.700000*%
%ADD12O,1.700000X1.700000*%
%ADD13C,3.000000*%
%ADD14C,1.524000*%
%ADD15C,1.600000*%
%ADD16O,1.600000X1.600000*%
%ADD17R,1.800000X1.800000*%
%ADD18C,1.800000*%
%ADD19C,1.400000*%
%ADD20O,1.400000X1.400000*%
G04 APERTURE END LIST*
D10*
X103401064Y-85714104D02*
X103401064Y-82856961D01*
X104734398Y-84952200D02*
X105020112Y-85047438D01*
X105020112Y-85047438D02*
X105496303Y-85047438D01*
X105496303Y-85047438D02*
X105686779Y-84952200D01*
X105686779Y-84952200D02*
X105782017Y-84856961D01*
X105782017Y-84856961D02*
X105877255Y-84666485D01*
X105877255Y-84666485D02*
X105877255Y-84476009D01*
X105877255Y-84476009D02*
X105782017Y-84285533D01*
X105782017Y-84285533D02*
X105686779Y-84190295D01*
X105686779Y-84190295D02*
X105496303Y-84095057D01*
X105496303Y-84095057D02*
X105115350Y-83999819D01*
X105115350Y-83999819D02*
X104924874Y-83904580D01*
X104924874Y-83904580D02*
X104829636Y-83809342D01*
X104829636Y-83809342D02*
X104734398Y-83618866D01*
X104734398Y-83618866D02*
X104734398Y-83428390D01*
X104734398Y-83428390D02*
X104829636Y-83237914D01*
X104829636Y-83237914D02*
X104924874Y-83142676D01*
X104924874Y-83142676D02*
X105115350Y-83047438D01*
X105115350Y-83047438D02*
X105591541Y-83047438D01*
X105591541Y-83047438D02*
X105877255Y-83142676D01*
X106448684Y-83047438D02*
X107591541Y-83047438D01*
X107020112Y-85047438D02*
X107020112Y-83047438D01*
X108258208Y-85047438D02*
X108258208Y-83047438D01*
X108258208Y-83047438D02*
X108924875Y-84476009D01*
X108924875Y-84476009D02*
X109591541Y-83047438D01*
X109591541Y-83047438D02*
X109591541Y-85047438D01*
X110353446Y-83047438D02*
X111591541Y-83047438D01*
X111591541Y-83047438D02*
X110924874Y-83809342D01*
X110924874Y-83809342D02*
X111210589Y-83809342D01*
X111210589Y-83809342D02*
X111401065Y-83904580D01*
X111401065Y-83904580D02*
X111496303Y-83999819D01*
X111496303Y-83999819D02*
X111591541Y-84190295D01*
X111591541Y-84190295D02*
X111591541Y-84666485D01*
X111591541Y-84666485D02*
X111496303Y-84856961D01*
X111496303Y-84856961D02*
X111401065Y-84952200D01*
X111401065Y-84952200D02*
X111210589Y-85047438D01*
X111210589Y-85047438D02*
X110639160Y-85047438D01*
X110639160Y-85047438D02*
X110448684Y-84952200D01*
X110448684Y-84952200D02*
X110353446Y-84856961D01*
X112353446Y-83237914D02*
X112448684Y-83142676D01*
X112448684Y-83142676D02*
X112639160Y-83047438D01*
X112639160Y-83047438D02*
X113115351Y-83047438D01*
X113115351Y-83047438D02*
X113305827Y-83142676D01*
X113305827Y-83142676D02*
X113401065Y-83237914D01*
X113401065Y-83237914D02*
X113496303Y-83428390D01*
X113496303Y-83428390D02*
X113496303Y-83618866D01*
X113496303Y-83618866D02*
X113401065Y-83904580D01*
X113401065Y-83904580D02*
X112258208Y-85047438D01*
X112258208Y-85047438D02*
X113496303Y-85047438D01*
X115020113Y-83999819D02*
X114353446Y-83999819D01*
X114353446Y-85047438D02*
X114353446Y-83047438D01*
X114353446Y-83047438D02*
X115305827Y-83047438D01*
X117115351Y-85047438D02*
X115972494Y-85047438D01*
X116543922Y-85047438D02*
X116543922Y-83047438D01*
X116543922Y-83047438D02*
X116353446Y-83333152D01*
X116353446Y-83333152D02*
X116162970Y-83523628D01*
X116162970Y-83523628D02*
X115972494Y-83618866D01*
X118353446Y-83047438D02*
X118543923Y-83047438D01*
X118543923Y-83047438D02*
X118734399Y-83142676D01*
X118734399Y-83142676D02*
X118829637Y-83237914D01*
X118829637Y-83237914D02*
X118924875Y-83428390D01*
X118924875Y-83428390D02*
X119020113Y-83809342D01*
X119020113Y-83809342D02*
X119020113Y-84285533D01*
X119020113Y-84285533D02*
X118924875Y-84666485D01*
X118924875Y-84666485D02*
X118829637Y-84856961D01*
X118829637Y-84856961D02*
X118734399Y-84952200D01*
X118734399Y-84952200D02*
X118543923Y-85047438D01*
X118543923Y-85047438D02*
X118353446Y-85047438D01*
X118353446Y-85047438D02*
X118162970Y-84952200D01*
X118162970Y-84952200D02*
X118067732Y-84856961D01*
X118067732Y-84856961D02*
X117972494Y-84666485D01*
X117972494Y-84666485D02*
X117877256Y-84285533D01*
X117877256Y-84285533D02*
X117877256Y-83809342D01*
X117877256Y-83809342D02*
X117972494Y-83428390D01*
X117972494Y-83428390D02*
X118067732Y-83237914D01*
X118067732Y-83237914D02*
X118162970Y-83142676D01*
X118162970Y-83142676D02*
X118353446Y-83047438D01*
X119686780Y-83047438D02*
X120924875Y-83047438D01*
X120924875Y-83047438D02*
X120258208Y-83809342D01*
X120258208Y-83809342D02*
X120543923Y-83809342D01*
X120543923Y-83809342D02*
X120734399Y-83904580D01*
X120734399Y-83904580D02*
X120829637Y-83999819D01*
X120829637Y-83999819D02*
X120924875Y-84190295D01*
X120924875Y-84190295D02*
X120924875Y-84666485D01*
X120924875Y-84666485D02*
X120829637Y-84856961D01*
X120829637Y-84856961D02*
X120734399Y-84952200D01*
X120734399Y-84952200D02*
X120543923Y-85047438D01*
X120543923Y-85047438D02*
X119972494Y-85047438D01*
X119972494Y-85047438D02*
X119782018Y-84952200D01*
X119782018Y-84952200D02*
X119686780Y-84856961D01*
X123972495Y-83999819D02*
X123305828Y-83999819D01*
X123305828Y-85047438D02*
X123305828Y-83047438D01*
X123305828Y-83047438D02*
X124258209Y-83047438D01*
X125972495Y-85047438D02*
X125020114Y-85047438D01*
X125020114Y-85047438D02*
X125020114Y-83047438D01*
X126639162Y-85047438D02*
X126639162Y-83047438D01*
X128639162Y-83142676D02*
X128448686Y-83047438D01*
X128448686Y-83047438D02*
X128162972Y-83047438D01*
X128162972Y-83047438D02*
X127877257Y-83142676D01*
X127877257Y-83142676D02*
X127686781Y-83333152D01*
X127686781Y-83333152D02*
X127591543Y-83523628D01*
X127591543Y-83523628D02*
X127496305Y-83904580D01*
X127496305Y-83904580D02*
X127496305Y-84190295D01*
X127496305Y-84190295D02*
X127591543Y-84571247D01*
X127591543Y-84571247D02*
X127686781Y-84761723D01*
X127686781Y-84761723D02*
X127877257Y-84952200D01*
X127877257Y-84952200D02*
X128162972Y-85047438D01*
X128162972Y-85047438D02*
X128353448Y-85047438D01*
X128353448Y-85047438D02*
X128639162Y-84952200D01*
X128639162Y-84952200D02*
X128734400Y-84856961D01*
X128734400Y-84856961D02*
X128734400Y-84190295D01*
X128734400Y-84190295D02*
X128353448Y-84190295D01*
X129591543Y-85047438D02*
X129591543Y-83047438D01*
X129591543Y-83999819D02*
X130734400Y-83999819D01*
X130734400Y-85047438D02*
X130734400Y-83047438D01*
X131401067Y-83047438D02*
X132543924Y-83047438D01*
X131972495Y-85047438D02*
X131972495Y-83047438D01*
X135877258Y-84856961D02*
X135782020Y-84952200D01*
X135782020Y-84952200D02*
X135496306Y-85047438D01*
X135496306Y-85047438D02*
X135305830Y-85047438D01*
X135305830Y-85047438D02*
X135020115Y-84952200D01*
X135020115Y-84952200D02*
X134829639Y-84761723D01*
X134829639Y-84761723D02*
X134734401Y-84571247D01*
X134734401Y-84571247D02*
X134639163Y-84190295D01*
X134639163Y-84190295D02*
X134639163Y-83904580D01*
X134639163Y-83904580D02*
X134734401Y-83523628D01*
X134734401Y-83523628D02*
X134829639Y-83333152D01*
X134829639Y-83333152D02*
X135020115Y-83142676D01*
X135020115Y-83142676D02*
X135305830Y-83047438D01*
X135305830Y-83047438D02*
X135496306Y-83047438D01*
X135496306Y-83047438D02*
X135782020Y-83142676D01*
X135782020Y-83142676D02*
X135877258Y-83237914D01*
X137115353Y-83047438D02*
X137496306Y-83047438D01*
X137496306Y-83047438D02*
X137686782Y-83142676D01*
X137686782Y-83142676D02*
X137877258Y-83333152D01*
X137877258Y-83333152D02*
X137972496Y-83714104D01*
X137972496Y-83714104D02*
X137972496Y-84380771D01*
X137972496Y-84380771D02*
X137877258Y-84761723D01*
X137877258Y-84761723D02*
X137686782Y-84952200D01*
X137686782Y-84952200D02*
X137496306Y-85047438D01*
X137496306Y-85047438D02*
X137115353Y-85047438D01*
X137115353Y-85047438D02*
X136924877Y-84952200D01*
X136924877Y-84952200D02*
X136734401Y-84761723D01*
X136734401Y-84761723D02*
X136639163Y-84380771D01*
X136639163Y-84380771D02*
X136639163Y-83714104D01*
X136639163Y-83714104D02*
X136734401Y-83333152D01*
X136734401Y-83333152D02*
X136924877Y-83142676D01*
X136924877Y-83142676D02*
X137115353Y-83047438D01*
X138829639Y-85047438D02*
X138829639Y-83047438D01*
X138829639Y-83047438D02*
X139972496Y-85047438D01*
X139972496Y-85047438D02*
X139972496Y-83047438D01*
X140639163Y-83047438D02*
X141782020Y-83047438D01*
X141210591Y-85047438D02*
X141210591Y-83047438D01*
X143591544Y-85047438D02*
X142924877Y-84095057D01*
X142448687Y-85047438D02*
X142448687Y-83047438D01*
X142448687Y-83047438D02*
X143210592Y-83047438D01*
X143210592Y-83047438D02*
X143401068Y-83142676D01*
X143401068Y-83142676D02*
X143496306Y-83237914D01*
X143496306Y-83237914D02*
X143591544Y-83428390D01*
X143591544Y-83428390D02*
X143591544Y-83714104D01*
X143591544Y-83714104D02*
X143496306Y-83904580D01*
X143496306Y-83904580D02*
X143401068Y-83999819D01*
X143401068Y-83999819D02*
X143210592Y-84095057D01*
X143210592Y-84095057D02*
X142448687Y-84095057D01*
X144829639Y-83047438D02*
X145210592Y-83047438D01*
X145210592Y-83047438D02*
X145401068Y-83142676D01*
X145401068Y-83142676D02*
X145591544Y-83333152D01*
X145591544Y-83333152D02*
X145686782Y-83714104D01*
X145686782Y-83714104D02*
X145686782Y-84380771D01*
X145686782Y-84380771D02*
X145591544Y-84761723D01*
X145591544Y-84761723D02*
X145401068Y-84952200D01*
X145401068Y-84952200D02*
X145210592Y-85047438D01*
X145210592Y-85047438D02*
X144829639Y-85047438D01*
X144829639Y-85047438D02*
X144639163Y-84952200D01*
X144639163Y-84952200D02*
X144448687Y-84761723D01*
X144448687Y-84761723D02*
X144353449Y-84380771D01*
X144353449Y-84380771D02*
X144353449Y-83714104D01*
X144353449Y-83714104D02*
X144448687Y-83333152D01*
X144448687Y-83333152D02*
X144639163Y-83142676D01*
X144639163Y-83142676D02*
X144829639Y-83047438D01*
X147496306Y-85047438D02*
X146543925Y-85047438D01*
X146543925Y-85047438D02*
X146543925Y-83047438D01*
X149115354Y-85047438D02*
X148162973Y-85047438D01*
X148162973Y-85047438D02*
X148162973Y-83047438D01*
X149782021Y-83999819D02*
X150448688Y-83999819D01*
X150734402Y-85047438D02*
X149782021Y-85047438D01*
X149782021Y-85047438D02*
X149782021Y-83047438D01*
X149782021Y-83047438D02*
X150734402Y-83047438D01*
X152734402Y-85047438D02*
X152067735Y-84095057D01*
X151591545Y-85047438D02*
X151591545Y-83047438D01*
X151591545Y-83047438D02*
X152353450Y-83047438D01*
X152353450Y-83047438D02*
X152543926Y-83142676D01*
X152543926Y-83142676D02*
X152639164Y-83237914D01*
X152639164Y-83237914D02*
X152734402Y-83428390D01*
X152734402Y-83428390D02*
X152734402Y-83714104D01*
X152734402Y-83714104D02*
X152639164Y-83904580D01*
X152639164Y-83904580D02*
X152543926Y-83999819D01*
X152543926Y-83999819D02*
X152353450Y-84095057D01*
X152353450Y-84095057D02*
X151591545Y-84095057D01*
X154067735Y-85714104D02*
X154067735Y-82856961D01*
G36*
X138021428Y-118903572D02*
G01*
X135413392Y-118903572D01*
X132805357Y-118903572D01*
X132805357Y-117316072D01*
X134392857Y-117316072D01*
X135539211Y-117316072D01*
X136685566Y-117316072D01*
X136616443Y-116238840D01*
X136547321Y-115161608D01*
X135470089Y-115092485D01*
X134392857Y-115023363D01*
X134392857Y-116169717D01*
X134392857Y-117316072D01*
X132805357Y-117316072D01*
X132805357Y-116295536D01*
X132805357Y-113687500D01*
X135413392Y-113687500D01*
X138021428Y-113687500D01*
X138021428Y-116295536D01*
X138021428Y-117316072D01*
X138021428Y-118903572D01*
G37*
G36*
X131444642Y-116295536D02*
G01*
X131444642Y-118903572D01*
X128836607Y-118903572D01*
X126228571Y-118903572D01*
X126228571Y-117316072D01*
X127564434Y-117316072D01*
X128710788Y-117316072D01*
X129857142Y-117316072D01*
X129857142Y-116169717D01*
X129857142Y-115023363D01*
X128779910Y-115092485D01*
X127702678Y-115161608D01*
X127633556Y-116238840D01*
X127564434Y-117316072D01*
X126228571Y-117316072D01*
X126228571Y-116295536D01*
X126228571Y-113687500D01*
X128836607Y-113687500D01*
X131444642Y-113687500D01*
X131444642Y-115023363D01*
X131444642Y-116295536D01*
G37*
G36*
X131444642Y-109605358D02*
G01*
X131444642Y-112326786D01*
X128836607Y-112326786D01*
X126228571Y-112326786D01*
X126228571Y-110625893D01*
X127702678Y-110625893D01*
X128779910Y-110695016D01*
X129857142Y-110764138D01*
X129857142Y-109605358D01*
X129857142Y-108446577D01*
X128779910Y-108515699D01*
X127702678Y-108584822D01*
X127702678Y-109605358D01*
X127702678Y-110625893D01*
X126228571Y-110625893D01*
X126228571Y-109605358D01*
X126228571Y-106883929D01*
X128836607Y-106883929D01*
X131444642Y-106883929D01*
X131444642Y-108446577D01*
X131444642Y-109605358D01*
G37*
G36*
X131444642Y-102915179D02*
G01*
X131444642Y-105523215D01*
X128836607Y-105523215D01*
X126228571Y-105523215D01*
X126228571Y-102915179D01*
X126228571Y-101894643D01*
X127564434Y-101894643D01*
X127633556Y-102971875D01*
X127702678Y-104049108D01*
X128779910Y-104118230D01*
X129857142Y-104187352D01*
X129857142Y-103040998D01*
X129857142Y-101894643D01*
X128710788Y-101894643D01*
X127564434Y-101894643D01*
X126228571Y-101894643D01*
X126228571Y-100307143D01*
X128836607Y-100307143D01*
X131444642Y-100307143D01*
X131444642Y-101894643D01*
X131444642Y-102915179D01*
G37*
G36*
X124641071Y-118903572D02*
G01*
X122033035Y-118903572D01*
X119425000Y-118903572D01*
X119425000Y-117316072D01*
X121012500Y-117316072D01*
X122158854Y-117316072D01*
X123305209Y-117316072D01*
X123236086Y-116238840D01*
X123166964Y-115161608D01*
X122089732Y-115092485D01*
X121012500Y-115023363D01*
X121012500Y-116169717D01*
X121012500Y-117316072D01*
X119425000Y-117316072D01*
X119425000Y-116295536D01*
X119425000Y-113687500D01*
X122033035Y-113687500D01*
X124641071Y-113687500D01*
X124641071Y-116295536D01*
X124641071Y-117316072D01*
X124641071Y-118903572D01*
G37*
G36*
X138021428Y-112326786D02*
G01*
X135413392Y-112326786D01*
X132805357Y-112326786D01*
X132805357Y-110739286D01*
X134392857Y-110739286D01*
X135420510Y-110739286D01*
X135972091Y-110712160D01*
X136447885Y-110534970D01*
X136636872Y-110110136D01*
X136619996Y-109343465D01*
X136580325Y-109019171D01*
X136449583Y-108714550D01*
X136122286Y-108577523D01*
X135470089Y-108515699D01*
X134392857Y-108446577D01*
X134392857Y-109592932D01*
X134392857Y-110739286D01*
X132805357Y-110739286D01*
X132805357Y-109605358D01*
X132805357Y-106883929D01*
X135413392Y-106883929D01*
X138021428Y-106883929D01*
X138021428Y-109605358D01*
X138021428Y-110110136D01*
X138021428Y-112326786D01*
G37*
G36*
X138021428Y-102915179D02*
G01*
X138021428Y-105523215D01*
X135413392Y-105523215D01*
X132805357Y-105523215D01*
X132805357Y-104162500D01*
X134392857Y-104162500D01*
X135375595Y-104162500D01*
X135629304Y-104157562D01*
X136207486Y-104104268D01*
X136509523Y-104011310D01*
X136547796Y-103940936D01*
X136628548Y-103513776D01*
X136660714Y-102877381D01*
X136660714Y-101894643D01*
X135526785Y-101894643D01*
X134392857Y-101894643D01*
X134392857Y-103028572D01*
X134392857Y-104162500D01*
X132805357Y-104162500D01*
X132805357Y-102915179D01*
X132805357Y-100307143D01*
X135413392Y-100307143D01*
X138021428Y-100307143D01*
X138021428Y-101894643D01*
X138021428Y-102915179D01*
G37*
G36*
X124641071Y-112326786D02*
G01*
X122033035Y-112326786D01*
X119425000Y-112326786D01*
X119425000Y-110739286D01*
X121012500Y-110739286D01*
X122040153Y-110739286D01*
X122591733Y-110712160D01*
X123067528Y-110534970D01*
X123256515Y-110110136D01*
X123239639Y-109343465D01*
X123199967Y-109019171D01*
X123069226Y-108714550D01*
X122741929Y-108577523D01*
X122089732Y-108515699D01*
X121012500Y-108446577D01*
X121012500Y-109592932D01*
X121012500Y-110739286D01*
X119425000Y-110739286D01*
X119425000Y-109605358D01*
X119425000Y-106883929D01*
X122033035Y-106883929D01*
X124641071Y-106883929D01*
X124641071Y-109605358D01*
X124641071Y-110110136D01*
X124641071Y-112326786D01*
G37*
G36*
X124641071Y-102915179D02*
G01*
X124641071Y-105523215D01*
X122033035Y-105523215D01*
X119425000Y-105523215D01*
X119425000Y-104162500D01*
X121012500Y-104162500D01*
X121995238Y-104162500D01*
X122248947Y-104157562D01*
X122827129Y-104104268D01*
X123129166Y-104011310D01*
X123167439Y-103940936D01*
X123248191Y-103513776D01*
X123280357Y-102877381D01*
X123280357Y-101894643D01*
X122146428Y-101894643D01*
X121012500Y-101894643D01*
X121012500Y-103028572D01*
X121012500Y-104162500D01*
X119425000Y-104162500D01*
X119425000Y-102915179D01*
X119425000Y-100307143D01*
X122033035Y-100307143D01*
X124641071Y-100307143D01*
X124641071Y-101894643D01*
X124641071Y-102915179D01*
G37*
G36*
X138021428Y-94410715D02*
G01*
X138021428Y-98039286D01*
X128723214Y-98039286D01*
X119425000Y-98039286D01*
X119425000Y-96451786D01*
X121012500Y-96451786D01*
X128685416Y-96451786D01*
X130052176Y-96449376D01*
X131771184Y-96439056D01*
X133304517Y-96421566D01*
X134598595Y-96397939D01*
X135599841Y-96369212D01*
X136254677Y-96336419D01*
X136509523Y-96300596D01*
X136533387Y-96253049D01*
X136598363Y-95848641D01*
X136643686Y-95145246D01*
X136660714Y-94259524D01*
X136660714Y-92369643D01*
X128836607Y-92369643D01*
X121012500Y-92369643D01*
X121012500Y-94410715D01*
X121012500Y-96451786D01*
X119425000Y-96451786D01*
X119425000Y-94410715D01*
X119425000Y-90782143D01*
X128723214Y-90782143D01*
X138021428Y-90782143D01*
X138021428Y-92369643D01*
X138021428Y-94410715D01*
G37*
G36*
X142504668Y-105959869D02*
G01*
X142443750Y-122949328D01*
X141876785Y-123559287D01*
X141834939Y-123603536D01*
X141318843Y-124064029D01*
X140856250Y-124356855D01*
X140812082Y-124367486D01*
X140380974Y-124403740D01*
X139553672Y-124437962D01*
X138374799Y-124469404D01*
X136888977Y-124497322D01*
X135140828Y-124520971D01*
X133174975Y-124539603D01*
X131036041Y-124552475D01*
X128768648Y-124558840D01*
X127848847Y-124559816D01*
X125335381Y-124560167D01*
X123226374Y-124555809D01*
X121484863Y-124545768D01*
X120073885Y-124529066D01*
X118956476Y-124504727D01*
X118095676Y-124471777D01*
X117454519Y-124429238D01*
X116996045Y-124376135D01*
X116683289Y-124311491D01*
X116479290Y-124234331D01*
X116431757Y-124210105D01*
X116187353Y-124091759D01*
X115975159Y-123978979D01*
X115792909Y-123841156D01*
X115638331Y-123647682D01*
X115509159Y-123367947D01*
X115403122Y-122971343D01*
X115317953Y-122427261D01*
X115251381Y-121705091D01*
X115201138Y-120774225D01*
X115164956Y-119604054D01*
X115140565Y-118163968D01*
X115125697Y-116423360D01*
X115119994Y-114871742D01*
X116502218Y-114871742D01*
X116503285Y-116644203D01*
X116509594Y-118106206D01*
X116521897Y-119289474D01*
X116540941Y-120225728D01*
X116567477Y-120946691D01*
X116602253Y-121484083D01*
X116646020Y-121869628D01*
X116699526Y-122135046D01*
X116763521Y-122312059D01*
X116838754Y-122432390D01*
X116925975Y-122527761D01*
X117039959Y-122630219D01*
X117185671Y-122716603D01*
X117400857Y-122787730D01*
X117723927Y-122845082D01*
X118193290Y-122890139D01*
X118847355Y-122924383D01*
X119724534Y-122949295D01*
X120863235Y-122966356D01*
X122301868Y-122977047D01*
X124078843Y-122982850D01*
X126232570Y-122985245D01*
X128801458Y-122985715D01*
X130304611Y-122985508D01*
X132640513Y-122983580D01*
X134582270Y-122978512D01*
X136167898Y-122968966D01*
X137435414Y-122953607D01*
X138422836Y-122931096D01*
X139168179Y-122900096D01*
X139709462Y-122859272D01*
X140084700Y-122807285D01*
X140331910Y-122742799D01*
X140489109Y-122664477D01*
X140594315Y-122570982D01*
X140618285Y-122541844D01*
X140687035Y-122414164D01*
X140746269Y-122207649D01*
X140796686Y-121891071D01*
X140838983Y-121433203D01*
X140873861Y-120802816D01*
X140902018Y-119968682D01*
X140924153Y-118899574D01*
X140940965Y-117564264D01*
X140953152Y-115931524D01*
X140961415Y-113970125D01*
X140966452Y-111648840D01*
X140968961Y-108936440D01*
X140969643Y-105801699D01*
X140969643Y-89447148D01*
X140465610Y-89094110D01*
X140396905Y-89052949D01*
X140194191Y-88978383D01*
X139877599Y-88916480D01*
X139409386Y-88866107D01*
X138751809Y-88826130D01*
X137867125Y-88795415D01*
X136717591Y-88772827D01*
X135265465Y-88757233D01*
X133473002Y-88747499D01*
X131302461Y-88742489D01*
X128716098Y-88741072D01*
X126376979Y-88742489D01*
X124130735Y-88748086D01*
X122270290Y-88758875D01*
X120759703Y-88775845D01*
X119563031Y-88799986D01*
X118644331Y-88832289D01*
X117967660Y-88873742D01*
X117497077Y-88925337D01*
X117196637Y-88988063D01*
X117030399Y-89062909D01*
X117006102Y-89081295D01*
X116925332Y-89161436D01*
X116855530Y-89286403D01*
X116795749Y-89487638D01*
X116745045Y-89796583D01*
X116702471Y-90244681D01*
X116667081Y-90863371D01*
X116637930Y-91684097D01*
X116614071Y-92738300D01*
X116594559Y-94057422D01*
X116578449Y-95672905D01*
X116564793Y-97616190D01*
X116552647Y-99918719D01*
X116541064Y-102611934D01*
X116529100Y-105727277D01*
X116522985Y-107374396D01*
X116512818Y-110268560D01*
X116505646Y-112757102D01*
X116502218Y-114871742D01*
X115119994Y-114871742D01*
X115118082Y-114351619D01*
X115115452Y-111918138D01*
X115115538Y-109092306D01*
X115116071Y-105843516D01*
X115116163Y-103836636D01*
X115117047Y-100913309D01*
X115119532Y-98393172D01*
X115124407Y-96245003D01*
X115132464Y-94437580D01*
X115144493Y-92939679D01*
X115161285Y-91720078D01*
X115183631Y-90747556D01*
X115212320Y-89990888D01*
X115248144Y-89418854D01*
X115291893Y-89000230D01*
X115344358Y-88703794D01*
X115406330Y-88498323D01*
X115478599Y-88352596D01*
X115561956Y-88235389D01*
X115729110Y-88029433D01*
X115928140Y-87826163D01*
X116169641Y-87656807D01*
X116490983Y-87518528D01*
X116929540Y-87408488D01*
X117522684Y-87323850D01*
X118307786Y-87261777D01*
X119322218Y-87219430D01*
X120603354Y-87193972D01*
X122188564Y-87182565D01*
X124115222Y-87182373D01*
X126420698Y-87190558D01*
X129142366Y-87204281D01*
X141004746Y-87266965D01*
X141785166Y-88118687D01*
X142565586Y-88970410D01*
X142505235Y-105801699D01*
X142504668Y-105959869D01*
G37*
%LPC*%
D11*
X98850000Y-102800000D03*
D12*
X101390000Y-102800000D03*
X103930000Y-102800000D03*
X106470000Y-102800000D03*
X109010000Y-102800000D03*
X111550000Y-102800000D03*
X114090000Y-102800000D03*
X116630000Y-102800000D03*
D11*
X98840000Y-99000000D03*
D12*
X101380000Y-99000000D03*
X103920000Y-99000000D03*
X106460000Y-99000000D03*
X109000000Y-99000000D03*
X111540000Y-99000000D03*
X114080000Y-99000000D03*
X116620000Y-99000000D03*
D11*
X159775000Y-79875000D03*
D12*
X159775000Y-82415000D03*
X159775000Y-84955000D03*
D13*
X92650000Y-65400000D03*
D11*
X149000000Y-79820000D03*
D12*
X149000000Y-82360000D03*
X149000000Y-84900000D03*
D14*
X124000000Y-78220000D03*
X124000000Y-80760000D03*
X124000000Y-83300000D03*
X124000000Y-85840000D03*
X124000000Y-118860000D03*
X124000000Y-88380000D03*
X124000000Y-90920000D03*
X124000000Y-93460000D03*
X124000000Y-96000000D03*
X124000000Y-98540000D03*
X124000000Y-101080000D03*
X124000000Y-103620000D03*
X124000000Y-106160000D03*
X124000000Y-108700000D03*
X124000000Y-111240000D03*
X124000000Y-113780000D03*
X124000000Y-116320000D03*
X139950000Y-80760000D03*
X124000000Y-126480000D03*
X124000000Y-123940000D03*
X139950000Y-83300000D03*
X139950000Y-126480000D03*
X139950000Y-123940000D03*
X139950000Y-121400000D03*
X139950000Y-118860000D03*
X139950000Y-116320000D03*
X139950000Y-113780000D03*
X139950000Y-111240000D03*
X139950000Y-108700000D03*
X139950000Y-106160000D03*
X139950000Y-78220000D03*
X139950000Y-103620000D03*
X139950000Y-101080000D03*
X139950000Y-98540000D03*
X139950000Y-96000000D03*
X139950000Y-93460000D03*
X139950000Y-90920000D03*
X139950000Y-88380000D03*
X139950000Y-85840000D03*
X124000000Y-121400000D03*
D11*
X152525000Y-106220000D03*
D12*
X155065000Y-106220000D03*
D15*
X160000000Y-113020000D03*
D16*
X147300000Y-113020000D03*
D17*
X145610000Y-100300000D03*
D18*
X148150000Y-100300000D03*
D15*
X155400000Y-73650000D03*
X150400000Y-73650000D03*
D11*
X105750000Y-109270000D03*
D12*
X105750000Y-111810000D03*
X105750000Y-114350000D03*
X105750000Y-116890000D03*
X105750000Y-119430000D03*
X105750000Y-121970000D03*
X105750000Y-124510000D03*
X105750000Y-127050000D03*
D19*
X149880000Y-128020000D03*
D20*
X157500000Y-128020000D03*
D15*
X147100000Y-94850000D03*
D16*
X159800000Y-94850000D03*
D19*
X149880000Y-124720000D03*
D20*
X157500000Y-124720000D03*
D11*
X156200000Y-79870000D03*
D12*
X156200000Y-82410000D03*
X156200000Y-84950000D03*
D15*
X147350000Y-118420000D03*
D16*
X160050000Y-118420000D03*
D11*
X152650000Y-79860000D03*
D12*
X152650000Y-82400000D03*
X152650000Y-84940000D03*
D15*
X147100000Y-91100000D03*
D16*
X159800000Y-91100000D03*
D13*
X168350000Y-65540410D03*
D11*
X110300000Y-109350000D03*
D12*
X110300000Y-111890000D03*
X110300000Y-114430000D03*
X110300000Y-116970000D03*
X110300000Y-119510000D03*
X110300000Y-122050000D03*
X110300000Y-124590000D03*
X110300000Y-127130000D03*
D13*
X168500000Y-137900000D03*
X92226651Y-137894591D03*
D17*
X158760000Y-100300000D03*
D18*
X161300000Y-100300000D03*
%LPD*%
M02*
