%TF.GenerationSoftware,KiCad,Pcbnew,7.0.7*%
%TF.CreationDate,2024-06-07T19:14:17+02:00*%
%TF.ProjectId,stm32-drone,73746d33-322d-4647-926f-6e652e6b6963,rev?*%
%TF.SameCoordinates,Original*%
%TF.FileFunction,Drillmap*%
%TF.FilePolarity,Positive*%
%FSLAX45Y45*%
G04 Gerber Fmt 4.5, Leading zero omitted, Abs format (unit mm)*
G04 Created by KiCad (PCBNEW 7.0.7) date 2024-06-07 19:14:17*
%MOMM*%
%LPD*%
G01*
G04 APERTURE LIST*
%ADD10C,0.100000*%
%ADD11C,0.200000*%
%ADD12C,0.040000*%
%ADD13C,0.070000*%
%ADD14C,0.076200*%
%ADD15C,0.080000*%
%ADD16C,0.090000*%
G04 APERTURE END LIST*
D10*
X9735421Y-6540000D02*
G75*
G03*
X9260000Y-7015421I-475421J0D01*
G01*
X9565531Y-7264910D02*
X9559721Y-13093069D01*
X16835000Y-7037602D02*
G75*
G03*
X16492031Y-7265000I16430J-397118D01*
G01*
X16380908Y-13759475D02*
G75*
G03*
X16855000Y-13319579I474092J-35525D01*
G01*
X9565531Y-7264910D02*
G75*
G03*
X9260000Y-7015421I-295531J-50090D01*
G01*
X16107917Y-6894987D02*
G75*
G03*
X16357406Y-6589454I-50097J295537D01*
G01*
X9217665Y-13319038D02*
G75*
G03*
X9691757Y-13758934I0J-475421D01*
G01*
X9217665Y-13319034D02*
G75*
G03*
X9559720Y-13093069I-14995J394575D01*
G01*
X9940000Y-13455000D02*
X16132665Y-13455541D01*
X9940001Y-13455005D02*
G75*
G03*
X9691757Y-13758934I49829J-294045D01*
G01*
X16835000Y-7037601D02*
G75*
G03*
X16357406Y-6589454I0J478562D01*
G01*
X16380908Y-13759475D02*
G75*
G03*
X16132665Y-13455541I-298078J9885D01*
G01*
X9964324Y-6891432D02*
X16107917Y-6894985D01*
X16492031Y-7265000D02*
X16512945Y-13093609D01*
X16512945Y-13093609D02*
G75*
G03*
X16855000Y-13319579I357055J168610D01*
G01*
X9735421Y-6540000D02*
G75*
G03*
X9964324Y-6891432I399579J10000D01*
G01*
D11*
D12*
X9630000Y-10085000D02*
X9670000Y-10125000D01*
X9670000Y-10085000D02*
X9630000Y-10125000D01*
X9665000Y-8270000D02*
X9705000Y-8310000D01*
X9705000Y-8270000D02*
X9665000Y-8310000D01*
X9895000Y-13160000D02*
X9935000Y-13200000D01*
X9935000Y-13160000D02*
X9895000Y-13200000D01*
X9920000Y-10780000D02*
X9960000Y-10820000D01*
X9960000Y-10780000D02*
X9920000Y-10820000D01*
X9980000Y-9525000D02*
X10020000Y-9565000D01*
X10020000Y-9525000D02*
X9980000Y-9565000D01*
X9990000Y-11895000D02*
X10030000Y-11935000D01*
X10030000Y-11895000D02*
X9990000Y-11935000D01*
X10185000Y-7370000D02*
X10225000Y-7410000D01*
X10225000Y-7370000D02*
X10185000Y-7410000D01*
X10390000Y-10560000D02*
X10430000Y-10600000D01*
X10430000Y-10560000D02*
X10390000Y-10600000D01*
X10480000Y-13335000D02*
X10520000Y-13375000D01*
X10520000Y-13335000D02*
X10480000Y-13375000D01*
X10610000Y-9000000D02*
X10650000Y-9040000D01*
X10650000Y-9000000D02*
X10610000Y-9040000D01*
X10685000Y-8130000D02*
X10725000Y-8170000D01*
X10725000Y-8130000D02*
X10685000Y-8170000D01*
X10755000Y-10075000D02*
X10795000Y-10115000D01*
X10795000Y-10075000D02*
X10755000Y-10115000D01*
X10785000Y-11170000D02*
X10825000Y-11210000D01*
X10825000Y-11170000D02*
X10785000Y-11210000D01*
X10795000Y-10890000D02*
X10835000Y-10930000D01*
X10835000Y-10890000D02*
X10795000Y-10930000D01*
X10815000Y-13100000D02*
X10855000Y-13140000D01*
X10855000Y-13100000D02*
X10815000Y-13140000D01*
X10840000Y-10550000D02*
X10880000Y-10590000D01*
X10880000Y-10550000D02*
X10840000Y-10590000D01*
X11185000Y-7405000D02*
X11225000Y-7445000D01*
X11225000Y-7405000D02*
X11185000Y-7445000D01*
X11255000Y-10855000D02*
X11295000Y-10895000D01*
X11295000Y-10855000D02*
X11255000Y-10895000D01*
X11300000Y-11675000D02*
X11340000Y-11715000D01*
X11340000Y-11675000D02*
X11300000Y-11715000D01*
X11305000Y-11265000D02*
X11345000Y-11305000D01*
X11345000Y-11265000D02*
X11305000Y-11305000D01*
X11310000Y-9110000D02*
X11350000Y-9150000D01*
X11350000Y-9110000D02*
X11310000Y-9150000D01*
X11355000Y-11970000D02*
X11395000Y-12010000D01*
X11395000Y-11970000D02*
X11355000Y-12010000D01*
X11430000Y-10950000D02*
X11470000Y-10990000D01*
X11470000Y-10950000D02*
X11430000Y-10990000D01*
X11440000Y-10570000D02*
X11480000Y-10610000D01*
X11480000Y-10570000D02*
X11440000Y-10610000D01*
X11545000Y-12695000D02*
X11585000Y-12735000D01*
X11585000Y-12695000D02*
X11545000Y-12735000D01*
X11605000Y-12460000D02*
X11645000Y-12500000D01*
X11645000Y-12460000D02*
X11605000Y-12500000D01*
X11635000Y-10940000D02*
X11675000Y-10980000D01*
X11675000Y-10940000D02*
X11635000Y-10980000D01*
X11655000Y-9600000D02*
X11695000Y-9640000D01*
X11695000Y-9600000D02*
X11655000Y-9640000D01*
X11665000Y-9070000D02*
X11705000Y-9110000D01*
X11705000Y-9070000D02*
X11665000Y-9110000D01*
X11665000Y-11895000D02*
X11705000Y-11935000D01*
X11705000Y-11895000D02*
X11665000Y-11935000D01*
X11685000Y-11355000D02*
X11725000Y-11395000D01*
X11725000Y-11355000D02*
X11685000Y-11395000D01*
X11700000Y-12195000D02*
X11740000Y-12235000D01*
X11740000Y-12195000D02*
X11700000Y-12235000D01*
X11740000Y-8075000D02*
X11780000Y-8115000D01*
X11780000Y-8075000D02*
X11740000Y-8115000D01*
X11755000Y-12990000D02*
X11795000Y-13030000D01*
X11795000Y-12990000D02*
X11755000Y-13030000D01*
X11760000Y-13095000D02*
X11800000Y-13135000D01*
X11800000Y-13095000D02*
X11760000Y-13135000D01*
X11770000Y-13195000D02*
X11810000Y-13235000D01*
X11810000Y-13195000D02*
X11770000Y-13235000D01*
X11770000Y-13300000D02*
X11810000Y-13340000D01*
X11810000Y-13300000D02*
X11770000Y-13340000D01*
X11975000Y-9205000D02*
X12015000Y-9245000D01*
X12015000Y-9205000D02*
X11975000Y-9245000D01*
X11995000Y-9645000D02*
X12035000Y-9685000D01*
X12035000Y-9645000D02*
X11995000Y-9685000D01*
X12055000Y-8765000D02*
X12095000Y-8805000D01*
X12095000Y-8765000D02*
X12055000Y-8805000D01*
X12080000Y-9410000D02*
X12120000Y-9450000D01*
X12120000Y-9410000D02*
X12080000Y-9450000D01*
X12125000Y-10545000D02*
X12165000Y-10585000D01*
X12165000Y-10545000D02*
X12125000Y-10585000D01*
X12130000Y-11430000D02*
X12170000Y-11470000D01*
X12170000Y-11430000D02*
X12130000Y-11470000D01*
X12150000Y-12685000D02*
X12190000Y-12725000D01*
X12190000Y-12685000D02*
X12150000Y-12725000D01*
X12155000Y-9160000D02*
X12195000Y-9200000D01*
X12195000Y-9160000D02*
X12155000Y-9200000D01*
X12155000Y-11860000D02*
X12195000Y-11900000D01*
X12195000Y-11860000D02*
X12155000Y-11900000D01*
X12155000Y-12210000D02*
X12195000Y-12250000D01*
X12195000Y-12210000D02*
X12155000Y-12250000D01*
X12210000Y-11500000D02*
X12250000Y-11540000D01*
X12250000Y-11500000D02*
X12210000Y-11540000D01*
X12250000Y-7385000D02*
X12290000Y-7425000D01*
X12290000Y-7385000D02*
X12250000Y-7425000D01*
X12430000Y-12990000D02*
X12470000Y-13030000D01*
X12470000Y-12990000D02*
X12430000Y-13030000D01*
X12515000Y-11740000D02*
X12555000Y-11780000D01*
X12555000Y-11740000D02*
X12515000Y-11780000D01*
X12535000Y-12735000D02*
X12575000Y-12775000D01*
X12575000Y-12735000D02*
X12535000Y-12775000D01*
X12570000Y-13025000D02*
X12610000Y-13065000D01*
X12610000Y-13025000D02*
X12570000Y-13065000D01*
X12580000Y-11080000D02*
X12620000Y-11120000D01*
X12620000Y-11080000D02*
X12580000Y-11120000D01*
X12590000Y-10735000D02*
X12630000Y-10775000D01*
X12630000Y-10735000D02*
X12590000Y-10775000D01*
X12685000Y-13030000D02*
X12725000Y-13070000D01*
X12725000Y-13030000D02*
X12685000Y-13070000D01*
X12760000Y-8075000D02*
X12800000Y-8115000D01*
X12800000Y-8075000D02*
X12760000Y-8115000D01*
X12760000Y-12055000D02*
X12800000Y-12095000D01*
X12800000Y-12055000D02*
X12760000Y-12095000D01*
X12828730Y-11228730D02*
X12868730Y-11268730D01*
X12868730Y-11228730D02*
X12828730Y-11268730D01*
X12830000Y-11480000D02*
X12870000Y-11520000D01*
X12870000Y-11480000D02*
X12830000Y-11520000D01*
X12840000Y-11940000D02*
X12880000Y-11980000D01*
X12880000Y-11940000D02*
X12840000Y-11980000D01*
X12850000Y-10090000D02*
X12890000Y-10130000D01*
X12890000Y-10090000D02*
X12850000Y-10130000D01*
X13005000Y-13025000D02*
X13045000Y-13065000D01*
X13045000Y-13025000D02*
X13005000Y-13065000D01*
X13080000Y-11585000D02*
X13120000Y-11625000D01*
X13120000Y-11585000D02*
X13080000Y-11625000D01*
X13115000Y-7300000D02*
X13155000Y-7340000D01*
X13155000Y-7300000D02*
X13115000Y-7340000D01*
X13160000Y-12990000D02*
X13200000Y-13030000D01*
X13200000Y-12990000D02*
X13160000Y-13030000D01*
X13230000Y-8920000D02*
X13270000Y-8960000D01*
X13270000Y-8920000D02*
X13230000Y-8960000D01*
X13290000Y-12155000D02*
X13330000Y-12195000D01*
X13330000Y-12155000D02*
X13290000Y-12195000D01*
X13290000Y-12375000D02*
X13330000Y-12415000D01*
X13330000Y-12375000D02*
X13290000Y-12415000D01*
X13290000Y-12635000D02*
X13330000Y-12675000D01*
X13330000Y-12635000D02*
X13290000Y-12675000D01*
X13425000Y-11270000D02*
X13465000Y-11310000D01*
X13465000Y-11270000D02*
X13425000Y-11310000D01*
X13470000Y-12500000D02*
X13510000Y-12540000D01*
X13510000Y-12500000D02*
X13470000Y-12540000D01*
X13535000Y-11025000D02*
X13575000Y-11065000D01*
X13575000Y-11025000D02*
X13535000Y-11065000D01*
X13550000Y-10785000D02*
X13590000Y-10825000D01*
X13590000Y-10785000D02*
X13550000Y-10825000D01*
X13575000Y-10180000D02*
X13615000Y-10220000D01*
X13615000Y-10180000D02*
X13575000Y-10220000D01*
X13600000Y-10465000D02*
X13640000Y-10505000D01*
X13640000Y-10465000D02*
X13600000Y-10505000D01*
X13650000Y-8050000D02*
X13690000Y-8090000D01*
X13690000Y-8050000D02*
X13650000Y-8090000D01*
X13660000Y-11840000D02*
X13700000Y-11880000D01*
X13700000Y-11840000D02*
X13660000Y-11880000D01*
X13730000Y-12780000D02*
X13770000Y-12820000D01*
X13770000Y-12780000D02*
X13730000Y-12820000D01*
X13790000Y-8670000D02*
X13830000Y-8710000D01*
X13830000Y-8670000D02*
X13790000Y-8710000D01*
X13790000Y-9700000D02*
X13830000Y-9740000D01*
X13830000Y-9700000D02*
X13790000Y-9740000D01*
X14145000Y-7330000D02*
X14185000Y-7370000D01*
X14185000Y-7330000D02*
X14145000Y-7370000D01*
X14150000Y-10720000D02*
X14190000Y-10760000D01*
X14190000Y-10720000D02*
X14150000Y-10760000D01*
X14170000Y-11520000D02*
X14210000Y-11560000D01*
X14210000Y-11520000D02*
X14170000Y-11560000D01*
X14220000Y-8680000D02*
X14260000Y-8720000D01*
X14260000Y-8680000D02*
X14220000Y-8720000D01*
X14260000Y-9380000D02*
X14300000Y-9420000D01*
X14300000Y-9380000D02*
X14260000Y-9420000D01*
X14350000Y-8390000D02*
X14390000Y-8430000D01*
X14390000Y-8390000D02*
X14350000Y-8430000D01*
X14360000Y-9030000D02*
X14400000Y-9070000D01*
X14400000Y-9030000D02*
X14360000Y-9070000D01*
X14455000Y-7795000D02*
X14495000Y-7835000D01*
X14495000Y-7795000D02*
X14455000Y-7835000D01*
X14495000Y-10600000D02*
X14535000Y-10640000D01*
X14535000Y-10600000D02*
X14495000Y-10640000D01*
X14510000Y-11560000D02*
X14550000Y-11600000D01*
X14550000Y-11560000D02*
X14510000Y-11600000D01*
X14575000Y-8675000D02*
X14615000Y-8715000D01*
X14615000Y-8675000D02*
X14575000Y-8715000D01*
X14590000Y-12700000D02*
X14630000Y-12740000D01*
X14630000Y-12700000D02*
X14590000Y-12740000D01*
X15550000Y-11000000D02*
X15590000Y-11040000D01*
X15590000Y-11000000D02*
X15550000Y-11040000D01*
X16200000Y-8765000D02*
X16240000Y-8805000D01*
X16240000Y-8765000D02*
X16200000Y-8805000D01*
X16235000Y-7280000D02*
X16275000Y-7320000D01*
X16275000Y-7280000D02*
X16235000Y-7320000D01*
X16260000Y-12260000D02*
X16300000Y-12300000D01*
X16300000Y-12260000D02*
X16260000Y-12300000D01*
X16265000Y-10540000D02*
X16305000Y-10580000D01*
X16305000Y-10540000D02*
X16265000Y-10580000D01*
X16400000Y-8245000D02*
X16440000Y-8285000D01*
X16440000Y-8245000D02*
X16400000Y-8285000D01*
D13*
X15023000Y-12472000D02*
G75*
G03*
X15023000Y-12472000I-35000J0D01*
G01*
X15023000Y-12802000D02*
G75*
G03*
X15023000Y-12802000I-35000J0D01*
G01*
X15785000Y-12472000D02*
G75*
G03*
X15785000Y-12472000I-35000J0D01*
G01*
X15785000Y-12802000D02*
G75*
G03*
X15785000Y-12802000I-35000J0D01*
G01*
D14*
X12400000Y-7783900D02*
X12400000Y-7860100D01*
X12361900Y-7822000D02*
X12438100Y-7822000D01*
X12400000Y-8037900D02*
X12400000Y-8114100D01*
X12361900Y-8076000D02*
X12438100Y-8076000D01*
X12400000Y-8291900D02*
X12400000Y-8368100D01*
X12361900Y-8330000D02*
X12438100Y-8330000D01*
X12400000Y-8545900D02*
X12400000Y-8622100D01*
X12361900Y-8584000D02*
X12438100Y-8584000D01*
X12400000Y-8799900D02*
X12400000Y-8876100D01*
X12361900Y-8838000D02*
X12438100Y-8838000D01*
X12400000Y-9053900D02*
X12400000Y-9130100D01*
X12361900Y-9092000D02*
X12438100Y-9092000D01*
X12400000Y-9307900D02*
X12400000Y-9384100D01*
X12361900Y-9346000D02*
X12438100Y-9346000D01*
X12400000Y-9561900D02*
X12400000Y-9638100D01*
X12361900Y-9600000D02*
X12438100Y-9600000D01*
X12400000Y-9815900D02*
X12400000Y-9892100D01*
X12361900Y-9854000D02*
X12438100Y-9854000D01*
X12400000Y-10069900D02*
X12400000Y-10146100D01*
X12361900Y-10108000D02*
X12438100Y-10108000D01*
X12400000Y-10323900D02*
X12400000Y-10400100D01*
X12361900Y-10362000D02*
X12438100Y-10362000D01*
X12400000Y-10577900D02*
X12400000Y-10654100D01*
X12361900Y-10616000D02*
X12438100Y-10616000D01*
X12400000Y-10831900D02*
X12400000Y-10908100D01*
X12361900Y-10870000D02*
X12438100Y-10870000D01*
X12400000Y-11085900D02*
X12400000Y-11162100D01*
X12361900Y-11124000D02*
X12438100Y-11124000D01*
X12400000Y-11339900D02*
X12400000Y-11416100D01*
X12361900Y-11378000D02*
X12438100Y-11378000D01*
X12400000Y-11593900D02*
X12400000Y-11670100D01*
X12361900Y-11632000D02*
X12438100Y-11632000D01*
X12400000Y-11847900D02*
X12400000Y-11924100D01*
X12361900Y-11886000D02*
X12438100Y-11886000D01*
X12400000Y-12101900D02*
X12400000Y-12178100D01*
X12361900Y-12140000D02*
X12438100Y-12140000D01*
X12400000Y-12355900D02*
X12400000Y-12432100D01*
X12361900Y-12394000D02*
X12438100Y-12394000D01*
X12400000Y-12609900D02*
X12400000Y-12686100D01*
X12361900Y-12648000D02*
X12438100Y-12648000D01*
X13995000Y-7783900D02*
X13995000Y-7860100D01*
X13956900Y-7822000D02*
X14033100Y-7822000D01*
X13995000Y-8037900D02*
X13995000Y-8114100D01*
X13956900Y-8076000D02*
X14033100Y-8076000D01*
X13995000Y-8291900D02*
X13995000Y-8368100D01*
X13956900Y-8330000D02*
X14033100Y-8330000D01*
X13995000Y-8545900D02*
X13995000Y-8622100D01*
X13956900Y-8584000D02*
X14033100Y-8584000D01*
X13995000Y-8799900D02*
X13995000Y-8876100D01*
X13956900Y-8838000D02*
X14033100Y-8838000D01*
X13995000Y-9053900D02*
X13995000Y-9130100D01*
X13956900Y-9092000D02*
X14033100Y-9092000D01*
X13995000Y-9307900D02*
X13995000Y-9384100D01*
X13956900Y-9346000D02*
X14033100Y-9346000D01*
X13995000Y-9561900D02*
X13995000Y-9638100D01*
X13956900Y-9600000D02*
X14033100Y-9600000D01*
X13995000Y-9815900D02*
X13995000Y-9892100D01*
X13956900Y-9854000D02*
X14033100Y-9854000D01*
X13995000Y-10069900D02*
X13995000Y-10146100D01*
X13956900Y-10108000D02*
X14033100Y-10108000D01*
X13995000Y-10323900D02*
X13995000Y-10400100D01*
X13956900Y-10362000D02*
X14033100Y-10362000D01*
X13995000Y-10577900D02*
X13995000Y-10654100D01*
X13956900Y-10616000D02*
X14033100Y-10616000D01*
X13995000Y-10831900D02*
X13995000Y-10908100D01*
X13956900Y-10870000D02*
X14033100Y-10870000D01*
X13995000Y-11085900D02*
X13995000Y-11162100D01*
X13956900Y-11124000D02*
X14033100Y-11124000D01*
X13995000Y-11339900D02*
X13995000Y-11416100D01*
X13956900Y-11378000D02*
X14033100Y-11378000D01*
X13995000Y-11593900D02*
X13995000Y-11670100D01*
X13956900Y-11632000D02*
X14033100Y-11632000D01*
X13995000Y-11847900D02*
X13995000Y-11924100D01*
X13956900Y-11886000D02*
X14033100Y-11886000D01*
X13995000Y-12101900D02*
X13995000Y-12178100D01*
X13956900Y-12140000D02*
X14033100Y-12140000D01*
X13995000Y-12355900D02*
X13995000Y-12432100D01*
X13956900Y-12394000D02*
X14033100Y-12394000D01*
X13995000Y-12609900D02*
X13995000Y-12686100D01*
X13956900Y-12648000D02*
X14033100Y-12648000D01*
D15*
X14738284Y-9138285D02*
X14738284Y-9081716D01*
X14681715Y-9081716D01*
X14681715Y-9138285D01*
X14738284Y-9138285D01*
X14738284Y-9513285D02*
X14738284Y-9456716D01*
X14681715Y-9456716D01*
X14681715Y-9513285D01*
X14738284Y-9513285D01*
X14758284Y-11330284D02*
X14758284Y-11273715D01*
X14701715Y-11273715D01*
X14701715Y-11330284D01*
X14758284Y-11330284D01*
X14763284Y-11870284D02*
X14763284Y-11813715D01*
X14706715Y-11813715D01*
X14706715Y-11870284D01*
X14763284Y-11870284D01*
X15068284Y-7393284D02*
X15068284Y-7336715D01*
X15011715Y-7336715D01*
X15011715Y-7393284D01*
X15068284Y-7393284D01*
X15568284Y-7393284D02*
X15568284Y-7336715D01*
X15511715Y-7336715D01*
X15511715Y-7393284D01*
X15568284Y-7393284D01*
X16008284Y-9138285D02*
X16008284Y-9081716D01*
X15951715Y-9081716D01*
X15951715Y-9138285D01*
X16008284Y-9138285D01*
X16008284Y-9513285D02*
X16008284Y-9456716D01*
X15951715Y-9456716D01*
X15951715Y-9513285D01*
X16008284Y-9513285D01*
X16028284Y-11330284D02*
X16028284Y-11273715D01*
X15971715Y-11273715D01*
X15971715Y-11330284D01*
X16028284Y-11330284D01*
X16033284Y-11870284D02*
X16033284Y-11813715D01*
X15976715Y-11813715D01*
X15976715Y-11870284D01*
X16033284Y-11870284D01*
D16*
X14561000Y-10075000D02*
X14606000Y-10030000D01*
X14561000Y-9985000D01*
X14516000Y-10030000D01*
X14561000Y-10075000D01*
X14815000Y-10075000D02*
X14860000Y-10030000D01*
X14815000Y-9985000D01*
X14770000Y-10030000D01*
X14815000Y-10075000D01*
X15876000Y-10075000D02*
X15921000Y-10030000D01*
X15876000Y-9985000D01*
X15831000Y-10030000D01*
X15876000Y-10075000D01*
X16130000Y-10075000D02*
X16175000Y-10030000D01*
X16130000Y-9985000D01*
X16085000Y-10030000D01*
X16130000Y-10075000D01*
D10*
X9834000Y-9850000D02*
X9934000Y-9950000D01*
X9934000Y-9850000D02*
X9834000Y-9950000D01*
X9934000Y-9900000D02*
G75*
G03*
X9934000Y-9900000I-50000J0D01*
G01*
X9835000Y-10230000D02*
X9935000Y-10330000D01*
X9935000Y-10230000D02*
X9835000Y-10330000D01*
X9935000Y-10280000D02*
G75*
G03*
X9935000Y-10280000I-50000J0D01*
G01*
X10088000Y-9850000D02*
X10188000Y-9950000D01*
X10188000Y-9850000D02*
X10088000Y-9950000D01*
X10188000Y-9900000D02*
G75*
G03*
X10188000Y-9900000I-50000J0D01*
G01*
X10089000Y-10230000D02*
X10189000Y-10330000D01*
X10189000Y-10230000D02*
X10089000Y-10330000D01*
X10189000Y-10280000D02*
G75*
G03*
X10189000Y-10280000I-50000J0D01*
G01*
X10342000Y-9850000D02*
X10442000Y-9950000D01*
X10442000Y-9850000D02*
X10342000Y-9950000D01*
X10442000Y-9900000D02*
G75*
G03*
X10442000Y-9900000I-50000J0D01*
G01*
X10343000Y-10230000D02*
X10443000Y-10330000D01*
X10443000Y-10230000D02*
X10343000Y-10330000D01*
X10443000Y-10280000D02*
G75*
G03*
X10443000Y-10280000I-50000J0D01*
G01*
X10525000Y-10877000D02*
X10625000Y-10977000D01*
X10625000Y-10877000D02*
X10525000Y-10977000D01*
X10625000Y-10927000D02*
G75*
G03*
X10625000Y-10927000I-50000J0D01*
G01*
X10525000Y-11131000D02*
X10625000Y-11231000D01*
X10625000Y-11131000D02*
X10525000Y-11231000D01*
X10625000Y-11181000D02*
G75*
G03*
X10625000Y-11181000I-50000J0D01*
G01*
X10525000Y-11385000D02*
X10625000Y-11485000D01*
X10625000Y-11385000D02*
X10525000Y-11485000D01*
X10625000Y-11435000D02*
G75*
G03*
X10625000Y-11435000I-50000J0D01*
G01*
X10525000Y-11639000D02*
X10625000Y-11739000D01*
X10625000Y-11639000D02*
X10525000Y-11739000D01*
X10625000Y-11689000D02*
G75*
G03*
X10625000Y-11689000I-50000J0D01*
G01*
X10525000Y-11893000D02*
X10625000Y-11993000D01*
X10625000Y-11893000D02*
X10525000Y-11993000D01*
X10625000Y-11943000D02*
G75*
G03*
X10625000Y-11943000I-50000J0D01*
G01*
X10525000Y-12147000D02*
X10625000Y-12247000D01*
X10625000Y-12147000D02*
X10525000Y-12247000D01*
X10625000Y-12197000D02*
G75*
G03*
X10625000Y-12197000I-50000J0D01*
G01*
X10525000Y-12401000D02*
X10625000Y-12501000D01*
X10625000Y-12401000D02*
X10525000Y-12501000D01*
X10625000Y-12451000D02*
G75*
G03*
X10625000Y-12451000I-50000J0D01*
G01*
X10525000Y-12655000D02*
X10625000Y-12755000D01*
X10625000Y-12655000D02*
X10525000Y-12755000D01*
X10625000Y-12705000D02*
G75*
G03*
X10625000Y-12705000I-50000J0D01*
G01*
X10596000Y-9850000D02*
X10696000Y-9950000D01*
X10696000Y-9850000D02*
X10596000Y-9950000D01*
X10696000Y-9900000D02*
G75*
G03*
X10696000Y-9900000I-50000J0D01*
G01*
X10597000Y-10230000D02*
X10697000Y-10330000D01*
X10697000Y-10230000D02*
X10597000Y-10330000D01*
X10697000Y-10280000D02*
G75*
G03*
X10697000Y-10280000I-50000J0D01*
G01*
X10850000Y-9850000D02*
X10950000Y-9950000D01*
X10950000Y-9850000D02*
X10850000Y-9950000D01*
X10950000Y-9900000D02*
G75*
G03*
X10950000Y-9900000I-50000J0D01*
G01*
X10851000Y-10230000D02*
X10951000Y-10330000D01*
X10951000Y-10230000D02*
X10851000Y-10330000D01*
X10951000Y-10280000D02*
G75*
G03*
X10951000Y-10280000I-50000J0D01*
G01*
X10980000Y-10885000D02*
X11080000Y-10985000D01*
X11080000Y-10885000D02*
X10980000Y-10985000D01*
X11080000Y-10935000D02*
G75*
G03*
X11080000Y-10935000I-50000J0D01*
G01*
X10980000Y-11139000D02*
X11080000Y-11239000D01*
X11080000Y-11139000D02*
X10980000Y-11239000D01*
X11080000Y-11189000D02*
G75*
G03*
X11080000Y-11189000I-50000J0D01*
G01*
X10980000Y-11393000D02*
X11080000Y-11493000D01*
X11080000Y-11393000D02*
X10980000Y-11493000D01*
X11080000Y-11443000D02*
G75*
G03*
X11080000Y-11443000I-50000J0D01*
G01*
X10980000Y-11647000D02*
X11080000Y-11747000D01*
X11080000Y-11647000D02*
X10980000Y-11747000D01*
X11080000Y-11697000D02*
G75*
G03*
X11080000Y-11697000I-50000J0D01*
G01*
X10980000Y-11901000D02*
X11080000Y-12001000D01*
X11080000Y-11901000D02*
X10980000Y-12001000D01*
X11080000Y-11951000D02*
G75*
G03*
X11080000Y-11951000I-50000J0D01*
G01*
X10980000Y-12155000D02*
X11080000Y-12255000D01*
X11080000Y-12155000D02*
X10980000Y-12255000D01*
X11080000Y-12205000D02*
G75*
G03*
X11080000Y-12205000I-50000J0D01*
G01*
X10980000Y-12409000D02*
X11080000Y-12509000D01*
X11080000Y-12409000D02*
X10980000Y-12509000D01*
X11080000Y-12459000D02*
G75*
G03*
X11080000Y-12459000I-50000J0D01*
G01*
X10980000Y-12663000D02*
X11080000Y-12763000D01*
X11080000Y-12663000D02*
X10980000Y-12763000D01*
X11080000Y-12713000D02*
G75*
G03*
X11080000Y-12713000I-50000J0D01*
G01*
X11104000Y-9850000D02*
X11204000Y-9950000D01*
X11204000Y-9850000D02*
X11104000Y-9950000D01*
X11204000Y-9900000D02*
G75*
G03*
X11204000Y-9900000I-50000J0D01*
G01*
X11105000Y-10230000D02*
X11205000Y-10330000D01*
X11205000Y-10230000D02*
X11105000Y-10330000D01*
X11205000Y-10280000D02*
G75*
G03*
X11205000Y-10280000I-50000J0D01*
G01*
X11358000Y-9850000D02*
X11458000Y-9950000D01*
X11458000Y-9850000D02*
X11358000Y-9950000D01*
X11458000Y-9900000D02*
G75*
G03*
X11458000Y-9900000I-50000J0D01*
G01*
X11359000Y-10230000D02*
X11459000Y-10330000D01*
X11459000Y-10230000D02*
X11359000Y-10330000D01*
X11459000Y-10280000D02*
G75*
G03*
X11459000Y-10280000I-50000J0D01*
G01*
X11612000Y-9850000D02*
X11712000Y-9950000D01*
X11712000Y-9850000D02*
X11612000Y-9950000D01*
X11712000Y-9900000D02*
G75*
G03*
X11712000Y-9900000I-50000J0D01*
G01*
X11613000Y-10230000D02*
X11713000Y-10330000D01*
X11713000Y-10230000D02*
X11613000Y-10330000D01*
X11713000Y-10280000D02*
G75*
G03*
X11713000Y-10280000I-50000J0D01*
G01*
X14850000Y-7932000D02*
X14950000Y-8032000D01*
X14950000Y-7932000D02*
X14850000Y-8032000D01*
X14950000Y-7982000D02*
G75*
G03*
X14950000Y-7982000I-50000J0D01*
G01*
X14850000Y-8186000D02*
X14950000Y-8286000D01*
X14950000Y-8186000D02*
X14850000Y-8286000D01*
X14950000Y-8236000D02*
G75*
G03*
X14950000Y-8236000I-50000J0D01*
G01*
X14850000Y-8440000D02*
X14950000Y-8540000D01*
X14950000Y-8440000D02*
X14850000Y-8540000D01*
X14950000Y-8490000D02*
G75*
G03*
X14950000Y-8490000I-50000J0D01*
G01*
X15202500Y-10572000D02*
X15302500Y-10672000D01*
X15302500Y-10572000D02*
X15202500Y-10672000D01*
X15302500Y-10622000D02*
G75*
G03*
X15302500Y-10622000I-50000J0D01*
G01*
X15215000Y-7936000D02*
X15315000Y-8036000D01*
X15315000Y-7936000D02*
X15215000Y-8036000D01*
X15315000Y-7986000D02*
G75*
G03*
X15315000Y-7986000I-50000J0D01*
G01*
X15215000Y-8190000D02*
X15315000Y-8290000D01*
X15315000Y-8190000D02*
X15215000Y-8290000D01*
X15315000Y-8240000D02*
G75*
G03*
X15315000Y-8240000I-50000J0D01*
G01*
X15215000Y-8444000D02*
X15315000Y-8544000D01*
X15315000Y-8444000D02*
X15215000Y-8544000D01*
X15315000Y-8494000D02*
G75*
G03*
X15315000Y-8494000I-50000J0D01*
G01*
X15456500Y-10572000D02*
X15556500Y-10672000D01*
X15556500Y-10572000D02*
X15456500Y-10672000D01*
X15556500Y-10622000D02*
G75*
G03*
X15556500Y-10622000I-50000J0D01*
G01*
X15570000Y-7937000D02*
X15670000Y-8037000D01*
X15670000Y-7937000D02*
X15570000Y-8037000D01*
X15670000Y-7987000D02*
G75*
G03*
X15670000Y-7987000I-50000J0D01*
G01*
X15570000Y-8191000D02*
X15670000Y-8291000D01*
X15670000Y-8191000D02*
X15570000Y-8291000D01*
X15670000Y-8241000D02*
G75*
G03*
X15670000Y-8241000I-50000J0D01*
G01*
X15570000Y-8445000D02*
X15670000Y-8545000D01*
X15670000Y-8445000D02*
X15570000Y-8545000D01*
X15670000Y-8495000D02*
G75*
G03*
X15670000Y-8495000I-50000J0D01*
G01*
X15927500Y-7937500D02*
X16027500Y-8037500D01*
X16027500Y-7937500D02*
X15927500Y-8037500D01*
X16027500Y-7987500D02*
G75*
G03*
X16027500Y-7987500I-50000J0D01*
G01*
X15927500Y-8191500D02*
X16027500Y-8291500D01*
X16027500Y-8191500D02*
X15927500Y-8291500D01*
X16027500Y-8241500D02*
G75*
G03*
X16027500Y-8241500I-50000J0D01*
G01*
X15927500Y-8445500D02*
X16027500Y-8545500D01*
X16027500Y-8445500D02*
X15927500Y-8545500D01*
X16027500Y-8495500D02*
G75*
G03*
X16027500Y-8495500I-50000J0D01*
G01*
D11*
X8998021Y-14586905D02*
X8998021Y-14386905D01*
X8998021Y-14386905D02*
X9045640Y-14386905D01*
X9045640Y-14386905D02*
X9074212Y-14396428D01*
X9074212Y-14396428D02*
X9093259Y-14415476D01*
X9093259Y-14415476D02*
X9102783Y-14434524D01*
X9102783Y-14434524D02*
X9112307Y-14472619D01*
X9112307Y-14472619D02*
X9112307Y-14501190D01*
X9112307Y-14501190D02*
X9102783Y-14539285D01*
X9102783Y-14539285D02*
X9093259Y-14558333D01*
X9093259Y-14558333D02*
X9074212Y-14577381D01*
X9074212Y-14577381D02*
X9045640Y-14586905D01*
X9045640Y-14586905D02*
X8998021Y-14586905D01*
X9198021Y-14586905D02*
X9198021Y-14453571D01*
X9198021Y-14491666D02*
X9207545Y-14472619D01*
X9207545Y-14472619D02*
X9217069Y-14463095D01*
X9217069Y-14463095D02*
X9236116Y-14453571D01*
X9236116Y-14453571D02*
X9255164Y-14453571D01*
X9321831Y-14586905D02*
X9321831Y-14453571D01*
X9321831Y-14386905D02*
X9312307Y-14396428D01*
X9312307Y-14396428D02*
X9321831Y-14405952D01*
X9321831Y-14405952D02*
X9331354Y-14396428D01*
X9331354Y-14396428D02*
X9321831Y-14386905D01*
X9321831Y-14386905D02*
X9321831Y-14405952D01*
X9445640Y-14586905D02*
X9426592Y-14577381D01*
X9426592Y-14577381D02*
X9417069Y-14558333D01*
X9417069Y-14558333D02*
X9417069Y-14386905D01*
X9550402Y-14586905D02*
X9531354Y-14577381D01*
X9531354Y-14577381D02*
X9521831Y-14558333D01*
X9521831Y-14558333D02*
X9521831Y-14386905D01*
X9778973Y-14586905D02*
X9778973Y-14386905D01*
X9778973Y-14386905D02*
X9845640Y-14529762D01*
X9845640Y-14529762D02*
X9912307Y-14386905D01*
X9912307Y-14386905D02*
X9912307Y-14586905D01*
X10093259Y-14586905D02*
X10093259Y-14482143D01*
X10093259Y-14482143D02*
X10083735Y-14463095D01*
X10083735Y-14463095D02*
X10064688Y-14453571D01*
X10064688Y-14453571D02*
X10026592Y-14453571D01*
X10026592Y-14453571D02*
X10007545Y-14463095D01*
X10093259Y-14577381D02*
X10074212Y-14586905D01*
X10074212Y-14586905D02*
X10026592Y-14586905D01*
X10026592Y-14586905D02*
X10007545Y-14577381D01*
X10007545Y-14577381D02*
X9998021Y-14558333D01*
X9998021Y-14558333D02*
X9998021Y-14539285D01*
X9998021Y-14539285D02*
X10007545Y-14520238D01*
X10007545Y-14520238D02*
X10026592Y-14510714D01*
X10026592Y-14510714D02*
X10074212Y-14510714D01*
X10074212Y-14510714D02*
X10093259Y-14501190D01*
X10188497Y-14453571D02*
X10188497Y-14653571D01*
X10188497Y-14463095D02*
X10207545Y-14453571D01*
X10207545Y-14453571D02*
X10245640Y-14453571D01*
X10245640Y-14453571D02*
X10264688Y-14463095D01*
X10264688Y-14463095D02*
X10274212Y-14472619D01*
X10274212Y-14472619D02*
X10283735Y-14491666D01*
X10283735Y-14491666D02*
X10283735Y-14548809D01*
X10283735Y-14548809D02*
X10274212Y-14567857D01*
X10274212Y-14567857D02*
X10264688Y-14577381D01*
X10264688Y-14577381D02*
X10245640Y-14586905D01*
X10245640Y-14586905D02*
X10207545Y-14586905D01*
X10207545Y-14586905D02*
X10188497Y-14577381D01*
X10369450Y-14567857D02*
X10378973Y-14577381D01*
X10378973Y-14577381D02*
X10369450Y-14586905D01*
X10369450Y-14586905D02*
X10359926Y-14577381D01*
X10359926Y-14577381D02*
X10369450Y-14567857D01*
X10369450Y-14567857D02*
X10369450Y-14586905D01*
X10369450Y-14463095D02*
X10378973Y-14472619D01*
X10378973Y-14472619D02*
X10369450Y-14482143D01*
X10369450Y-14482143D02*
X10359926Y-14472619D01*
X10359926Y-14472619D02*
X10369450Y-14463095D01*
X10369450Y-14463095D02*
X10369450Y-14482143D01*
D12*
X8697244Y-14895421D02*
X8737244Y-14935421D01*
X8737244Y-14895421D02*
X8697244Y-14935421D01*
D11*
X9036116Y-14806905D02*
X9055164Y-14806905D01*
X9055164Y-14806905D02*
X9074212Y-14816428D01*
X9074212Y-14816428D02*
X9083735Y-14825952D01*
X9083735Y-14825952D02*
X9093259Y-14845000D01*
X9093259Y-14845000D02*
X9102783Y-14883095D01*
X9102783Y-14883095D02*
X9102783Y-14930714D01*
X9102783Y-14930714D02*
X9093259Y-14968809D01*
X9093259Y-14968809D02*
X9083735Y-14987857D01*
X9083735Y-14987857D02*
X9074212Y-14997381D01*
X9074212Y-14997381D02*
X9055164Y-15006905D01*
X9055164Y-15006905D02*
X9036116Y-15006905D01*
X9036116Y-15006905D02*
X9017069Y-14997381D01*
X9017069Y-14997381D02*
X9007545Y-14987857D01*
X9007545Y-14987857D02*
X8998021Y-14968809D01*
X8998021Y-14968809D02*
X8988497Y-14930714D01*
X8988497Y-14930714D02*
X8988497Y-14883095D01*
X8988497Y-14883095D02*
X8998021Y-14845000D01*
X8998021Y-14845000D02*
X9007545Y-14825952D01*
X9007545Y-14825952D02*
X9017069Y-14816428D01*
X9017069Y-14816428D02*
X9036116Y-14806905D01*
X9188497Y-14987857D02*
X9198021Y-14997381D01*
X9198021Y-14997381D02*
X9188497Y-15006905D01*
X9188497Y-15006905D02*
X9178973Y-14997381D01*
X9178973Y-14997381D02*
X9188497Y-14987857D01*
X9188497Y-14987857D02*
X9188497Y-15006905D01*
X9369450Y-14873571D02*
X9369450Y-15006905D01*
X9321831Y-14797381D02*
X9274212Y-14940238D01*
X9274212Y-14940238D02*
X9398021Y-14940238D01*
X9512307Y-14806905D02*
X9531354Y-14806905D01*
X9531354Y-14806905D02*
X9550402Y-14816428D01*
X9550402Y-14816428D02*
X9559926Y-14825952D01*
X9559926Y-14825952D02*
X9569450Y-14845000D01*
X9569450Y-14845000D02*
X9578973Y-14883095D01*
X9578973Y-14883095D02*
X9578973Y-14930714D01*
X9578973Y-14930714D02*
X9569450Y-14968809D01*
X9569450Y-14968809D02*
X9559926Y-14987857D01*
X9559926Y-14987857D02*
X9550402Y-14997381D01*
X9550402Y-14997381D02*
X9531354Y-15006905D01*
X9531354Y-15006905D02*
X9512307Y-15006905D01*
X9512307Y-15006905D02*
X9493259Y-14997381D01*
X9493259Y-14997381D02*
X9483735Y-14987857D01*
X9483735Y-14987857D02*
X9474212Y-14968809D01*
X9474212Y-14968809D02*
X9464688Y-14930714D01*
X9464688Y-14930714D02*
X9464688Y-14883095D01*
X9464688Y-14883095D02*
X9474212Y-14845000D01*
X9474212Y-14845000D02*
X9483735Y-14825952D01*
X9483735Y-14825952D02*
X9493259Y-14816428D01*
X9493259Y-14816428D02*
X9512307Y-14806905D01*
X9702783Y-14806905D02*
X9721831Y-14806905D01*
X9721831Y-14806905D02*
X9740878Y-14816428D01*
X9740878Y-14816428D02*
X9750402Y-14825952D01*
X9750402Y-14825952D02*
X9759926Y-14845000D01*
X9759926Y-14845000D02*
X9769450Y-14883095D01*
X9769450Y-14883095D02*
X9769450Y-14930714D01*
X9769450Y-14930714D02*
X9759926Y-14968809D01*
X9759926Y-14968809D02*
X9750402Y-14987857D01*
X9750402Y-14987857D02*
X9740878Y-14997381D01*
X9740878Y-14997381D02*
X9721831Y-15006905D01*
X9721831Y-15006905D02*
X9702783Y-15006905D01*
X9702783Y-15006905D02*
X9683735Y-14997381D01*
X9683735Y-14997381D02*
X9674212Y-14987857D01*
X9674212Y-14987857D02*
X9664688Y-14968809D01*
X9664688Y-14968809D02*
X9655164Y-14930714D01*
X9655164Y-14930714D02*
X9655164Y-14883095D01*
X9655164Y-14883095D02*
X9664688Y-14845000D01*
X9664688Y-14845000D02*
X9674212Y-14825952D01*
X9674212Y-14825952D02*
X9683735Y-14816428D01*
X9683735Y-14816428D02*
X9702783Y-14806905D01*
X9855164Y-15006905D02*
X9855164Y-14873571D01*
X9855164Y-14892619D02*
X9864688Y-14883095D01*
X9864688Y-14883095D02*
X9883735Y-14873571D01*
X9883735Y-14873571D02*
X9912307Y-14873571D01*
X9912307Y-14873571D02*
X9931354Y-14883095D01*
X9931354Y-14883095D02*
X9940878Y-14902143D01*
X9940878Y-14902143D02*
X9940878Y-15006905D01*
X9940878Y-14902143D02*
X9950402Y-14883095D01*
X9950402Y-14883095D02*
X9969450Y-14873571D01*
X9969450Y-14873571D02*
X9998021Y-14873571D01*
X9998021Y-14873571D02*
X10017069Y-14883095D01*
X10017069Y-14883095D02*
X10026593Y-14902143D01*
X10026593Y-14902143D02*
X10026593Y-15006905D01*
X10121831Y-15006905D02*
X10121831Y-14873571D01*
X10121831Y-14892619D02*
X10131354Y-14883095D01*
X10131354Y-14883095D02*
X10150402Y-14873571D01*
X10150402Y-14873571D02*
X10178974Y-14873571D01*
X10178974Y-14873571D02*
X10198021Y-14883095D01*
X10198021Y-14883095D02*
X10207545Y-14902143D01*
X10207545Y-14902143D02*
X10207545Y-15006905D01*
X10207545Y-14902143D02*
X10217069Y-14883095D01*
X10217069Y-14883095D02*
X10236116Y-14873571D01*
X10236116Y-14873571D02*
X10264688Y-14873571D01*
X10264688Y-14873571D02*
X10283735Y-14883095D01*
X10283735Y-14883095D02*
X10293259Y-14902143D01*
X10293259Y-14902143D02*
X10293259Y-15006905D01*
X10683735Y-14797381D02*
X10512307Y-15054524D01*
X10940878Y-14806905D02*
X10959926Y-14806905D01*
X10959926Y-14806905D02*
X10978974Y-14816428D01*
X10978974Y-14816428D02*
X10988497Y-14825952D01*
X10988497Y-14825952D02*
X10998021Y-14845000D01*
X10998021Y-14845000D02*
X11007545Y-14883095D01*
X11007545Y-14883095D02*
X11007545Y-14930714D01*
X11007545Y-14930714D02*
X10998021Y-14968809D01*
X10998021Y-14968809D02*
X10988497Y-14987857D01*
X10988497Y-14987857D02*
X10978974Y-14997381D01*
X10978974Y-14997381D02*
X10959926Y-15006905D01*
X10959926Y-15006905D02*
X10940878Y-15006905D01*
X10940878Y-15006905D02*
X10921831Y-14997381D01*
X10921831Y-14997381D02*
X10912307Y-14987857D01*
X10912307Y-14987857D02*
X10902783Y-14968809D01*
X10902783Y-14968809D02*
X10893259Y-14930714D01*
X10893259Y-14930714D02*
X10893259Y-14883095D01*
X10893259Y-14883095D02*
X10902783Y-14845000D01*
X10902783Y-14845000D02*
X10912307Y-14825952D01*
X10912307Y-14825952D02*
X10921831Y-14816428D01*
X10921831Y-14816428D02*
X10940878Y-14806905D01*
X11093259Y-14987857D02*
X11102783Y-14997381D01*
X11102783Y-14997381D02*
X11093259Y-15006905D01*
X11093259Y-15006905D02*
X11083736Y-14997381D01*
X11083736Y-14997381D02*
X11093259Y-14987857D01*
X11093259Y-14987857D02*
X11093259Y-15006905D01*
X11226593Y-14806905D02*
X11245640Y-14806905D01*
X11245640Y-14806905D02*
X11264688Y-14816428D01*
X11264688Y-14816428D02*
X11274212Y-14825952D01*
X11274212Y-14825952D02*
X11283735Y-14845000D01*
X11283735Y-14845000D02*
X11293259Y-14883095D01*
X11293259Y-14883095D02*
X11293259Y-14930714D01*
X11293259Y-14930714D02*
X11283735Y-14968809D01*
X11283735Y-14968809D02*
X11274212Y-14987857D01*
X11274212Y-14987857D02*
X11264688Y-14997381D01*
X11264688Y-14997381D02*
X11245640Y-15006905D01*
X11245640Y-15006905D02*
X11226593Y-15006905D01*
X11226593Y-15006905D02*
X11207545Y-14997381D01*
X11207545Y-14997381D02*
X11198021Y-14987857D01*
X11198021Y-14987857D02*
X11188497Y-14968809D01*
X11188497Y-14968809D02*
X11178974Y-14930714D01*
X11178974Y-14930714D02*
X11178974Y-14883095D01*
X11178974Y-14883095D02*
X11188497Y-14845000D01*
X11188497Y-14845000D02*
X11198021Y-14825952D01*
X11198021Y-14825952D02*
X11207545Y-14816428D01*
X11207545Y-14816428D02*
X11226593Y-14806905D01*
X11483735Y-15006905D02*
X11369450Y-15006905D01*
X11426593Y-15006905D02*
X11426593Y-14806905D01*
X11426593Y-14806905D02*
X11407545Y-14835476D01*
X11407545Y-14835476D02*
X11388497Y-14854524D01*
X11388497Y-14854524D02*
X11369450Y-14864047D01*
X11664688Y-14806905D02*
X11569450Y-14806905D01*
X11569450Y-14806905D02*
X11559926Y-14902143D01*
X11559926Y-14902143D02*
X11569450Y-14892619D01*
X11569450Y-14892619D02*
X11588497Y-14883095D01*
X11588497Y-14883095D02*
X11636116Y-14883095D01*
X11636116Y-14883095D02*
X11655164Y-14892619D01*
X11655164Y-14892619D02*
X11664688Y-14902143D01*
X11664688Y-14902143D02*
X11674212Y-14921190D01*
X11674212Y-14921190D02*
X11674212Y-14968809D01*
X11674212Y-14968809D02*
X11664688Y-14987857D01*
X11664688Y-14987857D02*
X11655164Y-14997381D01*
X11655164Y-14997381D02*
X11636116Y-15006905D01*
X11636116Y-15006905D02*
X11588497Y-15006905D01*
X11588497Y-15006905D02*
X11569450Y-14997381D01*
X11569450Y-14997381D02*
X11559926Y-14987857D01*
X11740878Y-14806905D02*
X11874212Y-14806905D01*
X11874212Y-14806905D02*
X11788497Y-15006905D01*
X11940878Y-14806905D02*
X11940878Y-14845000D01*
X12017069Y-14806905D02*
X12017069Y-14845000D01*
X12312307Y-15083095D02*
X12302783Y-15073571D01*
X12302783Y-15073571D02*
X12283736Y-15045000D01*
X12283736Y-15045000D02*
X12274212Y-15025952D01*
X12274212Y-15025952D02*
X12264688Y-14997381D01*
X12264688Y-14997381D02*
X12255164Y-14949762D01*
X12255164Y-14949762D02*
X12255164Y-14911666D01*
X12255164Y-14911666D02*
X12264688Y-14864047D01*
X12264688Y-14864047D02*
X12274212Y-14835476D01*
X12274212Y-14835476D02*
X12283736Y-14816428D01*
X12283736Y-14816428D02*
X12302783Y-14787857D01*
X12302783Y-14787857D02*
X12312307Y-14778333D01*
X12398021Y-15006905D02*
X12436116Y-15006905D01*
X12436116Y-15006905D02*
X12455164Y-14997381D01*
X12455164Y-14997381D02*
X12464688Y-14987857D01*
X12464688Y-14987857D02*
X12483736Y-14959285D01*
X12483736Y-14959285D02*
X12493259Y-14921190D01*
X12493259Y-14921190D02*
X12493259Y-14845000D01*
X12493259Y-14845000D02*
X12483736Y-14825952D01*
X12483736Y-14825952D02*
X12474212Y-14816428D01*
X12474212Y-14816428D02*
X12455164Y-14806905D01*
X12455164Y-14806905D02*
X12417069Y-14806905D01*
X12417069Y-14806905D02*
X12398021Y-14816428D01*
X12398021Y-14816428D02*
X12388497Y-14825952D01*
X12388497Y-14825952D02*
X12378974Y-14845000D01*
X12378974Y-14845000D02*
X12378974Y-14892619D01*
X12378974Y-14892619D02*
X12388497Y-14911666D01*
X12388497Y-14911666D02*
X12398021Y-14921190D01*
X12398021Y-14921190D02*
X12417069Y-14930714D01*
X12417069Y-14930714D02*
X12455164Y-14930714D01*
X12455164Y-14930714D02*
X12474212Y-14921190D01*
X12474212Y-14921190D02*
X12483736Y-14911666D01*
X12483736Y-14911666D02*
X12493259Y-14892619D01*
X12588497Y-15006905D02*
X12626593Y-15006905D01*
X12626593Y-15006905D02*
X12645640Y-14997381D01*
X12645640Y-14997381D02*
X12655164Y-14987857D01*
X12655164Y-14987857D02*
X12674212Y-14959285D01*
X12674212Y-14959285D02*
X12683736Y-14921190D01*
X12683736Y-14921190D02*
X12683736Y-14845000D01*
X12683736Y-14845000D02*
X12674212Y-14825952D01*
X12674212Y-14825952D02*
X12664688Y-14816428D01*
X12664688Y-14816428D02*
X12645640Y-14806905D01*
X12645640Y-14806905D02*
X12607545Y-14806905D01*
X12607545Y-14806905D02*
X12588497Y-14816428D01*
X12588497Y-14816428D02*
X12578974Y-14825952D01*
X12578974Y-14825952D02*
X12569450Y-14845000D01*
X12569450Y-14845000D02*
X12569450Y-14892619D01*
X12569450Y-14892619D02*
X12578974Y-14911666D01*
X12578974Y-14911666D02*
X12588497Y-14921190D01*
X12588497Y-14921190D02*
X12607545Y-14930714D01*
X12607545Y-14930714D02*
X12645640Y-14930714D01*
X12645640Y-14930714D02*
X12664688Y-14921190D01*
X12664688Y-14921190D02*
X12674212Y-14911666D01*
X12674212Y-14911666D02*
X12683736Y-14892619D01*
X12921831Y-15006905D02*
X12921831Y-14806905D01*
X13007545Y-15006905D02*
X13007545Y-14902143D01*
X13007545Y-14902143D02*
X12998021Y-14883095D01*
X12998021Y-14883095D02*
X12978974Y-14873571D01*
X12978974Y-14873571D02*
X12950402Y-14873571D01*
X12950402Y-14873571D02*
X12931355Y-14883095D01*
X12931355Y-14883095D02*
X12921831Y-14892619D01*
X13131355Y-15006905D02*
X13112307Y-14997381D01*
X13112307Y-14997381D02*
X13102783Y-14987857D01*
X13102783Y-14987857D02*
X13093259Y-14968809D01*
X13093259Y-14968809D02*
X13093259Y-14911666D01*
X13093259Y-14911666D02*
X13102783Y-14892619D01*
X13102783Y-14892619D02*
X13112307Y-14883095D01*
X13112307Y-14883095D02*
X13131355Y-14873571D01*
X13131355Y-14873571D02*
X13159926Y-14873571D01*
X13159926Y-14873571D02*
X13178974Y-14883095D01*
X13178974Y-14883095D02*
X13188498Y-14892619D01*
X13188498Y-14892619D02*
X13198021Y-14911666D01*
X13198021Y-14911666D02*
X13198021Y-14968809D01*
X13198021Y-14968809D02*
X13188498Y-14987857D01*
X13188498Y-14987857D02*
X13178974Y-14997381D01*
X13178974Y-14997381D02*
X13159926Y-15006905D01*
X13159926Y-15006905D02*
X13131355Y-15006905D01*
X13312307Y-15006905D02*
X13293259Y-14997381D01*
X13293259Y-14997381D02*
X13283736Y-14978333D01*
X13283736Y-14978333D02*
X13283736Y-14806905D01*
X13464688Y-14997381D02*
X13445640Y-15006905D01*
X13445640Y-15006905D02*
X13407545Y-15006905D01*
X13407545Y-15006905D02*
X13388498Y-14997381D01*
X13388498Y-14997381D02*
X13378974Y-14978333D01*
X13378974Y-14978333D02*
X13378974Y-14902143D01*
X13378974Y-14902143D02*
X13388498Y-14883095D01*
X13388498Y-14883095D02*
X13407545Y-14873571D01*
X13407545Y-14873571D02*
X13445640Y-14873571D01*
X13445640Y-14873571D02*
X13464688Y-14883095D01*
X13464688Y-14883095D02*
X13474212Y-14902143D01*
X13474212Y-14902143D02*
X13474212Y-14921190D01*
X13474212Y-14921190D02*
X13378974Y-14940238D01*
X13550402Y-14997381D02*
X13569450Y-15006905D01*
X13569450Y-15006905D02*
X13607545Y-15006905D01*
X13607545Y-15006905D02*
X13626593Y-14997381D01*
X13626593Y-14997381D02*
X13636117Y-14978333D01*
X13636117Y-14978333D02*
X13636117Y-14968809D01*
X13636117Y-14968809D02*
X13626593Y-14949762D01*
X13626593Y-14949762D02*
X13607545Y-14940238D01*
X13607545Y-14940238D02*
X13578974Y-14940238D01*
X13578974Y-14940238D02*
X13559926Y-14930714D01*
X13559926Y-14930714D02*
X13550402Y-14911666D01*
X13550402Y-14911666D02*
X13550402Y-14902143D01*
X13550402Y-14902143D02*
X13559926Y-14883095D01*
X13559926Y-14883095D02*
X13578974Y-14873571D01*
X13578974Y-14873571D02*
X13607545Y-14873571D01*
X13607545Y-14873571D02*
X13626593Y-14883095D01*
X13702783Y-15083095D02*
X13712307Y-15073571D01*
X13712307Y-15073571D02*
X13731355Y-15045000D01*
X13731355Y-15045000D02*
X13740879Y-15025952D01*
X13740879Y-15025952D02*
X13750402Y-14997381D01*
X13750402Y-14997381D02*
X13759926Y-14949762D01*
X13759926Y-14949762D02*
X13759926Y-14911666D01*
X13759926Y-14911666D02*
X13750402Y-14864047D01*
X13750402Y-14864047D02*
X13740879Y-14835476D01*
X13740879Y-14835476D02*
X13731355Y-14816428D01*
X13731355Y-14816428D02*
X13712307Y-14787857D01*
X13712307Y-14787857D02*
X13702783Y-14778333D01*
D13*
X8737244Y-15179421D02*
G75*
G03*
X8737244Y-15179421I-35000J0D01*
G01*
D11*
X9036116Y-15070905D02*
X9055164Y-15070905D01*
X9055164Y-15070905D02*
X9074212Y-15080428D01*
X9074212Y-15080428D02*
X9083735Y-15089952D01*
X9083735Y-15089952D02*
X9093259Y-15109000D01*
X9093259Y-15109000D02*
X9102783Y-15147095D01*
X9102783Y-15147095D02*
X9102783Y-15194714D01*
X9102783Y-15194714D02*
X9093259Y-15232809D01*
X9093259Y-15232809D02*
X9083735Y-15251857D01*
X9083735Y-15251857D02*
X9074212Y-15261381D01*
X9074212Y-15261381D02*
X9055164Y-15270905D01*
X9055164Y-15270905D02*
X9036116Y-15270905D01*
X9036116Y-15270905D02*
X9017069Y-15261381D01*
X9017069Y-15261381D02*
X9007545Y-15251857D01*
X9007545Y-15251857D02*
X8998021Y-15232809D01*
X8998021Y-15232809D02*
X8988497Y-15194714D01*
X8988497Y-15194714D02*
X8988497Y-15147095D01*
X8988497Y-15147095D02*
X8998021Y-15109000D01*
X8998021Y-15109000D02*
X9007545Y-15089952D01*
X9007545Y-15089952D02*
X9017069Y-15080428D01*
X9017069Y-15080428D02*
X9036116Y-15070905D01*
X9188497Y-15251857D02*
X9198021Y-15261381D01*
X9198021Y-15261381D02*
X9188497Y-15270905D01*
X9188497Y-15270905D02*
X9178973Y-15261381D01*
X9178973Y-15261381D02*
X9188497Y-15251857D01*
X9188497Y-15251857D02*
X9188497Y-15270905D01*
X9264688Y-15070905D02*
X9398021Y-15070905D01*
X9398021Y-15070905D02*
X9312307Y-15270905D01*
X9512307Y-15070905D02*
X9531354Y-15070905D01*
X9531354Y-15070905D02*
X9550402Y-15080428D01*
X9550402Y-15080428D02*
X9559926Y-15089952D01*
X9559926Y-15089952D02*
X9569450Y-15109000D01*
X9569450Y-15109000D02*
X9578973Y-15147095D01*
X9578973Y-15147095D02*
X9578973Y-15194714D01*
X9578973Y-15194714D02*
X9569450Y-15232809D01*
X9569450Y-15232809D02*
X9559926Y-15251857D01*
X9559926Y-15251857D02*
X9550402Y-15261381D01*
X9550402Y-15261381D02*
X9531354Y-15270905D01*
X9531354Y-15270905D02*
X9512307Y-15270905D01*
X9512307Y-15270905D02*
X9493259Y-15261381D01*
X9493259Y-15261381D02*
X9483735Y-15251857D01*
X9483735Y-15251857D02*
X9474212Y-15232809D01*
X9474212Y-15232809D02*
X9464688Y-15194714D01*
X9464688Y-15194714D02*
X9464688Y-15147095D01*
X9464688Y-15147095D02*
X9474212Y-15109000D01*
X9474212Y-15109000D02*
X9483735Y-15089952D01*
X9483735Y-15089952D02*
X9493259Y-15080428D01*
X9493259Y-15080428D02*
X9512307Y-15070905D01*
X9702783Y-15070905D02*
X9721831Y-15070905D01*
X9721831Y-15070905D02*
X9740878Y-15080428D01*
X9740878Y-15080428D02*
X9750402Y-15089952D01*
X9750402Y-15089952D02*
X9759926Y-15109000D01*
X9759926Y-15109000D02*
X9769450Y-15147095D01*
X9769450Y-15147095D02*
X9769450Y-15194714D01*
X9769450Y-15194714D02*
X9759926Y-15232809D01*
X9759926Y-15232809D02*
X9750402Y-15251857D01*
X9750402Y-15251857D02*
X9740878Y-15261381D01*
X9740878Y-15261381D02*
X9721831Y-15270905D01*
X9721831Y-15270905D02*
X9702783Y-15270905D01*
X9702783Y-15270905D02*
X9683735Y-15261381D01*
X9683735Y-15261381D02*
X9674212Y-15251857D01*
X9674212Y-15251857D02*
X9664688Y-15232809D01*
X9664688Y-15232809D02*
X9655164Y-15194714D01*
X9655164Y-15194714D02*
X9655164Y-15147095D01*
X9655164Y-15147095D02*
X9664688Y-15109000D01*
X9664688Y-15109000D02*
X9674212Y-15089952D01*
X9674212Y-15089952D02*
X9683735Y-15080428D01*
X9683735Y-15080428D02*
X9702783Y-15070905D01*
X9855164Y-15270905D02*
X9855164Y-15137571D01*
X9855164Y-15156619D02*
X9864688Y-15147095D01*
X9864688Y-15147095D02*
X9883735Y-15137571D01*
X9883735Y-15137571D02*
X9912307Y-15137571D01*
X9912307Y-15137571D02*
X9931354Y-15147095D01*
X9931354Y-15147095D02*
X9940878Y-15166143D01*
X9940878Y-15166143D02*
X9940878Y-15270905D01*
X9940878Y-15166143D02*
X9950402Y-15147095D01*
X9950402Y-15147095D02*
X9969450Y-15137571D01*
X9969450Y-15137571D02*
X9998021Y-15137571D01*
X9998021Y-15137571D02*
X10017069Y-15147095D01*
X10017069Y-15147095D02*
X10026593Y-15166143D01*
X10026593Y-15166143D02*
X10026593Y-15270905D01*
X10121831Y-15270905D02*
X10121831Y-15137571D01*
X10121831Y-15156619D02*
X10131354Y-15147095D01*
X10131354Y-15147095D02*
X10150402Y-15137571D01*
X10150402Y-15137571D02*
X10178974Y-15137571D01*
X10178974Y-15137571D02*
X10198021Y-15147095D01*
X10198021Y-15147095D02*
X10207545Y-15166143D01*
X10207545Y-15166143D02*
X10207545Y-15270905D01*
X10207545Y-15166143D02*
X10217069Y-15147095D01*
X10217069Y-15147095D02*
X10236116Y-15137571D01*
X10236116Y-15137571D02*
X10264688Y-15137571D01*
X10264688Y-15137571D02*
X10283735Y-15147095D01*
X10283735Y-15147095D02*
X10293259Y-15166143D01*
X10293259Y-15166143D02*
X10293259Y-15270905D01*
X10683735Y-15061381D02*
X10512307Y-15318524D01*
X10940878Y-15070905D02*
X10959926Y-15070905D01*
X10959926Y-15070905D02*
X10978974Y-15080428D01*
X10978974Y-15080428D02*
X10988497Y-15089952D01*
X10988497Y-15089952D02*
X10998021Y-15109000D01*
X10998021Y-15109000D02*
X11007545Y-15147095D01*
X11007545Y-15147095D02*
X11007545Y-15194714D01*
X11007545Y-15194714D02*
X10998021Y-15232809D01*
X10998021Y-15232809D02*
X10988497Y-15251857D01*
X10988497Y-15251857D02*
X10978974Y-15261381D01*
X10978974Y-15261381D02*
X10959926Y-15270905D01*
X10959926Y-15270905D02*
X10940878Y-15270905D01*
X10940878Y-15270905D02*
X10921831Y-15261381D01*
X10921831Y-15261381D02*
X10912307Y-15251857D01*
X10912307Y-15251857D02*
X10902783Y-15232809D01*
X10902783Y-15232809D02*
X10893259Y-15194714D01*
X10893259Y-15194714D02*
X10893259Y-15147095D01*
X10893259Y-15147095D02*
X10902783Y-15109000D01*
X10902783Y-15109000D02*
X10912307Y-15089952D01*
X10912307Y-15089952D02*
X10921831Y-15080428D01*
X10921831Y-15080428D02*
X10940878Y-15070905D01*
X11093259Y-15251857D02*
X11102783Y-15261381D01*
X11102783Y-15261381D02*
X11093259Y-15270905D01*
X11093259Y-15270905D02*
X11083736Y-15261381D01*
X11083736Y-15261381D02*
X11093259Y-15251857D01*
X11093259Y-15251857D02*
X11093259Y-15270905D01*
X11226593Y-15070905D02*
X11245640Y-15070905D01*
X11245640Y-15070905D02*
X11264688Y-15080428D01*
X11264688Y-15080428D02*
X11274212Y-15089952D01*
X11274212Y-15089952D02*
X11283735Y-15109000D01*
X11283735Y-15109000D02*
X11293259Y-15147095D01*
X11293259Y-15147095D02*
X11293259Y-15194714D01*
X11293259Y-15194714D02*
X11283735Y-15232809D01*
X11283735Y-15232809D02*
X11274212Y-15251857D01*
X11274212Y-15251857D02*
X11264688Y-15261381D01*
X11264688Y-15261381D02*
X11245640Y-15270905D01*
X11245640Y-15270905D02*
X11226593Y-15270905D01*
X11226593Y-15270905D02*
X11207545Y-15261381D01*
X11207545Y-15261381D02*
X11198021Y-15251857D01*
X11198021Y-15251857D02*
X11188497Y-15232809D01*
X11188497Y-15232809D02*
X11178974Y-15194714D01*
X11178974Y-15194714D02*
X11178974Y-15147095D01*
X11178974Y-15147095D02*
X11188497Y-15109000D01*
X11188497Y-15109000D02*
X11198021Y-15089952D01*
X11198021Y-15089952D02*
X11207545Y-15080428D01*
X11207545Y-15080428D02*
X11226593Y-15070905D01*
X11369450Y-15089952D02*
X11378974Y-15080428D01*
X11378974Y-15080428D02*
X11398021Y-15070905D01*
X11398021Y-15070905D02*
X11445640Y-15070905D01*
X11445640Y-15070905D02*
X11464688Y-15080428D01*
X11464688Y-15080428D02*
X11474212Y-15089952D01*
X11474212Y-15089952D02*
X11483735Y-15109000D01*
X11483735Y-15109000D02*
X11483735Y-15128047D01*
X11483735Y-15128047D02*
X11474212Y-15156619D01*
X11474212Y-15156619D02*
X11359926Y-15270905D01*
X11359926Y-15270905D02*
X11483735Y-15270905D01*
X11550402Y-15070905D02*
X11683735Y-15070905D01*
X11683735Y-15070905D02*
X11598021Y-15270905D01*
X11845640Y-15070905D02*
X11807545Y-15070905D01*
X11807545Y-15070905D02*
X11788497Y-15080428D01*
X11788497Y-15080428D02*
X11778974Y-15089952D01*
X11778974Y-15089952D02*
X11759926Y-15118524D01*
X11759926Y-15118524D02*
X11750402Y-15156619D01*
X11750402Y-15156619D02*
X11750402Y-15232809D01*
X11750402Y-15232809D02*
X11759926Y-15251857D01*
X11759926Y-15251857D02*
X11769450Y-15261381D01*
X11769450Y-15261381D02*
X11788497Y-15270905D01*
X11788497Y-15270905D02*
X11826593Y-15270905D01*
X11826593Y-15270905D02*
X11845640Y-15261381D01*
X11845640Y-15261381D02*
X11855164Y-15251857D01*
X11855164Y-15251857D02*
X11864688Y-15232809D01*
X11864688Y-15232809D02*
X11864688Y-15185190D01*
X11864688Y-15185190D02*
X11855164Y-15166143D01*
X11855164Y-15166143D02*
X11845640Y-15156619D01*
X11845640Y-15156619D02*
X11826593Y-15147095D01*
X11826593Y-15147095D02*
X11788497Y-15147095D01*
X11788497Y-15147095D02*
X11769450Y-15156619D01*
X11769450Y-15156619D02*
X11759926Y-15166143D01*
X11759926Y-15166143D02*
X11750402Y-15185190D01*
X11940878Y-15070905D02*
X11940878Y-15109000D01*
X12017069Y-15070905D02*
X12017069Y-15109000D01*
X12312307Y-15347095D02*
X12302783Y-15337571D01*
X12302783Y-15337571D02*
X12283736Y-15309000D01*
X12283736Y-15309000D02*
X12274212Y-15289952D01*
X12274212Y-15289952D02*
X12264688Y-15261381D01*
X12264688Y-15261381D02*
X12255164Y-15213762D01*
X12255164Y-15213762D02*
X12255164Y-15175666D01*
X12255164Y-15175666D02*
X12264688Y-15128047D01*
X12264688Y-15128047D02*
X12274212Y-15099476D01*
X12274212Y-15099476D02*
X12283736Y-15080428D01*
X12283736Y-15080428D02*
X12302783Y-15051857D01*
X12302783Y-15051857D02*
X12312307Y-15042333D01*
X12474212Y-15137571D02*
X12474212Y-15270905D01*
X12426593Y-15061381D02*
X12378974Y-15204238D01*
X12378974Y-15204238D02*
X12502783Y-15204238D01*
X12731355Y-15270905D02*
X12731355Y-15070905D01*
X12817069Y-15270905D02*
X12817069Y-15166143D01*
X12817069Y-15166143D02*
X12807545Y-15147095D01*
X12807545Y-15147095D02*
X12788498Y-15137571D01*
X12788498Y-15137571D02*
X12759926Y-15137571D01*
X12759926Y-15137571D02*
X12740878Y-15147095D01*
X12740878Y-15147095D02*
X12731355Y-15156619D01*
X12940878Y-15270905D02*
X12921831Y-15261381D01*
X12921831Y-15261381D02*
X12912307Y-15251857D01*
X12912307Y-15251857D02*
X12902783Y-15232809D01*
X12902783Y-15232809D02*
X12902783Y-15175666D01*
X12902783Y-15175666D02*
X12912307Y-15156619D01*
X12912307Y-15156619D02*
X12921831Y-15147095D01*
X12921831Y-15147095D02*
X12940878Y-15137571D01*
X12940878Y-15137571D02*
X12969450Y-15137571D01*
X12969450Y-15137571D02*
X12988498Y-15147095D01*
X12988498Y-15147095D02*
X12998021Y-15156619D01*
X12998021Y-15156619D02*
X13007545Y-15175666D01*
X13007545Y-15175666D02*
X13007545Y-15232809D01*
X13007545Y-15232809D02*
X12998021Y-15251857D01*
X12998021Y-15251857D02*
X12988498Y-15261381D01*
X12988498Y-15261381D02*
X12969450Y-15270905D01*
X12969450Y-15270905D02*
X12940878Y-15270905D01*
X13121831Y-15270905D02*
X13102783Y-15261381D01*
X13102783Y-15261381D02*
X13093259Y-15242333D01*
X13093259Y-15242333D02*
X13093259Y-15070905D01*
X13274212Y-15261381D02*
X13255164Y-15270905D01*
X13255164Y-15270905D02*
X13217069Y-15270905D01*
X13217069Y-15270905D02*
X13198021Y-15261381D01*
X13198021Y-15261381D02*
X13188498Y-15242333D01*
X13188498Y-15242333D02*
X13188498Y-15166143D01*
X13188498Y-15166143D02*
X13198021Y-15147095D01*
X13198021Y-15147095D02*
X13217069Y-15137571D01*
X13217069Y-15137571D02*
X13255164Y-15137571D01*
X13255164Y-15137571D02*
X13274212Y-15147095D01*
X13274212Y-15147095D02*
X13283736Y-15166143D01*
X13283736Y-15166143D02*
X13283736Y-15185190D01*
X13283736Y-15185190D02*
X13188498Y-15204238D01*
X13359926Y-15261381D02*
X13378974Y-15270905D01*
X13378974Y-15270905D02*
X13417069Y-15270905D01*
X13417069Y-15270905D02*
X13436117Y-15261381D01*
X13436117Y-15261381D02*
X13445640Y-15242333D01*
X13445640Y-15242333D02*
X13445640Y-15232809D01*
X13445640Y-15232809D02*
X13436117Y-15213762D01*
X13436117Y-15213762D02*
X13417069Y-15204238D01*
X13417069Y-15204238D02*
X13388498Y-15204238D01*
X13388498Y-15204238D02*
X13369450Y-15194714D01*
X13369450Y-15194714D02*
X13359926Y-15175666D01*
X13359926Y-15175666D02*
X13359926Y-15166143D01*
X13359926Y-15166143D02*
X13369450Y-15147095D01*
X13369450Y-15147095D02*
X13388498Y-15137571D01*
X13388498Y-15137571D02*
X13417069Y-15137571D01*
X13417069Y-15137571D02*
X13436117Y-15147095D01*
X13512307Y-15347095D02*
X13521831Y-15337571D01*
X13521831Y-15337571D02*
X13540879Y-15309000D01*
X13540879Y-15309000D02*
X13550402Y-15289952D01*
X13550402Y-15289952D02*
X13559926Y-15261381D01*
X13559926Y-15261381D02*
X13569450Y-15213762D01*
X13569450Y-15213762D02*
X13569450Y-15175666D01*
X13569450Y-15175666D02*
X13559926Y-15128047D01*
X13559926Y-15128047D02*
X13550402Y-15099476D01*
X13550402Y-15099476D02*
X13540879Y-15080428D01*
X13540879Y-15080428D02*
X13521831Y-15051857D01*
X13521831Y-15051857D02*
X13512307Y-15042333D01*
D14*
X8699144Y-15405321D02*
X8699144Y-15481521D01*
X8661044Y-15443421D02*
X8737244Y-15443421D01*
D11*
X9036116Y-15334905D02*
X9055164Y-15334905D01*
X9055164Y-15334905D02*
X9074212Y-15344428D01*
X9074212Y-15344428D02*
X9083735Y-15353952D01*
X9083735Y-15353952D02*
X9093259Y-15373000D01*
X9093259Y-15373000D02*
X9102783Y-15411095D01*
X9102783Y-15411095D02*
X9102783Y-15458714D01*
X9102783Y-15458714D02*
X9093259Y-15496809D01*
X9093259Y-15496809D02*
X9083735Y-15515857D01*
X9083735Y-15515857D02*
X9074212Y-15525381D01*
X9074212Y-15525381D02*
X9055164Y-15534905D01*
X9055164Y-15534905D02*
X9036116Y-15534905D01*
X9036116Y-15534905D02*
X9017069Y-15525381D01*
X9017069Y-15525381D02*
X9007545Y-15515857D01*
X9007545Y-15515857D02*
X8998021Y-15496809D01*
X8998021Y-15496809D02*
X8988497Y-15458714D01*
X8988497Y-15458714D02*
X8988497Y-15411095D01*
X8988497Y-15411095D02*
X8998021Y-15373000D01*
X8998021Y-15373000D02*
X9007545Y-15353952D01*
X9007545Y-15353952D02*
X9017069Y-15344428D01*
X9017069Y-15344428D02*
X9036116Y-15334905D01*
X9188497Y-15515857D02*
X9198021Y-15525381D01*
X9198021Y-15525381D02*
X9188497Y-15534905D01*
X9188497Y-15534905D02*
X9178973Y-15525381D01*
X9178973Y-15525381D02*
X9188497Y-15515857D01*
X9188497Y-15515857D02*
X9188497Y-15534905D01*
X9264688Y-15334905D02*
X9398021Y-15334905D01*
X9398021Y-15334905D02*
X9312307Y-15534905D01*
X9559926Y-15334905D02*
X9521831Y-15334905D01*
X9521831Y-15334905D02*
X9502783Y-15344428D01*
X9502783Y-15344428D02*
X9493259Y-15353952D01*
X9493259Y-15353952D02*
X9474212Y-15382524D01*
X9474212Y-15382524D02*
X9464688Y-15420619D01*
X9464688Y-15420619D02*
X9464688Y-15496809D01*
X9464688Y-15496809D02*
X9474212Y-15515857D01*
X9474212Y-15515857D02*
X9483735Y-15525381D01*
X9483735Y-15525381D02*
X9502783Y-15534905D01*
X9502783Y-15534905D02*
X9540878Y-15534905D01*
X9540878Y-15534905D02*
X9559926Y-15525381D01*
X9559926Y-15525381D02*
X9569450Y-15515857D01*
X9569450Y-15515857D02*
X9578973Y-15496809D01*
X9578973Y-15496809D02*
X9578973Y-15449190D01*
X9578973Y-15449190D02*
X9569450Y-15430143D01*
X9569450Y-15430143D02*
X9559926Y-15420619D01*
X9559926Y-15420619D02*
X9540878Y-15411095D01*
X9540878Y-15411095D02*
X9502783Y-15411095D01*
X9502783Y-15411095D02*
X9483735Y-15420619D01*
X9483735Y-15420619D02*
X9474212Y-15430143D01*
X9474212Y-15430143D02*
X9464688Y-15449190D01*
X9655164Y-15353952D02*
X9664688Y-15344428D01*
X9664688Y-15344428D02*
X9683735Y-15334905D01*
X9683735Y-15334905D02*
X9731354Y-15334905D01*
X9731354Y-15334905D02*
X9750402Y-15344428D01*
X9750402Y-15344428D02*
X9759926Y-15353952D01*
X9759926Y-15353952D02*
X9769450Y-15373000D01*
X9769450Y-15373000D02*
X9769450Y-15392047D01*
X9769450Y-15392047D02*
X9759926Y-15420619D01*
X9759926Y-15420619D02*
X9645640Y-15534905D01*
X9645640Y-15534905D02*
X9769450Y-15534905D01*
X9855164Y-15534905D02*
X9855164Y-15401571D01*
X9855164Y-15420619D02*
X9864688Y-15411095D01*
X9864688Y-15411095D02*
X9883735Y-15401571D01*
X9883735Y-15401571D02*
X9912307Y-15401571D01*
X9912307Y-15401571D02*
X9931354Y-15411095D01*
X9931354Y-15411095D02*
X9940878Y-15430143D01*
X9940878Y-15430143D02*
X9940878Y-15534905D01*
X9940878Y-15430143D02*
X9950402Y-15411095D01*
X9950402Y-15411095D02*
X9969450Y-15401571D01*
X9969450Y-15401571D02*
X9998021Y-15401571D01*
X9998021Y-15401571D02*
X10017069Y-15411095D01*
X10017069Y-15411095D02*
X10026593Y-15430143D01*
X10026593Y-15430143D02*
X10026593Y-15534905D01*
X10121831Y-15534905D02*
X10121831Y-15401571D01*
X10121831Y-15420619D02*
X10131354Y-15411095D01*
X10131354Y-15411095D02*
X10150402Y-15401571D01*
X10150402Y-15401571D02*
X10178974Y-15401571D01*
X10178974Y-15401571D02*
X10198021Y-15411095D01*
X10198021Y-15411095D02*
X10207545Y-15430143D01*
X10207545Y-15430143D02*
X10207545Y-15534905D01*
X10207545Y-15430143D02*
X10217069Y-15411095D01*
X10217069Y-15411095D02*
X10236116Y-15401571D01*
X10236116Y-15401571D02*
X10264688Y-15401571D01*
X10264688Y-15401571D02*
X10283735Y-15411095D01*
X10283735Y-15411095D02*
X10293259Y-15430143D01*
X10293259Y-15430143D02*
X10293259Y-15534905D01*
X10683735Y-15325381D02*
X10512307Y-15582524D01*
X10940878Y-15334905D02*
X10959926Y-15334905D01*
X10959926Y-15334905D02*
X10978974Y-15344428D01*
X10978974Y-15344428D02*
X10988497Y-15353952D01*
X10988497Y-15353952D02*
X10998021Y-15373000D01*
X10998021Y-15373000D02*
X11007545Y-15411095D01*
X11007545Y-15411095D02*
X11007545Y-15458714D01*
X11007545Y-15458714D02*
X10998021Y-15496809D01*
X10998021Y-15496809D02*
X10988497Y-15515857D01*
X10988497Y-15515857D02*
X10978974Y-15525381D01*
X10978974Y-15525381D02*
X10959926Y-15534905D01*
X10959926Y-15534905D02*
X10940878Y-15534905D01*
X10940878Y-15534905D02*
X10921831Y-15525381D01*
X10921831Y-15525381D02*
X10912307Y-15515857D01*
X10912307Y-15515857D02*
X10902783Y-15496809D01*
X10902783Y-15496809D02*
X10893259Y-15458714D01*
X10893259Y-15458714D02*
X10893259Y-15411095D01*
X10893259Y-15411095D02*
X10902783Y-15373000D01*
X10902783Y-15373000D02*
X10912307Y-15353952D01*
X10912307Y-15353952D02*
X10921831Y-15344428D01*
X10921831Y-15344428D02*
X10940878Y-15334905D01*
X11093259Y-15515857D02*
X11102783Y-15525381D01*
X11102783Y-15525381D02*
X11093259Y-15534905D01*
X11093259Y-15534905D02*
X11083736Y-15525381D01*
X11083736Y-15525381D02*
X11093259Y-15515857D01*
X11093259Y-15515857D02*
X11093259Y-15534905D01*
X11226593Y-15334905D02*
X11245640Y-15334905D01*
X11245640Y-15334905D02*
X11264688Y-15344428D01*
X11264688Y-15344428D02*
X11274212Y-15353952D01*
X11274212Y-15353952D02*
X11283735Y-15373000D01*
X11283735Y-15373000D02*
X11293259Y-15411095D01*
X11293259Y-15411095D02*
X11293259Y-15458714D01*
X11293259Y-15458714D02*
X11283735Y-15496809D01*
X11283735Y-15496809D02*
X11274212Y-15515857D01*
X11274212Y-15515857D02*
X11264688Y-15525381D01*
X11264688Y-15525381D02*
X11245640Y-15534905D01*
X11245640Y-15534905D02*
X11226593Y-15534905D01*
X11226593Y-15534905D02*
X11207545Y-15525381D01*
X11207545Y-15525381D02*
X11198021Y-15515857D01*
X11198021Y-15515857D02*
X11188497Y-15496809D01*
X11188497Y-15496809D02*
X11178974Y-15458714D01*
X11178974Y-15458714D02*
X11178974Y-15411095D01*
X11178974Y-15411095D02*
X11188497Y-15373000D01*
X11188497Y-15373000D02*
X11198021Y-15353952D01*
X11198021Y-15353952D02*
X11207545Y-15344428D01*
X11207545Y-15344428D02*
X11226593Y-15334905D01*
X11359926Y-15334905D02*
X11483735Y-15334905D01*
X11483735Y-15334905D02*
X11417069Y-15411095D01*
X11417069Y-15411095D02*
X11445640Y-15411095D01*
X11445640Y-15411095D02*
X11464688Y-15420619D01*
X11464688Y-15420619D02*
X11474212Y-15430143D01*
X11474212Y-15430143D02*
X11483735Y-15449190D01*
X11483735Y-15449190D02*
X11483735Y-15496809D01*
X11483735Y-15496809D02*
X11474212Y-15515857D01*
X11474212Y-15515857D02*
X11464688Y-15525381D01*
X11464688Y-15525381D02*
X11445640Y-15534905D01*
X11445640Y-15534905D02*
X11388497Y-15534905D01*
X11388497Y-15534905D02*
X11369450Y-15525381D01*
X11369450Y-15525381D02*
X11359926Y-15515857D01*
X11607545Y-15334905D02*
X11626593Y-15334905D01*
X11626593Y-15334905D02*
X11645640Y-15344428D01*
X11645640Y-15344428D02*
X11655164Y-15353952D01*
X11655164Y-15353952D02*
X11664688Y-15373000D01*
X11664688Y-15373000D02*
X11674212Y-15411095D01*
X11674212Y-15411095D02*
X11674212Y-15458714D01*
X11674212Y-15458714D02*
X11664688Y-15496809D01*
X11664688Y-15496809D02*
X11655164Y-15515857D01*
X11655164Y-15515857D02*
X11645640Y-15525381D01*
X11645640Y-15525381D02*
X11626593Y-15534905D01*
X11626593Y-15534905D02*
X11607545Y-15534905D01*
X11607545Y-15534905D02*
X11588497Y-15525381D01*
X11588497Y-15525381D02*
X11578974Y-15515857D01*
X11578974Y-15515857D02*
X11569450Y-15496809D01*
X11569450Y-15496809D02*
X11559926Y-15458714D01*
X11559926Y-15458714D02*
X11559926Y-15411095D01*
X11559926Y-15411095D02*
X11569450Y-15373000D01*
X11569450Y-15373000D02*
X11578974Y-15353952D01*
X11578974Y-15353952D02*
X11588497Y-15344428D01*
X11588497Y-15344428D02*
X11607545Y-15334905D01*
X11798021Y-15334905D02*
X11817069Y-15334905D01*
X11817069Y-15334905D02*
X11836116Y-15344428D01*
X11836116Y-15344428D02*
X11845640Y-15353952D01*
X11845640Y-15353952D02*
X11855164Y-15373000D01*
X11855164Y-15373000D02*
X11864688Y-15411095D01*
X11864688Y-15411095D02*
X11864688Y-15458714D01*
X11864688Y-15458714D02*
X11855164Y-15496809D01*
X11855164Y-15496809D02*
X11845640Y-15515857D01*
X11845640Y-15515857D02*
X11836116Y-15525381D01*
X11836116Y-15525381D02*
X11817069Y-15534905D01*
X11817069Y-15534905D02*
X11798021Y-15534905D01*
X11798021Y-15534905D02*
X11778974Y-15525381D01*
X11778974Y-15525381D02*
X11769450Y-15515857D01*
X11769450Y-15515857D02*
X11759926Y-15496809D01*
X11759926Y-15496809D02*
X11750402Y-15458714D01*
X11750402Y-15458714D02*
X11750402Y-15411095D01*
X11750402Y-15411095D02*
X11759926Y-15373000D01*
X11759926Y-15373000D02*
X11769450Y-15353952D01*
X11769450Y-15353952D02*
X11778974Y-15344428D01*
X11778974Y-15344428D02*
X11798021Y-15334905D01*
X11940878Y-15334905D02*
X11940878Y-15373000D01*
X12017069Y-15334905D02*
X12017069Y-15373000D01*
X12312307Y-15611095D02*
X12302783Y-15601571D01*
X12302783Y-15601571D02*
X12283736Y-15573000D01*
X12283736Y-15573000D02*
X12274212Y-15553952D01*
X12274212Y-15553952D02*
X12264688Y-15525381D01*
X12264688Y-15525381D02*
X12255164Y-15477762D01*
X12255164Y-15477762D02*
X12255164Y-15439666D01*
X12255164Y-15439666D02*
X12264688Y-15392047D01*
X12264688Y-15392047D02*
X12274212Y-15363476D01*
X12274212Y-15363476D02*
X12283736Y-15344428D01*
X12283736Y-15344428D02*
X12302783Y-15315857D01*
X12302783Y-15315857D02*
X12312307Y-15306333D01*
X12474212Y-15401571D02*
X12474212Y-15534905D01*
X12426593Y-15325381D02*
X12378974Y-15468238D01*
X12378974Y-15468238D02*
X12502783Y-15468238D01*
X12617069Y-15334905D02*
X12636117Y-15334905D01*
X12636117Y-15334905D02*
X12655164Y-15344428D01*
X12655164Y-15344428D02*
X12664688Y-15353952D01*
X12664688Y-15353952D02*
X12674212Y-15373000D01*
X12674212Y-15373000D02*
X12683736Y-15411095D01*
X12683736Y-15411095D02*
X12683736Y-15458714D01*
X12683736Y-15458714D02*
X12674212Y-15496809D01*
X12674212Y-15496809D02*
X12664688Y-15515857D01*
X12664688Y-15515857D02*
X12655164Y-15525381D01*
X12655164Y-15525381D02*
X12636117Y-15534905D01*
X12636117Y-15534905D02*
X12617069Y-15534905D01*
X12617069Y-15534905D02*
X12598021Y-15525381D01*
X12598021Y-15525381D02*
X12588497Y-15515857D01*
X12588497Y-15515857D02*
X12578974Y-15496809D01*
X12578974Y-15496809D02*
X12569450Y-15458714D01*
X12569450Y-15458714D02*
X12569450Y-15411095D01*
X12569450Y-15411095D02*
X12578974Y-15373000D01*
X12578974Y-15373000D02*
X12588497Y-15353952D01*
X12588497Y-15353952D02*
X12598021Y-15344428D01*
X12598021Y-15344428D02*
X12617069Y-15334905D01*
X12921831Y-15534905D02*
X12921831Y-15334905D01*
X13007545Y-15534905D02*
X13007545Y-15430143D01*
X13007545Y-15430143D02*
X12998021Y-15411095D01*
X12998021Y-15411095D02*
X12978974Y-15401571D01*
X12978974Y-15401571D02*
X12950402Y-15401571D01*
X12950402Y-15401571D02*
X12931355Y-15411095D01*
X12931355Y-15411095D02*
X12921831Y-15420619D01*
X13131355Y-15534905D02*
X13112307Y-15525381D01*
X13112307Y-15525381D02*
X13102783Y-15515857D01*
X13102783Y-15515857D02*
X13093259Y-15496809D01*
X13093259Y-15496809D02*
X13093259Y-15439666D01*
X13093259Y-15439666D02*
X13102783Y-15420619D01*
X13102783Y-15420619D02*
X13112307Y-15411095D01*
X13112307Y-15411095D02*
X13131355Y-15401571D01*
X13131355Y-15401571D02*
X13159926Y-15401571D01*
X13159926Y-15401571D02*
X13178974Y-15411095D01*
X13178974Y-15411095D02*
X13188498Y-15420619D01*
X13188498Y-15420619D02*
X13198021Y-15439666D01*
X13198021Y-15439666D02*
X13198021Y-15496809D01*
X13198021Y-15496809D02*
X13188498Y-15515857D01*
X13188498Y-15515857D02*
X13178974Y-15525381D01*
X13178974Y-15525381D02*
X13159926Y-15534905D01*
X13159926Y-15534905D02*
X13131355Y-15534905D01*
X13312307Y-15534905D02*
X13293259Y-15525381D01*
X13293259Y-15525381D02*
X13283736Y-15506333D01*
X13283736Y-15506333D02*
X13283736Y-15334905D01*
X13464688Y-15525381D02*
X13445640Y-15534905D01*
X13445640Y-15534905D02*
X13407545Y-15534905D01*
X13407545Y-15534905D02*
X13388498Y-15525381D01*
X13388498Y-15525381D02*
X13378974Y-15506333D01*
X13378974Y-15506333D02*
X13378974Y-15430143D01*
X13378974Y-15430143D02*
X13388498Y-15411095D01*
X13388498Y-15411095D02*
X13407545Y-15401571D01*
X13407545Y-15401571D02*
X13445640Y-15401571D01*
X13445640Y-15401571D02*
X13464688Y-15411095D01*
X13464688Y-15411095D02*
X13474212Y-15430143D01*
X13474212Y-15430143D02*
X13474212Y-15449190D01*
X13474212Y-15449190D02*
X13378974Y-15468238D01*
X13550402Y-15525381D02*
X13569450Y-15534905D01*
X13569450Y-15534905D02*
X13607545Y-15534905D01*
X13607545Y-15534905D02*
X13626593Y-15525381D01*
X13626593Y-15525381D02*
X13636117Y-15506333D01*
X13636117Y-15506333D02*
X13636117Y-15496809D01*
X13636117Y-15496809D02*
X13626593Y-15477762D01*
X13626593Y-15477762D02*
X13607545Y-15468238D01*
X13607545Y-15468238D02*
X13578974Y-15468238D01*
X13578974Y-15468238D02*
X13559926Y-15458714D01*
X13559926Y-15458714D02*
X13550402Y-15439666D01*
X13550402Y-15439666D02*
X13550402Y-15430143D01*
X13550402Y-15430143D02*
X13559926Y-15411095D01*
X13559926Y-15411095D02*
X13578974Y-15401571D01*
X13578974Y-15401571D02*
X13607545Y-15401571D01*
X13607545Y-15401571D02*
X13626593Y-15411095D01*
X13702783Y-15611095D02*
X13712307Y-15601571D01*
X13712307Y-15601571D02*
X13731355Y-15573000D01*
X13731355Y-15573000D02*
X13740879Y-15553952D01*
X13740879Y-15553952D02*
X13750402Y-15525381D01*
X13750402Y-15525381D02*
X13759926Y-15477762D01*
X13759926Y-15477762D02*
X13759926Y-15439666D01*
X13759926Y-15439666D02*
X13750402Y-15392047D01*
X13750402Y-15392047D02*
X13740879Y-15363476D01*
X13740879Y-15363476D02*
X13731355Y-15344428D01*
X13731355Y-15344428D02*
X13712307Y-15315857D01*
X13712307Y-15315857D02*
X13702783Y-15306333D01*
D15*
X8725529Y-15735705D02*
X8725529Y-15679136D01*
X8668960Y-15679136D01*
X8668960Y-15735705D01*
X8725529Y-15735705D01*
D11*
X9036116Y-15598905D02*
X9055164Y-15598905D01*
X9055164Y-15598905D02*
X9074212Y-15608428D01*
X9074212Y-15608428D02*
X9083735Y-15617952D01*
X9083735Y-15617952D02*
X9093259Y-15637000D01*
X9093259Y-15637000D02*
X9102783Y-15675095D01*
X9102783Y-15675095D02*
X9102783Y-15722714D01*
X9102783Y-15722714D02*
X9093259Y-15760809D01*
X9093259Y-15760809D02*
X9083735Y-15779857D01*
X9083735Y-15779857D02*
X9074212Y-15789381D01*
X9074212Y-15789381D02*
X9055164Y-15798905D01*
X9055164Y-15798905D02*
X9036116Y-15798905D01*
X9036116Y-15798905D02*
X9017069Y-15789381D01*
X9017069Y-15789381D02*
X9007545Y-15779857D01*
X9007545Y-15779857D02*
X8998021Y-15760809D01*
X8998021Y-15760809D02*
X8988497Y-15722714D01*
X8988497Y-15722714D02*
X8988497Y-15675095D01*
X8988497Y-15675095D02*
X8998021Y-15637000D01*
X8998021Y-15637000D02*
X9007545Y-15617952D01*
X9007545Y-15617952D02*
X9017069Y-15608428D01*
X9017069Y-15608428D02*
X9036116Y-15598905D01*
X9188497Y-15779857D02*
X9198021Y-15789381D01*
X9198021Y-15789381D02*
X9188497Y-15798905D01*
X9188497Y-15798905D02*
X9178973Y-15789381D01*
X9178973Y-15789381D02*
X9188497Y-15779857D01*
X9188497Y-15779857D02*
X9188497Y-15798905D01*
X9312307Y-15684619D02*
X9293259Y-15675095D01*
X9293259Y-15675095D02*
X9283735Y-15665571D01*
X9283735Y-15665571D02*
X9274212Y-15646524D01*
X9274212Y-15646524D02*
X9274212Y-15637000D01*
X9274212Y-15637000D02*
X9283735Y-15617952D01*
X9283735Y-15617952D02*
X9293259Y-15608428D01*
X9293259Y-15608428D02*
X9312307Y-15598905D01*
X9312307Y-15598905D02*
X9350402Y-15598905D01*
X9350402Y-15598905D02*
X9369450Y-15608428D01*
X9369450Y-15608428D02*
X9378973Y-15617952D01*
X9378973Y-15617952D02*
X9388497Y-15637000D01*
X9388497Y-15637000D02*
X9388497Y-15646524D01*
X9388497Y-15646524D02*
X9378973Y-15665571D01*
X9378973Y-15665571D02*
X9369450Y-15675095D01*
X9369450Y-15675095D02*
X9350402Y-15684619D01*
X9350402Y-15684619D02*
X9312307Y-15684619D01*
X9312307Y-15684619D02*
X9293259Y-15694143D01*
X9293259Y-15694143D02*
X9283735Y-15703666D01*
X9283735Y-15703666D02*
X9274212Y-15722714D01*
X9274212Y-15722714D02*
X9274212Y-15760809D01*
X9274212Y-15760809D02*
X9283735Y-15779857D01*
X9283735Y-15779857D02*
X9293259Y-15789381D01*
X9293259Y-15789381D02*
X9312307Y-15798905D01*
X9312307Y-15798905D02*
X9350402Y-15798905D01*
X9350402Y-15798905D02*
X9369450Y-15789381D01*
X9369450Y-15789381D02*
X9378973Y-15779857D01*
X9378973Y-15779857D02*
X9388497Y-15760809D01*
X9388497Y-15760809D02*
X9388497Y-15722714D01*
X9388497Y-15722714D02*
X9378973Y-15703666D01*
X9378973Y-15703666D02*
X9369450Y-15694143D01*
X9369450Y-15694143D02*
X9350402Y-15684619D01*
X9512307Y-15598905D02*
X9531354Y-15598905D01*
X9531354Y-15598905D02*
X9550402Y-15608428D01*
X9550402Y-15608428D02*
X9559926Y-15617952D01*
X9559926Y-15617952D02*
X9569450Y-15637000D01*
X9569450Y-15637000D02*
X9578973Y-15675095D01*
X9578973Y-15675095D02*
X9578973Y-15722714D01*
X9578973Y-15722714D02*
X9569450Y-15760809D01*
X9569450Y-15760809D02*
X9559926Y-15779857D01*
X9559926Y-15779857D02*
X9550402Y-15789381D01*
X9550402Y-15789381D02*
X9531354Y-15798905D01*
X9531354Y-15798905D02*
X9512307Y-15798905D01*
X9512307Y-15798905D02*
X9493259Y-15789381D01*
X9493259Y-15789381D02*
X9483735Y-15779857D01*
X9483735Y-15779857D02*
X9474212Y-15760809D01*
X9474212Y-15760809D02*
X9464688Y-15722714D01*
X9464688Y-15722714D02*
X9464688Y-15675095D01*
X9464688Y-15675095D02*
X9474212Y-15637000D01*
X9474212Y-15637000D02*
X9483735Y-15617952D01*
X9483735Y-15617952D02*
X9493259Y-15608428D01*
X9493259Y-15608428D02*
X9512307Y-15598905D01*
X9702783Y-15598905D02*
X9721831Y-15598905D01*
X9721831Y-15598905D02*
X9740878Y-15608428D01*
X9740878Y-15608428D02*
X9750402Y-15617952D01*
X9750402Y-15617952D02*
X9759926Y-15637000D01*
X9759926Y-15637000D02*
X9769450Y-15675095D01*
X9769450Y-15675095D02*
X9769450Y-15722714D01*
X9769450Y-15722714D02*
X9759926Y-15760809D01*
X9759926Y-15760809D02*
X9750402Y-15779857D01*
X9750402Y-15779857D02*
X9740878Y-15789381D01*
X9740878Y-15789381D02*
X9721831Y-15798905D01*
X9721831Y-15798905D02*
X9702783Y-15798905D01*
X9702783Y-15798905D02*
X9683735Y-15789381D01*
X9683735Y-15789381D02*
X9674212Y-15779857D01*
X9674212Y-15779857D02*
X9664688Y-15760809D01*
X9664688Y-15760809D02*
X9655164Y-15722714D01*
X9655164Y-15722714D02*
X9655164Y-15675095D01*
X9655164Y-15675095D02*
X9664688Y-15637000D01*
X9664688Y-15637000D02*
X9674212Y-15617952D01*
X9674212Y-15617952D02*
X9683735Y-15608428D01*
X9683735Y-15608428D02*
X9702783Y-15598905D01*
X9855164Y-15798905D02*
X9855164Y-15665571D01*
X9855164Y-15684619D02*
X9864688Y-15675095D01*
X9864688Y-15675095D02*
X9883735Y-15665571D01*
X9883735Y-15665571D02*
X9912307Y-15665571D01*
X9912307Y-15665571D02*
X9931354Y-15675095D01*
X9931354Y-15675095D02*
X9940878Y-15694143D01*
X9940878Y-15694143D02*
X9940878Y-15798905D01*
X9940878Y-15694143D02*
X9950402Y-15675095D01*
X9950402Y-15675095D02*
X9969450Y-15665571D01*
X9969450Y-15665571D02*
X9998021Y-15665571D01*
X9998021Y-15665571D02*
X10017069Y-15675095D01*
X10017069Y-15675095D02*
X10026593Y-15694143D01*
X10026593Y-15694143D02*
X10026593Y-15798905D01*
X10121831Y-15798905D02*
X10121831Y-15665571D01*
X10121831Y-15684619D02*
X10131354Y-15675095D01*
X10131354Y-15675095D02*
X10150402Y-15665571D01*
X10150402Y-15665571D02*
X10178974Y-15665571D01*
X10178974Y-15665571D02*
X10198021Y-15675095D01*
X10198021Y-15675095D02*
X10207545Y-15694143D01*
X10207545Y-15694143D02*
X10207545Y-15798905D01*
X10207545Y-15694143D02*
X10217069Y-15675095D01*
X10217069Y-15675095D02*
X10236116Y-15665571D01*
X10236116Y-15665571D02*
X10264688Y-15665571D01*
X10264688Y-15665571D02*
X10283735Y-15675095D01*
X10283735Y-15675095D02*
X10293259Y-15694143D01*
X10293259Y-15694143D02*
X10293259Y-15798905D01*
X10683735Y-15589381D02*
X10512307Y-15846524D01*
X10940878Y-15598905D02*
X10959926Y-15598905D01*
X10959926Y-15598905D02*
X10978974Y-15608428D01*
X10978974Y-15608428D02*
X10988497Y-15617952D01*
X10988497Y-15617952D02*
X10998021Y-15637000D01*
X10998021Y-15637000D02*
X11007545Y-15675095D01*
X11007545Y-15675095D02*
X11007545Y-15722714D01*
X11007545Y-15722714D02*
X10998021Y-15760809D01*
X10998021Y-15760809D02*
X10988497Y-15779857D01*
X10988497Y-15779857D02*
X10978974Y-15789381D01*
X10978974Y-15789381D02*
X10959926Y-15798905D01*
X10959926Y-15798905D02*
X10940878Y-15798905D01*
X10940878Y-15798905D02*
X10921831Y-15789381D01*
X10921831Y-15789381D02*
X10912307Y-15779857D01*
X10912307Y-15779857D02*
X10902783Y-15760809D01*
X10902783Y-15760809D02*
X10893259Y-15722714D01*
X10893259Y-15722714D02*
X10893259Y-15675095D01*
X10893259Y-15675095D02*
X10902783Y-15637000D01*
X10902783Y-15637000D02*
X10912307Y-15617952D01*
X10912307Y-15617952D02*
X10921831Y-15608428D01*
X10921831Y-15608428D02*
X10940878Y-15598905D01*
X11093259Y-15779857D02*
X11102783Y-15789381D01*
X11102783Y-15789381D02*
X11093259Y-15798905D01*
X11093259Y-15798905D02*
X11083736Y-15789381D01*
X11083736Y-15789381D02*
X11093259Y-15779857D01*
X11093259Y-15779857D02*
X11093259Y-15798905D01*
X11226593Y-15598905D02*
X11245640Y-15598905D01*
X11245640Y-15598905D02*
X11264688Y-15608428D01*
X11264688Y-15608428D02*
X11274212Y-15617952D01*
X11274212Y-15617952D02*
X11283735Y-15637000D01*
X11283735Y-15637000D02*
X11293259Y-15675095D01*
X11293259Y-15675095D02*
X11293259Y-15722714D01*
X11293259Y-15722714D02*
X11283735Y-15760809D01*
X11283735Y-15760809D02*
X11274212Y-15779857D01*
X11274212Y-15779857D02*
X11264688Y-15789381D01*
X11264688Y-15789381D02*
X11245640Y-15798905D01*
X11245640Y-15798905D02*
X11226593Y-15798905D01*
X11226593Y-15798905D02*
X11207545Y-15789381D01*
X11207545Y-15789381D02*
X11198021Y-15779857D01*
X11198021Y-15779857D02*
X11188497Y-15760809D01*
X11188497Y-15760809D02*
X11178974Y-15722714D01*
X11178974Y-15722714D02*
X11178974Y-15675095D01*
X11178974Y-15675095D02*
X11188497Y-15637000D01*
X11188497Y-15637000D02*
X11198021Y-15617952D01*
X11198021Y-15617952D02*
X11207545Y-15608428D01*
X11207545Y-15608428D02*
X11226593Y-15598905D01*
X11359926Y-15598905D02*
X11483735Y-15598905D01*
X11483735Y-15598905D02*
X11417069Y-15675095D01*
X11417069Y-15675095D02*
X11445640Y-15675095D01*
X11445640Y-15675095D02*
X11464688Y-15684619D01*
X11464688Y-15684619D02*
X11474212Y-15694143D01*
X11474212Y-15694143D02*
X11483735Y-15713190D01*
X11483735Y-15713190D02*
X11483735Y-15760809D01*
X11483735Y-15760809D02*
X11474212Y-15779857D01*
X11474212Y-15779857D02*
X11464688Y-15789381D01*
X11464688Y-15789381D02*
X11445640Y-15798905D01*
X11445640Y-15798905D02*
X11388497Y-15798905D01*
X11388497Y-15798905D02*
X11369450Y-15789381D01*
X11369450Y-15789381D02*
X11359926Y-15779857D01*
X11674212Y-15798905D02*
X11559926Y-15798905D01*
X11617069Y-15798905D02*
X11617069Y-15598905D01*
X11617069Y-15598905D02*
X11598021Y-15627476D01*
X11598021Y-15627476D02*
X11578974Y-15646524D01*
X11578974Y-15646524D02*
X11559926Y-15656047D01*
X11855164Y-15598905D02*
X11759926Y-15598905D01*
X11759926Y-15598905D02*
X11750402Y-15694143D01*
X11750402Y-15694143D02*
X11759926Y-15684619D01*
X11759926Y-15684619D02*
X11778974Y-15675095D01*
X11778974Y-15675095D02*
X11826593Y-15675095D01*
X11826593Y-15675095D02*
X11845640Y-15684619D01*
X11845640Y-15684619D02*
X11855164Y-15694143D01*
X11855164Y-15694143D02*
X11864688Y-15713190D01*
X11864688Y-15713190D02*
X11864688Y-15760809D01*
X11864688Y-15760809D02*
X11855164Y-15779857D01*
X11855164Y-15779857D02*
X11845640Y-15789381D01*
X11845640Y-15789381D02*
X11826593Y-15798905D01*
X11826593Y-15798905D02*
X11778974Y-15798905D01*
X11778974Y-15798905D02*
X11759926Y-15789381D01*
X11759926Y-15789381D02*
X11750402Y-15779857D01*
X11940878Y-15598905D02*
X11940878Y-15637000D01*
X12017069Y-15598905D02*
X12017069Y-15637000D01*
X12312307Y-15875095D02*
X12302783Y-15865571D01*
X12302783Y-15865571D02*
X12283736Y-15837000D01*
X12283736Y-15837000D02*
X12274212Y-15817952D01*
X12274212Y-15817952D02*
X12264688Y-15789381D01*
X12264688Y-15789381D02*
X12255164Y-15741762D01*
X12255164Y-15741762D02*
X12255164Y-15703666D01*
X12255164Y-15703666D02*
X12264688Y-15656047D01*
X12264688Y-15656047D02*
X12274212Y-15627476D01*
X12274212Y-15627476D02*
X12283736Y-15608428D01*
X12283736Y-15608428D02*
X12302783Y-15579857D01*
X12302783Y-15579857D02*
X12312307Y-15570333D01*
X12493259Y-15798905D02*
X12378974Y-15798905D01*
X12436116Y-15798905D02*
X12436116Y-15598905D01*
X12436116Y-15598905D02*
X12417069Y-15627476D01*
X12417069Y-15627476D02*
X12398021Y-15646524D01*
X12398021Y-15646524D02*
X12378974Y-15656047D01*
X12617069Y-15598905D02*
X12636117Y-15598905D01*
X12636117Y-15598905D02*
X12655164Y-15608428D01*
X12655164Y-15608428D02*
X12664688Y-15617952D01*
X12664688Y-15617952D02*
X12674212Y-15637000D01*
X12674212Y-15637000D02*
X12683736Y-15675095D01*
X12683736Y-15675095D02*
X12683736Y-15722714D01*
X12683736Y-15722714D02*
X12674212Y-15760809D01*
X12674212Y-15760809D02*
X12664688Y-15779857D01*
X12664688Y-15779857D02*
X12655164Y-15789381D01*
X12655164Y-15789381D02*
X12636117Y-15798905D01*
X12636117Y-15798905D02*
X12617069Y-15798905D01*
X12617069Y-15798905D02*
X12598021Y-15789381D01*
X12598021Y-15789381D02*
X12588497Y-15779857D01*
X12588497Y-15779857D02*
X12578974Y-15760809D01*
X12578974Y-15760809D02*
X12569450Y-15722714D01*
X12569450Y-15722714D02*
X12569450Y-15675095D01*
X12569450Y-15675095D02*
X12578974Y-15637000D01*
X12578974Y-15637000D02*
X12588497Y-15617952D01*
X12588497Y-15617952D02*
X12598021Y-15608428D01*
X12598021Y-15608428D02*
X12617069Y-15598905D01*
X12921831Y-15798905D02*
X12921831Y-15598905D01*
X13007545Y-15798905D02*
X13007545Y-15694143D01*
X13007545Y-15694143D02*
X12998021Y-15675095D01*
X12998021Y-15675095D02*
X12978974Y-15665571D01*
X12978974Y-15665571D02*
X12950402Y-15665571D01*
X12950402Y-15665571D02*
X12931355Y-15675095D01*
X12931355Y-15675095D02*
X12921831Y-15684619D01*
X13131355Y-15798905D02*
X13112307Y-15789381D01*
X13112307Y-15789381D02*
X13102783Y-15779857D01*
X13102783Y-15779857D02*
X13093259Y-15760809D01*
X13093259Y-15760809D02*
X13093259Y-15703666D01*
X13093259Y-15703666D02*
X13102783Y-15684619D01*
X13102783Y-15684619D02*
X13112307Y-15675095D01*
X13112307Y-15675095D02*
X13131355Y-15665571D01*
X13131355Y-15665571D02*
X13159926Y-15665571D01*
X13159926Y-15665571D02*
X13178974Y-15675095D01*
X13178974Y-15675095D02*
X13188498Y-15684619D01*
X13188498Y-15684619D02*
X13198021Y-15703666D01*
X13198021Y-15703666D02*
X13198021Y-15760809D01*
X13198021Y-15760809D02*
X13188498Y-15779857D01*
X13188498Y-15779857D02*
X13178974Y-15789381D01*
X13178974Y-15789381D02*
X13159926Y-15798905D01*
X13159926Y-15798905D02*
X13131355Y-15798905D01*
X13312307Y-15798905D02*
X13293259Y-15789381D01*
X13293259Y-15789381D02*
X13283736Y-15770333D01*
X13283736Y-15770333D02*
X13283736Y-15598905D01*
X13464688Y-15789381D02*
X13445640Y-15798905D01*
X13445640Y-15798905D02*
X13407545Y-15798905D01*
X13407545Y-15798905D02*
X13388498Y-15789381D01*
X13388498Y-15789381D02*
X13378974Y-15770333D01*
X13378974Y-15770333D02*
X13378974Y-15694143D01*
X13378974Y-15694143D02*
X13388498Y-15675095D01*
X13388498Y-15675095D02*
X13407545Y-15665571D01*
X13407545Y-15665571D02*
X13445640Y-15665571D01*
X13445640Y-15665571D02*
X13464688Y-15675095D01*
X13464688Y-15675095D02*
X13474212Y-15694143D01*
X13474212Y-15694143D02*
X13474212Y-15713190D01*
X13474212Y-15713190D02*
X13378974Y-15732238D01*
X13550402Y-15789381D02*
X13569450Y-15798905D01*
X13569450Y-15798905D02*
X13607545Y-15798905D01*
X13607545Y-15798905D02*
X13626593Y-15789381D01*
X13626593Y-15789381D02*
X13636117Y-15770333D01*
X13636117Y-15770333D02*
X13636117Y-15760809D01*
X13636117Y-15760809D02*
X13626593Y-15741762D01*
X13626593Y-15741762D02*
X13607545Y-15732238D01*
X13607545Y-15732238D02*
X13578974Y-15732238D01*
X13578974Y-15732238D02*
X13559926Y-15722714D01*
X13559926Y-15722714D02*
X13550402Y-15703666D01*
X13550402Y-15703666D02*
X13550402Y-15694143D01*
X13550402Y-15694143D02*
X13559926Y-15675095D01*
X13559926Y-15675095D02*
X13578974Y-15665571D01*
X13578974Y-15665571D02*
X13607545Y-15665571D01*
X13607545Y-15665571D02*
X13626593Y-15675095D01*
X13702783Y-15875095D02*
X13712307Y-15865571D01*
X13712307Y-15865571D02*
X13731355Y-15837000D01*
X13731355Y-15837000D02*
X13740879Y-15817952D01*
X13740879Y-15817952D02*
X13750402Y-15789381D01*
X13750402Y-15789381D02*
X13759926Y-15741762D01*
X13759926Y-15741762D02*
X13759926Y-15703666D01*
X13759926Y-15703666D02*
X13750402Y-15656047D01*
X13750402Y-15656047D02*
X13740879Y-15627476D01*
X13740879Y-15627476D02*
X13731355Y-15608428D01*
X13731355Y-15608428D02*
X13712307Y-15579857D01*
X13712307Y-15579857D02*
X13702783Y-15570333D01*
D16*
X8692244Y-16016421D02*
X8737244Y-15971421D01*
X8692244Y-15926421D01*
X8647244Y-15971421D01*
X8692244Y-16016421D01*
D11*
X9036116Y-15862905D02*
X9055164Y-15862905D01*
X9055164Y-15862905D02*
X9074212Y-15872428D01*
X9074212Y-15872428D02*
X9083735Y-15881952D01*
X9083735Y-15881952D02*
X9093259Y-15901000D01*
X9093259Y-15901000D02*
X9102783Y-15939095D01*
X9102783Y-15939095D02*
X9102783Y-15986714D01*
X9102783Y-15986714D02*
X9093259Y-16024809D01*
X9093259Y-16024809D02*
X9083735Y-16043857D01*
X9083735Y-16043857D02*
X9074212Y-16053381D01*
X9074212Y-16053381D02*
X9055164Y-16062905D01*
X9055164Y-16062905D02*
X9036116Y-16062905D01*
X9036116Y-16062905D02*
X9017069Y-16053381D01*
X9017069Y-16053381D02*
X9007545Y-16043857D01*
X9007545Y-16043857D02*
X8998021Y-16024809D01*
X8998021Y-16024809D02*
X8988497Y-15986714D01*
X8988497Y-15986714D02*
X8988497Y-15939095D01*
X8988497Y-15939095D02*
X8998021Y-15901000D01*
X8998021Y-15901000D02*
X9007545Y-15881952D01*
X9007545Y-15881952D02*
X9017069Y-15872428D01*
X9017069Y-15872428D02*
X9036116Y-15862905D01*
X9188497Y-16043857D02*
X9198021Y-16053381D01*
X9198021Y-16053381D02*
X9188497Y-16062905D01*
X9188497Y-16062905D02*
X9178973Y-16053381D01*
X9178973Y-16053381D02*
X9188497Y-16043857D01*
X9188497Y-16043857D02*
X9188497Y-16062905D01*
X9293259Y-16062905D02*
X9331354Y-16062905D01*
X9331354Y-16062905D02*
X9350402Y-16053381D01*
X9350402Y-16053381D02*
X9359926Y-16043857D01*
X9359926Y-16043857D02*
X9378973Y-16015285D01*
X9378973Y-16015285D02*
X9388497Y-15977190D01*
X9388497Y-15977190D02*
X9388497Y-15901000D01*
X9388497Y-15901000D02*
X9378973Y-15881952D01*
X9378973Y-15881952D02*
X9369450Y-15872428D01*
X9369450Y-15872428D02*
X9350402Y-15862905D01*
X9350402Y-15862905D02*
X9312307Y-15862905D01*
X9312307Y-15862905D02*
X9293259Y-15872428D01*
X9293259Y-15872428D02*
X9283735Y-15881952D01*
X9283735Y-15881952D02*
X9274212Y-15901000D01*
X9274212Y-15901000D02*
X9274212Y-15948619D01*
X9274212Y-15948619D02*
X9283735Y-15967666D01*
X9283735Y-15967666D02*
X9293259Y-15977190D01*
X9293259Y-15977190D02*
X9312307Y-15986714D01*
X9312307Y-15986714D02*
X9350402Y-15986714D01*
X9350402Y-15986714D02*
X9369450Y-15977190D01*
X9369450Y-15977190D02*
X9378973Y-15967666D01*
X9378973Y-15967666D02*
X9388497Y-15948619D01*
X9512307Y-15862905D02*
X9531354Y-15862905D01*
X9531354Y-15862905D02*
X9550402Y-15872428D01*
X9550402Y-15872428D02*
X9559926Y-15881952D01*
X9559926Y-15881952D02*
X9569450Y-15901000D01*
X9569450Y-15901000D02*
X9578973Y-15939095D01*
X9578973Y-15939095D02*
X9578973Y-15986714D01*
X9578973Y-15986714D02*
X9569450Y-16024809D01*
X9569450Y-16024809D02*
X9559926Y-16043857D01*
X9559926Y-16043857D02*
X9550402Y-16053381D01*
X9550402Y-16053381D02*
X9531354Y-16062905D01*
X9531354Y-16062905D02*
X9512307Y-16062905D01*
X9512307Y-16062905D02*
X9493259Y-16053381D01*
X9493259Y-16053381D02*
X9483735Y-16043857D01*
X9483735Y-16043857D02*
X9474212Y-16024809D01*
X9474212Y-16024809D02*
X9464688Y-15986714D01*
X9464688Y-15986714D02*
X9464688Y-15939095D01*
X9464688Y-15939095D02*
X9474212Y-15901000D01*
X9474212Y-15901000D02*
X9483735Y-15881952D01*
X9483735Y-15881952D02*
X9493259Y-15872428D01*
X9493259Y-15872428D02*
X9512307Y-15862905D01*
X9702783Y-15862905D02*
X9721831Y-15862905D01*
X9721831Y-15862905D02*
X9740878Y-15872428D01*
X9740878Y-15872428D02*
X9750402Y-15881952D01*
X9750402Y-15881952D02*
X9759926Y-15901000D01*
X9759926Y-15901000D02*
X9769450Y-15939095D01*
X9769450Y-15939095D02*
X9769450Y-15986714D01*
X9769450Y-15986714D02*
X9759926Y-16024809D01*
X9759926Y-16024809D02*
X9750402Y-16043857D01*
X9750402Y-16043857D02*
X9740878Y-16053381D01*
X9740878Y-16053381D02*
X9721831Y-16062905D01*
X9721831Y-16062905D02*
X9702783Y-16062905D01*
X9702783Y-16062905D02*
X9683735Y-16053381D01*
X9683735Y-16053381D02*
X9674212Y-16043857D01*
X9674212Y-16043857D02*
X9664688Y-16024809D01*
X9664688Y-16024809D02*
X9655164Y-15986714D01*
X9655164Y-15986714D02*
X9655164Y-15939095D01*
X9655164Y-15939095D02*
X9664688Y-15901000D01*
X9664688Y-15901000D02*
X9674212Y-15881952D01*
X9674212Y-15881952D02*
X9683735Y-15872428D01*
X9683735Y-15872428D02*
X9702783Y-15862905D01*
X9855164Y-16062905D02*
X9855164Y-15929571D01*
X9855164Y-15948619D02*
X9864688Y-15939095D01*
X9864688Y-15939095D02*
X9883735Y-15929571D01*
X9883735Y-15929571D02*
X9912307Y-15929571D01*
X9912307Y-15929571D02*
X9931354Y-15939095D01*
X9931354Y-15939095D02*
X9940878Y-15958143D01*
X9940878Y-15958143D02*
X9940878Y-16062905D01*
X9940878Y-15958143D02*
X9950402Y-15939095D01*
X9950402Y-15939095D02*
X9969450Y-15929571D01*
X9969450Y-15929571D02*
X9998021Y-15929571D01*
X9998021Y-15929571D02*
X10017069Y-15939095D01*
X10017069Y-15939095D02*
X10026593Y-15958143D01*
X10026593Y-15958143D02*
X10026593Y-16062905D01*
X10121831Y-16062905D02*
X10121831Y-15929571D01*
X10121831Y-15948619D02*
X10131354Y-15939095D01*
X10131354Y-15939095D02*
X10150402Y-15929571D01*
X10150402Y-15929571D02*
X10178974Y-15929571D01*
X10178974Y-15929571D02*
X10198021Y-15939095D01*
X10198021Y-15939095D02*
X10207545Y-15958143D01*
X10207545Y-15958143D02*
X10207545Y-16062905D01*
X10207545Y-15958143D02*
X10217069Y-15939095D01*
X10217069Y-15939095D02*
X10236116Y-15929571D01*
X10236116Y-15929571D02*
X10264688Y-15929571D01*
X10264688Y-15929571D02*
X10283735Y-15939095D01*
X10283735Y-15939095D02*
X10293259Y-15958143D01*
X10293259Y-15958143D02*
X10293259Y-16062905D01*
X10683735Y-15853381D02*
X10512307Y-16110524D01*
X10940878Y-15862905D02*
X10959926Y-15862905D01*
X10959926Y-15862905D02*
X10978974Y-15872428D01*
X10978974Y-15872428D02*
X10988497Y-15881952D01*
X10988497Y-15881952D02*
X10998021Y-15901000D01*
X10998021Y-15901000D02*
X11007545Y-15939095D01*
X11007545Y-15939095D02*
X11007545Y-15986714D01*
X11007545Y-15986714D02*
X10998021Y-16024809D01*
X10998021Y-16024809D02*
X10988497Y-16043857D01*
X10988497Y-16043857D02*
X10978974Y-16053381D01*
X10978974Y-16053381D02*
X10959926Y-16062905D01*
X10959926Y-16062905D02*
X10940878Y-16062905D01*
X10940878Y-16062905D02*
X10921831Y-16053381D01*
X10921831Y-16053381D02*
X10912307Y-16043857D01*
X10912307Y-16043857D02*
X10902783Y-16024809D01*
X10902783Y-16024809D02*
X10893259Y-15986714D01*
X10893259Y-15986714D02*
X10893259Y-15939095D01*
X10893259Y-15939095D02*
X10902783Y-15901000D01*
X10902783Y-15901000D02*
X10912307Y-15881952D01*
X10912307Y-15881952D02*
X10921831Y-15872428D01*
X10921831Y-15872428D02*
X10940878Y-15862905D01*
X11093259Y-16043857D02*
X11102783Y-16053381D01*
X11102783Y-16053381D02*
X11093259Y-16062905D01*
X11093259Y-16062905D02*
X11083736Y-16053381D01*
X11083736Y-16053381D02*
X11093259Y-16043857D01*
X11093259Y-16043857D02*
X11093259Y-16062905D01*
X11226593Y-15862905D02*
X11245640Y-15862905D01*
X11245640Y-15862905D02*
X11264688Y-15872428D01*
X11264688Y-15872428D02*
X11274212Y-15881952D01*
X11274212Y-15881952D02*
X11283735Y-15901000D01*
X11283735Y-15901000D02*
X11293259Y-15939095D01*
X11293259Y-15939095D02*
X11293259Y-15986714D01*
X11293259Y-15986714D02*
X11283735Y-16024809D01*
X11283735Y-16024809D02*
X11274212Y-16043857D01*
X11274212Y-16043857D02*
X11264688Y-16053381D01*
X11264688Y-16053381D02*
X11245640Y-16062905D01*
X11245640Y-16062905D02*
X11226593Y-16062905D01*
X11226593Y-16062905D02*
X11207545Y-16053381D01*
X11207545Y-16053381D02*
X11198021Y-16043857D01*
X11198021Y-16043857D02*
X11188497Y-16024809D01*
X11188497Y-16024809D02*
X11178974Y-15986714D01*
X11178974Y-15986714D02*
X11178974Y-15939095D01*
X11178974Y-15939095D02*
X11188497Y-15901000D01*
X11188497Y-15901000D02*
X11198021Y-15881952D01*
X11198021Y-15881952D02*
X11207545Y-15872428D01*
X11207545Y-15872428D02*
X11226593Y-15862905D01*
X11359926Y-15862905D02*
X11483735Y-15862905D01*
X11483735Y-15862905D02*
X11417069Y-15939095D01*
X11417069Y-15939095D02*
X11445640Y-15939095D01*
X11445640Y-15939095D02*
X11464688Y-15948619D01*
X11464688Y-15948619D02*
X11474212Y-15958143D01*
X11474212Y-15958143D02*
X11483735Y-15977190D01*
X11483735Y-15977190D02*
X11483735Y-16024809D01*
X11483735Y-16024809D02*
X11474212Y-16043857D01*
X11474212Y-16043857D02*
X11464688Y-16053381D01*
X11464688Y-16053381D02*
X11445640Y-16062905D01*
X11445640Y-16062905D02*
X11388497Y-16062905D01*
X11388497Y-16062905D02*
X11369450Y-16053381D01*
X11369450Y-16053381D02*
X11359926Y-16043857D01*
X11664688Y-15862905D02*
X11569450Y-15862905D01*
X11569450Y-15862905D02*
X11559926Y-15958143D01*
X11559926Y-15958143D02*
X11569450Y-15948619D01*
X11569450Y-15948619D02*
X11588497Y-15939095D01*
X11588497Y-15939095D02*
X11636116Y-15939095D01*
X11636116Y-15939095D02*
X11655164Y-15948619D01*
X11655164Y-15948619D02*
X11664688Y-15958143D01*
X11664688Y-15958143D02*
X11674212Y-15977190D01*
X11674212Y-15977190D02*
X11674212Y-16024809D01*
X11674212Y-16024809D02*
X11664688Y-16043857D01*
X11664688Y-16043857D02*
X11655164Y-16053381D01*
X11655164Y-16053381D02*
X11636116Y-16062905D01*
X11636116Y-16062905D02*
X11588497Y-16062905D01*
X11588497Y-16062905D02*
X11569450Y-16053381D01*
X11569450Y-16053381D02*
X11559926Y-16043857D01*
X11845640Y-15929571D02*
X11845640Y-16062905D01*
X11798021Y-15853381D02*
X11750402Y-15996238D01*
X11750402Y-15996238D02*
X11874212Y-15996238D01*
X11940878Y-15862905D02*
X11940878Y-15901000D01*
X12017069Y-15862905D02*
X12017069Y-15901000D01*
X12312307Y-16139095D02*
X12302783Y-16129571D01*
X12302783Y-16129571D02*
X12283736Y-16101000D01*
X12283736Y-16101000D02*
X12274212Y-16081952D01*
X12274212Y-16081952D02*
X12264688Y-16053381D01*
X12264688Y-16053381D02*
X12255164Y-16005762D01*
X12255164Y-16005762D02*
X12255164Y-15967666D01*
X12255164Y-15967666D02*
X12264688Y-15920047D01*
X12264688Y-15920047D02*
X12274212Y-15891476D01*
X12274212Y-15891476D02*
X12283736Y-15872428D01*
X12283736Y-15872428D02*
X12302783Y-15843857D01*
X12302783Y-15843857D02*
X12312307Y-15834333D01*
X12474212Y-15929571D02*
X12474212Y-16062905D01*
X12426593Y-15853381D02*
X12378974Y-15996238D01*
X12378974Y-15996238D02*
X12502783Y-15996238D01*
X12731355Y-16062905D02*
X12731355Y-15862905D01*
X12817069Y-16062905D02*
X12817069Y-15958143D01*
X12817069Y-15958143D02*
X12807545Y-15939095D01*
X12807545Y-15939095D02*
X12788498Y-15929571D01*
X12788498Y-15929571D02*
X12759926Y-15929571D01*
X12759926Y-15929571D02*
X12740878Y-15939095D01*
X12740878Y-15939095D02*
X12731355Y-15948619D01*
X12940878Y-16062905D02*
X12921831Y-16053381D01*
X12921831Y-16053381D02*
X12912307Y-16043857D01*
X12912307Y-16043857D02*
X12902783Y-16024809D01*
X12902783Y-16024809D02*
X12902783Y-15967666D01*
X12902783Y-15967666D02*
X12912307Y-15948619D01*
X12912307Y-15948619D02*
X12921831Y-15939095D01*
X12921831Y-15939095D02*
X12940878Y-15929571D01*
X12940878Y-15929571D02*
X12969450Y-15929571D01*
X12969450Y-15929571D02*
X12988498Y-15939095D01*
X12988498Y-15939095D02*
X12998021Y-15948619D01*
X12998021Y-15948619D02*
X13007545Y-15967666D01*
X13007545Y-15967666D02*
X13007545Y-16024809D01*
X13007545Y-16024809D02*
X12998021Y-16043857D01*
X12998021Y-16043857D02*
X12988498Y-16053381D01*
X12988498Y-16053381D02*
X12969450Y-16062905D01*
X12969450Y-16062905D02*
X12940878Y-16062905D01*
X13121831Y-16062905D02*
X13102783Y-16053381D01*
X13102783Y-16053381D02*
X13093259Y-16034333D01*
X13093259Y-16034333D02*
X13093259Y-15862905D01*
X13274212Y-16053381D02*
X13255164Y-16062905D01*
X13255164Y-16062905D02*
X13217069Y-16062905D01*
X13217069Y-16062905D02*
X13198021Y-16053381D01*
X13198021Y-16053381D02*
X13188498Y-16034333D01*
X13188498Y-16034333D02*
X13188498Y-15958143D01*
X13188498Y-15958143D02*
X13198021Y-15939095D01*
X13198021Y-15939095D02*
X13217069Y-15929571D01*
X13217069Y-15929571D02*
X13255164Y-15929571D01*
X13255164Y-15929571D02*
X13274212Y-15939095D01*
X13274212Y-15939095D02*
X13283736Y-15958143D01*
X13283736Y-15958143D02*
X13283736Y-15977190D01*
X13283736Y-15977190D02*
X13188498Y-15996238D01*
X13359926Y-16053381D02*
X13378974Y-16062905D01*
X13378974Y-16062905D02*
X13417069Y-16062905D01*
X13417069Y-16062905D02*
X13436117Y-16053381D01*
X13436117Y-16053381D02*
X13445640Y-16034333D01*
X13445640Y-16034333D02*
X13445640Y-16024809D01*
X13445640Y-16024809D02*
X13436117Y-16005762D01*
X13436117Y-16005762D02*
X13417069Y-15996238D01*
X13417069Y-15996238D02*
X13388498Y-15996238D01*
X13388498Y-15996238D02*
X13369450Y-15986714D01*
X13369450Y-15986714D02*
X13359926Y-15967666D01*
X13359926Y-15967666D02*
X13359926Y-15958143D01*
X13359926Y-15958143D02*
X13369450Y-15939095D01*
X13369450Y-15939095D02*
X13388498Y-15929571D01*
X13388498Y-15929571D02*
X13417069Y-15929571D01*
X13417069Y-15929571D02*
X13436117Y-15939095D01*
X13512307Y-16139095D02*
X13521831Y-16129571D01*
X13521831Y-16129571D02*
X13540879Y-16101000D01*
X13540879Y-16101000D02*
X13550402Y-16081952D01*
X13550402Y-16081952D02*
X13559926Y-16053381D01*
X13559926Y-16053381D02*
X13569450Y-16005762D01*
X13569450Y-16005762D02*
X13569450Y-15967666D01*
X13569450Y-15967666D02*
X13559926Y-15920047D01*
X13559926Y-15920047D02*
X13550402Y-15891476D01*
X13550402Y-15891476D02*
X13540879Y-15872428D01*
X13540879Y-15872428D02*
X13521831Y-15843857D01*
X13521831Y-15843857D02*
X13512307Y-15834333D01*
D10*
X8637244Y-16185421D02*
X8737244Y-16285421D01*
X8737244Y-16185421D02*
X8637244Y-16285421D01*
X8737244Y-16235421D02*
G75*
G03*
X8737244Y-16235421I-50000J0D01*
G01*
D11*
X9102783Y-16326905D02*
X8988497Y-16326905D01*
X9045640Y-16326905D02*
X9045640Y-16126905D01*
X9045640Y-16126905D02*
X9026592Y-16155476D01*
X9026592Y-16155476D02*
X9007545Y-16174524D01*
X9007545Y-16174524D02*
X8988497Y-16184047D01*
X9188497Y-16307857D02*
X9198021Y-16317381D01*
X9198021Y-16317381D02*
X9188497Y-16326905D01*
X9188497Y-16326905D02*
X9178973Y-16317381D01*
X9178973Y-16317381D02*
X9188497Y-16307857D01*
X9188497Y-16307857D02*
X9188497Y-16326905D01*
X9321831Y-16126905D02*
X9340878Y-16126905D01*
X9340878Y-16126905D02*
X9359926Y-16136428D01*
X9359926Y-16136428D02*
X9369450Y-16145952D01*
X9369450Y-16145952D02*
X9378973Y-16165000D01*
X9378973Y-16165000D02*
X9388497Y-16203095D01*
X9388497Y-16203095D02*
X9388497Y-16250714D01*
X9388497Y-16250714D02*
X9378973Y-16288809D01*
X9378973Y-16288809D02*
X9369450Y-16307857D01*
X9369450Y-16307857D02*
X9359926Y-16317381D01*
X9359926Y-16317381D02*
X9340878Y-16326905D01*
X9340878Y-16326905D02*
X9321831Y-16326905D01*
X9321831Y-16326905D02*
X9302783Y-16317381D01*
X9302783Y-16317381D02*
X9293259Y-16307857D01*
X9293259Y-16307857D02*
X9283735Y-16288809D01*
X9283735Y-16288809D02*
X9274212Y-16250714D01*
X9274212Y-16250714D02*
X9274212Y-16203095D01*
X9274212Y-16203095D02*
X9283735Y-16165000D01*
X9283735Y-16165000D02*
X9293259Y-16145952D01*
X9293259Y-16145952D02*
X9302783Y-16136428D01*
X9302783Y-16136428D02*
X9321831Y-16126905D01*
X9512307Y-16126905D02*
X9531354Y-16126905D01*
X9531354Y-16126905D02*
X9550402Y-16136428D01*
X9550402Y-16136428D02*
X9559926Y-16145952D01*
X9559926Y-16145952D02*
X9569450Y-16165000D01*
X9569450Y-16165000D02*
X9578973Y-16203095D01*
X9578973Y-16203095D02*
X9578973Y-16250714D01*
X9578973Y-16250714D02*
X9569450Y-16288809D01*
X9569450Y-16288809D02*
X9559926Y-16307857D01*
X9559926Y-16307857D02*
X9550402Y-16317381D01*
X9550402Y-16317381D02*
X9531354Y-16326905D01*
X9531354Y-16326905D02*
X9512307Y-16326905D01*
X9512307Y-16326905D02*
X9493259Y-16317381D01*
X9493259Y-16317381D02*
X9483735Y-16307857D01*
X9483735Y-16307857D02*
X9474212Y-16288809D01*
X9474212Y-16288809D02*
X9464688Y-16250714D01*
X9464688Y-16250714D02*
X9464688Y-16203095D01*
X9464688Y-16203095D02*
X9474212Y-16165000D01*
X9474212Y-16165000D02*
X9483735Y-16145952D01*
X9483735Y-16145952D02*
X9493259Y-16136428D01*
X9493259Y-16136428D02*
X9512307Y-16126905D01*
X9702783Y-16126905D02*
X9721831Y-16126905D01*
X9721831Y-16126905D02*
X9740878Y-16136428D01*
X9740878Y-16136428D02*
X9750402Y-16145952D01*
X9750402Y-16145952D02*
X9759926Y-16165000D01*
X9759926Y-16165000D02*
X9769450Y-16203095D01*
X9769450Y-16203095D02*
X9769450Y-16250714D01*
X9769450Y-16250714D02*
X9759926Y-16288809D01*
X9759926Y-16288809D02*
X9750402Y-16307857D01*
X9750402Y-16307857D02*
X9740878Y-16317381D01*
X9740878Y-16317381D02*
X9721831Y-16326905D01*
X9721831Y-16326905D02*
X9702783Y-16326905D01*
X9702783Y-16326905D02*
X9683735Y-16317381D01*
X9683735Y-16317381D02*
X9674212Y-16307857D01*
X9674212Y-16307857D02*
X9664688Y-16288809D01*
X9664688Y-16288809D02*
X9655164Y-16250714D01*
X9655164Y-16250714D02*
X9655164Y-16203095D01*
X9655164Y-16203095D02*
X9664688Y-16165000D01*
X9664688Y-16165000D02*
X9674212Y-16145952D01*
X9674212Y-16145952D02*
X9683735Y-16136428D01*
X9683735Y-16136428D02*
X9702783Y-16126905D01*
X9855164Y-16326905D02*
X9855164Y-16193571D01*
X9855164Y-16212619D02*
X9864688Y-16203095D01*
X9864688Y-16203095D02*
X9883735Y-16193571D01*
X9883735Y-16193571D02*
X9912307Y-16193571D01*
X9912307Y-16193571D02*
X9931354Y-16203095D01*
X9931354Y-16203095D02*
X9940878Y-16222143D01*
X9940878Y-16222143D02*
X9940878Y-16326905D01*
X9940878Y-16222143D02*
X9950402Y-16203095D01*
X9950402Y-16203095D02*
X9969450Y-16193571D01*
X9969450Y-16193571D02*
X9998021Y-16193571D01*
X9998021Y-16193571D02*
X10017069Y-16203095D01*
X10017069Y-16203095D02*
X10026593Y-16222143D01*
X10026593Y-16222143D02*
X10026593Y-16326905D01*
X10121831Y-16326905D02*
X10121831Y-16193571D01*
X10121831Y-16212619D02*
X10131354Y-16203095D01*
X10131354Y-16203095D02*
X10150402Y-16193571D01*
X10150402Y-16193571D02*
X10178974Y-16193571D01*
X10178974Y-16193571D02*
X10198021Y-16203095D01*
X10198021Y-16203095D02*
X10207545Y-16222143D01*
X10207545Y-16222143D02*
X10207545Y-16326905D01*
X10207545Y-16222143D02*
X10217069Y-16203095D01*
X10217069Y-16203095D02*
X10236116Y-16193571D01*
X10236116Y-16193571D02*
X10264688Y-16193571D01*
X10264688Y-16193571D02*
X10283735Y-16203095D01*
X10283735Y-16203095D02*
X10293259Y-16222143D01*
X10293259Y-16222143D02*
X10293259Y-16326905D01*
X10683735Y-16117381D02*
X10512307Y-16374524D01*
X10940878Y-16126905D02*
X10959926Y-16126905D01*
X10959926Y-16126905D02*
X10978974Y-16136428D01*
X10978974Y-16136428D02*
X10988497Y-16145952D01*
X10988497Y-16145952D02*
X10998021Y-16165000D01*
X10998021Y-16165000D02*
X11007545Y-16203095D01*
X11007545Y-16203095D02*
X11007545Y-16250714D01*
X11007545Y-16250714D02*
X10998021Y-16288809D01*
X10998021Y-16288809D02*
X10988497Y-16307857D01*
X10988497Y-16307857D02*
X10978974Y-16317381D01*
X10978974Y-16317381D02*
X10959926Y-16326905D01*
X10959926Y-16326905D02*
X10940878Y-16326905D01*
X10940878Y-16326905D02*
X10921831Y-16317381D01*
X10921831Y-16317381D02*
X10912307Y-16307857D01*
X10912307Y-16307857D02*
X10902783Y-16288809D01*
X10902783Y-16288809D02*
X10893259Y-16250714D01*
X10893259Y-16250714D02*
X10893259Y-16203095D01*
X10893259Y-16203095D02*
X10902783Y-16165000D01*
X10902783Y-16165000D02*
X10912307Y-16145952D01*
X10912307Y-16145952D02*
X10921831Y-16136428D01*
X10921831Y-16136428D02*
X10940878Y-16126905D01*
X11093259Y-16307857D02*
X11102783Y-16317381D01*
X11102783Y-16317381D02*
X11093259Y-16326905D01*
X11093259Y-16326905D02*
X11083736Y-16317381D01*
X11083736Y-16317381D02*
X11093259Y-16307857D01*
X11093259Y-16307857D02*
X11093259Y-16326905D01*
X11226593Y-16126905D02*
X11245640Y-16126905D01*
X11245640Y-16126905D02*
X11264688Y-16136428D01*
X11264688Y-16136428D02*
X11274212Y-16145952D01*
X11274212Y-16145952D02*
X11283735Y-16165000D01*
X11283735Y-16165000D02*
X11293259Y-16203095D01*
X11293259Y-16203095D02*
X11293259Y-16250714D01*
X11293259Y-16250714D02*
X11283735Y-16288809D01*
X11283735Y-16288809D02*
X11274212Y-16307857D01*
X11274212Y-16307857D02*
X11264688Y-16317381D01*
X11264688Y-16317381D02*
X11245640Y-16326905D01*
X11245640Y-16326905D02*
X11226593Y-16326905D01*
X11226593Y-16326905D02*
X11207545Y-16317381D01*
X11207545Y-16317381D02*
X11198021Y-16307857D01*
X11198021Y-16307857D02*
X11188497Y-16288809D01*
X11188497Y-16288809D02*
X11178974Y-16250714D01*
X11178974Y-16250714D02*
X11178974Y-16203095D01*
X11178974Y-16203095D02*
X11188497Y-16165000D01*
X11188497Y-16165000D02*
X11198021Y-16145952D01*
X11198021Y-16145952D02*
X11207545Y-16136428D01*
X11207545Y-16136428D02*
X11226593Y-16126905D01*
X11359926Y-16126905D02*
X11483735Y-16126905D01*
X11483735Y-16126905D02*
X11417069Y-16203095D01*
X11417069Y-16203095D02*
X11445640Y-16203095D01*
X11445640Y-16203095D02*
X11464688Y-16212619D01*
X11464688Y-16212619D02*
X11474212Y-16222143D01*
X11474212Y-16222143D02*
X11483735Y-16241190D01*
X11483735Y-16241190D02*
X11483735Y-16288809D01*
X11483735Y-16288809D02*
X11474212Y-16307857D01*
X11474212Y-16307857D02*
X11464688Y-16317381D01*
X11464688Y-16317381D02*
X11445640Y-16326905D01*
X11445640Y-16326905D02*
X11388497Y-16326905D01*
X11388497Y-16326905D02*
X11369450Y-16317381D01*
X11369450Y-16317381D02*
X11359926Y-16307857D01*
X11578974Y-16326905D02*
X11617069Y-16326905D01*
X11617069Y-16326905D02*
X11636116Y-16317381D01*
X11636116Y-16317381D02*
X11645640Y-16307857D01*
X11645640Y-16307857D02*
X11664688Y-16279285D01*
X11664688Y-16279285D02*
X11674212Y-16241190D01*
X11674212Y-16241190D02*
X11674212Y-16165000D01*
X11674212Y-16165000D02*
X11664688Y-16145952D01*
X11664688Y-16145952D02*
X11655164Y-16136428D01*
X11655164Y-16136428D02*
X11636116Y-16126905D01*
X11636116Y-16126905D02*
X11598021Y-16126905D01*
X11598021Y-16126905D02*
X11578974Y-16136428D01*
X11578974Y-16136428D02*
X11569450Y-16145952D01*
X11569450Y-16145952D02*
X11559926Y-16165000D01*
X11559926Y-16165000D02*
X11559926Y-16212619D01*
X11559926Y-16212619D02*
X11569450Y-16231666D01*
X11569450Y-16231666D02*
X11578974Y-16241190D01*
X11578974Y-16241190D02*
X11598021Y-16250714D01*
X11598021Y-16250714D02*
X11636116Y-16250714D01*
X11636116Y-16250714D02*
X11655164Y-16241190D01*
X11655164Y-16241190D02*
X11664688Y-16231666D01*
X11664688Y-16231666D02*
X11674212Y-16212619D01*
X11845640Y-16193571D02*
X11845640Y-16326905D01*
X11798021Y-16117381D02*
X11750402Y-16260238D01*
X11750402Y-16260238D02*
X11874212Y-16260238D01*
X11940878Y-16126905D02*
X11940878Y-16165000D01*
X12017069Y-16126905D02*
X12017069Y-16165000D01*
X12312307Y-16403095D02*
X12302783Y-16393571D01*
X12302783Y-16393571D02*
X12283736Y-16365000D01*
X12283736Y-16365000D02*
X12274212Y-16345952D01*
X12274212Y-16345952D02*
X12264688Y-16317381D01*
X12264688Y-16317381D02*
X12255164Y-16269762D01*
X12255164Y-16269762D02*
X12255164Y-16231666D01*
X12255164Y-16231666D02*
X12264688Y-16184047D01*
X12264688Y-16184047D02*
X12274212Y-16155476D01*
X12274212Y-16155476D02*
X12283736Y-16136428D01*
X12283736Y-16136428D02*
X12302783Y-16107857D01*
X12302783Y-16107857D02*
X12312307Y-16098333D01*
X12474212Y-16193571D02*
X12474212Y-16326905D01*
X12426593Y-16117381D02*
X12378974Y-16260238D01*
X12378974Y-16260238D02*
X12502783Y-16260238D01*
X12664688Y-16126905D02*
X12626593Y-16126905D01*
X12626593Y-16126905D02*
X12607545Y-16136428D01*
X12607545Y-16136428D02*
X12598021Y-16145952D01*
X12598021Y-16145952D02*
X12578974Y-16174524D01*
X12578974Y-16174524D02*
X12569450Y-16212619D01*
X12569450Y-16212619D02*
X12569450Y-16288809D01*
X12569450Y-16288809D02*
X12578974Y-16307857D01*
X12578974Y-16307857D02*
X12588497Y-16317381D01*
X12588497Y-16317381D02*
X12607545Y-16326905D01*
X12607545Y-16326905D02*
X12645640Y-16326905D01*
X12645640Y-16326905D02*
X12664688Y-16317381D01*
X12664688Y-16317381D02*
X12674212Y-16307857D01*
X12674212Y-16307857D02*
X12683736Y-16288809D01*
X12683736Y-16288809D02*
X12683736Y-16241190D01*
X12683736Y-16241190D02*
X12674212Y-16222143D01*
X12674212Y-16222143D02*
X12664688Y-16212619D01*
X12664688Y-16212619D02*
X12645640Y-16203095D01*
X12645640Y-16203095D02*
X12607545Y-16203095D01*
X12607545Y-16203095D02*
X12588497Y-16212619D01*
X12588497Y-16212619D02*
X12578974Y-16222143D01*
X12578974Y-16222143D02*
X12569450Y-16241190D01*
X12921831Y-16326905D02*
X12921831Y-16126905D01*
X13007545Y-16326905D02*
X13007545Y-16222143D01*
X13007545Y-16222143D02*
X12998021Y-16203095D01*
X12998021Y-16203095D02*
X12978974Y-16193571D01*
X12978974Y-16193571D02*
X12950402Y-16193571D01*
X12950402Y-16193571D02*
X12931355Y-16203095D01*
X12931355Y-16203095D02*
X12921831Y-16212619D01*
X13131355Y-16326905D02*
X13112307Y-16317381D01*
X13112307Y-16317381D02*
X13102783Y-16307857D01*
X13102783Y-16307857D02*
X13093259Y-16288809D01*
X13093259Y-16288809D02*
X13093259Y-16231666D01*
X13093259Y-16231666D02*
X13102783Y-16212619D01*
X13102783Y-16212619D02*
X13112307Y-16203095D01*
X13112307Y-16203095D02*
X13131355Y-16193571D01*
X13131355Y-16193571D02*
X13159926Y-16193571D01*
X13159926Y-16193571D02*
X13178974Y-16203095D01*
X13178974Y-16203095D02*
X13188498Y-16212619D01*
X13188498Y-16212619D02*
X13198021Y-16231666D01*
X13198021Y-16231666D02*
X13198021Y-16288809D01*
X13198021Y-16288809D02*
X13188498Y-16307857D01*
X13188498Y-16307857D02*
X13178974Y-16317381D01*
X13178974Y-16317381D02*
X13159926Y-16326905D01*
X13159926Y-16326905D02*
X13131355Y-16326905D01*
X13312307Y-16326905D02*
X13293259Y-16317381D01*
X13293259Y-16317381D02*
X13283736Y-16298333D01*
X13283736Y-16298333D02*
X13283736Y-16126905D01*
X13464688Y-16317381D02*
X13445640Y-16326905D01*
X13445640Y-16326905D02*
X13407545Y-16326905D01*
X13407545Y-16326905D02*
X13388498Y-16317381D01*
X13388498Y-16317381D02*
X13378974Y-16298333D01*
X13378974Y-16298333D02*
X13378974Y-16222143D01*
X13378974Y-16222143D02*
X13388498Y-16203095D01*
X13388498Y-16203095D02*
X13407545Y-16193571D01*
X13407545Y-16193571D02*
X13445640Y-16193571D01*
X13445640Y-16193571D02*
X13464688Y-16203095D01*
X13464688Y-16203095D02*
X13474212Y-16222143D01*
X13474212Y-16222143D02*
X13474212Y-16241190D01*
X13474212Y-16241190D02*
X13378974Y-16260238D01*
X13550402Y-16317381D02*
X13569450Y-16326905D01*
X13569450Y-16326905D02*
X13607545Y-16326905D01*
X13607545Y-16326905D02*
X13626593Y-16317381D01*
X13626593Y-16317381D02*
X13636117Y-16298333D01*
X13636117Y-16298333D02*
X13636117Y-16288809D01*
X13636117Y-16288809D02*
X13626593Y-16269762D01*
X13626593Y-16269762D02*
X13607545Y-16260238D01*
X13607545Y-16260238D02*
X13578974Y-16260238D01*
X13578974Y-16260238D02*
X13559926Y-16250714D01*
X13559926Y-16250714D02*
X13550402Y-16231666D01*
X13550402Y-16231666D02*
X13550402Y-16222143D01*
X13550402Y-16222143D02*
X13559926Y-16203095D01*
X13559926Y-16203095D02*
X13578974Y-16193571D01*
X13578974Y-16193571D02*
X13607545Y-16193571D01*
X13607545Y-16193571D02*
X13626593Y-16203095D01*
X13702783Y-16403095D02*
X13712307Y-16393571D01*
X13712307Y-16393571D02*
X13731355Y-16365000D01*
X13731355Y-16365000D02*
X13740879Y-16345952D01*
X13740879Y-16345952D02*
X13750402Y-16317381D01*
X13750402Y-16317381D02*
X13759926Y-16269762D01*
X13759926Y-16269762D02*
X13759926Y-16231666D01*
X13759926Y-16231666D02*
X13750402Y-16184047D01*
X13750402Y-16184047D02*
X13740879Y-16155476D01*
X13740879Y-16155476D02*
X13731355Y-16136428D01*
X13731355Y-16136428D02*
X13712307Y-16107857D01*
X13712307Y-16107857D02*
X13702783Y-16098333D01*
M02*
